<svg width="50" height="50" viewBox="0 0 50 50" fill="none" xmlns="http://www.w3.org/2000/svg">
<path fill-rule="evenodd" clip-rule="evenodd" d="M45 24.5C45 35.2695 36.2695 44 25.5 44C14.7305 44 6 35.2695 6 24.5C6 13.7305 14.7305 5 25.5 5C36.2695 5 45 13.7305 45 24.5ZM48 24.5C48 36.9264 37.9264 47 25.5 47C13.0736 47 3 36.9264 3 24.5C3 12.0736 13.0736 2 25.5 2C37.9264 2 48 12.0736 48 24.5ZM30.3269 14.1788C30.0841 14.2953 29.8701 14.4639 29.7001 14.6727L15.0015 32.2427C14.7545 32.5342 14.6202 32.9047 14.623 33.2868C14.6271 33.7099 14.7969 34.1145 15.0961 34.4137C15.3953 34.7129 15.8 34.8828 16.2231 34.8869C16.4607 34.8831 16.6949 34.8294 16.9103 34.7291C17.1257 34.6288 17.3176 34.4842 17.4735 34.3048L29.3973 20.0525V33.1641C29.379 33.3981 29.4091 33.6334 29.4861 33.8551C29.563 34.0769 29.685 34.2803 29.8444 34.4527C30.0037 34.625 30.197 34.7626 30.412 34.8566C30.6271 34.9507 30.8593 34.9992 31.094 34.9992C31.3287 34.9992 31.5609 34.9507 31.776 34.8566C31.991 34.7626 32.1843 34.625 32.3437 34.4527C32.503 34.2803 32.625 34.0769 32.7019 33.8551C32.7788 33.6334 32.8091 33.3981 32.7907 33.1641V15.7142C32.7935 15.4906 32.7519 15.2687 32.6685 15.0613C32.5851 14.8539 32.4615 14.665 32.3047 14.5055C32.148 14.3461 31.9612 14.2193 31.7552 14.1324C31.5492 14.0455 31.328 14.0002 31.1044 13.9993C30.8352 14.0011 30.5697 14.0624 30.3269 14.1788Z" fill="#1D1D1F"/>
</svg>
