<svg width="50" height="50" viewBox="0 0 50 50" fill="none" xmlns="http://www.w3.org/2000/svg">
<g clip-path="url(#clip0_888_1168)">
<mask id="mask0_888_1168" style="mask-type:luminance" maskUnits="userSpaceOnUse" x="0" y="0" width="50" height="50">
<path d="M50 0H0V50H50V0Z" fill="white"/>
</mask>
<g mask="url(#mask0_888_1168)">
<path d="M25 50C38.8071 50 50 38.8071 50 25C50 11.1929 38.8071 0 25 0C11.1929 0 0 11.1929 0 25C0 38.8071 11.1929 50 25 50Z" fill="url(#paint0_radial_888_1168)"/>
<path opacity="0.95" d="M42.8571 16.6666V33.3333C42.8584 34.2245 42.5265 35.084 41.9265 35.7431C41.3265 36.4021 40.5019 36.813 39.6144 36.895C38.7269 36.9771 37.8409 36.7244 37.1302 36.1864C36.4196 35.6485 35.9358 34.8645 35.7738 33.9881C35.7357 33.7719 35.7158 33.5528 35.7143 33.3333V30.619C35.7078 29.8651 35.4631 29.1326 35.015 28.5263C34.5669 27.92 33.9384 27.471 33.2196 27.2438C32.5007 27.0165 31.7284 27.0226 31.0132 27.261C30.298 27.4995 29.6767 27.9582 29.2381 28.5714L27.3809 31.1785L24.3928 35.369C23.8228 36.0937 22.9949 36.5699 22.0819 36.698C21.1689 36.8262 20.2419 36.5963 19.4945 36.0565C18.7471 35.5168 18.2375 34.7089 18.072 33.802C17.9067 32.8951 18.0983 31.9593 18.6071 31.1905L30.5119 14.5238C30.8408 14.085 31.2665 13.728 31.7558 13.4802C32.2451 13.2325 32.7849 13.1007 33.3333 13.0952H39.2857C40.2328 13.0952 41.1413 13.4715 41.8111 14.1413C42.4808 14.811 42.8571 15.7195 42.8571 16.6666Z" fill="#FFFDFA"/>
<path opacity="0.95" d="M31.5476 35.7143C33.1913 35.7143 34.5238 34.3818 34.5238 32.7382C34.5238 31.0945 33.1913 29.762 31.5476 29.762C29.9039 29.762 28.5714 31.0945 28.5714 32.7382C28.5714 34.3818 29.9039 35.7143 31.5476 35.7143Z" fill="#0D0A03"/>
<path opacity="0.95" d="M22.619 13.0952H10.7143C9.76708 13.0952 8.85867 13.4715 8.1889 14.1413C7.51913 14.811 7.14285 15.7195 7.14285 16.6666V33.3333C7.14421 34.0893 7.38538 34.8252 7.83165 35.4353C8.27791 36.0455 8.90626 36.4983 9.62625 36.7285C10.3462 36.9588 11.1207 36.9547 11.8382 36.7169C12.5557 36.479 13.1793 36.0195 13.619 35.4047L25.5238 18.7381C25.9039 18.2043 26.1298 17.576 26.1768 16.9224C26.2237 16.2687 26.0898 15.6147 25.7899 15.032C25.4899 14.4494 25.0355 13.9605 24.4762 13.6188C23.9169 13.2772 23.2744 13.096 22.619 13.0952ZM13.0952 21.4285C12.6243 21.4285 12.164 21.2889 11.7724 21.0272C11.3809 20.7657 11.0757 20.3938 10.8955 19.9588C10.7153 19.5237 10.6682 19.045 10.76 18.5831C10.8519 18.1213 11.0787 17.697 11.4117 17.364C11.7446 17.031 12.1689 16.8043 12.6307 16.7124C13.0926 16.6206 13.5713 16.6677 14.0064 16.8478C14.4414 17.0281 14.8133 17.3333 15.0749 17.7249C15.3365 18.1164 15.4762 18.5766 15.4762 19.0476C15.4762 19.679 15.2254 20.2846 14.7788 20.7312C14.3323 21.1777 13.7267 21.4285 13.0952 21.4285Z" fill="#0D0A03"/>
</g>
</g>
<defs>
<radialGradient id="paint0_radial_888_1168" cx="0" cy="0" r="1" gradientUnits="userSpaceOnUse" gradientTransform="translate(25 25) scale(25)">
<stop offset="0.473958" stop-color="#FFC640"/>
<stop offset="1" stop-color="#F2AF13"/>
</radialGradient>
<clipPath id="clip0_888_1168">
<rect width="50" height="50" fill="white"/>
</clipPath>
</defs>
</svg>
