<svg width="50" height="50" viewBox="0 0 50 50" fill="none" xmlns="http://www.w3.org/2000/svg">
<g clip-path="url(#clip0_888_1177)">
<path d="M46.3536 32.031L46.2889 31.9765C46.1594 31.5324 45.9573 31.1125 45.6907 30.7334L45.1315 30.0653C45.1019 29.8616 45.0598 29.66 45.0054 29.4615L44.239 27.9325L43.7994 25.2216L44.2939 22.5106L44.986 21.2V21.1615C45.0572 20.9209 45.1091 20.6749 45.1411 20.426L45.6746 19.8125C45.9714 19.4082 46.1906 18.9531 46.3212 18.4699L46.3795 18.4249C47.1575 17.7859 47.6845 16.8953 47.868 15.9093C48.0517 14.9231 47.8802 13.9041 47.3837 13.031C46.8872 12.1578 46.0972 11.486 45.1523 11.1332C44.2073 10.7804 43.1676 10.7692 42.215 11.1014H42.1957C41.6854 10.9456 41.1499 10.8879 40.6178 10.9312L39.8774 11.0596C39.6244 10.9429 39.3615 10.8483 39.0918 10.777L37.611 10.6871L37.5755 10.6614L34.989 9.67526L32.8356 7.86046L31.9174 6.41825L31.8754 6.36685C31.7303 6.21285 31.5748 6.06903 31.4099 5.93644L31.1317 5.12059V5.08847C30.9376 4.65751 30.6733 4.26138 30.3492 3.91607L30.3298 3.81007C30.1509 2.75215 29.6026 1.7906 28.7815 1.094C27.9602 0.397385 26.9184 0.0101581 25.8387 0.000197068C24.7589 -0.00976396 23.71 0.358178 22.876 1.03952C22.0418 1.72087 21.4758 2.67213 21.277 3.72656L21.2478 3.86788C20.9276 4.19763 20.6624 4.57606 20.4622 4.9889L20.139 5.86899C19.985 5.99015 19.8382 6.11991 19.6992 6.25765L18.671 7.80265L16.521 9.53072L14.025 10.4172L13.9668 10.4494L13.9344 10.4719L12.5215 10.5297H12.4763C12.2083 10.5947 11.9465 10.6829 11.6939 10.7931L10.9761 10.6549H10.9599C10.4385 10.6031 9.91186 10.65 9.408 10.7931C8.46146 10.4412 7.42041 10.4319 6.46761 10.7666C5.51479 11.1013 4.7111 11.7587 4.19757 12.6234C3.68403 13.4882 3.49348 14.505 3.65935 15.4953C3.82522 16.4857 4.33692 17.3865 5.10463 18.0394L5.1305 18.0587C5.25273 18.5574 5.46528 19.0297 5.75774 19.4526L6.23947 20.0244C6.26554 20.2872 6.31421 20.5472 6.38497 20.8018L7.03161 22.1059V22.1541L7.46485 24.8232L6.97664 27.4925L6.16512 29.0343L6.13924 29.0985C6.08367 29.2818 6.04047 29.4684 6.00993 29.6574L5.42148 30.3287L5.39886 30.3576C5.13262 30.7224 4.92636 31.1268 4.78778 31.5557L4.68432 31.6424C3.84618 32.3244 3.2774 33.2785 3.07831 34.3366C2.87921 35.3946 3.0626 36.4884 3.59611 37.4251C4.12963 38.3619 4.979 39.0815 5.9944 39.4568C7.0098 39.8321 8.126 39.8391 9.14611 39.4766L9.21078 39.4509C9.67926 39.5699 10.1643 39.611 10.6463 39.5729L11.5031 39.4251C11.713 39.511 11.9291 39.5809 12.1497 39.634L13.8827 39.7432L16.5081 40.7453L18.6193 42.5216L18.6775 42.5569L19.4728 43.8L19.4987 43.8321C19.6845 44.029 19.8881 44.2084 20.1065 44.3685L20.3684 45.1201C20.5826 45.5934 20.8855 46.0218 21.2609 46.3825V46.4307C21.4086 47.4299 21.9159 48.3421 22.6886 48.9982C23.4614 49.6543 24.4474 50.01 25.4639 49.9993H25.506C26.5145 50.0182 27.4962 49.6763 28.272 49.036C29.0478 48.3956 29.5659 47.4994 29.7318 46.511V46.4243C30.0994 46.0731 30.3996 45.6584 30.6176 45.2004L30.899 44.4393C31.1043 44.2906 31.2969 44.1251 31.4744 43.9446L32.3475 42.6404L34.5266 40.8866L37.1358 39.9584L38.7523 39.8909H38.8202C39.0335 39.8399 39.2431 39.7744 39.4474 39.695L40.2493 39.8491H40.2849C40.4331 39.8647 40.582 39.8722 40.7311 39.8716C41.0576 39.8704 41.383 39.8328 41.701 39.7593L41.7528 39.7785C42.2942 39.9869 42.8695 40.0957 43.4502 40.0997C44.2401 40.0882 45.0132 39.8725 45.6935 39.4737C46.3739 39.0749 46.9378 38.5069 47.33 37.8256C47.9018 36.9062 48.1181 35.8118 47.9384 34.7459C47.7588 33.6801 47.1956 32.7153 46.3536 32.031ZM44.7984 36.3544C44.1524 37.5134 43.1114 38.4051 41.8626 38.8696L41.216 38.6287C43.1885 36.9379 44.5425 34.6465 45.0668 32.1113L45.5905 32.5547C45.7964 33.8747 45.5152 35.2243 44.7984 36.3544ZM32.0209 42.2004C31.9077 42.2518 31.7881 42.3032 31.6619 42.3513L31.9691 41.5259L32.5673 41.4616L32.1373 42.1041L32.0209 42.2004ZM30.6241 44.0569C30.4579 44.1735 30.2851 44.2807 30.1068 44.3782L30.3008 43.3375C30.5239 43.2828 30.7405 43.2282 30.9474 43.1672L30.6241 44.0569ZM29.4763 46.1319C28.3547 47.0646 26.9366 47.5721 25.474 47.5646C24.0115 47.5569 22.5989 47.0346 21.4872 46.0901L21.319 45.0784C22.6285 45.6224 24.035 45.8976 25.4543 45.8878H25.5739C26.9745 45.9094 28.3652 45.6516 29.6639 45.1299L29.4763 46.1319ZM25.4576 45.4221C23.9956 45.4318 22.5496 45.1213 21.2221 44.5131L21.028 43.3568C22.5576 43.6862 24.1188 43.8476 25.6839 43.8385C27.1279 43.8474 28.5689 43.7075 29.9839 43.421L29.7706 44.5644C28.4148 45.1651 26.9415 45.4581 25.4576 45.4221ZM20.0451 43.0966C20.2586 43.164 20.4816 43.225 20.7112 43.2797L20.889 44.3365C20.7046 44.2313 20.5263 44.1154 20.3555 43.9896L20.0451 43.0966ZM18.8716 42.0301L18.4318 41.3396L19.0526 41.4166L19.3467 42.2615C19.2014 42.2037 19.0591 42.1426 18.9265 42.0784L18.8716 42.0301ZM6.17806 36.0044C5.4757 34.8487 5.22272 33.4779 5.46674 32.1499L6.01315 31.7034C6.2325 32.9925 6.68373 34.2318 7.34523 35.3619C7.96431 36.4737 8.77021 37.4721 9.72807 38.3138L9.04588 38.5515C7.81732 38.0653 6.80147 37.1631 6.17806 36.0044ZM7.58449 22.1412C7.58449 22.0031 7.61682 21.8585 7.63945 21.7107L8.18586 22.3532C8.1018 22.5331 8.02096 22.7129 7.94336 22.8896L7.59418 22.1926L7.58449 22.1412ZM6.69859 19.9988C6.67833 19.796 6.6697 19.5922 6.67273 19.3885L7.45516 20.0534C7.39048 20.2653 7.32907 20.4774 7.27733 20.6957L6.69859 19.9988ZM6.27182 13.8413C6.97608 12.5702 8.14336 11.6151 9.5341 11.1721L10.4588 11.5158C8.2088 13.2835 6.70881 15.826 6.25564 18.6401L5.50878 17.9976C5.21423 16.5663 5.4876 15.0772 6.27182 13.8413ZM8.09857 14.9013C8.82067 13.6402 9.8143 12.5533 11.0084 11.7181L12.0754 12.1132C10.0669 14.33 8.52761 16.9254 7.54892 19.745L6.6889 19.0126C6.84351 17.5518 7.32517 16.1437 8.09857 14.8916V14.9013ZM12.7705 11.4066C12.6121 11.5543 12.4472 11.7277 12.2888 11.8787L11.3188 11.519C11.5009 11.4136 11.6887 11.3181 11.8814 11.2331L12.7705 11.4066ZM14.2416 10.9344L15.0628 10.9023L14.6942 11.3841L13.8439 11.2235C13.9765 11.1207 14.109 11.0243 14.2384 10.9376L14.2416 10.9344ZM37.2975 11.1528C37.4299 11.2427 37.5626 11.3455 37.6951 11.4547L36.8156 11.6057C36.6895 11.4323 36.5667 11.262 36.4438 11.0982L37.2877 11.1496L37.2975 11.1528ZM39.6868 11.4965C39.8823 11.5928 40.0724 11.7001 40.2558 11.8177L39.2502 12.171C39.0886 11.9976 38.9269 11.8305 38.7653 11.6731L39.6868 11.4965ZM45.264 14.2075C46.034 15.466 46.2799 16.9731 45.9495 18.4088L45.1734 19.0512C44.7811 16.2212 43.3315 13.6412 41.1126 11.8241L42.0826 11.5029C43.4478 11.9693 44.5845 12.9322 45.264 14.1978V14.2075ZM44.0839 21.0812C44.0386 20.8756 43.9837 20.6637 43.9255 20.4388L44.7305 19.7965C44.7282 19.9972 44.7143 20.1978 44.6884 20.3971L44.0839 21.0812ZM43.7412 22.4688L43.7153 22.6134L43.3629 23.2782C43.2916 23.1049 43.2173 22.925 43.1365 22.7419L43.7023 22.0994C43.7174 22.2237 43.7304 22.3468 43.7412 22.4688ZM34.4457 39.3513C34.5394 39.165 34.6333 38.9754 34.7302 38.786L35.7681 38.9819L35.516 39.3031L34.4457 39.3513ZM32.9681 40.7743C32.7257 40.8063 32.4734 40.8353 32.2181 40.861L32.5414 39.9874L33.5114 40.0612L33.0555 40.7453L32.9681 40.7743ZM20.6239 40.9284L20.4396 39.8363C20.4411 39.8138 20.4411 39.7913 20.4396 39.7688C23.7148 39.6693 27.4071 39.7047 30.6662 39.8716C30.6662 39.8909 30.6662 39.9101 30.6662 39.9296L30.4625 41.0119C27.1838 41.2071 23.8956 41.1791 20.6206 40.9284H20.6239ZM30.3235 41.6575L30.1035 42.8268C27.0777 43.4463 23.9543 43.4244 20.9376 42.7625L20.7402 41.5772C22.4442 41.709 24.3355 41.7765 26.2011 41.7765C27.6173 41.786 29.0204 41.7347 30.3137 41.6575H30.3235ZM17.9856 40.6297L17.5233 39.9071C17.8466 39.8846 18.1699 39.8653 18.5158 39.8491L18.8391 40.7485C18.5514 40.71 18.2701 40.6747 18.0018 40.6329L17.9856 40.6297ZM15.5025 39.12L15.2439 38.7763L16.2591 38.6029H16.3108C16.4111 38.8053 16.5048 39.0044 16.5986 39.2003L15.5025 39.12ZM13.7405 12.7235C11.9484 15.334 10.3284 18.0571 8.89069 20.8756L8.00803 20.1272C8.98174 17.2306 10.5569 14.5692 12.6315 12.3156L13.7405 12.7235ZM14.358 12.9547L15.425 13.3498C13.8892 16.1957 12.0269 19.3306 10.2519 22.0224L9.39183 21.2932C10.8511 18.4049 12.5071 15.619 14.3483 12.9547H14.358ZM16.7408 10.822C16.6018 11.1014 16.4563 11.3905 16.3044 11.6828L15.4023 11.5093C15.5769 11.2813 15.745 11.0629 15.9132 10.8669L16.7408 10.822ZM33.6827 10.52L33.0199 10.5618C33.0038 10.5136 32.9875 10.4654 32.9746 10.4205L32.6675 9.53393L33.091 9.59496L33.6827 10.52ZM35.6227 11.0372C35.7874 11.2524 35.946 11.4804 36.1303 11.7181L35.1958 11.8787C35.0472 11.5575 34.9049 11.2781 34.7658 10.9858L35.6227 11.0372ZM41.9628 21.6722L41.077 22.3981C39.3635 19.6582 37.5495 16.4751 36.0591 13.5875L37.1454 13.1989C38.9377 15.9118 40.5419 18.7428 41.9467 21.6722H41.9628ZM37.7824 12.9805L38.9141 12.5822C40.9466 14.8851 42.4691 17.5872 43.3822 20.5126L42.4479 21.2547C41.0699 18.3985 39.506 15.6346 37.7663 12.9805H37.7824ZM42.9555 23.9624V24.0396L42.5869 24.7622C42.4155 24.5085 42.2442 24.2482 42.0663 23.9785L42.6677 23.2912C42.769 23.5181 42.8628 23.7419 42.949 23.9624H42.9555ZM43.392 29.5096L42.6063 28.8382C42.6612 28.7291 42.7163 28.6135 42.7679 28.5171L43.4437 29.3201C43.4178 29.3747 43.4178 29.4422 43.3855 29.5096H43.392ZM43.9513 29.9112L44.1582 30.1584L43.9351 29.969C43.9351 29.9497 43.9384 29.9304 43.9449 29.9015L43.9513 29.9112ZM37.666 37.2988C39.3279 34.8444 40.8396 32.2926 42.1924 29.6574L43.0945 30.4475C42.1455 33.1282 40.6831 35.6009 38.7879 37.7293L37.666 37.2988ZM32.7775 39.271C32.8712 38.9851 32.9681 38.6993 33.0716 38.4101C33.4759 38.4904 33.8702 38.5772 34.2614 38.6704C34.1418 38.9049 34.0286 39.1362 33.9155 39.3641L32.7775 39.271ZM31.1091 39.165C31.1866 38.8118 31.2707 38.4584 31.3613 38.1115C31.8075 38.179 32.2503 38.2528 32.6901 38.3363C32.5834 38.6382 32.4799 38.9434 32.3668 39.2453C31.9595 39.2165 31.5358 39.194 31.1027 39.1715L31.1091 39.165ZM18.6905 39.1072C18.5967 38.786 18.4965 38.4874 18.3897 38.1757C18.8424 38.1018 19.2983 38.0376 19.7573 37.9797C19.8414 38.3363 19.919 38.6928 19.9902 39.0526L18.6905 39.1072ZM17.1256 39.2035C17.0157 38.9659 16.9025 38.7282 16.7829 38.4841C17.1838 38.3974 17.5944 38.3171 18.0083 38.2463C18.1085 38.5419 18.2054 38.8374 18.296 39.1297C17.8756 39.1585 17.4974 39.181 17.1191 39.2165L17.1256 39.2035ZM16.0716 37.0515C16.521 36.9037 16.9704 36.7688 17.4263 36.6468C17.533 36.9231 17.6364 37.1993 17.7496 37.4722C17.3034 37.5526 16.8637 37.6425 16.4305 37.7357L16.0716 37.0515ZM9.408 28.9379L10.407 28.1188L10.4523 28.0803C12.0689 30.6884 13.776 33.6693 15.1986 36.4124L15.134 36.4316L13.9021 36.8651C12.2371 34.3197 10.736 31.6719 9.408 28.9379ZM13.3492 37.0451L12.1724 37.4562C10.3147 35.285 8.89933 32.776 8.00479 30.0685L8.95535 29.2912C10.2596 31.9624 11.727 34.5518 13.3492 37.0451ZM30.3072 9.30266L30.5109 10.5104C30.5109 10.5618 30.5304 10.61 30.54 10.6614C27.4297 10.7513 23.9671 10.716 20.8696 10.565L20.8988 10.4205L21.125 9.22237C24.1887 9.0559 27.2599 9.08272 30.3202 9.30266H30.3072ZM21.2284 8.66026L21.458 7.43647C24.2846 6.90523 27.1884 6.92706 30.0066 7.50071L30.2135 8.73413C27.2271 8.52916 24.2307 8.50663 21.2415 8.66668L21.2284 8.66026ZM33.9284 10.9665C34.0869 11.3102 34.2518 11.6635 34.4329 12.0233C34.1321 12.0875 33.8314 12.1453 33.5243 12.2031C33.3853 11.8049 33.2559 11.4098 33.1363 11.0147L33.9284 10.9665ZM40.508 22.8735C40.2331 23.1112 39.9615 23.3522 39.6964 23.5994C37.493 20.6878 35.6721 17.509 34.2776 14.14C34.6365 14.0404 34.9921 13.9312 35.3478 13.8188C36.8707 16.7963 38.7298 20.0534 40.508 22.8735ZM42.1891 25.4432C42.0469 25.6456 41.9014 25.8512 41.756 26.0631C41.4877 25.774 41.2225 25.4721 40.9605 25.1669C41.1611 24.9421 41.3615 24.7237 41.5652 24.5085C41.7689 24.8329 41.9758 25.1444 42.1828 25.4463L42.1891 25.4432ZM35.419 36.4765C34.9598 36.3128 34.4975 36.1553 34.0318 36.0172C35.4331 32.8576 37.21 29.876 39.3245 27.1359C39.6694 27.47 40.0241 27.7912 40.3883 28.0996C38.6845 30.7334 36.903 33.7303 35.4125 36.4797L35.419 36.4765ZM19.8835 10.9761C19.7865 11.4323 19.6798 11.8851 19.5602 12.3348C19.2757 12.2899 18.9944 12.2449 18.7163 12.1935C18.8716 11.7727 19.0138 11.352 19.1496 10.9312L19.8835 10.9761ZM38.5875 25.1091C38.817 24.8682 39.0465 24.6306 39.2826 24.3993C39.5735 24.7719 39.8688 25.1359 40.1684 25.4913C39.9778 25.7129 39.7935 25.941 39.6059 26.1691C39.2502 25.819 38.9108 25.4688 38.568 25.1059L38.5875 25.1091ZM38.3869 24.8843C35.7284 21.8953 33.7137 18.3974 32.4671 14.6057C32.8097 14.5319 33.1492 14.4548 33.4887 14.3681C34.9249 17.8606 36.8105 21.1535 39.0984 24.1649C38.8494 24.3928 38.6165 24.6369 38.3806 24.881L38.3869 24.8843ZM37.7759 25.546C35.1752 28.4346 33.1665 31.7993 31.8624 35.4519C27.7314 34.5274 23.4511 34.4749 19.2983 35.2978C18.0438 31.5878 16.0662 28.1597 13.4786 25.2087C16.2926 22.1507 18.4411 18.5488 19.7898 14.6282C23.6687 15.4496 27.6729 15.4997 31.5715 14.776C32.8629 18.7534 34.9737 22.42 37.7695 25.5428L37.7759 25.546ZM32.3732 14.3038C32.2181 13.8188 32.0758 13.3402 31.9464 12.8423C32.2526 12.8016 32.5565 12.7567 32.8583 12.7074C33.0199 13.1603 33.1816 13.6164 33.3755 14.0693C33.0361 14.1625 32.6998 14.2396 32.3668 14.3135L32.3732 14.3038ZM31.4842 14.4773C27.6504 15.1844 23.7142 15.1353 19.8996 14.3327C20.0635 13.8381 20.2155 13.337 20.3555 12.8295C23.9022 13.3053 27.4943 13.3463 31.0509 12.9515C31.177 13.4751 31.3193 13.9826 31.4776 14.4837L31.4842 14.4773ZM20.4622 12.4665C20.5884 11.9911 20.6982 11.5029 20.8017 11.0275C23.9541 11.1849 27.4911 11.2203 30.6564 11.1271C30.7502 11.6153 30.8537 12.0907 30.9798 12.5854C27.4821 12.9707 23.9502 12.9308 20.4622 12.4665ZM19.4728 12.7106C19.3371 13.1925 19.1883 13.6742 19.0299 14.1432C18.7067 14.0661 18.3834 13.9858 18.0599 13.8959C18.2475 13.4526 18.4254 13.0061 18.5902 12.5629L19.4728 12.7106ZM18.9297 14.4259C17.6277 18.1678 15.574 21.6078 12.8934 24.5374C12.667 24.29 12.4375 24.0491 12.2015 23.8115C14.5212 20.8557 16.4508 17.6174 17.9436 14.1753C18.254 14.2621 18.5838 14.3456 18.9136 14.4259H18.9297ZM12.6767 24.7622C12.3405 25.1219 11.9945 25.4743 11.6389 25.819C11.4578 25.5876 11.2735 25.3597 11.0925 25.1381C11.3964 24.7847 11.6992 24.4228 12.001 24.0524C12.2306 24.2804 12.4537 24.5181 12.6767 24.7622ZM13.2781 25.4303C15.8174 28.3387 17.7593 31.7126 18.9944 35.3619C18.4771 35.4712 17.963 35.5932 17.4521 35.7281C16.0776 32.4643 14.309 29.3785 12.1853 26.5385C12.5603 26.1724 12.9246 25.8019 13.2781 25.4271V25.4303ZM19.2757 36.2068C19.3726 36.5387 19.4665 36.8694 19.5569 37.1993C19.0687 37.2635 18.5871 37.3341 18.115 37.4144C18.0115 37.1285 17.9048 36.8396 17.7916 36.5504C18.283 36.4219 18.7777 36.3063 19.2757 36.2035V36.2068ZM19.5699 36.1521C23.5362 35.3834 27.6192 35.4337 31.565 36.2999C31.4583 36.621 31.358 36.9584 31.2611 37.2924C27.4817 36.7582 23.6482 36.7151 19.8576 37.164C19.7671 36.8234 19.6702 36.4862 19.5699 36.149V36.1521ZM31.856 36.3641C32.3377 36.4765 32.8259 36.6018 33.2979 36.74C33.1816 37.0194 33.0683 37.2988 32.9746 37.5782C32.5124 37.4884 32.0467 37.4081 31.5715 37.3341C31.6554 37.0065 31.7525 36.6821 31.8593 36.3609L31.856 36.3641ZM32.147 35.5194C33.4343 31.9256 35.4106 28.614 37.9667 25.7676C38.3126 26.1466 38.6683 26.5128 39.0337 26.8725C36.8791 29.6606 35.0705 32.6965 33.6471 35.9144C33.1557 35.7666 32.6546 35.6318 32.1501 35.5162L32.147 35.5194ZM39.8613 26.4357C40.0423 26.2141 40.2202 25.9988 40.4013 25.7932C40.6858 26.1146 40.9768 26.4357 41.2677 26.7569L40.8636 27.3607C40.537 27.0588 40.2009 26.7504 39.8613 26.4357ZM41.5879 27.1231L42.3573 28.0385C42.2895 28.1799 42.2183 28.3244 42.1504 28.469L41.2613 27.7141L41.2193 27.6756C41.355 27.4893 41.4779 27.3029 41.6007 27.1231H41.5879ZM40.6923 24.8747C40.4078 24.5534 40.1297 24.1937 39.858 23.8372C40.1168 23.5963 40.3819 23.3618 40.6503 23.1304C40.8787 23.4903 41.105 23.8404 41.3291 24.1809C41.1287 24.409 40.9154 24.6369 40.7052 24.8747H40.6923ZM34.1451 13.8638C33.9704 13.4334 33.8055 13.0029 33.6504 12.579C33.9737 12.5179 34.297 12.4537 34.6204 12.3862C34.8078 12.7695 35.0019 13.1582 35.2023 13.5522C34.8564 13.6582 34.5072 13.7642 34.158 13.8638H34.1451ZM32.7128 12.3509L31.8399 12.4794C31.7266 12.0201 31.6264 11.5607 31.5358 11.095L32.3022 11.0661C32.4412 11.4901 32.5802 11.9141 32.7257 12.3509H32.7128ZM31.455 10.6292C31.455 10.5393 31.4162 10.4494 31.4033 10.3594L31.2384 9.37654L31.7558 9.42794L32.1632 10.6003L31.455 10.6292ZM20.0225 10.2534C20.0063 10.3402 19.9869 10.4269 19.9675 10.5136L19.2885 10.4751L19.7122 9.32194L20.2036 9.2834L20.0225 10.2534ZM18.4932 10.2823V10.3016C18.4932 10.3402 18.4673 10.3787 18.4577 10.414L17.8111 10.3626L18.4124 9.46006L18.8101 9.41509L18.4932 10.2823ZM18.3025 10.8734C18.1764 11.2588 18.0405 11.6475 17.8983 12.0361C17.6041 11.9751 17.3131 11.9108 17.0221 11.8434C17.2 11.4901 17.3745 11.1464 17.5394 10.8091L18.3025 10.8734ZM16.8443 12.1935C17.1482 12.2642 17.4554 12.3348 17.7658 12.3991C17.6073 12.8199 17.4424 13.2374 17.2582 13.6582C16.9187 13.5554 16.5824 13.443 16.2494 13.337L16.8443 12.1935ZM16.1039 13.594C16.4466 13.7128 16.7926 13.8284 17.1385 13.9344C15.6924 17.259 13.8294 20.3887 11.5936 23.2494C11.335 23.0021 11.0698 22.7612 10.8015 22.5234C12.6282 19.7385 14.5358 16.5297 16.1104 13.5972L16.1039 13.594ZM10.6431 22.7707C10.905 23.0021 11.1636 23.2397 11.4158 23.4806C11.1345 23.8307 10.85 24.1744 10.559 24.5116C10.3553 24.274 10.1484 24.0459 9.94147 23.8179C10.1743 23.4774 10.407 23.1304 10.6431 22.7707ZM9.71838 24.1454C9.91559 24.3607 10.1096 24.5791 10.3036 24.7879C10.0363 25.0921 9.76473 25.3907 9.48882 25.6841C9.34657 25.4688 9.20754 25.2665 9.07174 25.0641C9.28513 24.7622 9.50176 24.4635 9.71838 24.1454ZM10.8338 25.4303C11.0117 25.6456 11.183 25.864 11.3544 26.0728C11.031 26.394 10.6819 26.6926 10.3294 26.9913L9.9447 26.3875C10.2422 26.0791 10.5396 25.7579 10.8338 25.424V25.4303ZM9.97057 27.3126L9.83801 27.425L9.01678 28.0996L8.82279 27.6531L9.61815 26.7409L9.97057 27.3126ZM10.8112 27.7687C11.1862 27.4475 11.5484 27.1263 11.904 26.8051C13.988 29.5969 15.725 32.6285 17.0771 35.8341C16.5986 35.9669 16.1233 36.1115 15.6513 36.2678C14.2028 33.4604 12.4666 30.4154 10.8112 27.7622V27.7687ZM20.0516 37.9574C23.7063 37.534 27.4004 37.576 31.0444 38.0825C30.9539 38.4401 30.8699 38.7999 30.7923 39.1618C28.7036 39.0494 26.4533 38.9916 24.2353 38.9916C22.8871 38.9916 21.555 39.0141 20.278 39.0559C20.2165 38.68 20.139 38.3171 20.0516 37.9509V37.9574ZM33.3497 37.6585C33.4532 37.3888 33.5598 37.1222 33.673 36.8524C34.1159 36.9841 34.5525 37.1285 34.989 37.2796L34.6365 37.9316C34.2129 37.8321 33.7861 37.7388 33.3497 37.6522V37.6585ZM35.4351 37.4369L35.4933 37.4562L36.5926 37.8674C36.4956 38.0022 36.3986 38.1404 36.3015 38.2721L35.115 38.044C35.2184 37.8384 35.3349 37.6329 35.4351 37.4306V37.4369ZM35.8619 36.6403C37.3265 33.9422 39.0724 31.0097 40.7374 28.4368L41.7528 29.3009C40.3769 31.9991 38.8304 34.6082 37.1228 37.1125L35.8619 36.6403ZM42.7389 27.2259L42.0728 26.4325L42.422 25.9282L42.8941 26.8693C42.8467 26.985 42.7949 27.1016 42.7389 27.2194V27.2259ZM43.2206 27.5181L43.5698 28.2151L43.1365 27.7012L43.2206 27.5181ZM41.8497 23.6379C41.6428 23.3168 41.4326 22.9956 41.2225 22.6744L42.0695 21.9806C42.2183 22.3018 42.3606 22.6229 42.4932 22.9185L41.8497 23.6379ZM35.9201 13.3177H35.9039C35.7164 12.9515 35.5321 12.5918 35.3543 12.2353L36.3599 12.0618C36.5635 12.3445 36.7672 12.6368 36.974 12.9451L35.9201 13.3177ZM32.454 8.95897L32.1987 8.217L32.6901 8.98788L32.454 8.95897ZM31.1609 8.82407L30.9701 7.7384L31.2029 7.81228L31.5617 8.84656C31.426 8.84013 31.287 8.82728 31.1478 8.81765L31.1609 8.82407ZM30.8666 7.05744L30.789 6.60454L30.9572 7.08315L30.8666 7.05744ZM21.597 6.77479L21.7911 5.74051C24.3465 4.75135 27.1855 4.76859 29.7286 5.78869L29.9031 6.83582C27.1616 6.30981 24.3462 6.28913 21.597 6.77479ZM20.5139 7.687L20.3167 8.73413L19.932 8.76304L20.307 7.74803L20.5139 7.687ZM20.5786 7.00606L20.7047 6.68485L20.6433 7.00606H20.5786ZM18.8263 8.86904L19.2757 8.19129L19.0365 8.83371L18.8263 8.86904ZM16.1136 12.0457C15.9358 12.3894 15.7483 12.7428 15.5575 13.0961L14.5229 12.7106C14.733 12.4151 14.9367 12.1325 15.1404 11.8595L16.1136 12.0457ZM10.0934 22.2954C9.87357 22.6166 9.66017 22.9378 9.44679 23.259L8.82279 22.5138C8.96181 22.2119 9.10731 21.9035 9.26573 21.5856L10.0934 22.2954ZM9.22048 23.5801C9.03941 23.8468 8.86159 24.1069 8.68376 24.3607L8.32164 23.6316C8.41865 23.3938 8.52642 23.1466 8.64496 22.8896L9.22048 23.5801ZM8.82279 25.5396C8.93595 25.7066 9.04911 25.8607 9.14611 26.0471L9.10084 26.0951L8.4542 26.834C8.40247 26.7151 8.35397 26.5963 8.30872 26.4807L8.82279 25.5396ZM8.063 27.2997L7.63945 27.7847L7.99186 27.1231L8.063 27.2997ZM8.58031 28.456L7.76876 29.1178C7.7526 29.0503 7.73968 28.986 7.72674 28.9218L8.4251 28.1188C8.46714 28.2312 8.5221 28.3437 8.57384 28.456H8.58031ZM7.2062 29.5803L7.00897 29.7441L7.19327 29.5321C7.19908 29.5478 7.20341 29.5638 7.2062 29.5803ZM7.47779 30.515C8.37467 33.136 9.74776 35.5715 11.529 37.7003L10.5331 38.0472C8.41305 36.3268 7.03446 33.8668 6.67919 31.1703L7.47779 30.515ZM12.8513 38.1822L13.8698 37.8224L14.1058 38.166L13.0324 38.3524L12.8513 38.1822ZM12.2532 38.4874L11.7327 38.574L12.195 38.4134L12.2532 38.4874ZM14.4162 37.6104L15.4346 37.2538C15.4929 37.2313 15.5543 37.2153 15.6125 37.196C15.7224 37.4081 15.8291 37.62 15.9358 37.8384L14.7136 38.0504L14.4162 37.6104ZM18.9071 39.8171L20.1228 39.7688L20.1422 39.8749L20.3135 40.8931C19.9449 40.861 19.5893 40.8225 19.2434 40.7838L18.9071 39.8171ZM30.9313 39.9744C30.9313 39.9424 30.9474 39.9101 30.9539 39.8781C31.3548 39.8974 31.7493 39.9231 32.1373 39.9488L31.7784 40.9028C31.455 40.9349 31.0929 40.9638 30.7341 40.9894L30.9313 39.9744ZM36.3727 39.0912L37.0969 39.2293L36.2401 39.2646C36.2854 39.2165 36.3274 39.1585 36.3727 39.1007V39.0912ZM37.1326 38.0504L38.1024 38.4166L37.9312 38.5707L36.8901 38.3716L37.1326 38.0504ZM38.7814 38.664L39.15 38.8021L38.7233 38.7185L38.7814 38.664ZM43.6312 30.8844L44.4039 31.5268C43.9825 34.2075 42.5533 36.6296 40.4045 38.3043L39.4345 37.9444C41.2561 35.8682 42.6806 33.4788 43.6377 30.894L43.6312 30.8844ZM43.1398 25.7451L42.8681 25.2087L43.0783 24.8104L43.1851 25.4785L43.1398 25.7451ZM42.9587 22.3532C42.8379 22.0856 42.712 21.8125 42.5804 21.5341L43.4437 20.8275C43.5149 21.0909 43.5698 21.3478 43.6182 21.5984L42.9587 22.3532ZM43.3855 15.2225C44.14 16.4971 44.5952 17.9244 44.7176 19.3981L43.8284 20.124C42.9106 17.2781 41.4262 14.6446 39.4637 12.3798L40.5629 11.9944C41.732 12.8521 42.6978 13.954 43.392 15.2225H43.3855ZM38.6714 12.3316L37.5981 12.7235C37.4171 12.4569 37.2391 12.1935 37.0614 11.9397L38.0767 11.7663C38.2771 11.9462 38.4775 12.1389 38.678 12.3445L38.6714 12.3316ZM35.0115 10.5329L34.5104 10.504L34.1612 9.95793L34.4586 10.0703L35.0115 10.5329ZM29.4667 4.20515L29.5863 4.92787C27.1174 4.06621 24.4292 4.04924 21.9495 4.87968L22.0821 4.1666C23.1137 3.33537 24.411 2.89891 25.7388 2.9364H25.8035C27.1378 2.91134 28.4372 3.36138 29.4667 4.20515ZM17.3099 9.81981L16.9866 10.2984L16.9672 10.3337L16.4919 10.353L17.0318 9.91616L17.3099 9.81981ZM14.4421 11.7053C14.2642 11.9494 14.0832 12.2031 13.9021 12.4601L12.861 12.0747C13.0583 11.8755 13.2587 11.6892 13.4592 11.519L14.4421 11.7053ZM7.92073 20.4291L8.75812 21.1422C8.61909 21.4185 8.48977 21.6915 8.36367 21.9581L7.71704 21.2C7.77523 20.9559 7.84313 20.7022 7.92073 20.4388V20.4291ZM8.17939 24.3928L8.38308 24.8007L8.10502 25.3307L8.05977 25.0578L8.17939 24.3928ZM13.8439 39.0076L14.6425 38.8951L14.7815 39.0912L13.8666 39.0334L13.8439 39.0076ZM16.327 39.8846L16.9736 39.9263L17.242 40.3438L16.563 40.0869L16.327 39.8846ZM19.4922 41.4649L20.4396 41.5549L20.6272 42.6854C20.349 42.6116 20.0839 42.5312 19.8318 42.4413L19.4922 41.4649ZM30.4301 42.7497L30.637 41.6382L31.5585 41.5676L31.2062 42.5312C30.9442 42.6051 30.6856 42.6822 30.4139 42.7497H30.4301ZM33.7991 40.4787L34.061 40.0901L34.6818 40.0644L34.4555 40.2443L33.7991 40.4787ZM44.2196 21.6787C44.2196 21.6369 44.2035 21.5919 44.1937 21.5469L44.4298 21.274L44.2196 21.6787ZM45.4062 19.5747L45.2219 19.79C45.2219 19.6615 45.2219 19.5299 45.2219 19.3981L45.7748 18.9451C45.6701 19.1684 45.5411 19.3796 45.3901 19.5747H45.4062ZM47.1554 13.1732C47.6106 13.9349 47.7893 14.8287 47.6615 15.7054C47.5339 16.5821 47.1076 17.389 46.4538 17.9912C46.5947 16.6215 46.3078 15.2419 45.6322 14.0398C44.9567 12.8376 43.9251 11.8712 42.6775 11.2716C43.528 11.0407 44.4322 11.103 45.2425 11.4484C46.0529 11.7937 46.7214 12.4017 47.1392 13.1732H47.1554ZM40.689 11.3166C40.9706 11.2936 41.2539 11.3044 41.5329 11.3487L40.8313 11.5929C40.7084 11.5093 40.5856 11.429 40.4595 11.3552L40.689 11.3166ZM38.9108 11.2363L38.4226 11.3198L38.2804 11.1978L38.9108 11.2363ZM25.8099 0.887113C26.5051 0.883247 27.187 1.07759 27.7743 1.44709C28.3617 1.81659 28.8302 2.34572 29.1239 2.97174C28.0975 2.42771 26.9537 2.13887 25.7905 2.12991C24.6271 2.12096 23.4789 2.39218 22.4442 2.92034C22.7507 2.29715 23.2308 1.77435 23.8273 1.41398C24.4239 1.0536 25.1119 0.87075 25.8099 0.887113ZM13.2652 10.9665L13.1326 11.0757L12.6897 10.989L13.2652 10.9665ZM10.5493 11.0211C10.6678 11.0146 10.7865 11.0146 10.905 11.0211L11.1184 11.0629C10.9987 11.1303 10.8791 11.2042 10.7562 11.2845L10.0902 11.0372C10.2427 11.0223 10.3961 11.0169 10.5493 11.0211ZM4.44507 12.7749C4.78582 12.1826 5.27598 11.6886 5.86727 11.3417C6.45857 10.9947 7.13064 10.8068 7.81727 10.7963C8.19243 10.7983 8.56553 10.8513 8.92626 10.9537C7.67492 11.5296 6.63059 12.4717 5.93315 13.6537C5.23569 14.8357 4.91842 16.2012 5.0238 17.5672C4.39619 16.951 3.99729 16.1418 3.89218 15.2715C3.78708 14.4011 3.98197 13.521 4.44507 12.7749ZM5.68661 18.5404L6.21685 18.9901C6.21685 19.1282 6.20068 19.26 6.20068 19.3949L6.05519 19.2215C5.90661 19.0091 5.78294 18.7807 5.68661 18.5404ZM6.91844 20.8435L7.17386 21.1454L7.14477 21.2932L6.91844 20.8435ZM4.37717 36.9679C4.02525 36.3707 3.85368 35.6856 3.88292 34.9943C3.91215 34.3028 4.14096 33.6344 4.54205 33.0685C4.57385 34.2194 4.88429 35.3457 5.44707 36.3522C6.00987 37.3585 6.80846 38.2154 7.77525 38.8503C7.0875 38.8887 6.40294 38.7322 5.80131 38.399C5.19969 38.0657 4.70578 37.5694 4.37717 36.9679ZM19.4179 42.8781L19.5828 42.9391L19.738 43.3793L19.4179 42.8781ZM20.7112 44.9756L20.6206 44.7122C20.7435 44.786 20.8696 44.8535 21.0023 44.9178L21.125 45.6597C20.9596 45.4548 20.8166 45.2331 20.6982 44.9981L20.7112 44.9756ZM25.4963 49.7006H25.4576C24.5712 49.7087 23.7085 49.4171 23.011 48.8737C22.3136 48.3301 21.8229 47.5672 21.6197 46.7101C22.7287 47.5294 24.079 47.9618 25.4607 47.9403H25.5351C26.9064 47.9762 28.2508 47.5581 29.3567 46.7519C29.1464 47.609 28.6477 48.3691 27.9434 48.9065C27.2391 49.4438 26.3712 49.7262 25.4833 49.7069L25.4963 49.7006ZM30.2684 45.0496C30.161 45.2774 30.0288 45.4926 29.8741 45.6919L30.0098 44.9756C30.1327 44.9146 30.2523 44.8535 30.3655 44.786L30.2684 45.0496ZM31.2901 43.3888L31.426 43.0259L31.565 42.9776L31.2901 43.3888ZM46.5638 37.3631C46.2248 37.9556 45.7242 38.4409 45.1193 38.7626C44.5146 39.0843 43.8305 39.2294 43.1463 39.181C44.1225 38.5699 44.9368 37.7349 45.5208 36.746C46.1049 35.7574 46.4414 34.6438 46.5023 33.499C46.8806 34.0726 47.086 34.7416 47.0946 35.4272C47.1032 36.1129 46.9145 36.7868 46.5508 37.3696L46.5638 37.3631Z" fill="url(#paint0_linear_888_1177)"/>
</g>
<defs>
<linearGradient id="paint0_linear_888_1177" x1="3" y1="25" x2="44.2756" y2="37.3988" gradientUnits="userSpaceOnUse">
<stop stop-color="#5EE6D0"/>
<stop offset="0.515056" stop-color="#BFC6FF"/>
<stop offset="1" stop-color="#FFBA69"/>
</linearGradient>
<clipPath id="clip0_888_1177">
<rect width="50" height="50" fill="white"/>
</clipPath>
</defs>
</svg>
