<svg width="50" height="50" viewBox="0 0 50 50" fill="none" xmlns="http://www.w3.org/2000/svg">
<g clip-path="url(#clip0_891_1212)">
<path d="M25 50C38.8071 50 50 38.8071 50 25C50 11.1929 38.8071 0 25 0C11.1929 0 0 11.1929 0 25C0 38.8071 11.1929 50 25 50Z" fill="url(#paint0_radial_891_1212)"/>
<path d="M25 46.875C37.0812 46.875 46.875 37.0812 46.875 25C46.875 12.9188 37.0812 3.125 25 3.125C12.9188 3.125 3.125 12.9188 3.125 25C3.125 37.0812 12.9188 46.875 25 46.875Z" fill="url(#paint1_linear_891_1212)"/>
<path d="M25 50C38.8071 50 50 38.8071 50 25C50 11.1929 38.8071 0 25 0C11.1929 0 0 11.1929 0 25C0 38.8071 11.1929 50 25 50Z" fill="url(#paint2_linear_891_1212)"/>
<path d="M25 50C38.8071 50 50 38.8071 50 25C50 11.1929 38.8071 0 25 0C11.1929 0 0 11.1929 0 25C0 38.8071 11.1929 50 25 50Z" fill="url(#paint3_radial_891_1212)"/>
</g>
<defs>
<radialGradient id="paint0_radial_891_1212" cx="0" cy="0" r="1" gradientUnits="userSpaceOnUse" gradientTransform="translate(25 25) rotate(-180) scale(25)">
<stop offset="0.5625" stop-color="#75FB75"/>
<stop offset="0.760417" stop-color="#06B706"/>
<stop offset="0.901042" stop-color="#04A304"/>
<stop offset="0.9999" stop-color="#01AE01"/>
<stop offset="1" stop-color="#009F00"/>
</radialGradient>
<linearGradient id="paint1_linear_891_1212" x1="25" y1="3.125" x2="25" y2="29.375" gradientUnits="userSpaceOnUse">
<stop offset="0.114583" stop-color="#86FF86"/>
<stop offset="0.244792" stop-color="#42F342"/>
<stop offset="0.505208" stop-color="#17C817"/>
<stop offset="0.671875" stop-color="#01B201"/>
<stop offset="0.817708" stop-color="#00A900"/>
<stop offset="0.958333" stop-color="#14A514"/>
</linearGradient>
<linearGradient id="paint2_linear_891_1212" x1="25" y1="2.1875" x2="25" y2="17.3438" gradientUnits="userSpaceOnUse">
<stop stop-color="#2CFF41" stop-opacity="0.31"/>
<stop offset="1" stop-color="#D9D9D9" stop-opacity="0"/>
</linearGradient>
<radialGradient id="paint3_radial_891_1212" cx="0" cy="0" r="1" gradientUnits="userSpaceOnUse" gradientTransform="translate(25 25) rotate(90) scale(25)">
<stop offset="0.880208" stop-color="#D9D9D9" stop-opacity="0"/>
<stop offset="1" stop-color="#010101" stop-opacity="0.28"/>
</radialGradient>
<clipPath id="clip0_891_1212">
<rect width="50" height="50" fill="white"/>
</clipPath>
</defs>
</svg>
