<svg width="50" height="50" viewBox="0 0 50 50" fill="none" xmlns="http://www.w3.org/2000/svg">
<ellipse cx="24.6479" cy="25" rx="24.6479" ry="25" fill="white"/>
<path fill-rule="evenodd" clip-rule="evenodd" d="M0 26L0.5 30L1 32L1.5 33.5C1.83282 34.4985 2.24363 35.4692 2.72863 36.4032L3.33626 37.5735C3.92823 38.7135 4.60106 39.8097 5.34959 40.8536L5.88363 41.5984C6.65381 42.6725 7.53735 43.6607 8.519 44.5457L8.74902 44.7531C9.72015 45.6286 10.7955 46.3812 11.9507 46.9938C13.0325 47.5674 14.177 48.0143 15.3613 48.3256L19.0141 49.2857L20.5 49.6428L21.0201 49.7171C22.3384 49.9055 23.6683 50 25 50C25.9983 50 26.995 49.9188 27.9802 49.7573L28.6786 49.6428L30.4365 49.2982C30.4787 49.2899 30.5217 49.2857 30.5648 49.2857C30.6275 49.2857 30.6899 49.2768 30.7502 49.2594L33.8609 48.3589C35.0148 48.0249 36.1415 47.6029 37.2309 47.0965L37.738 46.8609C38.8676 46.3359 39.9416 45.6989 40.944 44.9595C42.5115 43.8032 43.8879 42.4081 45.023 40.825L46.1268 39.2857L47.0836 37.4627C47.8522 35.9985 48.4695 34.4598 48.926 32.8704C49.4059 31.1997 49.7054 29.4824 49.8194 27.7478L50 25L49.8367 22.6811C49.7114 20.9021 49.3427 19.1487 48.7408 17.47C48.4071 16.539 48.0029 15.6347 47.5319 14.765L47.0804 13.9312C46.2115 12.3267 45.2067 10.7996 44.0771 9.36662L42.6056 7.5L41.9969 6.8826C41.6992 6.58066 41.3724 6.30894 41.0211 6.07142L40.9084 5.99522C40.6321 5.80839 40.375 5.59465 40.1408 5.35714C39.9067 5.11963 39.6496 4.9059 39.3733 4.71907L37.6761 3.57143L35.5634 2.5L32.7465 1.42857C30.921 0.81138 29.0334 0.396015 27.1174 0.189905L25.3521 0C23.786 0 22.2219 0.111159 20.6715 0.332639L19.5 0.5L18.15 0.885705C16.7198 1.29435 15.3305 1.83477 14 2.5L12.7119 3.23607C11.2406 4.0768 9.85236 5.05512 8.56577 6.15791L8.34596 6.34632C7.44998 7.11431 6.61431 7.94998 5.84632 8.84596L5.71091 9.00393C4.57459 10.3296 3.60515 11.7897 2.82429 13.3514C2.27578 14.4484 1.8228 15.5907 1.47037 16.7654L1.02137 18.2621C0.674275 19.4191 0.414229 20.6004 0.243404 21.7962C0.0813389 22.9306 0 24.0752 0 25.2211V26ZM34.0958 7.08214C41.3225 10.6686 45.7908 17.5036 46.3239 25.7879C46.6092 30.2121 46.4014 31.4243 44.7042 35.2607C42.5042 40.2328 38.2225 44.6428 35.5944 44.6428C32.9183 44.6428 30.2754 43.13 29.1725 40.9678C27.2528 37.2021 27.9085 35.1471 32.8296 29.5086C35.919 25.9686 36.9908 22.2286 35.9711 18.5429C34.9986 15.0279 34.1465 13.8921 30.7 11.52C25.9479 8.24928 19.9035 9.3 15.7296 14.1214C11.6908 18.7871 12.1127 24.8693 16.831 30C21.2803 34.8393 22.0099 37.2678 20.1232 40.9678C19.0035 43.1643 16.3704 44.6428 13.5789 44.6428C10.9268 44.6428 6.10423 39.3057 4.59648 34.7014C2.80211 29.2207 3.07535 22.5443 5.29648 17.6229C7.41338 12.9343 9.11268 10.8986 13.0282 8.36071C19.5359 4.14357 27.2324 3.67643 34.0958 7.08214Z" fill="black"/>
</svg>
