<svg width="50" height="50" viewBox="0 0 50 50" fill="none" xmlns="http://www.w3.org/2000/svg">
<path d="M31.6667 22.6222C30.3944 18.7287 26.7352 15.9144 22.4167 15.9144C17.2102 15.9144 12.9583 20.0032 12.6977 25.1454C12.9606 18.7116 18.2569 13.5759 24.7551 13.5759C29.8046 13.5759 34.1301 16.6769 35.931 21.0782L31.6667 22.6222Z" fill="url(#paint0_linear_911_1640)"/>
<path d="M31.6667 28.6699C30.3944 32.5634 26.7352 35.3777 22.4167 35.3777C17.2102 35.3777 12.9583 31.2889 12.6977 26.1467C12.9606 32.5805 18.2569 37.7162 24.7551 37.7162C29.731 37.7162 34.0032 34.7055 35.8505 30.4065L31.6667 28.6699Z" fill="url(#paint1_linear_911_1640)"/>
<path d="M22.4167 35.3777C26.7352 35.3777 30.3949 32.5638 31.6667 28.6698C30.5009 31.3305 27.8458 33.1897 24.7551 33.1897C20.5889 33.1897 17.2111 29.8124 17.2111 25.6458C17.2111 21.4791 20.5889 18.1018 24.7551 18.1018C27.8458 18.1018 30.5009 19.9615 31.6667 22.6217C30.3944 18.7282 26.7352 15.9138 22.4167 15.9138C17.2102 15.9138 12.9583 20.0027 12.6977 25.1448C12.6907 25.311 12.6852 25.4777 12.6852 25.6458C12.6852 25.8138 12.6912 25.9805 12.6977 26.1467C12.9583 31.2888 17.2097 35.3777 22.4167 35.3777Z" fill="url(#paint2_linear_911_1640)"/>
<path d="M10.7991 40.9083L1.67593 25.1065L13.338 4.9074H34.7949C35.1407 5.9 36.0833 6.61527 37.1921 6.61527C38.5926 6.61527 39.7319 5.47592 39.7319 4.07546C39.7319 2.675 38.5926 1.53564 37.1921 1.53564C36.0056 1.53564 35.0093 2.35463 34.7315 3.45648H12.5L0 25.1065L9.54213 41.6338C9.67639 41.8667 9.92037 41.9968 10.1713 41.9968C10.2944 41.9968 10.419 41.9653 10.5333 41.8995C10.8806 41.6991 10.9995 41.2551 10.7991 40.9083ZM37.1921 2.98657C37.7926 2.98657 38.2806 3.475 38.2806 4.075C38.2806 4.675 37.7921 5.16342 37.1921 5.16342C36.5921 5.16342 36.1037 4.675 36.1037 4.075C36.1037 3.475 36.5917 2.98657 37.1921 2.98657Z" fill="url(#paint3_linear_911_1640)"/>
<path d="M50 25.1064L40.4181 8.51013C40.2181 8.1629 39.775 8.04438 39.4269 8.24438C39.0796 8.44485 38.9606 8.88883 39.1611 9.23559L48.3236 25.106L36.6616 45.305H15.462C15.1843 44.2032 14.1884 43.3842 13.0014 43.3842C11.6009 43.3842 10.4616 44.5236 10.4616 45.924C10.4616 47.3245 11.6009 48.4638 13.0014 48.4638C14.1102 48.4638 15.0528 47.7486 15.3986 46.756H37.5L50 25.1064ZM13.0014 47.0134C12.4009 47.0134 11.913 46.5249 11.913 45.9249C11.913 45.3249 12.4014 44.8365 13.0014 44.8365C13.5838 44.8365 14.0565 45.2972 14.0847 45.8722C14.0731 45.9236 14.0657 45.9768 14.0657 46.0314C14.0657 46.0541 14.0704 46.0754 14.0722 46.0976C13.9889 46.6157 13.5426 47.0134 13.0014 47.0134Z" fill="url(#paint4_linear_911_1640)"/>
<defs>
<linearGradient id="paint0_linear_911_1640" x1="12.6976" y1="19.3605" x2="35.9311" y2="19.3605" gradientUnits="userSpaceOnUse">
<stop stop-color="#3283D9"/>
<stop offset="0.5056" stop-color="#9F5AED"/>
<stop offset="1" stop-color="#DE1D54"/>
</linearGradient>
<linearGradient id="paint1_linear_911_1640" x1="12.6976" y1="31.9316" x2="35.8504" y2="31.9316" gradientUnits="userSpaceOnUse">
<stop stop-color="#3283D9"/>
<stop offset="0.5056" stop-color="#9F5AED"/>
<stop offset="1" stop-color="#DE1D54"/>
</linearGradient>
<linearGradient id="paint2_linear_911_1640" x1="22.1759" y1="13.0663" x2="22.1759" y2="36.3317" gradientUnits="userSpaceOnUse">
<stop stop-color="#032C57"/>
<stop offset="0.5073" stop-color="#7036A6"/>
<stop offset="1" stop-color="#FF9983"/>
</linearGradient>
<linearGradient id="paint3_linear_911_1640" x1="2.74494" y1="0.45462" x2="49.9614" y2="47.6711" gradientUnits="userSpaceOnUse">
<stop stop-color="#3283D9"/>
<stop offset="0.5056" stop-color="#9F5AED"/>
<stop offset="1" stop-color="#DE1D54"/>
</linearGradient>
<linearGradient id="paint4_linear_911_1640" x1="0.457075" y1="2.74243" x2="47.6735" y2="49.9589" gradientUnits="userSpaceOnUse">
<stop stop-color="#3283D9"/>
<stop offset="0.5056" stop-color="#9F5AED"/>
<stop offset="1" stop-color="#DE1D54"/>
</linearGradient>
</defs>
</svg>
