<svg width="50" height="50" viewBox="0 0 50 50" fill="none" xmlns="http://www.w3.org/2000/svg">
<g clip-path="url(#clip0_911_1649)">
<path d="M25 50C38.8071 50 50 38.8071 50 25C50 11.1929 38.8071 0 25 0C11.1929 0 0 11.1929 0 25C0 38.8071 11.1929 50 25 50Z" fill="white"/>
<path fill-rule="evenodd" clip-rule="evenodd" d="M35.5222 29.4615H20.7982V21.2507H18.5271V30.6029C18.5268 30.7516 18.5562 30.8988 18.6137 31.0359C18.6721 31.1722 18.7564 31.2957 18.862 31.3997C19.075 31.611 19.3626 31.7299 19.6627 31.7307H32.5582L29.8963 34.127H15.6092V20.5347H30.3351C30.6152 20.5354 30.8856 20.4318 31.0935 20.2441L36.2806 15.5902C36.4511 15.4369 36.5712 15.2356 36.6251 15.0128C36.6649 14.846 36.6664 14.6725 36.6296 14.5051C36.5928 14.3376 36.5185 14.1808 36.4124 14.0461C36.3063 13.9115 36.1711 13.8027 36.0169 13.7277C35.8628 13.6528 35.6936 13.6137 35.5222 13.6135H19.6627C19.5136 13.6135 19.3661 13.6429 19.2284 13.7C19.0907 13.7571 18.9657 13.8407 18.8604 13.9462C18.7551 14.0517 18.6716 14.1769 18.6148 14.3146C18.5579 14.4524 18.5288 14.6 18.529 14.7491V17.5514H20.7982V15.8712H32.562L29.9002 18.2674H14.4756C14.3252 18.2663 14.176 18.2952 14.0369 18.3523C13.8978 18.4095 13.7714 18.4938 13.6653 18.6004C13.5594 18.7052 13.4756 18.8302 13.4189 18.968C13.3631 19.1056 13.3344 19.2526 13.3342 19.4011V35.2607C13.334 35.4097 13.3631 35.5573 13.42 35.6951C13.4768 35.8328 13.5603 35.958 13.6656 36.0635C13.7709 36.169 13.8959 36.2527 14.0336 36.3098C14.1713 36.3668 14.3188 36.3962 14.4679 36.3962H30.3275C30.6074 36.396 30.8774 36.2925 31.0858 36.1056L36.2729 31.4401C36.4434 31.2868 36.5635 31.0853 36.6171 30.8622C36.6708 30.6392 36.6555 30.4052 36.5734 30.191C36.4912 29.9769 36.346 29.7927 36.157 29.6628C35.9679 29.5329 35.7439 29.4634 35.5145 29.4634" fill="#FF4350"/>
</g>
<defs>
<clipPath id="clip0_911_1649">
<rect width="50" height="50" fill="white"/>
</clipPath>
</defs>
</svg>
