<svg width="50" height="50" viewBox="0 0 50 50" fill="none" xmlns="http://www.w3.org/2000/svg">
<path d="M8.66376 33.7917V16.2083L24.5 7.41667L40.3275 16.2083V33.7917L24.5 42.5833L8.66376 33.7917ZM24.5 0L2 12.5V37.5L24.5 50L47 37.5V12.5L24.5 0Z" fill="#002D74"/>
<g style="mix-blend-mode:multiply">
<mask id="mask0_916_1739" style="mask-type:luminance" maskUnits="userSpaceOnUse" x="24" y="0" width="23" height="50">
<path d="M24.5001 50L47.0001 37.5V12.5L24.5001 0V7.41667L40.3276 16.2083V33.8L24.5001 42.5917V50Z" fill="white"/>
</mask>
<g mask="url(#mask0_916_1739)">
<path d="M47.0001 0H24.5001V50H47.0001V0Z" fill="url(#paint0_linear_916_1739)"/>
</g>
</g>
<g style="mix-blend-mode:multiply">
<mask id="mask1_916_1739" style="mask-type:luminance" maskUnits="userSpaceOnUse" x="2" y="0" width="23" height="50">
<path d="M24.5 42.5917L8.66376 33.8V16.2083L24.5 7.41667V0L2 12.5V37.5L24.5 50V42.5917Z" fill="white"/>
</mask>
<g mask="url(#mask1_916_1739)">
<path d="M24.5 0H2V50H24.5V0Z" fill="url(#paint1_linear_916_1739)"/>
</g>
</g>
<path d="M35.0053 30.8416L24.5001 36.6749L13.9861 30.8416V19.1666L24.5001 13.325L35.0053 19.1666L30.6325 21.5916L24.5001 18.1916L18.3676 21.5916V28.4083L24.5001 31.8083L30.6325 28.4083L35.0053 30.8416Z" fill="#002D74"/>
<path d="M35.0053 30.8083L24.5001 36.6083L13.9861 30.8083V19.1999L24.5001 13.3916L35.0053 19.1999V30.8083Z" fill="#002D74"/>
<defs>
<linearGradient id="paint0_linear_916_1739" x1="37.1602" y1="48.079" x2="37.1602" y2="22.9721" gradientUnits="userSpaceOnUse">
<stop stop-color="#002D74"/>
<stop offset="1" stop-color="#002D74"/>
</linearGradient>
<linearGradient id="paint1_linear_916_1739" x1="11.5392" y1="2.18383" x2="11.5392" y2="27.0422" gradientUnits="userSpaceOnUse">
<stop stop-color="#002D74"/>
<stop offset="1" stop-color="#002D74"/>
</linearGradient>
</defs>
</svg>
