<svg width="50" height="50" viewBox="0 0 50 50" fill="none" xmlns="http://www.w3.org/2000/svg">
<path d="M25.35 0.141602L3.94165 12.5749V37.4333L25.35 49.8583L46.75 37.4333V12.5749L25.35 0.141602ZM40.4083 33.7499L25.35 42.4999L10.2917 33.7499V16.2499L25.35 7.49994L40.4083 16.2499V33.7499Z" fill="#002D74"/>
<path style="mix-blend-mode:multiply" d="M25.3499 49.8583L46.7499 37.4333V12.5749L25.3499 0.141602V7.49994L40.4082 16.2499V33.7499L25.3499 42.4999V49.8583Z" fill="url(#paint0_linear_916_1719)"/>
<path style="mix-blend-mode:multiply" d="M25.35 42.4916L10.2917 33.7416V16.2583L25.35 7.50827V0.141602L3.94165 12.5749V37.4249L25.35 49.8583V42.4916Z" fill="url(#paint1_linear_916_1719)"/>
<path d="M35.3416 30.8083L25.3499 36.6083L15.3499 30.8083V19.1999L25.3499 13.3916L35.3416 19.1999L31.1749 21.6166L25.3499 18.2249L19.5166 21.6166V28.3833L25.3499 31.7749L31.1749 28.3833L35.3416 30.8083Z" fill="#002D74"/>
<defs>
<linearGradient id="paint0_linear_916_1719" x1="36.0499" y1="49.8583" x2="36.0499" y2="24.9999" gradientUnits="userSpaceOnUse">
<stop stop-color="#002D74"/>
<stop offset="1" stop-color="#002D74" stop-opacity="0"/>
</linearGradient>
<linearGradient id="paint1_linear_916_1719" x1="14.65" y1="0.141602" x2="14.65" y2="24.9999" gradientUnits="userSpaceOnUse">
<stop stop-color="#002D74"/>
<stop offset="1" stop-color="#002D74" stop-opacity="0"/>
</linearGradient>
</defs>
</svg>
