<svg width="50" height="50" viewBox="0 0 50 50" fill="none" xmlns="http://www.w3.org/2000/svg">
<g clip-path="url(#clip0_916_1813)">
<mask id="mask0_916_1813" style="mask-type:alpha" maskUnits="userSpaceOnUse" x="0" y="0" width="50" height="50">
<path d="M25 50C38.8071 50 50 38.8071 50 25C50 11.1929 38.8071 0 25 0C11.1929 0 0 11.1929 0 25C0 38.8071 11.1929 50 25 50Z" fill="black"/>
</mask>
<g mask="url(#mask0_916_1813)">
<path d="M39.779 0H10.221C4.5761 0 0 4.5761 0 10.221V39.779C0 45.424 4.5761 50 10.221 50H39.779C45.424 50 50 45.424 50 39.779V10.221C50 4.5761 45.424 0 39.779 0Z" fill="url(#paint0_linear_916_1813)"/>
<path d="M31.579 11.6021L12.1548 38.948H18.1185L37.6435 11.6021H31.579Z" fill="white"/>
<path d="M18.7393 11.6021L24.4545 19.66L21.4726 24.0552L12.6514 11.6021H18.7393Z" fill="url(#paint1_linear_916_1813)"/>
<path d="M32.158 38.9503L25.8218 30.038L28.8038 25.7648L38.1218 38.9503H32.158Z" fill="url(#paint2_linear_916_1813)"/>
<path d="M39.779 0H10.221C4.5761 0 0 4.5761 0 10.221V39.779C0 45.424 4.5761 50 10.221 50H39.779C45.424 50 50 45.424 50 39.779V10.221C50 4.5761 45.424 0 39.779 0Z" stroke="#2D2D3D" stroke-width="2"/>
</g>
</g>
<defs>
<linearGradient id="paint0_linear_916_1813" x1="40.4695" y1="-7.0442" x2="28.1768" y2="44.0607" gradientUnits="userSpaceOnUse">
<stop stop-color="#2C2C3D"/>
<stop offset="1" stop-color="#1A1A27"/>
</linearGradient>
<linearGradient id="paint1_linear_916_1813" x1="17.3726" y1="13.3113" x2="25.385" y2="23.1547" gradientUnits="userSpaceOnUse">
<stop stop-color="white"/>
<stop offset="1" stop-color="white" stop-opacity="0.55"/>
</linearGradient>
<linearGradient id="paint2_linear_916_1813" x1="33.525" y1="36.875" x2="23.6985" y2="23.3941" gradientUnits="userSpaceOnUse">
<stop stop-color="#6966FF"/>
<stop offset="1" stop-color="#6966FF" stop-opacity="0.36"/>
</linearGradient>
<clipPath id="clip0_916_1813">
<rect width="50" height="50" fill="white"/>
</clipPath>
</defs>
</svg>
