<svg width="50" height="50" viewBox="0 0 50 50" fill="none" xmlns="http://www.w3.org/2000/svg">
<g clip-path="url(#clip0_918_1876)">
<path d="M24.8626 49.7252C38.5938 49.7252 49.7252 38.5938 49.7252 24.8626C49.7252 11.1314 38.5938 0 24.8626 0C11.1314 0 0 11.1314 0 24.8626C0 38.5938 11.1314 49.7252 24.8626 49.7252Z" fill="#ED4E33"/>
<path d="M20.3805 13.3153C13.5979 15.9232 12.9766 22.6022 11.0318 25.7214C9.06387 28.8776 4.55553 30.6191 5.17204 32.2277C5.78851 33.836 10.3022 32.1084 13.8732 33.1347C17.4019 34.1488 22.3253 38.6963 29.1079 36.0882C32.5632 34.7597 35.0651 32.0253 36.2157 28.7864C36.3394 28.4388 36.108 28.067 35.741 28.0326C35.5128 28.0112 35.2939 28.1308 35.191 28.3357C34.1503 30.412 32.3651 32.1219 30.0287 33.02C26.1717 34.503 21.9515 33.3386 19.3596 30.4184C18.771 29.7553 18.2675 29.0005 17.87 28.1662C17.7608 27.9366 17.6568 27.7032 17.5647 27.4618C17.4721 27.2204 17.3933 26.9773 17.321 26.7332C19.3596 25.7815 21.712 24.7734 24.3789 23.7481C26.9938 22.7427 29.3736 21.9272 31.4925 21.2748C32.926 20.8338 34.2398 20.4669 35.426 20.167C35.5119 20.1455 35.5965 20.124 35.6805 20.1031C35.86 20.0586 36.0443 20.1546 36.1106 20.3274L36.1119 20.3306C36.151 20.4331 36.1846 20.5361 36.2209 20.6391C36.4555 21.3038 36.6314 21.9755 36.7475 22.6488C36.7984 22.9434 37.1199 23.1038 37.3834 22.9622C38.3571 22.4385 39.2478 21.9278 40.0436 21.4363C43.0096 19.6069 44.6539 18.0553 44.3164 17.176C43.9795 16.2961 41.7212 16.2457 38.2949 16.8734C37.2061 17.073 35.9987 17.3412 34.6978 17.6733C34.4728 17.7307 34.2452 17.7903 34.0148 17.8514C32.9199 18.1422 31.7651 18.4754 30.5627 18.8482C28.3265 19.5419 25.9274 20.373 23.4507 21.3253C21.1336 22.2164 18.9375 23.1403 16.9236 24.0609C16.899 20.1536 19.2573 16.4597 23.1143 14.9768C25.4502 14.0787 27.9194 14.1522 30.0801 14.9983C30.2933 15.082 30.5359 15.024 30.6918 14.8551C30.9414 14.5841 30.8648 14.1528 30.5407 13.9768C27.5219 12.3421 23.8358 11.9869 20.3805 13.3153Z" fill="white"/>
</g>
<defs>
<clipPath id="clip0_918_1876">
<rect width="50" height="50" fill="white"/>
</clipPath>
</defs>
</svg>
