<svg width="50" height="50" viewBox="0 0 50 50" fill="none" xmlns="http://www.w3.org/2000/svg">
<g clip-path="url(#clip0_923_2041)">
<path d="M25 50C38.8071 50 50 38.8071 50 25C50 11.1929 38.8071 0 25 0C11.1929 0 0 11.1929 0 25C0 38.8071 11.1929 50 25 50Z" fill="url(#paint0_linear_923_2041)"/>
<path d="M25 49.6094C38.5914 49.6094 49.6094 38.5914 49.6094 25C49.6094 11.4086 38.5914 0.390625 25 0.390625C11.4086 0.390625 0.390625 11.4086 0.390625 25C0.390625 38.5914 11.4086 49.6094 25 49.6094Z" stroke="white" stroke-width="0.5"/>
<path d="M12.139 12.1392H15.3172V15.3173H12.139V12.1392Z" fill="white"/>
<path d="M20.0844 12.1392H23.2625V15.3173H20.0844V12.1392Z" fill="white"/>
<path d="M28.0281 12.1392H31.2062V15.3173H28.0281V12.1392Z" fill="white"/>
<path d="M12.139 20.0845H15.3172V23.2626H12.139V20.0845Z" fill="white"/>
<path d="M20.0844 20.0845H23.2625V23.2626H20.0844V20.0845Z" fill="white"/>
<path d="M12.139 28.022H15.3172V31.2001H12.139V28.022Z" fill="white"/>
<path d="M37.5609 14.5204C37.9993 14.5204 38.3547 14.165 38.3547 13.7266C38.3547 13.2882 37.9993 12.9329 37.5609 12.9329C37.1225 12.9329 36.7672 13.2882 36.7672 13.7266C36.7672 14.165 37.1225 14.5204 37.5609 14.5204Z" fill="white"/>
<path d="M37.5609 22.4657C37.9993 22.4657 38.3547 22.1103 38.3547 21.6719C38.3547 21.2335 37.9993 20.8782 37.5609 20.8782C37.1225 20.8782 36.7672 21.2335 36.7672 21.6719C36.7672 22.1103 37.1225 22.4657 37.5609 22.4657Z" fill="white"/>
<path d="M37.5609 30.4049C37.9993 30.4049 38.3547 30.0495 38.3547 29.6111C38.3547 29.1728 37.9993 28.8174 37.5609 28.8174C37.1225 28.8174 36.7672 29.1728 36.7672 29.6111C36.7672 30.0495 37.1225 30.4049 37.5609 30.4049Z" fill="white"/>
<path d="M37.5609 38.3485C37.9993 38.3485 38.3547 37.9931 38.3547 37.5547C38.3547 37.1164 37.9993 36.761 37.5609 36.761C37.1225 36.761 36.7672 37.1164 36.7672 37.5547C36.7672 37.9931 37.1225 38.3485 37.5609 38.3485Z" fill="white"/>
<path d="M29.6172 22.4657C30.0556 22.4657 30.4109 22.1103 30.4109 21.6719C30.4109 21.2335 30.0556 20.8782 29.6172 20.8782C29.1788 20.8782 28.8234 21.2335 28.8234 21.6719C28.8234 22.1103 29.1788 22.4657 29.6172 22.4657Z" fill="white"/>
<path d="M29.6172 30.4049C30.0556 30.4049 30.4109 30.0495 30.4109 29.6111C30.4109 29.1728 30.0556 28.8174 29.6172 28.8174C29.1788 28.8174 28.8234 29.1728 28.8234 29.6111C28.8234 30.0495 29.1788 30.4049 29.6172 30.4049Z" fill="white"/>
<path d="M29.6172 38.3485C30.0556 38.3485 30.4109 37.9931 30.4109 37.5547C30.4109 37.1164 30.0556 36.761 29.6172 36.761C29.1788 36.761 28.8234 37.1164 28.8234 37.5547C28.8234 37.9931 29.1788 38.3485 29.6172 38.3485Z" fill="white"/>
<path d="M21.6719 30.4049C22.1102 30.4049 22.4656 30.0495 22.4656 29.6111C22.4656 29.1728 22.1102 28.8174 21.6719 28.8174C21.2335 28.8174 20.8781 29.1728 20.8781 29.6111C20.8781 30.0495 21.2335 30.4049 21.6719 30.4049Z" fill="white"/>
<path d="M21.6719 38.3485C22.1102 38.3485 22.4656 37.9931 22.4656 37.5547C22.4656 37.1164 22.1102 36.761 21.6719 36.761C21.2335 36.761 20.8781 37.1164 20.8781 37.5547C20.8781 37.9931 21.2335 38.3485 21.6719 38.3485Z" fill="white"/>
<path d="M13.7266 38.3485C14.1649 38.3485 14.5203 37.9931 14.5203 37.5547C14.5203 37.1164 14.1649 36.761 13.7266 36.761C13.2882 36.761 12.9328 37.1164 12.9328 37.5547C12.9328 37.9931 13.2882 38.3485 13.7266 38.3485Z" fill="white"/>
</g>
<defs>
<linearGradient id="paint0_linear_923_2041" x1="25" y1="0" x2="25" y2="50" gradientUnits="userSpaceOnUse">
<stop stop-color="#222D53"/>
<stop offset="1" stop-color="#151D37"/>
</linearGradient>
<clipPath id="clip0_923_2041">
<rect width="50" height="50" fill="white"/>
</clipPath>
</defs>
</svg>
