<svg width="50" height="50" viewBox="0 0 50 50" fill="none" xmlns="http://www.w3.org/2000/svg">
<g clip-path="url(#clip0_923_2070)">
<path d="M25 50C38.8071 50 50 38.8071 50 25C50 11.1929 38.8071 0 25 0C11.1929 0 0 11.1929 0 25C0 38.8071 11.1929 50 25 50Z" fill="#D8D8D8"/>
<mask id="mask0_923_2070" style="mask-type:luminance" maskUnits="userSpaceOnUse" x="0" y="0" width="50" height="50">
<path d="M25 50C38.8071 50 50 38.8071 50 25C50 11.1929 38.8071 0 25 0C11.1929 0 0 11.1929 0 25C0 38.8071 11.1929 50 25 50Z" fill="white"/>
</mask>
<g mask="url(#mask0_923_2070)">
<path d="M25 50C38.8071 50 50 38.8071 50 25C50 11.1929 38.8071 0 25 0C11.1929 0 0 11.1929 0 25C0 38.8071 11.1929 50 25 50Z" fill="#181818"/>
<path d="M12.8993 23.1816H9.375V21.0711H12.8993C12.8993 21.0133 12.8993 20.9654 12.8993 20.9174C12.9084 20.3015 12.893 19.685 12.9316 19.0701C13.0059 17.8894 13.308 16.7769 14.0173 15.8062C14.7601 14.7899 15.7839 14.2084 16.9889 13.9181C17.9708 13.682 18.9661 13.6579 19.9677 13.7431C21.0047 13.8333 22.024 14.068 22.996 14.4404C23.0508 14.4612 23.1056 14.4845 23.1721 14.5116L22.5761 16.4173C22.4348 16.3625 22.3023 16.3077 22.1672 16.2579C20.8822 15.7794 19.5558 15.6553 18.2083 15.8651C16.6745 16.1031 15.7485 17.0702 15.4968 18.608C15.4059 19.1659 15.4133 19.726 15.413 20.2872C15.413 20.5417 15.413 20.7964 15.413 21.0645H21.6559V23.1687H15.4234V36.2055H12.8993V23.1816Z" fill="white"/>
<path d="M33.0844 29.7351C33.0793 29.7263 33.0749 29.7172 33.0713 29.7077C33.0749 29.6982 33.0793 29.6891 33.0844 29.6803C33.6979 28.5736 34.335 27.4098 34.9468 26.3014C35.1824 25.8739 35.4371 25.4379 35.6863 24.9832H33.3035C33.3035 24.9832 32.2496 27.3386 31.7698 28.3892H31.715C31.1851 27.3318 30.0443 24.9832 30.0443 24.9832L27.5369 24.9695C27.572 25.0358 29.3569 28.2307 30.1813 29.6803C30.187 29.6904 30.192 29.6995 30.1963 29.7077L30.1813 29.7351C29.3569 31.1639 27.5446 34.422 27.5096 34.4872L30.0443 34.4738C30.0443 34.4738 31.1851 32.1587 31.715 31.1179H31.7698C32.2496 32.1532 33.3035 34.4752 33.3035 34.4752H35.7137C35.4634 34.0255 33.6979 30.826 33.0844 29.7351ZM26.6405 35.2286C26.2253 35.5644 25.7896 35.9152 25.3883 36.2401C21.8739 33.0439 21.483 26.9034 25.3744 23.1874C25.7805 23.5136 26.2135 23.8688 26.6296 24.2049C26.52 24.3306 26.4162 24.4494 26.3138 24.5697C25.4647 25.5669 24.8764 26.6665 24.6283 27.9603C24.4719 28.776 24.4432 29.5976 24.5007 30.4253C24.5656 31.3565 24.78 32.2499 25.1796 33.0962C25.5277 33.8242 25.9798 34.4976 26.5217 35.0955C26.557 35.133 26.5896 35.1714 26.6405 35.2286ZM36.5715 35.2286C36.9864 35.5644 37.4222 35.9152 37.8234 36.2401C41.3379 33.0439 41.729 26.9034 37.8377 23.1874C37.4326 23.5136 36.9982 23.8688 36.5814 24.2049C36.6909 24.3306 36.7944 24.4494 36.8972 24.5697C37.7462 25.5669 38.3345 26.6665 38.5824 27.9603C38.7387 28.776 38.7675 29.5976 38.71 30.4253C38.6451 31.3565 38.4309 32.2499 38.0313 33.0962C37.6831 33.8241 37.2311 34.4976 36.6893 35.0955C36.6537 35.133 36.6211 35.1714 36.5715 35.2286Z" fill="#F7D509"/>
</g>
</g>
<defs>
<clipPath id="clip0_923_2070">
<rect width="50" height="50" fill="white"/>
</clipPath>
</defs>
</svg>
