<svg width="50" height="50" viewBox="0 0 50 50" fill="none" xmlns="http://www.w3.org/2000/svg">
<g clip-path="url(#clip0_925_2228)">
<path d="M15.175 36.235L3.70504 37.5249L10.44 21.985L3.54504 12.585L20.31 10.675L24.865 0.199951L34.845 13.7649L46.315 12.475L39.61 27.9399L46.455 37.2749L29.775 39.1749L25.15 49.7999L15.175 36.235ZM19.94 35.2049C19.5 35.4199 19.03 35.5999 18.545 35.735L18.105 35.8549L24.57 44.645L26.865 39.3649L26.45 39.3099C24.19 39.0249 22.135 37.805 20.81 35.9749L20.165 35.0849L19.94 35.2049ZM17.69 27.235L22.905 34.4499C23.965 35.9149 25.68 36.7899 27.49 36.7899C27.7 36.7899 27.91 36.7799 28.115 36.7549L41.725 35.2049L36.305 27.8099C36.035 27.445 35.725 27.115 35.38 26.8249L35.06 26.5599L31.18 35.3249L24.43 26.3899L17.69 27.235ZM17.915 18.4499C15.895 18.6649 14.135 19.9599 13.325 21.83L7.86004 34.445L16.94 33.4249C17.39 33.375 17.83 33.2699 18.255 33.1149L18.645 32.97L13.025 25.2099L24.105 23.805L26.74 17.51L17.915 18.4499ZM26.49 24.8149L30.595 30.2499L33.1 24.5949L34.2 22.1049C35.025 20.24 34.79 18.065 33.58 16.4249L25.445 5.35495L21.785 13.7649C21.605 14.1799 21.475 14.6149 21.395 15.0649L21.325 15.4749L30.82 14.4699L26.49 24.8149ZM36.465 16.195L36.625 16.58C37.505 18.6849 37.485 21.085 36.565 23.16L36.12 24.16L36.335 24.305C36.745 24.58 37.13 24.9 37.485 25.2549L37.81 25.5749L42.155 15.55L36.465 16.195ZM8.27504 14.655L11.735 19.375L11.99 19.045C13.365 17.26 15.43 16.0999 17.645 15.8649L18.73 15.75L18.75 15.485C18.785 14.94 18.88 14.3949 19.025 13.865L19.15 13.4149L8.27504 14.655Z" fill="url(#paint0_linear_925_2228)"/>
<path d="M22.58 50C15.38 49.305 8.91005 45.56 4.67505 39.625L7.57505 39.3C8.05505 39.89 8.56505 40.455 9.09005 40.985C12.235 44.145 16.17 46.275 20.485 47.155L22.58 50Z" fill="url(#paint1_linear_925_2228)"/>
<path d="M28.62 47.315C33.29 46.56 37.535 44.375 40.91 40.985C41.21 40.68 41.515 40.355 41.82 40.015L45.335 39.615C41.115 45.545 34.655 49.295 27.455 50L28.62 47.315Z" fill="url(#paint2_linear_925_2228)"/>
<path d="M46.05 33.0151C47.01 30.4601 47.5 27.7651 47.5 25.0001C47.5 22.5601 47.115 20.1601 46.36 17.8701L47.7701 14.6201C49.2501 17.8851 50 21.3751 50 25.0001C50 28.6201 49.25 32.1051 47.775 35.3701L46.05 33.0151Z" fill="url(#paint3_linear_925_2228)"/>
<path d="M2.24 35.4049C0.755 32.1299 0 28.6349 0 24.9999C0 21.3449 0.76 17.8299 2.265 14.5449L3.985 16.8949C3 19.4749 2.5 22.1999 2.5 24.9999C2.5 27.4499 2.885 29.8549 3.645 32.1549L2.24 35.4049Z" fill="url(#paint4_linear_925_2228)"/>
<path d="M4.78003 10.23C9.01003 4.39 15.43 0.69 22.565 0L21.4 2.68C16.725 3.43 12.47 5.62 9.09003 9.015C8.83503 9.27 8.58003 9.545 8.32503 9.825L4.78003 10.23Z" fill="url(#paint5_linear_925_2228)"/>
<path d="M42.4299 10.7C41.9499 10.11 41.4399 9.545 40.9099 9.015C37.7699 5.86 33.8399 3.73 29.5349 2.85L27.4399 0C34.6349 0.7 41.0949 4.445 45.3249 10.375L42.4299 10.7Z" fill="url(#paint6_linear_925_2228)"/>
</g>
<defs>
<linearGradient id="paint0_linear_925_2228" x1="4.80491" y1="45.1251" x2="43.8039" y2="6.12608" gradientUnits="userSpaceOnUse">
<stop stop-color="#009DDE"/>
<stop offset="0.5" stop-color="#694D9F"/>
<stop offset="1" stop-color="#ED3554"/>
</linearGradient>
<linearGradient id="paint1_linear_925_2228" x1="9.05992" y1="49.3802" x2="48.0589" y2="10.3812" gradientUnits="userSpaceOnUse">
<stop stop-color="#009DDE"/>
<stop offset="0.5" stop-color="#694D9F"/>
<stop offset="1" stop-color="#ED3554"/>
</linearGradient>
<linearGradient id="paint2_linear_925_2228" x1="20.1863" y1="60.5066" x2="59.1853" y2="21.5076" gradientUnits="userSpaceOnUse">
<stop stop-color="#009DDE"/>
<stop offset="0.5" stop-color="#694D9F"/>
<stop offset="1" stop-color="#ED3554"/>
</linearGradient>
<linearGradient id="paint3_linear_925_2228" x1="16.2237" y1="56.544" x2="55.2227" y2="17.545" gradientUnits="userSpaceOnUse">
<stop stop-color="#009DDE"/>
<stop offset="0.5" stop-color="#694D9F"/>
<stop offset="1" stop-color="#ED3554"/>
</linearGradient>
<linearGradient id="paint4_linear_925_2228" x1="-6.54638" y1="33.7738" x2="32.4526" y2="-5.22519" gradientUnits="userSpaceOnUse">
<stop stop-color="#009DDE"/>
<stop offset="0.5" stop-color="#694D9F"/>
<stop offset="1" stop-color="#ED3554"/>
</linearGradient>
<linearGradient id="paint5_linear_925_2228" x1="-10.5008" y1="29.8194" x2="28.4982" y2="-9.17961" gradientUnits="userSpaceOnUse">
<stop stop-color="#009DDE"/>
<stop offset="0.5" stop-color="#694D9F"/>
<stop offset="1" stop-color="#ED3554"/>
</linearGradient>
<linearGradient id="paint6_linear_925_2228" x1="0.624811" y1="40.9451" x2="39.6238" y2="1.94613" gradientUnits="userSpaceOnUse">
<stop stop-color="#009DDE"/>
<stop offset="0.5" stop-color="#694D9F"/>
<stop offset="1" stop-color="#ED3554"/>
</linearGradient>
<clipPath id="clip0_925_2228">
<rect width="50" height="50" fill="white"/>
</clipPath>
</defs>
</svg>
