<svg width="50" height="50" viewBox="0 0 50 50" fill="none" xmlns="http://www.w3.org/2000/svg">
<g clip-path="url(#clip0_925_2297)">
<path d="M25 50C38.8071 50 50 38.8071 50 25C50 11.1929 38.8071 0 25 0C11.1929 0 0 11.1929 0 25C0 38.8071 11.1929 50 25 50Z" fill="#22242F"/>
<path d="M25 1C38.2548 1 49 11.7452 49 25C49 38.2548 38.2548 49 25 49C11.7452 49 1 38.2548 1 25C1 11.7452 11.7452 1 25 1ZM25 2.69412C12.6808 2.69412 2.69412 12.6808 2.69412 25C2.69412 37.3192 12.6808 47.3059 25 47.3059C37.3192 47.3059 47.3059 37.3192 47.3059 25C47.3059 12.6808 37.3192 2.69412 25 2.69412Z" fill="#E53935"/>
<path d="M40.1254 15.5416V13.3615H33.2196C32.849 11.9528 32.4785 10.7118 32.0742 9.57141L29.7498 9.9739C30.1541 10.9801 30.5583 12.1205 30.9289 13.3615H23.6188V15.5416H40.1254ZM22.4398 31.7416V17.8223H19.0374C19.7448 16.7826 20.4523 15.5081 21.1597 13.9652V12.3553H15.6014C15.9045 11.6845 16.174 11.0136 16.4435 10.3093L14.2876 9.63849C13.277 12.9254 11.6937 15.5751 9.57141 17.6211L10.0767 20.0025C10.5146 19.6 10.9526 19.1975 11.3568 18.7615V31.7416H22.4398ZM16.713 17.8223H12.199C13.0748 16.7491 13.917 15.5416 14.6581 14.2671H18.9027C18.1616 15.6087 17.4541 16.8161 16.713 17.8223ZM30.592 40.4286C32.2763 40.4286 33.1522 39.4894 33.1522 37.6447V28.0857H38.5084V18.5602H25.4042V28.0857H30.7941V37.0745C30.7941 37.913 30.4573 38.3491 29.7835 38.3491C29.0087 38.3491 28.2002 38.282 27.3917 38.1813L27.8634 40.4286H30.592ZM15.9382 23.7925H13.4454V19.8012H15.9382V23.7925ZM20.3512 23.7925H17.8921V19.8012H20.3512V23.7925ZM36.2177 25.9727H27.6949V20.7068H36.2177V25.9727ZM20.3512 29.7292H17.8921V25.7379H20.3512V29.7292ZM15.9382 29.7292H13.4454V25.7379H15.9382V29.7292ZM38.6432 38.8857L40.4286 37.6447C39.519 35.4981 38.2389 33.0161 36.5546 30.1652L34.7692 31.2385C36.3861 34.0223 37.6999 36.5714 38.6432 38.8857ZM24.5284 39.4559C26.0106 37.1416 27.2907 34.3913 28.3687 31.2385L26.4148 30.2994C25.3705 33.318 24.1241 35.9341 22.7093 38.1478L24.5284 39.4559ZM21.7324 37.1751L23.383 36.7727C22.9114 35.1627 22.4398 33.754 21.9008 32.5466L20.3175 33.0161C20.8565 34.3577 21.3281 35.7329 21.7324 37.1751ZM18.1616 39.1205L19.9133 38.9192C19.7112 36.3702 19.3406 34.3577 18.8016 32.882L17.1173 33.0832C17.6563 34.4919 17.9931 36.5043 18.1616 39.1205ZM11.7274 40.0261C12.4348 38.0472 12.8727 35.8 13.0748 33.2509L11.2558 33.0161C11.0873 35.431 10.6157 37.5776 9.87459 39.4559L11.7274 40.0261ZM14.5571 39.6236L16.3088 39.4223C16.2414 36.7727 16.073 34.6596 15.8372 33.1168L14.2202 33.318C14.3886 34.7938 14.4897 36.9068 14.5571 39.6236Z" fill="#E53935"/>
</g>
<defs>
<clipPath id="clip0_925_2297">
<rect width="50" height="50" fill="white"/>
</clipPath>
</defs>
</svg>
