<svg width="50" height="50" viewBox="0 0 50 50" fill="none" xmlns="http://www.w3.org/2000/svg">
<g clip-path="url(#clip0_932_2755)">
<path d="M25 50C38.8071 50 50 38.8071 50 25C50 11.1929 38.8071 0 25 0C11.1929 0 0 11.1929 0 25C0 38.8071 11.1929 50 25 50Z" fill="#5143F8"/>
<path d="M22.5287 39.1089C28.1357 39.1089 32.6811 34.5336 32.6811 28.8896C32.6811 23.2457 28.1357 18.6704 22.5287 18.6704C16.9216 18.6704 12.3762 23.2457 12.3762 28.8896C12.3762 34.5336 16.9216 39.1089 22.5287 39.1089Z" fill="black"/>
<path d="M22.5287 39.1089C28.1357 39.1089 32.6811 34.5336 32.6811 28.8896C32.6811 23.2457 28.1357 18.6704 22.5287 18.6704C16.9216 18.6704 12.3762 23.2457 12.3762 28.8896C12.3762 34.5336 16.9216 39.1089 22.5287 39.1089Z" fill="white"/>
<g filter="url(#filter0_d_932_2755)">
<path d="M29.8942 26.2848C34.072 26.2848 37.4587 22.8758 37.4587 18.6705C37.4587 14.4652 34.072 11.0562 29.8942 11.0562C25.7164 11.0562 22.3296 14.4652 22.3296 18.6705C22.3296 22.8758 25.7164 26.2848 29.8942 26.2848Z" fill="black"/>
</g>
<path d="M29.8942 26.2848C34.072 26.2848 37.4587 22.8758 37.4587 18.6705C37.4587 14.4652 34.072 11.0562 29.8942 11.0562C25.7164 11.0562 22.3296 14.4652 22.3296 18.6705C22.3296 22.8758 25.7164 26.2848 29.8942 26.2848Z" fill="white"/>
</g>
<defs>
<filter id="filter0_d_932_2755" x="0.32959" y="5.05615" width="47.1292" height="47.2288" filterUnits="userSpaceOnUse" color-interpolation-filters="sRGB">
<feFlood flood-opacity="0" result="BackgroundImageFix"/>
<feColorMatrix in="SourceAlpha" type="matrix" values="0 0 0 0 0 0 0 0 0 0 0 0 0 0 0 0 0 0 127 0" result="hardAlpha"/>
<feOffset dx="-6" dy="10"/>
<feGaussianBlur stdDeviation="8"/>
<feColorMatrix type="matrix" values="0 0 0 0 0.72549 0 0 0 0 0.72549 0 0 0 0 1 0 0 0 0.5 0"/>
<feBlend mode="normal" in2="BackgroundImageFix" result="effect1_dropShadow_932_2755"/>
<feBlend mode="normal" in="SourceGraphic" in2="effect1_dropShadow_932_2755" result="shape"/>
</filter>
<clipPath id="clip0_932_2755">
<rect width="50" height="50" fill="white"/>
</clipPath>
</defs>
</svg>
