<svg width="50" height="50" viewBox="0 0 50 50" fill="none" xmlns="http://www.w3.org/2000/svg">
<g clip-path="url(#clip0_945_3038)">
<rect width="50" height="50" fill="white"/>
<path d="M33.6762 20.6244H30.6017V28.9847H33.6762V20.6244Z" fill="black"/>
<path d="M39.2718 22.2927H35.9801V28.9847H39.2718V22.2927Z" fill="black"/>
<path d="M45 13H41.5969V24.9107H45V13Z" fill="#6BAB17"/>
<path d="M33.3853 21.8811C34.9485 20.0948 37.9205 19.8386 38.9578 21.8237C38.9578 21.8237 40.0461 20.2002 41.6332 20.6458L41.6655 23.9588C41.198 22.6532 39.2993 23.03 39.2442 24.3085L36.0218 23.9333C36.0463 23.2238 34.0774 22.5354 33.5601 24.1505L33.3853 21.8811Z" fill="black"/>
<path d="M25.1633 25.452H21.8354V28.9847H25.1633V25.452Z" fill="black"/>
<path d="M29.5964 22.9432H26.0637V28.9846H29.5964V22.9432Z" fill="black"/>
<path d="M12.4986 33.7504C12.4986 32.6971 11.8026 32.1005 10.7145 32.1005C10.3224 32.1005 9.63616 32.1471 9.14602 32.8089C8.75391 32.2776 8.11673 32.1005 7.52857 32.1005C6.9404 32.1005 6.37184 32.2683 6.00914 32.8089V32.2589H5.07788V37.7215H6.05816V34.4496C6.05816 33.7225 6.36204 32.8276 7.21488 32.8276C7.73443 32.8276 8.06772 33.0979 8.19516 33.4615C8.30299 33.7504 8.29318 34.086 8.29318 34.3843V37.7215H9.27346V34.4403C9.27346 33.7225 9.50873 32.8276 10.4498 32.8276C10.9693 32.8276 11.283 33.0979 11.4301 33.4615C11.5379 33.7504 11.5183 34.086 11.5183 34.3936V37.7215H12.4986V33.7504Z" fill="#6BAB17" stroke="#6BAB17" stroke-width="0.2"/>
<path d="M14.6462 32.259H13.6997V37.7216H14.6462V32.259ZM14.6462 30.1709H13.6997V31.2149H14.6462V30.1709Z" fill="#6BAB17" stroke="#6BAB17" stroke-width="0.2"/>
<path d="M19.2334 36.0297C19.122 36.5611 18.7449 37.1483 17.9993 37.1483C16.9452 37.1483 16.6196 35.778 16.6196 34.9297C16.6196 34.0721 16.9366 32.7205 17.9907 32.7205C18.7449 32.7205 19.122 33.3264 19.2334 33.8577H20.1332C19.9275 32.7018 19.122 32.0027 17.9907 32.0027C16.431 32.0027 15.7197 33.2891 15.7197 34.9204C15.7197 36.5611 16.4482 37.8661 17.9907 37.8661C19.122 37.8661 19.9447 37.1577 20.1332 36.0297H19.2334Z" fill="#6BAB17" stroke="#6BAB17" stroke-width="0.2"/>
<path d="M23.6668 32.1192C23.6089 32.1005 23.5124 32.0912 23.4449 32.0912C22.7211 32.0912 22.1904 32.4827 21.9106 33.2098V32.259H20.9939V37.7216H21.9588V34.9903C21.9588 34.0674 22.2676 33.0234 23.4255 33.0234C23.5124 33.0234 23.5992 33.0327 23.6668 33.0513V32.1192Z" fill="#6BAB17" stroke="#6BAB17" stroke-width="0.2"/>
<path d="M27.9812 34.9716C27.9812 35.8572 27.6659 37.1995 26.5666 37.1995C25.4843 37.1995 25.1434 35.8665 25.1434 34.9716C25.1434 34.1047 25.4928 32.7623 26.5751 32.7623C27.6318 32.7623 27.9812 34.0488 27.9812 34.9716ZM28.8759 34.9809C28.8759 33.3589 28.1601 32.0446 26.5751 32.0446C24.9815 32.0446 24.2487 33.2937 24.2487 34.9903C24.2487 36.6962 24.99 37.9173 26.5666 37.9173C28.1601 37.9173 28.8759 36.6682 28.8759 34.9809Z" fill="#6BAB17" stroke="#6BAB17" stroke-width="0.2"/>
<path d="M31.8461 37.0457C31.0132 37.1109 30.8807 36.8126 30.8807 36.1135V33.0279H31.8461V32.3195H30.8807V30.7534L29.9343 31.117V32.3195H29.196V33.0279H29.9343V36.3372C29.9343 37.4185 30.3129 37.8473 31.2215 37.8473C31.3824 37.8473 31.7136 37.8101 31.8461 37.7728V37.0457Z" fill="black" stroke="black" stroke-width="0.2"/>
<path d="M34.1882 32.259H33.2417V37.7216H34.1882V32.259ZM34.1882 30.1709H33.2417V31.2149H34.1882V30.1709Z" fill="black" stroke="black" stroke-width="0.2"/>
<path d="M38.9185 36.1321C38.8058 36.6635 38.4244 37.2508 37.6702 37.2508C36.6038 37.2508 36.2744 35.8804 36.2744 35.0322C36.2744 34.1745 36.5952 32.8229 37.6615 32.8229C38.4244 32.8229 38.8058 33.4288 38.9185 33.9601H39.8288C39.6208 32.8042 38.8058 32.1051 37.6615 32.1051C36.0837 32.1051 35.3641 33.3915 35.3641 35.0228C35.3641 36.6635 36.101 37.9685 37.6615 37.9685C38.8058 37.9685 39.6381 37.2601 39.8288 36.1321H38.9185Z" fill="black" stroke="black" stroke-width="0.2"/>
<path d="M42.6934 34.4869L44.5121 32.259H43.4333L41.4274 34.7106V30.1709H40.5359V37.7216H41.4274V35.9318L42.0426 35.1674L43.6116 37.7216H44.6904L42.6934 34.4869Z" fill="black" stroke="black" stroke-width="0.2"/>
<path d="M44.9833 28.9846H5V29.7526H44.9833V28.9846Z" fill="url(#paint0_linear_945_3038)"/>
<path d="M43.2738 28.9847C44.2127 28.9847 44.9739 28.2398 44.9739 27.3208C44.9739 26.4018 44.2127 25.6569 43.2738 25.6569C42.3348 25.6569 41.5736 26.4018 41.5736 27.3208C41.5736 28.2398 42.3348 28.9847 43.2738 28.9847Z" fill="#6BAB17"/>
</g>
<defs>
<linearGradient id="paint0_linear_945_3038" x1="44.9833" y1="29.7526" x2="5" y2="29.7526" gradientUnits="userSpaceOnUse">
<stop/>
<stop offset="1" stop-opacity="0"/>
</linearGradient>
<clipPath id="clip0_945_3038">
<rect width="50" height="50" rx="25" fill="white"/>
</clipPath>
</defs>
</svg>
