<svg width="50" height="50" viewBox="0 0 50 50" fill="none" xmlns="http://www.w3.org/2000/svg">
<g clip-path="url(#clip0_945_2825)">
<path d="M25 50C38.8072 50 50 38.8072 50 25C50 11.1928 38.8072 0 25 0C11.1928 0 0 11.1928 0 25C0 38.8072 11.1928 50 25 50Z" fill="#3CCD64"/>
<path d="M48.3899 24.998C48.3899 36.2051 40.5055 45.5716 29.98 47.8534L29.8273 47.1512C28.2416 47.4933 26.6239 47.6657 25.0017 47.6657C13.6567 47.6657 3.99351 39.1976 2.52473 27.968C2.39713 26.9832 2.33331 25.9911 2.33366 24.998H1.60999C1.60999 12.0828 12.0814 1.61011 25 1.61011V2.32809C37.5032 2.32809 47.6697 12.497 47.6697 24.9958L48.3899 24.998Z" fill="#191919"/>
<path d="M37.0264 42.8443L36.2253 41.647C45.2389 35.5679 47.7732 23.3833 41.9346 14.194L43.1459 13.4167C49.4053 23.2673 46.69 36.3282 37.0264 42.8443Z" fill="#3CCD64"/>
<path d="M7.1932 37.0305C5.53175 34.5903 4.39443 31.8362 3.8522 28.9399C3.30997 26.0437 3.37447 23.0676 4.04167 20.1972C4.70888 17.3269 5.96447 14.6239 7.73011 12.2569C9.49574 9.89001 11.7335 7.90989 14.3038 6.44019L15.0269 7.68702C8.80401 11.2521 4.93829 17.8941 4.93829 25.0214C4.93097 29.0159 6.1345 32.92 8.39222 36.2254L7.1932 37.0305Z" fill="#3CCD64"/>
<path d="M16.8029 41.8605C7.45671 37.2966 3.60498 26.0657 8.20025 16.7786C8.54498 16.082 8.93294 15.4074 9.36185 14.7585L10.5712 15.5487C8.70141 18.3687 7.7076 21.6728 7.71345 25.0497C7.71345 31.6907 11.4414 37.6364 17.4419 40.5713L16.8029 41.8605Z" fill="#3CCD64"/>
<path d="M43.128 29.7854L41.7387 29.4196C42.1134 27.9818 42.3026 26.5017 42.3021 25.0154C42.3021 15.4687 34.5604 7.70199 25.0447 7.70199V6.26123C35.3684 6.26179 43.7388 14.6582 43.7388 25.0154C43.7391 26.6251 43.5339 28.2281 43.128 29.7854Z" fill="#3CCD64"/>
<path d="M39.1207 18.1444C35.7113 23.344 32.6754 21.7684 29.0493 21.0641C25.4232 20.3599 23.4199 24.2035 23.4199 24.2035C23.4199 24.2035 23.424 24.1905 23.4262 24.1843C23.3573 24.3103 23.2902 24.4373 23.2258 24.5661C23.1096 24.7919 23.0046 25.0286 22.9042 25.2708C22.9155 25.0075 22.9556 24.7461 23.0239 24.4915C23.0898 24.235 23.1757 23.984 23.2806 23.7409C23.4112 23.4381 23.5695 23.1478 23.7535 22.8741C24.3178 19.2383 21.3164 17.8395 17.526 15.6506C13.3046 13.2132 15.1938 10.5544 15.1938 10.5544C15.1938 10.5544 8.0562 17.975 12.8188 24.9913C17.5813 32.0076 23.6056 33.9915 17.3257 44.5531C17.3257 44.5531 21.5923 47.0323 28.4568 45.8197C26.6623 38.1496 27.1155 35.2593 29.9572 32.6547L29.6474 32.7677C29.5346 32.8055 29.4217 32.8332 29.3088 32.8637L29.1396 32.9083C29.0832 32.9218 29.0267 32.9298 28.9669 32.9405C28.854 32.9608 28.7367 32.98 28.6215 32.9969C28.5064 33.0139 28.3879 33.0139 28.2723 33.0206C28.2158 33.0206 28.156 33.0263 28.0979 33.0274C28.0398 33.0286 27.9811 33.023 27.923 33.0184C27.8067 33.0111 27.691 33.0026 27.5765 32.9884C27.6893 32.9535 27.8022 32.9247 27.9105 32.8964C27.967 32.8817 28.0206 32.8693 28.0753 32.8563L28.2384 32.8061C28.3461 32.7739 28.4539 32.7434 28.5617 32.7135C28.6695 32.6835 28.7733 32.6395 28.8789 32.605C28.9319 32.5875 28.985 32.5722 29.0368 32.5525L29.1932 32.4926C29.2959 32.4509 29.402 32.4187 29.5036 32.374L29.8105 32.2459C29.9138 32.2052 30.0125 32.1544 30.1141 32.1092C30.517 31.9239 30.9147 31.7229 31.307 31.5061L31.5892 31.3491C32.9377 30.6714 34.1284 29.9017 35.2237 28.9207C41.9573 22.9012 39.1207 18.1444 39.1207 18.1444Z" fill="white"/>
</g>
<defs>
<clipPath id="clip0_945_2825">
<rect width="50" height="50" fill="white"/>
</clipPath>
</defs>
</svg>
