<svg width="50" height="50" viewBox="0 0 50 50" fill="none" xmlns="http://www.w3.org/2000/svg">
<g clip-path="url(#clip0_945_3143)">
<path d="M50 0H0V50H50V0Z" fill="black"/>
<mask id="mask0_945_3143" style="mask-type:luminance" maskUnits="userSpaceOnUse" x="12" y="12" width="26" height="26">
<path d="M37.2841 12.7158H12.7159V37.284H37.2841V12.7158Z" fill="white"/>
</mask>
<g mask="url(#mask0_945_3143)">
<mask id="mask1_945_3143" style="mask-type:luminance" maskUnits="userSpaceOnUse" x="12" y="12" width="26" height="26">
<path d="M37.284 12.7158H12.7159V37.2839H37.284V12.7158Z" fill="white"/>
</mask>
<g mask="url(#mask1_945_3143)">
<path d="M37.284 12.7158H14.4562L20.9551 20.3778C22.0356 19.4314 23.4508 18.8579 25 18.8579C28.3922 18.8579 31.142 21.6077 31.142 24.9999C31.142 26.53 30.5826 27.9294 29.6571 29.0046L37.284 35.5673V12.7158Z" fill="white"/>
<path d="M34.2772 37.2839L28.2369 30.2208C27.2971 30.8048 26.1879 31.1419 25 31.1419C21.6078 31.1419 18.858 28.3921 18.858 24.9999C18.858 23.8228 19.1892 22.7228 19.7635 21.7884L12.7159 15.6514V37.2839H34.2772Z" fill="white"/>
</g>
</g>
</g>
<defs>
<clipPath id="clip0_945_3143">
<rect width="50" height="50" rx="25" fill="white"/>
</clipPath>
</defs>
</svg>
