<svg width="50" height="50" viewBox="0 0 50 50" fill="none" xmlns="http://www.w3.org/2000/svg">
<g clip-path="url(#clip0_945_3110)">
<path d="M24.8956 0.326538C11.2505 0.326538 0.190918 11.33 0.190918 24.9058C0.190918 38.4816 11.2505 49.485 24.8956 49.485C38.5406 49.485 49.6003 38.4816 49.6003 24.9058C49.6003 11.33 38.5369 0.326538 24.8956 0.326538ZM33.5313 37.1954H16.2561C14.2042 37.1954 12.5395 35.5391 12.5395 33.4977V16.3139C12.5395 14.2725 14.2042 12.6162 16.2561 12.6162H33.5313C35.5832 12.6162 37.2479 14.2725 37.2479 16.3139V33.5014C37.2479 35.5429 35.5832 37.1991 33.5313 37.1991V37.1954Z" fill="#FF562E"/>
</g>
<defs>
<clipPath id="clip0_945_3110">
<rect width="50" height="50" fill="white"/>
</clipPath>
</defs>
</svg>
