<svg width="50" height="50" viewBox="0 0 50 50" fill="none" xmlns="http://www.w3.org/2000/svg">
<g clip-path="url(#clip0_954_5221)">
<mask id="mask0_954_5221" style="mask-type:luminance" maskUnits="userSpaceOnUse" x="0" y="0" width="50" height="50">
<path d="M50 0H0V50H50V0Z" fill="white"/>
</mask>
<g mask="url(#mask0_954_5221)">
<path d="M20.7075 21.3522L22.2918 26.0316H18.7178L20.3943 21.3522H20.7075ZM29.2557 28.5372H26.6397V29.4583H33.0877V28.5372H30.5085V21.168H33.0877V20.2468H26.6397V21.168H29.2557V28.5372ZM17.4834 29.4583L18.3677 26.9896H22.6234L23.4525 29.4583H24.8158L21.4996 20.2468H19.6205L16.2491 29.4583H17.4834ZM38.2277 38.2277H11.7723V11.7722H38.2277V38.2277Z" fill="black"/>
<path d="M27.5792 49.9999C39.3884 48.784 48.7842 39.3883 50 27.5791H46.8866C45.7812 37.8223 38.0251 45.9837 27.5792 47.1443V49.9999Z" fill="black"/>
<path d="M0 27.5791C1.21592 39.3883 10.6116 48.784 22.4208 49.9999V47.1443C11.9749 45.9837 4.23729 37.8039 3.11349 27.5791H0Z" fill="black"/>
<path d="M50 22.4208C48.7842 10.6116 39.3884 1.21591 27.5792 0V2.85557C38.0251 4.01621 45.7628 12.196 46.8866 22.4208H50Z" fill="black"/>
<path d="M22.4207 0C10.6116 1.21591 1.21591 10.6116 0 22.4207H3.11349C4.21887 12.1776 11.9749 4.01621 22.4207 2.85557V0Z" fill="black"/>
</g>
</g>
<defs>
<clipPath id="clip0_954_5221">
<rect width="50" height="50" fill="white"/>
</clipPath>
</defs>
</svg>
