<svg width="50" height="50" viewBox="0 0 50 50" fill="none" xmlns="http://www.w3.org/2000/svg">
<g clip-path="url(#clip0_954_5343)">
<path d="M25 50C38.8071 50 50 38.8071 50 25C50 11.1929 38.8071 0 25 0C11.1929 0 0 11.1929 0 25C0 38.8071 11.1929 50 25 50Z" fill="#196AE5"/>
<path d="M35.5941 17.328C34.7596 16.9565 33.7821 17.332 33.4106 18.166L27.9241 30.4885C27.5526 31.323 27.9281 32.3005 28.7621 32.672C29.5966 33.0435 30.5741 32.6685 30.9456 31.834L36.4316 19.5115C36.8041 18.677 36.4286 17.6995 35.5941 17.328Z" fill="#BADAFB"/>
<path d="M34.9216 20.4931C35.8351 20.4931 36.5756 19.7525 36.5756 18.8391C36.5756 17.9256 35.8351 17.1851 34.9216 17.1851C34.0081 17.1851 33.2676 17.9256 33.2676 18.8391C33.2676 19.7525 34.0081 20.4931 34.9216 20.4931Z" fill="white"/>
<path d="M29.435 32.8151C30.3485 32.8151 31.089 32.0746 31.089 31.1611C31.089 30.2476 30.3485 29.5071 29.435 29.5071C28.5215 29.5071 27.781 30.2476 27.781 31.1611C27.781 32.0746 28.5215 32.8151 29.435 32.8151Z" fill="white"/>
<path d="M21.2375 17.328C20.403 16.9565 19.4255 17.332 19.054 18.166L13.5675 30.4885C13.196 31.323 13.571 32.3005 14.4055 32.672C15.24 33.0435 16.2175 32.6685 16.589 31.834L22.075 19.5115C22.4475 18.677 22.072 17.6995 21.2375 17.328Z" fill="white"/>
<path d="M28.416 17.328C27.5815 16.9565 26.604 17.332 26.2325 18.166L23.4895 24.327C23.118 25.1615 23.4935 26.1391 24.328 26.5106C25.1625 26.8821 26.14 26.5065 26.5115 25.672L29.2545 19.511C29.6255 18.677 29.2505 17.6995 28.416 17.328Z" fill="white"/>
</g>
<defs>
<clipPath id="clip0_954_5343">
<rect width="50" height="50" fill="white"/>
</clipPath>
</defs>
</svg>
