<svg width="50" height="50" viewBox="0 0 50 50" fill="none" xmlns="http://www.w3.org/2000/svg">
<g clip-path="url(#clip0_954_5318)">
<mask id="mask0_954_5318" style="mask-type:luminance" maskUnits="userSpaceOnUse" x="0" y="0" width="50" height="50">
<path d="M50 0H0V50H50V0Z" fill="white"/>
</mask>
<g mask="url(#mask0_954_5318)">
<path fill-rule="evenodd" clip-rule="evenodd" d="M25.977 0.249854C25.4007 -0.0829587 24.6904 -0.082959 24.114 0.249852L4.07681 11.8183C3.50036 12.1511 3.14526 12.7662 3.14526 13.4318V36.5687C3.14526 37.2343 3.50036 37.8494 4.07681 38.1822L12.1911 42.867V31.5633V24.9658V19.4091C12.1911 18.7623 12.5264 18.162 13.077 17.8228L18.6166 14.4101L24.065 11.0537C24.6642 10.6845 25.4203 10.6845 26.0195 11.0537L31.4677 14.4101L37.0074 17.8228C37.5581 18.162 37.8934 18.7623 37.8934 19.4091V24.9658V30.5228C37.8934 31.1694 37.5581 31.7699 37.0074 32.1091L31.4677 35.5216L26.0195 38.8781C25.4975 39.1996 24.9727 38.6684 24.9727 38.0554V33.6546C24.9727 33.0547 25.5087 32.5953 26.0195 32.2808L30.5819 29.47C31.1325 29.131 31.4677 28.5305 31.4677 27.8838V23.3674C31.4677 22.7208 31.1325 22.1203 30.5819 21.7811L26.0195 18.9705C25.4203 18.6014 24.6642 18.6014 24.065 18.9705L19.5026 21.7811C18.952 22.1203 18.6166 22.7208 18.6166 23.3674V26.6437C18.6166 26.6451 18.6155 26.6462 18.614 26.6462C18.6134 26.6462 18.6129 26.6465 18.6124 26.6469C18.6118 26.6474 18.6114 26.648 18.6114 26.649V40.4303C18.6114 40.4318 18.6126 40.4329 18.614 40.4329C18.6155 40.4329 18.6166 40.434 18.6166 40.4355V46.3216C18.6166 46.4056 18.6113 46.4877 18.601 46.5678L24.114 49.7506C24.6904 50.0834 25.4007 50.0834 25.977 49.7506L46.0142 38.1822C46.5907 37.8494 46.9457 37.2343 46.9457 36.5687V13.4318C46.9457 12.7662 46.5907 12.1511 46.0142 11.8183L25.977 0.249854Z" fill="#4E7FDC"/>
</g>
</g>
<defs>
<clipPath id="clip0_954_5318">
<rect width="50" height="50" fill="white"/>
</clipPath>
</defs>
</svg>
