<svg width="50" height="50" viewBox="0 0 50 50" fill="none" xmlns="http://www.w3.org/2000/svg">
<g clip-path="url(#clip0_965_5491)">
<path d="M25 50C11.1818 50 0 38.8182 0 25C0 11.1818 11.1818 0 25 0C38.8182 0 50 11.1818 50 25C50 38.8182 38.8182 50 25 50Z" fill="url(#paint0_linear_965_5491)"/>
<path d="M38.2728 32.682C38.2273 32.7729 38.1819 32.8638 38.1364 32.9092L38.0455 33.0456C37.7273 33.5002 37.3637 33.8638 36.9091 34.1365L27.2273 39.7274C26.5455 40.1365 25.7728 40.3183 25.0455 40.3183C24.2728 40.3183 23.5455 40.1365 22.8637 39.7274L14.3637 34.8638C14.2728 34.7729 14.1819 34.7274 14.091 34.682C14 34.5456 13.9546 34.4547 13.9546 34.3183C14.0455 34.0002 14.7728 33.8638 14.8182 33.8183C15 33.7729 15.1819 33.7729 15.3637 33.7274H15.5C15.8182 33.682 16.1364 33.6365 16.4091 33.5911C16.7273 33.5456 17 33.5002 17.3182 33.4547C18.5455 33.2729 19.7273 33.1365 20.9091 33.0002C22.0455 32.8638 23.1819 32.7274 24.3637 32.6365C25.591 32.5002 26.7273 32.4092 27.7273 32.3638C28.8182 32.3183 29.9091 32.2274 30.9546 32.182C32 32.1365 33.0455 32.1365 34.091 32.0911C34.1819 32.0911 34.3182 32.0911 34.4091 32.0911H34.7273C35.5 32.0911 36.3182 32.0911 37.1364 32.1365C37.2273 32.1365 37.3182 32.1365 37.4546 32.1365H37.6364C37.9546 32.182 38.1364 32.2729 38.2273 32.4092C38.3182 32.5002 38.3182 32.5911 38.2728 32.682Z" fill="url(#paint1_linear_965_5491)"/>
<path d="M38.8636 24.1365V27.3184C38.8636 28.5002 38.8636 28.5456 36.409 28.8184L34.8181 28.9547C34.5909 28.9547 34.409 29.0002 34.1818 29.0002L33.6818 29.0911C29.6363 29.5002 25.5454 29.8638 21.5 30.0911C19.6818 30.182 17.9091 30.2729 16.0909 30.3638C15.2727 30.4093 14.4091 30.4093 13.5909 30.4547C13.1818 30.4547 12.7727 30.4547 12.3636 30.4547C12.0454 30.4547 11.5454 30.5456 11.2727 30.3184C11.0454 30.0911 11.0909 29.6365 11.0909 29.3184V21.3184C11.0909 20.182 11.4545 19.9547 13.7727 19.8184C14.1818 19.8184 14.5454 19.8184 15.0909 19.8184C21.9091 19.8184 29.1363 20.8184 37.8636 23.0002H37.9091C38 23.0002 38.0454 23.0456 38.1363 23.0456C38.5 23.182 38.8636 23.0911 38.8636 24.1365Z" fill="url(#paint2_linear_965_5491)"/>
<path d="M38.2727 18.8637C38.2272 18.9092 38.1818 18.9092 38.1363 18.9546C37.8636 19.0455 37.5454 19.0001 37.2727 18.9546C36.9545 18.9546 36.6363 18.9092 36.3181 18.9092C35.7272 18.8637 35.0909 18.8182 34.5 18.7273C33.6818 18.6364 32.8636 18.5455 32.0909 18.4546C30.8636 18.3182 29.6363 18.1819 28.4545 18.0455C27.0454 17.9092 25.5909 17.7273 24.1818 17.591C22.7727 17.4546 21.3636 17.2728 19.9545 17.1364C18.7272 17.0001 17.5454 16.8637 16.3181 16.7728C15.5454 16.6819 14.7272 16.591 13.9545 16.5001C13.7727 16.5001 13.5454 16.4546 13.3636 16.4546C13.3181 16.4546 13.2727 16.4546 13.2272 16.4546C13.0909 16.4092 12.9545 16.4092 12.8636 16.3182C12.8181 16.2728 12.8181 16.1819 12.9091 16.0455L12.9545 16.0001C13 15.9546 13.0909 15.9092 13.1363 15.8637C13.2272 15.8182 13.2727 15.7728 13.3636 15.7273L22.8181 10.2728C23.5 9.90916 24.2727 9.68188 25.0454 9.68188C25.8181 9.68188 26.5909 9.8637 27.2272 10.2728C27.2272 10.2728 36.5454 15.6364 36.6818 15.7273C37.4545 16.1819 38.0909 16.9546 38.2727 17.8637C38.3181 18.091 38.4545 18.6364 38.2727 18.8637Z" fill="url(#paint3_linear_965_5491)"/>
</g>
<defs>
<linearGradient id="paint0_linear_965_5491" x1="8.35218" y1="40.9992" x2="38.8639" y2="11.6762" gradientUnits="userSpaceOnUse">
<stop offset="0.0156851" stop-color="#2E0E5B"/>
<stop offset="1" stop-color="#2E205B"/>
</linearGradient>
<linearGradient id="paint1_linear_965_5491" x1="42.4658" y1="9.48052" x2="20.4151" y2="41.8529" gradientUnits="userSpaceOnUse">
<stop offset="0.0403439" stop-color="#6AF2A6"/>
<stop offset="0.197" stop-color="#64EFAB"/>
<stop offset="0.4077" stop-color="#53E8B9"/>
<stop offset="0.6492" stop-color="#37DCD1"/>
<stop offset="0.9118" stop-color="#10CBF1"/>
<stop offset="1" stop-color="#01C5FD"/>
</linearGradient>
<linearGradient id="paint2_linear_965_5491" x1="37.4759" y1="6.08168" x2="15.4251" y2="38.4541" gradientUnits="userSpaceOnUse">
<stop offset="0.0403439" stop-color="#6AF2A6"/>
<stop offset="0.197" stop-color="#64EFAB"/>
<stop offset="0.4077" stop-color="#53E8B9"/>
<stop offset="0.6492" stop-color="#37DCD1"/>
<stop offset="0.9118" stop-color="#10CBF1"/>
<stop offset="1" stop-color="#01C5FD"/>
</linearGradient>
<linearGradient id="paint3_linear_965_5491" x1="34.6289" y1="4.14234" x2="12.5781" y2="36.5148" gradientUnits="userSpaceOnUse">
<stop offset="0.0403439" stop-color="#6AF2A6"/>
<stop offset="0.197" stop-color="#64EFAB"/>
<stop offset="0.4077" stop-color="#53E8B9"/>
<stop offset="0.6492" stop-color="#37DCD1"/>
<stop offset="0.9118" stop-color="#10CBF1"/>
<stop offset="1" stop-color="#01C5FD"/>
</linearGradient>
<clipPath id="clip0_965_5491">
<rect width="50" height="50" fill="white"/>
</clipPath>
</defs>
</svg>
