<svg width="50" height="50" viewBox="0 0 50 50" fill="none" xmlns="http://www.w3.org/2000/svg">
<path d="M44.0128 2.04891C44.5637 2.04891 45.0089 2.50827 45.0089 3.07668V19.4613V20.4793C45.0218 22.4984 45.0378 25.0198 44.6951 27.6933C44.2979 30.8096 43.5098 33.3444 42.299 35.4429C38.3494 42.2736 31.2542 47.2803 24.5947 47.9479C24.5627 47.9512 24.5307 47.9545 24.4986 47.9545C24.4666 47.9545 24.4346 47.9545 24.4026 47.9479C17.7366 47.2737 10.6414 42.2705 6.69821 35.4429C5.48098 33.3444 4.69939 30.8064 4.30219 27.6933C3.96264 25.0198 3.97865 22.5017 3.99467 20.4793V19.4613L3.99788 3.07668C3.99788 2.50827 4.44312 2.04891 4.99408 2.04891H44.0128ZM44.0128 0H4.99088C3.34762 0 2.00867 1.38136 2.00867 3.07668V20.4693C1.98945 22.429 1.97023 25.1224 2.32899 27.9577C2.76463 31.3583 3.6327 34.1475 4.98768 36.4905C7.06979 40.0926 9.97832 43.2718 13.4026 45.6907C16.8589 48.1296 20.5843 49.6134 24.1815 49.9802C24.284 49.9935 24.3896 50 24.4955 50C24.6012 50 24.7036 49.9935 24.8093 49.9802C28.4033 49.6134 32.1288 48.1329 35.5851 45.694C39.0092 43.2749 41.9211 40.0926 44.0063 36.4905C45.3644 34.1441 46.2325 31.3549 46.665 27.9611C47.0237 25.152 47.0077 22.5611 46.995 20.4759V19.4548V3.07998C46.995 1.38136 45.656 0.0033047 44.0128 0.0033047V0Z" fill="#0156FC"/>
<path d="M41.2997 22.7933C41.5912 23.0214 42.0077 22.8065 42.0077 22.4299L41.9981 20.3578V5.5924C42.0012 5.33794 41.8026 5.13306 41.556 5.13306H7.44152C7.19487 5.13306 6.99628 5.33794 6.99628 5.5924V14.6737C6.99628 15.0637 7.08277 15.447 7.25253 15.794C7.42231 16.141 7.66575 16.4451 7.97006 16.6763L33.6312 36.4749C33.8555 36.6466 33.8715 36.9804 33.6664 37.1787C33.1924 37.6414 32.6926 38.0742 32.1737 38.484C32.0136 38.6097 31.7957 38.6097 31.6388 38.4873L7.70418 19.9843C7.41269 19.7596 6.99628 19.9711 6.99628 20.3513C6.99628 23.5237 6.724 29.4424 9.30901 33.9764C12.1951 39.0425 17.1505 43.0412 22.2501 44.3366C22.9868 44.5217 23.7235 44.6539 24.4604 44.7234C24.4892 44.7266 24.5179 44.7266 24.5436 44.7234C27.8815 44.4126 31.2768 42.8396 34.1918 40.4636C34.9222 39.8654 35.6237 39.221 36.29 38.5303C37.6033 37.1654 38.75 35.6388 39.6949 33.9831C40.5502 32.486 41.0916 30.837 41.4343 29.188C41.5112 28.831 41.5752 28.4707 41.6329 28.1073C41.7834 27.1622 41.4119 26.2071 40.6719 25.6354L18.9444 8.87397C18.6049 8.60959 18.781 8.0511 19.2134 8.0511H22.0899C22.1861 8.0511 22.279 8.08414 22.359 8.14363L41.3029 22.7967L41.2997 22.7933Z" fill="#0156FC"/>
</svg>
