<svg width="50" height="50" viewBox="0 0 50 50" fill="none" xmlns="http://www.w3.org/2000/svg">
<g clip-path="url(#clip0_965_5504)">
<path d="M12.5085 25.705C12.6943 25.5201 12.8013 25.2628 12.8013 24.9994C12.8013 24.736 12.6943 24.4776 12.5085 24.2926L7.10727 18.8926C6.91862 18.7031 6.66748 18.599 6.40042 18.599C6.13337 18.599 5.88223 18.7031 5.69358 18.8914L0.292785 24.2926C0.104128 24.4808 0 24.7328 0 24.9994C0 25.2661 0.104128 25.5168 0.292785 25.705L5.69276 31.1062C6.07007 31.4848 6.72955 31.4836 7.10686 31.1075L12.5081 25.705H12.5085Z" fill="white"/>
<path d="M49.7079 24.2917L44.3067 18.8917C44.1119 18.697 43.8559 18.5994 43.5999 18.5994C43.3438 18.5994 43.0878 18.697 42.893 18.8917L37.4918 24.2929C37.1027 24.6829 37.1027 25.3167 37.4918 25.7054L42.893 31.1066C43.2667 31.4839 43.9331 31.4807 44.3067 31.1078L49.7079 25.7054C50.0971 25.3167 50.0971 24.6829 49.7079 24.2917Z" fill="white"/>
<path d="M40.5329 34.9002C40.7313 34.7029 40.8399 34.44 40.8399 34.1598C40.8399 33.8797 40.7313 33.6155 40.5329 33.4171L34.9022 27.7872C34.4934 27.3772 33.8278 27.3784 33.4191 27.7872L33.288 27.9183C32.7841 28.4201 31.9045 28.4201 31.4006 27.9183L31.2422 27.7602C30.9931 27.5103 30.8506 27.1653 30.8506 26.8149C30.8506 26.4646 30.9927 26.1195 31.2413 25.8708L31.3724 25.7397C31.5709 25.5413 31.6799 25.2795 31.6799 24.9994C31.6799 24.7193 31.5709 24.4563 31.3724 24.2566L25.7687 18.6537C25.3448 18.2302 24.6551 18.2302 24.2313 18.6549L24.1541 18.7313C23.8952 18.9902 23.5501 19.1335 23.1834 19.1335C22.8167 19.1335 22.4717 18.9902 22.2124 18.7313L22.1087 18.6284C21.8535 18.3719 21.7064 18.0179 21.7064 17.6561C21.7064 17.2943 21.8494 16.9435 22.1087 16.6838L22.2124 16.5809C22.41 16.3837 22.5195 16.1195 22.5195 15.8394C22.5195 15.5593 22.4108 15.2963 22.2124 15.099C21.6199 14.5065 21.6199 13.5408 22.2124 12.9483C22.4717 12.6886 22.8167 12.5448 23.1834 12.5448H23.1838C23.5514 12.5461 23.8964 12.6882 24.1557 12.9491L24.2308 13.023C24.6437 13.4363 25.3583 13.435 25.7687 13.023L25.845 12.9467C26.3804 12.4133 27.2514 12.4113 27.788 12.9467L27.8917 13.052C28.151 13.3109 28.2939 13.6559 28.2939 14.0222C28.2939 14.3885 28.151 14.7348 27.8913 14.9945L27.8149 15.0709C27.6128 15.2726 27.4968 15.5527 27.4968 15.8394C27.4968 16.126 27.6099 16.4029 27.8149 16.6079L33.4195 22.2116C33.8294 22.6228 34.4942 22.6216 34.9018 22.2116L40.5333 16.5809C40.7317 16.3837 40.8403 16.1195 40.8403 15.8394C40.8403 15.5593 40.7317 15.2963 40.5333 15.099L34.9026 9.46713C34.5057 9.06858 33.8151 9.0694 33.4195 9.4659L33.2884 9.59821C32.7853 10.1013 31.9061 10.1033 31.3998 9.59821L31.2417 9.44018C30.7219 8.91913 30.7219 8.0714 31.2417 7.55157L31.3728 7.41927C31.5684 7.22449 31.6803 6.95457 31.6803 6.67894C31.6803 6.4033 31.5684 6.13339 31.3728 5.9386L25.7413 0.306689C25.3313 -0.103291 24.6666 -0.100841 24.259 0.306689L18.6553 5.91043C18.4531 6.11215 18.3372 6.39228 18.3372 6.67894C18.3372 6.9656 18.4531 7.24572 18.6553 7.44745L18.7316 7.52381C18.9913 7.78352 19.1343 8.12857 19.1343 8.49608C19.1343 8.86359 18.9913 9.20742 18.7316 9.46713L18.6291 9.57003C18.3694 9.82974 18.0244 9.97307 17.6573 9.97307H17.6569C17.2894 9.97184 16.9443 9.82974 16.685 9.56881L16.6086 9.49367C16.1974 9.08247 15.48 9.08369 15.0712 9.49367L9.46666 15.0986C9.27188 15.2926 9.15959 15.5625 9.15959 15.839C9.15959 16.1154 9.27147 16.3857 9.46666 16.5818L15.0986 22.2116C15.5073 22.6216 16.1729 22.6228 16.5817 22.2116L16.7111 22.0818C17.2326 21.5619 18.0787 21.5611 18.6002 22.0805L18.7582 22.2386C19.011 22.4918 19.1498 22.8278 19.1498 23.1827C19.1498 23.5375 19.011 23.8748 18.7582 24.1268L18.6275 24.2579C18.2192 24.6666 18.2192 25.331 18.6275 25.741L24.259 31.3717C24.6555 31.7694 25.3501 31.7661 25.7413 31.3729L25.8724 31.2406C26.1207 30.9919 26.4649 30.8498 26.8165 30.8498C27.1681 30.8498 27.5127 30.9919 27.7602 31.2418L27.9182 31.3986C28.1702 31.6506 28.309 31.9866 28.309 32.3427C28.309 32.6988 28.1702 33.0349 27.9182 33.2868L27.7871 33.4179C27.5924 33.6127 27.4801 33.8838 27.4801 34.1594C27.4801 34.4351 27.5919 34.7062 27.7871 34.8998L27.9182 35.0308C28.171 35.284 28.3098 35.6201 28.3098 35.9762C28.3098 36.3323 28.171 36.6671 27.9182 36.9195L27.7602 37.0783C27.2571 37.5822 26.3779 37.5822 25.8716 37.0783L25.7409 36.946C25.3334 36.5393 24.6686 36.5372 24.2586 36.9472L24.1275 37.0783C23.6236 37.5822 22.7441 37.5834 22.2402 37.0771L22.0817 36.9203C21.829 36.6671 21.6901 36.331 21.6901 35.9749C21.6901 35.6189 21.8322 35.2795 22.0809 35.0308L22.212 34.8998C22.4068 34.7058 22.5191 34.4359 22.5191 34.1594C22.5191 33.883 22.4072 33.6127 22.212 33.4167L16.5813 27.7868C16.1725 27.3768 15.5069 27.378 15.0982 27.7868L9.46626 33.4175C9.27148 33.6123 9.15918 33.8834 9.15918 34.159C9.15918 34.4347 9.27107 34.7058 9.46626 34.8994L15.0982 40.5301C15.4947 40.929 16.1848 40.929 16.5813 40.5301L17.6556 39.4557L19.7027 41.5023L18.6255 42.5795C18.4295 42.7756 18.3192 43.0418 18.3192 43.3195C18.3192 43.5971 18.4295 43.863 18.6255 44.0594L24.2586 49.6921C24.6686 50.1033 25.3334 50.1021 25.7409 49.6921L31.3724 44.0602C31.568 43.8654 31.6799 43.5955 31.6799 43.3199C31.6799 43.0442 31.568 42.7743 31.3724 42.5795L31.2413 42.4485C30.9894 42.1941 30.8506 41.8592 30.8506 41.5031C30.8506 41.1471 30.9894 40.813 31.2413 40.5599L31.401 40.401C31.9041 39.8971 32.7837 39.8959 33.288 40.4022L33.4186 40.5309C33.8164 40.9298 34.5057 40.9298 34.9022 40.5309L40.5329 34.9002ZM34.1606 37.258L32.9895 36.0864L26.9276 42.1496L28.0987 43.3199L24.9998 46.418L21.9016 43.3199L23.0732 42.1483L17.0113 36.0864L15.8401 37.258L12.742 34.1598L15.8401 31.0617L18.9383 34.1598L17.7671 35.3302L23.8286 41.3933L24.9998 40.2218L26.1713 41.3933L32.2332 35.3314L31.0621 34.1598L32.2324 32.9895L26.1709 26.9264L24.9994 28.0979L21.9012 24.9998L23.0728 23.8283L17.0109 17.7672L15.8397 18.9375L12.7416 15.8394L15.8397 12.74L17.0109 13.9128L23.0728 7.85089L21.9012 6.67935L24.9994 3.58122L28.0983 6.67935L26.9272 7.85089L32.9891 13.912L34.1602 12.7404L37.2579 15.8398L34.1602 18.9379L31.0621 15.8398L32.2332 14.6682L26.1713 8.60633L24.9998 9.77788L23.8286 8.60756L17.7671 14.6686L18.9383 15.8402L17.7671 17.0117L23.8286 23.0728L24.9998 21.9021L28.0987 25.0002L26.9276 26.1718L32.9891 32.2337L34.1606 31.0621L37.2583 34.1603L34.1606 37.2584V37.258Z" fill="url(#paint0_linear_965_5504)"/>
</g>
<defs>
<linearGradient id="paint0_linear_965_5504" x1="24.9998" y1="50" x2="24.9998" y2="2.07424e-05" gradientUnits="userSpaceOnUse">
<stop stop-color="#A9883C"/>
<stop offset="0.69" stop-color="#C9AB67"/>
<stop offset="1" stop-color="#C9B78D"/>
</linearGradient>
<clipPath id="clip0_965_5504">
<rect width="50" height="50" fill="white"/>
</clipPath>
</defs>
</svg>
