<svg width="50" height="50" viewBox="0 0 50 50" fill="none" xmlns="http://www.w3.org/2000/svg">
<path fill-rule="evenodd" clip-rule="evenodd" d="M24.3287 3.95362C24.0246 4.04987 24.0811 4.01512 16.6898 8.648C8.39143 13.8495 8.86306 13.5047 8.65293 14.5224C8.59243 14.8151 10.0664 40.1336 10.1904 40.933C10.3139 41.7289 10.9083 42.4171 11.7008 42.6819L11.9897 42.7784L25.0573 42.7665L38.1249 42.7546L38.3946 42.6459C39.0084 42.3983 39.5292 41.8374 39.7236 41.2149C39.8629 40.7682 41.4352 15.0684 41.3527 14.5864C41.2814 14.1705 41.0288 13.6849 40.7317 13.3927C40.3609 13.0282 26.0842 4.11237 25.6628 3.98225C25.3118 3.87387 24.6273 3.85912 24.3287 3.95362ZM31.4351 11.4321C37.7709 15.3849 37.8831 15.4601 37.9503 15.8001C37.9908 16.0046 36.6111 38.7499 36.5484 38.912C36.4757 39.1004 36.3298 39.2639 36.1553 39.3529C35.9781 39.4434 35.8424 39.4445 24.9623 39.4445H13.9488L13.7926 39.3391C13.5513 39.1766 13.4366 38.9704 13.4056 38.6442C13.3906 38.486 13.0638 33.2836 12.6794 27.0834L11.9806 15.8101L12.0848 15.6131C12.1677 15.4565 12.2848 15.3552 12.6569 15.1186C12.9143 14.955 15.7396 13.1831 18.9351 11.1811L24.7453 7.54112L24.9999 7.55862C25.2467 7.57575 25.4468 7.69625 31.4351 11.4321ZM20.5341 14.8314L16.0912 17.6192L16.1032 17.849C16.1098 17.9754 16.2392 20.0504 16.3909 22.4601C16.5426 24.8699 16.6666 26.8959 16.6666 26.9624V27.0834H22.7777H28.8888L28.8882 27.2337C28.8879 27.3165 28.8361 28.1655 28.7731 29.1204C28.7101 30.0752 28.6583 30.9137 28.6579 30.9837L28.6573 31.1111H25.0066H21.3558L21.3279 30.7524C21.3127 30.555 21.2769 29.9351 21.2487 29.375C21.2203 28.8149 21.1878 28.3096 21.1764 28.2524L21.1556 28.1481H18.9574H16.7592L16.7589 28.368C16.7586 28.6286 17.1164 34.8466 17.1559 35.2662L17.1832 35.5555H25.0036C29.3048 35.5555 32.8241 35.5399 32.8242 35.5209C32.8242 35.5017 33.0013 32.6352 33.2177 29.151C33.4341 25.6666 33.6111 22.776 33.6111 22.7274C33.6111 22.6407 33.4804 22.6389 27.2222 22.6389C22.1416 22.6389 20.8334 22.627 20.8339 22.581C20.8343 22.5492 20.7998 21.9646 20.7572 21.2821C20.6907 20.2154 20.6889 20.0324 20.7449 19.9795C20.8052 19.9226 24.7029 17.4705 24.9056 17.3621C24.9819 17.3211 25.3217 17.5171 27.1391 18.65L29.2823 19.9861L29.2654 20.8037L29.2484 21.6212L31.4644 21.6092L33.6804 21.5972L33.7811 19.8842C33.8364 18.9421 33.8833 18.045 33.8852 17.8905L33.8888 17.6097L29.5254 14.8845C27.1256 13.3856 25.1203 12.1331 25.0694 12.1014C24.9862 12.0492 24.5248 12.327 20.5341 14.8314Z" fill="#E4AC4C"/>
</svg>
