<svg width="50" height="50" viewBox="0 0 50 50" fill="none" xmlns="http://www.w3.org/2000/svg">
<g clip-path="url(#clip0_975_5656)">
<path d="M42.6282 0H7.3718C3.30047 0 0 3.30047 0 7.3718V42.6282C0 46.6995 3.30047 50 7.3718 50H42.6282C46.6995 50 50 46.6995 50 42.6282V7.3718C50 3.30047 46.6995 0 42.6282 0Z" fill="black"/>
<path d="M39.9166 14.7307C39 13.151 37.3583 12.2049 35.5246 12.2049H25.4138C25.2828 12.1962 25.1519 12.1875 25.0209 12.1875C24.8899 12.1875 24.7589 12.1962 24.628 12.2049H14.517C12.6834 12.2049 11.0419 13.151 10.1251 14.7307C9.2083 16.3105 9.2083 18.194 10.1251 19.7738L20.629 37.8539C21.5458 39.4337 23.1873 40.3798 25.0209 40.3798C26.8545 40.3798 28.496 39.4337 29.4128 37.8539L39.9166 19.7738C40.8336 18.2027 40.8336 16.3105 39.9166 14.7307ZM26.9854 36.4651C26.5751 37.1683 25.8416 37.5936 25.0209 37.5936C24.2001 37.5936 23.4667 37.1683 23.0563 36.4651L17.1452 26.2924L23.0563 16.1108C23.423 15.4772 24.043 15.0779 24.7589 14.9998H25.2828C25.9988 15.0779 26.6187 15.4859 26.9854 16.1108L32.8968 26.2837L26.9854 36.4651Z" fill="white"/>
</g>
<defs>
<clipPath id="clip0_975_5656">
<rect width="50" height="50" rx="25" fill="white"/>
</clipPath>
</defs>
</svg>
