<svg width="50" height="50" viewBox="0 0 50 50" fill="none" xmlns="http://www.w3.org/2000/svg">
<g clip-path="url(#clip0_975_5661)">
<path d="M50 25C50 11.1929 38.8071 0 25 0C11.1929 0 0 11.1929 0 25C0 38.8071 11.1929 50 25 50C38.8071 50 50 38.8071 50 25Z" fill="black"/>
<g opacity="0.25">
<path d="M19.9382 39.4378C19.7951 39.3104 19.7055 39.1329 19.6877 38.9413L18.2656 23.6885H23.3265V40.7765C23.3265 41.4281 22.5638 41.775 22.0792 41.3436L19.9382 39.4378Z" fill="black"/>
<path d="M23.3265 23.3858V21.2566L17.9956 20.7922L18.2374 23.3858H23.3265Z" fill="black"/>
<path d="M23.3264 20.9528L17.967 20.486L17.1293 11.5011C17.088 11.0572 17.4343 10.6736 17.8766 10.6736H22.5759C22.9904 10.6736 23.3264 11.0124 23.3264 11.4303V20.9528Z" fill="black"/>
<path d="M33.218 23.3859H37.0757C37.283 23.3859 37.4509 23.2165 37.4509 23.0076V20.7763C37.4509 20.5528 37.26 20.378 37.0393 20.3998L33.457 20.7525L33.218 23.3859Z" fill="black"/>
<path d="M33.1528 20.7822L27.8145 21.3078V23.3858H32.9165L33.1528 20.7822Z" fill="black"/>
<path d="M27.5143 21.3374V23.3858H13.2996C13.0923 23.3858 12.9243 23.2164 12.9243 23.0075V20.7712C12.9243 20.5495 13.1125 20.3753 13.3315 20.3942L25.9647 21.4836C25.9874 21.4856 26.0104 21.4854 26.0331 21.4832L27.5143 21.3374Z" fill="black"/>
<path d="M29.0994 41.2925C28.6279 41.7741 27.8145 41.4375 27.8145 40.761V17.2871H33.477L31.5073 38.5879C31.4912 38.7617 31.416 38.9248 31.2942 39.049L29.0994 41.2925Z" fill="black"/>
<path d="M33.5051 16.9843H27.8145V13.7219L33.8418 13.3428L33.5051 16.9843Z" fill="black"/>
<path d="M27.8145 11.4302V13.4186L33.8701 13.0377L34.0122 11.5005C34.0532 11.0568 33.707 10.6736 33.2651 10.6736H28.5649C28.1506 10.6736 27.8145 11.0124 27.8145 11.4302Z" fill="black"/>
<path d="M23.3263 16.9845V13.7316L17.3064 13.4329L17.6357 16.9845H23.3263Z" fill="black"/>
<path d="M23.6267 16.9845H38.802C38.9678 16.9845 39.1021 16.8489 39.1021 16.6818V13.3193C39.1021 13.1446 38.9558 13.0061 38.783 13.0172L25.7508 13.8518L23.6267 13.7464V16.9845Z" fill="black"/>
<path d="M16.9788 13.4166L17.3384 16.9844H11.2582C11.0924 16.9844 10.958 16.8489 10.958 16.6817V13.4357C10.958 13.2628 11.1016 13.1249 11.2729 13.1334L16.9788 13.4166Z" fill="black"/>
</g>
<path d="M19.8779 39.3772C19.7348 39.2498 19.6452 39.0723 19.6274 38.8809L18.2053 23.6279H23.2662V40.7158C23.2662 41.3677 22.5035 41.7144 22.0189 41.2832L19.8779 39.3772Z" fill="url(#paint0_linear_975_5661)"/>
<path d="M23.2662 23.3253V21.1961L17.9353 20.7317L18.1771 23.3253H23.2662Z" fill="url(#paint1_linear_975_5661)"/>
<path d="M23.2662 20.8923L17.9067 20.4254L17.069 11.4405C17.0277 10.9966 17.374 10.613 17.8162 10.613H22.5156C22.9301 10.613 23.2662 10.9518 23.2662 11.3697V20.8923Z" fill="url(#paint2_linear_975_5661)"/>
<path d="M33.1577 23.3252H37.0154C37.2227 23.3252 37.3906 23.1558 37.3906 22.9468V20.7155C37.3906 20.4921 37.1997 20.3173 36.979 20.339L33.3967 20.6917L33.1577 23.3252Z" fill="url(#paint3_linear_975_5661)"/>
<path d="M33.0925 20.7217L27.7542 21.2472V23.3252H32.8562L33.0925 20.7217Z" fill="url(#paint4_linear_975_5661)"/>
<path d="M27.454 21.2768V23.3253H13.2393C13.032 23.3253 12.864 23.1559 12.864 22.9469V20.7107C12.864 20.489 13.0522 20.3148 13.2712 20.3337L25.9044 21.4231C25.9271 21.425 25.9501 21.4249 25.9728 21.4226L27.454 21.2768Z" fill="url(#paint5_linear_975_5661)"/>
<path d="M29.0391 41.2316C28.5676 41.7133 27.7542 41.3769 27.7542 40.7001V17.2263H33.4167L31.447 38.527C31.4309 38.7011 31.3557 38.8639 31.2339 38.9882L29.0391 41.2316Z" fill="url(#paint6_linear_975_5661)"/>
<path d="M33.4448 16.9237H27.7542V13.6613L33.7815 13.2822L33.4448 16.9237Z" fill="url(#paint7_linear_975_5661)"/>
<path d="M27.7542 11.3697V13.3581L33.8098 12.9772L33.9519 11.44C33.9929 10.9962 33.6467 10.613 33.2046 10.613H28.5046C28.0901 10.613 27.7542 10.9518 27.7542 11.3697Z" fill="url(#paint8_linear_975_5661)"/>
<path d="M23.266 16.9237V13.6708L17.2461 13.3721L17.5755 16.9237H23.266Z" fill="url(#paint9_linear_975_5661)"/>
<path d="M23.5664 16.9237H38.7417C38.9075 16.9237 39.0418 16.7882 39.0418 16.621V13.2585C39.0418 13.0838 38.8956 12.9454 38.7227 12.9564L25.6902 13.7911L23.5664 13.6857V16.9237Z" fill="url(#paint10_linear_975_5661)"/>
<path d="M16.9185 13.356L17.2781 16.9239H11.1979C11.0321 16.9239 10.8977 16.7884 10.8977 16.6212V13.3752C10.8977 13.2022 11.0413 13.0644 11.2127 13.0729L16.9185 13.356Z" fill="url(#paint11_linear_975_5661)"/>
<path d="M18.1817 20.4494L17.9067 20.4254L17.5803 16.9239H17.5756L17.2462 13.3722L17.2492 13.3724L17.069 11.4405C17.0277 10.9966 17.374 10.613 17.8162 10.613H22.5156C22.8002 10.613 23.0478 10.7728 23.1751 11.0081C23.0686 10.9496 22.9464 10.9164 22.8166 10.9164H18.1172C17.675 10.9164 17.3286 11.3 17.37 11.7439L17.5501 13.6757L17.5472 13.6756L17.8766 17.2272H17.8812L18.1817 20.4494Z" fill="white"/>
<path d="M23.5672 16.9237H23.8674V13.989L25.9912 14.0944L39.0237 13.2598C39.0298 13.2594 39.0359 13.2592 39.0418 13.2592V13.2585C39.0418 13.0838 38.8955 12.9454 38.7227 12.9564L34.1136 13.2516L34.1109 13.2805L28.0552 13.6614V13.6396L25.6902 13.7911L23.5671 13.6857L23.5672 16.9237Z" fill="white"/>
<path d="M33.864 11.008C33.7578 10.9497 33.636 10.9164 33.5056 10.9164H28.8057C28.3911 10.9164 28.0552 11.2552 28.0552 11.6731V13.3391L27.7542 13.3581V11.3697C27.7542 10.9518 28.0901 10.613 28.5046 10.613H33.2046C33.4912 10.613 33.7373 10.774 33.864 11.008Z" fill="white"/>
<path d="M27.7542 17.2271H33.4167L33.3887 17.5297H28.0552V41.0036C28.0552 41.1381 28.0874 41.2592 28.1426 41.3632C27.9187 41.2399 27.7542 41.0045 27.7542 40.7001V23.6285H27.7549V21.58L27.7542 21.5801V17.2271Z" fill="white"/>
<path d="M27.454 21.6098V21.2768L25.9728 21.4226C25.9501 21.4249 25.9271 21.425 25.9044 21.423L17.9352 20.7317L17.9355 20.7359L13.2712 20.3337C13.0522 20.3148 12.864 20.489 12.864 20.7106V22.9469C12.864 23.1324 12.9964 23.2868 13.1712 23.3191C13.1671 23.2967 13.165 23.2738 13.165 23.2503V21.014C13.165 20.7923 13.3532 20.6182 13.5722 20.637L18.2365 21.0392L18.2361 21.0351L26.2055 21.7264C26.2282 21.7284 26.2511 21.7282 26.2738 21.726L27.454 21.6098Z" fill="white"/>
<path d="M18.2053 23.6287L19.6273 38.881C19.6451 39.0724 19.7347 39.2499 19.8778 39.3773L20.0484 39.5292C19.9816 39.4266 19.9398 39.3084 19.9283 39.1842L18.5062 23.9314H23.2661V23.6287L18.2053 23.6287Z" fill="white"/>
<path d="M33.1846 23.3252H33.4861L33.6975 20.995L37.28 20.6424C37.3159 20.6388 37.3508 20.6405 37.3845 20.6467C37.3501 20.4574 37.1763 20.3196 36.979 20.339L33.4258 20.6888L33.3333 21.6871L33.1846 23.3252Z" fill="white"/>
<path d="M16.9477 13.6459L16.9185 13.356L11.2127 13.0729C11.0413 13.0644 10.8977 13.2022 10.8977 13.3752V16.6212C10.8977 16.7884 11.0321 16.9239 11.1979 16.9239H11.1987V13.6785C11.1987 13.5055 11.3423 13.3678 11.5136 13.3763L16.9477 13.6459Z" fill="white"/>
</g>
<defs>
<linearGradient id="paint0_linear_975_5661" x1="10.8978" y1="26.0435" x2="39.0418" y2="26.0435" gradientUnits="userSpaceOnUse">
<stop stop-color="#5433FF"/>
<stop offset="0.5" stop-color="#20BDFF"/>
<stop offset="1" stop-color="#A5FECB"/>
</linearGradient>
<linearGradient id="paint1_linear_975_5661" x1="10.8978" y1="26.0435" x2="39.0418" y2="26.0435" gradientUnits="userSpaceOnUse">
<stop stop-color="#5433FF"/>
<stop offset="0.5" stop-color="#20BDFF"/>
<stop offset="1" stop-color="#A5FECB"/>
</linearGradient>
<linearGradient id="paint2_linear_975_5661" x1="10.8978" y1="26.0435" x2="39.0418" y2="26.0435" gradientUnits="userSpaceOnUse">
<stop stop-color="#5433FF"/>
<stop offset="0.5" stop-color="#20BDFF"/>
<stop offset="1" stop-color="#A5FECB"/>
</linearGradient>
<linearGradient id="paint3_linear_975_5661" x1="10.8978" y1="26.0434" x2="39.0417" y2="26.0434" gradientUnits="userSpaceOnUse">
<stop stop-color="#5433FF"/>
<stop offset="0.5" stop-color="#20BDFF"/>
<stop offset="1" stop-color="#A5FECB"/>
</linearGradient>
<linearGradient id="paint4_linear_975_5661" x1="10.8978" y1="26.0435" x2="39.0417" y2="26.0435" gradientUnits="userSpaceOnUse">
<stop stop-color="#5433FF"/>
<stop offset="0.5" stop-color="#20BDFF"/>
<stop offset="1" stop-color="#A5FECB"/>
</linearGradient>
<linearGradient id="paint5_linear_975_5661" x1="10.8977" y1="26.0435" x2="39.0417" y2="26.0435" gradientUnits="userSpaceOnUse">
<stop stop-color="#5433FF"/>
<stop offset="0.5" stop-color="#20BDFF"/>
<stop offset="1" stop-color="#A5FECB"/>
</linearGradient>
<linearGradient id="paint6_linear_975_5661" x1="10.8978" y1="26.0434" x2="39.0417" y2="26.0434" gradientUnits="userSpaceOnUse">
<stop stop-color="#5433FF"/>
<stop offset="0.5" stop-color="#20BDFF"/>
<stop offset="1" stop-color="#A5FECB"/>
</linearGradient>
<linearGradient id="paint7_linear_975_5661" x1="10.8978" y1="26.0434" x2="39.0417" y2="26.0434" gradientUnits="userSpaceOnUse">
<stop stop-color="#5433FF"/>
<stop offset="0.5" stop-color="#20BDFF"/>
<stop offset="1" stop-color="#A5FECB"/>
</linearGradient>
<linearGradient id="paint8_linear_975_5661" x1="10.8978" y1="26.0434" x2="39.0417" y2="26.0434" gradientUnits="userSpaceOnUse">
<stop stop-color="#5433FF"/>
<stop offset="0.5" stop-color="#20BDFF"/>
<stop offset="1" stop-color="#A5FECB"/>
</linearGradient>
<linearGradient id="paint9_linear_975_5661" x1="10.8977" y1="26.0434" x2="39.0416" y2="26.0434" gradientUnits="userSpaceOnUse">
<stop stop-color="#5433FF"/>
<stop offset="0.5" stop-color="#20BDFF"/>
<stop offset="1" stop-color="#A5FECB"/>
</linearGradient>
<linearGradient id="paint10_linear_975_5661" x1="10.8978" y1="26.0434" x2="39.0418" y2="26.0434" gradientUnits="userSpaceOnUse">
<stop stop-color="#5433FF"/>
<stop offset="0.5" stop-color="#20BDFF"/>
<stop offset="1" stop-color="#A5FECB"/>
</linearGradient>
<linearGradient id="paint11_linear_975_5661" x1="10.8977" y1="26.0436" x2="39.0417" y2="26.0436" gradientUnits="userSpaceOnUse">
<stop stop-color="#5433FF"/>
<stop offset="0.5" stop-color="#20BDFF"/>
<stop offset="1" stop-color="#A5FECB"/>
</linearGradient>
<clipPath id="clip0_975_5661">
<rect width="50" height="50" fill="white"/>
</clipPath>
</defs>
</svg>
