<svg width="50" height="50" viewBox="0 0 50 50" fill="none" xmlns="http://www.w3.org/2000/svg">
<g clip-path="url(#clip0_975_5650)">
<path d="M23.9884 49.8564C36.0629 49.8564 45.8512 40.0045 45.8512 27.8514C45.8512 15.6984 36.0629 5.84644 23.9884 5.84644C11.914 5.84644 2.12573 15.6984 2.12573 27.8514C2.12573 40.0045 11.914 49.8564 23.9884 49.8564Z" fill="#F2E373"/>
<path fill-rule="evenodd" clip-rule="evenodd" d="M32.8721 25.5713L2.99951 34.528C4.36241 38.893 7.14457 42.9196 11.3593 45.8963C21.7617 53.2296 34.7374 50.1096 42.8717 41.353C43.0458 41.1646 42.8717 40.853 42.6363 40.9596C41.1074 41.6814 39.39 41.8962 37.7318 41.573C36.1907 41.2776 34.7732 40.5243 33.6627 39.4103C32.5522 38.2964 31.7997 36.8731 31.5026 35.3246C31.1174 33.365 31.4755 31.3313 32.5064 29.6236C33.5373 27.9159 35.1665 26.6577 37.0736 26.0963L32.8721 25.5713Z" fill="url(#paint0_linear_975_5650)"/>
<path fill-rule="evenodd" clip-rule="evenodd" d="M29.4217 23.8247C30.0117 23.5812 30.584 23.2967 31.1345 22.9731C33.822 21.4232 36.9572 20.8471 40.0165 21.3409C43.0757 21.8347 45.8738 23.3686 47.9435 25.6864C47.9759 25.725 47.9954 25.7729 47.9993 25.8232C48.0032 25.8735 47.9913 25.9238 47.9654 25.967C47.9394 26.0102 47.9006 26.0441 47.8545 26.0641C47.8083 26.084 47.7571 26.0889 47.7081 26.0781C43.9842 25.2897 39.9701 25.1347 36.9127 26.1397C33.2269 27.3547 30.5227 29.9914 28.6508 33.2631C25.9084 38.0597 24.7793 39.4164 20.349 41.1531C12.6293 44.1831 5.4268 41.4381 3.00111 34.5397C1.4589 29.5694 1.70473 24.2122 3.69557 19.4057C5.68641 14.5992 9.29543 10.6496 13.891 8.24808C16.5654 6.82474 19.8085 5.62474 22.5244 4.83474C25.1424 4.08308 29.5975 2.99141 30.7465 0.158076C30.7691 0.105299 30.8084 0.0614803 30.8583 0.0333882C30.9082 0.00529608 30.9659 -0.00550693 31.0225 0.00264754C31.0791 0.010802 31.1314 0.0374603 31.1714 0.0785054C31.2115 0.11955 31.2369 0.172699 31.2439 0.229743C31.7032 3.57808 30.9405 5.10308 29.0288 6.91141C26.9563 8.87308 24.3979 9.76641 22.1032 11.1831C18.6031 13.5164 17.4939 17.7781 19.8151 21.2964C21.1946 23.3881 23.544 24.4981 26.0128 24.4981C26.7702 24.4959 27.5245 24.4018 28.2595 24.2181C28.6556 24.1146 29.044 23.9831 29.4217 23.8247Z" fill="url(#paint1_linear_975_5650)"/>
</g>
<defs>
<linearGradient id="paint0_linear_975_5650" x1="19.8915" y1="30.0896" x2="28.5476" y2="50.3756" gradientUnits="userSpaceOnUse">
<stop stop-color="#F7D45C"/>
<stop offset="1" stop-color="#DE3633"/>
</linearGradient>
<linearGradient id="paint1_linear_975_5650" x1="9.73103" y1="9.69141" x2="29.8696" y2="32.2041" gradientUnits="userSpaceOnUse">
<stop stop-color="#F7D45C"/>
<stop offset="1" stop-color="#DE3633"/>
</linearGradient>
<clipPath id="clip0_975_5650">
<rect width="50" height="50" rx="25" fill="white"/>
</clipPath>
</defs>
</svg>
