<svg width="50" height="50" viewBox="0 0 50 50" fill="none" xmlns="http://www.w3.org/2000/svg">
<g clip-path="url(#clip0_975_5731)">
<path d="M42.235 7.765C37.63 3.16 31.51 0.625 25 0.625C11.56 0.625 0.625 11.56 0.625 25C0.625 38.44 11.56 49.375 25 49.375C31.51 49.375 37.635 46.84 42.235 42.235C46.84 37.63 49.375 31.51 49.375 25C49.375 18.49 46.845 12.37 42.235 7.765Z" fill="#FCFCFC"/>
<path d="M37.5051 18.785H23.0251C22.9151 18.785 22.8151 18.725 22.7601 18.62L19.8951 13.35C19.8801 13.32 19.8701 13.285 19.8751 13.25C19.9001 13.09 20.0251 12.97 20.1751 12.97H40.3601C40.5101 12.97 40.6401 13.09 40.6601 13.25C40.6651 13.285 40.6551 13.32 40.6401 13.35L37.7701 18.62C37.7151 18.72 37.6151 18.785 37.5051 18.785Z" fill="#3054BC"/>
<path d="M15.44 13.285L22.79 25.76C22.845 25.855 22.845 25.97 22.795 26.065L20.07 31C20.055 31.03 20.03 31.05 20.005 31.065C19.87 31.12 19.705 31.065 19.63 30.935L9.38001 13.545C9.30501 13.415 9.33501 13.25 9.45001 13.155C9.47501 13.135 9.50501 13.125 9.54001 13.125L15.18 13.135C15.285 13.135 15.385 13.195 15.44 13.285Z" fill="#3054BC"/>
<path d="M22.2299 35.2001L29.3649 22.6001C29.4199 22.5051 29.5149 22.4451 29.6249 22.4451L35.2599 22.3401C35.2899 22.3401 35.3249 22.3451 35.3499 22.3651C35.4649 22.4551 35.4999 22.6251 35.4249 22.7551L25.4799 40.3201C25.4049 40.4501 25.2449 40.5051 25.1049 40.4551C25.0749 40.4451 25.0499 40.4201 25.0349 40.3901L22.2249 35.5001C22.1749 35.4101 22.1749 35.2951 22.2299 35.2001Z" fill="#3054BC"/>
</g>
<defs>
<clipPath id="clip0_975_5731">
<rect width="50" height="50" fill="white"/>
</clipPath>
</defs>
</svg>
