<svg width="50" height="50" viewBox="0 0 50 50" fill="none" xmlns="http://www.w3.org/2000/svg">
<g clip-path="url(#clip0_975_5743)">
<path d="M25 0C38.8083 0 50 11.1917 50 25C50 38.8083 38.8083 50 25 50C11.1917 50 0 38.8083 0 25C0 11.1917 11.1917 0 25 0Z" fill="#00B1FF"/>
<path d="M28.5608 26.8159L26.8025 28.5742L38.9458 40.7175L40.7041 38.9592L28.5608 26.8159ZM11.0308 9.28003L9.27246 11.0384L21.415 23.1817L23.1733 21.4234L11.0308 9.28003ZM38.9425 9.28503L26.8083 21.4359L28.5683 23.1934L40.7025 11.0417L38.9425 9.28503ZM21.4166 26.815L9.28329 38.9667L11.0425 40.7242L23.1775 28.5725L21.4166 26.815Z" fill="white"/>
</g>
<defs>
<clipPath id="clip0_975_5743">
<rect width="50" height="50" fill="white"/>
</clipPath>
</defs>
</svg>
