<svg width="50" height="50" viewBox="0 0 50 50" fill="none" xmlns="http://www.w3.org/2000/svg">
<g clip-path="url(#clip0_889_1192)">
<g filter="url(#filter0_d_889_1192)">
<path d="M27.9055 21.0523L43.1682 5.78982L37.3778 0L25.0106 12.3672L12.6434 0L6.8533 5.78982L22.1157 21.0523C22.9152 21.8516 23.9629 22.2514 25.0106 22.2514C26.0583 22.2514 27.106 21.8519 27.9055 21.0523ZM50 37.3569L37.6328 24.9897L50 12.6221L44.2099 6.83232L28.9479 22.0948C27.3493 23.6937 27.3493 26.2857 28.9479 27.8846L44.2099 43.1471L50 37.3569ZM24.9894 37.6328L37.3566 50L43.1463 44.2102L27.8843 28.9477C26.285 27.3488 23.6935 27.3488 22.0942 28.9477L6.83211 44.2102L12.6222 50L24.9894 37.6328ZM21.0522 27.9056C21.8202 27.1375 22.2513 26.0965 22.2513 25.0107C22.2513 23.9248 21.8202 22.8834 21.0522 22.1157L5.79006 6.85327L0 12.6435L12.3672 25.0107L0 37.3782L5.79006 43.168L21.0522 27.9056Z" fill="black"/>
</g>
</g>
<defs>
<filter id="filter0_d_889_1192" x="-2.982" y="-2.982" width="55.964" height="55.964" filterUnits="userSpaceOnUse" color-interpolation-filters="sRGB">
<feFlood flood-opacity="0" result="BackgroundImageFix"/>
<feColorMatrix in="SourceAlpha" type="matrix" values="0 0 0 0 0 0 0 0 0 0 0 0 0 0 0 0 0 0 127 0" result="hardAlpha"/>
<feOffset/>
<feGaussianBlur stdDeviation="1.491"/>
<feColorMatrix type="matrix" values="0 0 0 0 0 0 0 0 0 0 0 0 0 0 0 0 0 0 0.13 0"/>
<feBlend mode="normal" in2="BackgroundImageFix" result="effect1_dropShadow_889_1192"/>
<feBlend mode="normal" in="SourceGraphic" in2="effect1_dropShadow_889_1192" result="shape"/>
</filter>
<clipPath id="clip0_889_1192">
<rect width="50" height="50" fill="white"/>
</clipPath>
</defs>
</svg>
