<svg width="45" height="50" viewBox="0 0 45 50" fill="none" xmlns="http://www.w3.org/2000/svg">
<g clip-path="url(#clip0_891_1220)">
<path d="M15.7176 49.2401H0.695502L3.64299 32.6223L19.2376 18.6238H5.97571L16.7001 12.0746H34.1368L11.5835 34.2597L10.0692 42.7322C10.0692 42.7322 15.1035 43.1005 19.0741 42.7322C23.0442 42.3232 27.5059 40.6858 27.5059 40.6858L15.7176 49.2401ZM39.3351 13.6712L32.6225 20.2201C32.6225 20.2201 38.2709 26.4826 33.0726 35.0785C27.956 43.51 10.9694 41.9545 10.9694 41.9545L12.279 34.5462L36.1835 11.2969H16.3725L18.3781 0H8.80018L5.36194 19.3198H17.5592L3.06951 32.3358L0 49.8544C0 49.8544 11.5835 50.182 21.4073 49.8544C31.2717 49.5271 42.7734 41.0948 44.4517 31.5581C46.744 18.6644 39.3351 13.6712 39.3351 13.6712Z" fill="url(#paint0_linear_891_1220)"/>
</g>
<defs>
<linearGradient id="paint0_linear_891_1220" x1="-6.93664e-05" y1="24.9998" x2="44.8917" y2="24.9998" gradientUnits="userSpaceOnUse">
<stop stop-color="#12C1E1"/>
<stop offset="0.7" stop-color="#12C1E1"/>
<stop offset="1" stop-color="#1694D2"/>
</linearGradient>
<clipPath id="clip0_891_1220">
<rect width="44.8918" height="50" fill="white"/>
</clipPath>
</defs>
</svg>
