<svg width="50" height="50" viewBox="0 0 50 50" fill="none" xmlns="http://www.w3.org/2000/svg">
<path d="M25.025 48.95C38.266 48.95 49 38.216 49 24.975C49 11.734 38.266 1 25.025 1C11.784 1 1.05 11.734 1.05 24.975C1.05 38.216 11.784 48.95 25.025 48.95Z" fill="#3CC194"/>
<path d="M36.24 29.47L36.17 29.545C35.74 29.98 35.22 30.325 34.65 30.55H34.62C34.095 30.755 33.535 30.86 32.975 30.86C32.15 30.875 31.335 30.7 30.59 30.345H30.545L30.435 30.29L30.405 30.275C29.715 29.905 29.15 29.34 28.775 28.65L28.705 28.525L27.18 30.16C27.18 30.16 26.875 31.725 26.74 32.49V32.54L26.775 32.575L26.795 32.6C28.345 34.3 30.54 35.265 32.84 35.265L32.965 35.27L33.065 35.275C34.57 35.275 36.05 34.89 37.365 34.16L37.405 34.14C38.13 33.73 38.795 33.22 39.375 32.625L39.445 32.55L36.24 29.47Z" fill="white"/>
<path d="M14.72 21.9V21.93L15.34 24.255L15.465 24.055C16.135 23.085 17.155 22.41 18.31 22.185H18.36C18.765 22.1 19.18 22.07 19.595 22.09C20.22 22.13 20.825 22.31 21.375 22.61L21.42 22.635C22.175 23.06 22.845 23.625 23.39 24.3L23.48 24.415L24.94 22.36L25.405 20.19L25.355 20.15L25.19 20.005C24.235 19.125 23.105 18.465 21.87 18.06C21.205 17.86 20.515 17.75 19.825 17.74H19.795C18.23 17.745 16.695 18.14 15.32 18.885L15.275 18.91L14.66 21.665L14.72 21.9Z" fill="white"/>
<path d="M28.385 27.825V27.785C28.395 27.615 28.355 26.945 28.345 26.555L28.355 26.45C28.335 25.415 28.67 24.405 29.315 23.595L29.335 23.565C29.43 23.445 29.525 23.335 29.63 23.225C30.47 22.36 31.62 21.87 32.825 21.87C33.015 21.87 33.21 21.88 33.4 21.9H33.43C34.42 22.03 35.34 22.48 36.055 23.175L36.13 23.25L39.215 20.14L39.14 20.065C37.58 18.55 35.53 17.65 33.36 17.515H33.33L32.745 17.485C31.44 17.475 30.15 17.725 28.945 18.22C28.15 18.56 27.415 19.035 26.785 19.625L26.75 19.655H26.71V19.675L26.685 19.695L26.65 19.725C26.43 19.94 26.225 20.17 26.04 20.415V20.435L25.54 22.61L23.895 24.88V26.465C23.88 28.22 22.87 29.81 21.285 30.565L21.255 30.58C20.675 30.84 20.05 30.975 19.415 30.98C16.915 31 14.86 29.02 14.79 26.52L14.77 25.04L14.775 24.945L13.965 21.77L14.65 18.825L14.575 14.2L10.105 12.62L10.275 22.85V22.895L10.335 26.535C10.335 26.66 10.34 26.785 10.35 26.91C10.345 26.93 10.345 26.955 10.345 26.975C10.52 29.475 11.745 31.785 13.715 33.335L13.745 33.36C15.37 34.65 17.39 35.345 19.465 35.335L19.79 35.33L19.86 35.335C21.94 35.33 23.94 34.55 25.475 33.145L25.5 33.12C25.71 32.92 25.91 32.705 26.105 32.48L26.12 32.46L26.6 29.905L28.365 27.88L28.385 27.825Z" fill="white"/>
</svg>
