<svg width="50" height="50" viewBox="0 0 50 50" fill="none" xmlns="http://www.w3.org/2000/svg">
<g clip-path="url(#clip0_903_1486)">
<mask id="mask0_903_1486" style="mask-type:alpha" maskUnits="userSpaceOnUse" x="0" y="0" width="50" height="50">
<path d="M25 50C38.8071 50 50 38.8071 50 25C50 11.1929 38.8071 0 25 0C11.1929 0 0 11.1929 0 25C0 38.8071 11.1929 50 25 50Z" fill="#D9D9D9"/>
</mask>
<g mask="url(#mask0_903_1486)">
<path d="M50 0H0V50H50V0Z" fill="#1C1C1C"/>
<path d="M0 1.25H50" stroke="#06FC99" stroke-opacity="0.1"/>
<path d="M0 2.5H50" stroke="#06FC99" stroke-opacity="0.1"/>
<path d="M0 3.75H50" stroke="#06FC99" stroke-opacity="0.1"/>
<path d="M0 5H50" stroke="#06FC99" stroke-opacity="0.1"/>
<path d="M0 6.25H50" stroke="#06FC99" stroke-opacity="0.1"/>
<path d="M0 7.5H50" stroke="#06FC99" stroke-opacity="0.1"/>
<path d="M0 8.75H50" stroke="#06FC99" stroke-opacity="0.1"/>
<path d="M0 10H50" stroke="#06FC99" stroke-opacity="0.1"/>
<path d="M0 11.25H50" stroke="#06FC99" stroke-opacity="0.1"/>
<path d="M0 12.5H50" stroke="#06FC99" stroke-opacity="0.1"/>
<path d="M0 13.75H50" stroke="#06FC99" stroke-opacity="0.1"/>
<path d="M0 15H50" stroke="#06FC99" stroke-opacity="0.1"/>
<path d="M0 16.25H50" stroke="#06FC99" stroke-opacity="0.1"/>
<path d="M0 17.5H50" stroke="#06FC99" stroke-opacity="0.1"/>
<path d="M0 18.75H50" stroke="#06FC99" stroke-opacity="0.1"/>
<path d="M0 20H50" stroke="#06FC99" stroke-opacity="0.1"/>
<path d="M0 21.25H50" stroke="#06FC99" stroke-opacity="0.1"/>
<path d="M0 22.5H50" stroke="#06FC99" stroke-opacity="0.1"/>
<path d="M0 23.75H50" stroke="#06FC99" stroke-opacity="0.1"/>
<path d="M0 25H50" stroke="#06FC99" stroke-opacity="0.1"/>
<path d="M0 26.25H50" stroke="#06FC99" stroke-opacity="0.1"/>
<path d="M0 27.5H50" stroke="#06FC99" stroke-opacity="0.1"/>
<path d="M0 28.75H50" stroke="#06FC99" stroke-opacity="0.1"/>
<path d="M0 30H50" stroke="#06FC99" stroke-opacity="0.1"/>
<path d="M0 31.25H50" stroke="#06FC99" stroke-opacity="0.1"/>
<path d="M0 32.5H50" stroke="#06FC99" stroke-opacity="0.1"/>
<path d="M0 33.75H50" stroke="#06FC99" stroke-opacity="0.1"/>
<path d="M0 35H50" stroke="#06FC99" stroke-opacity="0.1"/>
<path d="M0 36.25H50" stroke="#06FC99" stroke-opacity="0.1"/>
<path d="M0 37.5H50" stroke="#06FC99" stroke-opacity="0.1"/>
<path d="M0 38.75H50" stroke="#06FC99" stroke-opacity="0.1"/>
<path d="M0 40H50" stroke="#06FC99" stroke-opacity="0.1"/>
<path d="M0 41.25H50" stroke="#06FC99" stroke-opacity="0.1"/>
<path d="M0 42.5H50" stroke="#06FC99" stroke-opacity="0.1"/>
<path d="M0 43.75H50" stroke="#06FC99" stroke-opacity="0.1"/>
<path d="M0 45H50" stroke="#06FC99" stroke-opacity="0.1"/>
<path d="M0 46.25H50" stroke="#06FC99" stroke-opacity="0.1"/>
<path d="M0 47.5H50" stroke="#06FC99" stroke-opacity="0.1"/>
<path d="M0 48.75H50" stroke="#06FC99" stroke-opacity="0.1"/>
<path d="M0 50H50" stroke="#06FC99" stroke-opacity="0.1"/>
<path fill-rule="evenodd" clip-rule="evenodd" d="M37 12V37.75H13V37.7497H17.5V33.2057H13V16.5441H17.5V12H37ZM21.2498 16.5443H32.4997V21.0884H21.2498V16.5443ZM32.4997 29.4193H21.2498V21.0884L16.7498 21.0886V29.4195L21.2498 29.4193V33.9635H32.4997V29.4193Z" fill="#06FC99"/>
</g>
</g>
<defs>
<clipPath id="clip0_903_1486">
<rect width="50" height="50" fill="white"/>
</clipPath>
</defs>
</svg>
