<svg width="50" height="50" viewBox="0 0 50 50" fill="none" xmlns="http://www.w3.org/2000/svg">
<g clip-path="url(#clip0_909_1607)">
<path d="M48.525 33.475C46.845 33.3 39.75 32.365 39.375 28.785C39.37 28.75 39.365 28.72 39.36 28.685C39.23 26.21 38.655 23.86 38.4 22.925C38.715 22.73 39.03 22.47 39.265 22.155C39.93 21.275 40.17 19.955 38.72 19.36C37.535 18.875 36.85 19.6 36.53 20.42C36.03 20.35 35.105 20.34 33.895 20.37C33.65 19.425 32.945 18.39 31.585 18.945C30.735 19.295 30.47 19.895 30.525 20.51C23.74 20.88 14 21.77 14 21.77C11.785 22.04 8.465 22.98 8.97 25.86C9.39 28.55 9.665 31.855 10.365 34.65C10.57 35.46 11.21 36.795 13.65 37.865C15.505 38.68 20.63 39.045 25.86 38.575C26.035 38.7 26.165 38.88 26.2 39.13C26.375 40.32 26.675 46.94 26.805 49.94C26.22 49.98 25.61 50 25 50C11.195 50 0 38.805 0 25C0 11.195 11.195 0 25 0C38.805 0 50 11.195 50 25C50 28.025 49.51 30.79 48.525 33.475Z" fill="#EE348A"/>
<path d="M36.11 24.6201C36.1 24.5351 36.045 24.2751 36.045 24.2751C36 24.0901 35.915 23.9051 35.79 23.7251C35.665 23.5451 35.52 23.4101 35.36 23.3201C35.055 23.1501 34.725 23.0801 34.37 23.1201C33.98 23.1601 33.655 23.3101 33.405 23.5801C33.12 23.8801 32.975 24.2701 32.975 24.7501C32.975 25.1651 33.09 25.5151 33.32 25.8101C33.54 26.0851 33.825 26.2551 34.17 26.3251C34.505 26.3951 34.85 26.3701 35.2 26.2451C35.29 26.2101 35.38 26.1701 35.47 26.1201C35.56 26.0701 35.65 26.0001 35.75 25.9201C35.85 25.8351 35.935 25.7251 36 25.5951C36.07 25.4601 36.115 25.3151 36.135 25.1551C36.13 25.1501 36.15 24.9551 36.11 24.6201ZM34.58 25.8551C33.75 25.8551 33.5 25.3001 33.5 24.6151H35.66C35.66 25.3001 35.475 25.8551 34.58 25.8551Z" fill="#EE348A"/>
</g>
<defs>
<clipPath id="clip0_909_1607">
<rect width="50" height="50" fill="white"/>
</clipPath>
</defs>
</svg>
