<svg width="50" height="50" viewBox="0 0 50 50" fill="none" xmlns="http://www.w3.org/2000/svg">
<g clip-path="url(#clip0_916_1831)">
<path d="M25 0C11.1932 0 0 11.1932 0 25C0 38.8068 11.1932 50 25 50C38.8068 50 50 38.8068 50 25C50 11.1932 38.8075 0 25 0ZM25 36.281C18.78 36.281 13.719 31.22 13.719 25C13.719 18.78 18.78 13.719 25 13.719C31.22 13.719 36.281 18.78 36.281 25C36.281 31.22 31.22 36.281 25 36.281ZM2.76621 25C2.76621 13.2047 12 3.53016 23.6183 2.81328V11.0206C16.5088 11.7154 10.9528 17.7079 10.9528 24.9993C10.9528 32.2907 16.5088 38.2839 23.6183 38.978V47.1853C12.0007 46.4684 2.76692 36.7938 2.76692 24.9986L2.76621 25ZM26.3817 47.1867V38.9794C33.4912 38.2846 39.0472 32.2921 39.0472 25.0007C39.0472 17.7093 33.4912 11.7161 26.3817 11.022V2.81328C37.9993 3.53016 47.2331 13.2047 47.2331 25C47.2331 36.7952 37.9993 46.4698 26.3817 47.1867Z" fill="url(#paint0_linear_916_1831)"/>
</g>
<defs>
<linearGradient id="paint0_linear_916_1831" x1="7.3221" y1="42.6779" x2="42.6779" y2="7.3221" gradientUnits="userSpaceOnUse">
<stop stop-color="#4C80E9"/>
<stop offset="1" stop-color="#91D2F5"/>
</linearGradient>
<clipPath id="clip0_916_1831">
<rect width="50" height="50" fill="white"/>
</clipPath>
</defs>
</svg>
