<svg width="50" height="50" viewBox="0 0 50 50" fill="none" xmlns="http://www.w3.org/2000/svg">
<g clip-path="url(#clip0_916_1785)">
<path d="M16.5474 20.8428C16.5474 20.8428 22.8458 17.1305 23.4129 14.2016C23.9799 11.2727 21.2741 6.1926 15.2267 6.16514C9.17943 6.13767 6.48743 11.9886 5.93475 14.9702C5.38206 17.9517 3.55035 25.8085 16.5474 20.8428Z" fill="black" stroke="#00FF0D" stroke-linecap="round" stroke-linejoin="round"/>
<path d="M15.9248 12.9368C14.9961 11.7299 11.537 14.2914 12.694 15.3455C13.6079 16.1782 16.6442 13.8713 15.9248 12.9368Z" fill="#00FF00"/>
<path d="M37.1033 20.1466C37.1033 20.1466 42.923 16.5823 43.4469 13.7701C43.9709 10.958 41.4707 6.08042 35.883 6.05405C30.2952 6.02767 27.8078 11.6454 27.2972 14.5081C26.7865 17.3708 25.094 24.9143 37.1033 20.1466Z" fill="black" stroke="#00FF0D" stroke-linecap="round" stroke-linejoin="round"/>
<path d="M37.3994 12.2432C36.7957 11.1827 34.9015 13.6498 35.8962 14.3641C36.9937 15.1526 37.9688 13.2432 37.3994 12.2432Z" fill="#00FF00"/>
<path d="M33.6889 13.7993C33.0852 12.7388 30.7949 15.2647 31.7897 15.979C32.8872 16.7675 34.2583 14.7993 33.6889 13.7993Z" fill="#00FF00"/>
<path d="M12.8567 39.2273C12.8567 39.2273 15.3732 36.595 15.7857 34.1519C16.1982 31.7088 14.8619 26.1981 11.7535 26.0756C8.6452 25.9532 7.43056 30.8671 7.15138 33.6024C6.87171 36.3388 6.28378 43.784 12.8567 39.2273Z" fill="black" stroke="#00FF0D" stroke-linecap="round" stroke-linejoin="round"/>
<path d="M21.5148 39.154C21.5148 39.154 24.0313 36.5216 24.4438 34.0785C24.8562 31.6355 23.5199 26.1247 20.4116 26.0022C17.3033 25.8798 16.0886 30.7937 15.8095 33.529C15.5298 36.2655 14.9419 43.7106 21.5148 39.154Z" fill="black" stroke="#00FF0D" stroke-linecap="round" stroke-linejoin="round"/>
<path d="M19.4908 34.4683C18.7536 33.9365 19.6827 31.5224 20.6269 32.1637C21.4819 32.744 20.4456 35.0829 19.4908 34.4683Z" fill="#00FF00"/>
<path d="M11.6893 32.4069C12.5239 33.1516 11.0897 35.2729 10.6021 34.9032C9.91386 34.3809 10.9133 31.7148 11.6893 32.4069Z" fill="#00FF00"/>
<path d="M29.2019 37.8515C30.2592 37.6026 31.7758 36.3814 31.9953 35.2347C32.2148 34.0879 32.5978 30.6028 28.947 30.455C26.6073 30.3601 25.6214 33.0188 25.5615 34.4353C25.5048 35.7717 25.8093 38.2407 29.2019 37.8515Z" fill="black" stroke="#00FF0D" stroke-linecap="round" stroke-linejoin="round"/>
<path d="M29.0036 33.9808C28.7013 34.4754 29.3479 33.4173 29.0036 33.9808V33.9808Z" fill="black" stroke="#00FF0D" stroke-linecap="round" stroke-linejoin="round"/>
<path d="M42.0352 37.8853C43.6852 37.6347 44.2338 36.5175 44.584 35.303C44.9343 34.0886 45.2955 30.6237 41.6447 30.4778C39.305 30.3842 38.3191 33.0077 38.2591 34.4045C38.2025 35.7237 38.9025 38.3614 42.0352 37.8853Z" fill="black" stroke="#00FF0D" stroke-linecap="round" stroke-linejoin="round"/>
<path d="M41.7013 34.0035C41.399 34.4981 42.0456 33.44 41.7013 34.0035V34.0035Z" fill="black" stroke="#00FF0D" stroke-linecap="round" stroke-linejoin="round"/>
<path d="M38.4275 44.241C38.4275 44.241 40.4201 43.3092 40.9763 41.684C41.5324 40.0587 40.5585 37.0632 38.1426 37.0582C35.8013 37.0533 34.7113 39.4102 34.6514 40.7934C34.5947 42.1003 35.0349 44.6216 38.4275 44.241Z" fill="black" stroke="#00FF0D" stroke-linecap="round" stroke-linejoin="round"/>
<path d="M38.0935 40.43C37.7912 40.9246 38.4378 39.8665 38.0935 40.43V40.43Z" fill="black" stroke="#00FF0D" stroke-linecap="round" stroke-linejoin="round"/>
<path d="M31.6052 44.3254C33.3691 44.0317 33.9759 42.8868 34.336 41.7468C34.696 40.6069 35.4821 37.0934 31.8008 36.9807C29.4606 36.9093 28.4752 39.4768 28.4153 40.8551C28.3586 42.1564 28.2126 44.7048 31.6052 44.3254Z" fill="black" stroke="#00FF0D" stroke-linecap="round" stroke-linejoin="round"/>
<path d="M31.8575 40.5065C31.5551 41.001 32.2017 39.9429 31.8575 40.5065V40.5065Z" fill="black" stroke="#00FF0D" stroke-linecap="round" stroke-linejoin="round"/>
<path d="M35.2233 37.8065C36.9365 37.3686 38.1475 36.2693 38.2199 34.7309C38.2924 33.1925 38.8333 31.1688 35.2495 30.5997C32.9311 30.2314 32.1581 32.9868 32.1097 34.439C32.0666 35.7273 33.2547 38.3096 35.2233 37.8065Z" fill="black" stroke="#00FF0D" stroke-linecap="round" stroke-linejoin="round"/>
<path d="M35.2212 33.9062C34.9188 34.4008 35.5654 33.3427 35.2212 33.9062V33.9062Z" fill="black" stroke="#00FF0D" stroke-linecap="round" stroke-linejoin="round"/>
<path d="M32.4463 31.2827C33.9127 30.8528 34.9259 29.913 35.4886 28.5877C36.0513 27.2624 36.1314 24.1892 32.5177 24.0106C30.1786 23.8949 29.1278 26.6373 29.1322 28.0907C29.136 29.4179 29.6447 31.2636 32.4463 31.2827Z" fill="black" stroke="#00FF0D" stroke-linecap="round" stroke-linejoin="round"/>
<path d="M32.5743 27.5365C32.272 28.031 32.9186 26.973 32.5743 27.5365V27.5365Z" fill="black" stroke="#00FF0D" stroke-linecap="round" stroke-linejoin="round"/>
<path d="M38.9254 31.3381C39.87 31.2415 41.0814 30.4913 41.7319 28.9517C42.3823 27.412 41.3048 23.9996 38.7925 23.938C36.4518 23.8807 35.7398 26.3799 35.6984 27.8321C35.6597 29.1876 35.9795 31.3714 38.9254 31.3381Z" fill="black" stroke="#00FF0D" stroke-linecap="round" stroke-linejoin="round"/>
<path d="M38.8491 27.4637C38.5468 27.9583 39.1934 26.9002 38.8491 27.4637V27.4637Z" fill="black" stroke="#00FF0D" stroke-linecap="round" stroke-linejoin="round"/>
<circle cx="25" cy="25" r="25" fill="#FFE0E0" fill-opacity="0.25"/>
</g>
<defs>
<clipPath id="clip0_916_1785">
<rect width="50" height="50" fill="white"/>
</clipPath>
</defs>
</svg>
