<svg width="50" height="50" viewBox="0 0 50 50" fill="none" xmlns="http://www.w3.org/2000/svg">
<path d="M24.996 2.58205C24.876 2.23005 25.562 2.37605 25.63 2.57405C26.438 3.72605 27.52 4.66205 28.262 5.86405C28.296 5.90605 28.364 5.99205 28.396 6.03605C28.438 6.07805 28.522 6.16405 28.564 6.20605C28.6 6.24405 28.668 6.32005 28.704 6.35805C28.902 6.58405 29.116 6.80005 29.268 7.06205C29.3 7.10405 29.366 7.19005 29.398 7.23405C29.438 7.27805 29.52 7.36405 29.562 7.40805C29.598 7.44605 29.668 7.52205 29.702 7.56005C29.964 7.85205 30.254 8.12405 30.462 8.45805C30.492 8.49805 30.55 8.57805 30.58 8.61805C30.612 8.65605 30.676 8.73005 30.708 8.76605C30.966 9.05805 31.262 9.32605 31.468 9.66205C31.5 9.70405 31.566 9.79005 31.598 9.83405C31.64 9.87605 31.722 9.96405 31.764 10.006C31.8 10.044 31.868 10.12 31.904 10.158C32.102 10.384 32.316 10.6 32.468 10.862C32.5 10.904 32.566 10.99 32.598 11.034C32.638 11.078 32.72 11.164 32.762 11.208C32.798 11.246 32.868 11.322 32.902 11.36C33.164 11.652 33.454 11.924 33.662 12.258C33.692 12.298 33.75 12.378 33.78 12.418C33.812 12.456 33.876 12.53 33.908 12.566C34.166 12.858 34.46 13.126 34.668 13.462C34.7 13.504 34.766 13.59 34.798 13.634C34.84 13.676 34.922 13.764 34.964 13.806C35 13.844 35.068 13.92 35.104 13.958C35.302 14.184 35.516 14.4 35.668 14.662C35.7 14.704 35.766 14.79 35.798 14.834C35.838 14.878 35.92 14.964 35.962 15.008C35.998 15.046 36.068 15.122 36.102 15.16C36.364 15.452 36.654 15.724 36.862 16.058C36.892 16.098 36.95 16.178 36.98 16.218C37.012 16.256 37.076 16.328 37.108 16.366C37.366 16.658 37.66 16.926 37.868 17.26C37.9 17.302 37.964 17.386 37.998 17.43C38.04 17.47 38.128 17.554 38.172 17.596L38.184 17.736C38.044 17.758 37.768 17.806 37.628 17.83C37.29 17.804 36.952 17.774 36.614 17.734C36.302 17.706 35.678 17.648 35.366 17.62L35.224 17.654C34.886 17.616 34.55 17.586 34.212 17.55C33.918 17.306 33.514 17.336 33.17 17.438L33.026 17.466C32.69 17.424 32.352 17.39 32.016 17.352C31.736 17.076 31.324 17.144 30.984 17.24C30.594 17.212 30.204 17.188 29.816 17.158C29.542 16.872 29.124 16.946 28.784 17.04C28.394 17.012 28.004 16.99 27.616 16.964C27.404 16.714 27.054 16.74 26.772 16.828L26.62 16.85C26.28 16.822 25.938 16.802 25.596 16.786C25.492 16.744 25.284 16.656 25.18 16.612C25.208 14.532 25.206 12.452 25.196 10.372C25.288 7.77005 24.878 5.18605 24.996 2.58205Z" fill="#9E60BF"/>
<path d="M12.33 17.664C16.502 12.614 20.738 7.52203 24.996 2.58203C24.878 5.18603 25.288 7.77003 25.196 10.372C25.066 10.392 24.802 10.436 24.672 10.456C24.462 11.868 23.216 12.696 21.988 13.192C20.766 13.718 19.398 14.05 18.426 15.018C17.392 15.864 16.052 16.408 15.204 17.438C14.254 17.474 13.272 17.872 12.33 17.664Z" fill="#8049A1"/>
<path d="M26.62 16.8499L26.772 16.8279L26.792 16.9439C26.75 16.9199 26.664 16.8739 26.62 16.8499Z" fill="#8049A1"/>
<path d="M33.026 17.466L33.17 17.438L33.19 17.536C33.15 17.518 33.066 17.484 33.026 17.466Z" fill="#8049A1"/>
<path d="M35.224 17.6541L35.366 17.6201L35.384 17.7301C35.344 17.7101 35.264 17.6721 35.224 17.6541Z" fill="#8049A1"/>
<path d="M24.672 10.4561C24.802 10.4361 25.066 10.3921 25.196 10.3721C25.206 12.4521 25.208 14.5321 25.18 16.6121L25.022 16.6261C24.658 16.6421 23.928 16.6761 23.564 16.6921C23.532 16.6941 23.468 16.7001 23.436 16.7021C22.744 16.7621 22.054 16.7881 21.366 16.8841C21.334 16.8881 21.268 16.8961 21.236 16.9001C20.612 16.9701 19.988 17.0001 19.366 17.0861C19.334 17.0901 19.268 17.0981 19.234 17.1021C17.888 17.1721 16.552 17.3681 15.204 17.4381C16.052 16.4081 17.392 15.8641 18.426 15.0181C19.398 14.0501 20.766 13.7181 21.988 13.1921C23.216 12.6961 24.462 11.8681 24.672 10.4561Z" fill="#8554A5"/>
<path d="M25.18 16.6121C25.284 16.6561 25.492 16.7441 25.596 16.7861C25.498 16.7781 25.302 16.7601 25.204 16.7521L25.18 16.6121Z" fill="#8554A5"/>
<path d="M26.772 16.8281C27.054 16.7401 27.404 16.7141 27.616 16.9641C27.334 17.0561 27.06 17.0481 26.792 16.9441L26.772 16.8281Z" fill="#8554A5"/>
<path d="M28.784 17.04C29.124 16.946 29.542 16.872 29.816 17.158C29.476 17.254 29.056 17.328 28.784 17.04Z" fill="#8554A5"/>
<path d="M30.984 17.24C31.324 17.144 31.736 17.076 32.016 17.352C31.676 17.456 31.256 17.532 30.984 17.24Z" fill="#8554A5"/>
<path d="M33.17 17.4379C33.514 17.3359 33.918 17.3059 34.212 17.5499C33.88 17.6219 33.51 17.7019 33.19 17.5359L33.17 17.4379Z" fill="#8554A5"/>
<path d="M35.366 17.6201C35.678 17.6481 36.302 17.7061 36.614 17.7341C36.222 17.8741 35.764 17.9501 35.384 17.7301L35.366 17.6201Z" fill="#8554A5"/>
<path d="M37.628 17.8301C37.768 17.8061 38.044 17.7581 38.184 17.7361L38.312 17.7701C38.396 18.1121 37.806 18.0921 37.624 17.9521L37.628 17.8301Z" fill="#8554A5"/>
<path opacity="0.97" d="M23.564 16.692C23.928 16.676 24.658 16.642 25.022 16.626C25.068 16.658 25.158 16.72 25.204 16.752C25.302 16.76 25.498 16.778 25.596 16.786C25.938 16.802 26.28 16.822 26.62 16.85C26.664 16.874 26.75 16.92 26.792 16.944C27.06 17.048 27.334 17.056 27.616 16.964C28.004 16.99 28.394 17.012 28.784 17.04C29.056 17.328 29.476 17.254 29.816 17.158C30.204 17.188 30.594 17.212 30.984 17.24C31.256 17.532 31.676 17.456 32.016 17.352C32.352 17.39 32.69 17.424 33.026 17.466C33.066 17.484 33.15 17.518 33.19 17.536C33.51 17.702 33.88 17.622 34.212 17.55C34.55 17.586 34.886 17.616 35.224 17.654C35.264 17.672 35.344 17.71 35.384 17.73C35.764 17.95 36.222 17.874 36.614 17.734C36.952 17.774 37.29 17.804 37.628 17.83L37.624 17.952C33.424 18.334 29.208 18.53 25 18.81C20.74 18.57 16.478 18.236 12.214 17.974C12.244 17.898 12.3 17.742 12.33 17.664C13.272 17.872 14.254 17.474 15.204 17.438C16.552 17.368 17.888 17.172 19.234 17.102C19.268 17.098 19.334 17.09 19.366 17.086C19.988 17 20.612 16.97 21.236 16.9C21.268 16.896 21.334 16.888 21.366 16.884C22.054 16.788 22.744 16.762 23.436 16.702C23.468 16.7 23.532 16.694 23.564 16.692Z" fill="#5E3B57"/>
<path opacity="0.97" d="M25.022 16.6261L25.18 16.6121L25.204 16.7521C25.158 16.7201 25.068 16.6581 25.022 16.6261Z" fill="#695C58"/>
<path d="M38.172 17.5959C38.206 17.6379 38.276 17.7259 38.312 17.7699L38.184 17.7359L38.172 17.5959Z" fill="#5A5159"/>
<path opacity="0.68" d="M23 19.198C23.168 18.758 24.106 19.09 24.58 19.012L24.614 19.196C24.074 19.198 23.536 19.2 23 19.198Z" fill="#3F9C81"/>
<path d="M24.58 19.012C24.678 19.012 24.872 19.012 24.97 19.012C25.164 20.812 26.15 22.35 26.822 23.992C27.176 24.802 27.582 25.592 28.068 26.332C28.274 26.876 29.016 26.584 29.39 26.328C30.244 26.502 30.098 27.578 30.174 28.24C30.046 27.948 29.928 27.652 29.796 27.364C29.5 27.018 28.822 27.486 28.38 27.446C28.19 27.218 28.004 26.988 27.802 26.774C27.596 26.388 27.398 26 27.202 25.612C26.962 24.994 26.706 24.384 26.438 23.778C26.334 23.446 26.112 23.17 25.834 22.964C25.796 23.258 25.762 23.552 25.734 23.848C25.622 23.432 25.52 23.012 25.358 22.614C24.468 22.572 23.85 23.348 23.15 23.776C23.456 23.108 24.052 22.654 24.622 22.22C25.392 21.744 24.976 20.472 24.86 19.748C24.782 19.562 24.7 19.378 24.614 19.196L24.58 19.012Z" fill="#C1FA63"/>
<path d="M24.97 19.0119C25.384 18.9979 25.814 18.9479 26.216 19.0799L26.248 19.1939C26.296 19.3619 26.342 19.5299 26.388 19.6999C26.234 20.0179 26.472 20.3219 26.566 20.6219C26.974 21.5079 27.266 22.5259 28.058 23.1659C28.838 23.7199 29.428 22.2739 30.05 22.7499C30.158 23.8139 30.282 24.8899 30.174 25.9599C29.91 26.0799 29.628 26.1599 29.39 26.3279C29.016 26.5839 28.274 26.8759 28.068 26.3319C27.582 25.5919 27.176 24.8019 26.822 23.9919C26.15 22.3499 25.164 20.8119 24.97 19.0119Z" fill="#F4F358"/>
<path opacity="0.67" d="M26.216 19.0801C26.584 18.9301 27.368 18.8061 27.568 19.1901C27.238 19.1901 26.578 19.1921 26.248 19.1941L26.216 19.0801Z" fill="#9A3A89"/>
<path d="M19.638 19.436C20.728 19.124 21.876 19.206 23 19.198C23.536 19.2 24.074 19.198 24.614 19.196C24.7 19.378 24.782 19.562 24.86 19.748C24.84 20.576 24.838 21.416 24.622 22.22C24.052 22.654 23.456 23.108 23.15 23.776C22.74 24.562 22.65 25.482 22.548 26.354C22.476 26.884 22.41 27.422 22.352 27.954C22.146 29.188 22.22 30.44 22.168 31.684L22.02 31.692C21.908 31.67 21.688 31.628 21.578 31.606C21.358 30.462 21.34 29.282 21.07 28.148C21.042 28.024 20.988 27.778 20.96 27.654C20.838 26.706 21.024 25.42 20.332 24.676C19.652 24.806 18.916 24.328 18.96 23.624C18.986 23.23 19.01 22.836 19.038 22.442C19.206 21.432 19.5 20.45 19.638 19.436Z" fill="#6CF9E2"/>
<path d="M26.248 19.1939C26.578 19.1919 27.238 19.1899 27.568 19.1899C27.734 19.1959 28.064 19.2079 28.23 19.2119C28.008 19.4699 27.76 19.7119 27.578 20.0019C28.092 21.0919 29.406 20.6779 30.368 20.6079C30.682 21.0199 30.782 21.5399 30.976 22.0099C30.982 22.3579 30.998 23.0539 31.004 23.4019H30.804L30.6 23.3959C30.596 23.2579 30.586 22.9799 30.582 22.8419C30.676 22.2179 30.418 21.6359 29.966 21.2159C29.566 21.3739 29.252 21.6719 28.914 21.9259C28.112 22.3039 27.728 21.5339 27.162 21.2179C26.86 20.7339 26.696 20.1799 26.388 19.6999C26.342 19.5299 26.296 19.3619 26.248 19.1939Z" fill="#FA5BD7"/>
<path d="M28.23 19.2119C30.008 19.1839 31.778 19.4639 33.556 19.4399C33.614 19.4819 33.73 19.5679 33.788 19.6099C33.518 20.6839 33.268 21.7839 32.736 22.7659C31.922 23.1019 31.536 22.3499 30.976 22.0099C30.782 21.5399 30.682 21.0199 30.368 20.6079C29.406 20.6779 28.092 21.0919 27.578 20.0019C27.76 19.7119 28.008 19.4699 28.23 19.2119Z" fill="#F844F2"/>
<path opacity="0.67" d="M16.634 19.5659C16.874 19.2359 17.594 19.3599 17.978 19.4619L17.976 19.5759C17.89 19.5919 17.72 19.6219 17.636 19.6359C17.302 19.6119 16.968 19.5919 16.634 19.5659Z" fill="#993380"/>
<path d="M17.978 19.4621L18.184 19.4041C18.186 20.4841 18.264 21.5761 18.042 22.6421C18.018 21.6201 18.01 20.5981 17.976 19.5761L17.978 19.4621Z" fill="#F6908E"/>
<path d="M18.184 19.4041C18.6 19.3841 19.018 19.3881 19.434 19.4161C19.282 20.1961 19.058 20.9641 18.948 21.7541C18.866 22.2821 18.808 22.8181 18.75 23.3521C18.662 24.0181 18.596 24.6901 18.534 25.3601C18.444 26.1181 18.404 26.8801 18.408 27.6441C18.038 28.3581 17.828 29.1421 17.44 29.8461C17.416 29.4321 17.388 29.0181 17.386 28.6041C17.504 28.0741 17.58 27.5421 17.602 27.0021C17.7 26.4581 17.79 25.9161 17.782 25.3641C17.792 25.2821 17.814 25.1201 17.824 25.0381C17.95 24.4161 18.01 23.7881 17.97 23.1561C17.988 23.0281 18.024 22.7721 18.042 22.6421C18.264 21.5761 18.186 20.4841 18.184 19.4041Z" fill="#F1EF68"/>
<path d="M19.434 19.416L19.638 19.436C19.5 20.45 19.206 21.432 19.038 22.442C19.016 22.27 18.972 21.926 18.948 21.754C19.058 20.964 19.282 20.196 19.434 19.416Z" fill="#88F88E"/>
<path d="M12.008 19.8181C12.84 19.9481 13.626 19.6961 14.432 19.6021C14.392 19.9941 14.304 20.3821 14.17 20.7521C13.954 21.2921 13.78 21.8621 13.838 22.4501C13.258 23.3621 13.138 24.8301 12.018 25.2501C12.006 24.4981 12.006 23.7501 11.996 23.0001C11.99 21.9401 11.994 20.8781 12.008 19.8181Z" fill="#F933E9"/>
<path d="M14.432 19.6019C15.03 19.5819 15.632 19.5879 16.23 19.6119C15.79 20.0639 15.47 20.6079 15.186 21.1679C14.674 21.8839 14.316 22.7459 14.422 23.6439C14.248 24.6279 14.08 25.6179 13.96 26.6099L13.81 26.5999C13.826 25.7259 13.92 24.8599 13.992 23.9899C13.862 24.0059 13.606 24.0399 13.478 24.0559C13.12 24.7379 12.708 25.4479 12.012 25.8339C12.014 25.6879 12.018 25.3959 12.018 25.2499C13.138 24.8299 13.258 23.3619 13.838 22.4499C14.126 21.9279 14.248 21.3459 14.17 20.7519C14.304 20.3819 14.392 19.9939 14.432 19.6019Z" fill="#F8A468"/>
<path d="M16.23 19.6119C16.332 19.6019 16.534 19.5779 16.634 19.5659C16.968 19.5919 17.302 19.6119 17.636 19.6359C17.228 21.8119 16.54 23.9599 16.59 26.1979C16.538 27.8039 16.672 29.4059 16.81 31.0039C15.718 30.9539 14.638 30.7559 13.566 30.5479C13.598 30.4119 13.664 30.1399 13.696 30.0039C13.87 29.5339 13.894 29.0699 13.768 28.6119C13.792 28.4619 13.844 28.1579 13.87 28.0079C14.088 27.5339 14.118 27.0679 13.96 26.6099C14.08 25.6179 14.248 24.6279 14.422 23.6439C14.658 22.8119 15.086 22.0319 15.186 21.1679C15.47 20.6079 15.79 20.0639 16.23 19.6119Z" fill="#F94BF4"/>
<path d="M17.636 19.6359C17.72 19.6219 17.89 19.5919 17.976 19.5759C18.01 20.5979 18.018 21.6199 18.042 22.6419C18.024 22.7719 17.988 23.0279 17.97 23.1559C17.848 23.7759 17.794 24.4079 17.824 25.0379C17.814 25.1199 17.792 25.2819 17.782 25.3639C17.696 25.9039 17.624 26.4519 17.602 27.0019C17.504 27.5299 17.42 28.0659 17.386 28.6039C17.182 29.3859 17.046 30.1819 16.98 30.9879L16.81 31.0039C16.672 29.4059 16.538 27.8039 16.59 26.1979C16.54 23.9599 17.228 21.8119 17.636 19.6359Z" fill="#F863F0"/>
<path d="M33.788 19.61L33.99 19.594C34.08 19.776 34.164 19.962 34.24 20.152C34.232 22.24 34.738 24.304 34.6 26.4C34.698 27.394 34.364 28.484 34.81 29.424C34.814 29.76 34.824 30.436 34.828 30.772C33.846 31.15 32.654 31.012 31.606 31.21C31.468 28.61 31.538 25.96 31.004 23.402C30.998 23.054 30.982 22.358 30.976 22.01C31.536 22.35 31.922 23.102 32.736 22.766C33.268 21.784 33.518 20.684 33.788 19.61Z" fill="#F856F6"/>
<path d="M33.99 19.5941C34.32 19.5881 34.652 19.5881 34.984 19.6141C35.122 20.5961 35.286 21.5741 35.472 22.5461C35.454 23.1141 35.308 23.7101 35.55 24.2461C35.576 24.3241 35.626 24.4781 35.65 24.5541C35.672 25.1061 35.406 25.7601 35.804 26.2081C35.814 26.5941 35.818 26.9781 35.84 27.3641C35.806 28.0961 35.514 28.7741 35.254 29.4481C35.15 27.9521 35.328 26.4221 35.06 24.9421C35.04 24.8621 35 24.6981 34.978 24.6161C35.228 24.0321 35.18 23.5541 34.834 23.1801C34.72 22.1601 34.612 21.1161 34.24 20.1521C34.164 19.9621 34.08 19.7761 33.99 19.5941Z" fill="#EBEE7A"/>
<path d="M34.984 19.614C35.678 19.754 36.644 19.304 37.224 19.866C36.712 20.394 36.16 20.882 35.68 21.44C35.874 23.194 35.81 25.172 36.956 26.63C37.656 27.522 37.778 28.696 38.366 29.648C38.378 29.904 38.39 30.16 38.398 30.416L38.212 30.372C38.156 30.286 38.046 30.112 37.99 30.026C37.98 29.43 37.658 28.92 37.428 28.39C37.358 28.196 37.28 28.006 37.196 27.818C37.056 27.274 36.41 27.288 36.086 26.93C35.986 26.69 35.904 26.446 35.804 26.208C35.774 25.652 35.868 25.078 35.65 24.554C35.626 24.478 35.576 24.324 35.55 24.246C35.548 23.676 35.636 23.1 35.472 22.546C35.286 21.574 35.122 20.596 34.984 19.614Z" fill="#6EF5DE"/>
<path d="M24.86 19.748C24.976 20.472 25.392 21.744 24.622 22.22C24.838 21.416 24.84 20.576 24.86 19.748Z" fill="#7BF894"/>
<path d="M26.566 20.622C26.472 20.322 26.234 20.018 26.388 19.7C26.696 20.18 26.86 20.734 27.162 21.218C27.376 21.564 27.804 22.258 28.018 22.606C29.076 23.2 29.248 21.592 30.138 21.83C30.298 22.162 30.43 22.5059 30.582 22.8419C30.586 22.9799 30.596 23.258 30.6 23.396C30.59 23.558 30.568 23.88 30.558 24.042C30.456 23.574 30.448 23.06 30.05 22.75C29.428 22.274 28.838 23.72 28.058 23.166C27.266 22.526 26.974 21.508 26.566 20.622Z" fill="#FAB75F"/>
<path d="M37.224 19.8659C37.392 19.8399 37.506 19.9639 37.566 20.2379C37.942 21.6199 37.954 23.0699 38.35 24.4499C38.382 24.8319 38.396 25.2159 38.406 25.5999C38.392 26.9479 38.424 28.2979 38.366 29.6479C37.778 28.6959 37.656 27.5219 36.956 26.6299C35.81 25.1719 35.874 23.1939 35.68 21.4399C36.16 20.8819 36.712 20.3939 37.224 19.8659Z" fill="#67F6F4"/>
<path d="M37.566 20.2379C37.432 19.7419 37.824 19.7579 38.188 19.8019C38.2 20.5519 38.256 21.2999 38.354 22.0439C38.366 22.3819 38.392 23.0579 38.404 23.3959C38.392 23.7459 38.37 24.0979 38.35 24.4499C37.954 23.0699 37.942 21.6199 37.566 20.2379Z" fill="#DCED7C"/>
<path d="M38.188 19.802L38.398 19.8L38.402 20.0021C38.396 20.6821 38.396 21.3641 38.354 22.0441C38.256 21.3001 38.2 20.552 38.188 19.802Z" fill="#F681C0"/>
<path opacity="0.85" d="M38.402 20.002L38.596 20C38.602 21.134 38.628 22.268 38.594 23.402L38.404 23.396C38.392 23.058 38.366 22.382 38.354 22.044C38.396 21.364 38.396 20.682 38.402 20.002Z" fill="#C65BBC"/>
<path d="M34.24 20.1521C34.612 21.1161 34.72 22.1601 34.834 23.1801C34.56 23.7721 34.608 24.2521 34.978 24.6161C35 24.6981 35.04 24.8621 35.06 24.9421C35.002 26.4361 35 27.9301 34.95 29.4221L34.81 29.4241C34.364 28.4841 34.698 27.3941 34.6 26.4001C34.738 24.3041 34.232 22.2401 34.24 20.1521Z" fill="#F86FE5"/>
<path d="M13.838 22.45C13.78 21.862 13.954 21.292 14.17 20.752C14.248 21.346 14.126 21.928 13.838 22.45Z" fill="#FB4D9E"/>
<path d="M14.422 23.644C14.316 22.746 14.674 21.884 15.186 21.168C15.086 22.032 14.658 22.812 14.422 23.644Z" fill="#FB52A0"/>
<path d="M27.162 21.2181C27.728 21.5341 28.112 22.3041 28.914 21.9261C29.252 21.6721 29.566 21.3741 29.966 21.2161C30.418 21.6361 30.676 22.2181 30.582 22.8421C30.43 22.5061 30.298 22.1621 30.138 21.8301C29.248 21.5921 29.076 23.2001 28.018 22.6061C27.804 22.2581 27.376 21.5641 27.162 21.2181Z" fill="#FA6A95"/>
<path d="M18.75 23.3519C18.808 22.8179 18.866 22.2819 18.948 21.7539C18.972 21.9259 19.016 22.2699 19.038 22.4419C19.01 22.8359 18.986 23.2299 18.96 23.6239L18.762 23.5579L18.75 23.3519Z" fill="#A6F87B"/>
<path d="M23.15 23.7759C23.85 23.3479 24.468 22.5719 25.358 22.6139C25.52 23.0119 25.622 23.4319 25.734 23.8479C25.79 24.1819 25.84 24.5199 25.926 24.8499C25.986 25.1159 26.052 25.3819 26.124 25.6459C26.428 27.7159 26.892 29.7579 27.238 31.8179C27.128 31.8539 26.91 31.9259 26.8 31.9599C26.46 29.7159 26.022 27.4859 25.51 25.2739C25.362 24.8039 25.14 24.3019 24.6 24.2019C23.11 24.6639 23.16 26.5139 22.932 27.7839C22.664 28.2639 22.634 28.7379 22.838 29.2119C22.904 30.0679 22.612 31.0079 22.98 31.8239C22.88 31.8139 22.68 31.7919 22.58 31.7819L22.56 31.6279C22.58 29.8719 22.668 28.1099 22.548 26.3539C22.65 25.4819 22.74 24.5619 23.15 23.7759Z" fill="#EAEF6D"/>
<path d="M35.472 22.5459C35.636 23.0999 35.548 23.6759 35.55 24.2459C35.308 23.7099 35.454 23.1139 35.472 22.5459Z" fill="#A2F59D"/>
<path d="M30.05 22.75C30.448 23.06 30.456 23.574 30.558 24.042C30.57 24.516 30.642 24.978 30.772 25.43L30.808 25.582C30.802 26.34 30.852 27.094 30.958 27.846C30.974 27.98 31.006 28.248 31.022 28.382C30.778 28.954 30.824 29.434 31.158 29.822C31.198 30.286 31.278 30.744 31.394 31.196C31.534 31.616 30.842 31.32 30.622 31.37C30.536 30.582 30.42 29.792 30.186 29.036C30.184 28.77 30.18 28.504 30.174 28.24C30.098 27.578 30.244 26.502 29.39 26.328C29.628 26.16 29.91 26.08 30.174 25.96C30.282 24.89 30.158 23.814 30.05 22.75Z" fill="#ECEC6F"/>
<path opacity="0.04" d="M11.804 23.002L11.996 23C12.006 23.75 12.006 24.498 12.018 25.25C12.018 25.396 12.014 25.688 12.012 25.834C12 26.674 11.996 27.516 12.016 28.36C12.01 28.966 12.002 29.576 12 30.186L11.806 30.202C11.792 27.802 11.792 25.402 11.804 23.002Z" fill="#070603"/>
<path d="M25.834 22.9641C26.112 23.1701 26.334 23.4461 26.438 23.7781C25.706 23.2621 25.946 24.2681 25.926 24.8501C25.84 24.5201 25.79 24.1821 25.734 23.8481C25.762 23.5521 25.796 23.2581 25.834 22.9641Z" fill="#A3F968"/>
<path d="M17.824 25.038C17.794 24.408 17.848 23.776 17.97 23.156C18.01 23.788 17.95 24.416 17.824 25.038Z" fill="#F7999D"/>
<path d="M34.834 23.1799C35.18 23.5539 35.228 24.0319 34.978 24.6159C34.608 24.2519 34.56 23.7719 34.834 23.1799Z" fill="#F692AE"/>
<path d="M18.534 25.3601C18.596 24.6901 18.662 24.0181 18.75 23.3521L18.762 23.5581C18.77 23.9141 18.786 24.6261 18.794 24.9821C18.834 25.3121 18.726 25.7201 19.016 25.9641C19.388 25.8541 19.734 25.5341 20.142 25.6341C20.312 25.8221 20.462 26.0241 20.618 26.2241C20.704 26.6141 20.77 27.0101 20.81 27.4081C20.572 27.0201 20.416 26.5881 20.164 26.2081C19.714 26.1881 19.284 26.3561 18.838 26.3881C18.538 26.1321 18.6 25.7101 18.534 25.3601Z" fill="#BDFA65"/>
<path d="M30.6 23.396L30.804 23.402C30.798 24.076 30.79 24.754 30.772 25.43C30.642 24.978 30.57 24.516 30.558 24.042C30.568 23.88 30.59 23.558 30.6 23.396Z" fill="#F89986"/>
<path d="M30.804 23.4021H31.004C31.538 25.9601 31.468 28.6101 31.606 31.2101L31.394 31.1961C31.278 30.7441 31.198 30.2861 31.158 29.8221C31.438 29.2241 31.394 28.7441 31.022 28.3821C31.006 28.2481 30.974 27.9801 30.958 27.8461C31.028 27.0821 30.978 26.3261 30.808 25.5821L30.772 25.4301C30.79 24.7541 30.798 24.0761 30.804 23.4021Z" fill="#F86EE4"/>
<path opacity="0.88" d="M38.404 23.396L38.594 23.402C38.606 24.132 38.62 24.868 38.592 25.6H38.406C38.396 25.216 38.382 24.832 38.35 24.45C38.37 24.098 38.392 23.746 38.404 23.396Z" fill="#BDC26D"/>
<path d="M18.762 23.5581L18.9601 23.6241C18.9161 24.3281 19.6521 24.8061 20.3321 24.6761C21.0241 25.4201 20.8381 26.7061 20.9601 27.6541C20.9221 27.5941 20.8481 27.4701 20.8101 27.4081C20.7701 27.0101 20.704 26.6141 20.618 26.2241C20.654 25.7381 20.304 25.0301 19.734 25.3181C19.348 25.4861 18.982 25.3561 18.794 24.9821C18.786 24.6261 18.77 23.9141 18.762 23.5581Z" fill="#79F8AA"/>
<path d="M25.926 24.8499C25.946 24.2679 25.706 23.2619 26.438 23.7779C26.706 24.3839 26.962 24.9939 27.202 25.6119C26.892 25.3819 26.63 25.0439 26.23 24.9799C26.202 25.1459 26.15 25.4799 26.124 25.6459C26.052 25.3819 25.986 25.1159 25.926 24.8499Z" fill="#8AF7B0"/>
<path d="M13.478 24.056C13.606 24.04 13.862 24.006 13.992 23.99C13.92 24.86 13.826 25.726 13.81 26.6C13.788 26.686 13.744 26.858 13.722 26.942C13.624 27.492 13.62 28.06 13.62 28.618C13.59 28.764 13.532 29.054 13.502 29.198C13.458 29.518 13.368 30.158 13.324 30.478C12.572 29.974 12.938 28.774 12.016 28.36C11.996 27.516 12 26.674 12.012 25.834C12.708 25.448 13.12 24.738 13.478 24.056Z" fill="#F8EC56"/>
<path d="M22.932 27.7839C23.16 26.5139 23.11 24.6639 24.6 24.2019C25.14 24.3019 25.362 24.8039 25.51 25.2739C26.022 27.4859 26.46 29.7159 26.8 31.9599C26.656 31.9699 26.364 31.9919 26.218 32.0019C26.1 30.2519 25.768 28.5239 25.364 26.8219C25.254 26.4079 25.024 25.9399 24.6 25.7879C23.538 26.3179 23.528 27.7459 23.35 28.7519C23.24 29.7059 23.012 30.7339 23.342 31.6699L23.404 31.8679C23.298 31.8579 23.086 31.8359 22.98 31.8239C22.612 31.0079 22.904 30.0679 22.838 29.2119C23.154 28.7399 23.186 28.2639 22.932 27.7839Z" fill="#F58EDB"/>
<path d="M35.65 24.554C35.868 25.078 35.774 25.652 35.804 26.208C35.406 25.76 35.672 25.106 35.65 24.554Z" fill="#9CF79A"/>
<path d="M18.794 24.9819C18.982 25.3559 19.348 25.4859 19.734 25.3179C20.304 25.0299 20.654 25.7379 20.618 26.2239C20.462 26.0239 20.312 25.8219 20.142 25.6339C19.734 25.5339 19.388 25.8539 19.016 25.9639C18.726 25.7199 18.834 25.3119 18.794 24.9819Z" fill="#8BF974"/>
<path d="M26.23 24.98C26.63 25.044 26.892 25.382 27.202 25.612C27.398 26 27.596 26.388 27.802 26.774C27.928 27.608 28.62 28.478 29.592 28.22C29.966 28.254 29.996 28.774 30.186 29.036C30.42 29.792 30.536 30.582 30.622 31.37C29.938 31.45 29.258 31.574 28.578 31.672C28.132 31.72 27.684 31.768 27.238 31.818C26.892 29.758 26.428 27.716 26.124 25.646C26.15 25.48 26.202 25.146 26.23 24.98Z" fill="#73F8E5"/>
<path d="M35.06 24.9419C35.328 26.4219 35.15 27.9519 35.254 29.4479C35.196 29.7479 35.082 30.3479 35.026 30.6479C35.046 30.2379 35.036 29.8239 34.95 29.4219C35 27.9299 35.002 26.4359 35.06 24.9419Z" fill="#F8B280"/>
<path d="M17.602 27.002C17.624 26.452 17.696 25.904 17.782 25.364C17.79 25.916 17.7 26.458 17.602 27.002Z" fill="#F79898"/>
<path d="M30.808 25.582C30.978 26.326 31.028 27.082 30.958 27.846C30.852 27.094 30.802 26.34 30.808 25.582Z" fill="#F79898"/>
<path d="M18.408 27.6441C18.404 26.8801 18.444 26.1181 18.534 25.3601C18.6 25.7101 18.538 26.1321 18.838 26.3881C19.284 26.3561 19.714 26.1881 20.164 26.2081C20.416 26.5881 20.572 27.0201 20.81 27.4081C20.848 27.4701 20.922 27.5941 20.96 27.6541C20.988 27.7781 21.042 28.0241 21.07 28.1481C21.04 28.5221 20.982 29.2701 20.952 29.6441C20.578 28.8601 20.678 27.8061 19.952 27.2281C19.364 27.0441 18.998 27.9261 18.408 27.6441Z" fill="#DDFA5D"/>
<path opacity="0.9" d="M38.406 25.6001H38.592C38.598 27.1961 38.63 28.7961 38.59 30.3921L38.398 30.4161C38.39 30.1601 38.378 29.9041 38.366 29.6481C38.424 28.2981 38.392 26.9481 38.406 25.6001Z" fill="#4CD8D2"/>
<path d="M23.35 28.7521C23.528 27.7461 23.538 26.3181 24.6 25.7881C25.024 25.9401 25.254 26.4081 25.364 26.8221C25.768 28.5241 26.1 30.2521 26.218 32.0021C25.946 32.0061 25.674 32.0081 25.402 32.0041C25.334 31.1341 25.542 30.2201 25.268 29.3741C25.144 28.9021 25.118 27.9201 24.438 28.0201C23.616 29.1041 23.928 30.6481 23.604 31.9081L23.404 31.8681L23.342 31.6701C23.374 30.6961 23.408 29.7241 23.35 28.7521Z" fill="#EFEF64"/>
<path d="M35.804 26.208C35.904 26.446 35.986 26.69 36.086 26.93C36.41 27.288 37.056 27.274 37.196 27.818C36.782 27.796 36.366 27.768 35.97 27.64C35.938 27.57 35.874 27.432 35.84 27.364C35.818 26.978 35.814 26.594 35.804 26.208Z" fill="#79F8AE"/>
<path d="M22.352 27.954C22.41 27.422 22.476 26.884 22.548 26.354C22.668 28.11 22.58 29.872 22.56 31.628C22.338 30.414 22.416 29.18 22.352 27.954Z" fill="#C8F873"/>
<path d="M13.81 26.6001L13.96 26.6101C14.118 27.0681 14.088 27.5341 13.87 28.0081C13.792 27.6561 13.738 27.3001 13.722 26.9421C13.744 26.8581 13.788 26.6861 13.81 26.6001Z" fill="#F974A8"/>
<path d="M27.802 26.7739C28.004 26.9879 28.19 27.2179 28.38 27.4459C28.686 28.0999 29.334 27.4759 29.796 27.3639C29.928 27.6519 30.046 27.9479 30.174 28.2399C30.18 28.5039 30.184 28.7699 30.186 29.0359C29.996 28.7739 29.966 28.2539 29.592 28.2199C28.62 28.4779 27.928 27.6079 27.802 26.7739Z" fill="#7CF8AE"/>
<path d="M13.62 28.6179C13.62 28.0599 13.624 27.4919 13.722 26.9419C13.738 27.2999 13.792 27.6559 13.87 28.0079C13.844 28.1579 13.792 28.4619 13.768 28.6119L13.62 28.6179Z" fill="#F9BA73"/>
<path d="M17.386 28.604C17.42 28.066 17.504 27.53 17.602 27.002C17.58 27.542 17.504 28.074 17.386 28.604Z" fill="#F88E99"/>
<path d="M18.408 27.6439C18.998 27.9259 19.364 27.0439 19.952 27.2279C20.678 27.8059 20.578 28.8599 20.952 29.6439C21.098 30.2179 21.61 31.3639 20.82 31.4339C20.726 31.4219 20.538 31.3999 20.444 31.3879C20.29 30.8299 20.082 30.2859 19.78 29.7899C18.722 29.5979 18.718 31.3459 17.606 31.0199C17.494 31.0139 17.274 30.9979 17.162 30.9899C17.204 30.5979 17.294 30.2119 17.44 29.8459C17.828 29.1419 18.038 28.3579 18.408 27.6439Z" fill="#F7F450"/>
<path d="M28.38 27.4461C28.822 27.4861 29.5 27.0181 29.796 27.3641C29.334 27.4761 28.686 28.1001 28.38 27.4461Z" fill="#93F972"/>
<path d="M35.84 27.364C35.874 27.432 35.938 27.57 35.97 27.64C35.976 27.736 35.988 27.93 35.994 28.028C35.828 28.882 36.604 28.772 37.158 28.612C37.444 29.078 37.692 29.566 37.99 30.026C38.046 30.112 38.156 30.286 38.212 30.372C37.22 30.73 36.026 30.644 34.968 30.794L35.026 30.648C35.082 30.348 35.196 29.748 35.254 29.448C35.514 28.774 35.806 28.096 35.84 27.364Z" fill="#E5F457"/>
<path d="M35.97 27.6399C36.366 27.7679 36.782 27.7959 37.196 27.8179C37.28 28.0059 37.358 28.1959 37.428 28.3899C37.032 27.9859 36.486 28.1499 35.994 28.0279C35.988 27.9299 35.976 27.7359 35.97 27.6399Z" fill="#82F97B"/>
<path d="M22.838 29.2119C22.634 28.7379 22.664 28.2639 22.932 27.7839C23.186 28.2639 23.154 28.7399 22.838 29.2119Z" fill="#F4AAAA"/>
<path d="M22.168 31.6841C22.22 30.4401 22.146 29.1881 22.352 27.9541C22.416 29.1801 22.338 30.4141 22.56 31.6281L22.58 31.7821C22.478 31.7581 22.272 31.7081 22.168 31.6841Z" fill="#83F3BB"/>
<path d="M24.438 28.02C25.118 27.92 25.144 28.902 25.268 29.374C25.21 29.32 25.092 29.212 25.034 29.156C24.974 28.464 24.172 28.452 24.182 29.18C24.028 30.1 23.796 31.118 24.18 32.004C23.986 31.984 23.794 31.952 23.604 31.908C23.928 30.648 23.616 29.104 24.438 28.02Z" fill="#ACF666"/>
<path d="M35.994 28.0281C36.486 28.1501 37.032 27.9861 37.428 28.3901C37.658 28.9201 37.98 29.4301 37.99 30.0261C37.692 29.5661 37.444 29.0781 37.158 28.6121C36.604 28.7721 35.828 28.8821 35.994 28.0281Z" fill="#B6F965"/>
<path opacity="0.97" d="M21.07 28.1479C21.34 29.2819 21.358 30.4619 21.578 31.6059C21.368 31.5259 20.712 31.8019 20.82 31.4339C21.61 31.3639 21.098 30.2179 20.952 29.6439C20.982 29.2699 21.04 28.5219 21.07 28.1479Z" fill="#A0EF6D"/>
<path opacity="0.98" d="M12.016 28.3601C12.938 28.7741 12.572 29.9741 13.324 30.4781L13.436 30.5801C13 30.4761 12.162 30.5841 12 30.1861C12.002 29.5761 12.01 28.9661 12.016 28.3601Z" fill="#D8F44A"/>
<path d="M31.022 28.3821C31.394 28.7441 31.438 29.2241 31.158 29.8221C30.824 29.4341 30.778 28.9541 31.022 28.3821Z" fill="#F7989D"/>
<path d="M13.62 28.6181L13.768 28.6121C13.894 29.0701 13.87 29.5341 13.696 30.0041C13.622 29.7381 13.558 29.4681 13.502 29.1981C13.532 29.0541 13.59 28.7641 13.62 28.6181Z" fill="#F874AD"/>
<path d="M16.98 30.988C17.046 30.182 17.182 29.386 17.386 28.604C17.388 29.018 17.416 29.432 17.44 29.846C17.294 30.212 17.204 30.598 17.162 30.99L16.98 30.988Z" fill="#F9808B"/>
<path d="M24.182 29.18C24.172 28.452 24.974 28.464 25.034 29.156C24.752 29.03 24.456 29.032 24.182 29.18Z" fill="#81F89A"/>
<path d="M23.342 31.67C23.012 30.734 23.24 29.706 23.35 28.752C23.408 29.724 23.374 30.696 23.342 31.67Z" fill="#F7BD82"/>
<path d="M24.182 29.1799C24.456 29.0319 24.752 29.0299 25.034 29.1559C25.092 29.2119 25.21 29.3199 25.268 29.3739C25.226 30.2499 25.204 31.1279 25.196 32.0039C24.858 32.0099 24.518 32.0199 24.18 32.0039C23.796 31.1179 24.028 30.0999 24.182 29.1799Z" fill="#75F8BE"/>
<path d="M13.324 30.478C13.368 30.158 13.458 29.518 13.502 29.198C13.558 29.468 13.622 29.738 13.696 30.004C13.664 30.14 13.598 30.412 13.566 30.548L13.436 30.58L13.324 30.478Z" fill="#F7C368"/>
<path d="M25.268 29.374C25.542 30.22 25.334 31.134 25.402 32.004H25.196C25.204 31.128 25.226 30.25 25.268 29.374Z" fill="#9DF96D"/>
<path d="M34.81 29.4241L34.95 29.4221C35.036 29.8241 35.046 30.2381 35.026 30.6481L34.968 30.7941L34.828 30.7721C34.824 30.4361 34.814 29.7601 34.81 29.4241Z" fill="#F96DAE"/>
<path d="M17.606 31.0199C18.718 31.3459 18.722 29.5979 19.78 29.7899C20.082 30.2859 20.29 30.8299 20.444 31.3879C20.336 31.3759 20.12 31.3519 20.012 31.3399L19.994 31.2019C20.042 30.2839 19.01 30.5859 18.756 31.1799C18.468 31.1399 17.894 31.0599 17.606 31.0199Z" fill="#F7D442"/>
<path d="M18.756 31.1799C19.01 30.5859 20.042 30.2839 19.994 31.2019C19.762 30.9879 19.394 30.9119 19.154 31.1599C19.054 31.1659 18.856 31.1739 18.756 31.1799Z" fill="#FCA642"/>
<path opacity="0.9" d="M19.154 31.1599C19.394 30.9119 19.762 30.9879 19.994 31.2019L20.012 31.3399C19.77 31.5079 19.22 31.5219 19.154 31.1599Z" fill="#DB6166"/>
<path d="M22.02 31.6921L22.168 31.6841C22.272 31.7081 22.478 31.7581 22.58 31.7821C22.68 31.7921 22.88 31.8141 22.98 31.8241C23.086 31.8361 23.298 31.8581 23.404 31.8681L23.604 31.9081C23.794 31.9521 23.986 31.9841 24.18 32.0041C24.518 32.0201 24.858 32.0101 25.196 32.0041H25.402C25.674 32.0081 25.946 32.0061 26.218 32.0021C26.364 31.9921 26.656 31.9701 26.8 31.9601C26.91 31.9261 27.128 31.8541 27.238 31.8181C27.684 31.7681 28.132 31.7201 28.578 31.6721C29.226 31.6961 29.878 31.7861 30.458 32.0841C29.91 32.5141 29.19 32.6081 28.526 32.7081C26.554 32.8421 24.558 33.2041 22.592 32.8141C21.742 32.6801 20.796 32.7161 20.142 32.0721C20.646 31.6001 21.408 31.9101 22.02 31.6921Z" fill="#807697"/>
<path d="M17.966 32.2419C18.674 32.1159 19.444 31.8419 20.142 32.0719C20.796 32.7159 21.742 32.6799 22.592 32.8139C24.558 33.2039 26.554 32.8419 28.526 32.7079C29.19 32.6079 29.91 32.5139 30.458 32.0839C32.008 31.9719 33.616 32.4019 35.196 32.4159L35.192 32.5899C32.206 32.9459 29.234 33.4099 26.264 33.8779C24.144 34.4339 21.94 34.1979 19.794 33.9839L19.828 34.1639C20.91 34.2119 21.972 34.4639 23 34.7999C20.896 34.6339 18.812 34.2659 16.76 33.7899C17.126 33.0879 17.932 33.1919 18.588 33.0119C18.38 32.7539 18.168 32.5019 17.966 32.2419Z" fill="#83609E"/>
<path opacity="0.98" d="M12.204 32.8199C14.132 32.7559 16.066 32.3139 17.966 32.2419C18.168 32.5019 18.38 32.7539 18.588 33.0119C17.932 33.1919 17.126 33.0879 16.76 33.7899C16.01 33.8259 15.292 33.5839 14.566 33.4399C13.844 33.3399 13.118 33.2699 12.394 33.2019L12.206 33.1799C12.206 33.0899 12.204 32.9099 12.204 32.8199Z" fill="#7F5097"/>
<path d="M26.264 33.878C29.234 33.41 32.206 32.946 35.192 32.59C36.268 32.518 37.326 32.714 38.39 32.826C38.346 32.918 38.258 33.1 38.214 33.192C33.87 33.658 29.612 34.882 25.25 35.176C24.518 34.944 23.764 34.834 23 34.8C21.972 34.464 20.91 34.212 19.828 34.164L19.794 33.984C21.94 34.198 24.144 34.434 26.264 33.878Z" fill="#9464B5"/>
<path d="M12.394 33.2019C13.118 33.2699 13.844 33.3399 14.566 33.4399C14.536 33.5239 14.48 33.6899 14.452 33.7739C17.732 34.8519 21.116 35.6539 24.55 36.0499C25.02 36.3599 25.09 36.9099 25.172 37.4379C25.23 41.1659 25.194 44.8939 25.196 48.6239C22.932 46.1939 20.852 43.5239 18.74 40.9399C18.71 40.8999 18.65 40.8199 18.62 40.7819C18.588 40.7439 18.524 40.6719 18.492 40.6339C18.234 40.3439 17.944 40.0739 17.738 39.7419C17.708 39.7019 17.65 39.6199 17.62 39.5799C17.588 39.5439 17.524 39.4699 17.49 39.4339C16.798 38.7179 16.18 37.9339 15.562 37.1579C15.536 37.1239 15.486 37.0559 15.462 37.0219C14.488 35.7139 13.192 34.6219 12.394 33.2019Z" fill="#4A353E"/>
<path d="M25.25 35.1759C29.612 34.8819 33.87 33.6579 38.214 33.1919C37.336 34.3899 36.37 35.5559 35.376 36.6499C35.344 36.6819 35.28 36.7439 35.248 36.7739C35.082 37.0099 34.894 37.2279 34.702 37.4419C34.668 37.4799 34.598 37.5579 34.562 37.5959C34.518 37.6419 34.428 37.7359 34.384 37.7819C34.338 37.8279 34.246 37.9179 34.202 37.9639C34.168 38.0079 34.102 38.0959 34.07 38.1399C33.978 38.2659 33.794 38.5179 33.702 38.6439C33.666 38.6819 33.598 38.7599 33.564 38.7979C33.52 38.8439 33.43 38.9359 33.384 38.9819C33.338 39.0279 33.246 39.1179 33.202 39.1639C33.168 39.2079 33.102 39.2959 33.07 39.3399C32.978 39.4659 32.794 39.7179 32.702 39.8439C32.666 39.8819 32.598 39.9599 32.564 39.9999C32.518 40.0459 32.428 40.1399 32.382 40.1859C32.332 40.2359 32.236 40.3319 32.188 40.3819C32.14 40.4279 32.048 40.5219 32 40.5679C31.962 40.6179 31.886 40.7199 31.848 40.7699L31.72 41.0139C31.682 41.0599 31.604 41.1499 31.566 41.1959C31.52 41.2439 31.428 41.3399 31.382 41.3859C31.334 41.4359 31.236 41.5319 31.188 41.5819C31.14 41.6279 31.048 41.7219 31 41.7679C30.962 41.8179 30.886 41.9199 30.848 41.9699L30.72 42.2139C30.682 42.2579 30.606 42.3479 30.568 42.3919C30.526 42.4359 30.44 42.5239 30.398 42.5679C30.366 42.6099 30.3 42.6959 30.268 42.7399C30.116 42.9999 29.902 43.2159 29.704 43.4419C29.668 43.4799 29.6 43.5559 29.564 43.5939C29.522 43.6359 29.44 43.7239 29.398 43.7659C29.366 43.8099 29.3 43.8959 29.268 43.9399C29.116 44.1999 28.902 44.4159 28.704 44.6419C28.668 44.6799 28.6 44.7559 28.564 44.7939C28.522 44.8359 28.44 44.9239 28.398 44.9659C28.366 45.0099 28.3 45.0959 28.268 45.1399C28.116 45.3999 27.9 45.6159 27.704 45.8419C27.668 45.8799 27.598 45.9579 27.562 45.9959C27.518 46.0419 27.428 46.1359 27.384 46.1819C27.338 46.2279 27.246 46.3179 27.202 46.3639C27.168 46.4079 27.102 46.4959 27.07 46.5399C26.978 46.6659 26.794 46.9179 26.702 47.0439C26.666 47.0819 26.598 47.1599 26.564 47.1979C26.52 47.2439 26.43 47.3359 26.384 47.3819C26.338 47.4279 26.246 47.5179 26.2 47.5639C26.168 47.6079 26.102 47.6959 26.07 47.7399C25.978 47.8619 25.796 48.1079 25.704 48.2319C25.672 48.2719 25.61 48.3539 25.58 48.3939C25.082 44.0739 25.688 39.6859 25.264 35.3539L25.25 35.1759Z" fill="#7F4D9E"/>
<path d="M14.566 33.4399C15.292 33.5839 16.01 33.8259 16.76 33.7899C18.812 34.2659 20.896 34.6339 23 34.7999C23.72 35.0959 24.478 35.1739 25.25 35.1759L25.264 35.3539C25.234 36.0459 25.194 36.7439 25.172 37.4379C25.09 36.9099 25.02 36.3599 24.55 36.0499C21.116 35.6539 17.732 34.8519 14.452 33.7739C14.48 33.6899 14.536 33.5239 14.566 33.4399Z" fill="#503E44"/>
<path d="M23 34.8C23.764 34.834 24.518 34.944 25.25 35.176C24.478 35.174 23.72 35.096 23 34.8Z" fill="#7C5595"/>
<path d="M25.264 35.354C25.688 39.686 25.082 44.074 25.58 48.394L25.604 48.582C25.502 48.592 25.298 48.612 25.196 48.624C25.194 44.894 25.23 41.166 25.172 37.438C25.194 36.744 25.234 36.046 25.264 35.354Z" fill="#592E73"/>
</svg>
