<svg width="50" height="50" viewBox="0 0 50 50" fill="none" xmlns="http://www.w3.org/2000/svg">
<g clip-path="url(#clip0_918_1867)">
<path d="M25 49.9884C38.8071 49.9884 50 38.8234 50 25.0507C50 11.278 38.8071 0.113037 25 0.113037C11.1929 0.113037 0 11.278 0 25.0507C0 38.8234 11.1929 49.9884 25 49.9884Z" fill="#002E33"/>
<path d="M33.9899 22.8523C33.3374 18.617 29.737 15.4873 25.2442 15.4873C20.6561 15.4873 16.9134 18.573 15.9785 22.8523H11.9815V26.0463H15.81C16.3315 30.9853 20.3665 34.6134 25.3197 34.6134C29.1239 34.6134 32.2129 33.1101 33.5687 30.6302L30.2161 28.4888C29.35 29.9162 27.4667 30.8179 25.3946 30.8179C22.4189 30.8179 20.3846 29.0142 19.933 26.0463H33.9457H36.961L38.0179 22.8523H33.9899ZM25.0181 18.9447C27.542 18.9447 29.4629 20.5597 29.689 22.8523H20.0831C20.7236 20.4474 22.4942 18.9447 25.0181 18.9447Z" fill="#CCF7ED"/>
</g>
<defs>
<clipPath id="clip0_918_1867">
<rect width="50" height="50" fill="white"/>
</clipPath>
</defs>
</svg>
