<svg width="50" height="50" viewBox="0 0 50 50" fill="none" xmlns="http://www.w3.org/2000/svg">
<g clip-path="url(#clip0_925_2475)">
<mask id="mask0_925_2475" style="mask-type:luminance" maskUnits="userSpaceOnUse" x="0" y="0" width="50" height="50">
<path d="M49.9704 0H0.029541V50H49.9704V0Z" fill="white"/>
</mask>
<g mask="url(#mask0_925_2475)">
<path d="M49.9704 0H0.029541V50H49.9704V0Z" fill="white"/>
<g filter="url(#filter0_f_925_2475)">
<mask id="mask1_925_2475" style="mask-type:alpha" maskUnits="userSpaceOnUse" x="7" y="8" width="36" height="36">
<path d="M24.984 43.0282C34.6338 43.0282 42.4566 35.1961 42.4566 25.5348C42.4566 15.8735 34.6338 8.0415 24.984 8.0415C15.3341 8.0415 7.51135 15.8735 7.51135 25.5348C7.51135 35.1961 15.3341 43.0282 24.984 43.0282Z" fill="#C4C4C4"/>
</mask>
<g mask="url(#mask1_925_2475)">
<g filter="url(#filter1_f_925_2475)">
<path d="M11.6145 55.653C21.2643 55.653 29.0871 47.821 29.0871 38.1597C29.0871 28.4984 21.2643 20.6664 11.6145 20.6664C1.9646 20.6664 -5.85815 28.4984 -5.85815 38.1597C-5.85815 47.821 1.9646 55.653 11.6145 55.653Z" fill="#F868EC"/>
</g>
<g filter="url(#filter2_f_925_2475)">
<path d="M10.3774 54.5913C20.0272 54.5913 27.85 46.7593 27.85 37.098C27.85 27.4368 20.0272 19.6047 10.3774 19.6047C0.727537 19.6047 -7.09521 27.4368 -7.09521 37.098C-7.09521 46.7593 0.727537 54.5913 10.3774 54.5913Z" fill="#F868EC"/>
</g>
<g filter="url(#filter3_f_925_2475)">
<path d="M43.6123 58.4981C53.2621 58.4981 61.0849 50.666 61.0849 41.0048C61.0849 31.3435 53.2621 23.5115 43.6123 23.5115C33.9624 23.5115 26.1396 31.3435 26.1396 41.0048C26.1396 50.666 33.9624 58.4981 43.6123 58.4981Z" fill="#F98C2A"/>
</g>
<g filter="url(#filter4_f_925_2475)">
<path d="M55.0895 52.468C64.7394 52.468 72.5621 44.636 72.5621 34.9747C72.5621 25.3135 64.7394 17.4814 55.0895 17.4814C45.4397 17.4814 37.6169 25.3135 37.6169 34.9747C37.6169 44.636 45.4397 52.468 55.0895 52.468Z" fill="#F98C2A"/>
</g>
<g filter="url(#filter5_f_925_2475)">
<path d="M13.7962 20.2607C23.4461 20.2607 31.2688 12.4287 31.2688 2.76746C31.2688 -6.89382 23.4461 -14.7258 13.7962 -14.7258C4.14636 -14.7258 -3.67639 -6.89382 -3.67639 2.76746C-3.67639 12.4287 4.14636 20.2607 13.7962 20.2607Z" fill="#00D1EA"/>
</g>
<g filter="url(#filter6_f_925_2475)">
<path d="M9.67036 24.5121C19.3202 24.5121 27.143 16.6801 27.143 7.0188C27.143 -2.64247 19.3202 -10.4745 9.67036 -10.4745C0.0205059 -10.4745 -7.80225 -2.64247 -7.80225 7.0188C-7.80225 16.6801 0.0205059 24.5121 9.67036 24.5121Z" fill="#00D1EA"/>
</g>
</g>
<g opacity="0.4">
<mask id="mask2_925_2475" style="mask-type:alpha" maskUnits="userSpaceOnUse" x="7" y="8" width="36" height="36">
<g opacity="0.4">
<path d="M24.984 43.0282C34.6338 43.0282 42.4566 35.1961 42.4566 25.5348C42.4566 15.8735 34.6338 8.0415 24.984 8.0415C15.3341 8.0415 7.51135 15.8735 7.51135 25.5348C7.51135 35.1961 15.3341 43.0282 24.984 43.0282Z" fill="#C4C4C4"/>
</g>
</mask>
<g mask="url(#mask2_925_2475)">
<g filter="url(#filter7_f_925_2475)">
<path d="M11.4377 54.2374C21.0875 54.2374 28.9103 46.4054 28.9103 36.7441C28.9103 27.0829 21.0875 19.2509 11.4377 19.2509C1.78784 19.2509 -6.03491 27.0829 -6.03491 36.7441C-6.03491 46.4054 1.78784 54.2374 11.4377 54.2374Z" fill="#F868EC"/>
</g>
<g filter="url(#filter8_f_925_2475)">
<path d="M43.072 54.4143C52.7218 54.4143 60.5446 46.5823 60.5446 36.921C60.5446 27.2597 52.7218 19.4277 43.072 19.4277C33.4221 19.4277 25.5994 27.2597 25.5994 36.921C25.5994 46.5823 33.4221 54.4143 43.072 54.4143Z" fill="#F98C2A"/>
</g>
<g filter="url(#filter9_f_925_2475)">
<path d="M45.0159 37.4285C54.6658 37.4285 62.4885 29.5965 62.4885 19.9352C62.4885 10.2739 54.6658 2.44189 45.0159 2.44189C35.3661 2.44189 27.5433 10.2739 27.5433 19.9352C27.5433 29.5965 35.3661 37.4285 45.0159 37.4285Z" fill="#F98C2A"/>
</g>
<g filter="url(#filter10_f_925_2475)">
<path d="M17.2696 22.5658C26.9195 22.5658 34.7422 14.7338 34.7422 5.07251C34.7422 -4.58876 26.9195 -12.4208 17.2696 -12.4208C7.61975 -12.4208 -0.203003 -4.58876 -0.203003 5.07251C-0.203003 14.7338 7.61975 22.5658 17.2696 22.5658Z" fill="#00D1EA"/>
</g>
<g filter="url(#filter11_f_925_2475)">
<path d="M22.5716 19.5579C32.2215 19.5579 40.0442 11.7259 40.0442 2.06458C40.0442 -7.5967 32.2215 -15.4287 22.5716 -15.4287C12.9218 -15.4287 5.099 -7.5967 5.099 2.06458C5.099 11.7259 12.9218 19.5579 22.5716 19.5579Z" fill="#00D1EA"/>
</g>
</g>
</g>
</g>
<g filter="url(#filter12_f_925_2475)">
<mask id="mask3_925_2475" style="mask-type:alpha" maskUnits="userSpaceOnUse" x="12" y="12" width="26" height="27">
<path d="M24.984 38.4333C32.0992 38.4333 37.8672 32.6584 37.8672 25.5348C37.8672 18.4111 32.0992 12.6362 24.984 12.6362C17.8687 12.6362 12.1007 18.4111 12.1007 25.5348C12.1007 32.6584 17.8687 38.4333 24.984 38.4333Z" fill="#C4C4C4"/>
</mask>
<g mask="url(#mask3_925_2475)">
<g filter="url(#filter13_f_925_2475)">
<path d="M15.1262 47.7421C22.2414 47.7421 28.0094 41.9672 28.0094 34.8436C28.0094 27.7199 22.2414 21.9451 15.1262 21.9451C8.01095 21.9451 2.24292 27.7199 2.24292 34.8436C2.24292 41.9672 8.01095 47.7421 15.1262 47.7421Z" fill="#F868EC"/>
</g>
<g filter="url(#filter14_f_925_2475)">
<path d="M14.2138 46.9594C21.3291 46.9594 27.0971 41.1845 27.0971 34.0609C27.0971 26.9372 21.3291 21.1624 14.2138 21.1624C7.0986 21.1624 1.33057 26.9372 1.33057 34.0609C1.33057 41.1845 7.0986 46.9594 14.2138 46.9594Z" fill="#F868EC"/>
</g>
<g filter="url(#filter15_f_925_2475)">
<path d="M38.7194 49.8399C45.8347 49.8399 51.6027 44.065 51.6027 36.9414C51.6027 29.8177 45.8347 24.0428 38.7194 24.0428C31.6042 24.0428 25.8362 29.8177 25.8362 36.9414C25.8362 44.065 31.6042 49.8399 38.7194 49.8399Z" fill="#F98C2A"/>
</g>
<g filter="url(#filter16_f_925_2475)">
<path d="M47.1818 45.3938C54.2971 45.3938 60.0651 39.619 60.0651 32.4953C60.0651 25.3717 54.2971 19.5968 47.1818 19.5968C40.0666 19.5968 34.2986 25.3717 34.2986 32.4953C34.2986 39.619 40.0666 45.3938 47.1818 45.3938Z" fill="#F98C2A"/>
</g>
<g filter="url(#filter17_f_925_2475)">
<path d="M16.7347 21.646C23.8499 21.646 29.618 15.8712 29.618 8.74752C29.618 1.62386 23.8499 -4.151 16.7347 -4.151C9.61947 -4.151 3.85144 1.62386 3.85144 8.74752C3.85144 15.8712 9.61947 21.646 16.7347 21.646Z" fill="#00D1EA"/>
</g>
<g filter="url(#filter18_f_925_2475)">
<path d="M13.6927 24.7807C20.8079 24.7807 26.576 19.0058 26.576 11.8822C26.576 4.75851 20.8079 -1.01636 13.6927 -1.01636C6.57748 -1.01636 0.809448 4.75851 0.809448 11.8822C0.809448 19.0058 6.57748 24.7807 13.6927 24.7807Z" fill="#00D1EA"/>
</g>
</g>
<g opacity="0.4">
<mask id="mask4_925_2475" style="mask-type:alpha" maskUnits="userSpaceOnUse" x="12" y="12" width="26" height="27">
<g opacity="0.4">
<path d="M24.984 38.4333C32.0992 38.4333 37.8672 32.6584 37.8672 25.5348C37.8672 18.4111 32.0992 12.6362 24.984 12.6362C17.8687 12.6362 12.1007 18.4111 12.1007 25.5348C12.1007 32.6584 17.8687 38.4333 24.984 38.4333Z" fill="#C4C4C4"/>
</g>
</mask>
<g mask="url(#mask4_925_2475)">
<g filter="url(#filter19_f_925_2475)">
<path d="M14.9958 46.6984C22.111 46.6984 27.8791 40.9235 27.8791 33.7999C27.8791 26.6762 22.111 20.9014 14.9958 20.9014C7.88058 20.9014 2.11255 26.6762 2.11255 33.7999C2.11255 40.9235 7.88058 46.6984 14.9958 46.6984Z" fill="#F868EC"/>
</g>
<g filter="url(#filter20_f_925_2475)">
<path d="M38.3209 46.8288C45.4361 46.8288 51.2041 41.0539 51.2041 33.9303C51.2041 26.8066 45.4361 21.0317 38.3209 21.0317C31.2057 21.0317 25.4376 26.8066 25.4376 33.9303C25.4376 41.0539 31.2057 46.8288 38.3209 46.8288Z" fill="#F98C2A"/>
</g>
<g filter="url(#filter21_f_925_2475)">
<path d="M39.7544 34.3045C46.8696 34.3045 52.6376 28.5296 52.6376 21.406C52.6376 14.2823 46.8696 8.50745 39.7544 8.50745C32.6391 8.50745 26.8711 14.2823 26.8711 21.406C26.8711 28.5296 32.6391 34.3045 39.7544 34.3045Z" fill="#F98C2A"/>
</g>
<g filter="url(#filter22_f_925_2475)">
<path d="M19.2957 23.3456C26.411 23.3456 32.179 17.5708 32.179 10.4471C32.179 3.32345 26.411 -2.45142 19.2957 -2.45142C12.1805 -2.45142 6.41248 3.32345 6.41248 10.4471C6.41248 17.5708 12.1805 23.3456 19.2957 23.3456Z" fill="#00D1EA"/>
</g>
<g filter="url(#filter23_f_925_2475)">
<path d="M23.2052 21.1277C30.3204 21.1277 36.0884 15.3529 36.0884 8.22921C36.0884 1.10555 30.3204 -4.66931 23.2052 -4.66931C16.0899 -4.66931 10.3219 1.10555 10.3219 8.22921C10.3219 15.3529 16.0899 21.1277 23.2052 21.1277Z" fill="#00D1EA"/>
</g>
</g>
</g>
</g>
<path d="M24.9841 39.295C32.9546 39.295 39.4159 32.826 39.4159 24.8461C39.4159 16.8661 32.9546 10.3971 24.9841 10.3971C17.0136 10.3971 10.5522 16.8661 10.5522 24.8461C10.5522 32.826 17.0136 39.295 24.9841 39.295Z" fill="white"/>
<mask id="mask5_925_2475" style="mask-type:alpha" maskUnits="userSpaceOnUse" x="12" y="12" width="26" height="26">
<path d="M24.984 37.5672C31.9725 37.5672 37.6378 31.8952 37.6378 24.8984C37.6378 17.9016 31.9725 12.2296 24.984 12.2296C17.9955 12.2296 12.3302 17.9016 12.3302 24.8984C12.3302 31.8952 17.9955 37.5672 24.984 37.5672Z" fill="#C4C4C4"/>
</mask>
<g mask="url(#mask5_925_2475)">
<g filter="url(#filter24_f_925_2475)">
<path d="M15.3017 46.7102C22.2902 46.7102 27.9555 41.0382 27.9555 34.0415C27.9555 27.0447 22.2902 21.3727 15.3017 21.3727C8.31324 21.3727 2.64795 27.0447 2.64795 34.0415C2.64795 41.0382 8.31324 46.7102 15.3017 46.7102Z" fill="#F868EC"/>
</g>
<g filter="url(#filter25_f_925_2475)">
<path d="M14.4059 45.9414C21.3943 45.9414 27.0596 40.2694 27.0596 33.2727C27.0596 26.2759 21.3943 20.6039 14.4059 20.6039C7.41737 20.6039 1.75208 26.2759 1.75208 33.2727C1.75208 40.2694 7.41737 45.9414 14.4059 45.9414Z" fill="#F868EC"/>
</g>
<g filter="url(#filter26_f_925_2475)">
<path d="M38.4748 48.7707C45.4633 48.7707 51.1286 43.0986 51.1286 36.1019C51.1286 29.1051 45.4633 23.4331 38.4748 23.4331C31.4863 23.4331 25.821 29.1051 25.821 36.1019C25.821 43.0986 31.4863 48.7707 38.4748 48.7707Z" fill="#F98C2A"/>
</g>
<g filter="url(#filter27_f_925_2475)">
<path d="M46.7866 44.4037C53.7751 44.4037 59.4404 38.7317 59.4404 31.7349C59.4404 24.7382 53.7751 19.0662 46.7866 19.0662C39.7981 19.0662 34.1328 24.7382 34.1328 31.7349C34.1328 38.7317 39.7981 44.4037 46.7866 44.4037Z" fill="#F98C2A"/>
</g>
<g filter="url(#filter28_f_925_2475)">
<path d="M16.8818 21.079C23.8703 21.079 29.5356 15.407 29.5356 8.41024C29.5356 1.41346 23.8703 -4.25854 16.8818 -4.25854C9.89332 -4.25854 4.22803 1.41346 4.22803 8.41024C4.22803 15.407 9.89332 21.079 16.8818 21.079Z" fill="#00D1EA"/>
</g>
<g filter="url(#filter29_f_925_2475)">
<path d="M13.8939 24.1578C20.8824 24.1578 26.5477 18.4857 26.5477 11.489C26.5477 4.4922 20.8824 -1.17981 13.8939 -1.17981C6.9054 -1.17981 1.24011 4.4922 1.24011 11.489C1.24011 18.4857 6.9054 24.1578 13.8939 24.1578Z" fill="#00D1EA"/>
</g>
</g>
<g opacity="0.4">
<mask id="mask6_925_2475" style="mask-type:alpha" maskUnits="userSpaceOnUse" x="12" y="12" width="26" height="26">
<g opacity="0.4">
<path d="M24.984 37.5672C31.9725 37.5672 37.6378 31.8952 37.6378 24.8984C37.6378 17.9016 31.9725 12.2296 24.984 12.2296C17.9955 12.2296 12.3302 17.9016 12.3302 24.8984C12.3302 31.8952 17.9955 37.5672 24.984 37.5672Z" fill="#C4C4C4"/>
</g>
</mask>
<g mask="url(#mask6_925_2475)">
<g filter="url(#filter30_f_925_2475)">
<path d="M15.1738 45.6851C22.1623 45.6851 27.8276 40.0131 27.8276 33.0163C27.8276 26.0195 22.1623 20.3475 15.1738 20.3475C8.18531 20.3475 2.52002 26.0195 2.52002 33.0163C2.52002 40.0131 8.18531 45.6851 15.1738 45.6851Z" fill="#F868EC"/>
</g>
<g filter="url(#filter31_f_925_2475)">
<path d="M38.0835 45.8133C45.072 45.8133 50.7372 40.1413 50.7372 33.1445C50.7372 26.1477 45.072 20.4757 38.0835 20.4757C31.095 20.4757 25.4297 26.1477 25.4297 33.1445C25.4297 40.1413 31.095 45.8133 38.0835 45.8133Z" fill="#F98C2A"/>
</g>
<g filter="url(#filter32_f_925_2475)">
<path d="M39.4914 33.5119C46.4799 33.5119 52.1452 27.8399 52.1452 20.8431C52.1452 13.8463 46.4799 8.17432 39.4914 8.17432C32.5029 8.17432 26.8376 13.8463 26.8376 20.8431C26.8376 27.8399 32.5029 33.5119 39.4914 33.5119Z" fill="#F98C2A"/>
</g>
<g filter="url(#filter33_f_925_2475)">
<path d="M19.3974 22.7482C26.3859 22.7482 32.0512 17.0762 32.0512 10.0794C32.0512 3.08265 26.3859 -2.58936 19.3974 -2.58936C12.4089 -2.58936 6.74365 3.08265 6.74365 10.0794C6.74365 17.0762 12.4089 22.7482 19.3974 22.7482Z" fill="#00D1EA"/>
</g>
<g filter="url(#filter34_f_925_2475)">
<path d="M23.2369 20.5699C30.2254 20.5699 35.8907 14.8979 35.8907 7.90108C35.8907 0.904305 30.2254 -4.7677 23.2369 -4.7677C16.2484 -4.7677 10.5831 0.904305 10.5831 7.90108C10.5831 14.8979 16.2484 20.5699 23.2369 20.5699Z" fill="#00D1EA"/>
</g>
</g>
</g>
<path fill-rule="evenodd" clip-rule="evenodd" d="M27.7261 30.9993C40.539 25.2271 49.6982 17.8163 48.1838 14.4468C46.7519 11.2609 36.2904 12.8287 24.324 17.8882C27.6442 17.2649 30.712 16.9079 34.2881 17.1736C34.6754 17.2024 35.0039 17.2322 35.2812 17.263C37.7205 16.9768 39.3951 17.2669 39.8209 18.2143C40.7894 20.3692 34.9318 25.1086 26.7377 28.8001C18.5435 32.4915 11.1158 33.7372 10.1473 31.5823C9.71826 30.6277 10.6287 29.166 12.4884 27.5128C12.2757 26.5025 12.2241 25.6304 12.23 25.2483C11.8909 25.2062 11.4768 25.0498 11.1912 24.7219C4.61991 28.9416 0.759916 33.0704 1.78435 35.3498C3.29872 38.7193 14.9132 36.7716 27.7261 30.9993Z" fill="white"/>
</g>
</g>
<defs>
<filter id="filter0_f_925_2475" x="-263.929" y="-263.398" width="577.825" height="577.867" filterUnits="userSpaceOnUse" color-interpolation-filters="sRGB">
<feFlood flood-opacity="0" result="BackgroundImageFix"/>
<feBlend mode="normal" in="SourceGraphic" in2="BackgroundImageFix" result="shape"/>
<feGaussianBlur stdDeviation="135.72" result="effect1_foregroundBlur_925_2475"/>
</filter>
<filter id="filter1_f_925_2475" x="-215.522" y="-188.998" width="454.273" height="454.315" filterUnits="userSpaceOnUse" color-interpolation-filters="sRGB">
<feFlood flood-opacity="0" result="BackgroundImageFix"/>
<feBlend mode="normal" in="SourceGraphic" in2="BackgroundImageFix" result="shape"/>
<feGaussianBlur stdDeviation="104.832" result="effect1_foregroundBlur_925_2475"/>
</filter>
<filter id="filter2_f_925_2475" x="-216.759" y="-190.059" width="454.273" height="454.315" filterUnits="userSpaceOnUse" color-interpolation-filters="sRGB">
<feFlood flood-opacity="0" result="BackgroundImageFix"/>
<feBlend mode="normal" in="SourceGraphic" in2="BackgroundImageFix" result="shape"/>
<feGaussianBlur stdDeviation="104.832" result="effect1_foregroundBlur_925_2475"/>
</filter>
<filter id="filter3_f_925_2475" x="-104.9" y="-107.529" width="297.025" height="297.067" filterUnits="userSpaceOnUse" color-interpolation-filters="sRGB">
<feFlood flood-opacity="0" result="BackgroundImageFix"/>
<feBlend mode="normal" in="SourceGraphic" in2="BackgroundImageFix" result="shape"/>
<feGaussianBlur stdDeviation="65.52" result="effect1_foregroundBlur_925_2475"/>
</filter>
<filter id="filter4_f_925_2475" x="-93.423" y="-113.559" width="297.025" height="297.067" filterUnits="userSpaceOnUse" color-interpolation-filters="sRGB">
<feFlood flood-opacity="0" result="BackgroundImageFix"/>
<feBlend mode="normal" in="SourceGraphic" in2="BackgroundImageFix" result="shape"/>
<feGaussianBlur stdDeviation="65.52" result="effect1_foregroundBlur_925_2475"/>
</filter>
<filter id="filter5_f_925_2475" x="-213.34" y="-224.39" width="454.273" height="454.315" filterUnits="userSpaceOnUse" color-interpolation-filters="sRGB">
<feFlood flood-opacity="0" result="BackgroundImageFix"/>
<feBlend mode="normal" in="SourceGraphic" in2="BackgroundImageFix" result="shape"/>
<feGaussianBlur stdDeviation="104.832" result="effect1_foregroundBlur_925_2475"/>
</filter>
<filter id="filter6_f_925_2475" x="-217.466" y="-220.138" width="454.273" height="454.315" filterUnits="userSpaceOnUse" color-interpolation-filters="sRGB">
<feFlood flood-opacity="0" result="BackgroundImageFix"/>
<feBlend mode="normal" in="SourceGraphic" in2="BackgroundImageFix" result="shape"/>
<feGaussianBlur stdDeviation="104.832" result="effect1_foregroundBlur_925_2475"/>
</filter>
<filter id="filter7_f_925_2475" x="-215.699" y="-190.413" width="454.273" height="454.315" filterUnits="userSpaceOnUse" color-interpolation-filters="sRGB">
<feFlood flood-opacity="0" result="BackgroundImageFix"/>
<feBlend mode="normal" in="SourceGraphic" in2="BackgroundImageFix" result="shape"/>
<feGaussianBlur stdDeviation="104.832" result="effect1_foregroundBlur_925_2475"/>
</filter>
<filter id="filter8_f_925_2475" x="-105.441" y="-111.612" width="297.025" height="297.067" filterUnits="userSpaceOnUse" color-interpolation-filters="sRGB">
<feFlood flood-opacity="0" result="BackgroundImageFix"/>
<feBlend mode="normal" in="SourceGraphic" in2="BackgroundImageFix" result="shape"/>
<feGaussianBlur stdDeviation="65.52" result="effect1_foregroundBlur_925_2475"/>
</filter>
<filter id="filter9_f_925_2475" x="-103.497" y="-128.598" width="297.025" height="297.067" filterUnits="userSpaceOnUse" color-interpolation-filters="sRGB">
<feFlood flood-opacity="0" result="BackgroundImageFix"/>
<feBlend mode="normal" in="SourceGraphic" in2="BackgroundImageFix" result="shape"/>
<feGaussianBlur stdDeviation="65.52" result="effect1_foregroundBlur_925_2475"/>
</filter>
<filter id="filter10_f_925_2475" x="-209.867" y="-222.085" width="454.273" height="454.315" filterUnits="userSpaceOnUse" color-interpolation-filters="sRGB">
<feFlood flood-opacity="0" result="BackgroundImageFix"/>
<feBlend mode="normal" in="SourceGraphic" in2="BackgroundImageFix" result="shape"/>
<feGaussianBlur stdDeviation="104.832" result="effect1_foregroundBlur_925_2475"/>
</filter>
<filter id="filter11_f_925_2475" x="-204.565" y="-225.093" width="454.273" height="454.315" filterUnits="userSpaceOnUse" color-interpolation-filters="sRGB">
<feFlood flood-opacity="0" result="BackgroundImageFix"/>
<feBlend mode="normal" in="SourceGraphic" in2="BackgroundImageFix" result="shape"/>
<feGaussianBlur stdDeviation="104.832" result="effect1_foregroundBlur_925_2475"/>
</filter>
<filter id="filter12_f_925_2475" x="-259.339" y="-258.804" width="568.646" height="568.677" filterUnits="userSpaceOnUse" color-interpolation-filters="sRGB">
<feFlood flood-opacity="0" result="BackgroundImageFix"/>
<feBlend mode="normal" in="SourceGraphic" in2="BackgroundImageFix" result="shape"/>
<feGaussianBlur stdDeviation="135.72" result="effect1_foregroundBlur_925_2475"/>
</filter>
<filter id="filter13_f_925_2475" x="-207.421" y="-187.719" width="445.094" height="445.125" filterUnits="userSpaceOnUse" color-interpolation-filters="sRGB">
<feFlood flood-opacity="0" result="BackgroundImageFix"/>
<feBlend mode="normal" in="SourceGraphic" in2="BackgroundImageFix" result="shape"/>
<feGaussianBlur stdDeviation="104.832" result="effect1_foregroundBlur_925_2475"/>
</filter>
<filter id="filter14_f_925_2475" x="-208.333" y="-188.502" width="445.094" height="445.125" filterUnits="userSpaceOnUse" color-interpolation-filters="sRGB">
<feFlood flood-opacity="0" result="BackgroundImageFix"/>
<feBlend mode="normal" in="SourceGraphic" in2="BackgroundImageFix" result="shape"/>
<feGaussianBlur stdDeviation="104.832" result="effect1_foregroundBlur_925_2475"/>
</filter>
<filter id="filter15_f_925_2475" x="-105.204" y="-106.997" width="287.846" height="287.877" filterUnits="userSpaceOnUse" color-interpolation-filters="sRGB">
<feFlood flood-opacity="0" result="BackgroundImageFix"/>
<feBlend mode="normal" in="SourceGraphic" in2="BackgroundImageFix" result="shape"/>
<feGaussianBlur stdDeviation="65.52" result="effect1_foregroundBlur_925_2475"/>
</filter>
<filter id="filter16_f_925_2475" x="-96.7414" y="-111.443" width="287.846" height="287.877" filterUnits="userSpaceOnUse" color-interpolation-filters="sRGB">
<feFlood flood-opacity="0" result="BackgroundImageFix"/>
<feBlend mode="normal" in="SourceGraphic" in2="BackgroundImageFix" result="shape"/>
<feGaussianBlur stdDeviation="65.52" result="effect1_foregroundBlur_925_2475"/>
</filter>
<filter id="filter17_f_925_2475" x="-205.813" y="-213.815" width="445.094" height="445.125" filterUnits="userSpaceOnUse" color-interpolation-filters="sRGB">
<feFlood flood-opacity="0" result="BackgroundImageFix"/>
<feBlend mode="normal" in="SourceGraphic" in2="BackgroundImageFix" result="shape"/>
<feGaussianBlur stdDeviation="104.832" result="effect1_foregroundBlur_925_2475"/>
</filter>
<filter id="filter18_f_925_2475" x="-208.855" y="-210.68" width="445.094" height="445.125" filterUnits="userSpaceOnUse" color-interpolation-filters="sRGB">
<feFlood flood-opacity="0" result="BackgroundImageFix"/>
<feBlend mode="normal" in="SourceGraphic" in2="BackgroundImageFix" result="shape"/>
<feGaussianBlur stdDeviation="104.832" result="effect1_foregroundBlur_925_2475"/>
</filter>
<filter id="filter19_f_925_2475" x="-207.551" y="-188.763" width="445.094" height="445.125" filterUnits="userSpaceOnUse" color-interpolation-filters="sRGB">
<feFlood flood-opacity="0" result="BackgroundImageFix"/>
<feBlend mode="normal" in="SourceGraphic" in2="BackgroundImageFix" result="shape"/>
<feGaussianBlur stdDeviation="104.832" result="effect1_foregroundBlur_925_2475"/>
</filter>
<filter id="filter20_f_925_2475" x="-105.602" y="-110.008" width="287.846" height="287.877" filterUnits="userSpaceOnUse" color-interpolation-filters="sRGB">
<feFlood flood-opacity="0" result="BackgroundImageFix"/>
<feBlend mode="normal" in="SourceGraphic" in2="BackgroundImageFix" result="shape"/>
<feGaussianBlur stdDeviation="65.52" result="effect1_foregroundBlur_925_2475"/>
</filter>
<filter id="filter21_f_925_2475" x="-104.169" y="-122.533" width="287.846" height="287.877" filterUnits="userSpaceOnUse" color-interpolation-filters="sRGB">
<feFlood flood-opacity="0" result="BackgroundImageFix"/>
<feBlend mode="normal" in="SourceGraphic" in2="BackgroundImageFix" result="shape"/>
<feGaussianBlur stdDeviation="65.52" result="effect1_foregroundBlur_925_2475"/>
</filter>
<filter id="filter22_f_925_2475" x="-203.252" y="-212.115" width="445.094" height="445.125" filterUnits="userSpaceOnUse" color-interpolation-filters="sRGB">
<feFlood flood-opacity="0" result="BackgroundImageFix"/>
<feBlend mode="normal" in="SourceGraphic" in2="BackgroundImageFix" result="shape"/>
<feGaussianBlur stdDeviation="104.832" result="effect1_foregroundBlur_925_2475"/>
</filter>
<filter id="filter23_f_925_2475" x="-199.342" y="-214.333" width="445.094" height="445.125" filterUnits="userSpaceOnUse" color-interpolation-filters="sRGB">
<feFlood flood-opacity="0" result="BackgroundImageFix"/>
<feBlend mode="normal" in="SourceGraphic" in2="BackgroundImageFix" result="shape"/>
<feGaussianBlur stdDeviation="104.832" result="effect1_foregroundBlur_925_2475"/>
</filter>
<filter id="filter24_f_925_2475" x="-207.016" y="-188.291" width="444.636" height="444.666" filterUnits="userSpaceOnUse" color-interpolation-filters="sRGB">
<feFlood flood-opacity="0" result="BackgroundImageFix"/>
<feBlend mode="normal" in="SourceGraphic" in2="BackgroundImageFix" result="shape"/>
<feGaussianBlur stdDeviation="104.832" result="effect1_foregroundBlur_925_2475"/>
</filter>
<filter id="filter25_f_925_2475" x="-207.912" y="-189.06" width="444.636" height="444.666" filterUnits="userSpaceOnUse" color-interpolation-filters="sRGB">
<feFlood flood-opacity="0" result="BackgroundImageFix"/>
<feBlend mode="normal" in="SourceGraphic" in2="BackgroundImageFix" result="shape"/>
<feGaussianBlur stdDeviation="104.832" result="effect1_foregroundBlur_925_2475"/>
</filter>
<filter id="filter26_f_925_2475" x="-105.219" y="-107.607" width="287.388" height="287.418" filterUnits="userSpaceOnUse" color-interpolation-filters="sRGB">
<feFlood flood-opacity="0" result="BackgroundImageFix"/>
<feBlend mode="normal" in="SourceGraphic" in2="BackgroundImageFix" result="shape"/>
<feGaussianBlur stdDeviation="65.52" result="effect1_foregroundBlur_925_2475"/>
</filter>
<filter id="filter27_f_925_2475" x="-96.9072" y="-111.974" width="287.388" height="287.418" filterUnits="userSpaceOnUse" color-interpolation-filters="sRGB">
<feFlood flood-opacity="0" result="BackgroundImageFix"/>
<feBlend mode="normal" in="SourceGraphic" in2="BackgroundImageFix" result="shape"/>
<feGaussianBlur stdDeviation="65.52" result="effect1_foregroundBlur_925_2475"/>
</filter>
<filter id="filter28_f_925_2475" x="-205.436" y="-213.923" width="444.636" height="444.666" filterUnits="userSpaceOnUse" color-interpolation-filters="sRGB">
<feFlood flood-opacity="0" result="BackgroundImageFix"/>
<feBlend mode="normal" in="SourceGraphic" in2="BackgroundImageFix" result="shape"/>
<feGaussianBlur stdDeviation="104.832" result="effect1_foregroundBlur_925_2475"/>
</filter>
<filter id="filter29_f_925_2475" x="-208.424" y="-210.844" width="444.636" height="444.666" filterUnits="userSpaceOnUse" color-interpolation-filters="sRGB">
<feFlood flood-opacity="0" result="BackgroundImageFix"/>
<feBlend mode="normal" in="SourceGraphic" in2="BackgroundImageFix" result="shape"/>
<feGaussianBlur stdDeviation="104.832" result="effect1_foregroundBlur_925_2475"/>
</filter>
<filter id="filter30_f_925_2475" x="-207.144" y="-189.316" width="444.636" height="444.666" filterUnits="userSpaceOnUse" color-interpolation-filters="sRGB">
<feFlood flood-opacity="0" result="BackgroundImageFix"/>
<feBlend mode="normal" in="SourceGraphic" in2="BackgroundImageFix" result="shape"/>
<feGaussianBlur stdDeviation="104.832" result="effect1_foregroundBlur_925_2475"/>
</filter>
<filter id="filter31_f_925_2475" x="-105.61" y="-110.564" width="287.388" height="287.418" filterUnits="userSpaceOnUse" color-interpolation-filters="sRGB">
<feFlood flood-opacity="0" result="BackgroundImageFix"/>
<feBlend mode="normal" in="SourceGraphic" in2="BackgroundImageFix" result="shape"/>
<feGaussianBlur stdDeviation="65.52" result="effect1_foregroundBlur_925_2475"/>
</filter>
<filter id="filter32_f_925_2475" x="-104.202" y="-122.866" width="287.388" height="287.418" filterUnits="userSpaceOnUse" color-interpolation-filters="sRGB">
<feFlood flood-opacity="0" result="BackgroundImageFix"/>
<feBlend mode="normal" in="SourceGraphic" in2="BackgroundImageFix" result="shape"/>
<feGaussianBlur stdDeviation="65.52" result="effect1_foregroundBlur_925_2475"/>
</filter>
<filter id="filter33_f_925_2475" x="-202.92" y="-212.253" width="444.636" height="444.666" filterUnits="userSpaceOnUse" color-interpolation-filters="sRGB">
<feFlood flood-opacity="0" result="BackgroundImageFix"/>
<feBlend mode="normal" in="SourceGraphic" in2="BackgroundImageFix" result="shape"/>
<feGaussianBlur stdDeviation="104.832" result="effect1_foregroundBlur_925_2475"/>
</filter>
<filter id="filter34_f_925_2475" x="-199.081" y="-214.432" width="444.636" height="444.666" filterUnits="userSpaceOnUse" color-interpolation-filters="sRGB">
<feFlood flood-opacity="0" result="BackgroundImageFix"/>
<feBlend mode="normal" in="SourceGraphic" in2="BackgroundImageFix" result="shape"/>
<feGaussianBlur stdDeviation="104.832" result="effect1_foregroundBlur_925_2475"/>
</filter>
<clipPath id="clip0_925_2475">
<rect width="50" height="50" rx="25" fill="white"/>
</clipPath>
</defs>
</svg>
