<svg width="50" height="50" viewBox="0 0 50 50" fill="none" xmlns="http://www.w3.org/2000/svg">
<g clip-path="url(#clip0_925_2287)">
<path d="M25 50C38.8071 50 50 38.8071 50 25C50 11.1929 38.8071 0 25 0C11.1929 0 0 11.1929 0 25C0 38.8071 11.1929 50 25 50Z" fill="white"/>
<path d="M25 50C38.8071 50 50 38.8071 50 25C50 11.1929 38.8071 0 25 0C11.1929 0 0 11.1929 0 25C0 38.8071 11.1929 50 25 50Z" fill="#4C57E2"/>
<path fill-rule="evenodd" clip-rule="evenodd" d="M18.1291 15.088C18.1291 16.2707 17.1688 17.2296 15.9842 17.2296C14.7996 17.2296 13.8392 16.2707 13.8392 15.088C13.8392 13.9052 14.7996 12.9464 15.9842 12.9464C17.1688 12.9464 18.1291 13.9052 18.1291 15.088ZM35.3102 13.3111C35.6461 13.4537 35.9436 13.6733 36.1785 13.9521C36.3737 14.252 36.4955 14.5936 36.5339 14.9492C36.5724 15.3048 36.5266 15.6645 36.3997 15.999C36.1875 16.6798 35.9121 17.3471 35.6455 17.9828L35.4516 18.4336C35.1878 19.0863 34.9227 19.7283 34.6541 20.3784C34.4628 20.8419 34.2695 21.3095 34.074 21.788C33.8782 22.2681 33.6788 22.7428 33.4804 23.2155C33.2035 23.8747 32.9282 24.5303 32.6654 25.192C32.1689 26.3774 31.6849 27.5604 31.2005 28.7446C31.0327 29.1547 30.8648 29.565 30.6964 29.9756C29.6867 32.4138 28.6845 34.8445 27.6728 37.2984L27.3683 38.0368C27.189 38.5279 26.8646 38.9529 26.438 39.2554C26.0114 39.5583 25.5028 39.7243 24.9795 39.732C24.3823 39.7182 23.8032 39.525 23.3177 39.1775C23.0609 38.9932 22.8594 38.7423 22.7352 38.4516C22.563 38.049 22.3878 37.6416 22.2108 37.2301C21.5336 35.6557 20.8309 34.0221 20.1793 32.374L20.1355 32.2702C20.0427 32.05 19.9524 31.8356 19.8587 31.6212C19.4494 30.6592 18.3398 27.8406 17.8674 26.6407L17.7905 26.4454L17.7634 26.3642C17.6595 26.0892 17.5421 25.8232 17.4247 25.5572C17.3938 25.4821 17.3628 25.407 17.3317 25.3319C17.1761 24.9561 17.0205 24.5804 16.8964 24.2046C16.4222 22.7483 17.1538 22.0044 17.6053 21.6979C17.9499 21.4622 18.3573 21.335 18.7749 21.3327C19.1197 21.3359 19.4578 21.4271 19.7574 21.5975C20.0569 21.768 20.3078 22.012 20.4863 22.3065C20.5502 22.4001 20.6076 22.498 20.658 22.5996C20.9655 23.165 21.2224 23.7564 21.4256 24.3669C21.5295 24.6329 21.6288 24.908 21.7463 25.1739C22.0429 25.8784 22.6054 27.3158 23.118 28.626C23.4715 29.5294 23.8014 30.3723 24.0041 30.8728C24.3338 31.6257 24.6318 32.3878 24.9072 33.1586L25.4311 31.9143L26.9754 28.2308C27.1134 27.8739 27.2687 27.5128 27.4234 27.1533C27.4914 26.995 27.5594 26.837 27.6257 26.6798C27.6927 26.5189 27.7598 26.3578 27.8271 26.1964C28.4085 24.8015 28.998 23.3872 29.5404 21.9729C30.028 20.706 30.5609 19.43 31.0757 18.1992L31.4912 17.1893C31.3266 17.1662 31.1604 17.1571 30.9944 17.1622H26.8174H24.0131C23.2951 17.1532 22.2204 17.1352 21.6875 16.0756C21.5676 15.8391 21.4958 15.5811 21.4763 15.3167C21.4568 15.0522 21.49 14.7866 21.574 14.535C21.658 14.2835 21.7911 14.051 21.9656 13.8512C22.1401 13.6513 22.3525 13.4879 22.5907 13.3705C23.046 13.1811 23.539 13.0994 24.0312 13.1316H34.2458C34.6099 13.107 34.9747 13.1685 35.3102 13.3111Z" fill="white"/>
</g>
<defs>
<clipPath id="clip0_925_2287">
<rect width="50" height="50" fill="white"/>
</clipPath>
</defs>
</svg>
