<svg width="50" height="50" viewBox="0 0 50 50" fill="none" xmlns="http://www.w3.org/2000/svg">
<g clip-path="url(#clip0_925_2308)">
<path d="M49.9967 25.0665C49.9967 28.3435 49.3515 31.5884 48.0979 34.616C46.8444 37.6436 45.007 40.3945 42.6908 42.7117C40.3745 45.0289 37.6248 46.867 34.5984 48.1211C31.5721 49.3751 28.3285 50.0206 25.0528 50.0206C21.7772 50.0206 18.5336 49.3751 15.5072 48.1211C12.4809 46.867 9.73113 45.0289 7.41489 42.7117C5.09864 40.3945 3.26129 37.6436 2.00774 34.616C0.754199 31.5884 0.109008 28.3435 0.109009 25.0665C0.10901 18.4482 2.73701 12.101 7.41489 7.42121C12.0928 2.7414 18.4373 0.112305 25.0528 0.112305C31.6684 0.112304 38.0129 2.7414 42.6908 7.42121C47.3687 12.101 49.9967 18.4482 49.9967 25.0665Z" fill="#1E1E1E"/>
<path fill-rule="evenodd" clip-rule="evenodd" d="M25.0748 4.55343C13.7624 4.55343 4.58921 13.7449 4.58921 25.0886C4.58921 36.4323 13.7624 45.6236 25.0748 45.6236C36.3873 45.6236 45.5603 36.4323 45.5603 25.0886C45.5603 13.749 36.3872 4.55343 25.0748 4.55343ZM2.51196 25.0886C2.51196 12.5947 12.6155 2.47119 25.0748 2.47119C37.5344 2.47119 47.6379 12.5989 47.6379 25.0886C47.6379 37.5825 37.5343 47.7062 25.0748 47.7062C12.6155 47.7062 2.51196 37.5825 2.51196 25.0886Z" fill="#FF7B7C"/>
<path fill-rule="evenodd" clip-rule="evenodd" d="M33.982 19.6997L28.2905 19.4623L32.1582 15.2645L30.6003 13.7069L26.4085 17.5716L26.1799 11.8662H23.9823L23.7454 17.5716L19.5577 13.6944L18.004 15.2561L21.8635 19.4581L16.1677 19.683V21.8902L21.8593 22.1275L17.9915 26.3253L19.5494 27.8829L23.6748 24.0766L23.8576 33.3217L20.5631 33.5633V35.6164L23.9075 35.8704L23.9698 39.0813H26.1675L26.234 35.8746L29.6116 35.6164V33.5633L26.2838 33.3217L26.4708 24.0807L30.592 27.8913L32.1458 26.3337L28.2905 22.1317L33.9821 21.9027L33.982 19.6997Z" fill="#FF7B7C"/>
</g>
<defs>
<clipPath id="clip0_925_2308">
<rect width="50" height="50" fill="white"/>
</clipPath>
</defs>
</svg>
