<svg width="50" height="50" viewBox="0 0 50 50" fill="none" xmlns="http://www.w3.org/2000/svg">
<g clip-path="url(#clip0_932_2613)">
<path d="M25 50C38.8071 50 50 38.8071 50 25C50 11.1929 38.8071 0 25 0C11.1929 0 0 11.1929 0 25C0 38.8071 11.1929 50 25 50Z" fill="url(#paint0_linear_932_2613)"/>
<path d="M25 48.4439C12.0791 48.4439 1.55615 37.9209 1.55615 25C1.55615 12.0791 12.0791 1.55615 25 1.55615C37.9209 1.55615 48.4439 12.0791 48.4439 25C48.4439 37.9209 37.9209 48.4439 25 48.4439ZM25 3.54595C13.1761 3.54595 3.54595 13.1633 3.54595 25C3.54595 36.8368 13.1761 46.4541 25 46.4541C36.824 46.4541 46.4541 36.824 46.4541 25C46.4541 13.1761 36.824 3.54595 25 3.54595Z" fill="#28646E"/>
<path d="M23.4566 20.7143C23.0867 20.7143 22.7933 20.4209 22.7933 20.051C22.7933 19.8597 22.8699 19.6812 23.0229 19.5536C24.9107 17.8954 25.7398 16.5306 25.8928 16.2628C26.4413 15.2934 27.3342 14.7959 28.2653 14.9235C28.6352 14.9745 28.8903 15.3062 28.8393 15.676C28.7882 16.0459 28.4566 16.301 28.0867 16.25C27.5382 16.1735 27.1811 16.6965 27.0408 16.926C26.875 17.2194 25.9438 18.75 23.903 20.5485C23.7755 20.6633 23.6097 20.7143 23.4566 20.7143Z" fill="#28646E"/>
<path d="M12.2321 32.0154C11.8622 32.0154 11.5688 31.722 11.5688 31.3521C11.5688 31.1608 11.6581 30.9695 11.8112 30.8419C12.5893 30.2297 13.4056 29.6812 14.2602 29.1965C14.5918 29.0435 14.9872 29.1965 15.1403 29.5282C15.2806 29.847 15.153 30.2169 14.8597 30.3828C14.0944 30.8164 13.3546 31.3139 12.6658 31.8496C12.5382 31.9644 12.3852 32.0154 12.2321 32.0154Z" fill="#28646E"/>
<path d="M28.9923 25.6889C29.2602 25.9312 29.5663 25.8292 29.8469 25.5613C31.773 23.7246 33.8265 20.8292 34.5025 19.3241C34.6429 19.0052 34.949 18.8267 35.2551 18.9542C35.625 19.1073 35.625 19.745 35.2806 20.4338C34.3877 22.2705 33.1505 24.2986 30.7015 26.8241C30.4974 27.0154 30.4847 27.3343 30.676 27.5511C30.6888 27.5639 30.7015 27.5766 30.7143 27.5894C30.9311 27.7807 31.2755 27.768 31.6071 27.4363C32.8826 26.1481 33.7245 25.1404 34.4643 24.1073C34.6556 23.8394 34.8724 23.7246 35.102 23.7756C35.4209 23.8394 35.4719 24.1455 35.3699 24.5154C35.2168 25.1149 33.5204 27.3215 32.8571 28.0741C31.0459 30.0894 29.2347 31.1991 25.7525 33.0103C24.5408 33.6481 23.6224 34.2476 23.074 35.1787C22.5765 36.0205 22.4235 36.3011 22.3724 36.4032C22.1684 36.8113 22.3342 37.3215 22.7423 37.5256C23.1505 37.717 23.6352 37.5511 23.8393 37.143C23.852 37.1302 23.852 37.1175 23.852 37.1047C23.852 37.092 23.8265 37.1175 24.477 36.0078C24.9745 35.217 25.6888 34.592 26.5306 34.1965C30.0127 32.6022 31.4413 31.3522 33.4694 29.3241C34.3877 28.4057 35.6633 26.4159 36.0204 25.842C36.9898 24.1965 36.4796 22.7935 35.5995 22.5511C35.5357 22.5384 35.4974 22.4746 35.523 22.4108C35.523 22.3981 35.5357 22.3853 35.5357 22.3853C36.2117 21.2246 36.5306 20.4083 36.6582 19.7833C36.8367 18.9287 36.5944 17.9083 35.4209 17.6532C35.3571 17.6404 35.3189 17.5766 35.3444 17.5129C35.4209 17.245 35.4847 16.9006 35.5357 16.6838C35.7781 15.5869 35.0893 14.5792 34.2474 14.4006C33.699 14.2731 33.125 14.4006 32.6786 14.7323C32.6148 14.7705 32.5255 14.7705 32.4745 14.7068C32.2576 14.4644 31.9388 14.3113 31.6071 14.2986C30.8801 14.2858 30.1531 14.5154 29.6301 15.6379C29.2474 16.4414 28.699 17.5129 27.0536 19.3369C25.5357 21.0205 23.4184 22.6659 22.1046 23.5333C21.875 23.6863 21.5561 23.6481 21.5944 23.342C21.6582 22.8573 22.1811 19.5664 22.2704 18.5971C22.4107 17.0282 21.5689 16.3011 20.625 16.1736C19.8469 16.0715 18.6607 16.2884 18.0102 18.0741C17.6275 19.12 16.8367 20.8292 16.1607 23.5843C15.6888 25.5231 15.6122 27.7807 16.0459 30.3828C16.0714 30.5358 16.0459 30.7016 15.9566 30.842C15.4337 31.6965 14.6811 32.819 14.2602 33.7884C14.0816 34.1838 14.2347 34.643 14.6046 34.8598C15 35.0766 15.4974 34.9363 15.7143 34.5282C15.727 34.5154 15.727 34.5027 15.7398 34.4899C15.9949 33.9542 16.5051 32.9593 16.7092 32.5511C17.0663 31.8369 17.2959 31.3522 17.3852 31.0588C17.4745 30.7909 17.5255 30.4721 17.3724 29.745C17.1046 28.5333 17.0153 26.2629 17.5127 24.2603C18.0485 22.1812 18.7117 20.1404 19.477 18.1379C19.6811 17.6404 19.9617 17.5001 20.2423 17.5129C20.523 17.5256 21.0587 17.6787 20.9056 18.6736C20.625 20.4721 20.2423 22.7552 20.1148 23.5205C20.051 23.9032 19.9745 24.7833 20.676 25.1787C21.2117 25.4976 21.8112 25.319 22.4745 24.8726C23.9541 23.8777 26.5178 21.8624 28.125 20.0639C29.8087 18.1634 30.3444 17.0409 30.7781 16.0205C30.9694 15.5613 31.4796 15.5613 31.6582 15.6124C31.8367 15.6634 32.0536 15.9057 31.9005 16.4159C31.5306 17.6659 29.9872 20.5103 27.0153 23.1889C26.6837 23.495 26.7219 23.8522 26.9005 24.0435C27.0791 24.2348 27.3724 24.3496 27.7168 24.0435C30.3826 21.7731 31.9005 19.0562 32.5893 17.6022C32.8189 17.1175 33.0102 16.62 33.176 16.1098C33.3163 15.6889 33.648 15.5358 33.8775 15.5869C34.1964 15.6506 34.4133 15.9823 34.3112 16.5307C34.1454 17.2323 33.9031 17.9083 33.5842 18.5588C32.7296 20.37 30.9184 22.7935 28.9796 24.8853C28.75 25.0894 28.7372 25.4338 28.9286 25.6634C28.9668 25.6634 28.9796 25.6761 28.9923 25.6889Z" fill="#28646E"/>
<path d="M16.9388 16.6582C17.0408 16.5689 17.0025 16.4541 16.977 16.352C16.8367 15.8928 16.0204 13.9796 15.8036 13.5969C15.6888 13.4056 15.5612 13.3801 15.4082 13.4311C15.2168 13.5076 14.9745 13.6862 14.6173 14.0051C14.2602 14.324 14.0434 14.5408 13.9541 14.7194C13.8775 14.8597 13.8903 15 14.0689 15.1275C14.426 15.3954 16.2117 16.4541 16.6582 16.6582C16.7219 16.7092 16.8367 16.7602 16.9388 16.6582Z" fill="#28646E"/>
<path d="M31.7219 33.6226C31.5816 33.6353 31.5433 33.7501 31.5178 33.8394C31.352 34.2858 30.8418 36.3139 30.778 36.7476C30.7525 36.9644 30.8418 37.0664 30.9821 37.1175C31.1734 37.1812 31.4796 37.1812 31.9643 37.143C32.4489 37.1047 32.7423 37.0664 32.9336 36.9772C33.0739 36.9134 33.1505 36.7986 33.0867 36.5817C32.9591 36.1608 32.1811 34.222 31.9643 33.8011C31.9132 33.7246 31.8622 33.6098 31.7219 33.6226Z" fill="#28646E"/>
<path d="M32.8826 32.6786C32.8189 32.8061 32.8954 32.8954 32.9592 32.9719C33.2653 33.3418 34.7194 34.8342 35.051 35.1148C35.2168 35.2551 35.3571 35.2296 35.4719 35.1276C35.625 34.9873 35.778 34.7322 36.0076 34.3112C36.2372 33.8903 36.352 33.6097 36.3775 33.4056C36.403 33.2526 36.3393 33.125 36.1224 33.0612C35.7015 32.9464 33.6352 32.602 33.1632 32.5765C33.074 32.5638 32.9464 32.551 32.8826 32.6786Z" fill="#28646E"/>
<path d="M16.2245 17.9081C16.1989 17.7678 16.0841 17.7423 15.9821 17.7295C15.5102 17.6147 13.4566 17.3213 13.0102 17.3086C12.7933 17.2958 12.6913 17.4106 12.6658 17.5637C12.6275 17.7678 12.653 18.0611 12.7423 18.5331C12.8316 19.005 12.8954 19.2984 13.0102 19.477C13.0867 19.6173 13.2142 19.681 13.4183 19.5917C13.8265 19.4259 15.6632 18.4438 16.0586 18.1759C16.1479 18.1122 16.25 18.0484 16.2245 17.9081Z" fill="#28646E"/>
<path d="M25.0001 44.6429C25.4086 44.6429 25.7398 44.3117 25.7398 43.9031C25.7398 43.4946 25.4086 43.1633 25.0001 43.1633C24.5915 43.1633 24.2603 43.4946 24.2603 43.9031C24.2603 44.3117 24.5915 44.6429 25.0001 44.6429Z" fill="#28646E"/>
<path d="M25.0001 6.83677C25.4086 6.83677 25.7398 6.50555 25.7398 6.09697C25.7398 5.6884 25.4086 5.35718 25.0001 5.35718C24.5915 5.35718 24.2603 5.6884 24.2603 6.09697C24.2603 6.50555 24.5915 6.83677 25.0001 6.83677Z" fill="#28646E"/>
<path d="M29.898 43.9923C30.3066 43.9923 30.6378 43.6611 30.6378 43.2525C30.6378 42.8439 30.3066 42.5127 29.898 42.5127C29.4894 42.5127 29.1582 42.8439 29.1582 43.2525C29.1582 43.6611 29.4894 43.9923 29.898 43.9923Z" fill="#28646E"/>
<path d="M20.1021 7.48716C20.5107 7.48716 20.8419 7.15594 20.8419 6.74736C20.8419 6.33879 20.5107 6.00757 20.1021 6.00757C19.6935 6.00757 19.3623 6.33879 19.3623 6.74736C19.3623 7.15594 19.6935 7.48716 20.1021 7.48716Z" fill="#28646E"/>
<path d="M34.4516 42.1046C34.8602 42.1046 35.1914 41.7734 35.1914 41.3648C35.1914 40.9562 34.8602 40.625 34.4516 40.625C34.043 40.625 33.7118 40.9562 33.7118 41.3648C33.7118 41.7734 34.043 42.1046 34.4516 42.1046Z" fill="#28646E"/>
<path d="M16.2852 8.75067C16.3507 8.34737 16.0768 7.96736 15.6735 7.90191C15.2702 7.83645 14.8901 8.11034 14.8247 8.51364C14.7592 8.91695 15.0331 9.29696 15.4364 9.36241C15.8397 9.42787 16.2197 9.15398 16.2852 8.75067Z" fill="#28646E"/>
<path d="M38.3674 39.107C38.7759 39.107 39.1072 38.7758 39.1072 38.3672C39.1072 37.9587 38.7759 37.6274 38.3674 37.6274C37.9588 37.6274 37.6276 37.9587 37.6276 38.3672C37.6276 38.7758 37.9588 39.107 38.3674 39.107Z" fill="#28646E"/>
<path d="M11.6326 12.3724C12.0412 12.3724 12.3724 12.0412 12.3724 11.6326C12.3724 11.224 12.0412 10.8928 11.6326 10.8928C11.224 10.8928 10.8928 11.224 10.8928 11.6326C10.8928 12.0412 11.224 12.3724 11.6326 12.3724Z" fill="#28646E"/>
<path d="M41.3648 35.1913C41.7734 35.1913 42.1046 34.86 42.1046 34.4515C42.1046 34.0429 41.7734 33.7117 41.3648 33.7117C40.9562 33.7117 40.625 34.0429 40.625 34.4515C40.625 34.86 40.9562 35.1913 41.3648 35.1913Z" fill="#28646E"/>
<path d="M8.63518 16.2882C9.04376 16.2882 9.37498 15.957 9.37498 15.5484C9.37498 15.1398 9.04376 14.8086 8.63518 14.8086C8.2266 14.8086 7.89539 15.1398 7.89539 15.5484C7.89539 15.957 8.2266 16.2882 8.63518 16.2882Z" fill="#28646E"/>
<path d="M43.2525 30.6378C43.6611 30.6378 43.9923 30.3066 43.9923 29.898C43.9923 29.4894 43.6611 29.1582 43.2525 29.1582C42.8439 29.1582 42.5127 29.4894 42.5127 29.898C42.5127 30.3066 42.8439 30.6378 43.2525 30.6378Z" fill="#28646E"/>
<path d="M6.74749 20.8419C7.15606 20.8419 7.48728 20.5107 7.48728 20.1021C7.48728 19.6935 7.15606 19.3623 6.74749 19.3623C6.33891 19.3623 6.00769 19.6935 6.00769 20.1021C6.00769 20.5107 6.33891 20.8419 6.74749 20.8419Z" fill="#28646E"/>
<path d="M43.903 25.7398C44.3116 25.7398 44.6428 25.4086 44.6428 25.0001C44.6428 24.5915 44.3116 24.2603 43.903 24.2603C43.4944 24.2603 43.1632 24.5915 43.1632 25.0001C43.1632 25.4086 43.4944 25.7398 43.903 25.7398Z" fill="#28646E"/>
<path d="M6.09697 25.7398C6.50555 25.7398 6.83677 25.4086 6.83677 25.0001C6.83677 24.5915 6.50555 24.2603 6.09697 24.2603C5.6884 24.2603 5.35718 24.5915 5.35718 25.0001C5.35718 25.4086 5.6884 25.7398 6.09697 25.7398Z" fill="#28646E"/>
<path d="M43.2525 20.8419C43.6611 20.8419 43.9923 20.5107 43.9923 20.1021C43.9923 19.6935 43.6611 19.3623 43.2525 19.3623C42.8439 19.3623 42.5127 19.6935 42.5127 20.1021C42.5127 20.5107 42.8439 20.8419 43.2525 20.8419Z" fill="#28646E"/>
<path d="M6.74749 30.6378C7.15606 30.6378 7.48728 30.3066 7.48728 29.898C7.48728 29.4894 7.15606 29.1582 6.74749 29.1582C6.33891 29.1582 6.00769 29.4894 6.00769 29.898C6.00769 30.3066 6.33891 30.6378 6.74749 30.6378Z" fill="#28646E"/>
<path d="M41.3648 16.2882C41.7734 16.2882 42.1046 15.957 42.1046 15.5484C42.1046 15.1398 41.7734 14.8086 41.3648 14.8086C40.9562 14.8086 40.625 15.1398 40.625 15.5484C40.625 15.957 40.9562 16.2882 41.3648 16.2882Z" fill="#28646E"/>
<path d="M8.63518 35.1913C9.04376 35.1913 9.37498 34.86 9.37498 34.4515C9.37498 34.0429 9.04376 33.7117 8.63518 33.7117C8.2266 33.7117 7.89539 34.0429 7.89539 34.4515C7.89539 34.86 8.2266 35.1913 8.63518 35.1913Z" fill="#28646E"/>
<path d="M38.3674 12.3724C38.7759 12.3724 39.1072 12.0412 39.1072 11.6326C39.1072 11.224 38.7759 10.8928 38.3674 10.8928C37.9588 10.8928 37.6276 11.224 37.6276 11.6326C37.6276 12.0412 37.9588 12.3724 38.3674 12.3724Z" fill="#28646E"/>
<path d="M11.6326 39.107C12.0412 39.107 12.3724 38.7758 12.3724 38.3672C12.3724 37.9587 12.0412 37.6274 11.6326 37.6274C11.224 37.6274 10.8928 37.9587 10.8928 38.3672C10.8928 38.7758 11.224 39.107 11.6326 39.107Z" fill="#28646E"/>
<path d="M34.4516 9.3751C34.8602 9.3751 35.1914 9.04388 35.1914 8.6353C35.1914 8.22673 34.8602 7.89551 34.4516 7.89551C34.043 7.89551 33.7118 8.22673 33.7118 8.6353C33.7118 9.04388 34.043 9.3751 34.4516 9.3751Z" fill="#28646E"/>
<path d="M15.5485 42.1046C15.9571 42.1046 16.2883 41.7734 16.2883 41.3648C16.2883 40.9562 15.9571 40.625 15.5485 40.625C15.1399 40.625 14.8087 40.9562 14.8087 41.3648C14.8087 41.7734 15.1399 42.1046 15.5485 42.1046Z" fill="#28646E"/>
<path d="M29.898 7.48716C30.3066 7.48716 30.6378 7.15594 30.6378 6.74736C30.6378 6.33879 30.3066 6.00757 29.898 6.00757C29.4894 6.00757 29.1582 6.33879 29.1582 6.74736C29.1582 7.15594 29.4894 7.48716 29.898 7.48716Z" fill="#28646E"/>
<path d="M20.1021 43.9923C20.5107 43.9923 20.8419 43.6611 20.8419 43.2525C20.8419 42.8439 20.5107 42.5127 20.1021 42.5127C19.6935 42.5127 19.3623 42.8439 19.3623 43.2525C19.3623 43.6611 19.6935 43.9923 20.1021 43.9923Z" fill="#28646E"/>
</g>
<defs>
<linearGradient id="paint0_linear_932_2613" x1="0" y1="25" x2="50" y2="25" gradientUnits="userSpaceOnUse">
<stop stop-color="#D2F0F0"/>
<stop offset="1" stop-color="#F0E6B4"/>
</linearGradient>
<clipPath id="clip0_932_2613">
<rect width="50" height="50" fill="white"/>
</clipPath>
</defs>
</svg>
