<svg width="50" height="50" viewBox="0 0 50 50" fill="none" xmlns="http://www.w3.org/2000/svg">
<g clip-path="url(#clip0_945_2833)">
<circle cx="25" cy="25" r="25" fill="#D9D9D9" fill-opacity="0.05"/>
<path opacity="0.592" fill-rule="evenodd" clip-rule="evenodd" d="M25.2367 2C25.4085 2 25.5802 2 25.752 2C26.21 2.34351 26.6679 2.68702 27.126 3.03053C26.6812 2.92261 26.2805 2.72223 25.9237 2.42939C25.5848 2.34429 25.2413 2.31567 24.8932 2.34351C25.0077 2.22901 25.1221 2.1145 25.2367 2Z" fill="#997B46"/>
<path opacity="0.765" fill-rule="evenodd" clip-rule="evenodd" d="M24.8932 2.34351C24.7901 2.58395 24.6184 2.75571 24.3779 2.85877C24.2634 2.85877 24.149 2.85877 24.0344 2.85877C24.2335 2.55815 24.5198 2.3864 24.8932 2.34351Z" fill="#8F7E49"/>
<path fill-rule="evenodd" clip-rule="evenodd" d="M24.8931 2.34331C25.2413 2.31546 25.5848 2.34409 25.9236 2.42918C26.2804 2.72202 26.6811 2.92241 27.1259 3.03033C27.1831 3.20208 27.2977 3.31659 27.4695 3.37384C27.4695 3.71735 27.4695 4.06086 27.4695 4.40437C27.0536 4.33942 26.6529 4.22492 26.2672 4.06086C26.0968 4.09034 25.9824 4.03307 25.9236 3.88911C25.8443 3.6521 25.6725 3.5376 25.4084 3.54559C24.9797 3.67467 24.5788 3.84643 24.2061 4.06086C24.0295 3.58392 24.0867 3.18316 24.3778 2.85857C24.6183 2.75551 24.7901 2.58375 24.8931 2.34331Z" fill="#EAC57B"/>
<path fill-rule="evenodd" clip-rule="evenodd" d="M24.0343 2.85864C23.8016 3.37694 23.4009 3.60595 22.832 3.54567C23.1473 3.18704 23.5481 2.95804 24.0343 2.85864Z" fill="#A2975B"/>
<path opacity="0.647" fill-rule="evenodd" clip-rule="evenodd" d="M27.126 3.03052C28.2994 3.53075 29.3873 4.16052 30.3893 4.91983C30.3321 4.91983 30.2748 4.91983 30.2176 4.91983C29.6747 4.67712 29.1594 4.39087 28.6718 4.06105C28.2711 3.83205 27.8702 3.60304 27.4695 3.37403C27.2977 3.31678 27.1832 3.20227 27.126 3.03052Z" fill="#8C6A4B"/>
<path fill-rule="evenodd" clip-rule="evenodd" d="M24.0342 2.85864C24.1488 2.85864 24.2632 2.85864 24.3777 2.85864C24.0866 3.18323 24.0294 3.58399 24.206 4.06093C23.6918 4.49029 23.1193 4.8338 22.4884 5.09147C22.3251 4.8478 22.2678 4.56155 22.3167 4.23269C22.538 4.03747 22.7098 3.80847 22.8319 3.54567C23.4008 3.60595 23.8015 3.37694 24.0342 2.85864Z" fill="#DAD083"/>
<path fill-rule="evenodd" clip-rule="evenodd" d="M22.8319 3.5459C22.7098 3.8087 22.538 4.0377 22.3167 4.23292C22.0877 4.23292 21.8586 4.23292 21.6296 4.23292C21.9449 3.8743 22.3457 3.64529 22.8319 3.5459Z" fill="#A2A165"/>
<path fill-rule="evenodd" clip-rule="evenodd" d="M27.4694 3.37402C27.8701 3.60303 28.271 3.83204 28.6717 4.06105C28.6037 4.49806 28.7182 4.8702 29.0152 5.17746C28.6512 5.23616 28.5939 5.37929 28.8434 5.60685C27.8979 5.22062 27.0391 4.70535 26.2671 4.06105C26.6529 4.22511 27.0536 4.3396 27.4694 4.40456C27.4694 4.06105 27.4694 3.71753 27.4694 3.37402Z" fill="#D0A977"/>
<path fill-rule="evenodd" clip-rule="evenodd" d="M21.6298 4.23267C21.4049 4.73947 21.0041 4.96848 20.4275 4.91969C20.7428 4.56106 21.1435 4.33206 21.6298 4.23267Z" fill="#98A067"/>
<path fill-rule="evenodd" clip-rule="evenodd" d="M28.6717 4.06104C29.1593 4.39086 29.6746 4.67711 30.2175 4.91981C30.2307 5.13447 30.3453 5.2776 30.561 5.3492C30.3501 5.60515 30.3501 5.86279 30.561 6.1221C30.0755 6.10771 29.6174 5.99322 29.187 5.77859C29.0166 5.80806 28.9022 5.7508 28.8435 5.60684C28.5939 5.37928 28.6513 5.23615 29.0152 5.17745C28.7183 4.87019 28.6037 4.49805 28.6717 4.06104Z" fill="#DEB08C"/>
<path opacity="0.733" fill-rule="evenodd" clip-rule="evenodd" d="M20.4275 4.91968C20.2582 5.24734 19.972 5.41909 19.5687 5.43494C19.7679 5.13432 20.0541 4.96257 20.4275 4.91968Z" fill="#788858"/>
<path fill-rule="evenodd" clip-rule="evenodd" d="M21.6298 4.23267C21.8588 4.23267 22.0878 4.23267 22.3168 4.23267C22.268 4.56153 22.3252 4.84777 22.4886 5.09144C22.1451 5.32045 21.8015 5.54947 21.458 5.77847C20.9151 6.02117 20.3998 6.30742 19.9122 6.63725C19.8478 6.25979 19.7333 5.91628 19.5687 5.60671C19.5687 5.54947 19.5687 5.4922 19.5687 5.43496C19.972 5.4191 20.2582 5.24735 20.4275 4.91969C21.0041 4.96848 21.4049 4.73947 21.6298 4.23267Z" fill="#C8D58D"/>
<path opacity="0.58" fill-rule="evenodd" clip-rule="evenodd" d="M25.9237 3.88931C25.7376 3.88255 25.5659 3.82528 25.4084 3.71756C24.1946 4.49609 22.935 5.18311 21.6298 5.77863C21.5725 5.77863 21.5153 5.77863 21.458 5.77863C21.8015 5.54962 22.145 5.3206 22.4885 5.0916C23.1194 4.83393 23.6919 4.49042 24.2061 4.06107C24.5788 3.84663 24.9797 3.67487 25.4084 3.5458C25.6725 3.5378 25.8443 3.65231 25.9237 3.88931Z" fill="#918851"/>
<path fill-rule="evenodd" clip-rule="evenodd" d="M23.0038 22.0956C21.1568 20.8188 19.2675 19.5878 17.3358 18.4029C16.5859 18.0847 15.8416 17.7698 15.103 17.4582C13.3376 16.4604 11.5628 15.4585 9.77857 14.4525C9.63143 14.3341 9.51693 14.191 9.43506 14.0231C12.2745 12.231 15.1944 10.5706 18.1946 9.04218C19.1973 8.69769 20.1706 8.2683 21.1144 7.75401C22.3229 6.92086 23.5824 6.17659 24.8931 5.52118C25.1794 5.40668 25.4655 5.40668 25.7518 5.52118C30.7991 8.21569 35.78 10.9924 40.6946 13.8513C35.7769 16.9409 30.796 19.9466 25.7518 22.8685C25.3511 22.9831 24.9503 22.9831 24.5496 22.8685C24.0865 22.4955 23.5712 22.2378 23.0038 22.0956Z" fill="#20DD8B"/>
<path fill-rule="evenodd" clip-rule="evenodd" d="M30.2177 4.91986C30.2748 4.91986 30.3322 4.91986 30.3894 4.91986C30.5598 4.89039 30.6742 4.94766 30.7329 5.09162C31.241 5.54358 31.699 6.05885 32.107 6.63742C32.0498 6.80918 31.9352 6.92369 31.7635 6.98093C31.4936 6.84191 31.2073 6.78467 30.9047 6.80918C30.8207 6.55237 30.7063 6.32337 30.5612 6.12215C30.3502 5.86284 30.3502 5.6052 30.5612 5.34925C30.3454 5.27765 30.2309 5.13453 30.2177 4.91986Z" fill="#D7A693"/>
<path fill-rule="evenodd" clip-rule="evenodd" d="M19.5687 5.4353C19.5687 5.49255 19.5687 5.54981 19.5687 5.60706C19.2793 6.00512 18.8785 6.17687 18.3665 6.12233C18.6817 5.7637 19.0825 5.5347 19.5687 5.4353Z" fill="#8DA66F"/>
<path fill-rule="evenodd" clip-rule="evenodd" d="M29.187 5.77856C29.6174 5.99319 30.0755 6.10768 30.5611 6.12208C30.7062 6.32329 30.8206 6.55229 30.9046 6.8091C30.2737 6.55143 29.7012 6.20792 29.187 5.77856Z" fill="#A9826D"/>
<path fill-rule="evenodd" clip-rule="evenodd" d="M30.7329 5.09155C31.2192 5.19095 31.6199 5.41995 31.9352 5.77858C32.1641 6.00758 32.3933 6.2366 32.6222 6.4656C32.6222 6.75186 32.6222 7.03811 32.6222 7.32438C32.4005 7.28362 32.2287 7.34086 32.107 7.49613C31.6769 7.30997 31.2762 7.08096 30.9047 6.80911C31.2073 6.7846 31.4936 6.84185 31.7634 6.98087C31.9352 6.92362 32.0498 6.80911 32.107 6.63735C31.699 6.05878 31.241 5.54351 30.7329 5.09155Z" fill="#BD8F87"/>
<path opacity="0.62" fill-rule="evenodd" clip-rule="evenodd" d="M31.9351 5.77856C32.9944 6.22176 33.9678 6.79428 34.8549 7.49612C34.1107 7.15261 33.3663 6.8091 32.6221 6.46559C32.3931 6.23659 32.164 6.00757 31.9351 5.77856Z" fill="#785358"/>
<path opacity="0.792" fill-rule="evenodd" clip-rule="evenodd" d="M18.3663 6.12231C18.1971 6.44997 17.9108 6.62173 17.5076 6.63758C17.7067 6.33696 17.9929 6.1652 18.3663 6.12231Z" fill="#729060"/>
<path opacity="0.682" fill-rule="evenodd" clip-rule="evenodd" d="M21.4579 5.77856C21.5152 5.77856 21.5724 5.77856 21.6297 5.77856C20.6627 6.49209 19.6321 7.12187 18.5381 7.66788C18.4236 7.66788 18.3091 7.66788 18.1946 7.66788C18.7182 7.26207 19.2908 6.91856 19.9121 6.63734C20.3997 6.30752 20.915 6.02127 21.4579 5.77856Z" fill="#7E8E5E"/>
<path fill-rule="evenodd" clip-rule="evenodd" d="M32.6221 6.46582C33.3663 6.80933 34.1107 7.15284 34.8549 7.49635C35.0253 7.46688 35.1397 7.52414 35.1984 7.66811C35.2556 7.78262 35.313 7.89711 35.3702 8.01162C35.2498 8.3702 35.078 8.71371 34.8549 9.04215C34.3687 8.94276 33.968 8.71376 33.6526 8.35513C33.2521 7.87896 32.7368 7.59269 32.1068 7.49635C32.2286 7.34109 32.4003 7.28384 32.6221 7.3246C32.6221 7.03833 32.6221 6.75209 32.6221 6.46582Z" fill="#C48F9C"/>
<path fill-rule="evenodd" clip-rule="evenodd" d="M17.5076 6.63721C17.2827 7.14401 16.8819 7.37303 16.3053 7.32423C16.6206 6.9656 17.0213 6.7366 17.5076 6.63721Z" fill="#85AF7B"/>
<path fill-rule="evenodd" clip-rule="evenodd" d="M19.5687 5.60693C19.7332 5.91651 19.8477 6.26002 19.9122 6.63747C19.2908 6.91868 18.7183 7.26219 18.1946 7.668C17.5648 8.01151 16.9351 8.35502 16.3053 8.69854C16.2577 8.31585 16.086 8.0296 15.79 7.83976C16.0305 7.73669 16.2023 7.56493 16.3053 7.32449C16.8819 7.37329 17.2827 7.14427 17.5076 6.63747C17.9108 6.62161 18.1971 6.44986 18.3664 6.1222C18.8785 6.17675 19.2792 6.00499 19.5687 5.60693Z" fill="#AFDE9D"/>
<path fill-rule="evenodd" clip-rule="evenodd" d="M32.1068 7.49634C32.7368 7.59268 33.2521 7.87894 33.6526 8.35512C33.0528 8.19887 32.5376 7.9126 32.1068 7.49634Z" fill="#926B6A"/>
<path fill-rule="evenodd" clip-rule="evenodd" d="M16.3053 7.32446C16.2023 7.5649 16.0306 7.73666 15.7901 7.83973C15.3776 8.24708 14.8623 8.47608 14.2443 8.52675C14.8413 7.99033 15.5283 7.58957 16.3053 7.32446Z" fill="#72A978"/>
<path fill-rule="evenodd" clip-rule="evenodd" d="M35.3702 8.01147C35.6842 8.23381 36.0277 8.40557 36.4008 8.52674C36.4884 9.02274 36.374 9.42349 36.0573 9.72903C35.571 9.62964 35.1703 9.40063 34.855 9.04201C35.0781 8.71356 35.2498 8.37005 35.3702 8.01147Z" fill="#C086A8"/>
<path fill-rule="evenodd" clip-rule="evenodd" d="M36.4008 8.52661C36.7949 8.694 37.1385 8.92301 37.4313 9.21363C37.4035 9.56183 37.4322 9.90535 37.5172 10.2442C37.7966 10.4215 37.9969 10.6505 38.1183 10.9312C37.3413 10.6661 36.6543 10.2653 36.0573 9.7289C36.374 9.42336 36.4884 9.02261 36.4008 8.52661Z" fill="#B278A6"/>
<path opacity="0.592" fill-rule="evenodd" clip-rule="evenodd" d="M35.1985 7.66797C36.9449 8.51187 38.6051 9.48514 40.1794 10.5878C39.9504 10.5306 39.7213 10.4733 39.4924 10.4161C38.8631 9.9292 38.176 9.52843 37.4313 9.21377C37.1385 8.92314 36.795 8.69414 36.4008 8.52675C36.0277 8.40557 35.6842 8.23382 35.3702 8.01148C35.313 7.89697 35.2557 7.78248 35.1985 7.66797Z" fill="#764B6F"/>
<path fill-rule="evenodd" clip-rule="evenodd" d="M15.7901 7.83984C16.086 8.02969 16.2578 8.31593 16.3054 8.69862C15.0458 9.44289 13.7863 10.1872 12.5267 10.9314C12.5267 10.5879 12.5267 10.2444 12.5267 9.90091C12.7481 9.70569 12.9198 9.47669 13.042 9.21389C13.3573 8.85526 13.758 8.62626 14.2443 8.52687C14.8623 8.4762 15.3776 8.2472 15.7901 7.83984Z" fill="#94E4AB"/>
<path opacity="0.616" fill-rule="evenodd" clip-rule="evenodd" d="M18.1947 7.66797C18.3092 7.66797 18.4237 7.66797 18.5382 7.66797C16.4832 8.86768 14.4221 10.07 12.355 11.2748C12.355 11.2176 12.355 11.1603 12.355 11.1031C12.355 10.9886 12.4122 10.9313 12.5267 10.9313C13.7863 10.1871 15.0458 9.44277 16.3054 8.6985C16.9351 8.35499 17.5649 8.01148 18.1947 7.66797Z" fill="#5D9065"/>
<path fill-rule="evenodd" clip-rule="evenodd" d="M13.0419 9.21362C12.9198 9.47643 12.748 9.70543 12.5266 9.90065C12.024 10.1063 11.5088 10.2781 10.9808 10.4159C11.5778 9.87949 12.2648 9.47873 13.0419 9.21362Z" fill="#60AE84"/>
<path fill-rule="evenodd" clip-rule="evenodd" d="M37.4313 9.21362C38.176 9.52828 38.8631 9.92905 39.4924 10.4159C39.4924 10.7022 39.4924 10.9884 39.4924 11.2747C38.7767 11.2152 38.4618 10.8145 38.5477 10.0724C38.5391 10.4578 38.3961 10.7441 38.1183 10.9312C37.9969 10.6505 37.7966 10.4215 37.5172 10.2442C37.4322 9.90533 37.4035 9.56182 37.4313 9.21362Z" fill="#BC7ABF"/>
<path fill-rule="evenodd" clip-rule="evenodd" d="M39.4923 10.416C39.7213 10.4733 39.9504 10.5305 40.1794 10.5878C40.1794 10.645 40.1794 10.7023 40.1794 10.7595C39.982 10.8095 39.8674 10.9527 39.8358 11.1889C39.8645 11.332 39.893 11.4752 39.9217 11.6183C40.432 12.0316 40.9186 12.4324 41.3816 12.8206C40.2082 12.3204 39.1203 11.6906 38.1183 10.9313C38.396 10.7442 38.5391 10.4579 38.5477 10.0725C38.4618 10.8146 38.7766 11.2153 39.4923 11.2748C39.4923 10.9885 39.4923 10.7023 39.4923 10.416Z" fill="#9B5FA7"/>
<path opacity="0.416" fill-rule="evenodd" clip-rule="evenodd" d="M10.9809 10.416C10.6785 10.7696 10.2777 10.9986 9.77856 11.103C10.0938 10.7444 10.4946 10.5154 10.9809 10.416Z" fill="#469870"/>
<path opacity="0.573" fill-rule="evenodd" clip-rule="evenodd" d="M40.1793 10.7596C40.1793 10.7024 40.1793 10.6451 40.1793 10.5879C40.6656 10.6873 41.0663 10.9163 41.3816 11.2749C40.9601 11.15 40.5594 10.9783 40.1793 10.7596Z" fill="#683A76"/>
<path fill-rule="evenodd" clip-rule="evenodd" d="M12.5267 9.90088C12.5267 10.2444 12.5267 10.5879 12.5267 10.9314C12.4122 10.9314 12.355 10.9887 12.355 11.1032C10.6053 11.9639 8.91639 12.9372 7.28816 14.023C7.17366 21.0078 7.17366 27.9924 7.28816 34.9772C8.71612 35.8188 10.1188 36.6776 11.4962 37.5535C11.5688 37.9453 11.4543 38.2316 11.1527 38.4123C10.9237 38.3551 10.6946 38.2978 10.4656 38.2406C10.1817 38.2131 9.95273 38.0987 9.77862 37.897C9.63366 37.5091 9.34739 37.3373 8.91984 37.3818C8.83859 37.1403 8.66683 37.0257 8.40458 37.0383C8.12066 37.0108 7.89166 36.8964 7.71755 36.6948C7.6363 36.4533 7.46455 36.3387 7.20229 36.3512C6.91838 36.3238 6.68937 36.2094 6.51526 36.0077C6.46669 35.8722 6.38081 35.7577 6.25763 35.6642C6.14313 28.2215 6.14313 20.7787 6.25763 13.336C6.38081 13.2425 6.46669 13.128 6.51526 12.9925C6.75116 13.0194 6.98017 12.9908 7.20229 12.9066C7.76452 12.6388 8.22253 12.2666 8.57633 11.7902C9.06259 11.6908 9.46335 11.4618 9.77862 11.1032C10.2778 10.9987 10.6786 10.7697 10.9809 10.4161C11.5089 10.2783 12.0241 10.1066 12.5267 9.90088Z" fill="#7AEDBB"/>
<path fill-rule="evenodd" clip-rule="evenodd" d="M40.1793 10.7595C40.5594 10.9781 40.9601 11.1499 41.3816 11.2748C41.697 11.6334 42.0977 11.8624 42.5839 11.9618C42.5839 12.0191 42.5839 12.0763 42.5839 12.1336C42.3117 12.3008 42.1399 12.5584 42.0686 12.9065C42.3371 13.0368 42.5088 13.2372 42.5839 13.5076C42.3 13.4802 42.071 13.3657 41.8969 13.1641C41.8156 12.9226 41.6439 12.8081 41.3816 12.8206C40.9186 12.4324 40.432 12.0316 39.9217 11.6183C39.893 11.4752 39.8645 11.332 39.8358 11.1889C39.8674 10.9526 39.982 10.8095 40.1793 10.7595Z" fill="#AF69C8"/>
<path opacity="0.514" fill-rule="evenodd" clip-rule="evenodd" d="M9.77871 11.1028C9.46343 11.4614 9.06267 11.6904 8.57642 11.7898C8.89169 11.4312 9.29245 11.2022 9.77871 11.1028Z" fill="#408E6C"/>
<path opacity="0.557" fill-rule="evenodd" clip-rule="evenodd" d="M41.3817 11.2747C41.868 11.3741 42.2687 11.6031 42.584 11.9617C42.0978 11.8623 41.6971 11.6333 41.3817 11.2747Z" fill="#613479"/>
<path fill-rule="evenodd" clip-rule="evenodd" d="M8.57633 11.79C8.22253 12.2665 7.76452 12.6386 7.20228 12.9065C6.98016 12.9906 6.75115 13.0192 6.51526 12.9923C7.11225 12.4559 7.79927 12.0551 8.57633 11.79Z" fill="#5BB78E"/>
<path fill-rule="evenodd" clip-rule="evenodd" d="M42.5839 12.1335C43.2108 12.4722 43.8404 12.8157 44.4732 13.1641C44.6736 20.6634 44.7021 28.1635 44.5591 35.6641C43.9589 36.1215 43.3006 36.465 42.5839 36.6946C42.3705 36.3702 42.3705 36.0266 42.5839 35.6641C42.7278 35.6053 42.7852 35.4909 42.7556 35.3206C43.0425 35.2774 43.3001 35.1629 43.5285 34.977C43.6144 27.9352 43.6431 20.8933 43.6144 13.8511C43.4426 13.8511 43.2709 13.8511 43.0991 13.8511C43.0179 13.6096 42.8461 13.4951 42.5839 13.5076C42.5088 13.2372 42.3371 13.0368 42.0686 12.9064C42.1399 12.5584 42.3116 12.3008 42.5839 12.1335Z" fill="#AB60D5"/>
<path opacity="0.369" fill-rule="evenodd" clip-rule="evenodd" d="M41.3817 12.8205C41.644 12.808 41.8157 12.9225 41.897 13.164C41.6347 13.1766 41.463 13.062 41.3817 12.8205Z" fill="#562E78"/>
<path opacity="0.451" fill-rule="evenodd" clip-rule="evenodd" d="M42.584 13.5078C42.8463 13.4952 43.018 13.6097 43.0993 13.8513C42.837 13.8638 42.6652 13.7493 42.584 13.5078Z" fill="#552B75"/>
<path fill-rule="evenodd" clip-rule="evenodd" d="M42.0687 33.4311C41.9945 33.6389 41.8799 33.8106 41.7252 33.9463C41.7149 33.8531 41.6577 33.7959 41.5534 33.7746C38.0034 36.0081 34.3965 38.155 30.7328 40.2154C30.4644 40.3458 30.2926 40.5462 30.2175 40.8166C30.1588 40.9605 30.0444 41.0179 29.874 40.9883C28.9005 41.3593 27.9844 41.8459 27.1259 42.4482C26.9039 42.5324 26.6747 42.5611 26.4389 42.5341C26.4959 36.5507 26.4386 30.5964 26.2672 24.6715C26.2524 24.5005 26.3098 24.3574 26.4389 24.2421C30.3136 21.9904 34.2067 19.7861 38.1183 17.6295C38.5728 17.4601 39.0307 17.2883 39.4923 17.1143C40.2094 16.6125 40.9538 16.1545 41.7252 15.7402C41.9132 20.4056 41.9132 25.0717 41.7252 29.7383C41.7257 31.0322 41.8401 32.263 42.0687 33.4311Z" fill="#AC60D7"/>
<path opacity="0.682" fill-rule="evenodd" clip-rule="evenodd" d="M23.0037 22.0954C23.5712 22.2376 24.0865 22.4952 24.5495 22.8683C24.9502 22.9828 25.3511 22.9828 25.7518 22.8683C30.7959 19.9464 35.7769 16.9407 40.6946 13.8511C35.78 10.9921 30.799 8.21544 25.7518 5.52094C25.4655 5.40643 25.1794 5.40643 24.893 5.52094C23.5824 6.17634 22.3229 6.92061 21.1144 7.75376C20.1706 8.26805 19.1973 8.69744 18.1946 9.04193C20.5 7.63003 22.8759 6.31325 25.3224 5.09155C30.5148 7.87381 35.696 10.6792 40.8663 13.5076C41.0805 13.7663 41.0805 14.0239 40.8663 14.2805C35.8282 17.2576 30.7899 20.2347 25.7518 23.2118C24.6911 23.2135 23.7751 22.8415 23.0037 22.0954Z" fill="#20CB81"/>
<path fill-rule="evenodd" clip-rule="evenodd" d="M24.3778 25.0151C19.4409 22.1734 14.5173 19.2822 9.60684 16.3414C9.38472 16.2573 9.1557 16.2286 8.91981 16.2556C8.89118 22.1528 8.91981 28.0497 9.00569 33.9464C9.30982 34.254 9.6247 34.5402 9.95035 34.8052C9.38488 34.7095 8.95549 34.4232 8.66218 33.9464C8.51976 27.8941 8.54839 21.8539 8.74806 15.8262C9.33498 15.9453 9.90751 16.1743 10.4656 16.5132C14.9313 19.1468 19.3969 21.7804 23.8626 24.414C24.131 24.5443 24.3028 24.7448 24.3778 25.0151Z" fill="#ECB12B"/>
<path fill-rule="evenodd" clip-rule="evenodd" d="M24.3778 25.0154C24.4924 25.0154 24.5496 25.0726 24.5496 25.1872C24.5243 30.9966 24.5243 36.8363 24.5496 42.7062C24.0181 42.5838 23.5029 42.412 23.0038 42.191C18.5637 39.8652 14.2125 37.4035 9.95033 34.8055C9.62468 34.5405 9.3098 34.2543 9.00567 33.9467C8.91979 28.05 8.89116 22.1531 8.91979 16.2559C9.15568 16.229 9.3847 16.2576 9.60682 16.3418C14.5173 19.2826 19.4409 22.1737 24.3778 25.0154Z" fill="#FEBD2D"/>
<path opacity="0.176" fill-rule="evenodd" clip-rule="evenodd" d="M12.3551 11.1028C12.3551 11.16 12.3551 11.2173 12.3551 11.2745C10.7713 12.1669 9.19685 13.0829 7.63178 14.0226C7.48866 21.0081 7.51729 27.9927 7.71766 34.9768C10.1899 36.3261 12.5945 37.7574 14.9314 39.2707C14.8742 39.2707 14.8169 39.2707 14.7596 39.2707C13.6944 38.6522 12.6066 38.0798 11.4963 37.5532C10.1189 36.6772 8.71623 35.8184 7.28827 34.9768C7.17377 27.992 7.17377 21.0074 7.28827 14.0226C8.9165 12.9368 10.6054 11.9635 12.3551 11.1028Z" fill="#4D9A76"/>
<path opacity="0.677" fill-rule="evenodd" clip-rule="evenodd" d="M43.0991 13.8511C43.2709 13.8511 43.4426 13.8511 43.6144 13.8511C43.6431 20.8932 43.6144 27.9352 43.5285 34.977C43.3001 35.1629 43.0424 35.2774 42.7556 35.3205C42.8956 35.0909 43.096 34.9191 43.3568 34.8053C43.3854 31.3415 43.414 27.8778 43.4426 24.414C43.4407 20.8558 43.3262 17.3348 43.0991 13.8511Z" fill="#6E3D8C"/>
<path opacity="0.631" fill-rule="evenodd" clip-rule="evenodd" d="M6.51527 12.9922C6.46669 13.1277 6.38081 13.2422 6.25763 13.3357C6.14313 20.7784 6.14313 28.2212 6.25763 35.6639C6.38081 35.7574 6.46669 35.8719 6.51527 36.0074C6.3248 35.9977 6.15304 35.9405 6 35.8357C6 28.2784 6 20.7212 6 13.1639C6.15304 13.0592 6.3248 13.002 6.51527 12.9922Z" fill="#4D987B"/>
<path opacity="0.517" fill-rule="evenodd" clip-rule="evenodd" d="M15.1029 17.4578C15.8416 17.7694 16.5858 18.0843 17.3357 18.4024C19.2674 19.5874 21.1567 20.8183 23.0037 22.0952C20.3122 20.6354 17.6786 19.0896 15.1029 17.4578Z" fill="#20CC82"/>
<path opacity="0.888" fill-rule="evenodd" clip-rule="evenodd" d="M42.0687 33.4314C41.8401 32.2633 41.7257 31.0325 41.7252 29.7387C41.9132 25.072 41.9132 20.406 41.7252 15.7406C40.9538 16.1549 40.2094 16.6129 39.4923 17.1146C39.0307 17.2887 38.5728 17.4604 38.1183 17.6299C39.2234 16.8755 40.3685 16.1599 41.5534 15.4829C41.7739 15.3655 41.9744 15.3941 42.1545 15.5688C42.2262 21.5234 42.1975 27.4775 42.0687 33.4314Z" fill="#A05AC7"/>
<path opacity="0.839" fill-rule="evenodd" clip-rule="evenodd" d="M42.584 12.1337C42.584 12.0764 42.584 12.0192 42.584 11.9619C43.3282 12.3054 44.0726 12.6489 44.8168 12.9924C44.8168 20.6069 44.8168 28.2215 44.8168 35.8359C43.3282 36.6947 41.8398 37.5535 40.3512 38.4123C40.3512 38.3551 40.3512 38.2977 40.3512 38.2405C40.4896 38.0296 40.6614 37.8579 40.8665 37.7253C41.4973 37.4676 42.0698 37.1241 42.584 36.6947C43.3008 36.4651 43.9591 36.1216 44.5592 35.6642C44.7023 28.1636 44.6738 20.6636 44.4733 13.1642C43.8406 12.8158 43.2109 12.4723 42.584 12.1337Z" fill="#774295"/>
<path opacity="0.58" fill-rule="evenodd" clip-rule="evenodd" d="M24.5496 25.187C24.7543 31.1284 24.8687 37.0826 24.8931 43.0496C24.1484 42.9917 23.5185 42.7054 23.0038 42.1908C23.5029 42.4119 24.0182 42.5836 24.5496 42.7061C24.5243 36.8362 24.5243 30.9965 24.5496 25.187Z" fill="#E7AB28"/>
<path opacity="0.831" fill-rule="evenodd" clip-rule="evenodd" d="M42.7558 35.3206C42.7853 35.4909 42.7279 35.6053 42.584 35.6641C42.355 35.7213 42.1259 35.7786 41.897 35.8358C42.096 35.5353 42.3824 35.3635 42.7558 35.3206Z" fill="#703D8A"/>
<path fill-rule="evenodd" clip-rule="evenodd" d="M42.5839 35.6641C42.3706 36.0266 42.3706 36.3701 42.5839 36.6946C42.0697 37.124 41.4972 37.4675 40.8664 37.7251C40.6469 37.3741 40.6754 37.0306 40.9523 36.6946C41.3602 36.4859 41.6752 36.1998 41.8969 35.8358C42.1259 35.7786 42.355 35.7213 42.5839 35.6641Z" fill="#AF66CF"/>
<path opacity="0.4" fill-rule="evenodd" clip-rule="evenodd" d="M41.7253 33.9464C37.9192 36.2792 34.0834 38.5692 30.2177 40.8166C30.2927 40.5463 30.4645 40.3459 30.7329 40.2155C34.3966 38.1551 38.0035 36.0082 41.5535 33.7747C41.6578 33.796 41.715 33.8532 41.7253 33.9464Z" fill="#9F5AC5"/>
<path opacity="0.388" fill-rule="evenodd" clip-rule="evenodd" d="M7.20239 36.3513C7.46465 36.3387 7.63641 36.4533 7.71766 36.6948C7.4554 36.7073 7.28364 36.5928 7.20239 36.3513Z" fill="#38805F"/>
<path opacity="0.424" fill-rule="evenodd" clip-rule="evenodd" d="M8.40454 37.038C8.66679 37.0255 8.83855 37.1401 8.91981 37.3815C8.65755 37.3941 8.4858 37.2795 8.40454 37.038Z" fill="#3A8A66"/>
<path opacity="0.863" fill-rule="evenodd" clip-rule="evenodd" d="M26.2672 24.6719C26.4386 30.5968 26.496 36.551 26.439 42.5345C26.6748 42.5614 26.9039 42.5327 27.126 42.4486C27.9844 41.8462 28.9006 41.3597 29.8741 40.9887C28.8837 41.6858 27.8532 42.3442 26.7825 42.9639C26.6195 43.0698 26.4764 43.0413 26.3531 42.878C26.0694 36.7824 26.0408 30.7137 26.2672 24.6719Z" fill="#A15DC8"/>
<path fill-rule="evenodd" clip-rule="evenodd" d="M41.8969 35.8357C41.6752 36.1996 41.3602 36.4858 40.9522 36.6945C40.6754 37.0304 40.6469 37.3739 40.8664 37.725C40.6613 37.8576 40.4895 38.0294 40.3511 38.2403C40.0447 38.3078 39.7585 38.4222 39.4923 38.5838C39.3807 38.2514 39.3235 37.9079 39.3206 37.5532C39.4645 37.4945 39.5219 37.3801 39.4923 37.2097C40.2365 36.6654 41.0381 36.2074 41.8969 35.8357Z" fill="#AE6BBD"/>
<path opacity="0.329" fill-rule="evenodd" clip-rule="evenodd" d="M8.9198 37.3816C9.34735 37.3371 9.63362 37.5089 9.77858 37.8969C9.44639 37.7921 9.16014 37.6204 8.9198 37.3816Z" fill="#439C6D"/>
<path fill-rule="evenodd" clip-rule="evenodd" d="M39.4923 37.21C39.5219 37.3803 39.4645 37.4947 39.3206 37.5535C39.0386 37.825 38.695 37.9394 38.29 37.897C38.6054 37.5384 39.0061 37.3094 39.4923 37.21Z" fill="#8E5A93"/>
<path opacity="0.725" fill-rule="evenodd" clip-rule="evenodd" d="M10.4656 38.2407C10.6946 38.2979 10.9236 38.3553 11.1526 38.4125C11.2098 38.527 11.2671 38.6414 11.3244 38.756C10.951 38.7131 10.6647 38.5413 10.4656 38.2407Z" fill="#43926E"/>
<path fill-rule="evenodd" clip-rule="evenodd" d="M39.3206 37.5532C39.3235 37.9079 39.3807 38.2514 39.4923 38.5838C38.8053 38.9845 38.1183 39.3853 37.4313 39.786C37.4313 39.3853 37.4313 38.9845 37.4313 38.5838C37.8255 38.4745 38.1116 38.2456 38.2901 37.8967C38.6951 37.9392 39.0386 37.8248 39.3206 37.5532Z" fill="#BD7CBD"/>
<path fill-rule="evenodd" clip-rule="evenodd" d="M11.4961 37.5532C12.6064 38.0798 13.6942 38.6523 14.7595 39.2708C14.9885 39.4425 15.2175 39.6143 15.4465 39.786C15.4465 40.1296 15.4465 40.4731 15.4465 40.8166C15.2747 40.8166 15.103 40.8166 14.9312 40.8166C14.6473 40.7891 14.4183 40.6747 14.2442 40.4731C14.1629 40.2316 13.9912 40.117 13.7289 40.1296C13.169 39.9107 12.6538 39.6246 12.1831 39.2708C12.1019 39.0293 11.9301 38.9147 11.6679 38.9273C11.4975 38.9568 11.383 38.8994 11.3243 38.7555C11.2671 38.641 11.2098 38.5266 11.1526 38.412C11.4542 38.2313 11.5687 37.945 11.4961 37.5532Z" fill="#8AE1AB"/>
<path fill-rule="evenodd" clip-rule="evenodd" d="M38.2899 37.897C38.1115 38.2458 37.8253 38.4748 37.4312 38.584C37.3166 38.584 37.2022 38.584 37.0876 38.584C37.403 38.2254 37.8037 37.9964 38.2899 37.897Z" fill="#905F8B"/>
<path opacity="0.745" fill-rule="evenodd" clip-rule="evenodd" d="M37.0878 38.584C36.9184 38.9117 36.6323 39.0834 36.229 39.0993C36.4281 38.7987 36.7144 38.6269 37.0878 38.584Z" fill="#7A506D"/>
<path opacity="0.412" fill-rule="evenodd" clip-rule="evenodd" d="M11.668 38.9274C11.9302 38.9149 12.102 39.0295 12.1832 39.271C11.921 39.2835 11.7492 39.1689 11.668 38.9274Z" fill="#44825E"/>
<path fill-rule="evenodd" clip-rule="evenodd" d="M37.0878 38.584C37.2024 38.584 37.3167 38.584 37.4313 38.584C37.4313 38.9847 37.4313 39.3856 37.4313 39.7863C36.8588 40.1298 36.2862 40.4733 35.7138 40.8168C35.5178 40.4649 35.5178 40.1214 35.7138 39.7863C35.9351 39.591 36.1069 39.362 36.229 39.0993C36.6323 39.0834 36.9184 38.9117 37.0878 38.584Z" fill="#C487B2"/>
<path fill-rule="evenodd" clip-rule="evenodd" d="M36.229 39.0994C36.1069 39.3622 35.9351 39.5911 35.7138 39.7864C35.4848 39.7864 35.2557 39.7864 35.0267 39.7864C35.3421 39.4278 35.7428 39.1988 36.229 39.0994Z" fill="#996983"/>
<path fill-rule="evenodd" clip-rule="evenodd" d="M15.4465 39.7863C15.6169 39.7568 15.7314 39.8142 15.7901 39.9581C15.5973 40.2652 15.5686 40.6087 15.7042 40.9886C16.079 41.2353 16.3939 41.5216 16.6488 41.8474C16.018 41.5898 15.4455 41.2463 14.9313 40.8169C15.103 40.8169 15.2748 40.8169 15.4465 40.8169C15.4465 40.4734 15.4465 40.1299 15.4465 39.7863Z" fill="#80B883"/>
<path opacity="0.404" fill-rule="evenodd" clip-rule="evenodd" d="M40.3512 38.2407C40.3512 38.2979 40.3512 38.3553 40.3512 38.4125C38.5144 39.4451 36.6823 40.4756 34.855 41.5041C34.7978 41.5041 34.7404 41.5041 34.6832 41.5041C34.9611 41.1922 35.3046 40.9632 35.7138 40.8171C36.2862 40.4735 36.8589 40.13 37.4313 39.7865C38.1183 39.3858 38.8054 38.9849 39.4924 38.5842C39.7586 38.4226 40.0448 38.3082 40.3512 38.2407Z" fill="#794B6F"/>
<path opacity="0.357" fill-rule="evenodd" clip-rule="evenodd" d="M13.729 40.1298C13.9913 40.1173 14.163 40.2319 14.2443 40.4733C13.982 40.4859 13.8103 40.3713 13.729 40.1298Z" fill="#4A7A56"/>
<path fill-rule="evenodd" clip-rule="evenodd" d="M15.7899 39.958C16.6266 40.2893 17.3709 40.7472 18.0227 41.3321C17.9116 41.465 17.8543 41.6367 17.851 41.8473C17.9345 42.1572 18.0491 42.4435 18.1945 42.7061C17.9106 42.6786 17.6816 42.5642 17.5075 42.3626C17.4262 42.1211 17.2545 42.0065 16.9922 42.0191C16.8219 42.0486 16.7074 41.9913 16.6487 41.8473C16.3938 41.5215 16.0789 41.2352 15.704 40.9885C15.5685 40.6086 15.5971 40.2651 15.7899 39.958Z" fill="#A6DB9D"/>
<path fill-rule="evenodd" clip-rule="evenodd" d="M35.0268 39.7861C34.8019 40.293 34.401 40.5219 33.8245 40.4732C34.1398 40.1145 34.5405 39.8856 35.0268 39.7861Z" fill="#9A6E7D"/>
<path fill-rule="evenodd" clip-rule="evenodd" d="M35.0267 39.7861C35.2556 39.7861 35.4848 39.7861 35.7137 39.7861C35.5177 40.1212 35.5177 40.4647 35.7137 40.8167C35.3046 40.9628 34.9611 41.1918 34.6832 41.5037C34.2572 41.6311 33.8565 41.8029 33.4809 42.019C33.3316 41.6382 33.2744 41.2375 33.3091 40.8167C33.5975 40.8536 33.7693 40.739 33.8244 40.4732C34.401 40.5219 34.8019 40.293 35.0267 39.7861Z" fill="#CD95A6"/>
<path opacity="0.714" fill-rule="evenodd" clip-rule="evenodd" d="M14.7595 39.271C14.8168 39.271 14.874 39.271 14.9313 39.271C17.249 40.4006 19.4818 41.6601 21.6297 43.0496C21.5152 43.0496 21.4007 43.0496 21.2862 43.0496C20.9427 42.8779 20.5992 42.7061 20.2557 42.5344C19.5555 42.066 18.8113 41.6651 18.0229 41.3321C17.371 40.7472 16.6268 40.2893 15.7901 39.958C15.7314 39.8141 15.6169 39.7567 15.4465 39.7863C15.2175 39.6145 14.9885 39.4428 14.7595 39.271Z" fill="#6E8658"/>
<path fill-rule="evenodd" clip-rule="evenodd" d="M33.8244 40.4731C33.7692 40.739 33.5975 40.8536 33.3091 40.8167C33.2744 41.2375 33.3316 41.6382 33.4809 42.0189C33.4221 42.1629 33.3077 42.2202 33.1374 42.1907C33.1374 41.9044 33.1374 41.6182 33.1374 41.3319C32.6518 41.3464 32.1937 41.4607 31.7633 41.6754C32.3926 41.1885 33.0796 40.7878 33.8244 40.4731Z" fill="#A97C7F"/>
<path fill-rule="evenodd" clip-rule="evenodd" d="M18.023 41.332C18.8113 41.6651 19.5556 42.0659 20.2558 42.5343C20.1289 42.5118 20.0144 42.5405 19.9123 42.6202C20.1413 42.8491 20.1413 43.0783 19.9123 43.3072C20.1236 43.5485 20.3526 43.7488 20.5993 43.9084C20.4848 43.9084 20.3703 43.9084 20.2558 43.9084C20.0855 43.9379 19.971 43.8805 19.9123 43.7366C19.831 43.4951 19.6593 43.3806 19.397 43.3931C19.1131 43.3656 18.8841 43.2512 18.71 43.0496C18.6287 42.8081 18.457 42.6935 18.1947 42.7061C18.0493 42.4435 17.9348 42.1571 17.8512 41.8473C17.8545 41.6367 17.9118 41.465 18.023 41.332Z" fill="#B7D592"/>
<path opacity="0.812" fill-rule="evenodd" clip-rule="evenodd" d="M31.7633 41.6755C31.594 42.0032 31.3078 42.175 30.9045 42.1908C31.1036 41.8902 31.3899 41.7185 31.7633 41.6755Z" fill="#8F6B60"/>
<path opacity="0.388" fill-rule="evenodd" clip-rule="evenodd" d="M34.6832 41.5037C34.7404 41.5037 34.7977 41.5037 34.8549 41.5037C33.5831 42.3154 32.2662 43.0596 30.9045 43.7365C31.6189 43.1788 32.3631 42.6635 33.1374 42.1907C33.3077 42.2202 33.4221 42.1629 33.4809 42.0189C33.8565 41.8029 34.2572 41.6311 34.6832 41.5037Z" fill="#7B5656"/>
<path opacity="0.38" fill-rule="evenodd" clip-rule="evenodd" d="M16.9924 42.019C17.2547 42.0065 17.4264 42.121 17.5077 42.3625C17.2454 42.375 17.0737 42.2605 16.9924 42.019Z" fill="#577B4E"/>
<path fill-rule="evenodd" clip-rule="evenodd" d="M33.1375 42.1908C32.3632 42.6637 31.619 43.1789 30.9047 43.7366C30.8475 43.7366 30.7901 43.7366 30.7329 43.7366C30.7329 43.3359 30.7329 42.935 30.7329 42.5343C30.8768 42.4756 30.9342 42.3612 30.9047 42.1908C31.3079 42.175 31.5941 42.0033 31.7634 41.6755C32.1939 41.4608 32.6519 41.3465 33.1375 41.332C33.1375 41.6183 33.1375 41.9045 33.1375 42.1908Z" fill="#D6A497"/>
<path opacity="0.773" fill-rule="evenodd" clip-rule="evenodd" d="M30.9047 42.1907C30.9342 42.3611 30.8769 42.4754 30.7329 42.5342C30.3894 42.6487 30.0459 42.7631 29.7024 42.8777C30.0177 42.5191 30.4184 42.2901 30.9047 42.1907Z" fill="#92715D"/>
<path opacity="0.384" fill-rule="evenodd" clip-rule="evenodd" d="M18.1946 42.7062C18.4568 42.6937 18.6286 42.8083 18.7098 43.0498C18.4476 43.0623 18.2758 42.9477 18.1946 42.7062Z" fill="#577048"/>
<path fill-rule="evenodd" clip-rule="evenodd" d="M20.2557 42.5343C20.5993 42.706 20.9428 42.8778 21.2863 43.0495C21.8527 43.3905 22.4252 43.734 23.0038 44.0801C23.0552 44.4415 22.9979 44.785 22.8321 45.1106C22.5623 44.9717 22.276 44.9143 21.9733 44.9389C21.892 44.6974 21.7203 44.5828 21.458 44.5953C21.1741 44.5679 20.9451 44.4535 20.771 44.2518C20.7138 44.1373 20.6565 44.0229 20.5993 43.9083C20.3526 43.7488 20.1236 43.5485 19.9122 43.3072C20.1412 43.0782 20.1412 42.8491 19.9122 42.6202C20.0143 42.5405 20.1288 42.5118 20.2557 42.5343Z" fill="#CCD289"/>
<path opacity="0.408" fill-rule="evenodd" clip-rule="evenodd" d="M29.7023 42.8779C29.4 43.2316 28.9991 43.4605 28.5 43.565C28.8153 43.2063 29.216 42.9774 29.7023 42.8779Z" fill="#8E7255"/>
<path fill-rule="evenodd" clip-rule="evenodd" d="M30.7328 42.5342C30.7328 42.9349 30.7328 43.3358 30.7328 43.7365C30.4357 43.8268 30.2066 43.9986 30.0458 44.2517C29.6126 44.3395 29.2119 44.5113 28.8435 44.767C28.6656 44.4422 28.6656 44.1274 28.8435 43.8223C28.7415 43.7427 28.6269 43.714 28.5 43.7365C28.5 43.6793 28.5 43.6219 28.5 43.5647C28.9991 43.4603 29.4 43.2313 29.7023 42.8777C30.0458 42.7631 30.3893 42.6487 30.7328 42.5342Z" fill="#DFB28B"/>
<path opacity="0.424" fill-rule="evenodd" clip-rule="evenodd" d="M19.397 43.393C19.6592 43.3805 19.831 43.495 19.9122 43.7365C19.65 43.7491 19.4782 43.6345 19.397 43.393Z" fill="#687547"/>
<path opacity="0.361" fill-rule="evenodd" clip-rule="evenodd" d="M30.7328 43.7366C30.79 43.7366 30.8474 43.7366 30.9046 43.7366C30.7055 44.0371 30.4192 44.2089 30.0458 44.2518C30.2065 43.9987 30.4357 43.8269 30.7328 43.7366Z" fill="#7D5947"/>
<path opacity="0.365" fill-rule="evenodd" clip-rule="evenodd" d="M20.2556 43.9082C20.3701 43.9082 20.4846 43.9082 20.5991 43.9082C20.6564 44.0228 20.7136 44.1372 20.7709 44.2517C20.5086 44.2643 20.3369 44.1497 20.2556 43.9082Z" fill="#616D42"/>
<path fill-rule="evenodd" clip-rule="evenodd" d="M28.4999 43.5647C28.4999 43.6219 28.4999 43.6793 28.4999 43.7365C28.0757 43.8651 27.7322 44.1227 27.4694 44.5094C27.1228 44.5961 26.7793 44.682 26.4388 44.767C27.0359 44.2306 27.7229 43.8297 28.4999 43.5647Z" fill="#B09060"/>
<path fill-rule="evenodd" clip-rule="evenodd" d="M23.0038 44.0803C23.4681 44.369 23.926 44.6552 24.3778 44.9391C24.2509 44.9166 24.1364 44.9453 24.0343 45.025C24.1329 45.3546 24.1901 45.6696 24.2061 45.9696C24.0915 45.9696 23.9771 45.9696 23.8626 45.9696C23.5787 45.9422 23.3497 45.8278 23.1756 45.6261C23.0943 45.3846 22.9225 45.2701 22.6603 45.2826C22.3764 45.2551 22.1474 45.1407 21.9733 44.9391C22.276 44.9145 22.5622 44.9719 22.832 45.1109C22.9979 44.7852 23.0551 44.4417 23.0038 44.0803Z" fill="#D7C77C"/>
<path fill-rule="evenodd" clip-rule="evenodd" d="M28.4999 43.7367C28.6268 43.7142 28.7414 43.7429 28.8434 43.8225C28.6655 44.1276 28.6655 44.4424 28.8434 44.7672C28.1564 45.1679 27.4694 45.5688 26.7824 45.9695C26.8639 45.526 26.7494 45.1825 26.4388 44.939C26.4388 44.8818 26.4388 44.8244 26.4388 44.7672C26.7793 44.6822 27.1228 44.5963 27.4694 44.5096C27.7322 44.1229 28.0757 43.8653 28.4999 43.7367Z" fill="#E8BF82"/>
<path opacity="0.4" fill-rule="evenodd" clip-rule="evenodd" d="M21.458 44.5954C21.7203 44.5829 21.892 44.6974 21.9733 44.9389C21.711 44.9515 21.5393 44.8369 21.458 44.5954Z" fill="#696B42"/>
<path opacity="0.341" fill-rule="evenodd" clip-rule="evenodd" d="M21.2861 43.0496C21.4006 43.0496 21.5151 43.0496 21.6296 43.0496C22.798 43.6626 23.943 44.3209 25.0648 45.0248C25.5495 45.0983 26.0074 45.0124 26.4388 44.7671C26.4388 44.8243 26.4388 44.8817 26.4388 44.9389C26.1121 45.088 25.7973 45.2597 25.4941 45.4541C25.1072 45.3035 24.7352 45.1318 24.3777 44.9389C23.9258 44.655 23.4679 44.3688 23.0037 44.0801C22.425 43.734 21.8525 43.3905 21.2861 43.0496Z" fill="#94844B"/>
<path opacity="0.467" fill-rule="evenodd" clip-rule="evenodd" d="M30.0457 44.252C28.5571 45.1679 27.0687 46.0841 25.5801 47C25.4655 47 25.3511 47 25.2366 47C24.9503 46.7711 24.6641 46.542 24.3778 46.313C24.7498 46.3266 25.0933 46.4412 25.4083 46.6565C25.8647 46.4284 26.3228 46.1993 26.7824 45.9695C27.4694 45.5688 28.1564 45.1679 28.8435 44.7672C29.2119 44.5115 29.6126 44.3397 30.0457 44.252Z" fill="#91744A"/>
<path opacity="0.447" fill-rule="evenodd" clip-rule="evenodd" d="M22.6603 45.2824C22.9225 45.2699 23.0943 45.3844 23.1755 45.6259C22.9133 45.6385 22.7415 45.5239 22.6603 45.2824Z" fill="#797442"/>
<path fill-rule="evenodd" clip-rule="evenodd" d="M24.3779 44.9388C24.7354 45.1317 25.1074 45.3035 25.4943 45.4541C25.7975 45.2597 26.1123 45.0879 26.439 44.9388C26.7495 45.1824 26.8641 45.5259 26.7825 45.9694C26.3229 46.1992 25.8648 46.4283 25.4085 46.6564C25.0935 46.441 24.75 46.3264 24.3779 46.3129C24.3207 46.1983 24.2634 46.0839 24.2062 45.9694C24.1902 45.6693 24.133 45.3543 24.0344 45.0247C24.1364 44.945 24.251 44.9163 24.3779 44.9388Z" fill="#EDCC7B"/>
<path opacity="0.459" fill-rule="evenodd" clip-rule="evenodd" d="M23.8625 45.9695C23.9771 45.9695 24.0915 45.9695 24.2061 45.9695C24.2633 46.084 24.3206 46.1984 24.3778 46.313C24.1155 46.3255 23.9438 46.211 23.8625 45.9695Z" fill="#856F3F"/>
</g>
<defs>
<clipPath id="clip0_945_2833">
<rect width="50" height="50" fill="white"/>
</clipPath>
</defs>
</svg>
