<svg width="50" height="50" viewBox="0 0 50 50" fill="none" xmlns="http://www.w3.org/2000/svg">
<g clip-path="url(#clip0_945_3106)">
<path d="M37.5298 0.262451H12.6851C5.82438 0.262451 0.262695 5.82413 0.262695 12.6848V37.5305C0.262695 44.3911 5.82438 49.9528 12.6851 49.9528H37.5298C44.3905 49.9528 49.9521 44.3911 49.9521 37.5305V12.6848C49.9521 5.82413 44.3905 0.262451 37.5298 0.262451Z" fill="url(#paint0_linear_945_3106)"/>
<path fill-rule="evenodd" clip-rule="evenodd" d="M13.7762 13.7498L25.3795 5.23145L36.9829 13.7498V31.3544L13.7762 13.7498ZM13.1311 18.8608L36.9826 36.4655L25.3791 44.9839L13.1311 36.4655V18.8608Z" fill="url(#paint1_linear_945_3106)"/>
<path d="M25.3796 5.23145L25.6552 4.85596L25.3796 4.65356L25.1039 4.85596L25.3796 5.23145ZM13.7762 13.7498L13.5005 13.3743L12.9973 13.7437L13.4947 14.121L13.7762 13.7498ZM36.9829 13.7498H37.4488V13.5139L37.2587 13.3743L36.9829 13.7498ZM36.9829 31.3544L36.7012 31.7255L37.4488 32.2926V31.3544H36.9829ZM36.9826 36.4656L37.2581 36.841L37.7683 36.4665L37.259 36.0907L36.9826 36.4656ZM13.1311 18.8608L13.4078 18.486L12.6653 17.938V18.8608H13.1311ZM25.3791 44.9839L25.1131 45.3662L25.3865 45.5562L25.6548 45.3593L25.3791 44.9839ZM13.1311 36.4656H12.6653V36.7087L12.8652 36.8479L13.1311 36.4656ZM25.1039 4.85596L13.5005 13.3743L14.0519 14.1253L25.6552 5.60698L25.1039 4.85596ZM37.2587 13.3743L25.6552 4.85596L25.1039 5.60698L36.7071 14.1253L37.2587 13.3743ZM37.4488 31.3544V13.7498H36.5171V31.3544H37.4488ZM13.4947 14.121L36.7012 31.7255L37.2646 30.9833L14.0577 13.3787L13.4947 14.121ZM37.259 36.0907L13.4078 18.486L12.8545 19.2356L36.7059 36.8401L37.259 36.0907ZM25.6548 45.3593L37.2581 36.841L36.7068 36.0898L25.1035 44.6084L25.6548 45.3593ZM12.8652 36.8479L25.1131 45.3662L25.6451 44.6013L13.3971 36.0829L12.8652 36.8479ZM12.6653 18.8608V36.4656H13.597V18.8608H12.6653Z" fill="black"/>
</g>
<defs>
<linearGradient id="paint0_linear_945_3106" x1="16.1491" y1="0.310521" x2="36.646" y2="56.9875" gradientUnits="userSpaceOnUse">
<stop stop-color="#F0F0F0"/>
<stop offset="0.432292" stop-color="#A5BEF4" stop-opacity="0.8"/>
<stop offset="1" stop-color="#9D91F4" stop-opacity="0.8"/>
</linearGradient>
<linearGradient id="paint1_linear_945_3106" x1="41.3046" y1="62.7087" x2="0.142601" y2="2.75784" gradientUnits="userSpaceOnUse">
<stop stop-color="#FEF3CC"/>
<stop offset="0.234375" stop-color="#D2BBC4"/>
<stop offset="0.473958" stop-color="#B689D3"/>
<stop offset="0.697917" stop-color="#9493FF"/>
<stop offset="1" stop-color="#4C1CB2"/>
</linearGradient>
<clipPath id="clip0_945_3106">
<rect width="50" height="50" rx="25" fill="white"/>
</clipPath>
</defs>
</svg>
