<svg width="50" height="50" viewBox="0 0 50 50" fill="none" xmlns="http://www.w3.org/2000/svg">
<g clip-path="url(#clip0_945_3112)">
<path d="M50 25C50 11.1929 38.8071 0 25 0C11.1929 0 0 11.1929 0 25C0 38.8071 11.1929 50 25 50C38.8071 50 50 38.8071 50 25Z" fill="#0B0913"/>
<path d="M31.023 25.6866C31.3974 25.6866 31.7009 25.3831 31.7009 25.0088C31.7009 24.6344 31.3974 24.3309 31.023 24.3309C30.6487 24.3309 30.3452 24.6344 30.3452 25.0088C30.3452 25.3831 30.6487 25.6866 31.023 25.6866Z" fill="#E0DAEE"/>
<path d="M37.062 19.6478C37.4363 19.6478 37.7398 19.3443 37.7398 18.9699C37.7398 18.5956 37.4363 18.2921 37.062 18.2921C36.6876 18.2921 36.3842 18.5956 36.3842 18.9699C36.3842 19.3443 36.6876 19.6478 37.062 19.6478Z" fill="#E0DAEE"/>
<path d="M18.9453 13.5842C19.3196 13.5842 19.6231 13.2807 19.6231 12.9063C19.6231 12.532 19.3196 12.2285 18.9453 12.2285C18.5709 12.2285 18.2675 12.532 18.2675 12.9063C18.2675 13.2807 18.5709 13.5842 18.9453 13.5842Z" fill="#E0DAEE"/>
<path d="M12.9063 31.7009C13.2807 31.7009 13.5842 31.3974 13.5842 31.023C13.5842 30.6487 13.2807 30.3452 12.9063 30.3452C12.532 30.3452 12.2285 30.6487 12.2285 31.023C12.2285 31.3974 12.532 31.7009 12.9063 31.7009Z" fill="#E0DAEE"/>
<path d="M37.0496 13.4364C37.3355 13.4364 37.5672 13.2046 37.5672 12.9187C37.5672 12.6329 37.3355 12.4011 37.0496 12.4011C36.7637 12.4011 36.532 12.6329 36.532 12.9187C36.532 13.2046 36.7637 13.4364 37.0496 13.4364Z" fill="#E0DAEE"/>
<path d="M24.9718 19.4752C25.2577 19.4752 25.4895 19.2434 25.4895 18.9576C25.4895 18.6717 25.2577 18.4399 24.9718 18.4399C24.686 18.4399 24.4542 18.6717 24.4542 18.9576C24.4542 19.2434 24.686 19.4752 24.9718 19.4752Z" fill="#E0DAEE"/>
<path d="M24.9718 31.5531C25.2577 31.5531 25.4895 31.3213 25.4895 31.0354C25.4895 30.7496 25.2577 30.5178 24.9718 30.5178C24.686 30.5178 24.4542 30.7496 24.4542 31.0354C24.4542 31.3213 24.686 31.5531 24.9718 31.5531Z" fill="#E0DAEE"/>
<path d="M12.8941 37.5672C13.18 37.5672 13.4117 37.3355 13.4117 37.0496C13.4117 36.7637 13.18 36.532 12.8941 36.532C12.6082 36.532 12.3765 36.7637 12.3765 37.0496C12.3765 37.3355 12.6082 37.5672 12.8941 37.5672Z" fill="#E0DAEE"/>
<path d="M24.9719 26.2537C25.6526 26.2537 26.2043 25.7019 26.2043 25.0212C26.2043 24.3406 25.6526 23.7888 24.9719 23.7888C24.2913 23.7888 23.7395 24.3406 23.7395 25.0212C23.7395 25.7019 24.2913 26.2537 24.9719 26.2537Z" fill="#E0DAEE"/>
<path d="M18.933 25.4895C19.2189 25.4895 19.4506 25.2577 19.4506 24.9718C19.4506 24.686 19.2189 24.4542 18.933 24.4542C18.6472 24.4542 18.4154 24.686 18.4154 24.9718C18.4154 25.2577 18.6472 25.4895 18.933 25.4895Z" fill="#E0DAEE"/>
<path d="M31.0107 37.5919C31.2965 37.5919 31.5283 37.3601 31.5283 37.0743C31.5283 36.7884 31.2965 36.5566 31.0107 36.5566C30.7248 36.5566 30.493 36.7884 30.493 37.0743C30.493 37.3601 30.7248 37.5919 31.0107 37.5919Z" fill="#E0DAEE"/>
<path d="M18.9453 31.3312C19.1155 31.3312 19.2534 31.1932 19.2534 31.0231C19.2534 30.8529 19.1155 30.715 18.9453 30.715C18.7752 30.715 18.6372 30.8529 18.6372 31.0231C18.6372 31.1932 18.7752 31.3312 18.9453 31.3312Z" fill="#E0DAEE"/>
<path d="M18.9453 37.3701C19.1155 37.3701 19.2534 37.2322 19.2534 37.062C19.2534 36.8918 19.1155 36.7539 18.9453 36.7539C18.7752 36.7539 18.6372 36.8918 18.6372 37.062C18.6372 37.2322 18.7752 37.3701 18.9453 37.3701Z" fill="#E0DAEE"/>
<path d="M31.0231 19.2781C31.1932 19.2781 31.3312 19.1401 31.3312 18.97C31.3312 18.7998 31.1932 18.6619 31.0231 18.6619C30.8529 18.6619 30.715 18.7998 30.715 18.97C30.715 19.1401 30.8529 19.2781 31.0231 19.2781Z" fill="#E0DAEE"/>
<path d="M31.0231 13.2393C31.1932 13.2393 31.3312 13.1013 31.3312 12.9312C31.3312 12.761 31.1932 12.623 31.0231 12.623C30.8529 12.623 30.715 12.761 30.715 12.9312C30.715 13.1013 30.8529 13.2393 31.0231 13.2393Z" fill="#E0DAEE"/>
<path d="M12.8941 25.9578C13.4387 25.9578 13.8801 25.5164 13.8801 24.9719C13.8801 24.4274 13.4387 23.986 12.8941 23.986C12.3496 23.986 11.9082 24.4274 11.9082 24.9719C11.9082 25.5164 12.3496 25.9578 12.8941 25.9578Z" fill="#E0DAEE"/>
<path d="M12.8941 19.9189C13.4387 19.9189 13.8801 19.4775 13.8801 18.933C13.8801 18.3884 13.4387 17.947 12.8941 17.947C12.3496 17.947 11.9082 18.3884 11.9082 18.933C11.9082 19.4775 12.3496 19.9189 12.8941 19.9189Z" fill="#E0DAEE"/>
<path d="M37.0497 25.9825C37.5942 25.9825 38.0356 25.5411 38.0356 24.9966C38.0356 24.452 37.5942 24.0106 37.0497 24.0106C36.5051 24.0106 36.0637 24.452 36.0637 24.9966C36.0637 25.5411 36.5051 25.9825 37.0497 25.9825Z" fill="#E0DAEE"/>
<path d="M37.0497 32.0213C37.5942 32.0213 38.0356 31.5799 38.0356 31.0354C38.0356 30.4909 37.5942 30.0494 37.0497 30.0494C36.5051 30.0494 36.0637 30.4909 36.0637 31.0354C36.0637 31.5799 36.5051 32.0213 37.0497 32.0213Z" fill="#E0DAEE"/>
<path d="M31.0107 32.2925C31.6914 32.2925 32.2432 31.7407 32.2432 31.0601C32.2432 30.3794 31.6914 29.8276 31.0107 29.8276C30.3301 29.8276 29.7783 30.3794 29.7783 31.0601C29.7783 31.7407 30.3301 32.2925 31.0107 32.2925Z" fill="#E0DAEE"/>
<path d="M37.0496 38.3313C37.7302 38.3313 38.282 37.7795 38.282 37.0989C38.282 36.4182 37.7302 35.8665 37.0496 35.8665C36.3689 35.8665 35.8171 36.4182 35.8171 37.0989C35.8171 37.7795 36.3689 38.3313 37.0496 38.3313Z" fill="#E0DAEE"/>
<path d="M18.933 20.1901C19.6136 20.1901 20.1654 19.6383 20.1654 18.9576C20.1654 18.277 19.6136 17.7252 18.933 17.7252C18.2523 17.7252 17.7006 18.277 17.7006 18.9576C17.7006 19.6383 18.2523 20.1901 18.933 20.1901Z" fill="#E0DAEE"/>
<path d="M12.894 14.1512C13.5747 14.1512 14.1265 13.5995 14.1265 12.9188C14.1265 12.2382 13.5747 11.6864 12.894 11.6864C12.2134 11.6864 11.6616 12.2382 11.6616 12.9188C11.6616 13.5995 12.2134 14.1512 12.894 14.1512Z" fill="#E0DAEE"/>
</g>
<defs>
<clipPath id="clip0_945_3112">
<rect width="50" height="50" fill="white"/>
</clipPath>
</defs>
</svg>
