<svg width="50" height="50" viewBox="0 0 50 50" fill="none" xmlns="http://www.w3.org/2000/svg">
<g clip-path="url(#clip0_945_3155)">
<path d="M50 9.92188C46.4063 11.0156 42.9688 12.4219 39.5313 13.9062C20.1563 22.7344 7.18752 36.0156 10.625 43.5938C11.3281 45 12.4219 46.1719 13.9063 46.875C18.5156 49.2188 23.75 50 28.8281 49.0625C33.9063 48.125 38.5938 45.625 42.1094 41.7969C45.625 37.9688 47.8906 33.125 48.4375 27.9687C48.9844 22.8125 47.8906 17.5781 45.3125 13.125L50 9.92188Z" fill="#6000FF"/>
<path d="M43.6719 10.625C40.1563 5.70311 34.8438 2.26561 28.9063 1.01561C22.9688 -0.234389 16.7188 0.859361 11.5625 3.98436C6.32816 7.18749 2.57816 12.1094 0.937535 17.9687C-0.781215 23.75 -0.156215 30 2.65628 35.3125C7.18753 28.75 17.2657 21.1719 30.0782 15.4687C34.4532 13.5937 38.9844 11.9531 43.6719 10.625Z" fill="#6000FF"/>
</g>
<defs>
<clipPath id="clip0_945_3155">
<rect width="50" height="50" fill="white"/>
</clipPath>
</defs>
</svg>
