<svg width="50" height="50" viewBox="0 0 50 50" fill="none" xmlns="http://www.w3.org/2000/svg">
<circle cx="25" cy="25" r="25" fill="white"/>
<path fill-rule="evenodd" clip-rule="evenodd" d="M11 15.9V20.8H15.5H20V25.2V29.6H15.5H11V34.5V39.4H15.9H20.8V34.9V30.4H25.2H29.6V34.9V39.4H34.5H39.4V34.5V29.6H34.9H30.4V25.2V20.8H34.9H39.4V15.9V11H34.5H29.6V15.5V20H25.2H20.8V15.5V11H15.9H11V15.9Z" fill="#EBEBEB"/>
<path fill-rule="evenodd" clip-rule="evenodd" d="M11 15.7766V20.5534L11.45 20.674C11.6974 20.7402 13.8574 20.7958 16.25 20.7972C19.0148 20.799 20.6 20.8728 20.6 21C20.6 21.11 20.46 21.2 20.2888 21.2C20.015 21.2 19.985 21.7064 20.0388 25.4002L20.1 29.6004L16 29.603C13.745 29.6044 11.6974 29.6598 11.45 29.726L11 29.8466V34.6234V39.4H15.7766H20.5534L20.674 38.95C20.7402 38.7026 20.7958 36.5426 20.7972 34.15C20.799 31.3852 20.8728 29.8 21 29.8C21.11 29.8 21.2 29.94 21.2 30.1112C21.2 30.385 21.7064 30.415 25.4002 30.3612L29.6004 30.3L29.603 34.4C29.6044 36.655 29.6598 38.7024 29.726 38.95L29.8466 39.4H34.6234H39.4V34.6234V29.8466L38.95 29.726C38.7024 29.6598 36.5426 29.6042 34.15 29.6028C31.3852 29.601 29.8 29.5272 29.8 29.4C29.8 29.29 29.94 29.2 30.1112 29.2C30.385 29.2 30.415 28.6936 30.3612 24.9998L30.3 20.7996L34.4 20.797C36.655 20.7956 38.7026 20.7402 38.95 20.674L39.4 20.5534V15.7766V11H34.6234H29.8466L29.726 11.45C29.6598 11.6974 29.6042 13.8574 29.6028 16.25C29.601 19.0148 29.5272 20.6 29.4 20.6C29.29 20.6 29.2 20.46 29.2 20.2888C29.2 20.015 28.6936 19.985 24.9998 20.0388L20.7996 20.1L20.797 16C20.7956 13.745 20.7402 11.6974 20.674 11.45L20.5534 11H15.7766H11V15.7766Z" fill="#CFCFCF"/>
<path fill-rule="evenodd" clip-rule="evenodd" d="M11 15.8V20.6H15.8C20.4666 20.6 20.6 20.6112 20.6 21C20.6 21.22 20.51 21.4 20.4 21.4C20.2736 21.4 20.2 22.8 20.2 25.2C20.2 27.6 20.2736 29 20.4 29C20.51 29 20.6 29.18 20.6 29.4C20.6 29.7888 20.4666 29.8 15.8 29.8H11V34.6V39.4H15.8H20.6V34.6C20.6 29.9334 20.6112 29.8 21 29.8C21.22 29.8 21.4 29.89 21.4 30C21.4 30.1264 22.8 30.2 25.2 30.2C27.6 30.2 29 30.1264 29 30C29 29.89 29.18 29.8 29.4 29.8C29.7888 29.8 29.8 29.9334 29.8 34.6V39.4H34.6H39.4V34.6V29.8H34.6C29.9334 29.8 29.8 29.7888 29.8 29.4C29.8 29.18 29.89 29 30 29C30.1264 29 30.2 27.6 30.2 25.2C30.2 22.8 30.1264 21.4 30 21.4C29.89 21.4 29.8 21.22 29.8 21C29.8 20.6112 29.9334 20.6 34.6 20.6H39.4V15.8V11H34.6H29.8V15.8C29.8 20.4666 29.7888 20.6 29.4 20.6C29.18 20.6 29 20.51 29 20.4C29 20.2736 27.6 20.2 25.2 20.2C22.8 20.2 21.4 20.2736 21.4 20.4C21.4 20.51 21.22 20.6 21 20.6C20.6112 20.6 20.6 20.4666 20.6 15.8V11H15.8H11V15.8Z" fill="#AFAFAF"/>
<path fill-rule="evenodd" clip-rule="evenodd" d="M11.35 11.4166C11.04 11.7562 11 12.2794 11 16C11 19.6 11.0428 20.2 11.3 20.2C11.465 20.2 11.6 20.29 11.6 20.4C11.6 20.527 13.138 20.6 15.8142 20.6C19.2 20.6 20.0848 20.5438 20.3142 20.3142C20.5438 20.0848 20.6 19.2 20.6 15.8142C20.6 13.138 20.527 11.6 20.4 11.6C20.29 11.6 20.2 11.465 20.2 11.3C20.2 11.0422 19.6018 11.0024 15.95 11.0166C12.0288 11.032 11.673 11.063 11.35 11.4166ZM30.2 11.3C30.2 11.465 30.11 11.6 30 11.6C29.873 11.6 29.8 13.138 29.8 15.8142C29.8 19.2 29.8562 20.0848 30.0858 20.3142C30.3152 20.5438 31.2 20.6 34.5858 20.6C37.262 20.6 38.8 20.527 38.8 20.4C38.8 20.29 38.935 20.2 39.1 20.2C39.3572 20.2 39.4 19.6 39.4 16C39.4 12.0666 39.3746 11.7746 39 11.4C38.6254 11.0254 38.3334 11 34.4 11C30.8 11 30.2 11.0428 30.2 11.3ZM20.6 25.2V29.8H25.2H29.8V25.2V20.6H25.2H20.6V25.2ZM11.6 30C11.6 30.11 11.465 30.2 11.3 30.2C11.0428 30.2 11 30.8 11 34.4C11 38.3334 11.0254 38.6254 11.4 39C11.7746 39.3746 12.0666 39.4 16 39.4C19.6 39.4 20.2 39.3572 20.2 39.1C20.2 38.935 20.29 38.8 20.4 38.8C20.527 38.8 20.6 37.262 20.6 34.5858C20.6 31.2 20.5438 30.3152 20.3142 30.0858C20.0848 29.8562 19.2 29.8 15.8142 29.8C13.138 29.8 11.6 29.873 11.6 30ZM30.05 30.0992C29.7338 30.4582 29.686 38.8 30 38.8C30.11 38.8 30.2 38.935 30.2 39.1C30.2 39.3572 30.8 39.4 34.4 39.4C38.3334 39.4 38.6254 39.3746 39 39C39.3746 38.6254 39.4 38.3334 39.4 34.4C39.4 30.8 39.3572 30.2 39.1 30.2C38.935 30.2 38.8 30.11 38.8 30C38.8 29.8728 37.255 29.8028 34.55 29.8076C31.1368 29.8138 30.2508 29.8712 30.05 30.0992Z" fill="#858585"/>
<path fill-rule="evenodd" clip-rule="evenodd" d="M11.6 11.3C11.6 11.465 11.465 11.6 11.3 11.6C11.0428 11.6 11 12.2 11 15.8C11 19.4 11.0428 20 11.3 20C11.465 20 11.6 20.135 11.6 20.3C11.6 20.557 12.1888 20.6 15.7 20.6C19.5334 20.6 19.826 20.574 20.2 20.2C20.574 19.826 20.6 19.5334 20.6 15.7C20.6 12.1888 20.557 11.6 20.3 11.6C20.135 11.6 20 11.465 20 11.3C20 11.0428 19.4 11 15.8 11C12.2 11 11.6 11.0428 11.6 11.3ZM30.4 11.3C30.4 11.465 30.265 11.6 30.1 11.6C29.843 11.6 29.8 12.1888 29.8 15.7C29.8 19.5334 29.826 19.826 30.2 20.2C30.574 20.574 30.8666 20.6 34.7 20.6C38.2112 20.6 38.8 20.557 38.8 20.3C38.8 20.135 38.935 20 39.1 20C39.3572 20 39.4 19.4 39.4 15.8C39.4 12.2 39.3572 11.6 39.1 11.6C38.935 11.6 38.8 11.465 38.8 11.3C38.8 11.0428 38.2 11 34.6 11C31 11 30.4 11.0428 30.4 11.3ZM20.6 25.2V29.8H25.2H29.8V25.2V20.6H25.2H20.6V25.2ZM11.6 30.1C11.6 30.265 11.465 30.4 11.3 30.4C11.0428 30.4 11 31 11 34.6C11 38.2 11.0428 38.8 11.3 38.8C11.465 38.8 11.6 38.935 11.6 39.1C11.6 39.3572 12.2 39.4 15.8 39.4C19.4 39.4 20 39.3572 20 39.1C20 38.935 20.135 38.8 20.3 38.8C20.557 38.8 20.6 38.2112 20.6 34.7C20.6 30.8666 20.574 30.574 20.2 30.2C19.826 29.826 19.5334 29.8 15.7 29.8C12.1888 29.8 11.6 29.843 11.6 30.1ZM30.15 30.2166C29.8406 30.5556 29.8 31.0746 29.8 34.7C29.8 38.2112 29.843 38.8 30.1 38.8C30.265 38.8 30.4 38.935 30.4 39.1C30.4 39.3572 31 39.4 34.6 39.4C38.2 39.4 38.8 39.3572 38.8 39.1C38.8 38.935 38.935 38.8 39.1 38.8C39.3572 38.8 39.4 38.2 39.4 34.6C39.4 31 39.3572 30.4 39.1 30.4C38.935 30.4 38.8 30.265 38.8 30.1C38.8 29.8424 38.213 29.8024 34.65 29.8166C30.8272 29.832 30.4724 29.8636 30.15 30.2166Z" fill="#404040"/>
<path fill-rule="evenodd" clip-rule="evenodd" d="M11.6 15.9041V20.2081L15.85 20.1541L20.1 20.1001L20.154 15.8501L20.208 11.6001H15.904H11.6V15.9041ZM30.246 15.8501L30.3 20.1001L34.55 20.1541L38.8 20.2081V15.9041V11.6001H34.496H30.192L30.246 15.8501ZM20.726 21.0501C20.6598 21.2975 20.6042 23.3121 20.6028 25.5267C20.6 29.5345 20.6022 29.5541 21.05 29.6741C21.2974 29.7403 23.312 29.7959 25.5266 29.7973C29.5344 29.8001 29.554 29.7979 29.674 29.3501C29.7402 29.1025 29.7958 27.0881 29.7972 24.8735C29.8 20.8657 29.7978 20.8461 29.35 20.7261C29.1024 20.6599 27.088 20.6043 24.8734 20.6029C20.8656 20.6001 20.846 20.6023 20.726 21.0501ZM11.6 34.4961V38.8001H15.904H20.208L20.154 34.5501L20.1 30.3001L15.85 30.2461L11.6 30.1921V34.4961ZM30.3334 30.3335C30.26 30.4067 30.2 32.3417 30.2 34.6335V38.8001H34.5H38.8V34.5001V30.2001H34.6334C32.3416 30.2001 30.4066 30.2601 30.3334 30.3335Z" fill="#282828"/>
<path fill-rule="evenodd" clip-rule="evenodd" d="M11.6 15.8001V20.0001H15.8H20V15.8001V11.6001H15.8H11.6V15.8001ZM30.4 15.8001V20.0001H34.6H38.8V15.8001V11.6001H34.6H30.4V15.8001ZM20.8 25.2001V29.6001H25.2H29.6V25.2001V20.8001H25.2H20.8V25.2001ZM11.6 34.6001V38.8001H15.8H20V34.6001V30.4001H15.8H11.6V34.6001ZM30.4 34.6001V38.8001H34.6H38.8V34.6001V30.4001H34.6H30.4V34.6001Z" fill="black"/>
</svg>
