<svg width="50" height="50" viewBox="0 0 50 50" fill="none" xmlns="http://www.w3.org/2000/svg">
<g clip-path="url(#clip0_954_5161)">
<mask id="mask0_954_5161" style="mask-type:luminance" maskUnits="userSpaceOnUse" x="0" y="0" width="50" height="50">
<path d="M50 0H0V49.976H50V0Z" fill="white"/>
</mask>
<g mask="url(#mask0_954_5161)">
<path d="M17.1875 37.0314L16.6493 37.3417L16.6497 36.7205C16.6497 36.7205 16.6422 37.0382 16.7856 37.1176C16.926 37.1954 17.1875 37.0314 17.1875 37.0314Z" fill="#8E3315"/>
<path d="M3.37573 36.391C6.40919 42.1218 11.5973 46.4132 17.7988 48.3224C24.0003 50.2316 30.7072 49.6018 36.444 46.571C42.1809 43.5404 46.4777 38.3573 48.3892 32.162C50.3009 25.9667 49.6578 19.2664 46.6241 13.5356C49.3592 22.1481 39.8362 25.1738 39.8362 25.1738L28.3101 31.1919L16.3312 37.4335C16.3312 37.4335 8.16704 42.6841 3.37573 36.391Z" fill="#473ADE"/>
<path d="M3.33289 36.433C6.36634 42.1638 11.5545 46.4559 17.7559 48.3652C23.9575 50.2747 30.6644 49.6444 36.4012 46.6138C42.138 43.5832 46.4348 38.4001 48.3464 32.2048C50.2578 26.0095 49.6279 19.3094 46.5943 13.5786C49.3299 22.1911 39.7934 25.2166 39.7934 25.2166L28.2672 31.2347L16.2884 37.4763C16.2884 37.4763 8.12419 42.7261 3.33289 36.433Z" fill="url(#paint0_linear_954_5161)"/>
<path d="M39.5292 24.5764L40.419 25.009L39.4797 25.3858C39.4797 25.3858 39.8827 25.1955 39.9309 25.009C39.978 24.8262 39.5292 24.5764 39.5292 24.5764Z" fill="#251E73"/>
<path d="M46.7723 36.1354C49.7343 30.3676 50.2818 23.6603 48.2935 17.4891C46.3054 11.3179 41.9447 6.18829 36.1707 3.22875C30.3968 0.269227 23.6827 -0.277803 17.5053 1.708C11.3279 3.6938 6.19329 8.04975 3.23108 13.8176C8.72785 6.64221 16.6752 12.7152 16.6752 12.7152L28.2176 18.702L40.2029 24.9313C40.2029 24.9313 49.1882 28.6062 46.7723 36.1354Z" fill="#D71D6A"/>
<path d="M46.7135 36.1119C49.6671 30.3612 50.2127 23.6739 48.2303 17.5211C46.248 11.3683 41.9003 6.25393 36.1436 3.30324C30.3868 0.352533 23.6927 -0.192868 17.5337 1.78702C11.3747 3.76691 6.2554 8.1099 3.302 13.8606C8.78241 6.70657 16.7061 12.7615 16.7061 12.7615L28.2141 18.7304L40.1637 24.9412C40.1637 24.9412 49.1225 28.6051 46.7135 36.1119Z" fill="url(#paint1_linear_954_5161)"/>
<path d="M16.6529 13.295L16.6428 12.6445L17.2112 12.9611C17.2112 12.9611 16.9242 12.7925 16.7786 12.8833C16.636 12.9723 16.6529 13.295 16.6529 13.295Z" fill="#741039"/>
<path d="M25.0036 0.527588C18.5144 0.527588 12.2911 3.10302 7.70263 7.68731C3.11416 12.2716 0.536377 18.4893 0.536377 24.9725C0.536377 31.4556 3.11416 37.6733 7.70263 42.2576C12.2911 46.8419 18.5144 49.4173 25.0035 49.4173C16.6753 48.0205 16.6753 37.241 16.6753 37.241V24.9725V12.4868C16.6753 12.4868 16.6753 2.01677 25.0036 0.527588Z" fill="#FF5B25"/>
<path d="M25.0036 0.470459C18.5144 0.470459 12.2911 3.04589 7.70263 7.63019C3.11416 12.2145 0.536377 18.4322 0.536377 24.9153C0.536377 31.3985 3.11416 37.6161 7.70263 42.2005C12.2911 46.7847 18.5144 49.36 25.0035 49.36C16.6753 46.702 16.6753 37.2544 16.6753 37.2544V24.9455V12.7152C16.6753 12.7152 16.3723 2.05456 25.0036 0.470459Z" fill="url(#paint2_linear_954_5161)"/>
<path d="M25.0036 0.470459C18.5144 0.470459 12.2911 3.04589 7.70263 7.63019C3.11416 12.2145 0.536377 18.4322 0.536377 24.9153C0.536377 31.3985 3.11416 37.6161 7.70263 42.2005C12.2911 46.7847 18.5144 49.36 25.0035 49.36C16.6753 46.702 16.6753 37.2544 16.6753 37.2544V24.9455V12.7152C16.6753 12.7152 16.3723 2.05456 25.0036 0.470459Z" fill="url(#paint3_linear_954_5161)" fill-opacity="0.3"/>
<path d="M24.9393 49.4065C16.6752 45.6459 16.685 37.2507 16.685 37.2507C16.685 37.2507 6.44225 43.023 2.99402 35.6401C2.99402 35.6401 8.77446 49.4555 24.9393 49.4065Z" fill="#473ADE"/>
</g>
</g>
<defs>
<linearGradient id="paint0_linear_954_5161" x1="46.5961" y1="22.1852" x2="11.0301" y2="57.3355" gradientUnits="userSpaceOnUse">
<stop stop-opacity="0.6"/>
<stop offset="0.655513" stop-opacity="0"/>
</linearGradient>
<linearGradient id="paint1_linear_954_5161" x1="10.3396" y1="8.94105" x2="59.3978" y2="17.9502" gradientUnits="userSpaceOnUse">
<stop stop-opacity="0.6"/>
<stop offset="0.645833" stop-opacity="0"/>
</linearGradient>
<linearGradient id="paint2_linear_954_5161" x1="13.6392" y1="46.3321" x2="-0.890302" y2="1.53568" gradientUnits="userSpaceOnUse">
<stop stop-opacity="0.6"/>
<stop offset="0.675464" stop-opacity="0"/>
</linearGradient>
<linearGradient id="paint3_linear_954_5161" x1="13.6392" y1="46.3321" x2="-0.890302" y2="1.53568" gradientUnits="userSpaceOnUse">
<stop stop-opacity="0.6"/>
<stop offset="0.675464" stop-opacity="0"/>
</linearGradient>
<clipPath id="clip0_954_5161">
<rect width="50" height="50" fill="white"/>
</clipPath>
</defs>
</svg>
