<svg width="50" height="50" viewBox="0 0 50 50" fill="none" xmlns="http://www.w3.org/2000/svg">
<g clip-path="url(#clip0_954_5150)">
<mask id="mask0_954_5150" style="mask-type:luminance" maskUnits="userSpaceOnUse" x="0" y="0" width="50" height="50">
<path d="M50 0H0V50H50V0Z" fill="white"/>
</mask>
<g mask="url(#mask0_954_5150)">
<path d="M50 25C50 11.1929 38.8071 0 25 0C11.1929 0 0 11.1929 0 25C0 38.8071 11.1929 50 25 50C38.8071 50 50 38.8071 50 25Z" fill="white"/>
<path d="M19.7769 19.6546C15.7409 17.4031 14.1692 19.1624 13.8128 22.2894C12.885 16.2742 14.7789 14.0005 18.1467 15.5256C19.5999 16.1925 20.9452 17.0735 22.1373 18.1391C22.8337 18.7495 23.7319 19.0791 24.6578 19.0641" fill="#353340"/>
<path d="M24.6409 19.0641C25.5725 19.0511 26.4701 18.7125 27.1782 18.1071C28.3995 17.0607 29.762 16.1917 31.2256 15.5256C34.5985 14.0005 36.495 16.2742 35.566 22.2894C35.1387 22.5922 34.7165 22.9021 34.2994 23.2186C34.3391 22.2713 34.2089 21.1725 34.1944 20.346C34.1479 17.654 30.3634 18.63 28.4084 20.8969C27.2731 22.2132 28.8185 24.0139 30.584 25.2102C30.9 25.3001 31.2225 25.3653 31.5485 25.4053C30.7097 26.0931 29.8731 26.7836 29.0389 27.4769C27.8121 26.3249 26.2424 24.8481 24.6735 23.4622" fill="#353340"/>
<path d="M24.6903 19.0638C23.7708 19.0437 22.8867 18.7057 22.1883 18.1073C20.9689 17.0612 19.6083 16.1922 18.1465 15.5257C14.7785 14.001 12.8847 16.2743 13.8127 22.2893C14.2319 22.587 14.6429 22.8883 15.0775 23.2183C15.0384 22.271 15.1684 21.1727 15.1822 20.3448C15.2288 17.6529 19.0078 18.6292 20.9585 20.8955C22.0922 22.2122 20.5493 24.013 18.7865 25.2088C18.4708 25.2985 18.1487 25.3639 17.8229 25.4043C18.5347 25.9884 19.3533 26.6657 20.3285 27.4763C21.5539 26.324 23.1223 24.846 24.6898 23.4597C26.2573 22.0734 24.6903 19.0638 24.6903 19.0638ZM26.1697 31.264C26.9255 32.9967 28.191 34.4579 29.7977 35.4537C33.6469 37.3563 35.8824 34.3968 34.9064 31.2169C34.4684 29.7898 32.8284 26.9665 30.2782 25.9275C29.638 25.6667 25.4613 29.5639 26.1697 31.264ZM27.9168 28.4462C28.098 27.4274 28.5902 27.5113 28.8614 27.6275C29.9639 28.0998 31.2892 29.2602 31.7579 30.4298C32.4277 32.1009 31.2787 33.1509 29.7802 32.1767C28.4129 31.2877 27.6652 29.8632 27.9168 28.4462Z" fill="#353340"/>
<path d="M19.1022 25.9275C16.5519 26.9665 14.912 29.7898 14.4739 31.2168C13.4979 34.3968 15.7333 37.3563 19.5827 35.4536C21.1895 34.4579 22.455 32.9965 23.2109 31.264C23.919 29.564 19.7423 25.6668 19.1022 25.9275ZM19.6003 32.1766C18.1018 33.1508 16.9527 32.1008 17.6224 30.4296C18.091 29.2601 19.417 28.1005 20.519 27.6275C20.7903 27.5113 21.2824 27.4274 21.4635 28.4461C21.7153 29.8633 20.9675 31.2878 19.6 32.1768L19.6003 32.1766Z" fill="#353340"/>
<path d="M31.2326 15.5256C38.5888 12.9789 34.2439 26.0238 24.6895 26.0238C15.135 26.0238 10.79 12.9779 18.1462 15.5256C10.1287 11.3606 8.05072 21.7972 17.6636 27.5052C20.5196 29.2011 23.3969 32.3247 19.5821 35.4538C21.9982 34.2513 22.5966 32.0769 24.6892 32.0769C26.7819 32.0769 27.3802 34.2508 29.7963 35.4538C25.9814 32.3244 28.8588 29.2011 31.7148 27.5052C41.3279 21.7978 39.2499 11.3606 31.2326 15.5256Z" fill="#00000E"/>
</g>
</g>
<defs>
<clipPath id="clip0_954_5150">
<rect width="50" height="50" fill="white"/>
</clipPath>
</defs>
</svg>
