<svg width="50" height="50" viewBox="0 0 50 50" fill="none" xmlns="http://www.w3.org/2000/svg">
<path d="M47.7841 8.83797C47.2751 6.8781 45.6391 4.9182 42.6943 2.73645C40.3308 0.998428 37.8223 0 35.8228 0C35.4228 0 35.0593 0.0369775 34.6958 0.110935C33.7868 0.295825 32.9868 0.961452 32.4781 1.95989C31.8601 3.1432 31.7146 4.73333 32.1146 5.69475C32.2598 5.99057 32.4416 6.36037 32.6598 6.69317C30.7328 7.87652 29.6421 8.20932 29.4966 8.2463C34.5141 9.94732 38.6951 13.4973 41.3126 18.1197L41.3491 17.6759C41.4581 16.4556 41.8216 15.0504 42.3308 13.6082C42.8396 13.7562 43.3486 13.8301 43.8576 13.8301C45.2028 13.8301 46.3661 13.2754 47.0933 12.277C47.8206 11.2786 48.1111 9.94732 47.7841 8.83797Z" fill="#5E12A0"/>
<path d="M42.5493 12.5369C45.8575 13.4613 47.2028 10.8728 46.7663 9.13482C46.2938 7.3968 44.7668 5.6218 42.0763 3.62495C39.386 1.62809 36.6595 0.814544 34.9143 1.18432C33.1693 1.55412 32.6603 4.25357 33.0963 5.28897C33.2783 5.69575 33.678 6.28742 34.2235 6.95305C33.5328 7.43377 32.8783 7.80355 32.333 8.13635C35.6778 9.6525 38.5863 12.0192 40.7675 14.9775C41.022 13.979 41.3858 13.0915 41.713 12.315C41.9673 12.352 42.2583 12.426 42.5493 12.5369Z" fill="url(#paint0_radial_954_5266)"/>
<path d="M23.6059 48.778C34.83 48.778 43.9292 39.523 43.9292 28.1067C43.9292 16.6904 34.83 7.43555 23.6059 7.43555C12.3817 7.43555 3.28271 16.6904 3.28271 28.1067C3.28271 39.523 12.3817 48.778 23.6059 48.778Z" fill="url(#paint1_radial_954_5266)"/>
<path opacity="0.6" d="M45.0943 7.43268C42.3311 4.47438 40.0043 3.6978 37.2048 3.06918C35.0236 2.55145 35.6051 1.29417 38.2593 1.55302C36.9868 1.10928 35.7871 0.998335 34.9143 1.18322C33.1693 1.55302 32.6603 4.25248 33.0966 5.2879C33.2783 5.69465 33.6783 6.28633 34.2238 6.95195C33.2421 7.61758 32.4058 8.0983 31.7148 8.4681C32.0423 8.616 32.4421 8.8009 32.9146 9.05975C34.1508 9.72538 35.4961 10.8347 35.4961 10.8347C33.4601 9.05975 33.8963 8.2462 36.6958 6.24935C37.5686 5.62073 39.1681 5.69465 40.6588 6.47123C42.1493 7.24778 43.8943 9.20767 43.8943 9.20767L42.2221 12.4618C42.3311 12.4988 42.4401 12.5358 42.5493 12.5728C43.6036 12.8686 44.4396 12.7946 45.0943 12.5358C45.8578 12.055 47.8573 10.428 45.0943 7.43268Z" fill="#A98698"/>
<path d="M37.1683 4.8463C37.8956 5.14213 38.8408 5.65983 40.0043 6.4364C41.3858 7.36088 42.5856 8.3963 43.3491 9.2098C42.0766 10.9109 41.2403 13.2405 40.7316 14.8676C40.9861 15.2374 41.2768 15.6072 41.5313 15.977C41.7858 15.0525 42.2218 13.6843 42.8036 12.3161C42.9491 12.353 43.1311 12.353 43.3126 12.353C43.7488 12.353 44.2578 12.2791 44.6578 11.9463C44.9486 11.7244 45.276 11.3176 45.2395 10.5781C45.2395 9.87545 44.6943 8.98795 43.5671 7.91555C42.7673 7.139 41.6768 6.28848 40.5861 5.51193C37.4593 3.40413 35.2778 2.81245 34.2963 3.81088C33.6418 4.47653 33.7146 5.29005 33.9326 5.88173C32.7693 6.65828 31.7876 7.21295 31.1333 7.58275C31.5696 7.73068 31.9696 7.91555 32.4058 8.10045C33.5691 7.4718 35.2416 6.3994 37.1683 4.8463ZM44.0398 10.1343C44.1488 10.3192 44.1853 10.5041 44.1853 10.615C44.1853 10.9479 44.0763 11.0588 44.0033 11.1327C43.8581 11.2437 43.5671 11.3176 43.3126 11.3176C43.5308 10.8739 43.7853 10.5041 44.0398 10.1343ZM35.0598 4.62443C35.1688 4.51348 35.4598 4.43953 35.9323 4.51348C35.5688 4.80933 35.2053 5.06818 34.8418 5.32703C34.8053 5.06818 34.8418 4.80933 35.0598 4.62443Z" fill="#5E12A0"/>
<path d="M23.606 6.2168C11.7175 6.2168 2.08301 16.0162 2.08301 28.1085C2.08301 40.2002 11.7175 50 23.606 50C35.4945 50 45.129 40.2002 45.129 28.1085C45.129 16.0162 35.4583 6.2168 23.606 6.2168ZM23.606 48.7795C12.3719 48.7795 3.28278 39.535 3.28278 28.1085C3.28278 16.6818 12.3719 7.4371 23.606 7.4371C34.84 7.4371 43.9295 16.6818 43.9295 28.1085C43.9295 39.535 34.804 48.7795 23.606 48.7795Z" fill="#5E12A0"/>
<path opacity="0.6" d="M23.6059 48.778C34.83 48.778 43.9292 39.523 43.9292 28.1067C43.9292 16.6904 34.83 7.43555 23.6059 7.43555C12.3817 7.43555 3.28271 16.6904 3.28271 28.1067C3.28271 39.523 12.3817 48.778 23.6059 48.778Z" fill="url(#paint2_linear_954_5266)"/>
<path opacity="0.6" d="M23.4627 46.2655C12.374 44.4535 4.84819 33.8405 6.66599 22.5621C7.46587 17.5699 9.93809 13.3173 13.4283 10.248C8.33842 13.2433 4.55734 18.4574 3.53937 24.8178C1.75789 36.0962 9.28367 46.7092 20.336 48.5212C26.5165 49.5567 32.479 47.5967 36.8782 43.751C32.988 46.0437 28.2617 47.0422 23.4627 46.2655Z" fill="#A98698"/>
<path opacity="0.6" d="M26.8413 7.73092C21.7151 6.8804 16.7342 8.06372 12.6623 10.6892C12.5896 10.7632 12.5169 10.8371 12.5169 10.8371C14.0802 9.8757 16.3706 9.02517 16.3706 9.02517C10.4809 12.5012 8.66309 16.458 8.66309 16.458C10.9536 11.9465 17.6795 8.76632 22.9512 8.54445C28.2228 8.32257 31.6765 9.91267 35.894 13.3517C40.1113 16.8277 42.6563 23.9276 42.4018 29.5485C42.1838 35.1695 39.2753 39.7178 39.2753 39.7178C41.2748 37.092 42.4745 35.1695 43.238 33.2093C43.3835 32.6178 43.529 32.0262 43.6015 31.3975C45.4195 20.1558 37.93 9.54287 26.8413 7.73092Z" fill="url(#paint3_linear_954_5266)"/>
<path d="M42.911 27.9222C42.911 38.757 34.258 47.5582 23.6058 47.5582C12.9534 47.5582 4.26416 38.757 4.26416 27.9222H42.911Z" fill="url(#paint4_linear_954_5266)"/>
<g opacity="0.6">
<path opacity="0.6" d="M41.3835 27.9222C41.3835 38.4982 33.167 47.1512 22.8418 47.5582C23.0963 47.5582 23.3508 47.5582 23.6053 47.5582C34.2577 47.5582 42.9107 38.757 42.9107 27.9222H41.3835Z" fill="url(#paint5_linear_954_5266)"/>
</g>
<g opacity="0.7">
<path opacity="0.7" d="M6.99091 27.9222H4.26416C4.26416 38.757 12.917 47.5582 23.5694 47.5582C24.0421 47.5582 24.4783 47.5582 24.9146 47.521C14.9166 46.7815 6.99091 38.2765 6.99091 27.9222Z" fill="url(#paint6_linear_954_5266)"/>
</g>
<path d="M42.8748 28.1055C42.8748 25.8498 39.021 24.5553 33.8945 24.1118C30.1863 23.8158 26.4418 24.1856 22.1515 25.5168C18.4432 26.6263 15.0984 26.4413 12.6625 26.1453C7.24538 25.5168 4.26416 25.4428 4.26416 28.1055C4.26416 31.9513 11.9717 36.7585 23.5331 35.0943C29.3865 34.244 32.404 32.506 35.858 31.3225C39.6028 30.0653 42.8748 30.1023 42.8748 28.1055Z" fill="url(#paint7_linear_954_5266)"/>
<path d="M29.9317 18.7881C31.7389 18.7881 33.2037 17.298 33.2037 15.4599C33.2037 13.6219 31.7389 12.1318 29.9317 12.1318C28.1247 12.1318 26.6597 13.6219 26.6597 15.4599C26.6597 17.298 28.1247 18.7881 29.9317 18.7881Z" fill="white"/>
<path d="M35.277 21.2655C36.04 21.2655 36.6585 20.6364 36.6585 19.8603C36.6585 19.0842 36.04 18.4551 35.277 18.4551C34.514 18.4551 33.8955 19.0842 33.8955 19.8603C33.8955 20.6364 34.514 21.2655 35.277 21.2655Z" fill="white"/>
<g opacity="0.6">
<path opacity="0.6" d="M40.221 12.8007C40.1845 12.8007 40.1482 12.8007 40.1482 12.8007C39.93 12.7638 39.7847 12.5419 39.821 12.283C40.1482 10.582 41.5297 8.95494 41.6025 8.88097C41.7477 8.69609 42.0387 8.69609 42.1842 8.84399C42.366 8.99192 42.366 9.28774 42.2205 9.43567C42.1842 9.47264 40.9117 10.9888 40.621 12.4679C40.5845 12.6898 40.4027 12.8007 40.221 12.8007Z" fill="url(#paint8_linear_954_5266)"/>
</g>
<path opacity="0.2" d="M22.2651 43.5245C22.8273 43.5245 23.283 43.061 23.283 42.489C23.283 41.9172 22.8273 41.4535 22.2651 41.4535C21.7028 41.4535 21.2471 41.9172 21.2471 42.489C21.2471 43.061 21.7028 43.5245 22.2651 43.5245Z" fill="white"/>
<g opacity="0.4">
<path opacity="0.6" d="M21.6783 43.1642C21.2784 42.7575 21.2784 42.092 21.6783 41.685C21.751 41.611 21.8237 41.574 21.8964 41.5C21.751 41.5373 21.6419 41.611 21.5329 41.722C21.1329 42.1288 21.1329 42.7945 21.5329 43.2012C21.8601 43.534 22.369 43.608 22.769 43.3862C22.4054 43.534 21.9691 43.4602 21.6783 43.1642Z" fill="url(#paint9_linear_954_5266)"/>
</g>
<path opacity="0.3" d="M22.6229 42.1947C22.7434 42.1947 22.8411 42.0955 22.8411 41.973C22.8411 41.8502 22.7434 41.751 22.6229 41.751C22.5025 41.751 22.4048 41.8502 22.4048 41.973C22.4048 42.0955 22.5025 42.1947 22.6229 42.1947Z" fill="white"/>
<path opacity="0.2" d="M27.5756 43.0088C28.1379 43.0088 28.5936 42.545 28.5936 41.973C28.5936 41.401 28.1379 40.9375 27.5756 40.9375C27.0134 40.9375 26.5576 41.401 26.5576 41.973C26.5576 42.545 27.0134 43.0088 27.5756 43.0088Z" fill="white"/>
<g opacity="0.4">
<path opacity="0.6" d="M26.9888 42.6483C26.5888 42.2413 26.5888 41.5755 26.9888 41.1688C27.0613 41.0948 27.1343 41.0578 27.2068 40.984C27.0613 41.0208 26.9523 41.0948 26.8433 41.2058C26.4435 41.6125 26.4435 42.2783 26.8433 42.685C27.1708 43.018 27.6795 43.0918 28.0795 42.8698C27.716 43.018 27.2798 42.944 26.9888 42.6483Z" fill="url(#paint10_linear_954_5266)"/>
</g>
<path opacity="0.3" d="M27.9336 41.6785C28.0541 41.6785 28.1516 41.5792 28.1516 41.4565C28.1516 41.3342 28.0541 41.2347 27.9336 41.2347C27.8131 41.2347 27.7153 41.3342 27.7153 41.4565C27.7153 41.5792 27.8131 41.6785 27.9336 41.6785Z" fill="white"/>
<path opacity="0.2" d="M24.9495 45.4156C25.3713 45.4156 25.713 45.0678 25.713 44.6391C25.713 44.2101 25.3713 43.8623 24.9495 43.8623C24.5279 43.8623 24.186 44.2101 24.186 44.6391C24.186 45.0678 24.5279 45.4156 24.9495 45.4156Z" fill="white"/>
<g opacity="0.4">
<path opacity="0.6" d="M24.5132 45.1243C24.2224 44.8283 24.2224 44.3108 24.5132 44.0148C24.5496 43.9778 24.6223 43.9411 24.6587 43.9038C24.5496 43.9411 24.4769 44.0148 24.4042 44.0888C24.1133 44.3846 24.1133 44.9026 24.4042 45.1983C24.6587 45.4573 25.0223 45.4941 25.3495 45.3093C25.0585 45.4203 24.7314 45.3463 24.5132 45.1243Z" fill="url(#paint11_linear_954_5266)"/>
</g>
<path opacity="0.3" d="M25.2056 44.3771C25.2858 44.3771 25.3508 44.3108 25.3508 44.2293C25.3508 44.1476 25.2858 44.0811 25.2056 44.0811C25.1253 44.0811 25.0601 44.1476 25.0601 44.2293C25.0601 44.3108 25.1253 44.3771 25.2056 44.3771Z" fill="white"/>
<path opacity="0.2" d="M29.6412 44.8572C30.0629 44.8572 30.4047 44.5097 30.4047 44.0807C30.4047 43.6517 30.0629 43.3042 29.6412 43.3042C29.2197 43.3042 28.8779 43.6517 28.8779 44.0807C28.8779 44.5097 29.2197 44.8572 29.6412 44.8572Z" fill="white"/>
<g opacity="0.4">
<path opacity="0.6" d="M29.2052 44.5662C28.9144 44.2702 28.9144 43.7525 29.2052 43.4567C29.2414 43.4197 29.3142 43.3827 29.3507 43.3457C29.2414 43.3827 29.1687 43.4567 29.0962 43.5307C28.8052 43.8265 28.8052 44.3442 29.0962 44.6402C29.3507 44.899 29.7142 44.936 30.0414 44.7512C29.7507 44.8622 29.4232 44.788 29.2052 44.5662Z" fill="url(#paint12_linear_954_5266)"/>
</g>
<path opacity="0.3" d="M29.8979 43.8232C29.9784 43.8232 30.0434 43.757 30.0434 43.6752C30.0434 43.5935 29.9784 43.5272 29.8979 43.5272C29.8177 43.5272 29.7524 43.5935 29.7524 43.6752C29.7524 43.757 29.8177 43.8232 29.8979 43.8232Z" fill="white"/>
<path opacity="0.2" d="M17.9341 43.1585C18.8578 43.1585 19.6065 42.3967 19.6065 41.4575C19.6065 40.518 18.8578 39.7562 17.9341 39.7562C17.0105 39.7562 16.2617 40.518 16.2617 41.4575C16.2617 42.3967 17.0105 43.1585 17.9341 43.1585Z" fill="white"/>
<g opacity="0.4">
<path opacity="0.6" d="M16.9892 42.526C16.3348 41.8603 16.3348 40.7878 16.9892 40.1223C17.0983 40.0113 17.2074 39.9373 17.3528 39.8633C17.1347 39.9373 16.9529 40.0853 16.7711 40.2333C16.1167 40.8988 16.1167 41.9713 16.7711 42.6368C17.3164 43.1915 18.1526 43.3025 18.807 42.8955C18.189 43.1545 17.4618 43.0435 16.9892 42.526Z" fill="url(#paint13_linear_954_5266)"/>
</g>
<path opacity="0.3" d="M18.5179 40.9373C18.7186 40.9373 18.8814 40.7718 18.8814 40.5675C18.8814 40.3633 18.7186 40.1978 18.5179 40.1978C18.317 40.1978 18.1543 40.3633 18.1543 40.5675C18.1543 40.7718 18.317 40.9373 18.5179 40.9373Z" fill="white"/>
<path opacity="0.2" d="M32.8847 38.9783C33.8084 38.9783 34.5572 38.2168 34.5572 37.2773C34.5572 36.3378 33.8084 35.5763 32.8847 35.5763C31.9612 35.5763 31.2124 36.3378 31.2124 37.2773C31.2124 38.2168 31.9612 38.9783 32.8847 38.9783Z" fill="white"/>
<g opacity="0.4">
<path opacity="0.6" d="M31.8934 38.35C31.2389 37.6845 31.2389 36.6122 31.8934 35.9465C32.0024 35.8355 32.1117 35.7615 32.2572 35.6875C32.0387 35.7615 31.8572 35.9095 31.6754 36.0575C31.0209 36.723 31.0209 37.7955 31.6754 38.461C32.2207 39.0157 33.0569 39.1267 33.7114 38.7197C33.0932 38.9787 32.4022 38.868 31.8934 38.35Z" fill="url(#paint14_linear_954_5266)"/>
</g>
<path opacity="0.3" d="M33.4592 36.7622C33.6602 36.7622 33.8227 36.5965 33.8227 36.3922C33.8227 36.188 33.6602 36.0225 33.4592 36.0225C33.2585 36.0225 33.0957 36.188 33.0957 36.3922C33.0957 36.5965 33.2585 36.7622 33.4592 36.7622Z" fill="white"/>
<defs>
<radialGradient id="paint0_radial_954_5266" cx="0" cy="0" r="1" gradientUnits="userSpaceOnUse" gradientTransform="translate(46.1033 6.8051) scale(16.2493 16.5275)">
<stop stop-color="#FFEAFF" stop-opacity="0.6"/>
<stop offset="0.6807" stop-color="#A087C9"/>
<stop offset="1" stop-color="#10002F"/>
</radialGradient>
<radialGradient id="paint1_radial_954_5266" cx="0" cy="0" r="1" gradientUnits="userSpaceOnUse" gradientTransform="translate(41.8485 24.4357) scale(45.5082 49.229)">
<stop stop-color="#FFEAFF" stop-opacity="0.6"/>
<stop offset="0.6807" stop-color="#A087C9"/>
<stop offset="1" stop-color="#10002F"/>
</radialGradient>
<linearGradient id="paint2_linear_954_5266" x1="20.3459" y1="48.485" x2="27.065" y2="7.73055" gradientUnits="userSpaceOnUse">
<stop stop-color="#81FFFF"/>
<stop offset="0.6202" stop-color="white" stop-opacity="0"/>
</linearGradient>
<linearGradient id="paint3_linear_954_5266" x1="37.9283" y1="14.0678" x2="20.8624" y2="29.4627" gradientUnits="userSpaceOnUse">
<stop offset="0.2888" stop-color="white"/>
<stop offset="0.7796" stop-color="white" stop-opacity="0"/>
</linearGradient>
<linearGradient id="paint4_linear_954_5266" x1="4.28054" y1="37.7285" x2="42.9018" y2="37.7285" gradientUnits="userSpaceOnUse">
<stop stop-color="#0002E9"/>
<stop offset="0.9952" stop-color="#FF00C7"/>
</linearGradient>
<linearGradient id="paint5_linear_954_5266" x1="44.7295" y1="29.6452" x2="23.3717" y2="49.4897" gradientUnits="userSpaceOnUse">
<stop offset="0.2888" stop-color="white"/>
<stop offset="0.7796" stop-color="white" stop-opacity="0"/>
</linearGradient>
<linearGradient id="paint6_linear_954_5266" x1="4.28054" y1="37.7285" x2="24.9426" y2="37.7285" gradientUnits="userSpaceOnUse">
<stop stop-color="#000292"/>
<stop offset="0.9952" stop-color="#7D00C7"/>
</linearGradient>
<linearGradient id="paint7_linear_954_5266" x1="4.30646" y1="29.7368" x2="42.8758" y2="29.7368" gradientUnits="userSpaceOnUse">
<stop stop-color="#000292"/>
<stop offset="0.9952" stop-color="#BE00C7"/>
</linearGradient>
<linearGradient id="paint8_linear_954_5266" x1="42.2432" y1="8.70089" x2="39.4022" y2="13.2395" gradientUnits="userSpaceOnUse">
<stop offset="0.2888" stop-color="white"/>
<stop offset="0.7796" stop-color="white" stop-opacity="0"/>
</linearGradient>
<linearGradient id="paint9_linear_954_5266" x1="21.2319" y1="42.5302" x2="22.7701" y2="42.5302" gradientUnits="userSpaceOnUse">
<stop offset="0.2888" stop-color="white"/>
<stop offset="0.7796" stop-color="white" stop-opacity="0"/>
</linearGradient>
<linearGradient id="paint10_linear_954_5266" x1="26.5388" y1="42.007" x2="28.0768" y2="42.007" gradientUnits="userSpaceOnUse">
<stop offset="0.2888" stop-color="white"/>
<stop offset="0.7796" stop-color="white" stop-opacity="0"/>
</linearGradient>
<linearGradient id="paint11_linear_954_5266" x1="24.1656" y1="44.6511" x2="25.3205" y2="44.6511" gradientUnits="userSpaceOnUse">
<stop offset="0.2888" stop-color="white"/>
<stop offset="0.7796" stop-color="white" stop-opacity="0"/>
</linearGradient>
<linearGradient id="paint12_linear_954_5266" x1="28.8574" y1="44.0927" x2="30.0122" y2="44.0927" gradientUnits="userSpaceOnUse">
<stop offset="0.2888" stop-color="white"/>
<stop offset="0.7796" stop-color="white" stop-opacity="0"/>
</linearGradient>
<linearGradient id="paint13_linear_954_5266" x1="16.2636" y1="41.497" x2="18.7756" y2="41.497" gradientUnits="userSpaceOnUse">
<stop offset="0.2888" stop-color="white"/>
<stop offset="0.7796" stop-color="white" stop-opacity="0"/>
</linearGradient>
<linearGradient id="paint14_linear_954_5266" x1="31.1819" y1="37.3197" x2="33.6937" y2="37.3197" gradientUnits="userSpaceOnUse">
<stop offset="0.2888" stop-color="white"/>
<stop offset="0.7796" stop-color="white" stop-opacity="0"/>
</linearGradient>
</defs>
</svg>
