<svg width="50" height="50" viewBox="0 0 50 50" fill="none" xmlns="http://www.w3.org/2000/svg">
<path fill-rule="evenodd" clip-rule="evenodd" d="M21.6453 0.0823303C21.413 0.138272 20.4628 0.328897 19.5336 0.506011C18.6045 0.683125 16.9891 1.16423 15.9438 1.57503C7.86554 4.74999 1.89349 11.8464 0.30192 20.1617C-0.114293 22.3364 -0.096766 27.7852 0.333384 29.8882C1.88441 37.4739 6.76473 43.8335 13.7265 47.3416C23.3484 52.19 34.988 50.2869 42.668 42.6096C50.2863 34.9934 52.1762 23.3685 47.3546 13.7828C44.0294 7.17175 37.5163 2.05845 30.4088 0.478779C28.8757 0.138061 22.5945 -0.146081 21.6453 0.0823303Z" fill="#B1B1B2"/>
<path fill-rule="evenodd" clip-rule="evenodd" d="M21.6453 0.0823303C21.413 0.138272 20.4628 0.328897 19.5336 0.506011C18.6045 0.683125 16.9891 1.16423 15.9438 1.57503C7.86554 4.74999 1.89349 11.8464 0.30192 20.1617C-0.114293 22.3364 -0.096766 27.7852 0.333384 29.8882C1.88441 37.4739 6.76473 43.8335 13.7265 47.3416C23.3484 52.19 34.988 50.2869 42.668 42.6096C50.2863 34.9934 52.1762 23.3685 47.3546 13.7828C44.0294 7.17175 37.5163 2.05845 30.4088 0.478779C28.8757 0.138061 22.5945 -0.146081 21.6453 0.0823303ZM23.5942 1.56088C23.5241 1.63097 23.3419 1.63857 23.1896 1.57756C23.0211 1.51022 23.0711 1.46019 23.3171 1.45006C23.5397 1.44098 23.6643 1.4908 23.5942 1.56088ZM26.7617 1.56088C26.6916 1.63097 26.5094 1.63857 26.3571 1.57756C26.1886 1.51022 26.2387 1.46019 26.4847 1.45006C26.7072 1.44098 26.8318 1.4908 26.7617 1.56088ZM11.9835 26.9239C11.9455 28.056 11.9145 27.1297 11.9145 24.8656C11.9145 22.6016 11.9455 21.6755 11.9835 22.8074C12.0213 23.9393 12.0213 25.7917 11.9835 26.9239ZM37.9488 22.1741C37.8983 22.4352 37.8571 22.2216 37.8571 21.6991C37.8571 21.1766 37.8983 20.963 37.9488 21.2241C37.999 21.4853 37.999 21.913 37.9488 22.1741ZM37.7997 22.8139C37.7997 22.8467 37.2059 23.4405 36.4799 24.1333L35.1601 25.3934L36.4206 24.074C37.5913 22.8484 37.7997 22.6579 37.7997 22.8139ZM37.9543 28.0849C37.9099 28.5785 37.8734 28.1747 37.8734 27.1878C37.8734 26.2009 37.9099 25.797 37.9543 26.2906C37.9988 26.7841 37.9988 27.5914 37.9543 28.0849ZM24.2277 42.7257C24.1576 42.7958 23.9754 42.8034 23.8231 42.7423C23.6546 42.675 23.7046 42.625 23.9507 42.6148C24.1732 42.6058 24.2978 42.6556 24.2277 42.7257ZM26.1282 42.7257C26.0581 42.7958 25.8759 42.8034 25.7236 42.7423C25.5551 42.675 25.6052 42.625 25.8512 42.6148C26.0737 42.6058 26.1983 42.6556 26.1282 42.7257ZM23.8054 48.4254C23.7353 48.4955 23.553 48.5031 23.4008 48.4421C23.2323 48.3747 23.2823 48.3247 23.5283 48.3146C23.7509 48.3055 23.8755 48.3553 23.8054 48.4254ZM26.5506 48.4254C26.4804 48.4955 26.2982 48.5031 26.146 48.4421C25.9774 48.3747 26.0275 48.3247 26.2735 48.3146C26.4961 48.3055 26.6207 48.3553 26.5506 48.4254Z" fill="#868788"/>
<path fill-rule="evenodd" clip-rule="evenodd" d="M21.6453 0.0823303C21.413 0.138272 20.4628 0.328897 19.5336 0.506011C18.6045 0.683125 16.9891 1.16423 15.9438 1.57503C7.86554 4.74999 1.89349 11.8464 0.30192 20.1617C-0.114293 22.3364 -0.096766 27.7852 0.333384 29.8882C1.88441 37.4739 6.76473 43.8335 13.7265 47.3416C23.3484 52.19 34.988 50.2869 42.668 42.6096C50.2863 34.9934 52.1762 23.3685 47.3546 13.7828C44.0294 7.17175 37.5163 2.05845 30.4088 0.478779C28.8757 0.138061 22.5945 -0.146081 21.6453 0.0823303ZM23.4931 1.57313C23.348 1.63181 23.1104 1.63181 22.9651 1.57313C22.8201 1.51465 22.9387 1.46673 23.2291 1.46673C23.5194 1.46673 23.6383 1.51465 23.4931 1.57313ZM26.8717 1.57313C26.7267 1.63181 26.4891 1.63181 26.3438 1.57313C26.1988 1.51465 26.3174 1.46673 26.6078 1.46673C26.8981 1.46673 27.017 1.51465 26.8717 1.57313ZM25.1824 3.68414C25.0373 3.74283 24.7998 3.74283 24.6545 3.68414C24.5094 3.62567 24.6281 3.57775 24.9184 3.57775C25.2088 3.57775 25.3277 3.62567 25.1824 3.68414ZM23.8054 7.26062C23.7353 7.33071 23.553 7.33831 23.4008 7.2773C23.2323 7.20996 23.2823 7.15993 23.5283 7.1498C23.7509 7.14072 23.8755 7.19054 23.8054 7.26062ZM26.5506 7.26062C26.4804 7.33071 26.2982 7.33831 26.146 7.2773C25.9774 7.20996 26.0275 7.15993 26.2735 7.1498C26.4961 7.14072 26.6207 7.19054 26.5506 7.26062ZM8.65848 8.05035C8.65848 8.09046 8.44457 8.3041 8.18335 8.52533L7.70822 8.92748L8.1105 8.4525C8.48849 8.00623 8.65848 7.88147 8.65848 8.05035ZM41.7063 8.39973C41.9164 8.63194 42.041 8.82193 41.9829 8.82193C41.9249 8.82193 41.7053 8.63194 41.4951 8.39973C41.285 8.16752 41.1604 7.97752 41.2185 7.97752C41.2766 7.97752 41.4962 8.16752 41.7063 8.39973ZM10.9813 8.89476C10.9813 8.93487 10.7674 9.1485 10.5062 9.36974L10.0311 9.77189L10.4333 9.29691C10.8113 8.85064 10.9813 8.72588 10.9813 8.89476ZM39.3835 9.24413C39.5936 9.47635 39.7182 9.66634 39.6601 9.66634C39.602 9.66634 39.3824 9.47635 39.1723 9.24413C38.9622 9.01192 38.8376 8.82193 38.8957 8.82193C38.9537 8.82193 39.1734 9.01192 39.3835 9.24413ZM9.50315 10.3794C9.50315 10.4231 9.33675 10.5895 9.13361 10.7489C8.7987 11.0113 8.79131 11.0039 9.05379 10.6691C9.32979 10.3174 9.50315 10.2057 9.50315 10.3794ZM40.7831 10.6691C41.0456 11.0039 41.0382 11.0113 40.7033 10.7489C40.3515 10.473 40.2398 10.2996 40.4135 10.2996C40.4573 10.2996 40.6237 10.466 40.7831 10.6691ZM19.7835 20.8944C19.7161 21.0626 19.666 21.0126 19.6559 20.7667C19.6468 20.5442 19.6967 20.4196 19.7668 20.4897C19.8369 20.5598 19.8445 20.742 19.7835 20.8944ZM30.1307 20.8944C30.0633 21.0626 30.0133 21.0126 30.0032 20.7667C29.9941 20.5442 30.0439 20.4196 30.114 20.4897C30.1841 20.5598 30.1917 20.742 30.1307 20.8944ZM11.9835 26.9239C11.9455 28.056 11.9145 27.1297 11.9145 24.8656C11.9145 22.6016 11.9455 21.6755 11.9835 22.8074C12.0213 23.9393 12.0213 25.7917 11.9835 26.9239ZM37.9488 22.1741C37.8983 22.4352 37.8571 22.2216 37.8571 21.6991C37.8571 21.1766 37.8983 20.963 37.9488 21.2241C37.999 21.4853 37.999 21.913 37.9488 22.1741ZM3.73467 23.2165C3.66731 23.3848 3.61726 23.3347 3.60713 23.0888C3.59804 22.8663 3.64788 22.7417 3.71799 22.8118C3.7881 22.8819 3.7957 23.0641 3.73467 23.2165ZM36.6497 24.0096L35.4074 25.2646L36.6564 25.329L37.9053 25.3934L37.9182 27.0822L37.9308 28.771L37.8567 27.135L37.7826 25.4989H36.5242C35.832 25.4989 35.2657 25.4305 35.2657 25.3467C35.2657 25.1764 37.6208 22.7546 37.7864 22.7546C37.8445 22.7546 37.333 23.3193 36.6497 24.0096ZM46.1795 23.2165C46.1121 23.3848 46.0621 23.3347 46.0519 23.0888C46.0429 22.8663 46.0927 22.7417 46.1628 22.8118C46.2329 22.8819 46.2405 23.0641 46.1795 23.2165ZM19.1595 25.4419C18.7213 25.4875 18.0561 25.4869 17.6813 25.4403C17.3062 25.3936 17.6648 25.3562 18.4778 25.3571C19.2908 25.3581 19.5974 25.3961 19.1595 25.4419ZM3.73467 27.0163C3.66731 27.1846 3.61726 27.1346 3.60713 26.8886C3.59804 26.6661 3.64788 26.5416 3.71799 26.6117C3.7881 26.6817 3.7957 26.8639 3.73467 27.0163ZM46.1795 27.0163C46.1121 27.1846 46.0621 27.1346 46.0519 26.8886C46.0429 26.6661 46.0927 26.5416 46.1628 26.6117C46.2329 26.6817 46.2405 26.8639 46.1795 27.0163ZM1.62299 27.8607C1.55563 28.029 1.50558 27.979 1.49544 27.733C1.48636 27.5105 1.5362 27.386 1.60631 27.4561C1.67641 27.5262 1.68402 27.7083 1.62299 27.8607ZM48.2912 27.8607C48.2238 28.029 48.1738 27.979 48.1636 27.733C48.1545 27.5105 48.2044 27.386 48.2745 27.4561C48.3446 27.5262 48.3522 27.7083 48.2912 27.8607ZM19.7835 28.9163C19.7161 29.0845 19.666 29.0345 19.6559 28.7885C19.6468 28.566 19.6967 28.4415 19.7668 28.5116C19.8369 28.5817 19.8445 28.7638 19.7835 28.9163ZM30.1307 28.9163C30.0633 29.0845 30.0133 29.0345 30.0032 28.7885C29.9941 28.566 30.0439 28.4415 30.114 28.5116C30.1841 28.5817 30.1917 28.7638 30.1307 28.9163ZM19.0057 30.8493C19.0057 30.8894 18.7918 31.1031 18.5306 31.3243L18.0555 31.7264L18.4577 31.2515C18.8357 30.8052 19.0057 30.6804 19.0057 30.8493ZM31.3591 31.1987C31.5692 31.4309 31.6938 31.6209 31.6357 31.6209C31.5776 31.6209 31.358 31.4309 31.1479 31.1987C30.9378 30.9665 30.8132 30.7765 30.8713 30.7765C30.9293 30.7765 31.149 30.9665 31.3591 31.1987ZM10.7702 40.8477C10.7702 41.0062 10.5805 40.8386 9.70545 39.9066L8.76406 38.9039L9.76711 39.845C10.3187 40.3626 10.7702 40.8139 10.7702 40.8477ZM40.1226 39.9594C39.6096 40.4819 39.1425 40.9094 39.0844 40.9094C39.0264 40.9094 39.3985 40.4819 39.9114 39.9594C40.4243 39.4369 40.8914 39.0094 40.9495 39.0094C41.0076 39.0094 40.6355 39.4369 40.1226 39.9594ZM24.1266 42.7379C23.9815 42.7966 23.7439 42.7966 23.5986 42.7379C23.4536 42.6794 23.5722 42.6315 23.8626 42.6315C24.153 42.6315 24.2718 42.6794 24.1266 42.7379ZM26.2382 42.7379C26.0932 42.7966 25.8556 42.7966 25.7103 42.7379C25.5652 42.6794 25.6839 42.6315 25.9743 42.6315C26.2646 42.6315 26.3835 42.6794 26.2382 42.7379ZM23.7042 48.4376C23.5591 48.4963 23.3216 48.4963 23.1763 48.4376C23.0312 48.3792 23.1499 48.3313 23.4403 48.3313C23.7306 48.3313 23.8495 48.3792 23.7042 48.4376ZM26.6606 48.4376C26.5155 48.4963 26.2779 48.4963 26.1327 48.4376C25.9876 48.3792 26.1063 48.3313 26.3966 48.3313C26.687 48.3313 26.8059 48.3792 26.6606 48.4376Z" fill="#6E6F70"/>
<path fill-rule="evenodd" clip-rule="evenodd" d="M21.6453 0.0823303C21.413 0.138272 20.4628 0.328897 19.5336 0.506011C18.6045 0.683125 16.9891 1.16423 15.9438 1.57503C7.86554 4.74999 1.89349 11.8464 0.30192 20.1617C-0.114293 22.3364 -0.096766 27.7852 0.333384 29.8882C1.88441 37.4739 6.76473 43.8335 13.7265 47.3416C23.3484 52.19 34.988 50.2869 42.668 42.6096C50.2863 34.9934 52.1762 23.3685 47.3546 13.7828C44.0294 7.17175 37.5163 2.05845 30.4088 0.478779C28.8757 0.138061 22.5945 -0.146081 21.6453 0.0823303ZM23.3875 1.57883C23.1841 1.63203 22.8517 1.63203 22.6484 1.57883C22.445 1.52584 22.6114 1.48236 23.0179 1.48236C23.4244 1.48236 23.5908 1.52584 23.3875 1.57883ZM27.1885 1.57883C26.9851 1.63203 26.6528 1.63203 26.4494 1.57883C26.2461 1.52584 26.4125 1.48236 26.819 1.48236C27.2255 1.48236 27.3919 1.52584 27.1885 1.57883ZM21.4825 1.77199C21.4124 1.84207 21.2302 1.84967 21.0779 1.78866C20.9094 1.72132 20.9595 1.67129 21.2055 1.66116C21.428 1.65208 21.5526 1.7019 21.4825 1.77199ZM28.8734 1.77199C28.8033 1.84207 28.6211 1.84967 28.4688 1.78866C28.3003 1.72132 28.3503 1.67129 28.5964 1.66116C28.8189 1.65208 28.9435 1.7019 28.8734 1.77199ZM25.1824 3.68414C25.0373 3.74283 24.7998 3.74283 24.6545 3.68414C24.5094 3.62567 24.6281 3.57775 24.9184 3.57775C25.2088 3.57775 25.3277 3.62567 25.1824 3.68414ZM22.3272 3.883C22.2571 3.95309 22.0748 3.96069 21.9226 3.89968C21.7541 3.83234 21.8041 3.78231 22.0501 3.77217C22.2727 3.76309 22.3973 3.81291 22.3272 3.883ZM28.0287 3.883C27.9586 3.95309 27.7764 3.96069 27.6241 3.89968C27.4556 3.83234 27.5057 3.78231 27.7517 3.77217C27.9743 3.76309 28.0988 3.81291 28.0287 3.883ZM21.0602 4.0941C20.9901 4.16419 20.8078 4.17179 20.6556 4.11078C20.4871 4.04344 20.5371 3.99341 20.7831 3.98327C21.0057 3.9742 21.1303 4.02402 21.0602 4.0941ZM29.2957 4.0941C29.2256 4.16419 29.0434 4.17179 28.8911 4.11078C28.7226 4.04344 28.7727 3.99341 29.0187 3.98327C29.2413 3.9742 29.3659 4.02402 29.2957 4.0941ZM23.7042 7.27287C23.5591 7.33155 23.3216 7.33155 23.1763 7.27287C23.0312 7.21439 23.1499 7.16647 23.4403 7.16647C23.7306 7.16647 23.8495 7.21439 23.7042 7.27287ZM26.6606 7.27287C26.5155 7.33155 26.2779 7.33155 26.1327 7.27287C25.9876 7.21439 26.1063 7.16647 26.3966 7.16647C26.687 7.16647 26.8059 7.21439 26.6606 7.27287ZM9.08082 7.61802C9.08082 7.65243 8.67685 8.05627 8.18335 8.5152L7.28589 9.34968L8.12064 8.4525C8.89689 7.61823 9.08082 7.45822 9.08082 7.61802ZM41.7063 8.39973C42.1599 8.86415 42.4836 9.24413 42.4256 9.24413C42.3675 9.24413 41.9487 8.86415 41.4951 8.39973C41.0416 7.9353 40.7178 7.55532 40.7759 7.55532C40.834 7.55532 41.2527 7.9353 41.7063 8.39973ZM10.9813 8.88273C10.9813 8.91608 10.4826 9.4147 9.8727 9.99101L8.76406 11.0385L9.81188 9.93021C10.7858 8.90046 10.9813 8.72503 10.9813 8.88273ZM40.017 9.87744C40.589 10.458 41.0095 10.9329 40.9514 10.9329C40.8933 10.9329 40.3779 10.458 39.8058 9.87744C39.2337 9.29691 38.8133 8.82193 38.8714 8.82193C38.9295 8.82193 39.4449 9.29691 40.017 9.87744ZM11.4037 13.546C11.4037 13.5897 11.2373 13.756 11.0341 13.9154C10.6992 14.1778 10.6918 14.1704 10.9543 13.8356C11.2303 13.4839 11.4037 13.3722 11.4037 13.546ZM38.8826 13.8356C39.1451 14.1704 39.1377 14.1778 38.8027 13.9154C38.5994 13.756 38.4332 13.5897 38.4332 13.546C38.4332 13.3722 38.6066 13.4839 38.8826 13.8356ZM15.5698 17.3935C15.4997 17.4636 15.3175 17.4712 15.1652 17.4102C14.9967 17.3428 15.0467 17.2928 15.2928 17.2827C15.5153 17.2736 15.6399 17.3234 15.5698 17.3935ZM16.6256 17.3935C16.5555 17.4636 16.3733 17.4712 16.2211 17.4102C16.0525 17.3428 16.1026 17.2928 16.3486 17.2827C16.5712 17.2736 16.6958 17.3234 16.6256 17.3935ZM33.7303 17.3935C33.6602 17.4636 33.4779 17.4712 33.3257 17.4102C33.1572 17.3428 33.2072 17.2928 33.4532 17.2827C33.6758 17.2736 33.8004 17.3234 33.7303 17.3935ZM34.7861 17.3935C34.716 17.4636 34.5338 17.4712 34.3815 17.4102C34.213 17.3428 34.2631 17.2928 34.5091 17.2827C34.7316 17.2736 34.8562 17.3234 34.7861 17.3935ZM18.549 23.9505L17.223 25.2878H18.5367H19.8504L19.8069 27.2405L19.7636 29.1932L19.6931 27.3461L19.6228 25.4989H18.364C17.6716 25.4989 17.1052 25.4246 17.1052 25.3341C17.1052 25.2433 17.6754 24.6051 18.3722 23.9157C19.5968 22.7042 19.6405 22.6233 19.6783 21.4946L19.7174 20.327L19.7961 21.4701L19.8749 22.613L18.549 23.9505ZM30.1442 26.9125C30.1068 28.1668 30.076 27.1983 30.0758 24.7601C30.0756 22.3219 30.1062 21.2955 30.1438 22.4793C30.1814 23.663 30.1816 25.6579 30.1442 26.9125ZM11.9835 26.9239C11.9455 28.056 11.9145 27.1297 11.9145 24.8656C11.9145 22.6016 11.9455 21.6755 11.9835 22.8074C12.0213 23.9393 12.0213 25.7917 11.9835 26.9239ZM37.9488 22.1741C37.8983 22.4352 37.8571 22.2216 37.8571 21.6991C37.8571 21.1766 37.8983 20.963 37.9488 21.2241C37.999 21.4853 37.999 21.913 37.9488 22.1741ZM1.62299 22.161C1.55563 22.3293 1.50558 22.2792 1.49544 22.0333C1.48636 21.8108 1.5362 21.6862 1.60631 21.7563C1.67641 21.8264 1.68402 22.0086 1.62299 22.161ZM48.2912 22.161C48.2238 22.3293 48.1738 22.2792 48.1636 22.0333C48.1545 21.8108 48.2044 21.6862 48.2745 21.7563C48.3446 21.8264 48.3522 22.0086 48.2912 22.161ZM7.32453 22.5832C7.25717 22.7515 7.20712 22.7014 7.19699 22.4555C7.1879 22.233 7.23774 22.1084 7.30785 22.1785C7.37796 22.2486 7.38556 22.4308 7.32453 22.5832ZM3.73594 23.7574C3.68293 23.9606 3.63943 23.7943 3.63943 23.3879C3.63943 22.9816 3.68293 22.8152 3.73594 23.0185C3.78915 23.2218 3.78915 23.5541 3.73594 23.7574ZM36.6497 24.0096L35.4074 25.2646L36.6564 25.329L37.9053 25.3934L37.9182 27.0822L37.9308 28.771L37.8567 27.135L37.7826 25.4989H36.5242C35.832 25.4989 35.2657 25.4305 35.2657 25.3467C35.2657 25.1764 37.6208 22.7546 37.7864 22.7546C37.8445 22.7546 37.333 23.3193 36.6497 24.0096ZM46.1808 23.7574C46.1278 23.9606 46.0843 23.7943 46.0843 23.3879C46.0843 22.9816 46.1278 22.8152 46.1808 23.0185C46.234 23.2218 46.234 23.5541 46.1808 23.7574ZM1.41393 25.2311C1.3603 25.4365 1.31299 25.3195 1.30877 24.9712C1.30455 24.6229 1.34826 24.4548 1.40612 24.5978C1.46398 24.7407 1.46757 25.0257 1.41393 25.2311ZM48.5045 25.2311C48.4508 25.4365 48.4035 25.3195 48.3993 24.9712C48.3951 24.6229 48.4388 24.4548 48.4966 24.5978C48.5545 24.7407 48.5581 25.0257 48.5045 25.2311ZM3.73594 26.9239C3.68293 27.1272 3.63943 26.9608 3.63943 26.5545C3.63943 26.1481 3.68293 25.9817 3.73594 26.185C3.78915 26.3883 3.78915 26.7206 3.73594 26.9239ZM46.1808 26.9239C46.1278 27.1272 46.0843 26.9608 46.0843 26.5545C46.0843 26.1481 46.1278 25.9817 46.1808 26.185C46.234 26.3883 46.234 26.7206 46.1808 26.9239ZM1.61855 28.0849C1.56006 28.2302 1.51213 28.1113 1.51213 27.8211C1.51213 27.5308 1.56006 27.4122 1.61855 27.5572C1.67726 27.7024 1.67726 27.9399 1.61855 28.0849ZM48.2867 28.0849C48.2282 28.2302 48.1803 28.1113 48.1803 27.8211C48.1803 27.5308 48.2282 27.4122 48.2867 27.5572C48.3454 27.7024 48.3454 27.9399 48.2867 28.0849ZM3.94584 28.4941C3.87848 28.6623 3.82843 28.6123 3.81829 28.3663C3.80921 28.1438 3.85905 28.0193 3.92916 28.0894C3.99926 28.1595 4.00687 28.3416 3.94584 28.4941ZM45.9683 28.4941C45.901 28.6623 45.8509 28.6123 45.8408 28.3663C45.8317 28.1438 45.8815 28.0193 45.9516 28.0894C46.0218 28.1595 46.0294 28.3416 45.9683 28.4941ZM19.0057 30.8493C19.0057 30.8894 18.7918 31.1031 18.5306 31.3243L18.0555 31.7264L18.4577 31.2515C18.8357 30.8052 19.0057 30.6804 19.0057 30.8493ZM31.3591 31.1987C31.5692 31.4309 31.6938 31.6209 31.6357 31.6209C31.5776 31.6209 31.358 31.4309 31.1479 31.1987C30.9378 30.9665 30.8132 30.7765 30.8713 30.7765C30.9293 30.7765 31.149 30.9665 31.3591 31.1987ZM13.7535 38.7456C14.016 39.0804 14.0086 39.0878 13.6737 38.8254C13.4704 38.666 13.3042 38.4996 13.3042 38.4559C13.3042 38.2822 13.4776 38.3939 13.7535 38.7456ZM36.5327 38.4559C36.5327 38.4996 36.3665 38.666 36.1631 38.8254C35.8282 39.0878 35.8208 39.0804 36.0833 38.7456C36.3593 38.3939 36.5327 38.2822 36.5327 38.4559ZM10.7702 40.8477C10.7702 41.0062 10.5805 40.8386 9.70545 39.9066L8.76406 38.9039L9.76711 39.845C10.3187 40.3626 10.7702 40.8139 10.7702 40.8477ZM40.1226 39.9594C39.6096 40.4819 39.1425 40.9094 39.0844 40.9094C39.0264 40.9094 39.3985 40.4819 39.9114 39.9594C40.4243 39.4369 40.8914 39.0094 40.9495 39.0094C41.0076 39.0094 40.6355 39.4369 40.1226 39.9594ZM6.785 39.8011C7.04748 40.1359 7.04009 40.1433 6.70517 39.8809C6.35337 39.605 6.24166 39.4316 6.41545 39.4316C6.45916 39.4316 6.62556 39.5978 6.785 39.8011ZM43.5012 39.5114C43.5012 39.5551 43.3351 39.7215 43.1317 39.8809C42.7968 40.1433 42.7894 40.1359 43.0519 39.8011C43.3279 39.4494 43.5012 39.3377 43.5012 39.5114ZM8.35503 41.5954L8.97523 42.2815L8.28894 41.6615C7.64931 41.0835 7.5055 40.9094 7.66874 40.9094C7.70506 40.9094 8.014 41.2182 8.35503 41.5954ZM42.2342 40.9754C42.2342 41.0117 41.9253 41.3206 41.5479 41.6615L40.8616 42.2815L41.4818 41.5954C42.06 40.956 42.2342 40.8122 42.2342 40.9754ZM24.021 42.7436C23.8176 42.7968 23.4852 42.7968 23.2819 42.7436C23.0785 42.6906 23.2449 42.6471 23.6514 42.6471C24.0579 42.6471 24.2243 42.6906 24.021 42.7436ZM26.555 42.7436C26.3516 42.7968 26.0193 42.7968 25.8159 42.7436C25.6125 42.6906 25.7789 42.6471 26.1854 42.6471C26.5919 42.6471 26.7583 42.6906 26.555 42.7436ZM10.1637 43.1787C10.4262 43.5135 10.4188 43.5209 10.0839 43.2585C9.73206 42.9826 9.62035 42.8093 9.79414 42.8093C9.83786 42.8093 10.0043 42.9754 10.1637 43.1787ZM40.1226 42.8891C40.1226 42.9328 39.9564 43.0991 39.753 43.2585C39.4181 43.5209 39.4107 43.5135 39.6732 43.1787C39.9492 42.827 40.1226 42.7153 40.1226 42.8891ZM22.5384 46.1033C22.4683 46.1734 22.286 46.181 22.1338 46.12C21.9653 46.0526 22.0153 46.0026 22.2613 45.9925C22.4839 45.9834 22.6085 46.0332 22.5384 46.1033ZM27.8176 46.1033C27.7475 46.1734 27.5652 46.181 27.413 46.12C27.2445 46.0526 27.2945 46.0026 27.5405 45.9925C27.7631 45.9834 27.8877 46.0332 27.8176 46.1033ZM23.5986 48.4433C23.3953 48.4965 23.0629 48.4965 22.8595 48.4433C22.6562 48.3904 22.8226 48.3469 23.2291 48.3469C23.6356 48.3469 23.802 48.3904 23.5986 48.4433ZM26.9773 48.4433C26.774 48.4965 26.4416 48.4965 26.2382 48.4433C26.0349 48.3904 26.2013 48.3469 26.6078 48.3469C27.0143 48.3469 27.1807 48.3904 26.9773 48.4433Z" fill="#4E4F50"/>
<path fill-rule="evenodd" clip-rule="evenodd" d="M21.6453 0.0823303C21.413 0.138272 20.4628 0.328897 19.5336 0.506011C18.6045 0.683125 16.9891 1.16423 15.9438 1.57503C7.86554 4.74999 1.89349 11.8464 0.30192 20.1617C-0.114293 22.3364 -0.096766 27.7852 0.333384 29.8882C1.88441 37.4739 6.76473 43.8335 13.7265 47.3416C23.3484 52.19 34.988 50.2869 42.668 42.6096C50.2863 34.9934 52.1762 23.3685 47.3546 13.7828C44.0294 7.17175 37.5163 2.05845 30.4088 0.478779C28.8757 0.138061 22.5945 -0.146081 21.6453 0.0823303ZM23.39 1.57841C23.1881 1.63118 22.808 1.63308 22.5453 1.58263C22.2826 1.53218 22.4478 1.4889 22.9123 1.48658C23.3769 1.48426 23.5919 1.52563 23.39 1.57841ZM27.4022 1.57841C27.2003 1.63118 26.8202 1.63308 26.5575 1.58263C26.2948 1.53218 26.46 1.4889 26.9245 1.48658C27.3891 1.48426 27.6041 1.52563 27.4022 1.57841ZM21.3814 1.78423C21.2363 1.84292 20.9987 1.84292 20.8534 1.78423C20.7084 1.72576 20.8271 1.67784 21.1174 1.67784C21.4078 1.67784 21.5267 1.72576 21.3814 1.78423ZM28.9834 1.78423C28.8384 1.84292 28.6008 1.84292 28.4555 1.78423C28.3104 1.72576 28.4291 1.67784 28.7195 1.67784C29.0098 1.67784 29.1287 1.72576 28.9834 1.78423ZM20.2155 1.98309C20.1454 2.05317 19.9632 2.06077 19.8109 1.99976C19.6424 1.93242 19.6924 1.88239 19.9385 1.87226C20.161 1.86318 20.2856 1.913 20.2155 1.98309ZM30.1404 1.98309C30.0703 2.05317 29.8881 2.06077 29.7358 1.99976C29.5673 1.93242 29.6174 1.88239 29.8634 1.87226C30.0859 1.86318 30.2105 1.913 30.1404 1.98309ZM19.3708 2.19419C19.3007 2.26427 19.1185 2.27187 18.9662 2.21087C18.7977 2.14352 18.8478 2.09349 19.0938 2.08336C19.3164 2.07428 19.4409 2.1241 19.3708 2.19419ZM30.9851 2.19419C30.915 2.26427 30.7327 2.27187 30.5805 2.21087C30.412 2.14352 30.462 2.09349 30.708 2.08336C30.9306 2.07428 31.0552 2.1241 30.9851 2.19419ZM15.4159 3.54439C15.2417 3.65691 15.0041 3.74895 14.8879 3.74895C14.7718 3.74895 14.8193 3.65691 14.9935 3.54439C15.1677 3.43188 15.4053 3.33984 15.5215 3.33984C15.6376 3.33984 15.5901 3.43188 15.4159 3.54439ZM34.8433 3.54439C35.0176 3.65691 35.0651 3.74895 34.9489 3.74895C34.8328 3.74895 34.5952 3.65691 34.421 3.54439C34.2468 3.43188 34.1993 3.33984 34.3154 3.33984C34.4316 3.33984 34.6691 3.43188 34.8433 3.54439ZM25.1824 3.68414C25.0373 3.74283 24.7998 3.74283 24.6545 3.68414C24.5094 3.62567 24.6281 3.57775 24.9184 3.57775C25.2088 3.57775 25.3277 3.62567 25.1824 3.68414ZM22.6524 3.89398C22.5094 3.95182 22.2244 3.95541 22.0189 3.90179C21.8134 3.84817 21.9304 3.80088 22.2788 3.79666C22.6273 3.79244 22.7954 3.83614 22.6524 3.89398ZM27.9316 3.89398C27.7886 3.95182 27.5036 3.95541 27.2981 3.90179C27.0926 3.84817 27.2096 3.80088 27.558 3.79666C27.9065 3.79244 28.0746 3.83614 27.9316 3.89398ZM14.1489 4.06476C14.1489 4.11859 13.9349 4.26636 13.6737 4.39302C13.2174 4.61405 13.2149 4.61025 13.6085 4.29486C14.0393 3.94992 14.1489 3.90327 14.1489 4.06476ZM21.1702 4.10635C21.0251 4.16503 20.7876 4.16503 20.6423 4.10635C20.4972 4.04787 20.6159 3.99995 20.9062 3.99995C21.1966 3.99995 21.3155 4.04787 21.1702 4.10635ZM29.1946 4.10635C29.0495 4.16503 28.812 4.16503 28.6667 4.10635C28.5216 4.04787 28.6403 3.99995 28.9306 3.99995C29.221 3.99995 29.3399 4.04787 29.1946 4.10635ZM36.5327 4.50913C36.5327 4.56718 36.3426 4.51314 36.1104 4.3888C35.8781 4.26446 35.688 4.11542 35.688 4.05737C35.688 3.99932 35.8781 4.05336 36.1104 4.1777C36.3426 4.30204 36.5327 4.45107 36.5327 4.50913ZM20.2155 4.3052C20.1454 4.37529 19.9632 4.38289 19.8109 4.32188C19.6424 4.25454 19.6924 4.20451 19.9385 4.19438C20.161 4.1853 20.2856 4.23512 20.2155 4.3052ZM30.1404 4.3052C30.0703 4.37529 29.8881 4.38289 29.7358 4.32188C29.5673 4.25454 29.6174 4.20451 29.8634 4.19438C30.0859 4.1853 30.2105 4.23512 30.1404 4.3052ZM16.6829 5.44431C16.5087 5.55682 16.2711 5.64886 16.155 5.64886C16.0388 5.64886 16.0863 5.55682 16.2605 5.44431C16.4348 5.33179 16.6723 5.23975 16.7885 5.23975C16.9046 5.23975 16.8571 5.33179 16.6829 5.44431ZM33.5763 5.44431C33.7505 5.55682 33.7981 5.64886 33.6819 5.64886C33.5658 5.64886 33.3282 5.55682 33.154 5.44431C32.9798 5.33179 32.9323 5.23975 33.0484 5.23975C33.1646 5.23975 33.4021 5.33179 33.5763 5.44431ZM10.559 6.36851C10.559 6.41221 10.3926 6.57855 10.1895 6.73794C9.85454 7.00034 9.84715 6.99295 10.1096 6.65814C10.3856 6.30645 10.559 6.19477 10.559 6.36851ZM39.7272 6.65814C39.9897 6.99295 39.9823 7.00034 39.6474 6.73794C39.2956 6.46203 39.1839 6.28871 39.3577 6.28871C39.4014 6.28871 39.5678 6.45506 39.7272 6.65814ZM9.50315 7.19307C9.50315 7.226 8.95686 7.77233 8.28894 8.40691L7.07472 9.56079L8.22896 8.34695C9.30128 7.21925 9.50315 7.03643 9.50315 7.19307ZM23.5986 7.27857C23.3953 7.33177 23.0629 7.33177 22.8595 7.27857C22.6562 7.22558 22.8226 7.18209 23.2291 7.18209C23.6356 7.18209 23.802 7.22558 23.5986 7.27857ZM26.9773 7.27857C26.774 7.33177 26.4416 7.33177 26.2382 7.27857C26.0349 7.22558 26.2013 7.18209 26.6078 7.18209C27.0143 7.18209 27.1807 7.22558 26.9773 7.27857ZM41.6007 8.29418C42.2315 8.93276 42.7003 9.45523 42.6422 9.45523C42.5841 9.45523 42.0203 8.93276 41.3896 8.29418C40.7588 7.65559 40.29 7.13312 40.3481 7.13312C40.4062 7.13312 40.97 7.65559 41.6007 8.29418ZM21.9049 7.47173C21.8347 7.54181 21.6525 7.54941 21.5003 7.4884C21.3317 7.42106 21.3818 7.37103 21.6278 7.3609C21.8504 7.35182 21.975 7.40164 21.9049 7.47173ZM28.4511 7.47173C28.381 7.54181 28.1987 7.54941 28.0465 7.4884C27.878 7.42106 27.928 7.37103 28.174 7.3609C28.3966 7.35182 28.5212 7.40164 28.4511 7.47173ZM12.0372 8.05732C12.0372 8.10102 11.871 8.26737 11.6676 8.42675C11.3327 8.68915 11.3253 8.68176 11.5878 8.34695C11.8638 7.99526 12.0372 7.88358 12.0372 8.05732ZM38.2491 8.34695C38.5116 8.68176 38.5042 8.68915 38.1692 8.42675C37.8174 8.15084 37.7057 7.97752 37.8795 7.97752C37.9232 7.97752 38.0896 8.14387 38.2491 8.34695ZM10.9813 8.88273C10.9813 8.91608 10.4826 9.4147 9.8727 9.99101L8.76406 11.0385L9.81188 9.93021C10.7858 8.90046 10.9813 8.72503 10.9813 8.88273ZM40.017 9.87744C40.589 10.458 41.0095 10.9329 40.9514 10.9329C40.8933 10.9329 40.3779 10.458 39.8058 9.87744C39.2337 9.29691 38.8133 8.82193 38.8714 8.82193C38.9295 8.82193 39.4449 9.29691 40.017 9.87744ZM6.75797 10.1683C6.75797 10.212 6.59157 10.3784 6.38842 10.5378C6.05351 10.8002 6.04612 10.7928 6.3086 10.458C6.5846 10.1063 6.75797 9.9946 6.75797 10.1683ZM14.9935 10.1683C14.9935 10.212 14.8273 10.3784 14.624 10.5378C14.2891 10.8002 14.2817 10.7928 14.5442 10.458C14.8202 10.1063 14.9935 9.9946 14.9935 10.1683ZM35.2927 10.458C35.5552 10.7928 35.5478 10.8002 35.2129 10.5378C34.8611 10.2619 34.7494 10.0885 34.9232 10.0885C34.9669 10.0885 35.1333 10.2549 35.2927 10.458ZM43.5283 10.458C43.7908 10.7928 43.7834 10.8002 43.4485 10.5378C43.2451 10.3784 43.0789 10.212 43.0789 10.1683C43.0789 9.9946 43.2523 10.1063 43.5283 10.458ZM14.1489 10.8016C14.1489 10.8453 13.9827 11.0117 13.7793 11.1711C13.4444 11.4335 13.437 11.4261 13.6995 11.0913C13.9755 10.7396 14.1489 10.6279 14.1489 10.8016ZM36.1374 11.0913C36.3999 11.4261 36.3925 11.4335 36.0576 11.1711C35.7058 10.8952 35.5941 10.7218 35.7678 10.7218C35.8116 10.7218 35.978 10.8882 36.1374 11.0913ZM8.65848 11.428C8.65848 11.4681 8.44457 11.6817 8.18335 11.903L7.70822 12.3051L8.1105 11.8301C8.48849 11.3839 8.65848 11.2591 8.65848 11.428ZM41.7063 11.7774C41.9164 12.0096 42.041 12.1996 41.9829 12.1996C41.9249 12.1996 41.7053 12.0096 41.4951 11.7774C41.285 11.5451 41.1604 11.3551 41.2185 11.3551C41.2766 11.3551 41.4962 11.5451 41.7063 11.7774ZM13.093 11.6304C13.093 11.6657 12.7368 12.0218 12.3011 12.4221L11.5093 13.1495L12.2369 12.3579C12.9144 11.6211 13.093 11.4691 13.093 11.6304ZM37.5885 12.3051C37.9826 12.7115 38.2573 13.044 38.1992 13.044C38.1412 13.044 37.7714 12.7115 37.3774 12.3051C36.9833 11.8987 36.7086 11.5662 36.7667 11.5662C36.8247 11.5662 37.1945 11.8987 37.5885 12.3051ZM11.4037 13.539C11.4037 13.5791 11.1898 13.7927 10.9285 14.014L10.4534 14.4161L10.8557 13.9411C11.2337 13.4949 11.4037 13.3701 11.4037 13.539ZM38.8826 13.8356C39.1451 14.1704 39.1377 14.1778 38.8027 13.9154C38.5994 13.756 38.4332 13.5897 38.4332 13.546C38.4332 13.3722 38.6066 13.4839 38.8826 13.8356ZM8.68424 17.8307C8.43528 18.2586 8.3753 18.1216 8.57908 17.5909C8.6513 17.4021 8.7552 17.2922 8.80947 17.3466C8.86395 17.4009 8.80757 17.6187 8.68424 17.8307ZM16.3133 17.415C16.0521 17.4653 15.6243 17.4653 15.3631 17.415C15.1019 17.3646 15.3156 17.3234 15.8382 17.3234C16.3608 17.3234 16.5745 17.3646 16.3133 17.415ZM34.4738 17.415C34.2124 17.4653 33.785 17.4653 33.5235 17.415C33.2621 17.3646 33.476 17.3234 33.9987 17.3234C34.5213 17.3234 34.7352 17.3646 34.4738 17.415ZM41.383 18.0048C41.383 18.1209 41.2909 18.0735 41.1784 17.8993C41.0658 17.7251 40.9738 17.4876 40.9738 17.3715C40.9738 17.2554 41.0658 17.3029 41.1784 17.4771C41.2909 17.6512 41.383 17.8887 41.383 18.0048ZM13.7265 17.9654C13.7265 18.0017 13.4176 18.3105 13.0402 18.6514L12.3539 19.2715L12.9741 18.5854C13.5523 17.9459 13.7265 17.8022 13.7265 17.9654ZM18.7023 18.5854L19.3225 19.2715L18.6362 18.6514C17.9966 18.0735 17.8527 17.8993 18.016 17.8993C18.0523 17.8993 18.3612 18.2081 18.7023 18.5854ZM31.887 17.9654C31.887 18.0017 31.5781 18.3105 31.2007 18.6514L30.5144 19.2715L31.1346 18.5854C31.7128 17.9459 31.887 17.8022 31.887 17.9654ZM36.8627 18.5854L37.4829 19.2715L36.7967 18.6514C36.4193 18.3105 36.1104 18.0017 36.1104 17.9654C36.1104 17.8022 36.2846 17.9459 36.8627 18.5854ZM1.83416 20.6833C1.76679 20.8515 1.71675 20.8015 1.70661 20.5556C1.69753 20.3331 1.74737 20.2085 1.81747 20.2786C1.88758 20.3487 1.89518 20.5309 1.83416 20.6833ZM4.15701 20.6833C4.08964 20.8515 4.0396 20.8015 4.02946 20.5556C4.02038 20.3331 4.07022 20.2085 4.14033 20.2786C4.21043 20.3487 4.21804 20.5309 4.15701 20.6833ZM45.7572 20.6833C45.6898 20.8515 45.6397 20.8015 45.6296 20.5556C45.6205 20.3331 45.6704 20.2085 45.7405 20.2786C45.8106 20.3487 45.8182 20.5309 45.7572 20.6833ZM48.08 20.6833C48.0126 20.8515 47.9626 20.8015 47.9525 20.5556C47.9434 20.3331 47.9932 20.2085 48.0633 20.2786C48.1334 20.3487 48.141 20.5309 48.08 20.6833ZM18.549 23.9505L17.223 25.2878H18.5367H19.8504L19.8069 27.2405L19.7636 29.1932L19.6931 27.3461L19.6228 25.4989H18.364C17.6716 25.4989 17.1052 25.4246 17.1052 25.3341C17.1052 25.2433 17.6754 24.6051 18.3722 23.9157C19.5968 22.7042 19.6405 22.6233 19.6783 21.4946L19.7174 20.327L19.7961 21.4701L19.8749 22.613L18.549 23.9505ZM30.1442 26.9125C30.1068 28.1668 30.076 27.1983 30.0758 24.7601C30.0756 22.3219 30.1062 21.2955 30.1438 22.4793C30.1814 23.663 30.1816 25.6579 30.1442 26.9125ZM11.9835 26.9239C11.9455 28.056 11.9145 27.1297 11.9145 24.8656C11.9145 22.6016 11.9455 21.6755 11.9835 22.8074C12.0213 23.9393 12.0213 25.7917 11.9835 26.9239ZM37.9488 22.1741C37.8983 22.4352 37.8571 22.2216 37.8571 21.6991C37.8571 21.1766 37.8983 20.963 37.9488 21.2241C37.999 21.4853 37.999 21.913 37.9488 22.1741ZM3.9414 21.963C3.88291 22.1082 3.83498 21.9894 3.83498 21.6991C3.83498 21.4089 3.88291 21.2902 3.9414 21.4352C4.00011 21.5805 4.00011 21.818 3.9414 21.963ZM45.9639 21.963C45.9054 22.1082 45.8575 21.9894 45.8575 21.6991C45.8575 21.4089 45.9054 21.2902 45.9639 21.4352C46.0226 21.5805 46.0226 21.818 45.9639 21.963ZM1.61855 22.1741C1.56006 22.3193 1.51213 22.2005 1.51213 21.9102C1.51213 21.62 1.56006 21.5013 1.61855 21.6463C1.67726 21.7916 1.67726 22.0291 1.61855 22.1741ZM48.2867 22.1741C48.2282 22.3193 48.1803 22.2005 48.1803 21.9102C48.1803 21.62 48.2282 21.5013 48.2867 21.6463C48.3454 21.7916 48.3454 22.0291 48.2867 22.1741ZM7.3201 22.5963C7.2616 22.7415 7.21367 22.6227 7.21367 22.3324C7.21367 22.0422 7.2616 21.9235 7.3201 22.0685C7.3788 22.2138 7.3788 22.4513 7.3201 22.5963ZM42.5852 22.5963C42.5267 22.7415 42.4788 22.6227 42.4788 22.3324C42.4788 22.0422 42.5267 21.9235 42.5852 22.0685C42.6439 22.2138 42.6439 22.4513 42.5852 22.5963ZM3.74671 26.0717C3.70468 26.7436 3.66984 26.2484 3.66942 24.9712C3.669 23.694 3.70342 23.1443 3.74586 23.7495C3.78831 24.355 3.78873 25.3999 3.74671 26.0717ZM36.6497 24.0096L35.4074 25.2646L36.6564 25.329L37.9053 25.3934L37.9182 27.0822L37.9308 28.771L37.8567 27.135L37.7826 25.4989H36.5242C35.832 25.4989 35.2657 25.4305 35.2657 25.3467C35.2657 25.1764 37.6208 22.7546 37.7864 22.7546C37.8445 22.7546 37.333 23.3193 36.6497 24.0096ZM46.1915 26.0717C46.1495 26.7436 46.1147 26.2484 46.1142 24.9712C46.1138 23.694 46.1482 23.1443 46.1907 23.7495C46.2331 24.355 46.2336 25.3999 46.1915 26.0717ZM1.42238 25.7573C1.37782 26.2538 1.34066 25.9 1.34002 24.9712C1.33918 24.0423 1.37571 23.6362 1.42111 24.0685C1.46651 24.5009 1.46715 25.2608 1.42238 25.7573ZM48.5129 25.7573C48.4683 26.2538 48.4312 25.9 48.4305 24.9712C48.4297 24.0423 48.4662 23.6362 48.5116 24.0685C48.557 24.5009 48.5577 25.2608 48.5129 25.7573ZM7.12223 25.5479C7.07514 25.9273 7.03565 25.6678 7.0346 24.9712C7.03333 24.2746 7.07176 23.964 7.12012 24.2813C7.16827 24.5986 7.16911 25.1686 7.12223 25.5479ZM42.8097 25.5479C42.7626 25.9273 42.7231 25.6678 42.722 24.9712C42.7208 24.2746 42.7592 23.964 42.8076 24.2813C42.8557 24.5986 42.8565 25.1686 42.8097 25.5479ZM7.32453 27.6496C7.25717 27.8179 7.20712 27.7679 7.19699 27.5219C7.1879 27.2994 7.23774 27.1749 7.30785 27.245C7.37796 27.3151 7.38556 27.4972 7.32453 27.6496ZM42.5896 27.6496C42.5223 27.8179 42.4722 27.7679 42.4621 27.5219C42.453 27.2994 42.5028 27.1749 42.5729 27.245C42.6431 27.3151 42.6507 27.4972 42.5896 27.6496ZM1.6251 28.1865C1.57146 28.3919 1.52416 28.2749 1.51994 27.9266C1.51571 27.5783 1.55943 27.4103 1.61729 27.5532C1.67515 27.6961 1.67874 27.9811 1.6251 28.1865ZM48.2933 28.1865C48.2396 28.3919 48.1923 28.2749 48.1881 27.9266C48.1839 27.5783 48.2276 27.4103 48.2855 27.5532C48.3433 27.6961 48.3469 27.9811 48.2933 28.1865ZM3.9414 28.5071C3.88291 28.6524 3.83498 28.5335 3.83498 28.2433C3.83498 27.953 3.88291 27.8344 3.9414 27.9794C4.00011 28.1246 4.00011 28.3621 3.9414 28.5071ZM45.9639 28.5071C45.9054 28.6524 45.8575 28.5335 45.8575 28.2433C45.8575 27.953 45.9054 27.8344 45.9639 27.9794C46.0226 28.1246 46.0226 28.3621 45.9639 28.5071ZM1.83416 29.5496C1.76679 29.7178 1.71675 29.6678 1.70661 29.4218C1.69753 29.1993 1.74737 29.0748 1.81747 29.1449C1.88758 29.215 1.89518 29.3971 1.83416 29.5496ZM4.15701 29.5496C4.08964 29.7178 4.0396 29.6678 4.02946 29.4218C4.02038 29.1993 4.07022 29.0748 4.14033 29.1449C4.21043 29.215 4.21804 29.3971 4.15701 29.5496ZM45.7572 29.5496C45.6898 29.7178 45.6397 29.6678 45.6296 29.4218C45.6205 29.1993 45.6704 29.0748 45.7405 29.1449C45.8106 29.215 45.8182 29.3971 45.7572 29.5496ZM48.08 29.5496C48.0126 29.7178 47.9626 29.6678 47.9525 29.4218C47.9434 29.1993 47.9932 29.0748 48.0633 29.1449C48.1334 29.215 48.141 29.3971 48.08 29.5496ZM19.0057 30.8493C19.0057 30.8894 18.7918 31.1031 18.5306 31.3243L18.0555 31.7264L18.4577 31.2515C18.8357 30.8052 19.0057 30.6804 19.0057 30.8493ZM31.3591 31.1987C31.5692 31.4309 31.6938 31.6209 31.6357 31.6209C31.5776 31.6209 31.358 31.4309 31.1479 31.1987C30.9378 30.9665 30.8132 30.7765 30.8713 30.7765C30.9293 30.7765 31.149 30.9665 31.3591 31.1987ZM9.16507 33.0458C9.35703 33.4231 9.46641 33.7319 9.40834 33.7319C9.28671 33.7319 8.65848 32.5616 8.65848 32.335C8.65848 32.1147 8.77293 32.2753 9.16507 33.0458ZM40.8718 33.079C40.4078 33.9757 40.2575 33.9061 40.6917 32.9958C40.8849 32.5907 41.0804 32.297 41.1262 32.3429C41.1721 32.3887 41.0576 32.7199 40.8718 33.079ZM11.2195 36.2123C11.482 36.5471 11.4746 36.5545 11.1397 36.2921C10.7879 36.0162 10.6762 35.8429 10.85 35.8429C10.8937 35.8429 11.0601 36.0091 11.2195 36.2123ZM39.0667 35.9227C39.0667 35.9664 38.9005 36.1328 38.6972 36.2921C38.3623 36.5545 38.3549 36.5471 38.6173 36.2123C38.8933 35.8606 39.0667 35.749 39.0667 35.9227ZM12.4595 37.6373C12.7323 37.9275 12.908 38.165 12.85 38.165C12.7919 38.165 12.5212 37.9275 12.2483 37.6373C11.9755 37.347 11.7998 37.1095 11.8579 37.1095C11.916 37.1095 12.1867 37.347 12.4595 37.6373ZM38.0109 37.1783C38.0109 37.2161 37.7494 37.4773 37.4302 37.7589L36.8494 38.2706L37.3613 37.6901C37.8398 37.1475 38.0109 37.0126 38.0109 37.1783ZM8.47434 38.3234C8.73682 38.6582 8.72943 38.6656 8.39452 38.4032C8.04271 38.1272 7.93101 37.9539 8.1048 37.9539C8.14851 37.9539 8.31491 38.1201 8.47434 38.3234ZM41.8119 38.0337C41.8119 38.0774 41.6457 38.2438 41.4424 38.4032C41.1074 38.6656 41.1 38.6582 41.3625 38.3234C41.6385 37.9717 41.8119 37.86 41.8119 38.0337ZM13.8321 38.7983C14.0422 39.0305 14.1668 39.2205 14.1087 39.2205C14.0507 39.2205 13.831 39.0305 13.6209 38.7983C13.4108 38.5661 13.2862 38.3761 13.3443 38.3761C13.4024 38.3761 13.622 38.5661 13.8321 38.7983ZM36.5327 38.449C36.5327 38.4891 36.319 38.7027 36.0576 38.9239L35.5824 39.3261L35.9847 38.8511C36.3627 38.4048 36.5327 38.2801 36.5327 38.449ZM10.7702 40.8477C10.7702 41.0062 10.5805 40.8386 9.70545 39.9066L8.76406 38.9039L9.76711 39.845C10.3187 40.3626 10.7702 40.8139 10.7702 40.8477ZM40.1226 39.9594C39.6096 40.4819 39.1425 40.9094 39.0844 40.9094C39.0264 40.9094 39.3985 40.4819 39.9114 39.9594C40.4243 39.4369 40.8914 39.0094 40.9495 39.0094C41.0076 39.0094 40.6355 39.4369 40.1226 39.9594ZM6.785 39.8011C7.04748 40.1359 7.04009 40.1433 6.70517 39.8809C6.35337 39.605 6.24166 39.4316 6.41545 39.4316C6.45916 39.4316 6.62556 39.5978 6.785 39.8011ZM43.5012 39.5114C43.5012 39.5551 43.3351 39.7215 43.1317 39.8809C42.7968 40.1433 42.7894 40.1359 43.0519 39.8011C43.3279 39.4494 43.5012 39.3377 43.5012 39.5114ZM8.34173 41.5427C8.91378 42.1232 9.33422 42.5982 9.27615 42.5982C9.21808 42.5982 8.70261 42.1232 8.13056 41.5427C7.55851 40.9621 7.13807 40.4871 7.19614 40.4871C7.25421 40.4871 7.76967 40.9621 8.34173 41.5427ZM42.6566 40.5479C42.6566 40.5813 42.1576 41.0799 41.5479 41.6562L40.4393 42.7037L41.4871 41.5954C42.461 40.5657 42.6566 40.3903 42.6566 40.5479ZM11.7204 41.5427C11.9305 41.7749 12.0551 41.9649 11.9971 41.9649C11.939 41.9649 11.7194 41.7749 11.5093 41.5427C11.2991 41.3104 11.1746 41.1205 11.2326 41.1205C11.2907 41.1205 11.5103 41.3104 11.7204 41.5427ZM38.6444 41.1933C38.6444 41.2334 38.4307 41.447 38.1692 41.6683L37.6941 42.0704L38.0964 41.5954C38.4744 41.1492 38.6444 41.0244 38.6444 41.1933ZM21.0602 42.3035C20.9901 42.3736 20.8078 42.3811 20.6556 42.3201C20.4871 42.2528 20.5371 42.2028 20.7831 42.1926C21.0057 42.1836 21.1303 42.2334 21.0602 42.3035ZM29.2957 42.3035C29.2256 42.3736 29.0434 42.3811 28.8911 42.3201C28.7226 42.2528 28.7727 42.2028 29.0187 42.1926C29.2413 42.1836 29.3659 42.2334 29.2957 42.3035ZM24.0235 42.7432C23.8216 42.796 23.4415 42.7979 23.1788 42.7474C22.9161 42.697 23.0813 42.6537 23.5458 42.6514C24.0104 42.649 24.2254 42.6904 24.0235 42.7432ZM26.7687 42.7432C26.5668 42.796 26.1867 42.7979 25.924 42.7474C25.6613 42.697 25.8265 42.6537 26.291 42.6514C26.7556 42.649 26.9706 42.6904 26.7687 42.7432ZM10.2422 43.2315C10.4524 43.4637 10.5769 43.6537 10.5189 43.6537C10.4608 43.6537 10.2412 43.4637 10.0311 43.2315C9.82096 42.9993 9.69637 42.8093 9.75444 42.8093C9.81252 42.8093 10.0321 42.9993 10.2422 43.2315ZM40.1226 42.8821C40.1226 42.9222 39.9089 43.1358 39.6474 43.3571L39.1723 43.7592L39.5746 43.2842C39.9526 42.838 40.1226 42.7132 40.1226 42.8821ZM14.9935 43.774C14.9935 43.8321 14.8035 43.778 14.5712 43.6537C14.3389 43.5293 14.1489 43.3803 14.1489 43.3222C14.1489 43.2642 14.3389 43.3182 14.5712 43.4426C14.8035 43.5669 14.9935 43.7159 14.9935 43.774ZM35.688 43.3296C35.688 43.3835 35.4743 43.5312 35.2129 43.6579C34.7566 43.8789 34.754 43.8751 35.1476 43.5597C35.5784 43.2148 35.688 43.1681 35.688 43.3296ZM11.2195 44.0231C11.482 44.3579 11.4746 44.3653 11.1397 44.1029C10.7879 43.827 10.6762 43.6537 10.85 43.6537C10.8937 43.6537 11.0601 43.8198 11.2195 44.0231ZM39.0667 43.7335C39.0667 43.7772 38.9005 43.9435 38.6972 44.1029C38.3623 44.3653 38.3549 44.3579 38.6173 44.0231C38.8933 43.6714 39.0667 43.5597 39.0667 43.7335ZM15.116 46.3458C15.0195 46.4423 13.7265 45.8016 13.7265 45.657C13.7265 45.604 14.0578 45.7185 14.4629 45.9114C14.8681 46.1046 15.1618 46.3 15.116 46.3458ZM20.2155 45.6811C20.1454 45.7512 19.9632 45.7588 19.8109 45.6978C19.6424 45.6304 19.6924 45.5804 19.9385 45.5703C20.161 45.5612 20.2856 45.611 20.2155 45.6811ZM30.1404 45.6811C30.0703 45.7512 29.8881 45.7588 29.7358 45.6978C29.5673 45.6304 29.6174 45.5804 29.8634 45.5703C30.0859 45.5612 30.2105 45.611 30.1404 45.6811ZM36.1104 45.6536C36.1104 45.7818 34.9192 46.4009 34.6955 46.3891C34.6026 46.3843 34.8592 46.1983 35.2657 45.9758C36.0979 45.5202 36.1104 45.5156 36.1104 45.6536ZM21.2714 45.8922C21.2012 45.9623 21.019 45.9699 20.8668 45.9089C20.6982 45.8415 20.7483 45.7915 20.9943 45.7814C21.2169 45.7723 21.3415 45.8221 21.2714 45.8922ZM29.0846 45.8922C29.0145 45.9623 28.8322 45.9699 28.68 45.9089C28.5115 45.8415 28.5615 45.7915 28.8075 45.7814C29.0301 45.7723 29.1547 45.8221 29.0846 45.8922ZM22.8636 46.1143C22.7206 46.1721 22.4355 46.1757 22.2301 46.1221C22.0246 46.0685 22.1416 46.0212 22.49 46.017C22.8384 46.0127 23.0065 46.0564 22.8636 46.1143ZM27.7204 46.1143C27.5775 46.1721 27.2924 46.1757 27.0869 46.1221C26.8815 46.0685 26.9984 46.0212 27.3469 46.017C27.6953 46.0127 27.8634 46.0564 27.7204 46.1143ZM21.4825 48.2143C21.4124 48.2844 21.2302 48.292 21.0779 48.231C20.9094 48.1636 20.9595 48.1136 21.2055 48.1035C21.428 48.0944 21.5526 48.1442 21.4825 48.2143ZM28.8734 48.2143C28.8033 48.2844 28.6211 48.292 28.4688 48.231C28.3003 48.1636 28.3503 48.1136 28.5964 48.1035C28.8189 48.0944 28.9435 48.1442 28.8734 48.2143ZM23.4931 48.4469C23.2318 48.4972 22.804 48.4972 22.5428 48.4469C22.2816 48.3965 22.4953 48.3553 23.0179 48.3553C23.5406 48.3553 23.7543 48.3965 23.4931 48.4469ZM27.2941 48.4469C27.0327 48.4972 26.6052 48.4972 26.3438 48.4469C26.0824 48.3965 26.2963 48.3553 26.819 48.3553C27.3416 48.3553 27.5555 48.3965 27.2941 48.4469Z" fill="#232526"/>
<path fill-rule="evenodd" clip-rule="evenodd" d="M21.6453 0.0823303C21.413 0.138272 20.4628 0.328897 19.5336 0.506011C18.6045 0.683125 16.9891 1.16423 15.9438 1.57503C7.86554 4.74999 1.89349 11.8464 0.30192 20.1617C-0.114293 22.3364 -0.096766 27.7852 0.333384 29.8882C1.88441 37.4739 6.76473 43.8335 13.7265 47.3416C23.3484 52.19 34.988 50.2869 42.668 42.6096C50.2863 34.9934 52.1762 23.3685 47.3546 13.7828C44.0294 7.17175 37.5163 2.05845 30.4088 0.478779C28.8757 0.138061 22.5945 -0.146081 21.6453 0.0823303ZM23.2848 1.582C23.0251 1.63203 22.55 1.63329 22.229 1.58495C21.908 1.5364 22.1205 1.49544 22.7012 1.49375C23.2819 1.49228 23.5446 1.53196 23.2848 1.582ZM27.7194 1.582C27.4596 1.63203 26.9845 1.63329 26.6635 1.58495C26.3426 1.5364 26.555 1.49544 27.1357 1.49375C27.7164 1.49228 27.9791 1.53196 27.7194 1.582ZM21.3854 1.78296C21.2424 1.84081 20.9573 1.84439 20.7519 1.79077C20.5464 1.73715 20.6634 1.68987 21.0118 1.68565C21.3603 1.68142 21.5283 1.72512 21.3854 1.78296ZM29.1986 1.78296C29.0556 1.84081 28.7706 1.84439 28.5651 1.79077C28.3596 1.73715 28.4766 1.68987 28.8251 1.68565C29.1735 1.68142 29.3416 1.72512 29.1986 1.78296ZM19.0057 2.28538C18.2508 2.50535 17.5381 2.67867 17.422 2.67086C17.0535 2.64616 19.5146 1.88134 19.956 1.88345C20.1883 1.88471 19.7607 2.06563 19.0057 2.28538ZM31.876 2.39262C32.8113 2.68774 33.5763 2.97928 33.5763 3.04007C33.5763 3.10087 33.3626 3.07913 33.1012 2.99152C32.8398 2.90412 31.9134 2.61766 31.0423 2.35526C30.1712 2.09286 29.6199 1.8731 29.8171 1.86698C30.0143 1.86065 30.941 2.09729 31.876 2.39262ZM16.894 2.91109C16.7198 3.02361 16.4823 3.11565 16.3661 3.11565C16.25 3.11565 16.2975 3.02361 16.4717 2.91109C16.6459 2.79857 16.8835 2.70653 16.9996 2.70653C17.1158 2.70653 17.0683 2.79857 16.894 2.91109ZM15.627 3.43884C15.3367 3.60477 15.0041 3.74051 14.8879 3.74051C14.7718 3.74051 14.9143 3.60477 15.2047 3.43884C15.4951 3.27292 15.8276 3.13718 15.9438 3.13718C16.0599 3.13718 15.9174 3.27292 15.627 3.43884ZM34.6322 3.43884C34.9225 3.60477 35.0651 3.74051 34.9489 3.74051C34.8328 3.74051 34.5002 3.60477 34.2098 3.43884C33.9195 3.27292 33.7769 3.13718 33.8931 3.13718C34.0092 3.13718 34.3418 3.27292 34.6322 3.43884ZM25.1824 3.68414C25.0373 3.74283 24.7998 3.74283 24.6545 3.68414C24.5094 3.62567 24.6281 3.57775 24.9184 3.57775C25.2088 3.57775 25.3277 3.62567 25.1824 3.68414ZM22.9677 3.90052C22.7658 3.9533 22.3857 3.9552 22.123 3.90474C21.8603 3.85429 22.0254 3.81102 22.49 3.80869C22.9546 3.80637 23.1695 3.84775 22.9677 3.90052ZM27.8245 3.90052C27.6227 3.9533 27.2426 3.9552 26.9799 3.90474C26.7172 3.85429 26.8823 3.81102 27.3469 3.80869C27.8114 3.80637 28.0264 3.84775 27.8245 3.90052ZM14.1489 4.06666C14.1489 4.12176 13.8638 4.31428 13.5154 4.49435C12.7211 4.90494 12.6732 4.72656 13.4626 4.29845C14.1263 3.93852 14.1489 3.93092 14.1489 4.06666ZM20.4839 4.29233C19.8451 4.45171 19.2275 4.57605 19.1113 4.56887C18.6871 4.54227 20.6055 3.99911 21.1174 4.0008C21.4078 4.00164 21.1227 4.13294 20.4839 4.29233ZM30.0921 4.27734C31.2119 4.64634 30.8048 4.65437 29.353 4.29233C28.7142 4.13294 28.4291 4.00164 28.7195 4.0008C29.0098 3.99974 29.6275 4.12429 30.0921 4.27734ZM36.955 4.71622C36.955 4.77427 36.67 4.67442 36.3215 4.49435C35.9731 4.31428 35.688 4.11943 35.688 4.06138C35.688 4.00333 35.9731 4.10318 36.3215 4.28325C36.67 4.46332 36.955 4.65816 36.955 4.71622ZM18.1611 4.91655C17.1969 5.28767 16.8176 5.28218 17.6331 4.90895C17.9816 4.74936 18.4092 4.62186 18.5834 4.62544C18.7576 4.62903 18.5676 4.76013 18.1611 4.91655ZM32.2037 4.90895C33.0193 5.28218 32.64 5.28767 31.6758 4.91655C31.2693 4.76013 31.0793 4.62903 31.2535 4.62544C31.4277 4.62186 31.8553 4.74936 32.2037 4.90895ZM12.6707 4.88848C12.6707 4.93112 12.2906 5.21737 11.826 5.52474C11.3614 5.8321 10.9813 6.03814 10.9813 5.98262C10.9813 5.88994 12.4848 4.811 12.6141 4.811C12.6451 4.811 12.6707 4.84583 12.6707 4.88848ZM38.7134 5.84962C38.8496 6.01449 38.5574 5.88319 38.0637 5.55767C37.57 5.23236 37.1662 4.92584 37.1662 4.87666C37.1662 4.72424 38.4514 5.53255 38.7134 5.84962ZM16.8765 5.31364C16.6618 5.51017 14.1489 6.70606 14.1489 6.6117C14.1489 6.48398 16.4985 5.25769 16.7709 5.24334C16.8774 5.23785 16.9249 5.26952 16.8765 5.31364ZM34.4271 5.86946C35.1206 6.21947 35.688 6.55343 35.688 6.61149C35.688 6.70606 33.1755 5.51059 32.9604 5.31364C32.6991 5.07467 33.312 5.30688 34.4271 5.86946ZM10.5514 6.35246C10.3814 6.50382 9.47443 7.33493 8.53579 8.1996L6.82934 9.77189L8.70072 7.92475C9.72995 6.90893 10.6371 6.07761 10.7163 6.07761C10.7957 6.07761 10.7216 6.20132 10.5514 6.35246ZM41.9175 8.6427C43.0308 9.812 42.9666 9.77062 41.3896 8.30051C38.948 6.02484 38.8351 5.90767 39.8058 6.65835C40.2704 7.01765 41.2206 7.91061 41.9175 8.6427ZM13.9202 6.79662C13.8718 6.8437 13.2144 7.33578 12.4595 7.89034C11.7046 8.44469 10.5643 9.37713 9.92549 9.9623C8.86754 10.9317 8.83924 10.9454 9.60874 10.1172C10.4036 9.26165 13.6024 6.71092 13.8802 6.71092C13.9506 6.71092 13.9685 6.74934 13.9202 6.79662ZM38.3276 8.41345C39.0245 8.96611 39.9272 9.78054 40.3337 10.2232C40.839 10.7736 40.7054 10.6912 39.9114 9.96336C39.2726 9.37755 38.1323 8.44469 37.3774 7.89034C36.6224 7.33578 35.9573 6.82491 35.8992 6.75482C35.6528 6.4578 37.1586 7.48608 38.3276 8.41345ZM23.4931 7.28216C23.2318 7.3324 22.804 7.3324 22.5428 7.28216C22.2816 7.2317 22.4953 7.19054 23.0179 7.19054C23.5406 7.19054 23.7543 7.2317 23.4931 7.28216ZM27.2941 7.28216C27.0327 7.3324 26.6052 7.3324 26.3438 7.28216C26.0824 7.2317 26.2963 7.19054 26.819 7.19054C27.3416 7.19054 27.5555 7.2317 27.2941 7.28216ZM21.8037 7.48397C21.6586 7.54266 21.4211 7.54266 21.2758 7.48397C21.1307 7.42549 21.2494 7.37757 21.5397 7.37757C21.8301 7.37757 21.949 7.42549 21.8037 7.48397ZM28.5611 7.48397C28.416 7.54266 28.1785 7.54266 28.0332 7.48397C27.8881 7.42549 28.0068 7.37757 28.2971 7.37757C28.5875 7.37757 28.7064 7.42549 28.5611 7.48397ZM20.849 7.68283C20.7789 7.75291 20.5967 7.76051 20.4444 7.6995C20.2759 7.63216 20.326 7.58213 20.572 7.572C20.7945 7.56292 20.9191 7.61274 20.849 7.68283ZM29.5069 7.68283C29.4368 7.75291 29.2546 7.76051 29.1023 7.6995C28.9338 7.63216 28.9839 7.58213 29.2299 7.572C29.4524 7.56292 29.577 7.61274 29.5069 7.68283ZM17.7212 8.67923C17.3983 8.93044 15.2047 10.0723 15.2047 9.98911C15.2047 9.85105 17.3694 8.61526 17.6156 8.61273C17.722 8.61167 17.7695 8.64165 17.7212 8.67923ZM33.5235 9.25047C34.1332 9.60005 34.6322 9.93232 34.6322 9.98911C34.6322 10.0457 34.0857 9.78962 33.418 9.41998C32.0074 8.63912 31.9645 8.6102 32.2213 8.61273C32.3279 8.614 32.9139 8.90088 33.5235 9.25047ZM6.21569 10.8274C5.90569 11.2338 5.60414 11.5662 5.54565 11.5662C5.44133 11.5662 5.69854 11.1911 6.30607 10.458C6.86081 9.78856 6.79112 10.0733 6.21569 10.8274ZM14.9935 10.169C14.9935 10.2133 14.6373 10.5053 14.2016 10.8175L13.4098 11.3855L14.1408 10.737C14.8611 10.0982 14.9935 10.01 14.9935 10.169ZM36.2457 11.1922C36.3272 11.3239 36.0449 11.1658 35.6185 10.8407C35.1922 10.5156 34.8433 10.2068 34.8433 10.1546C34.8433 10.0081 36.0787 10.922 36.2457 11.1922ZM43.9282 10.9393C44.5655 11.8341 44.2995 11.7163 43.5935 10.7913C43.2683 10.3651 43.1102 10.0828 43.2419 10.1643C43.3737 10.2458 43.6824 10.5945 43.9282 10.9393ZM8.2108 11.9885C7.83746 12.4529 7.48861 12.8329 7.43582 12.8329C7.32791 12.8329 7.69217 12.3302 8.31575 11.619C9.00902 10.828 8.93553 11.0868 8.2108 11.9885ZM42.0474 12.2335C42.6961 13.1444 42.3973 12.9492 41.5917 11.9357C41.1995 11.4421 41.0454 11.1725 41.2496 11.3364C41.4535 11.5002 41.8125 11.904 42.0474 12.2335ZM12.1271 12.6745C11.4548 13.4003 10.5398 14.558 10.0938 15.2474C9.14438 16.7152 8.89415 16.9998 9.36167 16.0802C9.83194 15.1552 11.0707 13.5377 12.2124 12.3579C13.6207 10.9025 13.5601 11.128 12.1271 12.6745ZM39.2063 14.1961C39.7294 14.8879 40.3039 15.7429 40.4834 16.0961C40.9429 17.0002 40.6874 16.7076 39.7431 15.2474C39.2971 14.558 38.3732 13.3764 37.6901 12.6218C36.8252 11.6663 36.7225 11.5061 37.3518 12.094C37.8489 12.5584 38.6834 13.5044 39.2063 14.1961ZM4.85745 12.8329C4.73307 13.0651 4.58399 13.2551 4.52592 13.2551C4.46785 13.2551 4.52191 13.0651 4.64628 12.8329C4.77066 12.6006 4.91975 12.4107 4.97782 12.4107C5.03589 12.4107 4.98183 12.6006 4.85745 12.8329ZM45.1906 12.8329C45.315 13.0651 45.369 13.2551 45.311 13.2551C45.2529 13.2551 45.1038 13.0651 44.9794 12.8329C44.855 12.6006 44.801 12.4107 44.8591 12.4107C44.9171 12.4107 45.0662 12.6006 45.1906 12.8329ZM3.97012 14.4115C3.71757 14.9314 3.47451 15.3207 3.43038 15.2764C3.33472 15.1809 4.18805 13.4662 4.33101 13.4662C4.38528 13.4662 4.22289 13.8915 3.97012 14.4115ZM46.0456 14.331C46.2885 14.8067 46.4508 15.232 46.4065 15.2764C46.3624 15.3207 46.1193 14.9314 45.8667 14.4115C45.2911 13.2274 45.4467 13.1573 46.0456 14.331ZM6.75797 14.0995C6.63359 14.3317 6.4845 14.5217 6.42643 14.5217C6.36836 14.5217 6.42242 14.3317 6.5468 14.0995C6.67118 13.8673 6.82026 13.6773 6.87833 13.6773C6.9364 13.6773 6.88234 13.8673 6.75797 14.0995ZM43.2901 14.0995C43.4145 14.3317 43.4685 14.5217 43.4104 14.5217C43.3524 14.5217 43.2033 14.3317 43.0789 14.0995C42.9545 13.8673 42.9005 13.6773 42.9585 13.6773C43.0166 13.6773 43.1657 13.8673 43.2901 14.0995ZM2.9335 16.8204C2.80342 17.1934 2.66004 17.4617 2.61485 17.4165C2.56966 17.3713 2.63913 17.0291 2.76921 16.6561C2.89929 16.2831 3.04267 16.0148 3.08786 16.06C3.13305 16.1051 3.06358 16.4473 2.9335 16.8204ZM47.1813 17.0549C47.2795 17.4216 47.2628 17.486 47.1268 17.266C47.0191 17.0918 46.8675 16.7118 46.7898 16.4216C46.6916 16.0549 46.7083 15.9905 46.8442 16.2105C46.9519 16.3846 47.1036 16.7646 47.1813 17.0549ZM5.30555 16.9863C5.05658 17.4142 4.99661 17.2772 5.20039 16.7465C5.27261 16.5577 5.3765 16.4478 5.43077 16.5022C5.48526 16.5565 5.42887 16.7743 5.30555 16.9863ZM44.7617 17.1604C44.7617 17.2765 44.6696 17.229 44.5571 17.0549C44.4445 16.8807 44.3525 16.6432 44.3525 16.5271C44.3525 16.411 44.4445 16.4585 44.5571 16.6327C44.6696 16.8068 44.7617 17.0443 44.7617 17.1604ZM8.57782 18.039C8.39917 18.3686 8.24924 18.5714 8.24459 18.4897C8.23023 18.2387 8.72162 17.2586 8.81496 17.3519C8.8631 17.4002 8.75646 17.7093 8.57782 18.039ZM16.3133 17.415C16.0521 17.4653 15.6243 17.4653 15.3631 17.415C15.1019 17.3646 15.3156 17.3234 15.8382 17.3234C16.3608 17.3234 16.5745 17.3646 16.3133 17.415ZM34.4738 17.415C34.2124 17.4653 33.785 17.4653 33.5235 17.415C33.2621 17.3646 33.476 17.3234 33.9987 17.3234C34.5213 17.3234 34.7352 17.3646 34.4738 17.415ZM41.5857 18.427C41.5857 18.5432 41.45 18.4007 41.284 18.1104C41.118 17.8201 40.9822 17.4876 40.9822 17.3715C40.9822 17.2554 41.118 17.3979 41.284 17.6882C41.45 17.9785 41.5857 18.3109 41.5857 18.427ZM4.8754 18.1326C4.76412 18.4106 4.66698 18.5271 4.65959 18.3916C4.64185 18.0621 4.88786 17.437 4.99366 17.543C5.0399 17.5892 4.98669 17.8543 4.8754 18.1326ZM14.2544 17.8286C13.2761 18.3453 12.8559 18.776 12.4344 19.6937C12.2209 20.1581 12.0444 20.3859 12.0418 20.1999C12.031 19.4091 13.9092 17.4585 14.6552 17.4855C14.7832 17.4902 14.6029 17.6445 14.2544 17.8286ZM36.1268 17.9571C36.9185 18.4904 37.8022 19.6785 37.7951 20.1999C37.7925 20.3859 37.616 20.1581 37.4025 19.6937C36.981 18.776 36.5608 18.3453 35.5824 17.8286C35.234 17.6445 35.0537 17.4902 35.1816 17.4855C35.3096 17.4809 35.7351 17.693 36.1268 17.9571ZM45.1724 18.3215C45.1648 18.5303 45.0992 18.4944 44.9794 18.2159C44.73 17.6356 44.73 17.3023 44.9794 17.6882C45.092 17.8623 45.179 18.1473 45.1724 18.3215ZM2.41402 18.4121C2.33631 18.7213 2.232 18.9337 2.18216 18.8841C2.13254 18.8343 2.15534 18.5404 2.23284 18.2309C2.31055 17.9217 2.41487 17.7093 2.46471 17.7589C2.51433 17.8087 2.49152 18.1026 2.41402 18.4121ZM47.6948 18.7437C47.6948 18.9432 47.6279 18.9043 47.5134 18.6381C47.4136 18.4059 47.3321 18.0735 47.3321 17.8993C47.3321 17.6998 47.399 17.7386 47.5134 18.0048C47.6133 18.2371 47.6948 18.5695 47.6948 18.7437ZM19.4513 19.6937C19.6656 20.1581 19.8432 21.0105 19.8458 21.5879C19.8502 22.5946 19.7966 22.6921 18.5367 23.9628L17.223 25.2878H18.5367H19.8504L19.8069 27.2405L19.7636 29.1932L19.6931 27.3461L19.6228 25.4989H18.2113H16.7999L18.2195 24.0687C19.5723 22.7061 19.6392 22.591 19.6392 21.6343C19.6392 20.4475 19.2019 19.3031 18.4138 18.4279L17.8443 17.7952L18.4529 18.3223C18.7876 18.6122 19.237 19.2292 19.4513 19.6937ZM31.4243 18.4798C30.3571 19.624 30.3098 19.8598 30.1877 24.6545L30.0724 29.1932L30.0293 24.9117C29.9947 21.4462 30.049 20.4804 30.3144 19.8452C30.6098 19.138 31.5941 17.8993 31.8604 17.8993C31.9185 17.8993 31.7223 18.1604 31.4243 18.4798ZM2.04533 19.6278C1.97796 19.796 1.92792 19.746 1.91778 19.5001C1.9087 19.2776 1.95853 19.153 2.02864 19.2231C2.09875 19.2932 2.10635 19.4754 2.04533 19.6278ZM47.8688 19.6278C47.8015 19.796 47.7514 19.746 47.7413 19.5001C47.7322 19.2776 47.782 19.153 47.8522 19.2231C47.9223 19.2932 47.9299 19.4754 47.8688 19.6278ZM4.36818 19.8389C4.30081 20.0071 4.25077 19.9571 4.24063 19.7112C4.23155 19.4887 4.28139 19.3641 4.35149 19.4342C4.4216 19.5043 4.4292 19.6865 4.36818 19.8389ZM45.546 19.8389C45.4786 20.0071 45.4286 19.9571 45.4184 19.7112C45.4094 19.4887 45.4592 19.3641 45.5293 19.4342C45.5994 19.5043 45.607 19.6865 45.546 19.8389ZM1.82972 20.6964C1.77123 20.8416 1.72329 20.7228 1.72329 20.4325C1.72329 20.1422 1.77123 20.0236 1.82972 20.1686C1.88843 20.3139 1.88843 20.5514 1.82972 20.6964ZM7.68183 20.8283C7.60771 21.1992 7.50297 21.4587 7.44912 21.4048C7.39527 21.351 7.41681 21.0086 7.49706 20.6436C7.5773 20.2786 7.68204 20.0192 7.72976 20.0671C7.7777 20.1148 7.75595 20.4574 7.68183 20.8283ZM42.4095 21.1714C42.4044 21.5108 42.3702 21.4901 42.2342 21.0658C42.003 20.3441 42.003 19.7891 42.2342 20.327C42.3341 20.5592 42.4129 20.9392 42.4095 21.1714ZM48.0756 20.6964C48.0171 20.8416 47.9691 20.7228 47.9691 20.4325C47.9691 20.1422 48.0171 20.0236 48.0756 20.1686C48.1343 20.3139 48.1343 20.5514 48.0756 20.6964ZM4.15257 20.9075C4.09408 21.0527 4.04614 20.9339 4.04614 20.6436C4.04614 20.3533 4.09408 20.2347 4.15257 20.3797C4.21128 20.525 4.21128 20.7625 4.15257 20.9075ZM45.7527 20.9075C45.6942 21.0527 45.6463 20.9339 45.6463 20.6436C45.6463 20.3533 45.6942 20.2347 45.7527 20.3797C45.8114 20.525 45.8114 20.7625 45.7527 20.9075ZM11.9835 26.9239C11.9455 28.056 11.9145 27.1297 11.9145 24.8656C11.9145 22.6016 11.9455 21.6755 11.9835 22.8074C12.0213 23.9393 12.0213 25.7917 11.9835 26.9239ZM37.9488 22.1741C37.8983 22.4352 37.8571 22.2216 37.8571 21.6991C37.8571 21.1766 37.8983 20.963 37.9488 21.2241C37.999 21.4853 37.999 21.913 37.9488 22.1741ZM1.6251 22.0645C1.57146 22.2699 1.52416 22.153 1.51994 21.8047C1.51571 21.4564 1.55943 21.2883 1.61729 21.4312C1.67515 21.5741 1.67874 21.8591 1.6251 22.0645ZM3.94795 22.0645C3.89431 22.2699 3.84701 22.153 3.84279 21.8047C3.83857 21.4564 3.88228 21.2883 3.94014 21.4312C3.998 21.5741 4.00159 21.8591 3.94795 22.0645ZM45.9704 22.0645C45.9168 22.2699 45.8695 22.153 45.8653 21.8047C45.861 21.4564 45.9048 21.2883 45.9626 21.4312C46.0205 21.5741 46.0241 21.8591 45.9704 22.0645ZM48.2933 22.0645C48.2396 22.2699 48.1923 22.153 48.1881 21.8047C48.1839 21.4564 48.2276 21.2883 48.2855 21.4312C48.3433 21.5741 48.3469 21.8591 48.2933 22.0645ZM7.32664 22.4867C7.27301 22.6921 7.2257 22.5752 7.22148 22.2269C7.21726 21.8786 7.26097 21.7105 7.31883 21.8534C7.37669 21.9963 7.38028 22.2813 7.32664 22.4867ZM42.5917 22.4867C42.5381 22.6921 42.4908 22.5752 42.4866 22.2269C42.4824 21.8786 42.5261 21.7105 42.5839 21.8534C42.6418 21.9963 42.6454 22.2813 42.5917 22.4867ZM3.74671 26.0717C3.70468 26.7436 3.66984 26.2484 3.66942 24.9712C3.669 23.694 3.70342 23.1443 3.74586 23.7495C3.78831 24.355 3.78873 25.3999 3.74671 26.0717ZM36.6497 24.0096L35.4074 25.2646L36.6564 25.329L37.9053 25.3934L37.9182 27.0822L37.9308 28.771L37.8567 27.135L37.7826 25.4989H36.4187C35.6684 25.4989 35.0545 25.4605 35.0545 25.4137C35.0545 25.298 37.6686 22.7637 37.7932 22.7586C37.8474 22.7565 37.333 23.3193 36.6497 24.0096ZM46.1915 26.0717C46.1495 26.7436 46.1147 26.2484 46.1142 24.9712C46.1138 23.694 46.1482 23.1443 46.1907 23.7495C46.2331 24.355 46.2336 25.3999 46.1915 26.0717ZM1.42343 25.9667C1.38078 26.5802 1.3453 26.1322 1.34467 24.9712C1.34425 23.8101 1.37909 23.3081 1.42259 23.8557C1.46588 24.4035 1.4663 25.3535 1.42343 25.9667ZM48.514 25.9667C48.4713 26.5802 48.4358 26.1322 48.4352 24.9712C48.4348 23.8101 48.4696 23.3081 48.5131 23.8557C48.5564 24.4035 48.5568 25.3535 48.514 25.9667ZM7.1235 25.9803C7.07915 26.4702 7.04347 26.0161 7.0441 24.9712C7.04473 23.9262 7.08105 23.5254 7.12455 24.0803C7.16827 24.6353 7.16763 25.4903 7.1235 25.9803ZM42.8109 25.9803C42.7666 26.4702 42.7309 26.0161 42.7315 24.9712C42.7322 23.9262 42.7685 23.5254 42.812 24.0803C42.8557 24.6353 42.8551 25.4903 42.8109 25.9803ZM7.32664 27.9754C7.27301 28.1808 7.2257 28.0638 7.22148 27.7155C7.21726 27.3672 7.26097 27.1992 7.31883 27.3421C7.37669 27.485 7.38028 27.77 7.32664 27.9754ZM42.5917 27.9754C42.5381 28.1808 42.4908 28.0638 42.4866 27.7155C42.4824 27.3672 42.5261 27.1992 42.5839 27.3421C42.6418 27.485 42.6454 27.77 42.5917 27.9754ZM1.62426 28.4016C1.57125 28.6049 1.52775 28.4385 1.52775 28.0322C1.52775 27.6258 1.57125 27.4594 1.62426 27.6627C1.67747 27.866 1.67747 28.1983 1.62426 28.4016ZM48.2924 28.4016C48.2394 28.6049 48.1959 28.4385 48.1959 28.0322C48.1959 27.6258 48.2394 27.4594 48.2924 27.6627C48.3457 27.866 48.3457 28.1983 48.2924 28.4016ZM3.94795 28.3976C3.89431 28.603 3.84701 28.486 3.84279 28.1377C3.83857 27.7894 3.88228 27.6214 3.94014 27.7643C3.998 27.9072 4.00159 28.1922 3.94795 28.3976ZM45.9704 28.3976C45.9168 28.603 45.8695 28.486 45.8653 28.1377C45.861 27.7894 45.9048 27.6214 45.9626 27.7643C46.0205 27.9072 46.0241 28.1922 45.9704 28.3976ZM7.77791 29.721C7.78171 29.915 7.71393 29.874 7.60264 29.6154C7.50276 29.3832 7.42399 29.0032 7.42737 28.771C7.43244 28.4316 7.46665 28.4523 7.60264 28.8766C7.69555 29.1668 7.77453 29.5468 7.77791 29.721ZM42.3398 29.2988C42.1496 30.1645 41.9789 29.9939 42.155 29.1141C42.2292 28.7432 42.3339 28.4837 42.3878 28.5375C42.4416 28.5914 42.4201 28.9338 42.3398 29.2988ZM4.15257 29.5626C4.09408 29.7079 4.04614 29.589 4.04614 29.2988C4.04614 29.0085 4.09408 28.8899 4.15257 29.0349C4.21128 29.1801 4.21128 29.4176 4.15257 29.5626ZM45.7527 29.5626C45.6942 29.7079 45.6463 29.589 45.6463 29.2988C45.6463 29.0085 45.6942 28.8899 45.7527 29.0349C45.8114 29.1801 45.8114 29.4176 45.7527 29.5626ZM1.82972 29.7737C1.77123 29.919 1.72329 29.8001 1.72329 29.5099C1.72329 29.2196 1.77123 29.101 1.82972 29.246C1.88843 29.3912 1.88843 29.6287 1.82972 29.7737ZM12.1814 29.5496C12.114 29.7178 12.064 29.6678 12.0539 29.4218C12.0448 29.1993 12.0946 29.0748 12.1647 29.1449C12.2348 29.215 12.2424 29.3971 12.1814 29.5496ZM37.7328 29.5496C37.6654 29.7178 37.6153 29.6678 37.6052 29.4218C37.5961 29.1993 37.646 29.0748 37.7161 29.1449C37.7862 29.215 37.7938 29.3971 37.7328 29.5496ZM48.0756 29.7737C48.0171 29.919 47.9691 29.8001 47.9691 29.5099C47.9691 29.2196 48.0171 29.101 48.0756 29.246C48.1343 29.3912 48.1343 29.6287 48.0756 29.7737ZM19.6392 29.5751C19.6392 29.7271 19.4996 30.0357 19.3288 30.2612C19.0482 30.6317 19.0425 30.6051 19.2695 29.9848C19.5393 29.2475 19.6392 29.1369 19.6392 29.5751ZM30.6601 30.2487C30.8514 30.6642 30.8491 30.6644 30.526 30.2612C30.3455 30.0357 30.2052 29.7032 30.2143 29.5223C30.2287 29.238 30.2471 29.2363 30.3484 29.5099C30.413 29.684 30.5533 30.0165 30.6601 30.2487ZM4.36818 30.394C4.30081 30.5622 4.25077 30.5122 4.24063 30.2662C4.23155 30.0437 4.28139 29.9192 4.35149 29.9893C4.4216 30.0594 4.4292 30.2416 4.36818 30.394ZM45.546 30.394C45.4786 30.5622 45.4286 30.5122 45.4184 30.2662C45.4094 30.0437 45.4592 29.9192 45.5293 29.9893C45.5994 30.0594 45.607 30.2416 45.546 30.394ZM2.04533 30.6051C1.97796 30.7733 1.92792 30.7233 1.91778 30.4773C1.9087 30.2548 1.95853 30.1303 2.02864 30.2004C2.09875 30.2705 2.10635 30.4527 2.04533 30.6051ZM47.8688 30.6051C47.8015 30.7733 47.7514 30.7233 47.7413 30.4773C47.7322 30.2548 47.782 30.1303 47.8522 30.2004C47.9223 30.2705 47.9299 30.4527 47.8688 30.6051ZM18.7851 31.1047C18.6351 31.2852 18.3146 31.5312 18.0728 31.6511C17.8092 31.782 17.887 31.6536 18.2666 31.3306C18.9935 30.7123 19.1772 30.6321 18.7851 31.1047ZM32.0982 31.7735C32.0982 31.934 31.3061 31.4104 31.025 31.0642C30.8396 30.8362 30.9872 30.8873 31.4119 31.198C31.7892 31.4742 32.0982 31.7332 32.0982 31.7735ZM2.87437 33.2514C2.77597 33.35 2.10593 31.4271 2.12768 31.1083C2.13613 30.9838 2.32597 31.3969 2.54938 32.0262C2.7728 32.6555 2.91914 33.2069 2.87437 33.2514ZM47.4079 32.2542C47.21 32.8497 47.013 33.3021 46.9701 33.2592C46.9274 33.2164 47.0497 32.6895 47.2419 32.0883C47.4343 31.4873 47.6313 31.0349 47.6796 31.0834C47.728 31.1318 47.6057 31.6587 47.4079 32.2542ZM9.05886 32.8347C9.4227 33.5605 9.67293 34.1541 9.61486 34.1541C9.4964 34.1541 8.23614 31.7153 8.23614 31.4862C8.23614 31.2413 8.36918 31.4592 9.05886 32.8347ZM40.978 32.8662C40.6203 33.5744 40.2824 34.1541 40.2271 34.1541C40.1718 34.1541 40.4296 33.5396 40.8 32.7887C41.1704 32.0378 41.5084 31.4581 41.5509 31.5008C41.5936 31.5434 41.3357 32.1577 40.978 32.8662ZM15.3983 32.1784C15.6101 32.361 14.6451 32.2263 14.36 32.0334C14.1288 31.877 14.2141 31.8573 14.6768 31.9608C15.0252 32.0387 15.35 32.1366 15.3983 32.1784ZM35.4769 32.0431C35.3026 32.1556 34.97 32.2396 34.7378 32.2299C34.3898 32.2153 34.4083 32.1824 34.8433 32.0431C35.59 31.8041 35.8468 31.8041 35.4769 32.0431ZM17.048 32.1706C16.9779 32.2407 16.7956 32.2483 16.6434 32.1873C16.4749 32.1199 16.5249 32.0699 16.7709 32.0598C16.9935 32.0507 17.1181 32.1005 17.048 32.1706ZM33.3079 32.1706C33.2378 32.2407 33.0556 32.2483 32.9033 32.1873C32.7348 32.1199 32.7849 32.0699 33.0309 32.0598C33.2535 32.0507 33.3781 32.1005 33.3079 32.1706ZM5.48441 33.4152C5.48441 33.5314 5.39234 33.4839 5.27979 33.3097C5.16724 33.1355 5.07517 32.8981 5.07517 32.7819C5.07517 32.6658 5.16724 32.7133 5.27979 32.8875C5.39234 33.0617 5.48441 33.2991 5.48441 33.4152ZM44.5828 33.2411C44.3339 33.669 44.2739 33.532 44.4777 33.0013C44.5499 32.8126 44.6538 32.7026 44.7081 32.757C44.7626 32.8113 44.7062 33.0291 44.5828 33.2411ZM3.37273 34.2597C3.37273 34.3758 3.28066 34.3283 3.16811 34.1541C3.05555 33.9799 2.96348 33.7425 2.96348 33.6264C2.96348 33.5102 3.05555 33.5577 3.16811 33.7319C3.28066 33.9061 3.37273 34.1436 3.37273 34.2597ZM46.6945 34.0855C46.4456 34.5134 46.3856 34.3764 46.5894 33.8457C46.6616 33.657 46.7655 33.547 46.8198 33.6014C46.8742 33.6557 46.8179 33.8736 46.6945 34.0855ZM10.2399 34.9189C10.4395 35.2235 10.4984 35.4083 10.3708 35.3293C10.1272 35.1788 9.63535 34.3652 9.78823 34.3652C9.83701 34.3652 10.0402 34.6143 10.2399 34.9189ZM39.9177 34.7756C39.7967 35.0015 39.5936 35.2506 39.466 35.3293C39.3385 35.4083 39.3974 35.2235 39.597 34.9189C40.0197 34.274 40.2385 34.1763 39.9177 34.7756ZM3.99103 35.579C4.24 36.0726 4.39626 36.4762 4.33819 36.4762C4.21803 36.4762 3.37927 34.883 3.37927 34.655C3.37927 34.4239 3.50154 34.6086 3.99103 35.579ZM46.0456 35.6113C45.4467 36.7851 45.2911 36.715 45.8667 35.5309C46.1193 35.011 46.3624 34.6217 46.4065 34.666C46.4508 34.7104 46.2885 35.1357 46.0456 35.6113ZM7.18241 36.4893C7.6529 37.2368 7.80853 37.5756 7.5281 37.2425C7.05065 36.6749 5.89957 34.7526 6.19246 35.0116C6.26637 35.0768 6.71172 35.7418 7.18241 36.4893ZM43.2789 35.8176C43.0257 36.2681 42.5901 36.9092 42.3109 37.2425C42.0317 37.5756 42.2028 37.2073 42.691 36.4234C43.6558 34.875 44.0199 34.4999 43.2789 35.8176ZM14.8352 39.5368C16.1321 40.3903 16.4812 40.7616 15.3924 40.1298C14.341 39.5195 12.0397 37.5085 11.2136 36.4783C10.7609 35.9136 11.0939 36.1788 12.0372 37.134C12.9082 38.016 14.1674 39.0973 14.8352 39.5368ZM38.5979 36.529C37.7222 37.5982 35.3865 39.5963 34.3917 40.127C33.7092 40.4909 33.702 40.4909 34.2024 40.127C36.4092 38.5216 37.3132 37.7557 38.1661 36.768C39.3296 35.4207 39.6512 35.2425 38.5979 36.529ZM4.85745 37.1095C4.98183 37.3417 5.03589 37.5317 4.97782 37.5317C4.91975 37.5317 4.77066 37.3417 4.64628 37.1095C4.52191 36.8773 4.46785 36.6873 4.52592 36.6873C4.58399 36.6873 4.73307 36.8773 4.85745 37.1095ZM45.1906 37.1095C45.0662 37.3417 44.9171 37.5317 44.8591 37.5317C44.801 37.5317 44.855 37.3417 44.9794 37.1095C45.1038 36.8773 45.2529 36.6873 45.311 36.6873C45.369 36.6873 45.315 36.8773 45.1906 37.1095ZM11.826 41.6431C12.3486 42.0846 12.5862 42.3153 12.3539 42.1557C11.2668 41.4099 9.61993 39.9024 8.82446 38.9256C8.12359 38.065 8.24164 38.1492 9.41151 39.3445C10.2169 40.1673 11.3034 41.2017 11.826 41.6431ZM40.9932 38.9784C40.207 39.9172 38.5204 41.4439 37.4829 42.1557C37.2507 42.3153 37.4882 42.085 38.0109 41.6442C38.5335 41.2034 39.5788 40.1941 40.3337 39.4015C41.0886 38.6086 41.7388 37.9586 41.7787 37.9569C41.8187 37.9552 41.4652 38.415 40.9932 38.9784ZM8.00956 41.1817C8.64285 41.8538 9.87946 42.942 10.7575 43.6C12.5976 44.9788 13.0449 45.3731 12.1428 44.8213C10.2087 43.6383 7.05487 40.6763 5.9323 38.9887C5.5296 38.3833 5.56487 38.4032 6.15635 39.115C6.54236 39.5794 7.37648 40.5093 8.00956 41.1817ZM43.9008 39.0415C42.6418 40.8091 39.5794 43.6621 37.6941 44.8242C36.7532 45.4041 37.1005 45.0858 38.6444 43.9532C40.3947 42.6691 42.1988 40.9514 43.3125 39.5083C44.2553 38.2864 44.6766 37.9522 43.9008 39.0415ZM17.65 41.2794C17.5535 41.3759 16.2605 40.7352 16.2605 40.5906C16.2605 40.5376 16.5919 40.652 16.9969 40.845C17.4021 41.0381 17.6959 41.2336 17.65 41.2794ZM33.5763 40.5872C33.5763 40.7153 32.3851 41.3345 32.1615 41.3227C32.0686 41.3178 32.3252 41.1319 32.7317 40.9094C33.5639 40.4538 33.5763 40.4492 33.5763 40.5872ZM18.5834 41.5427C18.7576 41.6552 18.8051 41.7472 18.689 41.7472C18.5728 41.7472 18.3353 41.6552 18.1611 41.5427C17.9868 41.4301 17.9393 41.3381 18.0555 41.3381C18.1716 41.3381 18.4092 41.4301 18.5834 41.5427ZM31.6758 41.5427C31.5016 41.6552 31.264 41.7472 31.1479 41.7472C31.0318 41.7472 31.0793 41.6552 31.2535 41.5427C31.4277 41.4301 31.6653 41.3381 31.7814 41.3381C31.8975 41.3381 31.85 41.4301 31.6758 41.5427ZM21.0118 42.2667C21.5925 42.4282 21.8776 42.5616 21.6453 42.5631C21.1958 42.5659 19.3875 42.0216 19.7448 41.991C19.861 41.9811 20.4311 42.1052 21.0118 42.2667ZM29.4586 42.2874C28.994 42.4405 28.4238 42.5638 28.1915 42.5612C27.9593 42.5587 28.1968 42.4329 28.7195 42.2815C29.9594 41.9224 30.5522 41.9271 29.4586 42.2874ZM23.9183 42.7468C23.6586 42.7968 23.1835 42.7981 22.8625 42.7497C22.5415 42.7012 22.754 42.6602 23.3347 42.6585C23.9154 42.6571 24.1781 42.6967 23.9183 42.7468ZM27.0859 42.7468C26.8261 42.7968 26.351 42.7981 26.03 42.7497C25.7091 42.7012 25.9215 42.6602 26.5022 42.6585C27.0829 42.6571 27.3456 42.6967 27.0859 42.7468ZM16.3689 44.4594C16.2766 44.5527 14.3461 43.5492 13.8321 43.1407C13.5998 42.9562 14.0906 43.1624 14.9224 43.5988C15.7544 44.0353 16.4054 44.4227 16.3689 44.4594ZM36.0048 43.1496C35.5009 43.5393 33.6597 44.4995 33.4249 44.4947C33.2604 44.4915 36.1199 42.8502 36.3215 42.8321C36.3796 42.827 36.2371 42.9697 36.0048 43.1496ZM17.3164 44.7092C17.4906 44.8217 17.5381 44.9137 17.422 44.9137C17.3058 44.9137 17.0683 44.8217 16.894 44.7092C16.7198 44.5967 16.6723 44.5046 16.7885 44.5046C16.9046 44.5046 17.1422 44.5967 17.3164 44.7092ZM32.9428 44.7092C32.7686 44.8217 32.5311 44.9137 32.4149 44.9137C32.2988 44.9137 32.3463 44.8217 32.5205 44.7092C32.6947 44.5967 32.9323 44.5046 33.0484 44.5046C33.1646 44.5046 33.117 44.5967 32.9428 44.7092ZM15.9579 46.7708C15.864 46.8649 12.8818 45.3771 12.8818 45.2361C12.8818 45.1804 13.5912 45.4858 14.4582 45.9146C15.3251 46.3435 16.0002 46.7288 15.9579 46.7708ZM36.955 45.2342C36.955 45.3623 34.07 46.824 33.8456 46.8098C33.7185 46.8016 36.6795 45.1858 36.9022 45.1417C36.9312 45.136 36.955 45.1776 36.955 45.2342ZM20.0616 45.5536C20.486 45.6895 20.5067 45.7237 20.1672 45.7288C19.9349 45.7322 19.5548 45.6534 19.3225 45.5536C18.7844 45.3224 19.3396 45.3224 20.0616 45.5536ZM30.5144 45.5536C30.2821 45.6534 29.902 45.7322 29.6697 45.7288C29.3302 45.7237 29.3509 45.6895 29.7753 45.5536C30.4973 45.3224 31.0525 45.3224 30.5144 45.5536ZM21.3814 45.9044C21.2363 45.9631 20.9987 45.9631 20.8534 45.9044C20.7084 45.846 20.8271 45.798 21.1174 45.798C21.4078 45.798 21.5267 45.846 21.3814 45.9044ZM28.9834 45.9044C28.8384 45.9631 28.6008 45.9631 28.4555 45.9044C28.3104 45.846 28.4291 45.798 28.7195 45.798C29.0098 45.798 29.1287 45.846 28.9834 45.9044ZM23.1788 46.1208C22.977 46.1736 22.5969 46.1755 22.3342 46.125C22.0715 46.0746 22.2366 46.0313 22.7012 46.029C23.1657 46.0267 23.3807 46.068 23.1788 46.1208ZM27.6134 46.1208C27.4115 46.1736 27.0314 46.1755 26.7687 46.125C26.506 46.0746 26.6711 46.0313 27.1357 46.029C27.6003 46.0267 27.8152 46.068 27.6134 46.1208ZM17.9499 47.3813C18.5823 47.6291 18.6009 47.6536 18.0787 47.5508C17.7432 47.4847 17.173 47.2943 16.8117 47.1276C16.3178 46.8996 16.2859 46.8576 16.6829 46.958C16.9732 47.0315 17.5434 47.2219 17.9499 47.3813ZM33.0252 47.1425C32.6639 47.3011 32.0937 47.4841 31.7582 47.5491C31.4224 47.6144 31.623 47.4845 32.2037 47.2603C33.4087 46.7955 34.0151 46.7085 33.0252 47.1425ZM19.3708 47.7921C19.3007 47.8622 19.1185 47.8698 18.9662 47.8088C18.7977 47.7414 18.8478 47.6914 19.0938 47.6813C19.3164 47.6722 19.4409 47.722 19.3708 47.7921ZM30.9851 47.7921C30.915 47.8622 30.7327 47.8698 30.5805 47.8088C30.412 47.7414 30.462 47.6914 30.708 47.6813C30.9306 47.6722 31.0552 47.722 30.9851 47.7921ZM20.2155 48.0032C20.1454 48.0733 19.9632 48.0809 19.8109 48.0199C19.6424 47.9525 19.6924 47.9025 19.9385 47.8924C20.161 47.8833 20.2856 47.9331 20.2155 48.0032ZM30.1404 48.0032C30.0703 48.0733 29.8881 48.0809 29.7358 48.0199C29.5673 47.9525 29.6174 47.9025 29.8634 47.8924C30.0859 47.8833 30.2105 47.9331 30.1404 48.0032ZM21.3854 48.2253C21.2424 48.2831 20.9573 48.2867 20.7519 48.2331C20.5464 48.1795 20.6634 48.1322 21.0118 48.128C21.3603 48.1237 21.5283 48.1674 21.3854 48.2253ZM29.1986 48.2253C29.0556 48.2831 28.7706 48.2867 28.5651 48.2331C28.3596 48.1795 28.4766 48.1322 28.8251 48.128C29.1735 48.1237 29.3416 48.1674 29.1986 48.2253ZM23.496 48.4465C23.2363 48.4965 22.7611 48.4978 22.4402 48.4495C22.1192 48.4009 22.3316 48.36 22.9123 48.3583C23.4931 48.3568 23.7557 48.3965 23.496 48.4465ZM27.5082 48.4465C27.2485 48.4965 26.7733 48.4978 26.4524 48.4495C26.1314 48.4009 26.3438 48.36 26.9245 48.3583C27.5052 48.3568 27.7679 48.3965 27.5082 48.4465Z" fill="#050708"/>
<path fill-rule="evenodd" clip-rule="evenodd" d="M23.5457 1.56868C17.4932 2.08165 12.5709 4.30793 8.44086 8.39971C-0.344791 17.1045 -0.848639 30.8968 7.27479 40.3199C10.1606 43.6674 14.5738 46.4303 18.9049 47.6006C20.8364 48.1227 21.3367 48.1702 24.9183 48.1702C28.4999 48.1702 29.0002 48.1227 30.9318 47.6006C43.5913 44.1793 51.0335 30.9949 47.3993 18.427C45.2676 11.0547 39.4896 5.10758 32.1329 2.71369C29.5216 1.86401 25.8456 1.37383 23.5457 1.56868ZM29.2671 4.05756C36.2452 5.54161 42.2664 10.6209 44.7979 17.1585C45.9239 20.0664 46.3059 22.4291 46.1804 25.71C46.0164 30.0059 45.015 33.248 42.8174 36.5991C41.5001 38.6079 38.8299 41.3488 36.98 42.591C30.6537 46.8392 22.7188 47.4826 15.9185 44.2986C13.4823 43.158 11.7623 41.941 9.81219 39.9784C5.81013 35.9506 3.87625 31.4682 3.65621 25.71C3.5671 23.3788 3.62348 22.4952 3.96579 20.8547C4.85987 16.5689 6.72618 13.0608 9.70386 10.0689C13.4415 6.31318 17.2457 4.46984 22.9122 3.6685C24.0342 3.50975 27.7655 3.73817 29.2671 4.05756ZM21.2229 7.64375C14.7117 9.14131 9.83838 13.7064 7.89985 20.1236C7.396 21.792 7.32843 22.3653 7.32843 24.9712C7.32843 27.565 7.39706 28.1542 7.89035 29.7858C9.42681 34.8687 12.577 38.6024 17.2107 40.8323C20.1073 42.2262 21.3439 42.4926 24.9183 42.4926C28.4928 42.4926 29.7294 42.2262 32.626 40.8323C37.2596 38.6024 40.4098 34.8687 41.9463 29.7858C42.4396 28.1542 42.5082 27.565 42.5082 24.9712C42.5082 22.3653 42.4406 21.792 41.9368 20.1236C40.866 16.5784 38.8003 13.4218 36.1991 11.3555C34.1434 9.72247 32.7848 8.97475 30.4043 8.16707C28.5937 7.55277 28.1203 7.48142 25.4462 7.41999C23.4573 7.37439 22.0754 7.44764 21.2229 7.64375ZM17.3758 17.5575C18.204 17.9126 19.3222 19.0597 19.6262 19.8657C19.7493 20.1925 19.8503 20.9499 19.8503 21.5488C19.8503 22.6011 19.8064 22.682 18.5366 23.9627L17.2229 25.2878H18.5366H19.8503L19.8456 27.2405C19.8423 28.6766 19.7384 29.4189 19.4533 30.0463C18.1386 32.94 14.2805 33.1931 12.498 30.5027C11.9372 29.6564 11.9308 29.604 11.8635 25.3832C11.8204 22.6936 11.8823 20.796 12.0307 20.245C12.3082 19.2149 13.3531 17.951 14.2503 17.5602C15.0889 17.195 16.5278 17.1938 17.3758 17.5575ZM35.5397 17.5512C36.9902 18.157 38.007 19.9056 38.0095 21.7989C38.0105 22.5454 37.8661 22.7837 36.6971 23.9627L35.3834 25.2878H36.7209H38.0587L37.9778 27.4734C37.906 29.4121 37.8334 29.7547 37.3344 30.5084C35.5572 33.1934 31.6966 32.9367 30.3834 30.0463C30.0478 29.308 29.995 28.6059 29.991 24.8266C29.9883 22.2492 30.0782 20.2165 30.2104 19.8657C30.505 19.0848 31.6197 17.9219 32.4148 17.5659C33.2375 17.1978 34.6773 17.191 35.5397 17.5512Z" fill="white"/>
</svg>
