<svg width="50" height="50" viewBox="0 0 50 50" fill="none" xmlns="http://www.w3.org/2000/svg">
<g clip-path="url(#clip0_954_5359)">
<path d="M24.9343 50C38.7051 50 49.8686 38.8737 49.8686 25.1488C49.8686 11.4239 38.7051 0.297607 24.9343 0.297607C11.1635 0.297607 0 11.4239 0 25.1488C0 38.8737 11.1635 50 24.9343 50Z" fill="white"/>
<path d="M33.695 14.0203L7.04199 29.3746L15.9315 34.4839L42.5841 19.1295L33.695 14.0203Z" fill="#3D587B"/>
<path d="M42.5892 29.3569L42.5844 19.1292L33.7 24.2478L33.7054 34.4751L42.5892 29.3569Z" fill="#D5F6FF"/>
<path d="M24.811 19.1379L15.9216 14.0287L15.9265 24.2561L24.811 19.1379Z" fill="#5A7B92"/>
<path d="M33.7053 34.4749L33.6996 24.2474L24.8159 29.3655L33.7053 34.4749Z" fill="#5A7B92"/>
<path d="M15.9264 24.2561L15.9215 14.0287L7.03711 19.1468L7.04201 29.3743L15.9264 24.2561Z" fill="#AAEEFF"/>
</g>
<defs>
<clipPath id="clip0_954_5359">
<rect width="50" height="50" fill="white"/>
</clipPath>
</defs>
</svg>
