<svg width="50" height="50" viewBox="0 0 50 50" fill="none" xmlns="http://www.w3.org/2000/svg">
<g clip-path="url(#clip0_954_5324)">
<mask id="mask0_954_5324" style="mask-type:alpha" maskUnits="userSpaceOnUse" x="0" y="0" width="50" height="50">
<path d="M38.8847 0H11.1154C4.97653 0 0 4.97653 0 11.1154V38.8847C0 45.0233 4.97653 50 11.1154 50H38.8847C45.0233 50 50 45.0233 50 38.8847V11.1154C50 4.97653 45.0233 0 38.8847 0Z" fill="white"/>
</mask>
<g mask="url(#mask0_954_5324)">
<path d="M-0.0512695 2.88155C-0.0512695 1.2618 1.2618 -0.0512695 2.88154 -0.0512695H47.0847C48.7045 -0.0512695 50.0175 1.2618 50.0175 2.88155V47.0848C50.0175 48.7046 48.7045 50.0176 47.0847 50.0176H2.88157C1.2618 50.0176 -0.0512695 48.7046 -0.0512695 47.0848V2.88155Z" fill="white"/>
<path d="M0 0H50.0803V50.0803H0V0Z" fill="url(#paint0_radial_954_5324)"/>
</g>
<mask id="mask1_954_5324" style="mask-type:luminance" maskUnits="userSpaceOnUse" x="0" y="0" width="50" height="50">
<path d="M50 0H0V50H50V0Z" fill="white"/>
</mask>
<g mask="url(#mask1_954_5324)">
<path d="M23.7216 24.3697L0 12.6714V38.8847C0 45.0233 4.97656 49.9999 11.1154 49.9999H37.3286L23.9066 24.5496C23.8655 24.4715 23.8007 24.4083 23.7216 24.3692V24.3697Z" fill="black"/>
<path d="M38.8847 0H12.6714L26.2758 25.5413C26.3169 25.6189 26.3817 25.6811 26.4604 25.7202L50.0005 37.3286V11.1154C49.9999 4.97656 45.0233 0 38.8847 0Z" fill="black"/>
</g>
</g>
<defs>
<radialGradient id="paint0_radial_954_5324" cx="0" cy="0" r="1" gradientUnits="userSpaceOnUse" gradientTransform="translate(25.0401 25.0401) rotate(-135) scale(42.4944 32.0478)">
<stop offset="0.140625" stop-color="#FFFBD8"/>
<stop offset="0.307292" stop-color="#5FECDB" stop-opacity="0.64"/>
<stop offset="0.520833" stop-color="#4FBAF7"/>
<stop offset="0.791667" stop-color="#A745F4"/>
</radialGradient>
<clipPath id="clip0_954_5324">
<rect width="50" height="50" rx="25" fill="white"/>
</clipPath>
</defs>
</svg>
