<svg width="50" height="50" viewBox="0 0 50 50" fill="none" xmlns="http://www.w3.org/2000/svg">
<g clip-path="url(#clip0_965_5488)">
<path d="M25 50C38.8071 50 50 38.8071 50 25C50 11.1929 38.8071 0 25 0C11.1929 0 0 11.1929 0 25C0 38.8071 11.1929 50 25 50Z" fill="white"/>
<path fill-rule="evenodd" clip-rule="evenodd" d="M23.5465 24.9914C30.241 24.9486 35.7559 19.7076 36.2346 13.1241C36.2518 12.8762 36.1748 12.6539 36.0037 12.4658C35.8328 12.2777 35.6189 12.1837 35.3625 12.1837H24.3416C23.8629 12.1837 23.4695 12.577 23.4695 13.0557V22.8455C23.4695 23.9996 22.4094 24.9914 21.1867 24.9914H12.7736C12.4145 24.9914 12.1067 25.1967 11.9699 25.5301C11.8331 25.8635 11.9015 26.2227 12.158 26.4791L23.2131 37.5342C23.384 37.7053 23.5893 37.7906 23.8287 37.7906H34.1656C34.5246 37.7906 34.8324 37.5855 34.9691 37.252C35.1061 36.9186 35.0377 36.5596 34.7811 36.3029L23.9312 25.4531L23.726 25.248L23.4695 24.9914H23.5465ZM49.9914 25C49.9914 11.1919 38.7996 0 24.9914 0C11.1833 0 0 11.1919 0 25C0 38.8082 11.1919 50 25 50C38.8082 50 49.9914 38.7996 49.9914 25Z" fill="black"/>
</g>
<defs>
<clipPath id="clip0_965_5488">
<rect width="50" height="50" fill="white"/>
</clipPath>
</defs>
</svg>
