<svg width="50" height="50" viewBox="0 0 50 50" fill="none" xmlns="http://www.w3.org/2000/svg">
<g clip-path="url(#clip0_965_5534)">
<path fill-rule="evenodd" clip-rule="evenodd" d="M30.5962 2.34076C27.4752 -0.780251 22.4151 -0.780254 19.2941 2.34076L2.34076 19.2941C-0.780251 22.4151 -0.780254 27.4752 2.34076 30.5962L19.2941 47.5495C22.4151 50.6705 27.4752 50.6705 30.5962 47.5495L47.5495 30.5962C50.6705 27.4752 50.6705 22.4151 47.5495 19.2941L30.5962 2.34076ZM40.929 16.989C40.929 12.5752 37.3507 8.99712 32.9371 8.99712H16.9533C12.5395 8.99712 8.96142 12.5752 8.96142 16.989V32.9727C8.96142 37.3865 12.5395 40.9646 16.9533 40.9646H32.9371C37.3507 40.9646 40.929 37.3865 40.929 32.9727V16.989Z" fill="black"/>
<path d="M22.6848 11.4175C23.9332 10.1691 25.9573 10.1691 27.2057 11.4175L38.5078 22.7197C39.7562 23.9681 39.7562 25.9922 38.5078 27.2406L27.2057 38.5427C25.9573 39.7911 23.9332 39.7911 22.6848 38.5427L11.3826 27.2406C10.1342 25.9922 10.1342 23.9681 11.3826 22.7197L22.6848 11.4175Z" fill="black"/>
</g>
<defs>
<clipPath id="clip0_965_5534">
<rect width="50" height="50" fill="white"/>
</clipPath>
</defs>
</svg>
