<svg width="50" height="50" viewBox="0 0 50 50" fill="none" xmlns="http://www.w3.org/2000/svg">
<g clip-path="url(#clip0_965_5529)">
<path d="M42.6784 7.325C37.9542 2.6 31.6785 0 25.0025 0C11.2151 0 0 11.215 0 25C0 38.785 11.2151 50 25.0025 50C31.6785 50 37.9591 47.4 42.6784 42.675C47.4026 37.95 50 31.675 50 25C50 18.325 47.4026 12.045 42.6784 7.325ZM25.0025 48.27C12.1709 48.27 1.73156 37.83 1.73156 25C1.73156 12.17 12.1709 1.73 25.0025 1.73C37.834 1.73 48.2734 12.17 48.2734 25C48.2734 37.83 37.834 48.27 25.0025 48.27Z" fill="#151A20"/>
<path d="M25.0024 48.27C12.1708 48.27 1.73145 37.83 1.73145 25C1.73145 12.17 12.1708 1.72998 25.0024 1.72998C37.8339 1.72998 48.2733 12.17 48.2733 25C48.2733 37.83 37.8339 48.27 25.0024 48.27Z" fill="#151A20"/>
<path d="M42.6784 7.325C37.9542 2.6 31.6785 0 25.0025 0C11.2151 0 0 11.215 0 25C0 38.785 11.2151 50 25.0025 50C31.6785 50 37.9591 47.4 42.6784 42.675C47.4026 37.95 50 31.675 50 25C50 18.325 47.4026 12.045 42.6784 7.325ZM25.0025 48.27C12.1709 48.27 1.73156 37.83 1.73156 25C1.73156 12.17 12.1709 1.73 25.0025 1.73C37.834 1.73 48.2734 12.17 48.2734 25C48.2734 37.83 37.834 48.27 25.0025 48.27Z" fill="white"/>
<path d="M33.194 25.5851C31.5945 24.1556 29.5001 23.2008 27.4707 22.2761L27.4557 22.2711C23.8767 20.6366 20.7826 19.222 21.0026 15.878C21.0976 14.6033 22.0223 13.8336 22.7821 13.4187C23.6368 12.9488 24.7715 12.6689 25.8212 12.6689C25.9461 12.6689 26.0711 12.6739 26.1911 12.6789C29.2452 12.8838 31.6545 14.1785 34.0088 16.8677L34.1488 17.0326L34.3137 16.8927L35.2334 16.0929L35.3984 15.948L35.2534 15.783C32.6292 12.7739 29.78 11.2593 26.296 11.0244C26.1461 11.0094 25.9861 11.0044 25.8112 11.0044C25.7062 11.0044 25.5912 11.0044 25.4713 11.0094H25.3213C23.037 11.0094 20.5327 11.7592 18.6283 13.0188C16.3539 14.5234 15.0793 16.5928 15.0443 18.8471C14.9543 24.3305 19.438 26.175 23.3919 27.8095L23.4019 27.8145L23.4419 27.8295C26.9409 29.2791 29.96 30.5287 29.895 33.8777C29.865 36.0871 26.7059 37.3067 24.5366 37.3067H24.4466H24.2316V37.3117C20.9976 37.2168 18.1084 35.8222 15.6441 33.1779L15.4942 33.018L15.3342 33.1629L14.4395 33.9927L14.2795 34.1427L14.4295 34.3026C17.2287 37.3167 20.6827 38.9363 24.4216 38.9812H24.5915C27.0058 38.9812 29.6301 38.3314 31.6095 37.2368C34.0888 35.8821 35.5334 33.9077 35.6833 31.6784C35.8533 29.2291 35.0385 27.2347 33.194 25.5851ZM21.5874 20.8165C23.012 22.0362 24.9414 22.9109 26.8059 23.7557L26.8409 23.7707C28.8153 24.6804 30.6848 25.5402 32.0394 26.7348C33.5389 28.0544 34.1737 29.584 34.0388 31.5484C33.9138 33.4928 32.4692 34.7925 31.1546 35.5772C31.4096 35.0574 31.5495 34.4926 31.5645 33.8927C31.5945 31.8733 30.8197 30.2588 29.1902 28.9492C27.7656 27.8045 25.8762 27.0297 24.0467 26.2749C20.2428 24.7104 16.6489 23.2308 16.7138 18.8621C16.7338 17.1826 17.7435 15.5931 19.558 14.3884C19.618 14.3484 19.678 14.3084 19.743 14.2684C19.528 14.7383 19.408 15.2282 19.3781 15.743C19.2331 17.7674 19.9579 19.4269 21.5874 20.8165Z" fill="white"/>
</g>
<defs>
<clipPath id="clip0_965_5529">
<rect width="50" height="50" fill="white"/>
</clipPath>
</defs>
</svg>
