<svg width="50" height="51" viewBox="0 0 50 51" fill="none" xmlns="http://www.w3.org/2000/svg">
<g clip-path="url(#clip0_965_5527)">
<path fill-rule="evenodd" clip-rule="evenodd" d="M24.8746 50.1522C32.1987 50.1522 38.7875 46.9946 43.3608 41.9629L42.144 40.6162C40.6379 38.9496 38.0707 38.8071 36.3897 40.297L33.7937 42.5976C30.2623 45.7276 24.8946 45.5302 21.6024 42.1494L19.9793 40.4825C18.4206 38.8819 15.8666 38.8263 14.2395 40.3573L9.47851 44.8371C13.723 48.1672 19.0676 50.1522 24.8746 50.1522ZM45.6619 37.4373L46.2528 38.0914C48.5547 34.2972 49.8806 29.842 49.8806 25.0761C49.8806 19.2972 47.9313 13.9748 44.6558 9.73418C44.047 9.89069 43.4651 10.1902 42.9625 10.6356L40.3668 12.9363C36.8353 16.0662 31.4677 15.8689 28.1754 12.4881L26.5524 10.8213C24.9935 9.22069 22.4397 9.16489 20.8125 10.6959L14.1337 16.9804L10.8845 13.5273L17.5633 7.24285C21.0744 3.93907 26.5858 4.05948 29.9491 7.51345L31.5722 9.18028C33.0981 10.747 35.5853 10.8384 37.222 9.38793L39.8177 7.08731C40.2534 6.70121 40.7166 6.36593 41.2002 6.08101C36.8194 2.29149 31.1138 0 24.8746 0C12.33 0 1.94295 9.2631 0.144127 21.3405C3.56722 19.3645 8.01188 19.8811 10.887 22.8336L12.7642 24.7612C14.2232 26.2597 16.5769 26.4177 18.2232 25.1278L23.7877 20.7684C27.1276 18.1518 31.8558 18.2784 35.0509 21.0699L42.6278 27.6899L39.5084 31.2603L31.9312 24.6405C30.4506 23.3468 28.2595 23.2881 26.7119 24.5009L21.1472 28.8603C17.5947 31.6435 12.5158 31.3024 9.36731 28.0692L7.49019 26.1416C5.93151 24.5409 3.37752 24.4851 1.75043 26.0162L0 27.6631C0.541338 32.9597 2.72655 37.7679 6.03558 41.5664L10.9904 36.9041C14.5015 33.6004 20.0127 33.7207 23.3761 37.1748L24.9994 38.8416C26.525 40.4082 29.0125 40.4998 30.6489 39.0494L33.2448 36.7487C36.8722 33.5336 42.4123 33.841 45.6619 37.4373Z" fill="url(#paint0_linear_965_5527)"/>
</g>
<defs>
<linearGradient id="paint0_linear_965_5527" x1="24.9403" y1="3.73512e-07" x2="34.8489" y2="50.1319" gradientUnits="userSpaceOnUse">
<stop stop-color="#780000"/>
<stop offset="1" stop-color="#C1121F"/>
</linearGradient>
<clipPath id="clip0_965_5527">
<rect width="50" height="50.2155" fill="white"/>
</clipPath>
</defs>
</svg>
