<svg width="50" height="50" viewBox="0 0 50 50" fill="none" xmlns="http://www.w3.org/2000/svg">
<g clip-path="url(#clip0_965_5537)">
<path d="M25 50C38.8071 50 50 38.8071 50 25C50 11.1929 38.8071 0 25 0C11.1929 0 0 11.1929 0 25C0 38.8071 11.1929 50 25 50Z" fill="url(#paint0_linear_965_5537)"/>
<path d="M25 48.4375C37.9442 48.4375 48.4375 37.9442 48.4375 25C48.4375 12.0558 37.9442 1.5625 25 1.5625C12.0558 1.5625 1.5625 12.0558 1.5625 25C1.5625 37.9442 12.0558 48.4375 25 48.4375Z" fill="url(#paint1_linear_965_5537)"/>
<path fill-rule="evenodd" clip-rule="evenodd" d="M44.9167 19.5433C42.4511 11.1935 34.4677 5.07812 25 5.07812C15.5322 5.07812 7.54875 11.1936 5.08301 19.5434C5.32164 10.4416 14.1474 3.125 24.9999 3.125C35.8524 3.125 44.678 10.4415 44.9167 19.5433Z" fill="url(#paint2_linear_965_5537)"/>
<path d="M36.1975 12.3113C36.653 10.6237 35.9087 8.54962 34.0972 8.59446C30.6136 8.54614 30.046 13.4087 30.4369 17.657L26.7425 20.8078C25.3661 19.631 23.4425 19.3998 21.7126 19.8105C15.9281 21.2289 13.7971 29.4769 16.217 34.2084C15.0343 36.983 15.2008 40.3891 16.8151 42.9637C18.1746 45.6762 22.2937 46.5563 21.4746 44.7754C21.2809 44.534 21.2809 44.6203 20.9853 44.5891C17.121 44.3442 16.1558 38.5395 17.223 35.7579C20.6488 39.7887 28.1971 38.4083 30.8617 34.8192C34.8007 29.539 33.4582 23.1373 32.646 17.3878C34.0836 15.9556 35.6877 14.3681 36.1975 12.3113ZM16.8525 32.4828C14.8847 24.8076 21.4509 18.5957 25.6788 21.7224H25.6822C22.015 24.6247 19.0039 28.2967 16.8525 32.4828ZM29.1998 33.3836C26.9227 37.4351 20.1492 38.322 17.6138 34.2429C18.3513 32.0687 19.483 30.0533 20.9479 28.3001L20.9683 28.2932C22.6268 26.3158 24.4383 24.4763 26.3857 22.7888C27.2591 25.4771 25.1044 29.1111 22.5826 28.9351C22.7321 31.3095 26.2565 29.4631 26.943 28.5141C28.5914 26.7126 28.7409 23.4099 27.565 21.7465L30.5796 19.21C31.205 26.4193 31.6332 28.552 29.1998 33.3836ZM32.4421 15.7451C31.8133 8.99482 34.4473 9.65396 34.7837 10.2337C35.6911 12.0801 33.2849 15.1688 32.4421 15.7451Z" fill="#987918"/>
<path d="M35.4163 11.9207C35.8717 10.2331 35.1274 8.159 33.3159 8.20384C29.8323 8.15552 29.2648 13.0181 29.6556 17.2664L25.9613 20.4172C24.5848 19.2404 22.6612 19.0092 20.9313 19.4199C15.1468 20.8383 13.0159 29.0863 15.4357 33.8177C14.253 36.5924 14.4195 39.9984 16.0339 42.5731C17.3934 45.2856 21.5125 46.1656 20.6934 44.3848C20.4997 44.1434 20.4997 44.2297 20.204 44.1985C16.3398 43.9535 15.3746 38.1488 16.4417 35.3673C19.8675 39.3981 27.4159 38.0177 30.0804 34.4286C34.0194 29.1484 32.677 22.7467 31.8647 16.9972C33.3023 15.565 34.9065 13.9775 35.4163 11.9207ZM16.0713 32.0922C14.1035 24.417 20.6696 18.2051 24.8975 21.3317H24.9009C21.2338 24.2341 18.2226 27.906 16.0713 32.0922ZM28.4185 32.9929C26.1414 37.0445 19.3679 37.9314 16.8326 33.8522C17.5701 31.6781 18.7018 29.6626 20.1666 27.9095L20.187 27.9026C21.8455 25.9251 23.657 24.0857 25.6044 22.3981C26.4779 25.0865 24.3232 28.7205 21.8014 28.5445C21.9509 30.9188 25.4753 29.0725 26.1618 28.1235C27.8102 26.322 27.9597 23.0193 26.7837 21.3559L29.7984 18.8193C30.4237 26.0286 30.8519 28.1614 28.4185 32.9929ZM31.6608 15.3545C31.0321 8.60419 33.666 9.26333 34.0025 9.8431C34.9099 11.6894 32.5037 14.7781 31.6608 15.3545Z" fill="url(#paint3_linear_965_5537)"/>
</g>
<defs>
<linearGradient id="paint0_linear_965_5537" x1="25" y1="0" x2="25" y2="50" gradientUnits="userSpaceOnUse">
<stop stop-color="#FADC7E"/>
<stop offset="1" stop-color="#50400F"/>
</linearGradient>
<linearGradient id="paint1_linear_965_5537" x1="25" y1="1.5625" x2="25" y2="48.4375" gradientUnits="userSpaceOnUse">
<stop stop-color="#DAAB16"/>
<stop offset="1" stop-color="#A78A30"/>
</linearGradient>
<linearGradient id="paint2_linear_965_5537" x1="24.9999" y1="2.34375" x2="24.9999" y2="25" gradientUnits="userSpaceOnUse">
<stop stop-color="#FCD24F"/>
<stop offset="1" stop-color="#C39C22"/>
</linearGradient>
<linearGradient id="paint3_linear_965_5537" x1="25" y1="8.20314" x2="25" y2="45.3125" gradientUnits="userSpaceOnUse">
<stop stop-color="#FFE8A0"/>
<stop offset="1" stop-color="#DFC05C"/>
</linearGradient>
<clipPath id="clip0_965_5537">
<rect width="50" height="50" fill="white"/>
</clipPath>
</defs>
</svg>
