<svg width="50" height="45" viewBox="0 0 50 45" fill="none" xmlns="http://www.w3.org/2000/svg">
<path d="M40.7866 27.3325C40.7866 31.6896 39.0219 35.6362 36.1628 38.4953C33.3037 41.3544 29.357 43.1191 25 43.1191C20.6429 43.1191 16.6963 41.3544 13.8372 38.4953C10.9781 35.6362 9.21338 31.6896 9.21338 27.3325C9.21338 26.97 9.35702 26.6485 9.59642 26.416C9.82898 26.1834 10.1573 26.0329 10.513 26.0329H15.342C15.7045 26.0329 16.026 26.1766 16.2585 26.416C16.4911 26.6485 16.6416 26.9769 16.6416 27.3325C16.6416 29.6376 17.5786 31.7306 19.0903 33.2422L19.1518 33.3038L19.1587 33.3106L19.1655 33.3175C20.6703 34.7881 22.7291 35.6909 25 35.6909H25.2941V35.6773C27.4897 35.602 29.4665 34.6855 30.9097 33.2422L30.9165 33.2354C32.4213 31.7306 33.3584 29.6376 33.3584 27.3257C33.3584 26.0466 33.0711 24.8154 32.5444 23.7142C32.0109 22.5993 31.2243 21.6007 30.2462 20.8141C29.7264 20.3968 29.316 19.8975 29.0219 19.323C28.7277 18.7552 28.5636 18.1396 28.5294 17.4693C28.4747 16.5391 28.0643 15.7046 27.4282 15.1027C26.7989 14.5076 25.937 14.1383 25 14.1383C24.0219 14.1383 23.1395 14.5281 22.5034 15.1643L22.4966 15.1711C21.8604 15.8072 21.4706 16.6896 21.4706 17.6677C21.4706 18.6458 21.8673 19.5282 22.5034 20.1711L22.7086 20.3763L22.7223 20.3626C23.3379 20.8825 24.1381 21.2039 25.0068 21.2039C26.6894 21.2039 28.2216 21.8879 29.3365 23.0028L29.3433 23.0097C30.4514 24.1246 31.1286 25.6499 31.1286 27.3325C31.1286 29.0152 30.4446 30.5473 29.3297 31.6622L29.3228 31.6691C28.2079 32.7771 26.6826 33.4611 25 33.4611C23.3721 33.4611 21.8946 32.825 20.8003 31.7853C19.6922 30.7388 18.9808 29.2888 18.8919 27.6745C18.8782 27.3736 18.8098 27.0931 18.6799 26.8537C18.5567 26.6143 18.3721 26.3955 18.1395 26.2108C16.8604 25.1779 15.8344 23.8715 15.1299 22.4078C14.4323 20.9509 14.0492 19.3366 14.0492 17.6814C14.0492 14.6649 15.2736 11.929 17.2572 9.93855L17.264 9.93171L17.2708 9.92487C19.2544 7.94128 21.9904 6.71693 25.0068 6.71693C28.0232 6.71693 30.7592 7.94128 32.7496 9.92487L32.7565 9.93171L32.7633 9.93855C34.3981 11.5801 35.5198 13.7279 35.8618 16.1219L35.896 16.3749H38.1464L38.1053 16.0466C37.736 13.0576 36.368 10.3763 34.3433 8.35168C31.9425 5.9577 28.6388 4.48711 25 4.48711C21.3611 4.48711 18.0574 5.96454 15.6703 8.35168C13.2832 10.7388 11.8057 14.0357 11.8057 17.6814C11.8057 18.5569 11.8946 19.4187 12.0588 20.2669C12.2298 21.1219 12.1888 21.074 12.5171 21.8674C12.5855 22.0316 12.6197 22.1957 12.6197 22.3667C12.6197 22.8729 12.3187 23.3585 11.8194 23.5637C11.6552 23.6321 11.4911 23.6663 11.3269 23.6663C10.8208 23.6663 10.3351 23.3654 10.1299 22.866C9.72638 21.9016 9.71954 21.7853 9.51434 20.7799C9.30914 19.7607 9.20654 18.7279 9.20654 17.6882C9.20654 13.3312 10.9712 9.38451 13.8303 6.52541C16.6894 3.66632 20.6361 1.90161 24.9931 1.90161C29.3502 1.90161 33.2968 3.66632 36.1559 6.52541C39.015 9.38451 40.7797 13.3312 40.7797 17.6882C40.7797 18.0507 40.6361 18.3722 40.3967 18.6048C40.1641 18.8373 39.8358 18.9878 39.4801 18.9878H34.6511C34.2886 18.9878 33.9671 18.8442 33.7346 18.6048C33.502 18.3722 33.3515 18.0439 33.3515 17.6882C33.3515 15.3763 32.4145 13.2833 30.9097 11.7785L30.9028 11.7717C29.3981 10.26 27.305 9.32979 24.9931 9.32979C22.6812 9.32979 20.5882 10.26 19.0834 11.7717L19.0766 11.7785C17.565 13.2833 16.6347 15.3763 16.6347 17.6882C16.6347 18.9673 16.922 20.1985 17.4487 21.2997C17.9822 22.4146 18.7688 23.4132 19.7469 24.2067C20.2667 24.6239 20.6771 25.1232 20.9712 25.6978C21.2654 26.2655 21.4295 26.8879 21.4637 27.5514C21.5184 28.4816 21.9288 29.3161 22.565 29.918C23.1942 30.5131 24.0561 30.8825 24.9931 30.8825C25.9712 30.8825 26.8536 30.4926 27.4897 29.8565L27.4966 29.8496C28.1327 29.2135 28.5225 28.3312 28.5225 27.353C28.5225 26.3749 28.1327 25.4926 27.4966 24.8565V24.8291C26.8604 24.193 25.9781 23.8031 25 23.8031C23.331 23.8031 21.8194 23.1328 20.7113 22.0521L20.6703 22.0042C19.5622 20.8961 18.8782 19.364 18.8782 17.6745C18.8782 15.9919 19.5622 14.4666 20.6703 13.3517L20.6771 13.3448C21.792 12.2368 23.3173 11.5528 25.0068 11.5459C26.6347 11.5459 28.1122 12.182 29.2065 13.2217C30.3146 14.2682 31.026 15.7183 31.1149 17.3325C31.1286 17.6335 31.197 17.9139 31.3269 18.1533C31.45 18.3927 31.6347 18.6116 31.8673 18.7963C33.1464 19.8291 34.1723 21.1355 34.8769 22.5993C35.5745 24.0562 35.9576 25.6704 35.9576 27.3257C35.9576 30.3421 34.7332 33.0781 32.7496 35.0617L32.7428 35.0685L32.736 35.0753C30.8002 37.0042 28.16 38.2149 25.2394 38.2764H24.9931C22.0109 38.2764 19.3091 37.0863 17.3392 35.1574L17.3324 35.1506L17.3256 35.1437C17.2982 35.1232 17.2708 35.0959 17.2503 35.0753C15.6156 33.4338 14.487 31.286 14.1518 28.8784L14.1176 28.6253H11.8673L11.9083 28.9536C12.2777 31.9426 13.6457 34.6239 15.6703 36.6485C18.0574 39.0357 21.3543 40.5131 25 40.5131C28.6388 40.5131 31.9425 39.0357 34.3297 36.6485C36.7168 34.2614 38.1942 30.9645 38.1942 27.3188C38.1942 26.4502 38.1053 25.5815 37.9412 24.7333C37.7702 23.8784 37.8112 23.9331 37.4829 23.1328C37.4145 22.9686 37.3803 22.8045 37.3803 22.6335C37.3803 22.1273 37.6812 21.6417 38.1806 21.4365C38.3447 21.3681 38.5089 21.3339 38.673 21.3339C39.1792 21.3339 39.6648 21.6349 39.87 22.1342C40.2736 23.0986 40.2804 23.208 40.4788 24.2204C40.684 25.26 40.7866 26.2929 40.7866 27.3325ZM24.9931 28.639C25.3557 28.639 25.6771 28.4953 25.9165 28.2559C26.1559 28.0165 26.2996 27.695 26.2996 27.3325C26.2996 26.97 26.1559 26.6485 25.9165 26.4091C25.6771 26.1766 25.3557 26.0261 24.9931 26.0261C24.6306 26.0261 24.3091 26.1697 24.0697 26.4091C23.8303 26.6485 23.6867 26.97 23.6867 27.3325C23.6867 27.695 23.8303 28.0165 24.0697 28.2559C24.3091 28.4953 24.6375 28.639 24.9931 28.639ZM24.9931 16.3681C24.6306 16.3681 24.3091 16.5117 24.0697 16.7511C23.8303 16.9905 23.6867 17.312 23.6867 17.6745C23.6867 18.037 23.8303 18.3585 24.0697 18.5979C24.3091 18.8305 24.6306 18.981 24.9931 18.981C25.3557 18.981 25.6771 18.8373 25.9165 18.5979C26.1559 18.3585 26.2996 18.037 26.2996 17.6745C26.2996 17.312 26.1559 16.9905 25.9165 16.7511C25.6771 16.5117 25.3557 16.3681 24.9931 16.3681Z" fill="url(#paint0_linear_965_5559)"/>
<defs>
<linearGradient id="paint0_linear_965_5559" x1="27.8629" y1="42.8745" x2="22.137" y2="2.13252" gradientUnits="userSpaceOnUse">
<stop stop-color="#31A8FA"/>
<stop offset="0.3771" stop-color="#31A8FA"/>
<stop offset="0.4767" stop-color="#5B85FB"/>
<stop offset="0.7003" stop-color="#C62DFD"/>
<stop offset="0.7374" stop-color="#D81EFD"/>
<stop offset="0.825" stop-color="#AE1CDB"/>
<stop offset="1" stop-color="#511790"/>
</linearGradient>
</defs>
</svg>
