<svg width="50" height="50" viewBox="0 0 50 50" fill="none" xmlns="http://www.w3.org/2000/svg">
<g clip-path="url(#clip0_975_5646)">
<path d="M49.6105 20.8551L47.6105 18.2632L36.1812 10.8857C36.2187 11.1026 36.2593 11.3195 36.3062 11.5345C36.3973 11.9338 36.4975 12.331 36.6068 12.7257C36.6718 12.9662 36.7389 13.2012 36.808 13.4307C36.8299 13.5007 36.8505 13.572 36.8705 13.6426C39.1293 20.9001 43.6368 24.3482 49.6874 28.9689C50.0814 26.5021 50.1065 23.9905 49.7618 21.5164L49.6105 20.8551Z" fill="#EF7730"/>
<path d="M27.4013 31.25C16.5263 26.3862 9.72755 16.5143 9.3313 6.57935C9.32733 6.48488 9.29665 6.39348 9.24283 6.31575C9.18902 6.23801 9.11426 6.17713 9.02724 6.14016C8.94022 6.1032 8.8445 6.09166 8.75119 6.10689C8.65788 6.12212 8.5708 6.1635 8.50005 6.22622C5.65394 8.7349 3.41584 11.8582 1.9552 15.3597C0.494562 18.8611 -0.150348 22.649 0.0692952 26.4366C0.288938 30.2242 1.36738 33.9121 3.22297 37.2213C5.07857 40.5304 7.66269 43.3741 10.7797 45.537C13.8967 47.6998 17.465 49.1252 21.2143 49.7053C24.9636 50.2853 28.7957 50.0047 32.4206 48.8848C36.0455 47.7649 39.3681 45.8351 42.1369 43.2413C44.9056 40.6475 47.0481 37.4579 48.4019 33.9137C48.4352 33.8286 48.4445 33.7359 48.4289 33.6458C48.4132 33.5558 48.3731 33.4717 48.313 33.4028C48.2529 33.3339 48.175 33.2829 48.0879 33.2551C48.0007 33.2274 47.9077 33.2241 47.8188 33.2456C40.9812 34.8807 33.7929 34.1781 27.4013 31.25ZM49.7594 21.5381C48.875 19.4931 48.8751 19.4931 25.1619 10.9281C13.2257 6.6156 11.0082 2.45372 19.6501 0.56997C20.0709 0.479554 20.4953 0.399137 20.9232 0.32872C24.2136 -0.208677 27.5782 -0.0837164 30.8198 0.696275C34.0613 1.47627 37.1145 2.89559 39.8003 4.87102C42.486 6.84645 44.7504 9.33823 46.4606 12.2003C48.1707 15.0623 49.2923 18.2369 49.7594 21.5381Z" fill="#F9D85E"/>
<path d="M26.9937 0.0832422L26.7056 0.0576172C27.0968 0.0851172 27.4818 0.133867 27.8681 0.178242C27.7993 0.170117 27.7331 0.160117 27.6631 0.151992C27.4443 0.125117 27.2231 0.104492 26.9937 0.0832422Z" fill="#EF7730"/>
</g>
<defs>
<clipPath id="clip0_975_5646">
<rect width="50" height="50" fill="white"/>
</clipPath>
</defs>
</svg>
