<svg width="50" height="50" viewBox="0 0 50 50" fill="none" xmlns="http://www.w3.org/2000/svg">
<g clip-path="url(#clip0_30_223)">
<mask id="mask0_30_223" style="mask-type:luminance" maskUnits="userSpaceOnUse" x="25" y="13" width="25" height="25">
<path d="M50 25.7511C49.6926 32.165 44.3853 37.2675 37.9098 37.2675C31.4344 37.2675 25.7992 31.8371 25.7992 25.1568C25.7992 18.4765 31.209 13.0461 37.9098 13.0461C44.6107 13.0461 49.3648 17.8207 49.959 23.9478H44.4672C43.8935 20.8535 41.1885 18.497 37.9098 18.497C34.6312 18.497 31.25 21.4888 31.25 25.1568C31.25 28.8248 34.2418 31.8166 37.9098 31.8166C41.5779 31.8166 43.1558 30.0543 44.1189 27.5748H34.8771V25.7511H50Z" fill="white"/>
</mask>
<g mask="url(#mask0_30_223)">
<mask id="mask1_30_223" style="mask-type:luminance" maskUnits="userSpaceOnUse" x="-1" y="10" width="52" height="29">
<path d="M13.9139 10.9969H36.086C43.8114 10.9969 50.0819 17.2674 50.0819 24.9929C50.0819 32.7183 43.8114 38.9888 36.086 38.9888H13.9139C6.18846 38.9683 -0.0820312 32.7183 -0.0820312 24.9929C-0.0820312 17.2674 6.18846 10.9969 13.9139 10.9969Z" fill="white"/>
</mask>
<g mask="url(#mask1_30_223)">
<path d="M13.9139 10.9969H36.086C43.8114 10.9969 50.0819 17.2674 50.0819 24.9929C50.0819 32.7183 43.8114 38.9888 36.086 38.9888H13.9139C6.18846 38.9683 -0.0820312 32.7183 -0.0820312 24.9929C-0.0820312 17.2674 6.18846 10.9969 13.9139 10.9969Z" fill="url(#paint0_linear_30_223)"/>
</g>
</g>
<mask id="mask2_30_223" style="mask-type:luminance" maskUnits="userSpaceOnUse" x="-1" y="13" width="26" height="25">
<path d="M3.99586 34.0912C8.74996 38.3945 16.1065 38.251 20.6762 33.6814C25.4098 28.9477 25.4098 21.2838 20.6762 16.5502C15.9426 11.8166 8.27865 11.8166 3.54504 16.5502C-0.901679 20.9969 -1.16807 28.0256 2.72537 32.7797L6.61881 28.8863C4.83603 26.2838 5.08193 22.7182 7.3975 20.4027C9.99996 17.8002 14.2213 17.8002 16.8237 20.4027C19.4262 23.0051 19.4262 27.2264 16.8237 29.8289C14.836 31.8166 11.8852 32.2879 9.44668 31.2223L15.9836 24.6855L14.6926 23.3945L3.99586 34.0912Z" fill="white"/>
</mask>
<g mask="url(#mask2_30_223)">
<mask id="mask3_30_223" style="mask-type:luminance" maskUnits="userSpaceOnUse" x="-1" y="10" width="52" height="29">
<path d="M13.9139 10.9969H36.086C43.8114 10.9969 50.0819 17.2674 50.0819 24.9929C50.0819 32.7183 43.8114 38.9888 36.086 38.9888H13.9139C6.18846 38.9683 -0.0820312 32.7183 -0.0820312 24.9929C-0.0820312 17.2674 6.18846 10.9969 13.9139 10.9969Z" fill="white"/>
</mask>
<g mask="url(#mask3_30_223)">
<path d="M13.9139 10.9969H36.086C43.8114 10.9969 50.0819 17.2674 50.0819 24.9929C50.0819 32.7183 43.8114 38.9888 36.086 38.9888H13.9139C6.18846 38.9683 -0.0820312 32.7183 -0.0820312 24.9929C-0.0820312 17.2674 6.18846 10.9969 13.9139 10.9969Z" fill="url(#paint1_linear_30_223)"/>
</g>
</g>
</g>
<defs>
<linearGradient id="paint0_linear_30_223" x1="49.4262" y1="18.5379" x2="-0.860721" y2="31.8166" gradientUnits="userSpaceOnUse">
<stop stop-color="#FFDB3B"/>
<stop offset="0.2" stop-color="#FF6270"/>
<stop offset="0.4" stop-color="#FF1CE6"/>
<stop offset="0.6" stop-color="#B14EFF"/>
<stop offset="0.8" stop-color="#3BADFF"/>
<stop offset="1" stop-color="#6BE5FF"/>
</linearGradient>
<linearGradient id="paint1_linear_30_223" x1="49.4262" y1="18.5379" x2="-0.860721" y2="31.8166" gradientUnits="userSpaceOnUse">
<stop stop-color="#FFDB3B"/>
<stop offset="0.2" stop-color="#FF6270"/>
<stop offset="0.4" stop-color="#FF1CE6"/>
<stop offset="0.6" stop-color="#B14EFF"/>
<stop offset="0.8" stop-color="#3BADFF"/>
<stop offset="1" stop-color="#6BE5FF"/>
</linearGradient>
<clipPath id="clip0_30_223">
<rect width="50" height="50" fill="white"/>
</clipPath>
</defs>
</svg>
