<?xml version="1.0" encoding="UTF-8"?>
<svg xmlns="http://www.w3.org/2000/svg" xmlns:xlink="http://www.w3.org/1999/xlink" width="50px" height="50px" viewBox="0 0 50 50" version="1.1">
<g id="surface1">
<path style=" stroke:none;fill-rule:evenodd;fill:rgb(23.529412%,87.45098%,98.823529%);fill-opacity:1;" d="M 21.394531 -0.0820312 C 23.742188 -0.0820312 26.089844 -0.0820312 28.441406 -0.0820312 C 38.925781 1.925781 45.832031 8.023438 49.160156 18.203125 C 49.449219 19.339844 49.699219 20.457031 49.917969 21.558594 C 49.917969 23.796875 49.917969 26.035156 49.917969 28.273438 C 48.140625 38.113281 42.601562 44.90625 33.304688 48.65625 C 31.683594 49.160156 30.0625 49.582031 28.441406 49.917969 C 26.089844 49.917969 23.742188 49.917969 21.394531 49.917969 C 10.90625 47.90625 4 41.808594 0.671875 31.628906 C 0.382812 30.492188 0.132812 29.375 -0.0820312 28.273438 C -0.0820312 26.035156 -0.0820312 23.796875 -0.0820312 21.558594 C 1.695312 11.71875 7.230469 4.925781 16.527344 1.175781 C 18.148438 0.671875 19.773438 0.25 21.394531 -0.0820312 Z M 21.394531 -0.0820312 "/>
<path style=" stroke:none;fill-rule:evenodd;fill:rgb(9.019608%,7.843137%,27.843137%);fill-opacity:1;" d="M 26.929688 25.585938 C 27.210938 25.546875 27.460938 25.433594 27.683594 25.25 C 27.796875 24.132812 27.796875 23.015625 27.683594 21.894531 C 26.796875 21.324219 25.871094 20.824219 24.917969 20.386719 C 24.328125 20.539062 23.824219 20.820312 23.40625 21.226562 C 22.929688 21.335938 22.507812 21.5625 22.148438 21.894531 C 22.035156 23.015625 22.035156 24.132812 22.148438 25.25 C 22.917969 25.605469 23.617188 26.054688 24.246094 26.59375 C 23.144531 28.742188 21.996094 30.867188 20.804688 32.96875 C 20.304688 33.472656 19.714844 33.835938 19.042969 34.058594 C 16.75 34.171875 14.457031 34.171875 12.164062 34.058594 C 11.464844 33.414062 11.324219 32.660156 11.746094 31.796875 C 15.730469 25.113281 19.671875 18.398438 23.574219 11.660156 C 24.386719 10.835938 25.253906 10.78125 26.175781 11.492188 C 30.160156 18.398438 34.1875 25.277344 38.253906 32.132812 C 38.472656 32.90625 38.277344 33.546875 37.667969 34.058594 C 35.320312 34.171875 32.96875 34.171875 30.621094 34.058594 C 29.902344 33.828125 29.3125 33.40625 28.859375 32.800781 C 27.769531 30.734375 26.679688 28.664062 25.585938 26.59375 C 25.992188 26.191406 26.4375 25.855469 26.929688 25.585938 Z M 26.929688 25.585938 "/>
<path style=" stroke:none;fill-rule:evenodd;fill:rgb(35.686275%,73.333333%,87.45098%);fill-opacity:1;" d="M 26.929688 25.585938 C 27.046875 25.3125 27.242188 25.089844 27.515625 24.917969 C 27.601562 23.96875 27.628906 23.015625 27.601562 22.0625 C 26.710938 21.621094 25.816406 21.175781 24.917969 20.722656 C 24.460938 21.027344 23.957031 21.195312 23.40625 21.226562 C 23.824219 20.820312 24.328125 20.539062 24.917969 20.386719 C 25.871094 20.824219 26.796875 21.324219 27.683594 21.894531 C 27.796875 23.015625 27.796875 24.132812 27.683594 25.25 C 27.460938 25.433594 27.210938 25.546875 26.929688 25.585938 Z M 26.929688 25.585938 "/>
</g>
</svg>
