<?xml version="1.0" encoding="UTF-8"?>
<svg xmlns="http://www.w3.org/2000/svg" xmlns:xlink="http://www.w3.org/1999/xlink" width="50px" height="50px" viewBox="0 0 50 50" version="1.1">
<g id="surface1">
<path style=" stroke:none;fill-rule:evenodd;fill:rgb(11.372549%,11.372549%,12.156863%);fill-opacity:1;" d="M 45 24.5 C 45 35.269531 36.269531 44 25.5 44 C 14.730469 44 6 35.269531 6 24.5 C 6 13.730469 14.730469 5 25.5 5 C 36.269531 5 45 13.730469 45 24.5 Z M 48 24.5 C 48 36.925781 37.925781 47 25.5 47 C 13.074219 47 3 36.925781 3 24.5 C 3 12.074219 13.074219 2 25.5 2 C 37.925781 2 48 12.074219 48 24.5 Z M 30.328125 14.179688 C 30.085938 14.296875 29.871094 14.464844 29.699219 14.671875 L 15 32.242188 C 14.753906 32.535156 14.621094 32.90625 14.621094 33.285156 C 14.628906 33.710938 14.796875 34.113281 15.097656 34.414062 C 15.394531 34.714844 15.800781 34.882812 16.222656 34.886719 C 16.460938 34.882812 16.695312 34.828125 16.910156 34.730469 C 17.125 34.628906 17.316406 34.484375 17.472656 34.304688 L 29.398438 20.050781 L 29.398438 33.164062 C 29.378906 33.398438 29.410156 33.632812 29.484375 33.855469 C 29.5625 34.078125 29.683594 34.28125 29.84375 34.453125 C 30.003906 34.625 30.195312 34.761719 30.410156 34.855469 C 30.628906 34.949219 30.859375 35 31.09375 35 C 31.328125 35 31.5625 34.949219 31.777344 34.855469 C 31.992188 34.761719 32.183594 34.625 32.34375 34.453125 C 32.503906 34.28125 32.625 34.078125 32.703125 33.855469 C 32.777344 33.632812 32.808594 33.398438 32.789062 33.164062 L 32.789062 15.714844 C 32.792969 15.492188 32.75 15.269531 32.667969 15.0625 C 32.585938 14.855469 32.460938 14.664062 32.304688 14.503906 C 32.148438 14.347656 31.960938 14.21875 31.753906 14.132812 C 31.550781 14.046875 31.328125 14 31.105469 14 C 30.835938 14 30.570312 14.0625 30.328125 14.179688 Z M 30.328125 14.179688 "/>
</g>
</svg>
