<?xml version="1.0" encoding="UTF-8"?>
<svg xmlns="http://www.w3.org/2000/svg" xmlns:xlink="http://www.w3.org/1999/xlink" width="50px" height="50px" viewBox="0 0 50 50" version="1.1">
<g id="surface1">
<path style=" stroke:none;fill-rule:nonzero;fill:rgb(0%,0%,0%);fill-opacity:1;" d="M 7.882812 0.105469 C 6.242188 0.496094 4.992188 2.148438 4.40625 4.726562 C 4.035156 6.308594 3.957031 7.292969 3.964844 10.105469 C 3.964844 13.457031 4.277344 16.816406 4.933594 20.496094 L 5.078125 21.328125 L 4.796875 22.207031 C 4.640625 22.695312 4.40625 23.582031 4.269531 24.179688 C 3.90625 25.808594 3.800781 25.957031 2.636719 26.492188 C 2.238281 26.667969 1.757812 26.953125 1.574219 27.109375 C 1.085938 27.519531 0.519531 28.457031 0.265625 29.246094 C -0.0390625 30.214844 -0.0273438 32.03125 0.273438 33.171875 C 0.539062 34.160156 0.539062 34.382812 0.273438 35.320312 C 0.0976562 35.925781 0.0585938 36.335938 0.0585938 37.304688 C 0.0585938 38.769531 0.207031 39.402344 0.859375 40.722656 C 1.242188 41.511719 1.445312 41.785156 2.246094 42.578125 C 2.902344 43.230469 3.476562 43.691406 4.191406 44.121094 C 14.191406 50.242188 26.386719 51.660156 37.519531 47.988281 C 38.90625 47.527344 39.238281 47.148438 38.761719 46.542969 C 38.488281 46.191406 38.15625 46.210938 36.90625 46.640625 C 36.347656 46.824219 35.207031 47.15625 34.375 47.363281 C 25.507812 49.589844 16.171875 48.59375 8.058594 44.558594 C 4.414062 42.753906 2.941406 41.621094 2.160156 40.039062 C 1.152344 37.988281 1.261719 36.179688 2.511719 33.835938 C 3.117188 32.695312 4.101562 31.667969 5 31.25 C 6.308594 30.632812 7.402344 30.554688 8.859375 30.957031 C 9.941406 31.25 10.734375 31.367188 11.71875 31.367188 C 13.789062 31.355469 14.777344 30.90625 18.164062 28.40625 C 19.355469 27.527344 20.988281 26.726562 22.101562 26.464844 C 23.808594 26.054688 26.191406 26.054688 27.902344 26.464844 C 29.023438 26.726562 30.644531 27.527344 31.835938 28.40625 C 35.460938 31.074219 36.230469 31.40625 38.625 31.328125 C 39.5625 31.289062 40.148438 31.210938 40.871094 31.023438 C 42.246094 30.671875 42.648438 30.632812 43.46875 30.75 C 45.167969 31.003906 46.535156 32.070312 47.519531 33.886719 C 48.742188 36.132812 48.839844 38.007812 47.84375 40.039062 C 47.050781 41.628906 45.566406 42.773438 41.875 44.609375 C 40.117188 45.476562 39.882812 45.742188 40.34375 46.328125 C 40.695312 46.765625 41.035156 46.6875 43.007812 45.671875 C 45.714844 44.277344 46.679688 43.652344 47.753906 42.578125 C 48.554688 41.785156 48.761719 41.511719 49.140625 40.722656 C 49.796875 39.402344 49.941406 38.769531 49.941406 37.304688 C 49.941406 36.335938 49.902344 35.925781 49.726562 35.320312 C 49.464844 34.382812 49.464844 34.160156 49.726562 33.171875 C 50.03125 32.03125 50.039062 30.214844 49.738281 29.246094 C 49.484375 28.457031 48.917969 27.519531 48.429688 27.109375 C 48.242188 26.953125 47.765625 26.667969 47.363281 26.492188 C 46.203125 25.964844 46.105469 25.808594 45.742188 24.226562 C 45.617188 23.660156 45.382812 22.773438 45.214844 22.253906 L 44.921875 21.316406 L 45.070312 20.496094 C 45.324219 19.082031 45.683594 16.328125 45.871094 14.550781 C 46.105469 12.136719 46.105469 7.714844 45.871094 6.121094 C 45.410156 3.074219 44.394531 1.152344 42.832031 0.390625 C 40.117188 -0.949219 36.242188 1.257812 31.210938 7.019531 C 30.304688 8.054688 30.226562 8.125 29.941406 8.074219 C 29.777344 8.046875 29.113281 7.929688 28.46875 7.8125 C 26.164062 7.402344 23.449219 7.449219 20.910156 7.917969 L 19.785156 8.132812 L 19.492188 7.792969 C 17.441406 5.496094 16.660156 4.675781 16.457031 4.628906 C 15.898438 4.492188 15.332031 5.007812 15.488281 5.507812 C 15.527344 5.613281 15.871094 6.042969 16.25 6.445312 C 16.632812 6.855469 17.226562 7.5 17.558594 7.890625 C 18.097656 8.496094 18.15625 8.601562 18 8.660156 C 17.082031 8.984375 16.164062 9.394531 15.15625 9.910156 L 13.945312 10.535156 L 13.789062 10.234375 C 12.882812 8.582031 11.144531 6.121094 10.605469 5.722656 C 9.914062 5.203125 9.09375 5.136719 8.320312 5.527344 C 7.734375 5.820312 7.363281 6.25 7.179688 6.863281 C 6.855469 7.917969 6.90625 12 7.265625 15.488281 L 7.402344 16.746094 L 6.933594 17.527344 C 6.679688 17.957031 6.40625 18.4375 6.328125 18.59375 C 6.183594 18.875 6.183594 18.875 6.066406 18.105469 C 5.605469 14.929688 5.3125 10.742188 5.421875 8.738281 C 5.597656 5.292969 6.132812 3.269531 7.167969 2.207031 C 8.371094 0.976562 10.324219 1.394531 13.039062 3.457031 C 13.820312 4.050781 14.035156 4.140625 14.375 4.011719 C 14.679688 3.894531 14.875 3.40625 14.746094 3.085938 C 14.589844 2.65625 12.890625 1.414062 11.535156 0.742188 C 10.273438 0.105469 8.898438 -0.136719 7.882812 0.105469 Z M 42.382812 1.835938 C 43.242188 2.351562 43.90625 3.699219 44.277344 5.632812 C 44.765625 8.222656 44.679688 12.773438 44.042969 17.332031 C 43.9375 18.085938 43.847656 18.738281 43.847656 18.796875 C 43.847656 18.847656 43.691406 18.613281 43.496094 18.261719 C 43.300781 17.910156 43.019531 17.441406 42.863281 17.214844 L 42.578125 16.804688 L 42.726562 15.507812 C 43.066406 12.34375 43.136719 8.464844 42.863281 7.058594 C 42.726562 6.375 42.324219 5.847656 41.691406 5.527344 C 40.996094 5.183594 40.429688 5.195312 39.738281 5.535156 C 39.296875 5.769531 39.082031 5.984375 38.398438 6.882812 C 37.707031 7.800781 36.230469 10.117188 36.113281 10.46875 C 36.09375 10.527344 35.695312 10.371094 35.128906 10.066406 C 34.609375 9.785156 33.671875 9.34375 33.039062 9.082031 C 32.402344 8.816406 31.894531 8.574219 31.90625 8.542969 C 31.914062 8.503906 32.265625 8.074219 32.695312 7.585938 C 33.808594 6.296875 36.132812 4.0625 37.160156 3.289062 C 38.136719 2.558594 39.757812 1.699219 40.429688 1.5625 C 41.125 1.425781 41.886719 1.53125 42.382812 1.835938 Z M 9.921875 7.167969 C 10.382812 7.644531 11.796875 9.746094 12.363281 10.78125 C 12.675781 11.347656 12.707031 11.464844 12.578125 11.53125 C 12.128906 11.785156 10.65625 13.054688 9.746094 13.984375 L 8.710938 15.046875 L 8.625 14.089844 C 8.585938 13.5625 8.546875 11.796875 8.546875 10.175781 L 8.546875 7.207031 L 8.820312 6.972656 C 9.210938 6.640625 9.445312 6.679688 9.921875 7.167969 Z M 41.183594 6.972656 L 41.457031 7.207031 L 41.457031 10.175781 C 41.457031 11.796875 41.417969 13.5625 41.378906 14.089844 L 41.289062 15.046875 L 40.207031 13.933594 C 39.601562 13.328125 38.703125 12.507812 38.203125 12.117188 L 37.304688 11.394531 L 37.65625 10.75 C 38.183594 9.773438 39.648438 7.625 40.097656 7.15625 C 40.546875 6.679688 40.792969 6.640625 41.183594 6.972656 Z M 27.890625 9.226562 C 30.070312 9.558594 31.894531 10.136719 33.839844 11.101562 C 39.230469 13.796875 43.085938 18.789062 44.335938 24.707031 C 44.464844 25.273438 44.648438 25.917969 44.746094 26.140625 C 45.050781 26.785156 45.664062 27.332031 46.535156 27.742188 C 47.414062 28.152344 47.84375 28.542969 48.144531 29.21875 C 48.417969 29.84375 48.574219 31.0625 48.476562 31.777344 L 48.390625 32.34375 L 47.929688 31.757812 C 46.652344 30.105469 44.414062 29.082031 42.382812 29.226562 C 41.984375 29.257812 41.210938 29.394531 40.675781 29.539062 C 39.386719 29.882812 37.890625 29.96875 37.023438 29.746094 C 36.074219 29.5 35.285156 29.082031 34.015625 28.152344 C 32.128906 26.765625 31.359375 26.269531 30.304688 25.761719 C 27.226562 24.285156 22.851562 24.257812 19.796875 25.710938 C 18.683594 26.238281 18.078125 26.621094 16.496094 27.792969 C 15.039062 28.855469 14.433594 29.238281 13.574219 29.570312 C 13.007812 29.792969 12.792969 29.824219 11.671875 29.824219 C 10.566406 29.832031 10.265625 29.792969 9.375 29.550781 C 7.394531 29.011719 5.96875 29.121094 4.347656 29.921875 C 3.378906 30.398438 2.558594 31.074219 1.984375 31.855469 L 1.613281 32.371094 L 1.535156 31.738281 C 1.4375 30.964844 1.574219 29.902344 1.855469 29.238281 C 2.140625 28.582031 2.667969 28.066406 3.300781 27.832031 C 4.503906 27.382812 5.246094 26.542969 5.527344 25.339844 C 6.269531 22.117188 6.875 20.546875 8.183594 18.40625 C 10.957031 13.835938 15.742188 10.496094 21.027344 9.421875 C 21.691406 9.285156 22.667969 9.140625 23.203125 9.089844 C 24.414062 8.972656 26.621094 9.042969 27.890625 9.226562 Z M 27.890625 9.226562 "/>
<path style=" stroke:none;fill-rule:nonzero;fill:rgb(0%,0%,0%);fill-opacity:1;" d="M 15.65625 23.140625 C 15.324219 23.277344 15.234375 23.550781 15.234375 24.441406 C 15.234375 25.457031 15.390625 25.71875 15.96875 25.71875 C 16.550781 25.71875 16.699219 25.457031 16.699219 24.410156 C 16.699219 23.734375 16.660156 23.511719 16.53125 23.355469 C 16.328125 23.109375 15.949219 23.015625 15.65625 23.140625 Z M 15.65625 23.140625 "/>
<path style=" stroke:none;fill-rule:nonzero;fill:rgb(0%,0%,0%);fill-opacity:1;" d="M 33.71875 23.144531 C 33.390625 23.28125 33.300781 23.554688 33.300781 24.433594 C 33.300781 25.332031 33.417969 25.613281 33.839844 25.722656 C 34.121094 25.789062 34.609375 25.574219 34.707031 25.339844 C 34.734375 25.253906 34.765625 24.8125 34.765625 24.363281 C 34.765625 23.738281 34.726562 23.515625 34.597656 23.359375 C 34.394531 23.113281 34.015625 23.015625 33.71875 23.144531 Z M 33.71875 23.144531 "/>
<path style=" stroke:none;fill-rule:nonzero;fill:rgb(0%,0%,0%);fill-opacity:1;" d="M 23.742188 28.625 C 21.917969 28.789062 20.402344 29.355469 19.789062 30.117188 C 19.503906 30.460938 19.484375 30.539062 19.484375 31.28125 C 19.484375 32.375 19.789062 32.980469 20.84375 34.035156 C 21.710938 34.882812 22.621094 35.441406 23.585938 35.695312 C 23.898438 35.773438 24.164062 35.851562 24.183594 35.871094 C 24.28125 35.957031 23.605469 37.109375 23.285156 37.421875 C 22.09375 38.554688 20.21875 38.585938 18.976562 37.492188 C 18.539062 37.109375 18.039062 37.121094 17.746094 37.519531 C 17.503906 37.851562 17.582031 38.203125 18 38.59375 C 19.417969 39.902344 21.75 40.136719 23.449219 39.140625 C 23.917969 38.859375 24.445312 38.390625 24.789062 37.949219 L 25.003906 37.667969 L 25.21875 37.949219 C 25.804688 38.703125 26.566406 39.25 27.511719 39.5625 C 28.039062 39.738281 28.3125 39.765625 29.144531 39.726562 C 30.070312 39.699219 30.207031 39.667969 30.871094 39.335938 C 32.160156 38.691406 32.648438 38.046875 32.257812 37.519531 C 31.964844 37.121094 31.46875 37.109375 31.027344 37.492188 C 29.789062 38.585938 27.914062 38.554688 26.722656 37.421875 C 26.398438 37.109375 25.726562 35.957031 25.824219 35.871094 C 25.84375 35.851562 26.105469 35.773438 26.417969 35.695312 C 27.84375 35.324219 29.621094 33.917969 30.21875 32.695312 C 31.351562 30.382812 29.914062 28.957031 26.105469 28.625 C 25.472656 28.566406 24.886719 28.527344 24.808594 28.527344 C 24.730469 28.535156 24.25 28.585938 23.742188 28.625 Z M 23.742188 28.625 "/>
</g>
</svg>
