<svg width="50" height="50" viewBox="0 0 50 50" fill="none" xmlns="http://www.w3.org/2000/svg">
<g clip-path="url(#clip0_531_255)">
<path d="M7.88238 0.105598C6.24176 0.496223 4.99176 2.14661 4.40582 4.72474C4.03473 6.30677 3.9566 7.2931 3.96637 10.1056C3.96637 13.4552 4.27887 16.8146 4.93316 20.4962L5.07965 21.3263L4.79645 22.2052C4.6402 22.6935 4.40582 23.5822 4.2691 24.1779C3.90777 25.8087 3.80035 25.9552 2.63824 26.4923C2.23785 26.6681 1.75934 26.9513 1.57379 27.1075C1.08551 27.5177 0.519102 28.4552 0.265196 29.2462C-0.0375386 30.213 -0.027773 32.0294 0.274961 33.172C0.538633 34.1583 0.538633 34.3829 0.274961 35.3204C0.0991802 35.9259 0.0601177 36.3361 0.0601177 37.3029C0.0601177 38.7677 0.206602 39.4025 0.860899 40.7208C1.24176 41.5118 1.44684 41.7853 2.24762 42.5763C2.90191 43.2306 3.47809 43.6896 4.19098 44.1193C14.191 50.2423 26.3882 51.6583 37.5211 47.9865C38.9078 47.5275 39.2398 47.1466 38.7613 46.5411C38.4879 46.1896 38.1558 46.2091 36.9058 46.6388C36.3492 46.8243 35.2066 47.1564 34.3765 47.3615C25.5093 49.588 16.1734 48.5919 8.05816 44.5587C4.41559 42.7521 2.94098 41.6193 2.15973 40.0372C1.15387 37.9865 1.26129 36.1798 2.51129 33.8361C3.11676 32.6935 4.10309 31.6681 5.00152 31.2482C6.31012 30.6329 7.40387 30.5548 8.85895 30.9552C9.94293 31.2482 10.7339 31.3654 11.7203 31.3654C13.7906 31.3556 14.7769 30.9064 18.1656 28.4064C19.357 27.5275 20.9879 26.7267 22.1011 26.463C23.8101 26.0529 26.1929 26.0529 27.9019 26.463C29.025 26.7267 30.6461 27.5275 31.8375 28.4064C35.4605 31.0724 36.232 31.4044 38.6246 31.3263C39.5621 31.2872 40.148 31.2091 40.8707 31.0236C42.2476 30.672 42.648 30.6329 43.4683 30.7501C45.1675 31.004 46.5347 32.0685 47.5211 33.8849C48.7418 36.131 48.8394 38.006 47.8433 40.0372C47.0523 41.629 45.5679 42.7716 41.8765 44.6075C40.1187 45.4767 39.8843 45.7404 40.3433 46.3263C40.6949 46.7658 41.0367 46.6876 43.0093 45.672C45.7144 44.2755 46.6812 43.6505 47.7554 42.5763C48.5562 41.7853 48.7613 41.5118 49.1421 40.7208C49.7964 39.4025 49.9429 38.7677 49.9429 37.3029C49.9429 36.3361 49.9039 35.9259 49.7281 35.3204C49.4644 34.3829 49.4644 34.1583 49.7281 33.172C50.0308 32.0294 50.0406 30.213 49.7379 29.2462C49.4839 28.4552 48.9175 27.5177 48.4293 27.1075C48.2437 26.9513 47.7652 26.6681 47.3648 26.4923C46.2027 25.965 46.105 25.8087 45.7437 24.2267C45.6168 23.6603 45.3824 22.7716 45.2164 22.254L44.9234 21.3165L45.0699 20.4962C45.3238 19.0802 45.6851 16.3263 45.8707 14.549C46.105 12.1368 46.105 7.71302 45.8707 6.12122C45.4117 3.07435 44.3961 1.15052 42.8336 0.388802C40.1187 -0.949089 36.2418 1.25794 31.2125 7.01966C30.3043 8.05482 30.2261 8.12318 29.9429 8.07435C29.7769 8.04505 29.1129 7.92786 28.4683 7.81068C26.1636 7.40052 23.4488 7.44935 20.9097 7.9181L19.7867 8.13294L19.4937 7.79115C17.4429 5.49622 16.6617 4.67591 16.4566 4.62708C15.9 4.49036 15.3336 5.00794 15.4898 5.50599C15.5289 5.61341 15.8707 6.0431 16.2515 6.44349C16.6324 6.85365 17.2281 7.49818 17.5601 7.8888C18.0972 8.49427 18.1558 8.60169 17.9996 8.66029C17.0816 8.98255 16.1636 9.39271 15.1578 9.91029L13.9468 10.5353L13.7906 10.2325C12.8824 8.58216 11.1441 6.12122 10.607 5.72083C9.91363 5.20325 9.09332 5.1349 8.32184 5.52552C7.7359 5.81849 7.36481 6.24818 7.17926 6.86341C6.85699 7.9181 6.90582 12.0001 7.26715 15.4865L7.40387 16.7462L6.93512 17.5275C6.68121 17.9572 6.40777 18.4357 6.32965 18.5919C6.18316 18.8751 6.18316 18.8751 6.06598 18.1036C5.60699 14.9298 5.31402 10.7404 5.42145 8.73841C5.59723 5.29115 6.13434 3.26966 7.16949 2.20521C8.37066 0.974739 10.3238 1.39466 13.0386 3.45521C13.8199 4.05091 14.0347 4.1388 14.3765 4.01185C14.6793 3.89466 14.8746 3.40638 14.7476 3.08411C14.5914 2.65443 12.8921 1.41419 11.5347 0.740364C10.275 0.105598 8.89801 -0.138542 7.88238 0.105598ZM42.3843 1.83411C43.2437 2.35169 43.9078 3.69935 44.2789 5.63294C44.7671 8.22083 44.6793 12.7716 44.0445 17.3322C43.9371 18.0841 43.8492 18.7384 43.8492 18.797C43.8492 18.8458 43.6929 18.6115 43.4976 18.2599C43.3023 17.9083 43.0191 17.4396 42.8629 17.215L42.5796 16.8048L42.7261 15.506C43.0679 12.3419 43.1363 8.46497 42.8629 7.05872C42.7261 6.37513 42.3257 5.84779 41.691 5.52552C40.9976 5.18372 40.4312 5.19349 39.7379 5.53529C39.2984 5.76966 39.0836 5.9845 38.4 6.88294C37.7066 7.80091 36.232 10.1154 36.1148 10.4669C36.0953 10.5255 35.6949 10.3693 35.1285 10.0665C34.6109 9.78333 33.6734 9.34388 33.0386 9.08021C32.4039 8.81654 31.8961 8.5724 31.9058 8.5431C31.9156 8.50404 32.2671 8.07435 32.6968 7.58607C33.8101 6.297 36.1343 4.06068 37.1597 3.28919C38.1363 2.55677 39.7574 1.6974 40.4312 1.56068C41.1246 1.42396 41.8863 1.53138 42.3843 1.83411ZM9.9234 7.16615C10.3824 7.64466 11.7984 9.74427 12.3648 10.7794C12.6773 11.3458 12.7066 11.463 12.5796 11.5314C12.1304 11.7853 10.6558 13.0548 9.74762 13.9825L8.71246 15.047L8.62457 14.09C8.58551 13.5626 8.54645 11.795 8.54645 10.174V7.20521L8.81988 6.97083C9.21051 6.6388 9.44488 6.67786 9.9234 7.16615ZM41.1832 6.97083L41.4566 7.20521V10.174C41.4566 11.795 41.4175 13.5626 41.3785 14.09L41.2906 15.047L40.2066 13.9337C39.6011 13.3283 38.7027 12.5079 38.2046 12.1173L37.3062 11.3947L37.6578 10.7501C38.1851 9.77356 39.65 7.62513 40.0992 7.15638C40.5484 6.67786 40.7925 6.6388 41.1832 6.97083ZM27.8921 9.22669C30.0699 9.55872 31.8961 10.1349 33.8394 11.1017C39.23 13.797 43.0875 18.7872 44.3375 24.7052C44.4644 25.2716 44.65 25.9161 44.7476 26.1408C45.0504 26.7853 45.6656 27.3322 46.5347 27.7423C47.4136 28.1525 47.8433 28.5431 48.1461 29.2169C48.4195 29.8419 48.5757 31.0626 48.4781 31.7755L48.3902 32.3419L47.9312 31.756C46.6519 30.1056 44.4156 29.0802 42.3843 29.2267C41.9839 29.256 41.2125 29.3927 40.6754 29.5392C39.3863 29.881 37.8921 29.9689 37.023 29.7443C36.0757 29.5001 35.2847 29.0802 34.0152 28.1525C32.1304 26.7658 31.3589 26.2677 30.3043 25.7599C27.2281 24.2853 22.8531 24.256 19.7964 25.7111C18.6832 26.2384 18.0777 26.6193 16.4957 27.7911C15.0406 28.8556 14.4351 29.2365 13.5757 29.5685C13.0093 29.7931 12.7945 29.8224 11.6714 29.8224C10.5679 29.8322 10.2652 29.7931 9.37652 29.549C7.3941 29.0118 5.96832 29.1193 4.34723 29.92C3.38043 30.3986 2.56012 31.0724 1.98395 31.8536L1.61285 32.3712L1.53473 31.7365C1.43707 30.965 1.57379 29.9005 1.85699 29.2365C2.1402 28.5822 2.66754 28.0646 3.30231 27.8302C4.50348 27.381 5.24566 26.5411 5.52887 25.34C6.27106 22.1173 6.87652 20.545 8.18512 18.4064C10.9586 13.8361 15.7437 10.4962 21.0269 9.422C21.691 9.28529 22.6675 9.1388 23.2046 9.08997C24.4156 8.97279 26.6226 9.04115 27.8921 9.22669Z" fill="black"/>
<path d="M15.6543 23.1406C15.3223 23.2773 15.2344 23.5508 15.2344 24.4395C15.2344 25.4551 15.3906 25.7188 15.9668 25.7188C16.5527 25.7188 16.6992 25.4551 16.6992 24.4102C16.6992 23.7363 16.6602 23.5117 16.5332 23.3555C16.3281 23.1113 15.9473 23.0137 15.6543 23.1406Z" fill="black"/>
<path d="M33.7207 23.1434C33.3887 23.2801 33.3008 23.5535 33.3008 24.4324C33.3008 25.3309 33.418 25.6141 33.8379 25.7215C34.1211 25.7899 34.6094 25.575 34.707 25.3406C34.7363 25.2527 34.7656 24.8133 34.7656 24.3641C34.7656 23.7391 34.7266 23.5145 34.5996 23.3582C34.3945 23.1141 34.0137 23.0164 33.7207 23.1434Z" fill="black"/>
<path d="M23.7431 28.6247C21.917 28.7907 20.4033 29.3571 19.7881 30.1188C19.5049 30.4606 19.4853 30.5387 19.4853 31.2809C19.4853 32.3747 19.7881 32.9801 20.8428 34.0348C21.7119 34.8844 22.6201 35.4411 23.5869 35.695C23.8994 35.7731 24.1631 35.8512 24.1826 35.8708C24.2803 35.9587 23.6064 37.111 23.2842 37.4235C22.0928 38.5563 20.2178 38.5856 18.9775 37.4919C18.5381 37.111 18.04 37.1208 17.747 37.5212C17.5029 37.8532 17.581 38.2048 18.001 38.5954C19.417 39.904 21.751 40.1384 23.4502 39.1423C23.9189 38.8591 24.4463 38.3903 24.7881 37.9509L25.0029 37.6676L25.2178 37.9509C25.8037 38.7028 26.5654 39.2497 27.5127 39.5622C28.04 39.738 28.3135 39.7673 29.1435 39.7282C30.0713 39.6989 30.208 39.6696 30.872 39.3376C32.1611 38.693 32.6494 38.0485 32.2588 37.5212C31.9658 37.1208 31.4678 37.111 31.0283 37.4919C29.7881 38.5856 27.9131 38.5563 26.7217 37.4235C26.3994 37.111 25.7256 35.9587 25.8232 35.8708C25.8428 35.8512 26.1064 35.7731 26.4189 35.695C27.8447 35.3239 29.622 33.9176 30.2178 32.6969C31.3506 30.3825 29.915 28.9567 26.1064 28.6247C25.4717 28.5661 24.8857 28.527 24.8076 28.527C24.7295 28.5368 24.251 28.5856 23.7431 28.6247Z" fill="black"/>
</g>
<defs>
<clipPath id="clip0_531_255">
<rect width="50" height="50" fill="white"/>
</clipPath>
</defs>
</svg>
