<svg width="50" height="51" viewBox="0 0 50 51" fill="none" xmlns="http://www.w3.org/2000/svg">
<g clip-path="url(#clip0_531_261)">
<path d="M24.9904 50.2699C38.7922 50.2699 49.9808 39.0813 49.9808 25.2795C49.9808 11.4777 38.7922 0.289062 24.9904 0.289062C11.1886 0.289062 0 11.4777 0 25.2795C0 39.0813 11.1886 50.2699 24.9904 50.2699Z" fill="url(#paint0_linear_531_261)"/>
<path opacity="0.5" d="M25.0096 50.0192C38.822 50.0192 50.0192 38.822 50.0192 25.0096C50.0192 11.1972 38.822 0 25.0096 0C11.1972 0 0 11.1972 0 25.0096C0 38.822 11.1972 50.0192 25.0096 50.0192Z" fill="#0077FF"/>
<path d="M36.2382 38.8432H40.7035L31.1979 15.0601C31.1979 15.041 31.1787 15.0218 31.1787 15.0026L27.3459 5.36291V5.34375H22.8806L9.29297 38.8432H13.7583L17.3037 30.1425H26.5218C27.595 30.1425 28.4766 29.261 28.4766 28.2261C28.4766 27.1529 27.595 26.2713 26.5218 26.2713H18.8943L25.1611 10.8056" fill="white"/>
<path opacity="0.25" d="M17.2852 30.1439L18.8758 26.2919L26.1391 26.2344L26.1008 30.1631L17.2852 30.1439Z" fill="url(#paint1_linear_531_261)"/>
<path opacity="0.25" d="M25.1445 10.8248L27.3484 5.34375L33.1169 19.8129L29.399 21.7485L25.1445 10.8248Z" fill="url(#paint2_linear_531_261)"/>
</g>
<defs>
<linearGradient id="paint0_linear_531_261" x1="24.9953" y1="0.276821" x2="24.9953" y2="50.2674" gradientUnits="userSpaceOnUse">
<stop stop-color="white"/>
<stop offset="1" stop-color="#0077FF"/>
</linearGradient>
<linearGradient id="paint1_linear_531_261" x1="24.883" y1="29.4735" x2="19.6943" y2="27.3593" gradientUnits="userSpaceOnUse">
<stop stop-color="white"/>
<stop offset="1" stop-color="#0077FF"/>
</linearGradient>
<linearGradient id="paint2_linear_531_261" x1="32.9244" y1="15.3785" x2="26.0576" y2="12.5798" gradientUnits="userSpaceOnUse">
<stop stop-color="white"/>
<stop offset="1" stop-color="#0077FF"/>
</linearGradient>
<clipPath id="clip0_531_261">
<rect width="50" height="50.2683" fill="white"/>
</clipPath>
</defs>
</svg>
