<?xml version="1.0" encoding="UTF-8"?>
<svg xmlns="http://www.w3.org/2000/svg" xmlns:xlink="http://www.w3.org/1999/xlink" width="50px" height="50px" viewBox="0 0 50 50" version="1.1">
<g id="surface1">
<path style=" stroke:none;fill-rule:nonzero;fill:rgb(100%,30.196078%,0%);fill-opacity:1;" d="M 50 25 C 50 11.191406 38.808594 0 25 0 C 11.191406 0 0 11.191406 0 25 C 0 38.808594 11.191406 50 25 50 C 38.808594 50 50 38.808594 50 25 Z M 50 25 "/>
<path style=" stroke:none;fill-rule:nonzero;fill:rgb(100%,100%,100%);fill-opacity:1;" d="M 14.167969 23.585938 C 14.167969 17.554688 19.015625 12.667969 25 12.667969 C 30.984375 12.667969 35.832031 17.554688 35.832031 23.585938 L 35.832031 34.324219 C 35.828125 28.34375 30.980469 23.5 25 23.5 C 19.015625 23.5 14.167969 28.351562 14.167969 34.332031 Z M 14.167969 23.585938 "/>
</g>
</svg>
