<svg width="50" height="50" viewBox="0 0 50 50" fill="none" xmlns="http://www.w3.org/2000/svg">
<g clip-path="url(#clip0_509_560)">
<path d="M42.8573 16.6667V33.3334C42.8583 34.2245 42.5266 35.0839 41.9266 35.7433C41.3266 36.4021 40.5021 36.813 39.6146 36.8948C38.7271 36.9771 37.8411 36.7245 37.1302 36.1865C36.4198 35.6485 35.9359 34.8646 35.774 33.988C35.7359 33.7719 35.7156 33.5526 35.7141 33.3334V30.6193C35.7078 29.8651 35.463 29.1328 35.0151 28.5266C34.5667 27.9198 33.9385 27.4709 33.2198 27.2438C32.5005 27.0167 31.7286 27.0224 31.013 27.261C30.2979 27.4995 29.6766 27.9584 29.238 28.5714L27.3807 31.1787L24.3927 35.3693C23.8229 36.0938 22.9948 36.5698 22.0818 36.6979C21.1687 36.8261 20.2417 36.5964 19.4943 36.0568C18.7474 35.5167 18.2375 34.7089 18.0719 33.8021C17.9068 32.8953 18.0984 31.9594 18.6073 31.1907L30.512 14.524C30.8406 14.0849 31.2667 13.7281 31.7557 13.4802C32.2453 13.2323 32.7849 13.1005 33.3333 13.0953H39.2859C40.2328 13.0953 41.1411 13.4714 41.8109 14.1412C42.4807 14.811 42.8573 15.7193 42.8573 16.6667Z" fill="#FFFDFA" fill-opacity="0.949"/>
<path d="M31.5474 35.714C33.1911 35.714 34.524 34.3818 34.524 32.738C34.524 31.0943 33.1911 29.762 31.5474 29.762C29.9042 29.762 28.5714 31.0943 28.5714 32.738C28.5714 34.3818 29.9042 35.714 31.5474 35.714Z" fill="#0D0A03" fill-opacity="0.949"/>
<path d="M22.6193 13.0953H10.7141C9.76718 13.0953 8.85885 13.4714 8.18905 14.1412C7.51926 14.811 7.1427 15.7193 7.1427 16.6667V33.3334C7.14426 34.0891 7.38541 34.825 7.83176 35.4354C8.27812 36.0453 8.90624 36.4985 9.62603 36.7287C10.3463 36.9589 11.1208 36.9547 11.838 36.7167C12.5557 36.4792 13.1792 36.0193 13.6193 35.4047L25.5239 18.738C25.9042 18.2042 26.1297 17.5761 26.1766 16.9224C26.2234 16.2688 26.0896 15.6146 25.7901 15.0318C25.4901 14.4495 25.0354 13.9604 24.476 13.6188C23.9167 13.2771 23.2745 13.0959 22.6193 13.0953ZM13.0953 21.4287C12.6245 21.4287 12.1641 21.2891 11.7724 21.0271C11.3807 20.7656 11.0755 20.3938 10.8953 19.9589C10.7151 19.5235 10.6682 19.0448 10.7599 18.5834C10.8521 18.1214 11.0786 17.6969 11.4114 17.3641C11.7448 17.0313 12.1687 16.8042 12.6307 16.7125C13.0927 16.6209 13.5713 16.6677 14.0062 16.8479C14.4417 17.0281 14.8135 17.3334 15.075 17.725C15.3364 18.1167 15.476 18.5766 15.476 19.0474C15.476 19.6792 15.2255 20.2849 14.7786 20.7313C14.3323 21.1776 13.7266 21.4287 13.0953 21.4287Z" fill="#0D0A03" fill-opacity="0.949"/>
<circle cx="25" cy="25" r="24.75" stroke="white" stroke-opacity="0.25" stroke-width="0.5"/>
</g>
<defs>
<clipPath id="clip0_509_560">
<rect width="50" height="50" fill="white"/>
</clipPath>
</defs>
</svg>
