<svg width="50" height="50" viewBox="0 0 50 50" fill="none" xmlns="http://www.w3.org/2000/svg">
<g clip-path="url(#clip0_30_53)">
<circle cx="25" cy="25" r="25" fill="#161627"/>
<path fill-rule="evenodd" clip-rule="evenodd" d="M26.2373 11.5532C25.9495 11.9194 25.4995 12.1549 24.9973 12.1549C24.4924 12.1549 24.045 11.9194 23.7572 11.5532C23.548 11.2864 23.4224 10.9463 23.4224 10.58C23.4224 10.0987 23.6369 9.66707 23.977 9.37932C24.2517 9.14126 24.6101 9 24.9973 9C25.3844 9 25.7428 9.14388 26.0175 9.37932C26.3629 9.66707 26.5774 10.0987 26.5774 10.58C26.5774 10.9463 26.4518 11.2864 26.2373 11.5532ZM13.1466 14.3851L14.8139 15.7589H14.8165C16.7194 13.668 19.2296 12.2074 21.9805 11.5849L21.6272 9.44921C18.3632 10.1637 15.3871 11.8948 13.1466 14.3851ZM13.1466 35.6116L14.8144 34.2378C16.7178 36.3288 19.2287 37.7893 21.9805 38.4119L21.6271 40.5475C18.3621 39.833 15.3852 38.1019 13.1466 35.6116ZM28.3743 40.5475L28.0209 38.4119C30.7752 37.7867 33.2861 36.3288 35.1844 34.2378L36.8548 35.6116C34.6162 38.1019 31.6393 39.8304 28.3743 40.5475ZM26.0591 38.2637C25.7792 38.0021 25.4051 37.8451 24.997 37.8451C24.5889 37.8451 24.2174 37.9995 23.9349 38.2637C23.621 38.5515 23.4221 38.9648 23.4221 39.4252C23.4221 39.7993 23.5503 40.1446 23.7701 40.414C24.0578 40.7724 24.5026 41 24.997 41C25.4914 41 25.9362 40.7724 26.2239 40.414C26.4489 40.142 26.5771 39.7993 26.5771 39.4252C26.5771 38.9648 26.3783 38.5515 26.0617 38.2637H26.0591ZM28.0209 11.5849L28.3743 9.44921C31.6393 10.1663 34.6162 11.8948 36.8548 14.3851L35.1844 15.7589C33.2861 13.668 30.7752 12.2101 28.0209 11.5849ZM38.2265 29.1544L40.2445 29.9128C41.2575 26.7218 41.2522 23.2735 40.2262 20.0877L38.2056 20.8513C39.0615 23.5438 39.0615 26.4515 38.2265 29.1544ZM37.8888 30.7222C38.2969 30.7222 38.671 30.8792 38.951 31.1408H38.9536C39.2701 31.4285 39.4689 31.8419 39.4689 32.3023C39.4689 32.6764 39.3408 33.0191 39.1158 33.2911C38.828 33.6495 38.3833 33.8771 37.8888 33.8771C37.3944 33.8771 36.9497 33.6495 36.6619 33.2911C36.4422 33.0217 36.314 32.6764 36.314 32.3023C36.314 31.8419 36.5128 31.4285 36.8267 31.1408C37.1093 30.8766 37.4807 30.7222 37.8888 30.7222ZM38.9512 16.5395C38.6713 16.2779 38.2972 16.121 37.8891 16.121C37.481 16.121 37.1095 16.2753 36.827 16.5395C36.513 16.8273 36.3142 17.2406 36.3142 17.701C36.3142 18.0751 36.4424 18.4204 36.6622 18.6898C36.9499 19.0482 37.3947 19.2758 37.8891 19.2758C38.3835 19.2758 38.8283 19.0482 39.116 18.6898C39.341 18.4178 39.4692 18.0751 39.4692 17.701C39.4692 17.2406 39.2704 16.8273 38.9538 16.5395H38.9512ZM9.75547 29.9128L11.7735 29.1544C10.9385 26.4515 10.9385 23.5438 11.7944 20.8513L9.77379 20.0877C8.74777 23.2735 8.74254 26.7218 9.75547 29.9128ZM13.1693 31.1408C12.8893 30.8792 12.5152 30.7222 12.1071 30.7222C11.699 30.7222 11.3275 30.8766 11.045 31.1408C10.7311 31.4285 10.5323 31.8419 10.5323 32.3023C10.5323 32.6764 10.6604 33.0217 10.8802 33.2911C11.168 33.6495 11.6127 33.8771 12.1071 33.8771C12.6016 33.8771 13.0463 33.6495 13.3341 33.2911C13.5591 33.0191 13.6872 32.6764 13.6872 32.3023C13.6872 31.8419 13.4884 31.4285 13.1719 31.1408H13.1693ZM12.107 16.121C12.5151 16.121 12.8892 16.2779 13.1691 16.5395H13.1718C13.4883 16.8273 13.6871 17.2406 13.6871 17.701C13.6871 18.0751 13.5589 18.4178 13.334 18.6898C13.0462 19.0482 12.6014 19.2758 12.107 19.2758C11.6126 19.2758 11.1678 19.0482 10.8801 18.6898C10.6603 18.4204 10.5321 18.0751 10.5321 17.701C10.5321 17.2406 10.731 16.8273 11.0449 16.5395C11.3274 16.2753 11.6989 16.121 12.107 16.121ZM22.8811 25.9321C22.8811 26.1031 22.9729 26.2611 23.1223 26.3466L24.7556 27.2791C24.9077 27.3646 25.0912 27.3646 25.238 27.2791L26.8766 26.3466C27.0234 26.2611 27.1178 26.1031 27.1178 25.9321V24.0671C27.1178 23.8961 27.0234 23.7381 26.8766 23.6526L25.238 22.7201C25.0912 22.6346 24.9051 22.6346 24.7556 22.7201L23.1223 23.6526C22.9702 23.7381 22.8811 23.8961 22.8811 24.0671V25.9321ZM24.997 31.6714C25.4051 31.6714 25.7792 31.8284 26.0591 32.09H26.0617C26.3783 32.3777 26.5771 32.7911 26.5771 33.2515C26.5771 33.6256 26.4489 33.9683 26.2239 34.2403C25.9362 34.5987 25.4914 34.8263 24.997 34.8263C24.5026 34.8263 24.0578 34.5987 23.7701 34.2403C23.5503 33.9709 23.4221 33.6256 23.4221 33.2515C23.4221 32.7911 23.621 32.3777 23.9349 32.09C24.2174 31.8258 24.5889 31.6714 24.997 31.6714ZM26.2239 15.7628C25.9362 15.4015 25.4914 15.1737 24.997 15.1737C24.5026 15.1737 24.0578 15.4015 23.7701 15.7628C23.5503 16.0351 23.4221 16.378 23.4221 16.7524C23.4221 17.208 23.6157 17.6217 23.9296 17.9097C24.2148 18.1689 24.5837 18.3286 24.997 18.3286C25.4103 18.3286 25.7844 18.1689 26.0644 17.9097C26.3783 17.6217 26.5771 17.208 26.5771 16.7524C26.5771 16.378 26.4489 16.0325 26.2239 15.7628ZM28.1996 18.5356L28.9508 16.5272C35.9993 19.8667 36.0045 30.1286 28.9508 33.4733L28.1996 31.4649C33.422 28.8367 33.4246 21.1665 28.1996 18.5356ZM21.0491 16.5272L21.8004 18.5356C16.5754 21.1665 16.578 28.8367 21.8004 31.4649L21.0491 33.4733C13.9955 30.1286 14.0007 19.8667 21.0491 16.5272Z" fill="white"/>
</g>
<defs>
<clipPath id="clip0_30_53">
<rect width="50" height="50" fill="white"/>
</clipPath>
</defs>
</svg>
