<?xml version="1.0" encoding="UTF-8"?>
<svg xmlns="http://www.w3.org/2000/svg" xmlns:xlink="http://www.w3.org/1999/xlink" width="50px" height="50px" viewBox="0 0 50 50" version="1.1">
<defs>
<linearGradient id="linear0" gradientUnits="userSpaceOnUse" x1="3" y1="25" x2="44.2756" y2="37.3988" >
<stop offset="0" style="stop-color:rgb(36.862745%,90.196078%,81.568627%);stop-opacity:1;"/>
<stop offset="0.515056" style="stop-color:rgb(74.901961%,77.647059%,100%);stop-opacity:1;"/>
<stop offset="1" style="stop-color:rgb(100%,72.941176%,41.176471%);stop-opacity:1;"/>
</linearGradient>
</defs>
<g id="surface1">
<path style=" stroke:none;fill-rule:nonzero;fill:url(#linear0);" d="M 46.355469 32.03125 L 46.289062 31.976562 C 46.160156 31.53125 45.957031 31.113281 45.691406 30.734375 L 45.132812 30.066406 C 45.101562 29.863281 45.058594 29.660156 45.003906 29.460938 L 44.238281 27.933594 L 43.800781 25.222656 L 44.292969 22.511719 L 44.984375 21.199219 L 44.984375 21.160156 C 45.058594 20.921875 45.109375 20.675781 45.140625 20.425781 L 45.675781 19.8125 C 45.972656 19.40625 46.191406 18.953125 46.320312 18.46875 L 46.378906 18.425781 C 47.15625 17.785156 47.683594 16.894531 47.867188 15.910156 C 48.050781 14.921875 47.878906 13.902344 47.382812 13.03125 C 46.886719 12.15625 46.097656 11.484375 45.152344 11.132812 C 44.207031 10.78125 43.167969 10.769531 42.214844 11.101562 L 42.195312 11.101562 C 41.683594 10.945312 41.148438 10.886719 40.617188 10.929688 L 39.878906 11.058594 C 39.625 10.941406 39.363281 10.847656 39.09375 10.777344 L 37.609375 10.6875 L 37.574219 10.660156 L 34.988281 9.675781 L 32.835938 7.859375 L 31.917969 6.417969 L 31.875 6.367188 C 31.730469 6.210938 31.574219 6.070312 31.410156 5.9375 L 31.132812 5.121094 L 31.132812 5.089844 C 30.9375 4.65625 30.671875 4.261719 30.347656 3.917969 L 30.328125 3.808594 C 30.152344 2.753906 29.601562 1.789062 28.78125 1.09375 C 27.960938 0.398438 26.917969 0.0117188 25.839844 0 C 24.757812 -0.0078125 23.710938 0.359375 22.875 1.039062 C 22.042969 1.722656 21.476562 2.671875 21.277344 3.726562 L 21.246094 3.867188 C 20.925781 4.199219 20.664062 4.574219 20.460938 4.988281 L 20.140625 5.867188 C 19.984375 5.988281 19.839844 6.121094 19.699219 6.257812 L 18.671875 7.800781 L 16.519531 9.53125 L 14.023438 10.417969 L 13.96875 10.449219 L 13.933594 10.472656 L 12.523438 10.53125 L 12.476562 10.53125 C 12.207031 10.59375 11.945312 10.683594 11.695312 10.792969 L 10.976562 10.65625 L 10.960938 10.65625 C 10.4375 10.601562 9.910156 10.648438 9.40625 10.792969 C 8.460938 10.441406 7.421875 10.433594 6.46875 10.765625 C 5.515625 11.101562 4.710938 11.757812 4.199219 12.625 C 3.683594 13.488281 3.492188 14.503906 3.660156 15.496094 C 3.824219 16.484375 4.335938 17.386719 5.105469 18.039062 L 5.128906 18.058594 C 5.253906 18.558594 5.464844 19.03125 5.757812 19.453125 L 6.238281 20.023438 C 6.265625 20.289062 6.3125 20.546875 6.386719 20.800781 L 7.03125 22.105469 L 7.03125 22.152344 L 7.464844 24.824219 L 6.976562 27.492188 L 6.164062 29.035156 L 6.140625 29.097656 C 6.082031 29.28125 6.039062 29.46875 6.011719 29.65625 L 5.421875 30.328125 L 5.398438 30.359375 C 5.132812 30.722656 4.925781 31.125 4.789062 31.554688 L 4.683594 31.640625 C 3.847656 32.324219 3.277344 33.277344 3.078125 34.335938 C 2.878906 35.394531 3.0625 36.488281 3.597656 37.425781 C 4.128906 38.363281 4.980469 39.082031 5.996094 39.457031 C 7.011719 39.832031 8.125 39.839844 9.144531 39.476562 L 9.210938 39.449219 C 9.679688 39.570312 10.164062 39.609375 10.644531 39.574219 L 11.503906 39.425781 C 11.714844 39.511719 11.929688 39.582031 12.148438 39.632812 L 13.882812 39.742188 L 16.507812 40.746094 L 18.621094 42.523438 L 18.675781 42.558594 L 19.472656 43.800781 L 19.5 43.832031 C 19.683594 44.027344 19.886719 44.207031 20.105469 44.367188 L 20.367188 45.121094 C 20.582031 45.59375 20.886719 46.023438 21.261719 46.382812 L 21.261719 46.429688 C 21.410156 47.429688 21.914062 48.34375 22.6875 49 C 23.460938 49.65625 24.449219 50.011719 25.464844 50 L 25.507812 50 C 26.515625 50.019531 27.496094 49.675781 28.273438 49.035156 C 29.046875 48.394531 29.566406 47.5 29.730469 46.511719 L 29.730469 46.425781 C 30.097656 46.074219 30.398438 45.660156 30.617188 45.199219 L 30.898438 44.4375 C 31.105469 44.289062 31.296875 44.125 31.472656 43.945312 L 32.347656 42.640625 L 34.527344 40.886719 L 37.136719 39.957031 L 38.753906 39.890625 L 38.820312 39.890625 C 39.035156 39.839844 39.242188 39.773438 39.449219 39.695312 L 40.25 39.847656 L 40.285156 39.847656 C 40.433594 39.863281 40.582031 39.871094 40.730469 39.871094 C 41.058594 39.871094 41.382812 39.832031 41.699219 39.757812 L 41.753906 39.777344 C 42.292969 39.988281 42.871094 40.09375 43.449219 40.101562 C 44.238281 40.089844 45.011719 39.871094 45.695312 39.472656 C 46.375 39.074219 46.9375 38.507812 47.328125 37.824219 C 47.902344 36.90625 48.117188 35.8125 47.9375 34.746094 C 47.757812 33.679688 47.195312 32.714844 46.355469 32.03125 Z M 44.796875 36.355469 C 44.152344 37.511719 43.113281 38.40625 41.863281 38.871094 L 41.214844 38.628906 C 43.1875 36.9375 44.542969 34.648438 45.066406 32.109375 L 45.589844 32.554688 C 45.796875 33.875 45.515625 35.222656 44.796875 36.355469 Z M 32.019531 42.199219 C 31.90625 42.25 31.789062 42.304688 31.660156 42.351562 L 31.96875 41.527344 L 32.566406 41.460938 L 32.136719 42.105469 Z M 30.625 44.058594 C 30.457031 44.171875 30.285156 44.28125 30.105469 44.378906 L 30.300781 43.335938 C 30.523438 43.28125 30.742188 43.226562 30.949219 43.167969 Z M 29.476562 46.132812 C 28.355469 47.066406 26.9375 47.570312 25.472656 47.566406 C 24.011719 47.558594 22.597656 47.035156 21.488281 46.089844 L 21.320312 45.078125 C 22.628906 45.621094 24.035156 45.898438 25.453125 45.886719 L 25.574219 45.886719 C 26.972656 45.910156 28.363281 45.652344 29.664062 45.128906 Z M 25.457031 45.421875 C 23.996094 45.433594 22.550781 45.121094 21.222656 44.511719 L 21.027344 43.355469 C 22.558594 43.6875 24.117188 43.847656 25.683594 43.839844 C 27.128906 43.847656 28.570312 43.707031 29.984375 43.421875 L 29.769531 44.5625 C 28.414062 45.164062 26.941406 45.457031 25.457031 45.421875 Z M 20.046875 43.097656 C 20.257812 43.164062 20.480469 43.226562 20.710938 43.28125 L 20.890625 44.335938 C 20.703125 44.230469 20.527344 44.117188 20.355469 43.988281 Z M 18.871094 42.03125 L 18.433594 41.339844 L 19.050781 41.417969 L 19.347656 42.261719 C 19.203125 42.203125 19.058594 42.144531 18.925781 42.078125 Z M 6.179688 36.003906 C 5.476562 34.847656 5.222656 33.476562 5.464844 32.148438 L 6.011719 31.703125 C 6.234375 32.992188 6.683594 34.230469 7.34375 35.363281 C 7.964844 36.472656 8.769531 37.472656 9.726562 38.3125 L 9.046875 38.550781 C 7.816406 38.066406 6.800781 37.164062 6.179688 36.003906 Z M 7.585938 22.140625 C 7.585938 22.003906 7.617188 21.859375 7.640625 21.710938 L 8.1875 22.351562 C 8.101562 22.53125 8.019531 22.714844 7.945312 22.890625 L 7.59375 22.191406 Z M 6.699219 20 C 6.679688 19.796875 6.667969 19.59375 6.671875 19.386719 L 7.457031 20.054688 C 7.390625 20.265625 7.328125 20.476562 7.277344 20.695312 Z M 6.273438 13.839844 C 6.976562 12.570312 8.144531 11.613281 9.535156 11.171875 L 10.457031 11.515625 C 8.207031 13.285156 6.707031 15.824219 6.253906 18.640625 L 5.507812 17.996094 C 5.214844 16.566406 5.488281 15.078125 6.273438 13.839844 Z M 8.097656 14.902344 C 8.820312 13.640625 9.8125 12.554688 11.007812 11.71875 L 12.074219 12.113281 C 10.066406 14.328125 8.527344 16.925781 7.550781 19.746094 L 6.6875 19.011719 C 6.84375 17.550781 7.324219 16.144531 8.097656 14.890625 Z M 12.769531 11.40625 C 12.613281 11.554688 12.445312 11.726562 12.289062 11.878906 L 11.320312 11.519531 C 11.5 11.414062 11.6875 11.316406 11.882812 11.234375 Z M 14.242188 10.933594 L 15.0625 10.902344 L 14.695312 11.382812 L 13.84375 11.222656 C 13.976562 11.121094 14.109375 11.023438 14.238281 10.9375 Z M 37.296875 11.152344 C 37.429688 11.242188 37.5625 11.34375 37.695312 11.453125 L 36.816406 11.605469 C 36.691406 11.433594 36.566406 11.261719 36.445312 11.097656 L 37.289062 11.148438 Z M 39.6875 11.496094 C 39.882812 11.59375 40.074219 11.699219 40.253906 11.816406 L 39.25 12.171875 C 39.089844 11.996094 38.925781 11.832031 38.765625 11.671875 Z M 45.265625 14.207031 C 46.035156 15.464844 46.28125 16.972656 45.949219 18.410156 L 45.171875 19.050781 C 44.78125 16.222656 43.332031 13.640625 41.113281 11.824219 L 42.082031 11.503906 C 43.449219 11.96875 44.585938 12.933594 45.265625 14.199219 Z M 44.082031 21.082031 C 44.039062 20.875 43.984375 20.664062 43.925781 20.4375 L 44.730469 19.796875 C 44.726562 19.996094 44.714844 20.199219 44.6875 20.398438 Z M 43.742188 22.46875 L 43.714844 22.613281 L 43.363281 23.277344 C 43.292969 23.105469 43.21875 22.925781 43.136719 22.742188 L 43.703125 22.097656 C 43.71875 22.222656 43.730469 22.347656 43.742188 22.46875 Z M 34.445312 39.351562 C 34.539062 39.164062 34.632812 38.976562 34.730469 38.785156 L 35.769531 38.980469 L 35.515625 39.304688 Z M 32.96875 40.773438 C 32.726562 40.804688 32.472656 40.835938 32.21875 40.859375 L 32.542969 39.988281 L 33.511719 40.0625 L 33.054688 40.746094 Z M 20.625 40.929688 L 20.441406 39.835938 C 20.441406 39.8125 20.441406 39.792969 20.441406 39.769531 C 23.714844 39.667969 27.40625 39.703125 30.667969 39.871094 C 30.667969 39.890625 30.667969 39.910156 30.667969 39.929688 L 30.460938 41.011719 C 27.183594 41.207031 23.894531 41.179688 20.621094 40.929688 Z M 30.324219 41.65625 L 30.101562 42.828125 C 27.078125 43.445312 23.953125 43.425781 20.9375 42.761719 L 20.738281 41.578125 C 22.445312 41.710938 24.335938 41.777344 26.199219 41.777344 C 27.617188 41.785156 29.019531 41.734375 30.3125 41.65625 Z M 17.984375 40.628906 L 17.523438 39.90625 C 17.847656 39.882812 18.167969 39.867188 18.515625 39.847656 L 18.839844 40.75 C 18.550781 40.710938 18.269531 40.675781 18 40.632812 Z M 15.503906 39.121094 L 15.242188 38.777344 L 16.257812 38.601562 L 16.3125 38.601562 C 16.410156 38.804688 16.503906 39.003906 16.597656 39.199219 Z M 13.742188 12.722656 C 11.949219 15.335938 10.328125 18.058594 8.890625 20.875 L 8.007812 20.128906 C 8.980469 17.230469 10.558594 14.570312 12.632812 12.316406 Z M 14.359375 12.953125 L 15.425781 13.351562 C 13.890625 16.195312 12.027344 19.332031 10.25 22.023438 L 9.390625 21.292969 C 10.851562 18.40625 12.507812 15.617188 14.347656 12.953125 Z M 16.742188 10.820312 C 16.601562 11.101562 16.457031 11.390625 16.304688 11.683594 L 15.402344 11.507812 C 15.578125 11.28125 15.746094 11.0625 15.914062 10.867188 Z M 33.683594 10.519531 L 33.019531 10.5625 C 33.003906 10.511719 32.988281 10.464844 32.972656 10.421875 L 32.667969 9.535156 L 33.089844 9.59375 Z M 35.621094 11.039062 C 35.789062 11.253906 35.945312 11.480469 36.128906 11.71875 L 35.195312 11.878906 C 35.046875 11.558594 34.90625 11.277344 34.765625 10.984375 Z M 41.960938 21.671875 L 41.078125 22.398438 C 39.363281 19.65625 37.550781 16.476562 36.058594 13.585938 L 37.144531 13.199219 C 38.9375 15.910156 40.542969 18.742188 41.945312 21.671875 Z M 37.78125 12.980469 L 38.914062 12.582031 C 40.945312 14.886719 42.46875 17.585938 43.382812 20.511719 L 42.449219 21.253906 C 41.070312 18.398438 39.507812 15.632812 37.765625 12.980469 Z M 42.957031 23.960938 L 42.957031 24.039062 L 42.585938 24.761719 C 42.414062 24.507812 42.246094 24.25 42.066406 23.976562 L 42.667969 23.292969 C 42.769531 23.519531 42.863281 23.742188 42.949219 23.960938 Z M 43.390625 29.507812 L 42.605469 28.839844 C 42.660156 28.730469 42.714844 28.613281 42.769531 28.515625 L 43.445312 29.320312 C 43.417969 29.375 43.417969 29.441406 43.386719 29.507812 Z M 43.953125 29.910156 L 44.15625 30.160156 L 43.933594 29.96875 C 43.933594 29.949219 43.9375 29.929688 43.945312 29.902344 Z M 37.664062 37.296875 C 39.328125 34.84375 40.839844 32.292969 42.191406 29.65625 L 43.09375 30.449219 C 42.144531 33.128906 40.683594 35.601562 38.789062 37.730469 Z M 32.777344 39.269531 C 32.871094 38.984375 32.96875 38.699219 33.070312 38.410156 C 33.476562 38.492188 33.871094 38.578125 34.261719 38.671875 C 34.140625 38.90625 34.027344 39.136719 33.914062 39.363281 Z M 31.109375 39.164062 C 31.1875 38.8125 31.269531 38.457031 31.359375 38.113281 C 31.808594 38.179688 32.25 38.253906 32.691406 38.335938 C 32.582031 38.636719 32.480469 38.945312 32.367188 39.246094 C 31.960938 39.214844 31.535156 39.195312 31.101562 39.171875 Z M 18.691406 39.105469 C 18.597656 38.785156 18.496094 38.488281 18.390625 38.175781 C 18.84375 38.101562 19.296875 38.039062 19.757812 37.980469 C 19.839844 38.335938 19.917969 38.691406 19.988281 39.050781 Z M 17.125 39.203125 C 17.015625 38.964844 16.902344 38.726562 16.78125 38.484375 C 17.183594 38.398438 17.59375 38.316406 18.007812 38.246094 C 18.109375 38.542969 18.207031 38.835938 18.296875 39.128906 C 17.875 39.160156 17.496094 39.179688 17.117188 39.214844 Z M 16.070312 37.050781 C 16.519531 36.902344 16.96875 36.769531 17.425781 36.648438 C 17.53125 36.921875 17.636719 37.199219 17.75 37.472656 C 17.304688 37.550781 16.863281 37.640625 16.429688 37.734375 Z M 9.40625 28.9375 L 10.40625 28.117188 L 10.453125 28.082031 C 12.070312 30.6875 13.777344 33.667969 15.199219 36.414062 L 15.132812 36.429688 L 13.902344 36.863281 C 12.238281 34.320312 10.734375 31.671875 9.40625 28.9375 Z M 13.347656 37.046875 L 12.171875 37.457031 C 10.316406 35.285156 8.898438 32.777344 8.003906 30.070312 L 8.957031 29.292969 C 10.257812 31.960938 11.726562 34.550781 13.347656 37.046875 Z M 30.308594 9.300781 L 30.511719 10.511719 C 30.511719 10.5625 30.53125 10.609375 30.539062 10.660156 C 27.429688 10.75 23.96875 10.714844 20.871094 10.566406 L 20.898438 10.421875 L 21.125 9.222656 C 24.1875 9.054688 27.261719 9.082031 30.320312 9.300781 Z M 21.226562 8.660156 L 21.457031 7.4375 C 24.285156 6.90625 27.1875 6.925781 30.007812 7.5 L 30.214844 8.734375 C 27.226562 8.527344 24.230469 8.507812 21.242188 8.667969 Z M 33.929688 10.964844 C 34.085938 11.308594 34.25 11.664062 34.433594 12.023438 C 34.132812 12.085938 33.832031 12.144531 33.523438 12.203125 C 33.386719 11.804688 33.257812 11.410156 33.136719 11.015625 Z M 40.507812 22.875 C 40.234375 23.109375 39.960938 23.351562 39.695312 23.597656 C 37.492188 20.6875 35.671875 17.507812 34.277344 14.140625 C 34.636719 14.039062 34.992188 13.929688 35.347656 13.820312 C 36.871094 16.796875 38.730469 20.054688 40.507812 22.875 Z M 42.1875 25.441406 C 42.046875 25.644531 41.902344 25.851562 41.757812 26.0625 C 41.488281 25.773438 41.222656 25.472656 40.960938 25.167969 C 41.160156 24.941406 41.363281 24.722656 41.566406 24.507812 C 41.769531 24.832031 41.976562 25.144531 42.183594 25.445312 Z M 35.417969 36.476562 C 34.960938 36.3125 34.496094 36.15625 34.03125 36.015625 C 35.433594 32.859375 37.210938 29.875 39.324219 27.136719 C 39.667969 27.46875 40.023438 27.792969 40.386719 28.097656 C 38.683594 30.734375 36.902344 33.730469 35.414062 36.480469 Z M 19.882812 10.976562 C 19.785156 11.433594 19.679688 11.886719 19.558594 12.335938 C 19.277344 12.289062 18.996094 12.246094 18.714844 12.195312 C 18.871094 11.773438 19.015625 11.351562 19.148438 10.929688 Z M 38.585938 25.109375 C 38.816406 24.867188 39.046875 24.628906 39.28125 24.398438 C 39.574219 24.773438 39.867188 25.136719 40.167969 25.492188 C 39.976562 25.714844 39.792969 25.941406 39.605469 26.167969 C 39.25 25.820312 38.910156 25.46875 38.566406 25.105469 Z M 38.386719 24.882812 C 35.726562 21.894531 33.714844 18.398438 32.46875 14.605469 C 32.808594 14.53125 33.148438 14.453125 33.488281 14.367188 C 34.925781 17.859375 36.808594 21.152344 39.097656 24.164062 C 38.847656 24.394531 38.617188 24.636719 38.378906 24.882812 Z M 37.777344 25.546875 C 35.175781 28.433594 33.167969 31.800781 31.863281 35.453125 C 27.730469 34.527344 23.449219 34.476562 19.296875 35.296875 C 18.042969 31.585938 16.066406 28.160156 13.480469 25.207031 C 16.292969 22.152344 18.441406 18.546875 19.789062 14.628906 C 23.667969 15.449219 27.671875 15.5 31.570312 14.777344 C 32.863281 18.753906 34.972656 22.421875 37.769531 25.542969 Z M 32.375 14.304688 C 32.21875 13.820312 32.074219 13.339844 31.945312 12.84375 C 32.253906 12.800781 32.554688 12.757812 32.859375 12.707031 C 33.019531 13.160156 33.179688 13.617188 33.375 14.070312 C 33.035156 14.164062 32.699219 14.238281 32.367188 14.3125 Z M 31.484375 14.476562 C 27.652344 15.183594 23.714844 15.136719 19.898438 14.332031 C 20.0625 13.839844 20.214844 13.335938 20.355469 12.828125 C 23.902344 13.304688 27.496094 13.347656 31.050781 12.953125 C 31.175781 13.476562 31.320312 13.984375 31.476562 14.484375 Z M 20.460938 12.464844 C 20.589844 11.992188 20.699219 11.503906 20.800781 11.027344 C 23.953125 11.183594 27.492188 11.21875 30.65625 11.128906 C 30.75 11.617188 30.855469 12.089844 30.980469 12.585938 C 27.480469 12.96875 23.949219 12.929688 20.460938 12.464844 Z M 19.472656 12.710938 C 19.335938 13.191406 19.1875 13.675781 19.03125 14.144531 C 18.707031 14.066406 18.382812 13.984375 18.058594 13.894531 C 18.246094 13.453125 18.425781 13.007812 18.589844 12.5625 Z M 18.929688 14.425781 C 17.628906 18.167969 15.574219 21.609375 12.894531 24.539062 C 12.667969 24.289062 12.4375 24.050781 12.203125 23.8125 C 14.519531 20.855469 16.449219 17.617188 17.945312 14.175781 C 18.253906 14.261719 18.582031 14.34375 18.914062 14.425781 Z M 12.675781 24.761719 C 12.339844 25.121094 11.996094 25.472656 11.640625 25.820312 C 11.457031 25.585938 11.273438 25.359375 11.09375 25.136719 C 11.394531 24.785156 11.699219 24.421875 12 24.050781 C 12.230469 24.28125 12.453125 24.519531 12.675781 24.761719 Z M 13.277344 25.429688 C 15.816406 28.339844 17.757812 31.710938 18.996094 35.363281 C 18.476562 35.472656 17.964844 35.59375 17.453125 35.726562 C 16.078125 32.464844 14.308594 29.378906 12.183594 26.539062 C 12.558594 26.171875 12.925781 25.800781 13.277344 25.425781 Z M 19.277344 36.207031 C 19.371094 36.539062 19.464844 36.871094 19.558594 37.199219 C 19.070312 37.261719 18.585938 37.335938 18.113281 37.414062 C 18.011719 37.128906 17.90625 36.839844 17.792969 36.550781 C 18.28125 36.421875 18.777344 36.304688 19.277344 36.203125 Z M 19.570312 36.152344 C 23.535156 35.382812 27.621094 35.433594 31.566406 36.300781 C 31.457031 36.621094 31.359375 36.957031 31.261719 37.292969 C 27.480469 36.757812 23.648438 36.714844 19.859375 37.164062 C 19.765625 36.824219 19.671875 36.484375 19.570312 36.148438 Z M 31.855469 36.363281 C 32.335938 36.476562 32.824219 36.601562 33.296875 36.738281 C 33.179688 37.019531 33.066406 37.296875 32.972656 37.578125 C 32.511719 37.488281 32.046875 37.40625 31.570312 37.335938 C 31.65625 37.007812 31.753906 36.683594 31.859375 36.359375 Z M 32.148438 35.519531 C 33.433594 31.925781 35.410156 28.613281 37.964844 25.769531 C 38.3125 26.148438 38.667969 26.511719 39.035156 26.871094 C 36.878906 29.660156 35.070312 32.695312 33.648438 35.914062 C 33.15625 35.765625 32.65625 35.632812 32.148438 35.515625 Z M 39.859375 26.4375 C 40.042969 26.214844 40.21875 26 40.402344 25.792969 C 40.6875 26.113281 40.976562 26.4375 41.269531 26.757812 L 40.863281 27.359375 C 40.535156 27.058594 40.199219 26.75 39.859375 26.4375 Z M 41.589844 27.125 L 42.355469 28.039062 C 42.289062 28.179688 42.21875 28.324219 42.152344 28.46875 L 41.261719 27.714844 L 41.21875 27.675781 C 41.355469 27.488281 41.476562 27.304688 41.601562 27.125 Z M 40.691406 24.875 C 40.40625 24.554688 40.128906 24.195312 39.859375 23.835938 C 40.117188 23.597656 40.382812 23.363281 40.648438 23.128906 C 40.878906 23.492188 41.105469 23.839844 41.328125 24.179688 C 41.128906 24.410156 40.914062 24.636719 40.707031 24.875 Z M 34.144531 13.863281 C 33.96875 13.433594 33.804688 13.003906 33.652344 12.578125 C 33.972656 12.519531 34.296875 12.453125 34.621094 12.386719 C 34.808594 12.769531 35 13.15625 35.203125 13.550781 C 34.855469 13.65625 34.507812 13.765625 34.15625 13.863281 Z M 32.710938 12.351562 L 31.839844 12.480469 C 31.726562 12.019531 31.625 11.5625 31.535156 11.09375 L 32.300781 11.066406 C 32.441406 11.488281 32.582031 11.914062 32.726562 12.351562 Z M 31.453125 10.628906 C 31.453125 10.539062 31.417969 10.449219 31.402344 10.359375 L 31.238281 9.375 L 31.753906 9.429688 L 32.164062 10.601562 Z M 20.023438 10.253906 C 20.007812 10.339844 19.988281 10.425781 19.96875 10.511719 L 19.289062 10.476562 L 19.710938 9.320312 L 20.203125 9.285156 Z M 18.492188 10.28125 L 18.492188 10.300781 C 18.492188 10.339844 18.46875 10.378906 18.457031 10.414062 L 17.8125 10.363281 L 18.414062 9.460938 L 18.808594 9.414062 Z M 18.300781 10.875 C 18.175781 11.257812 18.039062 11.648438 17.898438 12.035156 C 17.605469 11.976562 17.3125 11.910156 17.023438 11.84375 C 17.199219 11.488281 17.375 11.144531 17.539062 10.808594 Z M 16.84375 12.195312 C 17.148438 12.265625 17.457031 12.335938 17.765625 12.398438 C 17.605469 12.820312 17.441406 13.238281 17.257812 13.65625 C 16.917969 13.554688 16.582031 13.441406 16.25 13.335938 Z M 16.105469 13.59375 C 16.445312 13.710938 16.792969 13.828125 17.136719 13.933594 C 15.691406 17.257812 13.828125 20.390625 11.59375 23.25 C 11.335938 23.003906 11.070312 22.761719 10.800781 22.523438 C 12.628906 19.738281 14.535156 16.53125 16.109375 13.597656 Z M 10.644531 22.769531 C 10.90625 23.003906 11.164062 23.238281 11.414062 23.480469 C 11.132812 23.832031 10.851562 24.175781 10.558594 24.511719 C 10.355469 24.273438 10.148438 24.046875 9.941406 23.816406 C 10.175781 23.476562 10.40625 23.128906 10.644531 22.769531 Z M 9.71875 24.144531 C 9.914062 24.359375 10.109375 24.578125 10.304688 24.789062 C 10.035156 25.09375 9.765625 25.390625 9.488281 25.683594 C 9.347656 25.46875 9.207031 25.265625 9.070312 25.0625 C 9.285156 24.761719 9.5 24.464844 9.71875 24.144531 Z M 10.832031 25.429688 C 11.011719 25.644531 11.183594 25.863281 11.355469 26.074219 C 11.03125 26.394531 10.683594 26.691406 10.328125 26.992188 L 9.945312 26.386719 C 10.242188 26.078125 10.539062 25.757812 10.832031 25.425781 Z M 9.96875 27.3125 L 9.839844 27.425781 L 9.015625 28.097656 L 8.824219 27.652344 L 9.617188 26.742188 Z M 10.8125 27.769531 C 11.1875 27.449219 11.546875 27.125 11.902344 26.804688 C 13.988281 29.597656 15.726562 32.628906 17.078125 35.835938 C 16.597656 35.96875 16.125 36.113281 15.652344 36.269531 C 14.203125 33.460938 12.464844 30.414062 10.8125 27.761719 Z M 20.050781 37.957031 C 23.707031 37.535156 27.402344 37.574219 31.042969 38.082031 C 30.953125 38.441406 30.871094 38.800781 30.792969 39.160156 C 28.703125 39.050781 26.453125 38.992188 24.234375 38.992188 C 22.886719 38.992188 21.554688 39.015625 20.277344 39.054688 C 20.214844 38.679688 20.140625 38.316406 20.050781 37.949219 Z M 33.351562 37.660156 C 33.453125 37.390625 33.558594 37.121094 33.671875 36.851562 C 34.117188 36.984375 34.550781 37.128906 34.988281 37.28125 L 34.636719 37.929688 C 34.214844 37.832031 33.785156 37.738281 33.351562 37.652344 Z M 35.433594 37.4375 L 35.492188 37.457031 L 36.59375 37.867188 C 36.496094 38.003906 36.398438 38.140625 36.300781 38.273438 L 35.113281 38.042969 C 35.21875 37.839844 35.335938 37.632812 35.433594 37.429688 Z M 35.863281 36.640625 C 37.328125 33.941406 39.074219 31.007812 40.738281 28.4375 L 41.753906 29.300781 C 40.375 32 38.832031 34.609375 37.121094 37.113281 Z M 42.738281 27.226562 L 42.074219 26.433594 L 42.421875 25.929688 L 42.894531 26.871094 C 42.847656 26.984375 42.792969 27.101562 42.738281 27.21875 Z M 43.21875 27.519531 L 43.570312 28.214844 L 43.136719 27.703125 Z M 41.851562 23.636719 C 41.644531 23.316406 41.433594 22.996094 41.222656 22.675781 L 42.070312 21.980469 C 42.21875 22.300781 42.359375 22.621094 42.492188 22.917969 Z M 35.921875 13.316406 L 35.902344 13.316406 C 35.714844 12.953125 35.53125 12.59375 35.355469 12.234375 L 36.359375 12.0625 C 36.5625 12.34375 36.765625 12.636719 36.972656 12.945312 Z M 32.453125 8.957031 L 32.199219 8.21875 L 32.691406 8.988281 Z M 31.160156 8.824219 L 30.96875 7.738281 L 31.203125 7.8125 L 31.5625 8.847656 C 31.425781 8.839844 31.285156 8.828125 31.148438 8.816406 Z M 30.867188 7.058594 L 30.789062 6.605469 L 30.957031 7.082031 Z M 21.597656 6.773438 L 21.792969 5.742188 C 24.347656 4.75 27.183594 4.769531 29.730469 5.789062 L 29.902344 6.835938 C 27.160156 6.308594 24.347656 6.289062 21.597656 6.773438 Z M 20.515625 7.6875 L 20.316406 8.734375 L 19.933594 8.761719 L 20.308594 7.746094 Z M 20.578125 7.007812 L 20.703125 6.683594 L 20.644531 7.007812 Z M 18.828125 8.867188 L 19.277344 8.191406 L 19.035156 8.832031 Z M 16.113281 12.046875 C 15.9375 12.390625 15.75 12.742188 15.558594 13.097656 L 14.523438 12.710938 C 14.734375 12.414062 14.9375 12.132812 15.140625 11.859375 Z M 10.09375 22.296875 C 9.875 22.617188 9.660156 22.9375 9.445312 23.257812 L 8.824219 22.515625 C 8.960938 22.210938 9.105469 21.902344 9.265625 21.585938 Z M 9.21875 23.582031 C 9.039062 23.847656 8.863281 24.105469 8.683594 24.359375 L 8.320312 23.632812 C 8.417969 23.394531 8.527344 23.148438 8.644531 22.890625 Z M 8.824219 25.539062 C 8.9375 25.707031 9.050781 25.859375 9.144531 26.046875 L 9.101562 26.09375 L 8.453125 26.835938 C 8.402344 26.714844 8.355469 26.597656 8.308594 26.480469 Z M 8.0625 27.300781 L 7.640625 27.785156 L 7.992188 27.125 Z M 8.582031 28.457031 L 7.769531 29.117188 C 7.753906 29.050781 7.738281 28.984375 7.726562 28.921875 L 8.425781 28.117188 C 8.46875 28.230469 8.523438 28.34375 8.574219 28.457031 Z M 7.207031 29.582031 L 7.007812 29.742188 L 7.191406 29.53125 C 7.199219 29.546875 7.203125 29.5625 7.207031 29.582031 Z M 7.476562 30.515625 C 8.375 33.136719 9.746094 35.570312 11.527344 37.699219 L 10.53125 38.046875 C 8.414062 36.328125 7.035156 33.867188 6.679688 31.171875 Z M 12.851562 38.183594 L 13.871094 37.824219 L 14.105469 38.164062 L 13.03125 38.351562 Z M 12.253906 38.488281 L 11.734375 38.574219 L 12.195312 38.414062 Z M 14.417969 37.609375 L 15.433594 37.253906 C 15.492188 37.230469 15.554688 37.214844 15.613281 37.195312 C 15.722656 37.40625 15.828125 37.621094 15.9375 37.839844 L 14.714844 38.050781 Z M 18.90625 39.816406 L 20.121094 39.769531 L 20.140625 39.875 L 20.3125 40.894531 C 19.945312 40.859375 19.589844 40.824219 19.242188 40.785156 Z M 30.929688 39.972656 C 30.929688 39.941406 30.949219 39.910156 30.953125 39.878906 C 31.355469 39.898438 31.75 39.921875 32.136719 39.949219 L 31.777344 40.902344 C 31.453125 40.933594 31.09375 40.964844 30.734375 40.988281 Z M 36.371094 39.089844 L 37.097656 39.230469 L 36.238281 39.265625 C 36.285156 39.214844 36.328125 39.160156 36.371094 39.101562 Z M 37.132812 38.050781 L 38.101562 38.417969 L 37.929688 38.570312 L 36.890625 38.371094 Z M 38.78125 38.664062 L 39.148438 38.800781 L 38.722656 38.71875 Z M 43.632812 30.882812 L 44.402344 31.527344 C 43.984375 34.207031 42.554688 36.628906 40.40625 38.304688 L 39.433594 37.945312 C 41.257812 35.867188 42.679688 33.480469 43.636719 30.894531 Z M 43.140625 25.746094 L 42.867188 25.207031 L 43.078125 24.808594 L 43.183594 25.476562 Z M 42.957031 22.351562 C 42.839844 22.085938 42.710938 21.8125 42.582031 21.535156 L 43.445312 20.828125 C 43.515625 21.089844 43.570312 21.347656 43.617188 21.597656 Z M 43.386719 15.222656 C 44.140625 16.496094 44.59375 17.925781 44.71875 19.398438 L 43.828125 20.125 C 42.910156 17.277344 41.425781 14.644531 39.464844 12.378906 L 40.5625 11.996094 C 41.730469 12.851562 42.699219 13.953125 43.390625 15.222656 Z M 38.671875 12.332031 L 37.597656 12.722656 C 37.417969 12.457031 37.238281 12.195312 37.0625 11.941406 L 38.078125 11.765625 C 38.277344 11.945312 38.476562 12.140625 38.679688 12.34375 Z M 35.011719 10.53125 L 34.511719 10.503906 L 34.160156 9.957031 L 34.457031 10.070312 Z M 29.464844 4.207031 L 29.585938 4.929688 C 27.117188 4.066406 24.429688 4.050781 21.949219 4.878906 L 22.082031 4.167969 C 23.113281 3.335938 24.410156 2.898438 25.738281 2.9375 L 25.804688 2.9375 C 27.136719 2.910156 28.4375 3.363281 29.464844 4.207031 Z M 17.308594 9.820312 L 16.988281 10.296875 L 16.96875 10.332031 L 16.492188 10.351562 L 17.03125 9.917969 Z M 14.441406 11.707031 C 14.265625 11.949219 14.082031 12.203125 13.902344 12.460938 L 12.859375 12.074219 C 13.058594 11.875 13.257812 11.6875 13.460938 11.519531 Z M 7.921875 20.429688 L 8.757812 21.140625 C 8.617188 21.417969 8.488281 21.691406 8.363281 21.957031 L 7.71875 21.199219 C 7.773438 20.957031 7.84375 20.703125 7.921875 20.4375 Z M 8.179688 24.394531 L 8.382812 24.800781 L 8.105469 25.332031 L 8.058594 25.058594 Z M 13.84375 39.007812 L 14.640625 38.894531 L 14.78125 39.089844 L 13.867188 39.035156 Z M 16.328125 39.882812 L 16.972656 39.925781 L 17.242188 40.34375 L 16.5625 40.085938 Z M 19.492188 41.464844 L 20.441406 41.554688 L 20.628906 42.683594 C 20.347656 42.613281 20.082031 42.53125 19.832031 42.441406 Z M 30.429688 42.75 L 30.636719 41.636719 L 31.558594 41.566406 L 31.207031 42.53125 C 30.945312 42.605469 30.6875 42.683594 30.414062 42.75 Z M 33.800781 40.480469 L 34.0625 40.089844 L 34.683594 40.0625 L 34.457031 40.246094 Z M 44.21875 21.679688 C 44.21875 21.636719 44.203125 21.59375 44.195312 21.546875 L 44.429688 21.273438 Z M 45.40625 19.574219 L 45.222656 19.789062 C 45.222656 19.660156 45.222656 19.53125 45.222656 19.398438 L 45.773438 18.945312 C 45.671875 19.167969 45.542969 19.378906 45.390625 19.574219 Z M 47.15625 13.171875 C 47.609375 13.933594 47.789062 14.828125 47.660156 15.707031 C 47.535156 16.582031 47.109375 17.390625 46.453125 17.992188 C 46.59375 16.621094 46.308594 15.242188 45.632812 14.039062 C 44.957031 12.835938 43.925781 11.871094 42.675781 11.273438 C 43.527344 11.039062 44.433594 11.101562 45.242188 11.449219 C 46.054688 11.792969 46.722656 12.402344 47.140625 13.171875 Z M 40.6875 11.316406 C 40.96875 11.292969 41.253906 11.304688 41.53125 11.347656 L 40.832031 11.59375 C 40.707031 11.507812 40.585938 11.429688 40.460938 11.355469 Z M 38.910156 11.234375 L 38.421875 11.320312 L 38.28125 11.199219 Z M 25.808594 0.886719 C 26.503906 0.882812 27.1875 1.078125 27.773438 1.445312 C 28.363281 1.816406 28.832031 2.347656 29.125 2.972656 C 28.097656 2.425781 26.953125 2.140625 25.789062 2.128906 C 24.628906 2.121094 23.480469 2.390625 22.445312 2.921875 C 22.75 2.296875 23.230469 1.773438 23.828125 1.414062 C 24.425781 1.054688 25.113281 0.871094 25.808594 0.886719 Z M 13.265625 10.964844 L 13.132812 11.074219 L 12.691406 10.988281 Z M 10.550781 11.019531 C 10.667969 11.015625 10.785156 11.015625 10.90625 11.019531 L 11.117188 11.0625 C 11 11.128906 10.878906 11.203125 10.757812 11.285156 L 10.089844 11.039062 C 10.242188 11.023438 10.394531 11.015625 10.550781 11.019531 Z M 4.445312 12.773438 C 4.785156 12.183594 5.277344 11.6875 5.867188 11.339844 C 6.457031 10.996094 7.128906 10.808594 7.816406 10.796875 C 8.191406 10.796875 8.566406 10.851562 8.925781 10.953125 C 7.675781 11.53125 6.628906 12.472656 5.933594 13.652344 C 5.234375 14.835938 4.917969 16.203125 5.023438 17.566406 C 4.394531 16.949219 3.996094 16.140625 3.890625 15.273438 C 3.785156 14.402344 3.980469 13.519531 4.445312 12.773438 Z M 5.6875 18.539062 L 6.21875 18.988281 C 6.21875 19.128906 6.199219 19.261719 6.199219 19.394531 L 6.054688 19.222656 C 5.90625 19.007812 5.78125 18.78125 5.6875 18.539062 Z M 6.917969 20.84375 L 7.175781 21.144531 L 7.144531 21.292969 Z M 4.378906 36.96875 C 4.023438 36.371094 3.855469 35.6875 3.882812 34.996094 C 3.914062 34.304688 4.140625 33.632812 4.542969 33.070312 C 4.574219 34.21875 4.882812 35.34375 5.445312 36.351562 C 6.011719 37.359375 6.808594 38.214844 7.773438 38.851562 C 7.085938 38.890625 6.402344 38.730469 5.800781 38.398438 C 5.199219 38.066406 4.707031 37.570312 4.378906 36.96875 Z M 19.417969 42.878906 L 19.582031 42.9375 L 19.738281 43.378906 Z M 20.710938 44.976562 L 20.621094 44.710938 C 20.742188 44.785156 20.871094 44.851562 21.003906 44.917969 L 21.125 45.660156 C 20.960938 45.453125 20.816406 45.234375 20.699219 45 Z M 25.496094 49.699219 L 25.457031 49.699219 C 24.570312 49.707031 23.707031 49.417969 23.011719 48.875 C 22.3125 48.332031 21.824219 47.566406 21.621094 46.710938 C 22.730469 47.53125 24.078125 47.960938 25.460938 47.941406 L 25.535156 47.941406 C 26.90625 47.976562 28.25 47.558594 29.355469 46.75 C 29.144531 47.609375 28.648438 48.367188 27.945312 48.90625 C 27.238281 49.445312 26.371094 49.726562 25.484375 49.707031 Z M 30.269531 45.050781 C 30.160156 45.277344 30.027344 45.492188 29.875 45.691406 L 30.011719 44.976562 C 30.132812 44.914062 30.253906 44.851562 30.367188 44.785156 Z M 31.289062 43.390625 L 31.425781 43.027344 L 31.566406 42.976562 Z M 46.5625 37.363281 C 46.226562 37.957031 45.722656 38.441406 45.121094 38.761719 C 44.515625 39.085938 43.832031 39.230469 43.144531 39.179688 C 44.121094 38.570312 44.9375 37.734375 45.519531 36.746094 C 46.105469 35.757812 46.441406 34.644531 46.503906 33.5 C 46.878906 34.074219 47.085938 34.742188 47.09375 35.425781 C 47.101562 36.113281 46.914062 36.785156 46.550781 37.371094 Z M 46.5625 37.363281 "/>
</g>
</svg>
