<svg width="50" height="50" viewBox="0 0 50 50" fill="none" xmlns="http://www.w3.org/2000/svg">
<path fill-rule="evenodd" clip-rule="evenodd" d="M9.65002 2.84267C8.11034 4.40604 6.85055 5.75689 6.85055 5.84437C6.85055 5.93185 10.3538 9.5139 14.6353 13.8044C19.676 18.8557 22.684 21.7388 23.1691 21.9837C24.1025 22.4551 25.6934 22.4828 26.6546 22.0444C27.3632 21.7211 43.2038 6.15601 43.1102 5.87496C42.9876 5.5068 37.5267 0.178897 37.2719 0.178897C37.1148 0.178897 34.2874 2.8924 30.9888 6.20879L24.9913 12.2387L18.8954 6.11934C15.5425 2.75376 12.7207 0 12.6246 0C12.5283 0 11.1899 1.27911 9.65002 2.84267ZM4.4212 8.09507C2.28436 10.0914 0.0969963 12.4265 0.0929037 12.7156C0.0907685 12.8707 2.80838 15.7123 6.13205 19.0301L12.1751 25.0623L6.13205 31.0715C2.79237 34.3923 0.0889893 37.22 0.0889893 37.3923C0.0889893 37.728 5.48525 43.1141 5.82173 43.1141C5.93347 43.1141 9.50269 39.6322 13.7534 35.3768C21.9248 27.1964 22.3253 26.7189 22.3292 25.1557C22.3337 23.3816 22.471 23.5492 13.9872 14.9826C9.62671 10.5796 5.95963 6.97697 5.83845 6.97697C5.71728 6.97697 5.07956 7.48021 4.4212 8.09507ZM36.0675 14.7142C30.2893 20.5037 28.2603 22.6467 28.0073 23.2267C27.5552 24.2629 27.5571 25.916 28.0114 26.7969C28.3598 27.4723 43.678 42.9846 44.084 43.0731C44.2061 43.0996 45.5861 41.8319 47.1506 40.2559L49.9949 37.3903L48.0402 35.4004C46.9651 34.3058 44.1911 31.5203 41.8756 29.2102L37.6659 25.0101L41.3418 21.4087C47.2068 15.6629 49.9111 12.9081 49.9111 12.6793C49.9111 12.3369 44.4552 6.97697 44.1066 6.97697C43.9264 6.97697 40.4568 10.3163 36.0675 14.7142ZM23.1169 28.0848C22.6246 28.317 19.9011 30.9361 14.6676 36.2099C10.4201 40.4902 6.91746 44.0751 6.88383 44.1766C6.80536 44.4132 12.2605 49.9122 12.5737 49.9122C12.7034 49.9122 15.5328 47.175 18.8612 43.8297L24.913 37.7472L30.9609 43.8297C34.2872 47.175 37.1303 49.9122 37.2788 49.9122C37.6162 49.9122 42.9715 44.5424 42.9715 44.2041C42.9715 43.8141 27.3863 28.4004 26.6345 28.0467C25.7402 27.6263 24.0502 27.6445 23.1169 28.0848Z" fill="white"/>
<path fill-rule="evenodd" clip-rule="evenodd" d="M9.65305 2.86831C8.11176 4.42453 6.85055 5.76661 6.85055 5.85052C6.85055 5.9346 10.3538 9.5179 14.6353 13.8136C20.4655 19.6629 22.621 21.7156 23.2207 21.989C24.2175 22.4435 25.7345 22.468 26.631 22.0442C27.4201 21.6711 42.9715 6.31601 42.9715 5.90991C42.9715 5.55444 37.6297 0.178778 37.2765 0.178778C37.1313 0.178778 34.3105 2.89461 31.008 6.21386L25.0036 12.2488L23.7118 10.9596C18.6966 5.95428 12.6235 0.00310188 12.5472 0.0193815C12.4968 0.0301153 11.1943 1.31209 9.65305 2.86831ZM2.8429 9.68713C1.32831 11.1779 0.0889893 12.5359 0.0889893 12.7049C0.0889893 12.874 2.81657 15.7213 6.1502 19.0323L12.2114 25.0524L6.1502 31.0637C2.81657 34.3699 0.0889893 37.2056 0.0889893 37.3651C0.0889893 37.6905 5.47956 43.114 5.80305 43.114C5.91675 43.114 9.48312 39.6355 13.7283 35.384C21.9858 27.114 22.3328 26.6973 22.3292 25.0551C22.3256 23.3611 22.0297 23.004 13.7603 14.7141C9.5155 10.4585 5.94201 6.97685 5.81959 6.97685C5.697 6.97685 4.35749 8.19657 2.8429 9.68713ZM36.1427 14.697C30.5788 20.2404 28.292 22.6357 28.0317 23.1926C27.5829 24.1524 27.5443 25.885 27.953 26.7092C28.2584 27.3244 43.828 43.114 44.1296 43.114C44.2288 43.114 45.5895 41.8259 47.153 40.2516L49.9958 37.3895L47.3288 34.6958C45.8621 33.2142 43.0762 30.4168 41.1379 28.479L37.6141 24.956L38.4689 24.1683C39.9936 22.7638 49.9111 12.803 49.9111 12.6763C49.9111 12.4627 44.3166 6.97685 44.099 6.97685C43.9847 6.97685 40.4043 10.4508 36.1427 14.697ZM23.1317 28.0834C22.666 28.3067 19.7175 31.1456 14.6036 36.2939L6.78721 44.163L7.46426 44.9355C8.56408 46.1906 12.4224 49.912 12.6239 49.912C12.726 49.912 15.5328 47.1749 18.8612 43.8296L24.913 37.7471L30.9609 43.8296C34.2872 47.1749 37.1303 49.912 37.2788 49.912C37.6052 49.912 42.9715 44.548 42.9715 44.2217C42.9715 43.8383 27.3716 28.389 26.6388 28.0466C25.7393 27.6264 24.0472 27.6442 23.1317 28.0834Z" fill="white"/>
<path fill-rule="evenodd" clip-rule="evenodd" d="M9.79482 2.84049C8.23361 4.39922 6.93112 5.75007 6.90034 5.84256C6.81635 6.09623 22.3265 21.5425 23.0349 21.9107C23.3729 22.0866 24.1334 22.264 24.7251 22.3052C26.5875 22.4352 26.6599 22.3765 35.2252 13.8051C39.4857 9.54142 42.9715 5.95795 42.9715 5.84184C42.9715 5.55614 37.5994 0.178869 37.314 0.178869C37.1895 0.178869 34.4034 2.8557 31.1226 6.12718C27.8418 9.39867 25.0724 12.1056 24.9683 12.1424C24.8642 12.1791 22.0462 9.4636 18.7062 6.10786L12.6334 0.0065918L9.79482 2.84049ZM2.88735 9.72426C1.3482 11.2352 0.0853912 12.5836 0.0811207 12.7208C0.0768502 12.8578 2.81938 15.686 6.17543 19.0054L12.2776 25.0408L6.1813 31.0809C2.82827 34.403 0.0859245 37.2341 0.0869921 37.3722C0.0891273 37.6409 5.50265 43.1141 5.76635 43.1141C5.85265 43.1141 9.4103 39.6469 13.6724 35.4092C21.5373 27.5889 22.0293 27.0237 22.2703 25.531C22.326 25.1859 22.2407 24.45 22.077 23.8616C21.7857 22.8154 21.7386 22.764 13.8478 14.8931C9.4829 10.5391 5.86084 6.97694 5.79874 6.97694C5.73664 6.97694 4.42649 8.21312 2.88735 9.72426ZM36.1438 14.7931C30.6836 20.2532 28.2379 22.8193 28.0071 23.3306C27.6026 24.2256 27.5733 25.7183 27.9422 26.6166C28.1295 27.0726 30.6895 29.7714 36.082 35.1979C40.4087 39.5517 44.0301 43.1141 44.1295 43.1141C44.2288 43.1141 45.5898 41.8256 47.1539 40.2508L49.9975 37.3876L43.8393 31.1961L37.6811 25.0047L43.8405 18.863L50 12.7215L47.1551 9.84931C45.5904 8.26947 44.2292 6.97909 44.1302 6.98177C44.0311 6.98428 40.4372 10.4994 36.1438 14.7931ZM23.2206 28.0898C22.6288 28.3651 20.3897 30.5004 14.6352 36.2773C10.3537 40.5757 6.85052 44.1384 6.85052 44.1946C6.85052 44.3452 12.3395 49.8111 12.5694 49.8896C12.6772 49.9263 15.4982 47.2135 18.8382 43.8611L24.911 37.7659L31.0101 43.839C34.3646 47.1793 37.1891 49.9121 37.287 49.9121C37.5361 49.9121 42.9715 44.501 42.9715 44.2533C42.9715 43.9214 27.542 28.5646 26.8242 28.1821C25.8532 27.6645 24.2242 27.6229 23.2206 28.0898Z" fill="white"/>
<path fill-rule="evenodd" clip-rule="evenodd" d="M9.60643 3.05058L6.76159 5.92223L14.6797 13.781C19.0347 18.1031 22.8781 21.782 23.2207 21.9562C24.0593 22.3823 25.9372 22.3711 26.7794 21.9347C27.4554 21.5844 42.9715 6.12098 42.9715 5.79754C42.9715 5.68913 41.6844 4.36762 40.1112 2.86059L37.2509 0.120789L34.5952 2.78867C33.1345 4.25581 30.3591 7.0067 28.4274 8.90139L24.9153 12.3462L18.8625 6.26267C15.5333 2.91659 12.7288 0.17893 12.6304 0.17893C12.5319 0.17893 11.1712 1.4711 9.60643 3.05058ZM2.85394 9.83237C1.29362 11.4034 0.0724409 12.7521 0.140234 12.8294C0.208028 12.9067 2.96675 15.6857 6.27048 19.0049L12.2776 25.0397L6.1833 31.1644C2.83134 34.533 0.0889893 37.3327 0.0889893 37.386C0.0889893 37.4393 1.37031 38.7694 2.93632 40.3416L5.78365 43.2L9.92031 39.0632C12.1954 36.7878 15.7559 33.2422 17.8326 31.1839C20.2614 28.7765 21.7054 27.2079 21.8806 26.786C22.2333 25.9375 22.2296 24.1997 21.8732 23.3425C21.6787 22.8745 19.2039 20.288 13.7648 14.8678C9.4591 10.5769 5.88098 7.04606 5.81354 7.02119C5.74611 6.99632 4.41426 8.2613 2.85394 9.83237ZM35.9998 14.9826C27.5481 23.4992 27.671 23.3505 27.671 25.0456C27.671 26.7367 27.5539 26.5952 35.9993 35.1085C40.3673 39.5117 43.9833 43.112 44.0347 43.1093C44.0861 43.1068 45.4493 41.8191 47.0641 40.248L50 37.3914L43.8086 31.1808L37.6173 24.9701L43.8086 18.8423L50 12.7146L47.1552 9.84579C45.5904 8.26792 44.228 6.977 44.1276 6.977C44.0271 6.977 40.3696 10.5796 35.9998 14.9826ZM23.5386 27.9818C22.6151 28.3133 22.5411 28.3827 14.2183 36.7141L6.76159 44.1786L9.60643 47.0454C11.1712 48.6222 12.5319 49.9122 12.6304 49.9122C12.7288 49.9122 15.5324 47.176 18.8603 43.8315L24.9111 37.751L31.0498 43.826C34.4262 47.1672 37.2466 49.8832 37.3176 49.8617C37.4966 49.8077 42.9715 44.3229 42.9715 44.1977C42.9715 44.1421 39.4685 40.5781 35.1869 36.2779C29.3089 30.3744 27.2061 28.3707 26.6014 28.0981C25.6831 27.6838 24.4947 27.6387 23.5386 27.9818Z" fill="white"/>
<path fill-rule="evenodd" clip-rule="evenodd" d="M9.63146 3.01816L6.81171 5.85725L14.6761 13.7072C19.0014 18.0246 22.7936 21.6934 23.103 21.8601C24.0208 22.3547 25.0261 22.4315 26.1838 22.0957C27.2083 21.7984 27.3444 21.6731 35.1423 13.8525L43.0605 5.9111L40.2151 3.04446C38.6501 1.46784 37.3097 0.198215 37.2366 0.223082C37.1635 0.247948 34.3793 3.00403 31.0498 6.34779L24.9959 12.4274L18.9026 6.30306C15.5514 2.9348 12.7288 0.178894 12.6304 0.178894C12.5318 0.178894 11.1824 1.45657 9.63146 3.01816ZM2.84641 9.83985L0.00299072 12.7027L6.13929 18.8741L12.2756 25.0455L6.13929 31.2169L0.00299072 37.3883L2.84694 40.2517C4.411 41.8266 5.74943 43.0948 5.82114 43.0699C6.21776 42.9322 21.5295 27.3515 21.8133 26.7969C22.2309 25.981 22.2624 24.4058 21.8799 23.4745C21.6925 23.0185 19.1325 20.3196 13.74 14.8931C9.41331 10.5392 5.83199 6.97697 5.78146 6.97697C5.7311 6.97697 4.41029 8.2652 2.84641 9.83985ZM36.0957 14.8931C29.3943 21.6519 28.2007 22.9338 27.9331 23.6603C27.5373 24.7351 27.6653 26.0441 28.267 27.0764C28.5049 27.4846 32.1626 31.2676 36.3952 35.4831L44.0905 43.1479L47.0117 40.2238L49.9327 37.2999L43.7386 31.1842L37.5444 25.0686L43.7425 18.8246L49.9404 12.5807L47.0373 9.77885C45.4405 8.23783 44.0916 6.97697 44.0395 6.97697C43.9873 6.97697 40.4126 10.5392 36.0957 14.8931ZM23.5765 27.9621C23.1185 28.1066 21.0231 30.0621 15.6583 35.3512C11.6459 39.3072 8.00477 42.9148 7.56705 43.3683L6.77114 44.1928L9.61118 47.0525C11.1733 48.6254 12.4975 49.9122 12.5541 49.9122C12.6106 49.9122 13.8551 48.7248 15.3195 47.2734C16.7841 45.822 19.5624 43.0683 21.4936 41.1539L25.0048 37.6729L31.0542 43.7479C34.3816 47.089 37.1637 49.8431 37.2368 49.868C37.3099 49.8928 38.6501 48.6229 40.2151 47.0457L43.0605 44.1783L35.1423 36.248C28.0528 29.1476 27.1324 28.287 26.3473 28.0234C25.3599 27.6919 24.4932 27.6726 23.5765 27.9621Z" fill="white"/>
<path fill-rule="evenodd" clip-rule="evenodd" d="M9.64963 2.99974L6.84803 5.82077L14.8119 13.8085C22.5938 21.6136 22.7989 21.8029 23.7893 22.0891C24.9087 22.4125 25.7594 22.3358 26.7793 21.8197C27.1219 21.6463 30.9253 17.9995 35.2313 13.7157L43.0605 5.92685L40.1692 3.00905L37.2779 0.0910645L31.1398 6.26032L25.0019 12.4294L22.9991 10.4263C17.6678 5.09373 12.6621 0.178903 12.5623 0.178903C12.5012 0.178903 11.1906 1.44835 9.64963 2.99974ZM2.84643 9.83986L0.0030103 12.7027L6.13931 18.8741L12.2756 25.0455L6.1386 31.2177L0.00158691 37.3898L2.89216 40.2959L5.7829 43.2021L13.6158 35.3314C18.7164 30.2062 21.5717 27.207 21.8009 26.7332C22.2274 25.8522 22.2624 24.4062 21.8799 23.4745C21.6925 23.0185 19.1325 20.3196 13.74 14.8932C9.41333 10.5392 5.83201 6.97698 5.78148 6.97698C5.73112 6.97698 4.41031 8.26521 2.84643 9.83986ZM36.3886 14.6064C32.0199 18.9614 28.4975 22.6181 28.2295 23.0764C27.6441 24.0773 27.5786 25.8327 28.089 26.8345C28.2646 27.1789 31.945 30.9774 36.2681 35.2757L44.1281 43.0907L46.9859 40.2312L49.8436 37.3717L43.6941 31.2135L37.5445 25.0556L43.6703 18.8906L49.7961 12.7258L49.171 12.0428C48.8272 11.6673 47.5402 10.366 46.311 9.15129L44.0761 6.94263L36.3886 14.6064ZM23.7544 27.9596C23.4119 28.0891 23.0007 28.2714 22.8404 28.3646C22.6802 28.4578 19.0007 32.061 14.6633 36.3717L6.77757 44.2091L9.61653 47.0577C11.1779 48.6243 12.5112 49.8873 12.5795 49.8644C12.6477 49.8415 15.3345 47.2064 18.5502 44.0086C21.766 40.8108 24.5381 38.0794 24.7103 37.939C24.9966 37.7057 25.5557 38.2182 31.1509 43.8419L37.2779 50L40.1692 47.0831L43.0605 44.1664L35.1441 36.3055C30.7902 31.9821 26.9667 28.3201 26.6477 28.1678C25.8288 27.7771 24.4916 27.681 23.7544 27.9596Z" fill="white"/>
<path fill-rule="evenodd" clip-rule="evenodd" d="M9.73576 3.01692L6.8379 5.81415L14.718 13.7212C20.074 19.0956 22.8098 21.717 23.2594 21.9057C24.1799 22.2918 25.8128 22.2558 26.6904 21.83C27.1416 21.6111 30.2671 18.6369 35.2313 13.7022L43.0605 5.91988L40.1692 3.00547L37.2779 0.0910645L31.1509 6.24922C25.5205 11.9083 24.9975 12.387 24.7005 12.1535C24.5228 12.014 21.7489 9.2826 18.5367 6.08392C15.3244 2.88543 12.682 0.257438 12.6648 0.244021C12.6475 0.230783 11.3295 1.47859 9.73576 3.01692ZM2.8968 9.8014L0 12.7031L6.17224 18.8861L12.3443 25.069L6.17224 31.2244L0 37.3797L2.8968 40.2856L5.79342 43.1914L13.6181 35.326C17.9217 31.0001 21.5827 27.1789 21.7536 26.8345C22.1701 25.9944 22.1701 24.0967 21.7536 23.2566C21.5827 22.9122 17.9217 19.091 13.6181 14.7651L5.79342 6.89969L2.8968 9.8014ZM36.2714 14.8125C31.95 19.1124 28.2913 22.8795 28.1406 23.1839C27.6911 24.0918 27.626 25.3779 27.9794 26.3669C28.2536 27.1336 29.2635 28.2145 36.21 35.1736L44.1281 43.1062L46.9742 40.248L49.8205 37.3898L43.6835 31.2177L37.5464 25.0455L43.6835 18.8734L49.8205 12.7013L46.9742 9.84809L44.1281 6.99469L36.2714 14.8125ZM24.3772 27.8471C22.908 28.1945 22.7561 28.3283 14.9021 36.1987C10.5717 40.5383 7.02527 44.1714 7.02117 44.2723C7.01726 44.3732 8.27847 45.6798 9.82367 47.1758L12.6335 49.8957L18.6842 43.8215C22.0121 40.4806 24.8142 37.7472 24.911 37.7472C25.0078 37.7472 27.8301 40.504 31.1824 43.8735L37.2779 50L40.1692 47.0881L43.0605 44.1764L35.2313 36.399C30.9253 32.1214 27.1219 28.4707 26.7794 28.2863C26.1061 27.9236 24.9486 27.712 24.3772 27.8471Z" fill="white"/>
<path fill-rule="evenodd" clip-rule="evenodd" d="M9.78134 3.04782L6.93953 5.9107L12.5888 11.5531C16.0625 15.0226 18.3171 17.1463 18.4436 17.0676C18.5723 16.9878 18.6011 17.0184 18.5205 17.1493C18.3516 17.4241 22.4915 21.4516 23.3682 21.8654C24.1356 22.2277 25.2877 22.2687 26.3139 21.9701C26.9187 21.794 27.8438 20.9629 31.6216 17.2016C34.1381 14.6961 36.1539 12.5762 36.1013 12.4907C36.0486 12.405 36.0869 12.3571 36.1861 12.3841C36.2854 12.4111 37.8566 10.9461 39.6778 9.12852L42.9888 5.82376L41.5121 4.34715C40.7 3.53513 39.9313 2.9081 39.8039 2.9539C39.6765 2.9997 39.6221 2.95605 39.6831 2.85676C39.744 2.75765 39.2381 2.12113 38.5587 1.44204L37.3235 0.207656L36.5849 0.964389C36.1785 1.38068 35.908 1.78964 35.9835 1.87318C36.0591 1.95673 36.0317 1.9739 35.9224 1.91129C35.6769 1.7705 35.0906 2.38769 35.2755 2.59235C35.3491 2.6741 35.32 2.68949 35.2107 2.62688C34.9701 2.48895 34.3742 3.10381 34.5637 3.29416C34.6374 3.36822 34.6103 3.40203 34.5039 3.36912C34.2977 3.30561 32.1235 5.17776 32.1198 5.42214C32.1185 5.50174 32.21 5.50944 32.323 5.43931C32.4513 5.35952 32.4799 5.39029 32.3995 5.52107C32.3287 5.63628 32.2009 5.68708 32.1155 5.63395C31.9498 5.53108 30.694 6.60697 30.694 6.85206C30.694 6.93238 30.7865 6.94061 30.8995 6.87048C31.0278 6.7907 31.0564 6.82147 30.976 6.95224C30.9052 7.06745 30.7774 7.11825 30.692 7.06512C30.5264 6.96226 29.2705 8.03814 29.2705 8.28323C29.2705 8.36355 29.363 8.37178 29.476 8.30166C29.6043 8.22187 29.6329 8.25264 29.5525 8.38341C29.4817 8.49862 29.3525 8.54853 29.2652 8.49433C29.036 8.35193 27.7838 9.59168 27.9249 9.82138C27.9945 9.93445 27.944 9.97577 27.8027 9.92121C27.6614 9.86664 27.0223 10.3878 26.257 11.1812C25.5393 11.9254 24.9269 12.5115 24.8961 12.4837C24.8652 12.456 22.0911 9.67737 18.7317 6.30911L12.6233 0.184937L9.78134 3.04782ZM2.92778 9.93552L0.162659 12.7156L6.3091 18.8784L12.4555 25.0414L6.36124 31.1652C3.00928 34.5333 0.266929 37.3326 0.266929 37.3861C0.266929 37.4394 1.50607 38.727 3.02049 40.2472L5.77422 43.0115L10.2714 38.5484C19.5509 29.3392 21.4027 27.4441 21.7173 26.8345C22.1543 25.9876 22.155 24.1054 21.7184 23.2565C21.4559 22.746 6.20252 7.35082 5.80999 7.20037C5.74558 7.17568 4.4486 8.40649 2.92778 9.93552ZM36.2554 14.8933C32.023 19.1487 28.4523 22.7914 28.3203 22.9882C28.1883 23.185 27.9844 23.7367 27.8675 24.2143C27.6899 24.939 27.7022 25.25 27.942 26.0928C28.2221 27.0772 28.428 27.303 36.087 35.019C40.4087 39.3728 44.0262 42.9334 44.1255 42.9314C44.2248 42.9293 45.5456 41.6804 47.0605 40.1562L49.8148 37.3847L45.4703 33.0141C43.081 30.6102 41.0484 28.6916 40.9536 28.7506C40.8589 28.8095 40.8306 28.7773 40.891 28.6792C40.9513 28.581 40.2 27.7087 39.2216 26.7407L37.4426 24.9807L43.6322 18.8533L49.8221 12.7261L48.6792 11.5597C48.0506 10.918 47.45 10.4425 47.3447 10.5026C47.2392 10.5629 47.2157 10.5431 47.2922 10.4586C47.4408 10.2944 44.4372 7.15564 44.1319 7.156C44.0319 7.15618 40.4876 10.638 36.2554 14.8933ZM23.2207 28.2069C22.8326 28.3751 19.6482 31.435 14.7687 36.3285L6.93953 44.1799L9.6954 46.9566C11.2111 48.4838 12.5296 49.7332 12.6253 49.7332C12.721 49.7332 15.5271 46.9952 18.8607 43.6488L24.9219 37.5641L26.9968 39.6406C28.3251 40.97 29.1493 41.6687 29.2876 41.5829C29.426 41.4968 29.4573 41.5237 29.3749 41.6578C29.2123 41.9222 30.3418 43.1509 30.6413 43.0353C30.7618 42.9888 30.9155 43.0402 30.9826 43.1495C31.0566 43.2699 31.0239 43.298 30.8995 43.2205C30.7865 43.1504 30.694 43.1586 30.694 43.2389C30.694 43.4928 31.9529 44.5581 32.1258 44.4506C32.2169 44.3941 32.25 44.456 32.1995 44.5883C32.0995 44.8501 34.1739 46.8149 34.463 46.7322C34.5575 46.7052 34.5924 46.7524 34.5402 46.8374C34.407 47.0541 35.7543 48.3398 35.9383 48.1715C36.0212 48.0958 36.0395 48.1212 35.979 48.2282C35.9184 48.3353 36.1872 48.7353 36.5762 49.1173L37.2837 49.8118L39.6383 47.468C40.9333 46.1789 42.2151 44.9374 42.4869 44.7091L42.9808 44.2937L35.47 36.7367C31.339 32.5806 27.8815 29.2281 27.7865 29.2871C27.6917 29.346 27.6675 29.3075 27.7326 29.2014C27.8575 28.9984 27.2089 28.4846 26.3707 28.1227C25.695 27.8311 23.9824 27.8769 23.2207 28.2069Z" fill="white"/>
</svg>
