<svg width="50" height="50" viewBox="0 0 50 50" fill="none" xmlns="http://www.w3.org/2000/svg">
<g clip-path="url(#clip0_30_126)">
<path d="M3.18184 25.0001L15.9091 12.2728L17.5001 10.682L23.8636 17.0456L25.4546 18.6365L31.8182 25.0001L30.2273 26.591L27.0454 29.7728L28.6363 31.3637L33.4092 26.591L35 25.0001L27.0454 17.0456L25.4546 15.4546L20.6817 10.682L19.0909 9.09092L17.5001 7.5L1.59104 23.4093L0 25.0001L15.9091 40.9092L17.5001 42.5L23.8636 36.1365L22.2728 34.5455L17.5001 39.3184L3.18184 25.0001Z" fill="#044DA2"/>
<path d="M27.0843 13.8637L28.6363 15.4545L33.2927 10.6818L47.2616 25.0001L34.8447 37.7273L33.2927 39.3182L27.0843 32.9546L25.5321 31.3636L19.3237 25.0001L20.8757 23.4091L23.9799 20.2272L22.4279 18.6363L17.7717 23.4091L16.2195 25.0001L23.9799 32.9546L25.5321 34.5454L30.1885 39.3182L31.7405 40.9091L33.2927 42.5L48.8136 26.5909L50.3658 25.0001L34.8447 9.09104L33.2927 7.5L27.0843 13.8637Z" fill="#FF773D"/>
</g>
<defs>
<clipPath id="clip0_30_126">
<rect width="50" height="50" fill="white"/>
</clipPath>
</defs>
</svg>
