<?xml version="1.0" standalone="no"?>
<!DOCTYPE svg PUBLIC "-//W3C//DTD SVG 20010904//EN"
 "http://www.w3.org/TR/2001/REC-SVG-20010904/DTD/svg10.dtd">
<svg version="1.0" xmlns="http://www.w3.org/2000/svg"
 width="400.000000pt" height="400.000000pt" viewBox="0 0 400.000000 400.000000"
 preserveAspectRatio="xMidYMid meet">

<g transform="translate(0.000000,400.000000) scale(0.100000,-0.100000)"
fill="#000000" stroke="none">
<path d="M1786 3989 c-369 -39 -752 -199 -1046 -436 -89 -72 -257 -243 -321
-328 -270 -353 -419 -788 -419 -1225 0 -453 161 -906 447 -1260 72 -89 243
-257 328 -321 353 -270 788 -419 1225 -419 437 0 872 149 1225 419 85 64 256
232 328 321 583 722 595 1743 28 2485 -64 85 -232 256 -321 328 -411 332 -950
491 -1474 436z m610 -762 c18 -17 21 -24 10 -24 -9 0 -14 2 -11 5 2 2 -6 13
-18 23 -12 10 -18 18 -14 19 4 0 19 -10 33 -23z m-46 -12 c-7 -9 -15 -13 -19
-10 -3 3 1 10 9 15 21 14 24 12 10 -5z m-37 -35 c-3 -12 -8 -19 -11 -16 -5 6
5 36 12 36 2 0 2 -9 -1 -20z m-56 -55 c0 -8 -4 -12 -9 -9 -4 3 -12 -5 -17 -18
-6 -13 -10 -17 -10 -9 -1 8 6 23 16 33 19 22 20 22 20 3z m83 -39 c0 -2 -7 -6
-15 -10 -8 -3 -14 -1 -12 4 1 5 -7 16 -18 25 -18 15 -18 15 13 0 17 -8 32 -17
32 -19z m24 22 c-3 -4 -9 -8 -15 -8 -5 0 -9 4 -9 8 0 5 7 9 15 9 8 0 12 -4 9
-9z m96 -28 c-14 -27 -26 -32 -39 -16 -9 10 -7 17 6 27 16 13 17 12 5 -3 -8
-10 -9 -18 -3 -22 16 -10 32 29 18 44 -10 12 -9 12 5 1 13 -10 15 -18 8 -31z
m-196 -42 c-3 -4 0 -8 6 -8 6 0 -5 -16 -26 -35 -20 -19 -37 -35 -38 -35 -7 0
-3 41 5 45 5 4 6 -2 2 -12 -6 -16 -5 -16 11 -4 17 14 16 16 -6 34 -21 17 -21
17 -2 8 17 -8 25 -7 34 4 9 11 10 15 1 15 -7 0 -9 5 -5 11 4 8 9 7 15 -2 4 -7
5 -17 3 -21z m46 17 c0 -2 -6 -5 -13 -8 -8 -3 -14 1 -14 8 0 7 6 11 14 8 7 -3
13 -6 13 -8z m-133 -2 c-4 -3 1 -16 10 -27 18 -21 18 -21 -4 -2 -22 19 -23 18
-32 -5 -5 -13 -10 -18 -10 -10 -1 14 27 51 37 51 3 0 2 -3 -1 -7z m298 -23
c10 -11 16 -20 13 -20 -3 0 -13 9 -23 20 -10 11 -16 20 -13 20 3 0 13 -9 23
-20z m66 -7 c13 -16 12 -17 -3 -4 -10 7 -18 15 -18 17 0 8 8 3 21 -13z m-414
-20 c-4 -3 -2 -12 4 -20 7 -8 8 -13 1 -13 -12 0 -23 26 -15 34 4 3 9 6 11 6 3
0 2 -3 -1 -7z m381 -5 c-2 -7 3 -12 10 -10 8 1 11 -2 7 -8 -5 -8 -11 -8 -21 1
-7 6 -11 15 -8 20 8 13 14 11 12 -3z m-411 -33 c0 -8 -4 -12 -9 -9 -5 3 -6 10
-3 15 9 13 12 11 12 -6z m458 -15 c10 -11 16 -20 13 -20 -3 0 -13 9 -23 20
-10 11 -16 20 -13 20 3 0 13 -9 23 -20z m-368 -13 c-7 -7 -21 -19 -32 -27 -20
-15 -20 -14 -1 8 11 12 16 22 12 22 -4 0 -5 4 -1 10 3 5 12 7 20 4 11 -5 12
-8 2 -17z m433 -17 c-14 -27 -26 -32 -39 -16 -9 10 -7 17 6 27 16 13 17 12 5
-3 -8 -10 -9 -18 -3 -22 16 -10 32 29 18 44 -10 12 -9 12 5 1 13 -10 15 -18 8
-31z m21 -57 c13 -16 12 -17 -3 -4 -17 13 -22 21 -14 21 2 0 10 -8 17 -17z
m60 0 c13 -16 12 -17 -3 -4 -17 13 -22 21 -14 21 2 0 10 -8 17 -17z m-33 -25
c-2 -7 3 -12 10 -10 8 1 11 -2 7 -8 -5 -8 -11 -8 -21 1 -7 6 -11 15 -8 20 8
13 14 11 12 -3z m47 -48 c10 -11 16 -20 13 -20 -3 0 -13 9 -23 20 -10 11 -16
20 -13 20 3 0 13 -9 23 -20z m65 -30 c-14 -27 -26 -32 -39 -16 -9 10 -7 17 6
27 16 13 17 12 5 -3 -8 -10 -9 -18 -3 -22 16 -10 32 29 18 44 -10 12 -9 12 5
1 13 -10 15 -18 8 -31z m-919 -57 c11 -15 11 -16 -1 -5 -19 17 -30 15 -30 -5
0 -9 -3 -14 -6 -10 -9 8 3 37 14 37 5 0 16 -8 23 -17z m940 0 c13 -16 12 -17
-3 -4 -17 13 -22 21 -14 21 2 0 10 -8 17 -17z m60 0 c13 -16 12 -17 -3 -4 -17
13 -22 21 -14 21 2 0 10 -8 17 -17z m-961 -8 c11 -13 10 -14 -4 -9 -9 3 -16
10 -16 15 0 13 6 11 20 -6z m928 -17 c-2 -7 3 -12 10 -10 8 1 11 -2 7 -8 -5
-8 -11 -8 -21 1 -7 6 -11 15 -8 20 8 13 14 11 12 -3z m-1018 -13 c7 -9 8 -15
2 -15 -5 0 -12 7 -16 15 -3 8 -4 15 -2 15 2 0 9 -7 16 -15z m49 -2 c-1 -5 -1
-15 0 -23 1 -13 2 -13 11 0 8 12 10 12 10 1 0 -7 -10 -22 -22 -32 -24 -21 -29
-23 -25 -10 1 5 -7 17 -18 26 -20 16 -20 16 3 5 12 -6 23 -7 24 -3 0 4 2 13 3
18 2 6 3 13 4 18 0 4 3 7 6 7 3 0 4 -3 4 -7z m-92 -21 c-10 -10 -17 -25 -18
-33 0 -11 -2 -11 -6 -1 -5 12 23 52 35 52 3 0 -2 -8 -11 -18z m1108 -12 c10
-11 16 -20 13 -20 -3 0 -13 9 -23 20 -10 11 -16 20 -13 20 3 0 13 -9 23 -20z
m65 -30 c-14 -27 -26 -32 -39 -16 -9 10 -7 17 6 27 16 13 17 12 5 -3 -8 -10
-9 -18 -3 -22 16 -10 32 29 18 44 -10 12 -9 12 5 1 13 -10 15 -18 8 -31z
m-1140 -35 c5 3 7 12 4 19 -3 8 -1 17 5 21 7 3 8 0 5 -9 -3 -9 -1 -16 5 -16 6
0 -5 -16 -25 -35 -37 -36 -46 -42 -41 -26 1 5 -7 17 -18 26 -20 16 -20 16 1 6
17 -8 25 -7 35 6 12 14 12 16 -1 11 -8 -3 -24 -1 -35 3 -18 8 -17 8 5 6 20 -2
24 2 22 18 -2 15 2 13 13 -8 9 -15 20 -25 25 -22z m-113 -3 c-10 -10 -17 -25
-18 -33 0 -11 -2 -11 -6 -1 -5 12 23 52 35 52 3 0 -2 -8 -11 -18z m1374 1 c13
-16 12 -17 -3 -4 -17 13 -22 21 -14 21 2 0 10 -8 17 -17z m-100 -20 c13 -16
12 -17 -3 -4 -10 7 -18 15 -18 17 0 8 8 3 21 -13z m59 -23 c-14 -27 -26 -32
-39 -16 -9 10 -7 17 6 27 16 13 17 12 5 -3 -8 -10 -9 -18 -3 -22 16 -10 32 29
18 44 -10 12 -9 12 5 1 13 -10 15 -18 8 -31z m-1325 -20 c-13 -14 -14 -20 -5
-20 7 0 11 -3 7 -6 -3 -3 -11 -3 -17 1 -8 5 -6 13 6 26 9 10 19 19 22 19 3 0
-3 -9 -13 -20z m1458 -28 c26 -27 27 -30 10 -43 -16 -13 -17 -12 -4 4 12 15 9
21 -11 18 -5 0 -7 5 -5 12 1 6 -4 11 -10 10 -7 -2 -12 1 -10 6 1 5 -7 17 -18
26 l-20 16 20 -10 c11 -5 33 -22 48 -39z m-1426 2 c-26 -30 -32 -31 -12 -1 8
13 12 27 8 31 -4 4 0 4 9 1 15 -6 14 -9 -5 -31z m-107 22 c0 -2 -8 -10 -17
-17 -16 -13 -17 -12 -4 4 13 16 21 21 21 13z m1518 -71 c-3 -3 -9 2 -12 12 -6
14 -5 15 5 6 7 -7 10 -15 7 -18z m-105 -9 c4 -11 1 -13 -11 -9 -15 6 -15 4 2
-15 18 -21 18 -21 -3 -17 -11 2 -21 -1 -21 -7 0 -6 -3 -8 -6 -5 -4 4 -1 13 6
22 7 8 9 15 5 15 -4 0 -2 7 5 15 15 18 17 19 23 1z m-1282 -13 c13 -16 12 -17
-3 -4 -10 7 -18 15 -18 17 0 8 8 3 21 -13z m-121 -13 c6 -11 15 -20 21 -20 6
0 8 4 5 8 -3 5 1 9 9 9 12 0 12 -3 3 -14 -9 -11 -8 -17 3 -24 8 -5 9 -9 3 -9
-6 0 -25 16 -43 35 -17 19 -27 35 -22 35 6 0 15 -9 21 -20z m1500 6 c-10 -13
-40 -12 -40 1 0 3 7 3 15 0 8 -4 17 -2 20 3 4 6 9 10 12 10 3 0 0 -6 -7 -14z
m-145 -6 c-11 -18 -14 -50 -4 -50 5 0 9 -5 9 -11 0 -8 -4 -8 -12 -1 -16 13
-30 13 -46 0 -10 -9 -10 -14 0 -26 9 -10 9 -13 1 -9 -6 4 -13 4 -16 0 -2 -5
-2 -2 -1 5 2 6 -1 12 -6 12 -6 0 -11 -4 -11 -10 -1 -5 -2 -16 -3 -22 -1 -7 2
-18 6 -25 6 -8 3 -10 -9 -8 -26 4 -36 -5 -23 -20 10 -11 8 -13 -9 -10 -12 2
-21 -1 -21 -7 0 -6 -3 -8 -6 -5 -4 4 -2 13 4 20 7 8 9 16 6 19 -3 4 27 40 68
81 74 76 84 85 73 67z m93 -16 c6 3 14 2 17 -4 4 -6 1 -9 -7 -8 -7 2 -12 -2
-11 -8 1 -6 -8 -21 -20 -32 -17 -16 -26 -18 -37 -11 -13 9 -13 10 1 6 21 -7
50 26 38 44 -5 8 -9 19 -9 24 0 6 4 4 9 -4 5 -7 13 -11 19 -7z m-1285 -22 c25
-26 25 -28 7 -29 -11 -1 -22 2 -25 8 -4 5 2 6 12 2 14 -5 13 -1 -6 20 -32 36
-22 35 12 -1z m-59 -62 c3 0 5 3 5 8 -3 16 2 23 11 17 8 -5 7 -12 -1 -22 -10
-12 -10 -16 2 -24 8 -5 10 -9 5 -9 -14 0 -56 41 -56 54 0 6 7 3 14 -6 7 -10
16 -18 20 -18z m142 -22 l29 -33 -32 29 c-31 28 -38 36 -30 36 2 0 16 -15 33
-32z m1103 -24 c-12 -13 -24 -23 -25 -21 -5 4 -4 17 1 17 12 -1 33 26 27 34
-3 5 0 6 7 1 9 -5 7 -13 -10 -31z m-1124 17 c3 -5 2 -12 -3 -15 -5 -3 -9 1 -9
9 0 17 3 19 12 6z m-44 -51 c6 0 8 4 5 8 -3 5 1 9 9 9 12 0 12 -3 3 -14 -9
-11 -8 -17 3 -24 8 -5 10 -9 5 -9 -14 0 -56 41 -56 54 0 6 5 3 11 -6 5 -10 15
-18 20 -18z m1014 20 c-11 -18 -14 -50 -4 -50 5 0 9 -5 9 -11 0 -8 -4 -8 -12
-1 -16 13 -30 13 -46 0 -10 -9 -10 -14 0 -26 9 -10 9 -13 1 -9 -6 4 -13 4 -16
0 -2 -5 -2 -2 -1 5 2 6 -1 12 -6 12 -6 0 -11 -4 -11 -10 -1 -5 -2 -16 -3 -22
-1 -7 2 -18 6 -25 6 -8 3 -10 -9 -8 -26 4 -36 -5 -23 -20 10 -11 8 -13 -9 -10
-12 2 -21 -1 -21 -7 0 -6 -3 -8 -6 -5 -4 4 -2 13 4 20 7 8 9 16 6 19 -3 4 27
40 68 81 74 76 84 85 73 67z m-869 -42 c16 -18 20 -25 8 -15 -11 9 -25 14 -30
10 -5 -5 -6 -4 -2 1 4 5 3 15 -3 23 -23 27 -2 12 27 -19z m944 -23 c-19 -20
-50 -25 -50 -8 0 3 6 3 14 0 15 -6 48 27 38 39 -4 4 -1 4 6 0 11 -6 9 -13 -8
-31z m-1009 -35 c6 0 7 5 3 12 -4 7 -3 8 4 4 6 -4 9 -13 5 -21 -3 -8 1 -15 8
-15 7 0 9 -3 6 -7 -9 -8 -57 36 -57 51 0 6 5 3 11 -6 5 -10 15 -18 20 -18z
m145 -22 l29 -33 -32 29 c-31 28 -38 36 -30 36 2 0 16 -15 33 -32z m783 -24
c-12 -13 -24 -23 -25 -21 -5 4 -4 17 1 17 12 -1 33 26 27 34 -3 5 0 6 7 1 9
-5 7 -13 -10 -31z m-848 -34 c6 0 7 5 3 12 -4 7 -3 8 4 4 7 -4 12 -2 12 5 0 7
3 9 6 6 4 -4 1 -14 -6 -23 -12 -13 -11 -17 1 -25 8 -5 10 -9 5 -9 -14 0 -56
41 -56 54 0 6 5 3 11 -6 5 -10 15 -18 20 -18z m694 20 c-11 -18 -14 -50 -4
-50 5 0 9 -5 9 -11 0 -8 -4 -8 -12 -1 -16 13 -30 13 -46 0 -10 -9 -10 -14 0
-26 9 -10 9 -13 1 -9 -6 4 -13 4 -16 0 -2 -5 -2 -2 -1 5 2 6 -1 12 -6 12 -6 0
-11 -4 -11 -10 -1 -5 -2 -16 -3 -22 -1 -7 2 -18 6 -25 6 -8 3 -10 -9 -8 -26 4
-36 -5 -23 -20 10 -11 8 -13 -9 -10 -12 2 -21 -1 -21 -7 0 -6 -3 -8 -6 -5 -4
4 -2 13 4 20 7 8 9 16 6 19 -3 4 27 40 68 81 74 76 84 85 73 67z m-552 -38
l27 -28 -29 0 c-17 0 -28 3 -25 7 2 5 12 5 22 2 12 -5 11 1 -7 20 -33 36 -22
35 12 -1z m627 -27 c-19 -20 -50 -25 -50 -8 0 3 6 3 14 0 15 -6 48 27 38 39
-4 4 -1 4 6 0 11 -6 9 -13 -8 -31z m-686 -35 c3 0 5 3 5 8 -3 16 2 23 11 17 8
-5 7 -12 -1 -22 -10 -12 -10 -16 2 -24 8 -5 10 -9 5 -9 -14 0 -56 41 -56 54 0
6 7 3 14 -6 7 -10 16 -18 20 -18z m142 -22 l29 -33 -32 29 c-31 28 -38 36 -30
36 2 0 16 -15 33 -32z m463 -24 c-12 -13 -24 -23 -25 -21 -5 4 -4 17 1 17 12
-1 33 26 27 34 -3 5 0 6 7 1 9 -5 7 -13 -10 -31z m-484 17 c3 -5 2 -12 -3 -15
-5 -3 -9 1 -9 9 0 17 3 19 12 6z m-44 -51 c6 0 8 4 5 8 -3 5 1 9 9 9 12 0 12
-3 3 -14 -9 -11 -8 -17 3 -24 8 -5 10 -9 5 -9 -14 0 -56 41 -56 54 0 6 5 3 11
-6 5 -10 15 -18 20 -18z m374 20 c-11 -18 -14 -50 -4 -50 5 0 9 -5 9 -11 0 -8
-4 -8 -12 -1 -16 13 -30 13 -46 0 -10 -9 -10 -14 0 -26 9 -10 9 -13 1 -9 -6 4
-13 4 -16 0 -2 -5 -2 -2 -1 5 2 6 -1 12 -6 12 -10 0 -13 -10 -13 -43 0 -13 -3
-15 -13 -6 -16 13 -12 20 56 91 45 47 57 57 45 38z m-229 -42 l29 -33 -32 29
c-31 28 -38 36 -30 36 2 0 16 -15 33 -32z m304 -23 c-19 -20 -50 -25 -50 -8 0
3 6 3 14 0 15 -6 48 27 38 39 -4 4 -1 4 6 0 11 -6 9 -13 -8 -31z m-370 -35 c6
0 9 3 9 8 -3 16 2 23 11 17 8 -5 7 -12 -1 -22 -10 -12 -10 -16 2 -24 8 -5 10
-9 5 -9 -14 0 -56 41 -56 54 0 6 5 3 11 -6 5 -10 14 -18 19 -18z m130 5 c7 -9
8 -15 2 -15 -5 0 -12 7 -16 15 -3 8 -4 15 -2 15 2 0 9 -7 16 -15z m159 -51
c-12 -13 -24 -23 -25 -21 -5 4 -4 17 1 17 12 -1 33 26 27 34 -3 5 0 6 7 1 9
-5 7 -13 -10 -31z m-208 -34 c6 0 7 5 3 12 -4 7 -3 8 4 4 6 -4 9 -13 5 -21 -3
-8 1 -15 8 -15 7 0 9 -3 6 -7 -9 -8 -57 36 -57 51 0 6 5 3 11 -6 5 -10 15 -18
20 -18z m118 -54 c-19 -17 -36 -28 -37 -23 -2 4 -8 5 -12 2 -5 -3 -11 -1 -15
4 -3 6 3 8 13 6 22 -4 75 38 64 50 -4 5 -1 5 7 0 10 -6 6 -15 -20 -39z m-1470
-399 c68 -45 75 -69 81 -256 7 -227 20 -232 184 -78 l99 93 -134 132 -134 131
69 1 68 0 100 -95 100 -95 77 69 c42 38 87 81 100 95 22 23 32 26 95 26 l71
-1 -135 -131 -135 -130 150 -144 150 -143 -70 -1 -70 0 -116 109 -115 109 -99
-94 c-123 -116 -161 -138 -226 -132 -56 6 -115 45 -125 83 l-6 25 -29 -21
c-57 -41 -163 -82 -225 -87 -144 -11 -235 96 -176 207 29 54 99 87 272 126 85
20 156 38 158 40 3 2 -1 18 -8 35 -35 85 -203 87 -327 5 l-51 -34 -25 42 c-14
23 -23 45 -20 50 8 14 123 67 176 82 33 9 85 14 143 12 80 -2 97 -6 133 -30z
m1185 -1 c208 -102 209 -400 1 -502 -153 -74 -343 -22 -420 117 -26 47 -30 64
-30 134 0 70 4 87 29 133 58 104 157 155 287 149 58 -3 90 -10 133 -31z m631
15 c50 -22 91 -69 105 -119 5 -20 10 -121 10 -224 l0 -188 -55 0 -55 0 0 181
c0 198 -8 236 -56 258 -35 15 -99 14 -133 -4 -16 -8 -49 -37 -75 -66 l-46 -51
0 -159 0 -159 -55 0 -55 0 0 265 0 265 55 0 55 0 0 -46 0 -46 25 30 c62 74
192 103 280 63z m587 -1 c97 -36 168 -133 184 -247 l7 -53 -252 0 -252 0 6
-22 c24 -77 103 -127 200 -128 75 0 118 12 176 48 l45 29 27 -38 27 -37 -48
-31 c-86 -55 -120 -65 -222 -65 -79 -1 -104 3 -147 23 -59 26 -126 93 -151
149 -24 58 -21 167 7 224 29 62 110 134 170 152 68 21 161 20 223 -4z"/>
<path d="M1769 2543 c-13 -16 -12 -17 4 -4 9 7 17 15 17 17 0 8 -8 3 -21 -13z"/>
<path d="M2864 2258 c-12 -14 -13 -18 -3 -10 9 6 18 10 21 7 2 -3 5 2 5 10 0
19 0 19 -23 -7z"/>
<path d="M2704 2098 c-12 -14 -13 -18 -3 -10 9 6 18 10 21 7 2 -3 5 2 5 10 0
19 0 19 -23 -7z"/>
<path d="M2544 1938 c-12 -14 -13 -18 -3 -10 9 6 18 10 21 7 2 -3 5 2 5 10 0
19 0 19 -23 -7z"/>
<path d="M765 991 c-130 -29 -159 -41 -175 -71 -15 -28 -12 -48 10 -70 42 -42
166 -15 273 58 43 30 47 37 47 72 0 48 6 48 -155 11z"/>
<path d="M1882 1193 c-129 -63 -133 -257 -7 -331 34 -19 52 -22 111 -20 60 3
77 8 109 32 69 53 93 151 56 231 -21 46 -54 79 -94 94 -42 16 -137 13 -175 -6z"/>
<path d="M3165 1206 c-34 -10 -60 -26 -87 -55 -66 -70 -63 -71 147 -71 205 0
200 -2 149 66 -43 58 -127 82 -209 60z"/>
</g>
</svg>
