<svg width="50" height="50" viewBox="0 0 50 50" fill="none" xmlns="http://www.w3.org/2000/svg">
<path fill-rule="evenodd" clip-rule="evenodd" d="M4.92776 18.8334C7.57976 10.6184 15.3894 4.66667 24.6108 4.66667C36.0153 4.66667 45.2604 13.7704 45.2604 25.0003C45.2604 35.4323 37.2821 44.0294 27.0061 45.1981V38.7948C31.5108 38.0434 35.2945 35.2071 37.2968 31.3299H31.5756C29.8438 33.1739 27.3654 34.3283 24.6129 34.3283C19.3778 34.3283 15.1338 30.152 15.1338 25.0001C15.1338 19.8484 19.3778 15.6722 24.6129 15.6722C27.4473 15.6722 29.9913 16.8964 31.7285 18.8371H37.3812C35.0654 14.1997 30.218 11.0081 24.6129 11.0081C16.7602 11.0081 10.3943 17.2726 10.3943 25.0001C10.3943 31.9344 15.52 37.6904 22.2464 38.7992V45.2015C14.1346 44.2911 7.44968 38.7526 4.98217 31.3335H0.043532C2.89143 42.0739 12.8112 50 24.611 50C38.6328 50 50 38.8074 50 25.0003C49.9998 11.1929 38.6326 0 24.6108 0C12.75 0 2.78881 8.00846 0 18.8334H4.92776Z" fill="white"/>
<path d="M29.8095 24.9892C29.8095 27.8215 27.4775 30.1175 24.6007 30.1175C21.724 30.1175 19.3919 27.8215 19.3919 24.9892C19.3919 22.157 21.724 19.861 24.6007 19.861C27.4775 19.861 29.8095 22.157 29.8095 24.9892Z" fill="white"/>
</svg>
