<?xml version="1.0" encoding="UTF-8"?>
<svg xmlns="http://www.w3.org/2000/svg" xmlns:xlink="http://www.w3.org/1999/xlink" width="50px" height="50px" viewBox="0 0 50 50" version="1.1">
<g id="surface1">
<path style=" stroke:none;fill-rule:nonzero;fill:rgb(27.058824%,12.54902%,90.196078%);fill-opacity:1;" d="M 24.953125 50 C 38.761719 50 49.953125 38.808594 49.953125 25 C 49.953125 11.191406 38.761719 0 24.953125 0 C 11.148438 0 -0.046875 11.191406 -0.046875 25 C -0.046875 38.808594 11.148438 50 24.953125 50 Z M 24.953125 50 "/>
<path style=" stroke:none;fill-rule:evenodd;fill:rgb(100%,100%,100%);fill-opacity:1;" d="M 33.71875 30.519531 C 33.71875 33.09375 31.660156 35.191406 29.132812 35.191406 L 20.339844 35.191406 L 29.476562 25.878906 C 31.84375 26.0625 33.71875 28.0625 33.71875 30.519531 Z M 19.175781 25.296875 L 19.175781 14.53125 L 29.421875 14.53125 C 29.59375 14.53125 29.769531 14.539062 29.9375 14.558594 Z M 35.789062 19.285156 C 35.789062 17.117188 34.726562 15.1875 33.09375 14.003906 L 37.5 9.582031 L 34.863281 9.597656 L 31.363281 13.113281 C 30.714844 12.894531 30.023438 12.773438 29.304688 12.773438 L 17.253906 12.773438 L 17.253906 29.90625 L 31.761719 15.34375 C 33.066406 16.167969 33.9375 17.628906 33.9375 19.285156 C 33.9375 21.851562 31.859375 23.9375 29.304688 23.9375 L 28.917969 23.9375 L 12.777344 40.140625 L 15.398438 40.140625 L 18.5625 36.964844 L 29.304688 36.964844 C 32.878906 36.964844 35.789062 34.042969 35.789062 30.449219 C 35.789062 28.082031 34.519531 26.011719 32.632812 24.871094 C 34.523438 23.734375 35.789062 21.65625 35.789062 19.285156 Z M 35.789062 19.285156 "/>
</g>
</svg>
