<?xml version="1.0" encoding="UTF-8"?>
<svg xmlns="http://www.w3.org/2000/svg" xmlns:xlink="http://www.w3.org/1999/xlink" width="50px" height="50px" viewBox="0 0 50 55" version="1.1">
<defs>
<clipPath id="clip1">
  <path d="M 0 0 L 49.878906 0 L 49.878906 55 L 0 55 Z M 0 0 "/>
</clipPath>
<linearGradient id="linear0" gradientUnits="userSpaceOnUse" x1="-0.0000693664" y1="24.9998" x2="44.8917" y2="24.9998" gradientTransform="matrix(1.111111,0,0,1.1,0,0)">
<stop offset="0" style="stop-color:rgb(7.058824%,75.686275%,88.235294%);stop-opacity:1;"/>
<stop offset="0.7" style="stop-color:rgb(7.058824%,75.686275%,88.235294%);stop-opacity:1;"/>
<stop offset="1" style="stop-color:rgb(8.627451%,58.039216%,82.352941%);stop-opacity:1;"/>
</linearGradient>
</defs>
<g id="surface1">
<g clip-path="url(#clip1)" clip-rule="nonzero">
<path style=" stroke:none;fill-rule:nonzero;fill:url(#linear0);" d="M 17.464844 54.164062 L 0.773438 54.164062 L 4.046875 35.882812 L 21.375 20.484375 L 6.640625 20.484375 L 18.554688 13.28125 L 37.929688 13.28125 L 12.871094 37.6875 L 11.1875 47.003906 C 11.1875 47.003906 16.78125 47.410156 21.195312 47.003906 C 25.605469 46.554688 30.5625 44.753906 30.5625 44.753906 Z M 43.707031 15.039062 L 36.246094 22.242188 C 36.246094 22.242188 42.523438 29.132812 36.746094 38.585938 C 31.0625 47.859375 12.1875 46.148438 12.1875 46.148438 L 13.644531 38 L 40.203125 12.425781 L 18.191406 12.425781 L 20.421875 0 L 9.777344 0 L 5.957031 21.25 L 19.511719 21.25 L 3.410156 35.570312 L 0 54.839844 C 0 54.839844 12.871094 55.199219 23.785156 54.839844 C 34.746094 54.480469 47.527344 45.203125 49.390625 34.714844 C 51.9375 20.53125 43.707031 15.039062 43.707031 15.039062 Z M 43.707031 15.039062 "/>
</g>
</g>
</svg>
