<svg width="50" height="50" viewBox="0 0 50 50" fill="none" xmlns="http://www.w3.org/2000/svg">
<g clip-path="url(#clip0_30_134)">
<circle cx="25" cy="25" r="25" fill="#814625"/>
<path d="M23.4072 23.679C23.3896 23.5852 23.3677 23.4955 23.3327 23.4099C23.3458 23.3896 26.2571 19.6193 23.5606 17.2878C20.8686 14.9563 17.725 17.997 17.7074 18.0133C17.2076 17.8665 16.7034 17.7769 16.2036 17.7361C16.2036 17.7361 16.2036 17.7361 16.1992 17.7361C15.1733 17.5772 13.7352 17.7361 13.7352 17.7361C13.2397 17.7769 12.7399 17.8665 12.2445 18.0092C12.227 17.9929 9.08331 14.9522 6.39128 17.2837C3.69925 19.6152 6.60612 23.3896 6.61927 23.4059C6.58858 23.4955 6.56228 23.5852 6.54474 23.6749C6.25537 25.289 4.26923 25.7863 4.26923 28.5987C4.26923 31.4642 6.34305 33.7223 10.5784 33.7223H12.3146C12.3234 33.7304 12.9942 34.619 14.3797 34.672C14.3797 34.672 14.6997 34.7046 15.4363 34.6802C16.9051 34.6802 17.6198 33.7386 17.6241 33.7264H19.3604C23.5957 33.7264 25.6696 31.4683 25.6696 28.6028C25.6827 25.7944 23.6966 25.2931 23.4072 23.679Z" fill="white"/>
<path d="M34.1359 31.362V29.161C35.4905 28.6963 36.4771 27.2534 36.4771 25.5456C36.4771 23.8377 35.4905 22.3907 34.1359 21.9301V19.7291C35.4116 19.2929 36.3631 17.9845 36.4684 16.403H34.9164V17.0755C34.9164 17.5932 34.6006 18.0497 34.1359 18.278V17.9641C34.1359 17.5035 33.7324 17.1286 33.237 17.1286H33.1581C32.6627 17.1286 32.2593 17.5035 32.2593 17.9641V18.278C31.7946 18.0497 31.4789 17.5973 31.4789 17.0755V16.403H29.9268C30.032 17.9845 30.9835 19.2929 32.2593 19.7291V21.9301C30.9089 22.3907 29.918 23.8336 29.918 25.5456C29.918 27.2575 30.9045 28.7004 32.2593 29.161V31.362C30.9835 31.7982 30.032 33.1066 29.9268 34.6881H31.4789V34.0155C31.4789 33.4979 31.7946 33.0414 32.2593 32.8131V33.127C32.2593 33.5875 32.6627 33.9625 33.1581 33.9625H33.237C33.7324 33.9625 34.1359 33.5875 34.1359 33.127V32.8131C34.6006 33.0414 34.9164 33.4938 34.9164 34.0155V34.6881H36.4684C36.3631 33.1066 35.4116 31.7982 34.1359 31.362ZM31.4789 26.5075V24.5795C31.4789 24.0619 31.7946 23.6054 32.2593 23.3771V23.691C32.2593 24.1515 32.6627 24.5265 33.1581 24.5265H33.237C33.7324 24.5265 34.1359 24.1515 34.1359 23.691V23.3771C34.6006 23.6054 34.9164 24.0578 34.9164 24.5795V26.5075C34.9164 27.0251 34.6006 27.4816 34.1359 27.7099V27.3961C34.1359 26.9355 33.7324 26.5605 33.237 26.5605H33.1581C32.6627 26.5605 32.2593 26.9355 32.2593 27.3961V27.7099C31.7989 27.4816 31.4789 27.0292 31.4789 26.5075Z" fill="white"/>
<path d="M43.6587 26.7154V24.3717C45.0134 23.907 46 22.4641 46 20.7562C46 19.0484 45.0134 17.6014 43.6587 17.1408V16.403H41.7866V17.1408C40.4319 17.6054 39.4453 19.0484 39.4453 20.7562C39.4453 22.4641 40.4319 23.9111 41.7866 24.3717V26.7154C40.4319 27.18 39.4453 28.623 39.4453 30.3308C39.4453 32.0387 40.4319 33.4857 41.7866 33.9462V34.684H43.6587V33.9462C45.0134 33.4816 46 32.0387 46 30.3308C46 28.623 45.0134 27.18 43.6587 26.7154ZM41.0017 21.7182V19.7902C41.0017 19.2726 41.3175 18.816 41.7822 18.5878V18.9016C41.7822 19.3622 42.1857 19.7372 42.6811 19.7372H42.7554C43.2509 19.7372 43.6544 19.3622 43.6544 18.9016V18.5878C44.1191 18.816 44.4349 19.2685 44.4349 19.7902V21.7182C44.4349 22.2358 44.1191 22.6923 43.6544 22.9206V22.6068C43.6544 22.1461 43.2509 21.7712 42.7554 21.7712H42.6765C42.1813 21.7712 41.7778 22.1461 41.7778 22.6068V22.9206C41.3218 22.6923 41.0017 22.2399 41.0017 21.7182ZM44.4392 31.2968C44.4392 31.8145 44.1234 32.271 43.6587 32.4993V32.0387C43.6587 31.5781 43.2553 31.2031 42.7598 31.2031H42.6855C42.19 31.2031 41.7866 31.5781 41.7866 32.0387V32.4993C41.3218 32.271 41.006 31.8186 41.006 31.2968V29.3689C41.006 28.8512 41.3218 28.3947 41.7866 28.1664V28.3336C41.7866 28.7941 42.19 29.1691 42.6855 29.1691H42.7644C43.2596 29.1691 43.6631 28.7941 43.6631 28.3336V28.1664C44.1278 28.3947 44.4436 28.8471 44.4436 29.3689V31.2968H44.4392Z" fill="white"/>
</g>
<defs>
<clipPath id="clip0_30_134">
<rect width="50" height="50" fill="white"/>
</clipPath>
</defs>
</svg>
