<?xml version="1.0" standalone="no"?>
<!DOCTYPE svg PUBLIC "-//W3C//DTD SVG 20010904//EN"
 "http://www.w3.org/TR/2001/REC-SVG-20010904/DTD/svg10.dtd">
<svg version="1.0" xmlns="http://www.w3.org/2000/svg"
 width="1280.000000pt" height="1280.000000pt" viewBox="0 0 1280.000000 1280.000000"
 preserveAspectRatio="xMidYMid meet">

<g transform="translate(0.000000,1280.000000) scale(0.100000,-0.100000)"
fill="#000000" stroke="none">
<path d="M2600 8528 c-96 -7 -182 -35 -286 -93 -86 -48 -237 -196 -287 -282
-138 -238 -141 -537 -7 -875 43 -109 123 -264 171 -335 l30 -43 -21 -80 c-28
-113 -74 -196 -212 -378 -134 -177 -213 -323 -250 -462 -20 -76 -23 -108 -23
-295 0 -184 3 -221 22 -297 63 -249 188 -452 367 -596 138 -111 290 -187 477
-237 180 -48 257 -57 579 -62 l305 -6 58 -53 c64 -57 182 -123 262 -145 36
-10 114 -14 280 -14 223 0 232 1 302 26 82 30 197 103 241 153 l29 34 314 5
c353 6 450 18 646 81 450 146 728 473 794 934 14 103 6 352 -14 442 -38 167
-102 287 -264 503 -126 166 -176 257 -203 365 l-20 81 29 43 c94 139 194 368
237 541 57 231 42 432 -47 615 -95 197 -283 354 -490 412 -157 43 -352 21
-541 -60 -98 -42 -284 -162 -369 -238 l-55 -50 -96 23 c-293 71 -712 71 -1003
1 l-100 -24 -41 38 c-104 96 -280 209 -407 261 -141 58 -263 79 -407 67z"/>
<path d="M7680 8513 c0 -16 7 -68 16 -117 48 -278 191 -504 386 -614 l48 -27
0 -256 0 -255 -32 -16 c-114 -54 -240 -190 -308 -332 -85 -177 -115 -327 -107
-541 6 -170 26 -266 86 -405 69 -160 177 -291 299 -360 l61 -35 1 -257 0 -258
-32 -13 c-104 -44 -235 -184 -308 -327 -52 -102 -110 -320 -110 -412 l0 -29
153 3 152 3 5 125 c5 97 11 135 27 171 20 45 87 129 103 129 4 0 10 -28 14
-62 12 -121 82 -193 187 -193 105 0 173 72 186 195 3 33 9 60 13 60 15 0 77
-77 100 -125 21 -42 25 -70 30 -175 l5 -125 153 -3 152 -3 0 29 c0 95 -55 304
-107 407 -68 134 -176 255 -281 315 l-61 35 0 255 0 255 62 35 c74 42 168 133
222 215 52 79 111 217 136 319 29 115 37 350 15 472 -51 295 -214 548 -408
635 l-28 12 0 256 1 256 61 35 c200 114 355 389 384 678 l7 73 -154 -3 -154
-3 -5 -125 c-5 -105 -9 -133 -30 -175 -23 -48 -85 -125 -100 -125 -4 0 -10 28
-14 62 -11 111 -72 181 -169 194 -103 14 -189 -68 -202 -192 -4 -35 -11 -64
-15 -64 -16 0 -83 84 -103 129 -16 36 -22 74 -27 171 l-5 125 -152 3 -153 3 0
-28z m938 -1743 l27 -55 0 -315 c0 -301 -1 -317 -21 -361 -21 -45 -89 -129
-104 -129 -4 0 -10 28 -14 62 -12 121 -81 191 -186 191 -104 0 -173 -69 -185
-189 -4 -35 -11 -64 -15 -64 -15 0 -77 77 -101 125 -24 50 -24 51 -24 365 0
301 1 317 21 361 21 45 89 129 104 129 4 0 10 -26 14 -57 16 -141 107 -219
223 -192 90 20 140 84 150 194 l6 66 39 -38 c21 -21 51 -63 66 -93z"/>
<path d="M10270 8452 l0 -89 -42 -19 c-24 -10 -45 -21 -48 -24 -3 -3 -21 -17
-40 -31 -146 -109 -260 -312 -312 -554 -21 -100 -16 -363 10 -472 59 -254 202
-473 370 -561 l62 -33 0 -269 0 -268 -42 -22 c-251 -130 -418 -464 -418 -830
1 -225 74 -468 187 -621 56 -75 149 -159 216 -194 l57 -30 0 -87 0 -88 185 0
185 0 0 88 0 87 62 34 c34 19 91 62 125 96 35 34 67 59 71 56 4 -3 4 -2 0 3
-4 5 11 35 33 67 48 71 103 196 128 294 115 436 -45 937 -352 1109 l-67 38 0
268 0 268 66 37 c62 35 152 116 202 183 68 92 137 256 166 398 88 421 -85 896
-381 1052 l-53 27 0 88 0 87 -185 0 -185 0 0 -88z m32 -620 c57 -86 179 -107
256 -45 52 43 73 82 81 160 l7 68 46 -47 c29 -29 54 -67 67 -104 21 -55 22
-71 19 -363 l-3 -306 -27 -50 c-14 -27 -45 -68 -67 -90 l-41 -39 0 54 c0 74
-35 147 -86 183 -52 36 -137 38 -195 5 -22 -12 -39 -26 -39 -30 0 -5 -6 -6
-12 -2 -7 4 -10 4 -6 0 4 -5 -2 -24 -12 -44 -10 -21 -21 -63 -25 -94 -3 -32
-10 -58 -14 -58 -9 0 -52 46 -78 85 -48 70 -54 123 -51 427 3 281 3 283 29
338 14 30 46 74 70 98 l44 43 5 -74 c5 -58 12 -84 32 -115z m2 -2202 c56 -85
173 -105 257 -44 47 34 94 131 84 173 -6 22 -5 23 12 10 68 -53 108 -124 123
-215 13 -75 12 -436 0 -531 -5 -40 -19 -91 -30 -113 -22 -44 -87 -120 -101
-120 -5 0 -9 29 -9 64 0 146 -69 226 -193 226 -44 0 -62 -6 -95 -30 -60 -43
-76 -80 -82 -183 l-5 -88 -44 43 c-24 24 -56 68 -70 98 l-26 55 0 305 0 305
33 67 c18 36 49 81 70 99 l37 33 6 -57 c4 -37 16 -71 33 -97z"/>
</g>
</svg>
