<?xml version="1.0" encoding="UTF-8"?>
<svg xmlns="http://www.w3.org/2000/svg" xmlns:xlink="http://www.w3.org/1999/xlink" width="50px" height="50px" viewBox="0 0 50 50" version="1.1">
<g id="surface1">
<path style=" stroke:none;fill-rule:nonzero;fill:rgb(23.529412%,75.686275%,58.039216%);fill-opacity:1;" d="M 25.023438 48.949219 C 38.265625 48.949219 49 38.214844 49 24.976562 C 49 11.734375 38.265625 1 25.023438 1 C 11.785156 1 1.050781 11.734375 1.050781 24.976562 C 1.050781 38.214844 11.785156 48.949219 25.023438 48.949219 Z M 25.023438 48.949219 "/>
<path style=" stroke:none;fill-rule:nonzero;fill:rgb(100%,100%,100%);fill-opacity:1;" d="M 36.238281 29.46875 L 36.171875 29.546875 C 35.738281 29.980469 35.21875 30.324219 34.648438 30.550781 L 34.621094 30.550781 C 34.09375 30.753906 33.535156 30.859375 32.976562 30.859375 C 32.148438 30.875 31.335938 30.699219 30.589844 30.34375 L 30.546875 30.34375 L 30.433594 30.289062 L 30.40625 30.273438 C 29.714844 29.90625 29.148438 29.339844 28.773438 28.648438 L 28.703125 28.523438 L 27.179688 30.160156 C 27.179688 30.160156 26.875 31.726562 26.738281 32.488281 L 26.738281 32.539062 L 26.773438 32.574219 L 26.796875 32.601562 C 28.34375 34.300781 30.539062 35.265625 32.839844 35.265625 L 32.964844 35.269531 L 33.066406 35.273438 C 34.570312 35.273438 36.050781 34.890625 37.363281 34.160156 L 37.40625 34.140625 C 38.128906 33.730469 38.796875 33.21875 39.375 32.625 L 39.445312 32.550781 Z M 36.238281 29.46875 "/>
<path style=" stroke:none;fill-rule:nonzero;fill:rgb(100%,100%,100%);fill-opacity:1;" d="M 14.71875 21.898438 L 14.71875 21.929688 L 15.339844 24.253906 L 15.464844 24.054688 C 16.136719 23.085938 17.15625 22.410156 18.308594 22.183594 L 18.359375 22.183594 C 18.765625 22.101562 19.179688 22.070312 19.59375 22.089844 C 20.21875 22.128906 20.824219 22.308594 21.375 22.609375 L 21.421875 22.636719 C 22.175781 23.058594 22.84375 23.625 23.390625 24.300781 L 23.480469 24.414062 L 24.941406 22.359375 L 25.40625 20.191406 L 25.355469 20.148438 L 25.191406 20.003906 C 24.234375 19.125 23.105469 18.464844 21.871094 18.058594 C 21.203125 17.859375 20.515625 17.75 19.824219 17.738281 L 19.796875 17.738281 C 18.230469 17.746094 16.695312 18.140625 15.320312 18.886719 L 15.273438 18.910156 L 14.660156 21.664062 Z M 14.71875 21.898438 "/>
<path style=" stroke:none;fill-rule:nonzero;fill:rgb(100%,100%,100%);fill-opacity:1;" d="M 28.386719 27.824219 L 28.386719 27.785156 C 28.394531 27.613281 28.355469 26.945312 28.34375 26.554688 L 28.355469 26.449219 C 28.335938 25.414062 28.671875 24.40625 29.316406 23.59375 L 29.335938 23.566406 C 29.429688 23.445312 29.523438 23.335938 29.628906 23.226562 C 30.46875 22.359375 31.621094 21.871094 32.824219 21.871094 C 33.015625 21.871094 33.210938 21.878906 33.398438 21.898438 L 33.429688 21.898438 C 34.421875 22.03125 35.339844 22.480469 36.054688 23.175781 L 36.128906 23.25 L 39.214844 20.140625 L 39.140625 20.066406 C 37.578125 18.550781 35.53125 17.648438 33.359375 17.515625 L 33.328125 17.515625 L 32.746094 17.484375 C 31.441406 17.476562 30.148438 17.726562 28.945312 18.21875 C 28.148438 18.558594 27.414062 19.035156 26.785156 19.625 L 26.75 19.65625 L 26.710938 19.65625 L 26.710938 19.675781 L 26.683594 19.695312 L 26.648438 19.726562 C 26.429688 19.941406 26.226562 20.171875 26.039062 20.414062 L 26.039062 20.433594 L 25.539062 22.609375 L 23.894531 24.878906 L 23.894531 26.464844 C 23.878906 28.21875 22.871094 29.808594 21.285156 30.566406 L 21.253906 30.578125 C 20.675781 30.839844 20.050781 30.976562 19.414062 30.980469 C 16.914062 31 14.859375 29.019531 14.789062 26.519531 L 14.769531 25.039062 L 14.773438 24.945312 L 13.964844 21.769531 L 14.648438 18.824219 L 14.574219 14.199219 L 10.105469 12.621094 L 10.273438 22.851562 L 10.273438 22.894531 L 10.335938 26.535156 C 10.335938 26.660156 10.339844 26.785156 10.351562 26.910156 C 10.34375 26.929688 10.34375 26.953125 10.34375 26.976562 C 10.519531 29.476562 11.746094 31.785156 13.714844 33.335938 L 13.746094 33.359375 C 15.371094 34.648438 17.390625 35.34375 19.464844 35.335938 L 19.789062 35.328125 L 19.859375 35.335938 C 21.941406 35.328125 23.941406 34.550781 25.476562 33.144531 L 25.5 33.121094 C 25.710938 32.921875 25.910156 32.703125 26.105469 32.480469 L 26.121094 32.460938 L 26.601562 29.90625 L 28.363281 27.878906 Z M 28.386719 27.824219 "/>
</g>
</svg>
