<?xml version="1.0" encoding="UTF-8"?>
<svg xmlns="http://www.w3.org/2000/svg" xmlns:xlink="http://www.w3.org/1999/xlink" width="50px" height="50px" viewBox="0 0 50 50" version="1.1">
<defs>
<linearGradient id="linear0" gradientUnits="userSpaceOnUse" x1="25" y1="0.0803223" x2="25" y2="49.8938" >
<stop offset="0" style="stop-color:rgb(0%,87.843137%,100%);stop-opacity:0.4;"/>
<stop offset="1" style="stop-color:rgb(0%,87.843137%,100%);stop-opacity:0;"/>
</linearGradient>
</defs>
<g id="surface1">
<path style=" stroke:none;fill-rule:nonzero;fill:rgb(100%,0%,36.078431%);fill-opacity:1;" d="M 24.953125 0.0820312 C 23.078125 0.0820312 21.199219 0.269531 19.324219 0.742188 C 19.324219 0.835938 19.324219 0.929688 19.324219 1.027344 L 19.324219 31.746094 C 19.324219 32.40625 18.761719 32.878906 18.199219 32.878906 L 15.949219 32.878906 C 15.476562 32.878906 15.101562 32.5 15.101562 32.027344 L 15.101562 2.066406 C 6.191406 5.847656 0 14.730469 0 24.941406 C 0 38.738281 11.164062 49.894531 25.046875 49.894531 C 38.929688 49.894531 50 38.738281 50 25.035156 C 50 11.328125 38.742188 0.0820312 24.953125 0.0820312 Z M 24.484375 35.335938 C 24.484375 35.90625 24.015625 36.378906 23.453125 36.378906 L 21.199219 36.378906 C 20.636719 36.378906 20.167969 35.90625 20.167969 35.335938 L 20.167969 19.550781 C 20.167969 18.984375 20.636719 18.511719 21.199219 18.511719 L 23.453125 18.511719 C 24.015625 18.511719 24.484375 18.984375 24.484375 19.550781 Z M 29.550781 36.851562 C 29.550781 37.417969 29.082031 37.890625 28.519531 37.890625 L 26.265625 37.890625 C 25.703125 37.890625 25.234375 37.417969 25.234375 36.851562 L 25.234375 18.039062 C 25.234375 17.472656 25.703125 17 26.265625 17 L 28.519531 17 C 29.082031 17 29.550781 17.472656 29.550781 18.039062 Z M 34.617188 34.015625 C 34.617188 34.582031 34.144531 35.054688 33.582031 35.054688 L 31.332031 35.054688 C 30.769531 35.054688 30.300781 34.582031 30.300781 34.015625 L 30.300781 21.0625 C 30.300781 20.496094 30.769531 20.023438 31.332031 20.023438 L 33.582031 20.023438 C 34.144531 20.023438 34.617188 20.496094 34.617188 21.0625 Z M 34.617188 34.015625 "/>
<path style=" stroke:none;fill-rule:nonzero;fill:url(#linear0);" d="M 24.953125 0.0820312 C 23.078125 0.0820312 21.199219 0.269531 19.324219 0.742188 C 19.324219 0.835938 19.324219 0.929688 19.324219 1.027344 L 19.324219 31.746094 C 19.324219 32.40625 18.761719 32.878906 18.199219 32.878906 L 15.949219 32.878906 C 15.476562 32.878906 15.101562 32.5 15.101562 32.027344 L 15.101562 2.066406 C 6.191406 5.847656 0 14.730469 0 24.941406 C 0 38.738281 11.164062 49.894531 25.046875 49.894531 C 38.929688 49.894531 50 38.738281 50 25.035156 C 50 11.328125 38.742188 0.0820312 24.953125 0.0820312 Z M 24.484375 35.335938 C 24.484375 35.90625 24.015625 36.378906 23.453125 36.378906 L 21.199219 36.378906 C 20.636719 36.378906 20.167969 35.90625 20.167969 35.335938 L 20.167969 19.550781 C 20.167969 18.984375 20.636719 18.511719 21.199219 18.511719 L 23.453125 18.511719 C 24.015625 18.511719 24.484375 18.984375 24.484375 19.550781 Z M 29.550781 36.851562 C 29.550781 37.417969 29.082031 37.890625 28.519531 37.890625 L 26.265625 37.890625 C 25.703125 37.890625 25.234375 37.417969 25.234375 36.851562 L 25.234375 18.039062 C 25.234375 17.472656 25.703125 17 26.265625 17 L 28.519531 17 C 29.082031 17 29.550781 17.472656 29.550781 18.039062 Z M 34.617188 34.015625 C 34.617188 34.582031 34.144531 35.054688 33.582031 35.054688 L 31.332031 35.054688 C 30.769531 35.054688 30.300781 34.582031 30.300781 34.015625 L 30.300781 21.0625 C 30.300781 20.496094 30.769531 20.023438 31.332031 20.023438 L 33.582031 20.023438 C 34.144531 20.023438 34.617188 20.496094 34.617188 21.0625 Z M 34.617188 34.015625 "/>
</g>
</svg>
