<svg xmlns="http://www.w3.org/2000/svg" width="780" height="780" viewBox="0 0 780 780" version="1.1"><path d="M 353.433 143.851 C 335.796 154.108, 307.784 170.339, 291.183 179.921 C 274.582 189.502, 261 197.609, 261 197.936 C 261 198.263, 269.525 203.630, 279.945 209.863 L 298.891 221.195 341.179 196.383 C 364.437 182.737, 384.175 171.571, 385.040 171.571 C 385.905 171.571, 405.620 182.729, 428.851 196.365 L 471.089 221.159 492.030 209.829 C 503.547 203.598, 512.977 198.228, 512.985 197.896 C 512.993 197.563, 501.413 190.617, 487.250 182.459 C 473.087 174.302, 444.932 158.036, 424.683 146.314 C 404.433 134.591, 387.333 125.045, 386.683 125.101 C 386.032 125.156, 371.070 133.594, 353.433 143.851 M 354.487 225.316 L 324.500 242.632 324.238 278.574 L 323.976 314.516 353.954 331.758 C 370.443 341.241, 384.647 349, 385.520 349 C 386.957 349, 412.616 334.559, 437 320.028 L 446.500 314.366 446.763 278.793 L 447.025 243.220 416.676 225.610 C 399.984 215.925, 385.910 208, 385.401 208 C 384.891 208, 370.980 215.792, 354.487 225.316 M 254.023 282.191 L 254.046 355.500 287.773 374.927 C 306.323 385.612, 334.677 401.985, 350.782 411.312 C 366.887 420.639, 380.206 428.097, 380.380 427.885 C 380.554 427.673, 380.202 417.624, 379.598 405.554 L 378.500 383.608 370.900 379.054 C 366.720 376.549, 347.496 365.275, 328.180 354 L 293.060 333.500 293.030 282.809 L 293 232.117 274.250 220.906 C 263.938 214.740, 255.162 209.512, 254.750 209.288 C 254.338 209.065, 254.010 241.871, 254.023 282.191 M 498 220.485 L 477.500 231.762 477.215 282.631 L 476.931 333.500 434.461 358.353 C 411.102 372.022, 391.790 383.531, 391.544 383.929 C 391 384.810, 392.867 427.200, 393.476 427.810 C 393.714 428.047, 422.276 411.875, 456.948 391.871 L 519.987 355.500 519.993 282.250 C 519.997 241.962, 519.663 209.047, 519.250 209.104 C 518.837 209.162, 509.275 214.283, 498 220.485 M 358 230.110 C 343.975 238.333, 331.928 245.408, 331.228 245.833 C 330.242 246.431, 329.950 253.791, 329.930 278.552 C 329.907 308.156, 330.037 310.598, 331.702 311.835 C 333.577 313.228, 385.012 343, 385.543 343 C 385.710 343, 394.994 337.670, 406.173 331.155 C 417.353 324.640, 429.762 317.420, 433.750 315.110 L 441 310.912 441 278.482 L 441 246.051 437.750 244.371 C 435.962 243.447, 423.758 236.461, 410.629 228.846 C 397.499 221.231, 386.024 215.036, 385.129 215.080 C 384.233 215.123, 372.025 221.887, 358 230.110 M 298.500 469.099 C 281.674 471.498, 269.167 479.680, 262.156 492.877 C 257.474 501.690, 255.802 509.819, 255.858 523.500 C 255.934 541.848, 259.588 553.039, 268.784 563.083 C 278.403 573.589, 290.954 578.197, 310 578.214 C 328.238 578.230, 340.741 573.889, 350.472 564.162 C 371.549 543.093, 368.786 494.021, 345.624 478.085 C 333.622 469.828, 316.411 466.546, 298.500 469.099 M 417.227 470.447 C 408.688 472.515, 399.549 477.743, 393.635 483.944 C 383.503 494.566, 379.624 505.777, 379.602 524.500 C 379.572 549.562, 387.799 565.297, 405.219 573.496 C 418.551 579.770, 438.575 580.513, 456.250 575.388 L 462 573.721 462 563.952 L 462 554.183 455.750 556.102 C 445.602 559.216, 432.521 560.510, 425.729 559.072 C 413.805 556.546, 406.846 547.537, 404.947 532.167 C 402.338 511.057, 409.665 493.929, 423.231 489.423 C 430.638 486.963, 441.464 487.861, 451 491.726 C 455.125 493.398, 458.617 494.665, 458.759 494.540 C 458.902 494.416, 460.773 490.210, 462.917 485.194 L 466.815 476.074 461.157 473.945 C 448.280 469.097, 429.106 467.570, 417.227 470.447 M 70 523.376 L 70 577 96.790 577 C 125.090 577, 130.451 576.361, 139.076 571.961 C 145.347 568.762, 150.557 563.458, 152.995 557.789 C 156.157 550.439, 155.569 538.353, 151.730 531.803 C 149.224 527.526, 143.547 523.674, 136.500 521.468 C 134.834 520.947, 135.146 520.618, 138.363 519.500 C 147.005 516.498, 151.943 508.598, 151.978 497.718 C 152.023 483.700, 145.628 476.408, 129.781 472.405 C 125.172 471.241, 116.380 470.676, 96.750 470.285 L 70 469.751 70 523.376 M 174 523.500 L 174 577 209.500 577 L 245 577 245 568 L 245 559 222 559 L 199 559 199 514.500 L 199 470 186.500 470 L 174 470 174 523.500 M 482.667 470.667 C 482.300 471.033, 482 495.108, 482 524.167 L 482 577 494.500 577 L 507 577 507 558.048 L 507 539.096 511.430 536.048 C 513.867 534.372, 516.247 533, 516.720 533 C 517.194 533, 524.087 542.892, 532.040 554.982 L 546.500 576.964 560.250 576.982 C 567.813 576.992, 574 576.772, 574 576.493 C 574 576.215, 565.394 563.277, 554.876 547.743 C 544.357 532.210, 535.550 518.979, 535.304 518.343 C 535.058 517.707, 543.327 507.199, 553.679 494.992 C 564.030 482.786, 572.860 472.169, 573.300 471.399 C 573.968 470.230, 571.910 470, 560.794 470 L 547.488 470 531.994 488.195 C 523.472 498.202, 514.475 509.095, 512 512.401 L 507.500 518.411 507.232 494.206 L 506.964 470 495.149 470 C 488.650 470, 483.033 470.300, 482.667 470.667 M 614 470.526 C 614 470.847, 621.890 482.589, 631.533 496.619 L 649.066 522.127 635.856 541.314 C 628.591 551.866, 620.030 564.212, 616.831 568.750 L 611.016 577 624.258 576.954 L 637.500 576.907 650.588 556.877 L 663.676 536.846 676.974 556.923 L 690.271 577 704.102 577 L 717.933 577 704.781 558.750 C 697.548 548.712, 688.967 536.783, 685.712 532.241 C 682.079 527.173, 680.021 523.386, 680.385 522.440 C 680.916 521.057, 690.528 506.735, 708.678 480.287 C 712.155 475.220, 715 470.833, 715 470.537 C 715 470.242, 709.231 470, 702.180 470 L 689.360 470 677.430 488.997 C 670.868 499.445, 665.188 507.882, 664.806 507.747 C 664.425 507.611, 658.780 499.175, 652.263 489 L 640.413 470.500 627.207 470.221 C 619.943 470.068, 614 470.205, 614 470.526 M 303.045 488.042 C 296.603 489.378, 289.983 493.858, 286.768 499.056 C 279.095 511.468, 279.483 538.133, 287.495 548.993 C 293.255 556.801, 300.704 559.581, 313.866 558.838 C 331.184 557.859, 340.257 543.445, 338.726 519.341 C 338.418 514.478, 337.455 508.203, 336.587 505.396 C 334.643 499.106, 328.372 491.766, 323.161 489.681 C 318.094 487.654, 308.637 486.883, 303.045 488.042 M 95 500.877 L 95 513 102.250 512.994 C 114.557 512.984, 121.094 511.504, 124.250 508.012 C 126.296 505.747, 127 503.932, 127 500.918 C 127 492.051, 123.127 489.808, 106.750 489.194 L 95 488.753 95 500.877 M 95 545.052 L 95 559.305 106.937 558.705 C 116.034 558.248, 119.808 557.628, 122.799 556.102 C 131.780 551.521, 132.312 538.634, 123.734 533.463 C 121.086 531.867, 118.190 531.449, 107.750 531.156 L 95 530.799 95 545.052" stroke="none" fill="#212527" fill-rule="evenodd"/><path d="M 348.500 1.538 C 282.357 8.789, 220.269 31.997, 166.199 69.682 C 130.799 94.354, 94.354 130.799, 69.682 166.199 C 31.652 220.764, 8.578 282.876, 1.476 349.796 C -0.446 367.906, -0.446 411.094, 1.476 429.204 C 8.578 496.124, 31.652 558.236, 69.682 612.801 C 94.354 648.201, 130.799 684.646, 166.199 709.318 C 220.590 747.226, 281.519 769.943, 349 777.474 C 367.152 779.500, 411.848 779.500, 430 777.474 C 497.481 769.943, 558.410 747.226, 612.801 709.318 C 648.201 684.646, 684.646 648.201, 709.318 612.801 C 747.348 558.236, 770.422 496.124, 777.524 429.204 C 779.446 411.094, 779.446 367.906, 777.524 349.796 C 770.422 282.876, 747.348 220.764, 709.318 166.199 C 684.646 130.799, 648.201 94.354, 612.801 69.682 C 558.199 31.627, 496.169 8.583, 429.204 1.476 C 412.063 -0.343, 365.333 -0.307, 348.500 1.538 M 353.433 143.851 C 335.796 154.108, 307.784 170.339, 291.183 179.921 C 274.582 189.502, 261 197.609, 261 197.936 C 261 198.263, 269.525 203.630, 279.945 209.863 L 298.891 221.195 341.179 196.383 C 364.437 182.737, 384.175 171.571, 385.040 171.571 C 385.905 171.571, 405.620 182.729, 428.851 196.365 L 471.089 221.159 492.030 209.829 C 503.547 203.598, 512.977 198.228, 512.985 197.896 C 512.993 197.563, 501.413 190.617, 487.250 182.459 C 473.087 174.302, 444.932 158.036, 424.683 146.314 C 404.433 134.591, 387.333 125.045, 386.683 125.101 C 386.032 125.156, 371.070 133.594, 353.433 143.851 M 354.487 225.316 L 324.500 242.632 324.238 278.574 L 323.976 314.516 353.954 331.758 C 370.443 341.241, 384.647 349, 385.520 349 C 386.957 349, 412.616 334.559, 437 320.028 L 446.500 314.366 446.763 278.793 L 447.025 243.220 416.676 225.610 C 399.984 215.925, 385.910 208, 385.401 208 C 384.891 208, 370.980 215.792, 354.487 225.316 M 254.023 282.191 L 254.046 355.500 287.773 374.927 C 306.323 385.612, 334.677 401.985, 350.782 411.312 C 366.887 420.639, 380.206 428.097, 380.380 427.885 C 380.554 427.673, 380.202 417.624, 379.598 405.554 L 378.500 383.608 370.900 379.054 C 366.720 376.549, 347.496 365.275, 328.180 354 L 293.060 333.500 293.030 282.809 L 293 232.117 274.250 220.906 C 263.938 214.740, 255.162 209.512, 254.750 209.288 C 254.338 209.065, 254.010 241.871, 254.023 282.191 M 498 220.485 L 477.500 231.762 477.215 282.631 L 476.931 333.500 434.461 358.353 C 411.102 372.022, 391.790 383.531, 391.544 383.929 C 391 384.810, 392.867 427.200, 393.476 427.810 C 393.714 428.047, 422.276 411.875, 456.948 391.871 L 519.987 355.500 519.993 282.250 C 519.997 241.962, 519.663 209.047, 519.250 209.104 C 518.837 209.162, 509.275 214.283, 498 220.485 M 358 230.110 C 343.975 238.333, 331.928 245.408, 331.228 245.833 C 330.242 246.431, 329.950 253.791, 329.930 278.552 C 329.907 308.156, 330.037 310.598, 331.702 311.835 C 333.577 313.228, 385.012 343, 385.543 343 C 385.710 343, 394.994 337.670, 406.173 331.155 C 417.353 324.640, 429.762 317.420, 433.750 315.110 L 441 310.912 441 278.482 L 441 246.051 437.750 244.371 C 435.962 243.447, 423.758 236.461, 410.629 228.846 C 397.499 221.231, 386.024 215.036, 385.129 215.080 C 384.233 215.123, 372.025 221.887, 358 230.110 M 298.500 469.099 C 281.674 471.498, 269.167 479.680, 262.156 492.877 C 257.474 501.690, 255.802 509.819, 255.858 523.500 C 255.934 541.848, 259.588 553.039, 268.784 563.083 C 278.403 573.589, 290.954 578.197, 310 578.214 C 328.238 578.230, 340.741 573.889, 350.472 564.162 C 371.549 543.093, 368.786 494.021, 345.624 478.085 C 333.622 469.828, 316.411 466.546, 298.500 469.099 M 417.227 470.447 C 408.688 472.515, 399.549 477.743, 393.635 483.944 C 383.503 494.566, 379.624 505.777, 379.602 524.500 C 379.572 549.562, 387.799 565.297, 405.219 573.496 C 418.551 579.770, 438.575 580.513, 456.250 575.388 L 462 573.721 462 563.952 L 462 554.183 455.750 556.102 C 445.602 559.216, 432.521 560.510, 425.729 559.072 C 413.805 556.546, 406.846 547.537, 404.947 532.167 C 402.338 511.057, 409.665 493.929, 423.231 489.423 C 430.638 486.963, 441.464 487.861, 451 491.726 C 455.125 493.398, 458.617 494.665, 458.759 494.540 C 458.902 494.416, 460.773 490.210, 462.917 485.194 L 466.815 476.074 461.157 473.945 C 448.280 469.097, 429.106 467.570, 417.227 470.447 M 70 523.376 L 70 577 96.790 577 C 125.090 577, 130.451 576.361, 139.076 571.961 C 145.347 568.762, 150.557 563.458, 152.995 557.789 C 156.157 550.439, 155.569 538.353, 151.730 531.803 C 149.224 527.526, 143.547 523.674, 136.500 521.468 C 134.834 520.947, 135.146 520.618, 138.363 519.500 C 147.005 516.498, 151.943 508.598, 151.978 497.718 C 152.023 483.700, 145.628 476.408, 129.781 472.405 C 125.172 471.241, 116.380 470.676, 96.750 470.285 L 70 469.751 70 523.376 M 174 523.500 L 174 577 209.500 577 L 245 577 245 568 L 245 559 222 559 L 199 559 199 514.500 L 199 470 186.500 470 L 174 470 174 523.500 M 482.667 470.667 C 482.300 471.033, 482 495.108, 482 524.167 L 482 577 494.500 577 L 507 577 507 558.048 L 507 539.096 511.430 536.048 C 513.867 534.372, 516.247 533, 516.720 533 C 517.194 533, 524.087 542.892, 532.040 554.982 L 546.500 576.964 560.250 576.982 C 567.813 576.992, 574 576.772, 574 576.493 C 574 576.215, 565.394 563.277, 554.876 547.743 C 544.357 532.210, 535.550 518.979, 535.304 518.343 C 535.058 517.707, 543.327 507.199, 553.679 494.992 C 564.030 482.786, 572.860 472.169, 573.300 471.399 C 573.968 470.230, 571.910 470, 560.794 470 L 547.488 470 531.994 488.195 C 523.472 498.202, 514.475 509.095, 512 512.401 L 507.500 518.411 507.232 494.206 L 506.964 470 495.149 470 C 488.650 470, 483.033 470.300, 482.667 470.667 M 614 470.526 C 614 470.847, 621.890 482.589, 631.533 496.619 L 649.066 522.127 635.856 541.314 C 628.591 551.866, 620.030 564.212, 616.831 568.750 L 611.016 577 624.258 576.954 L 637.500 576.907 650.588 556.877 L 663.676 536.846 676.974 556.923 L 690.271 577 704.102 577 L 717.933 577 704.781 558.750 C 697.548 548.712, 688.967 536.783, 685.712 532.241 C 682.079 527.173, 680.021 523.386, 680.385 522.440 C 680.916 521.057, 690.528 506.735, 708.678 480.287 C 712.155 475.220, 715 470.833, 715 470.537 C 715 470.242, 709.231 470, 702.180 470 L 689.360 470 677.430 488.997 C 670.868 499.445, 665.188 507.882, 664.806 507.747 C 664.425 507.611, 658.780 499.175, 652.263 489 L 640.413 470.500 627.207 470.221 C 619.943 470.068, 614 470.205, 614 470.526 M 303.045 488.042 C 296.603 489.378, 289.983 493.858, 286.768 499.056 C 279.095 511.468, 279.483 538.133, 287.495 548.993 C 293.255 556.801, 300.704 559.581, 313.866 558.838 C 331.184 557.859, 340.257 543.445, 338.726 519.341 C 338.418 514.478, 337.455 508.203, 336.587 505.396 C 334.643 499.106, 328.372 491.766, 323.161 489.681 C 318.094 487.654, 308.637 486.883, 303.045 488.042 M 95 500.877 L 95 513 102.250 512.994 C 114.557 512.984, 121.094 511.504, 124.250 508.012 C 126.296 505.747, 127 503.932, 127 500.918 C 127 492.051, 123.127 489.808, 106.750 489.194 L 95 488.753 95 500.877 M 95 545.052 L 95 559.305 106.937 558.705 C 116.034 558.248, 119.808 557.628, 122.799 556.102 C 131.780 551.521, 132.312 538.634, 123.734 533.463 C 121.086 531.867, 118.190 531.449, 107.750 531.156 L 95 530.799 95 545.052" stroke="none" fill="#fbfbfb" fill-rule="evenodd"/></svg>
