<svg width="50" height="50" viewBox="0 0 50 50" fill="none" xmlns="http://www.w3.org/2000/svg">
<g clip-path="url(#clip0_891_1210)">
<path fill-rule="evenodd" clip-rule="evenodd" d="M30.0316 6.48552C31.6559 6.75636 33.2413 5.73621 33.6467 4.11087C34.0727 2.40207 33.0329 0.671428 31.324 0.245375C29.6153 -0.180676 27.8844 0.859196 27.4584 2.56799C27.2674 3.33447 27.3712 4.10536 27.698 4.76092L22.5589 7.84888L16.5202 6.34327C16.8092 4.76692 15.8258 3.21695 14.2491 2.82383C12.6087 2.41482 10.9473 3.41309 10.5383 5.05355C10.141 6.64684 11.0713 8.2599 12.6281 8.72608L11.1355 14.7128L5.93468 17.8377C5.50929 17.2414 4.8774 16.7878 4.11095 16.5967C2.40214 16.1706 0.671504 17.2105 0.245452 18.9193C-0.1806 20.6281 0.859272 22.3588 2.56807 22.7848C4.21016 23.1942 5.8724 22.25 6.37776 20.6592L9.46118 21.428L6.45496 33.4851C4.86077 33.1691 3.26858 34.2106 2.85478 35.8703C2.42872 37.5793 3.41317 39.2961 5.05363 39.705C6.62437 40.0966 8.22702 39.1471 8.73439 37.5657L20.9944 40.6224L20.2128 43.7573C18.5894 43.4811 17.0167 44.4479 16.6276 46.0086C16.2186 47.6489 17.2722 49.3242 18.981 49.7502C20.6898 50.1762 22.4066 49.1918 22.8157 47.5515C23.0026 46.8017 22.8841 46.0451 22.5372 45.4035L27.7082 42.2964L33.5013 43.7407C33.2112 45.3765 34.2342 46.9805 35.8704 47.3885C37.5793 47.8145 39.31 46.7747 39.736 45.0657C40.1398 43.4464 39.2268 41.8073 37.6758 41.2777L39.1334 35.4313L44.2429 32.3614C44.6464 32.9688 45.2589 33.4288 46.0087 33.6157C47.649 34.0247 49.3242 32.9711 49.7503 31.2622C50.1763 29.5535 49.1918 27.8367 47.5515 27.4275C46.0069 27.0425 44.4316 27.954 43.8972 29.4879L40.8074 28.7175L43.8528 16.5033C45.4697 16.7693 47.0319 15.8038 47.4194 14.2491C47.8283 12.6087 46.7748 10.9334 45.0658 10.5074C43.4235 10.0979 41.774 10.9913 41.285 12.5178L29.2742 9.5232L30.0316 6.48552ZM41.1714 13.0153L29.1508 10.0182L26.8168 19.3786C28.1809 19.8135 29.286 20.711 30.0005 21.8513L41.5436 14.9154C41.2204 14.3482 41.0778 13.6856 41.1714 13.0153ZM41.8319 15.3375L30.2526 22.2951C30.851 23.4643 31.062 24.8383 30.7623 26.2132L40.3123 28.5943L43.3569 16.3826C42.736 16.1805 42.2133 15.8092 41.8319 15.3375ZM28.2964 29.8402C29.3776 29.1157 30.2225 28.0316 30.6324 26.7066L40.1888 29.0892L38.6895 35.103L33.3765 38.2951L28.2964 29.8402ZM23.984 30.7407C25.3544 30.9902 26.714 30.7379 27.8607 30.1058L32.9393 38.5578L27.6265 41.7502L21.6129 40.2509L23.984 30.7407ZM20.2172 28.3249C20.9775 29.4152 22.1095 30.2535 23.4863 30.628L21.1178 40.1275L8.85302 37.0696C8.95322 36.4436 8.86904 35.8262 8.63776 35.2826L20.2172 28.3249ZM19.2643 23.8722C18.9922 25.2976 19.2643 26.714 19.9437 27.8941L8.40041 34.83C8.06013 34.292 7.55924 33.8634 6.94544 33.627L9.95623 21.5514L19.2643 23.8722ZM21.8211 20.0541C20.6708 20.8047 19.7798 21.9586 19.3813 23.3755L10.0796 21.0564L11.5794 15.0412L16.8913 11.8495L21.8211 20.0541ZM26.3245 19.2445C24.895 18.9202 23.4637 19.1492 22.26 19.794L17.3286 11.5868L22.6405 8.39506L28.6556 9.8948L26.3245 19.2445ZM43.7663 29.9813L40.6839 29.2127L39.3079 34.7313L43.9957 31.9147C43.7324 31.3321 43.6401 30.6601 43.7663 29.9813ZM37.1814 41.1515L38.5151 35.803L33.6395 38.7326L35.2559 41.4226C35.837 41.1415 36.5064 41.0349 37.1814 41.1515ZM34.8156 41.6803L33.202 38.9953L28.3265 41.9249L33.6299 43.2471C33.8561 42.5936 34.2796 42.0545 34.8156 41.6803ZM22.2588 44.9754L27.0079 42.1219L21.4894 40.7458L20.7078 43.8808C21.345 44.0923 21.8777 44.4821 22.2588 44.9754ZM6.49345 20.1623L9.5846 20.933L10.9609 15.4129L6.197 18.2753C6.47901 18.844 6.59342 19.4989 6.49345 20.1623ZM13.1276 8.83184L11.754 14.3411L16.6285 11.4122L14.8933 8.52432C14.3618 8.79416 13.7499 8.9107 13.1276 8.83184ZM15.3275 8.25641L17.0658 11.1494L21.9404 8.22052L16.3873 6.83595C16.1767 7.42011 15.801 7.90705 15.3275 8.25641ZM27.9612 5.19799C28.3403 5.727 28.8821 6.14302 29.5365 6.36215L28.7791 9.39975L23.259 8.02345L27.9612 5.19799Z" fill="url(#paint0_linear_891_1210)"/>
</g>
<defs>
<linearGradient id="paint0_linear_891_1210" x1="30.6411" y1="0.222023" x2="18.7788" y2="49.967" gradientUnits="userSpaceOnUse">
<stop stop-color="#FF00FF"/>
<stop offset="0.461458" stop-color="#7A85FF"/>
<stop offset="1" stop-color="#21DFFF"/>
</linearGradient>
<clipPath id="clip0_891_1210">
<rect width="50" height="50" fill="white"/>
</clipPath>
</defs>
</svg>
