<?xml version="1.0" encoding="UTF-8"?>
<svg xmlns="http://www.w3.org/2000/svg" xmlns:xlink="http://www.w3.org/1999/xlink" width="50px" height="50px" viewBox="0 0 50 50" version="1.1">
<defs>
<linearGradient id="linear0" gradientUnits="userSpaceOnUse" x1="30.6411" y1="0.222023" x2="18.7788" y2="49.967" >
<stop offset="0" style="stop-color:rgb(100%,0%,100%);stop-opacity:1;"/>
<stop offset="0.461458" style="stop-color:rgb(47.843137%,52.156863%,100%);stop-opacity:1;"/>
<stop offset="1" style="stop-color:rgb(12.941176%,87.45098%,100%);stop-opacity:1;"/>
</linearGradient>
</defs>
<g id="surface1">
<path style=" stroke:none;fill-rule:evenodd;fill:url(#linear0);" d="M 30.03125 6.484375 C 31.65625 6.757812 33.242188 5.734375 33.648438 4.109375 C 34.074219 2.402344 33.03125 0.671875 31.324219 0.246094 C 29.617188 -0.179688 27.882812 0.859375 27.457031 2.566406 C 27.265625 3.335938 27.371094 4.105469 27.699219 4.761719 L 22.558594 7.847656 L 16.519531 6.34375 C 16.808594 4.765625 15.824219 3.21875 14.25 2.824219 C 12.609375 2.414062 10.949219 3.414062 10.539062 5.054688 C 10.140625 6.648438 11.070312 8.261719 12.628906 8.726562 L 11.136719 14.710938 L 5.933594 17.835938 C 5.507812 17.242188 4.878906 16.789062 4.109375 16.597656 C 2.402344 16.171875 0.671875 17.210938 0.246094 18.917969 C -0.179688 20.628906 0.859375 22.359375 2.566406 22.785156 C 4.210938 23.195312 5.871094 22.25 6.378906 20.660156 L 9.460938 21.429688 L 6.453125 33.484375 C 4.859375 33.167969 3.269531 34.210938 2.855469 35.871094 C 2.429688 37.578125 3.414062 39.296875 5.054688 39.703125 C 6.625 40.097656 8.226562 39.148438 8.734375 37.566406 L 20.996094 40.621094 L 20.210938 43.757812 C 18.589844 43.480469 17.015625 44.449219 16.628906 46.007812 C 16.21875 47.648438 17.273438 49.324219 18.980469 49.75 C 20.691406 50.175781 22.40625 49.191406 22.816406 47.550781 C 23.003906 46.800781 22.882812 46.046875 22.539062 45.402344 L 27.707031 42.296875 L 33.5 43.742188 C 33.210938 45.375 34.234375 46.980469 35.871094 47.386719 C 37.578125 47.816406 39.308594 46.773438 39.734375 45.066406 C 40.140625 43.445312 39.226562 41.808594 37.675781 41.277344 L 39.132812 35.429688 L 44.242188 32.363281 C 44.644531 32.96875 45.257812 33.429688 46.007812 33.617188 C 47.648438 34.023438 49.324219 32.972656 49.75 31.261719 C 50.175781 29.554688 49.191406 27.835938 47.550781 27.425781 C 46.007812 27.042969 44.429688 27.953125 43.898438 29.488281 L 40.808594 28.71875 L 43.851562 16.503906 C 45.46875 16.769531 47.03125 15.804688 47.417969 14.25 C 47.828125 12.609375 46.773438 10.933594 45.066406 10.507812 C 43.421875 10.097656 41.773438 10.992188 41.285156 12.519531 L 29.273438 9.523438 Z M 41.171875 13.015625 L 29.152344 10.019531 L 26.816406 19.378906 C 28.179688 19.8125 29.285156 20.710938 30 21.851562 L 41.542969 14.914062 C 41.21875 14.347656 41.078125 13.6875 41.171875 13.015625 Z M 41.832031 15.335938 L 30.253906 22.296875 C 30.851562 23.464844 31.0625 24.839844 30.761719 26.214844 L 40.3125 28.59375 L 43.355469 16.382812 C 42.734375 16.179688 42.214844 15.808594 41.832031 15.335938 Z M 28.296875 29.839844 C 29.378906 29.117188 30.222656 28.03125 30.632812 26.707031 L 40.1875 29.089844 L 38.691406 35.101562 L 33.375 38.296875 Z M 23.984375 30.742188 C 25.355469 30.988281 26.714844 30.738281 27.859375 30.105469 L 32.9375 38.558594 L 27.625 41.75 L 21.613281 40.25 Z M 20.21875 28.324219 C 20.976562 29.414062 22.109375 30.253906 23.484375 30.628906 L 21.117188 40.128906 L 8.851562 37.070312 C 8.953125 36.445312 8.867188 35.828125 8.636719 35.28125 Z M 19.265625 23.871094 C 18.992188 25.296875 19.265625 26.714844 19.945312 27.894531 L 8.402344 34.828125 C 8.058594 34.292969 7.558594 33.863281 6.945312 33.628906 L 9.957031 21.550781 Z M 21.820312 20.054688 C 20.671875 20.804688 19.78125 21.957031 19.382812 23.375 L 10.078125 21.054688 L 11.578125 15.042969 L 16.890625 11.847656 Z M 26.324219 19.246094 C 24.894531 18.921875 23.464844 19.148438 22.261719 19.792969 L 17.328125 11.585938 L 22.640625 8.394531 L 28.65625 9.894531 Z M 43.765625 29.980469 L 40.683594 29.210938 L 39.308594 34.730469 L 43.996094 31.914062 C 43.730469 31.332031 43.640625 30.660156 43.765625 29.980469 Z M 37.179688 41.152344 L 38.515625 35.804688 L 33.640625 38.734375 L 35.257812 41.421875 C 35.835938 41.140625 36.507812 41.035156 37.179688 41.152344 Z M 34.816406 41.679688 L 33.203125 38.996094 L 28.328125 41.925781 L 33.628906 43.246094 C 33.855469 42.59375 34.28125 42.054688 34.816406 41.679688 Z M 22.257812 44.976562 L 27.007812 42.121094 L 21.488281 40.746094 L 20.707031 43.878906 C 21.34375 44.09375 21.878906 44.480469 22.257812 44.976562 Z M 6.492188 20.164062 L 9.585938 20.933594 L 10.960938 15.414062 L 6.195312 18.273438 C 6.480469 18.84375 6.59375 19.5 6.492188 20.164062 Z M 13.128906 8.832031 L 11.753906 14.339844 L 16.628906 11.414062 L 14.894531 8.523438 C 14.363281 8.792969 13.75 8.910156 13.128906 8.832031 Z M 15.328125 8.257812 L 17.066406 11.148438 L 21.941406 8.21875 L 16.386719 6.835938 C 16.175781 7.421875 15.800781 7.90625 15.328125 8.257812 Z M 27.960938 5.199219 C 28.339844 5.726562 28.882812 6.144531 29.535156 6.363281 L 28.777344 9.398438 L 23.257812 8.023438 Z M 27.960938 5.199219 "/>
</g>
</svg>
