<svg xmlns="http://www.w3.org/2000/svg" width="1080" height="1080" viewBox="0 0 1080 1080" version="1.1"><path d="M 374.124 290.628 C 373.465 292.074, 367.267 302.986, 360.350 314.878 C 353.433 326.770, 344.277 342.575, 340.003 350 C 335.729 357.425, 323.264 379.025, 312.302 398 C 286.099 443.357, 286 443.534, 286 445.043 C 286 446.504, 320.173 506.018, 320.982 505.968 C 321.267 505.950, 328 494.587, 335.945 480.718 C 363.251 433.048, 401.728 366.318, 409.465 353.212 L 411.997 348.923 527.249 349.230 L 642.500 349.536 652.500 352.267 C 728.969 373.153, 754.678 467.201, 699.078 522.660 C 694.755 526.972, 688.045 532.525, 684.168 535 C 680.290 537.475, 677.117 539.725, 677.117 540 C 677.117 540.275, 680.277 542.525, 684.139 545 C 706.025 559.026, 722.829 584.876, 727.510 611.719 C 737.458 668.766, 697.821 722.032, 639.500 729.990 C 634.007 730.740, 596.764 730.991, 520.653 730.791 L 409.805 730.500 389.826 696 C 359.729 644.031, 356 637.424, 356 636.078 C 356 635.397, 360.192 627.564, 365.316 618.670 C 394.202 568.533, 446.907 477.230, 451.426 469.500 C 454.320 464.550, 458.895 456.565, 461.594 451.757 L 466.500 443.013 551.727 443.007 L 636.954 443 638.334 440.750 C 639.470 438.898, 660.636 402.188, 669.758 386.250 L 672.190 382 551.345 382.022 L 430.500 382.043 426.435 389.272 C 424.199 393.247, 417.291 405.275, 411.083 416 C 404.875 426.725, 396.289 441.575, 392.002 449 C 387.715 456.425, 378.486 472.400, 371.494 484.500 C 364.502 496.600, 355.275 512.575, 350.991 520 C 313.547 584.883, 301.518 605.702, 293.365 619.732 L 283.932 635.963 295.903 656.732 C 302.486 668.154, 322.685 703.150, 340.788 734.500 L 373.703 791.500 515.602 791.786 C 672.307 792.101, 666.515 792.303, 687 785.792 C 708.772 778.872, 726.765 767.385, 746.080 748.076 C 766.358 727.803, 778.728 708.014, 787.382 682 C 793.925 662.333, 796.018 647.690, 795.531 625 C 794.903 595.767, 787.721 569.739, 773.388 544.750 L 770.664 540 773.398 535.250 C 787.695 510.414, 794.901 484.285, 795.531 455 C 796.016 432.387, 794.008 418.299, 787.443 398.257 C 778.934 372.281, 766.393 352.183, 746.088 331.981 C 726.404 312.398, 708.826 301.185, 686.733 294.120 C 667.154 287.859, 671.077 288, 516.167 288 L 375.321 288 374.124 290.628 M 433.437 577.650 C 431.917 580.318, 428.573 586.100, 426.006 590.500 C 423.439 594.900, 416.735 606.473, 411.108 616.219 L 400.877 633.937 419.823 666.719 L 438.769 699.500 558.833 699.754 L 678.896 700.008 675.633 694.254 C 673.839 691.089, 665.946 677.362, 658.094 663.750 L 643.818 639 559.501 639 L 475.185 639 467.214 625.250 C 462.830 617.688, 454.426 603.175, 448.537 593 C 442.649 582.825, 437.464 574.118, 437.016 573.650 C 436.568 573.183, 434.957 574.983, 433.437 577.650" stroke="none" fill="#fbfbfb" fill-rule="evenodd"/><path d="M 490.500 1.510 C 414.733 8.403, 336.747 33.058, 271.500 70.745 C 209.138 106.765, 153.527 155.557, 109.934 212.500 C 47.692 293.801, 9.794 392.635, 1.033 496.500 C -0.275 512.004, -0.275 567.996, 1.033 583.500 C 10.688 697.962, 54.162 802.544, 128.858 891 C 142.046 906.617, 172.793 937.422, 188 950.252 C 223.200 979.951, 260.289 1004.641, 298 1023.480 C 351.246 1050.080, 403.943 1066.356, 467.873 1075.950 C 504.293 1081.415, 575.707 1081.415, 612.127 1075.950 C 676.057 1066.356, 728.754 1050.080, 782 1023.480 C 833.221 997.892, 880.082 963.943, 922.043 922.025 C 976.891 867.232, 1017.573 804.660, 1045.209 732.586 C 1062.528 687.419, 1075.818 629.137, 1078.649 585.939 C 1079.010 580.434, 1079.687 575.694, 1080.153 575.406 C 1080.619 575.118, 1081 558.682, 1081 538.882 C 1081 519.082, 1080.617 503.119, 1080.148 503.408 C 1079.680 503.698, 1079.003 499.461, 1078.645 493.993 C 1077.141 471.045, 1071.422 436.763, 1064.439 408.833 C 1044.017 327.158, 1005.911 253.463, 950.251 188 C 936.918 172.318, 907.126 142.530, 892 129.757 C 857.003 100.203, 819.165 75.035, 781.500 56.256 C 728.592 29.878, 675.796 13.604, 612.127 4.050 C 585.188 0.008, 521.611 -1.320, 490.500 1.510 M 374.124 290.628 C 373.465 292.074, 367.267 302.986, 360.350 314.878 C 353.433 326.770, 344.277 342.575, 340.003 350 C 335.729 357.425, 323.264 379.025, 312.302 398 C 286.099 443.357, 286 443.534, 286 445.043 C 286 446.504, 320.173 506.018, 320.982 505.968 C 321.267 505.950, 328 494.587, 335.945 480.718 C 363.251 433.048, 401.728 366.318, 409.465 353.212 L 411.997 348.923 527.249 349.230 L 642.500 349.536 652.500 352.267 C 728.969 373.153, 754.678 467.201, 699.078 522.660 C 694.755 526.972, 688.045 532.525, 684.168 535 C 680.290 537.475, 677.117 539.725, 677.117 540 C 677.117 540.275, 680.277 542.525, 684.139 545 C 706.025 559.026, 722.829 584.876, 727.510 611.719 C 737.458 668.766, 697.821 722.032, 639.500 729.990 C 634.007 730.740, 596.764 730.991, 520.653 730.791 L 409.805 730.500 389.826 696 C 359.729 644.031, 356 637.424, 356 636.078 C 356 635.397, 360.192 627.564, 365.316 618.670 C 394.202 568.533, 446.907 477.230, 451.426 469.500 C 454.320 464.550, 458.895 456.565, 461.594 451.757 L 466.500 443.013 551.727 443.007 L 636.954 443 638.334 440.750 C 639.470 438.898, 660.636 402.188, 669.758 386.250 L 672.190 382 551.345 382.022 L 430.500 382.043 426.435 389.272 C 424.199 393.247, 417.291 405.275, 411.083 416 C 404.875 426.725, 396.289 441.575, 392.002 449 C 387.715 456.425, 378.486 472.400, 371.494 484.500 C 364.502 496.600, 355.275 512.575, 350.991 520 C 313.547 584.883, 301.518 605.702, 293.365 619.732 L 283.932 635.963 295.903 656.732 C 302.486 668.154, 322.685 703.150, 340.788 734.500 L 373.703 791.500 515.602 791.786 C 672.307 792.101, 666.515 792.303, 687 785.792 C 708.772 778.872, 726.765 767.385, 746.080 748.076 C 766.358 727.803, 778.728 708.014, 787.382 682 C 793.925 662.333, 796.018 647.690, 795.531 625 C 794.903 595.767, 787.721 569.739, 773.388 544.750 L 770.664 540 773.398 535.250 C 787.695 510.414, 794.901 484.285, 795.531 455 C 796.016 432.387, 794.008 418.299, 787.443 398.257 C 778.934 372.281, 766.393 352.183, 746.088 331.981 C 726.404 312.398, 708.826 301.185, 686.733 294.120 C 667.154 287.859, 671.077 288, 516.167 288 L 375.321 288 374.124 290.628 M 0.452 540 C 0.452 560.075, 0.585 568.288, 0.749 558.250 C 0.912 548.213, 0.912 531.788, 0.749 521.750 C 0.585 511.713, 0.452 519.925, 0.452 540 M 433.437 577.650 C 431.917 580.318, 428.573 586.100, 426.006 590.500 C 423.439 594.900, 416.735 606.473, 411.108 616.219 L 400.877 633.937 419.823 666.719 L 438.769 699.500 558.833 699.754 L 678.896 700.008 675.633 694.254 C 673.839 691.089, 665.946 677.362, 658.094 663.750 L 643.818 639 559.501 639 L 475.185 639 467.214 625.250 C 462.830 617.688, 454.426 603.175, 448.537 593 C 442.649 582.825, 437.464 574.118, 437.016 573.650 C 436.568 573.183, 434.957 574.983, 433.437 577.650" stroke="none" fill="#040404" fill-rule="evenodd"/></svg>