<?xml version="1.0" encoding="UTF-8"?>
<!DOCTYPE svg PUBLIC "-//W3C//DTD SVG 1.1//EN" "http://www.w3.org/Graphics/SVG/1.1/DTD/svg11.dtd">
<svg xmlns="http://www.w3.org/2000/svg" version="1.1" width="150px" height="150px" style="shape-rendering:geometricPrecision; text-rendering:geometricPrecision; image-rendering:optimizeQuality; fill-rule:evenodd; clip-rule:evenodd" xmlns:xlink="http://www.w3.org/1999/xlink">
<g><path style="opacity:1" fill="#f0ede8" d="M 55.5,-0.5 C 56.8333,-0.5 58.1667,-0.5 59.5,-0.5C 61.1667,0.833333 62.8333,0.833333 64.5,-0.5C 71.1667,-0.5 77.8333,-0.5 84.5,-0.5C 86.2646,0.461384 88.2646,0.794717 90.5,0.5C 92.1368,1.37959 93.9701,2.04626 96,2.5C 97.4651,1.67046 98.9651,1.50379 100.5,2C 99.8333,2.33333 99.1667,2.66667 98.5,3C 101.082,4.71288 103.748,5.21288 106.5,4.5C 110.833,7 115.167,9.5 119.5,12C 119.381,13.2812 119.881,14.4479 121,15.5C 122.297,14.2164 123.464,14.3831 124.5,16C 124.167,16.3333 123.833,16.6667 123.5,17C 130.02,23.2585 135.687,30.0918 140.5,37.5C 143.749,43.9888 146.416,50.6554 148.5,57.5C 148.216,59.4147 148.549,61.0813 149.5,62.5C 149.5,70.8333 149.5,79.1667 149.5,87.5C 148.232,89.9052 147.565,92.5718 147.5,95.5C 146.262,97.2143 145.595,99.2143 145.5,101.5C 144.596,102.209 144.263,103.209 144.5,104.5C 143.662,104.842 143.328,105.508 143.5,106.5C 142.662,106.842 142.328,107.508 142.5,108.5C 141.662,108.842 141.328,109.508 141.5,110.5C 140.662,110.842 140.328,111.508 140.5,112.5C 139.833,112.5 139.5,112.833 139.5,113.5C 138.662,113.842 138.328,114.508 138.5,115.5C 137.833,115.5 137.5,115.833 137.5,116.5C 136.662,116.842 136.328,117.508 136.5,118.5C 135.833,118.5 135.5,118.833 135.5,119.5C 134.662,119.842 134.328,120.508 134.5,121.5C 133.833,121.5 133.5,121.833 133.5,122.5C 132.833,122.5 132.5,122.833 132.5,123.5C 131.833,123.5 131.5,123.833 131.5,124.5C 130.833,124.5 130.5,124.833 130.5,125.5C 129.833,125.5 129.5,125.833 129.5,126.5C 128.833,126.5 128.5,126.833 128.5,127.5C 127.833,127.5 127.5,127.833 127.5,128.5C 126.833,128.5 126.5,128.833 126.5,129.5C 125.833,129.5 125.5,129.833 125.5,130.5C 124.833,130.5 124.5,130.833 124.5,131.5C 123.833,131.5 123.5,131.833 123.5,132.5C 122.833,132.5 122.5,132.833 122.5,133.5C 121.167,133.833 121.167,134.167 122.5,134.5C 116.917,139.458 110.584,143.125 103.5,145.5C 102.833,144.167 102.167,144.167 101.5,145.5C 98.8333,145.833 98.8333,146.167 101.5,146.5C 100.791,147.404 99.791,147.737 98.5,147.5C 97.5,146.167 96.5,146.167 95.5,147.5C 91.5,147.833 91.5,148.167 95.5,148.5C 95.5,148.833 95.5,149.167 95.5,149.5C 94.1667,149.5 92.8333,149.5 91.5,149.5C 90.1667,148.167 88.8333,148.167 87.5,149.5C 79.1667,149.5 70.8333,149.5 62.5,149.5C 61.0813,148.549 59.4147,148.216 57.5,148.5C 54.9487,147.516 52.2821,146.516 49.5,145.5C 47.1472,146.565 44.8139,146.398 42.5,145C 39.6612,143.08 36.6612,141.413 33.5,140C 33.6192,138.719 33.1192,137.552 32,136.5C 30.1598,137.833 29.6598,137.666 30.5,136C 19.8253,127.887 11.1587,117.054 4.5,103.5C 4.73731,102.209 4.40397,101.209 3.5,100.5C 2.13923,95.0569 0.805899,89.7236 -0.5,84.5C -0.5,77.8333 -0.5,71.1667 -0.5,64.5C 2.02634,49.9316 8.02634,36.9316 17.5,25.5C 18.1667,25.5 18.5,25.1667 18.5,24.5C 19.5964,22.8968 20.9297,21.3968 22.5,20C 21.7948,18.4435 22.4615,17.2768 24.5,16.5C 25.086,16.7093 25.586,17.0426 26,17.5C 28.0338,16.2566 28.8671,14.7566 28.5,13C 29.4491,12.3828 30.2825,12.5494 31,13.5C 32.1192,12.4479 32.6192,11.2812 32.5,10C 36.0383,7.73146 39.705,5.73146 43.5,4C 47.2221,4.447 50.8888,3.78033 54.5,2C 53.5,1.66667 52.5,1.33333 51.5,1C 53.0581,0.78997 54.3915,0.28997 55.5,-0.5 Z"/></g>
<g><path style="opacity:0.01" fill="#e9e9e9" d="M 90.5,0.5 C 90.5,0.166667 90.5,-0.166667 90.5,-0.5C 91.5,-0.5 92.5,-0.5 93.5,-0.5C 92.791,0.403972 91.791,0.737305 90.5,0.5 Z"/></g>
<g><path style="opacity:0.012" fill="#9b9b9b" d="M 18.5,24.5 C 17.8333,24.5 17.5,24.8333 17.5,25.5C 16.2875,24.5029 16.4542,23.5029 18,22.5C 18.4643,23.0944 18.631,23.7611 18.5,24.5 Z"/></g>
<g><path style="opacity:0.006" fill="#fefffe" d="M 141.5,37.5 C 141.167,37.5 140.833,37.5 140.5,37.5C 140.833,34.8333 141.167,34.8333 141.5,37.5 Z"/></g>
<g><path style="opacity:1" fill="#797775" d="M 82.5,39.5 C 80.2568,38.1883 77.5902,37.5217 74.5,37.5C 71.4098,37.5217 68.7432,38.1883 66.5,39.5C 65.596,38.791 65.2627,37.791 65.5,36.5C 71.5,36.5 77.5,36.5 83.5,36.5C 83.7373,37.791 83.404,38.791 82.5,39.5 Z"/></g>
<g><path style="opacity:1" fill="#050505" d="M 39.5,37.5 C 45.1667,37.5 50.8333,37.5 56.5,37.5C 57.367,45.3686 61.367,51.0353 68.5,54.5C 64.8027,59.0314 60.6361,63.0314 56,66.5C 45.3584,59.8963 39.8584,50.2297 39.5,37.5 Z"/></g>
<g><path style="opacity:1" fill="#080707" d="M 82.5,39.5 C 80.2341,44.7965 76.2341,46.6298 70.5,45C 68.5359,43.549 67.2026,41.7157 66.5,39.5C 68.7432,38.1883 71.4098,37.5217 74.5,37.5C 77.5902,37.5217 80.2568,38.1883 82.5,39.5 Z"/></g>
<g><path style="opacity:1" fill="#070706" d="M 92.5,37.5 C 98.1667,37.5 103.833,37.5 109.5,37.5C 109.369,44.3219 107.535,50.6552 104,56.5C 89.3625,72.1381 74.3625,87.4714 59,102.5C 57.4511,105.312 56.6178,108.312 56.5,111.5C 50.8333,111.5 45.1667,111.5 39.5,111.5C 39.198,104.57 41.0313,98.2369 45,92.5C 59.3041,77.1953 73.9708,62.1953 89,47.5C 90.8681,44.3949 92.0348,41.0615 92.5,37.5 Z"/></g>
<g><path style="opacity:0.008" fill="#fefffe" d="M 141.5,37.5 C 142.833,38.1667 142.833,38.1667 141.5,37.5 Z"/></g>
<g><path style="opacity:0.007" fill="#fefffe" d="M 149.5,53.5 C 149.5,54.8333 149.5,56.1667 149.5,57.5C 149.167,57.5 148.833,57.5 148.5,57.5C 148.232,55.901 148.566,54.5676 149.5,53.5 Z"/></g>
<g><path style="opacity:0.009" fill="#fefffe" d="M -0.5,54.5 C 0.833333,55.8333 0.833333,57.1667 -0.5,58.5C -0.5,57.1667 -0.5,55.8333 -0.5,54.5 Z"/></g>
<g><path style="opacity:1" fill="#050505" d="M 91.5,82.5 C 96.9438,84.0977 101.11,87.431 104,92.5C 107.787,98.2684 109.62,104.602 109.5,111.5C 103.833,111.5 98.1667,111.5 92.5,111.5C 91.6799,103.667 87.6799,97.9999 80.5,94.5C 84.1886,90.4799 87.8553,86.4799 91.5,82.5 Z"/></g>
<g><path style="opacity:0.012" fill="#deddb4" d="M 149.5,92.5 C 149.5,93.5 149.5,94.5 149.5,95.5C 149.167,95.5 148.833,95.5 148.5,95.5C 148.263,94.209 148.596,93.209 149.5,92.5 Z"/></g>
<g><path style="opacity:0.008" fill="#fefffe" d="M 147.5,95.5 C 147.833,95.5 148.167,95.5 148.5,95.5C 148.167,99.5 147.833,99.5 147.5,95.5 Z"/></g>
<g><path style="opacity:0.008" fill="#fefffe" d="M 146.5,101.5 C 146.369,100.761 146.536,100.094 147,99.5C 147.692,100.437 147.525,101.103 146.5,101.5 Z"/></g>
<g><path style="opacity:0.012" fill="#d3d3d3" d="M 3.5,100.5 C 3.5,101.5 3.5,102.5 3.5,103.5C 2.16667,102.5 2.16667,101.5 3.5,100.5 Z"/></g>
<g><path style="opacity:0.012" fill="#d3d3d3" d="M 145.5,101.5 C 145.833,101.5 146.167,101.5 146.5,101.5C 146.737,102.791 146.404,103.791 145.5,104.5C 145.5,103.5 145.5,102.5 145.5,101.5 Z"/></g>
<g><path style="opacity:1" fill="#070707" d="M 82.5,109.5 C 80.2568,110.812 77.5902,111.478 74.5,111.5C 71.4098,111.478 68.7432,110.812 66.5,109.5C 69.0757,103.421 73.4091,101.921 79.5,105C 81.1412,106.129 82.1412,107.629 82.5,109.5 Z"/></g>
<g><path style="opacity:0.004" fill="#fffee2" d="M 3.5,103.5 C 3.83333,103.5 4.16667,103.5 4.5,103.5C 4.16667,106.167 3.83333,106.167 3.5,103.5 Z"/></g>
<g><path style="opacity:0.008" fill="#fefffe" d="M 144.5,104.5 C 144.833,104.5 145.167,104.5 145.5,104.5C 145.672,105.492 145.338,106.158 144.5,106.5C 144.5,105.833 144.5,105.167 144.5,104.5 Z"/></g>
<g><path style="opacity:0.008" fill="#fefffe" d="M 143.5,106.5 C 143.833,106.5 144.167,106.5 144.5,106.5C 144.672,107.492 144.338,108.158 143.5,108.5C 143.5,107.833 143.5,107.167 143.5,106.5 Z"/></g>
<g><path style="opacity:0.008" fill="#fefffe" d="M 142.5,108.5 C 142.833,108.5 143.167,108.5 143.5,108.5C 143.672,109.492 143.338,110.158 142.5,110.5C 142.5,109.833 142.5,109.167 142.5,108.5 Z"/></g>
<g><path style="opacity:1" fill="#797674" d="M 66.5,109.5 C 68.7432,110.812 71.4098,111.478 74.5,111.5C 77.5902,111.478 80.2568,110.812 82.5,109.5C 83.404,110.209 83.7373,111.209 83.5,112.5C 77.5,112.5 71.5,112.5 65.5,112.5C 65.2627,111.209 65.596,110.209 66.5,109.5 Z"/></g>
<g><path style="opacity:0.004" fill="#e1e1e1" d="M 141.5,110.5 C 141.833,110.5 142.167,110.5 142.5,110.5C 142.672,111.492 142.338,112.158 141.5,112.5C 141.5,111.833 141.5,111.167 141.5,110.5 Z"/></g>
<g><path style="opacity:0.008" fill="#fefffe" d="M 140.5,112.5 C 140.833,112.5 141.167,112.5 141.5,112.5C 141.315,113.17 140.981,113.17 140.5,112.5 Z"/></g>
<g><path style="opacity:0.008" fill="#a7a7a7" d="M 139.5,113.5 C 139.833,113.5 140.167,113.5 140.5,113.5C 140.672,114.492 140.338,115.158 139.5,115.5C 139.5,114.833 139.5,114.167 139.5,113.5 Z"/></g>
<g><path style="opacity:0.012" fill="#a9aaa9" d="M 138.5,115.5 C 138.833,115.5 139.167,115.5 139.5,115.5C 139.315,116.17 138.981,116.17 138.5,115.5 Z"/></g>
<g><path style="opacity:0.004" fill="#fefffe" d="M 137.5,116.5 C 137.833,116.5 138.167,116.5 138.5,116.5C 138.672,117.492 138.338,118.158 137.5,118.5C 137.5,117.833 137.5,117.167 137.5,116.5 Z"/></g>
<g><path style="opacity:0.012" fill="#feaaa9" d="M 136.5,118.5 C 136.833,118.5 137.167,118.5 137.5,118.5C 137.315,119.17 136.981,119.17 136.5,118.5 Z"/></g>
<g><path style="opacity:0.006" fill="#fefffe" d="M 135.5,119.5 C 135.833,119.5 136.167,119.5 136.5,119.5C 136.672,120.492 136.338,121.158 135.5,121.5C 135.5,120.833 135.5,120.167 135.5,119.5 Z"/></g>
<g><path style="opacity:0.004" fill="#fefffe" d="M 134.5,121.5 C 134.833,121.5 135.167,121.5 135.5,121.5C 135.315,122.17 134.981,122.17 134.5,121.5 Z"/></g>
<g><path style="opacity:0.008" fill="#fefffe" d="M 133.5,122.5 C 133.833,122.5 134.167,122.5 134.5,122.5C 134.315,123.17 133.981,123.17 133.5,122.5 Z"/></g>
<g><path style="opacity:0.012" fill="#fefffe" d="M 132.5,123.5 C 132.833,123.5 133.167,123.5 133.5,123.5C 133.315,124.17 132.981,124.17 132.5,123.5 Z"/></g>
<g><path style="opacity:0.012" fill="#fefffe" d="M 131.5,124.5 C 131.833,124.5 132.167,124.5 132.5,124.5C 132.315,125.17 131.981,125.17 131.5,124.5 Z"/></g>
<g><path style="opacity:0.004" fill="#ff9d81" d="M 130.5,125.5 C 130.833,125.5 131.167,125.5 131.5,125.5C 131.5,126.833 130.833,127.5 129.5,127.5C 129.5,127.167 129.5,126.833 129.5,126.5C 130.167,126.5 130.5,126.167 130.5,125.5 Z"/></g>
<g><path style="opacity:0.008" fill="#fefffe" d="M 128.5,127.5 C 128.833,127.5 129.167,127.5 129.5,127.5C 129.315,128.17 128.981,128.17 128.5,127.5 Z"/></g>
<g><path style="opacity:0.004" fill="#767676" d="M 127.5,128.5 C 127.833,128.5 128.167,128.5 128.5,128.5C 128.5,129.833 127.833,130.5 126.5,130.5C 126.5,130.167 126.5,129.833 126.5,129.5C 127.167,129.5 127.5,129.167 127.5,128.5 Z"/></g>
<g><path style="opacity:0.012" fill="#fefffe" d="M 125.5,130.5 C 125.833,130.5 126.167,130.5 126.5,130.5C 126.315,131.17 125.981,131.17 125.5,130.5 Z"/></g>
<g><path style="opacity:0.008" fill="#fefffe" d="M 124.5,131.5 C 124.833,131.5 125.167,131.5 125.5,131.5C 125.315,132.17 124.981,132.17 124.5,131.5 Z"/></g>
<g><path style="opacity:0.012" fill="#fefffe" d="M 123.5,132.5 C 123.833,132.5 124.167,132.5 124.5,132.5C 124.315,133.17 123.981,133.17 123.5,132.5 Z"/></g>
<g><path style="opacity:0.008" fill="#fefffe" d="M 122.5,133.5 C 122.833,133.5 123.167,133.5 123.5,133.5C 123.315,134.17 122.981,134.17 122.5,133.5 Z"/></g>
<g><path style="opacity:0.012" fill="#c5c5c5" d="M 101.5,146.5 C 101.5,146.167 101.5,145.833 101.5,145.5C 102.167,145.5 102.833,145.5 103.5,145.5C 103.158,146.338 102.492,146.672 101.5,146.5 Z"/></g>
<g><path style="opacity:0.008" fill="#fefffe" d="M 95.5,148.5 C 95.5,148.167 95.5,147.833 95.5,147.5C 96.5,147.5 97.5,147.5 98.5,147.5C 97.791,148.404 96.791,148.737 95.5,148.5 Z"/></g>
<g><path style="opacity:0.008" fill="#f2f0d5" d="M 53.5,149.5 C 54.5676,148.566 55.901,148.232 57.5,148.5C 57.5,148.833 57.5,149.167 57.5,149.5C 56.1667,149.5 54.8333,149.5 53.5,149.5 Z"/></g>
</svg>
