<?xml version="1.0" encoding="UTF-8"?>
<svg xmlns="http://www.w3.org/2000/svg" xmlns:xlink="http://www.w3.org/1999/xlink" width="50px" height="50px" viewBox="0 0 50 50" version="1.1">
<defs>
<filter id="alpha" filterUnits="objectBoundingBox" x="0%" y="0%" width="100%" height="100%">
  <feColorMatrix type="matrix" in="SourceGraphic" values="0 0 0 0 1 0 0 0 0 1 0 0 0 0 1 0 0 0 1 0"/>
</filter>
<mask id="mask0">
  <g filter="url(#alpha)">
<rect x="0" y="0" width="50" height="50" style="fill:rgb(0%,0%,0%);fill-opacity:0.0117647;stroke:none;"/>
  </g>
</mask>
<clipPath id="clip1">
  <rect x="0" y="0" width="50" height="50"/>
</clipPath>
<g id="surface5" clip-path="url(#clip1)">
<path style=" stroke:none;fill-rule:evenodd;fill:rgb(91.372549%,91.372549%,91.372549%);fill-opacity:1;" d="M 30.167969 0.167969 C 30.167969 0.0546875 30.167969 -0.0546875 30.167969 -0.167969 C 30.5 -0.167969 30.832031 -0.167969 31.167969 -0.167969 C 30.929688 0.132812 30.597656 0.246094 30.167969 0.167969 Z M 30.167969 0.167969 "/>
</g>
<mask id="mask1">
  <g filter="url(#alpha)">
<rect x="0" y="0" width="50" height="50" style="fill:rgb(0%,0%,0%);fill-opacity:0.0117647;stroke:none;"/>
  </g>
</mask>
<clipPath id="clip2">
  <rect x="0" y="0" width="50" height="50"/>
</clipPath>
<g id="surface8" clip-path="url(#clip2)">
<path style=" stroke:none;fill-rule:evenodd;fill:rgb(60.784314%,60.784314%,60.784314%);fill-opacity:1;" d="M 6.167969 8.167969 C 5.945312 8.167969 5.832031 8.277344 5.832031 8.5 C 5.429688 8.167969 5.484375 7.835938 6 7.5 C 6.15625 7.699219 6.210938 7.921875 6.167969 8.167969 Z M 6.167969 8.167969 "/>
</g>
<mask id="mask2">
  <g filter="url(#alpha)">
<rect x="0" y="0" width="50" height="50" style="fill:rgb(0%,0%,0%);fill-opacity:0.00784314;stroke:none;"/>
  </g>
</mask>
<clipPath id="clip3">
  <rect x="0" y="0" width="50" height="50"/>
</clipPath>
<g id="surface11" clip-path="url(#clip3)">
<path style=" stroke:none;fill-rule:evenodd;fill:rgb(99.607843%,100%,99.607843%);fill-opacity:1;" d="M 47.167969 12.5 C 47.054688 12.5 46.945312 12.5 46.832031 12.5 C 46.945312 11.609375 47.054688 11.609375 47.167969 12.5 Z M 47.167969 12.5 "/>
</g>
<mask id="mask3">
  <g filter="url(#alpha)">
<rect x="0" y="0" width="50" height="50" style="fill:rgb(0%,0%,0%);fill-opacity:0.00784314;stroke:none;"/>
  </g>
</mask>
<clipPath id="clip4">
  <rect x="0" y="0" width="50" height="50"/>
</clipPath>
<g id="surface14" clip-path="url(#clip4)">
<path style=" stroke:none;fill-rule:evenodd;fill:rgb(99.607843%,100%,99.607843%);fill-opacity:1;" d="M 47.167969 12.5 C 47.609375 12.722656 47.609375 12.722656 47.167969 12.5 Z M 47.167969 12.5 "/>
</g>
<mask id="mask4">
  <g filter="url(#alpha)">
<rect x="0" y="0" width="50" height="50" style="fill:rgb(0%,0%,0%);fill-opacity:0.00784314;stroke:none;"/>
  </g>
</mask>
<clipPath id="clip5">
  <rect x="0" y="0" width="50" height="50"/>
</clipPath>
<g id="surface17" clip-path="url(#clip5)">
<path style=" stroke:none;fill-rule:evenodd;fill:rgb(99.607843%,100%,99.607843%);fill-opacity:1;" d="M 49.832031 17.832031 C 49.832031 18.277344 49.832031 18.722656 49.832031 19.167969 C 49.722656 19.167969 49.609375 19.167969 49.5 19.167969 C 49.410156 18.632812 49.523438 18.1875 49.832031 17.832031 Z M 49.832031 17.832031 "/>
</g>
<mask id="mask5">
  <g filter="url(#alpha)">
<rect x="0" y="0" width="50" height="50" style="fill:rgb(0%,0%,0%);fill-opacity:0.00784314;stroke:none;"/>
  </g>
</mask>
<clipPath id="clip6">
  <rect x="0" y="0" width="50" height="50"/>
</clipPath>
<g id="surface20" clip-path="url(#clip6)">
<path style=" stroke:none;fill-rule:evenodd;fill:rgb(99.607843%,100%,99.607843%);fill-opacity:1;" d="M -0.167969 18.167969 C 0.277344 18.609375 0.277344 19.054688 -0.167969 19.5 C -0.167969 19.054688 -0.167969 18.609375 -0.167969 18.167969 Z M -0.167969 18.167969 "/>
</g>
<mask id="mask6">
  <g filter="url(#alpha)">
<rect x="0" y="0" width="50" height="50" style="fill:rgb(0%,0%,0%);fill-opacity:0.0117647;stroke:none;"/>
  </g>
</mask>
<clipPath id="clip7">
  <rect x="0" y="0" width="50" height="50"/>
</clipPath>
<g id="surface23" clip-path="url(#clip7)">
<path style=" stroke:none;fill-rule:evenodd;fill:rgb(87.058824%,86.666667%,70.588235%);fill-opacity:1;" d="M 49.832031 30.832031 C 49.832031 31.167969 49.832031 31.5 49.832031 31.832031 C 49.722656 31.832031 49.609375 31.832031 49.5 31.832031 C 49.421875 31.402344 49.53125 31.070312 49.832031 30.832031 Z M 49.832031 30.832031 "/>
</g>
<mask id="mask7">
  <g filter="url(#alpha)">
<rect x="0" y="0" width="50" height="50" style="fill:rgb(0%,0%,0%);fill-opacity:0.00784314;stroke:none;"/>
  </g>
</mask>
<clipPath id="clip8">
  <rect x="0" y="0" width="50" height="50"/>
</clipPath>
<g id="surface26" clip-path="url(#clip8)">
<path style=" stroke:none;fill-rule:evenodd;fill:rgb(99.607843%,100%,99.607843%);fill-opacity:1;" d="M 49.167969 31.832031 C 49.277344 31.832031 49.390625 31.832031 49.5 31.832031 C 49.390625 33.167969 49.277344 33.167969 49.167969 31.832031 Z M 49.167969 31.832031 "/>
</g>
<mask id="mask8">
  <g filter="url(#alpha)">
<rect x="0" y="0" width="50" height="50" style="fill:rgb(0%,0%,0%);fill-opacity:0.00784314;stroke:none;"/>
  </g>
</mask>
<clipPath id="clip9">
  <rect x="0" y="0" width="50" height="50"/>
</clipPath>
<g id="surface29" clip-path="url(#clip9)">
<path style=" stroke:none;fill-rule:evenodd;fill:rgb(99.607843%,100%,99.607843%);fill-opacity:1;" d="M 48.832031 33.832031 C 48.789062 33.585938 48.84375 33.363281 49 33.167969 C 49.230469 33.480469 49.175781 33.699219 48.832031 33.832031 Z M 48.832031 33.832031 "/>
</g>
<mask id="mask9">
  <g filter="url(#alpha)">
<rect x="0" y="0" width="50" height="50" style="fill:rgb(0%,0%,0%);fill-opacity:0.0117647;stroke:none;"/>
  </g>
</mask>
<clipPath id="clip10">
  <rect x="0" y="0" width="50" height="50"/>
</clipPath>
<g id="surface32" clip-path="url(#clip10)">
<path style=" stroke:none;fill-rule:evenodd;fill:rgb(82.745098%,82.745098%,82.745098%);fill-opacity:1;" d="M 1.167969 33.5 C 1.167969 33.832031 1.167969 34.167969 1.167969 34.5 C 0.722656 34.167969 0.722656 33.832031 1.167969 33.5 Z M 1.167969 33.5 "/>
</g>
<mask id="mask10">
  <g filter="url(#alpha)">
<rect x="0" y="0" width="50" height="50" style="fill:rgb(0%,0%,0%);fill-opacity:0.0117647;stroke:none;"/>
  </g>
</mask>
<clipPath id="clip11">
  <rect x="0" y="0" width="50" height="50"/>
</clipPath>
<g id="surface35" clip-path="url(#clip11)">
<path style=" stroke:none;fill-rule:evenodd;fill:rgb(82.745098%,82.745098%,82.745098%);fill-opacity:1;" d="M 48.5 33.832031 C 48.609375 33.832031 48.722656 33.832031 48.832031 33.832031 C 48.914062 34.261719 48.800781 34.597656 48.5 34.832031 C 48.5 34.5 48.5 34.167969 48.5 33.832031 Z M 48.5 33.832031 "/>
</g>
<mask id="mask11">
  <g filter="url(#alpha)">
<rect x="0" y="0" width="50" height="50" style="fill:rgb(0%,0%,0%);fill-opacity:0.00392157;stroke:none;"/>
  </g>
</mask>
<clipPath id="clip12">
  <rect x="0" y="0" width="50" height="50"/>
</clipPath>
<g id="surface38" clip-path="url(#clip12)">
<path style=" stroke:none;fill-rule:evenodd;fill:rgb(100%,99.607843%,88.627451%);fill-opacity:1;" d="M 1.167969 34.5 C 1.277344 34.5 1.390625 34.5 1.5 34.5 C 1.390625 35.390625 1.277344 35.390625 1.167969 34.5 Z M 1.167969 34.5 "/>
</g>
<mask id="mask12">
  <g filter="url(#alpha)">
<rect x="0" y="0" width="50" height="50" style="fill:rgb(0%,0%,0%);fill-opacity:0.00784314;stroke:none;"/>
  </g>
</mask>
<clipPath id="clip13">
  <rect x="0" y="0" width="50" height="50"/>
</clipPath>
<g id="surface41" clip-path="url(#clip13)">
<path style=" stroke:none;fill-rule:evenodd;fill:rgb(99.607843%,100%,99.607843%);fill-opacity:1;" d="M 48.167969 34.832031 C 48.277344 34.832031 48.390625 34.832031 48.5 34.832031 C 48.558594 35.164062 48.445312 35.386719 48.167969 35.5 C 48.167969 35.277344 48.167969 35.054688 48.167969 34.832031 Z M 48.167969 34.832031 "/>
</g>
<mask id="mask13">
  <g filter="url(#alpha)">
<rect x="0" y="0" width="50" height="50" style="fill:rgb(0%,0%,0%);fill-opacity:0.00784314;stroke:none;"/>
  </g>
</mask>
<clipPath id="clip14">
  <rect x="0" y="0" width="50" height="50"/>
</clipPath>
<g id="surface44" clip-path="url(#clip14)">
<path style=" stroke:none;fill-rule:evenodd;fill:rgb(99.607843%,100%,99.607843%);fill-opacity:1;" d="M 47.832031 35.5 C 47.945312 35.5 48.054688 35.5 48.167969 35.5 C 48.222656 35.832031 48.113281 36.050781 47.832031 36.167969 C 47.832031 35.945312 47.832031 35.722656 47.832031 35.5 Z M 47.832031 35.5 "/>
</g>
<mask id="mask14">
  <g filter="url(#alpha)">
<rect x="0" y="0" width="50" height="50" style="fill:rgb(0%,0%,0%);fill-opacity:0.00784314;stroke:none;"/>
  </g>
</mask>
<clipPath id="clip15">
  <rect x="0" y="0" width="50" height="50"/>
</clipPath>
<g id="surface47" clip-path="url(#clip15)">
<path style=" stroke:none;fill-rule:evenodd;fill:rgb(99.607843%,100%,99.607843%);fill-opacity:1;" d="M 47.5 36.167969 C 47.609375 36.167969 47.722656 36.167969 47.832031 36.167969 C 47.890625 36.496094 47.78125 36.71875 47.5 36.832031 C 47.5 36.609375 47.5 36.390625 47.5 36.167969 Z M 47.5 36.167969 "/>
</g>
<mask id="mask15">
  <g filter="url(#alpha)">
<rect x="0" y="0" width="50" height="50" style="fill:rgb(0%,0%,0%);fill-opacity:0.00392157;stroke:none;"/>
  </g>
</mask>
<clipPath id="clip16">
  <rect x="0" y="0" width="50" height="50"/>
</clipPath>
<g id="surface50" clip-path="url(#clip16)">
<path style=" stroke:none;fill-rule:evenodd;fill:rgb(88.235294%,88.235294%,88.235294%);fill-opacity:1;" d="M 47.167969 36.832031 C 47.277344 36.832031 47.390625 36.832031 47.5 36.832031 C 47.558594 37.164062 47.445312 37.386719 47.167969 37.5 C 47.167969 37.277344 47.167969 37.054688 47.167969 36.832031 Z M 47.167969 36.832031 "/>
</g>
<mask id="mask16">
  <g filter="url(#alpha)">
<rect x="0" y="0" width="50" height="50" style="fill:rgb(0%,0%,0%);fill-opacity:0.00784314;stroke:none;"/>
  </g>
</mask>
<clipPath id="clip17">
  <rect x="0" y="0" width="50" height="50"/>
</clipPath>
<g id="surface53" clip-path="url(#clip17)">
<path style=" stroke:none;fill-rule:evenodd;fill:rgb(99.607843%,100%,99.607843%);fill-opacity:1;" d="M 46.832031 37.5 C 46.945312 37.5 47.054688 37.5 47.167969 37.5 C 47.105469 37.722656 46.992188 37.722656 46.832031 37.5 Z M 46.832031 37.5 "/>
</g>
<mask id="mask17">
  <g filter="url(#alpha)">
<rect x="0" y="0" width="50" height="50" style="fill:rgb(0%,0%,0%);fill-opacity:0.00784314;stroke:none;"/>
  </g>
</mask>
<clipPath id="clip18">
  <rect x="0" y="0" width="50" height="50"/>
</clipPath>
<g id="surface56" clip-path="url(#clip18)">
<path style=" stroke:none;fill-rule:evenodd;fill:rgb(65.490196%,65.490196%,65.490196%);fill-opacity:1;" d="M 46.5 37.832031 C 46.609375 37.832031 46.722656 37.832031 46.832031 37.832031 C 46.890625 38.164062 46.78125 38.386719 46.5 38.5 C 46.5 38.277344 46.5 38.054688 46.5 37.832031 Z M 46.5 37.832031 "/>
</g>
<mask id="mask18">
  <g filter="url(#alpha)">
<rect x="0" y="0" width="50" height="50" style="fill:rgb(0%,0%,0%);fill-opacity:0.0117647;stroke:none;"/>
  </g>
</mask>
<clipPath id="clip19">
  <rect x="0" y="0" width="50" height="50"/>
</clipPath>
<g id="surface59" clip-path="url(#clip19)">
<path style=" stroke:none;fill-rule:evenodd;fill:rgb(66.27451%,66.666667%,66.27451%);fill-opacity:1;" d="M 46.167969 38.5 C 46.277344 38.5 46.390625 38.5 46.5 38.5 C 46.4375 38.722656 46.328125 38.722656 46.167969 38.5 Z M 46.167969 38.5 "/>
</g>
<mask id="mask19">
  <g filter="url(#alpha)">
<rect x="0" y="0" width="50" height="50" style="fill:rgb(0%,0%,0%);fill-opacity:0.00392157;stroke:none;"/>
  </g>
</mask>
<clipPath id="clip20">
  <rect x="0" y="0" width="50" height="50"/>
</clipPath>
<g id="surface62" clip-path="url(#clip20)">
<path style=" stroke:none;fill-rule:evenodd;fill:rgb(99.607843%,100%,99.607843%);fill-opacity:1;" d="M 45.832031 38.832031 C 45.945312 38.832031 46.054688 38.832031 46.167969 38.832031 C 46.222656 39.164062 46.113281 39.386719 45.832031 39.5 C 45.832031 39.277344 45.832031 39.054688 45.832031 38.832031 Z M 45.832031 38.832031 "/>
</g>
<mask id="mask20">
  <g filter="url(#alpha)">
<rect x="0" y="0" width="50" height="50" style="fill:rgb(0%,0%,0%);fill-opacity:0.0117647;stroke:none;"/>
  </g>
</mask>
<clipPath id="clip21">
  <rect x="0" y="0" width="50" height="50"/>
</clipPath>
<g id="surface65" clip-path="url(#clip21)">
<path style=" stroke:none;fill-rule:evenodd;fill:rgb(99.607843%,66.666667%,66.27451%);fill-opacity:1;" d="M 45.5 39.5 C 45.609375 39.5 45.722656 39.5 45.832031 39.5 C 45.773438 39.722656 45.660156 39.722656 45.5 39.5 Z M 45.5 39.5 "/>
</g>
<mask id="mask21">
  <g filter="url(#alpha)">
<rect x="0" y="0" width="50" height="50" style="fill:rgb(0%,0%,0%);fill-opacity:0.00784314;stroke:none;"/>
  </g>
</mask>
<clipPath id="clip22">
  <rect x="0" y="0" width="50" height="50"/>
</clipPath>
<g id="surface68" clip-path="url(#clip22)">
<path style=" stroke:none;fill-rule:evenodd;fill:rgb(99.607843%,100%,99.607843%);fill-opacity:1;" d="M 45.167969 39.832031 C 45.277344 39.832031 45.390625 39.832031 45.5 39.832031 C 45.558594 40.164062 45.445312 40.386719 45.167969 40.5 C 45.167969 40.277344 45.167969 40.054688 45.167969 39.832031 Z M 45.167969 39.832031 "/>
</g>
<mask id="mask22">
  <g filter="url(#alpha)">
<rect x="0" y="0" width="50" height="50" style="fill:rgb(0%,0%,0%);fill-opacity:0.00392157;stroke:none;"/>
  </g>
</mask>
<clipPath id="clip23">
  <rect x="0" y="0" width="50" height="50"/>
</clipPath>
<g id="surface71" clip-path="url(#clip23)">
<path style=" stroke:none;fill-rule:evenodd;fill:rgb(99.607843%,100%,99.607843%);fill-opacity:1;" d="M 44.832031 40.5 C 44.945312 40.5 45.054688 40.5 45.167969 40.5 C 45.105469 40.722656 44.992188 40.722656 44.832031 40.5 Z M 44.832031 40.5 "/>
</g>
<mask id="mask23">
  <g filter="url(#alpha)">
<rect x="0" y="0" width="50" height="50" style="fill:rgb(0%,0%,0%);fill-opacity:0.00784314;stroke:none;"/>
  </g>
</mask>
<clipPath id="clip24">
  <rect x="0" y="0" width="50" height="50"/>
</clipPath>
<g id="surface74" clip-path="url(#clip24)">
<path style=" stroke:none;fill-rule:evenodd;fill:rgb(99.607843%,100%,99.607843%);fill-opacity:1;" d="M 44.5 40.832031 C 44.609375 40.832031 44.722656 40.832031 44.832031 40.832031 C 44.773438 41.058594 44.660156 41.058594 44.5 40.832031 Z M 44.5 40.832031 "/>
</g>
<mask id="mask24">
  <g filter="url(#alpha)">
<rect x="0" y="0" width="50" height="50" style="fill:rgb(0%,0%,0%);fill-opacity:0.0117647;stroke:none;"/>
  </g>
</mask>
<clipPath id="clip25">
  <rect x="0" y="0" width="50" height="50"/>
</clipPath>
<g id="surface77" clip-path="url(#clip25)">
<path style=" stroke:none;fill-rule:evenodd;fill:rgb(99.607843%,100%,99.607843%);fill-opacity:1;" d="M 44.167969 41.167969 C 44.277344 41.167969 44.390625 41.167969 44.5 41.167969 C 44.4375 41.390625 44.328125 41.390625 44.167969 41.167969 Z M 44.167969 41.167969 "/>
</g>
<mask id="mask25">
  <g filter="url(#alpha)">
<rect x="0" y="0" width="50" height="50" style="fill:rgb(0%,0%,0%);fill-opacity:0.0117647;stroke:none;"/>
  </g>
</mask>
<clipPath id="clip26">
  <rect x="0" y="0" width="50" height="50"/>
</clipPath>
<g id="surface80" clip-path="url(#clip26)">
<path style=" stroke:none;fill-rule:evenodd;fill:rgb(99.607843%,100%,99.607843%);fill-opacity:1;" d="M 43.832031 41.5 C 43.945312 41.5 44.054688 41.5 44.167969 41.5 C 44.105469 41.722656 43.992188 41.722656 43.832031 41.5 Z M 43.832031 41.5 "/>
</g>
<mask id="mask26">
  <g filter="url(#alpha)">
<rect x="0" y="0" width="50" height="50" style="fill:rgb(0%,0%,0%);fill-opacity:0.00392157;stroke:none;"/>
  </g>
</mask>
<clipPath id="clip27">
  <rect x="0" y="0" width="50" height="50"/>
</clipPath>
<g id="surface83" clip-path="url(#clip27)">
<path style=" stroke:none;fill-rule:evenodd;fill:rgb(100%,61.568627%,50.588235%);fill-opacity:1;" d="M 43.5 41.832031 C 43.609375 41.832031 43.722656 41.832031 43.832031 41.832031 C 43.832031 42.277344 43.609375 42.5 43.167969 42.5 C 43.167969 42.390625 43.167969 42.277344 43.167969 42.167969 C 43.390625 42.167969 43.5 42.054688 43.5 41.832031 Z M 43.5 41.832031 "/>
</g>
<mask id="mask27">
  <g filter="url(#alpha)">
<rect x="0" y="0" width="50" height="50" style="fill:rgb(0%,0%,0%);fill-opacity:0.00784314;stroke:none;"/>
  </g>
</mask>
<clipPath id="clip28">
  <rect x="0" y="0" width="50" height="50"/>
</clipPath>
<g id="surface86" clip-path="url(#clip28)">
<path style=" stroke:none;fill-rule:evenodd;fill:rgb(99.607843%,100%,99.607843%);fill-opacity:1;" d="M 42.832031 42.5 C 42.945312 42.5 43.054688 42.5 43.167969 42.5 C 43.105469 42.722656 42.992188 42.722656 42.832031 42.5 Z M 42.832031 42.5 "/>
</g>
<mask id="mask28">
  <g filter="url(#alpha)">
<rect x="0" y="0" width="50" height="50" style="fill:rgb(0%,0%,0%);fill-opacity:0.00392157;stroke:none;"/>
  </g>
</mask>
<clipPath id="clip29">
  <rect x="0" y="0" width="50" height="50"/>
</clipPath>
<g id="surface89" clip-path="url(#clip29)">
<path style=" stroke:none;fill-rule:evenodd;fill:rgb(46.27451%,46.27451%,46.27451%);fill-opacity:1;" d="M 42.5 42.832031 C 42.609375 42.832031 42.722656 42.832031 42.832031 42.832031 C 42.832031 43.277344 42.609375 43.5 42.167969 43.5 C 42.167969 43.390625 42.167969 43.277344 42.167969 43.167969 C 42.390625 43.167969 42.5 43.054688 42.5 42.832031 Z M 42.5 42.832031 "/>
</g>
<mask id="mask29">
  <g filter="url(#alpha)">
<rect x="0" y="0" width="50" height="50" style="fill:rgb(0%,0%,0%);fill-opacity:0.0117647;stroke:none;"/>
  </g>
</mask>
<clipPath id="clip30">
  <rect x="0" y="0" width="50" height="50"/>
</clipPath>
<g id="surface92" clip-path="url(#clip30)">
<path style=" stroke:none;fill-rule:evenodd;fill:rgb(99.607843%,100%,99.607843%);fill-opacity:1;" d="M 41.832031 43.5 C 41.945312 43.5 42.054688 43.5 42.167969 43.5 C 42.105469 43.722656 41.992188 43.722656 41.832031 43.5 Z M 41.832031 43.5 "/>
</g>
<mask id="mask30">
  <g filter="url(#alpha)">
<rect x="0" y="0" width="50" height="50" style="fill:rgb(0%,0%,0%);fill-opacity:0.00784314;stroke:none;"/>
  </g>
</mask>
<clipPath id="clip31">
  <rect x="0" y="0" width="50" height="50"/>
</clipPath>
<g id="surface95" clip-path="url(#clip31)">
<path style=" stroke:none;fill-rule:evenodd;fill:rgb(99.607843%,100%,99.607843%);fill-opacity:1;" d="M 41.5 43.832031 C 41.609375 43.832031 41.722656 43.832031 41.832031 43.832031 C 41.773438 44.058594 41.660156 44.058594 41.5 43.832031 Z M 41.5 43.832031 "/>
</g>
<mask id="mask31">
  <g filter="url(#alpha)">
<rect x="0" y="0" width="50" height="50" style="fill:rgb(0%,0%,0%);fill-opacity:0.0117647;stroke:none;"/>
  </g>
</mask>
<clipPath id="clip32">
  <rect x="0" y="0" width="50" height="50"/>
</clipPath>
<g id="surface98" clip-path="url(#clip32)">
<path style=" stroke:none;fill-rule:evenodd;fill:rgb(99.607843%,100%,99.607843%);fill-opacity:1;" d="M 41.167969 44.167969 C 41.277344 44.167969 41.390625 44.167969 41.5 44.167969 C 41.4375 44.390625 41.328125 44.390625 41.167969 44.167969 Z M 41.167969 44.167969 "/>
</g>
<mask id="mask32">
  <g filter="url(#alpha)">
<rect x="0" y="0" width="50" height="50" style="fill:rgb(0%,0%,0%);fill-opacity:0.00784314;stroke:none;"/>
  </g>
</mask>
<clipPath id="clip33">
  <rect x="0" y="0" width="50" height="50"/>
</clipPath>
<g id="surface101" clip-path="url(#clip33)">
<path style=" stroke:none;fill-rule:evenodd;fill:rgb(99.607843%,100%,99.607843%);fill-opacity:1;" d="M 40.832031 44.5 C 40.945312 44.5 41.054688 44.5 41.167969 44.5 C 41.105469 44.722656 40.992188 44.722656 40.832031 44.5 Z M 40.832031 44.5 "/>
</g>
<mask id="mask33">
  <g filter="url(#alpha)">
<rect x="0" y="0" width="50" height="50" style="fill:rgb(0%,0%,0%);fill-opacity:0.0117647;stroke:none;"/>
  </g>
</mask>
<clipPath id="clip34">
  <rect x="0" y="0" width="50" height="50"/>
</clipPath>
<g id="surface104" clip-path="url(#clip34)">
<path style=" stroke:none;fill-rule:evenodd;fill:rgb(77.254902%,77.254902%,77.254902%);fill-opacity:1;" d="M 33.832031 48.832031 C 33.832031 48.722656 33.832031 48.609375 33.832031 48.5 C 34.054688 48.5 34.277344 48.5 34.5 48.5 C 34.386719 48.78125 34.164062 48.890625 33.832031 48.832031 Z M 33.832031 48.832031 "/>
</g>
<mask id="mask34">
  <g filter="url(#alpha)">
<rect x="0" y="0" width="50" height="50" style="fill:rgb(0%,0%,0%);fill-opacity:0.00784314;stroke:none;"/>
  </g>
</mask>
<clipPath id="clip35">
  <rect x="0" y="0" width="50" height="50"/>
</clipPath>
<g id="surface107" clip-path="url(#clip35)">
<path style=" stroke:none;fill-rule:evenodd;fill:rgb(99.607843%,100%,99.607843%);fill-opacity:1;" d="M 31.832031 49.5 C 31.832031 49.390625 31.832031 49.277344 31.832031 49.167969 C 32.167969 49.167969 32.5 49.167969 32.832031 49.167969 C 32.597656 49.46875 32.261719 49.578125 31.832031 49.5 Z M 31.832031 49.5 "/>
</g>
<mask id="mask35">
  <g filter="url(#alpha)">
<rect x="0" y="0" width="50" height="50" style="fill:rgb(0%,0%,0%);fill-opacity:0.00784314;stroke:none;"/>
  </g>
</mask>
<clipPath id="clip36">
  <rect x="0" y="0" width="50" height="50"/>
</clipPath>
<g id="surface110" clip-path="url(#clip36)">
<path style=" stroke:none;fill-rule:evenodd;fill:rgb(94.901961%,94.117647%,83.529412%);fill-opacity:1;" d="M 17.832031 49.832031 C 18.1875 49.523438 18.632812 49.410156 19.167969 49.5 C 19.167969 49.609375 19.167969 49.722656 19.167969 49.832031 C 18.722656 49.832031 18.277344 49.832031 17.832031 49.832031 Z M 17.832031 49.832031 "/>
</g>
</defs>
<g id="surface1">
<path style=" stroke:none;fill-rule:evenodd;fill:rgb(94.117647%,92.941176%,90.980392%);fill-opacity:1;" d="M 18.5 -0.167969 C 18.945312 -0.167969 19.390625 -0.167969 19.832031 -0.167969 C 20.390625 0.277344 20.945312 0.277344 21.5 -0.167969 C 23.722656 -0.167969 25.945312 -0.167969 28.167969 -0.167969 C 28.753906 0.152344 29.421875 0.265625 30.167969 0.167969 C 30.710938 0.460938 31.324219 0.683594 32 0.832031 C 32.488281 0.558594 32.988281 0.5 33.5 0.667969 C 33.277344 0.777344 33.054688 0.890625 32.832031 1 C 33.695312 1.570312 34.582031 1.738281 35.5 1.5 C 36.945312 2.332031 38.390625 3.167969 39.832031 4 C 39.792969 4.425781 39.960938 4.816406 40.332031 5.167969 C 40.765625 4.738281 41.15625 4.792969 41.5 5.332031 C 41.390625 5.445312 41.277344 5.554688 41.167969 5.667969 C 43.339844 7.753906 45.230469 10.03125 46.832031 12.5 C 47.917969 14.664062 48.804688 16.886719 49.5 19.167969 C 49.40625 19.804688 49.515625 20.359375 49.832031 20.832031 C 49.832031 23.609375 49.832031 26.390625 49.832031 29.167969 C 49.410156 29.96875 49.1875 30.855469 49.167969 31.832031 C 48.753906 32.40625 48.53125 33.070312 48.5 33.832031 C 48.199219 34.070312 48.085938 34.402344 48.167969 34.832031 C 47.886719 34.949219 47.777344 35.167969 47.832031 35.5 C 47.554688 35.613281 47.441406 35.835938 47.5 36.167969 C 47.21875 36.28125 47.109375 36.503906 47.167969 36.832031 C 46.886719 36.949219 46.777344 37.167969 46.832031 37.5 C 46.609375 37.5 46.5 37.609375 46.5 37.832031 C 46.21875 37.949219 46.109375 38.167969 46.167969 38.5 C 45.945312 38.5 45.832031 38.609375 45.832031 38.832031 C 45.554688 38.949219 45.441406 39.167969 45.5 39.5 C 45.277344 39.5 45.167969 39.609375 45.167969 39.832031 C 44.886719 39.949219 44.777344 40.167969 44.832031 40.5 C 44.609375 40.5 44.5 40.609375 44.5 40.832031 C 44.277344 40.832031 44.167969 40.945312 44.167969 41.167969 C 43.945312 41.167969 43.832031 41.277344 43.832031 41.5 C 43.609375 41.5 43.5 41.609375 43.5 41.832031 C 43.277344 41.832031 43.167969 41.945312 43.167969 42.167969 C 42.945312 42.167969 42.832031 42.277344 42.832031 42.5 C 42.609375 42.5 42.5 42.609375 42.5 42.832031 C 42.277344 42.832031 42.167969 42.945312 42.167969 43.167969 C 41.945312 43.167969 41.832031 43.277344 41.832031 43.5 C 41.609375 43.5 41.5 43.609375 41.5 43.832031 C 41.277344 43.832031 41.167969 43.945312 41.167969 44.167969 C 40.945312 44.167969 40.832031 44.277344 40.832031 44.5 C 40.390625 44.609375 40.390625 44.722656 40.832031 44.832031 C 38.972656 46.484375 36.863281 47.707031 34.5 48.5 C 34.277344 48.054688 34.054688 48.054688 33.832031 48.5 C 32.945312 48.609375 32.945312 48.722656 33.832031 48.832031 C 33.597656 49.132812 33.261719 49.246094 32.832031 49.167969 C 32.5 48.722656 32.167969 48.722656 31.832031 49.167969 C 30.5 49.277344 30.5 49.390625 31.832031 49.5 C 31.832031 49.609375 31.832031 49.722656 31.832031 49.832031 C 31.390625 49.832031 30.945312 49.832031 30.5 49.832031 C 30.054688 49.390625 29.609375 49.390625 29.167969 49.832031 C 26.390625 49.832031 23.609375 49.832031 20.832031 49.832031 C 20.359375 49.515625 19.804688 49.40625 19.167969 49.5 C 18.316406 49.171875 17.425781 48.839844 16.5 48.5 C 15.714844 48.855469 14.9375 48.800781 14.167969 48.332031 C 13.21875 47.691406 12.21875 47.136719 11.167969 46.667969 C 11.207031 46.238281 11.039062 45.851562 10.667969 45.5 C 10.054688 45.945312 9.886719 45.886719 10.167969 45.332031 C 6.609375 42.628906 3.71875 39.019531 1.5 34.5 C 1.578125 34.070312 1.46875 33.738281 1.167969 33.5 C 0.714844 31.6875 0.269531 29.90625 -0.167969 28.167969 C -0.167969 25.945312 -0.167969 23.722656 -0.167969 21.5 C 0.675781 16.644531 2.675781 12.308594 5.832031 8.5 C 6.054688 8.5 6.167969 8.390625 6.167969 8.167969 C 6.53125 7.632812 6.976562 7.132812 7.5 6.667969 C 7.265625 6.148438 7.488281 5.757812 8.167969 5.5 C 8.363281 5.570312 8.527344 5.679688 8.667969 5.832031 C 9.34375 5.417969 9.621094 4.917969 9.5 4.332031 C 9.816406 4.128906 10.09375 4.183594 10.332031 4.5 C 10.707031 4.148438 10.875 3.761719 10.832031 3.332031 C 12.011719 2.578125 13.234375 1.910156 14.5 1.332031 C 15.742188 1.480469 16.964844 1.261719 18.167969 0.667969 C 17.832031 0.554688 17.5 0.445312 17.167969 0.332031 C 17.6875 0.261719 18.128906 0.0976562 18.5 -0.167969 Z M 18.5 -0.167969 "/>
<use xlink:href="#surface5" mask="url(#mask0)"/>
<use xlink:href="#surface8" mask="url(#mask1)"/>
<use xlink:href="#surface11" mask="url(#mask2)"/>
<path style=" stroke:none;fill-rule:evenodd;fill:rgb(47.45098%,46.666667%,45.882353%);fill-opacity:1;" d="M 27.5 13.167969 C 26.753906 12.730469 25.863281 12.507812 24.832031 12.5 C 23.804688 12.507812 22.914062 12.730469 22.167969 13.167969 C 21.867188 12.929688 21.753906 12.597656 21.832031 12.167969 C 23.832031 12.167969 25.832031 12.167969 27.832031 12.167969 C 27.914062 12.597656 27.800781 12.929688 27.5 13.167969 Z M 27.5 13.167969 "/>
<path style=" stroke:none;fill-rule:evenodd;fill:rgb(1.960784%,1.960784%,1.960784%);fill-opacity:1;" d="M 13.167969 12.5 C 15.054688 12.5 16.945312 12.5 18.832031 12.5 C 19.121094 15.121094 20.457031 17.011719 22.832031 18.167969 C 21.601562 19.675781 20.210938 21.011719 18.667969 22.167969 C 15.121094 19.964844 13.285156 16.742188 13.167969 12.5 Z M 13.167969 12.5 "/>
<path style=" stroke:none;fill-rule:evenodd;fill:rgb(3.137255%,2.745098%,2.745098%);fill-opacity:1;" d="M 27.5 13.167969 C 26.746094 14.933594 25.410156 15.542969 23.5 15 C 22.84375 14.515625 22.402344 13.90625 22.167969 13.167969 C 22.914062 12.730469 23.804688 12.507812 24.832031 12.5 C 25.863281 12.507812 26.753906 12.730469 27.5 13.167969 Z M 27.5 13.167969 "/>
<path style=" stroke:none;fill-rule:evenodd;fill:rgb(2.745098%,2.745098%,2.352941%);fill-opacity:1;" d="M 30.832031 12.5 C 32.722656 12.5 34.609375 12.5 36.5 12.5 C 36.457031 14.773438 35.84375 16.886719 34.667969 18.832031 C 29.789062 24.046875 24.789062 29.15625 19.667969 34.167969 C 19.148438 35.105469 18.871094 36.105469 18.832031 37.167969 C 16.945312 37.167969 15.054688 37.167969 13.167969 37.167969 C 13.066406 34.855469 13.675781 32.746094 15 30.832031 C 19.769531 25.730469 24.65625 20.730469 29.667969 15.832031 C 30.289062 14.796875 30.679688 13.6875 30.832031 12.5 Z M 30.832031 12.5 "/>
<use xlink:href="#surface14" mask="url(#mask3)"/>
<use xlink:href="#surface17" mask="url(#mask4)"/>
<use xlink:href="#surface20" mask="url(#mask5)"/>
<path style=" stroke:none;fill-rule:evenodd;fill:rgb(1.960784%,1.960784%,1.960784%);fill-opacity:1;" d="M 30.5 27.5 C 32.316406 28.03125 33.703125 29.144531 34.667969 30.832031 C 35.929688 32.757812 36.539062 34.867188 36.5 37.167969 C 34.609375 37.167969 32.722656 37.167969 30.832031 37.167969 C 30.558594 34.554688 29.226562 32.667969 26.832031 31.5 C 28.0625 30.160156 29.285156 28.828125 30.5 27.5 Z M 30.5 27.5 "/>
<use xlink:href="#surface23" mask="url(#mask6)"/>
<use xlink:href="#surface26" mask="url(#mask7)"/>
<use xlink:href="#surface29" mask="url(#mask8)"/>
<use xlink:href="#surface32" mask="url(#mask9)"/>
<use xlink:href="#surface35" mask="url(#mask10)"/>
<path style=" stroke:none;fill-rule:evenodd;fill:rgb(2.745098%,2.745098%,2.745098%);fill-opacity:1;" d="M 27.5 36.5 C 26.753906 36.9375 25.863281 37.160156 24.832031 37.167969 C 23.804688 37.160156 22.914062 36.9375 22.167969 36.5 C 23.023438 34.472656 24.46875 33.972656 26.5 35 C 27.046875 35.375 27.378906 35.875 27.5 36.5 Z M 27.5 36.5 "/>
<use xlink:href="#surface38" mask="url(#mask11)"/>
<use xlink:href="#surface41" mask="url(#mask12)"/>
<use xlink:href="#surface44" mask="url(#mask13)"/>
<use xlink:href="#surface47" mask="url(#mask14)"/>
<path style=" stroke:none;fill-rule:evenodd;fill:rgb(47.45098%,46.27451%,45.490196%);fill-opacity:1;" d="M 22.167969 36.5 C 22.914062 36.9375 23.804688 37.160156 24.832031 37.167969 C 25.863281 37.160156 26.753906 36.9375 27.5 36.5 C 27.800781 36.738281 27.914062 37.070312 27.832031 37.5 C 25.832031 37.5 23.832031 37.5 21.832031 37.5 C 21.753906 37.070312 21.867188 36.738281 22.167969 36.5 Z M 22.167969 36.5 "/>
<use xlink:href="#surface50" mask="url(#mask15)"/>
<use xlink:href="#surface53" mask="url(#mask16)"/>
<use xlink:href="#surface56" mask="url(#mask17)"/>
<use xlink:href="#surface59" mask="url(#mask18)"/>
<use xlink:href="#surface62" mask="url(#mask19)"/>
<use xlink:href="#surface65" mask="url(#mask20)"/>
<use xlink:href="#surface68" mask="url(#mask21)"/>
<use xlink:href="#surface71" mask="url(#mask22)"/>
<use xlink:href="#surface74" mask="url(#mask23)"/>
<use xlink:href="#surface77" mask="url(#mask24)"/>
<use xlink:href="#surface80" mask="url(#mask25)"/>
<use xlink:href="#surface83" mask="url(#mask26)"/>
<use xlink:href="#surface86" mask="url(#mask27)"/>
<use xlink:href="#surface89" mask="url(#mask28)"/>
<use xlink:href="#surface92" mask="url(#mask29)"/>
<use xlink:href="#surface95" mask="url(#mask30)"/>
<use xlink:href="#surface98" mask="url(#mask31)"/>
<use xlink:href="#surface101" mask="url(#mask32)"/>
<use xlink:href="#surface104" mask="url(#mask33)"/>
<use xlink:href="#surface107" mask="url(#mask34)"/>
<use xlink:href="#surface110" mask="url(#mask35)"/>
</g>
</svg>
