<?xml version="1.0" encoding="UTF-8"?>
<!DOCTYPE svg PUBLIC "-//W3C//DTD SVG 1.1//EN" "http://www.w3.org/Graphics/SVG/1.1/DTD/svg11.dtd">
<svg xmlns="http://www.w3.org/2000/svg" version="1.1" width="200px" height="200px" style="shape-rendering:geometricPrecision; text-rendering:geometricPrecision; image-rendering:optimizeQuality; fill-rule:evenodd; clip-rule:evenodd" xmlns:xlink="http://www.w3.org/1999/xlink">
<g><path style="opacity:0.01" fill="#000000" d="M 79.5,16.5 C 78.209,16.2627 77.209,16.596 76.5,17.5C 76.5,18.1667 76.1667,18.5 75.5,18.5C 74.7375,17.7321 73.7375,17.2321 72.5,17C 74.9406,15.6077 77.274,15.441 79.5,16.5 Z"/></g>
<g><path style="opacity:0.008" fill="#0b0d05" d="M 126.5,18.5 C 125.508,18.3284 124.842,18.6618 124.5,19.5C 123.508,19.6716 122.842,19.3382 122.5,18.5C 123.961,17.3143 125.295,17.3143 126.5,18.5 Z"/></g>
<g><path style="opacity:0.008" fill="#0c0f04" d="M 71.5,19.5 C 71.1583,20.3382 70.4916,20.6716 69.5,20.5C 69.0825,19.7784 68.4158,19.2784 67.5,19C 68.9285,18.4209 70.2618,18.5876 71.5,19.5 Z"/></g>
<g><path style="opacity:0.008" fill="#080c02" d="M 126.5,19.5 C 126.5,19.1667 126.5,18.8333 126.5,18.5C 131.753,19.793 136.419,22.1263 140.5,25.5C 139.833,25.5 139.5,25.8333 139.5,26.5C 138.833,26.5 138.5,26.1667 138.5,25.5C 138.167,24.1667 137.833,24.1667 137.5,25.5C 136.833,25.5 136.5,25.1667 136.5,24.5C 136.167,23.1667 135.833,23.1667 135.5,24.5C 134.833,24.5 134.5,24.1667 134.5,23.5C 134.167,22.1667 133.833,22.1667 133.5,23.5C 132.833,23.5 132.5,23.1667 132.5,22.5C 132.167,21.1667 131.833,21.1667 131.5,22.5C 130.833,22.5 130.5,22.1667 130.5,21.5C 130.167,20.1667 129.833,20.1667 129.5,21.5C 128.833,21.5 128.5,21.1667 128.5,20.5C 128.158,19.6618 127.492,19.3284 126.5,19.5 Z"/></g>
<g><path style="opacity:0.994" fill="#84a836" d="M 108.5,15.5 C 108.918,16.2216 109.584,16.7216 110.5,17C 104.825,17.4641 104.492,18.1307 109.5,19C 94.8333,19.6667 94.8333,20.3333 109.5,21C 102.654,21.1717 95.9874,21.6717 89.5,22.5C 84.8618,23.4966 80.1951,24.4966 75.5,25.5C 74.5084,25.3284 73.8417,25.6618 73.5,26.5C 72.8333,26.5 72.5,26.8333 72.5,27.5C 71.8333,27.5 71.1667,27.5 70.5,27.5C 69.5084,27.3284 68.8417,27.6618 68.5,28.5C 68.1667,28.5 67.8333,28.5 67.5,28.5C 66.8333,28.5 66.5,28.8333 66.5,29.5C 66.1667,29.5 65.8333,29.5 65.5,29.5C 64.8333,29.5 64.5,29.8333 64.5,30.5C 63.8333,30.5 63.5,30.8333 63.5,31.5C 63.1667,31.5 62.8333,31.5 62.5,31.5C 61.8333,31.5 61.5,31.8333 61.5,32.5C 61.1667,32.5 60.8333,32.5 60.5,32.5C 59.8333,32.5 59.5,32.8333 59.5,33.5C 58.8333,33.5 58.5,33.8333 58.5,34.5C 58.1667,34.5 57.8333,34.5 57.5,34.5C 54.7361,34.0012 53.0695,32.3345 52.5,29.5C 53.1667,29.5 53.5,29.1667 53.5,28.5C 54.1667,28.5 54.5,28.1667 54.5,27.5C 54.8333,27.5 55.1667,27.5 55.5,27.5C 56.1667,27.5 56.5,27.1667 56.5,26.5C 56.8333,26.5 57.1667,26.5 57.5,26.5C 58.1667,26.5 58.5,26.1667 58.5,25.5C 59.1667,25.5 59.5,25.1667 59.5,24.5C 60.609,24.4431 61.609,24.1098 62.5,23.5C 63.4916,23.6716 64.1583,23.3382 64.5,22.5C 66.0495,21.5592 67.7162,20.8925 69.5,20.5C 70.4916,20.6716 71.1583,20.3382 71.5,19.5C 72.7079,18.7659 74.0413,18.4326 75.5,18.5C 76.1667,18.5 76.5,18.1667 76.5,17.5C 77.791,17.7373 78.791,17.404 79.5,16.5C 89.1346,14.6684 98.8013,14.3351 108.5,15.5 Z"/></g>
<g><path style="opacity:0.008" fill="#121308" d="M 64.5,22.5 C 64.1583,23.3382 63.4916,23.6716 62.5,23.5C 61.4958,21.3227 62.1625,20.9893 64.5,22.5 Z"/></g>
<g><path style="opacity:0.996" fill="#769b36" d="M 108.5,15.5 C 113.287,15.9905 117.953,16.9905 122.5,18.5C 122.842,19.3382 123.508,19.6716 124.5,19.5C 125.167,19.5 125.833,19.5 126.5,19.5C 126.842,20.3382 127.508,20.6716 128.5,20.5C 128.5,21.1667 128.833,21.5 129.5,21.5C 129.833,21.5 130.167,21.5 130.5,21.5C 130.5,22.1667 130.833,22.5 131.5,22.5C 131.833,22.5 132.167,22.5 132.5,22.5C 132.5,23.1667 132.833,23.5 133.5,23.5C 133.833,23.5 134.167,23.5 134.5,23.5C 134.5,24.1667 134.833,24.5 135.5,24.5C 135.833,24.5 136.167,24.5 136.5,24.5C 136.5,25.1667 136.833,25.5 137.5,25.5C 137.833,25.5 138.167,25.5 138.5,25.5C 138.5,26.1667 138.833,26.5 139.5,26.5C 139.833,26.5 140.167,26.5 140.5,26.5C 140.5,27.1667 140.833,27.5 141.5,27.5C 141.5,28.1667 141.833,28.5 142.5,28.5C 142.833,28.5 143.167,28.5 143.5,28.5C 143.5,29.1667 143.833,29.5 144.5,29.5C 144.5,29.8333 144.5,30.1667 144.5,30.5C 142.745,31.0722 141.078,31.9055 139.5,33C 142.097,33.7792 142.097,34.2792 139.5,34.5C 139.167,34.5 138.833,34.5 138.5,34.5C 138.5,33.8333 138.167,33.5 137.5,33.5C 137.167,33.5 136.833,33.5 136.5,33.5C 136.5,32.8333 136.167,32.5 135.5,32.5C 135.5,31.8333 135.167,31.5 134.5,31.5C 134.167,31.5 133.833,31.5 133.5,31.5C 133.5,30.8333 133.167,30.5 132.5,30.5C 132.158,29.6618 131.492,29.3284 130.5,29.5C 130.167,29.5 129.833,29.5 129.5,29.5C 129.5,28.8333 129.167,28.5 128.5,28.5C 128.167,28.5 127.833,28.5 127.5,28.5C 127.5,27.8333 127.167,27.5 126.5,27.5C 125.833,27.5 125.167,27.5 124.5,27.5C 124.5,26.8333 124.167,26.5 123.5,26.5C 123.158,25.6618 122.492,25.3284 121.5,25.5C 121.167,25.5 120.833,25.5 120.5,25.5C 120.158,24.6618 119.492,24.3284 118.5,24.5C 108.915,22.8549 99.2483,22.1883 89.5,22.5C 95.9874,21.6717 102.654,21.1717 109.5,21C 94.8333,20.3333 94.8333,19.6667 109.5,19C 104.492,18.1307 104.825,17.4641 110.5,17C 109.584,16.7216 108.918,16.2216 108.5,15.5 Z"/></g>
<g><path style="opacity:0.009" fill="#080a02" d="M 59.5,24.5 C 58.8333,24.5 58.5,24.8333 58.5,25.5C 58.5,26.1667 58.1667,26.5 57.5,26.5C 57.5,25.8333 57.1667,25.5 56.5,25.5C 57.221,23.6182 58.221,23.2848 59.5,24.5 Z"/></g>
<g><path style="opacity:0.01" fill="#000000" d="M 54.5,26.5 C 54.8417,25.6618 55.5084,25.3284 56.5,25.5C 56.5,25.8333 56.5,26.1667 56.5,26.5C 56.5,27.1667 56.1667,27.5 55.5,27.5C 55.5,26.8333 55.1667,26.5 54.5,26.5 Z"/></g>
<g><path style="opacity:0.01" fill="#14170a" d="M 118.5,24.5 C 119.492,24.3284 120.158,24.6618 120.5,25.5C 120.5,26.1667 120.833,26.5 121.5,26.5C 121.5,26.8333 121.5,27.1667 121.5,27.5C 120.448,27.6495 119.448,27.4828 118.5,27C 119.598,26.2303 119.598,25.397 118.5,24.5 Z"/></g>
<g><path style="opacity:0.01" fill="#080b02" d="M 140.5,26.5 C 140.5,26.1667 140.5,25.8333 140.5,25.5C 142.027,25.427 143.027,26.0937 143.5,27.5C 142.833,27.5 142.5,27.8333 142.5,28.5C 141.833,28.5 141.5,28.1667 141.5,27.5C 140.833,27.5 140.5,27.1667 140.5,26.5 Z"/></g>
<g><path style="opacity:0.01" fill="#000000" d="M 40.5,27.5 C 39.5084,27.3284 38.8417,27.6618 38.5,28.5C 38.5,28.8333 38.5,29.1667 38.5,29.5C 38.1667,29.5 37.8333,29.5 37.5,29.5C 37.5,28.8333 37.1667,28.5 36.5,28.5C 37.5383,26.4805 38.8716,26.1472 40.5,27.5 Z"/></g>
<g><path style="opacity:0.011" fill="#050703" d="M 47.5,27.5 C 49.718,27.3532 52.0513,27.0199 54.5,26.5C 54.5,26.8333 54.5,27.1667 54.5,27.5C 53.8333,27.5 53.5,27.8333 53.5,28.5C 53.5,29.1667 53.1667,29.5 52.5,29.5C 51.8333,28.1667 51.1667,28.1667 50.5,29.5C 49.5084,29.6716 48.8417,29.3382 48.5,28.5C 49.5573,27.794 49.2239,27.4607 47.5,27.5 Z"/></g>
<g><path style="opacity:0.008" fill="#0e0f03" d="M 75.5,25.5 C 74.4019,26.397 74.4019,27.2303 75.5,28C 74.552,28.4828 73.552,28.6495 72.5,28.5C 72.5,28.1667 72.5,27.8333 72.5,27.5C 73.1667,27.5 73.5,27.1667 73.5,26.5C 73.8417,25.6618 74.5084,25.3284 75.5,25.5 Z"/></g>
<g><path style="opacity:0.008" fill="#14170a" d="M 121.5,26.5 C 121.5,26.1667 121.5,25.8333 121.5,25.5C 122.492,25.3284 123.158,25.6618 123.5,26.5C 124.167,26.5 124.5,26.8333 124.5,27.5C 124.5,27.8333 124.5,28.1667 124.5,28.5C 123.209,28.7373 122.209,28.404 121.5,27.5C 122.833,27.1667 122.833,26.8333 121.5,26.5 Z"/></g>
<g><path style="opacity:0.009" fill="#101207" d="M 68.5,28.5 C 68.8417,27.6618 69.5084,27.3284 70.5,27.5C 70.8417,28.3382 71.5084,28.6716 72.5,28.5C 69.7442,30.2038 66.7442,31.5371 63.5,32.5C 63.5,32.1667 63.5,31.8333 63.5,31.5C 64.1667,31.5 64.5,31.1667 64.5,30.5C 64.5,29.8333 64.8333,29.5 65.5,29.5C 65.8333,30.8333 66.1667,30.8333 66.5,29.5C 66.5,28.8333 66.8333,28.5 67.5,28.5C 68.8493,29.6441 69.1826,29.6441 68.5,28.5 Z"/></g>
<g><path style="opacity:0.009" fill="#030303" d="M 143.5,28.5 C 143.5,28.1667 143.5,27.8333 143.5,27.5C 146.007,27.6322 146.674,28.6322 145.5,30.5C 145.167,30.5 144.833,30.5 144.5,30.5C 144.5,30.1667 144.5,29.8333 144.5,29.5C 143.833,29.5 143.5,29.1667 143.5,28.5 Z"/></g>
<g><path style="opacity:0.007" fill="#000000" d="M 36.5,28.5 C 36.5,28.8333 36.5,29.1667 36.5,29.5C 35.8333,29.5 35.5,29.8333 35.5,30.5C 35.1667,31.5 34.5,32.1667 33.5,32.5C 32.8333,32.5 32.5,32.8333 32.5,33.5C 32.0403,30.9051 33.3737,29.2385 36.5,28.5 Z"/></g>
<g><path style="opacity:0.007" fill="#080902" d="M 126.5,27.5 C 127.167,27.5 127.5,27.8333 127.5,28.5C 127.833,29.8333 128.167,29.8333 128.5,28.5C 129.167,28.5 129.5,28.8333 129.5,29.5C 129.833,30.8333 130.167,30.8333 130.5,29.5C 131.492,29.3284 132.158,29.6618 132.5,30.5C 131.833,30.5 131.5,30.8333 131.5,31.5C 128.759,31.2927 126.426,30.2927 124.5,28.5C 125.492,28.6716 126.158,28.3382 126.5,27.5 Z"/></g>
<g><path style="opacity:1" fill="#6f9b3c" d="M 38.5,29.5 C 38.5,29.1667 38.5,28.8333 38.5,28.5C 39.1667,28.5 39.8333,28.5 40.5,28.5C 42.5273,28.3379 44.5273,28.5045 46.5,29C 45.8333,37 45.1667,45 44.5,53C 45.056,53.3826 45.3893,53.8826 45.5,54.5C 43.8333,54.5 42.1667,54.5 40.5,54.5C 40.1667,54.5 39.8333,54.5 39.5,54.5C 39.5,54.1667 39.5,53.8333 39.5,53.5C 40.0997,49.6204 40.433,45.2871 40.5,40.5C 40.4888,36.4348 39.8222,32.7681 38.5,29.5 Z"/></g>
<g><path style="opacity:0.009" fill="#010101" d="M 132.5,30.5 C 133.167,30.5 133.5,30.8333 133.5,31.5C 133.833,32.8333 134.167,32.8333 134.5,31.5C 135.167,31.5 135.5,31.8333 135.5,32.5C 136.167,32.5 136.5,32.8333 136.5,33.5C 136.5,33.8333 136.5,34.1667 136.5,34.5C 134.326,34.2503 132.659,33.2503 131.5,31.5C 132.167,31.5 132.5,31.1667 132.5,30.5 Z"/></g>
<g><path style="opacity:0.013" fill="#000000" d="M 147.5,31.5 C 147.897,30.475 148.563,30.3083 149.5,31C 150.598,31.7697 150.598,32.603 149.5,33.5C 148.833,33.5 148.5,33.1667 148.5,32.5C 148.5,31.8333 148.167,31.5 147.5,31.5 Z"/></g>
<g><path style="opacity:0.999" fill="#558339" d="M 40.5,28.5 C 40.5,28.1667 40.5,27.8333 40.5,27.5C 42.8333,27.5 45.1667,27.5 47.5,27.5C 47.5,28.1667 47.8333,28.5 48.5,28.5C 48.8417,29.3382 49.5084,29.6716 50.5,29.5C 51.1667,29.5 51.8333,29.5 52.5,29.5C 53.0695,32.3345 54.7361,34.0012 57.5,34.5C 57.4843,38.3001 57.3176,42.3001 57,46.5C 56.4867,47.5266 55.9867,48.5266 55.5,49.5C 54.8333,49.5 54.5,49.8333 54.5,50.5C 53.8333,50.5 53.5,50.8333 53.5,51.5C 52.8333,51.5 52.5,51.8333 52.5,52.5C 51.8333,52.5 51.5,52.8333 51.5,53.5C 50.1667,53.8333 48.8333,54.1667 47.5,54.5C 46.8333,54.5 46.1667,54.5 45.5,54.5C 45.3893,53.8826 45.056,53.3826 44.5,53C 45.1667,45 45.8333,37 46.5,29C 44.5273,28.5045 42.5273,28.3379 40.5,28.5 Z"/></g>
<g><path style="opacity:0.01" fill="#000000" d="M 62.5,31.5 C 62.5,32.1667 62.8333,32.5 63.5,32.5C 63.1583,33.3382 62.4916,33.6716 61.5,33.5C 61.5,33.1667 61.5,32.8333 61.5,32.5C 61.5,31.8333 61.8333,31.5 62.5,31.5 Z"/></g>
<g><path style="opacity:0.011" fill="#090902" d="M 60.5,32.5 C 60.5,33.1667 60.8333,33.5 61.5,33.5C 60.779,35.3818 59.779,35.7152 58.5,34.5C 59.1667,34.5 59.5,34.1667 59.5,33.5C 59.5,32.8333 59.8333,32.5 60.5,32.5 Z"/></g>
<g><path style="opacity:0.009" fill="#000000" d="M 137.5,33.5 C 138.167,33.5 138.5,33.8333 138.5,34.5C 138.5,35.1667 138.833,35.5 139.5,35.5C 139.5,35.8333 139.5,36.1667 139.5,36.5C 137.973,36.573 136.973,35.9063 136.5,34.5C 137.167,34.5 137.5,34.1667 137.5,33.5 Z"/></g>
<g><path style="opacity:0.012" fill="#000000" d="M 140.5,35.5 C 141.167,35.5 141.5,35.8333 141.5,36.5C 141.5,37.1667 141.833,37.5 142.5,37.5C 141.221,38.7152 140.221,38.3818 139.5,36.5C 140.167,36.5 140.5,36.1667 140.5,35.5 Z"/></g>
<g><path style="opacity:0.009" fill="#010100" d="M 144.5,38.5 C 145.5,38.8333 146.167,39.5 146.5,40.5C 146.5,41.1667 146.833,41.5 147.5,41.5C 147.5,42.1667 147.833,42.5 148.5,42.5C 148.103,43.525 147.437,43.6917 146.5,43C 144.35,41.8077 143.683,40.3077 144.5,38.5 Z"/></g>
<g><path style="opacity:0.009" fill="#000000" d="M 151.5,45.5 C 151.5,46.1667 151.833,46.5 152.5,46.5C 152.253,48.9752 151.587,48.9752 150.5,46.5C 150.624,45.8933 150.957,45.56 151.5,45.5 Z"/></g>
<g><path style="opacity:0.007" fill="#000000" d="M 55.5,49.5 C 56.1183,51.6636 55.1183,53.3303 52.5,54.5C 51.8933,54.3764 51.56,54.0431 51.5,53.5C 52.1667,53.5 52.5,53.1667 52.5,52.5C 53.1667,52.5 53.5,52.1667 53.5,51.5C 54.1667,51.5 54.5,51.1667 54.5,50.5C 55.1667,50.5 55.5,50.1667 55.5,49.5 Z"/></g>
<g><path style="opacity:0.994" fill="#779c36" d="M 36.5,29.5 C 36.8333,29.5 37.1667,29.5 37.5,29.5C 37.8333,29.5 38.1667,29.5 38.5,29.5C 39.8222,32.7681 40.4888,36.4348 40.5,40.5C 40.433,45.2871 40.0997,49.6204 39.5,53.5C 38.5084,53.3284 37.8417,53.6618 37.5,54.5C 37.5,54.8333 37.5,55.1667 37.5,55.5C 36.8333,55.5 36.5,55.8333 36.5,56.5C 27.2945,72.3264 23.9611,89.3264 26.5,107.5C 26.6602,109.199 26.4935,110.866 26,112.5C 24.2602,113.716 23.2602,115.382 23,117.5C 22.7216,116.584 22.2216,115.918 21.5,115.5C 15.8136,94.5768 18.1469,74.5768 28.5,55.5C 29.1667,55.5 29.5,55.1667 29.5,54.5C 30.2371,52.6954 31.2371,51.0287 32.5,49.5C 29.8392,44.1354 29.8392,38.8021 32.5,33.5C 33.1667,33.5 33.5,33.1667 33.5,32.5C 34.5,32.1667 35.1667,31.5 35.5,30.5C 36.1667,30.5 36.5,30.1667 36.5,29.5 Z"/></g>
<g><path style="opacity:0.013" fill="#000000" d="M 73.5,51.5 C 74.1667,50.1667 74.8333,50.1667 75.5,51.5C 75.5,52.1667 75.1667,52.5 74.5,52.5C 74.5,51.8333 74.1667,51.5 73.5,51.5 Z"/></g>
<g><path style="opacity:0.012" fill="#050601" d="M 170.5,54.5 C 169.5,54.5 168.5,54.5 167.5,54.5C 166.833,54.5 166.5,54.1667 166.5,53.5C 167.833,53.1667 167.833,52.8333 166.5,52.5C 166.369,51.7611 166.536,51.0944 167,50.5C 168.067,51.1905 169.234,51.6905 170.5,52C 169.833,52.3333 169.167,52.6667 168.5,53C 169.416,53.2784 170.082,53.7784 170.5,54.5 Z"/></g>
<g><path style="opacity:0.01" fill="#090902" d="M 73.5,51.5 C 73.5,51.8333 73.5,52.1667 73.5,52.5C 72.8333,52.5 72.5,52.8333 72.5,53.5C 72.5,54.1667 72.1667,54.5 71.5,54.5C 71.5,53.8333 71.1667,53.5 70.5,53.5C 70.9731,52.0937 71.9731,51.427 73.5,51.5 Z"/></g>
<g><path style="opacity:0.012" fill="#000000" d="M 76.5,51.5 C 77.3309,63.9934 77.8309,76.66 78,89.5C 78.8331,40.1712 79.3331,40.1712 79.5,89.5C 92.1667,89.5 104.833,89.5 117.5,89.5C 117.333,76.8289 117.5,64.1623 118,51.5C 118.5,64.8292 118.667,78.1625 118.5,91.5C 118.167,91.5 117.833,91.5 117.5,91.5C 104.833,90.1667 92.1667,90.1667 79.5,91.5C 79.1667,91.5 78.8333,91.5 78.5,91.5C 78.1667,90.1667 77.8333,90.1667 77.5,91.5C 77.1667,91.5 76.8333,91.5 76.5,91.5C 76.5,78.1667 76.5,64.8333 76.5,51.5 Z"/></g>
<g><path style="opacity:0.009" fill="#020202" d="M 123.5,52.5 C 124.779,51.2848 125.779,51.6182 126.5,53.5C 125.833,53.5 125.5,53.8333 125.5,54.5C 124.833,54.5 124.5,54.1667 124.5,53.5C 124.5,52.8333 124.167,52.5 123.5,52.5 Z"/></g>
<g><path style="opacity:0.007" fill="#000000" d="M 29.5,54.5 C 29.5,55.1667 29.1667,55.5 28.5,55.5C 27.2576,53.654 27.591,53.3207 29.5,54.5 Z"/></g>
<g><path style="opacity:0.01" fill="#080700" d="M 70.5,53.5 C 70.5,53.8333 70.5,54.1667 70.5,54.5C 69.8333,54.5 69.5,54.8333 69.5,55.5C 69.5,56.1667 69.1667,56.5 68.5,56.5C 67.3264,54.6322 67.9931,53.6322 70.5,53.5 Z"/></g>
<g><path style="opacity:0.502" fill="#31592b" d="M 121.5,52.5 C 120.833,65.5 120.167,78.5 119.5,91.5C 119.167,78.15 119.501,64.8167 120.5,51.5C 121.107,51.6236 121.44,51.9569 121.5,52.5 Z"/></g>
<g><path style="opacity:0.013" fill="#000000" d="M 126.5,54.5 C 126.5,54.1667 126.5,53.8333 126.5,53.5C 129.007,53.6322 129.674,54.6322 128.5,56.5C 127.833,56.5 127.5,56.1667 127.5,55.5C 127.5,54.8333 127.167,54.5 126.5,54.5 Z"/></g>
<g><path style="opacity:0.009" fill="#020202" d="M 174.5,54.5 C 174.897,53.475 175.563,53.3083 176.5,54C 177.598,54.7697 177.598,55.603 176.5,56.5C 175.833,56.5 175.5,56.1667 175.5,55.5C 175.5,54.8333 175.167,54.5 174.5,54.5 Z"/></g>
<g><path style="opacity:0.009" fill="#0f1307" d="M 37.5,54.5 C 37.8417,53.6618 38.5084,53.3284 39.5,53.5C 39.5,53.8333 39.5,54.1667 39.5,54.5C 39.8333,55.8333 40.1667,55.8333 40.5,54.5C 42.1667,54.5 43.8333,54.5 45.5,54.5C 46.1667,54.5 46.8333,54.5 47.5,54.5C 47.9175,55.2216 48.5842,55.7216 49.5,56C 49,56.1667 48.5,56.3333 48,56.5C 43.9576,55.7156 40.1242,55.7156 36.5,56.5C 36.5,55.8333 36.8333,55.5 37.5,55.5C 38.8333,55.1667 38.8333,54.8333 37.5,54.5 Z"/></g>
<g><path style="opacity:1" fill="#88b23a" d="M 75.5,51.5 C 75.8333,51.5 76.1667,51.5 76.5,51.5C 76.5,64.8333 76.5,78.1667 76.5,91.5C 83.6476,92.4916 90.9809,92.825 98.5,92.5C 97.3915,93.29 96.0581,93.79 94.5,94C 95.8333,97.3333 95.8333,100.667 94.5,104C 95.1667,104.333 95.8333,104.667 96.5,105C 94.2922,105.191 92.2922,105.691 90.5,106.5C 82.1667,106.5 73.8333,106.5 65.5,106.5C 65.5,105.833 65.1667,105.5 64.5,105.5C 64.5,104.833 64.1667,104.5 63.5,104.5C 63.2172,103.711 62.7172,103.044 62,102.5C 61.3333,89.1667 61.3333,75.8333 62,62.5C 64.0367,60.2941 66.2034,58.2941 68.5,56.5C 69.1667,56.5 69.5,56.1667 69.5,55.5C 70.1667,55.5 70.5,55.1667 70.5,54.5C 70.8333,54.5 71.1667,54.5 71.5,54.5C 72.1667,54.5 72.5,54.1667 72.5,53.5C 73.1667,53.5 73.5,53.1667 73.5,52.5C 73.8333,52.5 74.1667,52.5 74.5,52.5C 75.1667,52.5 75.5,52.1667 75.5,51.5 Z"/></g>
<g><path style="opacity:0.999" fill="#4b853f" d="M 121.5,52.5 C 121.461,53.7562 121.961,54.7562 123,55.5C 123.667,81.8333 123.667,108.167 123,134.5C 122.667,125.167 122.333,115.833 122,106.5C 121.5,116.828 121.334,127.161 121.5,137.5C 120.833,127.167 120.167,116.833 119.5,106.5C 119.167,106.5 118.833,106.5 118.5,106.5C 118.167,106.5 117.833,106.5 117.5,106.5C 115.167,106.5 112.833,106.5 110.5,106.5C 111.609,105.71 112.942,105.21 114.5,105C 113.536,100.934 113.203,96.7675 113.5,92.5C 110.5,92.5 107.5,92.5 104.5,92.5C 102.5,92.5 100.5,92.5 98.5,92.5C 90.9809,92.825 83.6476,92.4916 76.5,91.5C 76.8333,91.5 77.1667,91.5 77.5,91.5C 77.8333,91.5 78.1667,91.5 78.5,91.5C 78.8333,91.5 79.1667,91.5 79.5,91.5C 92.1667,91.5 104.833,91.5 117.5,91.5C 117.833,91.5 118.167,91.5 118.5,91.5C 118.833,91.5 119.167,91.5 119.5,91.5C 120.167,78.5 120.833,65.5 121.5,52.5 Z"/></g>
<g><path style="opacity:0.999" fill="#729b3a" d="M 144.5,30.5 C 144.833,30.5 145.167,30.5 145.5,30.5C 146.167,30.8333 146.833,31.1667 147.5,31.5C 148.167,31.5 148.5,31.8333 148.5,32.5C 148.5,33.1667 148.833,33.5 149.5,33.5C 156.279,38.9398 161.946,45.2732 166.5,52.5C 166.5,52.8333 166.5,53.1667 166.5,53.5C 166.5,54.1667 166.833,54.5 167.5,54.5C 169.292,55.3091 171.292,55.8091 173.5,56C 172.5,56.3333 171.5,56.6667 170.5,57C 171.647,64.4201 171.813,71.9201 171,79.5C 169.301,80.4061 167.467,80.7394 165.5,80.5C 165.167,80.5 164.833,80.5 164.5,80.5C 163.833,80.5 163.167,80.5 162.5,80.5C 162.5,79.8333 162.167,79.5 161.5,79.5C 161.5,78.8333 161.167,78.5 160.5,78.5C 155.816,74.2187 154.316,68.8854 156,62.5C 157.122,60.3762 158.622,58.5429 160.5,57C 158.353,53.0307 155.687,49.5307 152.5,46.5C 151.833,46.5 151.5,46.1667 151.5,45.5C 150.833,44.1667 149.833,43.1667 148.5,42.5C 147.833,42.5 147.5,42.1667 147.5,41.5C 146.833,41.5 146.5,41.1667 146.5,40.5C 146.167,39.5 145.5,38.8333 144.5,38.5C 143.833,38.1667 143.167,37.8333 142.5,37.5C 141.833,37.5 141.5,37.1667 141.5,36.5C 141.5,35.8333 141.167,35.5 140.5,35.5C 140.167,35.5 139.833,35.5 139.5,35.5C 139.5,35.1667 139.5,34.8333 139.5,34.5C 142.097,34.2792 142.097,33.7792 139.5,33C 141.078,31.9055 142.745,31.0722 144.5,30.5 Z"/></g>
<g><path style="opacity:0.999" fill="#34713d" d="M 121.5,52.5 C 122.167,52.5 122.833,52.5 123.5,52.5C 124.167,52.5 124.5,52.8333 124.5,53.5C 124.5,54.1667 124.833,54.5 125.5,54.5C 125.833,54.5 126.167,54.5 126.5,54.5C 127.167,54.5 127.5,54.8333 127.5,55.5C 127.5,56.1667 127.833,56.5 128.5,56.5C 130.797,58.2941 132.963,60.2941 135,62.5C 135.667,84.1667 135.667,105.833 135,127.5C 134.283,128.044 133.783,128.711 133.5,129.5C 132.833,129.5 132.5,129.833 132.5,130.5C 131.833,130.5 131.5,130.833 131.5,131.5C 130.833,131.5 130.5,131.833 130.5,132.5C 129.5,133.167 128.5,133.833 127.5,134.5C 126.833,134.5 126.5,134.833 126.5,135.5C 125.833,135.5 125.5,135.833 125.5,136.5C 124.167,136.833 124.167,137.167 125.5,137.5C 125.158,138.338 124.492,138.672 123.5,138.5C 123.5,137.833 123.167,137.5 122.5,137.5C 122.167,137.5 121.833,137.5 121.5,137.5C 121.334,127.161 121.5,116.828 122,106.5C 122.333,115.833 122.667,125.167 123,134.5C 123.667,108.167 123.667,81.8333 123,55.5C 121.961,54.7562 121.461,53.7562 121.5,52.5 Z"/></g>
<g><path style="opacity:0.008" fill="#000000" d="M 182.5,60.5 C 181.833,59.1667 181.833,59.1667 182.5,60.5 Z"/></g>
<g><path style="opacity:0.008" fill="#000000" d="M 182.5,60.5 C 183.525,60.8966 183.692,61.5632 183,62.5C 182.536,61.9056 182.369,61.2389 182.5,60.5 Z"/></g>
<g><path style="opacity:0.013" fill="#000000" d="M 183.5,72.5 C 183.335,69.4816 183.502,66.4816 184,63.5C 184.805,66.6965 184.638,69.6965 183.5,72.5 Z"/></g>
<g><path style="opacity:0.01" fill="#000000" d="M 182.5,72.5 C 182.833,72.5 183.167,72.5 183.5,72.5C 183.672,73.4916 183.338,74.1583 182.5,74.5C 182.5,73.8333 182.5,73.1667 182.5,72.5 Z"/></g>
<g><path style="opacity:0.008" fill="#000000" d="M 181.5,74.5 C 181.833,74.5 182.167,74.5 182.5,74.5C 182.672,75.4916 182.338,76.1583 181.5,76.5C 181.5,75.8333 181.5,75.1667 181.5,74.5 Z"/></g>
<g><path style="opacity:0.008" fill="#000000" d="M 180.5,76.5 C 180.833,76.5 181.167,76.5 181.5,76.5C 181.315,77.1701 180.981,77.1701 180.5,76.5 Z"/></g>
<g><path style="opacity:0.008" fill="#000000" d="M 179.5,77.5 C 179.833,77.5 180.167,77.5 180.5,77.5C 180.315,78.1701 179.981,78.1701 179.5,77.5 Z"/></g>
<g><path style="opacity:0.008" fill="#010b00" d="M 160.5,78.5 C 161.167,78.5 161.5,78.8333 161.5,79.5C 162.167,79.5 162.5,79.8333 162.5,80.5C 162.5,80.8333 162.5,81.1667 162.5,81.5C 159.993,81.3678 159.326,80.3678 160.5,78.5 Z"/></g>
<g><path style="opacity:0.01" fill="#000100" d="M 164.5,80.5 C 164.833,80.5 165.167,80.5 165.5,80.5C 165.5,80.8333 165.5,81.1667 165.5,81.5C 166.167,82.8333 166.833,82.8333 167.5,81.5C 167.833,81.5 168.167,81.5 168.5,81.5C 168.833,82.8333 169.167,82.8333 169.5,81.5C 170.338,81.8417 170.672,82.5084 170.5,83.5C 169.671,90.6552 169.171,97.9885 169,105.5C 168.5,98.1742 168.334,90.8409 168.5,83.5C 166.102,83.7406 164.102,83.0739 162.5,81.5C 163.492,81.6716 164.158,81.3382 164.5,80.5 Z"/></g>
<g><path style="opacity:0.569" fill="#253518" d="M 178.5,77.5 C 178.5,78.1667 178.833,78.5 179.5,78.5C 177.832,80.4786 177.166,82.812 177.5,85.5C 176.848,84.5514 176.514,83.3847 176.5,82C 176.307,79.9919 176.974,78.4919 178.5,77.5 Z"/></g>
<g><path style="opacity:0.006" fill="#000000" d="M 179.5,102.5 C 179.334,97.1563 179.501,91.8229 180,86.5C 180.817,92.0164 180.651,97.3497 179.5,102.5 Z"/></g>
<g><path style="opacity:0.998" fill="#537f37" d="M 167.5,54.5 C 168.5,54.5 169.5,54.5 170.5,54.5C 171.833,54.5 173.167,54.5 174.5,54.5C 175.167,54.5 175.5,54.8333 175.5,55.5C 175.5,56.1667 175.833,56.5 176.5,56.5C 178.167,57.8333 179.833,59.1667 181.5,60.5C 182.272,64.4517 182.605,68.4517 182.5,72.5C 181.662,72.8417 181.328,73.5084 181.5,74.5C 180.662,74.8417 180.328,75.5084 180.5,76.5C 179.833,76.5 179.5,76.8333 179.5,77.5C 179.167,77.5 178.833,77.5 178.5,77.5C 176.974,78.4919 176.307,79.9919 176.5,82C 176.514,83.3847 176.848,84.5514 177.5,85.5C 178.452,91.0748 178.786,96.7414 178.5,102.5C 177.566,103.568 177.232,104.901 177.5,106.5C 176.883,106.611 176.383,106.944 176,107.5C 175.131,102.492 174.464,102.825 174,108.5C 172.984,109.634 172.317,109.301 172,107.5C 171.489,109.878 170.822,112.212 170,114.5C 169.517,113.552 169.351,112.552 169.5,111.5C 170.354,102.195 170.687,92.8612 170.5,83.5C 170.672,82.5084 170.338,81.8417 169.5,81.5C 169.167,81.5 168.833,81.5 168.5,81.5C 168.167,81.5 167.833,81.5 167.5,81.5C 166.833,81.5 166.167,81.5 165.5,81.5C 165.5,81.1667 165.5,80.8333 165.5,80.5C 167.467,80.7394 169.301,80.4061 171,79.5C 171.813,71.9201 171.647,64.4201 170.5,57C 171.5,56.6667 172.5,56.3333 173.5,56C 171.292,55.8091 169.292,55.3091 167.5,54.5 Z"/></g>
<g><path style="opacity:1" fill="#73a33e" d="M 98.5,92.5 C 100.5,92.5 102.5,92.5 104.5,92.5C 103.197,96.6674 103.197,100.834 104.5,105C 103.584,105.278 102.918,105.778 102.5,106.5C 98.5,106.5 94.5,106.5 90.5,106.5C 92.2922,105.691 94.2922,105.191 96.5,105C 95.8333,104.667 95.1667,104.333 94.5,104C 95.8333,100.667 95.8333,97.3333 94.5,94C 96.0581,93.79 97.3915,93.29 98.5,92.5 Z"/></g>
<g><path style="opacity:0.999" fill="#609540" d="M 104.5,92.5 C 107.5,92.5 110.5,92.5 113.5,92.5C 113.203,96.7675 113.536,100.934 114.5,105C 112.942,105.21 111.609,105.71 110.5,106.5C 107.833,106.5 105.167,106.5 102.5,106.5C 102.918,105.778 103.584,105.278 104.5,105C 103.197,100.834 103.197,96.6674 104.5,92.5 Z"/></g>
<g><path style="opacity:0.011" fill="#000000" d="M 178.5,102.5 C 178.833,102.5 179.167,102.5 179.5,102.5C 179.802,105.059 179.468,107.393 178.5,109.5C 178.5,107.167 178.5,104.833 178.5,102.5 Z"/></g>
<g><path style="opacity:0.007" fill="#000000" d="M 63.5,104.5 C 64.1667,104.5 64.5,104.833 64.5,105.5C 65.1667,105.5 65.5,105.833 65.5,106.5C 65.1034,107.525 64.4368,107.692 63.5,107C 62.2264,106.023 62.2264,105.189 63.5,104.5 Z"/></g>
<g><path style="opacity:0.009" fill="#000000" d="M 117.5,106.5 C 117.833,106.5 118.167,106.5 118.5,106.5C 118.667,117.172 118.5,127.839 118,138.5C 117.5,128.839 117.334,119.172 117.5,109.5C 101.163,109.667 84.8299,109.5 68.5,109C 85.1974,109.155 101.531,108.322 117.5,106.5 Z"/></g>
<g><path style="opacity:0.502" fill="#30572b" d="M 119.5,106.5 C 120.167,116.833 120.833,127.167 121.5,137.5C 121.5,137.833 121.5,138.167 121.5,138.5C 120.833,138.5 120.5,138.833 120.5,139.5C 119.505,128.679 119.172,117.679 119.5,106.5 Z"/></g>
<g><path style="opacity:0.012" fill="#000000" d="M 177.5,109.5 C 177.833,109.5 178.167,109.5 178.5,109.5C 178.167,114.833 177.833,114.833 177.5,109.5 Z"/></g>
<g><path style="opacity:0.01" fill="#000000" d="M 176.5,117.5 C 176.351,116.448 176.517,115.448 177,114.5C 177.74,115.749 177.573,116.749 176.5,117.5 Z"/></g>
<g><path style="opacity:0.01" fill="#000000" d="M 175.5,117.5 C 175.833,117.5 176.167,117.5 176.5,117.5C 176.737,118.791 176.404,119.791 175.5,120.5C 175.5,119.5 175.5,118.5 175.5,117.5 Z"/></g>
<g><path style="opacity:0.009" fill="#000000" d="M 174.5,120.5 C 174.833,120.5 175.167,120.5 175.5,120.5C 175.737,121.791 175.404,122.791 174.5,123.5C 174.5,122.5 174.5,121.5 174.5,120.5 Z"/></g>
<g><path style="opacity:0.014" fill="#000000" d="M 22.5,121.5 C 22.631,122.239 22.4643,122.906 22,123.5C 21.3083,122.563 21.475,121.897 22.5,121.5 Z"/></g>
<g><path style="opacity:0.012" fill="#000000" d="M 173.5,123.5 C 173.833,123.5 174.167,123.5 174.5,123.5C 174.672,124.492 174.338,125.158 173.5,125.5C 173.5,124.833 173.5,124.167 173.5,123.5 Z"/></g>
<g><path style="opacity:0.008" fill="#000000" d="M 22.5,124.5 C 23.525,124.897 23.6917,125.563 23,126.5C 22.5357,125.906 22.369,125.239 22.5,124.5 Z"/></g>
<g><path style="opacity:0.01" fill="#000000" d="M 172.5,125.5 C 172.833,125.5 173.167,125.5 173.5,125.5C 173.672,126.492 173.338,127.158 172.5,127.5C 172.5,126.833 172.5,126.167 172.5,125.5 Z"/></g>
<g><path style="opacity:0.986" fill="#5f8937" d="M 26.5,107.5 C 30.2101,124.254 38.5435,138.254 51.5,149.5C 51.5,150.167 51.8333,150.5 52.5,150.5C 52.5,151.167 52.8333,151.5 53.5,151.5C 53.5,152.167 53.8333,152.5 54.5,152.5C 54.8333,152.5 55.1667,152.5 55.5,152.5C 55.5,153.167 55.8333,153.5 56.5,153.5C 56.8417,154.338 57.5084,154.672 58.5,154.5C 58.5,155.167 58.8333,155.5 59.5,155.5C 59.5,156.167 59.8333,156.5 60.5,156.5C 60.8333,156.5 61.1667,156.5 61.5,156.5C 61.5,157.167 61.8333,157.5 62.5,157.5C 62.5,158.167 62.8333,158.5 63.5,158.5C 63.8333,158.5 64.1667,158.5 64.5,158.5C 64.5,159.167 64.8333,159.5 65.5,159.5C 65.8333,159.5 66.1667,159.5 66.5,159.5C 66.5,160.167 66.8333,160.5 67.5,160.5C 67.8333,160.5 68.1667,160.5 68.5,160.5C 68.5,161.167 68.8333,161.5 69.5,161.5C 69.8333,161.5 70.1667,161.5 70.5,161.5C 70.8417,162.338 71.5084,162.672 72.5,162.5C 72.8333,162.5 73.1667,162.5 73.5,162.5C 73.8417,163.338 74.5084,163.672 75.5,163.5C 75.8333,163.5 76.1667,163.5 76.5,163.5C 75.5773,167.064 75.244,170.731 75.5,174.5C 74.8333,173.167 74.1667,171.833 73.5,170.5C 73.5,169.833 73.1667,169.5 72.5,169.5C 70.7839,169.371 69.1172,169.038 67.5,168.5C 67.5,167.833 67.1667,167.5 66.5,167.5C 66.1667,167.5 65.8333,167.5 65.5,167.5C 65.5,166.833 65.1667,166.5 64.5,166.5C 64.1667,166.5 63.8333,166.5 63.5,166.5C 63.5,165.833 63.1667,165.5 62.5,165.5C 62.1667,165.5 61.8333,165.5 61.5,165.5C 61.5,164.833 61.1667,164.5 60.5,164.5C 60.1667,164.5 59.8333,164.5 59.5,164.5C 59.5,163.833 59.1667,163.5 58.5,163.5C 58.1667,163.5 57.8333,163.5 57.5,163.5C 57.5,162.833 57.1667,162.5 56.5,162.5C 56.5,161.833 56.1667,161.5 55.5,161.5C 55.1667,161.5 54.8333,161.5 54.5,161.5C 54.5,160.833 54.1667,160.5 53.5,160.5C 53.5,159.833 53.1667,159.5 52.5,159.5C 52.1667,159.5 51.8333,159.5 51.5,159.5C 51.5,158.833 51.1667,158.5 50.5,158.5C 50.5,157.833 50.1667,157.5 49.5,157.5C 48.5,156.833 47.5,156.167 46.5,155.5C 46.5,154.833 46.1667,154.5 45.5,154.5C 45.5,153.833 45.1667,153.5 44.5,153.5C 43.1667,151.5 41.5,149.833 39.5,148.5C 39.5,147.833 39.1667,147.5 38.5,147.5C 38.5,146.833 38.1667,146.5 37.5,146.5C 31.2399,138.91 26.2399,130.577 22.5,121.5C 22.1667,119.5 21.8333,117.5 21.5,115.5C 22.2216,115.918 22.7216,116.584 23,117.5C 23.2602,115.382 24.2602,113.716 26,112.5C 26.4935,110.866 26.6602,109.199 26.5,107.5 Z"/></g>
<g><path style="opacity:0.008" fill="#000000" d="M 171.5,127.5 C 171.833,127.5 172.167,127.5 172.5,127.5C 172.167,130.167 171.833,130.167 171.5,127.5 Z"/></g>
<g><path style="opacity:0.008" fill="#000000" d="M 133.5,129.5 C 134.239,129.369 134.906,129.536 135.5,130C 134.5,131 133.5,132 132.5,133C 131.563,133.692 130.897,133.525 130.5,132.5C 131.167,132.5 131.5,132.167 131.5,131.5C 132.167,131.5 132.5,131.167 132.5,130.5C 133.167,130.5 133.5,130.167 133.5,129.5 Z"/></g>
<g><path style="opacity:0.012" fill="#000000" d="M 170.5,130.5 C 171.833,131.167 171.833,131.167 170.5,130.5 Z"/></g>
<g><path style="opacity:0.008" fill="#000000" d="M 169.5,131.5 C 169.833,131.5 170.167,131.5 170.5,131.5C 170.672,132.492 170.338,133.158 169.5,133.5C 169.5,132.833 169.5,132.167 169.5,131.5 Z"/></g>
<g><path style="opacity:0.992" fill="#497838" d="M 177.5,106.5 C 177.5,107.5 177.5,108.5 177.5,109.5C 176.232,111.905 175.565,114.572 175.5,117.5C 174.596,118.209 174.263,119.209 174.5,120.5C 173.596,121.209 173.263,122.209 173.5,123.5C 172.662,123.842 172.328,124.508 172.5,125.5C 171.662,125.842 171.328,126.508 171.5,127.5C 170.596,128.209 170.263,129.209 170.5,130.5C 169.833,130.5 169.5,130.833 169.5,131.5C 168.662,131.842 168.328,132.508 168.5,133.5C 167.662,133.842 167.328,134.508 167.5,135.5C 166.662,135.842 166.328,136.508 166.5,137.5C 165.833,137.5 165.5,137.833 165.5,138.5C 164.662,138.842 164.328,139.508 164.5,140.5C 163.833,140.5 163.5,140.833 163.5,141.5C 162.833,141.5 162.5,141.833 162.5,142.5C 161.662,142.842 161.328,143.508 161.5,144.5C 160.833,144.5 160.5,144.833 160.5,145.5C 159.833,145.5 159.5,145.833 159.5,146.5C 158.833,146.5 158.5,146.833 158.5,147.5C 157.833,147.5 157.5,147.833 157.5,148.5C 156.833,148.5 156.5,148.833 156.5,149.5C 155.833,149.5 155.5,149.833 155.5,150.5C 154.833,150.5 154.5,150.833 154.5,151.5C 153.833,151.5 153.5,151.833 153.5,152.5C 152.833,152.5 152.5,152.833 152.5,153.5C 151.833,153.5 151.5,153.833 151.5,154.5C 150.833,154.5 150.5,154.833 150.5,155.5C 149.833,155.5 149.5,155.833 149.5,156.5C 149.167,156.5 148.833,156.5 148.5,156.5C 147.833,156.5 147.5,156.833 147.5,157.5C 146.833,157.5 146.5,157.833 146.5,158.5C 145.833,158.5 145.5,158.833 145.5,159.5C 145.167,159.5 144.833,159.5 144.5,159.5C 143.833,159.5 143.5,159.833 143.5,160.5C 142.833,160.5 142.5,160.833 142.5,161.5C 142.167,161.5 141.833,161.5 141.5,161.5C 140.833,161.5 140.5,161.833 140.5,162.5C 140.167,162.5 139.833,162.5 139.5,162.5C 138.833,162.5 138.5,162.833 138.5,163.5C 137.833,163.5 137.5,163.833 137.5,164.5C 137.167,164.5 136.833,164.5 136.5,164.5C 135.508,164.328 134.842,164.662 134.5,165.5C 133.508,165.328 132.842,165.662 132.5,166.5C 131.508,166.328 130.842,166.662 130.5,167.5C 129.833,167.5 129.5,167.833 129.5,168.5C 128.508,168.328 127.842,168.662 127.5,169.5C 126.209,169.263 125.209,169.596 124.5,170.5C 123.209,170.263 122.209,170.596 121.5,171.5C 119.901,171.232 118.568,171.566 117.5,172.5C 115.901,172.232 114.568,172.566 113.5,173.5C 111.167,173.5 108.833,173.5 106.5,173.5C 104.585,173.216 102.919,173.549 101.5,174.5C 101.5,174.833 101.5,175.167 101.5,175.5C 100.662,175.842 100.328,176.508 100.5,177.5C 99.6618,177.842 99.3284,178.508 99.5,179.5C 98.8333,179.5 98.5,179.833 98.5,180.5C 97.8333,180.5 97.5,180.833 97.5,181.5C 97.1667,181.5 96.8333,181.5 96.5,181.5C 96.1667,181.5 95.8333,181.5 95.5,181.5C 96.2526,175.215 96.7526,168.882 97,162.5C 97.69,163.738 98.19,163.738 98.5,162.5C 98.8333,162.5 99.1667,162.5 99.5,162.5C 99.9321,163.71 100.599,164.71 101.5,165.5C 101.461,167.224 101.794,167.557 102.5,166.5C 102.833,166.5 103.167,166.5 103.5,166.5C 105.735,166.795 107.735,166.461 109.5,165.5C 111.167,165.5 112.833,165.5 114.5,165.5C 115.492,165.672 116.158,165.338 116.5,164.5C 117.167,164.5 117.833,164.5 118.5,164.5C 120.698,164.88 122.365,164.213 123.5,162.5C 123.833,162.5 124.167,162.5 124.5,162.5C 125.492,162.672 126.158,162.338 126.5,161.5C 127.167,161.5 127.5,161.167 127.5,160.5C 127.833,160.5 128.167,160.5 128.5,160.5C 128.833,160.5 129.167,160.5 129.5,160.5C 130.167,160.5 130.5,160.167 130.5,159.5C 130.833,159.5 131.167,159.5 131.5,159.5C 132.167,159.5 132.5,159.167 132.5,158.5C 133.167,158.5 133.5,158.167 133.5,157.5C 134.609,157.443 135.609,157.11 136.5,156.5C 137.167,156.5 137.5,156.167 137.5,155.5C 138.167,155.5 138.5,155.167 138.5,154.5C 138.833,154.5 139.167,154.5 139.5,154.5C 140.167,154.5 140.5,154.167 140.5,153.5C 141.167,153.5 141.5,153.167 141.5,152.5C 142.167,152.167 142.833,151.833 143.5,151.5C 144.167,151.5 144.5,151.167 144.5,150.5C 145.167,150.5 145.5,150.167 145.5,149.5C 146.167,149.5 146.5,149.167 146.5,148.5C 148.833,146.833 150.833,144.833 152.5,142.5C 153.167,142.5 153.5,142.167 153.5,141.5C 160.934,132.633 166.267,122.633 169.5,111.5C 169.351,112.552 169.517,113.552 170,114.5C 170.822,112.212 171.489,109.878 172,107.5C 172.317,109.301 172.984,109.634 174,108.5C 174.464,102.825 175.131,102.492 176,107.5C 176.383,106.944 176.883,106.611 177.5,106.5 Z"/></g>
<g><path style="opacity:0.008" fill="#000000" d="M 168.5,133.5 C 168.833,133.5 169.167,133.5 169.5,133.5C 169.672,134.492 169.338,135.158 168.5,135.5C 168.5,134.833 168.5,134.167 168.5,133.5 Z"/></g>
<g><path style="opacity:0.009" fill="#000000" d="M 127.5,134.5 C 128.674,136.368 128.007,137.368 125.5,137.5C 125.5,137.167 125.5,136.833 125.5,136.5C 126.167,136.5 126.5,136.167 126.5,135.5C 126.5,134.833 126.833,134.5 127.5,134.5 Z"/></g>
<g><path style="opacity:0.008" fill="#000000" d="M 167.5,135.5 C 167.833,135.5 168.167,135.5 168.5,135.5C 168.672,136.492 168.338,137.158 167.5,137.5C 167.5,136.833 167.5,136.167 167.5,135.5 Z"/></g>
<g><path style="opacity:0.014" fill="#000000" d="M 121.5,137.5 C 121.833,137.5 122.167,137.5 122.5,137.5C 123.167,137.5 123.5,137.833 123.5,138.5C 122.779,140.382 121.779,140.715 120.5,139.5C 121.167,139.5 121.5,139.167 121.5,138.5C 121.5,138.167 121.5,137.833 121.5,137.5 Z"/></g>
<g><path style="opacity:0.012" fill="#000000" d="M 166.5,137.5 C 166.833,137.5 167.167,137.5 167.5,137.5C 167.315,138.17 166.981,138.17 166.5,137.5 Z"/></g>
<g><path style="opacity:0.008" fill="#000000" d="M 165.5,138.5 C 165.833,138.5 166.167,138.5 166.5,138.5C 166.672,139.492 166.338,140.158 165.5,140.5C 165.5,139.833 165.5,139.167 165.5,138.5 Z"/></g>
<g><path style="opacity:0.009" fill="#000000" d="M 153.5,141.5 C 152.833,141.5 152.5,141.833 152.5,142.5C 151.287,141.503 151.454,140.503 153,139.5C 153.464,140.094 153.631,140.761 153.5,141.5 Z"/></g>
<g><path style="opacity:0.008" fill="#000000" d="M 164.5,140.5 C 164.833,140.5 165.167,140.5 165.5,140.5C 165.315,141.17 164.981,141.17 164.5,140.5 Z"/></g>
<g><path style="opacity:0.016" fill="#000000" d="M 163.5,141.5 C 163.833,141.5 164.167,141.5 164.5,141.5C 164.315,142.17 163.981,142.17 163.5,141.5 Z"/></g>
<g><path style="opacity:0.008" fill="#000000" d="M 162.5,142.5 C 162.833,142.5 163.167,142.5 163.5,142.5C 163.672,143.492 163.338,144.158 162.5,144.5C 162.5,143.833 162.5,143.167 162.5,142.5 Z"/></g>
<g><path style="opacity:0.008" fill="#000000" d="M 161.5,144.5 C 161.833,144.5 162.167,144.5 162.5,144.5C 162.315,145.17 161.981,145.17 161.5,144.5 Z"/></g>
<g><path style="opacity:0.012" fill="#000000" d="M 160.5,145.5 C 160.833,145.5 161.167,145.5 161.5,145.5C 161.315,146.17 160.981,146.17 160.5,145.5 Z"/></g>
<g><path style="opacity:0.008" fill="#000000" d="M 37.5,146.5 C 38.1667,146.5 38.5,146.833 38.5,147.5C 39.1667,147.5 39.5,147.833 39.5,148.5C 41.5,149.833 43.1667,151.5 44.5,153.5C 45.1667,153.5 45.5,153.833 45.5,154.5C 46.1667,154.5 46.5,154.833 46.5,155.5C 46.1034,156.525 45.4368,156.692 44.5,156C 42,153.5 39.5,151 37,148.5C 36.3083,147.563 36.475,146.897 37.5,146.5 Z"/></g>
<g><path style="opacity:0.016" fill="#000000" d="M 159.5,146.5 C 159.833,146.5 160.167,146.5 160.5,146.5C 160.315,147.17 159.981,147.17 159.5,146.5 Z"/></g>
<g><path style="opacity:0.01" fill="#030300" d="M 146.5,148.5 C 145.833,148.5 145.5,148.833 145.5,149.5C 144.833,149.5 144.5,149.833 144.5,150.5C 144.5,151.167 144.167,151.5 143.5,151.5C 142.537,149.702 143.204,148.368 145.5,147.5C 146.107,147.624 146.44,147.957 146.5,148.5 Z"/></g>
<g><path style="opacity:0.016" fill="#000000" d="M 158.5,147.5 C 158.833,147.5 159.167,147.5 159.5,147.5C 159.315,148.17 158.981,148.17 158.5,147.5 Z"/></g>
<g><path style="opacity:0.01" fill="#020202" d="M 51.5,149.5 C 53.2916,148.527 54.625,149.194 55.5,151.5C 54.8333,151.5 54.5,151.833 54.5,152.5C 53.8333,152.5 53.5,152.167 53.5,151.5C 52.8333,151.5 52.5,151.167 52.5,150.5C 51.8333,150.5 51.5,150.167 51.5,149.5 Z"/></g>
<g><path style="opacity:0.016" fill="#000000" d="M 157.5,148.5 C 157.833,148.5 158.167,148.5 158.5,148.5C 158.315,149.17 157.981,149.17 157.5,148.5 Z"/></g>
<g><path style="opacity:0.016" fill="#000000" d="M 156.5,149.5 C 156.833,149.5 157.167,149.5 157.5,149.5C 157.315,150.17 156.981,150.17 156.5,149.5 Z"/></g>
<g><path style="opacity:0.012" fill="#000000" d="M 155.5,150.5 C 155.833,150.5 156.167,150.5 156.5,150.5C 156.315,151.17 155.981,151.17 155.5,150.5 Z"/></g>
<g><path style="opacity:0.011" fill="#000000" d="M 55.5,152.5 C 55.5,152.167 55.5,151.833 55.5,151.5C 57.0269,151.427 58.0269,152.094 58.5,153.5C 57.8333,153.5 57.1667,153.5 56.5,153.5C 55.8333,153.5 55.5,153.167 55.5,152.5 Z"/></g>
<g><path style="opacity:0.011" fill="#030300" d="M 141.5,152.5 C 140.833,152.5 140.5,152.833 140.5,153.5C 140.5,154.167 140.167,154.5 139.5,154.5C 139.5,153.833 139.167,153.5 138.5,153.5C 139.221,151.618 140.221,151.285 141.5,152.5 Z"/></g>
<g><path style="opacity:0.012" fill="#000000" d="M 154.5,151.5 C 154.833,151.5 155.167,151.5 155.5,151.5C 155.5,152.833 154.833,153.5 153.5,153.5C 153.5,153.167 153.5,152.833 153.5,152.5C 154.167,152.5 154.5,152.167 154.5,151.5 Z"/></g>
<g><path style="opacity:0.01" fill="#000000" d="M 58.5,154.5 C 58.5,154.167 58.5,153.833 58.5,153.5C 60.0269,153.427 61.0269,154.094 61.5,155.5C 60.8333,155.5 60.5,155.833 60.5,156.5C 59.8333,156.5 59.5,156.167 59.5,155.5C 58.8333,155.5 58.5,155.167 58.5,154.5 Z"/></g>
<g><path style="opacity:0.01" fill="#030303" d="M 138.5,153.5 C 138.5,153.833 138.5,154.167 138.5,154.5C 137.833,154.5 137.5,154.833 137.5,155.5C 137.5,156.167 137.167,156.5 136.5,156.5C 135.326,154.632 135.993,153.632 138.5,153.5 Z"/></g>
<g><path style="opacity:0.016" fill="#000000" d="M 152.5,153.5 C 152.833,153.5 153.167,153.5 153.5,153.5C 153.315,154.17 152.981,154.17 152.5,153.5 Z"/></g>
<g><path style="opacity:0.016" fill="#000000" d="M 151.5,154.5 C 151.833,154.5 152.167,154.5 152.5,154.5C 152.315,155.17 151.981,155.17 151.5,154.5 Z"/></g>
<g><path style="opacity:0.008" fill="#060803" d="M 61.5,156.5 C 61.5,156.167 61.5,155.833 61.5,155.5C 66.022,157.264 70.3554,159.264 74.5,161.5C 73.5084,161.328 72.8417,161.662 72.5,162.5C 71.5084,162.672 70.8417,162.338 70.5,161.5C 70.1667,160.167 69.8333,160.167 69.5,161.5C 68.8333,161.5 68.5,161.167 68.5,160.5C 68.1667,159.167 67.8333,159.167 67.5,160.5C 66.8333,160.5 66.5,160.167 66.5,159.5C 66.1667,158.167 65.8333,158.167 65.5,159.5C 64.8333,159.5 64.5,159.167 64.5,158.5C 64.1667,157.167 63.8333,157.167 63.5,158.5C 62.8333,158.5 62.5,158.167 62.5,157.5C 61.8333,157.5 61.5,157.167 61.5,156.5 Z"/></g>
<g><path style="opacity:0.016" fill="#000000" d="M 150.5,155.5 C 150.833,155.5 151.167,155.5 151.5,155.5C 151.315,156.17 150.981,156.17 150.5,155.5 Z"/></g>
<g><path style="opacity:0.009" fill="#030803" d="M 82.5,157.5 C 81.8333,157.5 81.5,157.833 81.5,158.5C 81.5,159.167 81.1667,159.5 80.5,159.5C 79.1474,158.133 79.4807,157.133 81.5,156.5C 82.1067,156.624 82.44,156.957 82.5,157.5 Z"/></g>
<g><path style="opacity:0.009" fill="#060b04" d="M 133.5,157.5 C 132.833,157.5 132.5,157.833 132.5,158.5C 132.5,159.167 132.167,159.5 131.5,159.5C 131.167,158.167 130.833,158.167 130.5,159.5C 130.5,160.167 130.167,160.5 129.5,160.5C 129.167,159.167 128.833,159.167 128.5,160.5C 128.167,160.5 127.833,160.5 127.5,160.5C 125.776,160.461 125.443,160.794 126.5,161.5C 126.158,162.338 125.492,162.672 124.5,162.5C 124.158,161.662 123.492,161.328 122.5,161.5C 125.729,159.853 129.063,158.186 132.5,156.5C 133.107,156.624 133.44,156.957 133.5,157.5 Z"/></g>
<g><path style="opacity:0.013" fill="#000000" d="M 148.5,156.5 C 148.5,157.167 148.833,157.5 149.5,157.5C 149.027,158.906 148.027,159.573 146.5,159.5C 146.5,159.167 146.5,158.833 146.5,158.5C 147.167,158.5 147.5,158.167 147.5,157.5C 147.5,156.833 147.833,156.5 148.5,156.5 Z"/></g>
<g><path style="opacity:0.012" fill="#000000" d="M 149.5,156.5 C 149.833,156.5 150.167,156.5 150.5,156.5C 150.315,157.17 149.981,157.17 149.5,156.5 Z"/></g>
<g><path style="opacity:0.012" fill="#000000" d="M 49.5,157.5 C 50.1667,157.5 50.5,157.833 50.5,158.5C 51.1667,158.5 51.5,158.833 51.5,159.5C 51.5,159.833 51.5,160.167 51.5,160.5C 48.9931,160.368 48.3264,159.368 49.5,157.5 Z"/></g>
<g><path style="opacity:0.007" fill="#000000" d="M 95.5,158.5 C 97.6636,157.882 99.3303,158.882 100.5,161.5C 100.376,162.107 100.043,162.44 99.5,162.5C 99.5,161.833 99.1667,161.5 98.5,161.5C 97.8333,161.5 97.5,161.167 97.5,160.5C 97.5,159.833 97.1667,159.5 96.5,159.5C 96.5,158.833 96.1667,158.5 95.5,158.5 Z"/></g>
<g><path style="opacity:0.999" fill="#618e3a" d="M 95.5,158.5 C 96.1667,158.5 96.5,158.833 96.5,159.5C 97.1667,159.5 97.5,159.833 97.5,160.5C 97.5,161.167 97.8333,161.5 98.5,161.5C 98.5,161.833 98.5,162.167 98.5,162.5C 98.19,163.738 97.69,163.738 97,162.5C 96.7526,168.882 96.2526,175.215 95.5,181.5C 95.5,181.833 95.5,182.167 95.5,182.5C 94.8333,182.5 94.5,182.833 94.5,183.5C 93.8333,183.5 93.1667,183.5 92.5,183.5C 89.8333,183.5 87.1667,183.5 84.5,183.5C 83.8333,183.5 83.1667,183.5 82.5,183.5C 82.5,183.167 82.5,182.833 82.5,182.5C 83.7498,182.423 84.5831,181.756 85,180.5C 85.1667,177.167 85.3333,173.833 85.5,170.5C 85.0958,166.46 85.0958,162.627 85.5,159C 84.552,158.517 83.552,158.351 82.5,158.5C 82.5,158.167 82.5,157.833 82.5,157.5C 86.9508,156.122 91.2841,156.455 95.5,158.5 Z"/></g>
<g><path style="opacity:0.013" fill="#000000" d="M 144.5,159.5 C 144.5,160.167 144.833,160.5 145.5,160.5C 145.027,161.906 144.027,162.573 142.5,162.5C 142.5,162.167 142.5,161.833 142.5,161.5C 143.167,161.5 143.5,161.167 143.5,160.5C 143.5,159.833 143.833,159.5 144.5,159.5 Z"/></g>
<g><path style="opacity:0.012" fill="#000000" d="M 145.5,159.5 C 145.833,159.5 146.167,159.5 146.5,159.5C 146.315,160.17 145.981,160.17 145.5,159.5 Z"/></g>
<g><path style="opacity:0.01" fill="#040701" d="M 52.5,159.5 C 53.1667,159.5 53.5,159.833 53.5,160.5C 54.1667,160.5 54.5,160.833 54.5,161.5C 54.5,161.833 54.5,162.167 54.5,162.5C 52.9731,162.573 51.9731,161.906 51.5,160.5C 52.1667,160.5 52.5,160.167 52.5,159.5 Z"/></g>
<g><path style="opacity:0.013" fill="#060903" d="M 74.5,161.5 C 75.4916,161.328 76.1583,161.662 76.5,162.5C 75.8333,162.5 75.5,162.833 75.5,163.5C 74.5084,163.672 73.8417,163.338 73.5,162.5C 74.1667,162.5 74.5,162.167 74.5,161.5 Z"/></g>
<g><path style="opacity:0.999" fill="#7fa83a" d="M 81.5,158.5 C 81.8333,158.5 82.1667,158.5 82.5,158.5C 83.552,158.351 84.552,158.517 85.5,159C 85.0958,162.627 85.0958,166.46 85.5,170.5C 85.3333,173.833 85.1667,177.167 85,180.5C 84.5831,181.756 83.7498,182.423 82.5,182.5C 82.1667,182.5 81.8333,182.5 81.5,182.5C 81.1667,182.5 80.8333,182.5 80.5,182.5C 80.5,181.833 80.1667,181.5 79.5,181.5C 79.5,180.833 79.1667,180.5 78.5,180.5C 78.5,179.833 78.1667,179.5 77.5,179.5C 77.5,178.833 77.1667,178.5 76.5,178.5C 75.7659,177.292 75.4326,175.959 75.5,174.5C 75.244,170.731 75.5773,167.064 76.5,163.5C 76.5,163.167 76.5,162.833 76.5,162.5C 77.8333,161.5 79.1667,160.5 80.5,159.5C 81.1667,159.5 81.5,159.167 81.5,158.5 Z"/></g>
<g><path style="opacity:0.01" fill="#010401" d="M 141.5,161.5 C 141.5,162.167 141.833,162.5 142.5,162.5C 141.341,164.25 139.674,165.25 137.5,165.5C 137.5,165.167 137.5,164.833 137.5,164.5C 138.167,164.5 138.5,164.167 138.5,163.5C 138.5,162.833 138.833,162.5 139.5,162.5C 139.833,163.833 140.167,163.833 140.5,162.5C 140.5,161.833 140.833,161.5 141.5,161.5 Z"/></g>
<g><path style="opacity:0.01" fill="#050802" d="M 55.5,161.5 C 56.1667,161.5 56.5,161.833 56.5,162.5C 57.1667,162.5 57.5,162.833 57.5,163.5C 57.5,163.833 57.5,164.167 57.5,164.5C 55.9731,164.573 54.9731,163.906 54.5,162.5C 55.1667,162.5 55.5,162.167 55.5,161.5 Z"/></g>
<g><path style="opacity:0.01" fill="#000000" d="M 58.5,163.5 C 59.1667,163.5 59.5,163.833 59.5,164.5C 59.5,164.833 59.5,165.167 59.5,165.5C 58.5084,165.672 57.8417,165.338 57.5,164.5C 58.1667,164.5 58.5,164.167 58.5,163.5 Z"/></g>
<g><path style="opacity:0.012" fill="#000000" d="M 109.5,164.5 C 109.5,164.833 109.5,165.167 109.5,165.5C 107.265,165.205 105.265,165.539 103.5,166.5C 103.167,166.5 102.833,166.5 102.5,166.5C 102.5,165.833 102.167,165.5 101.5,165.5C 101.369,164.761 101.536,164.094 102,163.5C 104.381,164.435 106.881,164.768 109.5,164.5 Z"/></g>
<g><path style="opacity:0.008" fill="#020300" d="M 109.5,164.5 C 111.726,163.244 114.059,163.244 116.5,164.5C 116.158,165.338 115.492,165.672 114.5,165.5C 113.081,164.549 111.415,164.216 109.5,164.5 Z"/></g>
<g><path style="opacity:0.8" fill="#23351c" d="M 122.5,161.5 C 122.5,162.167 122.833,162.5 123.5,162.5C 122.365,164.213 120.698,164.88 118.5,164.5C 119.263,163.732 120.263,163.232 121.5,163C 117.774,161.957 118.107,161.457 122.5,161.5 Z"/></g>
<g><path style="opacity:0.008" fill="#0a1007" d="M 134.5,165.5 C 134.842,164.662 135.508,164.328 136.5,164.5C 136.5,165.167 136.833,165.5 137.5,165.5C 137.158,166.338 136.492,166.672 135.5,166.5C 135.5,165.833 135.167,165.5 134.5,165.5 Z"/></g>
<g><path style="opacity:0.008" fill="#010500" d="M 60.5,164.5 C 61.1667,164.5 61.5,164.833 61.5,165.5C 61.8333,166.833 62.1667,166.833 62.5,165.5C 63.1667,165.5 63.5,165.833 63.5,166.5C 63.8333,167.833 64.1667,167.833 64.5,166.5C 65.1667,166.5 65.5,166.833 65.5,167.5C 65.8333,168.833 66.1667,168.833 66.5,167.5C 67.1667,167.5 67.5,167.833 67.5,168.5C 64.3813,169.296 61.7146,168.296 59.5,165.5C 60.1667,165.5 60.5,165.167 60.5,164.5 Z"/></g>
<g><path style="opacity:0.008" fill="#0a1007" d="M 134.5,165.5 C 135.167,165.5 135.5,165.833 135.5,166.5C 134.713,168.104 133.38,168.771 131.5,168.5C 131.5,167.833 131.167,167.5 130.5,167.5C 130.842,166.662 131.508,166.328 132.5,166.5C 132.842,165.662 133.508,165.328 134.5,165.5 Z"/></g>
<g><path style="opacity:0.01" fill="#000000" d="M 129.5,169.5 C 129.5,169.167 129.5,168.833 129.5,168.5C 130.167,168.5 130.833,168.5 131.5,168.5C 131.158,169.338 130.492,169.672 129.5,169.5 Z"/></g>
<g><path style="opacity:0.012" fill="#000000" d="M 127.5,170.5 C 127.5,170.167 127.5,169.833 127.5,169.5C 128.167,169.5 128.833,169.5 129.5,169.5C 129.158,170.338 128.492,170.672 127.5,170.5 Z"/></g>
<g><path style="opacity:0.012" fill="#030401" d="M 72.5,169.5 C 73.1667,169.5 73.5,169.833 73.5,170.5C 73.3781,174.838 73.0447,175.172 72.5,171.5C 71.448,171.649 70.448,171.483 69.5,171C 70.7375,170.768 71.7375,170.268 72.5,169.5 Z"/></g>
<g><path style="opacity:0.009" fill="#000000" d="M 124.5,171.5 C 124.5,171.167 124.5,170.833 124.5,170.5C 125.5,170.5 126.5,170.5 127.5,170.5C 126.791,171.404 125.791,171.737 124.5,171.5 Z"/></g>
<g><path style="opacity:0.01" fill="#000000" d="M 121.5,172.5 C 121.5,172.167 121.5,171.833 121.5,171.5C 122.5,171.5 123.5,171.5 124.5,171.5C 123.791,172.404 122.791,172.737 121.5,172.5 Z"/></g>
<g><path style="opacity:0.009" fill="#000000" d="M 117.5,173.5 C 117.5,173.167 117.5,172.833 117.5,172.5C 118.833,172.5 120.167,172.5 121.5,172.5C 120.432,173.434 119.099,173.768 117.5,173.5 Z"/></g>
<g><path style="opacity:0.011" fill="#000000" d="M 113.5,174.5 C 113.5,174.167 113.5,173.833 113.5,173.5C 114.833,173.5 116.167,173.5 117.5,173.5C 116.432,174.434 115.099,174.768 113.5,174.5 Z"/></g>
<g><path style="opacity:0.008" fill="#040602" d="M 101.5,174.5 C 102.919,173.549 104.585,173.216 106.5,173.5C 106.5,173.833 106.5,174.167 106.5,174.5C 102.5,174.833 102.5,175.167 106.5,175.5C 104.972,176.309 103.306,176.976 101.5,177.5C 101.5,176.833 101.5,176.167 101.5,175.5C 102.833,175.167 102.833,174.833 101.5,174.5 Z"/></g>
<g><path style="opacity:0.011" fill="#000000" d="M 106.5,175.5 C 106.5,175.167 106.5,174.833 106.5,174.5C 108.833,174.5 111.167,174.5 113.5,174.5C 111.393,175.468 109.059,175.802 106.5,175.5 Z"/></g>
<g><path style="opacity:0.008" fill="#000000" d="M 73.5,175.5 C 74.525,175.897 74.6917,176.563 74,177.5C 73.5357,176.906 73.369,176.239 73.5,175.5 Z"/></g>
<g><path style="opacity:0.006" fill="#000000" d="M 100.5,177.5 C 100.833,177.5 101.167,177.5 101.5,177.5C 101.672,178.492 101.338,179.158 100.5,179.5C 100.5,178.833 100.5,178.167 100.5,177.5 Z"/></g>
<g><path style="opacity:0.007" fill="#000000" d="M 76.5,178.5 C 77.1667,178.5 77.5,178.833 77.5,179.5C 78.1667,179.5 78.5,179.833 78.5,180.5C 79.1667,180.5 79.5,180.833 79.5,181.5C 80.1667,181.5 80.5,181.833 80.5,182.5C 80.5,182.833 80.5,183.167 80.5,183.5C 77.3737,182.762 76.0403,181.095 76.5,178.5 Z"/></g>
<g><path style="opacity:0.008" fill="#000000" d="M 99.5,179.5 C 99.8333,179.5 100.167,179.5 100.5,179.5C 100.315,180.17 99.9813,180.17 99.5,179.5 Z"/></g>
<g><path style="opacity:0.012" fill="#000000" d="M 98.5,180.5 C 98.8333,180.5 99.1667,180.5 99.5,180.5C 99.3147,181.17 98.9813,181.17 98.5,180.5 Z"/></g>
<g><path style="opacity:0.012" fill="#000000" d="M 97.5,181.5 C 97.8333,181.5 98.1667,181.5 98.5,181.5C 98.3147,182.17 97.9813,182.17 97.5,181.5 Z"/></g>
<g><path style="opacity:0.008" fill="#000700" d="M 95.5,181.5 C 95.8333,181.5 96.1667,181.5 96.5,181.5C 96.5,182.167 96.8333,182.5 97.5,182.5C 97.0269,183.906 96.0269,184.573 94.5,184.5C 94.5,184.167 94.5,183.833 94.5,183.5C 95.1667,183.5 95.5,183.167 95.5,182.5C 95.5,182.167 95.5,181.833 95.5,181.5 Z"/></g>
<g><path style="opacity:0.009" fill="#000700" d="M 81.5,182.5 C 81.8333,182.5 82.1667,182.5 82.5,182.5C 82.5,182.833 82.5,183.167 82.5,183.5C 82.8417,184.338 83.5084,184.672 84.5,184.5C 84.5,184.833 84.5,185.167 84.5,185.5C 82.6203,185.771 81.287,185.104 80.5,183.5C 81.1667,183.5 81.5,183.167 81.5,182.5 Z"/></g>
<g><path style="opacity:0.319" fill="#1a2511" d="M 84.5,184.5 C 84.5,184.167 84.5,183.833 84.5,183.5C 87.1667,183.5 89.8333,183.5 92.5,183.5C 92.8417,184.338 93.5084,184.672 94.5,184.5C 93.791,185.404 92.791,185.737 91.5,185.5C 89.3926,184.532 87.0593,184.198 84.5,184.5 Z"/></g>
<g><path style="opacity:0.012" fill="#000000" d="M 84.5,185.5 C 86.8333,185.5 89.1667,185.5 91.5,185.5C 89.1667,186.833 86.8333,186.833 84.5,185.5 Z"/></g>
</svg>
