<?xml version="1.0" encoding="UTF-8"?>
<svg xmlns="http://www.w3.org/2000/svg" xmlns:xlink="http://www.w3.org/1999/xlink" width="50px" height="50px" viewBox="0 0 50 50" version="1.1">
<defs>
<radialGradient id="radial0" gradientUnits="userSpaceOnUse" cx="0" cy="0" fx="0" fy="0" r="1" gradientTransform="matrix(-141.585942,0.128499,-0.373371,-411.395831,43.3041,38.6345)">
<stop offset="0.1042" style="stop-color:rgb(14.117647%,32.54902%,49.411765%);stop-opacity:1;"/>
<stop offset="0.5203" style="stop-color:rgb(30.980392%,75.686275%,75.294118%);stop-opacity:1;"/>
<stop offset="1" style="stop-color:rgb(85.490196%,100%,95.686275%);stop-opacity:1;"/>
</radialGradient>
<radialGradient id="radial1" gradientUnits="userSpaceOnUse" cx="0" cy="0" fx="0" fy="0" r="1" gradientTransform="matrix(-141.585942,0.128499,-0.373371,-411.395831,43.3041,38.6345)">
<stop offset="0.1042" style="stop-color:rgb(14.117647%,32.54902%,49.411765%);stop-opacity:1;"/>
<stop offset="0.5203" style="stop-color:rgb(30.980392%,75.686275%,75.294118%);stop-opacity:1;"/>
<stop offset="1" style="stop-color:rgb(85.490196%,100%,95.686275%);stop-opacity:1;"/>
</radialGradient>
<linearGradient id="linear0" gradientUnits="userSpaceOnUse" x1="23.4074" y1="44.861" x2="16.9744" y2="11.4" >
<stop offset="0" style="stop-color:rgb(1.568627%,9.019608%,11.764706%);stop-opacity:0.639216;"/>
<stop offset="1" style="stop-color:rgb(1.568627%,9.019608%,11.764706%);stop-opacity:0;"/>
</linearGradient>
<radialGradient id="radial2" gradientUnits="userSpaceOnUse" cx="0" cy="0" fx="0" fy="0" r="1" gradientTransform="matrix(15.127215,-23.781776,344.611816,219.202173,12.9288,35.7619)">
<stop offset="0.1042" style="stop-color:rgb(22.745098%,47.058824%,69.411765%);stop-opacity:1;"/>
<stop offset="0.5203" style="stop-color:rgb(30.980392%,75.686275%,75.294118%);stop-opacity:1;"/>
<stop offset="1" style="stop-color:rgb(54.901961%,94.901961%,99.215686%);stop-opacity:1;"/>
</radialGradient>
<radialGradient id="radial3" gradientUnits="userSpaceOnUse" cx="0" cy="0" fx="0" fy="0" r="1" gradientTransform="matrix(-22.500012,16.187557,-16.072624,-22.34026,39.4968,8.99956)">
<stop offset="0.2165" style="stop-color:rgb(100%,100%,100%);stop-opacity:0.6;"/>
<stop offset="0.9063" style="stop-color:rgb(100%,100%,100%);stop-opacity:0;"/>
</radialGradient>
<linearGradient id="linear1" gradientUnits="userSpaceOnUse" x1="30.9648" y1="6.56051" x2="14.4648" y2="13.748" >
<stop offset="0" style="stop-color:rgb(100%,100%,100%);stop-opacity:0.639216;"/>
<stop offset="0.7324" style="stop-color:rgb(100%,100%,100%);stop-opacity:0;"/>
</linearGradient>
<linearGradient id="linear2" gradientUnits="userSpaceOnUse" x1="36.2978" y1="18.8032" x2="19.7978" y2="25.9907" >
<stop offset="0" style="stop-color:rgb(100%,100%,100%);stop-opacity:0.639216;"/>
<stop offset="0.7324" style="stop-color:rgb(100%,100%,100%);stop-opacity:0;"/>
</linearGradient>
<linearGradient id="linear3" gradientUnits="userSpaceOnUse" x1="74.4732" y1="-8.02043" x2="6.98929" y2="48.2028" >
<stop offset="0" style="stop-color:rgb(1.568627%,9.019608%,11.764706%);stop-opacity:0.639216;"/>
<stop offset="1" style="stop-color:rgb(1.568627%,9.019608%,11.764706%);stop-opacity:0;"/>
</linearGradient>
<linearGradient id="linear4" gradientUnits="userSpaceOnUse" x1="37.9199" y1="28.4178" x2="12.6072" y2="37.3553" >
<stop offset="0" style="stop-color:rgb(5.490196%,39.607843%,52.156863%);stop-opacity:1;"/>
<stop offset="1" style="stop-color:rgb(1.568627%,9.019608%,11.764706%);stop-opacity:1;"/>
</linearGradient>
<radialGradient id="radial4" gradientUnits="userSpaceOnUse" cx="0" cy="0" fx="0" fy="0" r="1" gradientTransform="matrix(18.045877,-14.386867,224.389099,281.457944,11.0617,40.6362)">
<stop offset="0.1042" style="stop-color:rgb(22.745098%,47.058824%,69.411765%);stop-opacity:1;"/>
<stop offset="0.5203" style="stop-color:rgb(30.980392%,75.686275%,75.294118%);stop-opacity:1;"/>
<stop offset="1" style="stop-color:rgb(54.901961%,94.901961%,99.215686%);stop-opacity:1;"/>
</radialGradient>
<linearGradient id="linear5" gradientUnits="userSpaceOnUse" x1="42.4733" y1="23.9424" x2="32.7388" y2="38.6976" >
<stop offset="0" style="stop-color:rgb(100%,100%,100%);stop-opacity:0.408597;"/>
<stop offset="1" style="stop-color:rgb(100%,100%,100%);stop-opacity:0;"/>
</linearGradient>
<filter id="alpha" filterUnits="objectBoundingBox" x="0%" y="0%" width="100%" height="100%">
  <feColorMatrix type="matrix" in="SourceGraphic" values="0 0 0 0 1 0 0 0 0 1 0 0 0 0 1 0 0 0 1 0"/>
</filter>
<mask id="mask0">
  <g filter="url(#alpha)">
<rect x="0" y="0" width="50" height="50" style="fill:rgb(0%,0%,0%);fill-opacity:0.2;stroke:none;"/>
  </g>
</mask>
<linearGradient id="linear6" gradientUnits="userSpaceOnUse" x1="32.4724" y1="26.0024" x2="29.3077" y2="24.0462" >
<stop offset="0" style="stop-color:rgb(54.901961%,94.901961%,99.215686%);stop-opacity:1;"/>
<stop offset="1" style="stop-color:rgb(54.901961%,94.901961%,99.215686%);stop-opacity:0;"/>
</linearGradient>
<clipPath id="clip1">
  <rect x="0" y="0" width="50" height="50"/>
</clipPath>
<g id="surface5" clip-path="url(#clip1)">
<path style=" stroke:none;fill-rule:evenodd;fill:url(#linear6);" d="M 30.261719 24.574219 C 30.289062 24.550781 30.324219 24.539062 30.351562 24.5625 C 31 25.074219 31.699219 25.539062 32.460938 25.925781 C 32.5 25.9375 32.511719 25.988281 32.488281 26.011719 C 32.460938 26.039062 32.4375 26.0625 32.398438 26.039062 C 31.636719 25.648438 30.925781 25.1875 30.273438 24.664062 C 30.25 24.648438 30.238281 24.601562 30.261719 24.574219 Z M 30.261719 24.574219 "/>
</g>
</defs>
<g id="surface1">
<path style=" stroke:none;fill-rule:nonzero;fill:url(#radial0);" d="M 5.949219 28.863281 C 6.136719 28.863281 6.324219 28.875 6.5 28.875 C 10.3125 28.875 13.875 27.773438 16.875 25.886719 C 18.101562 32.226562 23.675781 37 30.375 37 C 35.851562 37 40.574219 33.800781 42.789062 29.164062 C 42.960938 29.074219 43.125 28.976562 43.300781 28.875 C 40.886719 36.898438 33.4375 42.75 24.625 42.75 C 15.8125 42.75 8.363281 36.898438 5.949219 28.863281 Z M 5.949219 28.863281 "/>
<path style=" stroke:none;fill-rule:nonzero;fill:rgb(1.568627%,9.019608%,11.764706%);fill-opacity:0.878431;" d="M 5.949219 28.863281 C 6.136719 28.863281 6.324219 28.875 6.5 28.875 C 10.3125 28.875 13.875 27.773438 16.875 25.886719 C 18.101562 32.226562 23.675781 37 30.375 37 C 35.851562 37 40.574219 33.800781 42.789062 29.164062 C 42.960938 29.074219 43.125 28.976562 43.300781 28.875 C 40.886719 36.898438 33.4375 42.75 24.625 42.75 C 15.8125 42.75 8.363281 36.898438 5.949219 28.863281 Z M 5.949219 28.863281 "/>
<path style=" stroke:none;fill-rule:nonzero;fill:url(#radial1);" d="M 6.039062 29.175781 C 6.1875 29.175781 6.351562 29.175781 6.5 29.175781 C 10.335938 29.175781 13.914062 28.0625 16.9375 26.148438 C 18.261719 32.351562 23.773438 37 30.375 37 C 35.851562 37 40.574219 33.800781 42.789062 29.164062 C 42.960938 29.074219 43.125 28.976562 43.300781 28.875 C 40.886719 36.898438 33.4375 42.75 24.625 42.75 C 15.914062 42.75 8.550781 37.050781 6.039062 29.175781 Z M 6.039062 29.175781 "/>
<path style=" stroke:none;fill-rule:nonzero;fill:rgb(1.568627%,9.019608%,11.764706%);fill-opacity:0.4;" d="M 6.039062 29.175781 C 6.1875 29.175781 6.351562 29.175781 6.5 29.175781 C 10.335938 29.175781 13.914062 28.0625 16.9375 26.148438 C 18.261719 32.351562 23.773438 37 30.375 37 C 35.851562 37 40.574219 33.800781 42.789062 29.164062 C 42.960938 29.074219 43.125 28.976562 43.300781 28.875 C 40.886719 36.898438 33.4375 42.75 24.625 42.75 C 15.914062 42.75 8.550781 37.050781 6.039062 29.175781 Z M 6.039062 29.175781 "/>
<path style=" stroke:none;fill-rule:nonzero;fill:url(#linear0);" d="M 33.851562 36.5625 C 31.074219 38.863281 27.511719 40.25 23.625 40.25 C 16.363281 40.25 10.238281 35.414062 8.273438 28.800781 C 11.414062 28.511719 14.335938 27.488281 16.875 25.886719 C 18.101562 32.226562 23.675781 37 30.375 37 C 31.574219 37 32.738281 36.851562 33.851562 36.5625 Z M 33.851562 36.5625 "/>
<path style=" stroke:none;fill-rule:nonzero;fill:url(#radial2);" d="M 40.625 23.25 C 40.625 32.085938 33.460938 39.25 24.625 39.25 C 15.789062 39.25 8.625 32.085938 8.625 23.25 C 8.625 14.414062 15.789062 7.25 24.625 7.25 C 33.460938 7.25 40.625 14.414062 40.625 23.25 Z M 40.625 23.25 "/>
<path style=" stroke:none;fill-rule:nonzero;fill:url(#radial3);" d="M 39.5625 20.25 C 39.5625 26.460938 34.523438 31.5 28.3125 31.5 C 22.101562 31.5 17.0625 26.460938 17.0625 20.25 C 17.0625 14.039062 22.101562 9 28.3125 9 C 34.523438 9 39.5625 14.039062 39.5625 20.25 Z M 39.5625 20.25 "/>
<path style=" stroke:none;fill-rule:nonzero;fill:url(#linear1);" d="M 25.675781 9.011719 C 25.425781 9 25.175781 8.988281 24.914062 8.988281 C 22.523438 8.988281 20.261719 9.585938 18.300781 10.648438 C 19.351562 10.414062 20.449219 10.300781 21.574219 10.300781 C 22.726562 10.300781 23.835938 10.425781 24.898438 10.664062 Z M 25.675781 9.011719 "/>
<path style=" stroke:none;fill-rule:nonzero;fill:url(#linear2);" d="M 26.601562 11.164062 C 32.488281 13.238281 36.699219 18.835938 36.699219 25.4375 C 36.699219 28.148438 35.988281 30.6875 34.738281 32.886719 C 37.300781 30.363281 38.875 26.851562 38.875 22.960938 C 38.875 16.125 33.976562 10.449219 27.5 9.238281 Z M 26.601562 11.164062 "/>
<path style=" stroke:none;fill-rule:nonzero;fill:url(#linear3);" d="M 33.175781 36.773438 C 30.699219 38.335938 27.773438 39.25 24.625 39.25 C 19.636719 39.25 15.1875 36.976562 12.25 33.398438 C 13.0625 33.550781 13.886719 33.625 14.75 33.625 C 20.9375 33.625 26.164062 29.539062 27.898438 23.925781 C 28.476562 23.976562 29.050781 24 29.625 24 C 33.625 24 37.335938 22.800781 40.425781 20.738281 C 40.550781 21.5625 40.625 22.398438 40.625 23.25 C 40.625 23.773438 40.601562 24.300781 40.550781 24.824219 C 39.648438 29.675781 36.949219 33.898438 33.175781 36.773438 Z M 33.175781 36.773438 "/>
<path style=" stroke:none;fill-rule:nonzero;fill:url(#linear4);" d="M 5.949219 28.886719 C 8.363281 36.914062 15.8125 42.761719 24.625 42.761719 C 35.351562 42.761719 44.0625 34.101562 44.125 23.386719 C 43.050781 23.375 42 23.289062 40.988281 23.113281 C 38.585938 24.175781 35.925781 24.761719 33.125 24.761719 C 32.148438 24.761719 31.199219 24.6875 30.273438 24.550781 C 28.550781 30.175781 23.3125 34.261719 17.125 34.261719 C 12.8125 34.261719 8.960938 32.273438 6.4375 29.164062 C 6.273438 29.0625 6.113281 28.976562 5.949219 28.886719 Z M 5.949219 28.886719 "/>
<path style=" stroke:none;fill-rule:nonzero;fill:url(#radial4);" d="M 44.125 23.386719 C 41.261719 25.050781 37.925781 26 34.375 26 C 33.699219 26 33.023438 25.960938 32.375 25.898438 C 31.136719 32.226562 25.5625 37 18.875 37 C 13.398438 37 8.675781 33.800781 6.460938 29.164062 C 6.289062 29.074219 6.125 28.976562 5.949219 28.875 C 8.363281 36.898438 15.8125 42.75 24.625 42.75 C 35.351562 42.75 44.050781 34.101562 44.125 23.386719 Z M 44.125 23.386719 "/>
<path style=" stroke:none;fill-rule:nonzero;fill:url(#linear5);" d="M 42.699219 24.136719 C 41.523438 24.6875 40.289062 25.136719 39 25.449219 C 38.835938 26.875 38.511719 28.300781 38.023438 29.710938 C 36.835938 33.148438 34.824219 36.074219 32.273438 38.3125 C 36.625 36.210938 40.175781 32.449219 41.875 27.523438 C 42.261719 26.398438 42.539062 25.273438 42.699219 24.136719 Z M 42.699219 24.136719 "/>
<use xlink:href="#surface5" mask="url(#mask0)"/>
</g>
</svg>
