<svg width="50" height="50" viewBox="0 0 50 50" fill="none" xmlns="http://www.w3.org/2000/svg">
<path d="M5.95 28.8624C6.1375 28.8624 6.325 28.875 6.5 28.875C10.3125 28.875 13.875 27.775 16.875 25.8875C18.1 32.225 23.675 37 30.375 37C35.85 37 40.575 33.8 42.7875 29.1625C42.9625 29.075 43.125 28.975 43.3 28.875C40.8875 36.9 33.4375 42.75 24.625 42.75C15.8125 42.75 8.3625 36.9 5.95 28.8624Z" fill="url(#paint0_radial_903_1533)"/>
<path d="M5.95 28.8624C6.1375 28.8624 6.325 28.875 6.5 28.875C10.3125 28.875 13.875 27.775 16.875 25.8875C18.1 32.225 23.675 37 30.375 37C35.85 37 40.575 33.8 42.7875 29.1625C42.9625 29.075 43.125 28.975 43.3 28.875C40.8875 36.9 33.4375 42.75 24.625 42.75C15.8125 42.75 8.3625 36.9 5.95 28.8624Z" fill="#04171E" fill-opacity="0.88"/>
<path d="M6.03751 29.1749C6.18751 29.1749 6.35001 29.1749 6.50001 29.1749C10.3375 29.1749 13.9125 28.0624 16.9375 26.1499C18.2625 32.3499 23.775 36.9999 30.375 36.9999C35.85 36.9999 40.575 33.7999 42.7875 29.1624C42.9625 29.0749 43.125 28.9749 43.3 28.8749C40.8875 36.8999 33.4375 42.7499 24.625 42.7499C15.9125 42.7499 8.55001 37.0499 6.03751 29.1749Z" fill="url(#paint1_radial_903_1533)"/>
<path d="M6.03751 29.1749C6.18751 29.1749 6.35001 29.1749 6.50001 29.1749C10.3375 29.1749 13.9125 28.0624 16.9375 26.1499C18.2625 32.3499 23.775 36.9999 30.375 36.9999C35.85 36.9999 40.575 33.7999 42.7875 29.1624C42.9625 29.0749 43.125 28.9749 43.3 28.8749C40.8875 36.8999 33.4375 42.7499 24.625 42.7499C15.9125 42.7499 8.55001 37.0499 6.03751 29.1749Z" fill="#04171E" fill-opacity="0.4"/>
<path d="M33.85 36.5625C31.075 38.8625 27.5125 40.25 23.625 40.25C16.3625 40.25 10.2375 35.4124 8.27499 28.7999C11.4125 28.5124 14.3375 27.4875 16.875 25.8875C18.1 32.225 23.675 37 30.375 37C31.575 37 32.7375 36.85 33.85 36.5625Z" fill="url(#paint2_linear_903_1533)" fill-opacity="0.64"/>
<path d="M40.625 23.25C40.625 32.0875 33.4625 39.25 24.625 39.25C15.7875 39.25 8.625 32.0875 8.625 23.25C8.625 14.4125 15.7875 7.25 24.625 7.25C33.4625 7.25 40.625 14.4125 40.625 23.25Z" fill="url(#paint3_radial_903_1533)"/>
<path d="M39.5625 20.25C39.5625 26.4625 34.525 31.5 28.3125 31.5C22.1 31.5 17.0625 26.4625 17.0625 20.25C17.0625 14.0375 22.1 9 28.3125 9C34.525 9 39.5625 14.0375 39.5625 20.25Z" fill="url(#paint4_radial_903_1533)" fill-opacity="0.6"/>
<path d="M25.675 9.01255C25.425 9.00005 25.175 8.98755 24.9125 8.98755C22.525 8.98755 20.2625 9.58755 18.3 10.65C19.35 10.4125 20.45 10.3 21.575 10.3C22.725 10.3 23.8375 10.425 24.9 10.6625L25.675 9.01255Z" fill="url(#paint5_linear_903_1533)" fill-opacity="0.64"/>
<path d="M26.6 11.1625C32.4875 13.2375 36.7 18.8375 36.7 25.4375C36.7 28.15 35.9875 30.6875 34.7375 32.8876C37.3 30.3626 38.875 26.85 38.875 22.9625C38.875 16.125 33.975 10.45 27.5 9.23755L26.6 11.1625Z" fill="url(#paint6_linear_903_1533)" fill-opacity="0.64"/>
<path d="M33.175 36.7751C30.7 38.3376 27.775 39.25 24.625 39.25C19.6375 39.25 15.1875 36.9751 12.25 33.4001C13.0625 33.5501 13.8875 33.625 14.75 33.625C20.9375 33.625 26.1625 29.5375 27.9 23.925C28.475 23.975 29.05 24 29.625 24C33.625 24 37.3375 22.8 40.425 20.7375C40.55 21.5625 40.625 22.4 40.625 23.25C40.625 23.775 40.6 24.3001 40.55 24.8251C39.65 29.6751 36.95 33.9001 33.175 36.7751Z" fill="url(#paint7_linear_903_1533)" fill-opacity="0.64"/>
<path d="M5.95 28.8876C8.3625 36.9125 15.8125 42.7626 24.625 42.7626C35.35 42.7626 44.0625 34.1 44.125 23.3876C43.05 23.3751 42 23.2875 40.9875 23.1125C38.5875 24.175 35.925 24.7626 33.125 24.7626C32.15 24.7626 31.2 24.6875 30.275 24.55C28.55 30.175 23.3125 34.2626 17.125 34.2626C12.8125 34.2626 8.9625 32.2751 6.4375 29.1625C6.275 29.0626 6.1125 28.9751 5.95 28.8876Z" fill="url(#paint8_linear_903_1533)"/>
<path d="M44.125 23.3875C41.2625 25.05 37.925 26 34.375 26C33.7 26 33.025 25.9625 32.375 25.9C31.1375 32.2249 25.5625 37 18.875 37C13.4 37 8.675 33.8 6.4625 29.1625C6.2875 29.075 6.125 28.975 5.95 28.875C8.3625 36.9 15.8125 42.75 24.625 42.75C35.35 42.75 44.05 34.1 44.125 23.3875Z" fill="url(#paint9_radial_903_1533)"/>
<path d="M42.7 24.1375C41.525 24.6875 40.2875 25.1375 39 25.45C38.8375 26.875 38.5125 28.3 38.025 29.7125C36.8375 33.15 34.825 36.075 32.275 38.3125C36.625 36.2125 40.175 32.45 41.875 27.525C42.2625 26.4 42.5375 25.275 42.7 24.1375Z" fill="url(#paint10_linear_903_1533)" fill-opacity="0.64"/>
<path opacity="0.2" fill-rule="evenodd" clip-rule="evenodd" d="M30.2625 24.575C30.2875 24.55 30.325 24.5375 30.35 24.5625C31 25.075 31.7 25.5375 32.4625 25.925C32.5 25.9375 32.5125 25.9875 32.4875 26.0125C32.4625 26.0375 32.4375 26.0625 32.4 26.0375C31.6375 25.65 30.925 25.1875 30.275 24.6625C30.25 24.65 30.2375 24.6 30.2625 24.575Z" fill="url(#paint11_linear_903_1533)"/>
<defs>
<radialGradient id="paint0_radial_903_1533" cx="0" cy="0" r="1" gradientUnits="userSpaceOnUse" gradientTransform="translate(43.3041 38.6345) rotate(179.948) scale(141.586 411.396)">
<stop offset="0.1042" stop-color="#24537E"/>
<stop offset="0.5203" stop-color="#4FC1C0"/>
<stop offset="1" stop-color="#DAFFF4"/>
</radialGradient>
<radialGradient id="paint1_radial_903_1533" cx="0" cy="0" r="1" gradientUnits="userSpaceOnUse" gradientTransform="translate(43.3041 38.6345) rotate(179.948) scale(141.586 411.396)">
<stop offset="0.1042" stop-color="#24537E"/>
<stop offset="0.5203" stop-color="#4FC1C0"/>
<stop offset="1" stop-color="#DAFFF4"/>
</radialGradient>
<linearGradient id="paint2_linear_903_1533" x1="23.4074" y1="44.861" x2="16.9744" y2="11.4" gradientUnits="userSpaceOnUse">
<stop stop-color="#04171E"/>
<stop offset="1" stop-color="#04171E" stop-opacity="0"/>
</linearGradient>
<radialGradient id="paint3_radial_903_1533" cx="0" cy="0" r="1" gradientUnits="userSpaceOnUse" gradientTransform="translate(12.9288 35.7619) rotate(-57.5402) scale(28.1852 408.42)">
<stop offset="0.1042" stop-color="#3A78B1"/>
<stop offset="0.5203" stop-color="#4FC1C0"/>
<stop offset="1" stop-color="#8CF2FD"/>
</radialGradient>
<radialGradient id="paint4_radial_903_1533" cx="0" cy="0" r="1" gradientUnits="userSpaceOnUse" gradientTransform="translate(39.4968 8.99956) rotate(144.267) scale(27.718 27.5212)">
<stop offset="0.2165" stop-color="white"/>
<stop offset="0.9063" stop-color="white" stop-opacity="0"/>
</radialGradient>
<linearGradient id="paint5_linear_903_1533" x1="30.9648" y1="6.56051" x2="14.4648" y2="13.748" gradientUnits="userSpaceOnUse">
<stop stop-color="white"/>
<stop offset="0.7324" stop-color="white" stop-opacity="0"/>
</linearGradient>
<linearGradient id="paint6_linear_903_1533" x1="36.2978" y1="18.8032" x2="19.7978" y2="25.9907" gradientUnits="userSpaceOnUse">
<stop stop-color="white"/>
<stop offset="0.7324" stop-color="white" stop-opacity="0"/>
</linearGradient>
<linearGradient id="paint7_linear_903_1533" x1="74.4732" y1="-8.02043" x2="6.98929" y2="48.2028" gradientUnits="userSpaceOnUse">
<stop stop-color="#04171E"/>
<stop offset="1" stop-color="#04171E" stop-opacity="0"/>
</linearGradient>
<linearGradient id="paint8_linear_903_1533" x1="37.9199" y1="28.4178" x2="12.6072" y2="37.3553" gradientUnits="userSpaceOnUse">
<stop stop-color="#0E6585"/>
<stop offset="1" stop-color="#04171E"/>
</linearGradient>
<radialGradient id="paint9_radial_903_1533" cx="0" cy="0" r="1" gradientUnits="userSpaceOnUse" gradientTransform="translate(11.0617 40.6362) rotate(-38.5632) scale(23.0789 359.957)">
<stop offset="0.1042" stop-color="#3A78B1"/>
<stop offset="0.5203" stop-color="#4FC1C0"/>
<stop offset="1" stop-color="#8CF2FD"/>
</radialGradient>
<linearGradient id="paint10_linear_903_1533" x1="42.4733" y1="23.9424" x2="32.7388" y2="38.6976" gradientUnits="userSpaceOnUse">
<stop stop-color="white" stop-opacity="0.64"/>
<stop offset="1" stop-color="white" stop-opacity="0"/>
</linearGradient>
<linearGradient id="paint11_linear_903_1533" x1="32.4724" y1="26.0024" x2="29.3077" y2="24.0462" gradientUnits="userSpaceOnUse">
<stop stop-color="#8CF2FD"/>
<stop offset="1" stop-color="#8CF2FD" stop-opacity="0"/>
</linearGradient>
</defs>
</svg>
