<?xml version="1.0" encoding="UTF-8"?>
<svg xmlns="http://www.w3.org/2000/svg" xmlns:xlink="http://www.w3.org/1999/xlink" width="50px" height="50px" viewBox="0 0 50 50" version="1.1">
<g id="surface1">
<path style=" stroke:none;fill-rule:nonzero;fill:rgb(48.235294%,16.862745%,97.647059%);fill-opacity:1;" d="M 25 50 C 38.808594 50 50 38.808594 50 25 C 50 11.191406 38.808594 0 25 0 C 11.191406 0 0 11.191406 0 25 C 0 38.808594 11.191406 50 25 50 Z M 25 50 "/>
<path style=" stroke:none;fill-rule:nonzero;fill:rgb(100%,100%,100%);fill-opacity:1;" d="M 42.96875 21.179688 C 42.25 17.730469 40.539062 14.570312 37.988281 12.019531 C 34.519531 8.550781 29.910156 6.640625 25 6.640625 C 20.089844 6.640625 15.480469 8.539062 12.011719 12.011719 C 11.160156 12.859375 10.421875 13.769531 9.769531 14.730469 C 9.578125 14.988281 9.398438 15.261719 9.25 15.550781 C 7.550781 18.378906 6.640625 21.609375 6.640625 25 C 6.640625 29.910156 8.550781 34.519531 12.019531 37.988281 C 15.488281 41.460938 20.101562 43.371094 25.011719 43.371094 C 29.921875 43.371094 34.53125 41.460938 38 37.988281 C 39.628906 36.359375 40.929688 34.460938 41.839844 32.410156 C 41.949219 32.191406 42.039062 31.949219 42.128906 31.710938 C 42.960938 29.609375 43.390625 27.339844 43.390625 25.011719 C 43.390625 23.78125 43.269531 22.609375 43.03125 21.429688 C 43.019531 21.371094 42.980469 21.21875 42.96875 21.179688 Z M 36.601562 12.789062 C 36.699219 12.890625 36.808594 12.988281 36.921875 13.101562 C 38.539062 14.71875 39.800781 16.621094 40.628906 18.679688 C 40.710938 18.878906 40.539062 19.109375 40.308594 19.070312 C 39.828125 18.980469 39.28125 18.949219 38.679688 18.960938 C 38.261719 18.96875 37.890625 18.667969 37.820312 18.269531 C 37.488281 16.429688 37.011719 14.738281 36.410156 13.261719 C 36.378906 13.179688 36.339844 13.101562 36.308594 13 C 36.230469 12.808594 36.460938 12.640625 36.601562 12.789062 Z M 38.351562 23.558594 C 38.351562 23.371094 38.589844 23.28125 38.710938 23.441406 C 38.839844 23.628906 38.980469 23.828125 39.109375 24.019531 C 39.28125 24.28125 39.441406 24.539062 39.578125 24.800781 C 39.671875 24.960938 39.648438 25.160156 39.53125 25.300781 C 39.339844 25.511719 39.121094 25.738281 38.890625 25.96875 C 38.808594 26.050781 38.71875 26.140625 38.628906 26.230469 C 38.519531 26.328125 38.328125 26.25 38.339844 26.109375 C 38.351562 25.828125 38.359375 25.558594 38.359375 25.269531 C 38.371094 24.679688 38.371094 24.121094 38.351562 23.558594 Z M 15.21875 11.28125 C 18.058594 9.25 21.441406 8.160156 25 8.160156 C 25.941406 8.160156 26.871094 8.238281 27.78125 8.378906 C 28.019531 8.417969 28.109375 8.730469 27.910156 8.878906 C 27.03125 9.570312 26.21875 10.589844 25.488281 11.910156 C 25.320312 12.238281 24.941406 12.390625 24.578125 12.289062 C 22.179688 11.621094 19.820312 11.300781 17.640625 11.371094 C 16.828125 11.398438 16.078125 11.480469 15.359375 11.609375 C 15.160156 11.660156 15.058594 11.398438 15.21875 11.28125 Z M 12.820312 36.449219 C 12.460938 35.789062 12.921875 34.238281 15.25 31.878906 C 15.488281 31.640625 15.46875 31.238281 15.199219 31.019531 C 15.109375 30.949219 15.019531 30.878906 14.921875 30.800781 C 14.691406 30.621094 14.351562 30.628906 14.140625 30.839844 C 14.089844 30.890625 14.058594 30.917969 14.050781 30.929688 C 12.890625 32.121094 12.070312 33.230469 11.621094 34.230469 C 11.488281 34.519531 11.101562 34.550781 10.929688 34.28125 C 9.121094 31.558594 8.148438 28.359375 8.148438 25.011719 C 8.148438 23.820312 8.269531 22.628906 8.519531 21.488281 C 8.558594 21.320312 8.800781 21.308594 8.859375 21.480469 C 9.210938 22.628906 9.78125 23.828125 10.558594 25.03125 C 11.621094 26.648438 13.011719 28.210938 14.671875 29.648438 C 15.230469 30.140625 15.828125 30.609375 16.460938 31.070312 C 17.730469 32 19.089844 32.851562 20.550781 33.601562 C 21.191406 33.941406 21.828125 34.25 22.46875 34.550781 C 22.828125 34.710938 23.238281 34.71875 23.601562 34.578125 C 23.910156 34.460938 24.210938 34.339844 24.519531 34.210938 C 24.859375 34.070312 25.039062 33.710938 24.949219 33.351562 C 24.941406 33.308594 24.929688 33.269531 24.929688 33.25 C 24.421875 31.121094 24.140625 28.710938 24.101562 26.199219 C 24.101562 26.167969 24.101562 25.601562 24.101562 25.011719 C 24.101562 24.417969 24.121094 24.148438 24.140625 23.71875 C 24.289062 20.679688 24.808594 17.828125 25.628906 15.417969 C 25.699219 15.199219 25.589844 14.960938 25.359375 14.878906 C 25.148438 14.808594 24.929688 14.738281 24.710938 14.667969 C 24.5 14.601562 24.261719 14.71875 24.179688 14.941406 C 23.289062 17.550781 22.738281 20.640625 22.601562 23.910156 C 22.578125 24.328125 22.359375 24.710938 22 24.917969 C 20.058594 26.070312 18.289062 27.289062 16.738281 28.511719 C 16.421875 28.769531 15.960938 28.75 15.648438 28.488281 C 14.109375 27.148438 12.808594 25.699219 11.828125 24.191406 C 9.898438 21.230469 9.441406 18.449219 10.539062 16.339844 L 10.550781 16.328125 C 10.691406 16.101562 10.839844 15.871094 10.988281 15.648438 C 12.25 13.988281 14.589844 13.019531 17.699219 12.910156 C 17.890625 12.898438 18.101562 12.898438 18.289062 12.898438 C 20.199219 12.898438 22.238281 13.21875 24.320312 13.820312 C 24.359375 13.828125 24.660156 13.917969 24.71875 13.941406 C 25.25 14.109375 26.148438 14.417969 26.269531 14.460938 C 26.320312 14.480469 26.601562 14.589844 26.640625 14.601562 C 27.660156 15 28.671875 15.449219 29.671875 15.96875 C 31.609375 16.980469 33.378906 18.160156 34.941406 19.460938 C 31.988281 20.128906 28.558594 21.441406 25.109375 23.191406 C 24.949219 23.269531 24.839844 23.429688 24.828125 23.609375 C 24.820312 23.820312 24.800781 24.25 24.789062 24.601562 C 24.78125 24.808594 25.011719 24.960938 25.199219 24.859375 C 28.621094 23.058594 32.03125 21.730469 34.960938 21.011719 C 35.511719 20.878906 35.859375 20.359375 35.789062 19.800781 C 35.738281 19.410156 35.679688 19.019531 35.609375 18.648438 C 35.53125 18.179688 35.261719 17.75 34.890625 17.46875 C 33.519531 16.429688 32.011719 15.46875 30.390625 14.621094 C 29.300781 14.050781 28.199219 13.558594 27.078125 13.128906 C 26.851562 13.039062 26.738281 12.761719 26.871094 12.539062 C 28.011719 10.5 29.371094 9.359375 30.699219 9.359375 C 30.710938 9.359375 30.730469 9.359375 30.738281 9.359375 C 32.300781 9.390625 33.851562 11.011719 35.011719 13.820312 C 35.589844 15.238281 36.039062 16.878906 36.359375 18.660156 C 36.449219 19.160156 36.519531 19.667969 36.578125 20.191406 C 36.609375 20.460938 36.660156 20.871094 36.691406 21.050781 C 36.820312 22.398438 36.871094 23.808594 36.851562 25.238281 C 36.828125 26.148438 36.789062 27.050781 36.710938 27.917969 C 34.621094 29.601562 32.039062 31.289062 29.199219 32.789062 C 28.429688 33.191406 27.660156 33.578125 26.898438 33.941406 C 26.738281 34.019531 26.078125 34.308594 26.039062 34.328125 C 25.320312 34.660156 24.609375 34.949219 23.898438 35.230469 C 23.859375 35.25 23.058594 35.550781 23.011719 35.570312 C 22.949219 35.589844 22.539062 35.738281 22.488281 35.761719 C 20.960938 36.300781 19.488281 36.710938 18.148438 36.96875 C 14.761719 37.621094 13.171875 37.121094 12.820312 36.449219 Z M 17.429688 29.910156 C 18.910156 28.710938 20.648438 27.488281 22.558594 26.351562 C 22.601562 28.789062 22.871094 31.140625 23.351562 33.25 C 22.648438 32.941406 21.941406 32.621094 21.238281 32.25 C 19.878906 31.550781 18.601562 30.761719 17.429688 29.910156 Z M 27.171875 41.710938 C 26.460938 41.800781 25.730469 41.851562 25 41.851562 C 21.71875 41.851562 18.589844 40.917969 15.910156 39.191406 C 15.730469 39.070312 15.808594 38.78125 16.019531 38.769531 C 16.058594 38.769531 16.109375 38.769531 16.140625 38.761719 C 16.820312 38.71875 17.570312 38.621094 18.378906 38.460938 C 20.101562 38.121094 22.019531 37.558594 24.03125 36.789062 C 24.210938 36.71875 24.410156 36.808594 24.488281 36.988281 C 25.269531 38.890625 26.21875 40.320312 27.308594 41.230469 C 27.5 41.390625 27.410156 41.679688 27.171875 41.710938 Z M 34.300781 37.210938 C 33.101562 39.578125 31.621094 40.898438 30.179688 40.871094 C 28.621094 40.839844 27.070312 39.21875 25.910156 36.410156 C 25.839844 36.238281 25.921875 36.03125 26.089844 35.949219 C 26.101562 35.941406 26.109375 35.941406 26.128906 35.929688 C 26.199219 35.898438 26.289062 35.890625 26.371094 35.910156 C 28.519531 36.511719 30.648438 36.828125 32.640625 36.828125 C 32.851562 36.828125 33.070312 36.828125 33.28125 36.820312 C 33.519531 36.808594 33.769531 36.800781 34.011719 36.78125 C 34.238281 36.78125 34.398438 37.011719 34.300781 37.210938 Z M 34.820312 35.167969 C 34.320312 35.238281 33.789062 35.289062 33.238281 35.308594 C 31.890625 35.359375 30.460938 35.238281 29 34.96875 C 28.820312 34.941406 28.789062 34.691406 28.949219 34.609375 C 29.269531 34.449219 29.589844 34.28125 29.910156 34.109375 C 32.148438 32.917969 34.25 31.621094 36.078125 30.289062 C 36.210938 30.191406 36.410156 30.308594 36.378906 30.46875 C 36.121094 32 35.78125 33.441406 35.328125 34.738281 C 35.238281 34.980469 35.050781 35.140625 34.820312 35.167969 Z M 37.308594 36.511719 C 37.191406 36.640625 37.050781 36.78125 36.921875 36.910156 C 36.699219 37.128906 36.449219 37.359375 36.21875 37.570312 C 36.070312 37.699219 35.839844 37.539062 35.921875 37.359375 C 35.941406 37.308594 35.96875 37.261719 35.988281 37.199219 C 36.089844 36.980469 36.179688 36.75 36.289062 36.519531 C 36.308594 36.46875 36.359375 36.429688 36.410156 36.410156 C 36.640625 36.351562 36.878906 36.28125 37.101562 36.210938 C 37.300781 36.148438 37.441406 36.378906 37.308594 36.511719 Z M 40.691406 31.167969 C 40.621094 31.339844 40.558594 31.511719 40.480469 31.679688 C 40.460938 31.710938 40.359375 31.917969 40.351562 31.949219 C 39.789062 32.980469 38.871094 33.789062 37.671875 34.359375 C 37.390625 34.488281 37.089844 34.238281 37.171875 33.941406 C 37.589844 32.460938 37.890625 30.859375 38.101562 29.167969 C 38.140625 28.851562 38.289062 28.570312 38.53125 28.359375 C 39.039062 27.917969 39.519531 27.46875 39.960938 27.03125 C 40.171875 26.820312 40.539062 26.910156 40.628906 27.199219 C 41.058594 28.648438 41.089844 30 40.691406 31.167969 Z M 41.03125 23.28125 C 40.910156 23.5 40.578125 23.511719 40.441406 23.300781 C 40.421875 23.269531 40.398438 23.230469 40.378906 23.199219 C 39.878906 22.417969 39.300781 21.667969 38.660156 20.929688 C 38.5 20.75 38.628906 20.46875 38.871094 20.460938 L 38.878906 20.460938 C 40.390625 20.460938 41.179688 20.839844 41.421875 21.289062 C 41.609375 21.667969 41.550781 22.339844 41.03125 23.28125 Z M 41.851562 25.5 C 41.851562 25.609375 41.691406 25.640625 41.648438 25.539062 C 41.628906 25.5 41.609375 25.449219 41.589844 25.410156 C 41.550781 25.328125 41.558594 25.230469 41.621094 25.148438 C 41.628906 25.140625 41.648438 25.109375 41.679688 25.070312 C 41.75 24.980469 41.859375 24.988281 41.859375 25.089844 C 41.851562 25.230469 41.851562 25.359375 41.851562 25.5 Z M 41.851562 25.5 "/>
</g>
</svg>
