<?xml version="1.0" encoding="UTF-8"?>
<svg xmlns="http://www.w3.org/2000/svg" xmlns:xlink="http://www.w3.org/1999/xlink" width="50px" height="50px" viewBox="0 0 50 50" version="1.1">
<g id="surface1">
<path style=" stroke:none;fill-rule:nonzero;fill:rgb(83.529412%,64.705882%,18.431373%);fill-opacity:1;" d="M 18.386719 7.90625 C 18.359375 8.121094 18.199219 8.195312 17.972656 8.222656 C 17.71875 8.429688 17.511719 8.679688 17.160156 8.683594 C 17.0625 8.6875 16.992188 8.777344 16.933594 8.859375 C 16.871094 8.957031 16.78125 9.015625 16.667969 9.027344 C 16.484375 9.050781 16.34375 9.140625 16.234375 9.289062 C 16.167969 9.378906 16.082031 9.453125 15.972656 9.46875 C 15.761719 9.496094 15.613281 9.605469 15.511719 9.789062 C 15.472656 9.855469 15.40625 9.90625 15.332031 9.921875 C 15.113281 9.960938 14.960938 10.085938 14.851562 10.273438 C 14.835938 10.304688 14.8125 10.339844 14.785156 10.34375 C 14.394531 10.4375 14.226562 10.839844 13.886719 11.003906 C 13.777344 11.058594 13.6875 11.140625 13.636719 11.25 C 13.574219 11.386719 13.484375 11.484375 13.335938 11.527344 C 13.191406 11.570312 13.097656 11.675781 13.039062 11.8125 C 12.96875 11.972656 12.855469 12.074219 12.660156 12.113281 C 12.625 12.128906 12.613281 12.132812 12.5625 12.160156 C 12.519531 12.1875 12.507812 12.195312 12.472656 12.230469 C 12.4375 12.269531 12.429688 12.277344 12.414062 12.308594 C 12.398438 12.335938 12.394531 12.347656 12.382812 12.378906 C 12.351562 12.460938 12.34375 12.527344 12.296875 12.605469 C 12.171875 12.699219 12.03125 12.738281 11.933594 12.875 C 11.835938 12.960938 11.832031 13.066406 11.8125 13.183594 C 11.800781 13.214844 11.792969 13.226562 11.773438 13.257812 C 11.707031 13.3125 11.636719 13.320312 11.566406 13.367188 C 11.515625 13.414062 11.476562 13.445312 11.421875 13.492188 C 11.398438 13.511719 11.390625 13.519531 11.359375 13.5625 C 11.304688 13.660156 11.308594 13.730469 11.289062 13.824219 C 11.28125 13.855469 11.277344 13.871094 11.257812 13.898438 C 11.214844 13.941406 11.179688 13.960938 11.125 13.984375 C 11.097656 13.996094 11.085938 14.003906 11.0625 14.019531 C 11.023438 14.042969 11.003906 14.054688 10.964844 14.078125 C 10.929688 14.105469 10.90625 14.117188 10.871094 14.140625 C 10.816406 14.171875 10.78125 14.183594 10.722656 14.175781 C 10.507812 14.164062 10.308594 14.164062 10.082031 14.164062 C 10.003906 14.117188 9.996094 14.058594 10.023438 13.964844 C 10.28125 13.632812 10.523438 13.324219 10.777344 13.027344 C 10.8125 12.980469 10.890625 12.972656 10.972656 12.9375 C 11.03125 12.867188 11.03125 12.796875 11.074219 12.722656 C 11.085938 12.691406 11.082031 12.675781 11.089844 12.671875 C 11.433594 12.417969 11.628906 12.003906 12.019531 11.804688 C 12.109375 11.757812 12.1875 11.714844 12.207031 11.601562 C 12.21875 11.550781 12.246094 11.476562 12.28125 11.460938 C 12.679688 11.324219 12.839844 10.878906 13.234375 10.742188 C 13.339844 10.707031 13.429688 10.660156 13.472656 10.542969 C 13.492188 10.484375 13.542969 10.410156 13.59375 10.398438 C 13.996094 10.292969 14.242188 9.957031 14.578125 9.75 C 14.902344 9.554688 15.265625 9.410156 15.558594 9.15625 C 15.789062 8.957031 16.089844 8.863281 16.355469 8.738281 C 17.011719 8.433594 17.660156 8.101562 18.386719 7.90625 Z M 18.386719 7.90625 "/>
<path style=" stroke:none;fill-rule:nonzero;fill:rgb(83.529412%,64.705882%,18.431373%);fill-opacity:1;" d="M 17.113281 41.453125 C 16.550781 41.296875 16.0625 41 15.554688 40.738281 C 15.21875 40.566406 14.902344 40.367188 14.589844 40.167969 C 14.238281 39.941406 13.878906 39.710938 13.542969 39.449219 C 13.257812 39.226562 13.003906 38.933594 12.664062 38.777344 C 12.46875 38.6875 12.375 38.53125 12.285156 38.328125 C 12.242188 38.285156 12.214844 38.261719 12.160156 38.25 C 11.929688 38.222656 11.808594 38.101562 11.757812 37.878906 C 11.742188 37.777344 11.683594 37.730469 11.601562 37.679688 C 11.453125 37.691406 11.359375 37.644531 11.289062 37.515625 C 11.25 37.136719 11.542969 37.238281 11.75 37.179688 C 11.792969 37.183594 11.808594 37.183594 11.851562 37.191406 C 11.894531 37.199219 11.910156 37.203125 11.949219 37.21875 C 11.984375 37.230469 12 37.238281 12.035156 37.253906 C 12.171875 37.332031 12.304688 37.367188 12.421875 37.46875 C 12.464844 37.535156 12.480469 37.585938 12.511719 37.652344 C 12.542969 37.699219 12.558594 37.730469 12.570312 37.785156 C 12.570312 37.800781 12.566406 37.835938 12.5625 37.847656 C 12.5625 37.863281 12.570312 37.890625 12.585938 37.902344 C 12.617188 37.90625 12.640625 37.90625 12.679688 37.910156 C 12.816406 37.957031 12.933594 38.007812 13.015625 38.136719 C 13.058594 38.222656 13.074219 38.296875 13.113281 38.382812 C 13.128906 38.410156 13.132812 38.421875 13.152344 38.449219 C 13.179688 38.480469 13.195312 38.496094 13.230469 38.515625 C 13.257812 38.527344 13.269531 38.53125 13.300781 38.542969 C 13.34375 38.550781 13.367188 38.554688 13.417969 38.558594 C 13.480469 38.5625 13.542969 38.554688 13.5625 38.582031 C 13.792969 38.875 14.128906 39.039062 14.390625 39.292969 C 14.402344 39.304688 14.40625 39.335938 14.421875 39.347656 C 14.78125 39.570312 15.050781 39.90625 15.429688 40.140625 C 15.496094 40.160156 15.539062 40.183594 15.597656 40.21875 C 15.742188 40.355469 15.796875 40.558594 16.03125 40.585938 C 16.332031 40.742188 16.554688 40.972656 16.894531 41.03125 C 17.050781 41.058594 17.160156 41.234375 17.113281 41.453125 Z M 17.113281 41.453125 "/>
<path style=" stroke:none;fill-rule:nonzero;fill:rgb(83.529412%,64.705882%,18.431373%);fill-opacity:1;" d="M 11.898438 37.25 C 11.671875 37.28125 11.445312 37.226562 11.289062 37.46875 C 11.160156 37.316406 10.933594 37.171875 10.859375 37.027344 C 10.667969 36.644531 10.183594 36.503906 10.113281 36.054688 C 10.101562 35.984375 10.066406 35.933594 10.003906 35.90625 C 9.765625 35.804688 9.609375 35.640625 9.605469 35.371094 C 9.601562 35.273438 9.527344 35.253906 9.460938 35.21875 C 9.269531 35.109375 9.148438 34.953125 9.148438 34.699219 C 9.542969 34.835938 9.941406 35 10.359375 35.171875 C 10.40625 35.214844 10.4375 35.238281 10.496094 35.261719 C 10.546875 35.292969 10.574219 35.320312 10.609375 35.367188 C 10.625 35.390625 10.632812 35.402344 10.667969 35.4375 C 10.710938 35.476562 10.734375 35.492188 10.773438 35.507812 C 10.8125 35.53125 10.835938 35.542969 10.867188 35.582031 C 10.9375 35.703125 10.894531 35.839844 11.003906 35.945312 C 11.074219 36.003906 11.128906 36.054688 11.195312 36.117188 C 11.332031 36.230469 11.4375 36.34375 11.476562 36.523438 C 11.519531 36.582031 11.550781 36.621094 11.59375 36.679688 C 11.636719 36.738281 11.675781 36.761719 11.75 36.769531 C 11.851562 36.796875 11.902344 36.851562 11.945312 36.949219 C 11.96875 37.0625 11.964844 37.148438 11.898438 37.25 Z M 11.898438 37.25 "/>
<path style=" stroke:none;fill-rule:nonzero;fill:rgb(83.529412%,64.705882%,18.431373%);fill-opacity:1;" d="M 7.328125 30.972656 C 7.375 30.917969 7.417969 30.882812 7.46875 30.871094 C 8.054688 30.726562 8.070312 30.75 8 31.347656 C 7.960938 31.667969 7.980469 31.992188 7.976562 32.347656 C 7.859375 32.375 7.730469 32.296875 7.722656 32.210938 C 7.691406 31.769531 7.28125 31.460938 7.328125 30.972656 Z M 7.328125 30.972656 "/>
<path style=" stroke:none;fill-rule:nonzero;fill:rgb(83.529412%,64.705882%,18.431373%);fill-opacity:1;" d="M 8.042969 20.355469 C 7.679688 20.648438 7.273438 20.808594 6.816406 20.902344 C 6.703125 20.667969 6.730469 20.453125 6.914062 20.273438 C 6.976562 20.207031 7.015625 20.132812 6.996094 20.039062 C 6.945312 19.796875 6.996094 19.585938 7.1875 19.421875 C 7.265625 19.355469 7.257812 19.269531 7.246094 19.179688 C 7.21875 18.976562 7.257812 18.792969 7.433594 18.65625 C 7.507812 18.601562 7.535156 18.523438 7.523438 18.429688 C 7.496094 18.207031 7.566406 18.023438 7.742188 17.882812 C 7.832031 17.816406 7.863281 17.734375 7.847656 17.628906 C 7.84375 17.585938 7.828125 17.527344 7.851562 17.5 C 8.121094 17.167969 8.183594 16.722656 8.457031 16.390625 C 8.46875 16.371094 8.503906 16.363281 8.503906 16.347656 C 8.566406 15.964844 8.871094 15.714844 9.039062 15.363281 C 9.066406 15.296875 9.085938 15.257812 9.117188 15.199219 C 9.328125 14.960938 9.519531 14.738281 9.609375 14.4375 C 9.644531 14.328125 9.765625 14.265625 9.910156 14.234375 C 9.96875 14.191406 10 14.144531 10.074219 14.105469 C 10.28125 14.054688 10.464844 14.050781 10.667969 14.113281 C 10.800781 14.21875 10.789062 14.347656 10.785156 14.496094 C 10.777344 14.535156 10.773438 14.550781 10.757812 14.589844 C 10.707031 14.660156 10.652344 14.683594 10.582031 14.722656 C 10.519531 14.757812 10.476562 14.792969 10.429688 14.84375 C 10.410156 14.871094 10.402344 14.882812 10.375 14.925781 C 10.320312 15.050781 10.332031 15.148438 10.3125 15.261719 C 10.300781 15.292969 10.296875 15.304688 10.28125 15.335938 C 10.230469 15.386719 10.179688 15.402344 10.117188 15.433594 C 10.082031 15.453125 10.0625 15.46875 10.03125 15.492188 C 10.011719 15.515625 10.003906 15.523438 9.976562 15.5625 C 9.941406 15.613281 9.933594 15.636719 9.921875 15.679688 C 9.910156 15.714844 9.910156 15.726562 9.898438 15.757812 C 9.878906 15.832031 9.871094 15.886719 9.859375 15.960938 C 9.851562 15.996094 9.847656 16.007812 9.835938 16.039062 C 9.808594 16.074219 9.792969 16.09375 9.757812 16.117188 C 9.730469 16.132812 9.722656 16.140625 9.699219 16.15625 C 9.6875 16.164062 9.660156 16.1875 9.640625 16.210938 C 9.605469 16.25 9.59375 16.269531 9.578125 16.304688 C 9.5625 16.328125 9.558594 16.339844 9.542969 16.363281 C 9.53125 16.390625 9.523438 16.402344 9.503906 16.445312 C 9.472656 16.570312 9.476562 16.664062 9.4375 16.773438 C 9.421875 16.804688 9.414062 16.816406 9.394531 16.84375 C 9.375 16.867188 9.367188 16.878906 9.328125 16.917969 C 9.292969 16.953125 9.28125 16.964844 9.246094 17.003906 C 9.210938 17.042969 9.203125 17.050781 9.175781 17.097656 C 9.085938 17.246094 9.09375 17.375 9.082031 17.519531 C 9.074219 17.554688 9.070312 17.570312 9.0625 17.601562 C 9.042969 17.648438 9.03125 17.675781 9.007812 17.714844 C 8.96875 17.78125 8.929688 17.816406 8.875 17.867188 C 8.851562 17.890625 8.839844 17.898438 8.8125 17.9375 C 8.757812 18.042969 8.761719 18.121094 8.761719 18.21875 C 8.761719 18.253906 8.757812 18.265625 8.753906 18.300781 C 8.75 18.335938 8.746094 18.347656 8.734375 18.378906 C 8.714844 18.425781 8.699219 18.449219 8.667969 18.484375 C 8.648438 18.511719 8.640625 18.523438 8.601562 18.5625 C 8.566406 18.601562 8.558594 18.613281 8.527344 18.660156 C 8.402344 18.839844 8.472656 19 8.457031 19.171875 C 8.445312 19.207031 8.4375 19.21875 8.421875 19.25 C 8.398438 19.289062 8.382812 19.3125 8.359375 19.351562 C 8.34375 19.382812 8.339844 19.394531 8.328125 19.425781 C 8.3125 19.46875 8.304688 19.496094 8.292969 19.542969 C 8.277344 19.839844 8.300781 20.128906 8.042969 20.355469 Z M 8.042969 20.355469 "/>
<path style=" stroke:none;fill-rule:nonzero;fill:rgb(83.529412%,64.705882%,18.431373%);fill-opacity:1;" d="M 25.03125 43.472656 C 35.253906 43.472656 43.539062 35.1875 43.539062 24.96875 C 43.539062 14.746094 35.253906 6.460938 25.03125 6.460938 C 14.8125 6.460938 6.527344 14.746094 6.527344 24.96875 C 6.527344 35.1875 14.8125 43.472656 25.03125 43.472656 Z M 25.03125 43.472656 "/>
<path style=" stroke:none;fill-rule:nonzero;fill:rgb(95.686275%,70.588235%,12.54902%);fill-opacity:1;" d="M 25.4375 43.5 C 35.414062 43.5 43.5 35.21875 43.5 25 C 43.5 14.78125 35.414062 6.5 25.4375 6.5 C 15.460938 6.5 7.375 14.78125 7.375 25 C 7.375 35.21875 15.460938 43.5 25.4375 43.5 Z M 25.4375 43.5 "/>
<path style=" stroke:none;fill-rule:nonzero;fill:rgb(97.647059%,97.254902%,96.470588%);fill-opacity:1;" d="M 9.164062 34.691406 C 8.675781 34.328125 8.367188 33.867188 8.160156 33.328125 C 8.117188 33.222656 8.097656 33.125 8.09375 32.988281 C 8.015625 32.835938 7.984375 32.703125 8.011719 32.535156 C 8.019531 32.472656 8.011719 32.4375 7.992188 32.390625 C 7.769531 32.121094 7.894531 31.816406 7.871094 31.535156 C 7.867188 31.480469 7.878906 31.425781 7.886719 31.371094 C 7.941406 30.925781 7.9375 30.921875 7.507812 30.964844 C 7.464844 30.972656 7.421875 30.96875 7.351562 30.953125 C 6.210938 30.945312 5.167969 30.671875 4.308594 29.949219 C 3.382812 29.167969 2.441406 28.394531 1.941406 27.226562 C 1.824219 26.957031 1.492188 26.832031 1.257812 26.648438 C 0.703125 26.210938 0.507812 25.617188 0.722656 24.945312 C 0.835938 24.585938 0.964844 24.238281 1.171875 23.914062 C 1.6875 23.101562 2.496094 22.804688 3.363281 22.589844 C 3.757812 22.492188 4.164062 22.417969 4.566406 22.339844 C 4.6875 22.316406 4.753906 22.28125 4.773438 22.140625 C 4.828125 21.699219 5.136719 21.464844 5.519531 21.328125 C 5.929688 21.183594 6.34375 21.066406 6.773438 20.917969 C 7.152344 20.675781 7.59375 20.605469 7.960938 20.332031 C 8.320312 20.152344 8.511719 19.820312 8.820312 19.582031 C 9.144531 19.277344 9.492188 19.054688 9.914062 18.914062 C 10.292969 18.808594 10.652344 18.710938 11.019531 18.660156 C 11.242188 18.628906 11.332031 18.507812 11.328125 18.28125 C 11.328125 18.03125 11.3125 17.789062 11.171875 17.5625 C 10.984375 17.261719 10.972656 16.921875 11.015625 16.582031 C 11.074219 16.117188 11.183594 15.660156 11.402344 15.242188 C 11.601562 14.855469 11.785156 14.457031 11.910156 14.042969 C 12.191406 13.101562 12.847656 12.585938 13.777344 12.316406 C 14.019531 12.292969 14.234375 12.296875 14.480469 12.3125 C 14.707031 12.324219 14.882812 12.417969 15.050781 12.519531 C 15.484375 12.773438 15.941406 12.976562 16.40625 13.160156 C 16.902344 13.359375 17.363281 13.625 17.820312 13.902344 C 18.070312 14.050781 18.3125 14.070312 18.59375 13.960938 C 19.164062 13.738281 19.761719 13.621094 20.378906 13.617188 C 20.558594 13.613281 20.71875 13.566406 20.875 13.484375 C 21.617188 13.109375 22.367188 13.066406 23.148438 13.375 C 24.121094 13.757812 25.066406 14.203125 25.910156 14.832031 C 26.125 14.996094 26.234375 14.929688 26.320312 14.710938 C 26.421875 14.449219 26.546875 14.195312 26.625 13.921875 C 26.867188 13.066406 27.75 12.839844 28.378906 13.464844 C 28.648438 13.734375 28.785156 14.074219 28.914062 14.421875 C 29.046875 14.78125 29.117188 15.15625 29.234375 15.519531 C 29.320312 15.78125 29.394531 15.820312 29.589844 15.621094 C 29.917969 15.292969 30.117188 14.890625 30.128906 14.414062 C 30.140625 13.859375 30.316406 13.410156 30.875 13.191406 C 31.320312 13.015625 31.8125 13.140625 32.140625 13.53125 C 32.378906 13.8125 32.632812 14.082031 32.914062 14.324219 C 33.121094 14.507812 33.191406 14.476562 33.242188 14.199219 C 33.269531 14.050781 33.277344 13.898438 33.3125 13.75 C 33.390625 13.425781 33.515625 13.382812 33.796875 13.570312 C 33.96875 13.683594 34.097656 13.855469 34.304688 13.960938 C 34.574219 14.273438 34.871094 14.507812 35.273438 14.628906 C 35.34375 14.660156 35.386719 14.703125 35.464844 14.722656 C 35.539062 14.730469 35.59375 14.742188 35.667969 14.765625 C 35.738281 14.792969 35.777344 14.835938 35.851562 14.859375 C 35.898438 14.871094 35.925781 14.878906 35.972656 14.894531 C 36.148438 14.953125 36.300781 15.007812 36.476562 15.054688 C 36.570312 15.074219 36.640625 15.101562 36.730469 15.136719 C 36.792969 15.160156 36.835938 15.179688 36.902344 15.191406 C 37.601562 15.425781 38.113281 15.855469 38.503906 16.445312 C 38.652344 16.671875 38.789062 16.90625 38.96875 17.140625 C 39.011719 17.199219 39.039062 17.246094 39.105469 17.277344 C 39.148438 17.289062 39.171875 17.296875 39.214844 17.308594 C 39.269531 17.324219 39.304688 17.335938 39.359375 17.347656 C 39.402344 17.355469 39.429688 17.363281 39.472656 17.375 C 39.527344 17.390625 39.566406 17.402344 39.621094 17.414062 C 39.667969 17.421875 39.691406 17.429688 39.738281 17.4375 C 39.792969 17.453125 39.832031 17.46875 39.890625 17.476562 C 39.953125 17.484375 39.992188 17.488281 40.050781 17.5 C 40.113281 17.515625 40.152344 17.527344 40.214844 17.535156 C 40.277344 17.542969 40.320312 17.550781 40.382812 17.5625 C 40.449219 17.578125 40.488281 17.59375 40.558594 17.601562 C 41 17.683594 41.332031 17.917969 41.664062 18.203125 C 42.011719 18.566406 42.347656 18.90625 42.769531 19.183594 C 43.371094 19.546875 44.023438 19.714844 44.667969 19.898438 C 45.191406 20.050781 45.699219 20.199219 45.765625 20.863281 C 45.777344 20.964844 45.855469 21 45.949219 21.019531 C 46.382812 21.101562 46.824219 21.171875 47.25 21.28125 C 48.800781 21.679688 49.625 22.359375 49.90625 24.085938 C 49.984375 24.554688 49.730469 24.988281 49.347656 25.269531 C 48.914062 25.589844 48.570312 25.9375 48.308594 26.425781 C 47.894531 27.210938 47.195312 27.773438 46.546875 28.367188 C 45.902344 28.953125 45.171875 29.339844 44.328125 29.527344 C 43.921875 29.617188 43.503906 29.554688 43.066406 29.566406 C 42.980469 29.574219 42.933594 29.601562 42.878906 29.597656 C 42.605469 29.574219 42.582031 29.726562 42.613281 29.941406 C 42.65625 30.261719 42.710938 30.582031 42.578125 30.917969 C 42.542969 31.734375 42.285156 32.445312 41.753906 33.070312 C 41.574219 33.273438 41.375 33.421875 41.152344 33.578125 C 40.976562 33.671875 40.808594 33.730469 40.621094 33.804688 C 40.566406 33.820312 40.535156 33.832031 40.476562 33.839844 C 39.929688 34.054688 39.378906 34.128906 38.800781 34.199219 C 38.703125 34.222656 38.632812 34.230469 38.53125 34.230469 C 38.359375 34.238281 38.214844 34.210938 38.046875 34.277344 C 37.601562 34.328125 37.183594 34.3125 36.734375 34.292969 C 36.652344 34.277344 36.601562 34.257812 36.53125 34.214844 C 36.496094 34.1875 36.484375 34.175781 36.457031 34.144531 C 36.304688 33.523438 36.226562 32.90625 35.898438 32.367188 C 35.785156 32.179688 35.683594 31.988281 35.558594 31.8125 C 35.460938 31.667969 35.363281 31.65625 35.265625 31.816406 C 35.125 32.035156 34.988281 32.257812 34.847656 32.476562 C 34.523438 32.988281 34.175781 33.484375 33.757812 33.957031 C 33.449219 34.339844 33.109375 34.660156 32.773438 35.015625 C 32.515625 35.308594 32.207031 35.5 31.914062 35.742188 C 31.566406 36.0625 31.175781 36.289062 30.789062 36.5625 C 30.746094 36.59375 30.722656 36.605469 30.675781 36.625 C 30.597656 36.644531 30.550781 36.679688 30.492188 36.730469 C 30.121094 36.929688 29.785156 37.144531 29.386719 37.277344 C 29.304688 37.296875 29.253906 37.324219 29.1875 37.375 C 29.042969 37.445312 28.910156 37.480469 28.757812 37.535156 C 28.65625 37.554688 28.589844 37.601562 28.5 37.660156 C 27.453125 38.046875 26.386719 38.222656 25.296875 38.292969 C 23.199219 38.433594 21.195312 38.046875 19.253906 37.269531 C 19.03125 37.179688 18.839844 37.035156 18.601562 36.921875 C 17.679688 36.378906 16.804688 35.8125 16.011719 35.125 C 15.636719 34.796875 15.25 34.476562 14.902344 34.117188 C 14.601562 33.808594 14.542969 33.828125 14.394531 34.242188 C 14.382812 34.273438 14.371094 34.304688 14.355469 34.355469 C 14.320312 34.429688 14.28125 34.46875 14.253906 34.542969 C 14.242188 34.59375 14.234375 34.621094 14.222656 34.671875 C 14.195312 34.753906 14.191406 34.816406 14.195312 34.902344 C 14.191406 35.125 14.226562 35.335938 14.015625 35.492188 C 13.867188 35.550781 13.730469 35.515625 13.578125 35.578125 C 13.308594 35.625 13.0625 35.617188 12.789062 35.59375 C 12.609375 35.527344 12.449219 35.535156 12.265625 35.535156 C 12.15625 35.539062 12.070312 35.535156 11.964844 35.523438 C 11.882812 35.507812 11.824219 35.492188 11.742188 35.496094 C 11.613281 35.5 11.511719 35.46875 11.390625 35.445312 C 11.3125 35.421875 11.257812 35.402344 11.175781 35.402344 C 11.109375 35.398438 11.066406 35.390625 11 35.378906 C 10.921875 35.359375 10.867188 35.335938 10.78125 35.332031 C 10.730469 35.324219 10.703125 35.320312 10.648438 35.308594 C 10.554688 35.28125 10.476562 35.269531 10.378906 35.253906 C 9.9375 35.132812 9.535156 34.964844 9.164062 34.691406 Z M 9.164062 34.691406 "/>
<path style=" stroke:none;fill-rule:nonzero;fill:rgb(1.568627%,1.568627%,1.568627%);fill-opacity:1;" d="M 31.09375 15.683594 C 31.089844 15.226562 31.074219 14.78125 31.054688 14.335938 C 31.050781 14.199219 31.058594 14.066406 31.207031 14.007812 C 31.371094 13.945312 31.445312 14.0625 31.527344 14.164062 C 32.101562 14.882812 32.804688 15.429688 33.613281 15.859375 C 33.8125 15.964844 33.886719 15.949219 33.921875 15.710938 C 33.957031 15.480469 33.898438 15.144531 34.074219 15.042969 C 34.230469 14.957031 34.449219 15.234375 34.652344 15.320312 C 35.113281 15.519531 35.59375 15.660156 36.074219 15.792969 C 36.855469 16.015625 37.523438 16.386719 37.910156 17.140625 C 38.253906 17.816406 38.796875 18.183594 39.554688 18.246094 C 40.378906 18.3125 41.03125 18.691406 41.570312 19.316406 C 41.996094 19.804688 42.59375 20.046875 43.183594 20.265625 C 43.683594 20.449219 44.195312 20.597656 44.703125 20.757812 C 44.90625 20.820312 45.066406 20.859375 44.863281 21.117188 C 44.679688 21.351562 44.773438 21.535156 45.105469 21.644531 C 45.632812 21.816406 46.1875 21.882812 46.726562 22.003906 C 47.035156 22.070312 47.339844 22.148438 47.640625 22.246094 C 48.496094 22.527344 48.921875 23.164062 49.09375 24.011719 C 49.144531 24.265625 49.039062 24.460938 48.855469 24.617188 C 48.699219 24.753906 48.527344 24.871094 48.363281 24.996094 C 48.101562 25.195312 47.886719 25.425781 47.769531 25.75 C 47.621094 26.171875 47.320312 26.496094 47.011719 26.800781 C 46.34375 27.464844 45.710938 28.1875 44.792969 28.53125 C 44.039062 28.816406 43.273438 28.824219 42.460938 28.636719 C 42.679688 28.363281 42.933594 28.183594 43.179688 27.996094 C 43.246094 27.945312 43.359375 27.917969 43.347656 27.8125 C 43.332031 27.695312 43.214844 27.679688 43.125 27.652344 C 42.96875 27.601562 42.804688 27.566406 42.644531 27.617188 C 41.863281 27.863281 41.070312 27.777344 40.285156 27.664062 C 40.046875 27.632812 39.988281 27.707031 39.996094 27.914062 C 40.011719 28.214844 40.128906 28.484375 40.21875 28.761719 C 40.296875 29.003906 40.425781 28.757812 40.539062 28.796875 C 40.578125 29.261719 40.621094 29.722656 40.667969 30.242188 C 40.949219 29.976562 41.203125 29.746094 41.449219 29.507812 C 41.582031 29.378906 41.648438 29.375 41.691406 29.578125 C 41.824219 30.214844 41.851562 30.847656 41.695312 31.484375 C 41.519531 32.199219 41.097656 32.671875 40.410156 32.929688 C 39.449219 33.289062 38.441406 33.367188 37.429688 33.398438 C 37.289062 33.402344 37.21875 33.359375 37.183594 33.207031 C 36.925781 32.066406 36.261719 31.160156 35.515625 30.296875 C 35.367188 30.128906 35.304688 30.246094 35.21875 30.355469 C 34.824219 30.847656 34.503906 31.390625 34.164062 31.921875 C 32.824219 34.019531 31.082031 35.667969 28.753906 36.601562 C 25.792969 37.785156 22.824219 37.667969 19.875 36.523438 C 19.425781 36.347656 19.445312 36.332031 19.601562 35.882812 C 20.375 33.65625 21.136719 31.421875 21.488281 29.078125 C 21.554688 28.65625 21.574219 28.230469 21.519531 27.808594 C 21.5 27.648438 21.488281 27.449219 21.324219 27.386719 C 21.164062 27.324219 21.019531 27.472656 20.894531 27.570312 C 20.617188 27.785156 20.476562 28.089844 20.410156 28.429688 C 20.335938 28.820312 20.339844 29.210938 20.386719 29.601562 C 20.441406 30.035156 20.28125 30.238281 19.832031 30.296875 C 19.652344 30.324219 19.464844 30.320312 19.28125 30.316406 C 19.097656 30.316406 18.914062 30.296875 18.707031 30.28125 C 18.769531 30.457031 18.84375 30.613281 18.875 30.777344 C 18.925781 31.015625 18.8125 31.101562 18.585938 31.007812 C 18.21875 30.863281 17.914062 30.609375 17.574219 30.417969 C 17.492188 30.371094 17.414062 30.265625 17.3125 30.332031 C 17.230469 30.386719 17.285156 30.492188 17.277344 30.578125 C 17.265625 30.710938 17.371094 30.90625 17.246094 30.972656 C 17.09375 31.050781 16.980469 30.863281 16.871094 30.773438 C 16.261719 30.246094 15.699219 29.675781 15.175781 29.058594 C 14.863281 28.695312 14.796875 28.269531 14.738281 27.824219 C 14.648438 27.109375 14.65625 26.441406 15.054688 25.78125 C 15.410156 25.195312 15.460938 24.480469 15.632812 23.820312 C 15.703125 23.546875 15.777344 23.269531 15.875 23.007812 C 15.976562 22.738281 16.105469 22.71875 16.296875 22.9375 C 16.441406 23.097656 16.554688 23.285156 16.679688 23.464844 C 16.792969 23.625 16.871094 23.585938 16.90625 23.417969 C 16.960938 23.1875 17 22.953125 17.054688 22.675781 C 17.304688 22.847656 17.449219 23.101562 17.703125 23.347656 C 17.84375 22.6875 17.996094 22.070312 17.875 21.4375 C 17.828125 21.171875 17.578125 21.121094 17.351562 21.191406 C 17.050781 21.285156 16.949219 21.183594 16.972656 20.894531 C 16.992188 20.644531 16.917969 20.511719 16.640625 20.613281 C 16.460938 20.679688 16.398438 20.585938 16.410156 20.425781 C 16.433594 20.066406 16.285156 19.902344 15.914062 19.953125 C 15.519531 20.007812 15.242188 19.863281 15.183594 19.398438 C 15.027344 19.539062 15.078125 19.675781 15.070312 19.792969 C 15.035156 20.226562 15.03125 20.660156 14.941406 21.089844 C 14.921875 21.179688 14.910156 21.304688 14.789062 21.3125 C 14.695312 21.320312 14.640625 21.226562 14.597656 21.152344 C 14.367188 20.746094 14.144531 20.335938 13.910156 19.929688 C 13.847656 19.824219 13.800781 19.65625 13.652344 19.671875 C 13.53125 19.683594 13.558594 19.851562 13.519531 19.945312 C 13.402344 20.21875 13.316406 20.25 13.101562 20.027344 C 12.488281 19.394531 12.082031 18.675781 12.230469 17.75 C 12.261719 17.546875 12.273438 17.375 12.054688 17.25 C 11.898438 17.164062 11.875 16.984375 11.886719 16.816406 C 11.921875 16.402344 12 15.992188 12.191406 15.621094 C 12.433594 15.144531 12.628906 14.652344 12.808594 14.148438 C 13.007812 13.585938 13.585938 13.175781 14.179688 13.164062 C 14.332031 13.164062 14.480469 13.183594 14.613281 13.273438 C 14.949219 13.5 15.3125 13.679688 15.691406 13.8125 C 16.527344 14.105469 17.234375 14.65625 18.054688 14.976562 C 18.214844 15.039062 18.328125 15.039062 18.480469 14.964844 C 19.1875 14.621094 19.929688 14.433594 20.71875 14.53125 C 20.859375 14.550781 20.945312 14.496094 21.046875 14.421875 C 21.597656 14.027344 22.183594 13.921875 22.832031 14.191406 C 23.90625 14.636719 24.964844 15.113281 25.832031 15.925781 C 25.902344 15.992188 25.984375 16.046875 26.066406 16.101562 C 26.28125 16.25 26.464844 16.234375 26.617188 16.003906 C 26.988281 15.445312 27.285156 14.859375 27.480469 14.21875 C 27.507812 14.128906 27.484375 14.003906 27.617188 13.992188 C 27.726562 13.984375 27.773438 14.089844 27.824219 14.175781 C 28 14.453125 28.101562 14.765625 28.1875 15.078125 C 28.339844 15.667969 28.488281 16.257812 28.613281 16.855469 C 28.664062 17.101562 28.761719 17.132812 28.964844 17.042969 C 29.515625 16.796875 30.019531 16.480469 30.453125 16.058594 C 30.644531 15.871094 30.726562 15.628906 30.804688 15.390625 C 30.957031 15.417969 30.90625 15.566406 31 15.640625 C 31.027344 15.683594 31.050781 15.699219 31.09375 15.683594 Z M 31.09375 15.683594 "/>
<path style=" stroke:none;fill-rule:nonzero;fill:rgb(3.137255%,3.137255%,3.137255%);fill-opacity:1;" d="M 18.464844 31.804688 C 19.007812 31.914062 19.378906 31.769531 19.589844 31.296875 C 19.722656 31 19.976562 31.078125 20.171875 31.0625 C 20.316406 31.046875 20.238281 31.234375 20.210938 31.320312 C 19.953125 32.214844 19.691406 33.113281 19.410156 34.003906 C 19.234375 34.574219 19.019531 35.132812 18.835938 35.703125 C 18.769531 35.902344 18.699219 35.925781 18.515625 35.816406 C 17.472656 35.179688 16.519531 34.425781 15.644531 33.574219 C 15.527344 33.457031 15.503906 33.378906 15.59375 33.222656 C 15.949219 32.609375 15.886719 32.019531 15.457031 31.53125 C 15.339844 31.394531 15.265625 31.363281 15.128906 31.519531 C 14.355469 32.398438 13.652344 33.320312 13.382812 34.496094 C 13.351562 34.640625 13.300781 34.71875 13.125 34.710938 C 12.144531 34.667969 11.171875 34.597656 10.234375 34.273438 C 9.496094 34.015625 9.027344 33.535156 8.847656 32.765625 C 8.683594 32.074219 8.714844 31.390625 8.929688 30.660156 C 9.253906 30.964844 9.546875 31.238281 9.894531 31.5625 C 9.929688 31.105469 9.957031 30.710938 9.996094 30.316406 C 10.003906 30.222656 9.957031 30.023438 10.175781 30.167969 C 10.285156 30.234375 10.304688 30.128906 10.332031 30.066406 C 10.441406 29.804688 10.53125 29.535156 10.558594 29.25 C 10.578125 29.03125 10.507812 28.9375 10.253906 28.984375 C 9.589844 29.109375 8.914062 29.140625 8.242188 29.03125 C 8 28.992188 7.769531 28.859375 7.511719 28.9375 C 7.390625 28.972656 7.222656 28.988281 7.203125 29.136719 C 7.183594 29.253906 7.339844 29.28125 7.421875 29.347656 C 7.5625 29.464844 7.714844 29.574219 7.847656 29.699219 C 7.921875 29.769531 8.085938 29.804688 8.035156 29.929688 C 7.996094 30.023438 7.847656 30.011719 7.742188 30.027344 C 6.558594 30.195312 5.5 29.949219 4.59375 29.125 C 4.105469 28.675781 3.601562 28.242188 3.179688 27.726562 C 2.996094 27.5 2.824219 27.265625 2.730469 26.976562 C 2.613281 26.613281 2.308594 26.40625 2.015625 26.199219 C 1.363281 25.722656 1.320312 25.558594 1.601562 24.800781 C 1.929688 23.894531 2.683594 23.574219 3.527344 23.382812 C 4.078125 23.253906 4.632812 23.15625 5.1875 23.035156 C 5.3125 23.007812 5.4375 22.964844 5.554688 22.914062 C 5.789062 22.8125 5.84375 22.628906 5.6875 22.445312 C 5.476562 22.191406 5.640625 22.136719 5.839844 22.082031 C 6.601562 21.859375 7.359375 21.632812 8.074219 21.277344 C 8.449219 21.09375 8.804688 20.875 9.070312 20.554688 C 9.570312 19.960938 10.222656 19.726562 10.953125 19.554688 C 11.507812 19.425781 11.832031 19.496094 12.085938 20.019531 C 12.25 20.355469 12.527344 20.636719 12.871094 20.863281 C 12.878906 21.011719 12.769531 21.019531 12.679688 21.042969 C 12.410156 21.101562 12.144531 21.136719 11.871094 21.089844 C 11.140625 20.96875 10.46875 21.121094 9.832031 21.484375 C 9.3125 21.78125 8.800781 22.097656 8.214844 22.253906 C 8.164062 22.265625 8.113281 22.289062 8.066406 22.320312 C 7.882812 22.429688 7.699219 22.578125 7.765625 22.808594 C 7.835938 23.050781 8.078125 22.933594 8.246094 22.9375 C 8.496094 22.941406 8.699219 22.800781 8.902344 22.671875 C 9.363281 22.382812 9.800781 22.058594 10.25 21.75 C 10.839844 21.34375 11.5 21.359375 12.164062 21.398438 C 12.371094 21.410156 12.417969 21.539062 12.324219 21.71875 C 12.300781 21.753906 12.28125 21.796875 12.25 21.828125 C 11.777344 22.261719 11.558594 22.847656 11.3125 23.414062 C 11.152344 23.78125 10.878906 23.992188 10.503906 24.109375 C 9.597656 24.390625 8.703125 24.472656 7.78125 24.164062 C 6.980469 23.898438 6.1875 24.128906 5.40625 24.308594 C 5.242188 24.347656 5.136719 24.484375 5.054688 24.632812 C 4.8125 25.09375 4.726562 25.597656 4.683594 26.109375 C 4.664062 26.359375 4.773438 26.578125 4.988281 26.726562 C 5.5 27.082031 6.085938 27.246094 6.683594 27.367188 C 6.960938 27.421875 7.160156 27.222656 7.320312 27.035156 C 7.617188 26.6875 7.945312 26.367188 8.257812 26.035156 C 8.648438 25.625 9.128906 25.390625 9.660156 25.246094 C 9.980469 25.15625 10.070312 25.226562 10.003906 25.554688 C 9.941406 25.855469 10.136719 25.8125 10.308594 25.820312 C 11.347656 25.867188 12.328125 26.101562 13.207031 26.6875 C 13.34375 26.777344 13.464844 26.882812 13.585938 26.996094 C 13.777344 27.175781 13.902344 27.359375 13.675781 27.605469 C 13.601562 27.6875 13.597656 27.808594 13.609375 27.917969 C 13.660156 28.617188 13.449219 29.273438 13.257812 29.929688 C 13.125 30.390625 12.945312 30.835938 12.816406 31.292969 C 12.601562 32.0625 12.027344 32.523438 11.460938 33 C 11.054688 33.34375 11.050781 33.351562 11.558594 33.554688 C 12.460938 33.914062 12.34375 33.972656 12.636719 33.0625 C 13.019531 31.863281 13.722656 30.894531 14.566406 30.003906 C 14.605469 29.960938 14.652344 29.933594 14.726562 29.910156 C 14.902344 29.894531 14.957031 30.015625 15.035156 30.101562 C 15.519531 30.632812 16.039062 31.125 16.613281 31.5625 C 16.742188 31.660156 16.878906 31.75 17.066406 31.796875 C 17.222656 31.867188 17.285156 31.992188 17.34375 32.121094 C 17.601562 32.707031 17.914062 33.265625 18.222656 33.824219 C 18.277344 33.917969 18.335938 34.007812 18.40625 34.089844 C 18.546875 34.25 18.6875 34.238281 18.808594 34.074219 C 18.996094 33.824219 19.089844 33.570312 18.917969 33.261719 C 18.734375 32.929688 18.574219 32.585938 18.433594 32.234375 C 18.394531 32.132812 18.339844 32.039062 18.363281 31.902344 C 18.386719 31.847656 18.410156 31.824219 18.464844 31.804688 Z M 18.464844 31.804688 "/>
<path style=" stroke:none;fill-rule:nonzero;fill:rgb(63.921569%,65.490196%,70.196078%);fill-opacity:1;" d="M 14.757812 29.882812 C 14.734375 29.945312 14.726562 29.992188 14.699219 30.019531 C 13.6875 31 12.976562 32.160156 12.585938 33.519531 C 12.445312 34.007812 12.410156 34.007812 11.945312 33.824219 C 11.664062 33.710938 11.386719 33.582031 11.105469 33.46875 C 10.902344 33.390625 10.90625 33.304688 11.074219 33.1875 C 11.160156 33.125 11.234375 33.039062 11.324219 32.980469 C 12.222656 32.382812 12.71875 31.527344 12.984375 30.5 C 13.226562 29.566406 13.59375 28.660156 13.527344 27.667969 C 13.523438 27.617188 13.53125 27.53125 13.5625 27.515625 C 13.914062 27.332031 13.652344 27.191406 13.523438 27.070312 C 12.820312 26.410156 11.941406 26.140625 11.015625 25.988281 C 10.707031 25.9375 10.390625 25.90625 10.078125 25.902344 C 9.796875 25.902344 9.800781 25.785156 9.890625 25.585938 C 9.925781 25.5 10.03125 25.40625 9.945312 25.320312 C 9.867188 25.238281 9.757812 25.3125 9.667969 25.335938 C 9.144531 25.480469 8.679688 25.730469 8.300781 26.125 C 7.976562 26.460938 7.664062 26.808594 7.351562 27.15625 C 7.074219 27.460938 6.769531 27.558594 6.359375 27.417969 C 5.898438 27.257812 5.425781 27.132812 5.003906 26.875 C 4.703125 26.691406 4.558594 26.441406 4.578125 26.089844 C 4.609375 25.550781 4.742188 25.039062 4.976562 24.554688 C 5.082031 24.339844 5.238281 24.210938 5.46875 24.167969 C 6.34375 24 7.207031 23.828125 8.101562 24.132812 C 8.941406 24.417969 9.78125 24.242188 10.597656 23.972656 C 10.871094 23.886719 11.070312 23.71875 11.183594 23.449219 C 11.242188 23.308594 11.320312 23.175781 11.375 23.035156 C 11.550781 22.585938 11.75 22.15625 12.117188 21.824219 C 12.203125 21.746094 12.261719 21.648438 12.390625 21.488281 C 11.589844 21.523438 10.867188 21.386719 10.226562 21.886719 C 9.773438 22.238281 9.273438 22.527344 8.796875 22.859375 C 8.488281 23.070312 8.144531 23.058594 7.796875 23.0625 C 7.671875 23.066406 7.632812 23.003906 7.621094 22.886719 C 7.59375 22.574219 7.765625 22.265625 8.125 22.171875 C 8.746094 22.011719 9.277344 21.671875 9.824219 21.367188 C 10.332031 21.082031 10.863281 20.945312 11.449219 20.960938 C 11.910156 20.972656 12.378906 21.050781 12.863281 20.890625 C 13.085938 20.910156 13.261719 21.023438 13.476562 21.019531 C 13.660156 21.011719 13.667969 21.230469 13.777344 21.351562 C 13.742188 21.535156 13.589844 21.484375 13.492188 21.527344 C 13.246094 21.628906 13.226562 21.683594 13.40625 21.886719 C 13.945312 22.484375 14.425781 23.125 14.800781 23.867188 C 14.625 24.511719 14.539062 25.164062 14.183594 25.742188 C 13.78125 26.398438 13.894531 27.136719 13.933594 27.863281 C 13.976562 28.628906 14.300781 29.273438 14.757812 29.882812 Z M 14.757812 29.882812 "/>
<path style=" stroke:none;fill-rule:nonzero;fill:rgb(63.137255%,65.098039%,69.411765%);fill-opacity:1;" d="M 18.363281 31.902344 C 18.597656 32.402344 18.828125 32.878906 19.050781 33.359375 C 19.179688 33.636719 18.984375 34.1875 18.71875 34.324219 C 18.511719 34.429688 18.414062 34.277344 18.328125 34.140625 C 17.914062 33.5 17.578125 32.820312 17.246094 32.132812 C 17.199219 32.035156 17.148438 31.941406 17.09375 31.824219 C 17.320312 31.796875 17.554688 31.808594 17.757812 31.640625 C 17.933594 31.5 18.074219 31.6875 18.257812 31.734375 C 18.324219 31.777344 18.355469 31.820312 18.363281 31.902344 Z M 18.363281 31.902344 "/>
<path style=" stroke:none;fill-rule:nonzero;fill:rgb(6.666667%,6.666667%,6.666667%);fill-opacity:1;" d="M 14.820312 23.863281 C 14.667969 23.859375 14.652344 23.722656 14.597656 23.625 C 14.226562 22.988281 13.8125 22.382812 13.273438 21.875 C 13.09375 21.707031 13.132812 21.605469 13.328125 21.519531 C 13.457031 21.464844 13.59375 21.4375 13.753906 21.386719 C 13.894531 21.53125 14.003906 21.691406 14.136719 21.835938 C 14.570312 22.3125 15.226562 22.246094 15.5625 21.699219 C 15.632812 21.578125 15.667969 21.460938 15.839844 21.601562 C 15.886719 21.640625 16.027344 21.578125 16.121094 21.554688 C 16.25 21.523438 16.347656 21.558594 16.339844 21.703125 C 16.332031 21.824219 16.410156 22.023438 16.175781 22.019531 C 15.488281 22.007812 15.207031 22.445312 15.042969 23.019531 C 14.964844 23.292969 14.894531 23.566406 14.820312 23.863281 Z M 14.820312 23.863281 "/>
<path style=" stroke:none;fill-rule:nonzero;fill:rgb(94.117647%,76.862745%,29.019608%);fill-opacity:1;" d="M 14.164062 34.679688 C 14.246094 34.730469 14.242188 34.792969 14.148438 34.855469 C 14.105469 34.800781 14.113281 34.746094 14.164062 34.679688 Z M 14.164062 34.679688 "/>
<path style=" stroke:none;fill-rule:nonzero;fill:rgb(63.529412%,65.098039%,69.803922%);fill-opacity:1;" d="M 32.59375 29.167969 C 32.613281 28.644531 32.5625 28.15625 32.484375 27.675781 C 32.359375 26.898438 32.585938 26.214844 32.945312 25.550781 C 33.292969 24.917969 33.683594 24.320312 34.191406 23.804688 C 34.394531 23.597656 34.566406 23.550781 34.773438 23.8125 C 34.902344 23.980469 35.066406 24.246094 35.253906 24.203125 C 35.4375 24.15625 35.34375 23.84375 35.394531 23.652344 C 35.703125 22.46875 36.363281 21.5 37.183594 20.621094 C 37.4375 20.351562 37.433594 20.273438 37.074219 20.152344 C 36.496094 19.957031 35.890625 19.867188 35.289062 19.777344 C 35.234375 19.769531 35.179688 19.765625 35.128906 19.757812 C 34.585938 19.675781 34.578125 19.667969 34.914062 19.242188 C 35.046875 19.074219 34.9375 19.046875 34.820312 19 C 33.710938 18.566406 33.03125 17.730469 32.636719 16.636719 C 32.609375 16.558594 32.550781 16.480469 32.632812 16.359375 C 33.070312 16.773438 33.480469 17.203125 33.835938 17.675781 C 34.128906 18.066406 34.496094 18.335938 34.929688 18.523438 C 35.679688 18.84375 36.4375 19.144531 37.1875 19.457031 C 37.632812 19.640625 38.097656 19.695312 38.566406 19.648438 C 39.539062 19.550781 40.414062 19.785156 41.222656 20.332031 C 41.554688 20.558594 41.925781 20.71875 42.324219 20.816406 C 42.714844 20.914062 42.929688 21.195312 42.929688 21.53125 C 42.929688 21.671875 42.886719 21.757812 42.726562 21.753906 C 42.363281 21.753906 42.011719 21.738281 41.695312 21.515625 C 41.316406 21.246094 40.898438 21.019531 40.539062 20.726562 C 40.035156 20.320312 39.480469 20.148438 38.84375 20.1875 C 38.644531 20.199219 38.324219 20.082031 38.269531 20.222656 C 38.203125 20.394531 38.46875 20.570312 38.617188 20.71875 C 38.871094 20.964844 39.007812 21.277344 39.101562 21.59375 C 39.335938 22.363281 39.851562 22.722656 40.628906 22.855469 C 41.34375 22.972656 42.03125 22.957031 42.722656 22.746094 C 43.574219 22.484375 44.398438 22.714844 45.222656 22.898438 C 45.394531 22.9375 45.488281 23.085938 45.5625 23.234375 C 45.800781 23.71875 45.929688 24.230469 45.964844 24.769531 C 45.988281 25.121094 45.835938 25.375 45.539062 25.554688 C 45.03125 25.867188 44.46875 26.027344 43.898438 26.167969 C 43.628906 26.234375 43.433594 26.082031 43.261719 25.910156 C 43.003906 25.644531 42.765625 25.367188 42.519531 25.089844 C 42.058594 24.574219 41.519531 24.1875 40.839844 24.015625 C 40.761719 23.996094 40.664062 23.933594 40.59375 23.996094 C 40.503906 24.074219 40.59375 24.164062 40.628906 24.230469 C 40.78125 24.5 40.6875 24.585938 40.402344 24.589844 C 39.453125 24.617188 38.546875 24.8125 37.703125 25.257812 C 37.402344 25.414062 37.128906 25.609375 36.898438 25.863281 C 36.8125 25.960938 36.738281 26.058594 36.917969 26.144531 C 37.046875 26.207031 37.007812 26.328125 37.007812 26.433594 C 37.011719 27.878906 37.535156 29.199219 38.066406 30.507812 C 38.261719 30.988281 38.75 31.253906 39.132812 31.589844 C 39.671875 32.058594 39.679688 32.054688 39.019531 32.332031 C 38.828125 32.414062 38.632812 32.476562 38.445312 32.566406 C 38.1875 32.6875 38.0625 32.585938 37.988281 32.339844 C 37.953125 32.214844 37.894531 32.097656 37.859375 31.96875 C 37.515625 30.707031 36.796875 29.671875 35.886719 28.753906 C 35.359375 28.21875 34.824219 27.695312 34.253906 27.210938 C 34.09375 27.074219 34 26.921875 33.984375 26.710938 C 33.949219 26.207031 33.90625 25.699219 33.863281 25.183594 C 33.753906 25.238281 33.761719 25.335938 33.742188 25.414062 C 33.59375 26.015625 33.457031 26.621094 33.308594 27.222656 C 33.214844 27.613281 33.261719 27.957031 33.574219 28.234375 C 33.941406 28.554688 33.996094 28.9375 33.851562 29.386719 C 33.460938 30.605469 32.875 31.730469 32.214844 32.820312 C 32.011719 33.152344 31.863281 33.136719 31.636719 32.820312 C 31.417969 32.511719 31.367188 32.21875 31.554688 31.855469 C 31.871094 31.25 32.132812 30.613281 32.410156 29.988281 C 32.523438 29.738281 32.59375 29.476562 32.59375 29.167969 Z M 32.59375 29.167969 "/>
<path style=" stroke:none;fill-rule:nonzero;fill:rgb(63.529412%,65.490196%,70.196078%);fill-opacity:1;" d="M 24.101562 20.496094 C 24.699219 21.734375 24.605469 23.03125 24.386719 24.332031 C 24.339844 24.597656 24.191406 24.765625 23.898438 24.753906 C 23.613281 24.738281 23.507812 24.570312 23.496094 24.300781 C 23.484375 24.109375 23.476562 23.871094 23.21875 23.851562 C 22.96875 23.835938 22.824219 24.011719 22.746094 24.234375 C 22.707031 24.355469 22.683594 24.484375 22.644531 24.609375 C 22.511719 25.027344 22.273438 25.355469 21.832031 25.472656 C 21.085938 25.675781 20.523438 26.082031 20.214844 26.8125 C 20.148438 26.96875 20.039062 27.121094 19.914062 27.234375 C 19.515625 27.585938 19.402344 28.015625 19.445312 28.527344 C 19.464844 28.742188 19.578125 29.027344 19.324219 29.152344 C 19.085938 29.273438 18.910156 29.035156 18.730469 28.90625 C 18.578125 28.800781 18.445312 28.671875 18.296875 28.558594 C 18.242188 28.515625 18.175781 28.433594 18.101562 28.496094 C 18.035156 28.554688 18.085938 28.640625 18.113281 28.707031 C 18.167969 28.839844 18.222656 28.96875 18.273438 29.101562 C 18.3125 29.203125 18.367188 29.3125 18.269531 29.40625 C 18.167969 29.5 18.042969 29.46875 17.933594 29.421875 C 17.832031 29.378906 17.738281 29.324219 17.652344 29.257812 C 17.480469 29.125 17.3125 28.984375 17.144531 28.847656 C 16.996094 28.722656 16.871094 28.53125 16.683594 28.496094 C 16.445312 28.457031 16.414062 28.738281 16.277344 28.863281 C 16.046875 29.070312 15.84375 29.03125 15.773438 28.726562 C 15.652344 28.222656 15.695312 27.710938 15.730469 27.199219 C 15.746094 26.992188 15.925781 27.074219 16.042969 27.078125 C 16.996094 27.109375 17.902344 26.929688 18.734375 26.441406 C 19.441406 26.023438 19.992188 25.445312 20.421875 24.75 C 20.664062 24.355469 20.648438 23.921875 20.617188 23.484375 C 20.613281 23.382812 20.546875 23.277344 20.628906 23.136719 C 20.824219 23.296875 20.941406 23.496094 21.054688 23.703125 C 21.082031 23.757812 21.113281 23.835938 21.191406 23.800781 C 21.230469 23.785156 21.261719 23.71875 21.265625 23.671875 C 21.292969 23.484375 21.289062 23.300781 21.25 23.117188 C 20.925781 21.730469 20.53125 20.363281 19.953125 19.054688 C 19.683594 18.445312 19.285156 17.941406 18.699219 17.597656 C 18.550781 17.515625 18.414062 17.445312 18.265625 17.613281 C 18.152344 17.738281 18.023438 17.679688 17.929688 17.566406 C 17.820312 17.429688 17.726562 17.285156 17.621094 17.144531 C 17.410156 16.855469 17.277344 16.820312 16.964844 17.007812 C 16.703125 17.164062 16.457031 17.339844 16.199219 17.503906 C 16.042969 17.609375 15.863281 17.664062 15.675781 17.664062 C 15.410156 17.664062 15.351562 17.546875 15.476562 17.320312 C 15.542969 17.203125 15.734375 17.101562 15.644531 16.964844 C 15.5625 16.832031 15.367188 16.917969 15.21875 16.910156 C 15.023438 16.902344 14.828125 16.910156 14.632812 16.914062 C 13.578125 16.945312 13.289062 16.011719 13.460938 15.214844 C 13.492188 15.070312 13.621094 15.042969 13.746094 15.054688 C 13.917969 15.074219 14.089844 15.097656 14.257812 15.140625 C 14.640625 15.234375 14.984375 15.230469 15.253906 14.875 C 15.382812 14.699219 15.535156 14.738281 15.636719 14.929688 C 15.738281 15.125 15.914062 15.1875 16.121094 15.203125 C 16.390625 15.226562 16.660156 15.261719 16.929688 15.277344 C 17.785156 15.320312 18.503906 15.636719 18.96875 16.378906 C 19.542969 17.296875 20.421875 17.785156 21.386719 18.167969 C 21.433594 18.1875 21.480469 18.222656 21.574219 18.171875 C 21.347656 17.785156 20.957031 17.5625 20.667969 17.238281 C 20.808594 17.121094 20.953125 17.175781 21.089844 17.171875 C 22.03125 17.144531 22.875 17.371094 23.519531 18.113281 C 23.574219 18.179688 23.648438 18.226562 23.738281 18.28125 C 23.804688 18.042969 23.621094 17.882812 23.566406 17.679688 C 23.53125 17.546875 23.410156 17.441406 23.445312 17.289062 C 23.515625 17.277344 23.550781 17.320312 23.585938 17.359375 C 24.574219 18.441406 25.527344 19.554688 26.320312 20.796875 C 26.402344 20.925781 26.46875 21.0625 26.542969 21.195312 C 27.070312 22.175781 26.933594 23.152344 26.160156 23.945312 C 26.105469 24.003906 26.058594 24.117188 25.960938 24.078125 C 25.863281 24.035156 25.914062 23.921875 25.910156 23.84375 C 25.804688 22.460938 25.148438 21.375 24.101562 20.496094 Z M 24.101562 20.496094 "/>
<path style=" stroke:none;fill-rule:nonzero;fill:rgb(63.137255%,65.098039%,69.411765%);fill-opacity:1;" d="M 28.515625 21.699219 C 28.550781 21.683594 28.59375 21.683594 28.605469 21.703125 C 29.15625 22.5625 29.800781 23.363281 30.109375 24.359375 C 30.496094 25.59375 30.914062 26.816406 30.976562 28.128906 C 31.027344 29.269531 30.914062 30.386719 30.566406 31.476562 C 30.441406 31.855469 30.269531 32.214844 29.941406 32.574219 C 29.839844 31.800781 29.746094 31.097656 29.640625 30.292969 C 29.53125 30.507812 29.46875 30.632812 29.40625 30.757812 C 29.179688 31.226562 28.855469 31.617188 28.457031 31.949219 C 28.222656 32.144531 28.160156 32.117188 28.078125 31.808594 C 28.007812 31.554688 28.015625 31.296875 28.042969 31.042969 C 27.960938 31.019531 27.917969 31.058594 27.894531 31.105469 C 27.738281 31.414062 27.515625 31.519531 27.175781 31.382812 C 26.996094 31.308594 26.804688 31.382812 26.652344 31.496094 C 26.464844 31.636719 26.4375 31.542969 26.4375 31.375 C 26.4375 31.296875 26.429688 31.21875 26.4375 31.144531 C 26.464844 30.933594 26.445312 30.800781 26.164062 30.804688 C 25.90625 30.808594 25.929688 30.628906 26.058594 30.472656 C 26.285156 30.203125 26.570312 30 26.859375 29.808594 C 27.441406 29.425781 28.023438 29.046875 28.617188 28.683594 C 29.230469 28.304688 29.480469 27.777344 29.40625 27.0625 C 29.285156 25.863281 29.257812 24.652344 29.046875 23.460938 C 28.941406 22.859375 28.695312 22.300781 28.515625 21.699219 Z M 28.515625 21.699219 "/>
<path style=" stroke:none;fill-rule:nonzero;fill:rgb(93.72549%,93.333333%,93.333333%);fill-opacity:1;" d="M 19.417969 25.207031 C 18.925781 25.628906 18.398438 25.949219 17.84375 26.230469 C 17.359375 26.472656 16.832031 26.460938 16.308594 26.402344 C 16.074219 26.378906 15.972656 26.195312 15.941406 25.996094 C 15.835938 25.289062 15.878906 24.589844 16.117188 23.90625 C 16.128906 23.882812 16.164062 23.867188 16.214844 23.824219 C 16.339844 24.363281 16.535156 24.847656 16.769531 25.320312 C 16.839844 25.460938 16.886719 25.679688 17.09375 25.613281 C 17.316406 25.542969 17.546875 25.414062 17.53125 25.117188 C 17.519531 24.882812 17.476562 24.644531 17.441406 24.371094 C 17.652344 24.519531 17.691406 24.738281 17.769531 24.921875 C 17.949219 25.324219 18.179688 25.453125 18.613281 25.355469 C 18.871094 25.296875 19.101562 25.175781 19.335938 25.054688 C 19.386719 25.027344 19.457031 24.917969 19.519531 25.027344 C 19.554688 25.085938 19.480469 25.144531 19.417969 25.207031 Z M 19.417969 25.207031 "/>
<path style=" stroke:none;fill-rule:nonzero;fill:rgb(60.392157%,62.352941%,66.27451%);fill-opacity:1;" d="M 30.519531 17.417969 C 30.480469 18.089844 30.378906 18.71875 30.109375 19.3125 C 29.980469 19.59375 29.808594 19.839844 29.550781 20.019531 C 29.484375 20.0625 29.410156 20.15625 29.324219 20.078125 C 29.253906 20.015625 29.332031 19.9375 29.359375 19.871094 C 29.554688 19.378906 29.773438 18.890625 29.902344 18.375 C 29.925781 18.285156 29.992188 18.195312 29.90625 18.070312 C 29.445312 18.382812 28.945312 18.605469 28.394531 18.695312 C 28.109375 18.742188 27.832031 18.738281 27.546875 18.722656 C 27.476562 18.71875 27.375 18.738281 27.355469 18.644531 C 27.339844 18.550781 27.441406 18.527344 27.503906 18.492188 C 28.183594 18.132812 28.867188 17.777344 29.546875 17.417969 C 29.789062 17.289062 30.015625 17.140625 30.253906 17.007812 C 30.324219 16.96875 30.382812 16.863281 30.476562 16.917969 C 30.558594 16.96875 30.519531 17.078125 30.523438 17.160156 C 30.527344 17.234375 30.523438 17.3125 30.519531 17.417969 Z M 30.519531 17.417969 "/>
<path style=" stroke:none;fill-rule:nonzero;fill:rgb(91.764706%,91.372549%,91.372549%);fill-opacity:1;" d="M 44.230469 27.292969 C 44.304688 27.296875 44.351562 27.300781 44.421875 27.320312 C 44.515625 27.351562 44.59375 27.347656 44.6875 27.363281 C 44.863281 27.378906 45.101562 27.289062 45.15625 27.429688 C 45.226562 27.597656 45.042969 27.761719 44.914062 27.890625 C 44.644531 28.167969 44.199219 28.285156 43.71875 28.207031 C 43.90625 28.050781 44.15625 27.996094 44.300781 27.757812 C 43.769531 27.695312 43.359375 27.4375 42.976562 27.132812 C 42.820312 27.007812 42.710938 27.007812 42.554688 27.128906 C 42.210938 27.394531 41.816406 27.457031 41.335938 27.382812 C 41.636719 27.089844 41.875 26.816406 42.058594 26.5 C 42.242188 26.191406 42.207031 26.074219 41.871094 25.929688 C 41.457031 25.746094 41.011719 25.707031 40.566406 25.699219 C 40.445312 25.695312 40.324219 25.691406 40.179688 25.679688 C 40.078125 25.652344 40.003906 25.65625 39.90625 25.644531 C 39.816406 25.636719 39.746094 25.628906 39.652344 25.609375 C 39.613281 25.40625 39.765625 25.460938 39.855469 25.460938 C 40.191406 25.457031 40.527344 25.449219 40.894531 25.46875 C 41.019531 25.480469 41.113281 25.488281 41.230469 25.507812 C 41.28125 25.519531 41.308594 25.527344 41.359375 25.539062 C 42.042969 25.632812 42.511719 26.050781 42.9375 26.515625 C 43.207031 26.808594 43.511719 27.039062 43.902344 27.191406 C 44.023438 27.21875 44.113281 27.269531 44.230469 27.292969 Z M 44.230469 27.292969 "/>
<path style=" stroke:none;fill-rule:nonzero;fill:rgb(92.941176%,92.941176%,92.941176%);fill-opacity:1;" d="M 38.914062 29.890625 C 39.554688 30.386719 39.675781 30.363281 40.066406 29.683594 C 40.109375 29.605469 40.121094 29.464844 40.253906 29.503906 C 40.355469 29.535156 40.371094 29.65625 40.375 29.753906 C 40.382812 30 40.296875 30.226562 40.21875 30.449219 C 40.09375 30.808594 40.414062 30.828125 40.585938 30.953125 C 40.789062 31.105469 40.796875 30.875 40.871094 30.78125 C 40.945312 30.6875 41.027344 30.558594 41.152344 30.605469 C 41.273438 30.652344 41.210938 30.800781 41.203125 30.902344 C 41.132812 31.738281 40.921875 31.847656 40.179688 31.464844 C 39.613281 31.167969 39.132812 30.769531 38.730469 30.277344 C 38.558594 30.066406 38.402344 29.84375 38.433594 29.519531 C 38.632812 29.597656 38.738281 29.777344 38.914062 29.890625 Z M 38.914062 29.890625 "/>
<path style=" stroke:none;fill-rule:nonzero;fill:rgb(92.941176%,92.941176%,92.941176%);fill-opacity:1;" d="M 13.773438 18.742188 C 13.691406 18.558594 13.699219 18.261719 13.511719 18.28125 C 13.296875 18.300781 13.363281 18.589844 13.332031 18.769531 C 13.316406 18.867188 13.332031 18.964844 13.316406 19.0625 C 13.304688 19.148438 13.378906 19.285156 13.242188 19.308594 C 13.140625 19.324219 13.070312 19.21875 13.023438 19.132812 C 12.71875 18.578125 12.8125 18.015625 12.984375 17.390625 C 13.453125 17.996094 14.007812 18.273438 14.71875 18.1875 C 14.890625 18.167969 14.890625 18.28125 14.859375 18.398438 C 14.726562 18.859375 14.609375 19.320312 14.570312 19.796875 C 14.550781 20.03125 14.414062 20.003906 14.285156 19.882812 C 14.109375 19.726562 14.046875 19.5 13.960938 19.289062 C 13.890625 19.121094 13.839844 18.941406 13.773438 18.742188 Z M 13.773438 18.742188 "/>
<path style=" stroke:none;fill-rule:nonzero;fill:rgb(92.941176%,92.941176%,92.941176%);fill-opacity:1;" d="M 31.628906 19.804688 C 31.253906 19.605469 31.167969 19.339844 31.25 18.9375 C 31.367188 18.367188 31.332031 17.773438 31.355469 17.179688 C 31.429688 17.457031 31.5 17.734375 31.585938 18.007812 C 31.796875 18.691406 32.082031 19.347656 32.40625 19.984375 C 32.445312 20.066406 32.578125 20.15625 32.417969 20.257812 C 32.285156 20.339844 32.191406 20.335938 32.082031 20.210938 C 31.949219 20.066406 31.792969 19.949219 31.628906 19.804688 Z M 31.628906 19.804688 "/>
<path style=" stroke:none;fill-rule:nonzero;fill:rgb(32.54902%,39.215686%,45.098039%);fill-opacity:1;" d="M 40.378906 21.238281 C 40.695312 21.429688 40.996094 21.609375 41.292969 21.789062 C 41.363281 21.835938 41.464844 21.871094 41.441406 21.980469 C 41.414062 22.09375 41.316406 22.113281 41.214844 22.125 C 40.316406 22.222656 39.601562 21.832031 39.234375 21.035156 C 39.195312 20.949219 39.121094 20.855469 39.199219 20.761719 C 39.289062 20.65625 39.402344 20.710938 39.496094 20.761719 C 39.785156 20.914062 40.070312 21.070312 40.378906 21.238281 Z M 40.378906 21.238281 "/>
<path style=" stroke:none;fill-rule:nonzero;fill:rgb(59.607843%,61.568627%,65.490196%);fill-opacity:1;" d="M 38.667969 28.828125 C 38.722656 28.386719 38.710938 27.980469 38.570312 27.582031 C 38.539062 27.492188 38.492188 27.371094 38.574219 27.304688 C 38.675781 27.222656 38.78125 27.320312 38.867188 27.375 C 39.109375 27.535156 39.273438 27.742188 39.226562 28.050781 C 39.140625 28.609375 39.289062 29.105469 39.613281 29.554688 C 39.636719 29.585938 39.648438 29.628906 39.667969 29.671875 C 39.152344 29.71875 38.792969 29.417969 38.667969 28.828125 Z M 38.667969 28.828125 "/>
<path style=" stroke:none;fill-rule:nonzero;fill:rgb(59.607843%,61.568627%,65.490196%);fill-opacity:1;" d="M 36.375 17.347656 C 36.734375 17.644531 37.070312 17.9375 37.296875 18.328125 C 37.34375 18.40625 37.421875 18.511719 37.355469 18.597656 C 37.277344 18.691406 37.171875 18.601562 37.085938 18.574219 C 36.347656 18.332031 35.804688 17.902344 35.65625 17.09375 C 35.640625 17.019531 35.617188 16.945312 35.675781 16.859375 C 35.945312 16.957031 36.132812 17.167969 36.375 17.347656 Z M 36.375 17.347656 "/>
<path style=" stroke:none;fill-rule:nonzero;fill:rgb(58.039216%,59.607843%,63.529412%);fill-opacity:1;" d="M 46.5 23.808594 C 46.355469 23.566406 46.222656 23.34375 46.089844 23.121094 C 46.6875 23.34375 47.246094 23.613281 47.75 23.980469 C 47.863281 24.0625 47.820312 24.140625 47.730469 24.214844 C 47.539062 24.371094 47.335938 24.515625 47.109375 24.625 C 46.941406 24.707031 46.804688 24.6875 46.722656 24.523438 C 46.621094 24.320312 46.808594 24.300781 46.925781 24.234375 C 47.007812 24.1875 47.113281 24.179688 47.183594 24.042969 C 46.933594 24.027344 46.621094 24.191406 46.5 23.808594 Z M 46.5 23.808594 "/>
<path style=" stroke:none;fill-rule:nonzero;fill:rgb(59.607843%,61.568627%,65.490196%);fill-opacity:1;" d="M 46.308594 25.875 C 46.515625 25.738281 46.75 25.527344 46.921875 25.671875 C 47.058594 25.789062 46.890625 26.070312 46.808594 26.265625 C 46.703125 26.527344 46.535156 26.734375 46.234375 26.777344 C 46.117188 26.796875 45.984375 26.808594 45.910156 26.691406 C 45.847656 26.59375 45.875 26.484375 45.929688 26.382812 C 46.023438 26.199219 46.140625 26.03125 46.308594 25.875 Z M 46.308594 25.875 "/>
<path style=" stroke:none;fill-rule:nonzero;fill:rgb(32.54902%,39.215686%,45.098039%);fill-opacity:1;" d="M 21.085938 16.707031 C 20.808594 16.652344 20.542969 16.683594 20.304688 16.539062 C 20.652344 16.25 21.332031 16.09375 21.558594 16.242188 C 21.695312 16.335938 21.851562 16.4375 21.789062 16.628906 C 21.71875 16.84375 21.523438 16.746094 21.371094 16.742188 C 21.285156 16.738281 21.199219 16.722656 21.085938 16.707031 Z M 21.085938 16.707031 "/>
<path style=" stroke:none;fill-rule:nonzero;fill:rgb(58.039216%,59.607843%,63.529412%);fill-opacity:1;" d="M 13.558594 14.203125 C 13.457031 14.300781 13.375 14.382812 13.289062 14.46875 C 13.238281 14.132812 13.414062 13.800781 13.738281 13.636719 C 13.84375 13.582031 13.960938 13.550781 14.074219 13.515625 C 14.183594 13.484375 14.332031 13.390625 14.394531 13.519531 C 14.472656 13.679688 14.308594 13.765625 14.191406 13.839844 C 13.992188 13.964844 13.742188 14 13.558594 14.203125 Z M 13.558594 14.203125 "/>
<path style=" stroke:none;fill-rule:nonzero;fill:rgb(79.215686%,78.823529%,78.823529%);fill-opacity:1;" d="M 40.898438 25.460938 C 40.628906 25.574219 40.328125 25.488281 40.03125 25.515625 C 39.90625 25.53125 39.773438 25.484375 39.640625 25.578125 C 39.523438 25.601562 39.421875 25.601562 39.308594 25.480469 C 39.851562 25.402344 40.363281 25.386719 40.898438 25.460938 Z M 40.898438 25.460938 "/>
<path style=" stroke:none;fill-rule:nonzero;fill:rgb(79.215686%,78.823529%,78.823529%);fill-opacity:1;" d="M 44.234375 27.28125 C 44.132812 27.375 44.042969 27.28125 43.933594 27.222656 C 44.03125 27.179688 44.117188 27.25 44.234375 27.28125 Z M 44.234375 27.28125 "/>
<path style=" stroke:none;fill-rule:nonzero;fill:rgb(79.215686%,78.823529%,78.823529%);fill-opacity:1;" d="M 39.90625 25.65625 C 39.964844 25.566406 40.046875 25.578125 40.140625 25.652344 C 40.074219 25.710938 40 25.675781 39.90625 25.65625 Z M 39.90625 25.65625 "/>
<path style=" stroke:none;fill-rule:nonzero;fill:rgb(79.215686%,78.823529%,78.823529%);fill-opacity:1;" d="M 44.691406 27.355469 C 44.625 27.441406 44.542969 27.425781 44.453125 27.347656 C 44.519531 27.335938 44.597656 27.339844 44.691406 27.355469 Z M 44.691406 27.355469 "/>
<path style=" stroke:none;fill-rule:nonzero;fill:rgb(79.215686%,78.823529%,78.823529%);fill-opacity:1;" d="M 41.371094 25.53125 C 41.34375 25.589844 41.304688 25.582031 41.257812 25.53125 C 41.289062 25.519531 41.324219 25.519531 41.371094 25.53125 Z M 41.371094 25.53125 "/>
<path style=" stroke:none;fill-rule:nonzero;fill:rgb(63.137255%,65.098039%,69.411765%);fill-opacity:1;" d="M 28.523438 21.671875 C 28.507812 21.648438 28.492188 21.628906 28.472656 21.609375 C 28.484375 21.601562 28.496094 21.59375 28.507812 21.582031 C 28.515625 21.601562 28.523438 21.621094 28.527344 21.65625 C 28.519531 21.675781 28.523438 21.671875 28.523438 21.671875 Z M 28.523438 21.671875 "/>
<path style=" stroke:none;fill-rule:nonzero;fill:rgb(63.529412%,65.490196%,70.196078%);fill-opacity:1;" d="M 23.410156 17.214844 C 23.394531 17.21875 23.390625 17.210938 23.386719 17.207031 C 23.398438 17.207031 23.40625 17.207031 23.410156 17.214844 Z M 23.410156 17.214844 "/>
<path style=" stroke:none;fill-rule:nonzero;fill:rgb(90.196078%,89.803922%,89.803922%);fill-opacity:1;" d="M 8.09375 28.53125 C 7.855469 28.273438 7.667969 28.347656 7.445312 28.535156 C 7.105469 28.808594 6.726562 29.023438 6.25 29.070312 C 6.355469 29.316406 6.613281 29.351562 6.773438 29.503906 C 6.273438 29.671875 5.570312 29.351562 5.386719 28.882812 C 5.328125 28.742188 5.359375 28.683594 5.515625 28.679688 C 5.796875 28.675781 6.078125 28.652344 6.355469 28.582031 C 6.785156 28.46875 7.191406 28.304688 7.476562 27.953125 C 8.214844 27.039062 9.179688 26.6875 10.328125 26.742188 C 10.601562 26.753906 10.878906 26.742188 11.15625 26.800781 C 10.808594 26.972656 10.441406 27.023438 10.066406 27.019531 C 9.585938 27.015625 9.109375 27.050781 8.664062 27.253906 C 8.324219 27.40625 8.292969 27.507812 8.484375 27.824219 C 8.636719 28.078125 8.808594 28.3125 9.023438 28.515625 C 9.066406 28.558594 9.152344 28.589844 9.128906 28.664062 C 9.097656 28.757812 9 28.730469 8.929688 28.730469 C 8.644531 28.742188 8.371094 28.683594 8.09375 28.53125 Z M 8.09375 28.53125 "/>
<path style=" stroke:none;fill-rule:nonzero;fill:rgb(92.941176%,92.941176%,92.941176%);fill-opacity:1;" d="M 10.582031 31.191406 C 10.929688 31.648438 11.027344 31.667969 11.460938 31.335938 C 11.664062 31.179688 11.859375 31.007812 12.097656 30.808594 C 12.128906 31.058594 12.058594 31.242188 11.941406 31.40625 C 11.449219 32.09375 10.820312 32.609375 10.03125 32.921875 C 9.636719 33.078125 9.496094 33.003906 9.398438 32.597656 C 9.363281 32.460938 9.347656 32.320312 9.339844 32.179688 C 9.332031 32.089844 9.28125 31.964844 9.410156 31.925781 C 9.515625 31.898438 9.582031 31.996094 9.648438 32.070312 C 9.738281 32.171875 9.738281 32.4375 9.984375 32.261719 C 10.171875 32.128906 10.464844 32.066406 10.304688 31.710938 C 10.226562 31.535156 10.195312 31.335938 10.160156 31.144531 C 10.140625 31.023438 10.167969 30.871094 10.28125 30.832031 C 10.421875 30.78125 10.429688 30.949219 10.484375 31.03125 C 10.515625 31.074219 10.542969 31.125 10.582031 31.191406 Z M 10.582031 31.191406 "/>
<path style=" stroke:none;fill-rule:nonzero;fill:rgb(32.54902%,39.215686%,45.098039%);fill-opacity:1;" d="M 9.578125 23.421875 C 9.460938 23.425781 9.375 23.433594 9.289062 23.425781 C 9.210938 23.417969 9.144531 23.378906 9.128906 23.292969 C 9.113281 23.21875 9.160156 23.167969 9.21875 23.132812 C 9.84375 22.761719 10.445312 22.359375 11.109375 22.054688 C 11.179688 22.023438 11.253906 21.992188 11.320312 22.0625 C 11.378906 22.128906 11.371094 22.210938 11.335938 22.277344 C 11.152344 22.636719 10.941406 22.980469 10.617188 23.230469 C 10.425781 23.378906 10.171875 23.28125 9.957031 23.359375 C 9.847656 23.398438 9.722656 23.398438 9.578125 23.421875 Z M 9.578125 23.421875 "/>
<path style=" stroke:none;fill-rule:nonzero;fill:rgb(59.607843%,61.568627%,65.490196%);fill-opacity:1;" d="M 11.144531 30.519531 C 11.3125 30.117188 11.398438 29.734375 11.3125 29.320312 C 11.277344 29.140625 11.355469 28.976562 11.480469 28.847656 C 11.613281 28.71875 11.785156 28.539062 11.945312 28.621094 C 12.097656 28.703125 11.957031 28.917969 11.914062 29.0625 C 11.832031 29.375 11.835938 29.683594 11.859375 30 C 11.890625 30.488281 11.605469 30.871094 11.140625 30.988281 C 11.070312 31.007812 10.984375 31.050781 10.925781 30.988281 C 10.855469 30.910156 10.949219 30.851562 10.984375 30.792969 C 11.03125 30.707031 11.085938 30.625 11.144531 30.519531 Z M 11.144531 30.519531 "/>
<path style=" stroke:none;fill-rule:nonzero;fill:rgb(58.039216%,59.607843%,63.529412%);fill-opacity:1;" d="M 4.269531 24.449219 C 4.394531 24.40625 4.449219 24.433594 4.386719 24.542969 C 4.242188 24.792969 4.089844 25.046875 3.929688 25.289062 C 3.789062 25.503906 3.570312 25.316406 3.390625 25.359375 C 3.421875 25.523438 3.5625 25.519531 3.660156 25.570312 C 3.757812 25.621094 3.875 25.667969 3.824219 25.804688 C 3.777344 25.9375 3.671875 26.03125 3.519531 25.976562 C 3.222656 25.867188 2.96875 25.675781 2.734375 25.46875 C 2.605469 25.355469 2.78125 25.308594 2.839844 25.261719 C 3.277344 24.941406 3.777344 24.71875 4.269531 24.449219 Z M 4.269531 24.449219 "/>
<path style=" stroke:none;fill-rule:nonzero;fill:rgb(59.607843%,61.568627%,65.490196%);fill-opacity:1;" d="M 3.644531 26.949219 C 4.117188 27.015625 4.398438 27.300781 4.59375 27.679688 C 4.648438 27.785156 4.703125 27.90625 4.613281 28.015625 C 4.519531 28.132812 4.386719 28.117188 4.253906 28.085938 C 3.859375 27.992188 3.542969 27.429688 3.644531 26.949219 Z M 3.644531 26.949219 "/>
<path style=" stroke:none;fill-rule:nonzero;fill:rgb(1.568627%,1.568627%,1.568627%);fill-opacity:1;" d="M 24.082031 20.5 C 24.078125 20.492188 24.070312 20.488281 24.066406 20.480469 C 24.070312 20.480469 24.078125 20.484375 24.082031 20.492188 C 24.078125 20.503906 24.082031 20.5 24.082031 20.5 Z M 24.082031 20.5 "/>
<path style=" stroke:none;fill-rule:nonzero;fill:rgb(1.568627%,1.568627%,1.568627%);fill-opacity:1;" d="M 23.757812 18.28125 C 23.769531 18.285156 23.800781 18.289062 23.800781 18.289062 C 23.796875 18.320312 23.785156 18.324219 23.761719 18.289062 C 23.761719 18.273438 23.757812 18.277344 23.757812 18.28125 Z M 23.757812 18.28125 "/>
</g>
</svg>
