<svg width="50" height="50" viewBox="0 0 50 50" fill="none" xmlns="http://www.w3.org/2000/svg">
<path d="M18.388 7.90576C18.3584 8.12002 18.1982 8.19712 17.9745 8.22332C17.7181 8.43051 17.5131 8.6778 17.1589 8.68405C17.0615 8.68577 16.9905 8.77791 16.9349 8.86061C16.8702 8.95685 16.7827 9.01505 16.6682 9.028C16.4835 9.04887 16.3451 9.14212 16.2352 9.28841C16.1686 9.37697 16.0836 9.45177 15.9714 9.46731C15.7602 9.49655 15.6124 9.60376 15.5116 9.7892C15.4746 9.85721 15.4082 9.90659 15.3316 9.92047C15.1117 9.96035 14.9591 10.0848 14.8522 10.2752C14.8365 10.3033 14.8142 10.3386 14.7861 10.3453C14.3932 10.4387 14.2259 10.8382 13.8872 11.0046C13.7775 11.0585 13.6869 11.1397 13.6356 11.2514C13.5732 11.3875 13.4836 11.4833 13.3357 11.5271C13.1912 11.5699 13.0969 11.6765 13.0394 11.8113C12.9699 11.9745 12.8545 12.0755 12.659 12.1151C12.6251 12.1279 12.6121 12.1332 12.5636 12.1583C12.5179 12.186 12.5075 12.194 12.471 12.2299C12.4378 12.2686 12.4307 12.2792 12.4146 12.3068C12.4001 12.3356 12.3948 12.3474 12.3827 12.3778C12.352 12.4595 12.3418 12.5276 12.2964 12.6046C12.1704 12.6986 12.0314 12.7399 11.9347 12.8761C11.8358 12.9624 11.8337 13.0648 11.8111 13.1821C11.7992 13.2153 11.7931 13.2279 11.7735 13.2564C11.7065 13.3133 11.6379 13.3217 11.5663 13.3674C11.5139 13.4131 11.4759 13.4462 11.4232 13.4909C11.3999 13.5117 11.3906 13.5203 11.3586 13.5608C11.3032 13.6587 11.3072 13.7319 11.2907 13.8231C11.2809 13.8569 11.2757 13.8699 11.2586 13.8998C11.2163 13.9433 11.1801 13.9597 11.1265 13.9837C11.0986 13.9977 11.0876 14.0034 11.0606 14.0188C11.0238 14.0419 11.0028 14.0553 10.9662 14.0793C10.9291 14.1037 10.9075 14.1171 10.8692 14.1407C10.8179 14.1709 10.7811 14.1846 10.7236 14.1756C10.5079 14.1649 10.3093 14.1647 10.0809 14.1644C10.0051 14.1153 9.9965 14.0581 10.0251 13.9664C10.2812 13.6331 10.5242 13.3261 10.7761 13.0264C10.8134 12.9821 10.8923 12.9728 10.973 12.9358C11.0303 12.8679 11.0311 12.7969 11.0759 12.7224C11.0845 12.6931 11.0824 12.6769 11.0887 12.6723C11.4334 12.4198 11.6279 12.0055 12.0188 11.8045C12.1104 11.7574 12.1865 11.713 12.2077 11.6013C12.2173 11.5507 12.245 11.4752 12.2822 11.4624C12.6797 11.326 12.8402 10.8785 13.2347 10.7432C13.3416 10.7065 13.4284 10.6589 13.4722 10.5427C13.4939 10.4856 13.5445 10.4114 13.5957 10.398C13.9942 10.2937 14.2431 9.95615 14.5771 9.75166C14.9006 9.5536 15.2649 9.41116 15.5567 9.15711C15.788 8.95587 16.0905 8.86396 16.3564 8.73916C17.0101 8.43235 17.6606 8.1023 18.388 7.90576Z" fill="#D5A52F"/>
<path d="M17.1131 41.4549C16.5497 41.2961 16.0622 41.0001 15.5549 40.7393C15.22 40.5671 14.9017 40.3666 14.5911 40.1679C14.2381 39.942 13.8796 39.7126 13.5437 39.4495C13.2566 39.2248 13.0046 38.9344 12.6656 38.7779C12.4683 38.6866 12.3733 38.5293 12.2841 38.3269C12.2433 38.2844 12.2149 38.2615 12.16 38.2508C11.9309 38.224 11.8085 38.1015 11.759 37.877C11.7404 37.7766 11.6832 37.73 11.6011 37.6809C11.4541 37.6896 11.3578 37.6446 11.288 37.5144C11.2507 37.1375 11.5419 37.2368 11.7499 37.1816C11.7933 37.1834 11.8104 37.1849 11.8526 37.191C11.8936 37.1999 11.9097 37.2043 11.9486 37.2171C11.9861 37.2318 12.0006 37.2381 12.0363 37.2544C12.1717 37.3338 12.3055 37.3665 12.4236 37.4703C12.4647 37.5333 12.4807 37.585 12.5121 37.6505C12.543 37.6981 12.5595 37.7315 12.57 37.7854C12.5712 37.8025 12.5666 37.8346 12.5637 37.8496C12.5609 37.8645 12.5722 37.8919 12.5842 37.9006C12.6182 37.9078 12.6402 37.9065 12.681 37.909C12.8181 37.9566 12.9317 38.008 13.0157 38.1385C13.0605 38.2238 13.0737 38.2975 13.1131 38.3824C13.1284 38.4109 13.1347 38.4218 13.1517 38.4473C13.1787 38.4791 13.1964 38.4948 13.2316 38.5165C13.2589 38.5289 13.2702 38.5331 13.2996 38.5423C13.3431 38.5519 13.369 38.5554 13.4164 38.5589C13.4811 38.5626 13.5421 38.5549 13.5631 38.5819C13.7911 38.875 14.1277 39.0396 14.3896 39.2915C14.4042 39.3055 14.4052 39.3371 14.4214 39.347C14.7819 39.5688 15.0505 39.9054 15.4295 40.1388C15.4966 40.1616 15.5386 40.1831 15.5986 40.2201C15.7434 40.3544 15.7957 40.5576 16.0317 40.5866C16.3319 40.7414 16.5564 40.974 16.8937 41.0308C17.0515 41.0573 17.1612 41.2351 17.1131 41.4549Z" fill="#D5A52F"/>
<path d="M11.8997 37.2488C11.6738 37.2817 11.445 37.2283 11.2883 37.4681C11.162 37.3145 10.9327 37.1712 10.8612 37.028C10.6695 36.6438 10.184 36.5055 10.112 36.0535C10.1008 35.9833 10.0678 35.9321 10.0031 35.905C9.76424 35.8049 9.61082 35.6423 9.60457 35.3692C9.60241 35.275 9.52622 35.2546 9.45946 35.2172C9.26779 35.1102 9.14719 34.9543 9.14995 34.699C9.54324 34.837 9.94052 34.9984 10.3581 35.1722C10.4069 35.214 10.4391 35.2376 10.4957 35.2605C10.5462 35.2924 10.5725 35.3213 10.608 35.3675C10.6267 35.3922 10.6341 35.4021 10.6667 35.4379C10.712 35.4777 10.733 35.4903 10.7724 35.5093C10.8143 35.5293 10.8362 35.5449 10.8685 35.5806C10.9372 35.7027 10.8928 35.8385 11.002 35.9451C11.0752 36.0038 11.1275 36.0531 11.1955 36.1168C11.3318 36.2317 11.4369 36.3426 11.4763 36.5222C11.5197 36.5806 11.5508 36.623 11.5928 36.6809C11.6351 36.7385 11.6772 36.7612 11.7505 36.7692C11.8519 36.7969 11.9031 36.8523 11.9449 36.9506C11.9688 37.0632 11.9664 37.149 11.8997 37.2488Z" fill="#D5A52F"/>
<path d="M7.32732 30.9718C7.3756 30.9194 7.41991 30.8834 7.47008 30.8709C8.05326 30.7254 8.06898 30.7513 7.99906 31.3467C7.96145 31.6668 7.98011 31.9935 7.97582 32.348C7.85758 32.3757 7.73008 32.2967 7.72403 32.2123C7.69237 31.7713 7.2813 31.4594 7.32732 30.9718Z" fill="#D5A52F"/>
<path d="M8.04356 20.3569C7.6781 20.65 7.27437 20.8087 6.81593 20.903C6.70492 20.6671 6.72993 20.454 6.91263 20.2724C6.97778 20.2075 7.01551 20.1341 6.99592 20.0391C6.94611 19.7976 6.99706 19.5872 7.1892 19.4215C7.2665 19.3547 7.25611 19.2684 7.24518 19.181C7.21946 18.9752 7.25845 18.7926 7.43262 18.6577C7.50742 18.5999 7.53693 18.522 7.52466 18.4284C7.49546 18.2056 7.56505 18.0216 7.74387 17.8837C7.8301 17.8172 7.86138 17.7337 7.84831 17.6277C7.84303 17.5851 7.82925 17.5261 7.85052 17.5002C8.12293 17.1676 8.18528 16.7214 8.45615 16.3894C8.46947 16.373 8.50312 16.3649 8.5056 16.3494C8.56702 15.9662 8.87216 15.7166 9.04031 15.3634C9.06612 15.298 9.08582 15.2581 9.11653 15.1994C9.32826 14.96 9.52101 14.7374 9.61098 14.4379C9.64422 14.3272 9.76621 14.2671 9.90986 14.2356C9.96897 14.1911 9.99893 14.1442 10.0748 14.1071C10.2818 14.0565 10.4631 14.0509 10.6682 14.1139C10.8023 14.2192 10.7904 14.3462 10.7849 14.4955C10.777 14.5361 10.7724 14.5517 10.7568 14.5886C10.7086 14.6607 10.6517 14.6829 10.5808 14.7209C10.5186 14.7597 10.4764 14.7911 10.4285 14.8452C10.4085 14.8706 10.4008 14.881 10.3744 14.9255C10.3187 15.0499 10.333 15.1471 10.3122 15.2602C10.3027 15.2929 10.2976 15.3054 10.281 15.3345C10.2307 15.3862 10.1811 15.4017 10.1191 15.432C10.0836 15.4534 10.0643 15.4669 10.0329 15.4936C10.012 15.5146 10.0039 15.5234 9.97505 15.5621C9.94328 15.6146 9.93386 15.6379 9.92054 15.681C9.91197 15.7135 9.90851 15.7266 9.8998 15.7595C9.87898 15.8325 9.87112 15.8871 9.8593 15.9617C9.8516 15.9945 9.84756 16.0072 9.83437 16.0374C9.80919 16.0744 9.7912 16.0919 9.75621 16.1167C9.73242 16.1332 9.723 16.1396 9.70008 16.1556C9.6866 16.1652 9.66143 16.1859 9.6399 16.2096C9.60606 16.2514 9.59478 16.2699 9.57693 16.3042C9.56375 16.3295 9.55816 16.3395 9.5438 16.3646C9.52947 16.3904 9.52393 16.4009 9.50563 16.4461C9.4731 16.5712 9.47748 16.6659 9.43682 16.7727C9.42156 16.8031 9.41453 16.8147 9.39527 16.8425C9.37415 16.8687 9.36525 16.8787 9.32846 16.9171C9.2913 16.9549 9.28203 16.9642 9.24626 17.0026C9.21168 17.0422 9.20361 17.0527 9.17468 17.0977C9.08532 17.2455 9.0943 17.3739 9.08037 17.5195C9.07471 17.5547 9.07162 17.5686 9.06173 17.6027C9.04373 17.6489 9.03131 17.674 9.00705 17.7164C8.96697 17.7799 8.92912 17.8181 8.87408 17.8669C8.85073 17.8887 8.84168 17.8976 8.81112 17.9374C8.75623 18.0417 8.76263 18.1201 8.76081 18.218C8.7598 18.2521 8.7589 18.2659 8.75501 18.3001C8.74866 18.3342 8.74531 18.3476 8.73451 18.3806C8.71421 18.4246 8.69953 18.4481 8.66992 18.4861C8.64817 18.5122 8.63918 18.5224 8.60312 18.5627C8.56751 18.6035 8.559 18.614 8.52813 18.6594C8.40276 18.8385 8.47316 18.9996 8.45617 19.1735C8.44486 19.2066 8.43912 19.2194 8.42303 19.2499C8.3981 19.2902 8.38361 19.3129 8.36012 19.3531C8.34548 19.3825 8.33993 19.3945 8.3271 19.4247C8.31103 19.4687 8.3031 19.4945 8.29183 19.5412C8.2784 19.8411 8.29983 20.1294 8.04356 20.3569Z" fill="#D5A52F"/>
<path d="M25.0327 43.4727C35.2529 43.4727 43.538 35.1876 43.538 24.9674C43.538 14.7472 35.2529 6.46216 25.0327 6.46216C14.8126 6.46216 6.5275 14.7472 6.5275 24.9674C6.5275 35.1876 14.8126 43.4727 25.0327 43.4727Z" fill="#D5A52F"/>
<path d="M25.4375 43.5C35.4131 43.5 43.5 35.2173 43.5 25C43.5 14.7827 35.4131 6.5 25.4375 6.5C15.4619 6.5 7.375 14.7827 7.375 25C7.375 35.2173 15.4619 43.5 25.4375 43.5Z" fill="#F4B420"/>
<path d="M9.16343 34.6921C8.67583 34.3291 8.36891 33.8663 8.15869 33.3269C8.11763 33.2217 8.09928 33.1234 8.09321 32.9899C8.01745 32.8378 7.98378 32.7032 8.01195 32.5334C8.01775 32.4743 8.01166 32.4388 7.99193 32.3911C7.76824 32.1198 7.89604 31.8172 7.87078 31.5344C7.86601 31.4811 7.8803 31.4267 7.88689 31.3729C7.94138 30.9277 7.93568 30.9217 7.50651 30.9667C7.46313 30.9713 7.42 30.9706 7.35273 30.9544C6.211 30.9471 5.16975 30.6736 4.30766 29.9481C3.38191 29.1691 2.43998 28.3943 1.94114 27.2282C1.82434 26.9552 1.49414 26.8314 1.25829 26.6466C0.703128 26.2113 0.509393 25.6164 0.722485 24.9452C0.837073 24.5842 0.966125 24.2391 1.17245 23.9131C1.68663 23.1007 2.49771 22.8037 3.36164 22.5893C3.75973 22.4906 4.16444 22.4178 4.56749 22.3403C4.6869 22.3173 4.75423 22.2816 4.77185 22.1408C4.82728 21.6983 5.137 21.4666 5.52131 21.3291C5.92826 21.1836 6.34503 21.0654 6.77336 20.9184C7.15391 20.6751 7.59393 20.6048 7.96245 20.3327C8.31911 20.1511 8.51175 19.8189 8.81991 19.5819C9.14429 19.2789 9.49061 19.0559 9.91413 18.9122C10.2946 18.8081 10.6514 18.7103 11.0178 18.6587C11.2433 18.6271 11.3305 18.5059 11.3295 18.2831C11.3285 18.0293 11.3109 17.7883 11.1707 17.5633C10.9829 17.2618 10.9733 16.9209 11.0158 16.5828C11.0744 16.1172 11.1834 15.6614 11.4011 15.2413C11.6018 14.8539 11.7843 14.4563 11.9094 14.0414C12.1922 13.1034 12.8488 12.5864 13.7755 12.316C14.0191 12.2945 14.2362 12.2967 14.4796 12.311C14.7087 12.3235 14.8834 12.4185 15.0505 12.5177C15.4825 12.7741 15.9408 12.9752 16.4046 13.1612C16.9021 13.3608 17.3629 13.6266 17.8195 13.9011C18.0709 14.0522 18.3117 14.0689 18.5936 13.9591C19.1645 13.7366 19.7629 13.6209 20.3784 13.6158C20.5576 13.6143 20.718 13.5663 20.8769 13.4856C21.6157 13.1099 22.3689 13.0663 23.1474 13.3734C24.1225 13.7583 25.0649 14.2031 25.9084 14.8323C26.1256 14.9944 26.2326 14.9307 26.3195 14.7114C26.4236 14.4491 26.5452 14.1948 26.6235 13.9208C26.868 13.0651 27.7496 12.8396 28.3779 13.4633C28.649 13.7326 28.7864 14.0746 28.9158 14.4224C29.0487 14.7802 29.117 15.1567 29.235 15.5187C29.321 15.7823 29.3926 15.8188 29.589 15.6221C29.9167 15.2938 30.1184 14.8901 30.1287 14.4127C30.1407 13.8596 30.3171 13.4109 30.8749 13.1922C31.322 13.0169 31.8116 13.1391 32.1396 13.5297C32.3783 13.8141 32.6344 14.0803 32.9123 14.3243C33.121 14.5076 33.1906 14.4759 33.2424 14.2001C33.2704 14.0506 33.2754 13.8973 33.3122 13.7488C33.3924 13.4269 33.5137 13.3817 33.7967 13.5686C33.9694 13.6826 34.097 13.8542 34.305 13.9617C34.5756 14.2736 34.871 14.5078 35.2726 14.6277C35.3452 14.6594 35.3867 14.7019 35.4629 14.7222C35.5391 14.7324 35.5942 14.7419 35.6683 14.7637C35.7389 14.7931 35.7787 14.8343 35.8517 14.8584C35.8994 14.8706 35.9266 14.8783 35.9744 14.8926C36.147 14.9529 36.299 15.0068 36.4764 15.0537C36.5718 15.0731 36.6408 15.1014 36.7314 15.1359C36.7944 15.1591 36.8346 15.1794 36.9014 15.1923C37.6001 15.4242 38.1149 15.8563 38.5037 16.4466C38.6531 16.6734 38.791 16.9079 38.97 17.1403C39.0136 17.1989 39.0401 17.2449 39.1068 17.2756C39.1483 17.2888 39.1721 17.2962 39.214 17.3091C39.2681 17.3256 39.3039 17.3374 39.3596 17.3486C39.4036 17.3568 39.4288 17.3624 39.4723 17.3739C39.528 17.3901 39.5646 17.4024 39.6217 17.4142C39.6667 17.4223 39.6924 17.4279 39.737 17.4391C39.7944 17.4544 39.832 17.4669 39.8911 17.4757C39.9515 17.4827 39.9916 17.4896 40.0519 17.5011C40.1125 17.5147 40.1518 17.5286 40.214 17.5366C40.2776 17.5438 40.3197 17.5518 40.3835 17.5639C40.4484 17.5779 40.4901 17.5944 40.5576 17.6009C40.9987 17.6834 41.3322 17.9182 41.6637 18.2042C42.0101 18.5676 42.3485 18.9046 42.7695 19.1827C43.3714 19.5464 44.0228 19.7166 44.6671 19.9001C45.1921 20.0496 45.6996 20.1996 45.7669 20.8649C45.7771 20.9662 45.8554 21.0008 45.9497 21.0191C46.3841 21.1032 46.8224 21.1729 47.2504 21.2824C48.8025 21.6793 49.6236 22.3602 49.906 24.0869C49.9825 24.5552 49.7309 24.9887 49.3465 25.2712C48.9145 25.5887 48.5684 25.9369 48.3088 26.4277C47.8941 27.2114 47.1969 27.7722 46.5461 28.3654C45.9024 28.9523 45.1702 29.3408 44.328 29.5279C43.9217 29.6182 43.5058 29.5561 43.0649 29.5661C42.9824 29.5726 42.932 29.6011 42.8781 29.5963C42.6065 29.5724 42.5831 29.7282 42.6126 29.9417C42.6565 30.2599 42.7108 30.5804 42.5785 30.9163C42.5419 31.7352 42.2851 32.4449 41.752 33.0716C41.5731 33.2724 41.3746 33.4206 41.1515 33.5762C40.9755 33.6712 40.8094 33.7298 40.6225 33.8028C40.5678 33.8219 40.5354 33.8301 40.4775 33.8407C39.9301 34.0557 39.3784 34.1291 38.7991 34.2007C38.7033 34.2243 38.6317 34.2311 38.5326 34.2321C38.3611 34.2368 38.2144 34.2126 38.0474 34.2762C37.6019 34.3288 37.183 34.3124 36.7361 34.2921C36.6535 34.2764 36.602 34.2561 36.531 34.2146C36.4962 34.1886 36.4836 34.1769 36.457 34.1446C36.3065 33.5237 36.2253 32.9073 35.8983 32.3653C35.7865 32.1799 35.6847 31.9887 35.56 31.8113C35.4604 31.6697 35.3644 31.6564 35.2637 31.8157C35.125 32.0354 34.9884 32.2564 34.849 32.4757C34.5234 32.9877 34.1753 33.4837 33.7589 33.9576C33.4489 34.3384 33.109 34.6599 32.7715 35.0147C32.5173 35.3067 32.208 35.4987 31.9132 35.7429C31.5646 36.0644 31.1741 36.2903 30.7901 36.5632C30.7475 36.5924 30.7215 36.6061 30.6742 36.6254C30.5966 36.6463 30.5506 36.6794 30.4909 36.7322C30.123 36.9314 29.7861 37.1449 29.3854 37.2792C29.3039 37.2957 29.253 37.3247 29.1869 37.3737C29.0437 37.4459 28.9106 37.4811 28.7594 37.5348C28.6556 37.5559 28.5894 37.6004 28.5019 37.6606C27.4513 38.0468 26.3876 38.2212 25.2975 38.2943C23.1982 38.4351 21.1955 38.0487 19.255 37.2699C19.0311 37.1802 18.8391 37.0357 18.6007 36.9226C17.68 36.3773 16.8039 35.8114 16.0125 35.1246C15.6351 34.7969 15.2505 34.4778 14.9015 34.1181C14.6024 33.8099 14.5442 33.8281 14.3926 34.2426C14.3814 34.2731 14.373 34.3047 14.3544 34.3562C14.3222 34.4289 14.2797 34.4702 14.2537 34.5448C14.2414 34.5936 14.234 34.6216 14.2211 34.6714C14.1944 34.7528 14.1905 34.8146 14.1946 34.9024C14.1896 35.1247 14.2267 35.3341 14.0159 35.4934C13.8671 35.5516 13.7297 35.5172 13.5799 35.5789C13.3076 35.6252 13.0621 35.6187 12.789 35.5928C12.609 35.5288 12.4489 35.5346 12.2637 35.5366C12.1549 35.5389 12.072 35.5369 11.9661 35.5219C11.8831 35.5084 11.8243 35.4919 11.7405 35.4978C11.6131 35.4994 11.513 35.4687 11.3897 35.4437C11.3118 35.4238 11.257 35.4022 11.1754 35.4009C11.1089 35.3968 11.0651 35.3896 10.9996 35.3771C10.9208 35.3578 10.8653 35.3363 10.7831 35.3322C10.7309 35.3261 10.7012 35.3209 10.6494 35.3099C10.5542 35.2798 10.4784 35.2686 10.379 35.2552C9.93574 35.1317 9.53698 34.9664 9.16343 34.6921Z" fill="#F9F8F6"/>
<path d="M31.0944 15.6835C31.0914 15.2249 31.0731 14.7796 31.0557 14.3343C31.0505 14.1993 31.0578 14.066 31.2086 14.0066C31.3693 13.9435 31.4468 14.0634 31.5279 14.1649C32.1001 14.881 32.8055 15.4306 33.6138 15.8581C33.813 15.9635 33.8857 15.9495 33.9217 15.7114C33.957 15.479 33.8969 15.1461 34.076 15.0434C34.229 14.9555 34.4473 15.233 34.6525 15.3216C35.1131 15.5206 35.5932 15.6584 36.0736 15.7944C36.8546 16.0156 37.5234 16.3854 37.9091 17.1406C38.2534 17.8149 38.7973 18.183 39.554 18.2451C40.3776 18.3128 41.0316 18.6926 41.5713 19.315C41.997 19.8061 42.5929 20.0459 43.1852 20.2649C43.684 20.4493 44.1963 20.5978 44.7044 20.7563C44.9043 20.8186 45.0646 20.8576 44.8616 21.1179C44.68 21.3508 44.7728 21.5335 45.1036 21.6431C45.6316 21.8179 46.1856 21.8813 46.7262 22.0021C47.0334 22.0709 47.34 22.1485 47.639 22.246C48.4951 22.5254 48.9237 23.166 49.0947 24.0133C49.1454 24.2644 49.0373 24.462 48.8548 24.6184C48.6982 24.7526 48.5272 24.8699 48.363 24.9951C48.0999 25.1955 47.8857 25.4263 47.7704 25.7511C47.6215 26.1704 47.3184 26.4963 47.011 26.8013C46.3419 27.4651 45.7116 28.1864 44.7933 28.5318C44.0408 28.8148 43.2753 28.8259 42.4598 28.6368C42.6809 28.3621 42.9351 28.183 43.1811 27.9949C43.2478 27.944 43.3577 27.9175 43.3459 27.8135C43.3325 27.6965 43.2135 27.6804 43.1247 27.6519C42.9685 27.6018 42.8044 27.5674 42.6431 27.618C41.8617 27.8634 41.0719 27.7764 40.2861 27.6654C40.0478 27.6318 39.989 27.7088 39.9977 27.9144C40.0105 28.2133 40.13 28.4838 40.22 28.7624C40.2976 29.0023 40.4271 28.759 40.5389 28.7961C40.5798 29.2598 40.6208 29.7226 40.6665 30.2404C40.9491 29.9768 41.2026 29.7461 41.449 29.508C41.5833 29.378 41.6491 29.3753 41.6921 29.5798C41.826 30.2161 41.8535 30.8465 41.6958 31.4859C41.5196 32.1998 41.0974 32.6724 40.4111 32.9284C39.4479 33.2876 38.4429 33.3669 37.429 33.3979C37.291 33.4021 37.2189 33.3599 37.1841 33.207C36.9254 32.0678 36.2616 31.1589 35.5137 30.298C35.366 30.1279 35.3056 30.2469 35.2201 30.3539C34.8254 30.8479 34.5046 31.3913 34.1651 31.9223C32.8246 34.0184 31.082 35.6664 28.7523 36.6006C25.7938 37.7871 22.8237 37.6671 19.8764 36.5235C19.4265 36.349 19.4464 36.333 19.6021 35.8839C20.375 33.655 21.1357 31.4223 21.4897 29.0771C21.5533 28.6564 21.574 28.2321 21.5208 27.8088C21.5007 27.6503 21.4889 27.4489 21.326 27.386C21.1626 27.3229 21.0197 27.4714 20.8958 27.5685C20.6181 27.786 20.4766 28.0899 20.4112 28.431C20.3367 28.8194 20.3404 29.2094 20.388 29.6006C20.4408 30.0353 20.2832 30.2393 19.8336 30.2988C19.6514 30.3229 19.4646 30.3211 19.2801 30.3183C19.0962 30.3154 18.9128 30.2964 18.707 30.283C18.7684 30.4566 18.8439 30.6118 18.8764 30.7754C18.9241 31.016 18.8144 31.1 18.5844 31.0081C18.2181 30.8619 17.9126 30.6093 17.573 30.4161C17.4941 30.3714 17.4156 30.2645 17.313 30.3325C17.2292 30.388 17.2863 30.4938 17.2781 30.5771C17.2649 30.7128 17.3711 30.9045 17.2457 30.9718C17.0951 31.0525 16.9804 30.8649 16.8722 30.7719C16.2615 30.2464 15.6976 29.6746 15.1744 29.06C14.8642 28.6958 14.7956 28.2691 14.7389 27.8229C14.6481 27.1098 14.655 26.4398 15.0556 25.7808C15.4121 25.1945 15.4619 24.4805 15.6334 23.8189C15.704 23.5459 15.7756 23.2714 15.8749 23.0081C15.9764 22.7389 16.1059 22.718 16.2987 22.9365C16.4416 23.0983 16.5551 23.2863 16.6795 23.4643C16.7911 23.6241 16.8695 23.5849 16.9076 23.4199C16.9612 23.1876 17.001 22.9521 17.0551 22.6745C17.3042 22.8483 17.4507 23.1015 17.7015 23.3494C17.8421 22.6869 17.9942 22.0718 17.8766 21.4361C17.8277 21.1718 17.5769 21.1206 17.3534 21.1903C17.0521 21.2841 16.9481 21.1844 16.9711 20.8931C16.9909 20.6444 16.9194 20.5118 16.6404 20.6151C16.4621 20.6811 16.3991 20.5846 16.4094 20.424C16.4319 20.0678 16.2864 19.9005 15.916 19.9515C15.5186 20.0064 15.2427 19.8641 15.1831 19.3986C15.0257 19.5379 15.079 19.6759 15.0697 19.7915C15.0352 20.225 15.033 20.6618 14.9396 21.0889C14.92 21.1784 14.911 21.3039 14.7896 21.3129C14.6967 21.3198 14.6415 21.2266 14.5991 21.152C14.3679 20.7458 14.145 20.3348 13.9101 19.9308C13.8481 19.824 13.7994 19.6576 13.6516 19.6726C13.53 19.6849 13.5577 19.8504 13.5176 19.9455C13.4029 20.2176 13.316 20.2486 13.1024 20.0286C12.4873 19.3956 12.0805 18.6765 12.2309 17.7485C12.2632 17.5486 12.2738 17.3745 12.0528 17.2513C11.8985 17.1654 11.8741 16.9844 11.8882 16.8153C11.9229 16.4009 11.9986 15.9911 12.1899 15.621C12.4354 15.1458 12.6305 14.6526 12.8077 14.1498C13.006 13.5874 13.5863 13.1764 14.1783 13.1658C14.3333 13.1629 14.479 13.1846 14.6127 13.2748C14.9481 13.5009 15.312 13.6779 15.6907 13.8109C16.5274 14.1049 17.2354 14.6544 18.0566 14.9784C18.215 15.0409 18.3296 15.0378 18.4797 14.9645C19.1861 14.6196 19.9284 14.4326 20.7206 14.5323C20.8576 14.5494 20.9472 14.4943 21.0457 14.4238C21.5985 14.0285 22.1846 13.9233 22.8302 14.1905C23.9082 14.6366 24.9664 15.1128 25.8302 15.9275C25.9009 15.9941 25.985 16.0468 26.0654 16.1023C26.2819 16.2516 26.4633 16.2345 26.6178 16.002C26.9869 15.4464 27.2859 14.8578 27.4788 14.2181C27.506 14.1279 27.4829 14.0021 27.6155 13.9934C27.7284 13.9859 27.7749 14.0915 27.8261 14.1739C28.0006 14.454 28.1034 14.7655 28.1863 15.08C28.3413 15.6681 28.4889 16.259 28.6114 16.8546C28.6623 17.1023 28.7621 17.1344 28.9665 17.0431C29.5169 16.797 30.0191 16.4815 30.4533 16.0583C30.6453 15.8711 30.7253 15.6289 30.8044 15.3921C30.9554 15.4186 30.9064 15.5658 31.0001 15.6415C31.0291 15.685 31.0509 15.6975 31.0944 15.6835Z" fill="#040404"/>
<path d="M18.4655 31.8043C19.0093 31.9158 19.3787 31.7711 19.5907 31.2966C19.7239 30.9986 19.9753 31.0788 20.1729 31.0608C20.3166 31.0477 20.237 31.2336 20.2122 31.319C19.9514 32.2162 19.6906 33.1135 19.4121 34.0052C19.2341 34.5755 19.0198 35.1343 18.8356 35.7028C18.7704 35.9038 18.6978 35.9268 18.5174 35.8172C17.4713 35.1816 16.5197 34.4275 15.6444 33.5737C15.5257 33.458 15.504 33.3793 15.595 33.2218C15.9501 32.6075 15.8866 32.0176 15.458 31.5316C15.3387 31.3963 15.264 31.3647 15.1295 31.5182C14.3571 32.3998 13.654 33.3202 13.3834 34.4947C13.3501 34.6391 13.2994 34.7206 13.125 34.7125C12.1456 34.6665 11.1726 34.5968 10.2341 34.2726C9.49505 34.0172 9.02655 33.5342 8.84615 32.7657C8.68337 32.0723 8.71416 31.3925 8.92989 30.6606C9.2531 30.9635 9.54785 31.2397 9.89376 31.5638C9.9298 31.1048 9.95701 30.7095 9.99466 30.315C10.0035 30.222 9.95659 30.0246 10.1774 30.1667C10.284 30.2353 10.3054 30.1275 10.331 30.0656C10.4396 29.8038 10.5295 29.5352 10.5568 29.2513C10.5779 29.0316 10.5087 28.9363 10.2547 28.9838C9.58847 29.1081 8.91427 29.1405 8.24205 29.0315C7.99886 28.9921 7.76812 28.8577 7.51172 28.9361C7.39035 28.9732 7.22401 28.9893 7.2012 29.1348C7.18254 29.2537 7.34149 29.2801 7.42204 29.3468C7.56426 29.4647 7.71435 29.574 7.84897 29.6998C7.92215 29.7682 8.08762 29.8041 8.03532 29.9298C7.9965 30.0231 7.84644 30.0131 7.74059 30.028C6.55807 30.1945 5.49882 29.9482 4.59521 29.1243C4.10477 28.6772 3.6032 28.2432 3.18155 27.7277C2.99544 27.5002 2.82411 27.2642 2.73064 26.978C2.61155 26.6132 2.30796 26.4082 2.01726 26.1976C1.36356 25.724 1.32094 25.5597 1.6 24.7995C1.93152 23.8963 2.68312 23.5745 3.52732 23.3815C4.07809 23.2555 4.63465 23.1552 5.18721 23.0368C5.31345 23.0097 5.43706 22.9632 5.55635 22.9126C5.79019 22.8133 5.84455 22.6286 5.68897 22.4438C5.47575 22.1906 5.64089 22.1383 5.84002 22.0807C6.60195 21.8601 7.3605 21.6331 8.07561 21.2786C8.45094 21.0926 8.804 20.8758 9.07172 20.5561C9.5685 19.9628 10.2216 19.7278 10.9548 19.5546C11.5069 19.4241 11.8309 19.4962 12.0847 20.0185C12.2495 20.3573 12.5259 20.6375 12.8704 20.8635C12.8799 21.0117 12.7712 21.021 12.6787 21.042C12.4121 21.1026 12.1427 21.1361 11.8696 21.0908C11.1412 20.9702 10.468 21.1226 9.83177 21.4858C9.31301 21.7821 8.80271 22.0986 8.21605 22.2532C8.16355 22.267 8.11374 22.291 8.06729 22.3192C7.88289 22.4315 7.69824 22.5776 7.76496 22.8073C7.83509 23.049 8.07806 22.935 8.24664 22.9376C8.49611 22.9415 8.69931 22.7991 8.90231 22.6716C9.36302 22.3823 9.80057 22.0588 10.2486 21.7511C10.8385 21.3457 11.4993 21.3592 12.165 21.3971C12.3715 21.4088 12.4191 21.5373 12.3224 21.7173C12.3019 21.7557 12.2828 21.7973 12.2512 21.8263C11.7781 22.2603 11.5585 22.846 11.3114 23.4126C11.1509 23.7803 10.879 23.9937 10.5032 24.1108C9.59949 24.3923 8.70169 24.4712 7.78056 24.1657C6.97926 23.9001 6.1887 24.1306 5.40541 24.3085C5.24066 24.3458 5.13525 24.4837 5.05659 24.6332C4.81355 25.0953 4.72482 25.5988 4.68372 26.1096C4.6635 26.361 4.77487 26.5768 4.98879 26.7255C5.50017 27.0807 6.08607 27.2475 6.6848 27.3658C6.96271 27.4207 7.15882 27.2246 7.32154 27.034C7.61857 26.686 7.94467 26.367 8.25882 26.0358C8.64746 25.6262 9.12852 25.3915 9.66064 25.2442C9.98169 25.1555 10.0722 25.2271 10.0051 25.553C9.94316 25.8542 10.1352 25.8123 10.3073 25.8201C11.3461 25.8667 12.3284 26.1025 13.2067 26.6863C13.3431 26.777 13.4656 26.8836 13.5847 26.9957C13.7769 27.1766 13.9015 27.3583 13.6766 27.605C13.6005 27.6885 13.5996 27.8088 13.608 27.9172C13.6616 28.618 13.45 29.2731 13.2587 29.93C13.1251 30.389 12.9456 30.8357 12.8169 31.2945C12.601 32.0632 12.0258 32.523 11.4617 33.0001C11.0541 33.3448 11.0508 33.3532 11.5583 33.5543C12.4628 33.9127 12.3438 33.9735 12.6356 33.0606C13.0184 31.8633 13.7216 30.8935 14.568 30.002C14.6059 29.9622 14.651 29.9321 14.7282 29.911C14.9006 29.8952 14.9561 30.0175 15.0335 30.1025C15.518 30.6345 16.041 31.1248 16.6131 31.5612C16.7417 31.6593 16.8796 31.7506 17.0649 31.795C17.2236 31.8676 17.2854 31.9912 17.3437 32.1226C17.6031 32.707 17.914 33.2651 18.223 33.824C18.2754 33.9187 18.3359 34.009 18.4075 34.0906C18.5487 34.2515 18.6875 34.2378 18.8104 34.0723C18.995 33.824 19.0894 33.5685 18.9194 33.2615C18.7361 32.9303 18.5745 32.5868 18.4331 32.2347C18.3929 32.1345 18.3398 32.0382 18.364 31.9008C18.3885 31.8485 18.4118 31.8257 18.4655 31.8043Z" fill="#080808"/>
<path d="M14.7588 29.8846C14.7358 29.9455 14.7265 29.9913 14.699 30.018C13.6864 31 12.9763 32.1599 12.5855 33.5207C12.4452 34.0092 12.4095 34.0066 11.9457 33.8237C11.6628 33.7121 11.3871 33.5821 11.1044 33.4699C10.9004 33.389 10.908 33.3035 11.0737 33.1861C11.162 33.1235 11.2354 33.0392 11.3253 32.9795C12.2232 32.3825 12.7196 31.5284 12.9858 30.4996C13.2275 29.5654 13.5941 28.659 13.5276 27.6665C13.5241 27.6155 13.5316 27.5311 13.5616 27.5155C13.9153 27.3316 13.6518 27.1909 13.5224 27.0694C12.8189 26.4092 11.9399 26.1415 11.0172 25.9885C10.7073 25.9371 10.3909 25.9072 10.077 25.9037C9.7965 25.9006 9.8022 25.7839 9.89089 25.5841C9.92764 25.5013 10.0296 25.408 9.94564 25.32C9.86905 25.2399 9.75919 25.3116 9.66913 25.3366C9.1462 25.4817 8.67889 25.7302 8.30065 26.1239C7.97699 26.4606 7.66358 26.8074 7.35084 27.1544C7.07543 27.46 6.76857 27.5603 6.35914 27.4174C5.89773 27.2563 5.42575 27.1311 5.00274 26.8732C4.70455 26.6914 4.55878 26.44 4.5787 26.0893C4.60932 25.5504 4.742 25.04 4.97745 24.5539C5.08042 24.3414 5.23825 24.2115 5.46835 24.1676C6.34392 24.0006 7.20865 23.8276 8.10295 24.1322C8.94124 24.4179 9.77942 24.2419 10.5977 23.9745C10.87 23.8856 11.0722 23.719 11.1836 23.4478C11.2413 23.3073 11.3193 23.1749 11.375 23.0338C11.5516 22.5866 11.7499 22.1554 12.1171 21.8241C12.2014 21.748 12.2632 21.6469 12.39 21.4895C11.5912 21.5228 10.8671 21.3857 10.2265 21.8854C9.77349 22.2387 9.2717 22.529 8.79875 22.8576C8.49004 23.072 8.1432 23.0597 7.79554 23.0644C7.67145 23.066 7.63092 23.004 7.62029 22.8848C7.5925 22.573 7.76674 22.2651 8.12383 22.1736C8.74752 22.0136 9.27699 21.6737 9.82527 21.3669C10.3308 21.0837 10.8643 20.9441 11.4476 20.961C11.911 20.9745 12.3804 21.0525 12.8628 20.8906C13.0869 20.9111 13.2619 21.0252 13.4783 21.0185C13.6584 21.0127 13.6678 21.2322 13.7761 21.3534C13.7411 21.5359 13.5893 21.4841 13.4915 21.5254C13.245 21.6295 13.2256 21.6849 13.407 21.8859C13.9466 22.4844 14.4269 23.1244 14.8021 23.8664C14.6258 24.5115 14.5379 25.1642 14.1838 25.7416C13.781 26.3982 13.8948 27.1383 13.9338 27.8624C13.9751 28.6304 14.3015 29.2719 14.7588 29.8846Z" fill="#A3A7B3"/>
<path d="M18.3625 31.901C18.596 32.4008 18.8282 32.8789 19.0522 33.3608C19.1809 33.6372 18.9852 34.1872 18.7171 34.3235C18.5119 34.4279 18.4149 34.2774 18.3267 34.1405C17.9145 33.5002 17.5762 32.8195 17.2465 32.1344C17.1995 32.0369 17.1475 31.9418 17.0925 31.8231C17.322 31.7957 17.5546 31.8072 17.7582 31.6418C17.9325 31.5003 18.0754 31.6878 18.2565 31.7328C18.3229 31.7786 18.3549 31.8217 18.3625 31.901Z" fill="#A1A6B1"/>
<path d="M14.8189 23.8618C14.6696 23.859 14.6527 23.7226 14.5962 23.6251C14.2265 22.9875 13.8141 22.3813 13.2732 21.8756C13.0924 21.7064 13.1325 21.6044 13.3275 21.5208C13.4552 21.466 13.5935 21.4356 13.752 21.385C13.8961 21.5294 14.0054 21.6923 14.1362 21.8353C14.5717 22.3108 15.2252 22.2475 15.5612 21.6976C15.6346 21.5776 15.6685 21.4593 15.8406 21.6021C15.8882 21.6419 16.0257 21.5795 16.1199 21.5558C16.2519 21.5226 16.3484 21.5589 16.3402 21.7025C16.3334 21.8235 16.4102 22.0234 16.1776 22.0193C15.4891 22.0074 15.2061 22.4466 15.0414 23.0206C14.9636 23.2914 14.8964 23.5651 14.8189 23.8618Z" fill="#111111"/>
<path d="M14.1623 34.6792C14.2455 34.7319 14.2426 34.7933 14.1489 34.8551C14.1069 34.8023 14.1139 34.7466 14.1623 34.6792Z" fill="#F0C44A"/>
<path d="M32.5919 29.1688C32.6144 28.646 32.5634 28.1565 32.4856 27.6752C32.36 26.8985 32.5868 26.214 32.9471 25.5517C33.2914 24.9191 33.6826 24.3201 34.1913 23.8035C34.395 23.5965 34.565 23.5492 34.7719 23.8132C34.9016 23.9788 35.0663 24.2466 35.2539 24.2016C35.4364 24.158 35.3449 23.8428 35.3949 23.6511C35.7033 22.4696 36.3624 21.4982 37.182 20.622C37.4368 20.3497 37.435 20.275 37.0735 20.1527C36.4948 19.9571 35.8916 19.8663 35.2894 19.7763C35.2356 19.7683 35.1813 19.7646 35.1275 19.7565C34.584 19.674 34.5764 19.6678 34.9141 19.2431C35.0485 19.0743 34.9394 19.0473 34.8199 19.0005C33.7101 18.5647 33.0301 17.732 32.6366 16.6352C32.6089 16.558 32.549 16.4813 32.6319 16.3611C33.0691 16.7738 33.481 17.2033 33.8359 17.6767C34.1289 18.0675 34.4965 18.3366 34.9309 18.5226C35.6798 18.8432 36.4365 19.1457 37.1891 19.4577C37.6319 19.6412 38.0976 19.697 38.566 19.6501C39.5399 19.5527 40.4155 19.7866 41.2231 20.3333C41.5561 20.5587 41.9254 20.7182 42.3223 20.8173C42.7155 20.9156 42.9305 21.1946 42.929 21.5295C42.9283 21.6723 42.8854 21.7563 42.7256 21.7558C42.3638 21.755 42.0115 21.7388 41.6971 21.5162C41.3156 21.2462 40.8999 21.0207 40.538 20.7278C40.0359 20.3215 39.4793 20.1471 38.8456 20.1858C38.644 20.1982 38.3254 20.0813 38.2696 20.2245C38.2033 20.3948 38.4684 20.5713 38.6185 20.7175C38.8709 20.9631 39.0066 21.2761 39.1024 21.5941C39.3348 22.365 39.8508 22.7241 40.6281 22.8543C41.3441 22.9743 42.0315 22.9575 42.7208 22.746C43.5735 22.4842 44.3988 22.713 45.2244 22.8991C45.3961 22.9377 45.4875 23.0858 45.5608 23.2346C45.7989 23.7183 45.9313 24.2301 45.9646 24.7688C45.9865 25.1215 45.8354 25.3735 45.5408 25.5545C45.033 25.8663 44.4696 26.028 43.8984 26.1673C43.6296 26.2328 43.432 26.0835 43.2634 25.9105C43.0055 25.6461 42.7638 25.3658 42.5185 25.0893C42.0604 24.5732 41.5188 24.1873 40.8415 24.0158C40.7614 23.9956 40.6645 23.9341 40.5929 23.9968C40.5058 24.0732 40.5949 24.1646 40.6305 24.2293C40.7805 24.5018 40.6881 24.584 40.4014 24.5913C39.4548 24.6158 38.5469 24.812 37.7028 25.2572C37.4026 25.4155 37.1284 25.6102 36.9001 25.8638C36.814 25.9596 36.7399 26.0581 36.9166 26.143C37.0463 26.2052 37.0071 26.3288 37.0074 26.4318C37.011 27.8805 37.5364 29.198 38.0655 30.5065C38.2603 30.9881 38.7486 31.2558 39.1324 31.5896C39.6735 32.0603 39.6803 32.0538 39.0198 32.3321C38.8295 32.4123 38.6315 32.4757 38.4458 32.5648C38.1876 32.6887 38.0609 32.5843 37.9896 32.3398C37.9531 32.2148 37.8954 32.0958 37.8609 31.9705C37.5141 30.7075 36.7974 29.6738 35.8884 28.7546C35.3605 28.2207 34.8248 27.6953 34.2528 27.2092C34.092 27.0726 33.9999 26.9203 33.9848 26.7117C33.9481 26.2062 33.9059 25.7011 33.865 25.1846C33.7529 25.2391 33.7603 25.3367 33.7414 25.4147C33.5954 26.017 33.4578 26.6212 33.3098 27.223C33.2141 27.6117 33.2606 27.9581 33.5759 28.2337C33.9415 28.5535 33.997 28.9363 33.853 29.3852C33.4618 30.6053 32.8756 31.7318 32.2141 32.8212C32.0125 33.1532 31.8638 33.138 31.6368 32.8202C31.4176 32.5135 31.368 32.2206 31.5559 31.8571C31.87 31.2496 32.1318 30.615 32.4108 29.9896C32.5223 29.7396 32.5934 29.4776 32.5919 29.1688Z" fill="#A2A6B2"/>
<path d="M24.103 20.4943C24.6984 21.7363 24.6056 23.0293 24.385 24.3312C24.3396 24.5987 24.1906 24.767 23.897 24.7524C23.6129 24.7383 23.5091 24.5697 23.4948 24.3007C23.4846 24.1099 23.478 23.8708 23.217 23.8524C22.9685 23.835 22.8239 24.0098 22.7479 24.2332C22.706 24.3563 22.6819 24.4854 22.6428 24.6097C22.5115 25.0269 22.2738 25.3569 21.8333 25.4744C21.0848 25.6739 20.5243 26.0827 20.2144 26.8129C20.1481 26.969 20.04 27.123 19.9133 27.2349C19.5163 27.5854 19.402 28.0175 19.447 28.5277C19.4658 28.7403 19.5788 29.0262 19.3251 29.1527C19.0853 29.2724 18.9091 29.0349 18.7288 28.9073C18.5783 28.8008 18.4436 28.6723 18.2979 28.5588C18.2423 28.5155 18.1775 28.433 18.103 28.4972C18.0363 28.5548 18.0851 28.6387 18.1139 28.7089C18.1671 28.8398 18.2219 28.9699 18.2731 29.1015C18.3124 29.2027 18.3669 29.3127 18.2691 29.4047C18.1681 29.4999 18.0429 29.4702 17.932 29.4217C17.8333 29.3785 17.7373 29.3229 17.6515 29.2577C17.4788 29.126 17.3131 28.9849 17.1459 28.8462C16.9959 28.7218 16.8724 28.5293 16.6843 28.4968C16.4456 28.4555 16.4124 28.7364 16.2758 28.8618C16.0484 29.0704 15.8455 29.0307 15.7731 28.7263C15.6535 28.2235 15.6951 27.7093 15.7315 27.1999C15.7463 26.9924 15.9275 27.074 16.0423 27.0778C16.9978 27.109 17.9014 26.9302 18.7333 26.4404C19.4426 26.0228 19.9909 25.4454 20.4203 24.7495C20.6633 24.3557 20.648 23.9209 20.6183 23.4832C20.6114 23.3809 20.5475 23.2777 20.6284 23.1373C20.8224 23.2979 20.942 23.496 21.0529 23.7019C21.0831 23.7582 21.1123 23.8368 21.1916 23.8025C21.2298 23.7862 21.2606 23.7185 21.2675 23.6702C21.294 23.4862 21.2901 23.3004 21.2483 23.1188C20.9276 21.7292 20.5314 20.3629 19.9545 19.0557C19.6854 18.4457 19.2839 17.94 18.6973 17.5995C18.5516 17.515 18.4149 17.4438 18.2645 17.6115C18.1504 17.7389 18.0231 17.6805 17.9309 17.5664C17.8218 17.4314 17.7251 17.2863 17.6225 17.1459C17.4103 16.8554 17.2768 16.8207 16.9653 17.0068C16.7043 17.1627 16.4553 17.3384 16.2003 17.5044C16.0416 17.6078 15.865 17.6658 15.6775 17.6652C15.411 17.664 15.3513 17.546 15.4763 17.3197C15.5413 17.202 15.7334 17.1013 15.6464 16.9652C15.5614 16.8319 15.3654 16.9169 15.219 16.9099C15.0238 16.9007 14.8275 16.9085 14.6319 16.9145C13.5763 16.9467 13.2909 16.0128 13.4604 15.2164C13.4914 15.071 13.6198 15.0435 13.7443 15.0564C13.917 15.0744 14.0905 15.099 14.2588 15.1405C14.6419 15.235 14.9848 15.2323 15.2531 14.8742C15.3833 14.7003 15.5348 14.7372 15.6351 14.9279C15.739 15.125 15.9128 15.188 16.1196 15.204C16.3905 15.225 16.6604 15.2625 16.9315 15.2765C17.787 15.3205 18.5053 15.6352 18.9683 16.3779C19.5423 17.2988 20.4213 17.7854 21.3848 18.1688C21.4338 18.1883 21.4811 18.222 21.5751 18.1702C21.3494 17.7862 20.9573 17.5629 20.6683 17.2387C20.8079 17.12 20.9536 17.174 21.088 17.1703C22.0294 17.1442 22.8731 17.3714 23.5179 18.1137C23.5738 18.1779 23.6499 18.2247 23.7364 18.2804C23.806 18.0444 23.6195 17.8827 23.565 17.679C23.5299 17.5482 23.4095 17.442 23.4435 17.2909C23.5149 17.2762 23.5495 17.3185 23.5859 17.3585C24.5753 18.4428 25.5285 19.5559 26.3204 20.797C26.402 20.925 26.4696 21.0622 26.5418 21.1962C27.069 22.1755 26.9353 23.1523 26.1616 23.9452C26.1059 24.0023 26.0603 24.1172 25.9615 24.0769C25.8628 24.0368 25.9144 23.923 25.9084 23.8424C25.8051 22.462 25.1493 21.3768 24.103 20.4943Z" fill="#A2A7B3"/>
<path d="M28.5173 21.6976C28.5491 21.6845 28.5925 21.6845 28.6051 21.7042C29.1553 22.5616 29.7989 23.3635 30.1095 24.3599C30.4945 25.5949 30.915 26.8177 30.9754 28.1289C31.028 29.2702 30.9148 30.3874 30.565 31.4761C30.4425 31.8574 30.2713 32.2164 29.9403 32.5761C29.8388 31.8014 29.7466 31.0989 29.6409 30.2924C29.5329 30.5075 29.4681 30.6329 29.4066 30.7597C29.1796 31.2276 28.8549 31.618 28.4575 31.9489C28.2224 32.1446 28.1589 32.116 28.077 31.8079C28.0094 31.5535 28.0146 31.2961 28.0438 31.0422C27.9623 31.0186 27.9181 31.0574 27.8943 31.1042C27.7369 31.4146 27.517 31.5211 27.1751 31.3811C26.9954 31.3075 26.8045 31.381 26.653 31.4951C26.466 31.636 26.438 31.5422 26.4389 31.3737C26.4393 31.2976 26.4284 31.2205 26.4376 31.1456C26.4636 30.9355 26.4461 30.8022 26.1646 30.805C25.9054 30.8075 25.9288 30.63 26.059 30.4739C26.2841 30.204 26.5688 29.9999 26.8588 29.8086C27.4395 29.4256 28.0234 29.047 28.616 28.683C29.2288 28.3065 29.4809 27.7776 29.4073 27.0619C29.284 25.8621 29.257 24.6531 29.0488 23.4614C28.9433 22.8575 28.6941 22.2999 28.5173 21.6976Z" fill="#A1A6B1"/>
<path d="M19.4199 25.2087C18.9259 25.6284 18.3968 25.9508 17.8428 26.23C17.3578 26.4743 16.8321 26.4605 16.3089 26.4038C16.076 26.3786 15.9734 26.196 15.943 25.9972C15.8346 25.2885 15.8805 24.5886 16.1188 23.9073C16.1271 23.8831 16.1626 23.8683 16.2155 23.824C16.3379 24.3625 16.535 24.8488 16.7691 25.3202C16.8385 25.4602 16.8861 25.6802 17.0921 25.6143C17.3146 25.5433 17.5478 25.4151 17.5323 25.1188C17.5198 24.8812 17.4756 24.6452 17.4409 24.3717C17.6526 24.5201 17.6906 24.7372 17.7711 24.9213C17.9481 25.3256 18.1804 25.453 18.6151 25.3552C18.8728 25.2975 19.103 25.1751 19.3348 25.054C19.3885 25.0258 19.4575 24.9185 19.5196 25.0271C19.5534 25.0861 19.4813 25.1434 19.4199 25.2087Z" fill="#EFEEEE"/>
<path d="M30.5208 17.4182C30.4809 18.0908 30.3798 18.7203 30.1101 19.313C29.982 19.5947 29.8093 19.8417 29.5506 20.0177C29.4855 20.0619 29.4084 20.1548 29.3239 20.0774C29.2548 20.0143 29.3325 19.9383 29.359 19.8717C29.5554 19.3779 29.7733 18.8917 29.9035 18.3742C29.9258 18.2862 29.9923 18.1947 29.9049 18.0707C29.4454 18.3822 28.9463 18.6062 28.3926 18.6957C28.1113 18.7412 27.8301 18.7377 27.5481 18.7227C27.477 18.7188 27.3754 18.737 27.3568 18.6433C27.338 18.5494 27.44 18.5274 27.5033 18.4939C28.1845 18.1339 28.8686 17.779 29.5486 17.4167C29.7879 17.2892 30.0166 17.1424 30.253 17.0094C30.3234 16.9698 30.3829 16.8622 30.475 16.9182C30.5591 16.9693 30.518 17.0773 30.5238 17.1608C30.5291 17.2363 30.5228 17.3127 30.5208 17.4182Z" fill="#9A9FA9"/>
<path d="M44.2324 27.2912C44.3029 27.2987 44.3524 27.3026 44.4237 27.3185C44.5171 27.3529 44.5921 27.3469 44.6866 27.3636C44.8651 27.3779 45.0999 27.2892 45.158 27.4297C45.2282 27.5994 45.0417 27.7601 44.9152 27.8902C44.6436 28.1695 44.1994 28.2871 43.7181 28.2089C43.9079 28.0526 44.1551 27.9959 44.3004 27.7597C43.7681 27.6971 43.3591 27.4377 42.9785 27.1331C42.8219 27.0076 42.7112 27.0092 42.555 27.1299C42.2115 27.395 41.8171 27.4562 41.3371 27.3814C41.6364 27.0892 41.8747 26.8161 42.059 26.5007C42.2405 26.1904 42.206 26.0761 41.8715 25.9299C41.4551 25.7477 41.0126 25.7059 40.5646 25.698C40.4452 25.6959 40.3259 25.6929 40.178 25.6799C40.0771 25.6506 40.0025 25.6544 39.9067 25.6462C39.8152 25.6371 39.7457 25.6304 39.6532 25.611C39.6144 25.407 39.7644 25.4627 39.8541 25.4611C40.1911 25.4551 40.5284 25.4497 40.8939 25.4694C41.0177 25.4824 41.1131 25.4897 41.2302 25.5075C41.2806 25.5206 41.3091 25.5254 41.3577 25.5386C42.0439 25.6342 42.5109 26.0506 42.9382 26.5157C43.2077 26.809 43.5107 27.0386 43.903 27.1926C44.0231 27.2206 44.1127 27.2702 44.2324 27.2912Z" fill="#EAE9E9"/>
<path d="M38.913 29.891C39.5554 30.3869 39.6764 30.3623 40.0652 29.684C40.1092 29.6074 40.1224 29.466 40.2524 29.5057C40.3538 29.5365 40.3704 29.6561 40.3736 29.7545C40.3816 29.9981 40.2966 30.2257 40.2189 30.4489C40.0941 30.807 40.4145 30.8288 40.5844 30.9543C40.7891 31.1054 40.7988 30.8738 40.8725 30.7804C40.9471 30.6858 41.0269 30.5578 41.1525 30.6064C41.2749 30.6537 41.2105 30.8 41.202 30.9007C41.1309 31.7392 40.9219 31.8493 40.18 31.4637C39.6126 31.1687 39.133 30.7698 38.7298 30.2778C38.5574 30.0677 38.404 29.8442 38.4355 29.5179C38.6344 29.5979 38.737 29.7755 38.913 29.891Z" fill="#EDEDED"/>
<path d="M13.7728 18.7438C13.6918 18.5584 13.699 18.2611 13.5126 18.2794C13.296 18.3005 13.365 18.5911 13.3321 18.7705C13.3148 18.8654 13.3305 18.9661 13.3171 19.0623C13.3051 19.1486 13.3775 19.2848 13.2411 19.3073C13.1423 19.3235 13.0701 19.2174 13.0244 19.1336C12.7206 18.5776 12.8115 18.0159 12.9826 17.3896C13.4528 17.996 14.008 18.2716 14.7198 18.1883C14.8905 18.1683 14.8914 18.2806 14.8578 18.3989C14.7276 18.8581 14.6103 19.319 14.5691 19.7973C14.5489 20.0315 14.4159 20.003 14.2855 19.8843C14.1113 19.7256 14.0466 19.4999 13.9611 19.2903C13.8916 19.1201 13.8403 18.9425 13.7728 18.7438Z" fill="#EDEDED"/>
<path d="M31.6284 19.8036C31.2534 19.6049 31.1684 19.3388 31.2501 18.9383C31.3673 18.3654 31.3329 17.7738 31.354 17.1802C31.4305 17.4558 31.5003 17.7334 31.5846 18.0065C31.7961 18.6919 32.0815 19.3471 32.4059 19.9862C32.447 20.0673 32.5773 20.1566 32.4165 20.2569C32.2869 20.3379 32.1914 20.3342 32.0805 20.2107C31.951 20.0664 31.7926 19.9479 31.6284 19.8036Z" fill="#EDEDED"/>
<path d="M40.3777 21.2399C40.6964 21.4312 40.9945 21.6102 41.2917 21.7906C41.3645 21.8347 41.4634 21.871 41.44 21.9791C41.4155 22.0922 41.3176 22.1144 41.213 22.1257C40.3159 22.2225 39.6032 21.8314 39.236 21.0355C39.1961 20.9491 39.1219 20.8557 39.1995 20.7632C39.2889 20.6567 39.4022 20.711 39.4979 20.7612C39.7862 20.9131 40.071 21.072 40.3777 21.2399Z" fill="#536473"/>
<path d="M38.668 28.8296C38.7211 28.3885 38.7114 27.9801 38.571 27.5803C38.5397 27.4913 38.4904 27.3708 38.5742 27.3039C38.6766 27.2223 38.7805 27.3203 38.8674 27.3765C39.1101 27.5333 39.2751 27.7408 39.227 28.0516C39.1405 28.6095 39.2877 29.1045 39.6136 29.5555C39.6369 29.5878 39.648 29.6289 39.667 29.6709C39.153 29.7201 38.7916 29.4198 38.668 28.8296Z" fill="#989DA7"/>
<path d="M36.374 17.3469C36.7345 17.6459 37.0705 17.9371 37.2984 18.3279C37.345 18.4079 37.4217 18.511 37.354 18.5959C37.2771 18.6924 37.1734 18.6019 37.0861 18.5734C36.3485 18.3326 35.8054 17.9016 35.655 17.0929C35.6415 17.0204 35.617 16.9448 35.6777 16.8584C35.9434 16.9568 36.1336 17.1686 36.374 17.3469Z" fill="#989DA7"/>
<path d="M46.4997 23.8072C46.3551 23.5648 46.2229 23.3432 46.0906 23.1216C46.687 23.344 47.2446 23.6122 47.7485 23.9803C47.8619 24.0632 47.8211 24.1407 47.7305 24.2147C47.5372 24.373 47.3341 24.5141 47.1086 24.625C46.9426 24.7066 46.8061 24.6857 46.7236 24.5228C46.6212 24.3208 46.8096 24.2992 46.9256 24.2338C47.0074 24.1877 47.1141 24.178 47.1826 24.0437C46.9321 24.0287 46.6205 24.1912 46.4997 23.8072Z" fill="#9498A2"/>
<path d="M46.3096 25.8748C46.514 25.7384 46.7516 25.5254 46.9217 25.672C47.0595 25.7906 46.8924 26.0718 46.8104 26.2671C46.7015 26.5266 46.5354 26.7344 46.2336 26.7791C46.1156 26.7966 45.9847 26.8093 45.9102 26.6919C45.8482 26.594 45.8769 26.4825 45.928 26.3823C46.0219 26.1983 46.1394 26.0311 46.3096 25.8748Z" fill="#989DA7"/>
<path d="M21.0842 16.7074C20.8096 16.6526 20.543 16.6851 20.3061 16.5409C20.654 16.2489 21.3315 16.0919 21.5571 16.2425C21.6951 16.3345 21.8499 16.4394 21.7894 16.6274C21.7194 16.8451 21.5221 16.7479 21.3701 16.742C21.2841 16.7387 21.1986 16.7209 21.0842 16.7074Z" fill="#536473"/>
<path d="M13.559 14.205C13.4582 14.3026 13.3746 14.3842 13.2889 14.468C13.2384 14.1309 13.4136 13.802 13.7399 13.637C13.8451 13.5839 13.9616 13.5506 14.0755 13.5175C14.1836 13.4861 14.3326 13.3894 14.3959 13.5194C14.4732 13.6784 14.3095 13.7649 14.1922 13.8385C13.9922 13.9641 13.7406 13.9997 13.559 14.205Z" fill="#9498A2"/>
<path d="M40.8996 25.4618C40.6295 25.5759 40.3275 25.4865 40.0312 25.5171C39.9053 25.5301 39.773 25.4859 39.6418 25.5779C39.524 25.6034 39.4203 25.6009 39.3105 25.4794C39.8531 25.4013 40.3635 25.3858 40.8996 25.4618Z" fill="#CAC9C9"/>
<path d="M44.2355 27.2824C44.1329 27.3731 44.042 27.2801 43.9326 27.2238C44.0321 27.1783 44.119 27.2513 44.2355 27.2824Z" fill="#CAC9C9"/>
<path d="M39.9044 25.6557C39.9646 25.5657 40.0476 25.5786 40.141 25.6519C40.0742 25.7117 39.9992 25.6755 39.9044 25.6557Z" fill="#CAC9C9"/>
<path d="M44.6895 27.3556C44.6251 27.4409 44.543 27.4262 44.4536 27.3479C44.5208 27.3344 44.5959 27.3384 44.6895 27.3556Z" fill="#CAC9C9"/>
<path d="M41.3706 25.5325C41.342 25.5901 41.3043 25.5819 41.2589 25.533C41.289 25.5184 41.326 25.519 41.3706 25.5325Z" fill="#CAC9C9"/>
<path d="M28.5249 21.6713C28.5086 21.6498 28.4906 21.6295 28.4726 21.6091C28.4844 21.6004 28.4961 21.5918 28.5079 21.583C28.5154 21.6019 28.523 21.6208 28.5254 21.6574C28.5201 21.6751 28.5233 21.6725 28.5249 21.6713Z" fill="#A1A6B1"/>
<path d="M31.1696 16.0677C31.1683 16.0693 31.1709 16.0659 31.1696 16.0677V16.0677Z" fill="#9498A2"/>
<path d="M23.4086 17.2161C23.396 17.2183 23.3913 17.2122 23.3866 17.2061C23.3966 17.2066 23.4066 17.2071 23.4086 17.2161Z" fill="#A2A7B3"/>
<path d="M8.09518 28.53C7.85679 28.2749 7.6696 28.3496 7.44379 28.5334C7.1061 28.8082 6.72668 29.0219 6.25095 29.0705C6.35699 29.315 6.61344 29.3499 6.77278 29.5035C6.27161 29.6734 5.5694 29.3515 5.38528 28.8845C5.32958 28.7431 5.35965 28.6825 5.51526 28.6802C5.79838 28.6761 6.07964 28.6534 6.35541 28.5812C6.78375 28.4691 7.19118 28.3059 7.47535 27.954C8.21371 27.0399 9.18011 26.6874 10.3271 26.7417C10.6023 26.7547 10.8787 26.7436 11.1578 26.7996C10.8077 26.9716 10.4418 27.0229 10.066 27.0196C9.5843 27.0154 9.1089 27.051 8.66225 27.2524C8.32301 27.4052 8.29166 27.5069 8.48343 27.8244C8.63558 28.0762 8.8091 28.3125 9.02356 28.5165C9.06829 28.559 9.15095 28.5914 9.12825 28.665C9.09908 28.7597 9.00179 28.73 8.93155 28.732C8.64394 28.7405 8.37 28.6835 8.09518 28.53Z" fill="#E6E5E5"/>
<path d="M10.5826 31.1916C10.9297 31.6492 11.0261 31.6665 11.4605 31.3368C11.6658 31.181 11.8583 31.0081 12.0972 30.8091C12.1281 31.0593 12.0598 31.2432 11.9423 31.4067C11.4493 32.0922 10.8196 32.6111 10.031 32.9225C9.63536 33.0787 9.49635 33.0025 9.3965 32.5971C9.36301 32.4611 9.34838 32.3192 9.3387 32.1791C9.3325 32.0895 9.2828 31.963 9.41123 31.9273C9.51686 31.898 9.58197 31.997 9.64732 32.071C9.73674 32.1722 9.73739 32.4381 9.98249 32.2631C10.1705 32.1288 10.4643 32.0648 10.3054 31.7103C10.2268 31.535 10.1952 31.336 10.1608 31.1443C10.1391 31.0238 10.1692 30.873 10.2821 30.8311C10.4211 30.7796 10.428 30.9511 10.4855 31.0318C10.5168 31.0758 10.5416 31.1246 10.5826 31.1916Z" fill="#EDEDED"/>
<path d="M9.57682 23.4222C9.46241 23.4277 9.37531 23.4355 9.28969 23.4273C9.21002 23.4198 9.14296 23.3775 9.1273 23.2916C9.11392 23.2183 9.1609 23.1685 9.21885 23.134C9.84236 22.7626 10.4472 22.3586 11.1096 22.0555C11.1803 22.0231 11.2533 21.9935 11.3184 22.0641C11.3783 22.129 11.3708 22.21 11.3362 22.2776C11.1527 22.637 10.9404 22.9786 10.6169 23.2298C10.4249 23.3791 10.1722 23.282 9.95675 23.3601C9.84691 23.4 9.72256 23.3998 9.57682 23.4222Z" fill="#536473"/>
<path d="M11.1445 30.5176C11.3107 30.1169 11.3983 29.7331 11.3136 29.32C11.2766 29.1397 11.3538 28.976 11.4824 28.8471C11.6122 28.7169 11.7863 28.5379 11.9456 28.6216C12.0986 28.7021 11.9555 28.9186 11.9159 29.0642C11.8315 29.375 11.8375 29.6844 11.8577 29.9999C11.8891 30.4901 11.6073 30.8722 11.142 30.9885C11.0705 31.0064 10.9831 31.0497 10.926 30.9864C10.8569 30.9096 10.9502 30.8521 10.9841 30.7912C11.0316 30.7062 11.085 30.6245 11.1445 30.5176Z" fill="#989DA7"/>
<path d="M4.26962 24.4473C4.39432 24.4064 4.4508 24.4335 4.38734 24.5424C4.24025 24.7948 4.08981 25.0456 3.92895 25.2894C3.78841 25.5023 3.57082 25.3149 3.38946 25.3608C3.42144 25.5253 3.56292 25.5181 3.66082 25.5688C3.75849 25.6193 3.87502 25.6671 3.82556 25.8049C3.77756 25.9386 3.67055 26.03 3.52114 25.9758C3.22227 25.867 2.96685 25.6775 2.73326 25.4693C2.60569 25.3555 2.77961 25.3084 2.8415 25.2629C3.27921 24.9404 3.77645 24.7201 4.26962 24.4473Z" fill="#9498A2"/>
<path d="M3.64623 26.9478C4.11913 27.0155 4.39746 27.3006 4.59546 27.6808C4.64982 27.785 4.70136 27.9073 4.61402 28.0165C4.51976 28.1345 4.38552 28.116 4.25554 28.0851C3.85906 27.991 3.54293 27.4289 3.64623 26.9478Z" fill="#989DA7"/>
<path d="M24.0818 20.5007C24.0773 20.4932 24.0711 20.4867 24.065 20.4802C24.0716 20.4813 24.0783 20.4825 24.0811 20.494C24.0774 20.5043 24.0801 20.5017 24.0818 20.5007Z" fill="#040404"/>
<path d="M23.7576 18.2793C23.7711 18.2841 23.7991 18.2878 23.7991 18.2904C23.7983 18.32 23.7849 18.3238 23.7633 18.288C23.7619 18.2741 23.759 18.2775 23.7576 18.2793Z" fill="#040404"/>
</svg>
