<svg width="50" height="50" viewBox="0 0 50 50" fill="none" xmlns="http://www.w3.org/2000/svg">
<g clip-path="url(#clip0_909_1569)">
<path d="M24.3145 46.9861C10.9073 46.9861 0 36.4471 0 23.493C0 10.539 10.9073 0 24.3145 0C37.7218 0 48.629 10.539 48.629 23.493C48.629 36.4471 37.7218 46.9861 24.3145 46.9861ZM24.3145 1.80315C11.9355 1.80315 1.86156 11.535 1.86156 23.4995C1.86156 35.4641 11.9355 45.1894 24.3145 45.1894C36.6935 45.1894 46.7675 35.4576 46.7675 23.4995C46.7675 11.5415 36.6935 1.80315 24.3145 1.80315Z" fill="url(#paint0_linear_909_1569)"/>
<path fill-rule="evenodd" clip-rule="evenodd" d="M11.6801 7.70742C11.6801 9.86859 9.87228 11.6197 7.6411 11.6197C5.40992 11.6197 3.60212 9.86859 3.60212 7.70742C3.60212 5.54624 5.40992 3.79517 7.6411 3.79517C9.87228 3.79517 11.6801 5.54624 11.6801 7.70742Z" fill="url(#paint1_linear_909_1569)"/>
<path fill-rule="evenodd" clip-rule="evenodd" d="M25.2218 46.0879C25.2218 48.249 23.414 50.0001 21.1828 50.0001C18.9516 50.0001 17.1438 48.249 17.1438 46.0879C17.1438 43.9267 18.9516 42.1821 21.1828 42.1821C23.414 42.1821 25.2218 43.9332 25.2218 46.0879Z" fill="url(#paint2_linear_909_1569)"/>
<path fill-rule="evenodd" clip-rule="evenodd" d="M50 15.5253C50 17.6865 48.1922 19.4375 45.961 19.4375C43.7298 19.4375 41.9221 17.693 41.9221 15.5253C41.9221 13.3576 43.7298 11.613 45.961 11.613C48.1922 11.613 50 13.3641 50 15.5253Z" fill="url(#paint3_linear_909_1569)"/>
<path d="M30.9543 36.5055C32.6277 35.6983 34.1263 34.6047 35.3696 33.2768V14.015C34.1263 12.6805 32.6344 11.5804 30.9543 10.7732V22.6922H17.5605V10.8578C15.8938 11.691 14.4086 12.8172 13.1788 14.1712V24.8339C13.1788 25.1268 13.2392 25.4067 13.3468 25.6671C13.461 25.9275 13.6156 26.1553 13.8105 26.3441C14.0054 26.5329 14.2406 26.6891 14.5094 26.7998C14.7782 26.9169 15.0739 26.9755 15.3831 26.9755H30.9476V36.512L30.9543 36.5055Z" fill="url(#paint4_linear_909_1569)"/>
</g>
<defs>
<linearGradient id="paint0_linear_909_1569" x1="12.1774" y1="3.13761" x2="35.3031" y2="44.487" gradientUnits="userSpaceOnUse">
<stop stop-color="#81BB27"/>
<stop offset="1" stop-color="#188035"/>
</linearGradient>
<linearGradient id="paint1_linear_909_1569" x1="3.60884" y1="7.70742" x2="11.6801" y2="7.70742" gradientUnits="userSpaceOnUse">
<stop stop-color="#81BB27"/>
<stop offset="1" stop-color="#188035"/>
</linearGradient>
<linearGradient id="paint2_linear_909_1569" x1="17.1505" y1="46.0879" x2="25.2218" y2="46.0879" gradientUnits="userSpaceOnUse">
<stop stop-color="#81BB27"/>
<stop offset="1" stop-color="#188035"/>
</linearGradient>
<linearGradient id="paint3_linear_909_1569" x1="41.9288" y1="15.5253" x2="50" y2="15.5253" gradientUnits="userSpaceOnUse">
<stop stop-color="#81BB27"/>
<stop offset="1" stop-color="#188035"/>
</linearGradient>
<linearGradient id="paint4_linear_909_1569" x1="13.1788" y1="23.6361" x2="35.3696" y2="23.6361" gradientUnits="userSpaceOnUse">
<stop offset="0.35" stop-color="#76B82A"/>
<stop offset="1" stop-color="#00773C"/>
</linearGradient>
<clipPath id="clip0_909_1569">
<rect width="50" height="50" fill="white"/>
</clipPath>
</defs>
</svg>
