<svg width="50" height="50" viewBox="0 0 50 50" fill="none" xmlns="http://www.w3.org/2000/svg">
<path d="M44.2939 36.2316L44.5131 35.7929C45.3228 33.8507 44.5661 31.5878 42.7468 30.5202C42.0961 30.1371 41.3564 29.9347 40.6069 29.9347C39.1104 29.9347 37.7079 30.7347 36.9513 32.0264L36.8331 32.2119L34.5054 36.2484C34.4138 36.4461 34.3029 36.6339 34.18 36.8123L34.1704 36.8268L34.1535 36.8557L34.1343 36.8822C34.0691 36.9738 33.9993 37.0629 33.927 37.1473H41.807C42.9444 37.1473 43.8239 36.8219 44.2963 36.2267L44.2939 36.2316Z" fill="url(#paint0_linear_909_1562)"/>
<path d="M25.2373 47.0349H25.5169C27.1386 47.0132 28.6471 46.6445 29.7653 45.9962L41.3346 39.3186C41.7081 39.1041 42.0769 38.8319 42.4335 38.5161C42.2311 38.5354 42.0214 38.545 41.8045 38.545H19.7623C19.5479 38.5426 19.3358 38.521 19.1285 38.4847L23.0758 45.3215C23.6781 46.3674 24.4445 46.9746 25.2349 47.0372L25.2373 47.0349Z" fill="url(#paint1_linear_909_1562)"/>
<path d="M6.23139 35.9111C6.27959 35.9929 6.32538 36.0773 6.37598 36.1593C7.20494 37.5497 8.27729 38.6727 9.39784 39.3209L20.9648 45.9986C21.3408 46.2154 21.7576 46.4011 22.2106 46.5528C22.0925 46.3866 21.9793 46.2083 21.8709 46.0203L16.5525 36.8076C16.4368 36.6412 16.3308 36.4604 16.2393 36.2653L11.0943 27.3537C10.904 27.0958 10.7449 26.8187 10.6244 26.5319C10.6051 26.4838 10.5859 26.4332 10.5666 26.3826L6.63865 33.1879C6.0362 34.2314 5.89161 35.1953 6.23139 35.9087V35.9111Z" fill="url(#paint2_linear_909_1562)"/>
<path d="M9.94728 24.6693L10.6437 23.4643C10.7594 23.1944 10.9112 22.9318 11.0943 22.6835L16.538 13.2539L16.5597 13.2153L16.5766 13.1864L16.5959 13.1599C16.6634 13.0635 16.7332 12.9719 16.8079 12.8851H8.92794C7.72546 12.8851 6.81939 13.2418 6.36875 13.8925C6.31815 13.9793 6.26754 14.066 6.21935 14.1528C5.43376 15.5625 5 17.0518 5 18.341V31.6988C5 32.1325 5.0482 32.5855 5.14459 33.053C5.22893 32.8675 5.32773 32.6795 5.43376 32.494L9.94969 24.6716L9.94728 24.6693Z" fill="url(#paint3_linear_909_1562)"/>
<path d="M17.9574 11.4899H31.0521C31.2376 11.4971 31.4208 11.5188 31.6015 11.5501L27.6544 4.71339C27.047 3.6627 26.2784 3.05542 25.4855 3H25.4735C25.4494 3 25.4084 3 25.365 3C25.3144 3 25.2639 3 25.2156 3C23.5914 3.02169 22.0854 3.39039 20.9671 4.03622L9.39785 10.7163C9.02433 10.9332 8.65564 11.2007 8.29899 11.5163C8.50141 11.4971 8.71106 11.4874 8.92794 11.4874H17.9574V11.4899Z" fill="url(#paint4_linear_909_1562)"/>
<path d="M33.3775 11.8369L36.9585 18.0976C37.7151 19.3869 39.1249 20.1917 40.6286 20.1917C41.3804 20.1917 42.125 19.9894 42.7781 19.6038C44.8022 18.4132 45.4819 15.801 44.2939 13.7767L44.1204 13.4949C43.3371 12.2899 42.3444 11.2995 41.3346 10.7163L29.7652 4.03622C29.3917 3.81934 28.9749 3.6362 28.5242 3.48438C28.6424 3.65065 28.7556 3.82899 28.864 4.01454L33.38 11.8369H33.3775Z" fill="url(#paint5_linear_909_1562)"/>
<defs>
<linearGradient id="paint0_linear_909_1562" x1="4.99999" y1="25.3573" x2="44.8788" y2="25.3573" gradientUnits="userSpaceOnUse">
<stop stop-color="#FE5000"/>
<stop offset="1" stop-color="#FF8412"/>
</linearGradient>
<linearGradient id="paint1_linear_909_1562" x1="5" y1="25.3574" x2="44.8787" y2="25.3574" gradientUnits="userSpaceOnUse">
<stop stop-color="#FE5000"/>
<stop offset="1" stop-color="#FF8412"/>
</linearGradient>
<linearGradient id="paint2_linear_909_1562" x1="5" y1="25.3573" x2="44.8788" y2="25.3573" gradientUnits="userSpaceOnUse">
<stop stop-color="#FE5000"/>
<stop offset="1" stop-color="#FF8412"/>
</linearGradient>
<linearGradient id="paint3_linear_909_1562" x1="5" y1="25.3574" x2="44.8787" y2="25.3574" gradientUnits="userSpaceOnUse">
<stop stop-color="#FE5000"/>
<stop offset="1" stop-color="#FF8412"/>
</linearGradient>
<linearGradient id="paint4_linear_909_1562" x1="5" y1="25.3574" x2="44.8788" y2="25.3574" gradientUnits="userSpaceOnUse">
<stop stop-color="#FE5000"/>
<stop offset="1" stop-color="#FF8412"/>
</linearGradient>
<linearGradient id="paint5_linear_909_1562" x1="5" y1="25.3574" x2="44.8787" y2="25.3574" gradientUnits="userSpaceOnUse">
<stop stop-color="#FE5000"/>
<stop offset="1" stop-color="#FF8412"/>
</linearGradient>
</defs>
</svg>
