<?xml version="1.0" encoding="UTF-8"?>
<svg xmlns="http://www.w3.org/2000/svg" xmlns:xlink="http://www.w3.org/1999/xlink" width="50px" height="50px" viewBox="0 0 50 50" version="1.1">
<defs>
<linearGradient id="linear0" gradientUnits="userSpaceOnUse" x1="4.99999" y1="25.3573" x2="44.8788" y2="25.3573" >
<stop offset="0" style="stop-color:rgb(99.607843%,31.372549%,0%);stop-opacity:1;"/>
<stop offset="1" style="stop-color:rgb(100%,51.764706%,7.058824%);stop-opacity:1;"/>
</linearGradient>
<linearGradient id="linear1" gradientUnits="userSpaceOnUse" x1="5" y1="25.3574" x2="44.8787" y2="25.3574" >
<stop offset="0" style="stop-color:rgb(99.607843%,31.372549%,0%);stop-opacity:1;"/>
<stop offset="1" style="stop-color:rgb(100%,51.764706%,7.058824%);stop-opacity:1;"/>
</linearGradient>
<linearGradient id="linear2" gradientUnits="userSpaceOnUse" x1="5" y1="25.3573" x2="44.8788" y2="25.3573" >
<stop offset="0" style="stop-color:rgb(99.607843%,31.372549%,0%);stop-opacity:1;"/>
<stop offset="1" style="stop-color:rgb(100%,51.764706%,7.058824%);stop-opacity:1;"/>
</linearGradient>
<linearGradient id="linear3" gradientUnits="userSpaceOnUse" x1="5" y1="25.3574" x2="44.8787" y2="25.3574" >
<stop offset="0" style="stop-color:rgb(99.607843%,31.372549%,0%);stop-opacity:1;"/>
<stop offset="1" style="stop-color:rgb(100%,51.764706%,7.058824%);stop-opacity:1;"/>
</linearGradient>
<linearGradient id="linear4" gradientUnits="userSpaceOnUse" x1="5" y1="25.3574" x2="44.8788" y2="25.3574" >
<stop offset="0" style="stop-color:rgb(99.607843%,31.372549%,0%);stop-opacity:1;"/>
<stop offset="1" style="stop-color:rgb(100%,51.764706%,7.058824%);stop-opacity:1;"/>
</linearGradient>
<linearGradient id="linear5" gradientUnits="userSpaceOnUse" x1="5" y1="25.3574" x2="44.8787" y2="25.3574" >
<stop offset="0" style="stop-color:rgb(99.607843%,31.372549%,0%);stop-opacity:1;"/>
<stop offset="1" style="stop-color:rgb(100%,51.764706%,7.058824%);stop-opacity:1;"/>
</linearGradient>
</defs>
<g id="surface1">
<path style=" stroke:none;fill-rule:nonzero;fill:url(#linear0);" d="M 44.292969 36.230469 L 44.511719 35.792969 C 45.324219 33.851562 44.566406 31.585938 42.746094 30.519531 C 42.097656 30.136719 41.355469 29.933594 40.605469 29.933594 C 39.109375 29.933594 37.707031 30.734375 36.953125 32.027344 L 36.832031 32.210938 L 34.503906 36.25 C 34.414062 36.445312 34.304688 36.632812 34.179688 36.8125 L 34.171875 36.828125 L 34.132812 36.882812 C 34.070312 36.972656 34 37.0625 33.925781 37.148438 L 41.808594 37.148438 C 42.945312 37.148438 43.824219 36.820312 44.296875 36.226562 Z M 44.292969 36.230469 "/>
<path style=" stroke:none;fill-rule:nonzero;fill:url(#linear1);" d="M 25.238281 47.035156 L 25.515625 47.035156 C 27.136719 47.011719 28.648438 46.644531 29.765625 45.996094 L 41.335938 39.320312 C 41.707031 39.105469 42.078125 38.832031 42.433594 38.515625 C 42.230469 38.535156 42.019531 38.546875 41.804688 38.546875 L 19.761719 38.546875 C 19.546875 38.542969 19.335938 38.519531 19.128906 38.484375 L 23.074219 45.320312 C 23.679688 46.367188 24.445312 46.972656 25.234375 47.039062 Z M 25.238281 47.035156 "/>
<path style=" stroke:none;fill-rule:nonzero;fill:url(#linear2);" d="M 6.230469 35.910156 C 6.28125 35.992188 6.324219 36.078125 6.375 36.160156 C 7.203125 37.550781 8.277344 38.671875 9.398438 39.320312 L 20.964844 46 C 21.339844 46.214844 21.757812 46.402344 22.210938 46.554688 C 22.09375 46.386719 21.980469 46.207031 21.871094 46.019531 L 16.550781 36.808594 C 16.4375 36.640625 16.332031 36.460938 16.238281 36.265625 L 11.09375 27.355469 C 10.902344 27.097656 10.746094 26.820312 10.625 26.53125 C 10.605469 26.484375 10.585938 26.433594 10.566406 26.382812 L 6.636719 33.1875 C 6.035156 34.230469 5.890625 35.195312 6.230469 35.910156 Z M 6.230469 35.910156 "/>
<path style=" stroke:none;fill-rule:nonzero;fill:url(#linear3);" d="M 9.949219 24.667969 L 10.644531 23.464844 C 10.757812 23.195312 10.910156 22.933594 11.09375 22.683594 L 16.539062 13.253906 L 16.558594 13.214844 L 16.597656 13.160156 C 16.664062 13.0625 16.734375 12.972656 16.808594 12.886719 L 8.929688 12.886719 C 7.726562 12.886719 6.820312 13.242188 6.367188 13.890625 C 6.316406 13.980469 6.265625 14.066406 6.21875 14.152344 C 5.433594 15.5625 5 17.050781 5 18.339844 L 5 31.699219 C 5 32.132812 5.046875 32.585938 5.144531 33.054688 C 5.230469 32.867188 5.328125 32.679688 5.433594 32.492188 L 9.949219 24.671875 Z M 9.949219 24.667969 "/>
<path style=" stroke:none;fill-rule:nonzero;fill:url(#linear4);" d="M 17.957031 11.488281 L 31.050781 11.488281 C 31.238281 11.496094 31.421875 11.519531 31.601562 11.550781 L 27.65625 4.714844 C 27.046875 3.664062 26.277344 3.054688 25.484375 3 L 25.472656 3 C 25.449219 3 25.410156 3 25.363281 3 C 25.3125 3 25.265625 3 25.214844 3 C 23.589844 3.023438 22.085938 3.390625 20.96875 4.035156 L 9.398438 10.714844 C 9.023438 10.933594 8.65625 11.199219 8.300781 11.515625 C 8.5 11.496094 8.710938 11.488281 8.929688 11.488281 Z M 17.957031 11.488281 "/>
<path style=" stroke:none;fill-rule:nonzero;fill:url(#linear5);" d="M 33.378906 11.835938 L 36.957031 18.097656 C 37.714844 19.386719 39.125 20.191406 40.628906 20.191406 C 41.378906 20.191406 42.125 19.988281 42.777344 19.605469 C 44.800781 18.414062 45.480469 15.800781 44.292969 13.777344 L 44.121094 13.496094 C 43.335938 12.289062 42.34375 11.300781 41.335938 10.714844 L 29.765625 4.035156 C 29.390625 3.820312 28.976562 3.636719 28.523438 3.484375 C 28.640625 3.652344 28.753906 3.828125 28.863281 4.015625 Z M 33.378906 11.835938 "/>
</g>
</svg>
