<svg width="50" height="51" viewBox="0 0 50 51" fill="none" xmlns="http://www.w3.org/2000/svg">
<path d="M44.2927 37.0955L44.5119 36.6524C45.3215 34.6903 44.5649 32.4044 42.7455 31.3259C42.0949 30.9388 41.3552 30.7344 40.6057 30.7344C39.1092 30.7344 37.7067 31.5425 36.95 32.8475L36.8319 33.0349L34.5042 37.1126C34.4125 37.3122 34.3017 37.502 34.1788 37.6822L34.1692 37.6968L34.1523 37.726L34.133 37.7528C34.0679 37.8453 33.998 37.9354 33.9258 38.0206H41.8058C42.9432 38.0206 43.8227 37.6919 44.295 37.0906L44.2927 37.0955Z" fill="url(#paint0_linear_531_267)"/>
<path d="M25.2377 48.0046H25.5173C27.139 47.9827 28.6475 47.6102 29.7657 46.9553L41.335 40.2096C41.7085 39.9929 42.0773 39.7179 42.4339 39.3989C42.2315 39.4183 42.0218 39.4281 41.8049 39.4281H19.7627C19.5483 39.4257 19.3362 39.4038 19.1289 39.3672L23.0762 46.2737C23.6785 47.3302 24.4449 47.9437 25.2353 48.007L25.2377 48.0046Z" fill="url(#paint1_linear_531_267)"/>
<path d="M6.2307 36.7664C6.2789 36.8491 6.32469 36.9343 6.37529 37.0171C7.20425 38.4217 8.2766 39.5562 9.39715 40.211L20.9641 46.9568C21.3401 47.1759 21.7569 47.3634 22.2099 47.5167C22.0918 47.3487 21.9786 47.1687 21.8702 46.9788L16.5518 37.672C16.4361 37.5039 16.3301 37.3213 16.2386 37.1242L11.0936 28.1217C10.9033 27.8612 10.7442 27.5812 10.6237 27.2915C10.6045 27.2429 10.5852 27.1918 10.5659 27.1406L6.63797 34.0154C6.03552 35.0696 5.89093 36.0433 6.2307 36.764V36.7664Z" fill="url(#paint2_linear_531_267)"/>
<path d="M9.94728 25.4122L10.6437 24.1949C10.7594 23.9223 10.9112 23.657 11.0943 23.4062L16.538 13.8803L16.5597 13.8413L16.5766 13.8121L16.5959 13.7854C16.6634 13.688 16.7332 13.5954 16.8079 13.5078H8.92794C7.72546 13.5078 6.81939 13.8681 6.36875 14.5255C6.31815 14.6131 6.26754 14.7007 6.21935 14.7884C5.43376 16.2125 5 17.717 5 19.0194V32.5134C5 32.9516 5.0482 33.4092 5.14459 33.8815C5.22893 33.6941 5.32773 33.5042 5.43376 33.3168L9.94969 25.4146L9.94728 25.4122Z" fill="url(#paint3_linear_531_267)"/>
<path d="M17.9592 12.0999H31.0539C31.2394 12.1072 31.4225 12.1291 31.6033 12.1608L27.6562 5.25431C27.0488 4.1929 26.2802 3.57943 25.4873 3.52344H25.4753C25.4512 3.52344 25.4102 3.52344 25.3668 3.52344C25.3162 3.52344 25.2657 3.52344 25.2174 3.52344C23.5932 3.54535 22.0872 3.91781 20.9689 4.57024L9.39964 11.3185C9.02612 11.5376 8.65743 11.8078 8.30078 12.1267C8.50321 12.1072 8.71286 12.0975 8.92973 12.0975H17.9592V12.0999Z" fill="url(#paint4_linear_531_267)"/>
<path d="M33.3767 12.4533L36.9577 18.778C37.7143 20.0804 39.1241 20.8935 40.6278 20.8935C41.3796 20.8935 42.1242 20.689 42.7773 20.2995C44.8014 19.0968 45.4811 16.4579 44.2931 14.413L44.1196 14.1283C43.3363 12.911 42.3436 11.9105 41.3338 11.3213L29.7644 4.57311C29.3909 4.35401 28.9741 4.169 28.5234 4.01562C28.6416 4.1836 28.7548 4.36375 28.8632 4.5512L33.3792 12.4533H33.3767Z" fill="url(#paint5_linear_531_267)"/>
<defs>
<linearGradient id="paint0_linear_531_267" x1="4.99877" y1="26.1103" x2="44.8775" y2="26.1103" gradientUnits="userSpaceOnUse">
<stop stop-color="#FE5000"/>
<stop offset="1" stop-color="#FF8412"/>
</linearGradient>
<linearGradient id="paint1_linear_531_267" x1="5.00041" y1="26.1059" x2="44.8792" y2="26.1059" gradientUnits="userSpaceOnUse">
<stop stop-color="#FE5000"/>
<stop offset="1" stop-color="#FF8412"/>
</linearGradient>
<linearGradient id="paint2_linear_531_267" x1="4.99932" y1="26.1049" x2="44.8781" y2="26.1049" gradientUnits="userSpaceOnUse">
<stop stop-color="#FE5000"/>
<stop offset="1" stop-color="#FF8412"/>
</linearGradient>
<linearGradient id="paint3_linear_531_267" x1="5" y1="26.1073" x2="44.8787" y2="26.1073" gradientUnits="userSpaceOnUse">
<stop stop-color="#FE5000"/>
<stop offset="1" stop-color="#FF8412"/>
</linearGradient>
<linearGradient id="paint4_linear_531_267" x1="5.00179" y1="26.109" x2="44.8805" y2="26.109" gradientUnits="userSpaceOnUse">
<stop stop-color="#FE5000"/>
<stop offset="1" stop-color="#FF8412"/>
</linearGradient>
<linearGradient id="paint5_linear_531_267" x1="4.99919" y1="26.1118" x2="44.8779" y2="26.1118" gradientUnits="userSpaceOnUse">
<stop stop-color="#FE5000"/>
<stop offset="1" stop-color="#FF8412"/>
</linearGradient>
</defs>
</svg>
