<svg width="50" height="50" viewBox="0 0 50 50" fill="none" xmlns="http://www.w3.org/2000/svg">
<path d="M42.5312 25.6562C42.5312 35.75 33.6125 42.3875 26.8375 43.3937C26.1687 43.4937 25.675 43.5125 25.475 43.5187C18.0875 43.75 6.8 37.1312 6.8 25.6562C6.79375 16.0062 14.775 7.7937 24.6625 7.7937C34.5312 7.7937 42.5312 15.7937 42.5312 25.6562Z" fill="#F0A841"/>
<path d="M42.9375 24.5875C42.9375 34.6812 34.0187 41.3188 27.2437 42.325C26.575 42.425 26.0812 42.4438 25.8812 42.45C18.5 42.6813 7.21875 36.0625 7.2125 24.5875C7.20625 14.9375 15.1812 6.71875 25.075 6.71875C34.9375 6.71875 42.9375 14.7188 42.9375 24.5875Z" fill="#FED62E"/>
<path d="M37.9 24.1562C38.0375 29.8125 33.9187 34.75 28.9875 36.1188C21.5062 38.1938 12.5562 31.9375 12.6187 24.1562C12.675 18.0312 18.3062 12.1562 25.2562 12.1562C31.9625 12.1625 37.7438 17.6312 37.9 24.1562Z" fill="#F0A841"/>
<path d="M29.325 15.425C29.4812 15.85 29.9375 16.0125 30.275 16.2688C32.8062 18.2313 34.7 20.6 35.9875 23.3813C36.3125 24.0875 36.4625 24.85 36.8625 25.5313C36.8687 25.525 36.8812 25.5188 36.8875 25.5188C36.9 25.5125 36.9 25.5063 36.9 25.5C36.9375 25.45 39.675 22.95 41.2125 19.6C41.5312 18.9063 42.175 17.475 42.4 15.5125C42.7187 12.7438 41.875 11.8438 41.95 9.82502C41.9562 9.71877 41.9687 9.45002 41.8 9.21877C41.4187 8.68127 40.3875 8.78127 39.5625 8.91877C37.0875 9.33752 34.6875 9.74377 32.2437 11.8188C31.4625 12.4875 30.3062 13.6438 29.325 15.425Z" fill="#373636"/>
<path d="M19.8687 15.7938C19.7125 16.2188 19.2562 16.3813 18.9187 16.6375C16.3875 18.6 14.4937 20.9688 13.2062 23.75C12.8812 24.4563 12.7312 25.2188 12.3312 25.9C12.325 25.8938 12.3125 25.8875 12.3062 25.8875C12.2937 25.8813 12.2937 25.875 12.2937 25.8688C12.2562 25.8188 9.51875 23.3188 7.98125 19.9688C7.6625 19.275 7.01875 17.8438 6.79375 15.8813C6.475 13.1125 7.31875 12.2125 7.24375 10.1938C7.2375 10.0875 7.225 9.81879 7.39375 9.58754C7.775 9.05004 8.80625 9.15004 9.63125 9.28754C12.1062 9.70629 14.5062 10.1125 16.95 12.1875C17.7312 12.8625 18.8937 14.0125 19.8687 15.7938Z" fill="#373636"/>
<path d="M19.3125 16.6C19.1875 16.9625 18.8312 17.1 18.5687 17.3187C16.575 18.9875 15.0812 21.0062 14.0687 23.375C13.8125 23.975 13.6937 24.625 13.3812 25.2062C13.3687 25.2 13.35 25.1875 13.35 25.1812C13.2187 24.1687 12.6312 23.4 12.0375 22.5937C10.8187 20.9375 10.275 18.9937 9.88125 17.0187C9.5375 15.3062 9.41875 13.575 9.375 11.8312C9.3625 11.275 9.5125 11.1625 10.0625 11.275C13.7562 12.0375 16.8437 13.8062 19.3125 16.6Z" fill="#FED62E"/>
<path d="M30.7812 16.3562C30.9 16.7187 31.2625 16.8562 31.525 17.0812C33.5062 18.7625 34.9875 20.7875 35.9875 23.1625C36.2437 23.7687 36.3562 24.4125 36.6625 24.9937C36.675 24.9875 36.6937 24.975 36.6937 24.9687C36.8312 23.9562 37.4187 23.1937 38.0187 22.3875C39.2437 20.7375 39.8 18.8 40.2062 16.825C40.5625 15.1187 40.6938 13.3812 40.7438 11.6437C40.7625 11.0875 40.6125 10.9687 40.0563 11.0812C36.3625 11.825 33.2687 13.575 30.7812 16.3562Z" fill="#FED62E"/>
<path d="M30.3313 17.2563C30.4438 17.5751 30.7813 17.6938 31.025 17.8876C32.875 19.3501 34.2625 21.1063 35.2063 23.1751C35.4438 23.7001 35.5563 24.2688 35.8438 24.7751C35.8563 24.7688 35.875 24.7626 35.875 24.7501C36 23.8688 36.5438 23.1938 37.0938 22.4876C38.225 21.0376 38.7313 19.3438 39.1 17.6188C39.4188 16.1251 39.5313 14.6063 39.575 13.0876C39.5875 12.6001 39.45 12.5001 38.9375 12.6001C35.4875 13.2688 32.625 14.8188 30.3313 17.2563Z" fill="white"/>
<path d="M19.9312 17.6562C19.8187 17.975 19.4812 18.0937 19.2375 18.2875C17.3875 19.75 16 21.5062 15.0562 23.575C14.8187 24.1 14.7062 24.6687 14.4187 25.175C14.4062 25.1687 14.3875 25.1625 14.3875 25.15C14.2625 24.2687 13.7187 23.5937 13.1687 22.8875C12.0375 21.4375 11.5312 19.7437 11.1625 18.0187C10.8437 16.525 10.7312 15.0062 10.6875 13.4875C10.675 13 10.8125 12.9 11.325 13C14.775 13.6625 17.6437 15.2125 19.9312 17.6562Z" fill="white"/>
<path d="M24.9437 37.1125C31.9232 37.1125 37.5812 31.74 37.5812 25.1125C37.5812 18.4851 31.9232 13.1125 24.9437 13.1125C17.9643 13.1125 12.3062 18.4851 12.3062 25.1125C12.3062 31.74 17.9643 37.1125 24.9437 37.1125Z" fill="#373636"/>
<path d="M18.0375 31.8187C20.5124 31.8187 22.5187 29.8124 22.5187 27.3375C22.5187 24.8625 20.5124 22.8562 18.0375 22.8562C15.5626 22.8562 13.5562 24.8625 13.5562 27.3375C13.5562 29.8124 15.5626 31.8187 18.0375 31.8187Z" fill="#FED62E"/>
<path d="M18.1437 30.5688C20.1044 30.5688 21.6938 28.9794 21.6938 27.0187C21.6938 25.0581 20.1044 23.4688 18.1437 23.4688C16.1831 23.4688 14.5938 25.0581 14.5938 27.0187C14.5938 28.9794 16.1831 30.5688 18.1437 30.5688Z" fill="#373636"/>
<path d="M33.9188 31.5875C36.3937 31.5875 38.4 29.5812 38.4 27.1063C38.4 24.6313 36.3937 22.625 33.9188 22.625C31.4438 22.625 29.4375 24.6313 29.4375 27.1063C29.4375 29.5812 31.4438 31.5875 33.9188 31.5875Z" fill="#FED62E"/>
<path d="M34.025 30.3375C35.9856 30.3375 37.575 28.7482 37.575 26.7875C37.575 24.8269 35.9856 23.2375 34.025 23.2375C32.0644 23.2375 30.475 24.8269 30.475 26.7875C30.475 28.7482 32.0644 30.3375 34.025 30.3375Z" fill="#373636"/>
<path d="M34.9688 26.1875C35.5556 26.1875 36.0312 25.7118 36.0312 25.125C36.0312 24.5382 35.5556 24.0625 34.9688 24.0625C34.3819 24.0625 33.9062 24.5382 33.9062 25.125C33.9062 25.7118 34.3819 26.1875 34.9688 26.1875Z" fill="#FFFEDF"/>
<path d="M32.468 29.593C32.5227 29.2557 32.2936 28.9378 31.9563 28.8831C31.619 28.8283 31.3012 29.0574 31.2464 29.3947C31.1917 29.732 31.4207 30.0499 31.7581 30.1046C32.0954 30.1594 32.4132 29.9303 32.468 29.593Z" fill="#FFFEDF"/>
<path d="M24.3562 37.9125C24.5875 38.3 25.325 39.5312 26.6625 39.5312C27.6187 39.5312 28.525 38.8875 28.9625 37.9187C29.0562 37.5937 29.3437 36.5062 28.7812 35.6687C27.75 34.1375 24.5562 34.4125 23.9125 35.7062C23.5062 36.5125 24.1625 37.5937 24.3562 37.9125Z" fill="#FA7F5B"/>
<path d="M31.6375 33.4438C31.8375 34.6813 31.35 35.9563 30.5063 36.7875C29.825 37.4625 29.075 37.6813 28.425 37.8625C27.85 38.025 24.9312 38.8376 22.675 37.0563C22.3375 36.7938 20.9188 35.6688 20.85 33.9501C20.8125 33.0251 21.1875 32.3063 21.4188 31.8625C22.2313 30.3375 23.15 30.3313 23.9063 29.35C25.7125 27.0001 23.8563 22.6001 25.0375 20.9813C25.1438 20.8313 25.45 20.4188 25.8688 20.4126C26.275 20.4063 26.5875 20.7938 26.7 20.9313C27.975 22.5125 26.5688 27.0875 28.6188 29.375C29.2437 30.075 30.0437 30.3938 30.9062 31.7688C31.2437 32.2938 31.525 32.7625 31.6375 33.4438Z" fill="white"/>
<path d="M26.3437 34.5125C25.7625 34.3813 25.2875 34.0625 25.2563 34.0375C24.8375 33.7563 24.3312 33.4125 24.3687 32.9875C24.3875 32.7813 24.525 32.625 24.5562 32.5938C24.7125 32.4313 24.925 32.375 25.2875 32.2875C25.3375 32.275 25.4062 32.2563 25.5 32.2438C26.4187 32.075 27.425 32.1938 27.425 32.1938C27.625 32.2188 27.8375 32.25 28.0625 32.3C28.2375 32.3375 28.4062 32.3813 28.5562 32.425C28.7375 32.4688 28.8812 32.5938 28.9312 32.7625C28.9875 32.9563 28.8938 33.1188 28.8813 33.15C28.65 33.5688 28.3813 33.85 28.1938 34.0125C27.9688 34.2125 27.7062 34.4438 27.3125 34.5313C27.0687 34.5875 26.825 34.575 26.7687 34.575C26.7062 34.5688 26.55 34.5563 26.3437 34.5125Z" fill="#373636"/>
<path d="M19.0812 26.4187C19.6681 26.4187 20.1437 25.943 20.1437 25.3562C20.1437 24.7694 19.6681 24.2937 19.0812 24.2937C18.4944 24.2937 18.0187 24.7694 18.0187 25.3562C18.0187 25.943 18.4944 26.4187 19.0812 26.4187Z" fill="#FFFEDF"/>
<path d="M16.4812 30.3437C16.823 30.3437 17.1 30.0667 17.1 29.725C17.1 29.3832 16.823 29.1062 16.4812 29.1062C16.1395 29.1062 15.8625 29.3832 15.8625 29.725C15.8625 30.0667 16.1395 30.3437 16.4812 30.3437Z" fill="#FFFEDF"/>
</svg>
