<?xml version="1.0" encoding="UTF-8"?>
<svg xmlns="http://www.w3.org/2000/svg" xmlns:xlink="http://www.w3.org/1999/xlink" width="50px" height="50px" viewBox="0 0 50 50" version="1.1">
<g id="surface1">
<path style=" stroke:none;fill-rule:nonzero;fill:rgb(94.117647%,65.882353%,25.490196%);fill-opacity:1;" d="M 42.53125 25.65625 C 42.53125 35.75 33.613281 42.386719 26.835938 43.394531 C 26.167969 43.492188 25.675781 43.511719 25.476562 43.519531 C 18.085938 43.75 6.800781 37.132812 6.800781 25.65625 C 6.792969 16.007812 14.773438 7.792969 24.664062 7.792969 C 34.53125 7.792969 42.53125 15.792969 42.53125 25.65625 Z M 42.53125 25.65625 "/>
<path style=" stroke:none;fill-rule:nonzero;fill:rgb(99.607843%,83.921569%,18.039216%);fill-opacity:1;" d="M 42.9375 24.585938 C 42.9375 34.679688 34.019531 41.320312 27.242188 42.324219 C 26.574219 42.425781 26.082031 42.445312 25.882812 42.449219 C 18.5 42.679688 7.21875 36.0625 7.210938 24.585938 C 7.207031 14.9375 15.179688 6.71875 25.074219 6.71875 C 34.9375 6.71875 42.9375 14.71875 42.9375 24.585938 Z M 42.9375 24.585938 "/>
<path style=" stroke:none;fill-rule:nonzero;fill:rgb(94.117647%,65.882353%,25.490196%);fill-opacity:1;" d="M 37.898438 24.15625 C 38.039062 29.8125 33.917969 34.75 28.988281 36.117188 C 21.507812 38.195312 12.554688 31.9375 12.617188 24.15625 C 12.675781 18.03125 18.304688 12.15625 25.257812 12.15625 C 31.960938 12.164062 37.742188 17.632812 37.898438 24.15625 Z M 37.898438 24.15625 "/>
<path style=" stroke:none;fill-rule:nonzero;fill:rgb(21.568627%,21.176471%,21.176471%);fill-opacity:1;" d="M 29.324219 15.425781 C 29.480469 15.851562 29.9375 16.011719 30.273438 16.269531 C 32.804688 18.230469 34.699219 20.601562 35.988281 23.382812 C 36.3125 24.085938 36.460938 24.851562 36.863281 25.53125 C 36.867188 25.523438 36.882812 25.519531 36.886719 25.519531 C 36.898438 25.511719 36.898438 25.507812 36.898438 25.5 C 36.9375 25.449219 39.675781 22.949219 41.210938 19.601562 C 41.53125 18.90625 42.175781 17.476562 42.398438 15.511719 C 42.71875 12.742188 41.875 11.84375 41.949219 9.824219 C 41.957031 9.71875 41.96875 9.449219 41.800781 9.21875 C 41.417969 8.679688 40.386719 8.78125 39.5625 8.917969 C 37.085938 9.335938 34.6875 9.742188 32.242188 11.820312 C 31.460938 12.488281 30.304688 13.644531 29.324219 15.425781 Z M 29.324219 15.425781 "/>
<path style=" stroke:none;fill-rule:nonzero;fill:rgb(21.568627%,21.176471%,21.176471%);fill-opacity:1;" d="M 19.867188 15.792969 C 19.710938 16.21875 19.257812 16.382812 18.917969 16.636719 C 16.386719 18.601562 14.492188 20.96875 13.207031 23.75 C 12.882812 24.457031 12.730469 25.21875 12.332031 25.898438 C 12.324219 25.894531 12.3125 25.886719 12.304688 25.886719 C 12.292969 25.882812 12.292969 25.875 12.292969 25.867188 C 12.257812 25.820312 9.519531 23.320312 7.980469 19.96875 C 7.664062 19.273438 7.019531 17.84375 6.792969 15.882812 C 6.476562 13.113281 7.320312 12.210938 7.242188 10.195312 C 7.238281 10.085938 7.226562 9.820312 7.394531 9.585938 C 7.773438 9.050781 8.804688 9.148438 9.632812 9.289062 C 12.105469 9.707031 14.507812 10.113281 16.949219 12.1875 C 17.730469 12.863281 18.894531 14.011719 19.867188 15.792969 Z M 19.867188 15.792969 "/>
<path style=" stroke:none;fill-rule:nonzero;fill:rgb(99.607843%,83.921569%,18.039216%);fill-opacity:1;" d="M 19.3125 16.601562 C 19.1875 16.960938 18.832031 17.101562 18.570312 17.320312 C 16.574219 18.988281 15.082031 21.007812 14.070312 23.375 C 13.8125 23.976562 13.695312 24.625 13.382812 25.207031 C 13.367188 25.199219 13.351562 25.1875 13.351562 25.179688 C 13.21875 24.167969 12.632812 23.398438 12.039062 22.59375 C 10.820312 20.9375 10.273438 18.992188 9.882812 17.019531 C 9.539062 15.304688 9.417969 13.574219 9.375 11.832031 C 9.363281 11.273438 9.511719 11.164062 10.0625 11.273438 C 13.757812 12.039062 16.84375 13.804688 19.3125 16.601562 Z M 19.3125 16.601562 "/>
<path style=" stroke:none;fill-rule:nonzero;fill:rgb(99.607843%,83.921569%,18.039216%);fill-opacity:1;" d="M 30.78125 16.355469 C 30.898438 16.71875 31.261719 16.855469 31.523438 17.082031 C 33.507812 18.761719 34.988281 20.789062 35.988281 23.164062 C 36.242188 23.769531 36.355469 24.414062 36.664062 24.992188 C 36.675781 24.988281 36.695312 24.976562 36.695312 24.96875 C 36.832031 23.957031 37.417969 23.195312 38.019531 22.386719 C 39.242188 20.738281 39.800781 18.800781 40.207031 16.824219 C 40.5625 15.117188 40.695312 13.382812 40.742188 11.644531 C 40.761719 11.085938 40.613281 10.96875 40.054688 11.082031 C 36.363281 11.824219 33.269531 13.574219 30.78125 16.355469 Z M 30.78125 16.355469 "/>
<path style=" stroke:none;fill-rule:nonzero;fill:rgb(100%,100%,100%);fill-opacity:1;" d="M 30.332031 17.257812 C 30.445312 17.574219 30.78125 17.695312 31.023438 17.886719 C 32.875 19.351562 34.261719 21.105469 35.207031 23.175781 C 35.445312 23.699219 35.554688 24.269531 35.84375 24.773438 C 35.855469 24.769531 35.875 24.761719 35.875 24.75 C 36 23.867188 36.542969 23.195312 37.09375 22.488281 C 38.226562 21.039062 38.730469 19.34375 39.101562 17.617188 C 39.417969 16.125 39.53125 14.605469 39.574219 13.085938 C 39.585938 12.601562 39.449219 12.5 38.9375 12.601562 C 35.488281 13.269531 32.625 14.820312 30.332031 17.257812 Z M 30.332031 17.257812 "/>
<path style=" stroke:none;fill-rule:nonzero;fill:rgb(100%,100%,100%);fill-opacity:1;" d="M 19.929688 17.65625 C 19.820312 17.976562 19.480469 18.09375 19.238281 18.289062 C 17.386719 19.75 16 21.507812 15.054688 23.574219 C 14.820312 24.101562 14.707031 24.667969 14.417969 25.175781 C 14.40625 25.167969 14.386719 25.164062 14.386719 25.148438 C 14.261719 24.269531 13.71875 23.59375 13.167969 22.886719 C 12.039062 21.4375 11.53125 19.742188 11.164062 18.019531 C 10.84375 16.523438 10.730469 15.007812 10.6875 13.488281 C 10.675781 13 10.8125 12.898438 11.324219 13 C 14.773438 13.664062 17.644531 15.210938 19.929688 17.65625 Z M 19.929688 17.65625 "/>
<path style=" stroke:none;fill-rule:nonzero;fill:rgb(21.568627%,21.176471%,21.176471%);fill-opacity:1;" d="M 24.945312 37.113281 C 31.921875 37.113281 37.582031 31.738281 37.582031 25.113281 C 37.582031 18.484375 31.921875 13.113281 24.945312 13.113281 C 17.964844 13.113281 12.304688 18.484375 12.304688 25.113281 C 12.304688 31.738281 17.964844 37.113281 24.945312 37.113281 Z M 24.945312 37.113281 "/>
<path style=" stroke:none;fill-rule:nonzero;fill:rgb(99.607843%,83.921569%,18.039216%);fill-opacity:1;" d="M 18.039062 31.820312 C 20.511719 31.820312 22.519531 29.8125 22.519531 27.335938 C 22.519531 24.863281 20.511719 22.855469 18.039062 22.855469 C 15.5625 22.855469 13.554688 24.863281 13.554688 27.335938 C 13.554688 29.8125 15.5625 31.820312 18.039062 31.820312 Z M 18.039062 31.820312 "/>
<path style=" stroke:none;fill-rule:nonzero;fill:rgb(21.568627%,21.176471%,21.176471%);fill-opacity:1;" d="M 18.144531 30.570312 C 20.105469 30.570312 21.695312 28.980469 21.695312 27.019531 C 21.695312 25.058594 20.105469 23.46875 18.144531 23.46875 C 16.183594 23.46875 14.59375 25.058594 14.59375 27.019531 C 14.59375 28.980469 16.183594 30.570312 18.144531 30.570312 Z M 18.144531 30.570312 "/>
<path style=" stroke:none;fill-rule:nonzero;fill:rgb(99.607843%,83.921569%,18.039216%);fill-opacity:1;" d="M 33.917969 31.585938 C 36.394531 31.585938 38.398438 29.582031 38.398438 27.105469 C 38.398438 24.632812 36.394531 22.625 33.917969 22.625 C 31.445312 22.625 29.4375 24.632812 29.4375 27.105469 C 29.4375 29.582031 31.445312 31.585938 33.917969 31.585938 Z M 33.917969 31.585938 "/>
<path style=" stroke:none;fill-rule:nonzero;fill:rgb(21.568627%,21.176471%,21.176471%);fill-opacity:1;" d="M 34.023438 30.335938 C 35.984375 30.335938 37.574219 28.75 37.574219 26.789062 C 37.574219 24.828125 35.984375 23.238281 34.023438 23.238281 C 32.0625 23.238281 30.476562 24.828125 30.476562 26.789062 C 30.476562 28.75 32.0625 30.335938 34.023438 30.335938 Z M 34.023438 30.335938 "/>
<path style=" stroke:none;fill-rule:nonzero;fill:rgb(100%,99.607843%,87.45098%);fill-opacity:1;" d="M 34.96875 26.1875 C 35.554688 26.1875 36.03125 25.710938 36.03125 25.125 C 36.03125 24.539062 35.554688 24.0625 34.96875 24.0625 C 34.382812 24.0625 33.90625 24.539062 33.90625 25.125 C 33.90625 25.710938 34.382812 26.1875 34.96875 26.1875 Z M 34.96875 26.1875 "/>
<path style=" stroke:none;fill-rule:nonzero;fill:rgb(100%,99.607843%,87.45098%);fill-opacity:1;" d="M 32.46875 29.59375 C 32.523438 29.253906 32.292969 28.9375 31.957031 28.882812 C 31.617188 28.828125 31.300781 29.058594 31.246094 29.394531 C 31.191406 29.730469 31.421875 30.050781 31.757812 30.105469 C 32.09375 30.160156 32.414062 29.929688 32.46875 29.59375 Z M 32.46875 29.59375 "/>
<path style=" stroke:none;fill-rule:nonzero;fill:rgb(98.039216%,49.803922%,35.686275%);fill-opacity:1;" d="M 24.355469 37.914062 C 24.585938 38.300781 25.324219 39.53125 26.664062 39.53125 C 27.617188 39.53125 28.523438 38.886719 28.960938 37.917969 C 29.054688 37.59375 29.34375 36.507812 28.78125 35.667969 C 27.75 34.136719 24.554688 34.414062 23.914062 35.707031 C 23.507812 36.511719 24.164062 37.59375 24.355469 37.914062 Z M 24.355469 37.914062 "/>
<path style=" stroke:none;fill-rule:nonzero;fill:rgb(100%,100%,100%);fill-opacity:1;" d="M 31.636719 33.445312 C 31.835938 34.679688 31.351562 35.957031 30.507812 36.789062 C 29.824219 37.460938 29.074219 37.679688 28.425781 37.863281 C 27.851562 38.023438 24.929688 38.835938 22.675781 37.054688 C 22.335938 36.792969 20.917969 35.667969 20.851562 33.949219 C 20.8125 33.023438 21.1875 32.304688 21.417969 31.863281 C 22.230469 30.335938 23.148438 30.332031 23.90625 29.351562 C 25.710938 27 23.855469 22.601562 25.039062 20.980469 C 25.144531 20.832031 25.449219 20.417969 25.867188 20.414062 C 26.273438 20.40625 26.585938 20.792969 26.699219 20.929688 C 27.976562 22.511719 26.570312 27.085938 28.617188 29.375 C 29.242188 30.074219 30.042969 30.394531 30.90625 31.769531 C 31.242188 32.292969 31.523438 32.761719 31.636719 33.445312 Z M 31.636719 33.445312 "/>
<path style=" stroke:none;fill-rule:nonzero;fill:rgb(21.568627%,21.176471%,21.176471%);fill-opacity:1;" d="M 26.34375 34.511719 C 25.761719 34.382812 25.289062 34.0625 25.257812 34.039062 C 24.835938 33.757812 24.332031 33.414062 24.367188 32.988281 C 24.386719 32.78125 24.523438 32.625 24.554688 32.59375 C 24.710938 32.429688 24.925781 32.375 25.289062 32.289062 C 25.335938 32.273438 25.40625 32.257812 25.5 32.242188 C 26.417969 32.074219 27.425781 32.195312 27.425781 32.195312 C 27.625 32.21875 27.835938 32.25 28.0625 32.300781 C 28.238281 32.335938 28.40625 32.382812 28.554688 32.425781 C 28.738281 32.46875 28.882812 32.59375 28.929688 32.761719 C 28.988281 32.957031 28.894531 33.117188 28.882812 33.148438 C 28.648438 33.570312 28.382812 33.851562 28.195312 34.011719 C 27.96875 34.210938 27.707031 34.445312 27.3125 34.53125 C 27.070312 34.585938 26.824219 34.574219 26.769531 34.574219 C 26.707031 34.570312 26.550781 34.554688 26.34375 34.511719 Z M 26.34375 34.511719 "/>
<path style=" stroke:none;fill-rule:nonzero;fill:rgb(100%,99.607843%,87.45098%);fill-opacity:1;" d="M 19.082031 26.417969 C 19.667969 26.417969 20.144531 25.941406 20.144531 25.355469 C 20.144531 24.769531 19.667969 24.292969 19.082031 24.292969 C 18.496094 24.292969 18.019531 24.769531 18.019531 25.355469 C 18.019531 25.941406 18.496094 26.417969 19.082031 26.417969 Z M 19.082031 26.417969 "/>
<path style=" stroke:none;fill-rule:nonzero;fill:rgb(100%,99.607843%,87.45098%);fill-opacity:1;" d="M 16.480469 30.34375 C 16.824219 30.34375 17.101562 30.066406 17.101562 29.726562 C 17.101562 29.382812 16.824219 29.105469 16.480469 29.105469 C 16.140625 29.105469 15.863281 29.382812 15.863281 29.726562 C 15.863281 30.066406 16.140625 30.34375 16.480469 30.34375 Z M 16.480469 30.34375 "/>
</g>
</svg>
