<?xml version="1.0" encoding="UTF-8"?>
<svg xmlns="http://www.w3.org/2000/svg" xmlns:xlink="http://www.w3.org/1999/xlink" width="50px" height="50px" viewBox="0 0 50 50" version="1.1">
<g id="surface1">
<path style=" stroke:none;fill-rule:nonzero;fill:rgb(93.333333%,20.392157%,54.117647%);fill-opacity:1;" d="M 48.523438 33.476562 C 46.84375 33.300781 39.75 32.363281 39.375 28.785156 C 39.371094 28.75 39.363281 28.71875 39.359375 28.683594 C 39.230469 26.210938 38.65625 23.859375 38.398438 22.925781 C 38.714844 22.730469 39.03125 22.46875 39.265625 22.15625 C 39.929688 21.273438 40.171875 19.953125 38.71875 19.359375 C 37.535156 18.875 36.851562 19.601562 36.53125 20.421875 C 36.03125 20.351562 35.105469 20.339844 33.894531 20.371094 C 33.648438 19.425781 32.945312 18.390625 31.585938 18.945312 C 30.734375 19.296875 30.46875 19.894531 30.523438 20.511719 C 23.738281 20.878906 14 21.769531 14 21.769531 C 11.785156 22.039062 8.464844 22.980469 8.96875 25.859375 C 9.390625 28.550781 9.664062 31.855469 10.363281 34.648438 C 10.570312 35.460938 11.210938 36.796875 13.648438 37.863281 C 15.503906 38.679688 20.628906 39.046875 25.859375 38.574219 C 26.035156 38.699219 26.164062 38.878906 26.199219 39.128906 C 26.375 40.320312 26.675781 46.941406 26.804688 49.941406 C 26.21875 49.980469 25.609375 50 25 50 C 11.195312 50 0 38.804688 0 25 C 0 11.195312 11.195312 0 25 0 C 38.804688 0 50 11.195312 50 25 C 50 28.023438 49.511719 30.789062 48.523438 33.476562 Z M 48.523438 33.476562 "/>
<path style=" stroke:none;fill-rule:nonzero;fill:rgb(93.333333%,20.392157%,54.117647%);fill-opacity:1;" d="M 36.109375 24.621094 C 36.101562 24.535156 36.046875 24.273438 36.046875 24.273438 C 36 24.089844 35.914062 23.90625 35.789062 23.726562 C 35.664062 23.546875 35.519531 23.410156 35.359375 23.320312 C 35.054688 23.148438 34.726562 23.082031 34.371094 23.121094 C 33.980469 23.160156 33.65625 23.308594 33.40625 23.582031 C 33.121094 23.878906 32.976562 24.269531 32.976562 24.75 C 32.976562 25.164062 33.089844 25.515625 33.320312 25.808594 C 33.539062 26.085938 33.824219 26.253906 34.171875 26.324219 C 34.503906 26.394531 34.851562 26.371094 35.199219 26.246094 C 35.289062 26.210938 35.378906 26.171875 35.46875 26.121094 C 35.558594 26.070312 35.648438 26 35.75 25.921875 C 35.851562 25.835938 35.933594 25.726562 36 25.59375 C 36.070312 25.460938 36.113281 25.316406 36.136719 25.15625 C 36.128906 25.148438 36.148438 24.957031 36.109375 24.621094 Z M 34.578125 25.855469 C 33.75 25.855469 33.5 25.300781 33.5 24.613281 L 35.660156 24.613281 C 35.660156 25.300781 35.476562 25.855469 34.578125 25.855469 Z M 34.578125 25.855469 "/>
</g>
</svg>
