<?xml version="1.0" encoding="UTF-8"?>
<svg xmlns="http://www.w3.org/2000/svg" xmlns:xlink="http://www.w3.org/1999/xlink" width="50px" height="50px" viewBox="0 0 50 50" version="1.1">
<g id="surface1">
<path style=" stroke:none;fill-rule:nonzero;fill:rgb(100%,100%,100%);fill-opacity:1;" d="M 49.296875 25 C 49.296875 11.191406 38.261719 0 24.648438 0 C 11.035156 0 0 11.191406 0 25 C 0 38.808594 11.035156 50 24.648438 50 C 38.261719 50 49.296875 38.808594 49.296875 25 Z M 49.296875 25 "/>
<path style=" stroke:none;fill-rule:evenodd;fill:rgb(0%,0%,0%);fill-opacity:1;" d="M 0 26 L 0.5 30 L 1 32 L 1.5 33.5 C 1.832031 34.5 2.242188 35.46875 2.730469 36.402344 L 3.335938 37.574219 C 3.929688 38.714844 4.601562 39.808594 5.347656 40.855469 L 5.882812 41.597656 C 6.652344 42.671875 7.539062 43.660156 8.519531 44.546875 L 8.75 44.753906 C 9.71875 45.628906 10.796875 46.382812 11.949219 46.992188 C 13.03125 47.566406 14.175781 48.015625 15.359375 48.324219 L 19.015625 49.285156 L 20.5 49.644531 L 21.019531 49.71875 C 22.339844 49.90625 23.667969 50 25 50 C 26 50 26.996094 49.917969 27.980469 49.757812 L 28.679688 49.644531 L 30.4375 49.296875 C 30.480469 49.289062 30.523438 49.285156 30.566406 49.285156 C 30.628906 49.285156 30.691406 49.277344 30.75 49.257812 L 33.859375 48.359375 C 35.015625 48.023438 36.140625 47.601562 37.230469 47.097656 L 37.738281 46.859375 C 38.867188 46.335938 39.941406 45.699219 40.945312 44.960938 C 42.511719 43.804688 43.886719 42.40625 45.023438 40.824219 L 46.125 39.285156 L 47.082031 37.460938 C 47.851562 36 48.46875 34.460938 48.925781 32.871094 C 49.40625 31.199219 49.707031 29.480469 49.820312 27.746094 L 50 25 L 49.835938 22.679688 C 49.710938 20.902344 49.34375 19.148438 48.742188 17.46875 C 48.40625 16.539062 48.003906 15.632812 47.53125 14.765625 L 47.082031 13.929688 C 46.210938 12.328125 45.207031 10.800781 44.078125 9.367188 L 42.605469 7.5 L 41.996094 6.882812 C 41.699219 6.582031 41.371094 6.308594 41.019531 6.070312 L 40.910156 5.996094 C 40.632812 5.808594 40.375 5.59375 40.140625 5.355469 C 39.90625 5.121094 39.648438 4.90625 39.375 4.71875 L 37.675781 3.570312 L 35.5625 2.5 L 32.746094 1.429688 C 30.921875 0.8125 29.035156 0.394531 27.117188 0.191406 L 25.351562 0 C 23.785156 0 22.222656 0.109375 20.671875 0.332031 L 19.5 0.5 L 18.148438 0.886719 C 16.71875 1.292969 15.332031 1.835938 14 2.5 L 12.710938 3.234375 C 11.242188 4.078125 9.851562 5.054688 8.566406 6.15625 L 8.347656 6.347656 C 7.449219 7.113281 6.613281 7.949219 5.847656 8.847656 L 5.710938 9.003906 C 4.574219 10.328125 3.605469 11.789062 2.824219 13.351562 C 2.277344 14.449219 1.824219 15.589844 1.46875 16.765625 L 1.019531 18.261719 C 0.675781 19.417969 0.414062 20.601562 0.242188 21.796875 C 0.0820312 22.929688 0 24.074219 0 25.222656 Z M 34.097656 7.082031 C 41.324219 10.667969 45.789062 17.503906 46.324219 25.789062 C 46.609375 30.210938 46.402344 31.425781 44.703125 35.261719 C 42.503906 40.234375 38.222656 44.644531 35.59375 44.644531 C 32.917969 44.644531 30.277344 43.128906 29.171875 40.96875 C 27.253906 37.203125 27.910156 35.148438 32.828125 29.507812 C 35.917969 25.96875 36.992188 22.230469 35.972656 18.542969 C 35 15.027344 34.148438 13.890625 30.699219 11.519531 C 25.949219 8.25 19.902344 9.300781 15.730469 14.121094 C 11.691406 18.785156 12.113281 24.871094 16.832031 30 C 21.28125 34.839844 22.011719 37.269531 20.125 40.96875 C 19.003906 43.164062 16.371094 44.644531 13.578125 44.644531 C 10.925781 44.644531 6.105469 39.304688 4.597656 34.703125 C 2.800781 29.21875 3.074219 22.542969 5.296875 17.621094 C 7.414062 12.933594 9.113281 10.898438 13.027344 8.359375 C 19.535156 4.144531 27.230469 3.675781 34.097656 7.082031 Z M 34.097656 7.082031 "/>
</g>
</svg>
