<?xml version="1.0" encoding="UTF-8"?>
<svg xmlns="http://www.w3.org/2000/svg" xmlns:xlink="http://www.w3.org/1999/xlink" width="50px" height="50px" viewBox="0 0 50 50" version="1.1">
<defs>
<linearGradient id="linear0" gradientUnits="userSpaceOnUse" x1="12.6976" y1="19.3605" x2="35.9311" y2="19.3605" >
<stop offset="0" style="stop-color:rgb(19.607843%,51.372549%,85.098039%);stop-opacity:1;"/>
<stop offset="0.5056" style="stop-color:rgb(62.352941%,35.294118%,92.941176%);stop-opacity:1;"/>
<stop offset="1" style="stop-color:rgb(87.058824%,11.372549%,32.941176%);stop-opacity:1;"/>
</linearGradient>
<linearGradient id="linear1" gradientUnits="userSpaceOnUse" x1="12.6976" y1="31.9316" x2="35.8504" y2="31.9316" >
<stop offset="0" style="stop-color:rgb(19.607843%,51.372549%,85.098039%);stop-opacity:1;"/>
<stop offset="0.5056" style="stop-color:rgb(62.352941%,35.294118%,92.941176%);stop-opacity:1;"/>
<stop offset="1" style="stop-color:rgb(87.058824%,11.372549%,32.941176%);stop-opacity:1;"/>
</linearGradient>
<linearGradient id="linear2" gradientUnits="userSpaceOnUse" x1="22.1759" y1="13.0663" x2="22.1759" y2="36.3317" >
<stop offset="0" style="stop-color:rgb(1.176471%,17.254902%,34.117647%);stop-opacity:1;"/>
<stop offset="0.5073" style="stop-color:rgb(43.921569%,21.176471%,65.098039%);stop-opacity:1;"/>
<stop offset="1" style="stop-color:rgb(100%,60%,51.372549%);stop-opacity:1;"/>
</linearGradient>
<linearGradient id="linear3" gradientUnits="userSpaceOnUse" x1="2.74494" y1="0.45462" x2="49.9614" y2="47.6711" >
<stop offset="0" style="stop-color:rgb(19.607843%,51.372549%,85.098039%);stop-opacity:1;"/>
<stop offset="0.5056" style="stop-color:rgb(62.352941%,35.294118%,92.941176%);stop-opacity:1;"/>
<stop offset="1" style="stop-color:rgb(87.058824%,11.372549%,32.941176%);stop-opacity:1;"/>
</linearGradient>
<linearGradient id="linear4" gradientUnits="userSpaceOnUse" x1="0.457075" y1="2.74243" x2="47.6735" y2="49.9589" >
<stop offset="0" style="stop-color:rgb(19.607843%,51.372549%,85.098039%);stop-opacity:1;"/>
<stop offset="0.5056" style="stop-color:rgb(62.352941%,35.294118%,92.941176%);stop-opacity:1;"/>
<stop offset="1" style="stop-color:rgb(87.058824%,11.372549%,32.941176%);stop-opacity:1;"/>
</linearGradient>
</defs>
<g id="surface1">
<path style=" stroke:none;fill-rule:nonzero;fill:url(#linear0);" d="M 31.667969 22.621094 C 30.394531 18.730469 26.734375 15.914062 22.417969 15.914062 C 17.210938 15.914062 12.957031 20.003906 12.699219 25.144531 C 12.960938 18.710938 18.257812 13.574219 24.753906 13.574219 C 29.804688 13.574219 34.128906 16.675781 35.929688 21.078125 Z M 31.667969 22.621094 "/>
<path style=" stroke:none;fill-rule:nonzero;fill:url(#linear1);" d="M 31.667969 28.667969 C 30.394531 32.5625 26.734375 35.378906 22.417969 35.378906 C 17.210938 35.378906 12.957031 31.289062 12.699219 26.148438 C 12.960938 32.582031 18.257812 37.714844 24.753906 37.714844 C 29.730469 37.714844 34.003906 34.707031 35.851562 30.40625 Z M 31.667969 28.667969 "/>
<path style=" stroke:none;fill-rule:nonzero;fill:url(#linear2);" d="M 22.417969 35.378906 C 26.734375 35.378906 30.394531 32.5625 31.667969 28.667969 C 30.5 31.332031 27.847656 33.191406 24.753906 33.191406 C 20.589844 33.191406 17.210938 29.8125 17.210938 25.644531 C 17.210938 21.480469 20.589844 18.101562 24.753906 18.101562 C 27.847656 18.101562 30.5 19.960938 31.667969 22.621094 C 30.394531 18.726562 26.734375 15.914062 22.417969 15.914062 C 17.210938 15.914062 12.957031 20.003906 12.699219 25.144531 C 12.691406 25.3125 12.683594 25.476562 12.683594 25.644531 C 12.683594 25.8125 12.691406 25.980469 12.699219 26.148438 C 12.957031 31.289062 17.210938 35.378906 22.417969 35.378906 Z M 22.417969 35.378906 "/>
<path style=" stroke:none;fill-rule:nonzero;fill:url(#linear3);" d="M 10.800781 40.910156 L 1.675781 25.105469 L 13.339844 4.90625 L 34.792969 4.90625 C 35.140625 5.898438 36.082031 6.617188 37.191406 6.617188 C 38.59375 6.617188 39.730469 5.476562 39.730469 4.074219 C 39.730469 2.675781 38.59375 1.535156 37.191406 1.535156 C 36.003906 1.535156 35.007812 2.355469 34.730469 3.457031 L 12.5 3.457031 L 0 25.105469 L 9.542969 41.632812 C 9.675781 41.867188 9.921875 41.996094 10.171875 41.996094 C 10.292969 41.996094 10.417969 41.964844 10.535156 41.898438 C 10.878906 41.699219 11 41.253906 10.800781 40.910156 Z M 37.191406 2.988281 C 37.792969 2.988281 38.28125 3.476562 38.28125 4.074219 C 38.28125 4.675781 37.792969 5.164062 37.191406 5.164062 C 36.59375 5.164062 36.105469 4.675781 36.105469 4.074219 C 36.105469 3.476562 36.589844 2.988281 37.191406 2.988281 Z M 37.191406 2.988281 "/>
<path style=" stroke:none;fill-rule:nonzero;fill:url(#linear4);" d="M 50 25.105469 L 40.417969 8.511719 C 40.21875 8.164062 39.773438 8.042969 39.425781 8.246094 C 39.078125 8.445312 38.960938 8.890625 39.160156 9.234375 L 48.324219 25.105469 L 36.660156 45.304688 L 15.460938 45.304688 C 15.183594 44.203125 14.1875 43.382812 13 43.382812 C 11.601562 43.382812 10.460938 44.523438 10.460938 45.925781 C 10.460938 47.324219 11.601562 48.464844 13 48.464844 C 14.109375 48.464844 15.054688 47.75 15.398438 46.757812 L 37.5 46.757812 Z M 13 47.011719 C 12.402344 47.011719 11.914062 46.523438 11.914062 45.925781 C 11.914062 45.324219 12.402344 44.835938 13 44.835938 C 13.582031 44.835938 14.054688 45.296875 14.085938 45.871094 C 14.074219 45.921875 14.066406 45.976562 14.066406 46.03125 C 14.066406 46.054688 14.070312 46.074219 14.070312 46.097656 C 13.988281 46.617188 13.542969 47.011719 13 47.011719 Z M 13 47.011719 "/>
</g>
</svg>
