<svg xmlns="http://www.w3.org/2000/svg" width="226" height="226" viewBox="0 0 226 226" version="1.1"><path d="M 91.058 11.060 C 63.946 14.427, 38.291 29.215, 21.768 51 C 14.879 60.083, 7.429 75.686, 4.341 87.500 C 2.083 96.138, 1.727 99.543, 1.727 112.500 C 1.727 125.457, 2.083 128.862, 4.341 137.500 C 12.173 167.462, 32.541 192.016, 60.381 205.055 C 80.447 214.454, 104.356 216.963, 126.520 211.996 C 140.859 208.782, 158.449 199.735, 170.562 189.345 C 179.932 181.307, 188.592 169.672, 195.096 156.383 L 201.026 144.267 212.489 135.883 C 222.256 128.741, 223.957 127.093, 223.977 124.750 L 224 122 190.128 122 L 156.256 122 155.642 125.837 C 154.551 132.663, 148.119 143.920, 141.593 150.425 C 130.883 161.103, 117.927 166.357, 102.500 166.280 C 77.301 166.154, 55.770 148.436, 50.511 123.500 C 48.655 114.699, 48.655 110.301, 50.511 101.500 C 56.559 72.823, 85.066 53.642, 113.040 59.429 C 129.895 62.916, 144.117 73.516, 151.357 87.987 C 153.376 92.023, 155.305 97.052, 155.642 99.163 L 156.256 103 190.128 103 L 224 103 223.966 100.250 C 223.937 97.917, 222.201 96.222, 212.504 89.063 L 201.075 80.626 195.114 68.563 C 185.380 48.865, 172.602 34.856, 154.864 24.431 C 136.499 13.639, 111.863 8.476, 91.058 11.060" stroke="none" fill="#0d825c" fill-rule="evenodd"/><path d="M 89 1.959 C 55.940 9.030, 26.813 31.483, 11.761 61.500 C 3.247 78.480, 0 92.559, 0 112.500 C -0 132.441, 3.247 146.520, 11.761 163.500 C 16.859 173.665, 22.306 181.296, 30.853 190.242 C 47.437 207.600, 68.356 219.145, 91.011 223.443 C 101.747 225.479, 123.253 225.479, 133.989 223.443 C 167.498 217.086, 197.899 194.092, 213.239 163.500 C 221.753 146.520, 225 132.441, 225 112.500 C 225 91.847, 221.672 77.987, 212.393 60 C 206.717 48.996, 200.051 40.225, 190.242 30.853 C 174.243 15.568, 154.990 5.541, 133.989 1.557 C 122.549 -0.613, 100.086 -0.412, 89 1.959 M 91.058 11.060 C 63.946 14.427, 38.291 29.215, 21.768 51 C 14.879 60.083, 7.429 75.686, 4.341 87.500 C 2.083 96.138, 1.727 99.543, 1.727 112.500 C 1.727 125.457, 2.083 128.862, 4.341 137.500 C 12.173 167.462, 32.541 192.016, 60.381 205.055 C 80.447 214.454, 104.356 216.963, 126.520 211.996 C 140.859 208.782, 158.449 199.735, 170.562 189.345 C 179.932 181.307, 188.592 169.672, 195.096 156.383 L 201.026 144.267 212.489 135.883 C 222.256 128.741, 223.957 127.093, 223.977 124.750 L 224 122 190.128 122 L 156.256 122 155.642 125.837 C 154.551 132.663, 148.119 143.920, 141.593 150.425 C 130.883 161.103, 117.927 166.357, 102.500 166.280 C 77.301 166.154, 55.770 148.436, 50.511 123.500 C 48.655 114.699, 48.655 110.301, 50.511 101.500 C 56.559 72.823, 85.066 53.642, 113.040 59.429 C 129.895 62.916, 144.117 73.516, 151.357 87.987 C 153.376 92.023, 155.305 97.052, 155.642 99.163 L 156.256 103 190.128 103 L 224 103 223.966 100.250 C 223.937 97.917, 222.201 96.222, 212.504 89.063 L 201.075 80.626 195.114 68.563 C 185.380 48.865, 172.602 34.856, 154.864 24.431 C 136.499 13.639, 111.863 8.476, 91.058 11.060" stroke="none" fill="#f8fbfa" fill-rule="evenodd"/></svg>