<?xml version="1.0" encoding="UTF-8"?>
<svg xmlns="http://www.w3.org/2000/svg" xmlns:xlink="http://www.w3.org/1999/xlink" width="50px" height="50px" viewBox="0 0 50 50" version="1.1">
<g id="surface1">
<path style=" stroke:none;fill-rule:nonzero;fill:rgb(100%,100%,100%);fill-opacity:1;" d="M 25 50 C 38.808594 50 50 38.808594 50 25 C 50 11.191406 38.808594 0 25 0 C 11.191406 0 0 11.191406 0 25 C 0 38.808594 11.191406 50 25 50 Z M 25 50 "/>
<path style=" stroke:none;fill-rule:evenodd;fill:rgb(100%,26.27451%,31.372549%);fill-opacity:1;" d="M 35.523438 29.460938 L 20.796875 29.460938 L 20.796875 21.25 L 18.527344 21.25 L 18.527344 30.601562 C 18.527344 30.75 18.554688 30.898438 18.613281 31.035156 C 18.671875 31.171875 18.757812 31.296875 18.863281 31.398438 C 19.074219 31.609375 19.363281 31.730469 19.664062 31.730469 L 32.558594 31.730469 L 29.894531 34.128906 L 15.609375 34.128906 L 15.609375 20.535156 L 30.335938 20.535156 C 30.613281 20.535156 30.886719 20.433594 31.09375 20.242188 L 36.28125 15.589844 C 36.449219 15.4375 36.570312 15.234375 36.625 15.011719 C 36.664062 14.847656 36.667969 14.671875 36.628906 14.503906 C 36.59375 14.335938 36.519531 14.179688 36.414062 14.046875 C 36.304688 13.910156 36.171875 13.800781 36.015625 13.726562 C 35.863281 13.652344 35.695312 13.613281 35.523438 13.613281 L 19.664062 13.613281 C 19.511719 13.613281 19.367188 13.644531 19.226562 13.699219 C 19.089844 13.757812 18.964844 13.839844 18.859375 13.945312 C 18.753906 14.050781 18.671875 14.175781 18.613281 14.316406 C 18.558594 14.453125 18.527344 14.601562 18.527344 14.75 L 18.527344 17.550781 L 20.796875 17.550781 L 20.796875 15.871094 L 32.5625 15.871094 L 29.898438 18.265625 L 14.476562 18.265625 C 14.324219 18.265625 14.175781 18.296875 14.035156 18.351562 C 13.898438 18.410156 13.769531 18.492188 13.664062 18.601562 C 13.558594 18.707031 13.476562 18.832031 13.417969 18.96875 C 13.363281 19.105469 13.335938 19.253906 13.335938 19.402344 L 13.335938 35.261719 C 13.335938 35.410156 13.363281 35.558594 13.421875 35.695312 C 13.476562 35.832031 13.558594 35.957031 13.664062 36.0625 C 13.769531 36.167969 13.894531 36.253906 14.035156 36.308594 C 14.171875 36.367188 14.320312 36.394531 14.46875 36.394531 L 30.328125 36.394531 C 30.605469 36.394531 30.878906 36.292969 31.085938 36.105469 L 36.273438 31.441406 C 36.445312 31.285156 36.5625 31.085938 36.617188 30.863281 C 36.671875 30.640625 36.65625 30.40625 36.574219 30.191406 C 36.492188 29.976562 36.347656 29.792969 36.15625 29.664062 C 35.96875 29.53125 35.742188 29.464844 35.515625 29.464844 "/>
</g>
</svg>
