<?xml version="1.0" encoding="UTF-8"?>
<svg xmlns="http://www.w3.org/2000/svg" xmlns:xlink="http://www.w3.org/1999/xlink" width="50px" height="50px" viewBox="0 0 50 50" version="1.1">
<defs>
<linearGradient id="linear0" gradientUnits="userSpaceOnUse" x1="3.6925" y1="33.564" x2="46.1985" y2="16.3905" >
<stop offset="0" style="stop-color:rgb(10.588235%,57.647059%,64.313725%);stop-opacity:1;"/>
<stop offset="1" style="stop-color:rgb(39.607843%,71.764706%,46.27451%);stop-opacity:1;"/>
</linearGradient>
</defs>
<g id="surface1">
<path style=" stroke:none;fill-rule:nonzero;fill:url(#linear0);" d="M 24.945312 47.894531 C 37.601562 47.894531 47.863281 37.632812 47.863281 24.976562 C 47.863281 12.320312 37.601562 2.0625 24.945312 2.0625 C 12.289062 2.0625 2.03125 12.320312 2.03125 24.976562 C 2.03125 37.632812 12.289062 47.894531 24.945312 47.894531 Z M 24.945312 47.894531 "/>
<path style=" stroke:none;fill-rule:nonzero;fill:rgb(100%,100%,100%);fill-opacity:1;" d="M 37.925781 33.449219 C 37.589844 33.964844 37.222656 34.460938 36.832031 34.929688 L 32.96875 32.410156 C 33.328125 32.019531 33.660156 31.601562 33.964844 31.164062 L 32.292969 30.199219 C 31.003906 32.011719 29.0625 33.328125 26.808594 33.804688 C 26.496094 33.382812 25.992188 33.109375 25.425781 33.109375 C 24.800781 33.109375 24.253906 33.445312 23.949219 33.945312 C 22.027344 33.730469 20.289062 32.914062 18.921875 31.6875 C 18.960938 31.542969 18.984375 31.390625 18.984375 31.234375 C 18.984375 30.28125 18.210938 29.503906 17.253906 29.503906 C 17.21875 29.503906 17.1875 29.507812 17.152344 29.511719 C 16.390625 28.199219 15.945312 26.675781 15.933594 25.054688 C 16.460938 24.757812 16.820312 24.191406 16.820312 23.542969 C 16.820312 23.074219 16.632812 22.648438 16.328125 22.335938 C 17.28125 19.242188 19.859375 16.851562 23.0625 16.171875 C 23.371094 16.449219 23.777344 16.621094 24.222656 16.621094 C 24.761719 16.621094 25.238281 16.375 25.554688 15.996094 C 26.976562 16.089844 28.304688 16.515625 29.472656 17.195312 C 29.542969 18.085938 30.289062 18.785156 31.195312 18.785156 C 31.285156 18.785156 31.371094 18.777344 31.457031 18.761719 C 31.757812 19.078125 32.039062 19.417969 32.292969 19.773438 L 33.960938 18.808594 C 33.632812 18.332031 33.269531 17.882812 32.875 17.464844 C 32.90625 17.332031 32.925781 17.195312 32.925781 17.054688 C 32.925781 16.859375 32.890625 16.675781 32.832031 16.5 L 36.234375 14.375 C 36.859375 15.039062 37.421875 15.757812 37.921875 16.523438 L 39.59375 15.558594 C 37.601562 12.476562 34.664062 10.058594 31.195312 8.722656 C 31.015625 7.960938 30.332031 7.390625 29.511719 7.390625 C 29.039062 7.390625 28.613281 7.578125 28.300781 7.886719 C 27.214844 7.671875 26.09375 7.558594 24.945312 7.558594 C 21.761719 7.558594 18.777344 8.421875 16.207031 9.917969 C 16.011719 9.839844 15.796875 9.792969 15.570312 9.792969 C 14.613281 9.792969 13.839844 10.570312 13.839844 11.527344 C 13.839844 11.539062 13.839844 11.550781 13.839844 11.566406 C 9.980469 14.765625 7.515625 19.59375 7.515625 24.988281 C 7.515625 25.988281 7.609375 26.972656 7.769531 27.929688 C 7.105469 28.167969 6.628906 28.804688 6.628906 29.554688 C 6.628906 30.511719 7.402344 31.285156 8.359375 31.285156 C 8.472656 31.285156 8.582031 31.273438 8.6875 31.253906 C 9.65625 33.761719 11.1875 35.988281 13.128906 37.78125 C 13.121094 37.84375 13.117188 37.90625 13.117188 37.96875 C 13.117188 38.925781 13.894531 39.699219 14.851562 39.699219 C 15.0625 39.699219 15.261719 39.660156 15.449219 39.589844 C 18.183594 41.375 21.445312 42.414062 24.945312 42.414062 C 25.808594 42.414062 26.65625 42.351562 27.488281 42.226562 C 27.804688 42.59375 28.273438 42.824219 28.792969 42.824219 C 29.601562 42.824219 30.28125 42.265625 30.46875 41.511719 C 34.253906 40.246094 37.464844 37.710938 39.59375 34.414062 L 37.925781 33.453125 Z M 30.523438 10.523438 C 32.476562 11.277344 34.238281 12.417969 35.714844 13.847656 L 32.464844 15.878906 C 32.148438 15.535156 31.699219 15.320312 31.195312 15.320312 C 31.160156 15.320312 31.121094 15.324219 31.085938 15.328125 L 30.1875 10.714844 C 30.308594 10.664062 30.421875 10.597656 30.523438 10.523438 Z M 28.371094 10.417969 C 28.667969 10.679688 29.054688 10.839844 29.480469 10.847656 L 30.382812 15.5 C 29 14.707031 27.429688 14.203125 25.753906 14.082031 C 25.722656 14.023438 25.691406 13.96875 25.65625 13.914062 Z M 17.300781 11.503906 C 19.558594 10.21875 22.167969 9.480469 24.945312 9.480469 C 25.960938 9.480469 26.949219 9.582031 27.910156 9.769531 C 27.914062 9.785156 27.921875 9.800781 27.929688 9.816406 L 25.128906 13.414062 C 24.867188 13.253906 24.554688 13.160156 24.226562 13.160156 C 23.589844 13.160156 23.035156 13.503906 22.734375 14.015625 L 17.25 11.941406 C 17.28125 11.804688 17.300781 11.667969 17.300781 11.523438 C 17.300781 11.519531 17.300781 11.511719 17.300781 11.503906 Z M 15.746094 13.246094 C 16.226562 13.199219 16.648438 12.953125 16.933594 12.589844 L 21.917969 14.476562 C 19.1875 15.265625 16.894531 17.089844 15.492188 19.496094 Z M 9.441406 24.984375 C 9.441406 20.238281 11.585938 15.988281 14.957031 13.140625 C 14.980469 13.148438 15.003906 13.160156 15.027344 13.167969 L 14.703125 21.15625 C 14.605469 21.414062 14.519531 21.675781 14.445312 21.9375 C 13.808594 22.195312 13.359375 22.816406 13.359375 23.542969 C 13.359375 23.832031 13.433594 24.105469 13.558594 24.34375 L 9.777344 28.1875 C 9.558594 27.152344 9.441406 26.082031 9.441406 24.988281 Z M 9.996094 28.992188 L 14.011719 24.914062 C 14.011719 24.9375 14.007812 24.960938 14.007812 24.988281 C 14.007812 27.03125 14.574219 28.945312 15.554688 30.585938 L 10.066406 29.273438 C 10.050781 29.175781 10.027344 29.082031 9.996094 28.992188 Z M 14.972656 36.242188 C 14.933594 36.238281 14.890625 36.234375 14.851562 36.234375 C 14.683594 36.234375 14.519531 36.261719 14.367188 36.304688 C 12.546875 34.605469 11.136719 32.472656 10.300781 30.070312 L 15.527344 31.320312 C 15.554688 31.914062 15.882812 32.429688 16.363281 32.71875 Z M 15.671875 36.441406 L 17.042969 32.953125 C 17.113281 32.960938 17.183594 32.964844 17.253906 32.964844 C 17.324219 32.964844 17.394531 32.960938 17.464844 32.953125 C 18.71875 34.132812 20.25 35.019531 21.953125 35.503906 L 16.3125 37.042969 C 16.152344 36.789062 15.933594 36.582031 15.671875 36.441406 Z M 27.246094 40.320312 C 26.496094 40.429688 25.726562 40.492188 24.945312 40.492188 C 21.867188 40.492188 18.992188 39.582031 16.578125 38.027344 C 16.578125 38.007812 16.582031 37.988281 16.582031 37.96875 C 16.582031 37.882812 16.574219 37.800781 16.5625 37.722656 L 23.507812 35.824219 C 23.6875 35.847656 23.867188 35.867188 24.046875 35.882812 C 24.363281 36.300781 24.863281 36.574219 25.425781 36.574219 C 25.558594 36.574219 25.6875 36.554688 25.8125 36.527344 L 27.707031 39.742188 C 27.515625 39.898438 27.359375 40.09375 27.246094 40.320312 Z M 28.792969 39.359375 C 28.640625 39.359375 28.492188 39.382812 28.351562 39.417969 L 26.46875 36.222656 C 26.640625 36.089844 26.789062 35.929688 26.902344 35.746094 C 28.265625 35.496094 29.546875 34.996094 30.6875 34.289062 L 29.007812 39.375 C 28.9375 39.367188 28.867188 39.359375 28.792969 39.359375 Z M 29.820312 39.703125 C 29.777344 39.667969 29.734375 39.640625 29.691406 39.613281 L 31.675781 33.601562 C 31.945312 33.390625 32.203125 33.167969 32.449219 32.933594 L 36.351562 35.476562 C 34.585938 37.394531 32.347656 38.863281 29.820312 39.703125 Z M 29.820312 39.703125 "/>
</g>
</svg>
