<svg width="50" height="50" viewBox="0 0 50 50" fill="none" xmlns="http://www.w3.org/2000/svg">
<path d="M24.9455 47.893C37.6017 47.893 47.8615 37.6332 47.8615 24.977C47.8615 12.3209 37.6017 2.06104 24.9455 2.06104C12.2893 2.06104 2.0295 12.3209 2.0295 24.977C2.0295 37.6332 12.2893 47.893 24.9455 47.893Z" fill="url(#paint0_linear_911_1652)"/>
<path d="M37.9255 33.4509C37.589 33.9654 37.2245 34.4599 36.8305 34.9294L32.968 32.4104C33.3295 32.0204 33.661 31.6029 33.9635 31.1634L32.2935 30.1994C31.003 32.0119 29.061 33.3299 26.8105 33.8054C26.495 33.3844 25.9935 33.1109 25.4265 33.1109C24.8 33.1109 24.2525 33.4449 23.949 33.9439C22.0285 33.7314 20.288 32.9144 18.923 31.6864C18.9615 31.5424 18.9845 31.3919 18.9845 31.2359C18.9845 30.2799 18.2095 29.5049 17.2535 29.5049C17.22 29.5049 17.187 29.5079 17.154 29.5099C16.389 28.1974 15.9455 26.6769 15.933 25.0544C16.4625 24.7584 16.8205 24.1929 16.8205 23.5434C16.8205 23.0739 16.6325 22.6484 16.329 22.3364C17.2825 19.2414 19.8605 16.8534 23.0635 16.1704C23.3705 16.4489 23.777 16.6204 24.2245 16.6204C24.7605 16.6204 25.239 16.3769 25.5565 15.9944C26.9765 16.0899 28.3065 16.5154 29.472 17.1954C29.5445 18.0849 30.2875 18.7844 31.1955 18.7844C31.2845 18.7844 31.3715 18.7754 31.457 18.7624C31.759 19.0784 32.0375 19.4164 32.2915 19.7734L33.9605 18.8099C33.633 18.3339 33.271 17.8829 32.8745 17.4649C32.9065 17.3329 32.9255 17.1954 32.9255 17.0539C32.9255 16.8599 32.892 16.6739 32.8335 16.4999L36.234 14.3749C36.858 15.0384 37.4225 15.7574 37.9235 16.5224L39.5945 15.5579C37.6025 12.4764 34.6645 10.0604 31.1955 8.72238C31.015 7.95938 30.331 7.39038 29.513 7.39038C29.041 7.39038 28.6135 7.57988 28.3015 7.88588C27.215 7.67288 26.0935 7.55838 24.9455 7.55838C21.7625 7.55838 18.7785 8.42038 16.208 9.91688C16.0105 9.83838 15.796 9.79438 15.5705 9.79438C14.6145 9.79438 13.8395 10.5694 13.8395 11.5254C13.8395 11.5389 13.841 11.5514 13.8415 11.5649C9.981 14.7644 7.5175 19.5934 7.5175 24.9869C7.5175 25.9894 7.6075 26.9714 7.7705 27.9284C7.1045 28.1694 6.628 28.8054 6.628 29.5544C6.628 30.5104 7.403 31.2854 8.359 31.2854C8.4715 31.2854 8.581 31.2739 8.6875 31.2534C9.657 33.7604 11.188 35.9889 13.129 37.7829C13.1225 37.8439 13.119 37.9059 13.119 37.9684C13.119 38.9244 13.894 39.6994 14.85 39.6994C15.0615 39.6994 15.263 39.6594 15.4505 39.5904C18.1845 41.3744 21.4455 42.4159 24.9465 42.4159C25.81 42.4159 26.658 42.3504 27.488 42.2284C27.8055 42.5929 28.2715 42.8244 28.7925 42.8244C29.6035 42.8244 30.282 42.2659 30.47 41.5134C34.255 40.2449 37.463 37.7094 39.5925 34.4154L37.926 33.4529L37.9255 33.4509ZM30.5245 10.5229C32.4765 11.2784 34.2375 12.4169 35.7165 13.8474L32.466 15.8789C32.15 15.5369 31.699 15.3219 31.1965 15.3219C31.159 15.3219 31.122 15.3254 31.085 15.3274L30.188 10.7144C30.308 10.6634 30.4205 10.5979 30.525 10.5224L30.5245 10.5229ZM28.3725 10.4194C28.669 10.6804 29.055 10.8409 29.479 10.8494L30.3835 15.5019C29.001 14.7064 27.43 14.2049 25.755 14.0814C25.7245 14.0239 25.691 13.9679 25.6545 13.9139L28.3725 10.4194ZM17.301 11.5054C19.559 10.2199 22.1675 9.48138 24.9465 9.48138C25.96 9.48138 26.95 9.58238 27.9095 9.76888C27.916 9.78438 27.9225 9.80038 27.929 9.81538L25.1285 13.4159C24.8655 13.2544 24.5565 13.1594 24.225 13.1594C23.589 13.1594 23.0345 13.5039 22.7335 14.0149L17.2495 11.9399C17.2825 11.8064 17.302 11.6679 17.302 11.5244C17.302 11.5179 17.301 11.5119 17.301 11.5054ZM15.7465 13.2464C16.228 13.1979 16.6495 12.9514 16.9325 12.5909L21.9195 14.4779C19.188 15.2659 16.894 17.0904 15.491 19.4979L15.746 13.2464H15.7465ZM9.4415 24.9859C9.4415 20.2399 11.587 15.9874 14.957 13.1409C14.9805 13.1499 15.004 13.1589 15.028 13.1669L14.702 21.1574C14.606 21.4134 14.521 21.6744 14.444 21.9394C13.8085 22.1959 13.36 22.8169 13.36 23.5439C13.36 23.8334 13.432 24.1054 13.5575 24.3454L9.7755 28.1869C9.558 27.1539 9.4415 26.0834 9.4415 24.9864V24.9859ZM9.9955 28.9909L14.011 24.9124C14.011 24.9369 14.009 24.9614 14.009 24.9864C14.009 27.0314 14.5745 28.9464 15.5555 30.5854L10.066 29.2719C10.05 29.1754 10.027 29.0819 9.9955 28.9914V28.9909ZM14.974 36.2424C14.933 36.2394 14.892 36.2359 14.8505 36.2359C14.6825 36.2359 14.5205 36.2609 14.367 36.3059C12.547 34.6039 11.138 32.4709 10.302 30.0699L15.5275 31.3204C15.556 31.9139 15.8825 32.4279 16.3615 32.7174L14.974 36.2429V36.2424ZM15.67 36.4424L17.0435 32.9524C17.1125 32.9609 17.1825 32.9664 17.254 32.9664C17.3255 32.9664 17.395 32.9609 17.464 32.9524C18.719 34.1319 20.251 35.0179 21.9515 35.5029L16.311 37.0414C16.152 36.7909 15.932 36.5834 15.67 36.4424ZM27.2455 40.3194C26.495 40.4314 25.7275 40.4909 24.9465 40.4909C21.8655 40.4909 18.994 39.5839 16.578 38.0284C16.5785 38.0079 16.581 37.9879 16.581 37.9669C16.581 37.8834 16.573 37.8014 16.5615 37.7209L23.509 35.8259C23.687 35.8494 23.8665 35.8684 24.0475 35.8834C24.3635 36.3014 24.863 36.5724 25.4275 36.5724C25.56 36.5724 25.688 36.5564 25.812 36.5279L27.708 39.7439C27.515 39.8994 27.3575 40.0954 27.2455 40.3189V40.3194ZM28.7925 39.3609C28.6405 39.3609 28.494 39.3824 28.353 39.4194L26.468 36.2219C26.6405 36.0914 26.7875 35.9299 26.901 35.7449C28.2675 35.4974 29.5465 34.9964 30.6865 34.2904L29.008 39.3754C28.937 39.3664 28.8655 39.3604 28.7925 39.3604V39.3609ZM29.8205 39.7014C29.778 39.6699 29.7345 39.6409 29.6895 39.6134L31.675 33.5999C31.9435 33.3894 32.202 33.1674 32.45 32.9334L36.351 35.4774C34.587 37.3934 32.347 38.8629 29.821 39.7019L29.8205 39.7014Z" fill="white"/>
<defs>
<linearGradient id="paint0_linear_911_1652" x1="3.6925" y1="33.564" x2="46.1985" y2="16.3905" gradientUnits="userSpaceOnUse">
<stop stop-color="#1B93A4"/>
<stop offset="1" stop-color="#65B776"/>
</linearGradient>
</defs>
</svg>
