<svg width="50" height="50" viewBox="0 0 50 50" fill="none" xmlns="http://www.w3.org/2000/svg">
<mask id="path-1-inside-1_513_676" fill="white">
<path d="M7.89999 0.17662C6.95999 0.446136 6.03999 1.25468 5.72999 2.07253C5.55999 2.53721 5.54999 3.32718 5.54999 18.8662V35.1766L5.80999 35.6971C6.34999 36.7658 7.31999 37.4257 8.51999 37.5186C9.03999 37.5651 9.17999 37.6209 9.34999 37.816C10.36 39.0335 12.6 40.6692 14.1 41.2733C14.35 41.3755 14.62 41.4963 14.71 41.5335C15.12 41.7473 17.06 42.3978 18 42.6394C18.58 42.7881 19.77 43.0298 20.65 43.1785C22.14 43.4201 22.44 43.4387 24.9 43.448C27.7 43.448 28.56 43.3736 30.59 42.974C33.57 42.3792 35.73 41.5707 37.85 40.2603C38.85 39.6469 40.47 38.29 40.77 37.816C40.93 37.5651 40.94 37.5651 42.29 37.5279C43.4 37.5 43.74 37.4536 44.12 37.2956C44.74 37.0354 45.46 36.4034 45.78 35.8272L46.05 35.3625V18.8197V2.27699L45.83 1.83089C45.52 1.20822 44.73 0.520485 44.05 0.288143C43.49 0.0929756 43.47 0.0929756 25.82 0.102268C16.1 0.102268 8.03999 0.139446 7.89999 0.17662ZM31.39 2.74168C31.28 3.62458 31.28 4.85134 31.39 5.00933C31.54 5.22309 31.92 5.00933 32.31 4.51677C32.63 4.09855 32.91 3.97773 33.06 4.20078C33.1 4.25655 33.03 4.37736 32.91 4.4703C32.63 4.68406 32.72 4.83275 33.13 4.83275C33.34 4.83275 33.58 4.73052 33.83 4.54465C34.03 4.38666 34.2 4.30301 34.2 4.34019C34.2 4.49818 33.65 4.9071 33.37 4.97216C33.07 5.04651 32.5 4.86993 32.5 4.71194C32.5 4.65617 32.35 4.74911 32.16 4.9164C31.74 5.29744 31.42 5.27885 31.19 4.86993C31.04 4.59112 31.03 4.58183 30.77 4.71194C30.62 4.77699 30.29 4.84205 30.03 4.85134C29.72 4.85134 29.51 4.9071 29.43 5.00933C29.33 5.13945 29.3 5.12086 29.24 4.86063C29.18 4.57253 29.16 4.56324 28.97 4.69335C28.7 4.86993 28.39 4.86993 28.15 4.70264C27.99 4.59112 27.91 4.60041 27.58 4.7584C27.16 4.96286 26.9 4.87922 26.9 4.55394C26.9 4.28443 27.18 4.14502 27.73 4.14502C28.24 4.14502 28.25 4.15432 28.22 4.39595C28.19 4.619 28.22 4.64688 28.47 4.64688C28.99 4.63758 29.1 4.4703 29.1 3.70822C29.1 2.87179 29.2 2.04465 29.3 2.04465C29.34 2.04465 29.35 2.60227 29.33 3.27142L29.27 4.50747L29.57 4.24725C29.73 4.10785 29.94 3.99632 30.03 3.99632C30.23 3.99632 30.42 4.30301 30.34 4.49818C30.26 4.69335 30.44 4.68406 30.8 4.49818C31.06 4.34948 31.07 4.31231 31.13 3.35506C31.2 2.29558 31.28 1.89595 31.4 2.01677C31.44 2.05394 31.44 2.37922 31.39 2.74168ZM22.4 3.94985C22.4 4.26584 22.52 4.37736 22.65 4.1822C22.74 4.05209 23.16 4.07067 23.28 4.21008C23.34 4.27513 23.36 4.42383 23.33 4.54465C23.27 4.74911 23.28 4.7584 23.56 4.619C23.72 4.54465 23.94 4.39595 24.04 4.28443C24.24 4.07996 24.55 4.0242 24.65 4.1822C24.75 4.34019 25.39 4.28443 25.68 4.08926C26 3.8848 26.5 3.74539 26.5 3.8755C26.5 3.93127 26.36 4.00562 26.18 4.05209C25.74 4.1729 25.73 4.30301 26.15 4.51677C26.34 4.60971 26.49 4.73052 26.47 4.78629C26.41 4.93498 25.94 5.0558 25.74 4.97216C25.58 4.89781 25.6 4.87922 25.88 4.85134C26.05 4.83275 26.2 4.78629 26.2 4.74911C26.2 4.62829 25.5 4.36807 25.15 4.36807C24.88 4.36807 24.81 4.40524 24.78 4.56324C24.76 4.67476 24.66 4.82346 24.54 4.89781C24.35 5.00933 24.3 5.00004 24.1 4.85134C23.89 4.69335 23.83 4.69335 23.46 4.80487C23.23 4.87922 22.92 4.9164 22.73 4.87922L22.4 4.82346V5.80859C22.4 6.44056 22.36 6.77513 22.3 6.73796C22.24 6.70078 22.2 6.24539 22.2 5.66919V4.65617L21.89 4.7584C21.63 4.84205 21.54 4.82346 21.29 4.65617C21.02 4.4703 20.99 4.46101 20.75 4.60971C20.47 4.77699 20.3 4.72123 20.3 4.45171C20.3 4.20078 20.19 4.22866 19.89 4.56324C19.62 4.87922 19.4 4.86993 19.4 4.54465C19.4 4.38666 19.34 4.35878 18.98 4.38666C18.63 4.40524 18.55 4.45171 18.5 4.63758C18.42 4.95357 18.05 5.06509 17.8 4.83275C17.69 4.73052 17.58 4.69335 17.55 4.73981C17.52 4.78629 17.31 4.86993 17.09 4.92569C16.76 5.00933 16.64 5.00004 16.44 4.87922C16.16 4.71194 16.12 4.35878 16.36 4.14502C16.53 3.97773 16.6 3.96844 16.84 4.05209C17.09 4.14502 17.02 4.28443 16.76 4.21937C16.58 4.1822 16.49 4.21937 16.4 4.36807C16.26 4.60971 16.42 4.83275 16.74 4.83275C16.99 4.83275 17.6 4.49818 17.78 4.26584C17.92 4.07996 18.25 4.0335 18.35 4.1822C18.38 4.22866 18.61 4.27513 18.85 4.27513C19.09 4.27513 19.32 4.22866 19.35 4.1822C19.45 4.0242 19.6 4.07996 19.6 4.27513C19.6 4.37736 19.62 4.46101 19.65 4.46101C19.68 4.46101 19.79 4.37736 19.9 4.27513C20.17 4.0242 20.37 4.04279 20.44 4.33089L20.51 4.58183L20.74 4.37736C21.03 4.12643 21.14 4.12643 21.28 4.41454C21.4 4.66547 21.68 4.71194 22.01 4.55394C22.15 4.4796 22.2 4.35878 22.2 4.04279C22.2 3.81045 22.25 3.62458 22.3 3.62458C22.36 3.62458 22.4 3.77327 22.4 3.94985ZM33.05 7.65803C34.1 7.91825 34.57 8.30859 34.45 8.81974C34.42 8.96844 34.3 9.16361 34.2 9.24725C34.01 9.40524 33.93 9.40524 32.54 9.24725C30.27 8.98703 29.05 9.12643 27.5 9.82346C26.23 10.3904 24.92 11.7751 24.33 13.1692L24.06 13.8012L24 17.751C23.97 19.9257 23.98 21.8402 24.02 22.0168C24.14 22.5744 24.4 22.7231 25.28 22.7324C25.7 22.7324 26.13 22.7696 26.22 22.8067C26.42 22.8904 26.8 23.5781 26.8 23.8662C26.8 24.1822 26.63 24.5168 26.4 24.6283C26.29 24.6841 25.64 24.777 24.97 24.8328C24.3 24.8885 23.72 24.9815 23.68 25.0372C23.64 25.093 23.6 25.3253 23.6 25.5577C23.6 26.1618 23.51 26.2361 22.78 26.2826C21.97 26.329 21.52 26.2175 21.26 25.9015C21.1 25.6971 21.07 25.5298 21.08 24.8792C21.11 23.7919 21.07 23.7547 19.8 23.6989C18.84 23.6525 18.76 23.6339 18.54 23.3922C18.26 23.0855 18.24 22.9276 18.46 22.7231C18.6 22.593 18.75 22.5837 19.36 22.6302C20.04 22.6952 20.1 22.6859 20.33 22.4722C20.49 22.3235 20.59 22.0911 20.63 21.7937C20.89 19.9443 20.98 16.8774 20.8 15.9759C20.69 15.4554 20.38 15.0558 19.87 14.8142C19.72 14.7398 18.73 14.4517 17.66 14.1729C15.14 13.5223 14.78 13.3458 14.36 12.5744C14.1 12.0911 14.14 10.8551 14.44 10.2696C14.84 9.48889 15.63 8.91268 16.79 8.55952C17.9 8.22495 18.47 8.22495 20.15 8.55022C21.88 8.8848 23.78 9.00562 24.81 8.83833C25.16 8.78257 26.08 8.55022 26.85 8.31788C27.62 8.08554 28.66 7.81602 29.15 7.71379C30.25 7.50933 32.32 7.47216 33.05 7.65803ZM33.05 9.72123C34.44 10.0093 35.74 10.7621 36.53 11.738C37.48 12.9183 37.42 13.6525 36.23 15.316C35.08 16.9331 33.31 17.8997 31.3 18.0019C30.22 18.0577 29.88 18.1878 29.71 18.5781C29.4 19.2473 30.12 19.6004 31.79 19.6097C33.38 19.6097 33.57 19.5447 34.71 18.5223C35.43 17.8811 35.76 17.658 36.03 17.6116C36.68 17.5 37.44 17.8532 37.78 18.4294C37.92 18.6803 37.95 18.9963 37.95 20.4926C37.95 22.4536 37.88 22.7974 37.39 23.1878C36.8 23.6432 35.88 23.3922 35.75 22.7417C35.71 22.5744 35.76 21.9145 35.84 21.264C36.05 19.7305 36.04 19.6376 35.75 19.3774C35.23 18.8848 34.74 19.2008 34.45 20.2231C34.29 20.7993 34.25 23.3829 34.39 24.303C34.47 24.8513 34.35 25.3811 34.09 25.6413C33.85 25.8736 33.64 25.8086 33.44 25.4461C33.31 25.2138 33.3 24.9443 33.35 23.8383C33.43 22.3792 33.34 21.8402 33 21.8402C32.9 21.8402 32.78 21.8867 32.74 21.9424C32.7 22.0075 32.67 22.9461 32.66 24.0335C32.65 25.7528 32.63 26.0409 32.48 26.171C32.09 26.5335 31.5 26.0038 31.48 25.2603C31.47 25.0372 31.49 24.2937 31.54 23.606C31.62 22.2026 31.53 21.8495 30.98 21.5614C30.73 21.4406 30.67 21.4406 30.44 21.5614C30.29 21.6357 30.08 21.8495 29.98 22.0261C29.81 22.3142 29.8 22.4443 29.87 23.0948C29.91 23.5038 29.95 24.3774 29.95 25.0465V26.2547L29.68 26.2826C29.49 26.3012 29.32 26.2361 29.14 26.0688L28.87 25.8179L28.94 24.4238C29.01 23.1785 29 23.0112 28.84 22.8532C28.6 22.6023 28.53 22.6302 28.4 23.0019C28.31 23.2621 28.31 23.5502 28.41 24.2844C28.55 25.3811 28.5 25.7064 28.14 25.8551C27.57 26.0967 27.42 25.4183 27.41 22.5744C27.4 20.7714 27.48 20.3067 27.95 19.3309C28.14 18.9313 28.3 18.5874 28.3 18.5595C28.3 18.5316 27.93 18.3272 27.49 18.1041C26.38 17.5651 25.59 16.8309 25.12 15.9108C24.78 15.2603 24.75 15.1302 24.75 14.4052C24.76 12.5744 25.83 11.0223 27.64 10.2324C29.17 9.55394 31.27 9.35878 33.05 9.72123ZM17.3 15.5112C18.11 15.7435 18.65 16.106 18.98 16.6264C19.25 17.0447 19.25 17.0725 19.25 18.7268C19.24 20.6785 19.2 20.79 18.31 21.422C17.55 21.961 17.45 22.1748 17.45 23.2807C17.45 23.7919 17.49 24.3309 17.53 24.4703C17.66 24.9164 18.36 25.5298 18.93 25.7064C19.64 25.9201 19.87 26.0781 20.15 26.5335C20.34 26.8309 20.4 27.0539 20.4 27.4815C20.4 28.0763 20.19 28.4573 19.56 28.9963C18.9 29.5539 18.61 30.5484 18.8 31.6264C18.91 32.2956 18.82 32.7231 18.48 33.0577C18.02 33.5131 17.22 33.2064 16.39 32.2305C15.57 31.2733 15.46 30.7714 15.77 29.396C15.97 28.4759 15.9 28.1599 15.29 27.4164C14.58 26.5428 14.62 26.8402 14.6 21.4591C14.59 18.7826 14.59 16.4313 14.59 16.2454C14.6 16.0223 14.69 15.8086 14.86 15.6227C15.11 15.3439 15.15 15.3346 15.9 15.3346C16.39 15.3346 16.91 15.3997 17.3 15.5112ZM30.66 26.9052C31.25 27.0632 32.34 27.5651 32.78 27.8811C33.01 28.0577 33.02 28.0484 33.62 27.6952C34.65 27.0725 35.76 26.7658 36.94 26.7658C37.92 26.7658 38.03 26.8216 37.97 27.2398C37.85 28.0484 37.07 29.2101 36.28 29.7398L35.9 30L36.47 30.2974C37.05 30.6041 38.4 31.7658 38.4 31.961C38.4 32.1376 37.52 32.593 36.85 32.7603C35.91 33.0019 34.64 32.9276 33.85 32.5837C33.52 32.4443 33.18 32.2677 33.09 32.1934C32.94 32.0725 32.86 32.0911 32.29 32.4257C31.94 32.6302 31.29 32.909 30.85 33.0577C30.12 33.29 29.93 33.3179 28.58 33.3179C27.78 33.3179 27.08 33.29 27.04 33.2528C27 33.2157 27.14 33.0112 27.35 32.7974C28.2 31.9238 28.39 30.8458 27.86 29.9443C27.47 29.2937 26.59 28.4108 26.14 28.2064C25.84 28.0763 25.6 28.0484 24.96 28.0948L24.15 28.1413L24.45 27.9183C24.88 27.5837 25.96 27.0911 26.66 26.896C27.82 26.58 29.46 26.58 30.66 26.9052ZM23.06 28.2064C23.44 28.3179 23.81 28.3365 24.7 28.29C25.83 28.2435 25.86 28.2435 26.25 28.4852C26.73 28.7826 27.56 29.7305 27.83 30.2881C28.33 31.329 27.48 32.8718 26.07 33.4945C25.01 33.9591 23.3 34.0428 22.06 33.6989C21.02 33.4015 20.11 32.6209 19.8 31.7473C19.4 30.6041 20.29 28.922 21.63 28.2993C22.22 28.0298 22.39 28.0205 23.06 28.2064Z"/>
</mask>
<path d="M7.89999 0.17662C6.95999 0.446136 6.03999 1.25468 5.72999 2.07253C5.55999 2.53721 5.54999 3.32718 5.54999 18.8662V35.1766L5.80999 35.6971C6.34999 36.7658 7.31999 37.4257 8.51999 37.5186C9.03999 37.5651 9.17999 37.6209 9.34999 37.816C10.36 39.0335 12.6 40.6692 14.1 41.2733C14.35 41.3755 14.62 41.4963 14.71 41.5335C15.12 41.7473 17.06 42.3978 18 42.6394C18.58 42.7881 19.77 43.0298 20.65 43.1785C22.14 43.4201 22.44 43.4387 24.9 43.448C27.7 43.448 28.56 43.3736 30.59 42.974C33.57 42.3792 35.73 41.5707 37.85 40.2603C38.85 39.6469 40.47 38.29 40.77 37.816C40.93 37.5651 40.94 37.5651 42.29 37.5279C43.4 37.5 43.74 37.4536 44.12 37.2956C44.74 37.0354 45.46 36.4034 45.78 35.8272L46.05 35.3625V18.8197V2.27699L45.83 1.83089C45.52 1.20822 44.73 0.520485 44.05 0.288143C43.49 0.0929756 43.47 0.0929756 25.82 0.102268C16.1 0.102268 8.03999 0.139446 7.89999 0.17662ZM31.39 2.74168C31.28 3.62458 31.28 4.85134 31.39 5.00933C31.54 5.22309 31.92 5.00933 32.31 4.51677C32.63 4.09855 32.91 3.97773 33.06 4.20078C33.1 4.25655 33.03 4.37736 32.91 4.4703C32.63 4.68406 32.72 4.83275 33.13 4.83275C33.34 4.83275 33.58 4.73052 33.83 4.54465C34.03 4.38666 34.2 4.30301 34.2 4.34019C34.2 4.49818 33.65 4.9071 33.37 4.97216C33.07 5.04651 32.5 4.86993 32.5 4.71194C32.5 4.65617 32.35 4.74911 32.16 4.9164C31.74 5.29744 31.42 5.27885 31.19 4.86993C31.04 4.59112 31.03 4.58183 30.77 4.71194C30.62 4.77699 30.29 4.84205 30.03 4.85134C29.72 4.85134 29.51 4.9071 29.43 5.00933C29.33 5.13945 29.3 5.12086 29.24 4.86063C29.18 4.57253 29.16 4.56324 28.97 4.69335C28.7 4.86993 28.39 4.86993 28.15 4.70264C27.99 4.59112 27.91 4.60041 27.58 4.7584C27.16 4.96286 26.9 4.87922 26.9 4.55394C26.9 4.28443 27.18 4.14502 27.73 4.14502C28.24 4.14502 28.25 4.15432 28.22 4.39595C28.19 4.619 28.22 4.64688 28.47 4.64688C28.99 4.63758 29.1 4.4703 29.1 3.70822C29.1 2.87179 29.2 2.04465 29.3 2.04465C29.34 2.04465 29.35 2.60227 29.33 3.27142L29.27 4.50747L29.57 4.24725C29.73 4.10785 29.94 3.99632 30.03 3.99632C30.23 3.99632 30.42 4.30301 30.34 4.49818C30.26 4.69335 30.44 4.68406 30.8 4.49818C31.06 4.34948 31.07 4.31231 31.13 3.35506C31.2 2.29558 31.28 1.89595 31.4 2.01677C31.44 2.05394 31.44 2.37922 31.39 2.74168ZM22.4 3.94985C22.4 4.26584 22.52 4.37736 22.65 4.1822C22.74 4.05209 23.16 4.07067 23.28 4.21008C23.34 4.27513 23.36 4.42383 23.33 4.54465C23.27 4.74911 23.28 4.7584 23.56 4.619C23.72 4.54465 23.94 4.39595 24.04 4.28443C24.24 4.07996 24.55 4.0242 24.65 4.1822C24.75 4.34019 25.39 4.28443 25.68 4.08926C26 3.8848 26.5 3.74539 26.5 3.8755C26.5 3.93127 26.36 4.00562 26.18 4.05209C25.74 4.1729 25.73 4.30301 26.15 4.51677C26.34 4.60971 26.49 4.73052 26.47 4.78629C26.41 4.93498 25.94 5.0558 25.74 4.97216C25.58 4.89781 25.6 4.87922 25.88 4.85134C26.05 4.83275 26.2 4.78629 26.2 4.74911C26.2 4.62829 25.5 4.36807 25.15 4.36807C24.88 4.36807 24.81 4.40524 24.78 4.56324C24.76 4.67476 24.66 4.82346 24.54 4.89781C24.35 5.00933 24.3 5.00004 24.1 4.85134C23.89 4.69335 23.83 4.69335 23.46 4.80487C23.23 4.87922 22.92 4.9164 22.73 4.87922L22.4 4.82346V5.80859C22.4 6.44056 22.36 6.77513 22.3 6.73796C22.24 6.70078 22.2 6.24539 22.2 5.66919V4.65617L21.89 4.7584C21.63 4.84205 21.54 4.82346 21.29 4.65617C21.02 4.4703 20.99 4.46101 20.75 4.60971C20.47 4.77699 20.3 4.72123 20.3 4.45171C20.3 4.20078 20.19 4.22866 19.89 4.56324C19.62 4.87922 19.4 4.86993 19.4 4.54465C19.4 4.38666 19.34 4.35878 18.98 4.38666C18.63 4.40524 18.55 4.45171 18.5 4.63758C18.42 4.95357 18.05 5.06509 17.8 4.83275C17.69 4.73052 17.58 4.69335 17.55 4.73981C17.52 4.78629 17.31 4.86993 17.09 4.92569C16.76 5.00933 16.64 5.00004 16.44 4.87922C16.16 4.71194 16.12 4.35878 16.36 4.14502C16.53 3.97773 16.6 3.96844 16.84 4.05209C17.09 4.14502 17.02 4.28443 16.76 4.21937C16.58 4.1822 16.49 4.21937 16.4 4.36807C16.26 4.60971 16.42 4.83275 16.74 4.83275C16.99 4.83275 17.6 4.49818 17.78 4.26584C17.92 4.07996 18.25 4.0335 18.35 4.1822C18.38 4.22866 18.61 4.27513 18.85 4.27513C19.09 4.27513 19.32 4.22866 19.35 4.1822C19.45 4.0242 19.6 4.07996 19.6 4.27513C19.6 4.37736 19.62 4.46101 19.65 4.46101C19.68 4.46101 19.79 4.37736 19.9 4.27513C20.17 4.0242 20.37 4.04279 20.44 4.33089L20.51 4.58183L20.74 4.37736C21.03 4.12643 21.14 4.12643 21.28 4.41454C21.4 4.66547 21.68 4.71194 22.01 4.55394C22.15 4.4796 22.2 4.35878 22.2 4.04279C22.2 3.81045 22.25 3.62458 22.3 3.62458C22.36 3.62458 22.4 3.77327 22.4 3.94985ZM33.05 7.65803C34.1 7.91825 34.57 8.30859 34.45 8.81974C34.42 8.96844 34.3 9.16361 34.2 9.24725C34.01 9.40524 33.93 9.40524 32.54 9.24725C30.27 8.98703 29.05 9.12643 27.5 9.82346C26.23 10.3904 24.92 11.7751 24.33 13.1692L24.06 13.8012L24 17.751C23.97 19.9257 23.98 21.8402 24.02 22.0168C24.14 22.5744 24.4 22.7231 25.28 22.7324C25.7 22.7324 26.13 22.7696 26.22 22.8067C26.42 22.8904 26.8 23.5781 26.8 23.8662C26.8 24.1822 26.63 24.5168 26.4 24.6283C26.29 24.6841 25.64 24.777 24.97 24.8328C24.3 24.8885 23.72 24.9815 23.68 25.0372C23.64 25.093 23.6 25.3253 23.6 25.5577C23.6 26.1618 23.51 26.2361 22.78 26.2826C21.97 26.329 21.52 26.2175 21.26 25.9015C21.1 25.6971 21.07 25.5298 21.08 24.8792C21.11 23.7919 21.07 23.7547 19.8 23.6989C18.84 23.6525 18.76 23.6339 18.54 23.3922C18.26 23.0855 18.24 22.9276 18.46 22.7231C18.6 22.593 18.75 22.5837 19.36 22.6302C20.04 22.6952 20.1 22.6859 20.33 22.4722C20.49 22.3235 20.59 22.0911 20.63 21.7937C20.89 19.9443 20.98 16.8774 20.8 15.9759C20.69 15.4554 20.38 15.0558 19.87 14.8142C19.72 14.7398 18.73 14.4517 17.66 14.1729C15.14 13.5223 14.78 13.3458 14.36 12.5744C14.1 12.0911 14.14 10.8551 14.44 10.2696C14.84 9.48889 15.63 8.91268 16.79 8.55952C17.9 8.22495 18.47 8.22495 20.15 8.55022C21.88 8.8848 23.78 9.00562 24.81 8.83833C25.16 8.78257 26.08 8.55022 26.85 8.31788C27.62 8.08554 28.66 7.81602 29.15 7.71379C30.25 7.50933 32.32 7.47216 33.05 7.65803ZM33.05 9.72123C34.44 10.0093 35.74 10.7621 36.53 11.738C37.48 12.9183 37.42 13.6525 36.23 15.316C35.08 16.9331 33.31 17.8997 31.3 18.0019C30.22 18.0577 29.88 18.1878 29.71 18.5781C29.4 19.2473 30.12 19.6004 31.79 19.6097C33.38 19.6097 33.57 19.5447 34.71 18.5223C35.43 17.8811 35.76 17.658 36.03 17.6116C36.68 17.5 37.44 17.8532 37.78 18.4294C37.92 18.6803 37.95 18.9963 37.95 20.4926C37.95 22.4536 37.88 22.7974 37.39 23.1878C36.8 23.6432 35.88 23.3922 35.75 22.7417C35.71 22.5744 35.76 21.9145 35.84 21.264C36.05 19.7305 36.04 19.6376 35.75 19.3774C35.23 18.8848 34.74 19.2008 34.45 20.2231C34.29 20.7993 34.25 23.3829 34.39 24.303C34.47 24.8513 34.35 25.3811 34.09 25.6413C33.85 25.8736 33.64 25.8086 33.44 25.4461C33.31 25.2138 33.3 24.9443 33.35 23.8383C33.43 22.3792 33.34 21.8402 33 21.8402C32.9 21.8402 32.78 21.8867 32.74 21.9424C32.7 22.0075 32.67 22.9461 32.66 24.0335C32.65 25.7528 32.63 26.0409 32.48 26.171C32.09 26.5335 31.5 26.0038 31.48 25.2603C31.47 25.0372 31.49 24.2937 31.54 23.606C31.62 22.2026 31.53 21.8495 30.98 21.5614C30.73 21.4406 30.67 21.4406 30.44 21.5614C30.29 21.6357 30.08 21.8495 29.98 22.0261C29.81 22.3142 29.8 22.4443 29.87 23.0948C29.91 23.5038 29.95 24.3774 29.95 25.0465V26.2547L29.68 26.2826C29.49 26.3012 29.32 26.2361 29.14 26.0688L28.87 25.8179L28.94 24.4238C29.01 23.1785 29 23.0112 28.84 22.8532C28.6 22.6023 28.53 22.6302 28.4 23.0019C28.31 23.2621 28.31 23.5502 28.41 24.2844C28.55 25.3811 28.5 25.7064 28.14 25.8551C27.57 26.0967 27.42 25.4183 27.41 22.5744C27.4 20.7714 27.48 20.3067 27.95 19.3309C28.14 18.9313 28.3 18.5874 28.3 18.5595C28.3 18.5316 27.93 18.3272 27.49 18.1041C26.38 17.5651 25.59 16.8309 25.12 15.9108C24.78 15.2603 24.75 15.1302 24.75 14.4052C24.76 12.5744 25.83 11.0223 27.64 10.2324C29.17 9.55394 31.27 9.35878 33.05 9.72123ZM17.3 15.5112C18.11 15.7435 18.65 16.106 18.98 16.6264C19.25 17.0447 19.25 17.0725 19.25 18.7268C19.24 20.6785 19.2 20.79 18.31 21.422C17.55 21.961 17.45 22.1748 17.45 23.2807C17.45 23.7919 17.49 24.3309 17.53 24.4703C17.66 24.9164 18.36 25.5298 18.93 25.7064C19.64 25.9201 19.87 26.0781 20.15 26.5335C20.34 26.8309 20.4 27.0539 20.4 27.4815C20.4 28.0763 20.19 28.4573 19.56 28.9963C18.9 29.5539 18.61 30.5484 18.8 31.6264C18.91 32.2956 18.82 32.7231 18.48 33.0577C18.02 33.5131 17.22 33.2064 16.39 32.2305C15.57 31.2733 15.46 30.7714 15.77 29.396C15.97 28.4759 15.9 28.1599 15.29 27.4164C14.58 26.5428 14.62 26.8402 14.6 21.4591C14.59 18.7826 14.59 16.4313 14.59 16.2454C14.6 16.0223 14.69 15.8086 14.86 15.6227C15.11 15.3439 15.15 15.3346 15.9 15.3346C16.39 15.3346 16.91 15.3997 17.3 15.5112ZM30.66 26.9052C31.25 27.0632 32.34 27.5651 32.78 27.8811C33.01 28.0577 33.02 28.0484 33.62 27.6952C34.65 27.0725 35.76 26.7658 36.94 26.7658C37.92 26.7658 38.03 26.8216 37.97 27.2398C37.85 28.0484 37.07 29.2101 36.28 29.7398L35.9 30L36.47 30.2974C37.05 30.6041 38.4 31.7658 38.4 31.961C38.4 32.1376 37.52 32.593 36.85 32.7603C35.91 33.0019 34.64 32.9276 33.85 32.5837C33.52 32.4443 33.18 32.2677 33.09 32.1934C32.94 32.0725 32.86 32.0911 32.29 32.4257C31.94 32.6302 31.29 32.909 30.85 33.0577C30.12 33.29 29.93 33.3179 28.58 33.3179C27.78 33.3179 27.08 33.29 27.04 33.2528C27 33.2157 27.14 33.0112 27.35 32.7974C28.2 31.9238 28.39 30.8458 27.86 29.9443C27.47 29.2937 26.59 28.4108 26.14 28.2064C25.84 28.0763 25.6 28.0484 24.96 28.0948L24.15 28.1413L24.45 27.9183C24.88 27.5837 25.96 27.0911 26.66 26.896C27.82 26.58 29.46 26.58 30.66 26.9052ZM23.06 28.2064C23.44 28.3179 23.81 28.3365 24.7 28.29C25.83 28.2435 25.86 28.2435 26.25 28.4852C26.73 28.7826 27.56 29.7305 27.83 30.2881C28.33 31.329 27.48 32.8718 26.07 33.4945C25.01 33.9591 23.3 34.0428 22.06 33.6989C21.02 33.4015 20.11 32.6209 19.8 31.7473C19.4 30.6041 20.29 28.922 21.63 28.2993C22.22 28.0298 22.39 28.0205 23.06 28.2064Z" stroke="white" mask="url(#path-1-inside-1_513_676)"/>
<path d="M29.81 4.33095C29.56 4.61905 29.54 4.73987 29.75 4.73987C29.96 4.73987 30.26 4.29377 30.13 4.17295C30.06 4.1079 29.96 4.15437 29.81 4.33095Z" fill="black"/>
<path d="M32.7 4.32165C32.62 4.4053 32.62 4.46106 32.68 4.46106C32.8 4.46106 32.94 4.28448 32.87 4.21942C32.85 4.20084 32.77 4.23801 32.7 4.32165Z" fill="black"/>
<path d="M27.19 4.45178C27.06 4.55401 26.98 4.66553 27.02 4.69341C27.11 4.77705 27.65 4.58189 27.81 4.40531C27.99 4.20085 27.47 4.23802 27.19 4.45178Z" fill="black"/>
<path d="M22.72 4.396C22.44 4.67481 22.44 4.73987 22.75 4.73987C23 4.73987 23.26 4.44247 23.15 4.27518C23.06 4.13578 22.95 4.16366 22.72 4.396Z" fill="black"/>
<path d="M17.91 4.44241C17.86 4.53534 17.85 4.66545 17.9 4.73051C18.01 4.90709 18.3 4.78627 18.3 4.56322C18.3 4.32159 18.03 4.23794 17.91 4.44241Z" fill="black"/>
<path d="M24.15 4.47035C24.07 4.70269 24.22 4.87927 24.44 4.80492C24.65 4.73058 24.65 4.4053 24.44 4.33095C24.22 4.2566 24.22 4.2566 24.15 4.47035Z" fill="black"/>
<path d="M28.6 11.5799C28.6 11.9609 28.58 12.0074 28.29 12.1004C28.12 12.1561 27.78 12.2955 27.54 12.4163L27.11 12.6301L26.93 12.4163C26.83 12.2955 26.7 12.1189 26.63 12.026C26.53 11.8587 26.51 11.8587 26.35 11.9981C26.19 12.1468 26.19 12.1747 26.44 12.5093L26.7 12.8717L26.15 13.3829C25.46 14.0334 25.43 14.2565 26.01 14.7119C26.6 15.1859 27.67 15.6784 28.57 15.9015C30.05 16.2732 32.25 16.1245 32.73 15.632C32.89 15.4647 32.89 15.4461 32.74 15.3346C32.61 15.2323 32.5 15.2323 32.12 15.3253C30.85 15.6598 29.97 15.6691 28.73 15.381C28.05 15.2137 26.88 14.6933 26.45 14.3587L26.15 14.1171L26.64 13.6989C27.09 13.3085 27.14 13.2899 27.31 13.4386C27.48 13.578 27.47 13.5966 27.17 13.8569L26.85 14.1264L27.1 14.3122C27.41 14.5353 28.46 15.0186 28.8 15.1022C29.05 15.158 29.05 15.1487 28.78 15.0093C28.43 14.8234 28.3 14.6004 28.3 14.1543C28.3 13.7825 28.6 13.2249 28.85 13.1412C28.93 13.1041 29 12.974 29 12.8253C29 12.5464 29.19 12.4535 29.75 12.4535C30.24 12.4535 30.32 12.5557 30.1 12.8717C29.91 13.1412 29.91 13.1505 30.11 13.3457C30.34 13.5688 30.46 14.1636 30.36 14.5446C30.32 14.6747 30.15 14.8699 29.97 14.9721L29.65 15.1673L30.35 15.1208C31.25 15.065 32.09 14.7676 32.61 14.3122C33.2 13.8011 33.53 13.7546 33.93 14.1078C34.58 14.684 35.17 14.4052 34.54 13.8197L34.28 13.578L34.54 13.513C34.82 13.4479 34.84 13.4108 34.71 13.2063C34.63 13.0948 34.55 13.0855 34.24 13.1784C33.89 13.2807 33.82 13.2621 33.38 13.0018C32.9 12.7137 32.82 12.6022 33 12.5C33.15 12.4163 33.12 12.2026 32.94 12.1375C32.84 12.1004 32.71 12.1561 32.61 12.2769L32.44 12.4814L31.76 12.2676L31.09 12.0632L31.16 11.7472C31.21 11.4684 31.2 11.4312 31.02 11.4312C30.89 11.4312 30.78 11.5241 30.72 11.6821C30.63 11.9424 30.62 11.9424 29.82 11.9424H29V11.5427C29 11.2175 28.97 11.1524 28.8 11.1524C28.63 11.1524 28.6 11.2175 28.6 11.5799ZM28.56 12.7881C28.53 12.8717 28.5 12.9925 28.5 13.0669C28.5 13.1412 28.38 13.2435 28.23 13.2992C28.01 13.3736 27.93 13.355 27.77 13.2063C27.58 13.0297 27.58 13.0297 27.96 12.8346C28.44 12.6022 28.64 12.5836 28.56 12.7881ZM31.64 12.816C31.88 12.9089 31.9 12.9461 31.79 13.0669C31.55 13.3364 31.32 13.3922 30.9 13.2899C30.45 13.1784 30.46 13.197 30.62 12.8624C30.72 12.658 30.79 12.6301 31.05 12.6673C31.21 12.6951 31.48 12.7602 31.64 12.816ZM32.94 13.4108C33.12 13.5316 33.1 13.5502 32.61 13.6617C32.2 13.7546 32.06 13.7546 31.97 13.6617C31.88 13.578 31.92 13.5037 32.13 13.3271C32.42 13.0948 32.5 13.1041 32.94 13.4108Z" fill="white"/>
<path d="M22.07 28.9033C21.37 29.0985 20.38 29.9164 20.18 30.4833C20.06 30.7993 20.28 30.948 20.88 30.948C21.19 30.948 21.81 31.0316 22.25 31.1338C22.69 31.2361 23.32 31.3197 23.64 31.3197C24.32 31.3197 26 30.9572 26.07 30.7993C26.14 30.6227 25.53 29.6004 25.2 29.3309C24.79 29.0149 24.52 28.9591 23.74 29.0335C23.26 29.0799 23.03 29.0613 22.81 28.9498C22.48 28.7918 22.47 28.7918 22.07 28.9033Z" fill="white"/>
<path d="M24.9 31.3198C23.88 31.645 23.75 31.645 22.35 31.422C20.81 31.1711 20.22 31.1153 20.16 31.2175C20.04 31.3941 20.32 31.8216 20.98 32.4536C21.35 32.816 21.78 33.1692 21.93 33.2435C22.33 33.4387 23.84 33.448 24.3 33.2528C24.68 33.1041 25.66 32.2119 25.88 31.8216C26.03 31.5614 26.01 31.1153 25.85 31.0781C25.8 31.0595 25.37 31.1711 24.9 31.3198Z" fill="white"/>
</svg>
