<svg width="50" height="50" viewBox="0 0 50 50" fill="none" xmlns="http://www.w3.org/2000/svg">
<g clip-path="url(#clip0_916_1823)">
<mask id="mask0_916_1823" style="mask-type:luminance" maskUnits="userSpaceOnUse" x="0" y="0" width="50" height="50">
<path d="M50 0H0V50H50V0Z" fill="white"/>
</mask>
<g mask="url(#mask0_916_1823)">
<path d="M50 25C50 11.1929 38.8071 0 25 0C11.1929 0 0 11.1929 0 25C0 38.8071 11.1929 50 25 50C38.8071 50 50 38.8071 50 25Z" fill="#25D695"/>
<path d="M25.0001 21C24.2089 21 23.4356 21.2346 22.7778 21.6741C22.12 22.1136 21.6073 22.7384 21.3045 23.4693C21.0018 24.2002 20.9226 25.0044 21.0769 25.7804C21.2313 26.5563 21.6122 27.269 22.1716 27.8284C22.731 28.3878 23.4438 28.7688 24.2197 28.9231C24.9956 29.0775 25.7999 28.9983 26.5308 28.6955C27.2617 28.3928 27.8864 27.8801 28.3259 27.2223C28.7655 26.5645 29.0001 25.7911 29.0001 25C29.0001 23.9391 28.5786 22.9217 27.8285 22.1716C27.0783 21.4214 26.0609 21 25.0001 21Z" fill="white"/>
<path d="M25 9.00001C22.8985 8.99742 20.8171 9.41007 18.8755 10.2142C16.9339 11.0184 15.1703 12.1982 13.686 13.686L19.346 19.346C20.4645 18.2264 21.89 17.4636 23.442 17.1543C24.9941 16.845 26.603 17.0029 28.0653 17.6082C29.5276 18.2135 30.7775 19.2388 31.6569 20.5546C32.5363 21.8704 33.0057 23.4174 33.0057 25C33.0057 26.5826 32.5363 28.1296 31.6569 29.4454C30.7775 30.7612 29.5276 31.7865 28.0653 32.3918C26.603 32.9971 24.9941 33.155 23.442 32.8457C21.89 32.5364 20.4645 31.7736 19.346 30.654L13.686 36.314C15.5466 38.1745 17.8373 39.5474 20.3551 40.3111C22.873 41.0749 25.5404 41.2059 28.121 40.6925C30.7016 40.1792 33.1158 39.0373 35.1498 37.3681C37.1837 35.6989 38.7745 33.5539 39.7815 31.123C40.7884 28.6921 41.1803 26.0504 40.9224 23.4319C40.6645 20.8134 39.7649 18.2989 38.3031 16.1112C36.8414 13.9234 34.8626 12.1299 32.5422 10.8895C30.2217 9.64909 27.6312 9.00011 25 9.00001Z" fill="white"/>
</g>
</g>
<defs>
<clipPath id="clip0_916_1823">
<rect width="50" height="50" fill="white"/>
</clipPath>
</defs>
</svg>
