<?xml version="1.0" encoding="UTF-8"?>
<svg xmlns="http://www.w3.org/2000/svg" xmlns:xlink="http://www.w3.org/1999/xlink" width="50px" height="50px" viewBox="0 0 50 50" version="1.1">
<defs>
<filter id="alpha" filterUnits="objectBoundingBox" x="0%" y="0%" width="100%" height="100%">
  <feColorMatrix type="matrix" in="SourceGraphic" values="0 0 0 0 1 0 0 0 0 1 0 0 0 0 1 0 0 0 1 0"/>
</filter>
<mask id="mask0">
  <g filter="url(#alpha)">
<rect x="0" y="0" width="50" height="50" style="fill:rgb(0%,0%,0%);fill-opacity:0.670588;stroke:none;"/>
  </g>
</mask>
<clipPath id="clip1">
  <rect x="0" y="0" width="50" height="50"/>
</clipPath>
<g id="surface5" clip-path="url(#clip1)">
<path style=" stroke:none;fill-rule:evenodd;fill:rgb(100%,100%,100%);fill-opacity:1;" d="M 25.390625 4.316406 C 25.195312 4.132812 25.089844 4.128906 25.074219 4.128906 C 25.058594 4.128906 24.953125 4.132812 24.757812 4.316406 C 24.554688 4.503906 24.308594 4.828125 24.046875 5.324219 C 23.523438 6.320312 23.023438 7.824219 22.59375 9.765625 C 22.105469 11.945312 21.722656 14.613281 21.480469 17.597656 C 22.652344 18.164062 23.851562 18.78125 25.074219 19.4375 C 26.296875 18.777344 27.496094 18.164062 28.667969 17.597656 C 28.425781 14.613281 28.042969 11.945312 27.554688 9.765625 C 27.125 7.824219 26.625 6.320312 26.101562 5.324219 C 25.839844 4.828125 25.59375 4.503906 25.390625 4.316406 Z M 24.050781 20 C 23.152344 19.523438 22.269531 19.070312 21.402344 18.648438 C 21.339844 19.609375 21.289062 20.597656 21.25 21.613281 C 21.710938 21.339844 22.175781 21.066406 22.644531 20.796875 C 23.117188 20.523438 23.585938 20.257812 24.050781 20 Z M 20.539062 17.152344 C 21.242188 8.964844 23.007812 3.152344 25.074219 3.152344 C 27.140625 3.152344 28.90625 8.964844 29.609375 17.152344 C 37.054688 13.664062 42.972656 12.289062 44.003906 14.078125 C 45.039062 15.867188 40.886719 20.300781 34.144531 25 C 40.886719 29.699219 45.039062 34.132812 44.003906 35.921875 C 42.972656 37.710938 37.054688 36.335938 29.609375 32.847656 C 28.90625 41.035156 27.140625 46.847656 25.074219 46.847656 C 23.007812 46.847656 21.242188 41.035156 20.539062 32.847656 C 13.09375 36.335938 7.175781 37.710938 6.140625 35.921875 C 5.109375 34.132812 9.261719 29.699219 16.003906 25 C 9.261719 20.300781 5.109375 15.867188 6.140625 14.078125 C 7.175781 12.289062 13.09375 13.664062 20.539062 17.152344 Z M 16.863281 24.410156 C 14.398438 22.707031 12.277344 21.039062 10.628906 19.527344 C 9.164062 18.183594 8.109375 17 7.511719 16.050781 C 7.210938 15.574219 7.050781 15.203125 6.992188 14.933594 C 6.929688 14.667969 6.980469 14.578125 6.988281 14.566406 C 6.996094 14.550781 7.050781 14.464844 7.308594 14.382812 C 7.570312 14.300781 7.972656 14.253906 8.535156 14.273438 C 9.660156 14.320312 11.214844 14.636719 13.113281 15.234375 C 15.246094 15.90625 17.75 16.90625 20.457031 18.191406 C 20.363281 19.484375 20.292969 20.832031 20.253906 22.21875 C 19.074219 22.945312 17.9375 23.679688 16.863281 24.410156 Z M 16.863281 25.589844 C 14.398438 27.292969 12.277344 28.960938 10.628906 30.472656 C 9.164062 31.816406 8.109375 33 7.511719 33.949219 C 7.210938 34.425781 7.050781 34.796875 6.992188 35.066406 C 6.929688 35.332031 6.980469 35.421875 6.988281 35.433594 C 6.996094 35.449219 7.050781 35.535156 7.308594 35.617188 C 7.570312 35.699219 7.972656 35.746094 8.535156 35.726562 C 9.660156 35.679688 11.214844 35.363281 13.113281 34.765625 C 15.246094 34.09375 17.75 33.09375 20.457031 31.808594 C 20.363281 30.515625 20.292969 29.167969 20.253906 27.78125 C 19.074219 27.054688 17.9375 26.320312 16.863281 25.589844 Z M 20.230469 26.617188 C 19.367188 26.078125 18.535156 25.539062 17.734375 25 C 18.535156 24.460938 19.367188 23.921875 20.230469 23.382812 C 20.222656 23.917969 20.214844 24.457031 20.214844 25 C 20.214844 25.542969 20.222656 26.082031 20.230469 26.617188 Z M 21.21875 27.222656 C 21.203125 26.492188 21.191406 25.75 21.191406 25 C 21.191406 24.25 21.203125 23.507812 21.21875 22.777344 C 21.84375 22.394531 22.480469 22.015625 23.132812 21.640625 C 23.785156 21.265625 24.433594 20.902344 25.074219 20.550781 C 25.714844 20.902344 26.363281 21.265625 27.015625 21.640625 C 27.667969 22.015625 28.304688 22.394531 28.929688 22.777344 C 28.945312 23.507812 28.957031 24.25 28.957031 25 C 28.957031 25.75 28.945312 26.492188 28.929688 27.222656 C 28.304688 27.605469 27.667969 27.984375 27.015625 28.359375 C 26.363281 28.734375 25.714844 29.097656 25.074219 29.449219 C 24.433594 29.097656 23.785156 28.734375 23.132812 28.359375 C 22.480469 27.984375 21.84375 27.605469 21.21875 27.222656 Z M 21.25 28.386719 C 21.289062 29.402344 21.339844 30.390625 21.402344 31.351562 C 22.269531 30.929688 23.152344 30.476562 24.050781 30 C 23.585938 29.742188 23.117188 29.476562 22.644531 29.203125 C 22.175781 28.933594 21.710938 28.660156 21.25 28.386719 Z M 25.074219 30.5625 C 23.851562 31.21875 22.652344 31.835938 21.480469 32.402344 C 21.722656 35.386719 22.105469 38.054688 22.59375 40.234375 C 23.023438 42.175781 23.523438 43.679688 24.046875 44.675781 C 24.308594 45.171875 24.554688 45.496094 24.757812 45.683594 C 24.953125 45.867188 25.058594 45.871094 25.074219 45.871094 C 25.089844 45.871094 25.195312 45.867188 25.390625 45.683594 C 25.59375 45.496094 25.839844 45.171875 26.101562 44.675781 C 26.625 43.679688 27.125 42.175781 27.554688 40.234375 C 28.042969 38.054688 28.425781 35.386719 28.667969 32.402344 C 27.496094 31.835938 26.296875 31.222656 25.074219 30.5625 Z M 29.691406 31.808594 C 32.398438 33.09375 34.902344 34.09375 37.035156 34.765625 C 38.933594 35.363281 40.488281 35.679688 41.609375 35.726562 C 42.175781 35.746094 42.574219 35.699219 42.839844 35.617188 C 43.097656 35.535156 43.152344 35.449219 43.160156 35.433594 C 43.167969 35.421875 43.214844 35.332031 43.15625 35.066406 C 43.097656 34.796875 42.9375 34.425781 42.636719 33.949219 C 42.035156 33 40.984375 31.816406 39.519531 30.472656 C 37.871094 28.960938 35.75 27.292969 33.28125 25.589844 C 32.210938 26.320312 31.074219 27.050781 29.894531 27.78125 C 29.855469 29.167969 29.785156 30.515625 29.691406 31.808594 Z M 33.28125 24.410156 C 35.75 22.707031 37.871094 21.039062 39.519531 19.527344 C 40.984375 18.183594 42.035156 17 42.636719 16.050781 C 42.9375 15.574219 43.097656 15.203125 43.15625 14.933594 C 43.214844 14.667969 43.167969 14.578125 43.160156 14.566406 C 43.152344 14.550781 43.097656 14.464844 42.839844 14.382812 C 42.574219 14.300781 42.175781 14.253906 41.609375 14.273438 C 40.488281 14.320312 38.933594 14.636719 37.035156 15.234375 C 34.902344 15.90625 32.398438 16.90625 29.691406 18.191406 C 29.785156 19.484375 29.855469 20.832031 29.894531 22.21875 C 31.074219 22.949219 32.210938 23.679688 33.28125 24.410156 Z M 29.917969 23.382812 C 30.78125 23.921875 31.613281 24.460938 32.414062 25 C 31.613281 25.539062 30.78125 26.078125 29.917969 26.617188 C 29.925781 26.082031 29.933594 25.542969 29.933594 25 C 29.933594 24.457031 29.925781 23.917969 29.917969 23.382812 Z M 28.898438 21.613281 C 28.859375 20.597656 28.808594 19.609375 28.746094 18.648438 C 27.878906 19.070312 26.992188 19.523438 26.097656 20 C 26.5625 20.257812 27.03125 20.523438 27.503906 20.796875 C 27.972656 21.066406 28.4375 21.339844 28.898438 21.613281 Z M 28.746094 31.351562 C 27.878906 30.929688 26.992188 30.476562 26.097656 30 C 26.5625 29.742188 27.03125 29.476562 27.503906 29.203125 C 27.972656 28.933594 28.4375 28.660156 28.898438 28.386719 C 28.859375 29.398438 28.808594 30.390625 28.746094 31.351562 Z M 28.746094 31.351562 "/>
</g>
</defs>
<g id="surface1">
<path style=" stroke:none;fill-rule:evenodd;fill:rgb(9.019608%,9.019608%,9.019608%);fill-opacity:1;" d="M 25 0.046875 C 38.78125 0.046875 49.953125 11.21875 49.953125 25 C 49.953125 38.78125 38.78125 49.953125 25 49.953125 C 11.21875 49.953125 0.046875 38.78125 0.046875 25 C 0.046875 11.21875 11.21875 0.046875 25 0.046875 Z M 25 0.046875 "/>
<path style=" stroke:none;fill-rule:evenodd;fill:rgb(0%,0%,0%);fill-opacity:1;" d="M 24.953125 10.605469 C 32.902344 10.605469 39.347656 17.050781 39.347656 25 C 39.347656 32.949219 32.902344 39.394531 24.953125 39.394531 C 17 39.394531 10.554688 32.949219 10.554688 25 C 10.554688 17.050781 17 10.605469 24.953125 10.605469 Z M 24.953125 10.605469 "/>
<use xlink:href="#surface5" mask="url(#mask0)"/>
<path style=" stroke:none;fill-rule:evenodd;fill:rgb(100%,100%,100%);fill-opacity:1;" d="M 11.109375 18.882812 C 11.960938 18.882812 12.648438 19.570312 12.648438 20.417969 C 12.648438 21.269531 11.960938 21.957031 11.109375 21.957031 C 10.261719 21.957031 9.574219 21.269531 9.574219 20.417969 C 9.574219 19.570312 10.261719 18.882812 11.109375 18.882812 Z M 11.109375 18.882812 "/>
<path style=" stroke:none;fill-rule:evenodd;fill:rgb(100%,100%,100%);fill-opacity:1;" d="M 35.527344 13.617188 C 36.375 13.617188 37.0625 14.308594 37.0625 15.15625 C 37.0625 16.003906 36.375 16.691406 35.527344 16.691406 C 34.679688 16.691406 33.988281 16.003906 33.988281 15.15625 C 33.988281 14.308594 34.679688 13.617188 35.527344 13.617188 Z M 35.527344 13.617188 "/>
<path style=" stroke:none;fill-rule:evenodd;fill:rgb(100%,100%,100%);fill-opacity:1;" d="M 21.976562 37.742188 C 22.828125 37.742188 23.515625 38.429688 23.515625 39.277344 C 23.515625 40.128906 22.828125 40.816406 21.976562 40.816406 C 21.128906 40.816406 20.441406 40.128906 20.441406 39.277344 C 20.441406 38.429688 21.128906 37.742188 21.976562 37.742188 Z M 21.976562 37.742188 "/>
<path style=" stroke:none;fill-rule:evenodd;fill:rgb(100%,100%,100%);fill-opacity:1;" d="M 24.988281 22.386719 C 26.425781 22.386719 27.589844 23.550781 27.589844 24.988281 C 27.589844 26.425781 26.425781 27.589844 24.988281 27.589844 C 23.550781 27.589844 22.386719 26.425781 22.386719 24.988281 C 22.386719 23.550781 23.550781 22.386719 24.988281 22.386719 Z M 24.988281 22.386719 "/>
</g>
</svg>
