<?xml version="1.0" encoding="UTF-8"?>
<svg xmlns="http://www.w3.org/2000/svg" xmlns:xlink="http://www.w3.org/1999/xlink" width="50px" height="50px" viewBox="0 0 50 50" version="1.1">
<defs>
<linearGradient id="linear0" gradientUnits="userSpaceOnUse" x1="36.0499" y1="49.8583" x2="36.0499" y2="24.9999" >
<stop offset="0" style="stop-color:rgb(0%,17.647059%,45.490196%);stop-opacity:1;"/>
<stop offset="1" style="stop-color:rgb(0%,17.647059%,45.490196%);stop-opacity:0;"/>
</linearGradient>
<linearGradient id="linear1" gradientUnits="userSpaceOnUse" x1="14.65" y1="0.141602" x2="14.65" y2="24.9999" >
<stop offset="0" style="stop-color:rgb(0%,17.647059%,45.490196%);stop-opacity:1;"/>
<stop offset="1" style="stop-color:rgb(0%,17.647059%,45.490196%);stop-opacity:0;"/>
</linearGradient>
</defs>
<g id="surface1">
<path style=" stroke:none;fill-rule:nonzero;fill:rgb(0%,17.647059%,45.490196%);fill-opacity:1;" d="M 25.351562 0.140625 L 3.941406 12.574219 L 3.941406 37.433594 L 25.351562 49.859375 L 46.75 37.433594 L 46.75 12.574219 Z M 40.410156 33.75 L 25.351562 42.5 L 10.292969 33.75 L 10.292969 16.25 L 25.351562 7.5 L 40.410156 16.25 Z M 40.410156 33.75 "/>
<path style=" stroke:none;fill-rule:nonzero;fill:url(#linear0);" d="M 25.351562 49.859375 L 46.75 37.433594 L 46.75 12.574219 L 25.351562 0.140625 L 25.351562 7.5 L 40.40625 16.25 L 40.40625 33.75 L 25.351562 42.5 Z M 25.351562 49.859375 "/>
<path style=" stroke:none;fill-rule:nonzero;fill:url(#linear1);" d="M 25.351562 42.492188 L 10.292969 33.742188 L 10.292969 16.257812 L 25.351562 7.507812 L 25.351562 0.140625 L 3.941406 12.574219 L 3.941406 37.425781 L 25.351562 49.859375 Z M 25.351562 42.492188 "/>
<path style=" stroke:none;fill-rule:nonzero;fill:rgb(0%,17.647059%,45.490196%);fill-opacity:1;" d="M 35.339844 30.808594 L 25.351562 36.609375 L 15.351562 30.808594 L 15.351562 19.199219 L 25.351562 13.390625 L 35.339844 19.199219 L 31.175781 21.617188 L 25.351562 18.226562 L 19.515625 21.617188 L 19.515625 28.382812 L 25.351562 31.773438 L 31.175781 28.382812 Z M 35.339844 30.808594 "/>
</g>
</svg>
