<?xml version="1.0" encoding="UTF-8"?>
<svg xmlns="http://www.w3.org/2000/svg" xmlns:xlink="http://www.w3.org/1999/xlink" width="50px" height="50px" viewBox="0 0 50 50" version="1.1">
<defs>
<linearGradient id="linear0" gradientUnits="userSpaceOnUse" x1="7.3221" y1="42.6779" x2="42.6779" y2="7.3221" >
<stop offset="0" style="stop-color:rgb(29.803922%,50.196078%,91.372549%);stop-opacity:1;"/>
<stop offset="1" style="stop-color:rgb(56.862745%,82.352941%,96.078431%);stop-opacity:1;"/>
</linearGradient>
</defs>
<g id="surface1">
<path style=" stroke:none;fill-rule:nonzero;fill:url(#linear0);" d="M 25 0 C 11.191406 0 0 11.191406 0 25 C 0 38.808594 11.191406 50 25 50 C 38.808594 50 50 38.808594 50 25 C 50 11.191406 38.808594 0 25 0 Z M 25 36.28125 C 18.78125 36.28125 13.71875 31.21875 13.71875 25 C 13.71875 18.78125 18.78125 13.71875 25 13.71875 C 31.21875 13.71875 36.28125 18.78125 36.28125 25 C 36.28125 31.21875 31.21875 36.28125 25 36.28125 Z M 2.765625 25 C 2.765625 13.203125 12 3.53125 23.617188 2.8125 L 23.617188 11.019531 C 16.507812 11.714844 10.953125 17.707031 10.953125 25 C 10.953125 32.289062 16.507812 38.285156 23.617188 38.976562 L 23.617188 47.183594 C 12 46.46875 2.765625 36.792969 2.765625 25 Z M 26.382812 47.1875 L 26.382812 38.980469 C 33.492188 38.285156 39.046875 32.292969 39.046875 25 C 39.046875 17.710938 33.492188 11.714844 26.382812 11.023438 L 26.382812 2.8125 C 38 3.53125 47.234375 13.203125 47.234375 25 C 47.234375 36.796875 38 46.46875 26.382812 47.1875 Z M 26.382812 47.1875 "/>
</g>
</svg>
