<?xml version="1.0" encoding="UTF-8"?>
<svg xmlns="http://www.w3.org/2000/svg" xmlns:xlink="http://www.w3.org/1999/xlink" width="50px" height="50px" viewBox="0 0 50 50" version="1.1">
<defs>
<linearGradient id="linear0" gradientUnits="userSpaceOnUse" x1="2.3642" y1="31.965" x2="49.697" y2="20.912" >
<stop offset="0" style="stop-color:rgb(100%,42.352941%,18.039216%);stop-opacity:1;"/>
<stop offset="1" style="stop-color:rgb(95.294118%,44.705882%,35.294118%);stop-opacity:0;"/>
</linearGradient>
<linearGradient id="linear1" gradientUnits="userSpaceOnUse" x1="40.1438" y1="12.1651" x2="1.88289" y2="41.0089" >
<stop offset="0" style="stop-color:rgb(100%,65.490196%,33.72549%);stop-opacity:1;"/>
<stop offset="1" style="stop-color:rgb(97.254902%,46.27451%,36.862745%);stop-opacity:0;"/>
</linearGradient>
</defs>
<g id="surface1">
<path style=" stroke:none;fill-rule:nonzero;fill:rgb(92.941176%,42.352941%,32.54902%);fill-opacity:1;" d="M 24.945312 49.929688 C 38.644531 49.929688 49.75 38.761719 49.75 24.980469 C 49.75 11.199219 38.644531 0.03125 24.945312 0.03125 C 11.246094 0.03125 0.140625 11.199219 0.140625 24.980469 C 0.140625 38.761719 11.246094 49.929688 24.945312 49.929688 Z M 24.945312 49.929688 "/>
<path style=" stroke:none;fill-rule:nonzero;fill:rgb(95.294118%,44.705882%,35.294118%);fill-opacity:1;" d="M 24.945312 49.929688 C 38.644531 49.929688 49.75 38.761719 49.75 24.980469 C 49.75 11.199219 38.644531 0.03125 24.945312 0.03125 C 11.246094 0.03125 0.140625 11.199219 0.140625 24.980469 C 0.140625 38.761719 11.246094 49.929688 24.945312 49.929688 Z M 24.945312 49.929688 "/>
<path style=" stroke:none;fill-rule:nonzero;fill:url(#linear0);" d="M 24.945312 49.929688 C 38.644531 49.929688 49.75 38.761719 49.75 24.980469 C 49.75 11.199219 38.644531 0.03125 24.945312 0.03125 C 11.246094 0.03125 0.140625 11.199219 0.140625 24.980469 C 0.140625 38.761719 11.246094 49.929688 24.945312 49.929688 Z M 24.945312 49.929688 "/>
<path style=" stroke:none;fill-rule:nonzero;fill:url(#linear1);" d="M 24.90625 47.933594 C 37.527344 47.933594 47.761719 37.636719 47.761719 24.9375 C 47.761719 12.242188 37.527344 1.945312 24.90625 1.945312 C 12.28125 1.945312 2.046875 12.242188 2.046875 24.9375 C 2.046875 37.636719 12.28125 47.933594 24.90625 47.933594 Z M 24.90625 47.933594 "/>
<path style=" stroke:none;fill-rule:evenodd;fill:rgb(100%,100%,100%);fill-opacity:1;" d="M 21.234375 38.992188 C 23.011719 38.992188 25.046875 38.539062 27.105469 37.691406 C 27.171875 37.664062 27.234375 37.636719 27.300781 37.609375 C 27.359375 37.582031 27.417969 37.554688 27.472656 37.527344 L 27.5 37.519531 L 27.503906 37.515625 C 28.375 37.300781 29.28125 37.003906 30.1875 36.625 C 36.003906 34.222656 38.464844 30.382812 38.820312 27.558594 C 39.25 24.101562 37.0625 20.796875 34.316406 18.320312 C 33.007812 16.789062 31.390625 15.449219 29.78125 14.414062 C 27.742188 13.101562 25.652344 12.203125 23.816406 11.785156 C 21.988281 11.375 20.382812 11.4375 19.328125 12.085938 C 18.316406 12.710938 17.570312 13.894531 17.054688 15.664062 C 16.304688 16.539062 15.753906 17.863281 15.375 19.664062 C 14.996094 21.480469 14.792969 23.796875 14.75 26.644531 C 14.710938 29.625 14.914062 32.066406 15.363281 33.949219 C 15.8125 35.828125 16.511719 37.167969 17.480469 37.929688 C 18.363281 38.628906 19.667969 38.992188 21.234375 38.992188 Z M 28.488281 34.890625 C 30.394531 34.101562 31.941406 33.15625 33.179688 32.140625 C 31.972656 33.742188 30.042969 35.34375 27.1875 36.605469 C 26.550781 36.757812 25.9375 36.863281 25.359375 36.921875 C 24.75 36.984375 24.175781 36.992188 23.648438 36.949219 C 22.613281 36.867188 21.761719 36.585938 21.160156 36.117188 L 21.09375 36.058594 C 21.5625 36.144531 22.070312 36.191406 22.613281 36.191406 C 24.390625 36.191406 26.425781 35.734375 28.488281 34.890625 Z M 34.765625 28.5 C 34.753906 28.625 34.734375 28.75 34.710938 28.878906 C 34.6875 28.996094 34.65625 29.121094 34.625 29.246094 C 33.367188 30.953125 31.28125 32.683594 28.121094 33.996094 C 26.496094 34.667969 24.925781 35.066406 23.535156 35.191406 C 22.167969 35.3125 20.988281 35.167969 20.121094 34.769531 C 19.195312 32.96875 18.742188 29.90625 18.804688 25.59375 C 18.84375 22.871094 19.039062 20.660156 19.382812 18.933594 C 19.722656 17.246094 20.207031 16.039062 20.832031 15.277344 C 22.777344 15.421875 25.339844 16.378906 27.875 18.015625 C 29.714844 19.207031 31.570312 20.804688 32.898438 22.617188 C 34.226562 24.433594 35.023438 26.457031 34.765625 28.5 Z M 28.402344 17.207031 C 26.160156 15.765625 23.863281 14.820312 21.902344 14.46875 C 22.121094 14.382812 22.371094 14.316406 22.644531 14.273438 C 22.882812 14.238281 23.140625 14.21875 23.421875 14.21875 C 25.46875 14.21875 28.289062 15.242188 30.972656 16.96875 C 31.882812 17.554688 32.796875 18.246094 33.648438 19.019531 C 35.34375 21.015625 36.445312 23.347656 36.15625 25.699219 C 36.097656 26.171875 35.972656 26.679688 35.765625 27.203125 C 35.625 25.28125 34.742188 23.4375 33.484375 21.792969 C 32.09375 19.976562 30.238281 18.390625 28.402344 17.207031 Z M 17.933594 16.128906 C 18.097656 15.957031 18.277344 15.8125 18.460938 15.699219 C 18.617188 15.605469 18.792969 15.523438 18.980469 15.460938 C 19.179688 15.394531 19.398438 15.34375 19.632812 15.3125 C 19.078125 16.234375 18.660156 17.488281 18.367188 19.082031 C 18.046875 20.820312 17.875 22.976562 17.839844 25.582031 C 17.792969 28.765625 18.027344 31.332031 18.550781 33.261719 C 18.121094 32.519531 17.785156 31.523438 17.542969 30.273438 C 17.214844 28.582031 17.070312 26.4375 17.105469 23.847656 C 17.148438 20.535156 17.421875 17.972656 17.933594 16.128906 Z M 21.71875 12.472656 C 23.179688 12.472656 25.042969 12.996094 26.96875 13.933594 C 26.101562 13.640625 25.269531 13.4375 24.5 13.335938 C 23.101562 13.152344 21.886719 13.292969 21.035156 13.824219 C 20.808594 13.964844 20.609375 14.128906 20.410156 14.320312 C 19.683594 14.3125 19.027344 14.410156 18.476562 14.625 C 18.859375 13.796875 19.324219 13.230469 19.851562 12.910156 C 20.304688 12.621094 20.929688 12.472656 21.71875 12.472656 Z M 19.25 35.386719 L 19.296875 35.414062 C 19.335938 35.441406 19.378906 35.464844 19.421875 35.488281 C 19.75 36.058594 20.128906 36.519531 20.566406 36.867188 C 21.222656 37.386719 22.109375 37.714844 23.160156 37.851562 C 22.214844 38.015625 21.335938 38.066406 20.554688 38.003906 C 19.523438 37.917969 18.675781 37.640625 18.082031 37.171875 C 17.277344 36.535156 16.664062 35.347656 16.265625 33.582031 C 15.867188 31.820312 15.6875 29.507812 15.726562 26.648438 C 15.765625 23.851562 15.96875 21.597656 16.332031 19.851562 C 16.222656 21.042969 16.15625 22.367188 16.136719 23.835938 C 16.09375 26.816406 16.296875 29.257812 16.75 31.136719 C 17.199219 33.019531 17.902344 34.359375 18.867188 35.121094 L 18.871094 35.125 C 18.964844 35.195312 19.058594 35.261719 19.160156 35.328125 Z M 37.109375 25.824219 C 37.222656 24.890625 37.148438 23.96875 36.925781 23.074219 C 37.660156 24.472656 38.035156 25.957031 37.847656 27.445312 C 37.585938 29.527344 35.980469 32.3125 32.308594 34.496094 C 34.066406 32.90625 35.085938 31.1875 35.515625 29.660156 C 36.46875 28.324219 36.964844 26.988281 37.109375 25.824219 Z M 37.109375 25.824219 "/>
</g>
</svg>
