<?xml version="1.0" encoding="UTF-8"?>
<svg xmlns="http://www.w3.org/2000/svg" xmlns:xlink="http://www.w3.org/1999/xlink" width="50px" height="50px" viewBox="0 0 50 51" version="1.1">
<defs>
<clipPath id="clip1">
  <path d="M 4 1 L 46 1 L 46 50.492188 L 4 50.492188 Z M 4 1 "/>
</clipPath>
</defs>
<g id="surface1">
<path style=" stroke:none;fill-rule:evenodd;fill:rgb(4.705882%,1.568627%,51.764706%);fill-opacity:1;" d="M 29.625 4.277344 C 29.828125 4.316406 30.167969 4.316406 30.375 4.277344 C 30.578125 4.234375 30.410156 4.203125 30 4.203125 C 29.585938 4.203125 29.417969 4.234375 29.625 4.277344 Z M 44.691406 14.824219 C 44.691406 15.054688 44.730469 15.148438 44.777344 15.03125 C 44.820312 14.917969 44.820312 14.730469 44.777344 14.617188 C 44.730469 14.5 44.691406 14.59375 44.691406 14.824219 Z M 7.199219 33.90625 C 7.199219 34.183594 7.238281 34.273438 7.28125 34.113281 C 7.324219 33.949219 7.320312 33.726562 7.273438 33.613281 C 7.230469 33.5 7.195312 33.632812 7.199219 33.90625 Z M 7.191406 36.15625 C 7.191406 36.386719 7.230469 36.480469 7.277344 36.367188 C 7.320312 36.25 7.320312 36.0625 7.277344 35.949219 C 7.230469 35.835938 7.191406 35.929688 7.191406 36.15625 Z M 17.875 49.773438 C 18.035156 49.816406 18.296875 49.816406 18.457031 49.773438 C 18.617188 49.730469 18.484375 49.695312 18.164062 49.695312 C 17.84375 49.695312 17.714844 49.730469 17.875 49.773438 Z M 20.875 49.773438 C 21.039062 49.816406 21.265625 49.8125 21.375 49.765625 C 21.488281 49.722656 21.355469 49.6875 21.082031 49.691406 C 20.808594 49.695312 20.714844 49.730469 20.875 49.773438 Z M 20.875 49.773438 "/>
<g clip-path="url(#clip1)" clip-rule="nonzero">
<path style=" stroke:none;fill-rule:evenodd;fill:rgb(4.705882%,1.568627%,48.627451%);fill-opacity:1;" d="M 28.585938 1.765625 C 24.511719 2.171875 20.523438 4.367188 18.136719 7.511719 C 17.320312 8.59375 16.210938 10.414062 13.996094 14.328125 C 13.660156 14.921875 13.121094 15.859375 12.800781 16.410156 C 12.480469 16.960938 11.484375 18.6875 10.585938 20.242188 C 9.6875 21.800781 8.6875 23.527344 8.367188 24.078125 C 8.046875 24.628906 7.492188 25.597656 7.140625 26.230469 C 6.785156 26.863281 6.429688 27.464844 6.351562 27.5625 C 6.058594 27.925781 5.035156 30.601562 4.816406 31.578125 C 4.675781 32.191406 4.597656 33.511719 4.605469 34.992188 C 4.625 37.726562 4.890625 39.007812 5.886719 41.1875 C 7.582031 44.902344 10.800781 47.914062 14.597656 49.335938 C 16.496094 50.046875 17.714844 50.214844 20.3125 50.125 C 22.339844 50.054688 22.761719 49.984375 24.230469 49.480469 C 26.34375 48.757812 28.253906 47.660156 29.742188 46.3125 C 31.761719 44.488281 32.105469 44 35.496094 38.078125 C 36.441406 36.425781 37.417969 34.738281 37.664062 34.328125 C 37.910156 33.914062 38.4375 33.015625 38.835938 32.328125 C 39.230469 31.640625 39.753906 30.738281 40 30.328125 C 40.246094 29.914062 40.75 29.050781 41.121094 28.410156 C 41.492188 27.769531 42.199219 26.570312 42.6875 25.742188 C 44.953125 21.933594 45.699219 18.46875 45.101562 14.578125 C 44.605469 11.359375 43.253906 8.742188 40.839844 6.316406 C 38.667969 4.132812 36.152344 2.699219 33.417969 2.078125 C 32.332031 1.832031 29.652344 1.660156 28.585938 1.765625 Z M 29.625 4.277344 C 29.832031 4.316406 30.167969 4.316406 30.375 4.277344 C 30.582031 4.238281 30.414062 4.207031 30 4.207031 C 29.589844 4.207031 29.417969 4.238281 29.625 4.277344 Z M 27.988281 4.839844 C 26.691406 5.027344 24.71875 5.847656 23.335938 6.765625 L 22.167969 7.542969 L 23.042969 8.070312 C 23.933594 8.613281 24.707031 9.0625 28.25 11.113281 C 34.769531 14.882812 36.226562 15.765625 36.515625 16.132812 C 36.953125 16.691406 36.914062 17.371094 36.414062 17.96875 C 35.582031 18.957031 35.160156 18.882812 32.25 17.21875 C 31.609375 16.851562 29.996094 15.929688 28.667969 15.171875 C 27.339844 14.414062 25.839844 13.550781 25.335938 13.253906 C 23.085938 11.925781 20.199219 10.328125 20.0625 10.332031 C 19.984375 10.332031 19.4375 11.175781 18.847656 12.207031 C 18.261719 13.234375 17.539062 14.488281 17.242188 14.992188 C 16.332031 16.539062 12.667969 23.007812 12.667969 23.070312 C 12.667969 23.105469 12.984375 23.3125 13.375 23.539062 C 13.765625 23.761719 15.058594 24.503906 16.25 25.195312 C 17.441406 25.882812 20.253906 27.5 22.496094 28.792969 C 24.742188 30.082031 26.820312 31.332031 27.121094 31.570312 C 28.394531 32.589844 27.835938 34.328125 26.234375 34.328125 C 25.667969 34.328125 25.160156 34.113281 23.640625 33.226562 C 21.882812 32.199219 21.179688 31.792969 18.335938 30.152344 C 17.738281 29.808594 16.089844 28.855469 14.667969 28.035156 C 13.246094 27.214844 11.847656 26.417969 11.554688 26.269531 L 11.027344 26 L 10.039062 27.546875 C 9.492188 28.394531 8.765625 29.800781 8.417969 30.667969 C 7.84375 32.109375 7.78125 32.417969 7.707031 34.28125 C 7.609375 36.605469 7.785156 37.761719 8.492188 39.476562 C 9.152344 41.074219 10.101562 42.414062 11.464844 43.675781 C 13.359375 45.425781 15.039062 46.226562 17.914062 46.753906 C 19.488281 47.042969 20.34375 47.007812 22.394531 46.578125 C 23.539062 46.335938 25.835938 45.386719 25.835938 45.152344 C 25.835938 45.085938 24.953125 44.523438 23.875 43.902344 C 22.796875 43.285156 21.484375 42.527344 20.960938 42.21875 C 20.433594 41.910156 19.550781 41.398438 19 41.078125 C 18.449219 40.757812 17.550781 40.230469 17 39.910156 C 16.449219 39.589844 15.53125 39.054688 14.960938 38.71875 C 14.386719 38.382812 13.523438 37.886719 13.039062 37.621094 C 12 37.042969 11.589844 36.382812 11.746094 35.550781 C 11.871094 34.875 12.695312 34.265625 13.292969 34.410156 C 13.496094 34.460938 14.386719 34.917969 15.269531 35.425781 C 16.148438 35.933594 17.441406 36.671875 18.144531 37.0625 C 18.84375 37.457031 20.730469 38.527344 22.335938 39.445312 C 23.9375 40.363281 25.992188 41.535156 26.898438 42.054688 C 27.800781 42.570312 28.601562 42.992188 28.671875 42.992188 C 28.871094 42.992188 29.785156 41.507812 32.167969 37.328125 C 32.507812 36.730469 33.257812 35.417969 33.832031 34.410156 C 35.625 31.269531 36.292969 30.078125 36.273438 30.054688 C 36.261719 30.042969 35.425781 29.5625 34.417969 28.988281 C 33.410156 28.414062 31.273438 27.195312 29.667969 26.277344 C 28.0625 25.359375 26.261719 24.332031 25.667969 23.992188 C 21.3125 21.511719 21.5 21.671875 21.5 20.527344 C 21.5 20.066406 21.621094 19.746094 21.910156 19.433594 C 22.652344 18.632812 22.714844 18.65625 28.167969 21.820312 C 28.761719 22.164062 30.074219 22.917969 31.085938 23.488281 C 32.09375 24.0625 33.40625 24.8125 34 25.15625 C 37.28125 27.046875 37.855469 27.363281 37.902344 27.304688 C 37.992188 27.203125 40.082031 23.640625 40.628906 22.660156 C 41.492188 21.117188 42.042969 18.871094 42.039062 16.921875 C 42.023438 9.347656 35.496094 3.734375 27.988281 4.839844 Z M 44.695312 14.828125 C 44.695312 15.054688 44.730469 15.148438 44.777344 15.035156 C 44.824219 14.921875 44.824219 14.734375 44.777344 14.617188 C 44.730469 14.503906 44.695312 14.597656 44.695312 14.828125 Z M 7.199219 33.910156 C 7.203125 34.1875 7.242188 34.277344 7.28125 34.117188 C 7.324219 33.953125 7.324219 33.730469 7.277344 33.617188 C 7.230469 33.503906 7.195312 33.636719 7.199219 33.910156 Z M 7.195312 36.160156 C 7.195312 36.390625 7.230469 36.484375 7.277344 36.367188 C 7.324219 36.253906 7.324219 36.066406 7.277344 35.953125 C 7.230469 35.835938 7.195312 35.929688 7.195312 36.160156 Z M 17.875 49.777344 C 18.035156 49.816406 18.296875 49.816406 18.460938 49.777344 C 18.621094 49.734375 18.488281 49.699219 18.167969 49.699219 C 17.847656 49.699219 17.714844 49.734375 17.875 49.777344 Z M 20.878906 49.777344 C 21.039062 49.820312 21.265625 49.816406 21.378906 49.769531 C 21.492188 49.722656 21.359375 49.691406 21.085938 49.691406 C 20.808594 49.695312 20.714844 49.734375 20.878906 49.777344 Z M 20.878906 49.777344 "/>
</g>
</g>
</svg>
