<svg width="50" height="51" viewBox="0 0 50 51" fill="none" xmlns="http://www.w3.org/2000/svg">
<g clip-path="url(#clip0_531_274)">
<path fill-rule="evenodd" clip-rule="evenodd" d="M29.6234 4.27546C29.8297 4.31513 30.1671 4.31513 30.3734 4.27546C30.5797 4.23563 30.4109 4.20312 29.9984 4.20312C29.5859 4.20312 29.4171 4.23563 29.6234 4.27546ZM44.6914 14.8245C44.6914 15.0536 44.7292 15.1475 44.7754 15.0328C44.8217 14.9183 44.8217 14.7308 44.7754 14.6161C44.7292 14.5016 44.6914 14.5953 44.6914 14.8245ZM7.19757 33.9078C7.20091 34.1828 7.23824 34.2751 7.28057 34.113C7.32291 33.9508 7.32007 33.7258 7.27441 33.613C7.22874 33.5001 7.19424 33.6328 7.19757 33.9078ZM7.19141 36.1578C7.19141 36.387 7.22924 36.4808 7.27541 36.3661C7.32174 36.2516 7.32174 36.0641 7.27541 35.9495C7.22924 35.835 7.19141 35.9286 7.19141 36.1578ZM17.8734 49.7726C18.0339 49.8146 18.2962 49.8146 18.4567 49.7726C18.6172 49.7308 18.4859 49.6965 18.1651 49.6965C17.8442 49.6965 17.7129 49.7308 17.8734 49.7726ZM20.8766 49.7733C21.0387 49.8156 21.2637 49.8128 21.3766 49.7671C21.4894 49.7215 21.3567 49.687 21.0817 49.6903C20.8067 49.6936 20.7144 49.731 20.8766 49.7733Z" fill="#0C0484"/>
<path fill-rule="evenodd" clip-rule="evenodd" d="M28.584 1.76642C24.5116 2.17175 20.5231 4.36558 18.1385 7.51175C17.3196 8.59242 16.2121 10.4151 13.9975 14.3272C13.6601 14.9231 13.122 15.8606 12.8015 16.4106C12.481 16.9606 11.4836 18.6856 10.5851 20.2439C9.6868 21.8022 8.68897 23.5273 8.36764 24.0773C8.04647 24.6273 7.49397 25.5959 7.1398 26.2297C6.78547 26.8637 6.43014 27.4637 6.3498 27.5631C6.05764 27.9251 5.03347 30.6031 4.81464 31.5773C4.6768 32.1904 4.5963 33.5123 4.6063 34.9939C4.62464 37.7278 4.8888 39.0073 5.88497 41.1876C7.5823 44.9031 10.8011 47.9124 14.5995 49.3349C16.4958 50.0452 17.714 50.2133 20.313 50.1236C22.341 50.0536 22.76 49.9849 24.2298 49.4818C26.3438 48.7583 28.254 47.6606 29.744 46.3136C31.7625 44.4886 32.1048 43.9983 35.4965 38.0773C36.4416 36.4273 37.417 34.7398 37.664 34.3273C37.911 33.9148 38.4375 33.0148 38.834 32.3273C39.2305 31.6398 39.7555 30.7398 40.0006 30.3273C40.2458 29.9148 40.7505 29.0523 41.1221 28.4106C41.4938 27.7689 42.199 26.5689 42.689 25.7439C44.952 21.9344 45.7003 18.4694 45.1005 14.5772C44.6045 11.3582 43.2545 8.74075 40.8393 6.31508C38.6678 4.13408 36.1515 2.69792 33.4173 2.07875C32.3323 1.83292 29.654 1.65992 28.584 1.76642ZM29.6256 4.27825C29.832 4.31792 30.1693 4.31792 30.3756 4.27825C30.582 4.23842 30.4131 4.20592 30.0006 4.20592C29.5881 4.20592 29.4193 4.23842 29.6256 4.27825ZM27.9873 4.83808C26.6921 5.02858 24.7185 5.84642 23.3368 6.76525L22.1698 7.54108L23.0436 8.07192C23.9335 8.61258 24.7053 9.06342 28.2506 11.1131C34.7698 14.8819 36.2268 15.7669 36.5143 16.1326C36.9526 16.6897 36.915 17.3721 36.4128 17.9689C35.5815 18.9569 35.1605 18.8809 32.2506 17.2174C31.609 16.8506 29.9965 15.9299 28.6673 15.1712C27.3381 14.4127 25.8381 13.5494 25.334 13.2526C23.084 11.9277 20.1981 10.3274 20.0641 10.3301C19.9833 10.3316 19.4368 11.1754 18.8495 12.2051C18.2621 13.2347 17.5385 14.4897 17.2411 14.9939C16.3301 16.5386 12.6673 23.0074 12.6673 23.0718C12.6673 23.1049 12.986 23.3144 13.3756 23.5372C13.7651 23.7601 15.059 24.5054 16.2506 25.1936C17.4423 25.8818 20.2533 27.5009 22.4975 28.7918C24.7416 30.0826 26.822 31.3338 27.1208 31.5721C28.396 32.5896 27.8361 34.3273 26.2331 34.3273C25.6661 34.3273 25.1593 34.1119 23.6395 33.2253C21.8815 32.1996 21.1783 31.7924 18.334 30.1523C17.7381 29.8086 16.0881 28.8556 14.6673 28.0343C13.2465 27.2131 11.8466 26.4194 11.5566 26.2706L11.0291 26.0001L10.0381 27.5456C9.49297 28.3956 8.76397 29.8004 8.41797 30.6674C7.8423 32.1106 7.78214 32.4163 7.7058 34.2821C7.61097 36.6056 7.78614 37.7613 8.49364 39.4768C9.15197 41.0734 10.1008 42.4139 11.466 43.6758C13.3575 45.4241 15.0401 46.2274 17.9136 46.7541C19.4876 47.0426 20.3418 47.0089 22.393 46.5776C23.5386 46.3368 25.834 45.3868 25.834 45.1534C25.834 45.0851 24.9528 44.5226 23.8756 43.9036C22.7985 43.2846 21.486 42.5266 20.959 42.2193C20.432 41.9121 19.5506 41.3981 19.0006 41.0773C18.4506 40.7564 17.5506 40.2314 17.0006 39.9106C16.4506 39.5898 15.5318 39.0528 14.959 38.7173C14.3861 38.3818 13.5221 37.8879 13.0393 37.6198C12 37.0428 11.5883 36.3841 11.745 35.5491C11.8713 34.8753 12.6971 34.2671 13.2916 34.4099C13.4975 34.4594 14.3866 34.9161 15.2676 35.4246C16.1486 35.9333 17.4426 36.6708 18.1433 37.0636C18.844 37.4564 20.7298 38.5281 22.334 39.4453C23.9381 40.3624 25.9915 41.5361 26.897 42.0534C27.8025 42.5708 28.602 42.9939 28.6738 42.9939C28.8696 42.9939 29.7853 41.5094 32.169 37.3273C32.5086 36.7314 33.2576 35.4189 33.8333 34.4106C35.6261 31.2709 36.2941 30.0781 36.272 30.0558C36.2603 30.0439 35.4256 29.5643 34.4173 28.9898C33.409 28.4153 31.2715 27.1948 29.6673 26.2776C28.0631 25.3603 26.2631 24.3323 25.6673 23.9931C21.3115 21.5134 21.5006 21.6706 21.5006 20.5292C21.5006 20.0667 21.62 19.7471 21.9093 19.4349C22.6521 18.6334 22.715 18.6574 28.1673 21.8196C28.7631 22.1651 30.0756 22.9169 31.084 23.4899C32.0923 24.0631 33.4048 24.8131 34.0006 25.1564C37.282 27.0473 37.8538 27.3622 37.9023 27.3059C37.991 27.2026 40.0818 23.6402 40.6286 22.6606C41.4908 21.1162 42.0428 18.8701 42.0391 16.9212C42.0248 9.34642 35.4971 3.73325 27.9873 4.83808ZM44.6936 14.8272C44.6936 15.0564 44.7315 15.1502 44.7776 15.0356C44.824 14.9211 44.824 14.7336 44.7776 14.6189C44.7315 14.5044 44.6936 14.5981 44.6936 14.8272ZM7.1998 33.9106C7.20314 34.1856 7.24047 34.2779 7.2828 34.1158C7.32514 33.9536 7.3223 33.7286 7.27664 33.6158C7.23097 33.5029 7.19647 33.6356 7.1998 33.9106ZM7.19364 36.1606C7.19364 36.3898 7.23147 36.4836 7.27764 36.3689C7.32397 36.2544 7.32397 36.0669 7.27764 35.9523C7.23147 35.8378 7.19364 35.9314 7.19364 36.1606ZM17.8756 49.7754C18.0361 49.8174 18.2985 49.8174 18.459 49.7754C18.6195 49.7336 18.4881 49.6993 18.1673 49.6993C17.8465 49.6993 17.7151 49.7336 17.8756 49.7754ZM20.8788 49.7761C21.041 49.8184 21.266 49.8156 21.3788 49.7699C21.4916 49.7243 21.359 49.6898 21.084 49.6931C20.809 49.6964 20.7166 49.7338 20.8788 49.7761Z" fill="#0C047C"/>
</g>
<defs>
<clipPath id="clip0_531_274">
<rect width="50" height="50" fill="white" transform="translate(0 0.492188)"/>
</clipPath>
</defs>
</svg>
