<?xml version="1.0" encoding="UTF-8"?>
<svg xmlns="http://www.w3.org/2000/svg" xmlns:xlink="http://www.w3.org/1999/xlink" width="50px" height="50px" viewBox="0 0 50 50" version="1.1">
<g id="surface1">
<path style=" stroke:none;fill-rule:nonzero;fill:rgb(100%,39.607843%,0%);fill-opacity:1;" d="M 50 25 C 50 11.191406 38.808594 0 25 0 C 11.191406 0 0 11.191406 0 25 C 0 38.808594 11.191406 50 25 50 C 38.808594 50 50 38.808594 50 25 Z M 50 25 "/>
<path style=" stroke:none;fill-rule:nonzero;fill:rgb(100%,100%,100%);fill-opacity:1;" d="M 28.210938 17.171875 C 28.210938 18.800781 26.773438 20.125 25 20.125 C 23.226562 20.125 21.789062 18.800781 21.789062 17.171875 C 21.789062 15.542969 23.226562 14.222656 25 14.222656 C 26.773438 14.222656 28.210938 15.542969 28.210938 17.171875 Z M 28.210938 17.171875 "/>
<path style=" stroke:none;fill-rule:nonzero;fill:rgb(100%,100%,100%);fill-opacity:1;" d="M 30.886719 27.941406 C 30.886719 30.222656 28.25 30.304688 25 30.304688 C 21.75 30.304688 19.113281 30.222656 19.113281 27.941406 C 19.113281 25.660156 20.585938 21.894531 25 21.894531 C 29.414062 21.894531 30.886719 25.660156 30.886719 27.941406 Z M 30.886719 27.941406 "/>
<path style=" stroke:none;fill-rule:nonzero;fill:rgb(100%,100%,100%);fill-opacity:1;" d="M 16.4375 24.402344 C 18.210938 24.402344 19.648438 23.082031 19.648438 21.449219 C 19.648438 19.820312 18.210938 18.5 16.4375 18.5 C 14.664062 18.5 13.230469 19.820312 13.230469 21.449219 C 13.230469 23.082031 14.664062 24.402344 16.4375 24.402344 Z M 16.4375 24.402344 "/>
<path style=" stroke:none;fill-rule:nonzero;fill:rgb(100%,100%,100%);fill-opacity:1;" d="M 36.769531 21.449219 C 36.769531 23.082031 35.335938 24.402344 33.5625 24.402344 C 31.789062 24.402344 30.351562 23.082031 30.351562 21.449219 C 30.351562 19.820312 31.789062 18.5 33.5625 18.5 C 35.335938 18.5 36.769531 19.820312 36.769531 21.449219 Z M 36.769531 21.449219 "/>
<path style=" stroke:none;fill-rule:evenodd;fill:rgb(100%,100%,100%);fill-opacity:1;" d="M 25 39.898438 C 34.484375 39.898438 42.171875 33.003906 42.171875 24.496094 C 42.171875 19.695312 39.726562 15.410156 35.890625 12.585938 C 32.988281 10.410156 29.175781 9.089844 25 9.089844 C 20.824219 9.089844 17.011719 10.410156 14.109375 12.585938 C 10.273438 15.410156 7.828125 19.695312 7.828125 24.496094 C 7.828125 33.003906 15.515625 39.898438 25 39.898438 Z M 25 36.488281 C 33.855469 36.488281 40.855469 30.40625 40.855469 23.105469 C 40.855469 15.804688 33.855469 9.722656 25 9.722656 C 16.144531 9.722656 9.148438 15.804688 9.148438 23.105469 C 9.148438 30.40625 16.144531 36.488281 25 36.488281 Z M 25 36.488281 "/>
</g>
</svg>
