<svg width="50" height="50" viewBox="0 0 50 50" fill="none" xmlns="http://www.w3.org/2000/svg">
<g clip-path="url(#clip0_916_1707)">
<path d="M50 25C50 11.1929 38.8071 0 25 0C11.1929 0 0 11.1929 0 25C0 38.8071 11.1929 50 25 50C38.8071 50 50 38.8071 50 25Z" fill="#FF6500"/>
<path d="M28.2104 17.1725C28.2104 18.8021 26.773 20.1232 25 20.1232C23.227 20.1232 21.7897 18.8021 21.7897 17.1725C21.7897 15.5429 23.227 14.2218 25 14.2218C26.773 14.2218 28.2104 15.5429 28.2104 17.1725Z" fill="white"/>
<path d="M30.8856 27.9424C30.8856 30.2237 28.2505 30.303 25 30.303C21.7494 30.303 19.1143 30.2237 19.1143 27.9424C19.1143 25.6609 20.5857 21.8936 25 21.8936C29.4141 21.8936 30.8856 25.6609 30.8856 27.9424Z" fill="white"/>
<path d="M16.4391 24.4016C18.2121 24.4016 19.6494 23.0805 19.6494 21.4509C19.6494 19.8213 18.2121 18.5002 16.4391 18.5002C14.666 18.5002 13.2287 19.8213 13.2287 21.4509C13.2287 23.0805 14.666 24.4016 16.4391 24.4016Z" fill="white"/>
<path d="M36.7712 21.4509C36.7712 23.0805 35.3341 24.4016 33.5609 24.4016C31.7879 24.4016 30.3505 23.0805 30.3505 21.4509C30.3505 19.8213 31.7879 18.5002 33.5609 18.5002C35.3341 18.5002 36.7712 19.8213 36.7712 21.4509Z" fill="white"/>
<path fill-rule="evenodd" clip-rule="evenodd" d="M25 39.899C34.4836 39.899 42.1717 33.0023 42.1717 24.495C42.1717 19.6964 39.7258 15.4103 35.8912 12.5852C32.9869 10.4102 29.1748 9.09094 25 9.09094C20.8254 9.09094 17.0132 10.4103 14.1087 12.5852C10.2742 15.4103 7.82831 19.6964 7.82831 24.495C7.82831 33.0023 15.5163 39.899 25 39.899ZM25 36.4899C33.8556 36.4899 40.8536 30.4056 40.8536 23.1061C40.8536 15.8066 33.8556 9.72226 25 9.72226C16.1444 9.72226 9.14649 15.8066 9.14649 23.1061C9.14649 30.4056 16.1444 36.4899 25 36.4899Z" fill="white"/>
</g>
<defs>
<clipPath id="clip0_916_1707">
<rect width="50" height="50" fill="white"/>
</clipPath>
</defs>
</svg>
