<?xml version="1.0" encoding="utf-8"?>
<!-- Generator: Adobe Illustrator 25.4.1, SVG Export Plug-In . SVG Version: 6.00 Build 0)  -->
<svg version="1.0" id="katman_1" xmlns="http://www.w3.org/2000/svg" xmlns:xlink="http://www.w3.org/1999/xlink" x="0px" y="0px"
	 viewBox="0 0 1700 1200" style="enable-background:new 0 0 1700 1200;" xml:space="preserve">
<style type="text/css">
	.st0{fill:url(#SVGID_1_);}
	.st1{fill:#FFFFFF;}
	.st2{fill:url(#SVGID_00000068649388004625748630000017299261416004640685_);}
	.st3{fill:url(#SVGID_00000043439165843951357990000017837822217882006666_);}
	.st4{fill:none;stroke:#2D2D3D;stroke-width:10;}
</style>
<linearGradient id="SVGID_1_" gradientUnits="userSpaceOnUse" x1="543.1974" y1="1507.4445" x2="320.6974" y2="582.4444" gradientTransform="matrix(1 0 0 -1 454 1496)">
	<stop  offset="0" style="stop-color:#2C2C3D"/>
	<stop  offset="1" style="stop-color:#1A1A27"/>
</linearGradient>
<path class="st0" d="M582.5,148h535c102.2,0,185,82.8,185,185v535c0,102.2-82.8,185-185,185h-535c-102.2,0-185-82.8-185-185V333
	C397.5,230.8,480.3,148,582.5,148z"/>
<path class="st1" d="M969.1,358L617.5,853h107.9l353.4-495H969.1z"/>
<linearGradient id="SVGID_00000039822942813996850420000007702990681011447430_" gradientUnits="userSpaceOnUse" x1="247.6767" y1="1098.6997" x2="392.7017" y2="920.5347" gradientTransform="matrix(1 0 0 -1 454 1496)">
	<stop  offset="0" style="stop-color:#FFFFFF"/>
	<stop  offset="1" style="stop-color:#FFFFFF;stop-opacity:0.55"/>
</linearGradient>
<path style="fill:url(#SVGID_00000039822942813996850420000007702990681011447430_);" d="M736.7,358l103.4,145.8l-54,79.6L626.5,358
	H736.7z"/>
<linearGradient id="SVGID_00000119078746173093459340000016325883092698956186_" gradientUnits="userSpaceOnUse" x1="553.2354" y1="682.7083" x2="375.3769" y2="926.7118" gradientTransform="matrix(1 0 0 -1 454 1496)">
	<stop  offset="0" style="stop-color:#6966FF"/>
	<stop  offset="1" style="stop-color:#6966FF;stop-opacity:0.36"/>
</linearGradient>
<path style="fill:url(#SVGID_00000119078746173093459340000016325883092698956186_);" d="M979.6,853L864.9,691.7l54-77.3L1087.5,853
	H979.6z"/>
<path class="st4" d="M582.5,148h535c102.2,0,185,82.8,185,185v535c0,102.2-82.8,185-185,185h-535c-102.2,0-185-82.8-185-185V333
	C397.5,230.8,480.3,148,582.5,148z"/>
</svg>
