<?xml version="1.0" encoding="UTF-8"?>
<svg xmlns="http://www.w3.org/2000/svg" xmlns:xlink="http://www.w3.org/1999/xlink" width="50px" height="50px" viewBox="0 0 50 50" version="1.1">
<g id="surface1">
<path style="fill-rule:nonzero;fill:rgb(0%,0%,0%);fill-opacity:1;stroke-width:1;stroke-linecap:round;stroke-linejoin:round;stroke:rgb(0%,100%,5.098039%);stroke-opacity:1;stroke-miterlimit:4;" d="M 16.546875 20.84375 C 16.546875 20.84375 22.847656 17.128906 23.414062 14.203125 C 23.980469 11.273438 21.273438 6.191406 15.226562 6.164062 C 9.179688 6.136719 6.488281 11.988281 5.933594 14.96875 C 5.382812 17.953125 3.550781 25.808594 16.546875 20.84375 Z M 16.546875 20.84375 "/>
<path style=" stroke:none;fill-rule:nonzero;fill:rgb(0%,100%,0%);fill-opacity:1;" d="M 15.925781 12.9375 C 14.996094 11.730469 11.535156 14.292969 12.695312 15.34375 C 13.609375 16.179688 16.644531 13.871094 15.925781 12.9375 Z M 15.925781 12.9375 "/>
<path style="fill-rule:nonzero;fill:rgb(0%,0%,0%);fill-opacity:1;stroke-width:1;stroke-linecap:round;stroke-linejoin:round;stroke:rgb(0%,100%,5.098039%);stroke-opacity:1;stroke-miterlimit:4;" d="M 37.101562 20.148438 C 37.101562 20.148438 42.921875 16.582031 43.445312 13.769531 C 43.972656 10.957031 41.46875 6.082031 35.882812 6.054688 C 30.296875 6.027344 27.808594 11.644531 27.296875 14.507812 C 26.785156 17.371094 25.09375 24.914062 37.101562 20.148438 Z M 37.101562 20.148438 "/>
<path style=" stroke:none;fill-rule:nonzero;fill:rgb(0%,100%,0%);fill-opacity:1;" d="M 37.398438 12.242188 C 36.796875 11.183594 34.902344 13.648438 35.894531 14.363281 C 36.992188 15.152344 37.96875 13.242188 37.398438 12.242188 Z M 37.398438 12.242188 "/>
<path style=" stroke:none;fill-rule:nonzero;fill:rgb(0%,100%,0%);fill-opacity:1;" d="M 33.6875 13.800781 C 33.085938 12.738281 30.792969 15.265625 31.789062 15.980469 C 32.886719 16.765625 34.257812 14.800781 33.6875 13.800781 Z M 33.6875 13.800781 "/>
<path style="fill-rule:nonzero;fill:rgb(0%,0%,0%);fill-opacity:1;stroke-width:1;stroke-linecap:round;stroke-linejoin:round;stroke:rgb(0%,100%,5.098039%);stroke-opacity:1;stroke-miterlimit:4;" d="M 12.855469 39.226562 C 12.855469 39.226562 15.375 36.59375 15.785156 34.152344 C 16.199219 31.707031 14.863281 26.199219 11.753906 26.074219 C 8.644531 25.953125 7.429688 30.867188 7.152344 33.601562 C 6.871094 36.339844 6.285156 43.785156 12.855469 39.226562 Z M 12.855469 39.226562 "/>
<path style="fill-rule:nonzero;fill:rgb(0%,0%,0%);fill-opacity:1;stroke-width:1;stroke-linecap:round;stroke-linejoin:round;stroke:rgb(0%,100%,5.098039%);stroke-opacity:1;stroke-miterlimit:4;" d="M 21.515625 39.152344 C 21.515625 39.152344 24.03125 36.523438 24.445312 34.078125 C 24.855469 31.636719 23.519531 26.125 20.410156 26.003906 C 17.304688 25.878906 16.089844 30.792969 15.808594 33.527344 C 15.53125 36.265625 14.941406 43.710938 21.515625 39.152344 Z M 21.515625 39.152344 "/>
<path style=" stroke:none;fill-rule:nonzero;fill:rgb(0%,100%,0%);fill-opacity:1;" d="M 19.492188 34.46875 C 18.753906 33.9375 19.683594 31.523438 20.625 32.164062 C 21.480469 32.742188 20.445312 35.082031 19.492188 34.46875 Z M 19.492188 34.46875 "/>
<path style=" stroke:none;fill-rule:nonzero;fill:rgb(0%,100%,0%);fill-opacity:1;" d="M 11.6875 32.40625 C 12.523438 33.152344 11.089844 35.273438 10.601562 34.902344 C 9.914062 34.382812 10.914062 31.714844 11.6875 32.40625 Z M 11.6875 32.40625 "/>
<path style="fill-rule:nonzero;fill:rgb(0%,0%,0%);fill-opacity:1;stroke-width:1;stroke-linecap:round;stroke-linejoin:round;stroke:rgb(0%,100%,5.098039%);stroke-opacity:1;stroke-miterlimit:4;" d="M 29.203125 37.851562 C 30.257812 37.601562 31.777344 36.382812 31.996094 35.234375 C 32.214844 34.089844 32.597656 30.601562 28.945312 30.453125 C 26.605469 30.359375 25.621094 33.019531 25.5625 34.433594 C 25.503906 35.773438 25.808594 38.242188 29.203125 37.851562 Z M 29.203125 37.851562 "/>
<path style="fill-rule:nonzero;fill:rgb(0%,0%,0%);fill-opacity:1;stroke-width:1;stroke-linecap:round;stroke-linejoin:round;stroke:rgb(0%,100%,5.098039%);stroke-opacity:1;stroke-miterlimit:4;" d="M 29.003906 33.980469 C 28.703125 34.476562 29.347656 33.417969 29.003906 33.980469 Z M 29.003906 33.980469 "/>
<path style="fill-rule:nonzero;fill:rgb(0%,0%,0%);fill-opacity:1;stroke-width:1;stroke-linecap:round;stroke-linejoin:round;stroke:rgb(0%,100%,5.098039%);stroke-opacity:1;stroke-miterlimit:4;" d="M 42.035156 37.886719 C 43.683594 37.632812 44.234375 36.515625 44.585938 35.304688 C 44.933594 34.089844 45.296875 30.625 41.644531 30.476562 C 39.304688 30.382812 38.320312 33.007812 38.257812 34.40625 C 38.203125 35.722656 38.902344 38.363281 42.035156 37.886719 Z M 42.035156 37.886719 "/>
<path style="fill-rule:nonzero;fill:rgb(0%,0%,0%);fill-opacity:1;stroke-width:1;stroke-linecap:round;stroke-linejoin:round;stroke:rgb(0%,100%,5.098039%);stroke-opacity:1;stroke-miterlimit:4;" d="M 41.703125 34.003906 C 41.398438 34.5 42.046875 33.441406 41.703125 34.003906 Z M 41.703125 34.003906 "/>
<path style="fill-rule:nonzero;fill:rgb(0%,0%,0%);fill-opacity:1;stroke-width:1;stroke-linecap:round;stroke-linejoin:round;stroke:rgb(0%,100%,5.098039%);stroke-opacity:1;stroke-miterlimit:4;" d="M 38.425781 44.242188 C 38.425781 44.242188 40.421875 43.308594 40.976562 41.683594 C 41.53125 40.058594 40.558594 37.0625 38.144531 37.058594 C 35.800781 37.054688 34.710938 39.410156 34.652344 40.792969 C 34.59375 42.101562 35.035156 44.621094 38.425781 44.242188 Z M 38.425781 44.242188 "/>
<path style="fill-rule:nonzero;fill:rgb(0%,0%,0%);fill-opacity:1;stroke-width:1;stroke-linecap:round;stroke-linejoin:round;stroke:rgb(0%,100%,5.098039%);stroke-opacity:1;stroke-miterlimit:4;" d="M 38.09375 40.429688 C 37.792969 40.925781 38.4375 39.867188 38.09375 40.429688 Z M 38.09375 40.429688 "/>
<path style="fill-rule:nonzero;fill:rgb(0%,0%,0%);fill-opacity:1;stroke-width:1;stroke-linecap:round;stroke-linejoin:round;stroke:rgb(0%,100%,5.098039%);stroke-opacity:1;stroke-miterlimit:4;" d="M 31.605469 44.324219 C 33.367188 44.03125 33.976562 42.886719 34.335938 41.746094 C 34.695312 40.605469 35.480469 37.09375 31.800781 36.980469 C 29.460938 36.910156 28.476562 39.476562 28.414062 40.855469 C 28.359375 42.15625 28.210938 44.703125 31.605469 44.324219 Z M 31.605469 44.324219 "/>
<path style="fill-rule:nonzero;fill:rgb(0%,0%,0%);fill-opacity:1;stroke-width:1;stroke-linecap:round;stroke-linejoin:round;stroke:rgb(0%,100%,5.098039%);stroke-opacity:1;stroke-miterlimit:4;" d="M 31.859375 40.507812 C 31.554688 41 32.203125 39.941406 31.859375 40.507812 Z M 31.859375 40.507812 "/>
<path style="fill-rule:nonzero;fill:rgb(0%,0%,0%);fill-opacity:1;stroke-width:1;stroke-linecap:round;stroke-linejoin:round;stroke:rgb(0%,100%,5.098039%);stroke-opacity:1;stroke-miterlimit:4;" d="M 35.222656 37.804688 C 36.9375 37.367188 38.148438 36.269531 38.21875 34.730469 C 38.292969 33.191406 38.832031 31.167969 35.25 30.601562 C 32.929688 30.230469 32.15625 32.988281 32.109375 34.4375 C 32.066406 35.726562 33.253906 38.308594 35.222656 37.804688 Z M 35.222656 37.804688 "/>
<path style="fill-rule:nonzero;fill:rgb(0%,0%,0%);fill-opacity:1;stroke-width:1;stroke-linecap:round;stroke-linejoin:round;stroke:rgb(0%,100%,5.098039%);stroke-opacity:1;stroke-miterlimit:4;" d="M 35.222656 33.90625 C 34.917969 34.402344 35.566406 33.34375 35.222656 33.90625 Z M 35.222656 33.90625 "/>
<path style="fill-rule:nonzero;fill:rgb(0%,0%,0%);fill-opacity:1;stroke-width:1;stroke-linecap:round;stroke-linejoin:round;stroke:rgb(0%,100%,5.098039%);stroke-opacity:1;stroke-miterlimit:4;" d="M 32.445312 31.28125 C 33.914062 30.851562 34.925781 29.914062 35.488281 28.585938 C 36.050781 27.261719 36.132812 24.1875 32.519531 24.011719 C 30.179688 23.894531 29.128906 26.636719 29.132812 28.089844 C 29.136719 29.417969 29.644531 31.261719 32.445312 31.28125 Z M 32.445312 31.28125 "/>
<path style="fill-rule:nonzero;fill:rgb(0%,0%,0%);fill-opacity:1;stroke-width:1;stroke-linecap:round;stroke-linejoin:round;stroke:rgb(0%,100%,5.098039%);stroke-opacity:1;stroke-miterlimit:4;" d="M 32.574219 27.535156 C 32.273438 28.03125 32.917969 26.972656 32.574219 27.535156 Z M 32.574219 27.535156 "/>
<path style="fill-rule:nonzero;fill:rgb(0%,0%,0%);fill-opacity:1;stroke-width:1;stroke-linecap:round;stroke-linejoin:round;stroke:rgb(0%,100%,5.098039%);stroke-opacity:1;stroke-miterlimit:4;" d="M 38.925781 31.339844 C 39.871094 31.242188 41.082031 30.492188 41.730469 28.953125 C 42.382812 27.410156 41.304688 24 38.792969 23.9375 C 36.453125 23.878906 35.738281 26.378906 35.699219 27.832031 C 35.660156 29.1875 35.980469 31.371094 38.925781 31.339844 Z M 38.925781 31.339844 "/>
<path style="fill-rule:nonzero;fill:rgb(0%,0%,0%);fill-opacity:1;stroke-width:1;stroke-linecap:round;stroke-linejoin:round;stroke:rgb(0%,100%,5.098039%);stroke-opacity:1;stroke-miterlimit:4;" d="M 38.847656 27.464844 C 38.546875 27.957031 39.195312 26.898438 38.847656 27.464844 Z M 38.847656 27.464844 "/>
<path style=" stroke:none;fill-rule:nonzero;fill:rgb(100%,87.843137%,87.843137%);fill-opacity:0.25098;" d="M 50 25 C 50 38.808594 38.808594 50 25 50 C 11.191406 50 0 38.808594 0 25 C 0 11.191406 11.191406 0 25 0 C 38.808594 0 50 11.191406 50 25 Z M 50 25 "/>
</g>
</svg>
