<?xml version="1.0" encoding="UTF-8"?>
<svg xmlns="http://www.w3.org/2000/svg" xmlns:xlink="http://www.w3.org/1999/xlink" width="50px" height="50px" viewBox="0 0 50 50" version="1.1">
<defs>
<filter id="alpha" filterUnits="objectBoundingBox" x="0%" y="0%" width="100%" height="100%">
  <feColorMatrix type="matrix" in="SourceGraphic" values="0 0 0 0 1 0 0 0 0 1 0 0 0 0 1 0 0 0 1 0"/>
</filter>
<mask id="mask0">
  <g filter="url(#alpha)">
<rect x="0" y="0" width="50" height="50" style="fill:rgb(0%,0%,0%);fill-opacity:0.968627;stroke:none;"/>
  </g>
</mask>
<clipPath id="clip1">
  <rect x="0" y="0" width="50" height="50"/>
</clipPath>
<g id="surface5" clip-path="url(#clip1)">
<path style=" stroke:none;fill-rule:nonzero;fill:rgb(36.862745%,23.137255%,34.117647%);fill-opacity:1;" d="M 23.5625 16.691406 C 23.929688 16.675781 24.65625 16.640625 25.023438 16.625 C 25.066406 16.65625 25.15625 16.71875 25.203125 16.753906 C 25.300781 16.761719 25.496094 16.777344 25.597656 16.785156 C 25.9375 16.800781 26.28125 16.820312 26.621094 16.851562 C 26.664062 16.875 26.75 16.921875 26.792969 16.945312 C 27.058594 17.046875 27.335938 17.054688 27.617188 16.964844 C 28.003906 16.988281 28.394531 17.011719 28.785156 17.039062 C 29.054688 17.328125 29.476562 17.253906 29.816406 17.15625 C 30.203125 17.1875 30.59375 17.210938 30.984375 17.238281 C 31.257812 17.53125 31.675781 17.457031 32.015625 17.351562 C 32.351562 17.390625 32.691406 17.425781 33.027344 17.464844 C 33.066406 17.484375 33.148438 17.519531 33.191406 17.535156 C 33.511719 17.703125 33.878906 17.621094 34.210938 17.550781 C 34.550781 17.585938 34.886719 17.617188 35.222656 17.652344 C 35.265625 17.671875 35.34375 17.710938 35.382812 17.730469 C 35.765625 17.949219 36.222656 17.875 36.613281 17.734375 C 36.953125 17.773438 37.289062 17.804688 37.628906 17.828125 L 37.625 17.953125 C 33.425781 18.335938 29.207031 18.53125 25 18.808594 C 20.738281 18.570312 16.476562 18.234375 12.214844 17.972656 C 12.242188 17.898438 12.300781 17.742188 12.328125 17.664062 C 13.273438 17.871094 14.253906 17.472656 15.203125 17.4375 C 16.550781 17.367188 17.886719 17.171875 19.234375 17.101562 C 19.269531 17.097656 19.335938 17.089844 19.367188 17.085938 C 19.988281 17 20.613281 16.96875 21.234375 16.898438 C 21.269531 16.894531 21.335938 16.886719 21.367188 16.882812 C 22.054688 16.789062 22.742188 16.761719 23.4375 16.703125 C 23.46875 16.699219 23.53125 16.695312 23.5625 16.691406 Z M 23.5625 16.691406 "/>
</g>
<mask id="mask1">
  <g filter="url(#alpha)">
<rect x="0" y="0" width="50" height="50" style="fill:rgb(0%,0%,0%);fill-opacity:0.968627;stroke:none;"/>
  </g>
</mask>
<clipPath id="clip2">
  <rect x="0" y="0" width="50" height="50"/>
</clipPath>
<g id="surface8" clip-path="url(#clip2)">
<path style=" stroke:none;fill-rule:nonzero;fill:rgb(41.176471%,36.078431%,34.509804%);fill-opacity:1;" d="M 25.023438 16.625 L 25.179688 16.613281 L 25.203125 16.753906 C 25.15625 16.71875 25.066406 16.65625 25.023438 16.625 Z M 25.023438 16.625 "/>
</g>
<mask id="mask2">
  <g filter="url(#alpha)">
<rect x="0" y="0" width="50" height="50" style="fill:rgb(0%,0%,0%);fill-opacity:0.678431;stroke:none;"/>
  </g>
</mask>
<clipPath id="clip3">
  <rect x="0" y="0" width="50" height="50"/>
</clipPath>
<g id="surface11" clip-path="url(#clip3)">
<path style=" stroke:none;fill-rule:nonzero;fill:rgb(24.705882%,61.176471%,50.588235%);fill-opacity:1;" d="M 23 19.199219 C 23.167969 18.757812 24.105469 19.089844 24.578125 19.011719 L 24.613281 19.195312 C 24.074219 19.199219 23.535156 19.199219 23 19.199219 Z M 23 19.199219 "/>
</g>
<mask id="mask3">
  <g filter="url(#alpha)">
<rect x="0" y="0" width="50" height="50" style="fill:rgb(0%,0%,0%);fill-opacity:0.670588;stroke:none;"/>
  </g>
</mask>
<clipPath id="clip4">
  <rect x="0" y="0" width="50" height="50"/>
</clipPath>
<g id="surface14" clip-path="url(#clip4)">
<path style=" stroke:none;fill-rule:nonzero;fill:rgb(60.392157%,22.745098%,53.72549%);fill-opacity:1;" d="M 26.214844 19.082031 C 26.585938 18.929688 27.367188 18.804688 27.566406 19.191406 C 27.238281 19.191406 26.578125 19.191406 26.246094 19.195312 Z M 26.214844 19.082031 "/>
</g>
<mask id="mask4">
  <g filter="url(#alpha)">
<rect x="0" y="0" width="50" height="50" style="fill:rgb(0%,0%,0%);fill-opacity:0.670588;stroke:none;"/>
  </g>
</mask>
<clipPath id="clip5">
  <rect x="0" y="0" width="50" height="50"/>
</clipPath>
<g id="surface17" clip-path="url(#clip5)">
<path style=" stroke:none;fill-rule:nonzero;fill:rgb(60%,20%,50.196078%);fill-opacity:1;" d="M 16.632812 19.566406 C 16.875 19.234375 17.59375 19.359375 17.976562 19.460938 L 17.976562 19.574219 C 17.890625 19.59375 17.71875 19.621094 17.636719 19.636719 C 17.300781 19.613281 16.96875 19.59375 16.632812 19.566406 Z M 16.632812 19.566406 "/>
</g>
<mask id="mask5">
  <g filter="url(#alpha)">
<rect x="0" y="0" width="50" height="50" style="fill:rgb(0%,0%,0%);fill-opacity:0.85098;stroke:none;"/>
  </g>
</mask>
<clipPath id="clip6">
  <rect x="0" y="0" width="50" height="50"/>
</clipPath>
<g id="surface20" clip-path="url(#clip6)">
<path style=" stroke:none;fill-rule:nonzero;fill:rgb(77.647059%,35.686275%,73.72549%);fill-opacity:1;" d="M 38.402344 20.003906 L 38.597656 20 C 38.601562 21.132812 38.628906 22.269531 38.59375 23.402344 L 38.402344 23.394531 C 38.390625 23.058594 38.367188 22.382812 38.355469 22.042969 C 38.394531 21.363281 38.394531 20.683594 38.402344 20.003906 Z M 38.402344 20.003906 "/>
</g>
<mask id="mask6">
  <g filter="url(#alpha)">
<rect x="0" y="0" width="50" height="50" style="fill:rgb(0%,0%,0%);fill-opacity:0.0392157;stroke:none;"/>
  </g>
</mask>
<clipPath id="clip7">
  <rect x="0" y="0" width="50" height="50"/>
</clipPath>
<g id="surface23" clip-path="url(#clip7)">
<path style=" stroke:none;fill-rule:nonzero;fill:rgb(2.745098%,2.352941%,1.176471%);fill-opacity:1;" d="M 11.804688 23.003906 L 11.996094 23 C 12.007812 23.75 12.007812 24.496094 12.019531 25.25 C 12.019531 25.394531 12.015625 25.6875 12.011719 25.835938 C 12 26.675781 11.996094 27.515625 12.015625 28.359375 C 12.011719 28.964844 12.003906 29.574219 12 30.1875 L 11.804688 30.203125 C 11.792969 27.800781 11.792969 25.402344 11.804688 23.003906 Z M 11.804688 23.003906 "/>
</g>
<mask id="mask7">
  <g filter="url(#alpha)">
<rect x="0" y="0" width="50" height="50" style="fill:rgb(0%,0%,0%);fill-opacity:0.878431;stroke:none;"/>
  </g>
</mask>
<clipPath id="clip8">
  <rect x="0" y="0" width="50" height="50"/>
</clipPath>
<g id="surface26" clip-path="url(#clip8)">
<path style=" stroke:none;fill-rule:nonzero;fill:rgb(74.117647%,76.078431%,42.745098%);fill-opacity:1;" d="M 38.402344 23.394531 L 38.59375 23.402344 C 38.605469 24.132812 38.621094 24.867188 38.59375 25.601562 L 38.40625 25.601562 C 38.394531 25.214844 38.382812 24.832031 38.351562 24.449219 C 38.371094 24.097656 38.390625 23.746094 38.402344 23.394531 Z M 38.402344 23.394531 "/>
</g>
<mask id="mask8">
  <g filter="url(#alpha)">
<rect x="0" y="0" width="50" height="50" style="fill:rgb(0%,0%,0%);fill-opacity:0.901961;stroke:none;"/>
  </g>
</mask>
<clipPath id="clip9">
  <rect x="0" y="0" width="50" height="50"/>
</clipPath>
<g id="surface29" clip-path="url(#clip9)">
<path style=" stroke:none;fill-rule:nonzero;fill:rgb(29.803922%,84.705882%,82.352941%);fill-opacity:1;" d="M 38.40625 25.601562 L 38.59375 25.601562 C 38.597656 27.195312 38.628906 28.796875 38.589844 30.390625 L 38.398438 30.417969 C 38.390625 30.160156 38.378906 29.902344 38.367188 29.648438 C 38.425781 28.296875 38.390625 26.949219 38.40625 25.601562 Z M 38.40625 25.601562 "/>
</g>
<mask id="mask9">
  <g filter="url(#alpha)">
<rect x="0" y="0" width="50" height="50" style="fill:rgb(0%,0%,0%);fill-opacity:0.968627;stroke:none;"/>
  </g>
</mask>
<clipPath id="clip10">
  <rect x="0" y="0" width="50" height="50"/>
</clipPath>
<g id="surface32" clip-path="url(#clip10)">
<path style=" stroke:none;fill-rule:nonzero;fill:rgb(62.745098%,93.72549%,42.745098%);fill-opacity:1;" d="M 21.070312 28.148438 C 21.339844 29.28125 21.359375 30.460938 21.578125 31.605469 C 21.367188 31.527344 20.710938 31.800781 20.820312 31.433594 C 21.609375 31.363281 21.097656 30.21875 20.953125 29.644531 C 20.980469 29.269531 21.039062 28.523438 21.070312 28.148438 Z M 21.070312 28.148438 "/>
</g>
<mask id="mask10">
  <g filter="url(#alpha)">
<rect x="0" y="0" width="50" height="50" style="fill:rgb(0%,0%,0%);fill-opacity:0.980392;stroke:none;"/>
  </g>
</mask>
<clipPath id="clip11">
  <rect x="0" y="0" width="50" height="50"/>
</clipPath>
<g id="surface35" clip-path="url(#clip11)">
<path style=" stroke:none;fill-rule:nonzero;fill:rgb(84.705882%,95.686275%,29.019608%);fill-opacity:1;" d="M 12.015625 28.359375 C 12.9375 28.773438 12.570312 29.972656 13.324219 30.476562 L 13.4375 30.582031 C 13 30.476562 12.160156 30.585938 12 30.1875 C 12.003906 29.574219 12.011719 28.964844 12.015625 28.359375 Z M 12.015625 28.359375 "/>
</g>
<mask id="mask11">
  <g filter="url(#alpha)">
<rect x="0" y="0" width="50" height="50" style="fill:rgb(0%,0%,0%);fill-opacity:0.901961;stroke:none;"/>
  </g>
</mask>
<clipPath id="clip12">
  <rect x="0" y="0" width="50" height="50"/>
</clipPath>
<g id="surface38" clip-path="url(#clip12)">
<path style=" stroke:none;fill-rule:nonzero;fill:rgb(85.882353%,38.039216%,40%);fill-opacity:1;" d="M 19.152344 31.160156 C 19.394531 30.910156 19.761719 30.988281 19.992188 31.203125 L 20.011719 31.339844 C 19.769531 31.507812 19.21875 31.523438 19.152344 31.160156 Z M 19.152344 31.160156 "/>
</g>
<mask id="mask12">
  <g filter="url(#alpha)">
<rect x="0" y="0" width="50" height="50" style="fill:rgb(0%,0%,0%);fill-opacity:0.980392;stroke:none;"/>
  </g>
</mask>
<clipPath id="clip13">
  <rect x="0" y="0" width="50" height="50"/>
</clipPath>
<g id="surface41" clip-path="url(#clip13)">
<path style=" stroke:none;fill-rule:nonzero;fill:rgb(49.803922%,31.372549%,59.215686%);fill-opacity:1;" d="M 12.203125 32.820312 C 14.132812 32.757812 16.066406 32.3125 17.964844 32.242188 C 18.167969 32.5 18.378906 32.753906 18.589844 33.011719 C 17.933594 33.191406 17.125 33.089844 16.761719 33.789062 C 16.011719 33.824219 15.292969 33.582031 14.566406 33.441406 C 13.84375 33.339844 13.117188 33.269531 12.394531 33.203125 L 12.207031 33.179688 C 12.207031 33.089844 12.203125 32.910156 12.203125 32.820312 Z M 12.203125 32.820312 "/>
</g>
</defs>
<g id="surface1">
<path style=" stroke:none;fill-rule:nonzero;fill:rgb(61.960784%,37.647059%,74.901961%);fill-opacity:1;" d="M 24.996094 2.582031 C 24.875 2.230469 25.5625 2.375 25.628906 2.574219 C 26.4375 3.726562 27.519531 4.660156 28.261719 5.863281 C 28.296875 5.90625 28.363281 5.992188 28.394531 6.035156 C 28.4375 6.078125 28.523438 6.164062 28.5625 6.207031 C 28.601562 6.242188 28.667969 6.320312 28.703125 6.359375 C 28.902344 6.585938 29.117188 6.800781 29.269531 7.0625 C 29.300781 7.105469 29.367188 7.191406 29.398438 7.234375 C 29.4375 7.277344 29.519531 7.363281 29.5625 7.40625 C 29.597656 7.445312 29.667969 7.523438 29.703125 7.558594 C 29.964844 7.851562 30.253906 8.125 30.460938 8.457031 C 30.492188 8.5 30.550781 8.578125 30.578125 8.617188 C 30.613281 8.65625 30.675781 8.730469 30.707031 8.765625 C 30.964844 9.058594 31.261719 9.324219 31.46875 9.660156 C 31.5 9.703125 31.566406 9.789062 31.597656 9.835938 C 31.640625 9.875 31.722656 9.964844 31.765625 10.007812 C 31.800781 10.042969 31.867188 10.121094 31.902344 10.15625 C 32.101562 10.382812 32.316406 10.601562 32.46875 10.863281 C 32.5 10.902344 32.566406 10.988281 32.597656 11.035156 C 32.636719 11.078125 32.71875 11.164062 32.761719 11.207031 C 32.796875 11.246094 32.867188 11.320312 32.902344 11.359375 C 33.164062 11.652344 33.453125 11.925781 33.660156 12.257812 C 33.691406 12.296875 33.75 12.378906 33.78125 12.417969 C 33.8125 12.457031 33.875 12.53125 33.90625 12.566406 C 34.164062 12.859375 34.460938 13.125 34.667969 13.460938 C 34.699219 13.503906 34.765625 13.589844 34.796875 13.632812 C 34.839844 13.675781 34.921875 13.765625 34.964844 13.804688 C 35 13.84375 35.066406 13.921875 35.105469 13.957031 C 35.300781 14.183594 35.515625 14.398438 35.667969 14.660156 C 35.699219 14.703125 35.765625 14.789062 35.796875 14.835938 C 35.839844 14.878906 35.921875 14.964844 35.960938 15.007812 C 35.996094 15.046875 36.066406 15.121094 36.101562 15.160156 C 36.363281 15.453125 36.652344 15.722656 36.863281 16.058594 C 36.890625 16.097656 36.949219 16.179688 36.980469 16.21875 C 37.011719 16.257812 37.074219 16.328125 37.109375 16.367188 C 37.367188 16.65625 37.660156 16.925781 37.867188 17.261719 C 37.898438 17.300781 37.964844 17.386719 37.996094 17.429688 C 38.039062 17.46875 38.128906 17.554688 38.171875 17.597656 L 38.183594 17.734375 C 38.042969 17.757812 37.769531 17.804688 37.628906 17.828125 C 37.289062 17.804688 36.953125 17.773438 36.613281 17.734375 C 36.300781 17.707031 35.679688 17.648438 35.367188 17.621094 L 35.222656 17.652344 C 34.886719 17.617188 34.550781 17.585938 34.210938 17.550781 C 33.917969 17.304688 33.515625 17.335938 33.171875 17.4375 L 33.027344 17.464844 C 32.691406 17.425781 32.351562 17.390625 32.015625 17.351562 C 31.734375 17.074219 31.324219 17.144531 30.984375 17.238281 C 30.59375 17.210938 30.203125 17.1875 29.816406 17.15625 C 29.542969 16.871094 29.125 16.945312 28.785156 17.039062 C 28.394531 17.011719 28.003906 16.988281 27.617188 16.964844 C 27.402344 16.714844 27.054688 16.738281 26.773438 16.828125 L 26.621094 16.851562 C 26.28125 16.820312 25.9375 16.800781 25.597656 16.785156 C 25.492188 16.742188 25.285156 16.65625 25.179688 16.613281 C 25.207031 14.53125 25.207031 12.453125 25.195312 10.371094 C 25.289062 7.769531 24.878906 5.1875 24.996094 2.582031 Z M 24.996094 2.582031 "/>
<path style=" stroke:none;fill-rule:nonzero;fill:rgb(50.196078%,28.627451%,63.137255%);fill-opacity:1;" d="M 12.328125 17.664062 C 16.503906 12.613281 20.738281 7.523438 24.996094 2.582031 C 24.878906 5.1875 25.289062 7.769531 25.195312 10.371094 C 25.066406 10.390625 24.800781 10.4375 24.671875 10.457031 C 24.460938 11.867188 23.214844 12.695312 21.988281 13.191406 C 20.765625 13.71875 19.398438 14.050781 18.425781 15.019531 C 17.390625 15.863281 16.050781 16.40625 15.203125 17.4375 C 14.253906 17.472656 13.273438 17.871094 12.328125 17.664062 Z M 12.328125 17.664062 "/>
<path style=" stroke:none;fill-rule:nonzero;fill:rgb(50.196078%,28.627451%,63.137255%);fill-opacity:1;" d="M 26.621094 16.851562 L 26.773438 16.828125 L 26.792969 16.945312 C 26.75 16.917969 26.664062 16.875 26.621094 16.851562 Z M 26.621094 16.851562 "/>
<path style=" stroke:none;fill-rule:nonzero;fill:rgb(50.196078%,28.627451%,63.137255%);fill-opacity:1;" d="M 33.027344 17.464844 L 33.171875 17.4375 L 33.191406 17.535156 C 33.148438 17.519531 33.066406 17.484375 33.027344 17.464844 Z M 33.027344 17.464844 "/>
<path style=" stroke:none;fill-rule:nonzero;fill:rgb(50.196078%,28.627451%,63.137255%);fill-opacity:1;" d="M 35.222656 17.652344 L 35.367188 17.621094 L 35.382812 17.730469 C 35.34375 17.710938 35.265625 17.671875 35.222656 17.652344 Z M 35.222656 17.652344 "/>
<path style=" stroke:none;fill-rule:nonzero;fill:rgb(52.156863%,32.941176%,64.705882%);fill-opacity:1;" d="M 24.671875 10.457031 C 24.800781 10.4375 25.066406 10.390625 25.195312 10.371094 C 25.207031 12.453125 25.207031 14.53125 25.179688 16.613281 L 25.023438 16.625 C 24.65625 16.640625 23.929688 16.675781 23.5625 16.691406 C 23.53125 16.695312 23.46875 16.699219 23.4375 16.703125 C 22.742188 16.761719 22.054688 16.789062 21.367188 16.882812 C 21.335938 16.886719 21.269531 16.894531 21.234375 16.898438 C 20.613281 16.96875 19.988281 17 19.367188 17.085938 C 19.335938 17.089844 19.269531 17.097656 19.234375 17.101562 C 17.886719 17.171875 16.550781 17.367188 15.203125 17.4375 C 16.050781 16.40625 17.390625 15.863281 18.425781 15.019531 C 19.398438 14.050781 20.765625 13.71875 21.988281 13.191406 C 23.214844 12.695312 24.460938 11.867188 24.671875 10.457031 Z M 24.671875 10.457031 "/>
<path style=" stroke:none;fill-rule:nonzero;fill:rgb(52.156863%,32.941176%,64.705882%);fill-opacity:1;" d="M 25.179688 16.613281 C 25.285156 16.65625 25.492188 16.742188 25.597656 16.785156 C 25.496094 16.777344 25.300781 16.761719 25.203125 16.753906 Z M 25.179688 16.613281 "/>
<path style=" stroke:none;fill-rule:nonzero;fill:rgb(52.156863%,32.941176%,64.705882%);fill-opacity:1;" d="M 26.773438 16.828125 C 27.054688 16.738281 27.402344 16.714844 27.617188 16.964844 C 27.335938 17.054688 27.058594 17.046875 26.792969 16.945312 Z M 26.773438 16.828125 "/>
<path style=" stroke:none;fill-rule:nonzero;fill:rgb(52.156863%,32.941176%,64.705882%);fill-opacity:1;" d="M 28.785156 17.039062 C 29.125 16.945312 29.542969 16.871094 29.816406 17.15625 C 29.476562 17.253906 29.054688 17.328125 28.785156 17.039062 Z M 28.785156 17.039062 "/>
<path style=" stroke:none;fill-rule:nonzero;fill:rgb(52.156863%,32.941176%,64.705882%);fill-opacity:1;" d="M 30.984375 17.238281 C 31.324219 17.144531 31.734375 17.074219 32.015625 17.351562 C 31.675781 17.457031 31.257812 17.53125 30.984375 17.238281 Z M 30.984375 17.238281 "/>
<path style=" stroke:none;fill-rule:nonzero;fill:rgb(52.156863%,32.941176%,64.705882%);fill-opacity:1;" d="M 33.171875 17.4375 C 33.515625 17.335938 33.917969 17.304688 34.210938 17.550781 C 33.878906 17.621094 33.511719 17.703125 33.191406 17.535156 Z M 33.171875 17.4375 "/>
<path style=" stroke:none;fill-rule:nonzero;fill:rgb(52.156863%,32.941176%,64.705882%);fill-opacity:1;" d="M 35.367188 17.621094 C 35.679688 17.648438 36.300781 17.707031 36.613281 17.734375 C 36.222656 17.875 35.765625 17.949219 35.382812 17.730469 Z M 35.367188 17.621094 "/>
<path style=" stroke:none;fill-rule:nonzero;fill:rgb(52.156863%,32.941176%,64.705882%);fill-opacity:1;" d="M 37.628906 17.832031 C 37.769531 17.804688 38.042969 17.757812 38.183594 17.734375 L 38.3125 17.769531 C 38.394531 18.113281 37.804688 18.09375 37.625 17.953125 Z M 37.628906 17.832031 "/>
<use xlink:href="#surface5" mask="url(#mask0)"/>
<use xlink:href="#surface8" mask="url(#mask1)"/>
<path style=" stroke:none;fill-rule:nonzero;fill:rgb(35.294118%,31.764706%,34.901961%);fill-opacity:1;" d="M 38.171875 17.597656 C 38.207031 17.636719 38.277344 17.726562 38.3125 17.769531 L 38.183594 17.734375 Z M 38.171875 17.597656 "/>
<use xlink:href="#surface11" mask="url(#mask2)"/>
<path style=" stroke:none;fill-rule:nonzero;fill:rgb(75.686275%,98.039216%,38.823529%);fill-opacity:1;" d="M 24.578125 19.011719 C 24.679688 19.011719 24.871094 19.011719 24.96875 19.011719 C 25.164062 20.8125 26.148438 22.351562 26.820312 23.992188 C 27.175781 24.800781 27.582031 25.59375 28.066406 26.332031 C 28.273438 26.875 29.015625 26.585938 29.390625 26.328125 C 30.242188 26.503906 30.097656 27.578125 30.175781 28.238281 C 30.046875 27.949219 29.929688 27.652344 29.796875 27.363281 C 29.5 27.019531 28.820312 27.484375 28.378906 27.445312 C 28.191406 27.21875 28.003906 26.988281 27.800781 26.773438 C 27.597656 26.386719 27.398438 26 27.203125 25.613281 C 26.960938 24.992188 26.707031 24.382812 26.4375 23.777344 C 26.335938 23.445312 26.113281 23.171875 25.835938 22.964844 C 25.796875 23.257812 25.761719 23.550781 25.734375 23.847656 C 25.621094 23.433594 25.519531 23.011719 25.359375 22.613281 C 24.46875 22.570312 23.851562 23.347656 23.148438 23.777344 C 23.457031 23.109375 24.050781 22.652344 24.621094 22.21875 C 25.390625 21.742188 24.976562 20.472656 24.859375 19.746094 C 24.78125 19.5625 24.699219 19.378906 24.613281 19.195312 Z M 24.578125 19.011719 "/>
<path style=" stroke:none;fill-rule:nonzero;fill:rgb(95.686275%,95.294118%,34.509804%);fill-opacity:1;" d="M 24.96875 19.011719 C 25.382812 18.996094 25.8125 18.949219 26.214844 19.078125 L 26.246094 19.195312 C 26.296875 19.363281 26.34375 19.53125 26.386719 19.699219 C 26.234375 20.019531 26.472656 20.320312 26.566406 20.621094 C 26.972656 21.507812 27.265625 22.527344 28.058594 23.164062 C 28.839844 23.71875 29.429688 22.273438 30.050781 22.75 C 30.15625 23.8125 30.28125 24.890625 30.175781 25.960938 C 29.910156 26.078125 29.628906 26.160156 29.390625 26.328125 C 29.015625 26.582031 28.273438 26.875 28.066406 26.332031 C 27.582031 25.59375 27.175781 24.800781 26.820312 23.992188 C 26.148438 22.351562 25.164062 20.8125 24.96875 19.011719 Z M 24.96875 19.011719 "/>
<use xlink:href="#surface14" mask="url(#mask3)"/>
<path style=" stroke:none;fill-rule:nonzero;fill:rgb(42.352941%,97.647059%,88.627451%);fill-opacity:1;" d="M 19.636719 19.4375 C 20.726562 19.125 21.875 19.207031 23 19.199219 C 23.535156 19.199219 24.074219 19.199219 24.613281 19.195312 C 24.699219 19.378906 24.78125 19.5625 24.859375 19.746094 C 24.839844 20.574219 24.839844 21.414062 24.621094 22.21875 C 24.050781 22.652344 23.457031 23.109375 23.148438 23.777344 C 22.738281 24.5625 22.648438 25.480469 22.546875 26.355469 C 22.476562 26.882812 22.410156 27.421875 22.351562 27.953125 C 22.144531 29.1875 22.21875 30.441406 22.167969 31.683594 L 22.019531 31.691406 C 21.90625 31.671875 21.6875 31.628906 21.578125 31.605469 C 21.359375 30.460938 21.339844 29.28125 21.070312 28.148438 C 21.042969 28.023438 20.988281 27.777344 20.960938 27.652344 C 20.839844 26.707031 21.023438 25.421875 20.332031 24.675781 C 19.652344 24.804688 18.914062 24.328125 18.960938 23.625 C 18.984375 23.230469 19.011719 22.835938 19.039062 22.441406 C 19.207031 21.433594 19.5 20.449219 19.636719 19.4375 Z M 19.636719 19.4375 "/>
<path style=" stroke:none;fill-rule:nonzero;fill:rgb(98.039216%,35.686275%,84.313725%);fill-opacity:1;" d="M 26.246094 19.195312 C 26.578125 19.191406 27.238281 19.191406 27.566406 19.191406 C 27.734375 19.195312 28.0625 19.207031 28.230469 19.210938 C 28.007812 19.46875 27.761719 19.710938 27.578125 20 C 28.09375 21.09375 29.40625 20.679688 30.367188 20.609375 C 30.683594 21.019531 30.78125 21.539062 30.976562 22.011719 C 30.980469 22.359375 30.996094 23.054688 31.003906 23.402344 L 30.804688 23.402344 L 30.601562 23.394531 C 30.597656 23.257812 30.585938 22.980469 30.582031 22.84375 C 30.675781 22.21875 30.417969 21.636719 29.964844 21.214844 C 29.566406 21.375 29.253906 21.671875 28.914062 21.925781 C 28.113281 22.304688 27.726562 21.535156 27.160156 21.21875 C 26.859375 20.734375 26.695312 20.179688 26.386719 19.699219 C 26.34375 19.53125 26.296875 19.363281 26.246094 19.195312 Z M 26.246094 19.195312 "/>
<path style=" stroke:none;fill-rule:nonzero;fill:rgb(97.254902%,26.666667%,94.901961%);fill-opacity:1;" d="M 28.230469 19.210938 C 30.007812 19.183594 31.777344 19.464844 33.554688 19.441406 C 33.613281 19.480469 33.730469 19.566406 33.789062 19.609375 C 33.519531 20.683594 33.269531 21.785156 32.734375 22.765625 C 31.921875 23.101562 31.535156 22.351562 30.976562 22.011719 C 30.78125 21.539062 30.683594 21.019531 30.367188 20.609375 C 29.40625 20.679688 28.09375 21.09375 27.578125 20 C 27.761719 19.710938 28.007812 19.46875 28.230469 19.210938 Z M 28.230469 19.210938 "/>
<use xlink:href="#surface17" mask="url(#mask4)"/>
<path style=" stroke:none;fill-rule:nonzero;fill:rgb(96.470588%,56.470588%,55.686275%);fill-opacity:1;" d="M 17.976562 19.460938 L 18.183594 19.402344 C 18.1875 20.484375 18.265625 21.574219 18.042969 22.640625 C 18.019531 21.621094 18.011719 20.597656 17.976562 19.574219 Z M 17.976562 19.460938 "/>
<path style=" stroke:none;fill-rule:nonzero;fill:rgb(94.509804%,93.72549%,40.784314%);fill-opacity:1;" d="M 18.183594 19.402344 C 18.601562 19.382812 19.019531 19.386719 19.433594 19.417969 C 19.28125 20.195312 19.058594 20.964844 18.949219 21.753906 C 18.867188 22.28125 18.808594 22.816406 18.75 23.351562 C 18.660156 24.019531 18.597656 24.691406 18.535156 25.359375 C 18.445312 26.117188 18.402344 26.878906 18.40625 27.644531 C 18.039062 28.359375 17.828125 29.140625 17.441406 29.847656 C 17.414062 29.433594 17.386719 29.019531 17.386719 28.605469 C 17.503906 28.074219 17.578125 27.542969 17.601562 27.003906 C 17.699219 26.457031 17.789062 25.917969 17.78125 25.363281 C 17.792969 25.28125 17.8125 25.121094 17.824219 25.039062 C 17.949219 24.417969 18.011719 23.789062 17.96875 23.15625 C 17.988281 23.027344 18.023438 22.773438 18.042969 22.640625 C 18.265625 21.574219 18.1875 20.484375 18.183594 19.402344 Z M 18.183594 19.402344 "/>
<path style=" stroke:none;fill-rule:nonzero;fill:rgb(53.333333%,97.254902%,55.686275%);fill-opacity:1;" d="M 19.433594 19.414062 L 19.636719 19.4375 C 19.5 20.449219 19.207031 21.433594 19.039062 22.441406 C 19.015625 22.269531 18.972656 21.925781 18.949219 21.753906 C 19.058594 20.964844 19.28125 20.195312 19.433594 19.414062 Z M 19.433594 19.414062 "/>
<path style=" stroke:none;fill-rule:nonzero;fill:rgb(97.647059%,20%,91.372549%);fill-opacity:1;" d="M 12.007812 19.816406 C 12.839844 19.949219 13.625 19.695312 14.433594 19.601562 C 14.390625 19.992188 14.304688 20.382812 14.171875 20.753906 C 13.953125 21.292969 13.78125 21.863281 13.839844 22.449219 C 13.257812 23.363281 13.136719 24.832031 12.019531 25.25 C 12.007812 24.5 12.007812 23.75 11.996094 23 C 11.988281 21.941406 11.992188 20.878906 12.007812 19.816406 Z M 12.007812 19.816406 "/>
<path style=" stroke:none;fill-rule:nonzero;fill:rgb(97.254902%,64.313725%,40.784314%);fill-opacity:1;" d="M 14.433594 19.601562 C 15.03125 19.582031 15.632812 19.589844 16.230469 19.613281 C 15.789062 20.0625 15.46875 20.609375 15.1875 21.167969 C 14.675781 21.882812 14.316406 22.746094 14.421875 23.644531 C 14.246094 24.628906 14.078125 25.617188 13.960938 26.609375 L 13.808594 26.601562 C 13.824219 25.726562 13.921875 24.859375 13.992188 23.988281 C 13.863281 24.007812 13.605469 24.039062 13.476562 24.054688 C 13.121094 24.738281 12.707031 25.449219 12.011719 25.832031 C 12.015625 25.6875 12.019531 25.394531 12.019531 25.25 C 13.136719 24.828125 13.257812 23.363281 13.839844 22.449219 C 14.125 21.929688 14.246094 21.347656 14.171875 20.75 C 14.304688 20.382812 14.390625 19.992188 14.433594 19.601562 Z M 14.433594 19.601562 "/>
<path style=" stroke:none;fill-rule:nonzero;fill:rgb(97.647059%,29.411765%,95.686275%);fill-opacity:1;" d="M 16.230469 19.613281 C 16.332031 19.601562 16.535156 19.578125 16.632812 19.566406 C 16.96875 19.59375 17.300781 19.613281 17.636719 19.636719 C 17.226562 21.8125 16.539062 23.960938 16.589844 26.199219 C 16.539062 27.804688 16.671875 29.40625 16.808594 31.003906 C 15.71875 30.953125 14.636719 30.757812 13.566406 30.546875 C 13.597656 30.410156 13.664062 30.140625 13.695312 30.003906 C 13.871094 29.535156 13.894531 29.070312 13.769531 28.613281 C 13.792969 28.460938 13.84375 28.15625 13.871094 28.007812 C 14.089844 27.535156 14.117188 27.066406 13.960938 26.609375 C 14.078125 25.617188 14.246094 24.628906 14.421875 23.644531 C 14.65625 22.8125 15.085938 22.03125 15.1875 21.167969 C 15.46875 20.609375 15.789062 20.0625 16.230469 19.613281 Z M 16.230469 19.613281 "/>
<path style=" stroke:none;fill-rule:nonzero;fill:rgb(97.254902%,38.823529%,94.117647%);fill-opacity:1;" d="M 17.636719 19.636719 C 17.71875 19.621094 17.890625 19.59375 17.976562 19.574219 C 18.011719 20.597656 18.019531 21.621094 18.042969 22.640625 C 18.023438 22.773438 17.988281 23.027344 17.96875 23.15625 C 17.847656 23.777344 17.792969 24.40625 17.824219 25.039062 C 17.8125 25.121094 17.792969 25.28125 17.78125 25.363281 C 17.695312 25.902344 17.625 26.453125 17.601562 27 C 17.503906 27.53125 17.421875 28.066406 17.386719 28.605469 C 17.183594 29.386719 17.046875 30.183594 16.980469 30.988281 L 16.808594 31.003906 C 16.671875 29.40625 16.539062 27.804688 16.589844 26.199219 C 16.539062 23.960938 17.226562 21.8125 17.636719 19.636719 Z M 17.636719 19.636719 "/>
<path style=" stroke:none;fill-rule:nonzero;fill:rgb(97.254902%,33.72549%,96.470588%);fill-opacity:1;" d="M 33.789062 19.609375 L 33.988281 19.59375 C 34.078125 19.777344 34.164062 19.960938 34.238281 20.152344 C 34.230469 22.238281 34.738281 24.304688 34.601562 26.398438 C 34.699219 27.394531 34.363281 28.484375 34.808594 29.425781 C 34.8125 29.761719 34.824219 30.4375 34.828125 30.773438 C 33.847656 31.148438 32.652344 31.011719 31.605469 31.210938 C 31.46875 28.609375 31.539062 25.960938 31.003906 23.402344 C 30.996094 23.054688 30.980469 22.359375 30.976562 22.011719 C 31.535156 22.351562 31.921875 23.101562 32.734375 22.765625 C 33.269531 21.785156 33.519531 20.683594 33.789062 19.609375 Z M 33.789062 19.609375 "/>
<path style=" stroke:none;fill-rule:nonzero;fill:rgb(92.156863%,93.333333%,47.843137%);fill-opacity:1;" d="M 33.988281 19.59375 C 34.320312 19.589844 34.652344 19.589844 34.984375 19.613281 C 35.121094 20.597656 35.285156 21.574219 35.472656 22.546875 C 35.453125 23.113281 35.308594 23.710938 35.550781 24.246094 C 35.574219 24.324219 35.625 24.476562 35.648438 24.554688 C 35.671875 25.105469 35.40625 25.761719 35.804688 26.207031 C 35.8125 26.59375 35.816406 26.976562 35.839844 27.363281 C 35.804688 28.097656 35.515625 28.773438 35.253906 29.449219 C 35.148438 27.953125 35.328125 26.421875 35.058594 24.941406 C 35.039062 24.863281 35 24.699219 34.976562 24.617188 C 35.226562 24.03125 35.179688 23.554688 34.835938 23.179688 C 34.71875 22.160156 34.613281 21.117188 34.238281 20.152344 C 34.164062 19.960938 34.078125 19.777344 33.988281 19.59375 Z M 33.988281 19.59375 "/>
<path style=" stroke:none;fill-rule:nonzero;fill:rgb(43.137255%,96.078431%,87.058824%);fill-opacity:1;" d="M 34.984375 19.613281 C 35.679688 19.753906 36.644531 19.304688 37.222656 19.867188 C 36.710938 20.394531 36.160156 20.882812 35.679688 21.441406 C 35.875 23.195312 35.808594 25.171875 36.957031 26.628906 C 37.65625 27.523438 37.777344 28.695312 38.367188 29.648438 C 38.378906 29.902344 38.390625 30.160156 38.398438 30.414062 L 38.210938 30.371094 C 38.15625 30.285156 38.046875 30.113281 37.988281 30.027344 C 37.980469 29.429688 37.65625 28.921875 37.429688 28.390625 C 37.359375 28.195312 37.28125 28.007812 37.195312 27.816406 C 37.054688 27.273438 36.410156 27.289062 36.085938 26.929688 C 35.984375 26.691406 35.902344 26.445312 35.804688 26.207031 C 35.773438 25.652344 35.867188 25.078125 35.648438 24.554688 C 35.625 24.476562 35.574219 24.324219 35.550781 24.246094 C 35.546875 23.675781 35.636719 23.101562 35.472656 22.546875 C 35.285156 21.574219 35.121094 20.597656 34.984375 19.613281 Z M 34.984375 19.613281 "/>
<path style=" stroke:none;fill-rule:nonzero;fill:rgb(48.235294%,97.254902%,58.039216%);fill-opacity:1;" d="M 24.859375 19.746094 C 24.976562 20.472656 25.390625 21.742188 24.621094 22.21875 C 24.839844 21.414062 24.839844 20.574219 24.859375 19.746094 Z M 24.859375 19.746094 "/>
<path style=" stroke:none;fill-rule:nonzero;fill:rgb(98.039216%,71.764706%,37.254902%);fill-opacity:1;" d="M 26.566406 20.621094 C 26.472656 20.320312 26.234375 20.019531 26.386719 19.699219 C 26.695312 20.179688 26.859375 20.734375 27.160156 21.21875 C 27.375 21.5625 27.804688 22.257812 28.019531 22.605469 C 29.074219 23.199219 29.246094 21.59375 30.136719 21.828125 C 30.296875 22.160156 30.429688 22.507812 30.582031 22.84375 C 30.585938 22.980469 30.597656 23.257812 30.601562 23.394531 C 30.589844 23.558594 30.566406 23.878906 30.558594 24.042969 C 30.457031 23.574219 30.449219 23.058594 30.050781 22.75 C 29.429688 22.273438 28.839844 23.71875 28.058594 23.164062 C 27.265625 22.527344 26.972656 21.507812 26.566406 20.621094 Z M 26.566406 20.621094 "/>
<path style=" stroke:none;fill-rule:nonzero;fill:rgb(40.392157%,96.470588%,95.686275%);fill-opacity:1;" d="M 37.222656 19.867188 C 37.390625 19.839844 37.507812 19.964844 37.566406 20.238281 C 37.941406 21.621094 37.953125 23.070312 38.351562 24.449219 C 38.382812 24.832031 38.394531 25.214844 38.40625 25.601562 C 38.390625 26.949219 38.425781 28.296875 38.367188 29.648438 C 37.777344 28.695312 37.65625 27.523438 36.957031 26.628906 C 35.808594 25.171875 35.875 23.195312 35.679688 21.441406 C 36.160156 20.882812 36.710938 20.394531 37.222656 19.867188 Z M 37.222656 19.867188 "/>
<path style=" stroke:none;fill-rule:nonzero;fill:rgb(86.27451%,92.941176%,48.627451%);fill-opacity:1;" d="M 37.566406 20.238281 C 37.433594 19.742188 37.824219 19.757812 38.1875 19.800781 C 38.199219 20.550781 38.257812 21.300781 38.355469 22.042969 C 38.367188 22.382812 38.390625 23.058594 38.402344 23.394531 C 38.390625 23.746094 38.371094 24.097656 38.351562 24.449219 C 37.953125 23.070312 37.941406 21.621094 37.566406 20.238281 Z M 37.566406 20.238281 "/>
<path style=" stroke:none;fill-rule:nonzero;fill:rgb(96.470588%,50.588235%,75.294118%);fill-opacity:1;" d="M 38.1875 19.800781 L 38.398438 19.800781 L 38.402344 20.003906 C 38.394531 20.683594 38.394531 21.363281 38.355469 22.042969 C 38.257812 21.300781 38.199219 20.550781 38.1875 19.800781 Z M 38.1875 19.800781 "/>
<use xlink:href="#surface20" mask="url(#mask5)"/>
<path style=" stroke:none;fill-rule:nonzero;fill:rgb(97.254902%,43.529412%,89.803922%);fill-opacity:1;" d="M 34.238281 20.152344 C 34.613281 21.117188 34.71875 22.160156 34.835938 23.179688 C 34.558594 23.773438 34.609375 24.253906 34.976562 24.617188 C 35 24.699219 35.039062 24.863281 35.058594 24.941406 C 35.003906 26.4375 35 27.929688 34.949219 29.421875 L 34.808594 29.425781 C 34.363281 28.484375 34.699219 27.394531 34.601562 26.398438 C 34.738281 24.304688 34.230469 22.238281 34.238281 20.152344 Z M 34.238281 20.152344 "/>
<path style=" stroke:none;fill-rule:nonzero;fill:rgb(98.431373%,30.196078%,61.960784%);fill-opacity:1;" d="M 13.839844 22.449219 C 13.78125 21.863281 13.953125 21.292969 14.171875 20.753906 C 14.246094 21.347656 14.125 21.929688 13.839844 22.449219 Z M 13.839844 22.449219 "/>
<path style=" stroke:none;fill-rule:nonzero;fill:rgb(98.431373%,32.156863%,62.745098%);fill-opacity:1;" d="M 14.421875 23.644531 C 14.316406 22.746094 14.675781 21.882812 15.1875 21.167969 C 15.085938 22.03125 14.65625 22.8125 14.421875 23.644531 Z M 14.421875 23.644531 "/>
<path style=" stroke:none;fill-rule:nonzero;fill:rgb(98.039216%,41.568627%,58.431373%);fill-opacity:1;" d="M 27.160156 21.21875 C 27.726562 21.535156 28.113281 22.304688 28.914062 21.925781 C 29.253906 21.671875 29.566406 21.375 29.964844 21.214844 C 30.417969 21.636719 30.675781 22.21875 30.582031 22.84375 C 30.429688 22.507812 30.296875 22.160156 30.136719 21.832031 C 29.246094 21.59375 29.074219 23.199219 28.019531 22.605469 C 27.804688 22.257812 27.375 21.5625 27.160156 21.21875 Z M 27.160156 21.21875 "/>
<path style=" stroke:none;fill-rule:nonzero;fill:rgb(65.098039%,97.254902%,48.235294%);fill-opacity:1;" d="M 18.75 23.351562 C 18.808594 22.816406 18.867188 22.28125 18.949219 21.753906 C 18.972656 21.925781 19.015625 22.269531 19.039062 22.441406 C 19.011719 22.835938 18.984375 23.230469 18.960938 23.625 L 18.761719 23.558594 Z M 18.75 23.351562 "/>
<path style=" stroke:none;fill-rule:nonzero;fill:rgb(91.764706%,93.72549%,42.745098%);fill-opacity:1;" d="M 23.148438 23.777344 C 23.851562 23.347656 24.46875 22.570312 25.359375 22.613281 C 25.519531 23.011719 25.621094 23.433594 25.734375 23.847656 C 25.789062 24.183594 25.839844 24.519531 25.925781 24.851562 C 25.984375 25.117188 26.050781 25.382812 26.125 25.644531 C 26.429688 27.714844 26.890625 29.757812 27.238281 31.816406 C 27.128906 31.855469 26.910156 31.925781 26.800781 31.960938 C 26.460938 29.714844 26.023438 27.484375 25.511719 25.273438 C 25.363281 24.804688 25.140625 24.300781 24.601562 24.203125 C 23.109375 24.664062 23.160156 26.515625 22.933594 27.785156 C 22.664062 28.265625 22.632812 28.738281 22.839844 29.210938 C 22.902344 30.066406 22.613281 31.007812 22.980469 31.824219 C 22.878906 31.8125 22.679688 31.792969 22.578125 31.78125 L 22.558594 31.628906 C 22.578125 29.871094 22.667969 28.109375 22.546875 26.355469 C 22.648438 25.480469 22.738281 24.5625 23.148438 23.777344 Z M 23.148438 23.777344 "/>
<path style=" stroke:none;fill-rule:nonzero;fill:rgb(63.529412%,96.078431%,61.568627%);fill-opacity:1;" d="M 35.472656 22.546875 C 35.636719 23.101562 35.546875 23.675781 35.550781 24.246094 C 35.308594 23.710938 35.453125 23.113281 35.472656 22.546875 Z M 35.472656 22.546875 "/>
<path style=" stroke:none;fill-rule:nonzero;fill:rgb(92.54902%,92.54902%,43.529412%);fill-opacity:1;" d="M 30.050781 22.75 C 30.449219 23.058594 30.457031 23.574219 30.558594 24.042969 C 30.570312 24.515625 30.640625 24.976562 30.773438 25.429688 L 30.808594 25.582031 C 30.800781 26.339844 30.851562 27.09375 30.957031 27.847656 C 30.972656 27.980469 31.007812 28.246094 31.023438 28.382812 C 30.777344 28.953125 30.824219 29.433594 31.15625 29.820312 C 31.199219 30.285156 31.277344 30.742188 31.394531 31.195312 C 31.535156 31.617188 30.84375 31.320312 30.621094 31.371094 C 30.535156 30.582031 30.421875 29.792969 30.1875 29.035156 C 30.183594 28.769531 30.179688 28.503906 30.175781 28.238281 C 30.097656 27.578125 30.242188 26.503906 29.390625 26.328125 C 29.628906 26.160156 29.910156 26.078125 30.175781 25.960938 C 30.28125 24.890625 30.15625 23.8125 30.050781 22.75 Z M 30.050781 22.75 "/>
<use xlink:href="#surface23" mask="url(#mask6)"/>
<path style=" stroke:none;fill-rule:nonzero;fill:rgb(63.921569%,97.647059%,40.784314%);fill-opacity:1;" d="M 25.835938 22.964844 C 26.113281 23.171875 26.335938 23.445312 26.4375 23.777344 C 25.707031 23.261719 25.945312 24.269531 25.925781 24.851562 C 25.839844 24.519531 25.789062 24.183594 25.734375 23.847656 C 25.761719 23.550781 25.796875 23.257812 25.835938 22.964844 Z M 25.835938 22.964844 "/>
<path style=" stroke:none;fill-rule:nonzero;fill:rgb(96.862745%,60%,61.568627%);fill-opacity:1;" d="M 17.824219 25.039062 C 17.792969 24.40625 17.847656 23.777344 17.96875 23.15625 C 18.011719 23.789062 17.949219 24.414062 17.824219 25.039062 Z M 17.824219 25.039062 "/>
<path style=" stroke:none;fill-rule:nonzero;fill:rgb(96.470588%,57.254902%,68.235294%);fill-opacity:1;" d="M 34.835938 23.179688 C 35.179688 23.554688 35.226562 24.03125 34.976562 24.617188 C 34.609375 24.25 34.558594 23.773438 34.835938 23.179688 Z M 34.835938 23.179688 "/>
<path style=" stroke:none;fill-rule:nonzero;fill:rgb(74.117647%,98.039216%,39.607843%);fill-opacity:1;" d="M 18.535156 25.359375 C 18.597656 24.691406 18.660156 24.019531 18.75 23.351562 L 18.761719 23.558594 C 18.769531 23.914062 18.785156 24.625 18.792969 24.980469 C 18.835938 25.3125 18.726562 25.71875 19.015625 25.964844 C 19.386719 25.855469 19.734375 25.535156 20.140625 25.632812 C 20.3125 25.820312 20.460938 26.023438 20.617188 26.222656 C 20.703125 26.613281 20.769531 27.011719 20.808594 27.40625 C 20.570312 27.019531 20.414062 26.589844 20.164062 26.207031 C 19.714844 26.1875 19.285156 26.355469 18.839844 26.386719 C 18.539062 26.132812 18.601562 25.710938 18.535156 25.359375 Z M 18.535156 25.359375 "/>
<path style=" stroke:none;fill-rule:nonzero;fill:rgb(97.254902%,60%,52.54902%);fill-opacity:1;" d="M 30.601562 23.394531 L 30.804688 23.402344 C 30.796875 24.074219 30.789062 24.753906 30.773438 25.429688 C 30.640625 24.976562 30.570312 24.515625 30.558594 24.042969 C 30.566406 23.878906 30.589844 23.558594 30.601562 23.394531 Z M 30.601562 23.394531 "/>
<path style=" stroke:none;fill-rule:nonzero;fill:rgb(97.254902%,43.137255%,89.411765%);fill-opacity:1;" d="M 30.804688 23.402344 L 31.003906 23.402344 C 31.539062 25.960938 31.46875 28.609375 31.605469 31.210938 L 31.394531 31.195312 C 31.277344 30.742188 31.199219 30.285156 31.15625 29.820312 C 31.4375 29.222656 31.394531 28.742188 31.023438 28.382812 C 31.007812 28.25 30.972656 27.980469 30.957031 27.847656 C 31.027344 27.082031 30.976562 26.324219 30.808594 25.582031 L 30.773438 25.429688 C 30.789062 24.753906 30.796875 24.074219 30.804688 23.402344 Z M 30.804688 23.402344 "/>
<use xlink:href="#surface26" mask="url(#mask7)"/>
<path style=" stroke:none;fill-rule:nonzero;fill:rgb(47.45098%,97.254902%,66.666667%);fill-opacity:1;" d="M 18.761719 23.558594 L 18.960938 23.625 C 18.917969 24.328125 19.652344 24.804688 20.332031 24.675781 C 21.023438 25.421875 20.839844 26.707031 20.960938 27.652344 C 20.921875 27.59375 20.847656 27.46875 20.808594 27.40625 C 20.769531 27.011719 20.703125 26.613281 20.617188 26.222656 C 20.652344 25.738281 20.304688 25.03125 19.734375 25.316406 C 19.347656 25.484375 18.980469 25.355469 18.792969 24.980469 C 18.785156 24.625 18.769531 23.914062 18.761719 23.558594 Z M 18.761719 23.558594 "/>
<path style=" stroke:none;fill-rule:nonzero;fill:rgb(54.117647%,96.862745%,69.019608%);fill-opacity:1;" d="M 25.925781 24.851562 C 25.945312 24.269531 25.707031 23.261719 26.4375 23.777344 C 26.707031 24.382812 26.960938 24.992188 27.203125 25.613281 C 26.890625 25.382812 26.628906 25.042969 26.230469 24.980469 C 26.203125 25.144531 26.148438 25.480469 26.125 25.644531 C 26.050781 25.382812 25.984375 25.117188 25.925781 24.851562 Z M 25.925781 24.851562 "/>
<path style=" stroke:none;fill-rule:nonzero;fill:rgb(97.254902%,92.54902%,33.72549%);fill-opacity:1;" d="M 13.476562 24.054688 C 13.605469 24.039062 13.863281 24.007812 13.992188 23.988281 C 13.921875 24.859375 13.824219 25.726562 13.808594 26.601562 C 13.789062 26.6875 13.742188 26.859375 13.722656 26.941406 C 13.625 27.492188 13.621094 28.058594 13.621094 28.617188 C 13.589844 28.765625 13.53125 29.054688 13.503906 29.199219 C 13.457031 29.519531 13.367188 30.15625 13.324219 30.476562 C 12.570312 29.972656 12.9375 28.773438 12.015625 28.359375 C 11.996094 27.515625 12 26.675781 12.011719 25.835938 C 12.707031 25.449219 13.121094 24.738281 13.476562 24.054688 Z M 13.476562 24.054688 "/>
<path style=" stroke:none;fill-rule:nonzero;fill:rgb(96.078431%,55.686275%,85.882353%);fill-opacity:1;" d="M 22.933594 27.785156 C 23.160156 26.515625 23.109375 24.664062 24.601562 24.203125 C 25.140625 24.300781 25.363281 24.804688 25.511719 25.273438 C 26.023438 27.484375 26.460938 29.714844 26.800781 31.960938 C 26.65625 31.96875 26.363281 31.992188 26.21875 32 C 26.101562 30.25 25.769531 28.523438 25.363281 26.820312 C 25.253906 26.40625 25.023438 25.941406 24.601562 25.789062 C 23.539062 26.316406 23.527344 27.746094 23.351562 28.75 C 23.238281 29.707031 23.011719 30.734375 23.34375 31.667969 L 23.402344 31.867188 C 23.296875 31.859375 23.085938 31.835938 22.980469 31.824219 C 22.613281 31.007812 22.902344 30.066406 22.839844 29.210938 C 23.152344 28.738281 23.1875 28.265625 22.933594 27.785156 Z M 22.933594 27.785156 "/>
<path style=" stroke:none;fill-rule:nonzero;fill:rgb(61.176471%,96.862745%,60.392157%);fill-opacity:1;" d="M 35.648438 24.554688 C 35.867188 25.078125 35.773438 25.652344 35.804688 26.207031 C 35.40625 25.761719 35.671875 25.105469 35.648438 24.554688 Z M 35.648438 24.554688 "/>
<path style=" stroke:none;fill-rule:nonzero;fill:rgb(54.509804%,97.647059%,45.490196%);fill-opacity:1;" d="M 18.792969 24.980469 C 18.980469 25.355469 19.347656 25.484375 19.734375 25.316406 C 20.304688 25.03125 20.652344 25.738281 20.617188 26.222656 C 20.460938 26.023438 20.3125 25.820312 20.140625 25.632812 C 19.734375 25.535156 19.386719 25.855469 19.015625 25.964844 C 18.726562 25.71875 18.835938 25.3125 18.792969 24.980469 Z M 18.792969 24.980469 "/>
<path style=" stroke:none;fill-rule:nonzero;fill:rgb(45.098039%,97.254902%,89.803922%);fill-opacity:1;" d="M 26.230469 24.980469 C 26.628906 25.042969 26.890625 25.382812 27.203125 25.613281 C 27.398438 26 27.597656 26.386719 27.800781 26.773438 C 27.929688 27.609375 28.621094 28.476562 29.59375 28.21875 C 29.964844 28.253906 29.996094 28.773438 30.1875 29.035156 C 30.421875 29.792969 30.535156 30.582031 30.621094 31.371094 C 29.9375 31.449219 29.257812 31.574219 28.578125 31.671875 C 28.132812 31.71875 27.683594 31.769531 27.238281 31.816406 C 26.890625 29.757812 26.429688 27.714844 26.125 25.644531 C 26.148438 25.480469 26.203125 25.144531 26.230469 24.980469 Z M 26.230469 24.980469 "/>
<path style=" stroke:none;fill-rule:nonzero;fill:rgb(97.254902%,69.803922%,50.196078%);fill-opacity:1;" d="M 35.058594 24.941406 C 35.328125 26.421875 35.148438 27.953125 35.253906 29.449219 C 35.195312 29.746094 35.082031 30.347656 35.027344 30.648438 C 35.046875 30.238281 35.035156 29.824219 34.949219 29.421875 C 35 27.929688 35.003906 26.4375 35.058594 24.941406 Z M 35.058594 24.941406 "/>
<path style=" stroke:none;fill-rule:nonzero;fill:rgb(96.862745%,59.607843%,59.607843%);fill-opacity:1;" d="M 17.601562 27.003906 C 17.625 26.453125 17.695312 25.902344 17.78125 25.363281 C 17.789062 25.914062 17.699219 26.457031 17.601562 27.003906 Z M 17.601562 27.003906 "/>
<path style=" stroke:none;fill-rule:nonzero;fill:rgb(96.862745%,59.607843%,59.607843%);fill-opacity:1;" d="M 30.808594 25.582031 C 30.976562 26.324219 31.027344 27.082031 30.957031 27.847656 C 30.851562 27.09375 30.800781 26.339844 30.808594 25.582031 Z M 30.808594 25.582031 "/>
<path style=" stroke:none;fill-rule:nonzero;fill:rgb(86.666667%,98.039216%,36.470588%);fill-opacity:1;" d="M 18.40625 27.644531 C 18.402344 26.878906 18.445312 26.117188 18.535156 25.359375 C 18.601562 25.710938 18.539062 26.132812 18.839844 26.386719 C 19.285156 26.355469 19.714844 26.1875 20.164062 26.207031 C 20.414062 26.589844 20.570312 27.019531 20.808594 27.40625 C 20.847656 27.46875 20.921875 27.59375 20.960938 27.652344 C 20.988281 27.777344 21.042969 28.023438 21.070312 28.148438 C 21.039062 28.523438 20.980469 29.269531 20.953125 29.644531 C 20.578125 28.859375 20.679688 27.804688 19.953125 27.226562 C 19.363281 27.042969 18.996094 27.925781 18.40625 27.644531 Z M 18.40625 27.644531 "/>
<use xlink:href="#surface29" mask="url(#mask8)"/>
<path style=" stroke:none;fill-rule:nonzero;fill:rgb(93.72549%,93.72549%,39.215686%);fill-opacity:1;" d="M 23.351562 28.753906 C 23.527344 27.746094 23.539062 26.316406 24.601562 25.789062 C 25.023438 25.941406 25.253906 26.40625 25.363281 26.820312 C 25.769531 28.523438 26.101562 30.253906 26.21875 32.003906 C 25.945312 32.007812 25.675781 32.007812 25.402344 32.003906 C 25.335938 31.132812 25.542969 30.21875 25.269531 29.375 C 25.144531 28.902344 25.117188 27.921875 24.4375 28.019531 C 23.617188 29.105469 23.929688 30.648438 23.605469 31.90625 L 23.402344 31.867188 L 23.34375 31.671875 C 23.375 30.695312 23.40625 29.722656 23.351562 28.753906 Z M 23.351562 28.753906 "/>
<path style=" stroke:none;fill-rule:nonzero;fill:rgb(47.45098%,97.254902%,68.235294%);fill-opacity:1;" d="M 35.804688 26.207031 C 35.902344 26.445312 35.984375 26.691406 36.085938 26.929688 C 36.410156 27.289062 37.054688 27.273438 37.195312 27.816406 C 36.78125 27.796875 36.367188 27.769531 35.96875 27.640625 C 35.9375 27.570312 35.875 27.433594 35.839844 27.363281 C 35.816406 26.976562 35.8125 26.59375 35.804688 26.207031 Z M 35.804688 26.207031 "/>
<path style=" stroke:none;fill-rule:nonzero;fill:rgb(78.431373%,97.254902%,45.098039%);fill-opacity:1;" d="M 22.351562 27.953125 C 22.410156 27.421875 22.476562 26.882812 22.546875 26.355469 C 22.667969 28.109375 22.578125 29.871094 22.558594 31.628906 C 22.339844 30.414062 22.414062 29.179688 22.351562 27.953125 Z M 22.351562 27.953125 "/>
<path style=" stroke:none;fill-rule:nonzero;fill:rgb(97.647059%,45.490196%,65.882353%);fill-opacity:1;" d="M 13.808594 26.601562 L 13.960938 26.609375 C 14.117188 27.066406 14.089844 27.535156 13.871094 28.007812 C 13.792969 27.65625 13.738281 27.300781 13.722656 26.941406 C 13.742188 26.859375 13.789062 26.6875 13.808594 26.601562 Z M 13.808594 26.601562 "/>
<path style=" stroke:none;fill-rule:nonzero;fill:rgb(48.627451%,97.254902%,68.235294%);fill-opacity:1;" d="M 27.800781 26.773438 C 28.003906 26.988281 28.191406 27.21875 28.378906 27.445312 C 28.6875 28.101562 29.335938 27.476562 29.796875 27.363281 C 29.929688 27.652344 30.046875 27.949219 30.175781 28.238281 C 30.179688 28.503906 30.183594 28.769531 30.1875 29.035156 C 29.996094 28.773438 29.964844 28.253906 29.59375 28.21875 C 28.621094 28.476562 27.929688 27.609375 27.800781 26.773438 Z M 27.800781 26.773438 "/>
<path style=" stroke:none;fill-rule:nonzero;fill:rgb(97.647059%,72.941176%,45.098039%);fill-opacity:1;" d="M 13.621094 28.617188 C 13.621094 28.058594 13.625 27.492188 13.722656 26.941406 C 13.738281 27.300781 13.792969 27.65625 13.871094 28.007812 C 13.84375 28.15625 13.792969 28.460938 13.769531 28.613281 Z M 13.621094 28.617188 "/>
<path style=" stroke:none;fill-rule:nonzero;fill:rgb(97.254902%,55.686275%,60%);fill-opacity:1;" d="M 17.386719 28.605469 C 17.421875 28.066406 17.503906 27.53125 17.601562 27.003906 C 17.578125 27.542969 17.503906 28.074219 17.386719 28.605469 Z M 17.386719 28.605469 "/>
<path style=" stroke:none;fill-rule:nonzero;fill:rgb(96.862745%,95.686275%,31.372549%);fill-opacity:1;" d="M 18.40625 27.644531 C 18.996094 27.925781 19.363281 27.042969 19.953125 27.226562 C 20.679688 27.804688 20.578125 28.859375 20.953125 29.644531 C 21.097656 30.21875 21.609375 31.363281 20.820312 31.433594 C 20.726562 31.421875 20.539062 31.398438 20.445312 31.386719 C 20.289062 30.828125 20.082031 30.285156 19.78125 29.789062 C 18.722656 29.597656 18.71875 31.347656 17.605469 31.019531 C 17.492188 31.015625 17.273438 30.996094 17.160156 30.988281 C 17.203125 30.597656 17.292969 30.210938 17.441406 29.847656 C 17.828125 29.140625 18.039062 28.359375 18.40625 27.644531 Z M 18.40625 27.644531 "/>
<path style=" stroke:none;fill-rule:nonzero;fill:rgb(57.647059%,97.647059%,44.705882%);fill-opacity:1;" d="M 28.378906 27.445312 C 28.820312 27.484375 29.5 27.019531 29.796875 27.363281 C 29.335938 27.476562 28.6875 28.101562 28.378906 27.445312 Z M 28.378906 27.445312 "/>
<path style=" stroke:none;fill-rule:nonzero;fill:rgb(89.803922%,95.686275%,34.117647%);fill-opacity:1;" d="M 35.839844 27.363281 C 35.875 27.433594 35.9375 27.570312 35.96875 27.640625 C 35.976562 27.734375 35.988281 27.929688 35.992188 28.027344 C 35.828125 28.882812 36.605469 28.773438 37.15625 28.613281 C 37.445312 29.078125 37.691406 29.566406 37.988281 30.027344 C 38.046875 30.113281 38.15625 30.285156 38.210938 30.371094 C 37.21875 30.730469 36.027344 30.644531 34.96875 30.792969 L 35.027344 30.648438 C 35.082031 30.347656 35.195312 29.746094 35.253906 29.449219 C 35.515625 28.773438 35.804688 28.097656 35.839844 27.363281 Z M 35.839844 27.363281 "/>
<path style=" stroke:none;fill-rule:nonzero;fill:rgb(50.980392%,97.647059%,48.235294%);fill-opacity:1;" d="M 35.96875 27.640625 C 36.367188 27.769531 36.78125 27.796875 37.195312 27.816406 C 37.28125 28.007812 37.359375 28.195312 37.429688 28.390625 C 37.03125 27.984375 36.484375 28.148438 35.992188 28.027344 C 35.988281 27.929688 35.976562 27.734375 35.96875 27.640625 Z M 35.96875 27.640625 "/>
<path style=" stroke:none;fill-rule:nonzero;fill:rgb(95.686275%,66.666667%,66.666667%);fill-opacity:1;" d="M 22.839844 29.210938 C 22.632812 28.738281 22.664062 28.265625 22.933594 27.785156 C 23.1875 28.265625 23.152344 28.738281 22.839844 29.210938 Z M 22.839844 29.210938 "/>
<path style=" stroke:none;fill-rule:nonzero;fill:rgb(51.372549%,95.294118%,73.333333%);fill-opacity:1;" d="M 22.167969 31.683594 C 22.21875 30.441406 22.144531 29.1875 22.351562 27.953125 C 22.414062 29.179688 22.339844 30.414062 22.558594 31.628906 L 22.578125 31.78125 C 22.476562 31.757812 22.273438 31.707031 22.167969 31.683594 Z M 22.167969 31.683594 "/>
<path style=" stroke:none;fill-rule:nonzero;fill:rgb(67.45098%,96.470588%,40%);fill-opacity:1;" d="M 24.4375 28.019531 C 25.117188 27.921875 25.144531 28.902344 25.269531 29.375 C 25.210938 29.320312 25.09375 29.210938 25.035156 29.15625 C 24.972656 28.464844 24.171875 28.453125 24.183594 29.179688 C 24.027344 30.101562 23.796875 31.117188 24.179688 32.003906 C 23.984375 31.984375 23.792969 31.953125 23.605469 31.90625 C 23.929688 30.648438 23.617188 29.105469 24.4375 28.019531 Z M 24.4375 28.019531 "/>
<path style=" stroke:none;fill-rule:nonzero;fill:rgb(71.372549%,97.647059%,39.607843%);fill-opacity:1;" d="M 35.992188 28.027344 C 36.484375 28.148438 37.03125 27.984375 37.429688 28.390625 C 37.65625 28.921875 37.980469 29.429688 37.988281 30.027344 C 37.691406 29.566406 37.445312 29.078125 37.15625 28.613281 C 36.605469 28.773438 35.828125 28.882812 35.992188 28.027344 Z M 35.992188 28.027344 "/>
<use xlink:href="#surface32" mask="url(#mask9)"/>
<use xlink:href="#surface35" mask="url(#mask10)"/>
<path style=" stroke:none;fill-rule:nonzero;fill:rgb(96.862745%,59.607843%,61.568627%);fill-opacity:1;" d="M 31.023438 28.382812 C 31.394531 28.742188 31.4375 29.222656 31.15625 29.820312 C 30.824219 29.433594 30.777344 28.953125 31.023438 28.382812 Z M 31.023438 28.382812 "/>
<path style=" stroke:none;fill-rule:nonzero;fill:rgb(97.254902%,45.490196%,67.843137%);fill-opacity:1;" d="M 13.621094 28.617188 L 13.769531 28.613281 C 13.894531 29.070312 13.871094 29.535156 13.695312 30.003906 C 13.621094 29.738281 13.558594 29.46875 13.503906 29.199219 C 13.53125 29.054688 13.589844 28.765625 13.621094 28.617188 Z M 13.621094 28.617188 "/>
<path style=" stroke:none;fill-rule:nonzero;fill:rgb(97.647059%,50.196078%,54.509804%);fill-opacity:1;" d="M 16.980469 30.988281 C 17.046875 30.183594 17.183594 29.386719 17.386719 28.605469 C 17.386719 29.019531 17.414062 29.433594 17.441406 29.847656 C 17.292969 30.210938 17.203125 30.597656 17.160156 30.988281 Z M 16.980469 30.988281 "/>
<path style=" stroke:none;fill-rule:nonzero;fill:rgb(50.588235%,97.254902%,60.392157%);fill-opacity:1;" d="M 24.183594 29.179688 C 24.171875 28.453125 24.972656 28.464844 25.035156 29.15625 C 24.753906 29.03125 24.457031 29.03125 24.183594 29.179688 Z M 24.183594 29.179688 "/>
<path style=" stroke:none;fill-rule:nonzero;fill:rgb(96.862745%,74.117647%,50.980392%);fill-opacity:1;" d="M 23.34375 31.671875 C 23.011719 30.734375 23.238281 29.707031 23.351562 28.753906 C 23.40625 29.722656 23.375 30.695312 23.34375 31.671875 Z M 23.34375 31.671875 "/>
<path style=" stroke:none;fill-rule:nonzero;fill:rgb(45.882353%,97.254902%,74.509804%);fill-opacity:1;" d="M 24.183594 29.179688 C 24.457031 29.03125 24.753906 29.03125 25.035156 29.15625 C 25.09375 29.210938 25.210938 29.320312 25.269531 29.375 C 25.226562 30.25 25.203125 31.128906 25.195312 32.003906 C 24.859375 32.011719 24.519531 32.019531 24.179688 32.003906 C 23.796875 31.117188 24.027344 30.101562 24.183594 29.179688 Z M 24.183594 29.179688 "/>
<path style=" stroke:none;fill-rule:nonzero;fill:rgb(96.862745%,76.470588%,40.784314%);fill-opacity:1;" d="M 13.324219 30.476562 C 13.367188 30.15625 13.457031 29.519531 13.503906 29.199219 C 13.558594 29.46875 13.621094 29.738281 13.695312 30.003906 C 13.664062 30.140625 13.597656 30.410156 13.566406 30.546875 L 13.4375 30.578125 Z M 13.324219 30.476562 "/>
<path style=" stroke:none;fill-rule:nonzero;fill:rgb(61.568627%,97.647059%,42.745098%);fill-opacity:1;" d="M 25.269531 29.375 C 25.542969 30.21875 25.335938 31.132812 25.402344 32.003906 L 25.195312 32.003906 C 25.203125 31.128906 25.226562 30.25 25.269531 29.375 Z M 25.269531 29.375 "/>
<path style=" stroke:none;fill-rule:nonzero;fill:rgb(97.647059%,42.745098%,68.235294%);fill-opacity:1;" d="M 34.808594 29.425781 L 34.949219 29.421875 C 35.035156 29.824219 35.046875 30.238281 35.027344 30.648438 L 34.96875 30.792969 L 34.828125 30.773438 C 34.824219 30.4375 34.8125 29.761719 34.808594 29.425781 Z M 34.808594 29.425781 "/>
<path style=" stroke:none;fill-rule:nonzero;fill:rgb(96.862745%,83.137255%,25.882353%);fill-opacity:1;" d="M 17.605469 31.019531 C 18.71875 31.347656 18.722656 29.597656 19.78125 29.789062 C 20.082031 30.285156 20.289062 30.828125 20.445312 31.386719 C 20.335938 31.375 20.121094 31.351562 20.011719 31.339844 L 19.992188 31.203125 C 20.042969 30.285156 19.011719 30.585938 18.757812 31.179688 C 18.46875 31.140625 17.894531 31.058594 17.605469 31.019531 Z M 17.605469 31.019531 "/>
<path style=" stroke:none;fill-rule:nonzero;fill:rgb(98.823529%,65.098039%,25.882353%);fill-opacity:1;" d="M 18.757812 31.179688 C 19.011719 30.585938 20.042969 30.285156 19.992188 31.203125 C 19.761719 30.988281 19.394531 30.910156 19.152344 31.160156 C 19.054688 31.164062 18.855469 31.175781 18.757812 31.179688 Z M 18.757812 31.179688 "/>
<use xlink:href="#surface38" mask="url(#mask11)"/>
<path style=" stroke:none;fill-rule:nonzero;fill:rgb(50.196078%,46.27451%,59.215686%);fill-opacity:1;" d="M 22.019531 31.691406 L 22.167969 31.683594 C 22.273438 31.707031 22.476562 31.757812 22.578125 31.78125 C 22.679688 31.792969 22.878906 31.8125 22.980469 31.824219 C 23.085938 31.835938 23.296875 31.859375 23.402344 31.867188 L 23.605469 31.90625 C 23.792969 31.953125 23.984375 31.984375 24.179688 32.003906 C 24.519531 32.019531 24.859375 32.011719 25.195312 32.003906 L 25.402344 32.003906 C 25.675781 32.007812 25.945312 32.007812 26.21875 32.003906 C 26.363281 31.992188 26.65625 31.96875 26.800781 31.960938 C 26.910156 31.925781 27.128906 31.855469 27.238281 31.816406 C 27.683594 31.769531 28.132812 31.71875 28.578125 31.671875 C 29.226562 31.695312 29.878906 31.785156 30.457031 32.085938 C 29.910156 32.515625 29.191406 32.609375 28.527344 32.707031 C 26.554688 32.84375 24.558594 33.203125 22.59375 32.8125 C 21.742188 32.679688 20.796875 32.714844 20.140625 32.070312 C 20.644531 31.601562 21.40625 31.910156 22.019531 31.691406 Z M 22.019531 31.691406 "/>
<path style=" stroke:none;fill-rule:nonzero;fill:rgb(51.372549%,37.647059%,61.960784%);fill-opacity:1;" d="M 17.964844 32.242188 C 18.675781 32.117188 19.445312 31.84375 20.140625 32.070312 C 20.796875 32.714844 21.742188 32.679688 22.59375 32.8125 C 24.558594 33.203125 26.554688 32.84375 28.527344 32.707031 C 29.191406 32.609375 29.910156 32.515625 30.457031 32.082031 C 32.007812 31.972656 33.617188 32.402344 35.195312 32.414062 L 35.191406 32.589844 C 32.207031 32.945312 29.234375 33.410156 26.265625 33.878906 C 24.144531 34.433594 21.941406 34.199219 19.792969 33.984375 L 19.828125 34.164062 C 20.910156 34.210938 21.972656 34.464844 23 34.800781 C 20.894531 34.632812 18.8125 34.265625 16.761719 33.789062 C 17.125 33.089844 17.933594 33.191406 18.589844 33.011719 C 18.378906 32.753906 18.167969 32.5 17.964844 32.242188 Z M 17.964844 32.242188 "/>
<use xlink:href="#surface41" mask="url(#mask12)"/>
<path style=" stroke:none;fill-rule:nonzero;fill:rgb(58.039216%,39.215686%,70.980392%);fill-opacity:1;" d="M 26.265625 33.878906 C 29.234375 33.410156 32.207031 32.945312 35.191406 32.589844 C 36.269531 32.519531 37.324219 32.714844 38.390625 32.824219 C 38.347656 32.917969 38.257812 33.101562 38.214844 33.191406 C 33.871094 33.65625 29.613281 34.882812 25.25 35.175781 C 24.519531 34.945312 23.765625 34.835938 23 34.800781 C 21.972656 34.464844 20.910156 34.210938 19.828125 34.164062 L 19.792969 33.984375 C 21.941406 34.199219 24.144531 34.433594 26.265625 33.878906 Z M 26.265625 33.878906 "/>
<path style=" stroke:none;fill-rule:nonzero;fill:rgb(29.019608%,20.784314%,24.313725%);fill-opacity:1;" d="M 12.394531 33.203125 C 13.117188 33.269531 13.84375 33.339844 14.566406 33.441406 C 14.535156 33.523438 14.480469 33.691406 14.453125 33.773438 C 17.730469 34.851562 21.117188 35.652344 24.550781 36.050781 C 25.019531 36.359375 25.089844 36.910156 25.171875 37.4375 C 25.230469 41.164062 25.195312 44.894531 25.195312 48.625 C 22.933594 46.195312 20.851562 43.523438 18.738281 40.941406 C 18.710938 40.898438 18.648438 40.820312 18.621094 40.78125 C 18.589844 40.742188 18.523438 40.671875 18.492188 40.632812 C 18.234375 40.34375 17.945312 40.074219 17.738281 39.742188 C 17.707031 39.703125 17.648438 39.621094 17.621094 39.578125 C 17.589844 39.542969 17.523438 39.46875 17.488281 39.433594 C 16.796875 38.71875 16.179688 37.933594 15.5625 37.15625 C 15.535156 37.125 15.484375 37.054688 15.460938 37.023438 C 14.488281 35.714844 13.191406 34.621094 12.394531 33.203125 Z M 12.394531 33.203125 "/>
<path style=" stroke:none;fill-rule:nonzero;fill:rgb(49.803922%,30.196078%,61.960784%);fill-opacity:1;" d="M 25.25 35.175781 C 29.613281 34.882812 33.871094 33.65625 38.214844 33.191406 C 37.335938 34.390625 36.371094 35.554688 35.375 36.648438 C 35.34375 36.683594 35.28125 36.742188 35.246094 36.773438 C 35.082031 37.011719 34.894531 37.226562 34.703125 37.441406 C 34.667969 37.480469 34.597656 37.558594 34.5625 37.597656 C 34.519531 37.640625 34.429688 37.734375 34.382812 37.78125 C 34.339844 37.828125 34.246094 37.917969 34.203125 37.964844 C 34.167969 38.007812 34.101562 38.097656 34.070312 38.140625 C 33.976562 38.265625 33.792969 38.519531 33.703125 38.644531 C 33.664062 38.683594 33.597656 38.761719 33.5625 38.796875 C 33.519531 38.84375 33.429688 38.9375 33.382812 38.980469 C 33.339844 39.027344 33.246094 39.117188 33.203125 39.164062 C 33.167969 39.207031 33.101562 39.296875 33.070312 39.339844 C 32.976562 39.464844 32.792969 39.71875 32.703125 39.84375 C 32.664062 39.882812 32.597656 39.960938 32.5625 40 C 32.519531 40.046875 32.429688 40.140625 32.382812 40.1875 C 32.332031 40.234375 32.234375 40.332031 32.1875 40.382812 C 32.140625 40.429688 32.046875 40.523438 32 40.566406 C 31.960938 40.617188 31.886719 40.71875 31.847656 40.769531 L 31.71875 41.015625 C 31.683594 41.058594 31.605469 41.148438 31.566406 41.195312 C 31.519531 41.242188 31.429688 41.339844 31.382812 41.386719 C 31.335938 41.4375 31.234375 41.53125 31.1875 41.582031 C 31.140625 41.628906 31.046875 41.722656 31 41.769531 C 30.960938 41.816406 30.886719 41.917969 30.847656 41.96875 L 30.71875 42.214844 C 30.683594 42.257812 30.605469 42.347656 30.566406 42.390625 C 30.527344 42.4375 30.441406 42.523438 30.398438 42.566406 C 30.367188 42.609375 30.300781 42.695312 30.269531 42.738281 C 30.117188 43 29.902344 43.214844 29.703125 43.441406 C 29.667969 43.480469 29.601562 43.554688 29.5625 43.59375 C 29.523438 43.636719 29.441406 43.722656 29.398438 43.765625 C 29.367188 43.808594 29.300781 43.894531 29.269531 43.941406 C 29.117188 44.199219 28.902344 44.414062 28.703125 44.640625 C 28.667969 44.679688 28.601562 44.757812 28.5625 44.792969 C 28.523438 44.835938 28.441406 44.925781 28.398438 44.964844 C 28.367188 45.011719 28.300781 45.097656 28.269531 45.140625 C 28.117188 45.398438 27.898438 45.617188 27.703125 45.84375 C 27.667969 45.878906 27.597656 45.957031 27.5625 45.996094 C 27.519531 46.042969 27.429688 46.136719 27.382812 46.183594 C 27.339844 46.226562 27.246094 46.316406 27.203125 46.363281 C 27.167969 46.40625 27.101562 46.496094 27.070312 46.539062 C 26.976562 46.664062 26.792969 46.917969 26.703125 47.042969 C 26.664062 47.082031 26.597656 47.160156 26.5625 47.199219 C 26.519531 47.242188 26.429688 47.335938 26.382812 47.382812 C 26.339844 47.429688 26.246094 47.519531 26.199219 47.5625 C 26.167969 47.609375 26.101562 47.695312 26.070312 47.738281 C 25.976562 47.863281 25.796875 48.109375 25.703125 48.230469 C 25.671875 48.273438 25.609375 48.355469 25.578125 48.394531 C 25.082031 44.074219 25.6875 39.6875 25.265625 35.355469 Z M 25.25 35.175781 "/>
<path style=" stroke:none;fill-rule:nonzero;fill:rgb(31.372549%,24.313725%,26.666667%);fill-opacity:1;" d="M 14.566406 33.441406 C 15.292969 33.582031 16.011719 33.824219 16.761719 33.789062 C 18.8125 34.265625 20.894531 34.632812 23 34.800781 C 23.71875 35.097656 24.476562 35.175781 25.25 35.175781 L 25.265625 35.355469 C 25.234375 36.046875 25.195312 36.742188 25.171875 37.4375 C 25.089844 36.910156 25.019531 36.359375 24.550781 36.050781 C 21.117188 35.652344 17.730469 34.851562 14.453125 33.773438 C 14.480469 33.691406 14.535156 33.523438 14.566406 33.441406 Z M 14.566406 33.441406 "/>
<path style=" stroke:none;fill-rule:nonzero;fill:rgb(48.627451%,33.333333%,58.431373%);fill-opacity:1;" d="M 23 34.800781 C 23.765625 34.835938 24.519531 34.945312 25.25 35.175781 C 24.476562 35.175781 23.71875 35.097656 23 34.800781 Z M 23 34.800781 "/>
<path style=" stroke:none;fill-rule:nonzero;fill:rgb(34.901961%,18.039216%,45.098039%);fill-opacity:1;" d="M 25.265625 35.355469 C 25.6875 39.6875 25.082031 44.074219 25.578125 48.394531 L 25.605469 48.582031 C 25.503906 48.59375 25.296875 48.613281 25.195312 48.625 C 25.195312 44.894531 25.230469 41.164062 25.171875 37.4375 C 25.195312 36.742188 25.234375 36.046875 25.265625 35.355469 Z M 25.265625 35.355469 "/>
</g>
</svg>
