<svg width="36" height="50" viewBox="0 0 36 50" fill="none" xmlns="http://www.w3.org/2000/svg">
<path fill-rule="evenodd" clip-rule="evenodd" d="M10.4793 5.66298C7.18342 8.96193 4.68179 11.4848 4.48674 11.7065C2.817 13.604 1.62719 15.6543 0.860192 17.9558C0.398794 19.3403 0.155869 20.5397 0.0282444 22.0634C-0.0147054 22.5763 -0.00740299 23.9151 0.0415281 24.5016C0.360865 28.3276 1.83809 31.7511 4.3741 34.5424C4.56017 34.7472 8.10766 38.3089 12.2575 42.4574L19.8025 50L19.7951 45.9284C19.787 41.4596 19.7975 41.7941 19.6438 41.107C19.4203 40.1083 18.9609 39.1523 18.3129 38.3377C18.1778 38.1678 16.7356 36.7062 13.8927 33.8578C11.5719 31.5325 9.5881 29.5274 9.48426 29.4019C8.04912 27.667 7.29156 25.668 7.22212 23.4326C7.1545 21.2567 7.8422 19.0971 9.15695 17.3565C9.52841 16.8647 9.82454 16.5544 12.1263 14.2445C13.5197 12.8462 14.5532 11.79 14.653 11.6623C15.4683 10.6183 15.9254 9.5314 16.1176 8.1792C16.1546 7.91919 16.1595 7.50428 16.1677 3.94547C16.1728 1.77545 16.1679 0 16.157 0C16.146 0 13.5911 2.54833 10.4793 5.66298ZM19.3043 3.95748C19.311 6.76654 19.3217 7.94932 19.3416 8.09512C19.468 9.01854 19.6551 9.64946 20.0293 10.4132C20.2564 10.8767 20.5577 11.3478 20.8745 11.7343C21.0039 11.8924 21.9336 12.8385 23.1878 14.0884C24.341 15.2378 25.4247 16.329 25.596 16.5132C27.0913 18.1217 27.9481 19.9716 28.2001 22.1355C28.2511 22.5737 28.2585 23.675 28.2133 24.0932C28.0642 25.4703 27.7135 26.6297 27.1011 27.7702C27.02 27.9212 26.9163 28.1031 26.8706 28.1746L26.7876 28.3046L20.6823 22.1994C17.3244 18.8415 14.5685 16.0942 14.5581 16.0942C14.5476 16.0942 14.5429 17.8966 14.5476 20.0997C14.5554 23.7613 14.5598 24.13 14.5982 24.3935C14.6463 24.7235 14.7359 25.1429 14.8207 25.4358C15.0399 26.1923 15.4864 27.0506 15.9966 27.6964C16.0867 27.8104 18.5424 30.2866 21.5592 33.3053L26.9605 38.7101L28.9379 36.7283C31.2462 34.4149 31.4515 34.1936 32.1343 33.2847C34.1968 30.5392 35.349 27.2394 35.4615 23.7569C35.534 21.5105 35.1851 19.389 34.4009 17.3072C33.6602 15.341 32.5936 13.5732 31.1153 11.8614C30.8326 11.5341 19.358 0.0240211 19.3144 0.0240211C19.3037 0.0240211 19.2991 1.79409 19.3043 3.95748Z" fill="white"/>
<path fill-rule="evenodd" clip-rule="evenodd" d="M19.3043 3.95751C19.311 6.76657 19.3217 7.94934 19.3416 8.09515C19.468 9.01857 19.6551 9.64949 20.0293 10.4132C20.2564 10.8767 20.5577 11.3478 20.8745 11.7344C21.0039 11.8924 21.9336 12.8385 23.1878 14.0884C24.341 15.2378 25.4247 16.329 25.596 16.5132C27.0913 18.1217 27.9481 19.9716 28.2001 22.1355C28.2511 22.5737 28.2585 23.675 28.2133 24.0932C28.0642 25.4703 27.7135 26.6297 27.1011 27.7703C27.02 27.9212 26.9163 28.1032 26.8706 28.1747L26.7876 28.3046L20.6823 22.1994C17.3244 18.8415 14.5685 16.0942 14.5581 16.0942C14.5476 16.0942 14.5429 17.8967 14.5476 20.0997C14.5554 23.7613 14.5598 24.13 14.5982 24.3935C14.6463 24.7235 14.7359 25.1429 14.8207 25.4358C15.0399 26.1923 15.4864 27.0506 15.9966 27.6964C16.0867 27.8105 18.5419 30.286 21.5594 33.3053L26.9609 38.7101L28.9737 36.6923C30.0807 35.5825 31.1227 34.5178 31.2893 34.3262C31.6608 33.8988 31.9564 33.5322 31.9564 33.4988C31.9564 33.485 31.6525 33.1697 31.281 32.7981L30.6056 32.1224L30.8546 32.1073C30.9916 32.0989 31.5306 32.0749 32.0525 32.0539C32.5743 32.0329 33.0025 32.014 33.0039 32.012C33.0603 31.9283 33.3691 31.3842 33.5148 31.1116C34.896 28.5277 35.5619 25.6078 35.4608 22.5799C35.3574 19.4865 34.3707 16.4618 32.5965 13.8002C32.1314 13.1023 31.705 12.5442 31.1153 11.8614C30.8326 11.5341 19.358 0.0240479 19.3144 0.0240479C19.3037 0.0240479 19.2991 1.79412 19.3043 3.95751ZM9.74667 6.39566C6.92351 9.22193 4.67881 11.4884 4.48683 11.7065C2.8178 13.6027 1.62721 15.6543 0.860192 17.9558C0.398794 19.3403 0.155869 20.5397 0.0282444 22.0634C-0.0147054 22.5763 -0.00740299 23.9151 0.0415281 24.5016C0.360865 28.3276 1.83809 31.7511 4.3741 34.5424C4.56017 34.7472 8.10766 38.3089 12.2575 42.4574L19.8025 50L19.7951 45.9284C19.787 41.4596 19.7975 41.7941 19.6438 41.107C19.4203 40.1083 18.9609 39.1523 18.3129 38.3378C18.1778 38.1678 16.7356 36.7062 13.8927 33.8578C11.5719 31.5326 9.5881 29.5274 9.48426 29.4019C8.04912 27.6671 7.29156 25.6681 7.22212 23.4326C7.1545 21.2567 7.8422 19.0971 9.15695 17.3565C9.52841 16.8648 9.82454 16.5544 12.1263 14.2446C13.5197 12.8462 14.5532 11.7901 14.653 11.6623C15.4686 10.6179 15.9302 9.51963 16.1168 8.17922C16.1516 7.92912 16.1575 7.59529 16.1615 5.657C16.1641 4.42832 16.1623 3.54471 16.1575 3.69337L16.1489 3.96373L15.1401 2.99784L14.1313 2.03193L14.4139 1.74862C14.5693 1.5928 14.6909 1.46532 14.684 1.46532C14.6772 1.46532 12.4554 3.68398 9.74667 6.39566ZM32.9068 32.1333C32.8937 32.1675 32.8965 32.1703 32.9202 32.1467C32.9367 32.1304 32.944 32.111 32.9366 32.1037C32.9292 32.0963 32.9158 32.1096 32.9068 32.1333Z" fill="white"/>
<path fill-rule="evenodd" clip-rule="evenodd" d="M19.3043 3.95751C19.311 6.76657 19.3217 7.94934 19.3416 8.09515C19.468 9.01857 19.6551 9.64949 20.0293 10.4132C20.2564 10.8767 20.5577 11.3478 20.8745 11.7344C21.0039 11.8924 21.9336 12.8385 23.1878 14.0884C24.341 15.2378 25.4247 16.329 25.596 16.5132C27.0913 18.1217 27.9481 19.9716 28.2001 22.1355C28.2511 22.5737 28.2585 23.675 28.2133 24.0932C28.0642 25.4703 27.7135 26.6297 27.1011 27.7703C27.02 27.9212 26.9165 28.103 26.8709 28.1742L26.7881 28.3037L20.9573 22.4752C17.7503 19.2695 15.1139 16.6467 15.0986 16.6467C15.0833 16.6467 14.9621 16.7169 14.8293 16.8028C14.6966 16.8887 14.5833 16.959 14.5776 16.959C14.5719 16.959 14.5633 16.886 14.5583 16.7968C14.5534 16.7076 14.551 18.3155 14.5529 20.37C14.556 23.7881 14.5599 24.1297 14.5983 24.3935C14.6463 24.7233 14.7358 25.1426 14.8207 25.4358C15.0399 26.1923 15.4864 27.0506 15.9966 27.6964C16.0867 27.8105 18.5424 30.2866 21.5592 33.3053L26.9605 38.7101L28.9379 36.7283C30.0254 35.6384 31.0172 34.6325 31.1418 34.493C31.3823 34.2238 31.7819 33.7494 31.8942 33.6L31.9616 33.5102L29.7707 31.3059C28.5658 30.0936 27.5945 29.0987 27.6122 29.0951C27.678 29.0819 34.4909 28.8062 34.507 28.8161C34.5162 28.8217 34.5723 28.6775 34.6317 28.4956C35.2555 26.5856 35.5293 24.6318 35.4608 22.5799C35.3574 19.4865 34.3707 16.4618 32.5965 13.8002C32.1314 13.1023 31.705 12.5442 31.1153 11.8614C30.8326 11.5341 19.358 0.0240479 19.3144 0.0240479C19.3037 0.0240479 19.2991 1.79412 19.3043 3.95751ZM7.79449 8.3511C6.1558 9.99051 4.67074 11.4968 4.4864 11.7065C2.81429 13.6087 1.62712 15.6546 0.860192 17.9558C0.398794 19.3403 0.155869 20.5397 0.0282444 22.0634C-0.0147054 22.5763 -0.00740299 23.9151 0.0415281 24.5016C0.360865 28.3276 1.83809 31.7511 4.3741 34.5424C4.56017 34.7472 8.10766 38.3089 12.2575 42.4574L19.8025 50L19.7951 45.9284C19.787 41.4596 19.7975 41.7941 19.6438 41.107C19.4203 40.1083 18.9609 39.1523 18.3129 38.3378C18.1778 38.1678 16.7356 36.7062 13.8927 33.8578C11.5719 31.5326 9.5881 29.5274 9.48426 29.4019C8.04912 27.6671 7.29156 25.6681 7.22212 23.4326C7.1545 21.2567 7.8422 19.0971 9.15695 17.3565C9.52884 16.8642 9.82481 16.5541 12.1154 14.2566C14.4853 11.8795 14.6709 11.6818 15.0041 11.1783C15.3035 10.7259 15.724 9.89373 15.6212 9.95732C15.6091 9.96474 14.5228 8.94074 13.207 7.68179C11.8913 6.42282 10.8042 5.38905 10.7914 5.38449C10.7786 5.37995 9.42997 6.71492 7.79449 8.3511Z" fill="white"/>
<path fill-rule="evenodd" clip-rule="evenodd" d="M19.3043 3.95751C19.311 6.76657 19.3217 7.94934 19.3416 8.09515C19.468 9.01857 19.6551 9.64949 20.0293 10.4132C20.2564 10.8767 20.5577 11.3478 20.8745 11.7344C21.0039 11.8924 21.9336 12.8385 23.1878 14.0884C24.341 15.2378 25.4247 16.329 25.596 16.5132C26.9322 17.9506 27.7538 19.5716 28.0986 21.4509C28.2088 22.0513 28.242 22.4448 28.2426 23.1564C28.2433 24.0243 28.1896 24.5273 28.0121 25.316C27.9597 25.5485 27.9112 25.7792 27.9043 25.8288L27.8918 25.9188L28.0204 25.9189C28.1562 25.9189 35.1128 25.6352 35.2336 25.6247C35.2954 25.6193 35.3047 25.6084 35.3102 25.5345C35.3137 25.4883 35.3275 25.3856 35.341 25.3063C35.4351 24.7525 35.4909 23.4813 35.4608 22.5799C35.3574 19.4865 34.3707 16.4618 32.5965 13.8002C32.1314 13.1023 31.705 12.5442 31.1153 11.8614C30.8326 11.5341 19.358 0.0240479 19.3144 0.0240479C19.3037 0.0240479 19.2991 1.79412 19.3043 3.95751ZM6.40773 9.73459C5.53696 10.6099 4.67319 11.4972 4.48822 11.7065C2.82892 13.5839 1.62757 15.6532 0.860192 17.9558C0.398794 19.3403 0.155869 20.5397 0.0282444 22.0634C-0.0147054 22.5763 -0.00740299 23.9151 0.0415281 24.5016C0.360865 28.3276 1.83809 31.7511 4.3741 34.5424C4.56017 34.7472 8.10766 38.3089 12.2575 42.4574L19.8025 50L19.7951 45.9284C19.787 41.4596 19.7975 41.7941 19.6438 41.107C19.4203 40.1083 18.9609 39.1523 18.3129 38.3378C18.1778 38.1678 16.7356 36.7062 13.8927 33.8578C11.5719 31.5326 9.5881 29.5274 9.48426 29.4019C8.04912 27.6671 7.29156 25.6681 7.22212 23.4326C7.16123 21.4731 7.73552 19.4503 8.80771 17.8477C9.30876 17.0988 9.54525 16.8347 11.2186 15.1559L12.6686 13.7013L10.0601 11.2064L7.45164 8.71163L7.73511 8.42741C7.89101 8.27108 8.01237 8.14319 8.00478 8.14319C7.99716 8.14319 7.2785 8.85933 6.40773 9.73459ZM17.2685 18.8019C17.3722 18.9105 17.4488 19.0077 17.4386 19.018C17.4285 19.0283 16.7805 19.4486 15.9986 19.9519L14.5771 20.867L14.558 21.1169C14.5474 21.2544 14.543 21.9776 14.5482 22.724C14.5584 24.1864 14.5708 24.3673 14.7013 24.958C14.8336 25.5568 14.9664 25.932 15.2497 26.5074C15.4576 26.9296 15.717 27.3425 15.9966 27.6964C16.0867 27.8105 18.5419 30.286 21.5594 33.3053L26.9609 38.7101L28.9737 36.6923C30.0807 35.5825 31.1227 34.5178 31.2893 34.3262C31.605 33.9631 31.9565 33.5332 31.9563 33.5106C31.9562 33.5034 28.609 30.1466 24.518 26.051C20.427 21.9553 17.1647 18.6933 17.2685 18.8019Z" fill="white"/>
<path fill-rule="evenodd" clip-rule="evenodd" d="M19.3043 3.95751C19.311 6.76657 19.3217 7.94934 19.3416 8.09515C19.468 9.01857 19.6551 9.64949 20.0293 10.4132C20.2564 10.8767 20.5577 11.3478 20.8745 11.7344C21.0039 11.8924 21.9336 12.8385 23.1878 14.0884C24.341 15.2378 25.4247 16.329 25.596 16.5132C26.612 17.6062 27.3055 18.7611 27.7532 20.1057C27.9936 20.8278 28.1281 21.465 28.2112 22.277C28.2384 22.5424 28.2626 22.761 28.2649 22.7627C28.2696 22.7662 35.4238 22.4664 35.4335 22.4623C35.456 22.4528 35.4314 21.8994 35.3908 21.5044C35.1089 18.762 34.1602 16.146 32.5965 13.8002C32.1314 13.1023 31.705 12.5442 31.1153 11.8614C30.8326 11.5341 19.358 0.0240479 19.3144 0.0240479C19.3037 0.0240479 19.2991 1.79412 19.3043 3.95751ZM3.8115 12.5197C2.51928 14.1343 1.52094 15.9732 0.860192 17.9558C0.398794 19.3403 0.155869 20.5397 0.0282444 22.0634C-0.0147054 22.5763 -0.00740299 23.9151 0.0415281 24.5016C0.360865 28.3276 1.83809 31.7511 4.3741 34.5424C4.56017 34.7472 8.10766 38.3089 12.2575 42.4574L19.8025 50L19.7951 45.9284C19.787 41.4596 19.7975 41.7941 19.6438 41.107C19.4203 40.1083 18.9609 39.1523 18.3129 38.3378C18.1778 38.1678 16.7356 36.7062 13.8927 33.8578C11.5719 31.5326 9.5881 29.5274 9.48426 29.4019C8.04912 27.6671 7.29156 25.6681 7.22212 23.4326C7.16761 21.6781 7.62503 19.8564 8.50108 18.3389C8.65846 18.0663 8.97436 17.5864 9.12759 17.3872C9.18525 17.3122 9.2324 17.2418 9.2324 17.2308C9.2324 17.2197 9.25253 17.1981 9.27715 17.1828C9.40206 17.1048 9.47477 17.1799 6.76538 14.5883C5.34537 13.23 4.17468 12.1154 4.16384 12.1114C4.15303 12.1074 3.99447 12.2911 3.8115 12.5197ZM17.2549 23.0456L14.6732 24.7076L14.6781 24.8059C14.6847 24.9381 14.8084 25.4218 14.9109 25.7159C15.1565 26.4214 15.5346 27.111 15.9968 27.6964C16.0873 27.8111 18.5216 30.2654 21.553 33.2981L26.948 38.6956L28.968 36.6851C30.0927 35.5658 31.122 34.5201 31.2901 34.3262C31.6627 33.8964 31.959 33.5286 31.9507 33.5063C31.939 33.4751 20.653 22.1631 20.243 21.7716L19.8367 21.3837L17.2549 23.0456Z" fill="white"/>
<path fill-rule="evenodd" clip-rule="evenodd" d="M19.3043 3.95751C19.311 6.76657 19.3216 7.94934 19.3416 8.09515C19.468 9.01857 19.6551 9.64949 20.0293 10.4132C20.2564 10.8767 20.5577 11.3478 20.8744 11.7344C21.0039 11.8924 21.9336 12.8385 23.1878 14.0884C25.3851 16.2785 25.764 16.6696 26.1315 17.1274C26.3838 17.4417 26.7426 17.9625 26.9422 18.3041C27.1311 18.6276 27.5536 19.4916 27.5745 19.5975C27.578 19.6152 27.5844 19.633 27.5887 19.637C27.593 19.641 29.2504 19.5755 31.2718 19.4915C33.2932 19.4074 34.961 19.3383 34.9781 19.3379C35.0169 19.3369 35.0054 19.2666 34.897 18.8424C34.7364 18.2136 34.4087 17.2751 34.1052 16.5746C33.3612 14.8575 32.416 13.3676 31.1153 11.8614C30.8326 11.5341 19.358 0.0240479 19.3144 0.0240479C19.3037 0.0240479 19.2991 1.79412 19.3043 3.95751ZM1.5511 16.1843C1.5541 16.1942 1.52768 16.2617 1.49239 16.3344C1.09177 17.1591 0.630655 18.5429 0.380475 19.6711C0.114033 20.8726 -4.35682e-05 21.9327 0.000244685 23.2044C0.000484897 24.2944 0.079058 25.1974 0.262556 26.2191C0.818861 29.3166 2.24002 32.1935 4.37409 34.5424C4.56015 34.7472 8.10764 38.3089 12.2574 42.4574L19.8025 50L19.7951 45.9284C19.787 41.4596 19.7975 41.7941 19.6437 41.107C19.4203 40.1083 18.9608 39.1523 18.3129 38.3378C18.1778 38.1678 16.7356 36.7062 13.8927 33.8578C11.5719 31.5326 9.58809 29.5274 9.48425 29.4019C8.51898 28.2351 7.84353 26.9125 7.50344 25.5235C7.25441 24.5063 7.16642 23.4375 7.24826 22.4238C7.28732 21.94 7.29972 21.8192 7.32023 21.7226C7.32902 21.6812 7.28672 21.6264 7.12287 21.4669C6.40303 20.7662 1.57908 16.1663 1.56402 16.1663C1.55391 16.1663 1.54807 16.1743 1.5511 16.1843ZM22.0087 23.5499L22.2032 23.7633L22.1014 23.8282C21.9679 23.9133 16.0439 27.7257 16.0374 27.7306C16.0347 27.7326 16.0711 27.7826 16.1184 27.8415C16.2347 27.9865 26.9433 38.6736 26.9658 38.6671C26.9756 38.6643 27.8112 37.8351 28.8226 36.8244C30.4614 35.1869 30.9828 34.6572 31.2346 34.3743C31.3718 34.2201 31.9443 33.5311 31.9493 33.5142C31.952 33.505 29.6727 31.2113 26.8842 28.417C24.0957 25.6228 21.9017 23.4326 22.0087 23.5499Z" fill="white"/>
<path fill-rule="evenodd" clip-rule="evenodd" d="M19.3042 3.95751C19.311 6.76657 19.3216 7.94934 19.3416 8.09515C19.427 8.71953 19.5592 9.27139 19.7423 9.76878C19.9673 10.3798 20.4209 11.1755 20.8423 11.6983C20.9434 11.8238 22.0853 12.9859 23.3797 14.2806C24.6741 15.5753 25.7225 16.6225 25.7095 16.6075C25.6768 16.5701 25.6286 16.5725 30.0587 16.3917C32.1924 16.3046 33.941 16.2307 33.9446 16.2274C33.9481 16.2241 33.9067 16.1318 33.8526 16.0222C33.7985 15.9126 33.7294 15.7668 33.699 15.698C33.6686 15.6293 33.5437 15.3903 33.4214 15.167C32.7589 13.9574 32.0591 12.9543 31.1152 11.8614C30.8326 11.5341 19.358 0.0240479 19.3144 0.0240479C19.3036 0.0240479 19.2991 1.79412 19.3042 3.95751ZM0.0962 21.4445C0.0878887 21.5207 0.0765027 21.6056 0.0708577 21.6331C-0.00718698 22.0139 -0.0244582 23.7082 0.0416 24.5016C0.360072 28.3257 1.83809 31.7512 4.37408 34.5424C4.56014 34.7472 8.10763 38.3089 12.2574 42.4574L19.8025 50L19.7951 45.9284C19.7883 42.2048 19.7842 41.8367 19.7464 41.6209C19.6072 40.8266 19.4331 40.2717 19.1235 39.6349L18.9774 39.3346L9.61126 30.3748C4.45988 25.4468 0.215009 21.3904 0.178184 21.3604L0.111261 21.306L0.0962 21.4445ZM21.4969 28.1175C19.8068 29.2064 18.415 30.1064 18.404 30.1174C18.393 30.1283 20.3148 32.0603 22.6747 34.4105L26.9653 38.6837L29.0498 36.5951C30.1962 35.4463 31.1303 34.4997 31.1255 34.4916C31.1207 34.4835 31.1394 34.4564 31.1671 34.4315C31.236 34.3696 31.571 33.9794 31.7814 33.716L31.9546 33.4991L29.1544 30.6878C26.0201 27.5411 24.6079 26.1344 24.5852 26.1363C24.5768 26.137 23.187 27.0286 21.4969 28.1175ZM16.5949 36.5842C17.3214 37.3109 17.9213 37.9054 17.9279 37.9054C17.9345 37.9054 17.3454 37.3109 16.6189 36.5842C15.8923 35.8576 15.2925 35.2631 15.2859 35.2631C15.2793 35.2631 15.8683 35.8576 16.5949 36.5842Z" fill="white"/>
<path fill-rule="evenodd" clip-rule="evenodd" d="M19.3043 3.95751C19.311 6.76657 19.3217 7.94934 19.3416 8.09515C19.427 8.71953 19.5592 9.27139 19.7423 9.76878C19.8812 10.146 20.2115 10.7945 20.4437 11.1458C20.7486 11.6073 21.0199 11.9246 21.6203 12.5222L22.1464 13.0457L26.9373 12.8489C29.5723 12.7407 31.7318 12.6492 31.7362 12.6456C31.7546 12.6308 31.4117 12.2087 30.9861 11.7223C30.724 11.4229 19.3509 0.0240479 19.3142 0.0240479C19.3036 0.0240479 19.2991 1.79412 19.3043 3.95751ZM24.2647 30.8873C22.5906 31.9664 21.2089 32.8614 21.1942 32.8761C21.1745 32.8958 21.9321 33.6657 24.0572 35.7859L26.947 38.669L28.7371 36.8896C29.7216 35.911 30.6565 34.9744 30.8147 34.8083C30.9728 34.6423 31.1133 34.51 31.1269 34.5144C31.1405 34.5188 31.1443 34.515 31.1353 34.506C31.1263 34.497 31.256 34.3306 31.4236 34.1361C31.5911 33.9416 31.776 33.7203 31.8345 33.6443L31.9409 33.5061L29.6487 31.2138C28.3879 29.953 27.3456 28.9223 27.3324 28.9234C27.3191 28.9244 25.9387 29.8082 24.2647 30.8873ZM1.72899 30.639C2.41342 32.066 3.33552 33.4107 4.48604 34.6596C4.66401 34.8528 8.18292 38.3834 12.3058 42.5054L19.802 50L19.7959 48.8693L19.7897 47.7385L10.8899 39.2278C5.99495 34.547 1.895 30.6239 1.77886 30.5099L1.56769 30.3027L1.72899 30.639Z" fill="white"/>
</svg>
