<?xml version="1.0" encoding="UTF-8"?>
<svg xmlns="http://www.w3.org/2000/svg" xmlns:xlink="http://www.w3.org/1999/xlink" width="50px" height="50px" viewBox="0 0 50 50" version="1.1">
<g id="surface1">
<path style=" stroke:none;fill-rule:nonzero;fill:rgb(0%,18.039216%,20%);fill-opacity:1;" d="M 25 49.988281 C 38.808594 49.988281 50 38.824219 50 25.050781 C 50 11.277344 38.808594 0.113281 25 0.113281 C 11.191406 0.113281 0 11.277344 0 25.050781 C 0 38.824219 11.191406 49.988281 25 49.988281 Z M 25 49.988281 "/>
<path style=" stroke:none;fill-rule:nonzero;fill:rgb(80%,96.862745%,92.941176%);fill-opacity:1;" d="M 33.988281 22.851562 C 33.335938 18.617188 29.738281 15.488281 25.246094 15.488281 C 20.65625 15.488281 16.914062 18.574219 15.976562 22.851562 L 11.980469 22.851562 L 11.980469 26.046875 L 15.808594 26.046875 C 16.332031 30.984375 20.367188 34.613281 25.320312 34.613281 C 29.125 34.613281 32.214844 33.109375 33.570312 30.628906 L 30.214844 28.488281 C 29.351562 29.917969 27.464844 30.816406 25.394531 30.816406 C 22.417969 30.816406 20.382812 29.015625 19.933594 26.046875 L 36.960938 26.046875 L 38.019531 22.851562 Z M 25.019531 18.945312 C 27.542969 18.945312 29.464844 20.558594 29.6875 22.851562 L 20.082031 22.851562 C 20.722656 20.449219 22.496094 18.945312 25.019531 18.945312 Z M 25.019531 18.945312 "/>
</g>
</svg>
