<svg width="50" height="50" viewBox="0 0 50 50" fill="none" xmlns="http://www.w3.org/2000/svg">
<g clip-path="url(#clip0_30_166)">
<mask id="mask0_30_166" style="mask-type:luminance" maskUnits="userSpaceOnUse" x="0" y="0" width="50" height="50">
<path d="M50 0H0V49.7512H50V0Z" fill="white"/>
</mask>
<g mask="url(#mask0_30_166)">
<path d="M16.0312 21.1208H20.4062C21.5 19.7753 23.1562 18.9305 25.0313 18.9305C26.9062 18.9305 29.7813 20.5575 30.6249 22.8417H21.0625H15.4688C15.3125 23.5301 15.25 24.2185 15.25 24.9383C15.25 30.3515 19.625 34.7321 25 34.7321C30.3749 34.7321 32.25 32.4477 33.8124 29.1311H29.2813C28.1876 30.2574 26.6562 30.9771 24.9687 30.9771C22.25 30.9771 19.9375 29.1311 19.2188 26.6278H30.7187H34.5624C34.6562 26.096 34.7187 25.5328 34.7187 24.9694C34.7187 19.5563 30.3438 15.1757 24.9687 15.1757C19.5938 15.1757 17.4688 17.6476 16 21.1521L16.0312 21.1208Z" fill="url(#paint0_linear_30_166)"/>
<path d="M0.15625 24.8756C0.15625 37.9861 10.3125 48.7813 23.125 49.7512V38.3617C16.5625 37.4542 11.4688 31.7595 11.4688 24.907C11.4688 18.0544 16.5625 12.3596 23.125 11.4522V0C10.3125 0.969993 0.15625 11.7651 0.15625 24.8756ZM3.90624 24.8756C3.90624 15.1757 10.4688 6.94639 19.3438 4.47448V8.47963C12.5625 10.8264 7.68751 17.3034 7.68751 24.907C7.68751 32.5104 12.5625 38.9562 19.3438 41.3343V45.308C10.4375 42.8361 3.90624 34.6381 3.90624 24.907V24.8756Z" fill="url(#paint1_linear_30_166)"/>
<path d="M26.8751 11.4522C33.4376 12.3596 38.5313 18.0544 38.5313 24.907C38.5313 31.7595 33.4376 37.4542 26.8751 38.3617V49.7512C39.6876 48.7813 49.8438 37.9861 49.8438 24.8756C49.8438 11.7651 39.6876 0.969993 26.8751 0V11.4522ZM30.6251 41.303C37.4062 38.9562 42.2813 32.4791 42.2813 24.8756C42.2813 17.2721 37.4062 10.7951 30.6251 8.44833V4.44318C39.5313 6.9151 46.0938 15.1131 46.0938 24.8443C46.0938 34.5756 39.5313 42.7736 30.6251 45.2455V41.2716V41.303Z" fill="url(#paint2_linear_30_166)"/>
</g>
</g>
<defs>
<linearGradient id="paint0_linear_30_166" x1="25" y1="-0.46939" x2="25" y2="48.3119" gradientUnits="userSpaceOnUse">
<stop stop-color="#009AFF"/>
<stop offset="0.5" stop-color="#046CFE"/>
<stop offset="1" stop-color="#C804DD"/>
</linearGradient>
<linearGradient id="paint1_linear_30_166" x1="11.6562" y1="-0.469351" x2="11.6562" y2="48.3119" gradientUnits="userSpaceOnUse">
<stop stop-color="#009AFF"/>
<stop offset="0.5" stop-color="#046CFE"/>
<stop offset="1" stop-color="#C804DD"/>
</linearGradient>
<linearGradient id="paint2_linear_30_166" x1="38.3438" y1="-0.469351" x2="38.3438" y2="48.3119" gradientUnits="userSpaceOnUse">
<stop stop-color="#009AFF"/>
<stop offset="0.5" stop-color="#046CFE"/>
<stop offset="1" stop-color="#C804DD"/>
</linearGradient>
<clipPath id="clip0_30_166">
<rect width="50" height="50" fill="white"/>
</clipPath>
</defs>
</svg>
