<svg width="111" height="111" viewBox="0 0 111 111" fill="none" xmlns="http://www.w3.org/2000/svg">
<path d="M76.8969 59.269C77.1093 58.0617 77.2211 56.8097 77.2211 55.5465C77.2211 43.5072 67.4511 33.7148 55.4565 33.7148C46.4578 33.7148 38.7111 39.2259 35.4022 47.0508H45.1387C47.5868 44.055 51.2981 42.1323 55.4453 42.1323C61.1799 42.1323 66.0649 45.7765 67.9653 50.8739H46.659H34.1949C33.8708 52.383 33.6919 53.9368 33.6919 55.5465C33.6919 67.5858 43.4619 77.3782 55.4565 77.3782C64.1311 77.3782 71.643 72.2584 75.1307 64.8582H65.0477C62.6219 67.3734 59.2237 68.9496 55.4565 68.9496C49.3754 68.9496 44.2333 64.8471 42.6235 59.2578H68.3006H76.9081L76.8969 59.269Z" fill="#202124"/>
<path d="M51.2648 85.4935C36.5874 83.4478 25.2523 70.7713 25.2523 55.5014C25.2523 40.2316 36.5874 27.5551 51.2648 25.5094V0C22.6365 2.15746 0 26.1913 0 55.4567C0 84.7221 22.6365 108.756 51.2648 110.913V85.5046V85.4935ZM8.39508 55.4567C8.39508 33.8039 23.0166 15.5158 42.8697 9.98243V18.9141C27.7451 24.1568 16.8572 38.5771 16.8572 55.5126C16.8572 72.4481 27.7563 86.8572 42.8697 92.1111V100.953C23.0166 95.42 8.39508 77.1319 8.39508 55.4791V55.4567Z" fill="#202124"/>
<path d="M59.6377 0V25.4982C74.3151 27.5439 85.6502 40.2204 85.6502 55.4903C85.6502 70.7601 74.3151 83.4366 59.6377 85.4823V110.891C88.2659 108.734 110.902 84.6998 110.902 55.4344C110.902 26.169 88.2659 2.15746 59.6377 0ZM68.0104 100.942V92.1C83.1462 86.8572 94.0564 72.4369 94.0564 55.5014C94.0564 38.566 83.1462 24.1345 68.0104 18.9029V9.98243C87.8747 15.5046 102.507 33.8039 102.507 55.4679C102.507 77.1319 87.8747 95.4312 68.0104 100.953V100.942Z" fill="#202124"/>
</svg>
