<?xml version="1.0" standalone="no"?>
<!DOCTYPE svg PUBLIC "-//W3C//DTD SVG 20010904//EN"
 "http://www.w3.org/TR/2001/REC-SVG-20010904/DTD/svg10.dtd">
<svg version="1.0" xmlns="http://www.w3.org/2000/svg"
 width="512.000000pt" height="512.000000pt" viewBox="0 0 512.000000 512.000000"
 preserveAspectRatio="xMidYMid meet">

<g transform="translate(0.000000,512.000000) scale(0.100000,-0.100000)"
fill="#000000" stroke="none">
<path d="M2792 5098 c2 -7 -4 -12 -14 -10 -16 3 -17 -34 -15 -569 l2 -572 85
-18 c528 -110 946 -527 1071 -1069 30 -128 37 -386 14 -521 -94 -570 -516
-1016 -1080 -1143 l-100 -23 -3 -582 -2 -581 31 0 c120 0 473 78 655 145 237
87 521 248 724 412 385 308 694 764 836 1233 85 277 109 449 109 765 0 275
-12 380 -66 602 -87 359 -266 720 -499 1009 -158 196 -423 428 -650 569 -180
111 -531 265 -606 265 -13 0 -24 4 -24 9 0 9 -73 27 -100 24 -8 -1 -17 2 -20
6 -3 5 -21 12 -40 15 -26 5 -31 4 -20 -3 9 -7 10 -11 3 -11 -6 0 -15 5 -18 11
-4 6 -14 8 -22 5 -8 -3 -11 -1 -8 4 3 6 1 10 -4 10 -6 0 -11 -6 -11 -12 0 -7
-5 -5 -11 5 -5 9 -15 17 -20 17 -6 0 -7 -6 -2 -12 12 -20 12 -37 1 -45 -7 -4
-9 1 -6 13 3 11 0 24 -6 29 -14 13 -76 17 -76 5 0 -5 -7 -7 -15 -4 -8 4 -12
11 -9 16 4 6 1 8 -7 6 -8 -3 -13 -10 -12 -16 1 -5 -7 -12 -18 -15 -17 -5 -18
-3 -8 9 6 8 9 17 5 21 -3 4 -13 -2 -21 -13 -11 -14 -14 -15 -9 -3 3 10 0 20
-6 24 -6 4 -9 1 -8 -7z m18 -70 c0 -7 -4 -7 -13 1 -8 6 -16 9 -19 6 -2 -3 -5
2 -5 9 0 11 5 13 19 5 10 -5 18 -15 18 -21z m84 11 c-12 -20 -39 -27 -57 -14
-15 11 -15 13 -2 18 8 4 14 3 12 -1 -1 -4 1 -8 6 -9 16 -6 27 -3 27 8 0 5 -5
7 -12 3 -7 -4 -8 -3 -4 4 4 6 13 9 21 6 8 -4 12 -10 9 -15z m51 -7 c-3 -3 -11
0 -18 7 -9 10 -8 11 6 5 10 -3 15 -9 12 -12z m143 4 c-2 -1 -12 -8 -23 -16
-11 -8 -17 -10 -13 -6 4 5 3 15 -2 21 -8 9 -4 11 15 7 14 -2 25 -5 23 -6z m35
-11 c-3 -9 -8 -14 -10 -11 -3 3 -2 9 2 15 9 16 15 13 8 -4z m32 -5 c-3 -5 2
-10 11 -10 10 0 15 -3 11 -6 -10 -10 -39 5 -32 16 3 5 8 10 11 10 3 0 2 -4 -1
-10z m-215 -4 c0 -2 -8 -10 -17 -17 -16 -13 -17 -12 -4 4 13 16 21 21 21 13z
m316 -390 c753 -256 1304 -905 1445 -1702 31 -173 34 -531 6 -695 -80 -475
-295 -891 -632 -1223 -241 -238 -553 -425 -877 -526 l-58 -18 0 207 0 208 38
11 c21 7 90 37 152 68 579 284 950 833 999 1476 33 435 -100 873 -368 1218
-184 237 -440 434 -716 551 l-110 46 -3 207 c-2 166 0 206 11 206 7 0 58 -15
113 -34z"/>
<path d="M2292 5080 c-11 -10 -23 -16 -26 -13 -3 4 -6 -2 -6 -13 0 -16 -2 -17
-10 -4 -12 19 -13 33 -1 25 5 -3 12 -1 16 5 4 6 -4 9 -18 8 -17 -2 -23 -7 -20
-18 4 -13 3 -13 -9 0 -14 16 -61 24 -52 9 7 -12 -3 -11 -26 1 -15 8 -21 5 -31
-19 -7 -16 -17 -27 -22 -24 -4 3 -1 13 8 23 15 16 15 18 1 16 -8 -1 -18 -5
-22 -9 -4 -4 -18 -4 -30 -1 -14 4 -24 2 -24 -5 0 -6 -8 -10 -17 -9 -40 3 -63
-3 -63 -16 0 -8 -4 -18 -10 -21 -6 -4 -7 1 -3 11 5 14 3 16 -13 10 -10 -5 -28
-10 -39 -12 -131 -23 -383 -126 -572 -234 -582 -334 -1004 -867 -1197 -1510
-80 -267 -118 -613 -97 -890 39 -517 202 -955 509 -1370 106 -142 360 -399
497 -501 280 -209 586 -357 910 -439 148 -38 333 -70 400 -70 l35 0 0 583 0
583 -72 12 c-253 44 -512 184 -713 386 -211 212 -335 447 -390 736 -25 126
-26 370 -2 496 50 270 177 519 370 721 198 207 447 347 717 403 l85 17 3 548
c2 518 1 547 -15 541 -17 -6 -17 -5 0 8 9 7 17 17 17 21 0 4 -7 2 -16 -5 -12
-11 -18 -10 -31 3 -16 15 -15 16 5 12 24 -4 30 10 8 18 -8 3 -23 -3 -34 -13z
m-57 -40 c4 -6 1 -9 -7 -8 -7 2 -12 -2 -11 -9 2 -7 -4 -10 -12 -7 -11 5 -12 9
-2 20 15 16 24 17 32 4z m55 -25 c14 -19 14 -19 -2 -6 -10 7 -18 18 -18 24 0
6 1 8 3 6 1 -2 9 -13 17 -24z m-293 -1 c-3 -3 -12 -4 -19 -1 -8 3 -5 6 6 6 11
1 17 -2 13 -5z m107 -5 c3 -3 -6 -6 -19 -7 -14 -1 -25 2 -25 6 0 9 36 9 44 1z
m-124 -557 l0 -207 -62 -24 c-413 -158 -773 -492 -963 -894 -84 -179 -133
-345 -160 -553 -74 -562 143 -1146 570 -1535 171 -155 332 -253 593 -359 22
-9 22 -11 22 -214 l0 -205 -52 15 c-773 230 -1377 916 -1512 1719 -39 232 -40
512 0 738 118 682 561 1277 1179 1583 126 62 331 142 368 143 16 1 17 -15 17
-207z"/>
<path d="M2473 3546 c-3 -5 -1 -6 5 -2 18 11 14 0 -5 -15 -9 -8 -14 -9 -10 -2
5 7 -1 14 -15 19 -13 4 -24 2 -26 -5 -2 -6 -10 -11 -18 -11 -9 0 -13 4 -10 9
6 9 -23 5 -54 -6 -8 -4 -21 -5 -27 -4 -7 1 -13 -3 -13 -8 0 -6 -6 -8 -14 -5
-24 9 -177 -59 -267 -118 -103 -67 -172 -129 -240 -214 -48 -60 -139 -209
-139 -226 0 -5 97 -8 216 -8 l216 0 69 64 c211 195 520 220 759 61 82 -54 166
-150 211 -240 l30 -60 -779 -3 -780 -2 -7 -23 c-3 -12 -9 -80 -12 -152 -4 -98
-1 -152 11 -218 109 -575 668 -935 1232 -792 181 46 336 138 472 279 67 70
182 233 182 258 0 4 -101 8 -225 8 l-225 0 -62 -51 c-151 -121 -356 -169 -533
-124 -195 50 -375 211 -439 393 l-15 42 793 0 793 0 7 61 c19 186 -17 386 -99
549 -74 149 -205 299 -335 385 -81 54 -202 113 -250 121 -19 4 -39 10 -45 14
-5 4 -22 7 -37 6 -14 -1 -25 1 -22 5 5 8 -86 23 -93 15 -3 -3 5 -10 18 -15 14
-6 18 -10 8 -10 -9 -1 -19 2 -23 7 -4 4 -11 7 -14 7 -4 1 -18 7 -31 14 -22 12
-23 12 -17 -4 5 -15 4 -16 -9 -5 -8 7 -15 10 -15 6 0 -3 -11 -1 -25 4 -15 6
-26 6 -30 0 -4 -6 -11 -10 -16 -10 -6 0 -8 4 -4 9 3 6 -4 9 -16 8 -11 -1 -23
-6 -26 -11z"/>
</g>
</svg>
