<?xml version="1.0" encoding="UTF-8"?>
<svg xmlns="http://www.w3.org/2000/svg" xmlns:xlink="http://www.w3.org/1999/xlink" width="50px" height="50px" viewBox="0 0 50 50" version="1.1">
<g id="surface1">
<path style=" stroke:none;fill-rule:nonzero;fill:rgb(92.941176%,30.588235%,20%);fill-opacity:1;" d="M 24.863281 49.726562 C 38.59375 49.726562 49.726562 38.59375 49.726562 24.863281 C 49.726562 11.132812 38.59375 0 24.863281 0 C 11.132812 0 0 11.132812 0 24.863281 C 0 38.59375 11.132812 49.726562 24.863281 49.726562 Z M 24.863281 49.726562 "/>
<path style=" stroke:none;fill-rule:nonzero;fill:rgb(100%,100%,100%);fill-opacity:1;" d="M 20.378906 13.316406 C 13.597656 15.921875 12.976562 22.601562 11.03125 25.722656 C 9.0625 28.878906 4.554688 30.617188 5.171875 32.226562 C 5.789062 33.835938 10.300781 32.109375 13.875 33.132812 C 17.402344 34.148438 22.324219 38.695312 29.109375 36.089844 C 32.5625 34.757812 35.066406 32.023438 36.214844 28.785156 C 36.339844 28.4375 36.109375 28.066406 35.742188 28.03125 C 35.511719 28.011719 35.292969 28.128906 35.191406 28.335938 C 34.148438 30.410156 32.363281 32.121094 30.027344 33.019531 C 26.171875 34.503906 21.953125 33.339844 19.359375 30.417969 C 18.769531 29.753906 18.265625 29 17.871094 28.167969 C 17.761719 27.9375 17.65625 27.703125 17.566406 27.460938 C 17.472656 27.21875 17.394531 26.976562 17.320312 26.734375 C 19.359375 25.78125 21.710938 24.773438 24.378906 23.75 C 26.992188 22.742188 29.375 21.925781 31.492188 21.273438 C 32.925781 20.832031 34.238281 20.46875 35.425781 20.167969 C 35.511719 20.144531 35.597656 20.125 35.679688 20.101562 C 35.859375 20.058594 36.042969 20.15625 36.109375 20.328125 L 36.113281 20.332031 C 36.152344 20.433594 36.183594 20.535156 36.222656 20.640625 C 36.457031 21.304688 36.632812 21.976562 36.746094 22.648438 C 36.796875 22.945312 37.121094 23.105469 37.382812 22.960938 C 38.355469 22.4375 39.246094 21.929688 40.042969 21.4375 C 43.007812 19.605469 44.652344 18.054688 44.316406 17.175781 C 43.980469 16.296875 41.722656 16.246094 38.292969 16.875 C 37.207031 17.074219 36 17.339844 34.699219 17.671875 C 34.472656 17.730469 34.246094 17.789062 34.015625 17.851562 C 32.917969 18.140625 31.765625 18.476562 30.5625 18.847656 C 28.328125 19.542969 25.925781 20.371094 23.449219 21.324219 C 21.132812 22.214844 18.9375 23.140625 16.921875 24.0625 C 16.898438 20.152344 19.257812 16.460938 23.113281 14.976562 C 25.449219 14.078125 27.917969 14.152344 30.082031 15 C 30.292969 15.082031 30.535156 15.023438 30.691406 14.855469 C 30.941406 14.585938 30.863281 14.152344 30.539062 13.976562 C 27.523438 12.34375 23.835938 11.988281 20.378906 13.316406 Z M 20.378906 13.316406 "/>
</g>
</svg>
