<?xml version="1.0" encoding="UTF-8"?>
<svg xmlns="http://www.w3.org/2000/svg" xmlns:xlink="http://www.w3.org/1999/xlink" width="50px" height="50px" viewBox="0 0 50 50" version="1.1">
<defs>
<filter id="alpha" filterUnits="objectBoundingBox" x="0%" y="0%" width="100%" height="100%">
  <feColorMatrix type="matrix" in="SourceGraphic" values="0 0 0 0 1 0 0 0 0 1 0 0 0 0 1 0 0 0 1 0"/>
</filter>
<mask id="mask0">
  <g filter="url(#alpha)">
<rect x="0" y="0" width="50" height="50" style="fill:rgb(0%,0%,0%);fill-opacity:0.592157;stroke:none;"/>
  </g>
</mask>
<clipPath id="clip1">
  <rect x="0" y="0" width="50" height="50"/>
</clipPath>
<g id="surface5" clip-path="url(#clip1)">
<path style=" stroke:none;fill-rule:evenodd;fill:rgb(2.352941%,8.627451%,22.745098%);fill-opacity:1;" d="M 18.0625 17.9375 C 20.289062 17.8125 22.539062 17.769531 24.8125 17.8125 C 24.8125 15.605469 24.8125 13.394531 24.8125 11.1875 C 20.351562 11.148438 15.890625 11.191406 11.4375 11.3125 C 11.359375 11.328125 11.296875 11.367188 11.25 11.4375 C 11.148438 18.234375 11.167969 25.027344 11.3125 31.8125 C 11.230469 31.8125 11.144531 31.8125 11.0625 31.8125 C 11.0625 24.894531 11.0625 17.980469 11.0625 11.0625 C 15.6875 11.0625 20.3125 11.0625 24.9375 11.0625 C 24.980469 12.4375 25.023438 13.8125 25.0625 15.1875 C 25.070312 16.109375 25.007812 17.027344 24.875 17.9375 C 22.613281 18.046875 20.34375 18.046875 18.0625 17.9375 Z M 18.0625 17.9375 "/>
</g>
<mask id="mask1">
  <g filter="url(#alpha)">
<rect x="0" y="0" width="50" height="50" style="fill:rgb(0%,0%,0%);fill-opacity:0.572549;stroke:none;"/>
  </g>
</mask>
<clipPath id="clip2">
  <rect x="0" y="0" width="50" height="50"/>
</clipPath>
<g id="surface8" clip-path="url(#clip2)">
<path style=" stroke:none;fill-rule:evenodd;fill:rgb(14.901961%,19.607843%,44.705882%);fill-opacity:1;" d="M 25.1875 19.9375 C 25.105469 19.824219 25.023438 19.699219 24.9375 19.5625 C 24.851562 19.742188 24.769531 19.910156 24.6875 20.0625 C 24.8125 18.671875 24.976562 18.632812 25.1875 19.9375 Z M 25.1875 19.9375 "/>
</g>
<mask id="mask2">
  <g filter="url(#alpha)">
<rect x="0" y="0" width="50" height="50" style="fill:rgb(0%,0%,0%);fill-opacity:0.729412;stroke:none;"/>
  </g>
</mask>
<clipPath id="clip3">
  <rect x="0" y="0" width="50" height="50"/>
</clipPath>
<g id="surface11" clip-path="url(#clip3)">
<path style=" stroke:none;fill-rule:evenodd;fill:rgb(4.313725%,7.45098%,18.039216%);fill-opacity:1;" d="M 38.6875 18.0625 C 36.730469 18.042969 34.769531 18.0625 32.8125 18.125 C 32.480469 18.167969 32.230469 18.316406 32.0625 18.5625 C 32.105469 23 32.0625 27.417969 31.9375 31.8125 C 31.9375 27.3125 31.9375 22.8125 31.9375 18.3125 C 31.9375 18.1875 31.9375 18.0625 31.9375 17.9375 C 34.210938 17.894531 36.460938 17.9375 38.6875 18.0625 Z M 38.6875 18.0625 "/>
</g>
<mask id="mask3">
  <g filter="url(#alpha)">
<rect x="0" y="0" width="50" height="50" style="fill:rgb(0%,0%,0%);fill-opacity:0.654902;stroke:none;"/>
  </g>
</mask>
<clipPath id="clip4">
  <rect x="0" y="0" width="50" height="50"/>
</clipPath>
<g id="surface14" clip-path="url(#clip4)">
<path style=" stroke:none;fill-rule:evenodd;fill:rgb(7.843137%,12.54902%,26.27451%);fill-opacity:1;" d="M 17.9375 18.0625 C 18.035156 22.644531 18.054688 27.230469 18 31.8125 C 15.675781 31.980469 13.363281 31.980469 11.0625 31.8125 C 11.144531 31.8125 11.230469 31.8125 11.3125 31.8125 C 13.3125 31.832031 15.3125 31.8125 17.3125 31.75 C 17.472656 31.710938 17.617188 31.648438 17.75 31.5625 C 17.8125 31.105469 17.832031 30.648438 17.8125 30.1875 C 17.769531 26.125 17.8125 22.082031 17.9375 18.0625 Z M 17.9375 18.0625 "/>
</g>
<mask id="mask4">
  <g filter="url(#alpha)">
<rect x="0" y="0" width="50" height="50" style="fill:rgb(0%,0%,0%);fill-opacity:0.666667;stroke:none;"/>
  </g>
</mask>
<clipPath id="clip5">
  <rect x="0" y="0" width="50" height="50"/>
</clipPath>
<g id="surface17" clip-path="url(#clip5)">
<path style=" stroke:none;fill-rule:evenodd;fill:rgb(9.411765%,14.509804%,28.627451%);fill-opacity:1;" d="M 24.4375 20.8125 C 24.457031 21.066406 24.4375 21.316406 24.375 21.5625 C 24.03125 21.820312 23.78125 22.15625 23.625 22.5625 C 23.523438 22.726562 23.378906 22.8125 23.1875 22.8125 C 23.660156 22.171875 24.078125 21.507812 24.4375 20.8125 Z M 24.4375 20.8125 "/>
</g>
<mask id="mask5">
  <g filter="url(#alpha)">
<rect x="0" y="0" width="50" height="50" style="fill:rgb(0%,0%,0%);fill-opacity:0.870588;stroke:none;"/>
  </g>
</mask>
<clipPath id="clip6">
  <rect x="0" y="0" width="50" height="50"/>
</clipPath>
<g id="surface20" clip-path="url(#clip6)">
<path style=" stroke:none;fill-rule:evenodd;fill:rgb(3.529412%,8.235294%,20.784314%);fill-opacity:1;" d="M 23.1875 22.8125 C 23.054688 23.238281 22.761719 23.488281 22.3125 23.5625 C 22.5625 23.269531 22.855469 23.019531 23.1875 22.8125 Z M 23.1875 22.8125 "/>
</g>
<mask id="mask6">
  <g filter="url(#alpha)">
<rect x="0" y="0" width="50" height="50" style="fill:rgb(0%,0%,0%);fill-opacity:0.905882;stroke:none;"/>
  </g>
</mask>
<clipPath id="clip7">
  <rect x="0" y="0" width="50" height="50"/>
</clipPath>
<g id="surface23" clip-path="url(#clip7)">
<path style=" stroke:none;fill-rule:evenodd;fill:rgb(7.058824%,11.372549%,25.882353%);fill-opacity:1;" d="M 27.5625 23.5625 C 27.957031 23.738281 28.332031 23.949219 28.6875 24.1875 C 28.15625 24.238281 27.78125 24.03125 27.5625 23.5625 Z M 27.5625 23.5625 "/>
</g>
<mask id="mask7">
  <g filter="url(#alpha)">
<rect x="0" y="0" width="50" height="50" style="fill:rgb(0%,0%,0%);fill-opacity:0.901961;stroke:none;"/>
  </g>
</mask>
<clipPath id="clip8">
  <rect x="0" y="0" width="50" height="50"/>
</clipPath>
<g id="surface26" clip-path="url(#clip8)">
<path style=" stroke:none;fill-rule:evenodd;fill:rgb(4.705882%,9.019608%,23.137255%);fill-opacity:1;" d="M 22.3125 23.5625 C 22.070312 23.996094 21.695312 24.207031 21.1875 24.1875 C 21.542969 23.949219 21.917969 23.738281 22.3125 23.5625 Z M 22.3125 23.5625 "/>
</g>
<mask id="mask8">
  <g filter="url(#alpha)">
<rect x="0" y="0" width="50" height="50" style="fill:rgb(0%,0%,0%);fill-opacity:0.666667;stroke:none;"/>
  </g>
</mask>
<clipPath id="clip9">
  <rect x="0" y="0" width="50" height="50"/>
</clipPath>
<g id="surface29" clip-path="url(#clip9)">
<path style=" stroke:none;fill-rule:evenodd;fill:rgb(9.803922%,14.901961%,37.254902%);fill-opacity:1;" d="M 19.5625 24.6875 C 19.488281 24.769531 19.40625 24.851562 19.3125 24.9375 C 19.40625 25.023438 19.488281 25.105469 19.5625 25.1875 C 18.5625 25.019531 18.5625 24.855469 19.5625 24.6875 Z M 19.5625 24.6875 "/>
</g>
<mask id="mask9">
  <g filter="url(#alpha)">
<rect x="0" y="0" width="50" height="50" style="fill:rgb(0%,0%,0%);fill-opacity:0.760784;stroke:none;"/>
  </g>
</mask>
<clipPath id="clip10">
  <rect x="0" y="0" width="50" height="50"/>
</clipPath>
<g id="surface32" clip-path="url(#clip10)">
<path style=" stroke:none;fill-rule:evenodd;fill:rgb(6.666667%,12.156863%,33.72549%);fill-opacity:1;" d="M 29.9375 24.5625 C 31.472656 24.785156 31.515625 24.992188 30.0625 25.1875 C 30.214844 24.949219 30.175781 24.742188 29.9375 24.5625 Z M 29.9375 24.5625 "/>
</g>
<mask id="mask10">
  <g filter="url(#alpha)">
<rect x="0" y="0" width="50" height="50" style="fill:rgb(0%,0%,0%);fill-opacity:0.905882;stroke:none;"/>
  </g>
</mask>
<clipPath id="clip11">
  <rect x="0" y="0" width="50" height="50"/>
</clipPath>
<g id="surface35" clip-path="url(#clip11)">
<path style=" stroke:none;fill-rule:evenodd;fill:rgb(7.45098%,10.196078%,20%);fill-opacity:1;" d="M 30.0625 25.1875 C 29.632812 25.402344 29.175781 25.566406 28.6875 25.6875 C 28.699219 25.5625 28.65625 25.457031 28.5625 25.375 C 29.0625 25.3125 29.5625 25.25 30.0625 25.1875 Z M 30.0625 25.1875 "/>
</g>
<mask id="mask11">
  <g filter="url(#alpha)">
<rect x="0" y="0" width="50" height="50" style="fill:rgb(0%,0%,0%);fill-opacity:0.870588;stroke:none;"/>
  </g>
</mask>
<clipPath id="clip12">
  <rect x="0" y="0" width="50" height="50"/>
</clipPath>
<g id="surface38" clip-path="url(#clip12)">
<path style=" stroke:none;fill-rule:evenodd;fill:rgb(5.098039%,9.019608%,24.705882%);fill-opacity:1;" d="M 21.1875 25.6875 C 21.550781 25.628906 21.800781 25.753906 21.9375 26.0625 C 21.648438 26 21.398438 25.875 21.1875 25.6875 Z M 21.1875 25.6875 "/>
</g>
<mask id="mask12">
  <g filter="url(#alpha)">
<rect x="0" y="0" width="50" height="50" style="fill:rgb(0%,0%,0%);fill-opacity:0.658824;stroke:none;"/>
  </g>
</mask>
<clipPath id="clip13">
  <rect x="0" y="0" width="50" height="50"/>
</clipPath>
<g id="surface41" clip-path="url(#clip13)">
<path style=" stroke:none;fill-rule:evenodd;fill:rgb(5.490196%,10.196078%,27.058824%);fill-opacity:1;" d="M 28.6875 25.6875 C 28.476562 25.875 28.226562 26 27.9375 26.0625 C 28.074219 25.753906 28.324219 25.628906 28.6875 25.6875 Z M 28.6875 25.6875 "/>
</g>
<mask id="mask13">
  <g filter="url(#alpha)">
<rect x="0" y="0" width="50" height="50" style="fill:rgb(0%,0%,0%);fill-opacity:0.313725;stroke:none;"/>
  </g>
</mask>
<clipPath id="clip14">
  <rect x="0" y="0" width="50" height="50"/>
</clipPath>
<g id="surface44" clip-path="url(#clip14)">
<path style=" stroke:none;fill-rule:evenodd;fill:rgb(9.411765%,14.509804%,32.156863%);fill-opacity:1;" d="M 27.9375 26.0625 C 27.691406 26.269531 27.441406 26.476562 27.1875 26.6875 C 27.285156 26.296875 27.535156 26.089844 27.9375 26.0625 Z M 27.9375 26.0625 "/>
</g>
<mask id="mask14">
  <g filter="url(#alpha)">
<rect x="0" y="0" width="50" height="50" style="fill:rgb(0%,0%,0%);fill-opacity:0.886275;stroke:none;"/>
  </g>
</mask>
<clipPath id="clip15">
  <rect x="0" y="0" width="50" height="50"/>
</clipPath>
<g id="surface47" clip-path="url(#clip15)">
<path style=" stroke:none;fill-rule:evenodd;fill:rgb(4.705882%,9.019608%,21.568627%);fill-opacity:1;" d="M 21.9375 26.0625 C 22.109375 26.042969 22.277344 26.0625 22.4375 26.125 C 22.726562 26.414062 22.976562 26.726562 23.1875 27.0625 C 22.730469 26.773438 22.316406 26.441406 21.9375 26.0625 Z M 21.9375 26.0625 "/>
</g>
<mask id="mask15">
  <g filter="url(#alpha)">
<rect x="0" y="0" width="50" height="50" style="fill:rgb(0%,0%,0%);fill-opacity:0.235294;stroke:none;"/>
  </g>
</mask>
<clipPath id="clip16">
  <rect x="0" y="0" width="50" height="50"/>
</clipPath>
<g id="surface50" clip-path="url(#clip16)">
<path style=" stroke:none;fill-rule:evenodd;fill:rgb(9.803922%,15.294118%,30.980392%);fill-opacity:1;" d="M 23.1875 27.0625 C 23.570312 27.160156 23.777344 27.410156 23.8125 27.8125 C 23.515625 27.636719 23.304688 27.386719 23.1875 27.0625 Z M 23.1875 27.0625 "/>
</g>
<mask id="mask16">
  <g filter="url(#alpha)">
<rect x="0" y="0" width="50" height="50" style="fill:rgb(0%,0%,0%);fill-opacity:0.47451;stroke:none;"/>
  </g>
</mask>
<clipPath id="clip17">
  <rect x="0" y="0" width="50" height="50"/>
</clipPath>
<g id="surface53" clip-path="url(#clip17)">
<path style=" stroke:none;fill-rule:evenodd;fill:rgb(16.470588%,20.784314%,47.45098%);fill-opacity:1;" d="M 25.1875 29.8125 C 25.066406 31.195312 24.898438 31.238281 24.6875 29.9375 C 24.769531 30.050781 24.851562 30.175781 24.9375 30.3125 C 25.023438 30.132812 25.105469 29.964844 25.1875 29.8125 Z M 25.1875 29.8125 "/>
</g>
<mask id="mask17">
  <g filter="url(#alpha)">
<rect x="0" y="0" width="50" height="50" style="fill:rgb(0%,0%,0%);fill-opacity:0.0705882;stroke:none;"/>
  </g>
</mask>
<clipPath id="clip18">
  <rect x="0" y="0" width="50" height="50"/>
</clipPath>
<g id="surface56" clip-path="url(#clip18)">
<path style=" stroke:none;fill-rule:evenodd;fill:rgb(22.352941%,30.980392%,58.823529%);fill-opacity:1;" d="M 31.9375 18.3125 C 31.9375 22.8125 31.9375 27.3125 31.9375 31.8125 C 31.9375 31.894531 31.894531 31.9375 31.8125 31.9375 C 29.5625 31.9375 27.3125 31.9375 25.0625 31.9375 C 27.289062 31.8125 29.539062 31.769531 31.8125 31.8125 C 31.769531 27.292969 31.8125 22.792969 31.9375 18.3125 Z M 31.9375 18.3125 "/>
</g>
<mask id="mask18">
  <g filter="url(#alpha)">
<rect x="0" y="0" width="50" height="50" style="fill:rgb(0%,0%,0%);fill-opacity:0.835294;stroke:none;"/>
  </g>
</mask>
<clipPath id="clip19">
  <rect x="0" y="0" width="50" height="50"/>
</clipPath>
<g id="surface59" clip-path="url(#clip19)">
<path style=" stroke:none;fill-rule:evenodd;fill:rgb(9.019608%,14.509804%,28.627451%);fill-opacity:1;" d="M 25.0625 31.9375 C 27.3125 31.9375 29.5625 31.9375 31.8125 31.9375 C 29.585938 32.0625 27.335938 32.105469 25.0625 32.0625 C 25.0625 34.105469 25.0625 36.144531 25.0625 38.1875 C 24.957031 38.230469 24.914062 38.3125 24.9375 38.4375 C 24.792969 36.417969 24.773438 34.375 24.875 32.3125 C 24.902344 32.15625 24.964844 32.03125 25.0625 31.9375 Z M 25.0625 31.9375 "/>
</g>
<mask id="mask19">
  <g filter="url(#alpha)">
<rect x="0" y="0" width="50" height="50" style="fill:rgb(0%,0%,0%);fill-opacity:0.996078;stroke:none;"/>
  </g>
</mask>
<clipPath id="clip20">
  <rect x="0" y="0" width="50" height="50"/>
</clipPath>
<g id="surface62" clip-path="url(#clip20)">
<path style=" stroke:none;fill-rule:evenodd;fill:rgb(0.784314%,0.784314%,5.098039%);fill-opacity:1;" d="M 38.6875 18.0625 C 38.707031 24.855469 38.6875 31.644531 38.625 38.4375 C 38.5625 38.5 38.5 38.5625 38.4375 38.625 C 33.9375 38.6875 29.4375 38.707031 24.9375 38.6875 C 24.9375 38.605469 24.9375 38.519531 24.9375 38.4375 C 24.914062 38.3125 24.957031 38.230469 25.0625 38.1875 C 25.0625 38.3125 25.0625 38.4375 25.0625 38.5625 C 29.355469 38.582031 33.644531 38.5625 37.9375 38.5 C 33.9375 38.457031 29.9375 38.417969 25.9375 38.375 C 25.980469 38.332031 26.019531 38.292969 26.0625 38.25 C 29.980469 38.167969 33.894531 38.167969 37.8125 38.25 C 38.179688 38.515625 38.40625 38.410156 38.5 37.9375 C 38.582031 31.5625 38.582031 25.1875 38.5 18.8125 C 38.457031 18.894531 38.417969 18.980469 38.375 19.0625 C 38.214844 18.886719 38.152344 18.679688 38.1875 18.4375 C 36.296875 18.425781 34.257812 18.46875 32.0625 18.5625 C 32.230469 18.316406 32.480469 18.167969 32.8125 18.125 C 34.769531 18.0625 36.730469 18.042969 38.6875 18.0625 Z M 38.6875 18.0625 "/>
</g>
<mask id="mask20">
  <g filter="url(#alpha)">
<rect x="0" y="0" width="50" height="50" style="fill:rgb(0%,0%,0%);fill-opacity:0.568627;stroke:none;"/>
  </g>
</mask>
<clipPath id="clip21">
  <rect x="0" y="0" width="50" height="50"/>
</clipPath>
<g id="surface65" clip-path="url(#clip21)">
<path style=" stroke:none;fill-rule:evenodd;fill:rgb(0%,1.960784%,17.647059%);fill-opacity:1;" d="M 38.6875 18.0625 C 38.832031 24.917969 38.855469 31.792969 38.75 38.6875 C 34.207031 38.769531 29.667969 38.855469 25.125 38.9375 C 25.035156 38.871094 24.972656 38.785156 24.9375 38.6875 C 29.4375 38.707031 33.9375 38.6875 38.4375 38.625 C 38.5 38.5625 38.5625 38.5 38.625 38.4375 C 38.6875 31.644531 38.707031 24.855469 38.6875 18.0625 Z M 38.6875 18.0625 "/>
</g>
</defs>
<g id="surface1">
<use xlink:href="#surface5" mask="url(#mask0)"/>
<path style=" stroke:none;fill-rule:evenodd;fill:rgb(0%,0%,0.392157%);fill-opacity:1;" d="M 18.0625 17.9375 C 18.0625 18.019531 18.019531 18.0625 17.9375 18.0625 C 17.8125 22.082031 17.769531 26.125 17.8125 30.1875 C 17.699219 30.28125 17.617188 30.40625 17.5625 30.5625 C 17.746094 31.027344 17.582031 31.296875 17.0625 31.375 C 15.371094 31.304688 13.578125 31.324219 11.6875 31.4375 C 11.707031 31.023438 11.625 30.984375 11.4375 31.3125 C 11.273438 24.640625 11.273438 17.972656 11.4375 11.3125 C 15.890625 11.191406 20.351562 11.148438 24.8125 11.1875 C 24.8125 13.394531 24.8125 15.605469 24.8125 17.8125 C 22.539062 17.769531 20.289062 17.8125 18.0625 17.9375 Z M 18.0625 17.9375 "/>
<path style=" stroke:none;fill-rule:evenodd;fill:rgb(0%,0%,0%);fill-opacity:1;" d="M 25.0625 38.1875 C 25.0625 36.144531 25.0625 34.105469 25.0625 32.0625 C 27.335938 32.105469 29.585938 32.0625 31.8125 31.9375 C 31.894531 31.9375 31.9375 31.894531 31.9375 31.8125 C 32.0625 27.417969 32.105469 23 32.0625 18.5625 C 34.257812 18.46875 36.296875 18.425781 38.1875 18.4375 C 38.152344 18.679688 38.214844 18.886719 38.375 19.0625 C 38.417969 18.980469 38.457031 18.894531 38.5 18.8125 C 38.582031 25.1875 38.582031 31.5625 38.5 37.9375 C 38.40625 38.410156 38.179688 38.515625 37.8125 38.25 C 33.894531 38.167969 29.980469 38.167969 26.0625 38.25 C 26.019531 38.292969 25.980469 38.332031 25.9375 38.375 C 29.9375 38.417969 33.9375 38.457031 37.9375 38.5 C 33.644531 38.5625 29.355469 38.582031 25.0625 38.5625 C 25.0625 38.4375 25.0625 38.3125 25.0625 38.1875 Z M 25.0625 38.1875 "/>
<use xlink:href="#surface8" mask="url(#mask1)"/>
<use xlink:href="#surface11" mask="url(#mask2)"/>
<path style=" stroke:none;fill-rule:evenodd;fill:rgb(2.745098%,0%,3.137255%);fill-opacity:1;" d="M 38.3125 19.5625 C 38.480469 25.625 38.480469 31.707031 38.3125 37.8125 C 38.148438 31.722656 38.148438 25.636719 38.3125 19.5625 Z M 38.3125 19.5625 "/>
<use xlink:href="#surface14" mask="url(#mask3)"/>
<path style=" stroke:none;fill-rule:evenodd;fill:rgb(0.392157%,0.392157%,1.960784%);fill-opacity:1;" d="M 26.0625 22.0625 C 26.324219 22.199219 26.488281 22.40625 26.5625 22.6875 C 26.789062 22.976562 26.933594 23.3125 27 23.6875 C 27.082031 23.605469 27.167969 23.519531 27.25 23.4375 C 27.332031 23.53125 27.4375 23.574219 27.5625 23.5625 C 27.78125 24.03125 28.15625 24.238281 28.6875 24.1875 C 29.105469 24.3125 29.519531 24.4375 29.9375 24.5625 C 30.175781 24.742188 30.214844 24.949219 30.0625 25.1875 C 29.5625 25.25 29.0625 25.3125 28.5625 25.375 C 28.65625 25.457031 28.699219 25.5625 28.6875 25.6875 C 28.324219 25.628906 28.074219 25.753906 27.9375 26.0625 C 27.535156 26.089844 27.285156 26.296875 27.1875 26.6875 C 26.40625 27.339844 25.824219 28.132812 25.4375 29.0625 C 25.273438 29.226562 25.105469 29.390625 24.9375 29.5625 C 24.761719 29.289062 24.804688 29.0625 25.0625 28.875 C 24.90625 28.734375 24.757812 28.714844 24.625 28.8125 C 24.445312 28.582031 24.300781 28.332031 24.1875 28.0625 C 24.074219 27.984375 23.949219 27.941406 23.8125 27.9375 C 23.8125 27.894531 23.8125 27.855469 23.8125 27.8125 C 23.777344 27.410156 23.570312 27.160156 23.1875 27.0625 C 22.976562 26.726562 22.726562 26.414062 22.4375 26.125 C 22.277344 26.0625 22.109375 26.042969 21.9375 26.0625 C 21.800781 25.753906 21.550781 25.628906 21.1875 25.6875 C 20.761719 25.460938 20.347656 25.210938 19.9375 24.9375 C 20.082031 24.785156 20.226562 24.785156 20.375 24.9375 C 20.40625 24.796875 20.46875 24.671875 20.5625 24.5625 C 20.824219 24.503906 21.03125 24.378906 21.1875 24.1875 C 21.695312 24.207031 22.070312 23.996094 22.3125 23.5625 C 22.761719 23.488281 23.054688 23.238281 23.1875 22.8125 C 23.378906 22.8125 23.523438 22.726562 23.625 22.5625 C 23.78125 22.15625 24.03125 21.820312 24.375 21.5625 C 24.4375 21.316406 24.457031 21.066406 24.4375 20.8125 C 24.648438 20.65625 24.8125 20.449219 24.9375 20.1875 C 25.117188 20.5 25.074219 20.769531 24.8125 21 C 24.980469 21.160156 25.148438 21.183594 25.3125 21.0625 C 25.488281 21.335938 25.445312 21.5625 25.1875 21.75 C 25.445312 21.828125 25.734375 21.933594 26.0625 22.0625 Z M 26.0625 22.0625 "/>
<path style=" stroke:none;fill-rule:evenodd;fill:rgb(5.098039%,6.27451%,14.117647%);fill-opacity:1;" d="M 25.1875 19.9375 C 25.40625 20.679688 25.699219 21.386719 26.0625 22.0625 C 25.734375 21.933594 25.445312 21.828125 25.1875 21.75 C 25.445312 21.5625 25.488281 21.335938 25.3125 21.0625 C 25.148438 21.183594 24.980469 21.160156 24.8125 21 C 25.074219 20.769531 25.117188 20.5 24.9375 20.1875 C 24.8125 20.449219 24.648438 20.65625 24.4375 20.8125 C 24.484375 20.539062 24.566406 20.289062 24.6875 20.0625 C 24.769531 19.910156 24.851562 19.742188 24.9375 19.5625 C 25.023438 19.699219 25.105469 19.824219 25.1875 19.9375 Z M 25.1875 19.9375 "/>
<use xlink:href="#surface17" mask="url(#mask4)"/>
<use xlink:href="#surface20" mask="url(#mask5)"/>
<path style=" stroke:none;fill-rule:evenodd;fill:rgb(5.490196%,6.27451%,15.294118%);fill-opacity:1;" d="M 26.5625 22.6875 C 26.902344 22.980469 27.234375 23.273438 27.5625 23.5625 C 27.4375 23.574219 27.332031 23.53125 27.25 23.4375 C 27.167969 23.519531 27.082031 23.605469 27 23.6875 C 26.933594 23.3125 26.789062 22.976562 26.5625 22.6875 Z M 26.5625 22.6875 "/>
<use xlink:href="#surface23" mask="url(#mask6)"/>
<use xlink:href="#surface26" mask="url(#mask7)"/>
<use xlink:href="#surface29" mask="url(#mask8)"/>
<path style=" stroke:none;fill-rule:evenodd;fill:rgb(4.313725%,7.058824%,17.254902%);fill-opacity:1;" d="M 21.1875 24.1875 C 21.03125 24.378906 20.824219 24.503906 20.5625 24.5625 C 20.46875 24.671875 20.40625 24.796875 20.375 24.9375 C 20.226562 24.785156 20.082031 24.785156 19.9375 24.9375 C 20.347656 25.210938 20.761719 25.460938 21.1875 25.6875 C 20.644531 25.519531 20.105469 25.355469 19.5625 25.1875 C 19.488281 25.105469 19.40625 25.023438 19.3125 24.9375 C 19.40625 24.851562 19.488281 24.769531 19.5625 24.6875 C 20.105469 24.519531 20.644531 24.355469 21.1875 24.1875 Z M 21.1875 24.1875 "/>
<use xlink:href="#surface32" mask="url(#mask9)"/>
<use xlink:href="#surface35" mask="url(#mask10)"/>
<use xlink:href="#surface38" mask="url(#mask11)"/>
<use xlink:href="#surface41" mask="url(#mask12)"/>
<use xlink:href="#surface44" mask="url(#mask13)"/>
<use xlink:href="#surface47" mask="url(#mask14)"/>
<use xlink:href="#surface50" mask="url(#mask15)"/>
<path style=" stroke:none;fill-rule:evenodd;fill:rgb(5.882353%,8.235294%,17.254902%);fill-opacity:1;" d="M 23.8125 27.9375 C 23.949219 27.941406 24.074219 27.984375 24.1875 28.0625 C 24.300781 28.332031 24.445312 28.582031 24.625 28.8125 C 24.757812 28.714844 24.90625 28.734375 25.0625 28.875 C 24.804688 29.0625 24.761719 29.289062 24.9375 29.5625 C 25.105469 29.390625 25.273438 29.226562 25.4375 29.0625 C 25.390625 29.335938 25.308594 29.585938 25.1875 29.8125 C 25.105469 29.964844 25.023438 30.132812 24.9375 30.3125 C 24.851562 30.175781 24.769531 30.050781 24.6875 29.9375 C 24.492188 29.222656 24.199219 28.558594 23.8125 27.9375 Z M 23.8125 27.9375 "/>
<use xlink:href="#surface53" mask="url(#mask16)"/>
<path style=" stroke:none;fill-rule:evenodd;fill:rgb(0%,0%,6.27451%);fill-opacity:1;" d="M 11.4375 11.3125 C 11.273438 17.972656 11.273438 24.640625 11.4375 31.3125 C 11.625 30.984375 11.707031 31.023438 11.6875 31.4375 C 13.578125 31.324219 15.371094 31.304688 17.0625 31.375 C 17.582031 31.296875 17.746094 31.027344 17.5625 30.5625 C 17.617188 30.40625 17.699219 30.28125 17.8125 30.1875 C 17.832031 30.648438 17.8125 31.105469 17.75 31.5625 C 17.617188 31.648438 17.472656 31.710938 17.3125 31.75 C 15.3125 31.8125 13.3125 31.832031 11.3125 31.8125 C 11.167969 25.027344 11.148438 18.234375 11.25 11.4375 C 11.296875 11.367188 11.359375 11.328125 11.4375 11.3125 Z M 11.4375 11.3125 "/>
<use xlink:href="#surface56" mask="url(#mask17)"/>
<use xlink:href="#surface59" mask="url(#mask18)"/>
<use xlink:href="#surface62" mask="url(#mask19)"/>
<use xlink:href="#surface65" mask="url(#mask20)"/>
</g>
</svg>
