<?xml version="1.0" encoding="UTF-8"?>
<!DOCTYPE svg PUBLIC "-//W3C//DTD SVG 1.1//EN" "http://www.w3.org/Graphics/SVG/1.1/DTD/svg11.dtd">
<svg xmlns="http://www.w3.org/2000/svg" version="1.1" width="400px" height="400px" style="shape-rendering:geometricPrecision; text-rendering:geometricPrecision; image-rendering:optimizeQuality; fill-rule:evenodd; clip-rule:evenodd" xmlns:xlink="http://www.w3.org/1999/xlink">
<g><path style="opacity:0.594" fill="#06163a" d="M 144.5,143.5 C 162.326,142.503 180.326,142.17 198.5,142.5C 198.5,124.833 198.5,107.167 198.5,89.5C 162.803,89.1862 127.136,89.5195 91.5,90.5C 90.8826,90.6107 90.3826,90.944 90,91.5C 89.1753,145.874 89.342,200.208 90.5,254.5C 89.8333,254.5 89.1667,254.5 88.5,254.5C 88.5,199.167 88.5,143.833 88.5,88.5C 125.5,88.5 162.5,88.5 199.5,88.5C 199.853,99.4968 200.186,110.497 200.5,121.5C 200.568,128.885 200.068,136.218 199,143.5C 180.902,144.39 162.735,144.39 144.5,143.5 Z"/></g>
<g><path style="opacity:1" fill="#000001" d="M 144.5,143.5 C 144.5,144.167 144.167,144.5 143.5,144.5C 142.502,176.662 142.168,208.996 142.5,241.5C 141.609,242.261 140.942,243.261 140.5,244.5C 141.982,248.215 140.649,250.381 136.5,251C 122.96,250.437 108.627,250.604 93.5,251.5C 93.6713,248.203 93.0046,247.869 91.5,250.5C 90.1756,197.129 90.1756,143.796 91.5,90.5C 127.136,89.5195 162.803,89.1862 198.5,89.5C 198.5,107.167 198.5,124.833 198.5,142.5C 180.326,142.17 162.326,142.503 144.5,143.5 Z"/></g>
<g><path style="opacity:1" fill="#000000" d="M 200.5,305.5 C 200.5,289.167 200.5,272.833 200.5,256.5C 218.674,256.83 236.674,256.497 254.5,255.5C 255.167,255.5 255.5,255.167 255.5,254.5C 256.498,219.337 256.832,184.004 256.5,148.5C 274.053,147.744 290.386,147.411 305.5,147.5C 305.231,149.429 305.731,151.095 307,152.5C 307.333,151.833 307.667,151.167 308,150.5C 308.667,201.5 308.667,252.5 308,303.5C 307.261,307.293 305.428,308.126 302.5,306C 271.167,305.333 239.833,305.333 208.5,306C 208.167,306.333 207.833,306.667 207.5,307C 239.5,307.333 271.5,307.667 303.5,308C 269.168,308.5 234.835,308.667 200.5,308.5C 200.5,307.5 200.5,306.5 200.5,305.5 Z"/></g>
<g><path style="opacity:0.571" fill="#263272" d="M 201.5,159.5 C 200.842,158.602 200.176,157.602 199.5,156.5C 198.828,157.949 198.161,159.282 197.5,160.5C 198.491,149.388 199.824,149.055 201.5,159.5 Z"/></g>
<g><path style="opacity:0.73" fill="#0b132e" d="M 309.5,144.5 C 293.83,144.333 278.163,144.5 262.5,145C 259.848,145.353 257.848,146.52 256.5,148.5C 256.832,184.004 256.498,219.337 255.5,254.5C 255.5,218.5 255.5,182.5 255.5,146.5C 255.5,145.5 255.5,144.5 255.5,143.5C 273.674,143.17 291.674,143.503 309.5,144.5 Z"/></g>
<g><path style="opacity:1" fill="#070008" d="M 306.5,156.5 C 307.831,205.002 307.831,253.668 306.5,302.5C 305.172,253.766 305.172,205.099 306.5,156.5 Z"/></g>
<g><path style="opacity:0.653" fill="#142043" d="M 143.5,144.5 C 144.271,181.165 144.437,217.831 144,254.5C 125.402,255.831 106.902,255.831 88.5,254.5C 89.1667,254.5 89.8333,254.5 90.5,254.5C 106.503,254.667 122.503,254.5 138.5,254C 139.766,253.691 140.933,253.191 142,252.5C 142.499,248.848 142.665,245.182 142.5,241.5C 142.168,208.996 142.502,176.662 143.5,144.5 Z"/></g>
<g><path style="opacity:1" fill="#010105" d="M 208.5,176.5 C 210.587,177.585 211.92,179.251 212.5,181.5C 214.3,183.828 215.467,186.495 216,189.5C 216.667,188.833 217.333,188.167 218,187.5C 218.671,188.252 219.504,188.586 220.5,188.5C 222.265,192.243 225.265,193.91 229.5,193.5C 232.833,194.5 236.167,195.5 239.5,196.5C 241.401,197.935 241.734,199.602 240.5,201.5C 236.51,201.999 232.51,202.499 228.5,203C 229.252,203.671 229.586,204.504 229.5,205.5C 226.607,205.031 224.607,206.031 223.5,208.5C 220.288,208.712 218.288,210.379 217.5,213.5C 211.26,218.73 206.594,225.064 203.5,232.5C 202.173,233.8 200.84,235.133 199.5,236.5C 198.107,234.326 198.44,232.493 200.5,231C 199.24,229.887 198.073,229.72 197,230.5C 195.577,228.655 194.41,226.655 193.5,224.5C 192.583,223.873 191.583,223.539 190.5,223.5C 190.5,223.167 190.5,222.833 190.5,222.5C 190.228,219.268 188.562,217.268 185.5,216.5C 183.821,213.805 181.821,211.305 179.5,209C 178.207,208.51 176.873,208.343 175.5,208.5C 174.393,206.031 172.393,205.031 169.5,205.5C 166.104,203.691 162.771,201.691 159.5,199.5C 160.651,198.269 161.817,198.269 163,199.5C 163.249,198.376 163.749,197.376 164.5,196.5C 166.598,196.043 168.264,195.043 169.5,193.5C 173.547,193.645 176.547,191.978 178.5,188.5C 182.089,187.908 184.422,185.908 185.5,182.5C 187.017,182.489 188.184,181.823 189,180.5C 190.262,177.243 192.262,174.577 195,172.5C 195.495,170.527 195.662,168.527 195.5,166.5C 197.178,165.253 198.511,163.586 199.5,161.5C 200.938,163.998 200.604,166.164 198.5,168C 199.854,169.294 201.188,169.46 202.5,168.5C 203.893,170.674 203.56,172.507 201.5,174C 203.555,174.637 205.889,175.47 208.5,176.5 Z"/></g>
<g><path style="opacity:1" fill="#0d1024" d="M 201.5,159.5 C 203.256,165.443 205.589,171.109 208.5,176.5C 205.889,175.47 203.555,174.637 201.5,174C 203.56,172.507 203.893,170.674 202.5,168.5C 201.188,169.46 199.854,169.294 198.5,168C 200.604,166.164 200.938,163.998 199.5,161.5C 198.511,163.586 197.178,165.253 195.5,166.5C 195.875,164.302 196.542,162.302 197.5,160.5C 198.161,159.282 198.828,157.949 199.5,156.5C 200.176,157.602 200.842,158.602 201.5,159.5 Z"/></g>
<g><path style="opacity:0.667" fill="#182549" d="M 195.5,166.5 C 195.662,168.527 195.495,170.527 195,172.5C 192.262,174.577 190.262,177.243 189,180.5C 188.184,181.823 187.017,182.489 185.5,182.5C 189.295,177.39 192.628,172.056 195.5,166.5 Z"/></g>
<g><path style="opacity:0.871" fill="#091535" d="M 185.5,182.5 C 184.422,185.908 182.089,187.908 178.5,188.5C 180.514,186.155 182.847,184.155 185.5,182.5 Z"/></g>
<g><path style="opacity:1" fill="#0e1027" d="M 212.5,181.5 C 215.207,183.843 217.874,186.177 220.5,188.5C 219.504,188.586 218.671,188.252 218,187.5C 217.333,188.167 216.667,188.833 216,189.5C 215.467,186.495 214.3,183.828 212.5,181.5 Z"/></g>
<g><path style="opacity:0.906" fill="#121d42" d="M 220.5,188.5 C 223.669,189.917 226.669,191.583 229.5,193.5C 225.265,193.91 222.265,192.243 220.5,188.5 Z"/></g>
<g><path style="opacity:0.902" fill="#0c173b" d="M 178.5,188.5 C 176.547,191.978 173.547,193.645 169.5,193.5C 172.331,191.583 175.331,189.917 178.5,188.5 Z"/></g>
<g><path style="opacity:0.665" fill="#19265f" d="M 156.5,197.5 C 155.909,198.151 155.243,198.818 154.5,199.5C 155.243,200.182 155.909,200.849 156.5,201.5C 148.5,200.167 148.5,198.833 156.5,197.5 Z"/></g>
<g><path style="opacity:1" fill="#0b122c" d="M 169.5,193.5 C 168.264,195.043 166.598,196.043 164.5,196.5C 163.749,197.376 163.249,198.376 163,199.5C 161.817,198.269 160.651,198.269 159.5,199.5C 162.771,201.691 166.104,203.691 169.5,205.5C 165.167,204.167 160.833,202.833 156.5,201.5C 155.909,200.849 155.243,200.182 154.5,199.5C 155.243,198.818 155.909,198.151 156.5,197.5C 160.833,196.167 165.167,194.833 169.5,193.5 Z"/></g>
<g><path style="opacity:0.759" fill="#111f56" d="M 239.5,196.5 C 251.795,198.276 252.129,199.943 240.5,201.5C 241.734,199.602 241.401,197.935 239.5,196.5 Z"/></g>
<g><path style="opacity:0.904" fill="#131a33" d="M 240.5,201.5 C 237.061,203.204 233.395,204.538 229.5,205.5C 229.586,204.504 229.252,203.671 228.5,203C 232.51,202.499 236.51,201.999 240.5,201.5 Z"/></g>
<g><path style="opacity:0.871" fill="#0d173f" d="M 169.5,205.5 C 172.393,205.031 174.393,206.031 175.5,208.5C 173.181,208.008 171.181,207.008 169.5,205.5 Z"/></g>
<g><path style="opacity:0.659" fill="#0e1a45" d="M 229.5,205.5 C 227.819,207.008 225.819,208.008 223.5,208.5C 224.607,206.031 226.607,205.031 229.5,205.5 Z"/></g>
<g><path style="opacity:0.314" fill="#182552" d="M 223.5,208.5 C 221.54,210.156 219.54,211.823 217.5,213.5C 218.288,210.379 220.288,208.712 223.5,208.5 Z"/></g>
<g><path style="opacity:0.886" fill="#0c1737" d="M 175.5,208.5 C 176.873,208.343 178.207,208.51 179.5,209C 181.821,211.305 183.821,213.805 185.5,216.5C 181.854,214.183 178.52,211.516 175.5,208.5 Z"/></g>
<g><path style="opacity:0.235" fill="#19274f" d="M 185.5,216.5 C 188.562,217.268 190.228,219.268 190.5,222.5C 188.11,221.109 186.443,219.109 185.5,216.5 Z"/></g>
<g><path style="opacity:1" fill="#0f152c" d="M 190.5,223.5 C 191.583,223.539 192.583,223.873 193.5,224.5C 194.41,226.655 195.577,228.655 197,230.5C 198.073,229.72 199.24,229.887 200.5,231C 198.44,232.493 198.107,234.326 199.5,236.5C 200.84,235.133 202.173,233.8 203.5,232.5C 203.125,234.698 202.458,236.698 201.5,238.5C 200.839,239.718 200.172,241.051 199.5,242.5C 198.824,241.398 198.158,240.398 197.5,239.5C 195.935,233.796 193.602,228.463 190.5,223.5 Z"/></g>
<g><path style="opacity:0.473" fill="#2a3579" d="M 201.5,238.5 C 200.531,249.567 199.197,249.901 197.5,239.5C 198.158,240.398 198.824,241.398 199.5,242.5C 200.172,241.051 200.839,239.718 201.5,238.5 Z"/></g>
<g><path style="opacity:1" fill="#000010" d="M 91.5,90.5 C 90.1756,143.796 90.1756,197.129 91.5,250.5C 93.0046,247.869 93.6713,248.203 93.5,251.5C 108.627,250.604 122.96,250.437 136.5,251C 140.649,250.381 141.982,248.215 140.5,244.5C 140.942,243.261 141.609,242.261 142.5,241.5C 142.665,245.182 142.499,248.848 142,252.5C 140.933,253.191 139.766,253.691 138.5,254C 122.503,254.5 106.503,254.667 90.5,254.5C 89.342,200.208 89.1753,145.874 90,91.5C 90.3826,90.944 90.8826,90.6107 91.5,90.5 Z"/></g>
<g><path style="opacity:0.07" fill="#394f96" d="M 255.5,146.5 C 255.5,182.5 255.5,218.5 255.5,254.5C 255.5,255.167 255.167,255.5 254.5,255.5C 236.5,255.5 218.5,255.5 200.5,255.5C 218.326,254.503 236.326,254.17 254.5,254.5C 254.168,218.329 254.502,182.329 255.5,146.5 Z"/></g>
<g><path style="opacity:0.836" fill="#172549" d="M 200.5,255.5 C 218.5,255.5 236.5,255.5 254.5,255.5C 236.674,256.497 218.674,256.83 200.5,256.5C 200.5,272.833 200.5,289.167 200.5,305.5C 199.662,305.842 199.328,306.508 199.5,307.5C 198.338,291.339 198.172,275.005 199,258.5C 199.232,257.263 199.732,256.263 200.5,255.5 Z"/></g>
<g><path style="opacity:0.995" fill="#02020d" d="M 309.5,144.5 C 309.667,198.834 309.5,253.168 309,307.5C 308.5,308 308,308.5 307.5,309C 271.502,309.5 235.502,309.667 199.5,309.5C 199.5,308.833 199.5,308.167 199.5,307.5C 199.328,306.508 199.662,305.842 200.5,305.5C 200.5,306.5 200.5,307.5 200.5,308.5C 234.835,308.667 269.168,308.5 303.5,308C 271.5,307.667 239.5,307.333 207.5,307C 207.833,306.667 208.167,306.333 208.5,306C 239.833,305.333 271.167,305.333 302.5,306C 305.428,308.126 307.261,307.293 308,303.5C 308.667,252.5 308.667,201.5 308,150.5C 307.667,151.167 307.333,151.833 307,152.5C 305.731,151.095 305.231,149.429 305.5,147.5C 290.386,147.411 274.053,147.744 256.5,148.5C 257.848,146.52 259.848,145.353 262.5,145C 278.163,144.5 293.83,144.333 309.5,144.5 Z"/></g>
<g><path style="opacity:0.569" fill="#00052d" d="M 309.5,144.5 C 310.665,199.332 310.832,254.332 310,309.5C 273.667,310.167 237.333,310.833 201,311.5C 200.283,310.956 199.783,310.289 199.5,309.5C 235.502,309.667 271.502,309.5 307.5,309C 308,308.5 308.5,308 309,307.5C 309.5,253.168 309.667,198.834 309.5,144.5 Z"/></g>
</svg>
