<?xml version="1.0" encoding="UTF-8"?>
<svg xmlns="http://www.w3.org/2000/svg" xmlns:xlink="http://www.w3.org/1999/xlink" width="50px" height="50px" viewBox="0 0 50 50" version="1.1">
<defs>
<linearGradient id="linear0" gradientUnits="userSpaceOnUse" x1="25" y1="0" x2="25" y2="50" >
<stop offset="0" style="stop-color:rgb(13.333333%,17.647059%,32.54902%);stop-opacity:1;"/>
<stop offset="1" style="stop-color:rgb(8.235294%,11.372549%,21.568627%);stop-opacity:1;"/>
</linearGradient>
</defs>
<g id="surface1">
<path style=" stroke:none;fill-rule:nonzero;fill:url(#linear0);" d="M 25 50 C 38.808594 50 50 38.808594 50 25 C 50 11.191406 38.808594 0 25 0 C 11.191406 0 0 11.191406 0 25 C 0 38.808594 11.191406 50 25 50 Z M 25 50 "/>
<path style="fill:none;stroke-width:0.5;stroke-linecap:butt;stroke-linejoin:miter;stroke:rgb(100%,100%,100%);stroke-opacity:1;stroke-miterlimit:4;" d="M 25 49.609375 C 38.589844 49.609375 49.609375 38.589844 49.609375 25 C 49.609375 11.410156 38.589844 0.390625 25 0.390625 C 11.410156 0.390625 0.390625 11.410156 0.390625 25 C 0.390625 38.589844 11.410156 49.609375 25 49.609375 Z M 25 49.609375 "/>
<path style=" stroke:none;fill-rule:nonzero;fill:rgb(100%,100%,100%);fill-opacity:1;" d="M 12.140625 12.140625 L 15.316406 12.140625 L 15.316406 15.316406 L 12.140625 15.316406 Z M 12.140625 12.140625 "/>
<path style=" stroke:none;fill-rule:nonzero;fill:rgb(100%,100%,100%);fill-opacity:1;" d="M 20.085938 12.140625 L 23.261719 12.140625 L 23.261719 15.316406 L 20.085938 15.316406 Z M 20.085938 12.140625 "/>
<path style=" stroke:none;fill-rule:nonzero;fill:rgb(100%,100%,100%);fill-opacity:1;" d="M 28.027344 12.140625 L 31.207031 12.140625 L 31.207031 15.316406 L 28.027344 15.316406 Z M 28.027344 12.140625 "/>
<path style=" stroke:none;fill-rule:nonzero;fill:rgb(100%,100%,100%);fill-opacity:1;" d="M 12.140625 20.085938 L 15.316406 20.085938 L 15.316406 23.261719 L 12.140625 23.261719 Z M 12.140625 20.085938 "/>
<path style=" stroke:none;fill-rule:nonzero;fill:rgb(100%,100%,100%);fill-opacity:1;" d="M 20.085938 20.085938 L 23.261719 20.085938 L 23.261719 23.261719 L 20.085938 23.261719 Z M 20.085938 20.085938 "/>
<path style=" stroke:none;fill-rule:nonzero;fill:rgb(100%,100%,100%);fill-opacity:1;" d="M 12.140625 28.023438 L 15.316406 28.023438 L 15.316406 31.199219 L 12.140625 31.199219 Z M 12.140625 28.023438 "/>
<path style=" stroke:none;fill-rule:nonzero;fill:rgb(100%,100%,100%);fill-opacity:1;" d="M 37.5625 14.519531 C 38 14.519531 38.355469 14.164062 38.355469 13.726562 C 38.355469 13.289062 38 12.933594 37.5625 12.933594 C 37.121094 12.933594 36.765625 13.289062 36.765625 13.726562 C 36.765625 14.164062 37.121094 14.519531 37.5625 14.519531 Z M 37.5625 14.519531 "/>
<path style=" stroke:none;fill-rule:nonzero;fill:rgb(100%,100%,100%);fill-opacity:1;" d="M 37.5625 22.464844 C 38 22.464844 38.355469 22.109375 38.355469 21.671875 C 38.355469 21.234375 38 20.878906 37.5625 20.878906 C 37.121094 20.878906 36.765625 21.234375 36.765625 21.671875 C 36.765625 22.109375 37.121094 22.464844 37.5625 22.464844 Z M 37.5625 22.464844 "/>
<path style=" stroke:none;fill-rule:nonzero;fill:rgb(100%,100%,100%);fill-opacity:1;" d="M 37.5625 30.40625 C 38 30.40625 38.355469 30.050781 38.355469 29.609375 C 38.355469 29.171875 38 28.816406 37.5625 28.816406 C 37.121094 28.816406 36.765625 29.171875 36.765625 29.609375 C 36.765625 30.050781 37.121094 30.40625 37.5625 30.40625 Z M 37.5625 30.40625 "/>
<path style=" stroke:none;fill-rule:nonzero;fill:rgb(100%,100%,100%);fill-opacity:1;" d="M 37.5625 38.347656 C 38 38.347656 38.355469 37.992188 38.355469 37.554688 C 38.355469 37.117188 38 36.761719 37.5625 36.761719 C 37.121094 36.761719 36.765625 37.117188 36.765625 37.554688 C 36.765625 37.992188 37.121094 38.347656 37.5625 38.347656 Z M 37.5625 38.347656 "/>
<path style=" stroke:none;fill-rule:nonzero;fill:rgb(100%,100%,100%);fill-opacity:1;" d="M 29.617188 22.464844 C 30.054688 22.464844 30.410156 22.109375 30.410156 21.671875 C 30.410156 21.234375 30.054688 20.878906 29.617188 20.878906 C 29.179688 20.878906 28.824219 21.234375 28.824219 21.671875 C 28.824219 22.109375 29.179688 22.464844 29.617188 22.464844 Z M 29.617188 22.464844 "/>
<path style=" stroke:none;fill-rule:nonzero;fill:rgb(100%,100%,100%);fill-opacity:1;" d="M 29.617188 30.40625 C 30.054688 30.40625 30.410156 30.050781 30.410156 29.609375 C 30.410156 29.171875 30.054688 28.816406 29.617188 28.816406 C 29.179688 28.816406 28.824219 29.171875 28.824219 29.609375 C 28.824219 30.050781 29.179688 30.40625 29.617188 30.40625 Z M 29.617188 30.40625 "/>
<path style=" stroke:none;fill-rule:nonzero;fill:rgb(100%,100%,100%);fill-opacity:1;" d="M 29.617188 38.347656 C 30.054688 38.347656 30.410156 37.992188 30.410156 37.554688 C 30.410156 37.117188 30.054688 36.761719 29.617188 36.761719 C 29.179688 36.761719 28.824219 37.117188 28.824219 37.554688 C 28.824219 37.992188 29.179688 38.347656 29.617188 38.347656 Z M 29.617188 38.347656 "/>
<path style=" stroke:none;fill-rule:nonzero;fill:rgb(100%,100%,100%);fill-opacity:1;" d="M 21.671875 30.40625 C 22.109375 30.40625 22.464844 30.050781 22.464844 29.609375 C 22.464844 29.171875 22.109375 28.816406 21.671875 28.816406 C 21.234375 28.816406 20.878906 29.171875 20.878906 29.609375 C 20.878906 30.050781 21.234375 30.40625 21.671875 30.40625 Z M 21.671875 30.40625 "/>
<path style=" stroke:none;fill-rule:nonzero;fill:rgb(100%,100%,100%);fill-opacity:1;" d="M 21.671875 38.347656 C 22.109375 38.347656 22.464844 37.992188 22.464844 37.554688 C 22.464844 37.117188 22.109375 36.761719 21.671875 36.761719 C 21.234375 36.761719 20.878906 37.117188 20.878906 37.554688 C 20.878906 37.992188 21.234375 38.347656 21.671875 38.347656 Z M 21.671875 38.347656 "/>
<path style=" stroke:none;fill-rule:nonzero;fill:rgb(100%,100%,100%);fill-opacity:1;" d="M 13.726562 38.347656 C 14.164062 38.347656 14.519531 37.992188 14.519531 37.554688 C 14.519531 37.117188 14.164062 36.761719 13.726562 36.761719 C 13.289062 36.761719 12.933594 37.117188 12.933594 37.554688 C 12.933594 37.992188 13.289062 38.347656 13.726562 38.347656 Z M 13.726562 38.347656 "/>
</g>
</svg>
