<svg width="50" height="50" viewBox="0 0 50 50" fill="none" xmlns="http://www.w3.org/2000/svg">
<g clip-path="url(#clip0_532_278)">
<path d="M25 50C38.8071 50 50 38.8071 50 25C50 11.1929 38.8071 0 25 0C11.1929 0 0 11.1929 0 25C0 38.8071 11.1929 50 25 50Z" fill="black"/>
<path d="M25.321 12.1172C18.231 12.1172 12.4844 17.8639 12.4844 24.9539V37.3839C12.4844 37.6605 12.7077 37.8872 12.9877 37.8872H14.9177C15.1944 37.8872 15.421 37.6639 15.421 37.3839V24.9539C15.421 19.4839 19.8544 15.0505 25.3244 15.0505H34.591V25.0505C34.591 30.5205 30.1577 34.9539 24.6877 34.9539H21.021V27.4305H30.8944C31.171 27.4305 31.3944 27.2072 31.3944 26.9305V25.0005C31.3944 24.7239 31.171 24.5005 30.8944 24.5005H21.2544C21.9244 22.3205 23.9577 20.7305 26.3544 20.7305H31.1677C31.4444 20.7305 31.6677 20.5072 31.6677 20.2305V18.3005C31.6677 18.0239 31.4444 17.8005 31.1677 17.8005H26.3544C21.7877 17.8005 18.0877 21.5005 18.0877 26.0672V36.8872C18.0877 37.4405 18.5377 37.8905 19.091 37.8905H24.6877C31.7777 37.8905 37.5244 32.1439 37.5244 25.0539V13.1239C37.5244 12.5705 37.0744 12.1205 36.521 12.1205H25.3244L25.321 12.1172Z" fill="white"/>
</g>
<defs>
<clipPath id="clip0_532_278">
<rect width="50" height="50" fill="white"/>
</clipPath>
</defs>
</svg>
