<?xml version="1.0" encoding="UTF-8"?>
<svg xmlns="http://www.w3.org/2000/svg" xmlns:xlink="http://www.w3.org/1999/xlink" width="50px" height="50px" viewBox="0 0 50 50" version="1.1">
<g id="surface1">
<path style=" stroke:none;fill-rule:nonzero;fill:rgb(0%,0%,0%);fill-opacity:1;" d="M 25 50 C 38.808594 50 50 38.808594 50 25 C 50 11.191406 38.808594 0 25 0 C 11.191406 0 0 11.191406 0 25 C 0 38.808594 11.191406 50 25 50 Z M 25 50 "/>
<path style=" stroke:none;fill-rule:nonzero;fill:rgb(100%,100%,100%);fill-opacity:1;" d="M 25.320312 12.117188 C 18.230469 12.117188 12.484375 17.863281 12.484375 24.953125 L 12.484375 37.382812 C 12.484375 37.660156 12.707031 37.886719 12.988281 37.886719 L 14.917969 37.886719 C 15.195312 37.886719 15.421875 37.664062 15.421875 37.382812 L 15.421875 24.953125 C 15.421875 19.484375 19.855469 15.050781 25.324219 15.050781 L 34.589844 15.050781 L 34.589844 25.050781 C 34.589844 30.519531 30.15625 34.953125 24.6875 34.953125 L 21.019531 34.953125 L 21.019531 27.429688 L 30.894531 27.429688 C 31.171875 27.429688 31.394531 27.207031 31.394531 26.929688 L 31.394531 25 C 31.394531 24.722656 31.171875 24.5 30.894531 24.5 L 21.253906 24.5 C 21.925781 22.320312 23.957031 20.730469 26.355469 20.730469 L 31.167969 20.730469 C 31.445312 20.730469 31.667969 20.507812 31.667969 20.230469 L 31.667969 18.300781 C 31.667969 18.023438 31.445312 17.800781 31.167969 17.800781 L 26.355469 17.800781 C 21.789062 17.800781 18.085938 21.5 18.085938 26.066406 L 18.085938 36.886719 C 18.085938 37.441406 18.539062 37.890625 19.089844 37.890625 L 24.6875 37.890625 C 31.777344 37.890625 37.523438 32.144531 37.523438 25.054688 L 37.523438 13.125 C 37.523438 12.570312 37.074219 12.121094 36.519531 12.121094 L 25.324219 12.121094 Z M 25.320312 12.117188 "/>
</g>
</svg>
