<?xml version="1.0" encoding="UTF-8"?>
<svg xmlns="http://www.w3.org/2000/svg" xmlns:xlink="http://www.w3.org/1999/xlink" width="50px" height="50px" viewBox="0 0 50 50" version="1.1">
<g id="surface1">
<path style=" stroke:none;fill-rule:nonzero;fill:rgb(11.372549%,11.372549%,10.588235%);fill-opacity:1;" d="M 24.886719 35.601562 L 23.847656 35.007812 L 23.847656 24.589844 L 29.089844 21.597656 L 24.886719 19.1875 L 19.679688 22.167969 L 19.679688 37.429688 L 24.886719 40.394531 L 38.289062 32.75 L 34.21875 30.273438 Z M 24.886719 35.601562 "/>
<path style=" stroke:none;fill-rule:nonzero;fill:rgb(11.372549%,11.372549%,10.588235%);fill-opacity:1;" d="M 24.886719 0 L 3 12.488281 L 3 37.511719 L 7.167969 39.878906 L 7.167969 14.914062 L 24.886719 4.792969 L 32.867188 9.363281 L 33.773438 5.074219 Z M 24.886719 0 "/>
<path style=" stroke:none;fill-rule:nonzero;fill:rgb(11.372549%,11.372549%,10.588235%);fill-opacity:1;" d="M 42.605469 14.9375 L 42.605469 35.085938 L 24.886719 45.207031 L 15.496094 39.839844 L 15.496094 19.757812 L 24.886719 14.398438 L 34.273438 19.742188 L 38.4375 17.375 L 38.4375 17.335938 L 24.886719 9.605469 L 11.332031 17.335938 L 11.332031 42.261719 L 24.886719 50 L 46.769531 37.507812 L 46.769531 12.527344 Z M 42.605469 14.9375 "/>
</g>
</svg>
