<svg width="50" height="50" viewBox="0 0 50 50" fill="none" xmlns="http://www.w3.org/2000/svg">
<path d="M24.8853 35.6027L23.8458 35.0086V24.5897L29.0904 21.5961L24.8853 19.1887L19.6797 22.1667V37.4316L24.8853 40.394L38.29 32.7498L34.2178 30.272L24.8853 35.6027Z" fill="#1D1D1B"/>
<path d="M24.8853 0L3 12.4902V37.5098L7.16602 39.8781V14.9132L24.8853 4.79131L32.8656 9.36376L33.7722 5.07269L24.8853 0Z" fill="#1D1D1B"/>
<path d="M42.6044 14.9366V35.0867L24.8852 45.2086L15.498 39.8389V19.7592L24.8852 14.3973L34.2724 19.7435L38.4384 17.3752V17.3361L24.8852 9.60596L11.332 17.3361V42.2619L24.8852 49.9999L46.7705 37.5097V12.5292L42.6044 14.9366Z" fill="#1D1D1B"/>
</svg>
