<svg width="50" height="50" viewBox="0 0 50 50" fill="none" xmlns="http://www.w3.org/2000/svg">
<g clip-path="url(#clip0_30_42)">
<circle cx="25" cy="25" r="25" fill="#00F58B"/>
<path d="M14.2168 12H32.0596L20.2396 24.2587C19.9456 24.5621 19.548 24.7336 19.1319 24.7336C18.836 24.7336 18.5457 24.645 18.2961 24.4811C18.0446 24.3171 17.8449 24.0816 17.7173 23.8045L13.1387 13.7639C13.0518 13.5754 13.0148 13.3682 13.0259 13.1609C13.0388 12.9517 13.1017 12.7519 13.209 12.5748C13.3162 12.3995 13.466 12.2544 13.6417 12.1545C13.8173 12.0528 14.0152 12 14.2168 12ZM13 40V28.073C13 27.7677 13.1183 27.4756 13.3255 27.2589C13.5344 27.0421 13.8173 26.9215 14.1114 26.9215H25.6115L13 40ZM28.5443 23.8818C28.0173 24.4264 27.3053 24.7317 26.5619 24.7336H22.7545L34.212 12.8518C34.4709 12.5823 34.7797 12.3694 35.12 12.2224C35.4602 12.0754 35.8245 12 36.1944 12H40L28.5443 23.8818Z" fill="black"/>
</g>
<defs>
<clipPath id="clip0_30_42">
<rect width="50" height="50" fill="white"/>
</clipPath>
</defs>
</svg>
