<?xml version="1.0" standalone="no"?>
<!DOCTYPE svg PUBLIC "-//W3C//DTD SVG 20010904//EN"
 "http://www.w3.org/TR/2001/REC-SVG-20010904/DTD/svg10.dtd">
<svg version="1.0" xmlns="http://www.w3.org/2000/svg"
 width="400.000000pt" height="400.000000pt" viewBox="0 0 400.000000 400.000000"
 preserveAspectRatio="xMidYMid meet">

<g transform="translate(0.000000,400.000000) scale(0.100000,-0.100000)"
fill="#000000" stroke="none">
<path d="M1083 2970 c-24 -10 -63 -65 -63 -88 0 -13 56 -137 185 -407 32 -66
74 -156 95 -200 107 -228 119 -250 148 -267 34 -20 93 -23 125 -7 25 12 977
960 977 971 0 11 -1440 9 -1467 -2z"/>
<path d="M2830 2971 c-14 -5 -39 -15 -55 -24 -17 -9 -241 -227 -500 -486
l-470 -471 180 0 c159 0 185 3 225 21 33 15 163 138 512 487 257 256 468 470
468 474 0 10 -327 9 -360 -1z"/>
<path d="M1049 1791 l-29 -29 0 -476 c0 -262 3 -476 8 -476 9 0 1002 993 1002
1003 0 4 -214 7 -476 7 l-476 0 -29 -29z"/>
</g>
</svg>
