<?xml version="1.0" encoding="UTF-8"?>
<svg xmlns="http://www.w3.org/2000/svg" xmlns:xlink="http://www.w3.org/1999/xlink" width="50px" height="50px" viewBox="0 0 50 50" version="1.1">
<g id="surface1">
<path style=" stroke:none;fill-rule:nonzero;fill:rgb(0%,0%,0%);fill-opacity:1;" d="M 25 50.050781 C 38.835938 50.050781 50.050781 38.835938 50.050781 25 C 50.050781 11.164062 38.835938 -0.0507812 25 -0.0507812 C 11.164062 -0.0507812 -0.0507812 11.164062 -0.0507812 25 C -0.0507812 38.835938 11.164062 50.050781 25 50.050781 Z M 25 50.050781 "/>
<path style=" stroke:none;fill-rule:nonzero;fill:rgb(91.764706%,94.509804%,26.27451%);fill-opacity:1;" d="M 35.195312 36.058594 C 36.785156 34.957031 37.734375 33.144531 37.730469 31.207031 C 37.730469 32.488281 36.085938 33.007812 35.34375 31.988281 C 34.964844 31.492188 35.109375 30.796875 35.136719 30.21875 C 35.234375 29.078125 35.566406 28.039062 35.976562 27.007812 C 36.597656 25.070312 36.222656 22.804688 35.011719 21.183594 C 35.5 23.074219 33.8125 24.867188 31.90625 24.585938 C 29.035156 24.335938 27.222656 21.230469 28.378906 18.617188 C 28.484375 18.371094 28.613281 18.132812 28.761719 17.910156 C 29.980469 16.019531 30.167969 13.347656 29.210938 11.285156 C 28.894531 10.574219 28.460938 9.917969 27.933594 9.347656 C 26.914062 8.214844 26.355469 6.574219 26.539062 4.972656 C 25.53125 6.617188 25.429688 8.941406 26.289062 10.667969 C 26.507812 11.058594 26.664062 11.484375 26.757812 11.921875 C 27.03125 13.140625 26.71875 14.515625 26.007812 15.480469 C 24.277344 17.976562 20.378906 16.378906 20.941406 13.363281 C 20.054688 14.566406 19.84375 16.363281 20.460938 17.769531 C 20.578125 18.058594 20.765625 18.320312 20.882812 18.609375 C 21.296875 19.535156 21.464844 20.550781 21.371094 21.5625 C 21.34375 21.886719 21.285156 22.203125 21.203125 22.515625 C 21.195312 22.546875 21.1875 22.578125 21.179688 22.609375 C 21.171875 22.609375 21.164062 22.613281 21.15625 22.617188 C 20.132812 24.761719 16.9375 24.378906 16.472656 22.019531 C 16.128906 20.195312 14.695312 18.773438 12.871094 18.433594 C 14.085938 19.171875 14.761719 20.789062 14.367188 22.222656 C 14.078125 23.382812 13.929688 24.574219 13.929688 25.773438 C 13.929688 26.199219 13.949219 26.617188 13.988281 27.039062 C 14.085938 28.203125 14.328125 29.351562 14.703125 30.460938 C 14.953125 30.988281 14.96875 31.660156 14.542969 32.089844 C 14.09375 32.597656 13.253906 32.65625 12.742188 32.214844 C 12.613281 32.105469 12.507812 31.976562 12.425781 31.828125 C 12.394531 31.773438 12.371094 31.714844 12.347656 31.652344 C 12.292969 31.507812 12.265625 31.355469 12.269531 31.203125 C 12.265625 33.148438 13.21875 34.96875 14.816406 36.074219 C 15.089844 36.28125 15.171875 36.652344 15.011719 36.957031 C 14.402344 38.066406 15.011719 39.570312 16.175781 39.96875 C 17.507812 38.257812 20.296875 38.90625 20.738281 41.035156 L 20.738281 41.046875 C 20.828125 41.597656 21.222656 42.050781 21.753906 42.21875 L 21.761719 42.21875 C 22.164062 41.257812 23.601562 41.582031 23.546875 42.625 C 23.703125 42.644531 23.859375 42.664062 24.019531 42.675781 C 23.9375 41.304688 25.945312 41.304688 25.867188 42.675781 C 26.078125 42.65625 26.289062 42.632812 26.496094 42.601562 C 26.460938 41.601562 27.84375 41.269531 28.265625 42.175781 L 28.269531 42.175781 C 28.695312 42.03125 29.023438 41.691406 29.152344 41.265625 C 29.261719 40.914062 29.328125 40.542969 29.527344 40.242188 C 30.417969 38.703125 32.710938 38.550781 33.785156 39.976562 C 34.90625 39.574219 35.492188 38.335938 35.089844 37.210938 C 35.050781 37.109375 35.007812 37.007812 34.953125 36.914062 C 34.820312 36.609375 34.921875 36.25 35.195312 36.058594 Z M 15.386719 36.433594 C 15.386719 36.425781 15.382812 36.421875 15.378906 36.414062 C 15.386719 36.414062 15.390625 36.417969 15.398438 36.421875 C 15.394531 36.425781 15.390625 36.429688 15.386719 36.433594 Z M 20.46875 35.742188 C 16.1875 35.742188 18.289062 31.003906 15.730469 31.003906 C 16.332031 30.570312 18.027344 30.621094 18.984375 31.746094 C 19.945312 32.871094 24.320312 35.695312 24.320312 33.300781 C 24.320312 33.300781 24.753906 35.742188 20.46875 35.742188 Z M 25.53125 39.171875 C 25.53125 39.171875 25.355469 38.21875 24.941406 38.21875 C 24.523438 38.21875 24.347656 39.171875 24.347656 39.171875 C 24.347656 39.171875 23.488281 39.121094 23.488281 38.078125 C 23.488281 37.03125 24.480469 35.597656 24.480469 35.597656 C 24.519531 35.867188 24.699219 36.007812 24.941406 36.007812 C 25.179688 36.007812 25.359375 35.867188 25.398438 35.597656 C 25.398438 35.597656 26.386719 37.035156 26.386719 38.078125 C 26.386719 39.117188 25.53125 39.171875 25.53125 39.171875 Z M 29.527344 35.742188 C 25.242188 35.742188 25.671875 33.300781 25.671875 33.300781 C 25.671875 35.695312 30.050781 32.871094 31.011719 31.746094 C 31.96875 30.621094 33.667969 30.570312 34.265625 31.003906 C 31.703125 31.003906 33.808594 35.742188 29.527344 35.742188 Z M 29.527344 35.742188 "/>
</g>
</svg>
