<svg width="50" height="50" viewBox="0 0 50 50" fill="none" xmlns="http://www.w3.org/2000/svg">
<g clip-path="url(#clip0_923_2085)">
<path d="M25 50.049C38.8342 50.049 50.049 38.8342 50.049 25.0001C50.049 11.1659 38.8342 -0.0489502 25 -0.0489502C11.1658 -0.0489502 -0.0490112 11.1659 -0.0490112 25.0001C-0.0490112 38.8342 11.1658 50.049 25 50.049Z" fill="black"/>
<path d="M35.194 36.058C36.7865 34.9575 37.7355 33.1435 37.732 31.208C37.732 32.4875 36.0865 33.008 35.345 31.9885C34.964 31.4915 35.108 30.797 35.1385 30.217C35.234 29.078 35.567 28.041 35.976 27.0065C36.597 25.072 36.221 22.8065 35.012 21.184C35.4985 23.075 33.812 24.868 31.908 24.584C29.0365 24.334 27.224 21.2315 28.377 18.6185C28.4835 18.371 28.6125 18.134 28.7625 17.9105C29.982 16.019 30.1665 13.3495 29.2125 11.2865C28.8945 10.5745 28.462 9.91902 27.9325 9.34702C26.915 8.21452 26.356 6.57302 26.539 4.97302C25.53 6.61552 25.4295 8.94252 26.289 10.6675C26.507 11.0605 26.6655 11.4835 26.7595 11.923C27.0295 13.1425 26.7205 14.5165 26.007 15.48C24.2785 17.9775 20.38 16.3775 20.942 13.3615C20.0555 14.565 19.8445 16.3615 20.4595 17.77C20.577 18.0585 20.765 18.32 20.882 18.609C21.2975 19.535 21.466 20.5525 21.3705 21.563C21.343 21.8855 21.287 22.205 21.2025 22.5175C21.1965 22.5475 21.186 22.5785 21.1795 22.6085C21.172 22.61 21.165 22.613 21.158 22.616C20.133 24.761 16.938 24.3795 16.472 22.0195C16.127 20.196 14.697 18.772 12.872 18.4345C14.0855 19.173 14.7615 20.789 14.3675 22.223C14.0765 23.384 13.93 24.576 13.931 25.773C13.931 26.1995 13.948 26.6185 13.9865 27.039C14.086 28.204 14.3265 29.3525 14.7035 30.459C14.9535 30.9875 14.9685 31.659 14.543 32.09C14.093 32.5965 13.255 32.6565 12.743 32.2145C12.6145 32.1065 12.5075 31.975 12.427 31.8275C12.396 31.772 12.3695 31.7135 12.348 31.6535C12.2945 31.5095 12.2675 31.357 12.268 31.2035C12.264 33.1475 13.2175 34.9685 14.8175 36.073C15.0895 36.2805 15.1715 36.654 15.0115 36.9565C14.404 38.068 15.0115 39.569 16.1775 39.9695C17.508 38.2585 20.297 38.907 20.737 41.035V41.0465C20.8275 41.5985 21.221 42.0525 21.7545 42.22H21.761C22.1645 41.257 23.6 41.5805 23.548 42.624C23.7035 42.644 23.861 42.6625 24.0195 42.674C23.939 41.304 25.9465 41.3035 25.8655 42.674C26.078 42.657 26.2895 42.631 26.4975 42.6C26.462 41.6 27.843 41.27 28.266 42.1745H28.271C28.694 42.03 29.0225 41.6915 29.154 41.2645C29.2615 40.9145 29.3295 40.544 29.529 40.2425C30.4165 38.702 32.71 38.5525 33.7845 39.977C34.908 39.5735 35.492 38.335 35.088 37.2115C35.051 37.109 35.0065 37.0095 34.955 36.9135C34.8205 36.608 34.9205 36.2495 35.194 36.058ZM15.388 36.433C15.385 36.427 15.3825 36.421 15.3805 36.4145C15.3865 36.416 15.392 36.4185 15.397 36.422C15.3935 36.425 15.3905 36.429 15.388 36.433ZM20.4695 35.7425C16.186 35.7425 18.2905 31.004 15.731 31.004C16.331 30.572 18.0285 30.62 18.986 31.7455C19.9435 32.871 24.321 35.6955 24.321 33.3015C24.321 33.3015 24.753 35.7425 20.4695 35.7425ZM25.53 39.17C25.53 39.17 25.3555 38.22 24.9395 38.22C24.5235 38.22 24.349 39.17 24.349 39.17C24.349 39.17 23.49 39.12 23.49 38.0765C23.49 37.033 24.48 35.596 24.48 35.596C24.52 35.8655 24.699 36.006 24.9395 36.006C25.18 36.006 25.359 35.8655 25.3975 35.596C25.3975 35.596 26.387 37.036 26.387 38.0765C26.387 39.117 25.53 39.17 25.53 39.17ZM29.5265 35.7425C25.243 35.7425 25.6735 33.3015 25.6735 33.3015C25.6735 35.6945 30.0525 32.8695 31.01 31.7455C31.9675 30.6215 33.6665 30.572 34.265 31.004C31.704 31.004 33.81 35.7425 29.5265 35.7425Z" fill="#EAF143"/>
</g>
<defs>
<clipPath id="clip0_923_2085">
<rect width="50" height="50" fill="white"/>
</clipPath>
</defs>
</svg>
