<?xml version="1.0" encoding="UTF-8"?>
<svg xmlns="http://www.w3.org/2000/svg" xmlns:xlink="http://www.w3.org/1999/xlink" width="50px" height="50px" viewBox="0 0 50 50" version="1.1">
<g id="surface1">
<path style=" stroke:none;fill-rule:nonzero;fill:rgb(100%,100%,100%);fill-opacity:1;" d="M 36.421875 12.238281 L 13.535156 12.238281 L 13.535156 37.175781 L 36.421875 37.175781 Z M 36.421875 12.238281 "/>
<path style=" stroke:none;fill-rule:nonzero;fill:rgb(0%,0%,0%);fill-opacity:1;" d="M 23.097656 46.96875 C 14.074219 46.089844 6.703125 39.945312 4.175781 31.195312 C 3.074219 27.375 3.074219 22.949219 4.175781 19.128906 C 6.027344 12.71875 10.535156 7.585938 16.589844 4.996094 C 21.078125 3.078125 26.289062 2.773438 30.960938 4.164062 C 38.042969 6.265625 43.578125 11.902344 45.664062 19.128906 C 46.765625 22.949219 46.765625 27.375 45.664062 31.195312 C 43.320312 39.324219 36.675781 45.332031 28.496094 46.71875 C 26.910156 46.988281 24.46875 47.101562 23.097656 46.96875 Z M 26.289062 35.238281 L 26.289062 33.304688 L 18.429688 33.304688 L 18.429688 13.265625 L 13.535156 13.265625 L 13.535156 37.175781 L 26.289062 37.175781 Z M 36.421875 24.707031 L 36.421875 12.238281 L 28.109375 12.238281 L 28.109375 16.679688 L 31.410156 16.679688 L 31.410156 37.175781 L 36.421875 37.175781 Z M 36.421875 24.707031 "/>
</g>
</svg>
