<svg width="50" height="50" viewBox="0 0 50 50" fill="none" xmlns="http://www.w3.org/2000/svg">
<path d="M36.4204 12.2397H13.5355V37.174H36.4204V12.2397Z" fill="white"/>
<path d="M23.0993 46.9684C14.0743 46.0893 6.70184 39.9442 4.17739 31.1966C3.07499 27.3766 3.07499 22.9479 4.17739 19.1279C6.02746 12.7171 10.5333 7.58752 16.5896 4.99741C21.0791 3.07736 26.2885 2.77507 30.9618 4.1634C38.044 6.26738 43.579 11.9008 45.6646 19.1279C46.767 22.9479 46.767 27.3766 45.6646 31.1966C43.319 39.3245 36.6745 45.333 28.4975 46.7204C26.9087 46.9899 24.4707 47.1019 23.0993 46.9684ZM26.2873 35.2384V33.3029H22.3593H18.4313V23.2836V13.2644H15.9834H13.5355V25.2192V37.1739H19.9114H26.2873V35.2384ZM36.4203 24.7068V12.2397H32.2646H28.1089V14.4599V16.6801H29.7598H31.4107V26.927V37.1739H33.9155H36.4203V24.7068Z" fill="black"/>
</svg>
