<?xml version="1.0" encoding="UTF-8"?>
<svg xmlns="http://www.w3.org/2000/svg" xmlns:xlink="http://www.w3.org/1999/xlink" width="50px" height="50px" viewBox="0 0 50 50" version="1.1">
<defs>
<linearGradient id="linear0" gradientUnits="userSpaceOnUse" x1="27.8409" y1="0.0000000302103" x2="27.8409" y2="50" >
<stop offset="0" style="stop-color:rgb(100%,100%,100%);stop-opacity:1;"/>
<stop offset="1" style="stop-color:rgb(88.235294%,81.960784%,86.666667%);stop-opacity:1;"/>
</linearGradient>
<linearGradient id="linear1" gradientUnits="userSpaceOnUse" x1="24.814" y1="4.92432" x2="24.814" y2="45.3118" >
<stop offset="0" style="stop-color:rgb(5.490196%,6.666667%,17.254902%);stop-opacity:1;"/>
<stop offset="1" style="stop-color:rgb(27.45098%,9.411765%,27.843137%);stop-opacity:1;"/>
</linearGradient>
</defs>
<g id="surface1">
<path style=" stroke:none;fill-rule:nonzero;fill:url(#linear0);" d="M 50 25 C 50 11.191406 38.808594 0 25 0 C 11.191406 0 0 11.191406 0 25 C 0 38.808594 11.191406 50 25 50 C 38.808594 50 50 38.808594 50 25 Z M 50 25 "/>
<path style=" stroke:none;fill-rule:evenodd;fill:url(#linear1);" d="M 22.464844 4.925781 L 27.140625 4.925781 L 27.140625 8.867188 C 31.703125 9.941406 35.097656 14.03125 35.097656 18.90625 C 35.097656 24.605469 30.464844 29.226562 24.746094 29.226562 C 19.027344 29.226562 14.394531 24.605469 14.394531 18.90625 C 14.394531 13.992188 17.84375 9.875 22.464844 8.839844 Z M 30.621094 18.90625 C 30.621094 22.140625 27.992188 24.765625 24.746094 24.765625 C 21.5 24.765625 18.871094 22.140625 18.871094 18.90625 C 18.871094 15.671875 21.5 13.050781 24.746094 13.050781 C 27.992188 13.050781 30.621094 15.671875 30.621094 18.90625 Z M 29.261719 35.667969 C 28.09375 36.832031 26.511719 37.484375 24.859375 37.484375 C 23.207031 37.484375 21.625 36.832031 20.457031 35.667969 C 19.289062 34.503906 18.632812 32.925781 18.632812 31.28125 L 14.484375 31.28125 C 14.484375 34.023438 15.578125 36.652344 17.523438 38.59375 C 18.894531 39.957031 20.609375 40.902344 22.464844 41.339844 L 22.464844 45.3125 L 27.140625 45.3125 L 27.140625 41.367188 C 29.039062 40.941406 30.796875 39.988281 32.195312 38.59375 C 34.140625 36.652344 35.234375 34.023438 35.234375 31.28125 L 31.085938 31.28125 C 31.085938 32.925781 30.429688 34.503906 29.261719 35.667969 Z M 29.261719 35.667969 "/>
</g>
</svg>
