<svg width="50" height="50" viewBox="0 0 50 50" fill="none" xmlns="http://www.w3.org/2000/svg">
<g clip-path="url(#clip0_923_2113)">
<mask id="mask0_923_2113" style="mask-type:luminance" maskUnits="userSpaceOnUse" x="0" y="0" width="50" height="50">
<path d="M25 50C38.8071 50 50 38.8071 50 25C50 11.1929 38.8071 0 25 0C11.1929 0 0 11.1929 0 25C0 38.8071 11.1929 50 25 50Z" fill="white"/>
</mask>
<g mask="url(#mask0_923_2113)">
<mask id="mask1_923_2113" style="mask-type:luminance" maskUnits="userSpaceOnUse" x="0" y="0" width="50" height="50">
<path d="M50 0H0V50H50V0Z" fill="white"/>
</mask>
<g mask="url(#mask1_923_2113)">
<path d="M50.924 -0.922974H-0.923035V50.924H50.924V-0.922974Z" fill="url(#paint0_linear_923_2113)"/>
<path d="M24.981 45.0681C20.207 45.0681 15.585 43.3371 11.967 40.1951C8.314 37.0221 5.949 32.6321 5.307 27.8321C4.604 22.5721 5.991 17.3531 9.213 13.1361C12.435 8.91908 17.106 6.21008 22.366 5.50708C23.244 5.39008 24.136 5.33008 25.017 5.33008C29.791 5.33008 34.413 7.06108 38.031 10.2031C41.684 13.3761 44.049 17.7661 44.691 22.5661C45.394 27.8261 44.007 33.0451 40.785 37.2621C37.563 41.4791 32.892 44.1881 27.632 44.8911C26.754 45.0081 25.862 45.0681 24.981 45.0681Z" fill="url(#paint1_linear_923_2113)"/>
<path d="M25 40.066C33.2108 40.066 39.867 33.4099 39.867 25.199C39.867 16.9882 33.2108 10.332 25 10.332C16.7892 10.332 10.133 16.9882 10.133 25.199C10.133 33.4099 16.7892 40.066 25 40.066Z" fill="url(#paint2_linear_923_2113)"/>
<path d="M30.217 13.3921C31.3536 13.3921 32.275 12.4707 32.275 11.3341C32.275 10.1975 31.3536 9.27612 30.217 9.27612C29.0804 9.27612 28.159 10.1975 28.159 11.3341C28.159 12.4707 29.0804 13.3921 30.217 13.3921Z" fill="white"/>
<path d="M39.274 30.9881C40.0516 30.9881 40.682 30.3577 40.682 29.5801C40.682 28.8025 40.0516 28.1721 39.274 28.1721C38.4963 28.1721 37.866 28.8025 37.866 29.5801C37.866 30.3577 38.4963 30.9881 39.274 30.9881Z" fill="white"/>
<path d="M14.431 17.6441C16.0713 17.6441 17.401 16.3144 17.401 14.6741C17.401 13.0338 16.0713 11.7041 14.431 11.7041C12.7907 11.7041 11.461 13.0338 11.461 14.6741C11.461 16.3144 12.7907 17.6441 14.431 17.6441Z" fill="#77DAFF"/>
<path d="M25.097 34.7711C30.3835 34.7711 34.669 30.4855 34.669 25.1991C34.669 19.9126 30.3835 15.6271 25.097 15.6271C19.8106 15.6271 15.525 19.9126 15.525 25.1991C15.525 30.4855 19.8106 34.7711 25.097 34.7711Z" fill="white"/>
<path d="M27.491 15.9281C22.297 16.0351 18.119 20.2781 18.119 25.4981C18.119 29.9581 21.169 33.7051 25.297 34.7681C30.491 34.6611 34.669 30.4181 34.669 25.1981C34.669 20.7381 31.619 16.9911 27.491 15.9281Z" fill="url(#paint3_linear_923_2113)"/>
<mask id="mask2_923_2113" style="mask-type:luminance" maskUnits="userSpaceOnUse" x="10" y="16" width="30" height="18">
<path d="M15.525 25.1991C15.525 26.5211 15.793 27.7801 16.277 28.9251L33.885 21.3991C33.377 20.2261 32.641 19.1751 31.734 18.3011L39.172 16.7621L39.969 21.1721L35.56 26.5951L18.22 33.8201L10.307 33.6821L11.018 28.5211L15.525 25.1981V25.1991Z" fill="white"/>
</mask>
<g mask="url(#mask2_923_2113)">
<path d="M15.071 33.4341C13.673 33.4341 11.573 33.3901 11.071 32.3141C10.329 30.7241 12.764 28.5611 14.269 27.2641C16.327 25.4901 19.496 23.5821 23.433 21.7461C27.37 19.9101 30.868 18.7091 33.55 18.2731C35.511 17.9541 38.55 17.6471 39.292 19.2371C40.034 20.8271 37.849 22.9681 36.344 24.2651C34.286 26.0391 31.117 27.9471 27.18 29.7831C23.243 31.6191 19.745 32.8201 17.063 33.2561C16.429 33.3591 15.739 33.4341 15.07 33.4341H15.071ZM34.164 20.2961C33.736 20.2961 33.22 20.3391 32.607 20.4391C30.395 20.7991 27.481 21.8031 24.177 23.3441C20.874 24.8841 18.231 26.4721 16.534 27.9341C14.923 29.3231 14.558 30.2661 14.754 30.6861C14.95 31.1061 15.907 31.4331 18.007 31.0921C20.219 30.7321 23.133 29.7281 26.437 28.1871C29.74 26.6471 32.383 25.0591 34.08 23.5971C35.691 22.2081 36.056 21.2651 35.86 20.8451C35.721 20.5481 35.201 20.2971 34.164 20.2971V20.2961Z" fill="white"/>
</g>
<path d="M28.641 3.65404C28.755 3.85204 23.287 7.22304 23.089 7.33704C22.891 7.45104 22.638 7.38304 22.524 7.18604C22.41 6.98804 22.478 6.73504 22.675 6.62104C22.872 6.50704 28.526 3.45704 28.64 3.65404H28.641Z" fill="white"/>
<path d="M-1.67902 30.65C-1.67902 30.65 3.55698 30.632 10.033 34.651C16.031 38.373 20.769 40.863 28.668 39.484C36.33 38.146 48.268 41.364 51.951 43.567V59.564H-1.67902V30.65Z" fill="white"/>
<path d="M-2.16101 63.193H51.458V43.81C47.394 41.621 35.97 38.647 28.554 39.942C28.336 39.98 28.121 40.015 27.908 40.047C27.884 40.054 27.86 40.06 27.836 40.067C20.144 42.334 15.154 40.397 8.77299 37.38C3.82199 35.039 -0.257011 34.696 -2.16001 34.688V63.192L-2.16101 63.193Z" fill="url(#paint4_linear_923_2113)"/>
<path d="M51.606 34.578C51.606 34.578 40.942 32.5 30.16 38.762C20.531 44.354 13.171 49.645 -9.23602 48.324V58.096H51.606V34.578Z" fill="white"/>
<path d="M51.606 34.5781C51.606 34.5781 51.377 34.5341 50.954 34.4771C47.703 34.4591 39.351 35.0341 31.404 40.7061C22.341 47.1751 15.508 53.1321 -6.92401 53.9141V58.0961H51.606V34.5781Z" fill="url(#paint5_linear_923_2113)"/>
<path d="M18.168 7.32405C18.5413 7.32405 18.844 7.02139 18.844 6.64805C18.844 6.2747 18.5413 5.97205 18.168 5.97205C17.7947 5.97205 17.492 6.2747 17.492 6.64805C17.492 7.02139 17.7947 7.32405 18.168 7.32405Z" fill="white"/>
<path d="M10.159 25.972C10.5323 25.972 10.835 25.6693 10.835 25.296C10.835 24.9227 10.5323 24.62 10.159 24.62C9.78563 24.62 9.48297 24.9227 9.48297 25.296C9.48297 25.6693 9.78563 25.972 10.159 25.972Z" fill="white"/>
<path d="M42.313 23.536C42.4754 23.536 42.607 23.4044 42.607 23.242C42.607 23.0796 42.4754 22.948 42.313 22.948C42.1506 22.948 42.019 23.0796 42.019 23.242C42.019 23.4044 42.1506 23.536 42.313 23.536Z" fill="white"/>
<path d="M8.39398 20.9341C8.55635 20.9341 8.68798 20.8024 8.68798 20.6401C8.68798 20.4777 8.55635 20.3461 8.39398 20.3461C8.2316 20.3461 8.09998 20.4777 8.09998 20.6401C8.09998 20.8024 8.2316 20.9341 8.39398 20.9341Z" fill="white"/>
<path d="M42.992 10.198C43.106 10.396 37.638 13.767 37.44 13.881C37.242 13.995 36.989 13.927 36.875 13.73C36.761 13.532 36.829 13.279 37.026 13.165C37.224 13.051 42.877 10.001 42.991 10.198H42.992Z" fill="white"/>
</g>
</g>
</g>
<defs>
<linearGradient id="paint0_linear_923_2113" x1="2.74197" y1="12.259" x2="45.692" y2="36.844" gradientUnits="userSpaceOnUse">
<stop stop-color="#420082"/>
<stop offset="1" stop-color="#643CFC"/>
</linearGradient>
<linearGradient id="paint1_linear_923_2113" x1="9.98772" y1="13.6449" x2="39.5209" y2="36.2156" gradientUnits="userSpaceOnUse">
<stop stop-color="#5B14CD"/>
<stop offset="1" stop-color="#5567FF"/>
</linearGradient>
<linearGradient id="paint2_linear_923_2113" x1="13.7798" y1="16.5422" x2="35.8793" y2="33.4333" gradientUnits="userSpaceOnUse">
<stop stop-color="#733CFF"/>
<stop offset="1" stop-color="#55A0FF"/>
</linearGradient>
<linearGradient id="paint3_linear_923_2113" x1="34.062" y1="21.2021" x2="19.695" y2="28.9721" gradientUnits="userSpaceOnUse">
<stop stop-color="#FFA9FF"/>
<stop offset="1" stop-color="#77DAFF"/>
</linearGradient>
<linearGradient id="paint4_linear_923_2113" x1="10.423" y1="38.191" x2="18.819" y2="47.228" gradientUnits="userSpaceOnUse">
<stop stop-color="#5B14CD"/>
<stop offset="1" stop-color="#5567FF"/>
</linearGradient>
<linearGradient id="paint5_linear_923_2113" x1="23.793" y1="46.8161" x2="39.312" y2="51.9441" gradientUnits="userSpaceOnUse">
<stop stop-color="#733CFF"/>
<stop offset="1" stop-color="#55A0FF"/>
</linearGradient>
<clipPath id="clip0_923_2113">
<rect width="50" height="50" fill="white"/>
</clipPath>
</defs>
</svg>
