<svg width="50" height="50" viewBox="0 0 50 50" fill="none" xmlns="http://www.w3.org/2000/svg">
<g clip-path="url(#clip0_532_321)">
<mask id="mask0_532_321" style="mask-type:luminance" maskUnits="userSpaceOnUse" x="0" y="0" width="50" height="50">
<path d="M50 0H0V50H50V0Z" fill="white"/>
</mask>
<g mask="url(#mask0_532_321)">
<path d="M25 50C38.8071 50 50 38.8071 50 25C50 11.1929 38.8071 0 25 0C11.1929 0 0 11.1929 0 25C0 38.8071 11.1929 50 25 50Z" fill="url(#paint0_linear_532_321)"/>
<path fill-rule="evenodd" clip-rule="evenodd" d="M24.3886 28.9016V24.4138H16.1406V26.4959H22.0436V28.1133C21.0125 29.7305 18.991 30.3773 16.5044 30.3773C12.4411 30.3773 9.95459 28.558 9.95459 25C9.95459 21.442 12.4007 19.6227 16.3831 19.6227C18.7485 19.6227 20.4061 20.31 21.6594 21.725L23.6406 20.31C22.2255 18.7937 19.84 17.5 16.363 17.5C10.8239 17.5 7.48828 20.3302 7.48828 25C7.48828 29.6698 10.8239 32.5 16.4035 32.5C20.2847 32.5 23.0947 30.9838 24.3886 28.9016ZM42.5136 28.9016V24.4138H34.2656V26.4959H40.1686V28.1133C39.1375 29.7305 37.116 30.3773 34.6294 30.3773C30.5661 30.3773 28.0795 28.558 28.0795 25C28.0795 21.442 30.5256 19.6227 34.5081 19.6227C36.8735 19.6227 38.5311 20.31 39.7844 21.725L41.7656 20.31C40.3505 18.7937 37.965 17.5 34.488 17.5C28.9489 17.5 25.6133 20.3302 25.6133 25C25.6133 29.6698 28.9489 32.5 34.5285 32.5C38.4097 32.5 41.2197 30.9838 42.5136 28.9016Z" fill="#0C0C0C"/>
</g>
</g>
<defs>
<linearGradient id="paint0_linear_532_321" x1="0" y1="0" x2="48.0436" y2="-1.81402" gradientUnits="userSpaceOnUse">
<stop stop-color="#D1E9CC"/>
<stop offset="1" stop-color="#03C5DC"/>
</linearGradient>
<clipPath id="clip0_532_321">
<rect width="50" height="50" fill="white"/>
</clipPath>
</defs>
</svg>
