<svg width="368" height="94" viewBox="0 0 368 94" fill="none" xmlns="http://www.w3.org/2000/svg">
<g clip-path="url(#clip0_497_259)">
<path d="M98.0905 60.4705V33.7822H103.902V44.39H115.729V33.7822H121.642V60.4705H115.779V49.2209H103.953V60.4705H98.0905Z" fill="white"/>
<path d="M131.441 60.4705V33.7822H152.829V38.5456H137.286V44.4237H151.038V49.1533H137.286V55.7409H153.066V60.4705H131.441Z" fill="white"/>
<path d="M162.003 60.4705V33.7822H167.832V55.5044H181.348V60.4705H162.003Z" fill="white"/>
<path d="M188.984 60.4705V33.7822H194.813V60.4705H188.984Z" fill="white"/>
<path d="M227.048 60.9439C224.584 61.0127 222.138 60.5097 219.901 59.4744C217.928 58.5119 216.338 56.9106 215.39 54.9306C214.273 52.4674 213.741 49.7791 213.836 47.0762C213.836 42.3973 215.002 38.9177 217.299 36.6374C218.615 35.4501 220.156 34.5392 221.831 33.9589C223.505 33.3786 225.279 33.1406 227.048 33.2591C229.161 33.2262 231.259 33.6228 233.214 34.4246C234.964 35.1468 236.463 36.3689 237.522 37.938C238.63 39.6996 239.184 41.7534 239.11 43.833H233.248C233.284 42.7309 233.021 41.6395 232.488 40.6744C231.986 39.8157 231.239 39.1273 230.342 38.6981C229.333 38.2263 228.229 37.995 227.115 38.0224C225.677 37.9645 224.251 38.3034 222.993 39.0021C221.902 39.6603 221.063 40.6655 220.611 41.8568C220.067 43.3375 219.809 44.908 219.85 46.485V47.7012C219.809 49.292 220.079 50.8757 220.645 52.3631C221.096 53.5499 221.927 54.5538 223.01 55.2178C224.164 55.7987 225.429 56.125 226.721 56.1746C228.012 56.2241 229.299 55.9957 230.494 55.5049C231.419 55.1016 232.198 54.4234 232.724 53.5624C233.264 52.599 233.532 51.5075 233.501 50.4038H239.127C239.202 52.4791 238.662 54.5302 237.573 56.2988C236.534 57.869 235.044 59.088 233.299 59.7953C231.312 60.5901 229.187 60.9806 227.048 60.9439Z" fill="white"/>
<path d="M247.575 60.4705V33.7822H253.42V44.39H265.247V33.7822H271.058V60.4705H265.247V49.2209H253.42V60.4705H247.575Z" fill="white"/>
<path d="M278.188 60.4705L288.494 33.7822H295.657L305.98 60.5549H299.712L297.786 55.2848H286.111L284.202 60.5549L278.188 60.4705ZM287.801 50.5215H296.113L293.731 43.917C293.63 43.6298 293.494 43.292 293.359 42.8866C293.224 42.4812 293.072 42.0252 292.903 41.5353C292.734 41.0455 292.599 40.5556 292.464 40.0658L292.058 38.7652H291.822C291.687 39.255 291.518 39.8462 291.315 40.4543L290.69 42.363C290.47 42.9711 290.301 43.4778 290.183 43.8663L287.801 50.5215Z" fill="white"/>
<path d="M313.092 60.4705V33.7822H318.921V60.4705H313.092Z" fill="white"/>
<path d="M328.754 60.4705V33.7822H334.109L344.888 48.2243C345.093 48.4668 345.285 48.7206 345.463 48.9844C345.699 49.3053 345.919 49.6263 346.121 49.9303C346.285 50.1675 346.432 50.4158 346.561 50.6735H346.747V33.7822H352.254V60.4705H346.915L335.9 45.6061C335.647 45.2514 335.359 44.846 335.072 44.39C334.785 43.9339 334.582 43.613 334.447 43.3765H334.261V60.4705H328.754Z" fill="white"/>
<path d="M51.4781 41.3165C52.8687 42.7171 53.693 44.5818 53.7926 46.5528C53.7926 46.6711 53.7926 46.8062 53.7926 46.9413C53.7896 48.2546 53.4622 49.5467 52.8395 50.703C52.2167 51.8593 51.3179 52.8439 50.223 53.5692C49.128 54.2946 47.8708 54.7383 46.563 54.8609C45.2552 54.9836 43.9374 54.7813 42.7266 54.2721C41.8804 53.9061 41.1032 53.3977 40.429 52.7688L40.2093 52.5661C39.491 51.8424 38.9176 50.9882 38.5199 50.0493C38.1042 49.066 37.8915 48.0089 37.8948 46.9413C37.8948 46.7386 37.8948 46.5359 37.8948 46.3163C38.0272 44.4028 38.8496 42.6022 40.2093 41.249C40.928 40.5244 41.7837 39.9502 42.7266 39.5598C43.7085 39.1371 44.7662 38.9187 45.8352 38.918C47.3818 38.9315 48.893 39.3824 50.1941 40.2186C50.6586 40.5396 51.0888 40.9076 51.4781 41.3165Z" fill="#FCCA27"/>
<path d="M55.9383 57.0245C54.6528 58.3212 53.1262 59.354 51.4443 60.0649H51.2922C47.8773 61.4384 44.0635 61.4384 40.6486 60.0649H40.4459C38.9056 59.4388 37.4874 58.5468 36.256 57.4299L35.8674 57.0583C33.2086 54.4024 31.7137 50.7994 31.7113 47.0417C31.7113 46.687 31.7113 46.2985 31.7113 45.9269C31.8243 44.3967 32.1897 42.8956 32.7926 41.4845C33.502 39.8112 34.529 38.2911 35.8167 37.0083C37.1007 35.7099 38.6277 34.6768 40.3107 33.9679L40.5472 33.7821C43.9621 32.4086 47.776 32.4086 51.1909 33.7821L51.4105 33.8665C52.1968 34.1921 52.9494 34.5938 53.6575 35.0658C54.4689 35.5992 55.222 36.2163 55.9045 36.907C58.4067 39.3779 59.8847 42.7014 60.0437 46.2141C60.0437 46.5012 60.0437 46.7208 60.0437 46.9404C60.0528 48.8025 59.6898 50.6477 58.9762 52.3678C58.2625 54.0878 57.2124 55.648 55.8876 56.9569L55.9383 57.0245ZM36.3404 37.4306C35.1068 38.6587 34.1254 40.1162 33.4515 41.721C32.8734 43.0608 32.525 44.4884 32.4209 45.9438C32.4209 46.3042 32.4209 46.6589 32.4209 47.008C32.4336 50.5931 33.8603 54.0286 36.3911 56.5684L36.7628 56.9231C37.8718 57.9757 39.1515 58.8324 40.5472 59.4568H40.75C44.0009 60.7717 47.6358 60.7717 50.8868 59.4568H51.0219C53.4675 58.4212 55.5537 56.6882 57.02 54.4742C58.4863 52.2602 59.2677 49.6633 59.2665 47.008C59.2665 46.8053 59.2665 46.5857 59.2665 46.3154C59.1912 44.7287 58.8366 43.1677 58.2191 41.7041C57.5343 40.1101 56.5541 38.6601 55.3301 37.4306C54.6715 36.7991 53.9529 36.2334 53.1844 35.7415C52.5082 35.2899 51.7896 34.9052 51.0388 34.5929L50.8361 34.5084C47.5879 33.1792 43.9474 33.1792 40.6993 34.5084L40.4965 34.5929C38.9457 35.2703 37.5359 36.2329 36.3404 37.4306Z" fill="#FCCA27"/>
<path d="M24.5818 25.6748L32.0999 33.2759C30.8592 34.5004 29.7598 35.8602 28.8224 37.3298L28.6196 37.6676C27.8712 38.8615 27.4462 40.2294 27.3863 41.6371C27.3806 42.2209 27.4951 42.7996 27.7227 43.3372C27.9503 43.8749 28.286 44.36 28.7091 44.7624C29.1322 45.1648 29.6335 45.4759 30.182 45.6763C30.7305 45.8768 31.3143 45.9622 31.8972 45.9275H32.0999C32.0999 46.2991 32.0999 46.6538 32.0999 47.0254C32.0937 48.8831 32.4674 50.7225 33.1981 52.4306C33.8928 54.0705 34.8965 55.5615 36.1546 56.8223L24.6325 68.3422C23.3916 67.1148 22.261 65.7809 21.2535 64.3558C17.18 58.5425 15.2857 51.4799 15.9037 44.4088C16.5217 37.3378 19.6122 30.7106 24.6325 25.6917L24.5818 25.6748Z" fill="#FCCA27"/>
<path d="M67.2408 25.6748C68.4822 26.9017 69.6129 28.2356 70.6198 29.6611C74.1688 34.7411 76.0574 40.7952 76.0261 46.9916C76.0343 47.0928 76.0343 47.1945 76.0261 47.2956C76.0038 50.389 75.5022 53.4602 74.5393 56.4C74.3873 56.7379 74.2352 57.0757 74.0663 57.4135C72.124 61.1321 69.6035 64.5187 66.5988 67.4469L66.4468 67.5821L59.4862 60.6398C60.5186 59.6446 61.4732 58.5717 62.3414 57.4304L62.882 56.6534C63.328 55.9769 63.7288 55.2715 64.0815 54.542C64.4683 53.7242 64.7302 52.8531 64.8587 51.9576C64.9631 51.2174 64.8818 50.4628 64.6222 49.7618C64.3476 49.0479 63.921 48.4024 63.3719 47.87C63.0631 47.5466 62.7105 47.268 62.3245 47.0423C61.5783 46.5666 60.709 46.3199 59.8241 46.3328C59.6661 42.873 58.2127 39.5991 55.7524 37.1609L67.2408 25.6748Z" fill="#FCCA27"/>
<path d="M45.9029 16.8915L46.2408 17.9894L49.1636 27.3472L51.1064 33.5801L51.3261 34.2895L51.1064 34.2051C47.7749 32.8538 44.0478 32.8538 40.7162 34.2051L40.4966 34.2895L40.7162 33.5801L42.1185 29.0701L45.6157 17.7867L45.9029 16.8408V16.8915Z" fill="#FCCA27"/>
<path d="M51.326 59.7617L51.1064 60.4543L49.5014 65.6061L45.9704 76.9233V77.1597L45.886 76.9064L42.1184 64.7615L40.7838 60.4543L40.5472 59.7617H40.7669C44.0984 61.113 47.8255 61.113 51.1571 59.7617H51.326Z" fill="#FCCA27"/>
</g>
<defs>
<clipPath id="clip0_497_259">
<rect width="368" height="94" fill="white"/>
</clipPath>
</defs>
</svg>
