<svg width="50" height="50" viewBox="0 0 50 50" fill="none" xmlns="http://www.w3.org/2000/svg">
<g clip-path="url(#clip0_532_328)">
<path d="M24.9982 50.0511C38.8324 50.0511 50.0472 38.8363 50.0472 25.0021C50.0472 11.1679 38.8324 -0.046875 24.9982 -0.046875C11.164 -0.046875 -0.0507812 11.1679 -0.0507812 25.0021C-0.0507812 38.8363 11.164 50.0511 24.9982 50.0511Z" fill="black"/>
<path d="M35.1955 36.0616C36.788 34.9611 37.737 33.1471 37.7335 31.2116C37.7335 32.4911 36.088 33.0116 35.3465 31.9921C34.9655 31.4951 35.1095 30.8006 35.14 30.2206C35.2355 29.0816 35.5685 28.0446 35.9775 27.0101C36.5985 25.0756 36.2225 22.8101 35.0135 21.1876C35.5 23.0786 33.8135 24.8716 31.9095 24.5876C29.038 24.3376 27.2255 21.2351 28.3785 18.6221C28.485 18.3746 28.614 18.1376 28.764 17.9141C29.9835 16.0226 30.168 13.3531 29.214 11.2901C28.896 10.5781 28.4635 9.92256 27.934 9.35056C26.9165 8.21806 26.3575 6.57656 26.5405 4.97656C25.5315 6.61906 25.431 8.94606 26.2905 10.6711C26.5085 11.0641 26.667 11.4871 26.761 11.9266C27.031 13.1461 26.722 14.5201 26.0085 15.4836C24.28 17.9811 20.3815 16.3811 20.9435 13.3651C20.057 14.5686 19.846 16.3651 20.461 17.7736C20.5785 18.0621 20.7665 18.3236 20.8835 18.6126C21.299 19.5386 21.4675 20.5561 21.372 21.5666C21.3445 21.8891 21.2885 22.2086 21.204 22.5211C21.198 22.5511 21.1875 22.5821 21.181 22.6121C21.1735 22.6136 21.1665 22.6166 21.1595 22.6196C20.1345 24.7646 16.9395 24.3831 16.4735 22.0231C16.1285 20.1996 14.6985 18.7756 12.8735 18.4381C14.087 19.1766 14.763 20.7926 14.369 22.2266C14.078 23.3876 13.9315 24.5796 13.9325 25.7766C13.9325 26.2031 13.9495 26.6221 13.988 27.0426C14.0875 28.2076 14.328 29.3561 14.705 30.4626C14.955 30.9911 14.97 31.6626 14.5445 32.0936C14.0945 32.6001 13.2565 32.6601 12.7445 32.2181C12.616 32.1101 12.509 31.9786 12.4285 31.8311C12.3975 31.7756 12.371 31.7171 12.3495 31.6571C12.296 31.5131 12.269 31.3606 12.2695 31.2071C12.2655 33.1511 13.219 34.9721 14.819 36.0766C15.091 36.2841 15.173 36.6576 15.013 36.9601C14.4055 38.0716 15.013 39.5726 16.179 39.9731C17.5095 38.2621 20.2985 38.9106 20.7385 41.0386V41.0501C20.829 41.6021 21.2225 42.0561 21.756 42.2236H21.7625C22.166 41.2606 23.6015 41.5841 23.5495 42.6276C23.705 42.6476 23.8625 42.6661 24.021 42.6776C23.9405 41.3076 25.948 41.3071 25.867 42.6776C26.0795 42.6606 26.291 42.6346 26.499 42.6036C26.4635 41.6036 27.8445 41.2736 28.2675 42.1781H28.2725C28.6955 42.0336 29.024 41.6951 29.1555 41.2681C29.263 40.9181 29.331 40.5476 29.5305 40.2461C30.418 38.7056 32.7115 38.5561 33.786 39.9806C34.9095 39.5771 35.4935 38.3386 35.0895 37.2151C35.0525 37.1126 35.008 37.0131 34.9565 36.9171C34.822 36.6116 34.922 36.2531 35.1955 36.0616ZM15.3895 36.4366C15.3865 36.4306 15.384 36.4246 15.382 36.4181C15.388 36.4196 15.3935 36.4221 15.3985 36.4256C15.395 36.4286 15.392 36.4326 15.3895 36.4366ZM20.471 35.7461C16.1875 35.7461 18.292 31.0076 15.7325 31.0076C16.3325 30.5756 18.03 30.6236 18.9875 31.7491C19.945 32.8746 24.3225 35.6991 24.3225 33.3051C24.3225 33.3051 24.7545 35.7461 20.471 35.7461ZM25.5315 39.1736C25.5315 39.1736 25.357 38.2236 24.941 38.2236C24.525 38.2236 24.3505 39.1736 24.3505 39.1736C24.3505 39.1736 23.4915 39.1236 23.4915 38.0801C23.4915 37.0366 24.4815 35.5996 24.4815 35.5996C24.5215 35.8691 24.7005 36.0096 24.941 36.0096C25.1815 36.0096 25.3605 35.8691 25.399 35.5996C25.399 35.5996 26.3885 37.0396 26.3885 38.0801C26.3885 39.1206 25.5315 39.1736 25.5315 39.1736ZM29.528 35.7461C25.2445 35.7461 25.675 33.3051 25.675 33.3051C25.675 35.6981 30.054 32.8731 31.0115 31.7491C31.969 30.6251 33.668 30.5756 34.2665 31.0076C31.7055 31.0076 33.8115 35.7461 29.528 35.7461Z" fill="#EAF143"/>
</g>
<defs>
<clipPath id="clip0_532_328">
<rect width="50" height="50" fill="white"/>
</clipPath>
</defs>
</svg>
