<?xml version="1.0" encoding="UTF-8"?>
<svg xmlns="http://www.w3.org/2000/svg" xmlns:xlink="http://www.w3.org/1999/xlink" width="50px" height="50px" viewBox="0 0 50 50" version="1.1">
<g id="surface1">
<path style=" stroke:none;fill-rule:nonzero;fill:rgb(0%,0%,0%);fill-opacity:1;" d="M 25 50.050781 C 38.832031 50.050781 50.046875 38.835938 50.046875 25.003906 C 50.046875 11.167969 38.832031 -0.046875 25 -0.046875 C 11.164062 -0.046875 -0.0507812 11.167969 -0.0507812 25.003906 C -0.0507812 38.835938 11.164062 50.050781 25 50.050781 Z M 25 50.050781 "/>
<path style=" stroke:none;fill-rule:nonzero;fill:rgb(91.764706%,94.509804%,26.27451%);fill-opacity:1;" d="M 35.195312 36.0625 C 36.789062 34.960938 37.738281 33.148438 37.734375 31.210938 C 37.734375 32.492188 36.089844 33.011719 35.347656 31.992188 C 34.964844 31.496094 35.109375 30.800781 35.140625 30.21875 C 35.234375 29.082031 35.570312 28.042969 35.976562 27.011719 C 36.597656 25.074219 36.222656 22.808594 35.011719 21.1875 C 35.5 23.078125 33.8125 24.871094 31.910156 24.585938 C 29.039062 24.335938 27.226562 21.234375 28.378906 18.621094 C 28.484375 18.375 28.613281 18.136719 28.765625 17.914062 C 29.984375 16.023438 30.167969 13.351562 29.214844 11.289062 C 28.894531 10.578125 28.464844 9.921875 27.933594 9.351562 C 26.917969 8.21875 26.359375 6.578125 26.539062 4.976562 C 25.53125 6.617188 25.429688 8.945312 26.289062 10.671875 C 26.507812 11.0625 26.667969 11.488281 26.761719 11.925781 C 27.03125 13.144531 26.722656 14.519531 26.007812 15.484375 C 24.28125 17.980469 20.382812 16.382812 20.945312 13.363281 C 20.058594 14.570312 19.847656 16.363281 20.460938 17.773438 C 20.578125 18.0625 20.765625 18.324219 20.882812 18.613281 C 21.300781 19.539062 21.46875 20.554688 21.371094 21.566406 C 21.34375 21.890625 21.289062 22.207031 21.203125 22.519531 C 21.199219 22.550781 21.1875 22.582031 21.179688 22.613281 C 21.171875 22.613281 21.167969 22.617188 21.160156 22.621094 C 20.132812 24.765625 16.941406 24.382812 16.472656 22.023438 C 16.128906 20.199219 14.699219 18.777344 12.875 18.4375 C 14.085938 19.175781 14.761719 20.792969 14.367188 22.226562 C 14.078125 23.386719 13.929688 24.578125 13.933594 25.777344 C 13.933594 26.203125 13.949219 26.621094 13.988281 27.042969 C 14.085938 28.207031 14.328125 29.355469 14.703125 30.460938 C 14.953125 30.992188 14.96875 31.664062 14.542969 32.09375 C 14.09375 32.601562 13.257812 32.660156 12.746094 32.21875 C 12.617188 32.109375 12.507812 31.980469 12.429688 31.832031 C 12.398438 31.777344 12.371094 31.71875 12.347656 31.65625 C 12.296875 31.511719 12.269531 31.359375 12.269531 31.207031 C 12.265625 33.152344 13.21875 34.972656 14.820312 36.078125 C 15.089844 36.285156 15.171875 36.65625 15.011719 36.960938 C 14.40625 38.070312 15.011719 39.574219 16.179688 39.972656 C 17.507812 38.261719 20.296875 38.910156 20.738281 41.039062 L 20.738281 41.050781 C 20.828125 41.601562 21.222656 42.054688 21.757812 42.222656 L 21.761719 42.222656 C 22.164062 41.261719 23.601562 41.585938 23.550781 42.628906 C 23.703125 42.648438 23.863281 42.667969 24.019531 42.675781 C 23.941406 41.308594 25.949219 41.308594 25.867188 42.675781 C 26.078125 42.660156 26.289062 42.632812 26.5 42.605469 C 26.464844 41.605469 27.84375 41.273438 28.265625 42.179688 L 28.273438 42.179688 C 28.695312 42.035156 29.023438 41.695312 29.15625 41.269531 C 29.261719 40.917969 29.332031 40.546875 29.53125 40.246094 C 30.417969 38.707031 32.710938 38.554688 33.785156 39.980469 C 34.910156 39.578125 35.492188 38.339844 35.089844 37.214844 C 35.050781 37.113281 35.007812 37.011719 34.957031 36.917969 C 34.820312 36.613281 34.921875 36.253906 35.195312 36.0625 Z M 15.390625 36.4375 C 15.386719 36.429688 15.382812 36.425781 15.382812 36.417969 C 15.386719 36.417969 15.394531 36.421875 15.398438 36.425781 C 15.394531 36.429688 15.390625 36.433594 15.390625 36.4375 Z M 20.472656 35.746094 C 16.1875 35.746094 18.292969 31.007812 15.734375 31.007812 C 16.332031 30.574219 18.03125 30.625 18.988281 31.75 C 19.945312 32.875 24.324219 35.699219 24.324219 33.304688 C 24.324219 33.304688 24.753906 35.746094 20.472656 35.746094 Z M 25.53125 39.171875 C 25.53125 39.171875 25.355469 38.222656 24.941406 38.222656 C 24.523438 38.222656 24.351562 39.171875 24.351562 39.171875 C 24.351562 39.171875 23.492188 39.125 23.492188 38.082031 C 23.492188 37.035156 24.480469 35.597656 24.480469 35.597656 C 24.523438 35.867188 24.699219 36.007812 24.941406 36.007812 C 25.179688 36.007812 25.359375 35.867188 25.398438 35.597656 C 25.398438 35.597656 26.386719 37.039062 26.386719 38.082031 C 26.386719 39.121094 25.53125 39.171875 25.53125 39.171875 Z M 29.527344 35.746094 C 25.246094 35.746094 25.675781 33.304688 25.675781 33.304688 C 25.675781 35.699219 30.054688 32.875 31.011719 31.75 C 31.96875 30.625 33.667969 30.574219 34.265625 31.007812 C 31.707031 31.007812 33.8125 35.746094 29.527344 35.746094 Z M 29.527344 35.746094 "/>
</g>
</svg>
