<?xml version="1.0" encoding="UTF-8"?>
<svg xmlns="http://www.w3.org/2000/svg" xmlns:xlink="http://www.w3.org/1999/xlink" width="50px" height="50px" viewBox="0 0 50 50" version="1.1">
<g id="surface1">
<path style=" stroke:none;fill-rule:nonzero;fill:rgb(0%,0%,0%);fill-opacity:1;" d="M 50 25 C 50 38.808594 38.808594 50 25 50 C 11.191406 50 0 38.808594 0 25 C 0 11.191406 11.191406 0 25 0 C 38.808594 0 50 11.191406 50 25 Z M 50 25 "/>
<path style=" stroke:none;fill-rule:evenodd;fill:rgb(100%,100%,100%);fill-opacity:1;" d="M 20.324219 7 L 14 7 L 14 42 C 16.105469 41.695312 18.214844 41.402344 20.324219 41.117188 L 20.324219 29.777344 C 20.324219 26.015625 22.917969 22.914062 26.652344 22.914062 C 30.019531 22.914062 32.457031 24.84375 32.457031 29.421875 L 32.457031 39.601562 C 34.5625 39.355469 36.671875 39.125 38.785156 38.902344 L 38.785156 29.371094 C 38.785156 21.996094 35.570312 17.167969 28.308594 17.167969 C 25.40625 17.167969 22.605469 18.03125 20.324219 20.929688 Z M 20.324219 7 "/>
</g>
</svg>
