<?xml version="1.0" encoding="UTF-8"?>
<!DOCTYPE svg PUBLIC "-//W3C//DTD SVG 1.1//EN" "http://www.w3.org/Graphics/SVG/1.1/DTD/svg11.dtd">
<svg xmlns="http://www.w3.org/2000/svg" version="1.1" width="300px" height="300px" style="shape-rendering:geometricPrecision; text-rendering:geometricPrecision; image-rendering:optimizeQuality; fill-rule:evenodd; clip-rule:evenodd" xmlns:xlink="http://www.w3.org/1999/xlink">
<g><path style="opacity:0.986" fill="#231f20" d="M 132.5,-0.5 C 143.833,-0.5 155.167,-0.5 166.5,-0.5C 217.886,6.59746 256.219,32.5975 281.5,77.5C 280.542,77.0472 279.708,76.3805 279,75.5C 243.367,86.878 207.534,97.5447 171.5,107.5C 169.981,104.979 168.314,102.479 166.5,100C 167.833,98.6667 169.167,97.3333 170.5,96C 175.768,96.5465 179.102,94.3799 180.5,89.5C 178.709,84.6293 175.376,83.296 170.5,85.5C 168.396,87.5832 168.062,89.9165 169.5,92.5C 168.352,94.1487 167.019,95.6487 165.5,97C 162.138,96.1639 158.805,94.9972 155.5,93.5C 156.492,96.3625 158.492,98.3625 161.5,99.5C 161.38,100.586 160.713,101.253 159.5,101.5C 150.637,104.066 141.803,106.732 133,109.5C 131.97,109.836 131.47,110.503 131.5,111.5C 131.5,114.5 131.5,117.5 131.5,120.5C 130.223,119.306 129.556,117.64 129.5,115.5C 129.768,112.483 130.102,109.483 130.5,106.5C 135.1,97.533 142.434,93.8663 152.5,95.5C 152.5,94.5 152.5,93.5 152.5,92.5C 149.833,92.5 147.167,92.5 144.5,92.5C 144.363,88.1243 144.196,83.7909 144,79.5C 146.653,75.2574 150.486,73.4241 155.5,74C 159.5,70.3333 159.5,66.6667 155.5,63C 148.975,62.5338 146.142,65.7005 147,72.5C 144.96,74.3702 143.127,76.3702 141.5,78.5C 140.574,83.3344 140.574,88.3344 141.5,93.5C 138.658,94.1723 136.158,95.5056 134,97.5C 132.5,96 131,94.5 129.5,93C 131.077,89.5185 130.077,86.8518 126.5,85C 120.219,84.3654 117.719,87.1987 119,93.5C 121.264,96.5199 124.097,97.1865 127.5,95.5C 129.167,96.5 130.5,97.8333 131.5,99.5C 129.833,102.167 128.167,104.833 126.5,107.5C 121.484,108.494 116.484,108.66 111.5,108C 109.833,109.667 108.167,111.333 106.5,113C 104.167,113.333 101.833,113.667 99.5,114C 95.6327,117.249 95.6327,120.582 99.5,124C 106.492,124.927 109.658,121.76 109,114.5C 110.167,113.333 111.333,112.167 112.5,111C 116.819,110.924 121.152,111.091 125.5,111.5C 125.194,114.385 125.527,117.052 126.5,119.5C 126.5,120.5 126.5,121.5 126.5,122.5C 83.9057,134.397 41.5724,147.064 -0.5,160.5C -0.5,150.167 -0.5,139.833 -0.5,129.5C 11.017,65.8055 47.6837,23.9721 109.5,4C 117.244,2.15053 124.911,0.65053 132.5,-0.5 Z"/></g>
<g><path style="opacity:0.992" fill="#282425" d="M 281.5,77.5 C 284.341,81.8489 286.674,86.5156 288.5,91.5C 287.518,90.8592 286.518,90.1925 285.5,89.5C 257.908,97.6052 230.408,105.939 203,114.5C 202.802,112.618 202.302,110.952 201.5,109.5C 201.047,108.542 200.381,107.708 199.5,107C 192.358,104.978 189.691,107.478 191.5,114.5C 189.684,116.817 187.684,118.984 185.5,121C 182.174,121.172 178.841,121.005 175.5,120.5C 174.791,119.596 173.791,119.263 172.5,119.5C 172.81,116.287 172.477,113.287 171.5,110.5C 171.5,109.5 171.5,108.5 171.5,107.5C 207.534,97.5447 243.367,86.878 279,75.5C 279.708,76.3805 280.542,77.0472 281.5,77.5 Z"/></g>
<g><path style="opacity:1" fill="#605c5d" d="M 141.5,78.5 C 142.129,83.6819 142.129,88.6819 141.5,93.5C 140.574,88.3344 140.574,83.3344 141.5,78.5 Z"/></g>
<g><path style="opacity:0.993" fill="#2d292a" d="M 288.5,91.5 C 291.095,97.2855 293.095,103.285 294.5,109.5C 293.739,108.609 292.739,107.942 291.5,107.5C 254.828,118.501 218.161,129.501 181.5,140.5C 180.824,139.398 180.158,138.398 179.5,137.5C 179.047,136.542 178.381,135.708 177.5,135C 173.74,135.194 170.574,134.027 168,131.5C 168.754,128.606 169.587,125.606 170.5,122.5C 176.145,123.387 181.812,123.554 187.5,123C 190.664,118.524 194.998,116.191 200.5,116C 201.423,113.959 201.756,111.792 201.5,109.5C 202.302,110.952 202.802,112.618 203,114.5C 230.408,105.939 257.908,97.6052 285.5,89.5C 286.518,90.1925 287.518,90.8592 288.5,91.5 Z"/></g>
<g><path style="opacity:1" fill="#e1e0e0" d="M 130.5,106.5 C 129.371,111.011 128.037,115.345 126.5,119.5C 125.527,117.052 125.194,114.385 125.5,111.5C 121.152,111.091 116.819,110.924 112.5,111C 111.333,112.167 110.167,113.333 109,114.5C 109.658,121.76 106.492,124.927 99.5,124C 95.6327,120.582 95.6327,117.249 99.5,114C 101.833,113.667 104.167,113.333 106.5,113C 108.167,111.333 109.833,109.667 111.5,108C 116.484,108.66 121.484,108.494 126.5,107.5C 128.167,104.833 129.833,102.167 131.5,99.5C 130.5,97.8333 129.167,96.5 127.5,95.5C 124.097,97.1865 121.264,96.5199 119,93.5C 117.719,87.1987 120.219,84.3654 126.5,85C 130.077,86.8518 131.077,89.5185 129.5,93C 131,94.5 132.5,96 134,97.5C 136.158,95.5056 138.658,94.1723 141.5,93.5C 142.129,88.6819 142.129,83.6819 141.5,78.5C 143.127,76.3702 144.96,74.3702 147,72.5C 146.142,65.7005 148.975,62.5338 155.5,63C 159.5,66.6667 159.5,70.3333 155.5,74C 150.486,73.4241 146.653,75.2574 144,79.5C 144.196,83.7909 144.363,88.1243 144.5,92.5C 147.167,92.5 149.833,92.5 152.5,92.5C 152.5,93.5 152.5,94.5 152.5,95.5C 142.434,93.8663 135.1,97.533 130.5,106.5 Z"/></g>
<g><path style="opacity:1" fill="#767374" d="M 122.5,92.5 C 120.651,88.5062 121.985,87.0062 126.5,88C 128.319,92.6769 126.986,94.1769 122.5,92.5 Z"/></g>
<g><path style="opacity:1" fill="#ececec" d="M 122.5,92.5 C 122.066,89.8338 123.066,88.6671 125.5,89C 126.694,91.6578 125.694,92.8244 122.5,92.5 Z"/></g>
<g><path style="opacity:1" fill="#343031" d="M 151.5,65.5 C 155.35,65.7007 156.35,67.5341 154.5,71C 149.289,71.5464 148.289,69.713 151.5,65.5 Z"/></g>
<g><path style="opacity:0.994" fill="#322e2f" d="M 294.5,109.5 C 295.787,113.313 296.787,117.313 297.5,121.5C 296.883,121.389 296.383,121.056 296,120.5C 248.385,135.558 200.551,149.891 152.5,163.5C 152.737,162.209 152.404,161.209 151.5,160.5C 152.754,157.907 154.42,155.573 156.5,153.5C 157.211,148.343 157.211,143.01 156.5,137.5C 159.553,136.223 162.386,134.556 165,132.5C 167.959,135.098 169.293,138.432 169,142.5C 171.971,146.092 175.304,146.425 179,143.5C 179.495,141.527 179.662,139.527 179.5,137.5C 180.158,138.398 180.824,139.398 181.5,140.5C 218.161,129.501 254.828,118.501 291.5,107.5C 292.739,107.942 293.739,108.609 294.5,109.5 Z"/></g>
<g><path style="opacity:1" fill="#363334" d="M 100.5,115.5 C 105.159,115.015 106.492,116.848 104.5,121C 99.7282,121.81 98.3948,119.977 100.5,115.5 Z"/></g>
<g><path style="opacity:1" fill="#2f2b2c" d="M 161.5,99.5 C 172.153,110.216 172.153,121.05 161.5,132C 147.807,139.187 137.14,136.187 129.5,123C 128.184,122.472 127.517,122.972 127.5,124.5C 126.662,124.158 126.328,123.492 126.5,122.5C 126.5,121.5 126.5,120.5 126.5,119.5C 128.037,115.345 129.371,111.011 130.5,106.5C 130.102,109.483 129.768,112.483 129.5,115.5C 129.556,117.64 130.223,119.306 131.5,120.5C 132.5,120.5 133.5,120.5 134.5,120.5C 134.5,119.167 134.5,117.833 134.5,116.5C 136.167,116.5 137.833,116.5 139.5,116.5C 139.5,117.5 139.5,118.5 139.5,119.5C 140.5,119.5 141.5,119.5 142.5,119.5C 142.5,118.5 142.5,117.5 142.5,116.5C 144.5,116.5 146.5,116.5 148.5,116.5C 150.438,124.464 155.104,126.464 162.5,122.5C 167.982,114.35 165.982,109.017 156.5,106.5C 151.579,106.953 148.913,109.62 148.5,114.5C 146.5,114.5 144.5,114.5 142.5,114.5C 142.5,113.5 142.5,112.5 142.5,111.5C 141.5,111.5 140.5,111.5 139.5,111.5C 139.167,115.5 138.833,115.5 138.5,111.5C 137.5,111.5 136.5,111.5 135.5,111.5C 135.167,115.5 134.833,115.5 134.5,111.5C 133.5,111.5 132.5,111.5 131.5,111.5C 131.47,110.503 131.97,109.836 133,109.5C 141.803,106.732 150.637,104.066 159.5,101.5C 160.713,101.253 161.38,100.586 161.5,99.5 Z"/></g>
<g><path style="opacity:1" fill="#e5e4e5" d="M 131.5,120.5 C 131.5,117.5 131.5,114.5 131.5,111.5C 132.5,111.5 133.5,111.5 134.5,111.5C 134.833,115.5 135.167,115.5 135.5,111.5C 136.5,111.5 137.5,111.5 138.5,111.5C 138.833,115.5 139.167,115.5 139.5,111.5C 140.5,111.5 141.5,111.5 142.5,111.5C 142.5,112.5 142.5,113.5 142.5,114.5C 144.5,114.5 146.5,114.5 148.5,114.5C 148.913,109.62 151.579,106.953 156.5,106.5C 165.982,109.017 167.982,114.35 162.5,122.5C 155.104,126.464 150.438,124.464 148.5,116.5C 146.5,116.5 144.5,116.5 142.5,116.5C 142.5,117.5 142.5,118.5 142.5,119.5C 141.5,119.5 140.5,119.5 139.5,119.5C 139.5,118.5 139.5,117.5 139.5,116.5C 137.833,116.5 136.167,116.5 134.5,116.5C 134.5,117.833 134.5,119.167 134.5,120.5C 133.5,120.5 132.5,120.5 131.5,120.5 Z"/></g>
<g><path style="opacity:1" fill="#494546" d="M 153.5,109.5 C 162.968,109.285 165.301,113.118 160.5,121C 154.984,122.925 151.651,121.091 150.5,115.5C 150.984,113.199 151.984,111.199 153.5,109.5 Z"/></g>
<g><path style="opacity:1" fill="#e7e6e6" d="M 154.5,111.5 C 161.004,111.138 162.671,113.638 159.5,119C 152.745,119.756 151.078,117.256 154.5,111.5 Z"/></g>
<g><path style="opacity:1" fill="#4e4a4b" d="M 155.5,113.5 C 156.5,113.5 157.5,113.5 158.5,113.5C 158.5,114.833 158.5,116.167 158.5,117.5C 157.5,117.5 156.5,117.5 155.5,117.5C 155.5,116.167 155.5,114.833 155.5,113.5 Z"/></g>
<g><path style="opacity:1" fill="#e4e3e3" d="M 171.5,107.5 C 171.5,108.5 171.5,109.5 171.5,110.5C 171.5,113.833 171.5,117.167 171.5,120.5C 172.833,120.5 174.167,120.5 175.5,120.5C 178.841,121.005 182.174,121.172 185.5,121C 187.684,118.984 189.684,116.817 191.5,114.5C 189.691,107.478 192.358,104.978 199.5,107C 200.381,107.708 201.047,108.542 201.5,109.5C 201.756,111.792 201.423,113.959 200.5,116C 194.998,116.191 190.664,118.524 187.5,123C 181.812,123.554 176.145,123.387 170.5,122.5C 169.587,125.606 168.754,128.606 168,131.5C 170.574,134.027 173.74,135.194 177.5,135C 178.381,135.708 179.047,136.542 179.5,137.5C 179.662,139.527 179.495,141.527 179,143.5C 175.304,146.425 171.971,146.092 169,142.5C 169.293,138.432 167.959,135.098 165,132.5C 162.386,134.556 159.553,136.223 156.5,137.5C 155.648,142.664 155.648,147.997 156.5,153.5C 154.42,155.573 152.754,157.907 151.5,160.5C 151.536,167.265 148.369,169.265 142,166.5C 140.872,164.655 140.372,162.655 140.5,160.5C 142.81,157.065 146.144,155.565 150.5,156C 151.667,154.833 152.833,153.667 154,152.5C 154.607,148.463 154.44,144.463 153.5,140.5C 151.012,138.612 148.012,137.945 144.5,138.5C 140.478,137.657 136.812,135.99 133.5,133.5C 132.186,134.313 131.019,135.313 130,136.5C 130.358,145.021 126.858,147.687 119.5,144.5C 116.336,139.484 117.669,136.151 123.5,134.5C 126.948,135.633 129.615,134.466 131.5,131C 129.779,129.056 128.446,126.89 127.5,124.5C 127.517,122.972 128.184,122.472 129.5,123C 137.14,136.187 147.807,139.187 161.5,132C 172.153,121.05 172.153,110.216 161.5,99.5C 158.492,98.3625 156.492,96.3625 155.5,93.5C 158.805,94.9972 162.138,96.1639 165.5,97C 167.019,95.6487 168.352,94.1487 169.5,92.5C 168.062,89.9165 168.396,87.5832 170.5,85.5C 175.376,83.296 178.709,84.6293 180.5,89.5C 179.102,94.3799 175.768,96.5465 170.5,96C 169.167,97.3333 167.833,98.6667 166.5,100C 168.314,102.479 169.981,104.979 171.5,107.5 Z"/></g>
<g><path style="opacity:1" fill="#8c8a8b" d="M 171.5,110.5 C 172.477,113.287 172.81,116.287 172.5,119.5C 173.791,119.263 174.791,119.596 175.5,120.5C 174.167,120.5 172.833,120.5 171.5,120.5C 171.5,117.167 171.5,113.833 171.5,110.5 Z"/></g>
<g><path style="opacity:1" fill="#383435" d="M 194.5,108.5 C 198.485,108.629 199.818,110.463 198.5,114C 193.728,114.81 192.395,112.977 194.5,108.5 Z"/></g>
<g><path style="opacity:1" fill="#343031" d="M 172.5,86.5 C 176.485,86.6294 177.818,88.4628 176.5,92C 171.728,92.8104 170.395,90.9771 172.5,86.5 Z"/></g>
<g><path style="opacity:0.997" fill="#3b3839" d="M 299.5,134.5 C 299.5,139.167 299.5,143.833 299.5,148.5C 250.614,162.396 201.614,176.896 152.5,192C 147.375,192.925 142.375,193.759 137.5,194.5C 136.167,195.167 135.167,196.167 134.5,197.5C 133.686,199.631 133.186,201.964 133,204.5C 132.814,201.964 132.314,199.631 131.5,197.5C 131.047,196.542 130.381,195.708 129.5,195C 122.508,194.5 115.508,194.334 108.5,194.5C 108.5,198.833 108.5,203.167 108.5,207.5C 108.028,209.531 107.028,211.198 105.5,212.5C 105.5,206.5 105.5,200.5 105.5,194.5C 104.167,194.5 102.833,194.5 101.5,194.5C 101.5,200.833 101.5,207.167 101.5,213.5C 96.2384,213.805 91.0717,213.471 86,212.5C 85.5005,206.509 85.3338,200.509 85.5,194.5C 86.1499,194.804 86.8165,195.137 87.5,195.5C 157.101,174.3 226.768,153.3 296.5,132.5C 297.739,132.942 298.739,133.609 299.5,134.5 Z"/></g>
<g><path style="opacity:1" fill="#8a8889" d="M 172.5,136.5 C 176.713,136.699 178.046,138.699 176.5,142.5C 174.958,143.747 173.458,143.747 172,142.5C 171.322,140.402 171.489,138.402 172.5,136.5 Z"/></g>
<g><path style="opacity:1" fill="#3d3a3b" d="M 121.5,137.5 C 126.159,137.015 127.492,138.848 125.5,143C 120.728,143.81 119.395,141.977 121.5,137.5 Z"/></g>
<g><path style="opacity:0.993" fill="#2e2a2b" d="M 144.5,138.5 C 147.39,139.245 150.39,139.912 153.5,140.5C 154.44,144.463 154.607,148.463 154,152.5C 152.833,153.667 151.667,154.833 150.5,156C 146.144,155.565 142.81,157.065 140.5,160.5C 95.8133,172.754 51.48,186.087 7.5,200.5C 5.02567,194.741 3.359,188.741 2.5,182.5C 40.938,170.216 79.6046,158.216 118.5,146.5C 119.298,146.043 119.631,145.376 119.5,144.5C 126.858,147.687 130.358,145.021 130,136.5C 131.019,135.313 132.186,134.313 133.5,133.5C 136.812,135.99 140.478,137.657 144.5,138.5 Z"/></g>
<g><path style="opacity:1" fill="#5f5c5d" d="M 144.5,138.5 C 148.012,137.945 151.012,138.612 153.5,140.5C 150.39,139.912 147.39,139.245 144.5,138.5 Z"/></g>
<g><path style="opacity:1" fill="#f0f0f0" d="M 172.5,138.5 C 174.346,138.222 175.68,138.889 176.5,140.5C 175.311,141.429 173.978,141.762 172.5,141.5C 172.5,140.5 172.5,139.5 172.5,138.5 Z"/></g>
<g><path style="opacity:0.995" fill="#292526" d="M 126.5,122.5 C 126.328,123.492 126.662,124.158 127.5,124.5C 128.446,126.89 129.779,129.056 131.5,131C 129.615,134.466 126.948,135.633 123.5,134.5C 117.669,136.151 116.336,139.484 119.5,144.5C 119.631,145.376 119.298,146.043 118.5,146.5C 79.6046,158.216 40.938,170.216 2.5,182.5C 1.25681,178.214 0.256807,173.881 -0.5,169.5C -0.5,166.5 -0.5,163.5 -0.5,160.5C 41.5724,147.064 83.9057,134.397 126.5,122.5 Z"/></g>
<g><path style="opacity:0.998" fill="#413e3f" d="M 299.5,148.5 C 299.5,153.5 299.5,158.5 299.5,163.5C 270.252,171.86 241.085,180.527 212,189.5C 210.989,188.944 210.156,188.278 209.5,187.5C 206.67,185.965 205.337,186.965 205.5,190.5C 204.158,191.793 202.491,192.626 200.5,193C 194.319,193.172 188.319,193.672 182.5,194.5C 181.167,195.167 180.167,196.167 179.5,197.5C 178.833,196.5 178.167,195.5 177.5,194.5C 172.489,194.334 167.489,194.501 162.5,195C 161.619,195.708 160.953,196.542 160.5,197.5C 159.81,202.233 159.144,207.066 158.5,212C 151.508,212.5 144.508,212.666 137.5,212.5C 137.5,210.833 137.5,209.167 137.5,207.5C 144.167,207.5 150.833,207.5 157.5,207.5C 157.813,203.958 157.479,200.625 156.5,197.5C 156.047,196.542 155.381,195.708 154.5,195C 148.843,194.501 143.176,194.334 137.5,194.5C 142.375,193.759 147.375,192.925 152.5,192C 201.614,176.896 250.614,162.396 299.5,148.5 Z"/></g>
<g><path style="opacity:1" fill="#a8a7a7" d="M 156.5,137.5 C 157.211,143.01 157.211,148.343 156.5,153.5C 155.648,147.997 155.648,142.664 156.5,137.5 Z"/></g>
<g><path style="opacity:0.995" fill="#353232" d="M 297.5,121.5 C 298.097,124.941 298.763,128.275 299.5,131.5C 299.5,132.5 299.5,133.5 299.5,134.5C 298.739,133.609 297.739,132.942 296.5,132.5C 226.768,153.3 157.101,174.3 87.5,195.5C 86.8165,195.137 86.1499,194.804 85.5,194.5C 84.5,194.5 83.5,194.5 82.5,194.5C 81.9262,198.164 81.0928,201.831 80,205.5C 79.8267,199.984 79.3267,194.651 78.5,189.5C 77.791,188.596 76.791,188.263 75.5,188.5C 75.5,192.833 75.5,197.167 75.5,201.5C 68.1667,201.5 60.8333,201.5 53.5,201.5C 53.5,197.167 53.5,192.833 53.5,188.5C 52.209,188.263 51.209,188.596 50.5,189.5C 49.8142,195.234 49.1476,201.067 48.5,207C 38.5,210 28.5,213 18.5,216C 16.8934,217.049 16.2267,218.549 16.5,220.5C 12.7418,214.246 9.74177,207.579 7.5,200.5C 51.48,186.087 95.8133,172.754 140.5,160.5C 140.372,162.655 140.872,164.655 142,166.5C 148.369,169.265 151.536,167.265 151.5,160.5C 152.404,161.209 152.737,162.209 152.5,163.5C 200.551,149.891 248.385,135.558 296,120.5C 296.383,121.056 296.883,121.389 297.5,121.5 Z"/></g>
<g><path style="opacity:1" fill="#3d393a" d="M 144.5,159.5 C 145.833,159.5 147.167,159.5 148.5,159.5C 148.66,161.199 148.494,162.866 148,164.5C 143.633,165.575 142.466,163.908 144.5,159.5 Z"/></g>
<g><path style="opacity:0.995" fill="#474445" d="M 299.5,163.5 C 299.5,165.167 299.5,166.833 299.5,168.5C 298.743,172.881 297.743,177.214 296.5,181.5C 296.465,180.596 295.965,179.93 295,179.5C 276.917,185.392 258.75,190.392 240.5,194.5C 239.918,197.832 239.084,201.166 238,204.5C 237.814,201.964 237.314,199.631 236.5,197.5C 236.047,196.542 235.381,195.708 234.5,195C 228.167,194.333 221.833,194.333 215.5,195C 214.619,195.708 213.953,196.542 213.5,197.5C 212.835,199.698 212.168,202.031 211.5,204.5C 210.833,201.023 210.166,197.689 209.5,194.5C 208.5,194.5 207.5,194.5 206.5,194.5C 205.837,196.042 205.17,197.709 204.5,199.5C 203.818,198.757 203.151,198.091 202.5,197.5C 202.047,196.542 201.381,195.708 200.5,195C 194.509,194.501 188.509,194.334 182.5,194.5C 188.319,193.672 194.319,193.172 200.5,193C 202.491,192.626 204.158,191.793 205.5,190.5C 206.833,190.5 208.167,190.5 209.5,190.5C 209.5,189.5 209.5,188.5 209.5,187.5C 210.156,188.278 210.989,188.944 212,189.5C 241.085,180.527 270.252,171.86 299.5,163.5 Z"/></g>
<g><path style="opacity:0.965" fill="#4e4b4c" d="M 296.5,181.5 C 295.899,187.589 294.232,193.256 291.5,198.5C 291.083,197.876 290.416,197.543 289.5,197.5C 280.895,200.151 272.228,202.484 263.5,204.5C 263.802,201.941 263.468,199.607 262.5,197.5C 262.047,196.542 261.381,195.708 260.5,195C 253.842,194.5 247.175,194.334 240.5,194.5C 258.75,190.392 276.917,185.392 295,179.5C 295.965,179.93 296.465,180.596 296.5,181.5 Z"/></g>
<g><path style="opacity:1" fill="#c8c7c7" d="M 209.5,187.5 C 209.5,188.5 209.5,189.5 209.5,190.5C 208.167,190.5 206.833,190.5 205.5,190.5C 205.337,186.965 206.67,185.965 209.5,187.5 Z"/></g>
<g><path style="opacity:1" fill="#f2f1f1" d="M 78.5,189.5 C 78.5,198.5 78.5,207.5 78.5,216.5C 77.5,216.5 76.5,216.5 75.5,216.5C 75.5,212.5 75.5,208.5 75.5,204.5C 68.1667,204.5 60.8333,204.5 53.5,204.5C 53.5,208.5 53.5,212.5 53.5,216.5C 52.5,216.5 51.5,216.5 50.5,216.5C 50.5,207.5 50.5,198.5 50.5,189.5C 51.209,188.596 52.209,188.263 53.5,188.5C 53.5,192.833 53.5,197.167 53.5,201.5C 60.8333,201.5 68.1667,201.5 75.5,201.5C 75.5,197.167 75.5,192.833 75.5,188.5C 76.791,188.263 77.791,188.596 78.5,189.5 Z"/></g>
<g><path style="opacity:1" fill="#e5e5e5" d="M 82.5,194.5 C 83.5,194.5 84.5,194.5 85.5,194.5C 85.3338,200.509 85.5005,206.509 86,212.5C 91.0717,213.471 96.2384,213.805 101.5,213.5C 101.5,207.167 101.5,200.833 101.5,194.5C 102.833,194.5 104.167,194.5 105.5,194.5C 105.5,200.5 105.5,206.5 105.5,212.5C 105.665,215.85 105.498,219.183 105,222.5C 104.167,223.333 103.333,224.167 102.5,225C 97.1771,225.499 91.8437,225.666 86.5,225.5C 86.5,224.167 86.5,222.833 86.5,221.5C 91.5,221.5 96.5,221.5 101.5,221.5C 101.5,219.833 101.5,218.167 101.5,216.5C 95.8236,216.666 90.1569,216.499 84.5,216C 84,215.5 83.5,215 83,214.5C 82.5004,207.842 82.3337,201.175 82.5,194.5 Z"/></g>
<g><path style="opacity:1" fill="#e8e8e8" d="M 131.5,197.5 C 131.666,203.176 131.499,208.843 131,214.5C 130.5,215 130,215.5 129.5,216C 123.843,216.499 118.176,216.666 112.5,216.5C 112.5,219.5 112.5,222.5 112.5,225.5C 111.167,225.5 109.833,225.5 108.5,225.5C 108.5,219.5 108.5,213.5 108.5,207.5C 108.5,203.167 108.5,198.833 108.5,194.5C 115.508,194.334 122.508,194.5 129.5,195C 130.381,195.708 131.047,196.542 131.5,197.5 Z"/></g>
<g><path style="opacity:1" fill="#f2f2f2" d="M 137.5,194.5 C 143.176,194.334 148.843,194.501 154.5,195C 155.381,195.708 156.047,196.542 156.5,197.5C 156.5,200.5 156.5,203.5 156.5,206.5C 149.978,206.177 143.645,206.51 137.5,207.5C 137.5,209.167 137.5,210.833 137.5,212.5C 143.645,213.49 149.978,213.823 156.5,213.5C 156.5,214.5 156.5,215.5 156.5,216.5C 149.825,216.666 143.158,216.5 136.5,216C 136,215.5 135.5,215 135,214.5C 134.501,208.843 134.334,203.176 134.5,197.5C 135.167,196.167 136.167,195.167 137.5,194.5 Z"/></g>
<g><path style="opacity:1" fill="#e8e7e8" d="M 182.5,194.5 C 188.509,194.334 194.509,194.501 200.5,195C 201.381,195.708 202.047,196.542 202.5,197.5C 201.64,199.97 200.306,200.137 198.5,198C 193.511,197.501 188.511,197.334 183.5,197.5C 183.5,199.5 183.5,201.5 183.5,203.5C 188.844,203.334 194.177,203.501 199.5,204C 203.05,207.731 203.383,211.731 200.5,216C 194.843,216.499 189.176,216.666 183.5,216.5C 181.299,216.142 179.965,214.808 179.5,212.5C 180.167,212.167 180.833,211.833 181.5,211.5C 187.013,213.467 192.68,213.967 198.5,213C 199.406,211.301 199.739,209.467 199.5,207.5C 193.824,207.666 188.157,207.499 182.5,207C 179.814,204.454 178.814,201.287 179.5,197.5C 180.167,196.167 181.167,195.167 182.5,194.5 Z"/></g>
<g><path style="opacity:1" fill="#e9e8e8" d="M 236.5,197.5 C 236.666,205.84 236.5,214.173 236,222.5C 235.292,223.381 234.458,224.047 233.5,224.5C 228.456,224.827 223.456,224.494 218.5,223.5C 223.317,222.833 227.983,222.166 232.5,221.5C 232.5,219.833 232.5,218.167 232.5,216.5C 227.167,216.5 221.833,216.5 216.5,216.5C 215.21,215.942 214.377,214.942 214,213.5C 213.501,208.177 213.334,202.844 213.5,197.5C 213.953,196.542 214.619,195.708 215.5,195C 221.833,194.333 228.167,194.333 234.5,195C 235.381,195.708 236.047,196.542 236.5,197.5 Z"/></g>
<g><path style="opacity:1" fill="#f3f3f3" d="M 240.5,194.5 C 247.175,194.334 253.842,194.5 260.5,195C 261.381,195.708 262.047,196.542 262.5,197.5C 262.5,203.833 262.5,210.167 262.5,216.5C 261.5,216.5 260.5,216.5 259.5,216.5C 259.5,210.167 259.5,203.833 259.5,197.5C 254.167,197.5 248.833,197.5 243.5,197.5C 243.5,203.833 243.5,210.167 243.5,216.5C 242.5,216.5 241.5,216.5 240.5,216.5C 240.5,209.167 240.5,201.833 240.5,194.5 Z"/></g>
<g><path style="opacity:1" fill="#f1f0f1" d="M 177.5,194.5 C 177.5,195.5 177.5,196.5 177.5,197.5C 172.901,197.2 168.401,197.533 164,198.5C 163.501,204.491 163.334,210.491 163.5,216.5C 162.5,216.5 161.5,216.5 160.5,216.5C 160.5,210.167 160.5,203.833 160.5,197.5C 160.953,196.542 161.619,195.708 162.5,195C 167.489,194.501 172.489,194.334 177.5,194.5 Z"/></g>
<g><path style="opacity:1" fill="#514d4e" d="M 217.5,197.5 C 222.5,197.5 227.5,197.5 232.5,197.5C 232.5,202.833 232.5,208.167 232.5,213.5C 227.5,213.5 222.5,213.5 217.5,213.5C 217.5,208.167 217.5,202.833 217.5,197.5 Z"/></g>
<g><path style="opacity:1" fill="#433f40" d="M 112.5,197.5 C 117.511,197.334 122.511,197.501 127.5,198C 128.833,203 128.833,208 127.5,213C 122.511,213.499 117.511,213.666 112.5,213.5C 112.5,208.167 112.5,202.833 112.5,197.5 Z"/></g>
<g><path style="opacity:0.991" fill="#555253" d="M 240.5,194.5 C 240.5,201.833 240.5,209.167 240.5,216.5C 241.5,216.5 242.5,216.5 243.5,216.5C 243.5,210.167 243.5,203.833 243.5,197.5C 248.833,197.5 254.167,197.5 259.5,197.5C 259.5,203.833 259.5,210.167 259.5,216.5C 260.5,216.5 261.5,216.5 262.5,216.5C 262.5,210.167 262.5,203.833 262.5,197.5C 263.468,199.607 263.802,201.941 263.5,204.5C 272.228,202.484 280.895,200.151 289.5,197.5C 290.416,197.543 291.083,197.876 291.5,198.5C 290.305,203.88 288.305,208.88 285.5,213.5C 285.44,212.957 285.107,212.624 284.5,212.5C 213.126,234.175 141.793,255.841 70.5,277.5C 65.6355,275.237 61.3021,272.237 57.5,268.5C 60.4026,266.352 63.7359,264.852 67.5,264C 118.557,248.82 169.557,233.486 220.5,218C 218.942,217.79 217.609,217.29 216.5,216.5C 221.833,216.5 227.167,216.5 232.5,216.5C 232.5,218.167 232.5,219.833 232.5,221.5C 227.5,221.5 222.5,221.5 217.5,221.5C 217.5,222.833 217.5,224.167 217.5,225.5C 223.026,225.821 228.36,225.488 233.5,224.5C 234.458,224.047 235.292,223.381 236,222.5C 236.5,214.173 236.666,205.84 236.5,197.5C 237.314,199.631 237.814,201.964 238,204.5C 239.084,201.166 239.918,197.832 240.5,194.5 Z"/></g>
<g><path style="opacity:0.991" fill="#4a4748" d="M 177.5,194.5 C 178.167,195.5 178.833,196.5 179.5,197.5C 178.814,201.287 179.814,204.454 182.5,207C 188.157,207.499 193.824,207.666 199.5,207.5C 199.739,209.467 199.406,211.301 198.5,213C 192.68,213.967 187.013,213.467 181.5,211.5C 180.833,211.833 180.167,212.167 179.5,212.5C 179.965,214.808 181.299,216.142 183.5,216.5C 185.969,217.317 188.635,217.817 191.5,218C 144.828,232.168 98.161,246.334 51.5,260.5C 50.6143,261.325 50.281,262.325 50.5,263.5C 44.1078,258.11 38.4412,252.11 33.5,245.5C 33.4142,244.504 33.7476,243.671 34.5,243C 52.2127,237.822 69.8793,232.488 87.5,227C 86.944,226.617 86.6107,226.117 86.5,225.5C 91.8437,225.666 97.1771,225.499 102.5,225C 103.333,224.167 104.167,223.333 105,222.5C 105.498,219.183 105.665,215.85 105.5,212.5C 107.028,211.198 108.028,209.531 108.5,207.5C 108.5,213.5 108.5,219.5 108.5,225.5C 109.833,225.5 111.167,225.5 112.5,225.5C 112.5,222.5 112.5,219.5 112.5,216.5C 118.176,216.666 123.843,216.499 129.5,216C 130,215.5 130.5,215 131,214.5C 131.499,208.843 131.666,203.176 131.5,197.5C 132.314,199.631 132.814,201.964 133,204.5C 133.186,201.964 133.686,199.631 134.5,197.5C 134.334,203.176 134.501,208.843 135,214.5C 135.5,215 136,215.5 136.5,216C 143.158,216.5 149.825,216.666 156.5,216.5C 157.158,215.602 157.824,214.602 158.5,213.5C 159.176,214.602 159.842,215.602 160.5,216.5C 161.5,216.5 162.5,216.5 163.5,216.5C 163.334,210.491 163.501,204.491 164,198.5C 168.401,197.533 172.901,197.2 177.5,197.5C 177.5,196.5 177.5,195.5 177.5,194.5 Z"/></g>
<g><path style="opacity:1" fill="#a5a3a4" d="M 156.5,197.5 C 157.479,200.625 157.813,203.958 157.5,207.5C 150.833,207.5 144.167,207.5 137.5,207.5C 143.645,206.51 149.978,206.177 156.5,206.5C 156.5,203.5 156.5,200.5 156.5,197.5 Z"/></g>
<g><path style="opacity:1" fill="#464343" d="M 137.5,197.5 C 142.833,197.5 148.167,197.5 153.5,197.5C 153.5,199.5 153.5,201.5 153.5,203.5C 148.167,203.5 142.833,203.5 137.5,203.5C 137.5,201.5 137.5,199.5 137.5,197.5 Z"/></g>
<g><path style="opacity:0.981" fill="#3d393a" d="M 50.5,189.5 C 50.5,198.5 50.5,207.5 50.5,216.5C 51.5,216.5 52.5,216.5 53.5,216.5C 54.4816,213.038 54.815,209.371 54.5,205.5C 61.1667,205.5 67.8333,205.5 74.5,205.5C 74.8204,208.898 74.487,212.232 73.5,215.5C 56.7368,220.366 40.0701,225.532 23.5,231C 24.2524,231.671 24.5858,232.504 24.5,233.5C 21.0843,229.677 18.4176,225.343 16.5,220.5C 16.2267,218.549 16.8934,217.049 18.5,216C 28.5,213 38.5,210 48.5,207C 49.1476,201.067 49.8142,195.234 50.5,189.5 Z"/></g>
<g><path style="opacity:0.994" fill="#504d4e" d="M 206.5,194.5 C 206.5,201.833 206.5,209.167 206.5,216.5C 207.5,216.5 208.5,216.5 209.5,216.5C 209.5,209.167 209.5,201.833 209.5,194.5C 210.166,197.689 210.833,201.023 211.5,204.5C 212.168,202.031 212.835,199.698 213.5,197.5C 213.334,202.844 213.501,208.177 214,213.5C 214.377,214.942 215.21,215.942 216.5,216.5C 217.609,217.29 218.942,217.79 220.5,218C 169.557,233.486 118.557,248.82 67.5,264C 63.7359,264.852 60.4026,266.352 57.5,268.5C 54.883,267.214 52.5496,265.547 50.5,263.5C 50.281,262.325 50.6143,261.325 51.5,260.5C 98.161,246.334 144.828,232.168 191.5,218C 188.635,217.817 185.969,217.317 183.5,216.5C 189.176,216.666 194.843,216.499 200.5,216C 203.383,211.731 203.05,207.731 199.5,204C 194.177,203.501 188.844,203.334 183.5,203.5C 183.5,201.5 183.5,199.5 183.5,197.5C 188.511,197.334 193.511,197.501 198.5,198C 200.306,200.137 201.64,199.97 202.5,197.5C 203.151,198.091 203.818,198.757 204.5,199.5C 205.17,197.709 205.837,196.042 206.5,194.5 Z"/></g>
<g><path style="opacity:1" fill="#f3f3f3" d="M 206.5,194.5 C 207.5,194.5 208.5,194.5 209.5,194.5C 209.5,201.833 209.5,209.167 209.5,216.5C 208.5,216.5 207.5,216.5 206.5,216.5C 206.5,209.167 206.5,201.833 206.5,194.5 Z"/></g>
<g><path style="opacity:1" fill="#6f6c6d" d="M 160.5,197.5 C 160.5,203.833 160.5,210.167 160.5,216.5C 159.842,215.602 159.176,214.602 158.5,213.5C 157.824,214.602 157.158,215.602 156.5,216.5C 156.5,215.5 156.5,214.5 156.5,213.5C 149.978,213.823 143.645,213.49 137.5,212.5C 144.508,212.666 151.508,212.5 158.5,212C 159.144,207.066 159.81,202.233 160.5,197.5 Z"/></g>
<g><path style="opacity:0.987" fill="#444041" d="M 78.5,189.5 C 79.3267,194.651 79.8267,199.984 80,205.5C 81.0928,201.831 81.9262,198.164 82.5,194.5C 82.3337,201.175 82.5004,207.842 83,214.5C 83.5,215 84,215.5 84.5,216C 90.1569,216.499 95.8236,216.666 101.5,216.5C 101.5,218.167 101.5,219.833 101.5,221.5C 96.5,221.5 91.5,221.5 86.5,221.5C 86.5,222.833 86.5,224.167 86.5,225.5C 86.6107,226.117 86.944,226.617 87.5,227C 69.8793,232.488 52.2127,237.822 34.5,243C 33.7476,243.671 33.4142,244.504 33.5,245.5C 29.7621,242.09 26.7621,238.09 24.5,233.5C 24.5858,232.504 24.2524,231.671 23.5,231C 40.0701,225.532 56.7368,220.366 73.5,215.5C 74.487,212.232 74.8204,208.898 74.5,205.5C 67.8333,205.5 61.1667,205.5 54.5,205.5C 54.815,209.371 54.4816,213.038 53.5,216.5C 53.5,212.5 53.5,208.5 53.5,204.5C 60.8333,204.5 68.1667,204.5 75.5,204.5C 75.5,208.5 75.5,212.5 75.5,216.5C 76.5,216.5 77.5,216.5 78.5,216.5C 78.5,207.5 78.5,198.5 78.5,189.5 Z"/></g>
<g><path style="opacity:0.985" fill="#5a5758" d="M 285.5,213.5 C 283.177,220.153 279.844,226.153 275.5,231.5C 275.53,230.503 275.03,229.836 274,229.5C 212.086,248.103 150.253,266.936 88.5,286C 89.056,286.383 89.3893,286.883 89.5,287.5C 82.6819,284.998 76.3486,281.665 70.5,277.5C 141.793,255.841 213.126,234.175 284.5,212.5C 285.107,212.624 285.44,212.957 285.5,213.5 Z"/></g>
<g><path style="opacity:1" fill="#c0bfbf" d="M 232.5,221.5 C 227.983,222.166 223.317,222.833 218.5,223.5C 223.456,224.494 228.456,224.827 233.5,224.5C 228.36,225.488 223.026,225.821 217.5,225.5C 217.5,224.167 217.5,222.833 217.5,221.5C 222.5,221.5 227.5,221.5 232.5,221.5 Z"/></g>
<g><path style="opacity:0.983" fill="#605e5e" d="M 275.5,231.5 C 272.655,236.527 269.321,241.194 265.5,245.5C 212.638,260.62 159.971,276.454 107.5,293C 108.056,293.383 108.389,293.883 108.5,294.5C 101.801,292.918 95.4676,290.584 89.5,287.5C 89.3893,286.883 89.056,286.383 88.5,286C 150.253,266.936 212.086,248.103 274,229.5C 275.03,229.836 275.53,230.503 275.5,231.5 Z"/></g>
<g><path style="opacity:0.969" fill="#676465" d="M 265.5,245.5 C 259.104,254.231 251.438,261.564 242.5,267.5C 208.578,277.107 174.745,287.107 141,297.5C 139.97,297.836 139.47,298.503 139.5,299.5C 136.833,299.5 134.167,299.5 131.5,299.5C 123.798,298.491 116.131,296.824 108.5,294.5C 108.389,293.883 108.056,293.383 107.5,293C 159.971,276.454 212.638,260.62 265.5,245.5 Z"/></g>
<g><path style="opacity:0.96" fill="#6c696a" d="M 242.5,267.5 C 220.534,285.159 195.534,295.826 167.5,299.5C 158.167,299.5 148.833,299.5 139.5,299.5C 139.47,298.503 139.97,297.836 141,297.5C 174.745,287.107 208.578,277.107 242.5,267.5 Z"/></g>
</svg>
