<?xml version="1.0" encoding="UTF-8"?>
<svg xmlns="http://www.w3.org/2000/svg" xmlns:xlink="http://www.w3.org/1999/xlink" width="50px" height="50px" viewBox="0 0 50 50" version="1.1">
<defs>
<filter id="alpha" filterUnits="objectBoundingBox" x="0%" y="0%" width="100%" height="100%">
  <feColorMatrix type="matrix" in="SourceGraphic" values="0 0 0 0 1 0 0 0 0 1 0 0 0 0 1 0 0 0 1 0"/>
</filter>
<mask id="mask0">
  <g filter="url(#alpha)">
<rect x="0" y="0" width="50" height="50" style="fill:rgb(0%,0%,0%);fill-opacity:0.984314;stroke:none;"/>
  </g>
</mask>
<clipPath id="clip1">
  <rect x="0" y="0" width="50" height="50"/>
</clipPath>
<g id="surface5" clip-path="url(#clip1)">
<path style=" stroke:none;fill-rule:evenodd;fill:rgb(13.72549%,12.156863%,12.54902%);fill-opacity:1;" d="M 22.082031 -0.0820312 C 23.972656 -0.0820312 25.859375 -0.0820312 27.75 -0.0820312 C 36.3125 1.097656 42.703125 5.433594 46.917969 12.917969 C 46.757812 12.839844 46.617188 12.730469 46.5 12.582031 C 40.5625 14.480469 34.589844 16.257812 28.582031 17.917969 C 28.332031 17.496094 28.050781 17.078125 27.75 16.667969 C 27.972656 16.445312 28.195312 16.222656 28.417969 16 C 29.292969 16.089844 29.851562 15.730469 30.082031 14.917969 C 29.785156 14.105469 29.230469 13.882812 28.417969 14.25 C 28.066406 14.597656 28.011719 14.984375 28.25 15.417969 C 28.058594 15.691406 27.835938 15.941406 27.582031 16.167969 C 27.023438 16.027344 26.46875 15.832031 25.917969 15.582031 C 26.082031 16.058594 26.414062 16.394531 26.917969 16.582031 C 26.898438 16.765625 26.785156 16.875 26.582031 16.917969 C 25.105469 17.34375 23.632812 17.789062 22.167969 18.25 C 21.996094 18.304688 21.910156 18.417969 21.917969 18.582031 C 21.917969 19.082031 21.917969 19.582031 21.917969 20.082031 C 21.703125 19.882812 21.59375 19.605469 21.582031 19.25 C 21.628906 18.746094 21.683594 18.246094 21.75 17.75 C 22.515625 16.253906 23.738281 15.644531 25.417969 15.917969 C 25.417969 15.75 25.417969 15.582031 25.417969 15.417969 C 24.972656 15.417969 24.527344 15.417969 24.082031 15.417969 C 24.058594 14.6875 24.03125 13.964844 24 13.25 C 24.441406 12.542969 25.082031 12.238281 25.917969 12.332031 C 26.582031 11.722656 26.582031 11.109375 25.917969 10.5 C 24.828125 10.421875 24.355469 10.949219 24.5 12.082031 C 24.160156 12.394531 23.855469 12.726562 23.582031 13.082031 C 23.429688 13.890625 23.429688 14.722656 23.582031 15.582031 C 23.109375 15.695312 22.691406 15.917969 22.332031 16.25 C 22.082031 16 21.832031 15.75 21.582031 15.5 C 21.847656 14.917969 21.679688 14.476562 21.082031 14.167969 C 20.035156 14.0625 19.621094 14.53125 19.832031 15.582031 C 20.210938 16.085938 20.683594 16.199219 21.25 15.917969 C 21.527344 16.082031 21.75 16.304688 21.917969 16.582031 C 21.640625 17.027344 21.359375 17.472656 21.082031 17.917969 C 20.246094 18.082031 19.414062 18.109375 18.582031 18 C 18.304688 18.277344 18.027344 18.554688 17.75 18.832031 C 17.359375 18.890625 16.972656 18.945312 16.582031 19 C 15.9375 19.542969 15.9375 20.097656 16.582031 20.667969 C 17.75 20.820312 18.277344 20.292969 18.167969 19.082031 C 18.359375 18.890625 18.554688 18.695312 18.75 18.5 C 19.46875 18.488281 20.191406 18.515625 20.917969 18.582031 C 20.867188 19.0625 20.921875 19.507812 21.082031 19.917969 C 21.082031 20.082031 21.082031 20.25 21.082031 20.417969 C 13.984375 22.398438 6.929688 24.511719 -0.0820312 26.75 C -0.0820312 25.027344 -0.0820312 23.304688 -0.0820312 21.582031 C 1.835938 10.96875 7.949219 3.996094 18.25 0.667969 C 19.539062 0.359375 20.820312 0.109375 22.082031 -0.0820312 Z M 22.082031 -0.0820312 "/>
</g>
<mask id="mask1">
  <g filter="url(#alpha)">
<rect x="0" y="0" width="50" height="50" style="fill:rgb(0%,0%,0%);fill-opacity:0.992157;stroke:none;"/>
  </g>
</mask>
<clipPath id="clip2">
  <rect x="0" y="0" width="50" height="50"/>
</clipPath>
<g id="surface8" clip-path="url(#clip2)">
<path style=" stroke:none;fill-rule:evenodd;fill:rgb(15.686275%,14.117647%,14.509804%);fill-opacity:1;" d="M 46.917969 12.917969 C 47.390625 13.640625 47.777344 14.417969 48.082031 15.25 C 47.917969 15.144531 47.753906 15.03125 47.582031 14.917969 C 42.984375 16.265625 38.402344 17.65625 33.832031 19.082031 C 33.800781 18.769531 33.71875 18.492188 33.582031 18.25 C 33.507812 18.089844 33.398438 17.953125 33.25 17.832031 C 32.058594 17.496094 31.613281 17.914062 31.917969 19.082031 C 31.613281 19.46875 31.28125 19.832031 30.917969 20.167969 C 30.363281 20.195312 29.808594 20.167969 29.25 20.082031 C 29.132812 19.933594 28.964844 19.878906 28.75 19.917969 C 28.800781 19.382812 28.746094 18.882812 28.582031 18.417969 C 28.582031 18.25 28.582031 18.082031 28.582031 17.917969 C 34.589844 16.257812 40.5625 14.480469 46.5 12.582031 C 46.617188 12.730469 46.757812 12.839844 46.917969 12.917969 Z M 46.917969 12.917969 "/>
</g>
<mask id="mask2">
  <g filter="url(#alpha)">
<rect x="0" y="0" width="50" height="50" style="fill:rgb(0%,0%,0%);fill-opacity:0.992157;stroke:none;"/>
  </g>
</mask>
<clipPath id="clip3">
  <rect x="0" y="0" width="50" height="50"/>
</clipPath>
<g id="surface11" clip-path="url(#clip3)">
<path style=" stroke:none;fill-rule:evenodd;fill:rgb(17.647059%,16.078431%,16.470588%);fill-opacity:1;" d="M 48.082031 15.25 C 48.515625 16.214844 48.847656 17.214844 49.082031 18.25 C 48.957031 18.101562 48.789062 17.992188 48.582031 17.917969 C 42.472656 19.75 36.359375 21.582031 30.25 23.417969 C 30.136719 23.234375 30.027344 23.066406 29.917969 22.917969 C 29.839844 22.757812 29.730469 22.617188 29.582031 22.5 C 28.957031 22.53125 28.429688 22.335938 28 21.917969 C 28.125 21.433594 28.265625 20.933594 28.417969 20.417969 C 29.359375 20.566406 30.300781 20.59375 31.25 20.5 C 31.777344 19.753906 32.5 19.363281 33.417969 19.332031 C 33.570312 18.992188 33.625 18.632812 33.582031 18.25 C 33.71875 18.492188 33.800781 18.769531 33.832031 19.082031 C 38.402344 17.65625 42.984375 16.265625 47.582031 14.917969 C 47.753906 15.03125 47.917969 15.144531 48.082031 15.25 Z M 48.082031 15.25 "/>
</g>
<mask id="mask3">
  <g filter="url(#alpha)">
<rect x="0" y="0" width="50" height="50" style="fill:rgb(0%,0%,0%);fill-opacity:0.992157;stroke:none;"/>
  </g>
</mask>
<clipPath id="clip4">
  <rect x="0" y="0" width="50" height="50"/>
</clipPath>
<g id="surface14" clip-path="url(#clip4)">
<path style=" stroke:none;fill-rule:evenodd;fill:rgb(19.607843%,18.039216%,18.431373%);fill-opacity:1;" d="M 49.082031 18.25 C 49.296875 18.886719 49.464844 19.550781 49.582031 20.25 C 49.480469 20.230469 49.398438 20.175781 49.332031 20.082031 C 41.398438 22.59375 33.425781 24.980469 25.417969 27.25 C 25.457031 27.035156 25.402344 26.867188 25.25 26.75 C 25.460938 26.316406 25.738281 25.929688 26.082031 25.582031 C 26.203125 24.722656 26.203125 23.835938 26.082031 22.917969 C 26.59375 22.703125 27.0625 22.425781 27.5 22.082031 C 27.992188 22.515625 28.214844 23.070312 28.167969 23.75 C 28.660156 24.347656 29.21875 24.402344 29.832031 23.917969 C 29.914062 23.585938 29.945312 23.253906 29.917969 22.917969 C 30.027344 23.066406 30.136719 23.234375 30.25 23.417969 C 36.359375 21.582031 42.472656 19.75 48.582031 17.917969 C 48.789062 17.992188 48.957031 18.101562 49.082031 18.25 Z M 49.082031 18.25 "/>
</g>
<mask id="mask4">
  <g filter="url(#alpha)">
<rect x="0" y="0" width="50" height="50" style="fill:rgb(0%,0%,0%);fill-opacity:0.996078;stroke:none;"/>
  </g>
</mask>
<clipPath id="clip5">
  <rect x="0" y="0" width="50" height="50"/>
</clipPath>
<g id="surface17" clip-path="url(#clip5)">
<path style=" stroke:none;fill-rule:evenodd;fill:rgb(23.137255%,21.960784%,22.352941%);fill-opacity:1;" d="M 49.917969 22.417969 C 49.917969 23.195312 49.917969 23.972656 49.917969 24.75 C 41.769531 27.066406 33.601562 29.484375 25.417969 32 C 24.5625 32.152344 23.730469 32.292969 22.917969 32.417969 C 22.695312 32.527344 22.527344 32.695312 22.417969 32.917969 C 22.28125 33.273438 22.199219 33.660156 22.167969 34.082031 C 22.136719 33.660156 22.050781 33.273438 21.917969 32.917969 C 21.839844 32.757812 21.730469 32.617188 21.582031 32.5 C 20.417969 32.417969 19.25 32.390625 18.082031 32.417969 C 18.082031 33.140625 18.082031 33.859375 18.082031 34.582031 C 18.003906 34.921875 17.839844 35.199219 17.582031 35.417969 C 17.582031 34.417969 17.582031 33.417969 17.582031 32.417969 C 17.359375 32.417969 17.140625 32.417969 16.917969 32.417969 C 16.917969 33.472656 16.917969 34.527344 16.917969 35.582031 C 16.039062 35.632812 15.179688 35.578125 14.332031 35.417969 C 14.25 34.417969 14.222656 33.417969 14.25 32.417969 C 14.359375 32.46875 14.46875 32.523438 14.582031 32.582031 C 26.183594 29.050781 37.792969 25.550781 49.417969 22.082031 C 49.625 22.15625 49.789062 22.269531 49.917969 22.417969 Z M 49.917969 22.417969 "/>
</g>
<mask id="mask5">
  <g filter="url(#alpha)">
<rect x="0" y="0" width="50" height="50" style="fill:rgb(0%,0%,0%);fill-opacity:0.992157;stroke:none;"/>
  </g>
</mask>
<clipPath id="clip6">
  <rect x="0" y="0" width="50" height="50"/>
</clipPath>
<g id="surface20" clip-path="url(#clip6)">
<path style=" stroke:none;fill-rule:evenodd;fill:rgb(18.039216%,16.470588%,16.862745%);fill-opacity:1;" d="M 24.082031 23.082031 C 24.566406 23.207031 25.066406 23.320312 25.582031 23.417969 C 25.738281 24.078125 25.769531 24.742188 25.667969 25.417969 C 25.472656 25.609375 25.277344 25.804688 25.082031 26 C 24.355469 25.925781 23.800781 26.175781 23.417969 26.75 C 15.96875 28.792969 8.578125 31.015625 1.25 33.417969 C 0.835938 32.457031 0.558594 31.457031 0.417969 30.417969 C 6.824219 28.371094 13.265625 26.371094 19.75 24.417969 C 19.882812 24.339844 19.9375 24.230469 19.917969 24.082031 C 21.144531 24.613281 21.726562 24.171875 21.667969 22.75 C 21.835938 22.550781 22.03125 22.386719 22.25 22.25 C 22.800781 22.664062 23.414062 22.941406 24.082031 23.082031 Z M 24.082031 23.082031 "/>
</g>
<mask id="mask6">
  <g filter="url(#alpha)">
<rect x="0" y="0" width="50" height="50" style="fill:rgb(0%,0%,0%);fill-opacity:0.996078;stroke:none;"/>
  </g>
</mask>
<clipPath id="clip7">
  <rect x="0" y="0" width="50" height="50"/>
</clipPath>
<g id="surface23" clip-path="url(#clip7)">
<path style=" stroke:none;fill-rule:evenodd;fill:rgb(16.078431%,14.509804%,14.901961%);fill-opacity:1;" d="M 21.082031 20.417969 C 21.054688 20.582031 21.109375 20.691406 21.25 20.75 C 21.40625 21.148438 21.628906 21.507812 21.917969 21.832031 C 21.601562 22.410156 21.15625 22.605469 20.582031 22.417969 C 19.613281 22.691406 19.390625 23.246094 19.917969 24.082031 C 19.9375 24.230469 19.882812 24.339844 19.75 24.417969 C 13.265625 26.371094 6.824219 28.371094 0.417969 30.417969 C 0.210938 29.703125 0.0429688 28.980469 -0.0820312 28.25 C -0.0820312 27.75 -0.0820312 27.25 -0.0820312 26.75 C 6.929688 24.511719 13.984375 22.398438 21.082031 20.417969 Z M 21.082031 20.417969 "/>
</g>
<mask id="mask7">
  <g filter="url(#alpha)">
<rect x="0" y="0" width="50" height="50" style="fill:rgb(0%,0%,0%);fill-opacity:0.996078;stroke:none;"/>
  </g>
</mask>
<clipPath id="clip8">
  <rect x="0" y="0" width="50" height="50"/>
</clipPath>
<g id="surface26" clip-path="url(#clip8)">
<path style=" stroke:none;fill-rule:evenodd;fill:rgb(25.490196%,24.313725%,24.705882%);fill-opacity:1;" d="M 49.917969 24.75 C 49.917969 25.582031 49.917969 26.417969 49.917969 27.25 C 45.042969 28.644531 40.179688 30.085938 35.332031 31.582031 C 35.164062 31.492188 35.027344 31.378906 34.917969 31.25 C 34.445312 30.996094 34.222656 31.160156 34.25 31.75 C 34.027344 31.964844 33.75 32.105469 33.417969 32.167969 C 32.386719 32.195312 31.386719 32.277344 30.417969 32.417969 C 30.195312 32.527344 30.027344 32.695312 29.917969 32.917969 C 29.804688 32.75 29.695312 32.582031 29.582031 32.417969 C 28.75 32.390625 27.914062 32.417969 27.082031 32.5 C 26.9375 32.617188 26.824219 32.757812 26.75 32.917969 C 26.636719 33.707031 26.523438 34.511719 26.417969 35.332031 C 25.25 35.417969 24.085938 35.445312 22.917969 35.417969 C 22.917969 35.140625 22.917969 34.859375 22.917969 34.582031 C 24.027344 34.582031 25.140625 34.582031 26.25 34.582031 C 26.300781 33.992188 26.246094 33.4375 26.082031 32.917969 C 26.007812 32.757812 25.898438 32.617188 25.75 32.5 C 24.808594 32.417969 23.863281 32.390625 22.917969 32.417969 C 23.730469 32.292969 24.5625 32.152344 25.417969 32 C 33.601562 29.484375 41.769531 27.066406 49.917969 24.75 Z M 49.917969 24.75 "/>
</g>
<mask id="mask8">
  <g filter="url(#alpha)">
<rect x="0" y="0" width="50" height="50" style="fill:rgb(0%,0%,0%);fill-opacity:0.996078;stroke:none;"/>
  </g>
</mask>
<clipPath id="clip9">
  <rect x="0" y="0" width="50" height="50"/>
</clipPath>
<g id="surface29" clip-path="url(#clip9)">
<path style=" stroke:none;fill-rule:evenodd;fill:rgb(20.784314%,19.607843%,19.607843%);fill-opacity:1;" d="M 49.582031 20.25 C 49.683594 20.824219 49.792969 21.378906 49.917969 21.917969 C 49.917969 22.082031 49.917969 22.25 49.917969 22.417969 C 49.789062 22.269531 49.625 22.15625 49.417969 22.082031 C 37.792969 25.550781 26.183594 29.050781 14.582031 32.582031 C 14.46875 32.523438 14.359375 32.46875 14.25 32.417969 C 14.082031 32.417969 13.917969 32.417969 13.75 32.417969 C 13.65625 33.027344 13.515625 33.636719 13.332031 34.25 C 13.304688 33.332031 13.222656 32.441406 13.082031 31.582031 C 12.964844 31.433594 12.796875 31.378906 12.582031 31.417969 C 12.582031 32.140625 12.582031 32.859375 12.582031 33.582031 C 11.359375 33.582031 10.140625 33.582031 8.917969 33.582031 C 8.917969 32.859375 8.917969 32.140625 8.917969 31.417969 C 8.703125 31.378906 8.535156 31.433594 8.417969 31.582031 C 8.300781 32.539062 8.191406 33.511719 8.082031 34.5 C 6.417969 35 4.75 35.5 3.082031 36 C 2.816406 36.175781 2.703125 36.425781 2.75 36.75 C 2.125 35.707031 1.625 34.597656 1.25 33.417969 C 8.578125 31.015625 15.96875 28.792969 23.417969 26.75 C 23.394531 27.109375 23.480469 27.441406 23.667969 27.75 C 24.726562 28.210938 25.257812 27.878906 25.25 26.75 C 25.402344 26.867188 25.457031 27.035156 25.417969 27.25 C 33.425781 24.980469 41.398438 22.59375 49.332031 20.082031 C 49.398438 20.175781 49.480469 20.230469 49.582031 20.25 Z M 49.582031 20.25 "/>
</g>
<mask id="mask9">
  <g filter="url(#alpha)">
<rect x="0" y="0" width="50" height="50" style="fill:rgb(0%,0%,0%);fill-opacity:0.996078;stroke:none;"/>
  </g>
</mask>
<clipPath id="clip10">
  <rect x="0" y="0" width="50" height="50"/>
</clipPath>
<g id="surface32" clip-path="url(#clip10)">
<path style=" stroke:none;fill-rule:evenodd;fill:rgb(27.843137%,26.666667%,27.058824%);fill-opacity:1;" d="M 49.917969 27.25 C 49.917969 27.527344 49.917969 27.804688 49.917969 28.082031 C 49.789062 28.8125 49.625 29.535156 49.417969 30.25 C 49.410156 30.097656 49.328125 29.988281 49.167969 29.917969 C 46.152344 30.898438 43.125 31.730469 40.082031 32.417969 C 39.988281 32.972656 39.847656 33.527344 39.667969 34.082031 C 39.636719 33.660156 39.550781 33.273438 39.417969 32.917969 C 39.339844 32.757812 39.230469 32.617188 39.082031 32.5 C 38.027344 32.390625 36.972656 32.390625 35.917969 32.5 C 35.769531 32.617188 35.660156 32.757812 35.582031 32.917969 C 35.472656 33.28125 35.363281 33.671875 35.25 34.082031 C 35.140625 33.503906 35.027344 32.949219 34.917969 32.417969 C 34.75 32.417969 34.582031 32.417969 34.417969 32.417969 C 34.304688 32.671875 34.195312 32.953125 34.082031 33.25 C 33.96875 33.125 33.859375 33.015625 33.75 32.917969 C 33.675781 32.757812 33.5625 32.617188 33.417969 32.5 C 32.417969 32.417969 31.417969 32.390625 30.417969 32.417969 C 31.386719 32.277344 32.386719 32.195312 33.417969 32.167969 C 33.75 32.105469 34.027344 31.964844 34.25 31.75 C 34.472656 31.75 34.695312 31.75 34.917969 31.75 C 34.917969 31.582031 34.917969 31.417969 34.917969 31.25 C 35.027344 31.378906 35.164062 31.492188 35.332031 31.582031 C 40.179688 30.085938 45.042969 28.644531 49.917969 27.25 Z M 49.917969 27.25 "/>
</g>
<mask id="mask10">
  <g filter="url(#alpha)">
<rect x="0" y="0" width="50" height="50" style="fill:rgb(0%,0%,0%);fill-opacity:0.964706;stroke:none;"/>
  </g>
</mask>
<clipPath id="clip11">
  <rect x="0" y="0" width="50" height="50"/>
</clipPath>
<g id="surface35" clip-path="url(#clip11)">
<path style=" stroke:none;fill-rule:evenodd;fill:rgb(30.588235%,29.411765%,29.803922%);fill-opacity:1;" d="M 49.417969 30.25 C 49.316406 31.265625 49.039062 32.210938 48.582031 33.082031 C 48.515625 32.980469 48.402344 32.925781 48.25 32.917969 C 46.816406 33.359375 45.371094 33.746094 43.917969 34.082031 C 43.96875 33.65625 43.910156 33.269531 43.75 32.917969 C 43.675781 32.757812 43.5625 32.617188 43.417969 32.5 C 42.308594 32.417969 41.195312 32.390625 40.082031 32.417969 C 43.125 31.730469 46.152344 30.898438 49.167969 29.917969 C 49.328125 29.988281 49.410156 30.097656 49.417969 30.25 Z M 49.417969 30.25 "/>
</g>
<mask id="mask11">
  <g filter="url(#alpha)">
<rect x="0" y="0" width="50" height="50" style="fill:rgb(0%,0%,0%);fill-opacity:0.992157;stroke:none;"/>
  </g>
</mask>
<clipPath id="clip12">
  <rect x="0" y="0" width="50" height="50"/>
</clipPath>
<g id="surface38" clip-path="url(#clip12)">
<path style=" stroke:none;fill-rule:evenodd;fill:rgb(33.333333%,32.156863%,32.54902%);fill-opacity:1;" d="M 40.082031 32.417969 C 40.082031 33.640625 40.082031 34.859375 40.082031 36.082031 C 40.25 36.082031 40.417969 36.082031 40.582031 36.082031 C 40.582031 35.027344 40.582031 33.972656 40.582031 32.917969 C 41.472656 32.917969 42.359375 32.917969 43.25 32.917969 C 43.25 33.972656 43.25 35.027344 43.25 36.082031 C 43.417969 36.082031 43.582031 36.082031 43.75 36.082031 C 43.75 35.027344 43.75 33.972656 43.75 32.917969 C 43.910156 33.269531 43.96875 33.65625 43.917969 34.082031 C 45.371094 33.746094 46.816406 33.359375 48.25 32.917969 C 48.402344 32.925781 48.515625 32.980469 48.582031 33.082031 C 48.382812 33.980469 48.050781 34.8125 47.582031 35.582031 C 47.574219 35.492188 47.519531 35.4375 47.417969 35.417969 C 35.519531 39.027344 23.632812 42.640625 11.75 46.25 C 10.9375 45.871094 10.21875 45.371094 9.582031 44.75 C 10.066406 44.390625 10.621094 44.140625 11.25 44 C 19.757812 41.46875 28.257812 38.914062 36.75 36.332031 C 36.492188 36.296875 36.269531 36.214844 36.082031 36.082031 C 36.972656 36.082031 37.859375 36.082031 38.75 36.082031 C 38.75 36.359375 38.75 36.640625 38.75 36.917969 C 37.917969 36.917969 37.082031 36.917969 36.25 36.917969 C 36.25 37.140625 36.25 37.359375 36.25 37.582031 C 37.171875 37.636719 38.058594 37.582031 38.917969 37.417969 C 39.078125 37.339844 39.214844 37.230469 39.332031 37.082031 C 39.417969 35.695312 39.445312 34.308594 39.417969 32.917969 C 39.550781 33.273438 39.636719 33.660156 39.667969 34.082031 C 39.847656 33.527344 39.988281 32.972656 40.082031 32.417969 Z M 40.082031 32.417969 "/>
</g>
<mask id="mask12">
  <g filter="url(#alpha)">
<rect x="0" y="0" width="50" height="50" style="fill:rgb(0%,0%,0%);fill-opacity:0.992157;stroke:none;"/>
  </g>
</mask>
<clipPath id="clip13">
  <rect x="0" y="0" width="50" height="50"/>
</clipPath>
<g id="surface41" clip-path="url(#clip13)">
<path style=" stroke:none;fill-rule:evenodd;fill:rgb(29.019608%,27.843137%,28.235294%);fill-opacity:1;" d="M 29.582031 32.417969 C 29.695312 32.582031 29.804688 32.75 29.917969 32.917969 C 29.800781 33.546875 29.96875 34.074219 30.417969 34.5 C 31.359375 34.582031 32.304688 34.609375 33.25 34.582031 C 33.289062 34.910156 33.234375 35.21875 33.082031 35.5 C 32.113281 35.660156 31.167969 35.578125 30.25 35.25 C 30.140625 35.304688 30.027344 35.359375 29.917969 35.417969 C 29.996094 35.800781 30.214844 36.023438 30.582031 36.082031 C 30.996094 36.21875 31.4375 36.304688 31.917969 36.332031 C 24.136719 38.695312 16.359375 41.054688 8.582031 43.417969 C 8.4375 43.554688 8.378906 43.722656 8.417969 43.917969 C 7.351562 43.019531 6.40625 42.019531 5.582031 40.917969 C 5.570312 40.75 5.625 40.613281 5.75 40.5 C 8.703125 39.636719 11.648438 38.746094 14.582031 37.832031 C 14.492188 37.769531 14.433594 37.6875 14.417969 37.582031 C 15.308594 37.609375 16.195312 37.582031 17.082031 37.5 C 17.222656 37.359375 17.359375 37.222656 17.5 37.082031 C 17.582031 36.53125 17.609375 35.976562 17.582031 35.417969 C 17.839844 35.199219 18.003906 34.921875 18.082031 34.582031 C 18.082031 35.582031 18.082031 36.582031 18.082031 37.582031 C 18.304688 37.582031 18.527344 37.582031 18.75 37.582031 C 18.75 37.082031 18.75 36.582031 18.75 36.082031 C 19.695312 36.109375 20.640625 36.082031 21.582031 36 C 21.667969 35.917969 21.75 35.832031 21.832031 35.75 C 21.917969 34.808594 21.945312 33.863281 21.917969 32.917969 C 22.050781 33.273438 22.136719 33.660156 22.167969 34.082031 C 22.199219 33.660156 22.28125 33.273438 22.417969 32.917969 C 22.390625 33.863281 22.417969 34.808594 22.5 35.75 C 22.582031 35.832031 22.667969 35.917969 22.75 36 C 23.859375 36.082031 24.972656 36.109375 26.082031 36.082031 C 26.191406 35.933594 26.304688 35.765625 26.417969 35.582031 C 26.53125 35.765625 26.640625 35.933594 26.75 36.082031 C 26.917969 36.082031 27.082031 36.082031 27.25 36.082031 C 27.222656 35.082031 27.25 34.082031 27.332031 33.082031 C 28.066406 32.921875 28.816406 32.867188 29.582031 32.917969 C 29.582031 32.75 29.582031 32.582031 29.582031 32.417969 Z M 29.582031 32.417969 "/>
</g>
<mask id="mask13">
  <g filter="url(#alpha)">
<rect x="0" y="0" width="50" height="50" style="fill:rgb(0%,0%,0%);fill-opacity:0.980392;stroke:none;"/>
  </g>
</mask>
<clipPath id="clip14">
  <rect x="0" y="0" width="50" height="50"/>
</clipPath>
<g id="surface44" clip-path="url(#clip14)">
<path style=" stroke:none;fill-rule:evenodd;fill:rgb(23.921569%,22.352941%,22.745098%);fill-opacity:1;" d="M 8.417969 31.582031 C 8.417969 33.082031 8.417969 34.582031 8.417969 36.082031 C 8.582031 36.082031 8.75 36.082031 8.917969 36.082031 C 9.082031 35.507812 9.136719 34.894531 9.082031 34.25 C 10.195312 34.25 11.304688 34.25 12.417969 34.25 C 12.46875 34.816406 12.414062 35.371094 12.25 35.917969 C 9.457031 36.726562 6.679688 37.589844 3.917969 38.5 C 4.042969 38.613281 4.097656 38.75 4.082031 38.917969 C 3.515625 38.28125 3.070312 37.558594 2.75 36.75 C 2.703125 36.425781 2.816406 36.175781 3.082031 36 C 4.75 35.5 6.417969 35 8.082031 34.5 C 8.191406 33.511719 8.300781 32.539062 8.417969 31.582031 Z M 8.417969 31.582031 "/>
</g>
<mask id="mask14">
  <g filter="url(#alpha)">
<rect x="0" y="0" width="50" height="50" style="fill:rgb(0%,0%,0%);fill-opacity:0.992157;stroke:none;"/>
  </g>
</mask>
<clipPath id="clip15">
  <rect x="0" y="0" width="50" height="50"/>
</clipPath>
<g id="surface47" clip-path="url(#clip15)">
<path style=" stroke:none;fill-rule:evenodd;fill:rgb(31.372549%,30.196078%,30.588235%);fill-opacity:1;" d="M 34.417969 32.417969 C 34.417969 33.640625 34.417969 34.859375 34.417969 36.082031 C 34.582031 36.082031 34.75 36.082031 34.917969 36.082031 C 34.917969 34.859375 34.917969 33.640625 34.917969 32.417969 C 35.027344 32.949219 35.140625 33.503906 35.25 34.082031 C 35.363281 33.671875 35.472656 33.28125 35.582031 32.917969 C 35.554688 33.808594 35.582031 34.695312 35.667969 35.582031 C 35.730469 35.824219 35.867188 35.992188 36.082031 36.082031 C 36.269531 36.214844 36.492188 36.296875 36.75 36.332031 C 28.257812 38.914062 19.757812 41.46875 11.25 44 C 10.621094 44.140625 10.066406 44.390625 9.582031 44.75 C 9.148438 44.535156 8.757812 44.257812 8.417969 43.917969 C 8.378906 43.722656 8.4375 43.554688 8.582031 43.417969 C 16.359375 41.054688 24.136719 38.695312 31.917969 36.332031 C 31.4375 36.304688 30.996094 36.21875 30.582031 36.082031 C 31.53125 36.109375 32.472656 36.082031 33.417969 36 C 33.898438 35.289062 33.839844 34.621094 33.25 34 C 32.363281 33.917969 31.472656 33.890625 30.582031 33.917969 C 30.582031 33.582031 30.582031 33.25 30.582031 32.917969 C 31.417969 32.890625 32.25 32.917969 33.082031 33 C 33.382812 33.355469 33.605469 33.328125 33.75 32.917969 C 33.859375 33.015625 33.96875 33.125 34.082031 33.25 C 34.195312 32.953125 34.304688 32.671875 34.417969 32.417969 Z M 34.417969 32.417969 "/>
</g>
<mask id="mask15">
  <g filter="url(#alpha)">
<rect x="0" y="0" width="50" height="50" style="fill:rgb(0%,0%,0%);fill-opacity:0.988235;stroke:none;"/>
  </g>
</mask>
<clipPath id="clip16">
  <rect x="0" y="0" width="50" height="50"/>
</clipPath>
<g id="surface50" clip-path="url(#clip16)">
<path style=" stroke:none;fill-rule:evenodd;fill:rgb(26.666667%,25.098039%,25.490196%);fill-opacity:1;" d="M 13.082031 31.582031 C 13.222656 32.441406 13.304688 33.332031 13.332031 34.25 C 13.515625 33.636719 13.65625 33.027344 13.75 32.417969 C 13.722656 33.527344 13.75 34.640625 13.832031 35.75 C 13.917969 35.832031 14 35.917969 14.082031 36 C 15.027344 36.082031 15.96875 36.109375 16.917969 36.082031 C 16.917969 36.359375 16.917969 36.640625 16.917969 36.917969 C 16.082031 36.917969 15.25 36.917969 14.417969 36.917969 C 14.417969 37.140625 14.417969 37.359375 14.417969 37.582031 C 14.433594 37.6875 14.492188 37.769531 14.582031 37.832031 C 11.648438 38.746094 8.703125 39.636719 5.75 40.5 C 5.625 40.613281 5.570312 40.75 5.582031 40.917969 C 4.960938 40.347656 4.460938 39.683594 4.082031 38.917969 C 4.097656 38.75 4.042969 38.613281 3.917969 38.5 C 6.679688 37.589844 9.457031 36.726562 12.25 35.917969 C 12.414062 35.371094 12.46875 34.816406 12.417969 34.25 C 11.304688 34.25 10.195312 34.25 9.082031 34.25 C 9.136719 34.894531 9.082031 35.507812 8.917969 36.082031 C 8.917969 35.417969 8.917969 34.75 8.917969 34.082031 C 10.140625 34.082031 11.359375 34.082031 12.582031 34.082031 C 12.582031 34.75 12.582031 35.417969 12.582031 36.082031 C 12.75 36.082031 12.917969 36.082031 13.082031 36.082031 C 13.082031 34.582031 13.082031 33.082031 13.082031 31.582031 Z M 13.082031 31.582031 "/>
</g>
<mask id="mask16">
  <g filter="url(#alpha)">
<rect x="0" y="0" width="50" height="50" style="fill:rgb(0%,0%,0%);fill-opacity:0.984314;stroke:none;"/>
  </g>
</mask>
<clipPath id="clip17">
  <rect x="0" y="0" width="50" height="50"/>
</clipPath>
<g id="surface53" clip-path="url(#clip17)">
<path style=" stroke:none;fill-rule:evenodd;fill:rgb(35.294118%,34.117647%,34.509804%);fill-opacity:1;" d="M 47.582031 35.582031 C 47.195312 36.691406 46.640625 37.691406 45.917969 38.582031 C 45.921875 38.417969 45.839844 38.304688 45.667969 38.25 C 35.347656 41.351562 25.042969 44.488281 14.75 47.667969 C 14.84375 47.730469 14.898438 47.8125 14.917969 47.917969 C 13.78125 47.5 12.726562 46.945312 11.75 46.25 C 23.632812 42.640625 35.519531 39.027344 47.417969 35.417969 C 47.519531 35.4375 47.574219 35.492188 47.582031 35.582031 Z M 47.582031 35.582031 "/>
</g>
<mask id="mask17">
  <g filter="url(#alpha)">
<rect x="0" y="0" width="50" height="50" style="fill:rgb(0%,0%,0%);fill-opacity:0.984314;stroke:none;"/>
  </g>
</mask>
<clipPath id="clip18">
  <rect x="0" y="0" width="50" height="50"/>
</clipPath>
<g id="surface56" clip-path="url(#clip18)">
<path style=" stroke:none;fill-rule:evenodd;fill:rgb(37.647059%,36.862745%,36.862745%);fill-opacity:1;" d="M 45.917969 38.582031 C 45.441406 39.421875 44.886719 40.199219 44.25 40.917969 C 35.441406 43.4375 26.660156 46.074219 17.917969 48.832031 C 18.007812 48.898438 18.066406 48.980469 18.082031 49.082031 C 16.96875 48.820312 15.910156 48.429688 14.917969 47.917969 C 14.898438 47.8125 14.84375 47.730469 14.75 47.667969 C 25.042969 44.488281 35.347656 41.351562 45.667969 38.25 C 45.839844 38.304688 45.921875 38.417969 45.917969 38.582031 Z M 45.917969 38.582031 "/>
</g>
<mask id="mask18">
  <g filter="url(#alpha)">
<rect x="0" y="0" width="50" height="50" style="fill:rgb(0%,0%,0%);fill-opacity:0.968627;stroke:none;"/>
  </g>
</mask>
<clipPath id="clip19">
  <rect x="0" y="0" width="50" height="50"/>
</clipPath>
<g id="surface59" clip-path="url(#clip19)">
<path style=" stroke:none;fill-rule:evenodd;fill:rgb(40.392157%,39.215686%,39.607843%);fill-opacity:1;" d="M 44.25 40.917969 C 43.183594 42.371094 41.90625 43.59375 40.417969 44.582031 C 34.761719 46.183594 29.125 47.851562 23.5 49.582031 C 23.328125 49.640625 23.246094 49.75 23.25 49.917969 C 22.804688 49.917969 22.359375 49.917969 21.917969 49.917969 C 20.632812 49.75 19.355469 49.46875 18.082031 49.082031 C 18.066406 48.980469 18.007812 48.898438 17.917969 48.832031 C 26.660156 46.074219 35.441406 43.4375 44.25 40.917969 Z M 44.25 40.917969 "/>
</g>
<mask id="mask19">
  <g filter="url(#alpha)">
<rect x="0" y="0" width="50" height="50" style="fill:rgb(0%,0%,0%);fill-opacity:0.960784;stroke:none;"/>
  </g>
</mask>
<clipPath id="clip20">
  <rect x="0" y="0" width="50" height="50"/>
</clipPath>
<g id="surface62" clip-path="url(#clip20)">
<path style=" stroke:none;fill-rule:evenodd;fill:rgb(42.352941%,41.176471%,41.568627%);fill-opacity:1;" d="M 40.417969 44.582031 C 36.753906 47.527344 32.589844 49.304688 27.917969 49.917969 C 26.359375 49.917969 24.804688 49.917969 23.25 49.917969 C 23.246094 49.75 23.328125 49.640625 23.5 49.582031 C 29.125 47.851562 34.761719 46.183594 40.417969 44.582031 Z M 40.417969 44.582031 "/>
</g>
</defs>
<g id="surface1">
<use xlink:href="#surface5" mask="url(#mask0)"/>
<use xlink:href="#surface8" mask="url(#mask1)"/>
<path style=" stroke:none;fill-rule:evenodd;fill:rgb(37.647059%,36.078431%,36.470588%);fill-opacity:1;" d="M 23.582031 13.082031 C 23.6875 13.945312 23.6875 14.78125 23.582031 15.582031 C 23.429688 14.722656 23.429688 13.890625 23.582031 13.082031 Z M 23.582031 13.082031 "/>
<use xlink:href="#surface11" mask="url(#mask2)"/>
<path style=" stroke:none;fill-rule:evenodd;fill:rgb(88.235294%,87.843137%,87.843137%);fill-opacity:1;" d="M 21.75 17.75 C 21.5625 18.5 21.339844 19.222656 21.082031 19.917969 C 20.921875 19.507812 20.867188 19.0625 20.917969 18.582031 C 20.191406 18.515625 19.46875 18.488281 18.75 18.5 C 18.554688 18.695312 18.359375 18.890625 18.167969 19.082031 C 18.277344 20.292969 17.75 20.820312 16.582031 20.667969 C 15.9375 20.097656 15.9375 19.542969 16.582031 19 C 16.972656 18.945312 17.359375 18.890625 17.75 18.832031 C 18.027344 18.554688 18.304688 18.277344 18.582031 18 C 19.414062 18.109375 20.246094 18.082031 21.082031 17.917969 C 21.359375 17.472656 21.640625 17.027344 21.917969 16.582031 C 21.75 16.304688 21.527344 16.082031 21.25 15.917969 C 20.683594 16.199219 20.210938 16.085938 19.832031 15.582031 C 19.621094 14.53125 20.035156 14.0625 21.082031 14.167969 C 21.679688 14.476562 21.847656 14.917969 21.582031 15.5 C 21.832031 15.75 22.082031 16 22.332031 16.25 C 22.691406 15.917969 23.109375 15.695312 23.582031 15.582031 C 23.6875 14.78125 23.6875 13.945312 23.582031 13.082031 C 23.855469 12.726562 24.160156 12.394531 24.5 12.082031 C 24.355469 10.949219 24.828125 10.421875 25.917969 10.5 C 26.582031 11.109375 26.582031 11.722656 25.917969 12.332031 C 25.082031 12.238281 24.441406 12.542969 24 13.25 C 24.03125 13.964844 24.058594 14.6875 24.082031 15.417969 C 24.527344 15.417969 24.972656 15.417969 25.417969 15.417969 C 25.417969 15.582031 25.417969 15.75 25.417969 15.917969 C 23.738281 15.644531 22.515625 16.253906 21.75 17.75 Z M 21.75 17.75 "/>
<path style=" stroke:none;fill-rule:evenodd;fill:rgb(46.27451%,45.098039%,45.490196%);fill-opacity:1;" d="M 20.417969 15.417969 C 20.109375 14.75 20.332031 14.5 21.082031 14.667969 C 21.386719 15.445312 21.164062 15.695312 20.417969 15.417969 Z M 20.417969 15.417969 "/>
<path style=" stroke:none;fill-rule:evenodd;fill:rgb(92.54902%,92.54902%,92.54902%);fill-opacity:1;" d="M 20.417969 15.417969 C 20.34375 14.972656 20.511719 14.777344 20.917969 14.832031 C 21.117188 15.277344 20.949219 15.472656 20.417969 15.417969 Z M 20.417969 15.417969 "/>
<path style=" stroke:none;fill-rule:evenodd;fill:rgb(20.392157%,18.823529%,19.215686%);fill-opacity:1;" d="M 25.25 10.917969 C 25.890625 10.949219 26.058594 11.253906 25.75 11.832031 C 24.882812 11.925781 24.714844 11.617188 25.25 10.917969 Z M 25.25 10.917969 "/>
<use xlink:href="#surface14" mask="url(#mask3)"/>
<path style=" stroke:none;fill-rule:evenodd;fill:rgb(21.176471%,20%,20.392157%);fill-opacity:1;" d="M 16.75 19.25 C 17.527344 19.167969 17.75 19.476562 17.417969 20.167969 C 16.621094 20.300781 16.398438 19.996094 16.75 19.25 Z M 16.75 19.25 "/>
<path style=" stroke:none;fill-rule:evenodd;fill:rgb(18.431373%,16.862745%,17.254902%);fill-opacity:1;" d="M 26.917969 16.582031 C 28.691406 18.371094 28.691406 20.175781 26.917969 22 C 24.632812 23.199219 22.855469 22.699219 21.582031 20.5 C 21.363281 20.410156 21.253906 20.496094 21.25 20.75 C 21.109375 20.691406 21.054688 20.582031 21.082031 20.417969 C 21.082031 20.25 21.082031 20.082031 21.082031 19.917969 C 21.339844 19.222656 21.5625 18.5 21.75 17.75 C 21.683594 18.246094 21.628906 18.746094 21.582031 19.25 C 21.59375 19.605469 21.703125 19.882812 21.917969 20.082031 C 22.082031 20.082031 22.25 20.082031 22.417969 20.082031 C 22.417969 19.859375 22.417969 19.640625 22.417969 19.417969 C 22.695312 19.417969 22.972656 19.417969 23.25 19.417969 C 23.25 19.582031 23.25 19.75 23.25 19.917969 C 23.417969 19.917969 23.582031 19.917969 23.75 19.917969 C 23.75 19.75 23.75 19.582031 23.75 19.417969 C 24.082031 19.417969 24.417969 19.417969 24.75 19.417969 C 25.074219 20.742188 25.851562 21.078125 27.082031 20.417969 C 27.996094 19.058594 27.664062 18.167969 26.082031 17.75 C 25.261719 17.824219 24.820312 18.269531 24.75 19.082031 C 24.417969 19.082031 24.082031 19.082031 23.75 19.082031 C 23.75 18.917969 23.75 18.75 23.75 18.582031 C 23.582031 18.582031 23.417969 18.582031 23.25 18.582031 C 23.195312 19.25 23.140625 19.25 23.082031 18.582031 C 22.917969 18.582031 22.75 18.582031 22.582031 18.582031 C 22.527344 19.25 22.472656 19.25 22.417969 18.582031 C 22.25 18.582031 22.082031 18.582031 21.917969 18.582031 C 21.910156 18.417969 21.996094 18.304688 22.167969 18.25 C 23.632812 17.789062 25.105469 17.34375 26.582031 16.917969 C 26.785156 16.875 26.898438 16.765625 26.917969 16.582031 Z M 26.917969 16.582031 "/>
<path style=" stroke:none;fill-rule:evenodd;fill:rgb(89.803922%,89.411765%,89.803922%);fill-opacity:1;" d="M 21.917969 20.082031 C 21.917969 19.582031 21.917969 19.082031 21.917969 18.582031 C 22.082031 18.582031 22.25 18.582031 22.417969 18.582031 C 22.472656 19.25 22.527344 19.25 22.582031 18.582031 C 22.75 18.582031 22.917969 18.582031 23.082031 18.582031 C 23.140625 19.25 23.195312 19.25 23.25 18.582031 C 23.417969 18.582031 23.582031 18.582031 23.75 18.582031 C 23.75 18.75 23.75 18.917969 23.75 19.082031 C 24.082031 19.082031 24.417969 19.082031 24.75 19.082031 C 24.820312 18.269531 25.261719 17.824219 26.082031 17.75 C 27.664062 18.167969 27.996094 19.058594 27.082031 20.417969 C 25.851562 21.078125 25.074219 20.742188 24.75 19.417969 C 24.417969 19.417969 24.082031 19.417969 23.75 19.417969 C 23.75 19.582031 23.75 19.75 23.75 19.917969 C 23.582031 19.917969 23.417969 19.917969 23.25 19.917969 C 23.25 19.75 23.25 19.582031 23.25 19.417969 C 22.972656 19.417969 22.695312 19.417969 22.417969 19.417969 C 22.417969 19.640625 22.417969 19.859375 22.417969 20.082031 C 22.25 20.082031 22.082031 20.082031 21.917969 20.082031 Z M 21.917969 20.082031 "/>
<path style=" stroke:none;fill-rule:evenodd;fill:rgb(28.627451%,27.058824%,27.45098%);fill-opacity:1;" d="M 25.582031 18.25 C 27.160156 18.214844 27.550781 18.851562 26.75 20.167969 C 25.832031 20.488281 25.273438 20.183594 25.082031 19.25 C 25.164062 18.867188 25.332031 18.53125 25.582031 18.25 Z M 25.582031 18.25 "/>
<path style=" stroke:none;fill-rule:evenodd;fill:rgb(90.588235%,90.196078%,90.196078%);fill-opacity:1;" d="M 25.75 18.582031 C 26.835938 18.523438 27.113281 18.941406 26.582031 19.832031 C 25.457031 19.960938 25.179688 19.542969 25.75 18.582031 Z M 25.75 18.582031 "/>
<path style=" stroke:none;fill-rule:evenodd;fill:rgb(30.588235%,29.019608%,29.411765%);fill-opacity:1;" d="M 25.917969 18.917969 C 26.082031 18.917969 26.25 18.917969 26.417969 18.917969 C 26.417969 19.140625 26.417969 19.359375 26.417969 19.582031 C 26.25 19.582031 26.082031 19.582031 25.917969 19.582031 C 25.917969 19.359375 25.917969 19.140625 25.917969 18.917969 Z M 25.917969 18.917969 "/>
<path style=" stroke:none;fill-rule:evenodd;fill:rgb(89.411765%,89.019608%,89.019608%);fill-opacity:1;" d="M 28.582031 17.917969 C 28.582031 18.082031 28.582031 18.25 28.582031 18.417969 C 28.582031 18.972656 28.582031 19.527344 28.582031 20.082031 C 28.804688 20.082031 29.027344 20.082031 29.25 20.082031 C 29.808594 20.167969 30.363281 20.195312 30.917969 20.167969 C 31.28125 19.832031 31.613281 19.46875 31.917969 19.082031 C 31.613281 17.914062 32.058594 17.496094 33.25 17.832031 C 33.398438 17.953125 33.507812 18.089844 33.582031 18.25 C 33.625 18.632812 33.570312 18.992188 33.417969 19.332031 C 32.5 19.363281 31.777344 19.753906 31.25 20.5 C 30.300781 20.59375 29.359375 20.566406 28.417969 20.417969 C 28.265625 20.933594 28.125 21.433594 28 21.917969 C 28.429688 22.335938 28.957031 22.53125 29.582031 22.5 C 29.730469 22.617188 29.839844 22.757812 29.917969 22.917969 C 29.945312 23.253906 29.914062 23.585938 29.832031 23.917969 C 29.21875 24.402344 28.660156 24.347656 28.167969 23.75 C 28.214844 23.070312 27.992188 22.515625 27.5 22.082031 C 27.0625 22.425781 26.59375 22.703125 26.082031 22.917969 C 25.941406 23.777344 25.941406 24.667969 26.082031 25.582031 C 25.738281 25.929688 25.460938 26.316406 25.25 26.75 C 25.257812 27.878906 24.726562 28.210938 23.667969 27.75 C 23.480469 27.441406 23.394531 27.109375 23.417969 26.75 C 23.800781 26.175781 24.355469 25.925781 25.082031 26 C 25.277344 25.804688 25.472656 25.609375 25.667969 25.417969 C 25.769531 24.742188 25.738281 24.078125 25.582031 23.417969 C 25.167969 23.101562 24.667969 22.992188 24.082031 23.082031 C 23.414062 22.941406 22.800781 22.664062 22.25 22.25 C 22.03125 22.386719 21.835938 22.550781 21.667969 22.75 C 21.726562 24.171875 21.144531 24.613281 19.917969 24.082031 C 19.390625 23.246094 19.613281 22.691406 20.582031 22.417969 C 21.15625 22.605469 21.601562 22.410156 21.917969 21.832031 C 21.628906 21.507812 21.40625 21.148438 21.25 20.75 C 21.253906 20.496094 21.363281 20.410156 21.582031 20.5 C 22.855469 22.699219 24.632812 23.199219 26.917969 22 C 28.691406 20.175781 28.691406 18.371094 26.917969 16.582031 C 26.414062 16.394531 26.082031 16.058594 25.917969 15.582031 C 26.46875 15.832031 27.023438 16.027344 27.582031 16.167969 C 27.835938 15.941406 28.058594 15.691406 28.25 15.417969 C 28.011719 14.984375 28.066406 14.597656 28.417969 14.25 C 29.230469 13.882812 29.785156 14.105469 30.082031 14.917969 C 29.851562 15.730469 29.292969 16.089844 28.417969 16 C 28.195312 16.222656 27.972656 16.445312 27.75 16.667969 C 28.050781 17.078125 28.332031 17.496094 28.582031 17.917969 Z M 28.582031 17.917969 "/>
<path style=" stroke:none;fill-rule:evenodd;fill:rgb(54.901961%,54.117647%,54.509804%);fill-opacity:1;" d="M 28.582031 18.417969 C 28.746094 18.882812 28.800781 19.382812 28.75 19.917969 C 28.964844 19.878906 29.132812 19.933594 29.25 20.082031 C 29.027344 20.082031 28.804688 20.082031 28.582031 20.082031 C 28.582031 19.527344 28.582031 18.972656 28.582031 18.417969 Z M 28.582031 18.417969 "/>
<path style=" stroke:none;fill-rule:evenodd;fill:rgb(21.960784%,20.392157%,20.784314%);fill-opacity:1;" d="M 32.417969 18.082031 C 33.082031 18.105469 33.304688 18.410156 33.082031 19 C 32.289062 19.136719 32.066406 18.828125 32.417969 18.082031 Z M 32.417969 18.082031 "/>
<path style=" stroke:none;fill-rule:evenodd;fill:rgb(20.392157%,18.823529%,19.215686%);fill-opacity:1;" d="M 28.75 14.417969 C 29.414062 14.4375 29.636719 14.742188 29.417969 15.332031 C 28.621094 15.46875 28.398438 15.164062 28.75 14.417969 Z M 28.75 14.417969 "/>
<use xlink:href="#surface17" mask="url(#mask4)"/>
<path style=" stroke:none;fill-rule:evenodd;fill:rgb(54.117647%,53.333333%,53.72549%);fill-opacity:1;" d="M 28.75 22.75 C 29.453125 22.78125 29.675781 23.117188 29.417969 23.75 C 29.160156 23.957031 28.910156 23.957031 28.667969 23.75 C 28.554688 23.398438 28.582031 23.066406 28.75 22.75 Z M 28.75 22.75 "/>
<path style=" stroke:none;fill-rule:evenodd;fill:rgb(23.921569%,22.745098%,23.137255%);fill-opacity:1;" d="M 20.25 22.917969 C 21.027344 22.835938 21.25 23.140625 20.917969 23.832031 C 20.121094 23.96875 19.898438 23.664062 20.25 22.917969 Z M 20.25 22.917969 "/>
<use xlink:href="#surface20" mask="url(#mask5)"/>
<path style=" stroke:none;fill-rule:evenodd;fill:rgb(37.254902%,36.078431%,36.470588%);fill-opacity:1;" d="M 24.082031 23.082031 C 24.667969 22.992188 25.167969 23.101562 25.582031 23.417969 C 25.066406 23.320312 24.566406 23.207031 24.082031 23.082031 Z M 24.082031 23.082031 "/>
<path style=" stroke:none;fill-rule:evenodd;fill:rgb(94.117647%,94.117647%,94.117647%);fill-opacity:1;" d="M 28.75 23.082031 C 29.058594 23.035156 29.28125 23.148438 29.417969 23.417969 C 29.21875 23.570312 28.996094 23.628906 28.75 23.582031 C 28.75 23.417969 28.75 23.25 28.75 23.082031 Z M 28.75 23.082031 "/>
<use xlink:href="#surface23" mask="url(#mask6)"/>
<use xlink:href="#surface26" mask="url(#mask7)"/>
<path style=" stroke:none;fill-rule:evenodd;fill:rgb(65.882353%,65.490196%,65.490196%);fill-opacity:1;" d="M 26.082031 22.917969 C 26.203125 23.835938 26.203125 24.722656 26.082031 25.582031 C 25.941406 24.667969 25.941406 23.777344 26.082031 22.917969 Z M 26.082031 22.917969 "/>
<use xlink:href="#surface29" mask="url(#mask8)"/>
<path style=" stroke:none;fill-rule:evenodd;fill:rgb(23.921569%,22.352941%,22.745098%);fill-opacity:1;" d="M 24.082031 26.582031 C 24.304688 26.582031 24.527344 26.582031 24.75 26.582031 C 24.777344 26.867188 24.75 27.144531 24.667969 27.417969 C 23.9375 27.597656 23.746094 27.316406 24.082031 26.582031 Z M 24.082031 26.582031 "/>
<use xlink:href="#surface32" mask="url(#mask9)"/>
<use xlink:href="#surface35" mask="url(#mask10)"/>
<path style=" stroke:none;fill-rule:evenodd;fill:rgb(78.431373%,78.039216%,78.039216%);fill-opacity:1;" d="M 34.917969 31.25 C 34.917969 31.417969 34.917969 31.582031 34.917969 31.75 C 34.695312 31.75 34.472656 31.75 34.25 31.75 C 34.222656 31.160156 34.445312 30.996094 34.917969 31.25 Z M 34.917969 31.25 "/>
<path style=" stroke:none;fill-rule:evenodd;fill:rgb(94.901961%,94.509804%,94.509804%);fill-opacity:1;" d="M 13.082031 31.582031 C 13.082031 33.082031 13.082031 34.582031 13.082031 36.082031 C 12.917969 36.082031 12.75 36.082031 12.582031 36.082031 C 12.582031 35.417969 12.582031 34.75 12.582031 34.082031 C 11.359375 34.082031 10.140625 34.082031 8.917969 34.082031 C 8.917969 34.75 8.917969 35.417969 8.917969 36.082031 C 8.75 36.082031 8.582031 36.082031 8.417969 36.082031 C 8.417969 34.582031 8.417969 33.082031 8.417969 31.582031 C 8.535156 31.433594 8.703125 31.378906 8.917969 31.417969 C 8.917969 32.140625 8.917969 32.859375 8.917969 33.582031 C 10.140625 33.582031 11.359375 33.582031 12.582031 33.582031 C 12.582031 32.859375 12.582031 32.140625 12.582031 31.417969 C 12.796875 31.378906 12.964844 31.433594 13.082031 31.582031 Z M 13.082031 31.582031 "/>
<path style=" stroke:none;fill-rule:evenodd;fill:rgb(89.803922%,89.803922%,89.803922%);fill-opacity:1;" d="M 13.75 32.417969 C 13.917969 32.417969 14.082031 32.417969 14.25 32.417969 C 14.222656 33.417969 14.25 34.417969 14.332031 35.417969 C 15.179688 35.578125 16.039062 35.632812 16.917969 35.582031 C 16.917969 34.527344 16.917969 33.472656 16.917969 32.417969 C 17.140625 32.417969 17.359375 32.417969 17.582031 32.417969 C 17.582031 33.417969 17.582031 34.417969 17.582031 35.417969 C 17.609375 35.976562 17.582031 36.53125 17.5 37.082031 C 17.359375 37.222656 17.222656 37.359375 17.082031 37.5 C 16.195312 37.582031 15.308594 37.609375 14.417969 37.582031 C 14.417969 37.359375 14.417969 37.140625 14.417969 36.917969 C 15.25 36.917969 16.082031 36.917969 16.917969 36.917969 C 16.917969 36.640625 16.917969 36.359375 16.917969 36.082031 C 15.96875 36.109375 15.027344 36.082031 14.082031 36 C 14 35.917969 13.917969 35.832031 13.832031 35.75 C 13.75 34.640625 13.722656 33.527344 13.75 32.417969 Z M 13.75 32.417969 "/>
<path style=" stroke:none;fill-rule:evenodd;fill:rgb(90.980392%,90.980392%,90.980392%);fill-opacity:1;" d="M 21.917969 32.917969 C 21.945312 33.863281 21.917969 34.808594 21.832031 35.75 C 21.75 35.832031 21.667969 35.917969 21.582031 36 C 20.640625 36.082031 19.695312 36.109375 18.75 36.082031 C 18.75 36.582031 18.75 37.082031 18.75 37.582031 C 18.527344 37.582031 18.304688 37.582031 18.082031 37.582031 C 18.082031 36.582031 18.082031 35.582031 18.082031 34.582031 C 18.082031 33.859375 18.082031 33.140625 18.082031 32.417969 C 19.25 32.390625 20.417969 32.417969 21.582031 32.5 C 21.730469 32.617188 21.839844 32.757812 21.917969 32.917969 Z M 21.917969 32.917969 "/>
<path style=" stroke:none;fill-rule:evenodd;fill:rgb(94.901961%,94.901961%,94.901961%);fill-opacity:1;" d="M 22.917969 32.417969 C 23.863281 32.390625 24.808594 32.417969 25.75 32.5 C 25.898438 32.617188 26.007812 32.757812 26.082031 32.917969 C 26.082031 33.417969 26.082031 33.917969 26.082031 34.417969 C 24.996094 34.363281 23.941406 34.417969 22.917969 34.582031 C 22.917969 34.859375 22.917969 35.140625 22.917969 35.417969 C 23.941406 35.582031 24.996094 35.636719 26.082031 35.582031 C 26.082031 35.75 26.082031 35.917969 26.082031 36.082031 C 24.972656 36.109375 23.859375 36.082031 22.75 36 C 22.667969 35.917969 22.582031 35.832031 22.5 35.75 C 22.417969 34.808594 22.390625 33.863281 22.417969 32.917969 C 22.527344 32.695312 22.695312 32.527344 22.917969 32.417969 Z M 22.917969 32.417969 "/>
<path style=" stroke:none;fill-rule:evenodd;fill:rgb(90.980392%,90.588235%,90.980392%);fill-opacity:1;" d="M 30.417969 32.417969 C 31.417969 32.390625 32.417969 32.417969 33.417969 32.5 C 33.5625 32.617188 33.675781 32.757812 33.75 32.917969 C 33.605469 33.328125 33.382812 33.355469 33.082031 33 C 32.25 32.917969 31.417969 32.890625 30.582031 32.917969 C 30.582031 33.25 30.582031 33.582031 30.582031 33.917969 C 31.472656 33.890625 32.363281 33.917969 33.25 34 C 33.839844 34.621094 33.898438 35.289062 33.417969 36 C 32.472656 36.082031 31.53125 36.109375 30.582031 36.082031 C 30.214844 36.023438 29.996094 35.800781 29.917969 35.417969 C 30.027344 35.359375 30.140625 35.304688 30.25 35.25 C 31.167969 35.578125 32.113281 35.660156 33.082031 35.5 C 33.234375 35.21875 33.289062 34.910156 33.25 34.582031 C 32.304688 34.609375 31.359375 34.582031 30.417969 34.5 C 29.96875 34.074219 29.800781 33.546875 29.917969 32.917969 C 30.027344 32.695312 30.195312 32.527344 30.417969 32.417969 Z M 30.417969 32.417969 "/>
<path style=" stroke:none;fill-rule:evenodd;fill:rgb(91.372549%,90.980392%,90.980392%);fill-opacity:1;" d="M 39.417969 32.917969 C 39.445312 34.308594 39.417969 35.695312 39.332031 37.082031 C 39.214844 37.230469 39.078125 37.339844 38.917969 37.417969 C 38.074219 37.472656 37.242188 37.414062 36.417969 37.25 C 37.21875 37.140625 37.996094 37.027344 38.75 36.917969 C 38.75 36.640625 38.75 36.359375 38.75 36.082031 C 37.859375 36.082031 36.972656 36.082031 36.082031 36.082031 C 35.867188 35.992188 35.730469 35.824219 35.667969 35.582031 C 35.582031 34.695312 35.554688 33.808594 35.582031 32.917969 C 35.660156 32.757812 35.769531 32.617188 35.917969 32.5 C 36.972656 32.390625 38.027344 32.390625 39.082031 32.5 C 39.230469 32.617188 39.339844 32.757812 39.417969 32.917969 Z M 39.417969 32.917969 "/>
<path style=" stroke:none;fill-rule:evenodd;fill:rgb(95.294118%,95.294118%,95.294118%);fill-opacity:1;" d="M 40.082031 32.417969 C 41.195312 32.390625 42.308594 32.417969 43.417969 32.5 C 43.5625 32.617188 43.675781 32.757812 43.75 32.917969 C 43.75 33.972656 43.75 35.027344 43.75 36.082031 C 43.582031 36.082031 43.417969 36.082031 43.25 36.082031 C 43.25 35.027344 43.25 33.972656 43.25 32.917969 C 42.359375 32.917969 41.472656 32.917969 40.582031 32.917969 C 40.582031 33.972656 40.582031 35.027344 40.582031 36.082031 C 40.417969 36.082031 40.25 36.082031 40.082031 36.082031 C 40.082031 34.859375 40.082031 33.640625 40.082031 32.417969 Z M 40.082031 32.417969 "/>
<path style=" stroke:none;fill-rule:evenodd;fill:rgb(94.509804%,94.117647%,94.509804%);fill-opacity:1;" d="M 29.582031 32.417969 C 29.582031 32.582031 29.582031 32.75 29.582031 32.917969 C 28.816406 32.867188 28.066406 32.921875 27.332031 33.082031 C 27.25 34.082031 27.222656 35.082031 27.25 36.082031 C 27.082031 36.082031 26.917969 36.082031 26.75 36.082031 C 26.75 35.027344 26.75 33.972656 26.75 32.917969 C 26.824219 32.757812 26.9375 32.617188 27.082031 32.5 C 27.914062 32.417969 28.75 32.390625 29.582031 32.417969 Z M 29.582031 32.417969 "/>
<path style=" stroke:none;fill-rule:evenodd;fill:rgb(31.764706%,30.196078%,30.588235%);fill-opacity:1;" d="M 36.25 32.917969 C 37.082031 32.917969 37.917969 32.917969 38.75 32.917969 C 38.75 33.804688 38.75 34.695312 38.75 35.582031 C 37.917969 35.582031 37.082031 35.582031 36.25 35.582031 C 36.25 34.695312 36.25 33.804688 36.25 32.917969 Z M 36.25 32.917969 "/>
<path style=" stroke:none;fill-rule:evenodd;fill:rgb(26.27451%,24.705882%,25.098039%);fill-opacity:1;" d="M 18.75 32.917969 C 19.585938 32.890625 20.417969 32.917969 21.25 33 C 21.472656 33.832031 21.472656 34.667969 21.25 35.5 C 20.417969 35.582031 19.585938 35.609375 18.75 35.582031 C 18.75 34.695312 18.75 33.804688 18.75 32.917969 Z M 18.75 32.917969 "/>
<use xlink:href="#surface38" mask="url(#mask11)"/>
<use xlink:href="#surface41" mask="url(#mask12)"/>
<path style=" stroke:none;fill-rule:evenodd;fill:rgb(64.705882%,63.921569%,64.313725%);fill-opacity:1;" d="M 26.082031 32.917969 C 26.246094 33.4375 26.300781 33.992188 26.25 34.582031 C 25.140625 34.582031 24.027344 34.582031 22.917969 34.582031 C 23.941406 34.417969 24.996094 34.363281 26.082031 34.417969 C 26.082031 33.917969 26.082031 33.417969 26.082031 32.917969 Z M 26.082031 32.917969 "/>
<path style=" stroke:none;fill-rule:evenodd;fill:rgb(27.45098%,26.27451%,26.27451%);fill-opacity:1;" d="M 22.917969 32.917969 C 23.804688 32.917969 24.695312 32.917969 25.582031 32.917969 C 25.582031 33.25 25.582031 33.582031 25.582031 33.917969 C 24.695312 33.917969 23.804688 33.917969 22.917969 33.917969 C 22.917969 33.582031 22.917969 33.25 22.917969 32.917969 Z M 22.917969 32.917969 "/>
<use xlink:href="#surface44" mask="url(#mask13)"/>
<use xlink:href="#surface47" mask="url(#mask14)"/>
<path style=" stroke:none;fill-rule:evenodd;fill:rgb(95.294118%,95.294118%,95.294118%);fill-opacity:1;" d="M 34.417969 32.417969 C 34.582031 32.417969 34.75 32.417969 34.917969 32.417969 C 34.917969 33.640625 34.917969 34.859375 34.917969 36.082031 C 34.75 36.082031 34.582031 36.082031 34.417969 36.082031 C 34.417969 34.859375 34.417969 33.640625 34.417969 32.417969 Z M 34.417969 32.417969 "/>
<path style=" stroke:none;fill-rule:evenodd;fill:rgb(43.529412%,42.352941%,42.745098%);fill-opacity:1;" d="M 26.75 32.917969 C 26.75 33.972656 26.75 35.027344 26.75 36.082031 C 26.640625 35.933594 26.53125 35.765625 26.417969 35.582031 C 26.304688 35.765625 26.191406 35.933594 26.082031 36.082031 C 26.082031 35.917969 26.082031 35.75 26.082031 35.582031 C 24.996094 35.636719 23.941406 35.582031 22.917969 35.417969 C 24.085938 35.445312 25.25 35.417969 26.417969 35.332031 C 26.523438 34.511719 26.636719 33.707031 26.75 32.917969 Z M 26.75 32.917969 "/>
<use xlink:href="#surface50" mask="url(#mask15)"/>
<use xlink:href="#surface53" mask="url(#mask16)"/>
<path style=" stroke:none;fill-rule:evenodd;fill:rgb(75.294118%,74.901961%,74.901961%);fill-opacity:1;" d="M 38.75 36.917969 C 37.996094 37.027344 37.21875 37.140625 36.417969 37.25 C 37.242188 37.414062 38.074219 37.472656 38.917969 37.417969 C 38.058594 37.582031 37.171875 37.636719 36.25 37.582031 C 36.25 37.359375 36.25 37.140625 36.25 36.917969 C 37.082031 36.917969 37.917969 36.917969 38.75 36.917969 Z M 38.75 36.917969 "/>
<use xlink:href="#surface56" mask="url(#mask17)"/>
<use xlink:href="#surface59" mask="url(#mask18)"/>
<use xlink:href="#surface62" mask="url(#mask19)"/>
</g>
</svg>
