<?xml version="1.0" encoding="UTF-8"?>
<svg xmlns="http://www.w3.org/2000/svg" xmlns:xlink="http://www.w3.org/1999/xlink" width="50px" height="50px" viewBox="0 0 50 50" version="1.1">
<g id="surface1">
<path style=" stroke:none;fill-rule:nonzero;fill:rgb(0.392157%,17.647059%,25.882353%);fill-opacity:1;" d="M 50 25.042969 C 50 11.40625 38.808594 0.351562 25 0.351562 C 11.191406 0.351562 0 11.40625 0 25.042969 C 0 38.679688 11.191406 49.734375 25 49.734375 C 38.808594 49.734375 50 38.679688 50 25.042969 Z M 50 25.042969 "/>
<path style=" stroke:none;fill-rule:evenodd;fill:rgb(0%,82.352941%,100%);fill-opacity:1;" d="M 25.109375 19.539062 L 19.429688 13.929688 L 13.75 13.929688 L 13.75 19.539062 L 19.429688 25.148438 L 13.75 30.757812 L 13.75 36.367188 L 19.429688 36.367188 L 25.109375 30.757812 L 30.785156 36.367188 L 36.464844 36.367188 L 36.464844 30.757812 L 30.785156 25.148438 L 36.464844 19.539062 L 36.464844 13.929688 L 30.785156 13.929688 Z M 25.109375 19.539062 "/>
</g>
</svg>
