<?xml version="1.0" encoding="UTF-8"?>
<svg xmlns="http://www.w3.org/2000/svg" xmlns:xlink="http://www.w3.org/1999/xlink" width="50px" height="50px" viewBox="0 0 50 50" version="1.1">
<g id="surface1">
<path style=" stroke:none;fill-rule:nonzero;fill:rgb(100%,100%,100%);fill-opacity:1;" d="M 25 50 C 38.808594 50 50 38.808594 50 25 C 50 11.191406 38.808594 0 25 0 C 11.191406 0 0 11.191406 0 25 C 0 38.808594 11.191406 50 25 50 Z M 25 50 "/>
<path style=" stroke:none;fill-rule:nonzero;fill:rgb(29.803922%,34.117647%,88.627451%);fill-opacity:1;" d="M 25 50 C 38.808594 50 50 38.808594 50 25 C 50 11.191406 38.808594 0 25 0 C 11.191406 0 0 11.191406 0 25 C 0 38.808594 11.191406 50 25 50 Z M 25 50 "/>
<path style=" stroke:none;fill-rule:evenodd;fill:rgb(100%,100%,100%);fill-opacity:1;" d="M 18.128906 15.089844 C 18.128906 16.269531 17.167969 17.230469 15.984375 17.230469 C 14.800781 17.230469 13.839844 16.269531 13.839844 15.089844 C 13.839844 13.90625 14.800781 12.945312 15.984375 12.945312 C 17.167969 12.945312 18.128906 13.90625 18.128906 15.089844 Z M 35.308594 13.3125 C 35.644531 13.453125 35.945312 13.671875 36.179688 13.953125 C 36.375 14.253906 36.496094 14.59375 36.535156 14.949219 C 36.574219 15.304688 36.527344 15.664062 36.398438 16 C 36.1875 16.679688 35.910156 17.347656 35.644531 17.984375 L 35.453125 18.433594 C 35.1875 19.085938 34.921875 19.726562 34.652344 20.378906 C 34.460938 20.84375 34.269531 21.308594 34.074219 21.789062 C 33.878906 22.269531 33.679688 22.742188 33.480469 23.214844 C 33.203125 23.875 32.929688 24.53125 32.664062 25.191406 C 32.167969 26.378906 31.683594 27.558594 31.199219 28.746094 C 31.03125 29.15625 30.863281 29.566406 30.695312 29.976562 C 29.6875 32.414062 28.683594 34.84375 27.671875 37.296875 L 27.367188 38.035156 C 27.1875 38.527344 26.863281 38.953125 26.4375 39.253906 C 26.011719 39.558594 25.503906 39.722656 24.980469 39.730469 C 24.382812 39.71875 23.804688 39.523438 23.316406 39.175781 C 23.0625 38.992188 22.859375 38.742188 22.734375 38.453125 C 22.5625 38.050781 22.386719 37.640625 22.210938 37.230469 C 21.535156 35.65625 20.832031 34.023438 20.179688 32.375 L 20.136719 32.269531 C 20.042969 32.050781 19.953125 31.835938 19.859375 31.621094 C 19.449219 30.660156 18.339844 27.839844 17.867188 26.640625 L 17.789062 26.445312 L 17.761719 26.363281 C 17.660156 26.089844 17.542969 25.824219 17.425781 25.558594 C 17.394531 25.480469 17.363281 25.40625 17.332031 25.332031 C 17.175781 24.957031 17.019531 24.582031 16.894531 24.203125 C 16.421875 22.75 17.152344 22.003906 17.605469 21.699219 C 17.949219 21.460938 18.355469 21.335938 18.773438 21.332031 C 19.121094 21.335938 19.457031 21.425781 19.757812 21.597656 C 20.058594 21.769531 20.308594 22.011719 20.484375 22.304688 C 20.550781 22.398438 20.609375 22.496094 20.65625 22.597656 C 20.964844 23.164062 21.222656 23.757812 21.425781 24.367188 C 21.53125 24.632812 21.628906 24.90625 21.746094 25.175781 C 22.042969 25.878906 22.605469 27.316406 23.117188 28.625 C 23.472656 29.53125 23.800781 30.371094 24.003906 30.871094 C 24.332031 31.625 24.632812 32.386719 24.90625 33.160156 L 25.429688 31.914062 L 26.976562 28.230469 C 27.113281 27.875 27.269531 27.511719 27.421875 27.152344 C 27.492188 26.996094 27.558594 26.835938 27.625 26.679688 C 27.691406 26.519531 27.761719 26.359375 27.828125 26.195312 C 28.410156 24.800781 28.996094 23.386719 29.539062 21.972656 C 30.027344 20.707031 30.5625 19.429688 31.074219 18.199219 L 31.492188 17.1875 C 31.328125 17.167969 31.160156 17.15625 30.996094 17.164062 L 24.011719 17.164062 C 23.296875 17.152344 22.21875 17.136719 21.6875 16.074219 C 21.566406 15.839844 21.496094 15.582031 21.476562 15.316406 C 21.457031 15.050781 21.488281 14.785156 21.574219 14.535156 C 21.65625 14.285156 21.792969 14.050781 21.964844 13.851562 C 22.140625 13.652344 22.351562 13.488281 22.589844 13.371094 C 23.046875 13.179688 23.539062 13.097656 24.03125 13.132812 L 34.246094 13.132812 C 34.609375 13.105469 34.976562 13.167969 35.308594 13.3125 Z M 35.308594 13.3125 "/>
</g>
</svg>
