<?xml version="1.0" encoding="UTF-8"?>
<svg xmlns="http://www.w3.org/2000/svg" xmlns:xlink="http://www.w3.org/1999/xlink" width="50px" height="50px" viewBox="0 0 50 50" version="1.1">
<defs>
<linearGradient id="linear0" gradientUnits="userSpaceOnUse" x1="1" y1="24.324" x2="50.3521" y2="24.324" >
<stop offset="0" style="stop-color:rgb(0%,50.980392%,98.039216%);stop-opacity:1;"/>
<stop offset="1" style="stop-color:rgb(0%,94.901961%,99.607843%);stop-opacity:1;"/>
</linearGradient>
<linearGradient id="linear1" gradientUnits="userSpaceOnUse" x1="-1.18599" y1="25.676" x2="48.1661" y2="25.676" >
<stop offset="0" style="stop-color:rgb(0%,50.980392%,98.039216%);stop-opacity:1;"/>
<stop offset="1" style="stop-color:rgb(0%,94.901961%,99.607843%);stop-opacity:1;"/>
</linearGradient>
</defs>
<g id="surface1">
<path style=" stroke:none;fill-rule:nonzero;fill:url(#linear0);" d="M 6.984375 8.179688 C 7.289062 7.792969 7.613281 7.421875 7.941406 7.050781 C 7.953125 7.03125 7.988281 7.027344 8 7.011719 C 8.03125 6.972656 8.078125 6.953125 8.109375 6.914062 L 8.136719 6.878906 C 8.363281 6.667969 8.605469 6.441406 8.882812 6.242188 C 9.863281 5.496094 10.882812 4.929688 11.960938 4.558594 C 15.40625 3.347656 19.246094 4.09375 22.257812 6.933594 C 26.460938 10.875 26.085938 17.222656 22.730469 21.441406 C 18.488281 27.730469 11.203125 36.507812 21.292969 44.367188 C 23.105469 45.78125 24.453125 46.945312 30.167969 48.597656 C 26.429688 49.285156 22.964844 49.074219 19.105469 48.085938 C 16.378906 46.546875 12.085938 43.25 10.628906 38.796875 C 8.421875 32.042969 14.511719 21.945312 17.453125 18.058594 C 21.496094 12.675781 14.957031 6.851562 10.144531 13.355469 C 7.628906 16.746094 3.226562 26.335938 4.757812 33.449219 C 5.648438 37.484375 6.84375 40.425781 11.570312 44.464844 C 10.691406 43.949219 9.839844 43.359375 9.015625 42.703125 C -1.964844 32.472656 -0.691406 16.65625 6.984375 8.179688 Z M 6.984375 8.179688 "/>
<path style=" stroke:none;fill-rule:nonzero;fill:url(#linear1);" d="M 42.183594 41.820312 C 41.875 42.207031 41.550781 42.578125 41.226562 42.949219 C 41.210938 42.96875 41.179688 42.96875 41.164062 42.988281 C 41.136719 43.027344 41.085938 43.046875 41.058594 43.085938 L 41.03125 43.121094 C 40.804688 43.332031 40.5625 43.558594 40.285156 43.757812 C 39.300781 44.503906 38.28125 45.070312 37.207031 45.441406 C 33.757812 46.652344 29.917969 45.90625 26.910156 43.066406 C 22.703125 39.125 23.082031 32.777344 26.4375 28.558594 C 30.675781 22.269531 37.964844 13.492188 27.875 5.632812 C 26.058594 4.21875 24.714844 3.054688 19 1.402344 C 22.738281 0.714844 26.203125 0.925781 30.058594 1.914062 C 32.789062 3.453125 37.078125 6.75 38.539062 11.203125 C 40.742188 17.957031 34.65625 28.054688 31.710938 31.941406 C 27.671875 37.324219 34.207031 43.148438 39.023438 36.644531 C 41.539062 33.253906 45.941406 23.664062 44.410156 16.550781 C 43.515625 12.515625 42.324219 9.574219 37.597656 5.535156 C 38.472656 6.050781 39.324219 6.640625 40.148438 7.296875 C 51.132812 17.527344 49.859375 33.34375 42.183594 41.820312 Z M 42.183594 41.820312 "/>
</g>
</svg>
