<?xml version="1.0" encoding="UTF-8"?>
<svg xmlns="http://www.w3.org/2000/svg" xmlns:xlink="http://www.w3.org/1999/xlink" width="50px" height="50px" viewBox="0 0 50 50" version="1.1">
<defs>
<linearGradient id="linear0" gradientUnits="userSpaceOnUse" x1="4.80491" y1="45.1251" x2="43.8039" y2="6.12608" >
<stop offset="0" style="stop-color:rgb(0%,61.568627%,87.058824%);stop-opacity:1;"/>
<stop offset="0.5" style="stop-color:rgb(41.176471%,30.196078%,62.352941%);stop-opacity:1;"/>
<stop offset="1" style="stop-color:rgb(92.941176%,20.784314%,32.941176%);stop-opacity:1;"/>
</linearGradient>
<linearGradient id="linear1" gradientUnits="userSpaceOnUse" x1="9.05992" y1="49.3802" x2="48.0589" y2="10.3812" >
<stop offset="0" style="stop-color:rgb(0%,61.568627%,87.058824%);stop-opacity:1;"/>
<stop offset="0.5" style="stop-color:rgb(41.176471%,30.196078%,62.352941%);stop-opacity:1;"/>
<stop offset="1" style="stop-color:rgb(92.941176%,20.784314%,32.941176%);stop-opacity:1;"/>
</linearGradient>
<linearGradient id="linear2" gradientUnits="userSpaceOnUse" x1="20.1863" y1="60.5066" x2="59.1853" y2="21.5076" >
<stop offset="0" style="stop-color:rgb(0%,61.568627%,87.058824%);stop-opacity:1;"/>
<stop offset="0.5" style="stop-color:rgb(41.176471%,30.196078%,62.352941%);stop-opacity:1;"/>
<stop offset="1" style="stop-color:rgb(92.941176%,20.784314%,32.941176%);stop-opacity:1;"/>
</linearGradient>
<linearGradient id="linear3" gradientUnits="userSpaceOnUse" x1="16.2237" y1="56.544" x2="55.2227" y2="17.545" >
<stop offset="0" style="stop-color:rgb(0%,61.568627%,87.058824%);stop-opacity:1;"/>
<stop offset="0.5" style="stop-color:rgb(41.176471%,30.196078%,62.352941%);stop-opacity:1;"/>
<stop offset="1" style="stop-color:rgb(92.941176%,20.784314%,32.941176%);stop-opacity:1;"/>
</linearGradient>
<linearGradient id="linear4" gradientUnits="userSpaceOnUse" x1="-6.54638" y1="33.7738" x2="32.4526" y2="-5.22519" >
<stop offset="0" style="stop-color:rgb(0%,61.568627%,87.058824%);stop-opacity:1;"/>
<stop offset="0.5" style="stop-color:rgb(41.176471%,30.196078%,62.352941%);stop-opacity:1;"/>
<stop offset="1" style="stop-color:rgb(92.941176%,20.784314%,32.941176%);stop-opacity:1;"/>
</linearGradient>
<linearGradient id="linear5" gradientUnits="userSpaceOnUse" x1="-10.5008" y1="29.8194" x2="28.4982" y2="-9.17961" >
<stop offset="0" style="stop-color:rgb(0%,61.568627%,87.058824%);stop-opacity:1;"/>
<stop offset="0.5" style="stop-color:rgb(41.176471%,30.196078%,62.352941%);stop-opacity:1;"/>
<stop offset="1" style="stop-color:rgb(92.941176%,20.784314%,32.941176%);stop-opacity:1;"/>
</linearGradient>
<linearGradient id="linear6" gradientUnits="userSpaceOnUse" x1="0.624811" y1="40.9451" x2="39.6238" y2="1.94613" >
<stop offset="0" style="stop-color:rgb(0%,61.568627%,87.058824%);stop-opacity:1;"/>
<stop offset="0.5" style="stop-color:rgb(41.176471%,30.196078%,62.352941%);stop-opacity:1;"/>
<stop offset="1" style="stop-color:rgb(92.941176%,20.784314%,32.941176%);stop-opacity:1;"/>
</linearGradient>
</defs>
<g id="surface1">
<path style=" stroke:none;fill-rule:nonzero;fill:url(#linear0);" d="M 15.175781 36.234375 L 3.703125 37.523438 L 10.441406 21.984375 L 3.546875 12.585938 L 20.308594 10.675781 L 24.863281 0.199219 L 34.84375 13.765625 L 46.316406 12.476562 L 39.609375 27.941406 L 46.453125 37.273438 L 29.773438 39.175781 L 25.148438 49.800781 Z M 19.941406 35.203125 C 19.5 35.417969 19.03125 35.601562 18.546875 35.734375 L 18.105469 35.855469 L 24.570312 44.644531 L 26.863281 39.363281 L 26.449219 39.308594 C 24.191406 39.023438 22.136719 37.804688 20.808594 35.976562 L 20.164062 35.085938 Z M 17.691406 27.234375 L 22.90625 34.449219 C 23.964844 35.914062 25.679688 36.789062 27.488281 36.789062 C 27.699219 36.789062 27.910156 36.78125 28.113281 36.753906 L 41.726562 35.203125 L 36.304688 27.808594 C 36.035156 27.445312 35.726562 27.113281 35.378906 26.824219 L 35.058594 26.558594 L 31.179688 35.324219 L 24.429688 26.390625 Z M 17.914062 18.449219 C 15.894531 18.664062 14.136719 19.960938 13.324219 21.828125 L 7.859375 34.445312 L 16.941406 33.425781 C 17.390625 33.375 17.828125 33.269531 18.253906 33.113281 L 18.644531 32.96875 L 13.023438 25.210938 L 24.105469 23.804688 L 26.738281 17.511719 Z M 26.488281 24.816406 L 30.59375 30.25 L 33.101562 24.59375 L 34.199219 22.105469 C 35.023438 20.238281 34.789062 18.066406 33.578125 16.425781 L 25.445312 5.355469 L 21.785156 13.765625 C 21.605469 14.179688 21.476562 14.613281 21.394531 15.066406 L 21.324219 15.476562 L 30.820312 14.46875 Z M 36.464844 16.195312 L 36.625 16.578125 C 37.503906 18.683594 37.484375 21.085938 36.566406 23.160156 L 36.121094 24.160156 L 36.335938 24.304688 C 36.746094 24.578125 37.128906 24.898438 37.484375 25.253906 L 37.808594 25.574219 L 42.15625 15.550781 Z M 8.273438 14.65625 L 11.734375 19.375 L 11.988281 19.046875 C 13.363281 17.261719 15.429688 16.101562 17.644531 15.863281 L 18.730469 15.75 L 18.75 15.484375 C 18.785156 14.941406 18.878906 14.394531 19.023438 13.863281 L 19.148438 13.414062 Z M 8.273438 14.65625 "/>
<path style=" stroke:none;fill-rule:nonzero;fill:url(#linear1);" d="M 22.578125 50 C 15.378906 49.304688 8.910156 45.558594 4.675781 39.625 L 7.574219 39.300781 C 8.054688 39.890625 8.566406 40.453125 9.089844 40.984375 C 12.234375 44.144531 16.171875 46.273438 20.484375 47.15625 Z M 22.578125 50 "/>
<path style=" stroke:none;fill-rule:nonzero;fill:url(#linear2);" d="M 28.621094 47.316406 C 33.289062 46.558594 37.535156 44.375 40.910156 40.984375 C 41.210938 40.679688 41.515625 40.355469 41.820312 40.015625 L 45.335938 39.613281 C 41.113281 45.546875 34.65625 49.296875 27.453125 50 Z M 28.621094 47.316406 "/>
<path style=" stroke:none;fill-rule:nonzero;fill:url(#linear3);" d="M 46.050781 33.015625 C 47.011719 30.460938 47.5 27.765625 47.5 25 C 47.5 22.558594 47.113281 20.160156 46.359375 17.871094 L 47.769531 14.621094 C 49.25 17.886719 50 21.375 50 25 C 50 28.621094 49.25 32.105469 47.773438 35.371094 Z M 46.050781 33.015625 "/>
<path style=" stroke:none;fill-rule:nonzero;fill:url(#linear4);" d="M 2.238281 35.40625 C 0.753906 32.128906 0 28.636719 0 25 C 0 21.34375 0.761719 17.828125 2.265625 14.542969 L 3.984375 16.894531 C 3 19.476562 2.5 22.199219 2.5 25 C 2.5 27.449219 2.886719 29.855469 3.644531 32.15625 Z M 2.238281 35.40625 "/>
<path style=" stroke:none;fill-rule:nonzero;fill:url(#linear5);" d="M 4.78125 10.230469 C 9.011719 4.390625 15.429688 0.691406 22.566406 0 L 21.398438 2.679688 C 16.726562 3.429688 12.46875 5.621094 9.089844 9.015625 C 8.835938 9.269531 8.578125 9.546875 8.324219 9.824219 Z M 4.78125 10.230469 "/>
<path style=" stroke:none;fill-rule:nonzero;fill:url(#linear6);" d="M 42.429688 10.699219 C 41.949219 10.109375 41.441406 9.546875 40.910156 9.015625 C 37.769531 5.859375 33.839844 3.730469 29.535156 2.851562 L 27.441406 0 C 34.636719 0.699219 41.09375 4.445312 45.324219 10.375 Z M 42.429688 10.699219 "/>
</g>
</svg>
