<?xml version="1.0" encoding="UTF-8"?>
<svg xmlns="http://www.w3.org/2000/svg" xmlns:xlink="http://www.w3.org/1999/xlink" width="50px" height="50px" viewBox="0 0 50 50" version="1.1">
<defs>
<linearGradient id="linear0" gradientUnits="userSpaceOnUse" x1="6.79322" y1="7.8677" x2="43.2068" y2="42.1321" >
<stop offset="0" style="stop-color:rgb(1.176471%,16.078431%,38.823529%);stop-opacity:1;"/>
<stop offset="0.604502" style="stop-color:rgb(1.568627%,5.098039%,12.941176%);stop-opacity:1;"/>
</linearGradient>
</defs>
<g id="surface1">
<path style=" stroke:none;fill-rule:nonzero;fill:url(#linear0);" d="M 7.867188 43.207031 C 17.921875 52.667969 33.746094 52.1875 43.207031 42.132812 C 52.667969 32.078125 52.1875 16.253906 42.132812 6.792969 C 32.078125 -2.667969 16.253906 -2.1875 6.792969 7.867188 C -2.667969 17.921875 -2.1875 33.746094 7.867188 43.207031 Z M 7.867188 43.207031 "/>
<path style=" stroke:none;fill-rule:evenodd;fill:rgb(100%,100%,100%);fill-opacity:1;" d="M 11.199219 7.40625 C 11.199219 7.40625 19.3125 12.121094 21.960938 17.484375 C 22.925781 17.21875 23.9375 17.074219 24.96875 17.074219 C 26.019531 17.074219 27.050781 17.226562 28.03125 17.5 C 30.671875 12.128906 38.800781 7.40625 38.800781 7.40625 C 39.089844 10.46875 38.820312 17.820312 35.613281 23.964844 C 35.425781 23.648438 35.246094 23.351562 35.070312 23.066406 C 36.136719 20.859375 36.445312 19.441406 36.472656 16.730469 C 35.859375 19.191406 35.5 20.574219 34.375 22.019531 C 33.683594 21.042969 32.878906 20.09375 31.636719 18.75 L 31.636719 18.714844 C 32.050781 16.207031 32.683594 14.699219 34.007812 11.957031 C 31.417969 14.988281 30.183594 17.449219 30.222656 19.640625 L 30.199219 19.621094 C 30.21875 20.863281 30.640625 22.019531 31.460938 23.144531 L 31.613281 21.964844 L 32.320312 22.398438 C 32.234375 22.132812 32.144531 21.910156 32.0625 21.703125 C 31.972656 21.476562 31.890625 21.265625 31.820312 21.035156 C 31.832031 21.042969 31.839844 21.050781 31.847656 21.058594 C 31.847656 21.050781 31.84375 21.042969 31.839844 21.035156 C 32.855469 21.875 33.769531 22.839844 35.300781 24.542969 L 35.28125 24.578125 L 35.261719 24.558594 C 35.332031 24.957031 35.371094 25.355469 35.371094 25.765625 C 35.371094 26.417969 35.273438 27.242188 35.085938 28.167969 C 35.378906 28.335938 35.664062 28.566406 35.851562 28.929688 C 35.457031 28.933594 35.1875 28.96875 34.886719 29.070312 C 34.875 29.113281 34.867188 29.160156 34.855469 29.203125 C 35.917969 30.230469 36.402344 30.957031 37.09375 32.324219 C 36.003906 31.414062 35.3125 30.851562 34.535156 30.386719 C 34.5 30.507812 34.464844 30.628906 34.425781 30.75 C 35.023438 31.808594 35.140625 32.589844 34.867188 33.933594 C 34.351562 33.488281 33.980469 33.175781 33.652344 33 C 33.410156 33.636719 33.148438 34.273438 32.863281 34.902344 C 32.671875 35.085938 32.519531 35.285156 32.371094 35.484375 C 31.964844 36.011719 31.574219 36.523438 30.511719 36.671875 C 30.566406 38.132812 30.246094 38.769531 29.902344 39.449219 C 29.730469 39.789062 29.554688 40.140625 29.417969 40.609375 C 29.148438 40.925781 28.871094 41.21875 28.589844 41.488281 C 26.855469 42.355469 26.765625 42.3125 25.144531 41.542969 L 24.941406 41.449219 C 23.125 42.308594 22.996094 42.355469 21.453125 41.585938 C 21.085938 41.242188 20.726562 40.855469 20.375 40.433594 C 20.246094 40.050781 20.09375 39.746094 19.945312 39.449219 C 19.601562 38.769531 19.277344 38.132812 19.335938 36.671875 C 18.269531 36.523438 17.878906 36.011719 17.476562 35.484375 C 17.375 35.351562 17.273438 35.21875 17.160156 35.089844 C 16.847656 34.40625 16.558594 33.714844 16.296875 33.027344 C 15.964844 33.199219 15.59375 33.511719 15.074219 33.960938 C 14.796875 32.613281 14.914062 31.832031 15.519531 30.769531 C 15.480469 30.648438 15.445312 30.53125 15.410156 30.414062 C 14.628906 30.878906 13.9375 31.441406 12.84375 32.351562 C 13.539062 30.984375 14.023438 30.257812 15.089844 29.226562 C 15.078125 29.183594 15.070312 29.144531 15.058594 29.101562 C 14.757812 28.996094 14.484375 28.964844 14.089844 28.957031 C 14.277344 28.59375 14.566406 28.363281 14.855469 28.191406 C 14.667969 27.253906 14.566406 26.425781 14.566406 25.765625 C 14.566406 25.359375 14.605469 24.960938 14.675781 24.566406 C 16.222656 22.847656 17.140625 21.878906 18.15625 21.035156 C 18.089844 21.265625 18.003906 21.476562 17.914062 21.703125 C 17.832031 21.910156 17.746094 22.132812 17.65625 22.398438 L 18.363281 21.964844 L 18.519531 23.144531 C 20.777344 20.039062 20.035156 16.695312 15.992188 11.957031 C 17.316406 14.699219 17.949219 16.207031 18.363281 18.714844 L 18.363281 18.75 C 17.121094 20.09375 16.316406 21.042969 15.625 22.019531 C 14.5 20.574219 14.140625 19.191406 13.527344 16.730469 C 13.554688 19.441406 13.863281 20.859375 14.929688 23.066406 C 14.753906 23.351562 14.574219 23.648438 14.386719 23.964844 C 11.179688 17.820312 10.910156 10.46875 11.199219 7.40625 Z M 22.117188 30.308594 L 21.195312 28.582031 L 18.609375 28.121094 C 18.722656 29.949219 19.945312 30.652344 22.117188 30.308594 Z M 29.101562 28.582031 L 28.179688 30.308594 C 30.347656 30.652344 31.574219 29.949219 31.6875 28.121094 Z M 23.3125 37.578125 C 22.914062 37.855469 22.664062 38.230469 22.664062 38.648438 C 22.664062 39.492188 23.675781 40.171875 24.921875 40.171875 C 26.171875 40.171875 27.183594 39.492188 27.183594 38.648438 C 27.183594 38.210938 26.90625 37.816406 26.46875 37.535156 C 26.023438 37.710938 25.453125 37.816406 24.835938 37.816406 C 24.265625 37.816406 23.742188 37.726562 23.3125 37.578125 Z M 23.3125 37.578125 "/>
</g>
</svg>
