<?xml version="1.0" encoding="UTF-8"?>
<svg xmlns="http://www.w3.org/2000/svg" xmlns:xlink="http://www.w3.org/1999/xlink" width="50px" height="50px" viewBox="0 0 50 50" version="1.1">
<g id="surface1">
<path style=" stroke:none;fill-rule:nonzero;fill:rgb(11.764706%,11.764706%,11.764706%);fill-opacity:1;" d="M 49.996094 25.066406 C 49.996094 28.34375 49.351562 31.589844 48.097656 34.617188 C 46.84375 37.644531 45.007812 40.394531 42.691406 42.710938 C 40.375 45.027344 37.625 46.867188 34.597656 48.121094 C 31.570312 49.375 28.328125 50.019531 25.054688 50.019531 C 21.777344 50.019531 18.535156 49.375 15.507812 48.121094 C 12.480469 46.867188 9.730469 45.027344 7.414062 42.710938 C 5.097656 40.394531 3.261719 37.644531 2.007812 34.617188 C 0.753906 31.589844 0.109375 28.34375 0.109375 25.066406 C 0.109375 18.449219 2.738281 12.101562 7.414062 7.421875 C 12.09375 2.742188 18.4375 0.113281 25.054688 0.113281 C 31.667969 0.113281 38.011719 2.742188 42.691406 7.421875 C 47.367188 12.101562 49.996094 18.449219 49.996094 25.066406 Z M 49.996094 25.066406 "/>
<path style=" stroke:none;fill-rule:evenodd;fill:rgb(100%,48.235294%,48.627451%);fill-opacity:1;" d="M 25.074219 4.554688 C 13.761719 4.554688 4.589844 13.746094 4.589844 25.089844 C 4.589844 36.433594 13.761719 45.625 25.074219 45.625 C 36.386719 45.625 45.558594 36.433594 45.558594 25.089844 C 45.558594 13.75 36.386719 4.554688 25.074219 4.554688 Z M 2.511719 25.089844 C 2.511719 12.59375 12.617188 2.472656 25.074219 2.472656 C 37.535156 2.472656 47.636719 12.597656 47.636719 25.089844 C 47.636719 37.582031 37.535156 47.707031 25.074219 47.707031 C 12.617188 47.707031 2.511719 37.582031 2.511719 25.089844 Z M 2.511719 25.089844 "/>
<path style=" stroke:none;fill-rule:evenodd;fill:rgb(100%,48.235294%,48.627451%);fill-opacity:1;" d="M 33.980469 19.699219 L 28.289062 19.460938 L 32.15625 15.265625 L 30.601562 13.707031 L 26.410156 17.570312 L 26.179688 11.867188 L 23.980469 11.867188 L 23.746094 17.570312 L 19.558594 13.695312 L 18.003906 15.257812 L 21.863281 19.457031 L 16.167969 19.683594 L 16.167969 21.890625 L 21.859375 22.128906 L 17.992188 26.324219 L 19.550781 27.882812 L 23.675781 24.078125 L 23.859375 33.320312 L 20.5625 33.5625 L 20.5625 35.617188 L 23.90625 35.871094 L 23.96875 39.082031 L 26.167969 39.082031 L 26.234375 35.875 L 29.613281 35.617188 L 29.613281 33.5625 L 26.285156 33.320312 L 26.472656 24.082031 L 30.59375 27.890625 L 32.144531 26.332031 L 28.289062 22.132812 L 33.980469 21.902344 Z M 33.980469 19.699219 "/>
</g>
</svg>
