<svg width="50" height="50" viewBox="0 0 50 50" fill="none" xmlns="http://www.w3.org/2000/svg">
<g clip-path="url(#clip0_925_2291)">
<path d="M25 50C38.8071 50 50 38.8071 50 25C50 11.1929 38.8071 0 25 0C11.1929 0 0 11.1929 0 25C0 38.8071 11.1929 50 25 50Z" fill="#0000FF"/>
<path d="M35.625 31.5625H29.375L22.9688 22.9688V31.5625H17.8125V13.2812H22.9688V21.4062L29.0625 13.2812H34.5313L28.2813 21.875L35.625 31.5625Z" fill="white"/>
<path d="M20.1562 39.375C21.7095 39.375 22.9687 38.1158 22.9687 36.5625C22.9687 35.0092 21.7095 33.75 20.1562 33.75C18.6029 33.75 17.3438 35.0092 17.3438 36.5625C17.3438 38.1158 18.6029 39.375 20.1562 39.375Z" fill="white"/>
</g>
<defs>
<clipPath id="clip0_925_2291">
<rect width="50" height="50" fill="white"/>
</clipPath>
</defs>
</svg>
