<?xml version="1.0" encoding="UTF-8"?>
<svg xmlns="http://www.w3.org/2000/svg" xmlns:xlink="http://www.w3.org/1999/xlink" width="50px" height="50px" viewBox="0 0 50 50" version="1.1">
<g id="surface1">
<path style=" stroke:none;fill-rule:nonzero;fill:rgb(0%,0%,100%);fill-opacity:1;" d="M 25 50 C 38.808594 50 50 38.808594 50 25 C 50 11.191406 38.808594 0 25 0 C 11.191406 0 0 11.191406 0 25 C 0 38.808594 11.191406 50 25 50 Z M 25 50 "/>
<path style=" stroke:none;fill-rule:nonzero;fill:rgb(100%,100%,100%);fill-opacity:1;" d="M 35.625 31.5625 L 29.375 31.5625 L 22.96875 22.96875 L 22.96875 31.5625 L 17.8125 31.5625 L 17.8125 13.28125 L 22.96875 13.28125 L 22.96875 21.40625 L 29.0625 13.28125 L 34.53125 13.28125 L 28.28125 21.875 Z M 35.625 31.5625 "/>
<path style=" stroke:none;fill-rule:nonzero;fill:rgb(100%,100%,100%);fill-opacity:1;" d="M 20.15625 39.375 C 21.710938 39.375 22.96875 38.117188 22.96875 36.5625 C 22.96875 35.007812 21.710938 33.75 20.15625 33.75 C 18.601562 33.75 17.34375 35.007812 17.34375 36.5625 C 17.34375 38.117188 18.601562 39.375 20.15625 39.375 Z M 20.15625 39.375 "/>
</g>
</svg>
