<svg width="50" height="50" viewBox="0 0 50 50" fill="none" xmlns="http://www.w3.org/2000/svg">
<g clip-path="url(#clip0_925_2220)">
<path d="M25 50C38.8072 50 50 38.8072 50 25C50 11.1929 38.8072 0 25 0C11.1929 0 0 11.1929 0 25C0 38.8072 11.1929 50 25 50Z" fill="#012F61"/>
<path d="M18.1699 9.57504V21.4001C18.1699 21.8001 18.5499 22.1251 18.9499 22.1251C19.3499 22.1251 19.7299 21.8001 19.7299 21.4001V10.18C20.45 10.055 21.26 9.99004 22.05 9.99004C29.64 9.99004 35.855 15.685 36.535 23.2301C36.57 23.6301 36.915 23.9251 37.31 23.8851C37.71 23.8501 38 23.5001 37.96 23.1001C37.605 19.135 35.785 15.46 32.84 12.76C29.88 10.04 26.03 8.54004 22.01 8.54004C20.925 8.54004 19.8199 8.65004 18.7649 8.86504C18.4299 8.93504 18.1699 9.23004 18.1699 9.57504Z" fill="white"/>
<path d="M22.3898 39.7999C22.3898 39.8149 22.3898 39.8349 22.3898 39.8499C22.4198 40.2499 22.7648 40.5499 23.1648 40.5199C26.9598 40.2499 30.5498 38.6199 33.2648 35.9399C35.9798 33.2599 37.6498 29.6949 37.9648 25.9099C37.9998 25.5099 37.7048 25.1599 37.3048 25.1249C36.9048 25.0899 36.5548 25.3849 36.5198 25.7849C35.9248 32.8549 30.1398 38.5699 23.0598 39.0749C22.6848 39.1049 22.3898 39.4249 22.3898 39.7999Z" fill="white"/>
<path d="M21.2898 12.4101V24.1551C21.2898 24.5551 21.6098 24.8801 22.0098 24.8801C22.4098 24.8801 22.7298 24.5551 22.7298 24.1551V13.1601C28.6098 13.5351 33.4248 18.5001 33.4248 24.5501C33.4248 27.2701 32.4548 29.9001 30.6898 31.9651C30.4298 32.2701 30.4648 32.7251 30.7698 32.9851C31.0748 33.2451 31.5298 33.2101 31.7898 32.9051C33.7798 30.5801 34.8698 27.6151 34.8698 24.5501C34.8698 21.1151 33.5298 17.8851 31.0998 15.4551C28.6698 13.0251 25.4398 11.6851 22.0048 11.6851C21.6148 11.6851 21.2898 12.0101 21.2898 12.4101Z" fill="#99D7FD"/>
<path d="M22.3898 33.4249C22.3898 33.4549 22.3898 33.4849 22.3948 33.5149C22.4448 33.9099 22.8048 34.1949 23.1998 34.1449C28.0348 33.5499 31.6798 29.4249 31.6798 24.5499C31.6798 22.5449 31.0698 20.6199 29.9198 18.9849C28.7948 17.3899 27.2348 16.1799 25.4148 15.4949C25.1948 15.4099 24.9298 15.4399 24.7348 15.5749C24.5398 15.7099 24.4098 15.9349 24.4098 16.1699V26.3999C24.4098 26.7999 24.7298 27.1249 25.1298 27.1249C25.5298 27.1249 25.8498 26.7999 25.8498 26.3999V17.2999C28.4898 18.7149 30.2148 21.5099 30.2148 24.5499C30.2148 28.6949 27.1248 32.1999 23.0198 32.7049C22.6498 32.7549 22.3898 33.0649 22.3898 33.4249Z" fill="white"/>
<path d="M18.9001 23.89C19.8307 23.89 20.585 23.1356 20.585 22.205C20.585 21.2744 19.8307 20.52 18.9001 20.52C17.9695 20.52 17.2151 21.2744 17.2151 22.205C17.2151 23.1356 17.9695 23.89 18.9001 23.89Z" fill="white"/>
<path d="M22.39 41.4601C23.3206 41.4601 24.075 40.7057 24.075 39.7751C24.075 38.8445 23.3206 38.0901 22.39 38.0901C21.4594 38.0901 20.705 38.8445 20.705 39.7751C20.705 40.7057 21.4594 41.4601 22.39 41.4601Z" fill="white"/>
</g>
<defs>
<clipPath id="clip0_925_2220">
<rect width="50" height="50" fill="white"/>
</clipPath>
</defs>
</svg>
