<?xml version="1.0" encoding="UTF-8"?>
<svg xmlns="http://www.w3.org/2000/svg" xmlns:xlink="http://www.w3.org/1999/xlink" width="50px" height="50px" viewBox="0 0 50 50" version="1.1">
<g id="surface1">
<path style=" stroke:none;fill-rule:nonzero;fill:rgb(0.392157%,18.431373%,38.039216%);fill-opacity:1;" d="M 25 50 C 38.808594 50 50 38.808594 50 25 C 50 11.191406 38.808594 0 25 0 C 11.191406 0 0 11.191406 0 25 C 0 38.808594 11.191406 50 25 50 Z M 25 50 "/>
<path style=" stroke:none;fill-rule:nonzero;fill:rgb(100%,100%,100%);fill-opacity:1;" d="M 18.167969 9.574219 L 18.167969 21.398438 C 18.167969 21.800781 18.550781 22.125 18.949219 22.125 C 19.351562 22.125 19.730469 21.800781 19.730469 21.398438 L 19.730469 10.179688 C 20.449219 10.054688 21.261719 9.988281 22.050781 9.988281 C 29.640625 9.988281 35.855469 15.683594 36.535156 23.230469 C 36.570312 23.628906 36.914062 23.925781 37.308594 23.886719 C 37.710938 23.851562 38 23.5 37.960938 23.101562 C 37.605469 19.136719 35.785156 15.460938 32.839844 12.761719 C 29.878906 10.039062 26.03125 8.539062 22.011719 8.539062 C 20.925781 8.539062 19.820312 8.648438 18.765625 8.863281 C 18.429688 8.933594 18.167969 9.230469 18.167969 9.574219 Z M 18.167969 9.574219 "/>
<path style=" stroke:none;fill-rule:nonzero;fill:rgb(100%,100%,100%);fill-opacity:1;" d="M 22.390625 39.800781 C 22.390625 39.816406 22.390625 39.835938 22.390625 39.851562 C 22.417969 40.25 22.765625 40.550781 23.164062 40.519531 C 26.960938 40.25 30.550781 38.621094 33.265625 35.941406 C 35.980469 33.261719 37.648438 29.695312 37.964844 25.910156 C 38 25.511719 37.703125 25.160156 37.304688 25.125 C 36.90625 25.089844 36.554688 25.386719 36.519531 25.785156 C 35.925781 32.855469 30.140625 38.570312 23.058594 39.074219 C 22.683594 39.105469 22.390625 39.425781 22.390625 39.800781 Z M 22.390625 39.800781 "/>
<path style=" stroke:none;fill-rule:nonzero;fill:rgb(60%,84.313725%,99.215686%);fill-opacity:1;" d="M 21.289062 12.410156 L 21.289062 24.15625 C 21.289062 24.554688 21.609375 24.878906 22.011719 24.878906 C 22.410156 24.878906 22.730469 24.554688 22.730469 24.15625 L 22.730469 13.160156 C 28.609375 13.535156 33.425781 18.5 33.425781 24.550781 C 33.425781 27.269531 32.453125 29.898438 30.691406 31.964844 C 30.429688 32.269531 30.464844 32.726562 30.769531 32.984375 C 31.074219 33.246094 31.53125 33.210938 31.789062 32.90625 C 33.78125 30.582031 34.871094 27.613281 34.871094 24.550781 C 34.871094 21.113281 33.53125 17.886719 31.101562 15.457031 C 28.667969 13.023438 25.441406 11.683594 22.003906 11.683594 C 21.613281 11.683594 21.289062 12.011719 21.289062 12.410156 Z M 21.289062 12.410156 "/>
<path style=" stroke:none;fill-rule:nonzero;fill:rgb(100%,100%,100%);fill-opacity:1;" d="M 22.390625 33.425781 C 22.390625 33.453125 22.390625 33.484375 22.394531 33.515625 C 22.445312 33.910156 22.804688 34.195312 23.199219 34.144531 C 28.035156 33.550781 31.679688 29.425781 31.679688 24.550781 C 31.679688 22.542969 31.070312 20.621094 29.917969 18.984375 C 28.792969 17.390625 27.234375 16.179688 25.414062 15.496094 C 25.195312 15.410156 24.929688 15.441406 24.734375 15.574219 C 24.539062 15.710938 24.410156 15.933594 24.410156 16.167969 L 24.410156 26.398438 C 24.410156 26.800781 24.730469 27.125 25.128906 27.125 C 25.53125 27.125 25.851562 26.800781 25.851562 26.398438 L 25.851562 17.300781 C 28.488281 18.714844 30.214844 21.511719 30.214844 24.550781 C 30.214844 28.695312 27.125 32.199219 23.019531 32.703125 C 22.648438 32.753906 22.390625 33.066406 22.390625 33.425781 Z M 22.390625 33.425781 "/>
<path style=" stroke:none;fill-rule:nonzero;fill:rgb(100%,100%,100%);fill-opacity:1;" d="M 18.898438 23.890625 C 19.832031 23.890625 20.585938 23.136719 20.585938 22.203125 C 20.585938 21.273438 19.832031 20.519531 18.898438 20.519531 C 17.96875 20.519531 17.214844 21.273438 17.214844 22.203125 C 17.214844 23.136719 17.96875 23.890625 18.898438 23.890625 Z M 18.898438 23.890625 "/>
<path style=" stroke:none;fill-rule:nonzero;fill:rgb(100%,100%,100%);fill-opacity:1;" d="M 22.390625 41.460938 C 23.320312 41.460938 24.074219 40.707031 24.074219 39.773438 C 24.074219 38.84375 23.320312 38.089844 22.390625 38.089844 C 21.460938 38.089844 20.703125 38.84375 20.703125 39.773438 C 20.703125 40.707031 21.460938 41.460938 22.390625 41.460938 Z M 22.390625 41.460938 "/>
</g>
</svg>
