<svg width="51" height="50" viewBox="0 0 51 50" fill="none" xmlns="http://www.w3.org/2000/svg">
<g clip-path="url(#clip0_30_65)">
<path d="M26.0073 49.3902C39.4777 49.3902 50.3976 38.4704 50.3976 25C50.3976 11.5296 39.4777 0.609741 26.0073 0.609741C12.537 0.609741 1.6171 11.5296 1.6171 25C1.6171 38.4704 12.537 49.3902 26.0073 49.3902Z" fill="#B4E07C"/>
<path d="M40.0555 24.9999C40.0555 31.7406 35.8361 37.4265 30.0472 39.2789C30.9991 37.8124 31.6938 36.1401 32.054 34.3649C40.1841 28.0615 36.7109 14.6315 26.857 13.6023C22.5604 20.3945 28.0661 23.8678 28.9409 26.2605C31.1278 30.66 30.2273 36.4232 26.7283 39.8707C9.67055 40.0765 6.53172 16.1237 21.8143 10.7465C20.8623 12.2129 20.1933 13.9111 19.8589 15.6605C12.372 21.5008 14.7905 33.9532 23.7695 36.1401C24.1812 36.243 24.6185 36.2945 25.0302 36.346C29.404 29.6308 23.9239 26.0033 23.0491 23.7649C20.8109 19.3654 21.6341 13.5766 25.1332 10.0775C33.2889 9.58871 40.0812 16.5352 40.0555 24.9999Z" fill="#222531"/>
</g>
<defs>
<clipPath id="clip0_30_65">
<rect width="50" height="50" fill="white" transform="translate(0.5)"/>
</clipPath>
</defs>
</svg>
