<?xml version="1.0" encoding="UTF-8"?>
<svg xmlns="http://www.w3.org/2000/svg" xmlns:xlink="http://www.w3.org/1999/xlink" width="50px" height="50px" viewBox="0 0 50 50" version="1.1">
<g id="surface1">
<path style=" stroke:none;fill-rule:nonzero;fill:rgb(13.333333%,14.117647%,18.431373%);fill-opacity:1;" d="M 25 50 C 38.808594 50 50 38.808594 50 25 C 50 11.191406 38.808594 0 25 0 C 11.191406 0 0 11.191406 0 25 C 0 38.808594 11.191406 50 25 50 Z M 25 50 "/>
<path style=" stroke:none;fill-rule:nonzero;fill:rgb(89.803922%,22.352941%,20.784314%);fill-opacity:1;" d="M 25 1 C 38.253906 1 49 11.746094 49 25 C 49 38.253906 38.253906 49 25 49 C 11.746094 49 1 38.253906 1 25 C 1 11.746094 11.746094 1 25 1 Z M 25 2.695312 C 12.679688 2.695312 2.695312 12.679688 2.695312 25 C 2.695312 37.320312 12.679688 47.304688 25 47.304688 C 37.320312 47.304688 47.304688 37.320312 47.304688 25 C 47.304688 12.679688 37.320312 2.695312 25 2.695312 Z M 25 2.695312 "/>
<path style=" stroke:none;fill-rule:nonzero;fill:rgb(89.803922%,22.352941%,20.784314%);fill-opacity:1;" d="M 40.125 15.542969 L 40.125 13.363281 L 33.21875 13.363281 C 32.847656 11.953125 32.476562 10.710938 32.074219 9.570312 L 29.75 9.972656 C 30.152344 10.980469 30.558594 12.121094 30.929688 13.363281 L 23.617188 13.363281 L 23.617188 15.542969 Z M 22.441406 31.742188 L 22.441406 17.824219 L 19.039062 17.824219 C 19.746094 16.78125 20.453125 15.507812 21.160156 13.964844 L 21.160156 12.355469 L 15.601562 12.355469 C 15.90625 11.683594 16.175781 11.011719 16.445312 10.308594 L 14.289062 9.636719 C 13.277344 12.925781 11.695312 15.574219 9.570312 17.621094 L 10.078125 20.003906 C 10.515625 19.601562 10.953125 19.199219 11.355469 18.761719 L 11.355469 31.742188 Z M 16.714844 17.824219 L 12.199219 17.824219 C 13.074219 16.75 13.917969 15.542969 14.65625 14.265625 L 18.902344 14.265625 C 18.160156 15.609375 17.453125 16.816406 16.714844 17.824219 Z M 30.59375 40.429688 C 32.277344 40.429688 33.152344 39.488281 33.152344 37.644531 L 33.152344 28.085938 L 38.507812 28.085938 L 38.507812 18.558594 L 25.402344 18.558594 L 25.402344 28.085938 L 30.792969 28.085938 L 30.792969 37.074219 C 30.792969 37.914062 30.457031 38.347656 29.785156 38.347656 C 29.007812 38.347656 28.199219 38.28125 27.390625 38.179688 L 27.863281 40.429688 Z M 15.9375 23.792969 L 13.445312 23.792969 L 13.445312 19.800781 L 15.9375 19.800781 Z M 20.351562 23.792969 L 17.890625 23.792969 L 17.890625 19.800781 L 20.351562 19.800781 Z M 36.21875 25.972656 L 27.695312 25.972656 L 27.695312 20.707031 L 36.21875 20.707031 Z M 20.351562 29.730469 L 17.890625 29.730469 L 17.890625 25.738281 L 20.351562 25.738281 Z M 15.9375 29.730469 L 13.445312 29.730469 L 13.445312 25.738281 L 15.9375 25.738281 Z M 38.644531 38.886719 L 40.429688 37.644531 C 39.519531 35.5 38.238281 33.015625 36.554688 30.164062 L 34.769531 31.238281 C 36.386719 34.023438 37.699219 36.570312 38.644531 38.886719 Z M 24.527344 39.457031 C 26.011719 37.140625 27.289062 34.390625 28.367188 31.238281 L 26.414062 30.300781 C 25.371094 33.316406 24.125 35.933594 22.710938 38.148438 Z M 21.730469 37.175781 L 23.382812 36.773438 C 22.910156 35.164062 22.441406 33.753906 21.902344 32.546875 L 20.316406 33.015625 C 20.855469 34.359375 21.328125 35.734375 21.730469 37.175781 Z M 18.160156 39.121094 L 19.914062 38.917969 C 19.710938 36.371094 19.339844 34.359375 18.800781 32.882812 L 17.117188 33.082031 C 17.65625 34.492188 17.992188 36.503906 18.160156 39.121094 Z M 11.726562 40.027344 C 12.433594 38.046875 12.871094 35.800781 13.074219 33.25 L 11.253906 33.015625 C 11.085938 35.429688 10.617188 37.578125 9.875 39.457031 Z M 14.558594 39.625 L 16.308594 39.421875 C 16.242188 36.773438 16.074219 34.660156 15.835938 33.117188 L 14.21875 33.316406 C 14.386719 34.792969 14.488281 36.90625 14.558594 39.625 Z M 14.558594 39.625 "/>
</g>
</svg>
