<?xml version="1.0" encoding="UTF-8"?>
<svg xmlns="http://www.w3.org/2000/svg" xmlns:xlink="http://www.w3.org/1999/xlink" width="50px" height="50px" viewBox="0 0 50 50" version="1.1">
<defs>
<linearGradient id="linear0" gradientUnits="userSpaceOnUse" x1="25" y1="-51.3139" x2="25" y2="51.2982" >
<stop offset="0" style="stop-color:rgb(34.509804%,77.647059%,69.803922%);stop-opacity:1;"/>
<stop offset="1" style="stop-color:rgb(14.509804%,16.862745%,18.039216%);stop-opacity:1;"/>
</linearGradient>
<linearGradient id="linear1" gradientUnits="userSpaceOnUse" x1="31.1073" y1="32.3823" x2="26.3553" y2="26.4427" >
<stop offset="0" style="stop-color:rgb(100%,100%,100%);stop-opacity:1;"/>
<stop offset="1" style="stop-color:rgb(100%,100%,100%);stop-opacity:0;"/>
</linearGradient>
<linearGradient id="linear2" gradientUnits="userSpaceOnUse" x1="17.4827" y1="16.747" x2="17.4827" y2="24.318" >
<stop offset="0" style="stop-color:rgb(100%,100%,100%);stop-opacity:1;"/>
<stop offset="1" style="stop-color:rgb(93.333333%,93.333333%,93.333333%);stop-opacity:0;"/>
</linearGradient>
<linearGradient id="linear3" gradientUnits="userSpaceOnUse" x1="17.4827" y1="29.667" x2="17.4827" y2="34.5283" >
<stop offset="0" style="stop-color:rgb(100%,100%,100%);stop-opacity:0;"/>
<stop offset="1" style="stop-color:rgb(98.039216%,98.039216%,98.039216%);stop-opacity:1;"/>
</linearGradient>
</defs>
<g id="surface1">
<path style=" stroke:none;fill-rule:nonzero;fill:url(#linear0);" d="M 50 25 C 50 11.191406 38.808594 0 25 0 C 11.191406 0 0 11.191406 0 25 C 0 38.808594 11.191406 50 25 50 C 38.808594 50 50 38.808594 50 25 Z M 50 25 "/>
<path style=" stroke:none;fill-rule:nonzero;fill:url(#linear1);" d="M 37.445312 35.929688 L 31.078125 35.945312 L 24.816406 29.109375 L 28.027344 25.734375 Z M 37.445312 35.929688 "/>
<path style=" stroke:none;fill-rule:nonzero;fill:url(#linear2);" d="M 19.738281 14.066406 L 19.738281 24.316406 L 15.226562 19.53125 L 15.226562 14.066406 Z M 19.738281 14.066406 "/>
<path style=" stroke:none;fill-rule:nonzero;fill:url(#linear3);" d="M 19.734375 34.445312 L 19.738281 35.945312 L 15.226562 35.945312 L 15.226562 29.667969 Z M 19.734375 34.445312 "/>
<path style=" stroke:none;fill-rule:nonzero;fill:rgb(34.509804%,77.647059%,69.803922%);fill-opacity:1;" d="M 37.542969 14.0625 L 19.738281 32.765625 L 12.484375 25.074219 L 12.484375 18.308594 L 19.808594 26.074219 L 31.132812 14.0625 Z M 37.542969 14.0625 "/>
</g>
</svg>
