<?xml version="1.0" encoding="UTF-8"?>
<svg xmlns="http://www.w3.org/2000/svg" xmlns:xlink="http://www.w3.org/1999/xlink" width="50px" height="50px" viewBox="0 0 50 50" version="1.1">
<g id="surface1">
<path style=" stroke:none;fill-rule:nonzero;fill:rgb(100%,100%,100%);fill-opacity:1;" d="M 25 50 C 38.808594 50 50 38.808594 50 25 C 50 11.191406 38.808594 0 25 0 C 11.191406 0 0 11.191406 0 25 C 0 38.808594 11.191406 50 25 50 Z M 25 50 "/>
<path style=" stroke:none;fill-rule:nonzero;fill:rgb(88.235294%,12.156863%,32.54902%);fill-opacity:1;" d="M 19.980469 18.316406 L 20.015625 18.414062 C 20.324219 19.308594 21.148438 19.925781 22.09375 19.964844 C 23.042969 20.003906 23.914062 19.460938 24.296875 18.59375 L 28.488281 9.136719 C 28.871094 8.265625 28.679688 7.246094 28.007812 6.574219 C 27.472656 6.039062 26.707031 5.800781 25.964844 5.9375 C 25.21875 6.074219 24.589844 6.566406 24.277344 7.257812 L 20.058594 16.621094 C 19.816406 17.15625 19.789062 17.761719 19.980469 18.316406 Z M 19.980469 18.316406 "/>
<path style=" stroke:none;fill-rule:nonzero;fill:rgb(88.235294%,12.156863%,32.54902%);fill-opacity:1;" d="M 27.015625 16.265625 C 27.257812 15.722656 27.714844 15.304688 28.277344 15.109375 L 33.503906 13.316406 C 34.273438 13.054688 35.128906 13.25 35.707031 13.828125 L 35.773438 13.898438 C 36.300781 14.421875 36.515625 15.183594 36.34375 15.90625 C 36.167969 16.628906 35.632812 17.210938 34.925781 17.4375 L 29.632812 19.164062 C 28.828125 19.425781 27.949219 19.191406 27.382812 18.5625 C 26.816406 17.9375 26.675781 17.035156 27.015625 16.265625 Z M 27.015625 16.265625 "/>
<path style=" stroke:none;fill-rule:nonzero;fill:rgb(29.803922%,54.509804%,96.078431%);fill-opacity:1;" d="M 31.574219 19.921875 L 31.480469 19.953125 C 30.585938 20.261719 29.972656 21.085938 29.933594 22.03125 C 29.890625 22.976562 30.433594 23.851562 31.300781 24.234375 L 40.757812 28.425781 C 41.625 28.8125 42.644531 28.621094 43.316406 27.949219 C 43.851562 27.414062 44.089844 26.652344 43.957031 25.90625 C 43.820312 25.160156 43.328125 24.53125 42.636719 24.21875 L 33.269531 20 C 32.738281 19.757812 32.128906 19.730469 31.574219 19.921875 Z M 31.574219 19.921875 "/>
<path style=" stroke:none;fill-rule:nonzero;fill:rgb(29.803922%,54.509804%,96.078431%);fill-opacity:1;" d="M 33.683594 27.023438 C 34.226562 27.265625 34.644531 27.71875 34.839844 28.28125 L 36.632812 33.503906 C 36.894531 34.273438 36.699219 35.128906 36.121094 35.707031 L 36.054688 35.773438 C 35.527344 36.296875 34.769531 36.511719 34.050781 36.339844 C 33.328125 36.167969 32.75 35.636719 32.515625 34.929688 L 30.792969 29.636719 C 30.53125 28.835938 30.765625 27.960938 31.390625 27.394531 C 32.015625 26.832031 32.910156 26.683594 33.683594 27.023438 Z M 33.683594 27.023438 "/>
<path style=" stroke:none;fill-rule:nonzero;fill:rgb(26.27451%,77.647059%,67.45098%);fill-opacity:1;" d="M 29.925781 31.578125 L 29.894531 31.484375 C 29.582031 30.59375 28.761719 29.980469 27.816406 29.941406 C 26.875 29.902344 26.003906 30.441406 25.617188 31.300781 L 21.425781 40.757812 C 21.039062 41.628906 21.230469 42.648438 21.902344 43.320312 C 22.4375 43.855469 23.203125 44.09375 23.945312 43.957031 C 24.691406 43.820312 25.320312 43.328125 25.632812 42.636719 L 29.851562 33.273438 C 30.09375 32.738281 30.121094 32.132812 29.925781 31.578125 Z M 29.925781 31.578125 "/>
<path style=" stroke:none;fill-rule:nonzero;fill:rgb(26.27451%,77.647059%,67.45098%);fill-opacity:1;" d="M 22.824219 33.679688 C 22.582031 34.226562 22.125 34.644531 21.5625 34.835938 L 16.335938 36.628906 C 15.5625 36.898438 14.699219 36.699219 14.117188 36.117188 L 14.050781 36.046875 C 13.53125 35.523438 13.320312 34.761719 13.496094 34.042969 C 13.671875 33.324219 14.207031 32.746094 14.914062 32.515625 L 20.207031 30.792969 C 21.007812 30.535156 21.882812 30.769531 22.445312 31.390625 C 23.011719 32.015625 23.160156 32.910156 22.824219 33.679688 Z M 22.824219 33.679688 "/>
<path style=" stroke:none;fill-rule:nonzero;fill:rgb(97.254902%,69.803922%,20%);fill-opacity:1;" d="M 18.316406 29.992188 L 18.414062 29.957031 C 19.308594 29.652344 19.925781 28.824219 19.964844 27.878906 C 20.003906 26.929688 19.460938 26.058594 18.59375 25.675781 L 9.136719 21.484375 C 8.265625 21.097656 7.246094 21.289062 6.574219 21.964844 C 6.039062 22.5 5.804688 23.265625 5.9375 24.007812 C 6.074219 24.753906 6.570312 25.382812 7.257812 25.695312 L 16.625 29.914062 C 17.15625 30.152344 17.761719 30.179688 18.316406 29.992188 Z M 18.316406 29.992188 "/>
<path style=" stroke:none;fill-rule:nonzero;fill:rgb(97.254902%,69.803922%,20%);fill-opacity:1;" d="M 16.167969 22.960938 C 15.625 22.71875 15.210938 22.261719 15.019531 21.703125 L 13.21875 16.476562 C 12.949219 15.703125 13.148438 14.839844 13.730469 14.257812 L 13.800781 14.191406 C 14.324219 13.664062 15.085938 13.453125 15.808594 13.625 C 16.53125 13.796875 17.113281 14.335938 17.34375 15.039062 L 19.066406 20.335938 C 19.335938 21.140625 19.105469 22.027344 18.476562 22.597656 C 17.847656 23.164062 16.941406 23.308594 16.167969 22.960938 Z M 16.167969 22.960938 "/>
</g>
</svg>
