<svg width="50" height="46" viewBox="0 0 50 46" fill="none" xmlns="http://www.w3.org/2000/svg">
<path fill-rule="evenodd" clip-rule="evenodd" d="M22.4618 0.0613986C21.4117 0.159089 21.4091 0.160851 20.472 1.52969C19.3886 3.11211 7.8991 20.4796 6.67886 22.3794C6.22937 23.0793 4.76108 25.3258 3.41612 27.3716C0.312158 32.0926 -0.112667 32.827 0.035924 33.214C0.102095 33.3867 0.654367 33.7592 1.26322 34.0419C3.03789 34.8665 13.7049 40.2228 13.9265 40.4008C14.0375 40.4901 16.4064 41.7135 19.1906 43.1197C22.9307 45.0083 24.4401 45.6763 24.9689 45.6763C25.5014 45.6763 27.0092 45.0001 30.8635 43.0331C33.712 41.5793 39.1251 38.845 42.8926 36.9566C46.6598 35.0684 49.8246 33.4409 49.9253 33.3403C50.0384 33.2271 50.0198 32.9636 49.8757 32.6476C49.7479 32.3671 45.9752 26.5724 41.4918 19.7704C37.0084 12.9683 32.3778 5.90519 31.2018 4.07472C30.0256 2.24426 28.9158 0.599771 28.7355 0.420444C28.4728 0.159285 27.9209 0.0813673 25.9604 0.0289004C24.6145 -0.00712166 23.0401 0.00756131 22.4618 0.0613986Z" fill="white"/>
<path d="M24.7045 0.423828V22.0729" stroke="black" stroke-width="0.2" stroke-linecap="round"/>
<path d="M1.48889 34.1257L24.6131 22.1643" stroke="black" stroke-width="0.2" stroke-linecap="round"/>
<path d="M24.4304 22.1643L48.0826 34.1258" stroke="black" stroke-width="0.2" stroke-linecap="round"/>
<path d="M11.2776 15.9189L24.7046 9.37581" stroke="black" stroke-width="0.2" stroke-linecap="round"/>
<path d="M24.7045 9.10181L38.8813 15.919" stroke="black" stroke-width="0.2" stroke-linecap="round"/>
<path d="M11.2766 15.8613L11.2776 39.02" stroke="black" stroke-width="0.2" stroke-linecap="round"/>
<path d="M38.8813 16.702V39.02" stroke="black" stroke-width="0.2" stroke-linecap="round"/>
<path d="M16.5634 41.5651L38.8104 29.5966" stroke="black" stroke-width="0.2" stroke-linecap="round"/>
<path d="M11.4733 28.8398L33.5955 41.565" stroke="black" stroke-width="0.2" stroke-linecap="round"/>
</svg>
