<?xml version="1.0" encoding="UTF-8"?>
<svg xmlns="http://www.w3.org/2000/svg" xmlns:xlink="http://www.w3.org/1999/xlink" width="50px" height="50px" viewBox="0 0 50 50" version="1.1">
<defs>
<linearGradient id="linear0" gradientUnits="userSpaceOnUse" x1="0" y1="25" x2="50" y2="25" >
<stop offset="0" style="stop-color:rgb(82.352941%,94.117647%,94.117647%);stop-opacity:1;"/>
<stop offset="1" style="stop-color:rgb(94.117647%,90.196078%,70.588235%);stop-opacity:1;"/>
</linearGradient>
</defs>
<g id="surface1">
<path style=" stroke:none;fill-rule:nonzero;fill:url(#linear0);" d="M 25 50 C 38.808594 50 50 38.808594 50 25 C 50 11.191406 38.808594 0 25 0 C 11.191406 0 0 11.191406 0 25 C 0 38.808594 11.191406 50 25 50 Z M 25 50 "/>
<path style=" stroke:none;fill-rule:nonzero;fill:rgb(15.686275%,39.215686%,43.137255%);fill-opacity:1;" d="M 25 48.445312 C 12.078125 48.445312 1.554688 37.921875 1.554688 25 C 1.554688 12.078125 12.078125 1.554688 25 1.554688 C 37.921875 1.554688 48.445312 12.078125 48.445312 25 C 48.445312 37.921875 37.921875 48.445312 25 48.445312 Z M 25 3.546875 C 13.175781 3.546875 3.546875 13.164062 3.546875 25 C 3.546875 36.835938 13.175781 46.453125 25 46.453125 C 36.824219 46.453125 46.453125 36.824219 46.453125 25 C 46.453125 13.175781 36.824219 3.546875 25 3.546875 Z M 25 3.546875 "/>
<path style=" stroke:none;fill-rule:nonzero;fill:rgb(15.686275%,39.215686%,43.137255%);fill-opacity:1;" d="M 23.457031 20.714844 C 23.085938 20.714844 22.792969 20.421875 22.792969 20.050781 C 22.792969 19.859375 22.871094 19.679688 23.023438 19.554688 C 24.910156 17.894531 25.738281 16.53125 25.894531 16.261719 C 26.441406 15.292969 27.335938 14.796875 28.265625 14.921875 C 28.636719 14.972656 28.890625 15.304688 28.839844 15.675781 C 28.789062 16.046875 28.457031 16.300781 28.085938 16.25 C 27.539062 16.171875 27.179688 16.695312 27.039062 16.925781 C 26.875 17.21875 25.945312 18.75 23.902344 20.546875 C 23.777344 20.664062 23.609375 20.714844 23.457031 20.714844 Z M 23.457031 20.714844 "/>
<path style=" stroke:none;fill-rule:nonzero;fill:rgb(15.686275%,39.215686%,43.137255%);fill-opacity:1;" d="M 12.230469 32.015625 C 11.863281 32.015625 11.570312 31.722656 11.570312 31.351562 C 11.570312 31.160156 11.65625 30.96875 11.8125 30.84375 C 12.589844 30.230469 13.40625 29.679688 14.261719 29.195312 C 14.59375 29.042969 14.988281 29.195312 15.140625 29.527344 C 15.28125 29.847656 15.152344 30.21875 14.859375 30.382812 C 14.09375 30.816406 13.355469 31.3125 12.664062 31.847656 C 12.539062 31.964844 12.386719 32.015625 12.230469 32.015625 Z M 12.230469 32.015625 "/>
<path style=" stroke:none;fill-rule:nonzero;fill:rgb(15.686275%,39.215686%,43.137255%);fill-opacity:1;" d="M 28.992188 25.6875 C 29.261719 25.929688 29.566406 25.828125 29.847656 25.5625 C 31.773438 23.722656 33.828125 20.828125 34.503906 19.324219 C 34.644531 19.003906 34.949219 18.828125 35.253906 18.953125 C 35.625 19.105469 35.625 19.746094 35.28125 20.433594 C 34.386719 22.269531 33.152344 24.296875 30.703125 26.824219 C 30.496094 27.015625 30.484375 27.335938 30.675781 27.550781 C 30.6875 27.5625 30.703125 27.578125 30.714844 27.589844 C 30.929688 27.78125 31.277344 27.769531 31.605469 27.4375 C 32.882812 26.148438 33.722656 25.140625 34.464844 24.105469 C 34.65625 23.839844 34.871094 23.722656 35.101562 23.777344 C 35.421875 23.839844 35.472656 24.144531 35.371094 24.515625 C 35.21875 25.113281 33.519531 27.320312 32.855469 28.074219 C 31.046875 30.089844 29.234375 31.199219 25.753906 33.011719 C 24.539062 33.648438 23.621094 34.246094 23.074219 35.179688 C 22.578125 36.019531 22.421875 36.300781 22.371094 36.402344 C 22.167969 36.8125 22.335938 37.320312 22.742188 37.527344 C 23.152344 37.71875 23.636719 37.550781 23.839844 37.144531 C 23.851562 37.128906 23.851562 37.117188 23.851562 37.105469 C 23.851562 37.09375 23.828125 37.117188 24.476562 36.007812 C 24.972656 35.21875 25.6875 34.59375 26.53125 34.195312 C 30.011719 32.601562 31.441406 31.351562 33.46875 29.324219 C 34.386719 28.40625 35.664062 26.414062 36.019531 25.84375 C 36.988281 24.195312 36.480469 22.792969 35.597656 22.550781 C 35.535156 22.539062 35.496094 22.472656 35.523438 22.410156 C 35.523438 22.398438 35.535156 22.386719 35.535156 22.386719 C 36.210938 21.222656 36.53125 20.410156 36.65625 19.785156 C 36.835938 18.929688 36.59375 17.910156 35.421875 17.652344 C 35.355469 17.640625 35.320312 17.578125 35.34375 17.511719 C 35.421875 17.246094 35.484375 16.902344 35.535156 16.683594 C 35.777344 15.585938 35.089844 14.578125 34.246094 14.402344 C 33.699219 14.273438 33.125 14.402344 32.679688 14.730469 C 32.613281 14.769531 32.527344 14.769531 32.472656 14.707031 C 32.257812 14.464844 31.9375 14.3125 31.605469 14.296875 C 30.878906 14.285156 30.152344 14.515625 29.628906 15.636719 C 29.246094 16.441406 28.699219 17.511719 27.054688 19.335938 C 25.535156 21.019531 23.417969 22.664062 22.105469 23.535156 C 21.875 23.6875 21.554688 23.648438 21.59375 23.34375 C 21.65625 22.855469 22.179688 19.566406 22.269531 18.597656 C 22.410156 17.027344 21.570312 16.300781 20.625 16.171875 C 19.847656 16.070312 18.660156 16.289062 18.011719 18.074219 C 17.628906 19.121094 16.835938 20.828125 16.160156 23.585938 C 15.6875 25.523438 15.613281 27.78125 16.046875 30.382812 C 16.070312 30.535156 16.046875 30.703125 15.957031 30.84375 C 15.433594 31.695312 14.679688 32.820312 14.261719 33.789062 C 14.082031 34.183594 14.234375 34.644531 14.605469 34.859375 C 15 35.078125 15.496094 34.9375 15.714844 34.527344 C 15.726562 34.515625 15.726562 34.503906 15.738281 34.488281 C 15.996094 33.953125 16.503906 32.960938 16.710938 32.550781 C 17.066406 31.835938 17.296875 31.351562 17.386719 31.058594 C 17.472656 30.789062 17.527344 30.472656 17.371094 29.746094 C 17.105469 28.535156 17.015625 26.261719 17.511719 24.261719 C 18.046875 22.179688 18.710938 20.140625 19.476562 18.136719 C 19.679688 17.640625 19.960938 17.5 20.242188 17.511719 C 20.523438 17.527344 21.058594 17.679688 20.90625 18.671875 C 20.625 20.472656 20.242188 22.753906 20.113281 23.519531 C 20.050781 23.902344 19.972656 24.785156 20.675781 25.179688 C 21.210938 25.496094 21.8125 25.320312 22.472656 24.871094 C 23.953125 23.878906 26.519531 21.863281 28.125 20.0625 C 29.808594 18.164062 30.34375 17.039062 30.777344 16.019531 C 30.96875 15.5625 31.480469 15.5625 31.65625 15.613281 C 31.835938 15.664062 32.054688 15.90625 31.902344 16.414062 C 31.53125 17.664062 29.988281 20.511719 27.015625 23.1875 C 26.683594 23.496094 26.722656 23.851562 26.902344 24.042969 C 27.078125 24.234375 27.371094 24.347656 27.71875 24.042969 C 30.382812 21.773438 31.902344 19.054688 32.589844 17.601562 C 32.820312 17.117188 33.011719 16.621094 33.175781 16.109375 C 33.316406 15.6875 33.648438 15.535156 33.878906 15.585938 C 34.195312 15.652344 34.414062 15.980469 34.3125 16.53125 C 34.144531 17.230469 33.902344 17.910156 33.585938 18.558594 C 32.730469 20.371094 30.917969 22.792969 28.980469 24.886719 C 28.75 25.089844 28.738281 25.433594 28.929688 25.664062 C 28.96875 25.664062 28.980469 25.675781 28.992188 25.6875 Z M 28.992188 25.6875 "/>
<path style=" stroke:none;fill-rule:nonzero;fill:rgb(15.686275%,39.215686%,43.137255%);fill-opacity:1;" d="M 16.9375 16.65625 C 17.039062 16.570312 17.003906 16.453125 16.976562 16.351562 C 16.835938 15.894531 16.019531 13.980469 15.804688 13.597656 C 15.6875 13.40625 15.5625 13.378906 15.40625 13.429688 C 15.21875 13.507812 14.972656 13.6875 14.617188 14.003906 C 14.261719 14.324219 14.042969 14.539062 13.953125 14.71875 C 13.878906 14.859375 13.890625 15 14.070312 15.128906 C 14.425781 15.394531 16.210938 16.453125 16.65625 16.65625 C 16.722656 16.710938 16.835938 16.761719 16.9375 16.65625 Z M 16.9375 16.65625 "/>
<path style=" stroke:none;fill-rule:nonzero;fill:rgb(15.686275%,39.215686%,43.137255%);fill-opacity:1;" d="M 31.722656 33.621094 C 31.582031 33.636719 31.542969 33.75 31.519531 33.839844 C 31.351562 34.285156 30.84375 36.3125 30.777344 36.746094 C 30.753906 36.964844 30.84375 37.066406 30.980469 37.117188 C 31.171875 37.179688 31.480469 37.179688 31.964844 37.144531 C 32.449219 37.105469 32.742188 37.066406 32.933594 36.976562 C 33.074219 36.914062 33.152344 36.796875 33.085938 36.582031 C 32.960938 36.160156 32.179688 34.222656 31.964844 33.800781 C 31.914062 33.722656 31.863281 33.609375 31.722656 33.621094 Z M 31.722656 33.621094 "/>
<path style=" stroke:none;fill-rule:nonzero;fill:rgb(15.686275%,39.215686%,43.137255%);fill-opacity:1;" d="M 32.882812 32.679688 C 32.820312 32.804688 32.894531 32.894531 32.960938 32.972656 C 33.265625 33.34375 34.71875 34.835938 35.050781 35.113281 C 35.21875 35.253906 35.355469 35.230469 35.472656 35.128906 C 35.625 34.988281 35.777344 34.730469 36.007812 34.3125 C 36.238281 33.890625 36.351562 33.609375 36.378906 33.40625 C 36.402344 33.253906 36.339844 33.125 36.121094 33.0625 C 35.703125 32.945312 33.636719 32.601562 33.164062 32.578125 C 33.074219 32.5625 32.945312 32.550781 32.882812 32.679688 Z M 32.882812 32.679688 "/>
<path style=" stroke:none;fill-rule:nonzero;fill:rgb(15.686275%,39.215686%,43.137255%);fill-opacity:1;" d="M 16.222656 17.90625 C 16.199219 17.769531 16.085938 17.742188 15.980469 17.730469 C 15.511719 17.613281 13.457031 17.320312 13.011719 17.308594 C 12.792969 17.296875 12.691406 17.410156 12.664062 17.5625 C 12.628906 17.769531 12.652344 18.0625 12.742188 18.53125 C 12.832031 19.003906 12.894531 19.296875 13.011719 19.476562 C 13.085938 19.617188 13.214844 19.679688 13.417969 19.589844 C 13.828125 19.425781 15.664062 18.445312 16.058594 18.175781 C 16.148438 18.113281 16.25 18.046875 16.222656 17.90625 Z M 16.222656 17.90625 "/>
<path style=" stroke:none;fill-rule:nonzero;fill:rgb(15.686275%,39.215686%,43.137255%);fill-opacity:1;" d="M 25 44.644531 C 25.410156 44.644531 25.738281 44.3125 25.738281 43.902344 C 25.738281 43.496094 25.410156 43.164062 25 43.164062 C 24.589844 43.164062 24.261719 43.496094 24.261719 43.902344 C 24.261719 44.3125 24.589844 44.644531 25 44.644531 Z M 25 44.644531 "/>
<path style=" stroke:none;fill-rule:nonzero;fill:rgb(15.686275%,39.215686%,43.137255%);fill-opacity:1;" d="M 25 6.835938 C 25.410156 6.835938 25.738281 6.503906 25.738281 6.097656 C 25.738281 5.6875 25.410156 5.355469 25 5.355469 C 24.589844 5.355469 24.261719 5.6875 24.261719 6.097656 C 24.261719 6.503906 24.589844 6.835938 25 6.835938 Z M 25 6.835938 "/>
<path style=" stroke:none;fill-rule:nonzero;fill:rgb(15.686275%,39.215686%,43.137255%);fill-opacity:1;" d="M 29.898438 43.992188 C 30.304688 43.992188 30.636719 43.660156 30.636719 43.253906 C 30.636719 42.84375 30.304688 42.511719 29.898438 42.511719 C 29.488281 42.511719 29.15625 42.84375 29.15625 43.253906 C 29.15625 43.660156 29.488281 43.992188 29.898438 43.992188 Z M 29.898438 43.992188 "/>
<path style=" stroke:none;fill-rule:nonzero;fill:rgb(15.686275%,39.215686%,43.137255%);fill-opacity:1;" d="M 20.101562 7.488281 C 20.511719 7.488281 20.84375 7.15625 20.84375 6.746094 C 20.84375 6.339844 20.511719 6.007812 20.101562 6.007812 C 19.695312 6.007812 19.363281 6.339844 19.363281 6.746094 C 19.363281 7.15625 19.695312 7.488281 20.101562 7.488281 Z M 20.101562 7.488281 "/>
<path style=" stroke:none;fill-rule:nonzero;fill:rgb(15.686275%,39.215686%,43.137255%);fill-opacity:1;" d="M 34.453125 42.105469 C 34.859375 42.105469 35.191406 41.773438 35.191406 41.363281 C 35.191406 40.957031 34.859375 40.625 34.453125 40.625 C 34.042969 40.625 33.710938 40.957031 33.710938 41.363281 C 33.710938 41.773438 34.042969 42.105469 34.453125 42.105469 Z M 34.453125 42.105469 "/>
<path style=" stroke:none;fill-rule:nonzero;fill:rgb(15.686275%,39.215686%,43.137255%);fill-opacity:1;" d="M 16.285156 8.75 C 16.351562 8.347656 16.078125 7.96875 15.671875 7.902344 C 15.269531 7.835938 14.890625 8.109375 14.824219 8.511719 C 14.757812 8.917969 15.03125 9.296875 15.4375 9.363281 C 15.839844 9.429688 16.21875 9.152344 16.285156 8.75 Z M 16.285156 8.75 "/>
<path style=" stroke:none;fill-rule:nonzero;fill:rgb(15.686275%,39.215686%,43.137255%);fill-opacity:1;" d="M 38.367188 39.105469 C 38.777344 39.105469 39.105469 38.777344 39.105469 38.367188 C 39.105469 37.957031 38.777344 37.628906 38.367188 37.628906 C 37.957031 37.628906 37.628906 37.957031 37.628906 38.367188 C 37.628906 38.777344 37.957031 39.105469 38.367188 39.105469 Z M 38.367188 39.105469 "/>
<path style=" stroke:none;fill-rule:nonzero;fill:rgb(15.686275%,39.215686%,43.137255%);fill-opacity:1;" d="M 11.632812 12.371094 C 12.042969 12.371094 12.371094 12.042969 12.371094 11.632812 C 12.371094 11.222656 12.042969 10.894531 11.632812 10.894531 C 11.222656 10.894531 10.894531 11.222656 10.894531 11.632812 C 10.894531 12.042969 11.222656 12.371094 11.632812 12.371094 Z M 11.632812 12.371094 "/>
<path style=" stroke:none;fill-rule:nonzero;fill:rgb(15.686275%,39.215686%,43.137255%);fill-opacity:1;" d="M 41.363281 35.191406 C 41.773438 35.191406 42.105469 34.859375 42.105469 34.453125 C 42.105469 34.042969 41.773438 33.710938 41.363281 33.710938 C 40.957031 33.710938 40.625 34.042969 40.625 34.453125 C 40.625 34.859375 40.957031 35.191406 41.363281 35.191406 Z M 41.363281 35.191406 "/>
<path style=" stroke:none;fill-rule:nonzero;fill:rgb(15.686275%,39.215686%,43.137255%);fill-opacity:1;" d="M 8.636719 16.289062 C 9.042969 16.289062 9.375 15.957031 9.375 15.546875 C 9.375 15.140625 9.042969 14.808594 8.636719 14.808594 C 8.226562 14.808594 7.894531 15.140625 7.894531 15.546875 C 7.894531 15.957031 8.226562 16.289062 8.636719 16.289062 Z M 8.636719 16.289062 "/>
<path style=" stroke:none;fill-rule:nonzero;fill:rgb(15.686275%,39.215686%,43.137255%);fill-opacity:1;" d="M 43.253906 30.636719 C 43.660156 30.636719 43.992188 30.304688 43.992188 29.898438 C 43.992188 29.488281 43.660156 29.15625 43.253906 29.15625 C 42.84375 29.15625 42.511719 29.488281 42.511719 29.898438 C 42.511719 30.304688 42.84375 30.636719 43.253906 30.636719 Z M 43.253906 30.636719 "/>
<path style=" stroke:none;fill-rule:nonzero;fill:rgb(15.686275%,39.215686%,43.137255%);fill-opacity:1;" d="M 6.746094 20.84375 C 7.15625 20.84375 7.488281 20.511719 7.488281 20.101562 C 7.488281 19.695312 7.15625 19.363281 6.746094 19.363281 C 6.339844 19.363281 6.007812 19.695312 6.007812 20.101562 C 6.007812 20.511719 6.339844 20.84375 6.746094 20.84375 Z M 6.746094 20.84375 "/>
<path style=" stroke:none;fill-rule:nonzero;fill:rgb(15.686275%,39.215686%,43.137255%);fill-opacity:1;" d="M 43.902344 25.738281 C 44.3125 25.738281 44.644531 25.410156 44.644531 25 C 44.644531 24.589844 44.3125 24.261719 43.902344 24.261719 C 43.496094 24.261719 43.164062 24.589844 43.164062 25 C 43.164062 25.410156 43.496094 25.738281 43.902344 25.738281 Z M 43.902344 25.738281 "/>
<path style=" stroke:none;fill-rule:nonzero;fill:rgb(15.686275%,39.215686%,43.137255%);fill-opacity:1;" d="M 6.097656 25.738281 C 6.503906 25.738281 6.835938 25.410156 6.835938 25 C 6.835938 24.589844 6.503906 24.261719 6.097656 24.261719 C 5.6875 24.261719 5.355469 24.589844 5.355469 25 C 5.355469 25.410156 5.6875 25.738281 6.097656 25.738281 Z M 6.097656 25.738281 "/>
<path style=" stroke:none;fill-rule:nonzero;fill:rgb(15.686275%,39.215686%,43.137255%);fill-opacity:1;" d="M 43.253906 20.84375 C 43.660156 20.84375 43.992188 20.511719 43.992188 20.101562 C 43.992188 19.695312 43.660156 19.363281 43.253906 19.363281 C 42.84375 19.363281 42.511719 19.695312 42.511719 20.101562 C 42.511719 20.511719 42.84375 20.84375 43.253906 20.84375 Z M 43.253906 20.84375 "/>
<path style=" stroke:none;fill-rule:nonzero;fill:rgb(15.686275%,39.215686%,43.137255%);fill-opacity:1;" d="M 6.746094 30.636719 C 7.15625 30.636719 7.488281 30.304688 7.488281 29.898438 C 7.488281 29.488281 7.15625 29.15625 6.746094 29.15625 C 6.339844 29.15625 6.007812 29.488281 6.007812 29.898438 C 6.007812 30.304688 6.339844 30.636719 6.746094 30.636719 Z M 6.746094 30.636719 "/>
<path style=" stroke:none;fill-rule:nonzero;fill:rgb(15.686275%,39.215686%,43.137255%);fill-opacity:1;" d="M 41.363281 16.289062 C 41.773438 16.289062 42.105469 15.957031 42.105469 15.546875 C 42.105469 15.140625 41.773438 14.808594 41.363281 14.808594 C 40.957031 14.808594 40.625 15.140625 40.625 15.546875 C 40.625 15.957031 40.957031 16.289062 41.363281 16.289062 Z M 41.363281 16.289062 "/>
<path style=" stroke:none;fill-rule:nonzero;fill:rgb(15.686275%,39.215686%,43.137255%);fill-opacity:1;" d="M 8.636719 35.191406 C 9.042969 35.191406 9.375 34.859375 9.375 34.453125 C 9.375 34.042969 9.042969 33.710938 8.636719 33.710938 C 8.226562 33.710938 7.894531 34.042969 7.894531 34.453125 C 7.894531 34.859375 8.226562 35.191406 8.636719 35.191406 Z M 8.636719 35.191406 "/>
<path style=" stroke:none;fill-rule:nonzero;fill:rgb(15.686275%,39.215686%,43.137255%);fill-opacity:1;" d="M 38.367188 12.371094 C 38.777344 12.371094 39.105469 12.042969 39.105469 11.632812 C 39.105469 11.222656 38.777344 10.894531 38.367188 10.894531 C 37.957031 10.894531 37.628906 11.222656 37.628906 11.632812 C 37.628906 12.042969 37.957031 12.371094 38.367188 12.371094 Z M 38.367188 12.371094 "/>
<path style=" stroke:none;fill-rule:nonzero;fill:rgb(15.686275%,39.215686%,43.137255%);fill-opacity:1;" d="M 11.632812 39.105469 C 12.042969 39.105469 12.371094 38.777344 12.371094 38.367188 C 12.371094 37.957031 12.042969 37.628906 11.632812 37.628906 C 11.222656 37.628906 10.894531 37.957031 10.894531 38.367188 C 10.894531 38.777344 11.222656 39.105469 11.632812 39.105469 Z M 11.632812 39.105469 "/>
<path style=" stroke:none;fill-rule:nonzero;fill:rgb(15.686275%,39.215686%,43.137255%);fill-opacity:1;" d="M 34.453125 9.375 C 34.859375 9.375 35.191406 9.042969 35.191406 8.636719 C 35.191406 8.226562 34.859375 7.894531 34.453125 7.894531 C 34.042969 7.894531 33.710938 8.226562 33.710938 8.636719 C 33.710938 9.042969 34.042969 9.375 34.453125 9.375 Z M 34.453125 9.375 "/>
<path style=" stroke:none;fill-rule:nonzero;fill:rgb(15.686275%,39.215686%,43.137255%);fill-opacity:1;" d="M 15.546875 42.105469 C 15.957031 42.105469 16.289062 41.773438 16.289062 41.363281 C 16.289062 40.957031 15.957031 40.625 15.546875 40.625 C 15.140625 40.625 14.808594 40.957031 14.808594 41.363281 C 14.808594 41.773438 15.140625 42.105469 15.546875 42.105469 Z M 15.546875 42.105469 "/>
<path style=" stroke:none;fill-rule:nonzero;fill:rgb(15.686275%,39.215686%,43.137255%);fill-opacity:1;" d="M 29.898438 7.488281 C 30.304688 7.488281 30.636719 7.15625 30.636719 6.746094 C 30.636719 6.339844 30.304688 6.007812 29.898438 6.007812 C 29.488281 6.007812 29.15625 6.339844 29.15625 6.746094 C 29.15625 7.15625 29.488281 7.488281 29.898438 7.488281 Z M 29.898438 7.488281 "/>
<path style=" stroke:none;fill-rule:nonzero;fill:rgb(15.686275%,39.215686%,43.137255%);fill-opacity:1;" d="M 20.101562 43.992188 C 20.511719 43.992188 20.84375 43.660156 20.84375 43.253906 C 20.84375 42.84375 20.511719 42.511719 20.101562 42.511719 C 19.695312 42.511719 19.363281 42.84375 19.363281 43.253906 C 19.363281 43.660156 19.695312 43.992188 20.101562 43.992188 Z M 20.101562 43.992188 "/>
</g>
</svg>
