<?xml version="1.0" encoding="UTF-8"?>
<svg xmlns="http://www.w3.org/2000/svg" xmlns:xlink="http://www.w3.org/1999/xlink" width="50px" height="50px" viewBox="0 0 50 50" version="1.1">
<g id="surface1">
<path style="fill:none;stroke-width:1;stroke-linecap:round;stroke-linejoin:round;stroke:rgb(50.196078%,50.196078%,50.196078%);stroke-opacity:1;stroke-miterlimit:4;" d="M 8.671875 41.328125 C 8.671875 32.667969 12.113281 24.359375 18.238281 18.238281 C 24.359375 12.113281 32.667969 8.671875 41.328125 8.671875 M 41.328125 8.671875 C 41.328125 17.332031 37.886719 25.640625 31.761719 31.761719 C 25.640625 37.886719 17.332031 41.328125 8.671875 41.328125 "/>
<path style="fill:none;stroke-width:1;stroke-linecap:round;stroke-linejoin:round;stroke:rgb(50.196078%,50.196078%,50.196078%);stroke-opacity:1;stroke-miterlimit:4;" d="M 1.910156 25 C 8.035156 18.875 16.339844 15.4375 25 15.4375 C 33.660156 15.4375 41.964844 18.875 48.089844 25 M 48.089844 25 C 41.964844 31.125 33.660156 34.5625 25 34.5625 C 16.339844 34.5625 8.035156 31.125 1.910156 25 "/>
<path style="fill:none;stroke-width:1;stroke-linecap:round;stroke-linejoin:round;stroke:rgb(50.196078%,50.196078%,50.196078%);stroke-opacity:1;stroke-miterlimit:4;" d="M 8.671875 8.671875 C 17.332031 8.671875 25.640625 12.113281 31.761719 18.238281 C 37.886719 24.359375 41.328125 32.667969 41.328125 41.328125 M 41.328125 41.328125 C 32.667969 41.328125 24.359375 37.886719 18.238281 31.761719 C 12.113281 25.640625 8.671875 17.332031 8.671875 8.671875 "/>
<path style="fill:none;stroke-width:1;stroke-linecap:round;stroke-linejoin:round;stroke:rgb(50.196078%,50.196078%,50.196078%);stroke-opacity:1;stroke-miterlimit:4;" d="M 25 48.089844 C 18.875 41.964844 15.4375 33.660156 15.4375 25 C 15.4375 16.339844 18.875 8.035156 25 1.910156 M 25 1.910156 C 31.125 8.035156 34.5625 16.339844 34.5625 25 C 34.5625 33.660156 31.125 41.964844 25 48.089844 "/>
<path style="fill:none;stroke-width:1;stroke-linecap:round;stroke-linejoin:round;stroke:rgb(50.196078%,50.196078%,50.196078%);stroke-opacity:1;stroke-miterlimit:4;" d="M 25 26.246094 C 25.6875 26.246094 26.246094 25.6875 26.246094 25 C 26.246094 24.3125 25.6875 23.753906 25 23.753906 C 24.3125 23.753906 23.753906 24.3125 23.753906 25 C 23.753906 25.6875 24.3125 26.246094 25 26.246094 Z M 25 26.246094 "/>
</g>
</svg>
