<svg width="50" height="50" viewBox="0 0 50 50" fill="none" xmlns="http://www.w3.org/2000/svg">
<path fill-rule="evenodd" clip-rule="evenodd" d="M8.67348 41.3267C8.67348 32.6665 12.1137 24.3611 18.2373 18.2375C24.361 12.1138 32.6664 8.6736 41.3265 8.6736M41.3265 8.6736C41.3265 17.3337 37.8863 25.6392 31.7627 31.7628C25.639 37.8864 17.3336 41.3267 8.67348 41.3267" stroke="#808080" stroke-linecap="round" stroke-linejoin="round"/>
<path fill-rule="evenodd" clip-rule="evenodd" d="M1.9108 25.0002C8.03444 18.8765 16.3399 15.4363 25 15.4363C33.6601 15.4363 41.9656 18.8765 48.0892 25.0002M48.0892 25.0002C41.9656 31.1238 33.6601 34.564 25 34.564C16.3399 34.564 8.03444 31.1238 1.9108 25.0002" stroke="#808080" stroke-linecap="round" stroke-linejoin="round"/>
<path fill-rule="evenodd" clip-rule="evenodd" d="M8.67346 8.6736C17.3336 8.6736 25.639 12.1138 31.7627 18.2375C37.8863 24.3611 41.3265 32.6665 41.3265 41.3267M41.3265 41.3267C32.6664 41.3267 24.361 37.8864 18.2373 31.7628C12.1137 25.6392 8.67346 17.3337 8.67346 8.6736" stroke="#808080" stroke-linecap="round" stroke-linejoin="round"/>
<path fill-rule="evenodd" clip-rule="evenodd" d="M24.9999 48.0892C18.8763 41.9656 15.4361 33.6601 15.4361 25C15.4361 16.3399 18.8763 8.03444 24.9999 1.9108M24.9999 1.9108C31.1235 8.03444 34.5638 16.3399 34.5638 25C34.5638 33.6601 31.1235 41.9656 24.9999 48.0892" stroke="#808080" stroke-linecap="round" stroke-linejoin="round"/>
<path d="M25.0005 26.2476C25.6892 26.2476 26.2476 25.6892 26.2476 25.0005C26.2476 24.3118 25.6892 23.7534 25.0005 23.7534C24.3118 23.7534 23.7534 24.3118 23.7534 25.0005C23.7534 25.6892 24.3118 26.2476 25.0005 26.2476Z" stroke="#808080" stroke-linecap="round" stroke-linejoin="round"/>
</svg>
