<?xml version="1.0" encoding="UTF-8"?>
<svg xmlns="http://www.w3.org/2000/svg" xmlns:xlink="http://www.w3.org/1999/xlink" width="50px" height="50px" viewBox="0 0 50 51" version="1.1">
<defs>
<clipPath id="clip1">
  <path d="M 25 0.945312 C 38.808594 0.945312 50 12.136719 50 25.945312 C 50 39.753906 38.808594 50.945312 25 50.945312 C 11.191406 50.945312 0 39.753906 0 25.945312 C 0 12.136719 11.191406 0.945312 25 0.945312 Z M 25 0.945312 "/>
</clipPath>
<clipPath id="clip2">
  <path d="M 6 14 L 20 14 L 20 28 L 6 28 Z M 6 14 "/>
</clipPath>
<clipPath id="clip3">
  <path d="M 25 0.945312 C 38.808594 0.945312 50 12.136719 50 25.945312 C 50 39.753906 38.808594 50.945312 25 50.945312 C 11.191406 50.945312 0 39.753906 0 25.945312 C 0 12.136719 11.191406 0.945312 25 0.945312 Z M 25 0.945312 "/>
</clipPath>
<clipPath id="clip4">
  <path d="M 7 15 L 24 15 L 24 33 L 7 33 Z M 7 15 "/>
</clipPath>
<clipPath id="clip5">
  <path d="M 25 0.945312 C 38.808594 0.945312 50 12.136719 50 25.945312 C 50 39.753906 38.808594 50.945312 25 50.945312 C 11.191406 50.945312 0 39.753906 0 25.945312 C 0 12.136719 11.191406 0.945312 25 0.945312 Z M 25 0.945312 "/>
</clipPath>
<clipPath id="clip6">
  <path d="M 6 14 L 22 14 L 22 30 L 6 30 Z M 6 14 "/>
</clipPath>
<clipPath id="clip7">
  <path d="M 25 0.945312 C 38.808594 0.945312 50 12.136719 50 25.945312 C 50 39.753906 38.808594 50.945312 25 50.945312 C 11.191406 50.945312 0 39.753906 0 25.945312 C 0 12.136719 11.191406 0.945312 25 0.945312 Z M 25 0.945312 "/>
</clipPath>
<clipPath id="clip8">
  <path d="M 19 28 L 33 28 L 33 38 L 19 38 Z M 19 28 "/>
</clipPath>
<clipPath id="clip9">
  <path d="M 25 0.945312 C 38.808594 0.945312 50 12.136719 50 25.945312 C 50 39.753906 38.808594 50.945312 25 50.945312 C 11.191406 50.945312 0 39.753906 0 25.945312 C 0 12.136719 11.191406 0.945312 25 0.945312 Z M 25 0.945312 "/>
</clipPath>
<clipPath id="clip10">
  <path d="M 25 15 L 43 15 L 43 30 L 25 30 Z M 25 15 "/>
</clipPath>
<clipPath id="clip11">
  <path d="M 25 0.945312 C 38.808594 0.945312 50 12.136719 50 25.945312 C 50 39.753906 38.808594 50.945312 25 50.945312 C 11.191406 50.945312 0 39.753906 0 25.945312 C 0 12.136719 11.191406 0.945312 25 0.945312 Z M 25 0.945312 "/>
</clipPath>
<clipPath id="clip12">
  <path d="M 26 14 L 43 14 L 43 28 L 26 28 Z M 26 14 "/>
</clipPath>
<clipPath id="clip13">
  <path d="M 25 0.945312 C 38.808594 0.945312 50 12.136719 50 25.945312 C 50 39.753906 38.808594 50.945312 25 50.945312 C 11.191406 50.945312 0 39.753906 0 25.945312 C 0 12.136719 11.191406 0.945312 25 0.945312 Z M 25 0.945312 "/>
</clipPath>
<clipPath id="clip14">
  <path d="M 20 26 L 38 26 L 38 38 L 20 38 Z M 20 26 "/>
</clipPath>
<clipPath id="clip15">
  <path d="M 25 0.945312 C 38.808594 0.945312 50 12.136719 50 25.945312 C 50 39.753906 38.808594 50.945312 25 50.945312 C 11.191406 50.945312 0 39.753906 0 25.945312 C 0 12.136719 11.191406 0.945312 25 0.945312 Z M 25 0.945312 "/>
</clipPath>
<clipPath id="clip16">
  <path d="M 30 14 L 43 14 L 43 24 L 30 24 Z M 30 14 "/>
</clipPath>
<clipPath id="clip17">
  <path d="M 25 0.945312 C 38.808594 0.945312 50 12.136719 50 25.945312 C 50 39.753906 38.808594 50.945312 25 50.945312 C 11.191406 50.945312 0 39.753906 0 25.945312 C 0 12.136719 11.191406 0.945312 25 0.945312 Z M 25 0.945312 "/>
</clipPath>
<clipPath id="clip18">
  <path d="M 20 26 L 35 26 L 35 38 L 20 38 Z M 20 26 "/>
</clipPath>
<clipPath id="clip19">
  <path d="M 25 0.945312 C 38.808594 0.945312 50 12.136719 50 25.945312 C 50 39.753906 38.808594 50.945312 25 50.945312 C 11.191406 50.945312 0 39.753906 0 25.945312 C 0 12.136719 11.191406 0.945312 25 0.945312 Z M 25 0.945312 "/>
</clipPath>
<clipPath id="clip20">
  <path d="M 13 30 L 22 30 L 22 38 L 13 38 Z M 13 30 "/>
</clipPath>
<clipPath id="clip21">
  <path d="M 25 0.945312 C 38.808594 0.945312 50 12.136719 50 25.945312 C 50 39.753906 38.808594 50.945312 25 50.945312 C 11.191406 50.945312 0 39.753906 0 25.945312 C 0 12.136719 11.191406 0.945312 25 0.945312 Z M 25 0.945312 "/>
</clipPath>
<clipPath id="clip22">
  <path d="M 18 15 L 27 15 L 27 24 L 18 24 Z M 18 15 "/>
</clipPath>
<clipPath id="clip23">
  <path d="M 25 0.945312 C 38.808594 0.945312 50 12.136719 50 25.945312 C 50 39.753906 38.808594 50.945312 25 50.945312 C 11.191406 50.945312 0 39.753906 0 25.945312 C 0 12.136719 11.191406 0.945312 25 0.945312 Z M 25 0.945312 "/>
</clipPath>
<clipPath id="clip24">
  <path d="M 8 27 L 16 27 L 16 36 L 8 36 Z M 8 27 "/>
</clipPath>
<clipPath id="clip25">
  <path d="M 25 0.945312 C 38.808594 0.945312 50 12.136719 50 25.945312 C 50 39.753906 38.808594 50.945312 25 50.945312 C 11.191406 50.945312 0 39.753906 0 25.945312 C 0 12.136719 11.191406 0.945312 25 0.945312 Z M 25 0.945312 "/>
</clipPath>
<clipPath id="clip26">
  <path d="M 10 30 L 20 30 L 20 37 L 10 37 Z M 10 30 "/>
</clipPath>
<clipPath id="clip27">
  <path d="M 25 0.945312 C 38.808594 0.945312 50 12.136719 50 25.945312 C 50 39.753906 38.808594 50.945312 25 50.945312 C 11.191406 50.945312 0 39.753906 0 25.945312 C 0 12.136719 11.191406 0.945312 25 0.945312 Z M 25 0.945312 "/>
</clipPath>
<clipPath id="clip28">
  <path d="M 28 14 L 43 14 L 43 26 L 28 26 Z M 28 14 "/>
</clipPath>
<clipPath id="clip29">
  <path d="M 25 0.945312 C 38.808594 0.945312 50 12.136719 50 25.945312 C 50 39.753906 38.808594 50.945312 25 50.945312 C 11.191406 50.945312 0 39.753906 0 25.945312 C 0 12.136719 11.191406 0.945312 25 0.945312 Z M 25 0.945312 "/>
</clipPath>
<clipPath id="clip30">
  <path d="M 35 25 L 43 25 L 43 33 L 35 33 Z M 35 25 "/>
</clipPath>
<clipPath id="clip31">
  <path d="M 25 0.945312 C 38.808594 0.945312 50 12.136719 50 25.945312 C 50 39.753906 38.808594 50.945312 25 50.945312 C 11.191406 50.945312 0 39.753906 0 25.945312 C 0 12.136719 11.191406 0.945312 25 0.945312 Z M 25 0.945312 "/>
</clipPath>
<clipPath id="clip32">
  <path d="M 30 30 L 40 30 L 40 37 L 30 37 Z M 30 30 "/>
</clipPath>
<clipPath id="clip33">
  <path d="M 25 0.945312 C 38.808594 0.945312 50 12.136719 50 25.945312 C 50 39.753906 38.808594 50.945312 25 50.945312 C 11.191406 50.945312 0 39.753906 0 25.945312 C 0 12.136719 11.191406 0.945312 25 0.945312 Z M 25 0.945312 "/>
</clipPath>
<clipPath id="clip34">
  <path d="M 33 28 L 41 28 L 41 35 L 33 35 Z M 33 28 "/>
</clipPath>
<clipPath id="clip35">
  <path d="M 25 0.945312 C 38.808594 0.945312 50 12.136719 50 25.945312 C 50 39.753906 38.808594 50.945312 25 50.945312 C 11.191406 50.945312 0 39.753906 0 25.945312 C 0 12.136719 11.191406 0.945312 25 0.945312 Z M 25 0.945312 "/>
</clipPath>
<clipPath id="clip36">
  <path d="M 19 30 L 25 30 L 25 38 L 19 38 Z M 19 30 "/>
</clipPath>
<clipPath id="clip37">
  <path d="M 25 0.945312 C 38.808594 0.945312 50 12.136719 50 25.945312 C 50 39.753906 38.808594 50.945312 25 50.945312 C 11.191406 50.945312 0 39.753906 0 25.945312 C 0 12.136719 11.191406 0.945312 25 0.945312 Z M 25 0.945312 "/>
</clipPath>
<clipPath id="clip38">
  <path d="M 24 16 L 32 16 L 32 22 L 24 22 Z M 24 16 "/>
</clipPath>
<clipPath id="clip39">
  <path d="M 25 0.945312 C 38.808594 0.945312 50 12.136719 50 25.945312 C 50 39.753906 38.808594 50.945312 25 50.945312 C 11.191406 50.945312 0 39.753906 0 25.945312 C 0 12.136719 11.191406 0.945312 25 0.945312 Z M 25 0.945312 "/>
</clipPath>
<clipPath id="clip40">
  <path d="M 13 21 L 21 21 L 21 31 L 13 31 Z M 13 21 "/>
</clipPath>
<clipPath id="clip41">
  <path d="M 25 0.945312 C 38.808594 0.945312 50 12.136719 50 25.945312 C 50 39.753906 38.808594 50.945312 25 50.945312 C 11.191406 50.945312 0 39.753906 0 25.945312 C 0 12.136719 11.191406 0.945312 25 0.945312 Z M 25 0.945312 "/>
</clipPath>
<clipPath id="clip42">
  <path d="M 28 21 L 37 21 L 37 31 L 28 31 Z M 28 21 "/>
</clipPath>
<clipPath id="clip43">
  <path d="M 25 0.945312 C 38.808594 0.945312 50 12.136719 50 25.945312 C 50 39.753906 38.808594 50.945312 25 50.945312 C 11.191406 50.945312 0 39.753906 0 25.945312 C 0 12.136719 11.191406 0.945312 25 0.945312 Z M 25 0.945312 "/>
</clipPath>
<clipPath id="clip44">
  <path d="M 24 21 L 30 21 L 30 31 L 24 31 Z M 24 21 "/>
</clipPath>
<clipPath id="clip45">
  <path d="M 25 0.945312 C 38.808594 0.945312 50 12.136719 50 25.945312 C 50 39.753906 38.808594 50.945312 25 50.945312 C 11.191406 50.945312 0 39.753906 0 25.945312 C 0 12.136719 11.191406 0.945312 25 0.945312 Z M 25 0.945312 "/>
</clipPath>
<clipPath id="clip46">
  <path d="M 19 21 L 28 21 L 28 30 L 19 30 Z M 19 21 "/>
</clipPath>
<clipPath id="clip47">
  <path d="M 25 0.945312 C 38.808594 0.945312 50 12.136719 50 25.945312 C 50 39.753906 38.808594 50.945312 25 50.945312 C 11.191406 50.945312 0 39.753906 0 25.945312 C 0 12.136719 11.191406 0.945312 25 0.945312 Z M 25 0.945312 "/>
</clipPath>
<clipPath id="clip48">
  <path d="M 27 29 L 28 29 L 28 30 L 27 30 Z M 27 29 "/>
</clipPath>
<clipPath id="clip49">
  <path d="M 25 0.945312 C 38.808594 0.945312 50 12.136719 50 25.945312 C 50 39.753906 38.808594 50.945312 25 50.945312 C 11.191406 50.945312 0 39.753906 0 25.945312 C 0 12.136719 11.191406 0.945312 25 0.945312 Z M 25 0.945312 "/>
</clipPath>
<clipPath id="clip50">
  <path d="M 21 18 L 30 18 L 30 27 L 21 27 Z M 21 18 "/>
</clipPath>
<clipPath id="clip51">
  <path d="M 25 0.945312 C 38.808594 0.945312 50 12.136719 50 25.945312 C 50 39.753906 38.808594 50.945312 25 50.945312 C 11.191406 50.945312 0 39.753906 0 25.945312 C 0 12.136719 11.191406 0.945312 25 0.945312 Z M 25 0.945312 "/>
</clipPath>
</defs>
<g id="surface1">
<g clip-path="url(#clip1)" clip-rule="nonzero">
<path style=" stroke:none;fill-rule:nonzero;fill:rgb(0%,0%,0%);fill-opacity:1;" d="M 31.652344 50.992188 C 21.101562 50.992188 10.574219 50.992188 0.0507812 50.992188 C 0.0507812 34.324219 0.0507812 17.660156 0.0507812 0.992188 C 16.71875 0.992188 33.382812 0.992188 50.050781 0.992188 C 50.050781 17.660156 50.050781 34.324219 50.050781 50.992188 C 43.925781 50.992188 37.800781 50.992188 31.652344 50.992188 Z M 39.234375 34.585938 C 39.707031 34.058594 40.183594 33.53125 40.6875 32.988281 C 40.734375 32.921875 40.785156 32.859375 40.832031 32.792969 C 41.472656 31.894531 42.003906 30.945312 42.359375 29.859375 C 42.539062 29.136719 42.714844 28.414062 42.902344 27.648438 C 42.933594 26.996094 42.960938 26.34375 43 25.648438 C 42.984375 25.359375 42.984375 25.070312 42.945312 24.785156 C 42.898438 24.402344 42.816406 24.023438 42.75 23.601562 C 42.734375 23.566406 42.710938 23.53125 42.703125 23.492188 C 42.53125 22.578125 42.21875 21.707031 41.796875 20.882812 C 41.109375 19.519531 40.191406 18.328125 39.03125 17.328125 C 38.089844 16.519531 37.058594 15.871094 35.917969 15.398438 C 34.25 14.703125 32.503906 14.441406 30.660156 14.542969 C 30.023438 14.648438 29.386719 14.753906 28.714844 14.871094 C 28.078125 15.09375 27.441406 15.320312 26.765625 15.546875 C 26.269531 15.824219 25.773438 16.101562 25.242188 16.386719 C 25.058594 16.511719 24.875 16.636719 24.660156 16.746094 C 24.191406 16.433594 23.71875 16.121094 23.21875 15.792969 C 22.5625 15.527344 21.90625 15.261719 21.214844 14.980469 C 20.496094 14.847656 19.773438 14.714844 19.011719 14.570312 C 18.4375 14.558594 17.863281 14.519531 17.292969 14.546875 C 16.097656 14.59375 14.945312 14.859375 13.832031 15.289062 C 11.902344 16.03125 10.300781 17.21875 9 18.820312 C 8.011719 20.039062 7.3125 21.410156 6.882812 22.917969 C 6.441406 24.453125 6.421875 26.015625 6.5625 27.632812 C 6.574219 27.722656 6.585938 27.8125 6.605469 27.902344 C 6.757812 28.5 6.910156 29.09375 7.058594 29.730469 C 7.136719 29.9375 7.191406 30.15625 7.292969 30.351562 C 7.664062 31.066406 8.050781 31.773438 8.441406 32.511719 C 8.578125 32.699219 8.703125 32.894531 8.851562 33.078125 C 9.445312 33.820312 10.078125 34.527344 10.875 35.117188 C 11.121094 35.296875 11.359375 35.484375 11.613281 35.652344 C 12.316406 36.117188 13.050781 36.519531 13.875 36.816406 C 14.839844 37.199219 15.84375 37.445312 16.867188 37.53125 C 18.363281 37.652344 19.851562 37.535156 21.332031 37.078125 C 21.855469 36.875 22.402344 36.714844 22.902344 36.457031 C 23.53125 36.132812 24.121094 35.726562 24.753906 35.386719 C 25.441406 35.777344 26.105469 36.210938 26.8125 36.554688 C 28.015625 37.132812 29.304688 37.441406 30.636719 37.523438 C 31.289062 37.5625 31.945312 37.503906 32.644531 37.496094 C 33.414062 37.429688 34.167969 37.289062 34.941406 37.042969 C 35.105469 36.988281 35.273438 36.945312 35.429688 36.875 C 35.988281 36.617188 36.542969 36.351562 37.136719 36.089844 C 37.882812 35.671875 38.574219 35.179688 39.234375 34.585938 Z M 39.234375 34.585938 "/>
</g>
<g clip-path="url(#clip2)" clip-rule="nonzero">
<g clip-path="url(#clip3)" clip-rule="nonzero">
<path style=" stroke:none;fill-rule:nonzero;fill:rgb(2.352941%,78.823529%,99.215686%);fill-opacity:1;" d="M 6.566406 27.59375 C 6.417969 26.019531 6.4375 24.457031 6.878906 22.917969 C 7.3125 21.410156 8.007812 20.039062 9 18.820312 C 10.296875 17.222656 11.898438 16.03125 13.828125 15.289062 C 14.945312 14.859375 16.097656 14.597656 17.289062 14.546875 C 17.863281 14.523438 18.4375 14.5625 19.027344 14.597656 C 19.007812 14.691406 18.984375 14.777344 18.929688 14.832031 C 18.5 15.285156 18.066406 15.734375 17.632812 16.183594 C 17.066406 16.773438 16.492188 17.363281 15.925781 17.957031 C 15.40625 18.503906 14.890625 19.050781 14.371094 19.597656 C 13.648438 20.355469 12.925781 21.109375 12.199219 21.867188 C 11.429688 22.671875 10.660156 23.476562 9.886719 24.277344 C 8.988281 25.210938 8.09375 26.148438 7.1875 27.074219 C 7 27.265625 6.773438 27.421875 6.566406 27.59375 Z M 6.566406 27.59375 "/>
</g>
</g>
<g clip-path="url(#clip4)" clip-rule="nonzero">
<g clip-path="url(#clip5)" clip-rule="nonzero">
<path style=" stroke:none;fill-rule:nonzero;fill:rgb(5.490196%,75.686275%,98.823529%);fill-opacity:1;" d="M 8.433594 32.484375 C 8.050781 31.773438 7.664062 31.070312 7.292969 30.355469 C 7.191406 30.160156 7.136719 29.941406 7.078125 29.710938 C 7.1875 29.644531 7.296875 29.613281 7.371094 29.542969 C 7.59375 29.320312 7.796875 29.082031 8.015625 28.851562 C 8.597656 28.25 9.191406 27.652344 9.769531 27.046875 C 10.707031 26.066406 11.632812 25.078125 12.570312 24.101562 C 13.671875 22.957031 14.78125 21.820312 15.886719 20.683594 C 16.378906 20.175781 16.871094 19.667969 17.355469 19.160156 C 17.8125 18.683594 18.253906 18.199219 18.710938 17.726562 C 19.445312 16.960938 20.191406 16.203125 20.925781 15.4375 C 21.050781 15.304688 21.144531 15.144531 21.25 15 C 21.90625 15.265625 22.5625 15.527344 23.230469 15.820312 C 23.210938 15.882812 23.1875 15.929688 23.152344 15.964844 C 22.246094 16.90625 21.34375 17.84375 20.433594 18.785156 C 19.84375 19.394531 19.246094 19.996094 18.664062 20.613281 C 18.503906 20.78125 18.386719 20.992188 18.226562 21.191406 C 17.164062 21.15625 16.199219 21.398438 15.328125 21.980469 C 14.027344 22.847656 13.304688 24.066406 13.140625 25.621094 C 13.078125 26.238281 13.167969 26.84375 13.292969 27.449219 C 12.933594 27.8125 12.585938 28.171875 12.242188 28.527344 C 11.71875 29.066406 11.191406 29.609375 10.667969 30.152344 C 9.96875 30.871094 9.265625 31.585938 8.566406 32.304688 C 8.515625 32.359375 8.476562 32.421875 8.433594 32.484375 Z M 8.433594 32.484375 "/>
</g>
</g>
<g clip-path="url(#clip6)" clip-rule="nonzero">
<g clip-path="url(#clip7)" clip-rule="nonzero">
<path style=" stroke:none;fill-rule:nonzero;fill:rgb(3.529412%,77.254902%,98.823529%);fill-opacity:1;" d="M 21.234375 14.996094 C 21.144531 15.152344 21.050781 15.3125 20.929688 15.441406 C 20.191406 16.207031 19.449219 16.964844 18.710938 17.730469 C 18.257812 18.203125 17.8125 18.6875 17.359375 19.164062 C 16.871094 19.675781 16.378906 20.179688 15.886719 20.6875 C 14.78125 21.828125 13.671875 22.960938 12.574219 24.105469 C 11.632812 25.082031 10.707031 26.074219 9.769531 27.054688 C 9.191406 27.660156 8.601562 28.253906 8.019531 28.859375 C 7.800781 29.085938 7.59375 29.324219 7.371094 29.546875 C 7.300781 29.617188 7.191406 29.648438 7.082031 29.699219 C 6.910156 29.101562 6.757812 28.503906 6.609375 27.90625 C 6.585938 27.820312 6.578125 27.726562 6.566406 27.617188 C 6.777344 27.425781 7.003906 27.273438 7.1875 27.082031 C 8.09375 26.152344 8.992188 25.21875 9.890625 24.285156 C 10.664062 23.480469 11.433594 22.675781 12.203125 21.871094 C 12.925781 21.117188 13.652344 20.359375 14.375 19.601562 C 14.894531 19.058594 15.40625 18.507812 15.929688 17.964844 C 16.496094 17.371094 17.066406 16.78125 17.636719 16.1875 C 18.070312 15.738281 18.503906 15.292969 18.933594 14.839844 C 18.984375 14.78125 19.011719 14.699219 19.050781 14.609375 C 19.773438 14.722656 20.496094 14.855469 21.234375 14.996094 Z M 21.234375 14.996094 "/>
</g>
</g>
<g clip-path="url(#clip8)" clip-rule="nonzero">
<g clip-path="url(#clip9)" clip-rule="nonzero">
<path style=" stroke:none;fill-rule:nonzero;fill:rgb(42.745098%,31.764706%,84.313725%);fill-opacity:1;" d="M 32.601562 37.492188 C 31.945312 37.507812 31.289062 37.5625 30.636719 37.527344 C 29.304688 37.445312 28.015625 37.136719 26.8125 36.558594 C 26.101562 36.214844 25.4375 35.78125 24.734375 35.363281 C 23.941406 34.59375 23.164062 33.855469 22.394531 33.109375 C 21.585938 32.328125 20.785156 31.539062 19.980469 30.757812 C 19.9375 30.71875 19.886719 30.691406 19.828125 30.644531 C 19.804688 30.609375 19.796875 30.585938 19.792969 30.546875 C 20.023438 29.75 20.246094 28.96875 20.488281 28.195312 C 20.613281 28.292969 20.722656 28.382812 20.835938 28.46875 C 21.546875 28.996094 22.269531 29.515625 22.976562 30.054688 C 23.652344 30.570312 24.316406 31.105469 24.992188 31.621094 C 25.949219 32.351562 26.914062 33.066406 27.875 33.792969 C 28.371094 34.167969 28.859375 34.550781 29.359375 34.925781 C 29.726562 35.207031 30.105469 35.476562 30.476562 35.753906 C 31 36.148438 31.527344 36.539062 32.039062 36.945312 C 32.242188 37.105469 32.414062 37.308594 32.601562 37.492188 Z M 32.601562 37.492188 "/>
</g>
</g>
<g clip-path="url(#clip10)" clip-rule="nonzero">
<g clip-path="url(#clip11)" clip-rule="nonzero">
<path style=" stroke:none;fill-rule:nonzero;fill:rgb(54.901961%,45.098039%,93.333333%);fill-opacity:1;" d="M 42.890625 27.691406 C 42.714844 28.414062 42.535156 29.136719 42.335938 29.871094 C 42.144531 29.773438 41.976562 29.667969 41.816406 29.550781 C 41.195312 29.09375 40.574219 28.636719 39.957031 28.171875 C 39.535156 27.851562 39.121094 27.519531 38.703125 27.195312 C 38.230469 26.828125 37.761719 26.457031 37.28125 26.105469 C 36.980469 25.886719 36.664062 25.695312 36.347656 25.472656 C 36.324219 25.398438 36.308594 25.34375 36.300781 25.285156 C 36.054688 23.445312 34.558594 21.777344 32.746094 21.351562 C 32.335938 21.253906 31.914062 21.222656 31.496094 21.148438 C 31.269531 20.933594 31.050781 20.722656 30.808594 20.539062 C 29.953125 19.878906 29.089844 19.230469 28.230469 18.578125 C 27.402344 17.953125 26.574219 17.328125 25.742188 16.707031 C 25.589844 16.589844 25.429688 16.488281 25.273438 16.378906 C 25.769531 16.101562 26.265625 15.824219 26.792969 15.554688 C 26.917969 15.632812 27.011719 15.699219 27.101562 15.773438 C 27.539062 16.117188 27.964844 16.472656 28.40625 16.808594 C 28.835938 17.132812 29.289062 17.421875 29.71875 17.746094 C 30.375 18.238281 31.011719 18.753906 31.664062 19.25 C 32.402344 19.808594 33.152344 20.355469 33.894531 20.914062 C 34.460938 21.34375 35.023438 21.78125 35.585938 22.21875 C 36.019531 22.554688 36.445312 22.898438 36.882812 23.226562 C 37.570312 23.746094 38.265625 24.257812 38.957031 24.773438 C 39.371094 25.085938 39.78125 25.410156 40.195312 25.722656 C 40.597656 26.027344 41.007812 26.320312 41.40625 26.628906 C 41.828125 26.953125 42.238281 27.289062 42.660156 27.613281 C 42.722656 27.660156 42.8125 27.664062 42.890625 27.691406 Z M 42.890625 27.691406 "/>
</g>
</g>
<g clip-path="url(#clip12)" clip-rule="nonzero">
<g clip-path="url(#clip13)" clip-rule="nonzero">
<path style=" stroke:none;fill-rule:nonzero;fill:rgb(56.862745%,47.058824%,94.509804%);fill-opacity:1;" d="M 42.894531 27.671875 C 42.8125 27.667969 42.722656 27.660156 42.660156 27.613281 C 42.238281 27.289062 41.828125 26.953125 41.40625 26.632812 C 41.007812 26.324219 40.597656 26.027344 40.195312 25.722656 C 39.78125 25.410156 39.371094 25.089844 38.957031 24.777344 C 38.265625 24.257812 37.570312 23.75 36.882812 23.230469 C 36.445312 22.902344 36.019531 22.554688 35.589844 22.21875 C 35.023438 21.785156 34.460938 21.347656 33.894531 20.917969 C 33.152344 20.359375 32.402344 19.8125 31.664062 19.25 C 31.011719 18.753906 30.375 18.242188 29.71875 17.746094 C 29.289062 17.425781 28.835938 17.132812 28.40625 16.808594 C 27.964844 16.476562 27.539062 16.121094 27.105469 15.773438 C 27.011719 15.703125 26.917969 15.636719 26.8125 15.554688 C 27.4375 15.320312 28.074219 15.097656 28.734375 14.882812 C 28.867188 15.007812 28.964844 15.132812 29.085938 15.230469 C 29.351562 15.441406 29.628906 15.640625 29.898438 15.84375 C 30.398438 16.214844 30.898438 16.585938 31.394531 16.964844 C 32.058594 17.46875 32.71875 17.980469 33.386719 18.484375 C 33.792969 18.789062 34.207031 19.078125 34.609375 19.382812 C 35.050781 19.722656 35.472656 20.085938 35.917969 20.421875 C 36.863281 21.132812 37.820312 21.832031 38.769531 22.542969 C 39.277344 22.925781 39.78125 23.320312 40.285156 23.710938 C 41.023438 24.277344 41.757812 24.847656 42.5 25.40625 C 42.652344 25.519531 42.828125 25.597656 42.992188 25.695312 C 42.960938 26.347656 42.929688 27 42.894531 27.671875 Z M 42.894531 27.671875 "/>
</g>
</g>
<g clip-path="url(#clip14)" clip-rule="nonzero">
<g clip-path="url(#clip15)" clip-rule="nonzero">
<path style=" stroke:none;fill-rule:nonzero;fill:rgb(45.882353%,35.294118%,86.666667%);fill-opacity:1;" d="M 37.101562 36.09375 C 36.546875 36.351562 35.992188 36.617188 35.429688 36.875 C 35.273438 36.945312 35.105469 36.988281 34.917969 37.023438 C 34.855469 36.945312 34.824219 36.871094 34.769531 36.828125 C 34.40625 36.539062 34.039062 36.253906 33.667969 35.972656 C 32.9375 35.425781 32.199219 34.886719 31.472656 34.332031 C 30.5625 33.640625 29.65625 32.9375 28.746094 32.242188 C 28.023438 31.6875 27.292969 31.136719 26.5625 30.585938 C 25.929688 30.105469 25.292969 29.628906 24.65625 29.144531 C 23.917969 28.585938 23.183594 28.019531 22.441406 27.460938 C 21.851562 27.015625 21.253906 26.582031 20.65625 26.128906 C 20.652344 26.117188 20.65625 26.09375 20.679688 26.09375 C 20.851562 26.125 21.007812 26.160156 21.160156 26.191406 C 22.222656 26.414062 23.265625 26.722656 24.226562 27.222656 C 25.300781 27.785156 26.328125 28.4375 27.375 29.046875 C 27.515625 29.128906 27.660156 29.210938 27.804688 29.292969 C 27.800781 29.292969 27.800781 29.289062 27.808594 29.300781 C 27.828125 29.324219 27.839844 29.332031 27.851562 29.34375 C 27.851562 29.34375 27.851562 29.339844 27.859375 29.351562 C 27.890625 29.371094 27.917969 29.382812 27.953125 29.40625 C 28.082031 29.519531 28.195312 29.628906 28.328125 29.714844 C 28.742188 29.984375 29.164062 30.246094 29.597656 30.515625 C 29.878906 30.617188 30.140625 30.707031 30.40625 30.8125 C 30.523438 30.949219 30.621094 31.085938 30.75 31.1875 C 31.28125 31.601562 31.816406 32.003906 32.351562 32.410156 C 33.277344 33.113281 34.199219 33.820312 35.125 34.523438 C 35.734375 34.984375 36.347656 35.4375 36.957031 35.898438 C 37.019531 35.945312 37.054688 36.027344 37.101562 36.09375 Z M 37.101562 36.09375 "/>
</g>
</g>
<g clip-path="url(#clip16)" clip-rule="nonzero">
<g clip-path="url(#clip17)" clip-rule="nonzero">
<path style=" stroke:none;fill-rule:nonzero;fill:rgb(59.215686%,49.803922%,96.470588%);fill-opacity:1;" d="M 30.699219 14.554688 C 32.5 14.449219 34.246094 14.707031 35.917969 15.402344 C 37.054688 15.875 38.089844 16.523438 39.027344 17.332031 C 40.191406 18.335938 41.105469 19.523438 41.796875 20.886719 C 42.214844 21.710938 42.527344 22.582031 42.703125 23.496094 C 42.710938 23.535156 42.734375 23.570312 42.734375 23.636719 C 42.632812 23.636719 42.53125 23.628906 42.457031 23.574219 C 41.980469 23.21875 41.511719 22.847656 41.035156 22.488281 C 40.066406 21.757812 39.097656 21.03125 38.132812 20.296875 C 36.882812 19.347656 35.636719 18.390625 34.390625 17.441406 C 33.664062 16.886719 32.9375 16.335938 32.207031 15.785156 C 31.777344 15.460938 31.339844 15.148438 30.914062 14.820312 C 30.828125 14.75 30.769531 14.644531 30.699219 14.554688 Z M 30.699219 14.554688 "/>
</g>
</g>
<g clip-path="url(#clip18)" clip-rule="nonzero">
<g clip-path="url(#clip19)" clip-rule="nonzero">
<path style=" stroke:none;fill-rule:nonzero;fill:rgb(44.313725%,33.72549%,85.490196%);fill-opacity:1;" d="M 20.660156 26.148438 C 21.253906 26.585938 21.851562 27.023438 22.441406 27.464844 C 23.183594 28.023438 23.917969 28.589844 24.65625 29.152344 C 25.292969 29.632812 25.929688 30.113281 26.5625 30.59375 C 27.292969 31.144531 28.023438 31.691406 28.746094 32.246094 C 29.65625 32.941406 30.5625 33.648438 31.472656 34.339844 C 32.199219 34.890625 32.9375 35.429688 33.667969 35.980469 C 34.039062 36.257812 34.40625 36.546875 34.769531 36.835938 C 34.824219 36.878906 34.855469 36.953125 34.898438 37.03125 C 34.167969 37.296875 33.414062 37.4375 32.625 37.5 C 32.417969 37.3125 32.246094 37.109375 32.042969 36.949219 C 31.53125 36.539062 31.003906 36.148438 30.480469 35.757812 C 30.109375 35.476562 29.730469 35.207031 29.359375 34.929688 C 28.863281 34.554688 28.371094 34.171875 27.875 33.796875 C 26.917969 33.070312 25.953125 32.355469 24.996094 31.625 C 24.316406 31.109375 23.65625 30.570312 22.976562 30.054688 C 22.269531 29.519531 21.550781 29 20.835938 28.46875 C 20.722656 28.386719 20.617188 28.292969 20.496094 28.175781 C 20.542969 27.480469 20.601562 26.816406 20.660156 26.148438 Z M 20.660156 26.148438 "/>
</g>
</g>
<g clip-path="url(#clip20)" clip-rule="nonzero">
<g clip-path="url(#clip21)" clip-rule="nonzero">
<path style=" stroke:none;fill-rule:nonzero;fill:rgb(14.509804%,67.843137%,98.039216%);fill-opacity:1;" d="M 19.789062 30.5625 C 19.796875 30.585938 19.808594 30.605469 19.832031 30.660156 C 20.136719 31.511719 20.445312 32.324219 20.707031 33.15625 C 21.109375 34.429688 21.335938 35.734375 21.296875 37.078125 C 19.851562 37.535156 18.363281 37.65625 16.867188 37.53125 C 15.84375 37.445312 14.839844 37.203125 13.867188 36.785156 C 14 36.585938 14.128906 36.402344 14.28125 36.242188 C 15.125 35.375 15.976562 34.515625 16.820312 33.648438 C 17.167969 33.292969 17.5 32.921875 17.839844 32.558594 C 18.207031 32.175781 18.585938 31.804688 18.941406 31.410156 C 19.160156 31.171875 19.347656 30.90625 19.566406 30.640625 C 19.652344 30.609375 19.71875 30.585938 19.789062 30.5625 Z M 19.789062 30.5625 "/>
</g>
</g>
<g clip-path="url(#clip22)" clip-rule="nonzero">
<g clip-path="url(#clip23)" clip-rule="nonzero">
<path style=" stroke:none;fill-rule:nonzero;fill:rgb(8.627451%,72.941176%,98.431373%);fill-opacity:1;" d="M 18.25 21.1875 C 18.386719 20.992188 18.503906 20.78125 18.664062 20.613281 C 19.246094 19.996094 19.84375 19.394531 20.433594 18.785156 C 21.34375 17.84375 22.246094 16.90625 23.152344 15.964844 C 23.1875 15.929688 23.210938 15.882812 23.246094 15.828125 C 23.71875 16.125 24.191406 16.4375 24.6875 16.765625 C 25.261719 17.304688 25.8125 17.820312 26.347656 18.347656 C 25.996094 18.699219 25.660156 19.042969 25.328125 19.390625 C 24.570312 20.179688 23.816406 20.972656 23.054688 21.761719 C 22.625 22.207031 22.183594 22.648438 21.734375 23.085938 C 21.457031 22.8125 21.214844 22.519531 20.921875 22.292969 C 20.578125 22.035156 20.191406 21.832031 19.816406 21.589844 C 19.734375 21.539062 19.667969 21.488281 19.59375 21.46875 C 19.144531 21.371094 18.699219 21.28125 18.25 21.1875 Z M 18.25 21.1875 "/>
</g>
</g>
<g clip-path="url(#clip24)" clip-rule="nonzero">
<g clip-path="url(#clip25)" clip-rule="nonzero">
<path style=" stroke:none;fill-rule:nonzero;fill:rgb(8.627451%,72.941176%,98.431373%);fill-opacity:1;" d="M 8.4375 32.496094 C 8.476562 32.421875 8.515625 32.355469 8.566406 32.304688 C 9.265625 31.585938 9.96875 30.871094 10.667969 30.152344 C 11.195312 29.609375 11.71875 29.066406 12.246094 28.523438 C 12.589844 28.167969 12.933594 27.8125 13.308594 27.460938 C 13.625 28.363281 14.101562 29.136719 14.835938 29.742188 C 15.039062 29.910156 15.246094 30.074219 15.449219 30.253906 C 15.398438 30.347656 15.359375 30.433594 15.300781 30.496094 C 14.472656 31.351562 13.644531 32.203125 12.816406 33.050781 C 12.757812 33.113281 12.703125 33.171875 12.644531 33.230469 C 12.046875 33.851562 11.449219 34.472656 10.855469 35.09375 C 10.078125 34.53125 9.445312 33.820312 8.851562 33.078125 C 8.703125 32.898438 8.578125 32.703125 8.4375 32.496094 Z M 8.4375 32.496094 "/>
</g>
</g>
<g clip-path="url(#clip26)" clip-rule="nonzero">
<g clip-path="url(#clip27)" clip-rule="nonzero">
<path style=" stroke:none;fill-rule:nonzero;fill:rgb(11.764706%,69.803922%,98.039216%);fill-opacity:1;" d="M 10.863281 35.105469 C 11.449219 34.472656 12.046875 33.851562 12.640625 33.230469 C 12.699219 33.171875 12.757812 33.113281 12.816406 33.050781 C 13.644531 32.203125 14.472656 31.351562 15.296875 30.496094 C 15.359375 30.433594 15.394531 30.347656 15.464844 30.257812 C 15.894531 30.40625 16.289062 30.605469 16.707031 30.726562 C 17.65625 31.003906 18.609375 30.941406 19.550781 30.648438 C 19.347656 30.90625 19.15625 31.171875 18.941406 31.410156 C 18.582031 31.804688 18.203125 32.175781 17.839844 32.558594 C 17.496094 32.921875 17.164062 33.289062 16.816406 33.648438 C 15.972656 34.515625 15.121094 35.375 14.28125 36.242188 C 14.125 36.398438 13.996094 36.585938 13.851562 36.773438 C 13.046875 36.523438 12.316406 36.117188 11.613281 35.652344 C 11.359375 35.484375 11.121094 35.296875 10.863281 35.105469 Z M 10.863281 35.105469 "/>
</g>
</g>
<g clip-path="url(#clip28)" clip-rule="nonzero">
<g clip-path="url(#clip29)" clip-rule="nonzero">
<path style=" stroke:none;fill-rule:nonzero;fill:rgb(58.039216%,48.627451%,95.686275%);fill-opacity:1;" d="M 30.679688 14.546875 C 30.769531 14.640625 30.828125 14.746094 30.914062 14.8125 C 31.339844 15.144531 31.777344 15.457031 32.207031 15.78125 C 32.9375 16.332031 33.664062 16.882812 34.390625 17.4375 C 35.636719 18.386719 36.882812 19.34375 38.132812 20.292969 C 39.097656 21.027344 40.066406 21.75 41.035156 22.484375 C 41.511719 22.84375 41.980469 23.210938 42.457031 23.570312 C 42.53125 23.625 42.632812 23.632812 42.734375 23.652344 C 42.816406 24.023438 42.894531 24.402344 42.945312 24.785156 C 42.984375 25.070312 42.984375 25.359375 42.996094 25.667969 C 42.828125 25.597656 42.652344 25.519531 42.5 25.40625 C 41.757812 24.84375 41.023438 24.273438 40.285156 23.707031 C 39.78125 23.320312 39.277344 22.925781 38.769531 22.542969 C 37.820312 21.832031 36.863281 21.132812 35.917969 20.417969 C 35.472656 20.082031 35.050781 19.71875 34.609375 19.382812 C 34.210938 19.074219 33.792969 18.789062 33.386719 18.484375 C 32.71875 17.980469 32.058594 17.464844 31.394531 16.960938 C 30.898438 16.585938 30.398438 16.214844 29.898438 15.84375 C 29.628906 15.636719 29.351562 15.441406 29.085938 15.230469 C 28.964844 15.132812 28.867188 15.003906 28.753906 14.875 C 29.386719 14.753906 30.023438 14.648438 30.679688 14.546875 Z M 30.679688 14.546875 "/>
</g>
</g>
<g clip-path="url(#clip30)" clip-rule="nonzero">
<g clip-path="url(#clip31)" clip-rule="nonzero">
<path style=" stroke:none;fill-rule:nonzero;fill:rgb(52.941176%,43.137255%,91.764706%);fill-opacity:1;" d="M 36.355469 25.492188 C 36.664062 25.695312 36.980469 25.886719 37.28125 26.105469 C 37.761719 26.460938 38.230469 26.828125 38.703125 27.195312 C 39.121094 27.519531 39.535156 27.851562 39.957031 28.171875 C 40.574219 28.636719 41.195312 29.09375 41.816406 29.550781 C 41.976562 29.667969 42.144531 29.773438 42.328125 29.890625 C 42.003906 30.945312 41.46875 31.894531 40.832031 32.792969 C 40.785156 32.859375 40.734375 32.921875 40.660156 32.980469 C 40.585938 32.917969 40.539062 32.859375 40.480469 32.816406 C 39.796875 32.304688 39.105469 31.800781 38.425781 31.285156 C 37.613281 30.679688 36.804688 30.074219 36.003906 29.457031 C 35.800781 29.300781 35.628906 29.109375 35.445312 28.914062 C 35.839844 28.324219 36.15625 27.710938 36.257812 27.019531 C 36.332031 26.515625 36.324219 26 36.355469 25.492188 Z M 36.355469 25.492188 "/>
</g>
</g>
<g clip-path="url(#clip32)" clip-rule="nonzero">
<g clip-path="url(#clip33)" clip-rule="nonzero">
<path style=" stroke:none;fill-rule:nonzero;fill:rgb(47.843137%,37.647059%,88.235294%);fill-opacity:1;" d="M 37.121094 36.089844 C 37.054688 36.027344 37.019531 35.945312 36.957031 35.898438 C 36.347656 35.4375 35.734375 34.984375 35.125 34.523438 C 34.199219 33.820312 33.277344 33.113281 32.351562 32.410156 C 31.816406 32 31.28125 31.601562 30.75 31.1875 C 30.621094 31.085938 30.523438 30.949219 30.425781 30.8125 C 31.136719 30.941406 31.835938 30.960938 32.527344 30.785156 C 32.960938 30.675781 33.378906 30.492188 33.804688 30.359375 C 33.898438 30.46875 33.980469 30.578125 34.082031 30.65625 C 34.246094 30.785156 34.429688 30.886719 34.59375 31.011719 C 35.261719 31.527344 35.921875 32.054688 36.597656 32.566406 C 37.316406 33.117188 38.046875 33.648438 38.769531 34.195312 C 38.925781 34.3125 39.058594 34.464844 39.203125 34.597656 C 38.578125 35.179688 37.882812 35.671875 37.121094 36.089844 Z M 37.121094 36.089844 "/>
</g>
</g>
<g clip-path="url(#clip34)" clip-rule="nonzero">
<g clip-path="url(#clip35)" clip-rule="nonzero">
<path style=" stroke:none;fill-rule:nonzero;fill:rgb(50.196078%,40%,89.803922%);fill-opacity:1;" d="M 39.21875 34.597656 C 39.058594 34.46875 38.925781 34.320312 38.769531 34.199219 C 38.046875 33.65625 37.316406 33.121094 36.597656 32.574219 C 35.921875 32.0625 35.261719 31.535156 34.59375 31.019531 C 34.429688 30.894531 34.246094 30.789062 34.082031 30.664062 C 33.980469 30.582031 33.898438 30.476562 33.816406 30.355469 C 34.179688 30.058594 34.546875 29.808594 34.886719 29.527344 C 35.09375 29.355469 35.261719 29.136719 35.445312 28.9375 C 35.632812 29.113281 35.804688 29.308594 36.007812 29.464844 C 36.808594 30.082031 37.617188 30.6875 38.425781 31.292969 C 39.109375 31.804688 39.796875 32.3125 40.480469 32.820312 C 40.542969 32.863281 40.585938 32.925781 40.648438 32.996094 C 40.183594 33.539062 39.707031 34.066406 39.21875 34.597656 Z M 39.21875 34.597656 "/>
</g>
</g>
<g clip-path="url(#clip36)" clip-rule="nonzero">
<g clip-path="url(#clip37)" clip-rule="nonzero">
<path style=" stroke:none;fill-rule:nonzero;fill:rgb(16.470588%,50.980392%,76.862745%);fill-opacity:1;" d="M 21.3125 37.078125 C 21.335938 35.734375 21.105469 34.429688 20.707031 33.15625 C 20.445312 32.324219 20.132812 31.511719 19.84375 30.671875 C 19.886719 30.6875 19.9375 30.714844 19.980469 30.757812 C 20.785156 31.539062 21.589844 32.324219 22.394531 33.105469 C 23.164062 33.851562 23.941406 34.59375 24.722656 35.347656 C 24.121094 35.726562 23.53125 36.132812 22.898438 36.460938 C 22.402344 36.71875 21.855469 36.875 21.3125 37.078125 Z M 21.3125 37.078125 "/>
</g>
</g>
<g clip-path="url(#clip38)" clip-rule="nonzero">
<g clip-path="url(#clip39)" clip-rule="nonzero">
<path style=" stroke:none;fill-rule:nonzero;fill:rgb(52.941176%,43.137255%,91.764706%);fill-opacity:1;" d="M 26.363281 18.339844 C 25.8125 17.820312 25.265625 17.300781 24.703125 16.773438 C 24.875 16.636719 25.058594 16.511719 25.257812 16.382812 C 25.433594 16.488281 25.59375 16.589844 25.746094 16.707031 C 26.574219 17.328125 27.402344 17.953125 28.230469 18.582031 C 29.09375 19.230469 29.953125 19.878906 30.8125 20.539062 C 31.050781 20.722656 31.269531 20.933594 31.476562 21.15625 C 30.816406 21.179688 30.207031 21.328125 29.597656 21.542969 C 29.542969 21.5 29.5 21.46875 29.449219 21.417969 C 28.414062 20.382812 27.386719 19.359375 26.363281 18.339844 Z M 26.363281 18.339844 "/>
</g>
</g>
<g clip-path="url(#clip40)" clip-rule="nonzero">
<g clip-path="url(#clip41)" clip-rule="nonzero">
<path style=" stroke:none;fill-rule:nonzero;fill:rgb(0%,0%,0%);fill-opacity:1;" d="M 19.566406 30.640625 C 18.609375 30.945312 17.660156 31.003906 16.710938 30.730469 C 16.292969 30.609375 15.894531 30.410156 15.46875 30.242188 C 15.246094 30.074219 15.039062 29.910156 14.835938 29.742188 C 14.101562 29.140625 13.621094 28.363281 13.320312 27.453125 C 13.167969 26.84375 13.078125 26.238281 13.140625 25.621094 C 13.304688 24.070312 14.027344 22.847656 15.328125 21.980469 C 16.199219 21.402344 17.164062 21.15625 18.226562 21.191406 C 18.699219 21.28125 19.144531 21.371094 19.59375 21.472656 C 19.667969 21.488281 19.734375 21.542969 19.820312 21.609375 C 20.378906 23.078125 20.667969 24.5625 20.65625 26.097656 C 20.65625 26.097656 20.652344 26.121094 20.65625 26.132812 C 20.601562 26.8125 20.542969 27.476562 20.476562 28.164062 C 20.246094 28.96875 20.023438 29.75 19.792969 30.546875 C 19.71875 30.585938 19.652344 30.609375 19.566406 30.640625 Z M 19.566406 30.640625 "/>
</g>
</g>
<g clip-path="url(#clip42)" clip-rule="nonzero">
<g clip-path="url(#clip43)" clip-rule="nonzero">
<path style=" stroke:none;fill-rule:nonzero;fill:rgb(0%,0%,0%);fill-opacity:1;" d="M 29.613281 21.558594 C 30.207031 21.332031 30.816406 21.1875 31.480469 21.179688 C 31.917969 21.230469 32.339844 21.261719 32.746094 21.355469 C 34.5625 21.785156 36.058594 23.453125 36.300781 25.292969 C 36.308594 25.351562 36.328125 25.40625 36.347656 25.480469 C 36.328125 26.007812 36.332031 26.523438 36.261719 27.027344 C 36.160156 27.714844 35.84375 28.332031 35.449219 28.921875 C 35.261719 29.136719 35.09375 29.355469 34.886719 29.527344 C 34.546875 29.808594 34.179688 30.058594 33.8125 30.335938 C 33.375 30.5 32.960938 30.679688 32.523438 30.792969 C 31.835938 30.96875 31.136719 30.949219 30.421875 30.800781 C 30.140625 30.714844 29.875 30.625 29.605469 30.503906 C 29.53125 30.296875 29.457031 30.121094 29.398438 29.941406 C 28.585938 27.558594 28.527344 25.15625 29.226562 22.734375 C 29.339844 22.339844 29.480469 21.949219 29.613281 21.558594 Z M 29.613281 21.558594 "/>
</g>
</g>
<g clip-path="url(#clip44)" clip-rule="nonzero">
<g clip-path="url(#clip45)" clip-rule="nonzero">
<path style=" stroke:none;fill-rule:nonzero;fill:rgb(14.509804%,67.843137%,98.039216%);fill-opacity:1;" d="M 29.597656 21.546875 C 29.480469 21.945312 29.339844 22.335938 29.222656 22.734375 C 28.527344 25.152344 28.585938 27.554688 29.398438 29.941406 C 29.457031 30.121094 29.53125 30.296875 29.589844 30.492188 C 29.164062 30.25 28.742188 29.988281 28.324219 29.71875 C 28.195312 29.636719 28.082031 29.523438 27.945312 29.394531 C 27.902344 29.359375 27.875 29.351562 27.851562 29.34375 C 27.851562 29.34375 27.851562 29.347656 27.851562 29.332031 C 27.835938 29.308594 27.816406 29.300781 27.800781 29.292969 C 27.800781 29.292969 27.800781 29.296875 27.800781 29.277344 C 27.441406 28.882812 27.082031 28.503906 26.714844 28.128906 C 26.082031 27.484375 25.445312 26.839844 24.828125 26.195312 C 24.933594 26.132812 25.03125 26.085938 25.105469 26.015625 C 25.621094 25.488281 26.132812 24.953125 26.648438 24.425781 C 27.195312 23.859375 27.75 23.300781 28.289062 22.726562 C 28.6875 22.308594 29.066406 21.867188 29.457031 21.4375 C 29.5 21.472656 29.542969 21.503906 29.597656 21.546875 Z M 29.597656 21.546875 "/>
</g>
</g>
<g clip-path="url(#clip46)" clip-rule="nonzero">
<g clip-path="url(#clip47)" clip-rule="nonzero">
<path style=" stroke:none;fill-rule:nonzero;fill:rgb(32.54902%,27.058824%,61.176471%);fill-opacity:1;" d="M 24.8125 26.191406 C 25.445312 26.839844 26.082031 27.484375 26.714844 28.128906 C 27.082031 28.503906 27.441406 28.882812 27.804688 29.277344 C 27.660156 29.214844 27.515625 29.132812 27.375 29.050781 C 26.324219 28.4375 25.296875 27.789062 24.222656 27.226562 C 23.265625 26.722656 22.222656 26.414062 21.160156 26.195312 C 21.003906 26.164062 20.851562 26.128906 20.675781 26.097656 C 20.667969 24.5625 20.378906 23.078125 19.832031 21.625 C 20.191406 21.832031 20.582031 22.035156 20.921875 22.296875 C 21.214844 22.523438 21.457031 22.816406 21.742188 23.101562 C 22.742188 24.117188 23.71875 25.109375 24.695312 26.097656 C 24.730469 26.132812 24.773438 26.160156 24.8125 26.191406 Z M 24.8125 26.191406 "/>
</g>
</g>
<g clip-path="url(#clip48)" clip-rule="nonzero">
<g clip-path="url(#clip49)" clip-rule="nonzero">
<path style=" stroke:none;fill-rule:nonzero;fill:rgb(32.54902%,27.058824%,61.176471%);fill-opacity:1;" d="M 27.859375 29.351562 C 27.878906 29.347656 27.902344 29.359375 27.933594 29.378906 C 27.917969 29.382812 27.890625 29.371094 27.859375 29.351562 Z M 27.859375 29.351562 "/>
<path style=" stroke:none;fill-rule:nonzero;fill:rgb(32.54902%,27.058824%,61.176471%);fill-opacity:1;" d="M 27.804688 29.304688 C 27.816406 29.300781 27.832031 29.308594 27.851562 29.332031 C 27.835938 29.335938 27.824219 29.328125 27.804688 29.304688 Z M 27.804688 29.304688 "/>
</g>
</g>
<g clip-path="url(#clip50)" clip-rule="nonzero">
<g clip-path="url(#clip51)" clip-rule="nonzero">
<path style=" stroke:none;fill-rule:nonzero;fill:rgb(11.764706%,69.803922%,98.039216%);fill-opacity:1;" d="M 24.828125 26.195312 C 24.773438 26.164062 24.730469 26.136719 24.695312 26.101562 C 23.71875 25.109375 22.742188 24.117188 21.757812 23.113281 C 22.1875 22.652344 22.625 22.210938 23.058594 21.765625 C 23.816406 20.976562 24.570312 20.183594 25.332031 19.394531 C 25.664062 19.050781 25.996094 18.707031 26.347656 18.351562 C 27.386719 19.367188 28.414062 20.386719 29.445312 21.425781 C 29.066406 21.871094 28.6875 22.308594 28.289062 22.730469 C 27.75 23.300781 27.195312 23.859375 26.648438 24.425781 C 26.132812 24.957031 25.621094 25.488281 25.105469 26.015625 C 25.03125 26.089844 24.933594 26.136719 24.828125 26.195312 Z M 24.828125 26.195312 "/>
</g>
</g>
</g>
</svg>
