<svg width="50" height="50" viewBox="0 0 50 50" fill="none" xmlns="http://www.w3.org/2000/svg">
<path d="M31.6508 50.0469C21.1008 50.0469 10.5758 50.0469 0.0507812 50.0469C0.0507812 33.3802 0.0507812 16.7135 0.0507812 0.046875C16.7174 0.046875 33.3841 0.046875 50.0508 0.046875C50.0508 16.7135 50.0508 33.3802 50.0508 50.0469C43.9258 50.0469 37.8008 50.0469 31.6508 50.0469ZM39.2343 33.6396C39.7081 33.1126 40.1819 32.5856 40.687 32.0431C40.7357 31.9778 40.7857 31.9134 40.833 31.847C41.4711 30.9502 42.0044 29.9986 42.3611 28.9132C42.5384 28.1911 42.7157 27.4689 42.9012 26.7049C42.932 26.0522 42.9628 25.3995 43.0011 24.7018C42.9845 24.4148 42.9846 24.1256 42.9472 23.8413C42.8967 23.4581 42.8173 23.0787 42.7511 22.6571C42.7352 22.6201 42.7118 22.5845 42.7045 22.5459C42.5304 21.6314 42.218 20.7624 41.7986 19.9359C41.1076 18.574 40.1916 17.3847 39.0295 16.3837C38.0916 15.5759 37.0581 14.9262 35.919 14.4522C34.2494 13.7574 32.5035 13.4979 30.6591 13.5983C30.0231 13.7037 29.387 13.8091 28.7157 13.9262C28.0776 14.1499 27.4396 14.3736 26.765 14.6002C26.2685 14.8781 25.7719 15.156 25.2423 15.44C25.0585 15.5654 24.8748 15.6909 24.6607 15.8002C24.1906 15.4887 23.7204 15.1772 23.2193 14.8458C22.5631 14.5814 21.9069 14.3171 21.2162 14.0371C20.4945 13.9042 19.7727 13.7713 19.0116 13.6245C18.4381 13.6144 17.8634 13.5761 17.2913 13.6C16.0981 13.6498 14.9471 13.9144 13.8314 14.3437C11.9018 15.0862 10.3001 16.2754 9.00068 17.8749C8.01127 19.0928 7.31429 20.4644 6.88088 21.9731C6.43948 23.5097 6.42134 25.0719 6.56109 26.6862C6.57597 26.7762 6.5846 26.8677 6.60674 26.9558C6.75681 27.5532 6.90974 28.1498 7.05988 28.7844C7.13624 28.993 7.19109 29.2127 7.29282 29.4081C7.66443 30.1218 8.05168 30.8274 8.44136 31.567C8.57696 31.7555 8.70436 31.9506 8.84961 32.1314C9.4461 32.8737 10.0767 33.583 10.8754 34.1711C11.1215 34.3504 11.3612 34.5395 11.615 34.7073C12.3165 35.1716 13.0499 35.5757 13.8761 35.8699C14.8381 36.2554 15.8433 36.4987 16.8678 36.584C18.3642 36.7086 19.8511 36.589 21.3323 36.1321C21.8569 35.9294 22.404 35.77 22.9006 35.5131C23.5319 35.1865 24.1223 34.7809 24.7557 34.4396C25.4402 34.8326 26.1045 35.2675 26.8137 35.6093C28.0166 36.189 29.3055 36.4978 30.6369 36.5766C31.2886 36.6153 31.946 36.558 32.6448 36.5522C33.4139 36.4851 34.1683 36.3451 34.9397 36.0968C35.1036 36.0415 35.2738 35.9998 35.4304 35.9283C35.9896 35.673 36.5442 35.4077 37.1358 35.1427C37.8833 34.7272 38.5753 34.2348 39.2343 33.6396Z" fill="black"/>
</svg>
