<svg width="50" height="51" viewBox="0 0 50 51" fill="none" xmlns="http://www.w3.org/2000/svg">
<g clip-path="url(#clip0_532_331)">
<path d="M31.6508 50.9922C21.1008 50.9922 10.5758 50.9922 0.0507812 50.9922C0.0507812 34.3255 0.0507812 17.6589 0.0507812 0.992188C16.7174 0.992188 33.3841 0.992188 50.0508 0.992188C50.0508 17.6589 50.0508 34.3255 50.0508 50.9922C43.9258 50.9922 37.8008 50.9922 31.6508 50.9922ZM39.2343 34.5849C39.7081 34.0579 40.1819 33.5309 40.687 32.9885C40.7357 32.9231 40.7857 32.8587 40.833 32.7923C41.4711 31.8955 42.0044 30.944 42.3611 29.8585C42.5384 29.1364 42.7157 28.4142 42.9012 27.6502C42.932 26.9975 42.9628 26.3448 43.0011 25.6471C42.9845 25.3601 42.9846 25.0709 42.9472 24.7866C42.8967 24.4034 42.8173 24.024 42.7511 23.6024C42.7352 23.5654 42.7118 23.5298 42.7045 23.4912C42.5304 22.5767 42.218 21.7077 41.7986 20.8813C41.1076 19.5193 40.1916 18.33 39.0295 17.329C38.0916 16.5212 37.0581 15.8715 35.919 15.3975C34.2494 14.7027 32.5035 14.4433 30.6591 14.5436C30.0231 14.649 29.387 14.7544 28.7157 14.8715C28.0776 15.0952 27.4396 15.3189 26.765 15.5456C26.2685 15.8234 25.7719 16.1013 25.2423 16.3853C25.0585 16.5107 24.8748 16.6362 24.6607 16.7455C24.1906 16.434 23.7204 16.1225 23.2193 15.7911C22.5631 15.5267 21.9069 15.2624 21.2162 14.9824C20.4945 14.8495 19.7727 14.7166 19.0116 14.5698C18.4381 14.5597 17.8634 14.5214 17.2913 14.5453C16.0981 14.5951 14.9471 14.8597 13.8314 15.289C11.9018 16.0315 10.3001 17.2207 9.00068 18.8202C8.01127 20.0381 7.31429 21.4098 6.88088 22.9184C6.43948 24.455 6.42134 26.0172 6.56109 27.6315C6.57597 27.7215 6.5846 27.813 6.60674 27.9011C6.75681 28.4985 6.90974 29.0951 7.05988 29.7297C7.13624 29.9383 7.19109 30.158 7.29282 30.3534C7.66443 31.0671 8.05168 31.7727 8.44136 32.5123C8.57696 32.7008 8.70436 32.8959 8.84961 33.0767C9.4461 33.819 10.0767 34.5283 10.8754 35.1164C11.1215 35.2958 11.3612 35.4848 11.615 35.6527C12.3165 36.1169 13.0499 36.521 13.8761 36.8152C14.8381 37.2007 15.8433 37.444 16.8678 37.5293C18.3642 37.6539 19.8511 37.5344 21.3323 37.0774C21.8569 36.8747 22.404 36.7153 22.9006 36.4584C23.5319 36.1318 24.1223 35.7262 24.7557 35.3849C25.4402 35.7779 26.1045 36.2128 26.8137 36.5546C28.0166 37.1343 29.3055 37.4431 30.6369 37.522C31.2886 37.5606 31.946 37.5033 32.6448 37.4976C33.4139 37.4304 34.1683 37.2904 34.9397 37.0422C35.1036 36.9868 35.2738 36.9451 35.4304 36.8736C35.9896 36.6184 36.5442 36.353 37.1358 36.088C37.8833 35.6725 38.5753 35.1801 39.2343 34.5849Z" fill="black"/>
<path d="M6.56829 27.593C6.41947 26.0184 6.43761 24.4562 6.87901 22.9196C7.31242 21.4109 8.0094 20.0393 8.99881 18.8214C10.2982 17.2219 11.8999 16.0327 13.8295 15.2902C14.9452 14.8609 16.0962 14.5963 17.2894 14.5465C17.8615 14.5226 18.4362 14.5608 19.0286 14.5966C19.0089 14.6931 18.9835 14.7765 18.9299 14.8331C18.5012 15.2858 18.0671 15.7335 17.6347 16.1826C17.0647 16.7746 16.4932 17.365 15.9252 17.9588C15.4052 18.5027 14.8901 19.0513 14.3709 19.5959C13.6482 20.3538 12.924 21.1104 12.1998 21.8669C11.4299 22.6711 10.6603 23.4757 9.8885 24.2782C8.98997 25.2125 8.09273 26.148 7.18651 27.0748C6.99944 27.2661 6.77533 27.4212 6.56829 27.593Z" fill="#06C9FD"/>
<path d="M8.4321 32.4832C8.05075 31.7746 7.6635 31.069 7.29189 30.3553C7.19016 30.16 7.13531 29.9402 7.07812 29.7125C7.18907 29.6444 7.29866 29.6132 7.36932 29.543C7.59281 29.3208 7.79798 29.0803 8.01703 28.8534C8.59952 28.25 9.18975 27.6541 9.76926 27.048C10.7059 26.0683 11.6315 25.0779 12.5708 24.1008C13.6711 22.9563 14.7814 21.8215 15.8868 20.6819C16.378 20.1754 16.8702 19.6698 17.3574 19.1594C17.811 18.6842 18.2542 18.1991 18.7097 17.7256C19.4461 16.96 20.1913 16.2028 20.9264 15.436C21.0507 15.3064 21.1428 15.1461 21.2498 15C21.906 15.2643 22.5622 15.5287 23.2296 15.8184C23.2119 15.8841 23.1876 15.9286 23.1536 15.9639C22.2478 16.9048 21.3418 17.8457 20.4339 18.7846C19.8446 19.3941 19.2466 19.9954 18.6646 20.6118C18.5039 20.782 18.3869 20.9934 18.2268 21.1895C17.1632 21.1553 16.1977 21.3996 15.3286 21.9797C14.0282 22.8477 13.3051 24.0674 13.1419 25.6206C13.077 26.2384 13.1695 26.8424 13.2918 27.4503C12.9321 27.8143 12.5876 28.17 12.243 28.5257C11.7176 29.0679 11.1933 29.611 10.6666 30.1519C9.96697 30.8703 9.26507 31.5865 8.56579 32.3053C8.51447 32.358 8.47635 32.4236 8.4321 32.4832Z" fill="#0EC1FC"/>
<path d="M21.2342 14.9972C21.1445 15.1512 21.0524 15.3115 20.9282 15.4411C20.193 16.2079 19.4478 16.9651 18.7114 17.7307C18.256 18.2041 17.8127 18.6892 17.3591 19.1644C16.8719 19.6748 16.3797 20.1805 15.8885 20.687C14.7831 21.8266 13.6728 22.9614 12.5725 24.1059C11.6332 25.083 10.7076 26.0734 9.77097 27.0531C9.19146 27.6592 8.60123 28.2551 8.01874 28.8585C7.79969 29.0853 7.59452 29.3258 7.37103 29.5481C7.30037 29.6183 7.19078 29.6494 7.08077 29.6987C6.91052 29.1021 6.75759 28.5055 6.60752 27.9081C6.58538 27.82 6.57675 27.7285 6.56641 27.6187C6.77798 27.427 7.00209 27.2719 7.18916 27.0806C8.09538 26.1538 8.99262 25.2183 9.89115 24.284C10.6629 23.4816 11.4325 22.677 12.2025 21.8727C12.9267 21.1162 13.6508 20.3596 14.3735 19.6017C14.8928 19.0571 15.4078 18.5085 15.9279 17.9647C16.4958 17.3708 17.0674 16.7804 17.6373 16.1884C18.0698 15.7393 18.5038 15.2916 18.9325 14.8389C18.9862 14.7823 19.0116 14.6989 19.0509 14.6094C19.7735 14.7237 20.4952 14.8565 21.2342 14.9972Z" fill="#09C5FC"/>
<path d="M32.5998 37.4934C31.945 37.5072 31.2876 37.5644 30.6358 37.5258C29.3045 37.4469 28.0155 37.1382 26.8126 36.5584C26.1035 36.2167 25.4391 35.7818 24.7339 35.364C23.94 34.5956 23.1649 33.854 22.3941 33.1078C21.5872 32.3267 20.7847 31.5409 19.9792 30.7584C19.9383 30.7187 19.8869 30.69 19.828 30.6434C19.8065 30.6088 19.7974 30.587 19.793 30.5486C20.0224 29.7506 20.2473 28.9691 20.4888 28.1953C20.6152 28.2914 20.7221 28.3836 20.8352 28.4675C21.5481 28.9965 22.2676 29.5167 22.9748 30.0533C23.6536 30.5684 24.3155 31.1059 24.9933 31.6224C25.9496 32.3512 26.9147 33.0683 27.8741 33.7931C28.3707 34.1683 28.861 34.5517 29.3577 34.9266C29.7283 35.2062 30.1069 35.4751 30.4779 35.754C31.0015 36.1475 31.5273 36.5384 32.0401 36.9457C32.2434 37.1072 32.4142 37.3096 32.5998 37.4934Z" fill="#6D51D7"/>
<path d="M42.8911 27.6916C42.7138 28.4138 42.5365 29.136 42.3341 29.8716C42.1446 29.774 41.9761 29.6687 41.8165 29.5512C41.1949 29.0936 40.5732 28.636 39.9572 28.1709C39.5343 27.8517 39.1217 27.5187 38.7026 27.1945C38.2301 26.829 37.761 26.4588 37.2796 26.1054C36.9815 25.8866 36.6633 25.6953 36.3459 25.4736C36.3248 25.3991 36.3071 25.3433 36.2995 25.2862C36.056 23.4467 34.5604 21.7783 32.745 21.3498C32.3378 21.2536 31.9148 21.2245 31.4977 21.1481C31.2679 20.9328 31.0489 20.7215 30.8091 20.5373C29.9529 19.8797 29.0901 19.2306 28.2289 18.5795C27.4011 17.9537 26.5729 17.3284 25.7432 16.7051C25.5908 16.5907 25.4302 16.4873 25.2734 16.3788C25.77 16.1009 26.2665 15.823 26.7939 15.5547C26.9177 15.6332 27.0129 15.6995 27.1035 15.7716C27.5377 16.1173 27.9632 16.4745 28.4061 16.8085C28.8353 17.1321 29.2899 17.4221 29.7191 17.7456C30.3732 18.2386 31.0109 18.7534 31.6633 19.2487C32.4027 19.8099 33.1531 20.3567 33.894 20.9158C34.4625 21.3448 35.0248 21.7819 35.5878 22.218C36.0206 22.5532 36.4456 22.8984 36.8822 23.2283C37.5701 23.7479 38.2666 24.2563 38.9562 24.7737C39.3724 25.086 39.781 25.4085 40.196 25.7225C40.5982 26.0268 41.0078 26.3215 41.4077 26.6289C41.8284 26.9522 42.2393 27.2882 42.66 27.6115C42.7214 27.6586 42.8133 27.6659 42.8911 27.6916Z" fill="#8C73EE"/>
<path d="M42.8954 27.6727C42.8136 27.6679 42.7217 27.6606 42.6603 27.6135C42.2396 27.2902 41.8287 26.9542 41.408 26.6309C41.0081 26.3235 40.5985 26.0288 40.1963 25.7245C39.7813 25.4105 39.3728 25.088 38.9565 24.7757C38.2669 24.2583 37.5704 23.7499 36.8825 23.2303C36.4459 22.9004 36.0209 22.5552 35.5882 22.22C35.0251 21.7839 34.4628 21.3468 33.8943 20.9178C33.1534 20.3587 32.403 19.8119 31.6636 19.2507C31.0112 18.7554 30.3735 18.2406 29.7194 17.7476C29.2902 17.4241 28.8356 17.1341 28.4064 16.8105C27.9635 16.4765 27.538 16.1193 27.1038 15.7736C27.0132 15.7015 26.9181 15.6352 26.8125 15.5552C27.438 15.3205 28.076 15.0968 28.736 14.8828C28.8661 15.006 28.9633 15.1332 29.0845 15.2304C29.3497 15.443 29.6271 15.6403 29.8994 15.844C30.3975 16.2167 30.8974 16.5869 31.393 16.9629C32.0595 17.4684 32.7203 17.9815 33.3879 18.4854C33.7914 18.79 34.2088 19.0764 34.61 19.3839C35.0514 19.7222 35.4741 20.0851 35.918 20.42C36.8638 21.1336 37.82 21.8334 38.768 22.5442C39.2783 22.9268 39.7805 23.3204 40.2862 23.7091C41.0238 24.276 41.7588 24.8462 42.5009 25.4072C42.651 25.5207 42.8276 25.5991 42.9919 25.6937C42.9611 26.3464 42.9303 26.9991 42.8954 27.6727Z" fill="#9178F1"/>
<path d="M37.1016 36.0919C36.5452 36.3535 35.9906 36.6188 35.4314 36.8741C35.2748 36.9455 35.1046 36.9872 34.918 37.025C34.8542 36.947 34.8246 36.8721 34.77 36.8287C34.4059 36.5394 34.0398 36.2524 33.6681 35.9728C32.9384 35.4241 32.2008 34.8859 31.4737 34.3338C30.5611 33.6408 29.6574 32.9363 28.747 32.2406C28.0216 31.6862 27.2923 31.1371 26.5642 30.5863C25.9291 30.1058 25.2924 29.6272 24.6579 29.1458C23.9181 28.5847 23.1822 28.0183 22.4402 27.46C21.8503 27.0162 21.2537 26.5813 20.6572 26.1307C20.6542 26.1189 20.6577 26.0949 20.6779 26.0938C20.8521 26.1256 21.006 26.1595 21.1602 26.1915C22.2235 26.4124 23.2657 26.7211 24.2251 27.2232C25.2993 27.7854 26.3271 28.4361 27.3755 29.0477C27.5175 29.1305 27.6616 29.2099 27.8036 29.2919C27.8025 29.2928 27.8025 29.2899 27.808 29.3014C27.8272 29.3226 27.8408 29.3323 27.8531 29.3423C27.8516 29.3426 27.8521 29.3397 27.8594 29.351C27.8916 29.3717 27.9164 29.3811 27.9512 29.4046C28.0827 29.5185 28.1962 29.6307 28.3272 29.7158C28.7425 29.9854 29.1644 30.2448 29.5996 30.5173C29.8775 30.617 30.1397 30.7074 30.4055 30.8143C30.5219 30.9506 30.6217 31.0871 30.7499 31.1872C31.2794 31.6006 31.8179 32.0023 32.3521 32.4095C33.2765 33.1141 34.1987 33.8218 35.1249 34.5241C35.7336 34.9857 36.3491 35.4384 36.9578 35.9C37.019 35.9465 37.0543 36.0272 37.1016 36.0919Z" fill="#755ADD"/>
<path d="M30.6992 14.5546C32.5018 14.4473 34.2477 14.7067 35.9173 15.4015C37.0563 15.8756 38.0899 16.5252 39.0278 17.3331C40.1898 18.3341 41.1058 19.5234 41.7969 20.8853C42.2163 21.7118 42.5286 22.5808 42.7027 23.4952C42.7101 23.5339 42.7334 23.5694 42.7361 23.6369C42.6339 23.6373 42.53 23.6274 42.4585 23.574C41.9798 23.2168 41.5099 22.8478 41.0335 22.4874C40.0671 21.756 39.0961 21.0306 38.1312 20.2972C36.8821 19.3479 35.6379 18.3923 34.3901 17.4412C33.6639 16.8877 32.9359 16.3366 32.2068 15.7868C31.777 15.4626 31.3407 15.147 30.9143 14.8185C30.8268 14.7511 30.7701 14.6436 30.6992 14.5546Z" fill="#977FF6"/>
<path d="M20.6602 26.1484C21.2538 26.5873 21.8504 27.0223 22.4403 27.4661C23.1823 28.0243 23.9182 28.5907 24.658 29.1519C25.2925 29.6332 25.9291 30.1118 26.5643 30.5923C27.2923 31.1431 28.0217 31.6922 28.747 32.2466C29.6574 32.9424 30.5612 33.6468 31.4737 34.3398C32.2008 34.8919 32.9385 35.4301 33.6682 35.9788C34.0399 36.2584 34.406 36.5454 34.7701 36.8347C34.8247 36.8781 34.8542 36.953 34.8985 37.0306C34.1693 37.2969 33.415 37.4369 32.6239 37.5C32.4163 37.3122 32.2455 37.1098 32.0422 36.9483C31.5295 36.541 31.0036 36.1501 30.4801 35.7566C30.109 35.4777 29.7304 35.2088 29.3599 34.9292C28.8631 34.5543 28.3728 34.1709 27.8762 33.7957C26.9169 33.0709 25.9517 32.3538 24.9954 31.625C24.3176 31.1085 23.6558 30.571 22.9769 30.0559C22.2698 29.5193 21.5503 28.9991 20.8373 28.4701C20.7243 28.3862 20.6174 28.294 20.4961 28.1769C20.5431 27.4815 20.6016 26.815 20.6602 26.1484Z" fill="#7156DA"/>
<path d="M19.7895 30.5625C19.7985 30.5843 19.8076 30.6061 19.8318 30.6588C20.1349 31.511 20.4444 32.3256 20.7061 33.1553C21.1078 34.4288 21.3351 35.7338 21.2954 37.0762C19.8512 37.5355 18.3643 37.6551 16.8678 37.5305C15.8434 37.4452 14.8382 37.2019 13.8672 36.7869C13.9988 36.5848 14.1275 36.4004 14.282 36.2412C15.1247 35.3736 15.9761 34.5144 16.8195 33.6475C17.1662 33.2911 17.4984 32.9207 17.8411 32.5604C18.2064 32.1763 18.5846 31.804 18.9412 31.4121C19.1598 31.1719 19.3487 30.9044 19.5667 30.6401C19.6515 30.6081 19.7205 30.5853 19.7895 30.5625Z" fill="#25ADFA"/>
<path d="M18.25 21.1856C18.387 20.9931 18.504 20.7817 18.6647 20.6115C19.2466 19.9951 19.8446 19.3938 20.434 18.7844C21.3419 17.8454 22.2479 16.9046 23.1537 15.9636C23.1877 15.9284 23.212 15.8838 23.2451 15.8281C23.7196 16.1242 24.1897 16.4357 24.687 16.7664C25.2633 17.3034 25.8126 17.8211 26.3462 18.3475C25.9969 18.7011 25.6619 19.0449 25.3295 19.3911C24.5714 20.1807 23.8164 20.9733 23.0564 21.7611C22.6246 22.2087 22.1855 22.6493 21.7352 23.085C21.4562 22.8136 21.2147 22.5199 20.9209 22.2947C20.5798 22.0333 20.1927 21.832 19.8147 21.5905C19.7337 21.5402 19.6673 21.4871 19.5927 21.4704C19.1462 21.3708 18.6978 21.2797 18.25 21.1856Z" fill="#16BAFB"/>
<path d="M8.4375 32.4979C8.47759 32.4228 8.51571 32.3572 8.56702 32.3045C9.26631 31.5857 9.9682 30.8695 10.6678 30.1511C11.1945 29.6102 11.7189 29.0671 12.2442 28.5249C12.5888 28.1692 12.9334 27.8135 13.3071 27.4609C13.6236 28.3631 14.1008 29.1374 14.8351 29.742C15.0389 29.9098 15.247 30.0724 15.4498 30.2553C15.3981 30.3484 15.3607 30.4343 15.2997 30.4974C14.4741 31.3509 13.6451 32.2012 12.8171 33.0524C12.7591 33.112 12.7016 33.1719 12.644 33.2318C12.0475 33.8518 11.4511 34.4718 10.8547 35.0918C10.077 34.5294 9.4464 33.8201 8.84992 33.0778C8.70467 32.8971 8.57727 32.702 8.4375 32.4979Z" fill="#16BAFB"/>
<path d="M10.8633 35.1046C11.4492 34.4717 12.0456 33.8517 12.6421 33.2317C12.6997 33.1718 12.7572 33.1119 12.8152 33.0523C13.6432 32.2012 14.4722 31.3508 15.2978 30.4973C15.3588 30.4342 15.3962 30.3483 15.4665 30.2578C15.8945 30.4068 16.2903 30.6063 16.7087 30.7279C17.6582 31.0038 18.6097 30.9431 19.5492 30.6491C19.347 30.9043 19.1582 31.1717 18.9395 31.412C18.5829 31.8039 18.2048 32.1762 17.8394 32.5603C17.4968 32.9206 17.1645 33.291 16.8178 33.6474C15.9744 34.5143 15.123 35.3734 14.2804 36.2411C14.1258 36.4002 13.9971 36.5846 13.8532 36.7741C13.0483 36.5221 12.3149 36.1179 11.6133 35.6537C11.3596 35.4858 11.1199 35.2968 10.8633 35.1046Z" fill="#1EB2FA"/>
<path d="M30.6786 14.5469C30.7704 14.6394 30.8271 14.7468 30.9146 14.8143C31.341 15.1428 31.7773 15.4584 32.2071 15.7826C32.9362 16.3324 33.6642 16.8835 34.3904 17.437C35.6382 18.3881 36.8824 19.3437 38.1315 20.293C39.0964 21.0264 40.0674 21.7518 41.0338 22.4831C41.5102 22.8436 41.9801 23.2126 42.4588 23.5698C42.5303 23.6232 42.6342 23.6331 42.736 23.653C42.8159 24.0239 42.8953 24.4033 42.9457 24.7865C42.9832 25.0707 42.983 25.36 42.9959 25.6694C42.8278 25.5973 42.6512 25.5189 42.5011 25.4054C41.759 24.8445 41.024 24.2742 40.2864 23.7073C39.7807 23.3186 39.2785 22.925 38.7682 22.5424C37.8202 21.8316 36.864 21.1318 35.9182 20.4182C35.4743 20.0833 35.0516 19.7204 34.6102 19.3821C34.209 19.0746 33.7916 18.7882 33.3881 18.4836C32.7205 17.9797 32.0597 17.4667 31.3932 16.9611C30.8976 16.5851 30.3977 16.2149 29.8996 15.8422C29.6273 15.6385 29.3499 15.4412 29.0847 15.2286C28.9635 15.1314 28.8663 15.0043 28.7539 14.8752C29.3856 14.7542 30.0216 14.6488 30.6786 14.5469Z" fill="#947CF4"/>
<path d="M36.3543 25.4922C36.6635 25.6959 36.9818 25.8872 37.2799 26.106C37.7613 26.4594 38.2304 26.8296 38.7028 27.1951C39.122 27.5193 39.5346 27.8522 39.9575 28.1715C40.5735 28.6366 41.1951 29.0942 41.8168 29.5518C41.9763 29.6693 42.1448 29.7746 42.3262 29.8889C42.0027 30.9442 41.4694 31.8957 40.8313 32.7926C40.784 32.8589 40.734 32.9233 40.6612 32.9809C40.585 32.9199 40.539 32.8587 40.4801 32.8147C39.7956 32.3042 39.1073 31.7989 38.4239 31.2871C37.6146 30.6808 36.8056 30.074 36.0043 29.4573C35.8022 29.3018 35.6299 29.1076 35.4453 28.9137C35.8417 28.3243 36.1569 27.7098 36.2581 27.0194C36.3318 26.5164 36.3251 26.0017 36.3543 25.4922Z" fill="#876EEA"/>
<path d="M37.1193 36.0894C37.0543 36.0264 37.0191 35.9457 36.9579 35.8993C36.3492 35.4376 35.7337 34.9849 35.125 34.5233C34.1987 33.821 33.2766 33.1134 32.3522 32.4087C31.818 32.0015 31.2794 31.5998 30.75 31.1864C30.6218 31.0863 30.522 30.9498 30.4258 30.8114C31.1375 30.9417 31.8377 30.9599 32.5258 30.7848C32.9605 30.6741 33.3772 30.4924 33.8054 30.3594C33.899 30.4705 33.9798 30.5769 34.0816 30.6564C34.2452 30.784 34.4287 30.8859 34.5931 31.0125C35.2627 31.5286 35.9237 32.056 36.5965 32.5678C37.3165 33.1156 38.0487 33.6475 38.7699 34.1938C38.927 34.3127 39.0604 34.463 39.2047 34.5988C38.5764 35.1798 37.8843 35.6722 37.1193 36.0894Z" fill="#7A60E1"/>
<path d="M39.2196 34.5986C39.06 34.4699 38.9266 34.3196 38.7695 34.2007C38.0482 33.6545 37.3161 33.1225 36.5961 32.5747C35.9233 32.0629 35.2623 31.5355 34.5926 31.0195C34.4283 30.8928 34.2447 30.7909 34.0812 30.6633C33.9794 30.5838 33.8986 30.4774 33.8164 30.3536C34.1802 30.0598 34.5467 29.8088 34.8874 29.5265C35.0943 29.3551 35.2613 29.1355 35.4462 28.9375C35.6322 29.1139 35.8046 29.3081 36.0067 29.4637C36.808 30.0804 37.6169 30.6872 38.4263 31.2934C39.1096 31.8053 39.798 32.3106 40.4824 32.8211C40.5413 32.865 40.5874 32.9263 40.6479 32.995C40.1825 33.5375 39.7087 34.0645 39.2196 34.5986Z" fill="#8066E5"/>
<path d="M21.3134 37.0777C21.3347 35.7341 21.1073 34.4292 20.7056 33.1557C20.4439 32.326 20.1345 31.5113 19.8438 30.6719C19.8876 30.6876 19.939 30.7164 19.9799 30.756C20.7854 31.5386 21.5879 32.3243 22.3948 33.1055C23.1655 33.8516 23.9407 34.5932 24.7219 35.3465C24.1219 35.7277 23.5315 36.1333 22.9002 36.4599C22.4036 36.7168 21.8566 36.8762 21.3134 37.0777Z" fill="#2A82C4"/>
<path d="M26.3627 18.3379C25.8135 17.8201 25.2643 17.3023 24.7031 16.7734C24.8749 16.6368 25.0587 16.5113 25.259 16.3828C25.4323 16.4883 25.5929 16.5917 25.7452 16.7061C26.575 17.3294 27.4031 17.9547 28.2309 18.5805C29.0921 19.2316 29.9549 19.8806 30.8112 20.5383C31.051 20.7224 31.2699 20.9337 31.478 21.1573C30.8176 21.1803 30.2071 21.3268 29.5981 21.5424C29.5415 21.5005 29.4988 21.4671 29.4475 21.4197C28.4135 20.3832 27.3881 19.3605 26.3627 18.3379Z" fill="#876EEA"/>
<path d="M19.5659 30.642C18.6106 30.9451 17.6591 31.0058 16.7097 30.7299C16.2912 30.6083 15.8954 30.4088 15.4707 30.242C15.246 30.0744 15.0379 29.9118 14.834 29.7439C14.0998 29.1394 13.6226 28.365 13.3212 27.4546C13.1697 26.8435 13.0772 26.2395 13.1421 25.6217C13.3053 24.0685 14.0284 22.8489 15.3288 21.9809C16.1979 21.4007 17.1634 21.1565 18.227 21.1906C18.6979 21.2811 19.1463 21.3723 19.5929 21.4719C19.6674 21.4885 19.7338 21.5417 19.8208 21.6104C20.38 23.0783 20.6666 24.5606 20.6561 26.0975C20.6561 26.0975 20.6525 26.1215 20.6555 26.1333C20.5999 26.8116 20.5413 27.4781 20.4776 28.1657C20.2476 28.9683 20.0228 29.7498 19.7933 30.5478C19.7197 30.5872 19.6507 30.61 19.5659 30.642Z" fill="black"/>
<path d="M29.6123 21.5568C30.2073 21.3328 30.8178 21.1862 31.4796 21.1797C31.9171 21.2315 32.3401 21.2606 32.7473 21.3567C34.5627 21.7852 36.0583 23.4537 36.3018 25.2931C36.3094 25.3503 36.3271 25.406 36.3482 25.4805C36.3272 26.008 36.3338 26.5228 36.2601 27.0258C36.1589 27.7161 35.8438 28.3307 35.4474 28.9201C35.261 29.1355 35.094 29.3551 34.8871 29.5265C34.5464 29.8088 34.1799 30.0598 33.8127 30.3367C33.3765 30.4993 32.9598 30.681 32.525 30.7917C31.837 30.9668 31.1368 30.9486 30.4215 30.8018C30.1391 30.7135 29.8769 30.6231 29.6059 30.5043C29.5304 30.2982 29.4589 30.1221 29.3978 29.9424C28.5871 27.5582 28.5269 25.1547 29.2248 22.7351C29.3393 22.3381 29.4824 21.9493 29.6123 21.5568Z" fill="black"/>
<path d="M29.5978 21.5463C29.4819 21.9472 29.3388 22.336 29.2243 22.733C28.5264 25.1527 28.5865 27.5562 29.3973 29.9404C29.4584 30.12 29.5299 30.2961 29.5896 30.4931C29.1632 30.2489 28.7414 29.9894 28.326 29.7198C28.195 29.6348 28.0815 29.5226 27.9436 29.3959C27.9017 29.3605 27.8763 29.3521 27.8509 29.3437C27.8509 29.3437 27.8505 29.3467 27.8507 29.3318C27.8344 29.3093 27.8178 29.3016 27.8013 29.2939C27.8013 29.2939 27.8013 29.2968 27.8025 29.2786C27.4411 28.8836 27.081 28.5044 26.7154 28.1306C26.0824 27.4834 25.4459 26.8395 24.8281 26.1936C24.9323 26.134 25.0319 26.0875 25.104 26.0141C25.6216 25.4874 26.1334 24.955 26.6474 24.4248C27.1954 23.8596 27.7496 23.3005 28.29 22.7281C28.6879 22.3067 29.0678 21.8683 29.4558 21.4375C29.4985 21.471 29.5412 21.5044 29.5978 21.5463Z" fill="#25ADFA"/>
<path d="M24.8107 26.1933C25.4457 26.8386 26.0822 27.4825 26.7153 28.1297C27.0809 28.5035 27.4409 28.8827 27.8034 29.2768C27.6602 29.2131 27.5161 29.1337 27.3741 29.0508C26.3257 28.4392 25.2979 27.7886 24.2237 27.2264C23.2644 26.7242 22.2221 26.4156 21.1589 26.1947C21.0046 26.1627 20.8507 26.1288 20.6765 26.0969C20.6669 24.5612 20.3803 23.0788 19.832 21.625C20.1932 21.8339 20.5803 22.0353 20.9213 22.2967C21.2152 22.5219 21.4566 22.8156 21.7432 23.102C22.742 24.1164 23.7188 25.1078 24.6964 26.0986C24.7309 26.1337 24.7724 26.1619 24.8107 26.1933Z" fill="#53459C"/>
<path d="M27.8594 29.3521C27.8775 29.3492 27.9029 29.3576 27.9347 29.3787C27.9164 29.3822 27.8915 29.3728 27.8594 29.3521Z" fill="#53459C"/>
<path d="M27.8047 29.3056C27.8157 29.3018 27.8323 29.3095 27.8501 29.3317C27.8376 29.3365 27.8239 29.3268 27.8047 29.3056Z" fill="#53459C"/>
<path d="M24.8281 26.1947C24.7726 26.1639 24.7311 26.1357 24.6965 26.1007C23.719 25.1099 22.7422 24.1184 21.7578 23.1121C22.1862 22.6533 22.6253 22.2127 23.0571 21.7651C23.817 20.9773 24.572 20.1847 25.3301 19.3951C25.6626 19.0489 25.9975 18.7051 26.3469 18.3516C27.3878 19.3656 28.4132 20.3882 29.4472 21.4248C29.0678 21.8695 28.6879 22.3079 28.29 22.7293C27.7496 23.3016 27.1954 23.8608 26.6474 24.426C26.1334 24.9562 25.6216 25.4886 25.104 26.0153C25.0319 26.0887 24.9323 26.1352 24.8281 26.1947Z" fill="#1EB2FA"/>
</g>
<defs>
<clipPath id="clip0_532_331">
<rect y="0.945312" width="50" height="50" rx="25" fill="white"/>
</clipPath>
</defs>
</svg>
