<svg xmlns="http://www.w3.org/2000/svg" width="150" height="150" viewBox="0 0 150 150" version="1.1"><path d="M 75.750 25.084 L 67 31.055 67 43.028 C 67 50.591, 66.620 55, 65.968 55 C 65.400 55, 61.404 52.525, 57.087 49.500 C 52.770 46.475, 48.959 44, 48.619 44 C 48.278 44, 48 61.232, 48 82.294 L 48 120.587 57.017 126.794 C 61.976 130.207, 66.363 132.980, 66.767 132.955 C 67.170 132.930, 71.550 130.118, 76.500 126.705 L 85.500 120.499 86 107.728 L 86.500 94.957 95.149 100.979 C 99.906 104.290, 104.069 107, 104.399 107 C 104.730 107, 104.989 101.263, 104.976 94.250 L 104.953 81.500 95.476 75.245 L 86 68.990 86 81.848 L 86 94.707 79.250 99.181 C 75.537 101.641, 71.263 104.459, 69.750 105.442 L 67 107.230 67.016 81.865 L 67.031 56.500 75.820 50.750 C 80.654 47.588, 84.899 45, 85.255 45 C 85.610 45, 86.035 47.587, 86.200 50.750 L 86.500 56.500 95.750 62.803 L 105 69.105 105 50.185 L 105 31.264 95.700 25.132 C 90.586 21.759, 85.973 19.025, 85.450 19.057 C 84.928 19.088, 80.563 21.800, 75.750 25.084" stroke="none" fill="#f9f3eb" fill-rule="evenodd"/><path d="M 56.500 1.909 C 31.051 8.848, 12.030 26.586, 3.318 51.500 C 0.720 58.932, 0.521 60.601, 0.521 75 C 0.521 89.399, 0.720 91.068, 3.318 98.500 C 7.349 110.028, 13.253 119.419, 21.917 128.083 C 30.581 136.747, 39.972 142.651, 51.500 146.682 C 58.932 149.280, 60.601 149.479, 75 149.479 C 89.399 149.479, 91.068 149.280, 98.500 146.682 C 114.560 141.066, 128.662 130.294, 137.648 116.778 C 142.650 109.254, 147.524 97.830, 148.598 91.114 C 148.963 88.827, 149.654 86.714, 150.131 86.419 C 150.609 86.124, 151 80.482, 151 73.882 C 151 67.278, 150.606 62.125, 150.125 62.423 C 149.644 62.720, 148.953 61.111, 148.591 58.846 C 148.229 56.581, 146.665 51.463, 145.116 47.473 C 137.215 27.126, 119.810 10.663, 98.500 3.382 C 87.641 -0.328, 67.318 -1.041, 56.500 1.909 M 75.750 25.084 L 67 31.055 67 43.028 C 67 50.591, 66.620 55, 65.968 55 C 65.400 55, 61.404 52.525, 57.087 49.500 C 52.770 46.475, 48.959 44, 48.619 44 C 48.278 44, 48 61.232, 48 82.294 L 48 120.587 57.017 126.794 C 61.976 130.207, 66.363 132.980, 66.767 132.955 C 67.170 132.930, 71.550 130.118, 76.500 126.705 L 85.500 120.499 86 107.728 L 86.500 94.957 95.149 100.979 C 99.906 104.290, 104.069 107, 104.399 107 C 104.730 107, 104.989 101.263, 104.976 94.250 L 104.953 81.500 95.476 75.245 L 86 68.990 86 81.848 L 86 94.707 79.250 99.181 C 75.537 101.641, 71.263 104.459, 69.750 105.442 L 67 107.230 67.016 81.865 L 67.031 56.500 75.820 50.750 C 80.654 47.588, 84.899 45, 85.255 45 C 85.610 45, 86.035 47.587, 86.200 50.750 L 86.500 56.500 95.750 62.803 L 105 69.105 105 50.185 L 105 31.264 95.700 25.132 C 90.586 21.759, 85.973 19.025, 85.450 19.057 C 84.928 19.088, 80.563 21.800, 75.750 25.084 M 0.385 75 C 0.385 81.875, 0.545 84.688, 0.740 81.250 C 0.936 77.813, 0.936 72.188, 0.740 68.750 C 0.545 65.313, 0.385 68.125, 0.385 75" stroke="none" fill="#14344b" fill-rule="evenodd"/></svg>