<svg width="50" height="50" viewBox="0 0 50 50" fill="none" xmlns="http://www.w3.org/2000/svg">
<g clip-path="url(#clip0_932_2647)">
<path d="M50 25C50 11.1929 38.8071 0 25 0C11.1929 0 0 11.1929 0 25C0 38.8071 11.1929 50 25 50C38.8071 50 50 38.8071 50 25Z" fill="black"/>
<path d="M24.9748 17.2006H24.9359C23.4474 17.2006 22.2407 15.9939 22.2407 14.5055V14.4667C22.2407 12.9782 23.4474 11.7715 24.9359 11.7715H24.9748C26.4633 11.7715 27.67 12.9782 27.67 14.4667V14.5055C27.67 15.9939 26.4633 17.2006 24.9748 17.2006Z" fill="white"/>
<path d="M24.9748 27.8834H24.9359C23.4474 27.8834 22.2407 26.6766 22.2407 25.1881V25.1493C22.2407 23.6608 23.4474 22.4541 24.9359 22.4541H24.9748C26.4633 22.4541 27.67 23.6608 27.67 25.1493V25.1881C27.67 26.6766 26.4633 27.8834 24.9748 27.8834Z" fill="white"/>
<path d="M16.9873 25.1493V25.1881C16.9873 26.6766 15.7805 27.8834 14.2921 27.8834H14.2533C12.7648 27.8834 11.5581 26.6766 11.5581 25.1881V25.1493C11.5581 23.6608 12.7648 22.4541 14.2533 22.4541H14.2921C15.7805 22.4541 16.9873 23.6608 16.9873 25.1493Z" fill="white"/>
<path d="M24.9356 32.6589H24.9745C26.4627 32.6589 27.6692 33.8655 27.6692 35.3537V35.3925C27.6692 36.8807 26.4627 38.0873 24.9745 38.0873H24.9356C23.4473 38.0873 22.2407 36.8807 22.2407 35.3925V35.3537C22.2407 33.8655 23.4473 32.6589 24.9356 32.6589Z" fill="white"/>
<path d="M33.1797 25.1881V25.1493C33.1797 23.6608 34.3864 22.4541 35.8749 22.4541H35.9137C37.4022 22.4541 38.6089 23.6608 38.6089 25.1493V25.1881C38.6089 26.6766 37.4022 27.8834 35.9137 27.8834H35.8749C34.3864 27.8834 33.1797 26.6766 33.1797 25.1881Z" fill="white"/>
<path d="M17.727 33.9654C18.6742 33.9654 19.442 33.1975 19.442 32.2503C19.442 31.3032 18.6742 30.5354 17.727 30.5354C16.7799 30.5354 16.012 31.3032 16.012 32.2503C16.012 33.1975 16.7799 33.9654 17.727 33.9654Z" fill="white"/>
<path d="M17.727 18.6353C18.6742 18.6353 19.442 17.8674 19.442 16.9202C19.442 15.9731 18.6742 15.2053 17.727 15.2053C16.7799 15.2053 16.012 15.9731 16.012 16.9202C16.012 17.8674 16.7799 18.6353 17.727 18.6353Z" fill="white"/>
<path d="M31.968 18.6353C32.9152 18.6353 33.6829 17.8674 33.6829 16.9202C33.6829 15.9731 32.9152 15.2053 31.968 15.2053C31.0208 15.2053 30.2529 15.9731 30.2529 16.9202C30.2529 17.8674 31.0208 18.6353 31.968 18.6353Z" fill="white"/>
<path d="M31.9716 33.9659C32.9188 33.9659 33.6867 33.1981 33.6867 32.251C33.6867 31.3038 32.9188 30.5359 31.9716 30.5359C31.0246 30.5359 30.2567 31.3038 30.2567 32.251C30.2567 33.1981 31.0246 33.9659 31.9716 33.9659Z" fill="white"/>
<g opacity="0.8" filter="url(#filter0_f_932_2647)">
<path d="M24.9748 17.2006H24.9359C23.4474 17.2006 22.2407 15.9939 22.2407 14.5055V14.4667C22.2407 12.9782 23.4474 11.7715 24.9359 11.7715H24.9748C26.4633 11.7715 27.67 12.9782 27.67 14.4667V14.5055C27.67 15.9939 26.4633 17.2006 24.9748 17.2006Z" fill="white"/>
<path d="M24.9748 27.8834H24.9359C23.4474 27.8834 22.2407 26.6766 22.2407 25.1881V25.1493C22.2407 23.6608 23.4474 22.4541 24.9359 22.4541H24.9748C26.4633 22.4541 27.67 23.6608 27.67 25.1493V25.1881C27.67 26.6766 26.4633 27.8834 24.9748 27.8834Z" fill="white"/>
<path d="M16.9873 25.1493V25.1881C16.9873 26.6766 15.7805 27.8834 14.2921 27.8834H14.2533C12.7648 27.8834 11.5581 26.6766 11.5581 25.1881V25.1493C11.5581 23.6608 12.7648 22.4541 14.2533 22.4541H14.2921C15.7805 22.4541 16.9873 23.6608 16.9873 25.1493Z" fill="white"/>
<path d="M24.9356 32.6589H24.9745C26.4627 32.6589 27.6692 33.8655 27.6692 35.3537V35.3925C27.6692 36.8807 26.4627 38.0873 24.9745 38.0873H24.9356C23.4473 38.0873 22.2407 36.8807 22.2407 35.3925V35.3537C22.2407 33.8655 23.4473 32.6589 24.9356 32.6589Z" fill="white"/>
<path d="M33.1797 25.1881V25.1493C33.1797 23.6608 34.3864 22.4541 35.8749 22.4541H35.9137C37.4022 22.4541 38.6089 23.6608 38.6089 25.1493V25.1881C38.6089 26.6766 37.4022 27.8834 35.9137 27.8834H35.8749C34.3864 27.8834 33.1797 26.6766 33.1797 25.1881Z" fill="white"/>
<path d="M17.727 33.9652C18.6742 33.9652 19.442 33.1972 19.442 32.2501C19.442 31.3029 18.6742 30.5352 17.727 30.5352C16.7799 30.5352 16.012 31.3029 16.012 32.2501C16.012 33.1972 16.7799 33.9652 17.727 33.9652Z" fill="white"/>
<path d="M17.727 18.6351C18.6742 18.6351 19.442 17.8672 19.442 16.92C19.442 15.9728 18.6742 15.2051 17.727 15.2051C16.7799 15.2051 16.012 15.9728 16.012 16.92C16.012 17.8672 16.7799 18.6351 17.727 18.6351Z" fill="white"/>
<path d="M31.9681 18.6351C32.9153 18.6351 33.683 17.8672 33.683 16.92C33.683 15.9728 32.9153 15.2051 31.9681 15.2051C31.021 15.2051 30.2531 15.9728 30.2531 16.92C30.2531 17.8672 31.021 18.6351 31.9681 18.6351Z" fill="white"/>
<path d="M31.9716 33.9656C32.9188 33.9656 33.6867 33.1979 33.6867 32.2507C33.6867 31.3036 32.9188 30.5356 31.9716 30.5356C31.0246 30.5356 30.2567 31.3036 30.2567 32.2507C30.2567 33.1979 31.0246 33.9656 31.9716 33.9656Z" fill="white"/>
</g>
<g opacity="0.5" filter="url(#filter1_f_932_2647)">
<path d="M24.9748 17.2006H24.9359C23.4474 17.2006 22.2407 15.9939 22.2407 14.5055V14.4667C22.2407 12.9782 23.4474 11.7715 24.9359 11.7715H24.9748C26.4633 11.7715 27.67 12.9782 27.67 14.4667V14.5055C27.67 15.9939 26.4633 17.2006 24.9748 17.2006Z" fill="white"/>
<path d="M24.9748 27.8834H24.9359C23.4474 27.8834 22.2407 26.6766 22.2407 25.1881V25.1493C22.2407 23.6608 23.4474 22.4541 24.9359 22.4541H24.9748C26.4633 22.4541 27.67 23.6608 27.67 25.1493V25.1881C27.67 26.6766 26.4633 27.8834 24.9748 27.8834Z" fill="white"/>
<path d="M16.9873 25.1493V25.1881C16.9873 26.6766 15.7805 27.8834 14.2921 27.8834H14.2533C12.7648 27.8834 11.5581 26.6766 11.5581 25.1881V25.1493C11.5581 23.6608 12.7648 22.4541 14.2533 22.4541H14.2921C15.7805 22.4541 16.9873 23.6608 16.9873 25.1493Z" fill="white"/>
<path d="M24.9356 32.6589H24.9745C26.4627 32.6589 27.6692 33.8655 27.6692 35.3537V35.3925C27.6692 36.8807 26.4627 38.0873 24.9745 38.0873H24.9356C23.4473 38.0873 22.2407 36.8807 22.2407 35.3925V35.3537C22.2407 33.8655 23.4473 32.6589 24.9356 32.6589Z" fill="white"/>
<path d="M33.1797 25.1881V25.1493C33.1797 23.6608 34.3864 22.4541 35.8749 22.4541H35.9137C37.4022 22.4541 38.6089 23.6608 38.6089 25.1493V25.1881C38.6089 26.6766 37.4022 27.8834 35.9137 27.8834H35.8749C34.3864 27.8834 33.1797 26.6766 33.1797 25.1881Z" fill="white"/>
<path d="M17.727 33.9652C18.6742 33.9652 19.442 33.1972 19.442 32.2501C19.442 31.3029 18.6742 30.5352 17.727 30.5352C16.7799 30.5352 16.012 31.3029 16.012 32.2501C16.012 33.1972 16.7799 33.9652 17.727 33.9652Z" fill="white"/>
<path d="M17.727 18.6351C18.6742 18.6351 19.442 17.8672 19.442 16.92C19.442 15.9728 18.6742 15.2051 17.727 15.2051C16.7799 15.2051 16.012 15.9728 16.012 16.92C16.012 17.8672 16.7799 18.6351 17.727 18.6351Z" fill="white"/>
<path d="M31.9681 18.6351C32.9153 18.6351 33.683 17.8672 33.683 16.92C33.683 15.9728 32.9153 15.2051 31.9681 15.2051C31.021 15.2051 30.2531 15.9728 30.2531 16.92C30.2531 17.8672 31.021 18.6351 31.9681 18.6351Z" fill="white"/>
<path d="M31.9716 33.9656C32.9188 33.9656 33.6867 33.1979 33.6867 32.2507C33.6867 31.3036 32.9188 30.5356 31.9716 30.5356C31.0246 30.5356 30.2567 31.3036 30.2567 32.2507C30.2567 33.1979 31.0246 33.9656 31.9716 33.9656Z" fill="white"/>
</g>
<g opacity="0.1" filter="url(#filter2_f_932_2647)">
<path d="M24.8078 17.3225H24.769C23.2804 17.3225 22.0737 16.1158 22.0737 14.6273V14.5885C22.0737 13.1 23.2804 11.8933 24.769 11.8933H24.8078C26.2963 11.8933 27.503 13.1 27.503 14.5885V14.6273C27.503 16.1158 26.2963 17.3225 24.8078 17.3225Z" fill="white"/>
<path d="M24.8078 28.005H24.769C23.2804 28.005 22.0737 26.7983 22.0737 25.31V25.271C22.0737 23.7826 23.2804 22.5759 24.769 22.5759H24.8078C26.2963 22.5759 27.503 23.7826 27.503 25.271V25.31C27.503 26.7983 26.2963 28.005 24.8078 28.005Z" fill="white"/>
<path d="M16.8203 25.271V25.31C16.8203 26.7983 15.6136 28.005 14.1251 28.005H14.0863C12.5978 28.005 11.3911 26.7983 11.3911 25.31V25.271C11.3911 23.7826 12.5978 22.5759 14.0863 22.5759H14.1251C15.6136 22.5759 16.8203 23.7826 16.8203 25.271Z" fill="white"/>
<path d="M24.7687 32.7805H24.8075C26.2957 32.7805 27.5022 33.9871 27.5022 35.4754V35.5143C27.5022 37.0025 26.2957 38.209 24.8075 38.209H24.7687C23.2803 38.209 22.0737 37.0025 22.0737 35.5143V35.4754C22.0737 33.9871 23.2803 32.7805 24.7687 32.7805Z" fill="white"/>
<path d="M33.0127 25.31V25.271C33.0127 23.7826 34.2194 22.5759 35.7079 22.5759H35.7467C37.2352 22.5759 38.442 23.7826 38.442 25.271V25.31C38.442 26.7983 37.2352 28.005 35.7467 28.005H35.7079C34.2194 28.005 33.0127 26.7983 33.0127 25.31Z" fill="white"/>
<path d="M17.56 34.087C18.5072 34.087 19.2749 33.3191 19.2749 32.3719C19.2749 31.4247 18.5072 30.657 17.56 30.657C16.6129 30.657 15.8451 31.4247 15.8451 32.3719C15.8451 33.3191 16.6129 34.087 17.56 34.087Z" fill="white"/>
<path d="M17.56 18.7569C18.5072 18.7569 19.2749 17.989 19.2749 17.0418C19.2749 16.0947 18.5072 15.3269 17.56 15.3269C16.6129 15.3269 15.8451 16.0947 15.8451 17.0418C15.8451 17.989 16.6129 18.7569 17.56 18.7569Z" fill="white"/>
<path d="M31.801 18.7569C32.7482 18.7569 33.5159 17.989 33.5159 17.0418C33.5159 16.0947 32.7482 15.3269 31.801 15.3269C30.8538 15.3269 30.0859 16.0947 30.0859 17.0418C30.0859 17.989 30.8538 18.7569 31.801 18.7569Z" fill="white"/>
<path d="M31.8046 34.0875C32.7518 34.0875 33.5197 33.3197 33.5197 32.3725C33.5197 31.4254 32.7518 30.6575 31.8046 30.6575C30.8575 30.6575 30.0897 31.4254 30.0897 32.3725C30.0897 33.3197 30.8575 34.0875 31.8046 34.0875Z" fill="white"/>
</g>
<g opacity="0.3" filter="url(#filter3_f_932_2647)">
<path d="M24.9748 17.2006H24.9359C23.4474 17.2006 22.2407 15.9939 22.2407 14.5055V14.4667C22.2407 12.9782 23.4474 11.7715 24.9359 11.7715H24.9748C26.4633 11.7715 27.67 12.9782 27.67 14.4667V14.5055C27.67 15.9939 26.4633 17.2006 24.9748 17.2006Z" fill="white"/>
<path d="M24.9748 27.8834H24.9359C23.4474 27.8834 22.2407 26.6766 22.2407 25.1881V25.1493C22.2407 23.6608 23.4474 22.4541 24.9359 22.4541H24.9748C26.4633 22.4541 27.67 23.6608 27.67 25.1493V25.1881C27.67 26.6766 26.4633 27.8834 24.9748 27.8834Z" fill="white"/>
<path d="M16.9873 25.1493V25.1881C16.9873 26.6766 15.7806 27.8834 14.2921 27.8834H14.2533C12.7648 27.8834 11.5581 26.6766 11.5581 25.1881V25.1493C11.5581 23.6608 12.7648 22.4541 14.2533 22.4541H14.2921C15.7806 22.4541 16.9873 23.6608 16.9873 25.1493Z" fill="white"/>
<path d="M24.9356 32.6589H24.9745C26.4627 32.6589 27.6692 33.8655 27.6692 35.3537V35.3925C27.6692 36.8807 26.4627 38.0873 24.9745 38.0873H24.9356C23.4473 38.0873 22.2407 36.8807 22.2407 35.3925V35.3537C22.2407 33.8655 23.4473 32.6589 24.9356 32.6589Z" fill="white"/>
<path d="M33.1797 25.1881V25.1493C33.1797 23.6608 34.3864 22.4541 35.8749 22.4541H35.9137C37.4022 22.4541 38.6089 23.6608 38.6089 25.1493V25.1881C38.6089 26.6766 37.4022 27.8834 35.9137 27.8834H35.8749C34.3864 27.8834 33.1797 26.6766 33.1797 25.1881Z" fill="white"/>
<path d="M17.727 33.9652C18.6742 33.9652 19.442 33.1972 19.442 32.2501C19.442 31.3029 18.6742 30.5352 17.727 30.5352C16.7799 30.5352 16.012 31.3029 16.012 32.2501C16.012 33.1972 16.7799 33.9652 17.727 33.9652Z" fill="white"/>
<path d="M17.727 18.6351C18.6742 18.6351 19.442 17.8672 19.442 16.92C19.442 15.9728 18.6742 15.2051 17.727 15.2051C16.7799 15.2051 16.012 15.9728 16.012 16.92C16.012 17.8672 16.7799 18.6351 17.727 18.6351Z" fill="white"/>
<path d="M31.9681 18.6351C32.9153 18.6351 33.683 17.8672 33.683 16.92C33.683 15.9728 32.9153 15.2051 31.9681 15.2051C31.021 15.2051 30.2531 15.9728 30.2531 16.92C30.2531 17.8672 31.021 18.6351 31.9681 18.6351Z" fill="white"/>
<path d="M31.9718 33.9656C32.9188 33.9656 33.6867 33.1979 33.6867 32.2507C33.6867 31.3036 32.9188 30.5356 31.9718 30.5356C31.0246 30.5356 30.2567 31.3036 30.2567 32.2507C30.2567 33.1979 31.0246 33.9656 31.9718 33.9656Z" fill="white"/>
<g opacity="0.8" filter="url(#filter4_f_932_2647)">
<path d="M24.9748 17.2006H24.9359C23.4474 17.2006 22.2407 15.9939 22.2407 14.5055V14.4667C22.2407 12.9782 23.4474 11.7715 24.9359 11.7715H24.9748C26.4633 11.7715 27.67 12.9782 27.67 14.4667V14.5055C27.67 15.9939 26.4633 17.2006 24.9748 17.2006Z" fill="white"/>
<path d="M24.9748 27.8834H24.9359C23.4474 27.8834 22.2407 26.6766 22.2407 25.1881V25.1493C22.2407 23.6608 23.4474 22.4541 24.9359 22.4541H24.9748C26.4633 22.4541 27.67 23.6608 27.67 25.1493V25.1881C27.67 26.6766 26.4633 27.8834 24.9748 27.8834Z" fill="white"/>
<path d="M16.9873 25.1493V25.1881C16.9873 26.6766 15.7806 27.8834 14.2921 27.8834H14.2533C12.7648 27.8834 11.5581 26.6766 11.5581 25.1881V25.1493C11.5581 23.6608 12.7648 22.4541 14.2533 22.4541H14.2921C15.7806 22.4541 16.9873 23.6608 16.9873 25.1493Z" fill="white"/>
<path d="M24.9356 32.6589H24.9745C26.4627 32.6589 27.6692 33.8655 27.6692 35.3537V35.3925C27.6692 36.8807 26.4627 38.0873 24.9745 38.0873H24.9356C23.4473 38.0873 22.2407 36.8807 22.2407 35.3925V35.3537C22.2407 33.8655 23.4473 32.6589 24.9356 32.6589Z" fill="white"/>
<path d="M33.1797 25.1881V25.1493C33.1797 23.6608 34.3864 22.4541 35.8749 22.4541H35.9137C37.4022 22.4541 38.6089 23.6608 38.6089 25.1493V25.1881C38.6089 26.6766 37.4022 27.8834 35.9137 27.8834H35.8749C34.3864 27.8834 33.1797 26.6766 33.1797 25.1881Z" fill="white"/>
<path d="M17.727 33.9652C18.6742 33.9652 19.442 33.1972 19.442 32.2501C19.442 31.3029 18.6742 30.5352 17.727 30.5352C16.7799 30.5352 16.012 31.3029 16.012 32.2501C16.012 33.1972 16.7799 33.9652 17.727 33.9652Z" fill="white"/>
<path d="M17.727 18.6351C18.6742 18.6351 19.442 17.8672 19.442 16.92C19.442 15.9728 18.6742 15.2051 17.727 15.2051C16.7799 15.2051 16.012 15.9728 16.012 16.92C16.012 17.8672 16.7799 18.6351 17.727 18.6351Z" fill="white"/>
<path d="M31.9681 18.6351C32.9153 18.6351 33.683 17.8672 33.683 16.92C33.683 15.9728 32.9153 15.2051 31.9681 15.2051C31.021 15.2051 30.2531 15.9728 30.2531 16.92C30.2531 17.8672 31.021 18.6351 31.9681 18.6351Z" fill="white"/>
<path d="M31.9718 33.9656C32.9188 33.9656 33.6867 33.1979 33.6867 32.2507C33.6867 31.3036 32.9188 30.5356 31.9718 30.5356C31.0246 30.5356 30.2567 31.3036 30.2567 32.2507C30.2567 33.1979 31.0246 33.9656 31.9718 33.9656Z" fill="white"/>
</g>
<g opacity="0.5" filter="url(#filter5_f_932_2647)">
<path d="M24.9748 17.2006H24.9359C23.4474 17.2006 22.2407 15.9939 22.2407 14.5055V14.4667C22.2407 12.9782 23.4474 11.7715 24.9359 11.7715H24.9748C26.4633 11.7715 27.67 12.9782 27.67 14.4667V14.5055C27.67 15.9939 26.4633 17.2006 24.9748 17.2006Z" fill="white"/>
<path d="M24.9748 27.8834H24.9359C23.4474 27.8834 22.2407 26.6766 22.2407 25.1881V25.1493C22.2407 23.6608 23.4474 22.4541 24.9359 22.4541H24.9748C26.4633 22.4541 27.67 23.6608 27.67 25.1493V25.1881C27.67 26.6766 26.4633 27.8834 24.9748 27.8834Z" fill="white"/>
<path d="M16.9873 25.1493V25.1881C16.9873 26.6766 15.7806 27.8834 14.2921 27.8834H14.2533C12.7648 27.8834 11.5581 26.6766 11.5581 25.1881V25.1493C11.5581 23.6608 12.7648 22.4541 14.2533 22.4541H14.2921C15.7806 22.4541 16.9873 23.6608 16.9873 25.1493Z" fill="white"/>
<path d="M24.9356 32.6589H24.9745C26.4627 32.6589 27.6692 33.8655 27.6692 35.3537V35.3925C27.6692 36.8807 26.4627 38.0873 24.9745 38.0873H24.9356C23.4473 38.0873 22.2407 36.8807 22.2407 35.3925V35.3537C22.2407 33.8655 23.4473 32.6589 24.9356 32.6589Z" fill="white"/>
<path d="M33.1797 25.1881V25.1493C33.1797 23.6608 34.3864 22.4541 35.8749 22.4541H35.9137C37.4022 22.4541 38.6089 23.6608 38.6089 25.1493V25.1881C38.6089 26.6766 37.4022 27.8834 35.9137 27.8834H35.8749C34.3864 27.8834 33.1797 26.6766 33.1797 25.1881Z" fill="white"/>
<path d="M17.727 33.9652C18.6742 33.9652 19.442 33.1972 19.442 32.2501C19.442 31.3029 18.6742 30.5352 17.727 30.5352C16.7799 30.5352 16.012 31.3029 16.012 32.2501C16.012 33.1972 16.7799 33.9652 17.727 33.9652Z" fill="white"/>
<path d="M17.727 18.6351C18.6742 18.6351 19.442 17.8672 19.442 16.92C19.442 15.9728 18.6742 15.2051 17.727 15.2051C16.7799 15.2051 16.012 15.9728 16.012 16.92C16.012 17.8672 16.7799 18.6351 17.727 18.6351Z" fill="white"/>
<path d="M31.9681 18.6351C32.9153 18.6351 33.683 17.8672 33.683 16.92C33.683 15.9728 32.9153 15.2051 31.9681 15.2051C31.021 15.2051 30.2531 15.9728 30.2531 16.92C30.2531 17.8672 31.021 18.6351 31.9681 18.6351Z" fill="white"/>
<path d="M31.9718 33.9656C32.9188 33.9656 33.6867 33.1979 33.6867 32.2507C33.6867 31.3036 32.9188 30.5356 31.9718 30.5356C31.0246 30.5356 30.2567 31.3036 30.2567 32.2507C30.2567 33.1979 31.0246 33.9656 31.9718 33.9656Z" fill="white"/>
</g>
<g opacity="0.1" filter="url(#filter6_f_932_2647)">
<path d="M24.8078 17.3222H24.769C23.2806 17.3222 22.0737 16.1155 22.0737 14.6271V14.5882C22.0737 13.0998 23.2806 11.8931 24.769 11.8931H24.8078C26.2963 11.8931 27.503 13.0998 27.503 14.5882V14.6271C27.503 16.1155 26.2963 17.3222 24.8078 17.3222Z" fill="white"/>
<path d="M24.8078 28.0048H24.769C23.2806 28.0048 22.0737 26.7981 22.0737 25.3097V25.2708C22.0737 23.7824 23.2806 22.5757 24.769 22.5757H24.8078C26.2963 22.5757 27.503 23.7824 27.503 25.2708V25.3097C27.503 26.7981 26.2963 28.0048 24.8078 28.0048Z" fill="white"/>
<path d="M16.8203 25.2708V25.3097C16.8203 26.7981 15.6136 28.0048 14.1251 28.0048H14.0863C12.5978 28.0048 11.3911 26.7981 11.3911 25.3097V25.2708C11.3911 23.7824 12.5978 22.5757 14.0863 22.5757H14.1251C15.6136 22.5757 16.8203 23.7824 16.8203 25.2708Z" fill="white"/>
<path d="M24.7687 32.7803H24.8075C26.2957 32.7803 27.5022 33.9868 27.5022 35.4752V35.514C27.5022 37.0022 26.2957 38.2088 24.8075 38.2088H24.7687C23.2803 38.2088 22.0737 37.0022 22.0737 35.514V35.4752C22.0737 33.9868 23.2803 32.7803 24.7687 32.7803Z" fill="white"/>
<path d="M33.0127 25.3097V25.2708C33.0127 23.7824 34.2196 22.5757 35.7079 22.5757H35.7467C37.2352 22.5757 38.442 23.7824 38.442 25.2708V25.3097C38.442 26.7981 37.2352 28.0048 35.7467 28.0048H35.7079C34.2196 28.0048 33.0127 26.7981 33.0127 25.3097Z" fill="white"/>
<path d="M17.56 34.0867C18.5072 34.0867 19.2749 33.3188 19.2749 32.3717C19.2749 31.4245 18.5072 30.6567 17.56 30.6567C16.6129 30.6567 15.8451 31.4245 15.8451 32.3717C15.8451 33.3188 16.6129 34.0867 17.56 34.0867Z" fill="white"/>
<path d="M17.56 18.7567C18.5072 18.7567 19.2749 17.9887 19.2749 17.0416C19.2749 16.0944 18.5072 15.3267 17.56 15.3267C16.6129 15.3267 15.8451 16.0944 15.8451 17.0416C15.8451 17.9887 16.6129 18.7567 17.56 18.7567Z" fill="white"/>
<path d="M31.801 18.7567C32.7482 18.7567 33.5159 17.9887 33.5159 17.0416C33.5159 16.0944 32.7482 15.3267 31.801 15.3267C30.8538 15.3267 30.0859 16.0944 30.0859 17.0416C30.0859 17.9887 30.8538 18.7567 31.801 18.7567Z" fill="white"/>
<path d="M31.8048 34.0872C32.7518 34.0872 33.5197 33.3195 33.5197 32.3723C33.5197 31.4251 32.7518 30.6572 31.8048 30.6572C30.8576 30.6572 30.0897 31.4251 30.0897 32.3723C30.0897 33.3195 30.8576 34.0872 31.8048 34.0872Z" fill="white"/>
</g>
</g>
</g>
<defs>
<filter id="filter0_f_932_2647" x="0.370425" y="0.583804" width="49.4261" height="48.6913" filterUnits="userSpaceOnUse" color-interpolation-filters="sRGB">
<feFlood flood-opacity="0" result="BackgroundImageFix"/>
<feBlend mode="normal" in="SourceGraphic" in2="BackgroundImageFix" result="shape"/>
<feGaussianBlur stdDeviation="5.59384" result="effect1_foregroundBlur_932_2647"/>
</filter>
<filter id="filter1_f_932_2647" x="9.32057" y="9.53394" width="31.5259" height="30.791" filterUnits="userSpaceOnUse" color-interpolation-filters="sRGB">
<feFlood flood-opacity="0" result="BackgroundImageFix"/>
<feBlend mode="normal" in="SourceGraphic" in2="BackgroundImageFix" result="shape"/>
<feGaussianBlur stdDeviation="1.11877" result="effect1_foregroundBlur_932_2647"/>
</filter>
<filter id="filter2_f_932_2647" x="-13.2217" y="-12.7195" width="76.2764" height="75.5413" filterUnits="userSpaceOnUse" color-interpolation-filters="sRGB">
<feFlood flood-opacity="0" result="BackgroundImageFix"/>
<feBlend mode="normal" in="SourceGraphic" in2="BackgroundImageFix" result="shape"/>
<feGaussianBlur stdDeviation="12.3064" result="effect1_foregroundBlur_932_2647"/>
</filter>
<filter id="filter3_f_932_2647" x="-22.6089" y="-22.2285" width="95.2178" height="94.4373" filterUnits="userSpaceOnUse" color-interpolation-filters="sRGB">
<feFlood flood-opacity="0" result="BackgroundImageFix"/>
<feBlend mode="normal" in="SourceGraphic" in2="BackgroundImageFix" result="shape"/>
<feGaussianBlur stdDeviation="17" result="effect1_foregroundBlur_932_2647"/>
</filter>
<filter id="filter4_f_932_2647" x="0.370425" y="0.583804" width="49.4261" height="48.6913" filterUnits="userSpaceOnUse" color-interpolation-filters="sRGB">
<feFlood flood-opacity="0" result="BackgroundImageFix"/>
<feBlend mode="normal" in="SourceGraphic" in2="BackgroundImageFix" result="shape"/>
<feGaussianBlur stdDeviation="5.59384" result="effect1_foregroundBlur_932_2647"/>
</filter>
<filter id="filter5_f_932_2647" x="9.32057" y="9.53394" width="31.5259" height="30.791" filterUnits="userSpaceOnUse" color-interpolation-filters="sRGB">
<feFlood flood-opacity="0" result="BackgroundImageFix"/>
<feBlend mode="normal" in="SourceGraphic" in2="BackgroundImageFix" result="shape"/>
<feGaussianBlur stdDeviation="1.11877" result="effect1_foregroundBlur_932_2647"/>
</filter>
<filter id="filter6_f_932_2647" x="-13.2217" y="-12.7197" width="76.2764" height="75.5413" filterUnits="userSpaceOnUse" color-interpolation-filters="sRGB">
<feFlood flood-opacity="0" result="BackgroundImageFix"/>
<feBlend mode="normal" in="SourceGraphic" in2="BackgroundImageFix" result="shape"/>
<feGaussianBlur stdDeviation="12.3064" result="effect1_foregroundBlur_932_2647"/>
</filter>
<clipPath id="clip0_932_2647">
<rect width="50" height="50" fill="white"/>
</clipPath>
</defs>
</svg>
