<svg xmlns="http://www.w3.org/2000/svg" width="400" height="400" viewBox="0 0 400 400" version="1.1"><path d="M 136.885 80.380 C 125.828 84.331, 118.749 94.499, 118.751 106.427 C 118.754 121.557, 130.317 133.012, 145.566 132.990 C 166.325 132.961, 178.926 113.029, 170.048 94.264 C 166.981 87.781, 161.557 82.860, 154.684 80.326 C 150.426 78.756, 141.351 78.784, 136.885 80.380 M 245.994 80.934 C 238.706 83.151, 231.271 89.819, 228.237 96.860 C 225.951 102.168, 226.170 112.467, 228.689 118.089 C 233.176 128.103, 242.496 134.015, 253.739 133.978 C 264.685 133.942, 272.832 129.075, 277.774 119.620 C 279.971 115.416, 280.454 113.158, 280.475 107 C 280.496 100.515, 280.094 98.764, 277.500 94.061 C 274.429 88.492, 268.651 83.526, 262.684 81.326 C 259.092 80.002, 249.778 79.783, 245.994 80.934 M 107.830 197.258 C 98.662 225.441, 86.566 262.579, 80.951 279.787 C 75.335 296.995, 71.063 311.395, 71.457 311.787 C 71.850 312.179, 77.421 312.464, 83.836 312.421 C 93.411 312.356, 96.528 311.941, 101.239 310.103 C 109.564 306.856, 115.860 302.140, 120.146 295.942 C 124.151 290.149, 124.396 289.461, 139.546 241.263 L 149.365 210.026 154.528 220.420 C 163.445 238.370, 174.923 251.923, 185.363 256.831 C 192.142 260.017, 201.383 259.818, 208.812 256.326 C 218.988 251.542, 232.372 235.984, 242.105 217.624 L 245.750 210.748 250.824 226.124 C 253.614 234.581, 259.116 251.850, 263.049 264.500 C 266.983 277.150, 271.358 289.648, 272.773 292.274 C 277.982 301.946, 289.139 309.751, 300.960 311.992 C 306.692 313.080, 317.907 313.154, 322.079 312.132 L 324.658 311.500 313.860 278.500 C 307.921 260.350, 295.756 223.113, 286.825 195.750 L 270.587 146 252.447 146 L 234.307 146 218.971 173.750 C 200.428 207.301, 197.973 211.377, 196.937 210.321 C 196.495 209.869, 188.258 195.325, 178.633 178 L 161.132 146.500 142.816 146.258 L 124.500 146.017 107.830 197.258" stroke="none" fill="#b3c2dd" fill-rule="evenodd"/><path d="M 173.496 2.568 C 115.326 10.487, 61.886 45.104, 31.032 94.852 C -9.098 159.555, -9.098 241.445, 31.032 306.148 C 46.485 331.063, 69.937 354.515, 94.852 369.968 C 159.555 410.098, 241.445 410.098, 306.148 369.968 C 331.063 354.515, 354.515 331.063, 369.968 306.148 C 410.098 241.445, 410.098 159.555, 369.968 94.852 C 354.515 69.937, 331.063 46.485, 306.148 31.032 C 282.135 16.138, 254.204 6.153, 226.344 2.501 C 212.416 0.675, 187.165 0.707, 173.496 2.568 M 136.885 80.380 C 125.828 84.331, 118.749 94.499, 118.751 106.427 C 118.754 121.557, 130.317 133.012, 145.566 132.990 C 166.325 132.961, 178.926 113.029, 170.048 94.264 C 166.981 87.781, 161.557 82.860, 154.684 80.326 C 150.426 78.756, 141.351 78.784, 136.885 80.380 M 245.994 80.934 C 238.706 83.151, 231.271 89.819, 228.237 96.860 C 225.951 102.168, 226.170 112.467, 228.689 118.089 C 233.176 128.103, 242.496 134.015, 253.739 133.978 C 264.685 133.942, 272.832 129.075, 277.774 119.620 C 279.971 115.416, 280.454 113.158, 280.475 107 C 280.496 100.515, 280.094 98.764, 277.500 94.061 C 274.429 88.492, 268.651 83.526, 262.684 81.326 C 259.092 80.002, 249.778 79.783, 245.994 80.934 M 107.830 197.258 C 98.662 225.441, 86.566 262.579, 80.951 279.787 C 75.335 296.995, 71.063 311.395, 71.457 311.787 C 71.850 312.179, 77.421 312.464, 83.836 312.421 C 93.411 312.356, 96.528 311.941, 101.239 310.103 C 109.564 306.856, 115.860 302.140, 120.146 295.942 C 124.151 290.149, 124.396 289.461, 139.546 241.263 L 149.365 210.026 154.528 220.420 C 163.445 238.370, 174.923 251.923, 185.363 256.831 C 192.142 260.017, 201.383 259.818, 208.812 256.326 C 218.988 251.542, 232.372 235.984, 242.105 217.624 L 245.750 210.748 250.824 226.124 C 253.614 234.581, 259.116 251.850, 263.049 264.500 C 266.983 277.150, 271.358 289.648, 272.773 292.274 C 277.982 301.946, 289.139 309.751, 300.960 311.992 C 306.692 313.080, 317.907 313.154, 322.079 312.132 L 324.658 311.500 313.860 278.500 C 307.921 260.350, 295.756 223.113, 286.825 195.750 L 270.587 146 252.447 146 L 234.307 146 218.971 173.750 C 200.428 207.301, 197.973 211.377, 196.937 210.321 C 196.495 209.869, 188.258 195.325, 178.633 178 L 161.132 146.500 142.816 146.258 L 124.500 146.017 107.830 197.258" stroke="none" fill="#04144c" fill-rule="evenodd"/></svg>