<svg width="50" height="50" viewBox="0 0 50 50" fill="none" xmlns="http://www.w3.org/2000/svg">
<g clip-path="url(#clip0_945_2782)">
<mask id="mask0_945_2782" style="mask-type:luminance" maskUnits="userSpaceOnUse" x="0" y="0" width="50" height="50">
<path d="M50 0H0V50H50V0Z" fill="white"/>
</mask>
<g mask="url(#mask0_945_2782)">
<path d="M25 49.6875C38.6344 49.6875 49.6875 38.6344 49.6875 25C49.6875 11.3655 38.6344 0.3125 25 0.3125C11.3655 0.3125 0.3125 11.3655 0.3125 25C0.3125 38.6344 11.3655 49.6875 25 49.6875Z" fill="url(#paint0_linear_945_2782)"/>
<path d="M44.9688 10.4887L39.5081 5.0282L32.6266 1.52362L24.9985 0.313965L17.3705 1.52362L10.4888 5.0282L5.02831 10.4887L1.52374 17.3704L0.314087 24.9983L1.52374 32.6264L5.02831 39.508L10.4888 44.9686L17.3705 48.4761L24.9985 49.6858L32.6266 48.4761L39.5081 44.9686L44.9688 39.508L48.4763 32.6264L49.6859 24.9983L48.4763 17.3704L44.9688 10.4887Z" stroke="white" stroke-miterlimit="10"/>
<path d="M39.5081 5.02832L24.9984 24.9985" stroke="white" stroke-miterlimit="10"/>
<path d="M10.4889 5.02832L24.9985 24.9985" stroke="white" stroke-miterlimit="10"/>
<path d="M1.5238 32.6267L24.9985 24.9985" stroke="white" stroke-miterlimit="10"/>
<path d="M24.9984 49.6829V24.9985" stroke="white" stroke-miterlimit="10"/>
<path d="M48.4762 32.6267L24.9984 24.9985" stroke="white" stroke-miterlimit="10"/>
<path d="M24.9985 31.8861L31.5476 27.1284L29.0473 19.429H20.9497L18.4496 27.1284L24.9985 31.8861Z" stroke="white" stroke-miterlimit="10"/>
<path d="M17.3705 1.52368L24.9984 12.2364L32.6265 1.52368" stroke="white" stroke-miterlimit="10"/>
<path d="M24.9985 3.14064V0.313965L18.5242 3.14064H24.9985ZM24.9985 3.14064L21.0181 6.6452H28.9788L24.9985 3.14064Z" stroke="white" stroke-miterlimit="10"/>
<path d="M24.9984 0.313965L31.4759 3.14064H24.9984" stroke="white" stroke-miterlimit="10"/>
<path d="M20.9497 19.429L24.9985 12.2363L29.0472 19.429" stroke="white" stroke-miterlimit="10"/>
<path d="M24.9985 12.2366L16.3133 13.042L21.0182 6.64543L12.8398 8.26556L18.5242 3.14087L10.4889 5.0284" stroke="white" stroke-miterlimit="10"/>
<path d="M24.9984 12.2366L33.6868 13.042L28.9788 6.64543L37.1571 8.26556L31.4759 3.14087L39.5081 5.0284" stroke="white" stroke-miterlimit="10"/>
<path d="M0.314087 24.9984L12.8615 21.0553L5.02831 10.4888" stroke="white" stroke-miterlimit="10"/>
<path d="M4.20737 18.2443L1.52063 17.3705L2.20786 24.4014L4.20737 18.2443ZM4.20737 18.2443L6.31259 23.114L8.77234 15.542L4.20737 18.2443Z" stroke="white" stroke-miterlimit="10"/>
<path d="M1.52063 17.3704L6.20996 12.084L4.20737 18.2442" stroke="white" stroke-miterlimit="10"/>
<path d="M18.4495 27.1285L12.8615 21.0553L20.9496 19.429" stroke="white" stroke-miterlimit="10"/>
<path d="M12.8615 21.0554L10.9429 29.5665L6.31259 23.114L5.32684 31.3919L2.20786 24.4014L1.52063 32.6263" stroke="white" stroke-miterlimit="10"/>
<path d="M12.8584 21.0554L16.3101 13.0419L8.7723 15.542L12.8397 8.26235L6.20996 12.0841L10.4888 5.02832" stroke="white" stroke-miterlimit="10"/>
<path d="M17.3673 48.4763L17.4948 35.3225L5.02515 39.5081" stroke="white" stroke-miterlimit="10"/>
<path d="M12.1463 42.6832L10.4889 44.9685L17.3892 46.4892L12.1463 42.6832ZM12.1463 42.6832L17.4296 42.1854L10.9895 37.5085L12.1463 42.6832Z" stroke="white" stroke-miterlimit="10"/>
<path d="M10.4888 44.9688L6.90649 38.877L12.1462 42.6832" stroke="white" stroke-miterlimit="10"/>
<path d="M24.9985 31.8864L17.4949 35.3226L18.4496 27.1287" stroke="white" stroke-miterlimit="10"/>
<path d="M17.4949 35.3225L24.9984 39.7784L17.4296 42.1853L24.9984 45.6838L17.3892 46.4891L24.9984 49.6828" stroke="white" stroke-miterlimit="10"/>
<path d="M17.4949 35.3255L10.9429 29.5664L10.9895 37.5083L5.32371 31.3918L6.90965 38.8768L1.52063 32.6262" stroke="white" stroke-miterlimit="10"/>
<path d="M44.9656 39.5113L32.499 35.3257L32.6265 48.4763" stroke="white" stroke-miterlimit="10"/>
<path d="M37.8443 42.6864L39.505 44.9717L43.084 38.8801L37.8443 42.6864ZM37.8443 42.6864L39.0043 37.5085L32.5643 42.1885L37.8443 42.6864Z" stroke="white" stroke-miterlimit="10"/>
<path d="M39.505 44.9716L32.6047 46.4922L37.8444 42.6863" stroke="white" stroke-miterlimit="10"/>
<path d="M31.5474 27.1287L32.499 35.3257L24.9984 31.8864" stroke="white" stroke-miterlimit="10"/>
<path d="M32.499 35.3255L39.054 29.5664L39.0043 37.5083L44.67 31.3918L43.084 38.8799L48.4731 32.6293" stroke="white" stroke-miterlimit="10"/>
<path d="M32.499 35.3257L24.9984 39.7785L32.5643 42.1885L24.9984 45.6869L32.6078 46.4922L24.9984 49.686" stroke="white" stroke-miterlimit="10"/>
<path d="M44.9687 10.4919L37.1353 21.0585L49.6828 25.0016" stroke="white" stroke-miterlimit="10"/>
<path d="M45.7897 18.2474L48.4763 17.3736L43.7869 12.0872L45.7897 18.2474ZM45.7897 18.2474L41.2247 15.542L43.6844 23.114L45.7897 18.2474Z" stroke="white" stroke-miterlimit="10"/>
<path d="M48.4762 17.3735L47.7891 24.4044L45.7897 18.2473" stroke="white" stroke-miterlimit="10"/>
<path d="M29.0472 19.429L37.1354 21.0584L31.5476 27.1285" stroke="white" stroke-miterlimit="10"/>
<path d="M37.1353 21.0586L33.6869 13.045L41.2247 15.5421L37.1572 8.26553L43.7869 12.0873L39.5081 5.03149" stroke="white" stroke-miterlimit="10"/>
<path d="M37.1353 21.0554L39.054 29.5665L43.6843 23.114L44.6731 31.3919L47.789 24.4045L48.4731 32.6294" stroke="white" stroke-miterlimit="10"/>
</g>
</g>
<defs>
<linearGradient id="paint0_linear_945_2782" x1="25" y1="49.6875" x2="25" y2="0.3125" gradientUnits="userSpaceOnUse">
<stop stop-color="#A93E4D"/>
<stop offset="0.9997" stop-color="#F15A24"/>
</linearGradient>
<clipPath id="clip0_945_2782">
<rect width="50" height="50" fill="white"/>
</clipPath>
</defs>
</svg>
