<svg width="50" height="50" viewBox="0 0 50 50" fill="none" xmlns="http://www.w3.org/2000/svg">
<g clip-path="url(#clip0_945_2774)">
<mask id="mask0_945_2774" style="mask-type:alpha" maskUnits="userSpaceOnUse" x="0" y="0" width="50" height="50">
<path d="M25 50C38.8071 50 50 38.8071 50 25C50 11.1929 38.8071 0 25 0C11.1929 0 0 11.1929 0 25C0 38.8071 11.1929 50 25 50Z" fill="#D9D9D9"/>
</mask>
<g mask="url(#mask0_945_2774)">
<path d="M7.375 57.375C34.9892 57.375 57.375 34.9892 57.375 7.375C57.375 -20.2392 34.9892 -42.625 7.375 -42.625C-20.2392 -42.625 -42.625 -20.2392 -42.625 7.375C-42.625 34.9892 -20.2392 57.375 7.375 57.375Z" fill="url(#paint0_radial_945_2774)"/>
</g>
<path d="M27.7207 7.95837H15.2786V16.2917H27.7207C28.8716 16.2917 29.8033 17.2247 29.8033 18.3744C29.8033 19.524 28.8702 20.4571 27.7207 20.4571H17.3613V28.7904H27.7207C33.4738 28.7904 38.1367 24.1262 38.1367 18.3744C38.1367 12.6225 33.4738 7.95837 27.7207 7.95837Z" fill="#7D5AFF"/>
<path d="M23.612 43.3641C27.0578 43.3641 29.8512 40.5707 29.8512 37.125C29.8512 33.6792 27.0578 30.886 23.612 30.886C20.1663 30.886 17.373 33.6792 17.373 37.125C17.373 40.5707 20.1663 43.3641 23.612 43.3641Z" fill="#7D5AFF"/>
</g>
<defs>
<radialGradient id="paint0_radial_945_2774" cx="0" cy="0" r="1" gradientUnits="userSpaceOnUse" gradientTransform="translate(7.375 7.375) rotate(45.6128) scale(49.5887)">
<stop stop-color="#BAFA99"/>
<stop offset="0.157403" stop-color="#AAF8AE"/>
<stop offset="0.319058" stop-color="#9BF6C4"/>
<stop offset="0.486362" stop-color="#A3EBCF"/>
<stop offset="0.68272" stop-color="#B9D9DB"/>
<stop offset="0.834858" stop-color="#C9CCE4"/>
<stop offset="1" stop-color="#D9BDEC"/>
</radialGradient>
<clipPath id="clip0_945_2774">
<rect width="50" height="50" fill="white"/>
</clipPath>
</defs>
</svg>
