<?xml version="1.0" encoding="UTF-8"?>
<svg xmlns="http://www.w3.org/2000/svg" xmlns:xlink="http://www.w3.org/1999/xlink" width="50px" height="50px" viewBox="0 0 50 50" version="1.1">
<defs>
<clipPath id="clip1">
  <path d="M 25 0 C 38.808594 0 50 11.191406 50 25 C 50 38.808594 38.808594 50 25 50 C 11.191406 50 0 38.808594 0 25 C 0 11.191406 11.191406 0 25 0 Z M 25 0 "/>
</clipPath>
<clipPath id="clip2">
  <path d="M 30 20 L 34 20 L 34 29 L 30 29 Z M 30 20 "/>
</clipPath>
<clipPath id="clip3">
  <path d="M 25 0 C 38.808594 0 50 11.191406 50 25 C 50 38.808594 38.808594 50 25 50 C 11.191406 50 0 38.808594 0 25 C 0 11.191406 11.191406 0 25 0 Z M 25 0 "/>
</clipPath>
<clipPath id="clip4">
  <path d="M 35 22 L 40 22 L 40 29 L 35 29 Z M 35 22 "/>
</clipPath>
<clipPath id="clip5">
  <path d="M 25 0 C 38.808594 0 50 11.191406 50 25 C 50 38.808594 38.808594 50 25 50 C 11.191406 50 0 38.808594 0 25 C 0 11.191406 11.191406 0 25 0 Z M 25 0 "/>
</clipPath>
<clipPath id="clip6">
  <path d="M 41 13 L 45 13 L 45 25 L 41 25 Z M 41 13 "/>
</clipPath>
<clipPath id="clip7">
  <path d="M 25 0 C 38.808594 0 50 11.191406 50 25 C 50 38.808594 38.808594 50 25 50 C 11.191406 50 0 38.808594 0 25 C 0 11.191406 11.191406 0 25 0 Z M 25 0 "/>
</clipPath>
<clipPath id="clip8">
  <path d="M 33 20 L 42 20 L 42 25 L 33 25 Z M 33 20 "/>
</clipPath>
<clipPath id="clip9">
  <path d="M 25 0 C 38.808594 0 50 11.191406 50 25 C 50 38.808594 38.808594 50 25 50 C 11.191406 50 0 38.808594 0 25 C 0 11.191406 11.191406 0 25 0 Z M 25 0 "/>
</clipPath>
<clipPath id="clip10">
  <path d="M 21 25 L 26 25 L 26 29 L 21 29 Z M 21 25 "/>
</clipPath>
<clipPath id="clip11">
  <path d="M 25 0 C 38.808594 0 50 11.191406 50 25 C 50 38.808594 38.808594 50 25 50 C 11.191406 50 0 38.808594 0 25 C 0 11.191406 11.191406 0 25 0 Z M 25 0 "/>
</clipPath>
<clipPath id="clip12">
  <path d="M 26 22 L 30 22 L 30 29 L 26 29 Z M 26 22 "/>
</clipPath>
<clipPath id="clip13">
  <path d="M 25 0 C 38.808594 0 50 11.191406 50 25 C 50 38.808594 38.808594 50 25 50 C 11.191406 50 0 38.808594 0 25 C 0 11.191406 11.191406 0 25 0 Z M 25 0 "/>
</clipPath>
<clipPath id="clip14">
  <path d="M 5 32 L 13 32 L 13 38 L 5 38 Z M 5 32 "/>
</clipPath>
<clipPath id="clip15">
  <path d="M 25 0 C 38.808594 0 50 11.191406 50 25 C 50 38.808594 38.808594 50 25 50 C 11.191406 50 0 38.808594 0 25 C 0 11.191406 11.191406 0 25 0 Z M 25 0 "/>
</clipPath>
<clipPath id="clip16">
  <path d="M 3 30 L 14 30 L 14 39 L 3 39 Z M 3 30 "/>
</clipPath>
<clipPath id="clip17">
  <path d="M 25 0 C 38.808594 0 50 11.191406 50 25 C 50 38.808594 38.808594 50 25 50 C 11.191406 50 0 38.808594 0 25 C 0 11.191406 11.191406 0 25 0 Z M 25 0 "/>
</clipPath>
<clipPath id="clip18">
  <path d="M 13 30 L 15 30 L 15 38 L 13 38 Z M 13 30 "/>
</clipPath>
<clipPath id="clip19">
  <path d="M 25 0 C 38.808594 0 50 11.191406 50 25 C 50 38.808594 38.808594 50 25 50 C 11.191406 50 0 38.808594 0 25 C 0 11.191406 11.191406 0 25 0 Z M 25 0 "/>
</clipPath>
<clipPath id="clip20">
  <path d="M 15 32 L 21 32 L 21 38 L 15 38 Z M 15 32 "/>
</clipPath>
<clipPath id="clip21">
  <path d="M 25 0 C 38.808594 0 50 11.191406 50 25 C 50 38.808594 38.808594 50 25 50 C 11.191406 50 0 38.808594 0 25 C 0 11.191406 11.191406 0 25 0 Z M 25 0 "/>
</clipPath>
<clipPath id="clip22">
  <path d="M 14 30 L 22 30 L 22 39 L 14 39 Z M 14 30 "/>
</clipPath>
<clipPath id="clip23">
  <path d="M 25 0 C 38.808594 0 50 11.191406 50 25 C 50 38.808594 38.808594 50 25 50 C 11.191406 50 0 38.808594 0 25 C 0 11.191406 11.191406 0 25 0 Z M 25 0 "/>
</clipPath>
<clipPath id="clip24">
  <path d="M 20 32 L 24 32 L 24 38 L 20 38 Z M 20 32 "/>
</clipPath>
<clipPath id="clip25">
  <path d="M 25 0 C 38.808594 0 50 11.191406 50 25 C 50 38.808594 38.808594 50 25 50 C 11.191406 50 0 38.808594 0 25 C 0 11.191406 11.191406 0 25 0 Z M 25 0 "/>
</clipPath>
<clipPath id="clip26">
  <path d="M 19 30 L 25 30 L 25 39 L 19 39 Z M 19 30 "/>
</clipPath>
<clipPath id="clip27">
  <path d="M 25 0 C 38.808594 0 50 11.191406 50 25 C 50 38.808594 38.808594 50 25 50 C 11.191406 50 0 38.808594 0 25 C 0 11.191406 11.191406 0 25 0 Z M 25 0 "/>
</clipPath>
<clipPath id="clip28">
  <path d="M 24 32 L 29 32 L 29 38 L 24 38 Z M 24 32 "/>
</clipPath>
<clipPath id="clip29">
  <path d="M 25 0 C 38.808594 0 50 11.191406 50 25 C 50 38.808594 38.808594 50 25 50 C 11.191406 50 0 38.808594 0 25 C 0 11.191406 11.191406 0 25 0 Z M 25 0 "/>
</clipPath>
<clipPath id="clip30">
  <path d="M 23 30 L 31 30 L 31 40 L 23 40 Z M 23 30 "/>
</clipPath>
<clipPath id="clip31">
  <path d="M 25 0 C 38.808594 0 50 11.191406 50 25 C 50 38.808594 38.808594 50 25 50 C 11.191406 50 0 38.808594 0 25 C 0 11.191406 11.191406 0 25 0 Z M 25 0 "/>
</clipPath>
<clipPath id="clip32">
  <path d="M 29 30 L 32 30 L 32 38 L 29 38 Z M 29 30 "/>
</clipPath>
<clipPath id="clip33">
  <path d="M 25 0 C 38.808594 0 50 11.191406 50 25 C 50 38.808594 38.808594 50 25 50 C 11.191406 50 0 38.808594 0 25 C 0 11.191406 11.191406 0 25 0 Z M 25 0 "/>
</clipPath>
<clipPath id="clip34">
  <path d="M 28 29 L 33 29 L 33 39 L 28 39 Z M 28 29 "/>
</clipPath>
<clipPath id="clip35">
  <path d="M 25 0 C 38.808594 0 50 11.191406 50 25 C 50 38.808594 38.808594 50 25 50 C 11.191406 50 0 38.808594 0 25 C 0 11.191406 11.191406 0 25 0 Z M 25 0 "/>
</clipPath>
<clipPath id="clip36">
  <path d="M 33 30 L 35 30 L 35 38 L 33 38 Z M 33 30 "/>
</clipPath>
<clipPath id="clip37">
  <path d="M 25 0 C 38.808594 0 50 11.191406 50 25 C 50 38.808594 38.808594 50 25 50 C 11.191406 50 0 38.808594 0 25 C 0 11.191406 11.191406 0 25 0 Z M 25 0 "/>
</clipPath>
<clipPath id="clip38">
  <path d="M 35 32 L 40 32 L 40 38 L 35 38 Z M 35 32 "/>
</clipPath>
<clipPath id="clip39">
  <path d="M 25 0 C 38.808594 0 50 11.191406 50 25 C 50 38.808594 38.808594 50 25 50 C 11.191406 50 0 38.808594 0 25 C 0 11.191406 11.191406 0 25 0 Z M 25 0 "/>
</clipPath>
<clipPath id="clip40">
  <path d="M 34 30 L 41 30 L 41 40 L 34 40 Z M 34 30 "/>
</clipPath>
<clipPath id="clip41">
  <path d="M 25 0 C 38.808594 0 50 11.191406 50 25 C 50 38.808594 38.808594 50 25 50 C 11.191406 50 0 38.808594 0 25 C 0 11.191406 11.191406 0 25 0 Z M 25 0 "/>
</clipPath>
<clipPath id="clip42">
  <path d="M 40 30 L 45 30 L 45 38 L 40 38 Z M 40 30 "/>
</clipPath>
<clipPath id="clip43">
  <path d="M 25 0 C 38.808594 0 50 11.191406 50 25 C 50 38.808594 38.808594 50 25 50 C 11.191406 50 0 38.808594 0 25 C 0 11.191406 11.191406 0 25 0 Z M 25 0 "/>
</clipPath>
<clipPath id="clip44">
  <path d="M 39 29 L 46 29 L 46 39 L 39 39 Z M 39 29 "/>
</clipPath>
<clipPath id="clip45">
  <path d="M 25 0 C 38.808594 0 50 11.191406 50 25 C 50 38.808594 38.808594 50 25 50 C 11.191406 50 0 38.808594 0 25 C 0 11.191406 11.191406 0 25 0 Z M 25 0 "/>
</clipPath>
<clipPath id="clip46">
  <path d="M 5 28 L 45 28 L 45 30 L 5 30 Z M 5 28 "/>
</clipPath>
<clipPath id="clip47">
  <path d="M 25 0 C 38.808594 0 50 11.191406 50 25 C 50 38.808594 38.808594 50 25 50 C 11.191406 50 0 38.808594 0 25 C 0 11.191406 11.191406 0 25 0 Z M 25 0 "/>
</clipPath>
<linearGradient id="linear0" gradientUnits="userSpaceOnUse" x1="44.9833" y1="29.7526" x2="5" y2="29.7526" >
<stop offset="0" style="stop-color:rgb(0%,0%,0%);stop-opacity:1;"/>
<stop offset="1" style="stop-color:rgb(0%,0%,0%);stop-opacity:0;"/>
</linearGradient>
<clipPath id="clip48">
  <path d="M 41 25 L 45 25 L 45 29 L 41 29 Z M 41 25 "/>
</clipPath>
<clipPath id="clip49">
  <path d="M 25 0 C 38.808594 0 50 11.191406 50 25 C 50 38.808594 38.808594 50 25 50 C 11.191406 50 0 38.808594 0 25 C 0 11.191406 11.191406 0 25 0 Z M 25 0 "/>
</clipPath>
</defs>
<g id="surface1">
<g clip-path="url(#clip1)" clip-rule="nonzero">
<rect x="0" y="0" width="50" height="50" style="fill:rgb(100%,100%,100%);fill-opacity:1;stroke:none;"/>
</g>
<g clip-path="url(#clip2)" clip-rule="nonzero">
<g clip-path="url(#clip3)" clip-rule="nonzero">
<path style=" stroke:none;fill-rule:nonzero;fill:rgb(0%,0%,0%);fill-opacity:1;" d="M 33.675781 20.625 L 30.601562 20.625 L 30.601562 28.984375 L 33.675781 28.984375 Z M 33.675781 20.625 "/>
</g>
</g>
<g clip-path="url(#clip4)" clip-rule="nonzero">
<g clip-path="url(#clip5)" clip-rule="nonzero">
<path style=" stroke:none;fill-rule:nonzero;fill:rgb(0%,0%,0%);fill-opacity:1;" d="M 39.273438 22.292969 L 35.980469 22.292969 L 35.980469 28.984375 L 39.273438 28.984375 Z M 39.273438 22.292969 "/>
</g>
</g>
<g clip-path="url(#clip6)" clip-rule="nonzero">
<g clip-path="url(#clip7)" clip-rule="nonzero">
<path style=" stroke:none;fill-rule:nonzero;fill:rgb(41.960784%,67.058824%,9.019608%);fill-opacity:1;" d="M 45 13 L 41.597656 13 L 41.597656 24.910156 L 45 24.910156 Z M 45 13 "/>
</g>
</g>
<g clip-path="url(#clip8)" clip-rule="nonzero">
<g clip-path="url(#clip9)" clip-rule="nonzero">
<path style=" stroke:none;fill-rule:nonzero;fill:rgb(0%,0%,0%);fill-opacity:1;" d="M 33.386719 21.882812 C 34.949219 20.09375 37.921875 19.839844 38.957031 21.824219 C 38.957031 21.824219 40.046875 20.199219 41.632812 20.644531 L 41.664062 23.957031 C 41.199219 22.652344 39.300781 23.03125 39.246094 24.308594 L 36.023438 23.933594 C 36.046875 23.222656 34.078125 22.535156 33.558594 24.152344 Z M 33.386719 21.882812 "/>
</g>
</g>
<g clip-path="url(#clip10)" clip-rule="nonzero">
<g clip-path="url(#clip11)" clip-rule="nonzero">
<path style=" stroke:none;fill-rule:nonzero;fill:rgb(0%,0%,0%);fill-opacity:1;" d="M 25.164062 25.453125 L 21.835938 25.453125 L 21.835938 28.984375 L 25.164062 28.984375 Z M 25.164062 25.453125 "/>
</g>
</g>
<g clip-path="url(#clip12)" clip-rule="nonzero">
<g clip-path="url(#clip13)" clip-rule="nonzero">
<path style=" stroke:none;fill-rule:nonzero;fill:rgb(0%,0%,0%);fill-opacity:1;" d="M 29.597656 22.941406 L 26.0625 22.941406 L 26.0625 28.984375 L 29.597656 28.984375 Z M 29.597656 22.941406 "/>
</g>
</g>
<g clip-path="url(#clip14)" clip-rule="nonzero">
<g clip-path="url(#clip15)" clip-rule="nonzero">
<path style=" stroke:none;fill-rule:nonzero;fill:rgb(41.960784%,67.058824%,9.019608%);fill-opacity:1;" d="M 12.5 33.75 C 12.5 32.695312 11.800781 32.101562 10.714844 32.101562 C 10.324219 32.101562 9.636719 32.148438 9.144531 32.808594 C 8.753906 32.277344 8.117188 32.101562 7.527344 32.101562 C 6.941406 32.101562 6.371094 32.269531 6.007812 32.808594 L 6.007812 32.257812 L 5.078125 32.257812 L 5.078125 37.722656 L 6.058594 37.722656 L 6.058594 34.449219 C 6.058594 33.722656 6.363281 32.828125 7.214844 32.828125 C 7.734375 32.828125 8.066406 33.097656 8.195312 33.460938 C 8.304688 33.75 8.292969 34.085938 8.292969 34.382812 L 8.292969 37.722656 L 9.273438 37.722656 L 9.273438 34.441406 C 9.273438 33.722656 9.507812 32.828125 10.449219 32.828125 C 10.96875 32.828125 11.28125 33.097656 11.429688 33.460938 C 11.539062 33.75 11.519531 34.085938 11.519531 34.394531 L 11.519531 37.722656 L 12.5 37.722656 Z M 12.5 33.75 "/>
</g>
</g>
<g clip-path="url(#clip16)" clip-rule="nonzero">
<g clip-path="url(#clip17)" clip-rule="nonzero">
<path style="fill:none;stroke-width:0.2;stroke-linecap:butt;stroke-linejoin:miter;stroke:rgb(41.960784%,67.058824%,9.019608%);stroke-opacity:1;stroke-miterlimit:4;" d="M 12.5 33.75 C 12.5 32.695312 11.800781 32.101562 10.714844 32.101562 C 10.324219 32.101562 9.636719 32.148438 9.144531 32.808594 C 8.753906 32.277344 8.117188 32.101562 7.527344 32.101562 C 6.941406 32.101562 6.371094 32.269531 6.007812 32.808594 L 6.007812 32.257812 L 5.078125 32.257812 L 5.078125 37.722656 L 6.058594 37.722656 L 6.058594 34.449219 C 6.058594 33.722656 6.363281 32.828125 7.214844 32.828125 C 7.734375 32.828125 8.066406 33.097656 8.195312 33.460938 C 8.304688 33.75 8.292969 34.085938 8.292969 34.382812 L 8.292969 37.722656 L 9.273438 37.722656 L 9.273438 34.441406 C 9.273438 33.722656 9.507812 32.828125 10.449219 32.828125 C 10.96875 32.828125 11.28125 33.097656 11.429688 33.460938 C 11.539062 33.75 11.519531 34.085938 11.519531 34.394531 L 11.519531 37.722656 L 12.5 37.722656 Z M 12.5 33.75 "/>
</g>
</g>
<g clip-path="url(#clip18)" clip-rule="nonzero">
<g clip-path="url(#clip19)" clip-rule="nonzero">
<path style="fill-rule:nonzero;fill:rgb(41.960784%,67.058824%,9.019608%);fill-opacity:1;stroke-width:0.2;stroke-linecap:butt;stroke-linejoin:miter;stroke:rgb(41.960784%,67.058824%,9.019608%);stroke-opacity:1;stroke-miterlimit:4;" d="M 14.644531 32.257812 L 13.699219 32.257812 L 13.699219 37.722656 L 14.644531 37.722656 Z M 14.644531 30.171875 L 13.699219 30.171875 L 13.699219 31.214844 L 14.644531 31.214844 Z M 14.644531 30.171875 "/>
</g>
</g>
<g clip-path="url(#clip20)" clip-rule="nonzero">
<g clip-path="url(#clip21)" clip-rule="nonzero">
<path style=" stroke:none;fill-rule:nonzero;fill:rgb(41.960784%,67.058824%,9.019608%);fill-opacity:1;" d="M 19.234375 36.03125 C 19.121094 36.5625 18.746094 37.148438 18 37.148438 C 16.945312 37.148438 16.621094 35.777344 16.621094 34.929688 C 16.621094 34.070312 16.9375 32.71875 17.992188 32.71875 C 18.746094 32.71875 19.121094 33.328125 19.234375 33.859375 L 20.132812 33.859375 C 19.925781 32.703125 19.121094 32.003906 17.992188 32.003906 C 16.429688 32.003906 15.71875 33.289062 15.71875 34.921875 C 15.71875 36.5625 16.449219 37.867188 17.992188 37.867188 C 19.121094 37.867188 19.945312 37.15625 20.132812 36.03125 Z M 19.234375 36.03125 "/>
</g>
</g>
<g clip-path="url(#clip22)" clip-rule="nonzero">
<g clip-path="url(#clip23)" clip-rule="nonzero">
<path style="fill:none;stroke-width:0.2;stroke-linecap:butt;stroke-linejoin:miter;stroke:rgb(41.960784%,67.058824%,9.019608%);stroke-opacity:1;stroke-miterlimit:4;" d="M 19.234375 36.03125 C 19.121094 36.5625 18.746094 37.148438 18 37.148438 C 16.945312 37.148438 16.621094 35.777344 16.621094 34.929688 C 16.621094 34.070312 16.9375 32.71875 17.992188 32.71875 C 18.746094 32.71875 19.121094 33.328125 19.234375 33.859375 L 20.132812 33.859375 C 19.925781 32.703125 19.121094 32.003906 17.992188 32.003906 C 16.429688 32.003906 15.71875 33.289062 15.71875 34.921875 C 15.71875 36.5625 16.449219 37.867188 17.992188 37.867188 C 19.121094 37.867188 19.945312 37.15625 20.132812 36.03125 Z M 19.234375 36.03125 "/>
</g>
</g>
<g clip-path="url(#clip24)" clip-rule="nonzero">
<g clip-path="url(#clip25)" clip-rule="nonzero">
<path style=" stroke:none;fill-rule:nonzero;fill:rgb(41.960784%,67.058824%,9.019608%);fill-opacity:1;" d="M 23.667969 32.121094 C 23.609375 32.101562 23.511719 32.089844 23.445312 32.089844 C 22.722656 32.089844 22.191406 32.484375 21.910156 33.210938 L 21.910156 32.257812 L 20.992188 32.257812 L 20.992188 37.722656 L 21.957031 37.722656 L 21.957031 34.992188 C 21.957031 34.066406 22.269531 33.023438 23.425781 33.023438 C 23.511719 33.023438 23.597656 33.03125 23.667969 33.050781 Z M 23.667969 32.121094 "/>
</g>
</g>
<g clip-path="url(#clip26)" clip-rule="nonzero">
<g clip-path="url(#clip27)" clip-rule="nonzero">
<path style="fill:none;stroke-width:0.2;stroke-linecap:butt;stroke-linejoin:miter;stroke:rgb(41.960784%,67.058824%,9.019608%);stroke-opacity:1;stroke-miterlimit:4;" d="M 23.667969 32.121094 C 23.609375 32.101562 23.511719 32.089844 23.445312 32.089844 C 22.722656 32.089844 22.191406 32.484375 21.910156 33.210938 L 21.910156 32.257812 L 20.992188 32.257812 L 20.992188 37.722656 L 21.957031 37.722656 L 21.957031 34.992188 C 21.957031 34.066406 22.269531 33.023438 23.425781 33.023438 C 23.511719 33.023438 23.597656 33.03125 23.667969 33.050781 Z M 23.667969 32.121094 "/>
</g>
</g>
<g clip-path="url(#clip28)" clip-rule="nonzero">
<g clip-path="url(#clip29)" clip-rule="nonzero">
<path style=" stroke:none;fill-rule:nonzero;fill:rgb(41.960784%,67.058824%,9.019608%);fill-opacity:1;" d="M 27.980469 34.972656 C 27.980469 35.855469 27.664062 37.199219 26.566406 37.199219 C 25.484375 37.199219 25.144531 35.867188 25.144531 34.972656 C 25.144531 34.105469 25.492188 32.761719 26.574219 32.761719 C 27.632812 32.761719 27.980469 34.046875 27.980469 34.972656 Z M 28.875 34.980469 C 28.875 33.359375 28.160156 32.042969 26.574219 32.042969 C 24.980469 32.042969 24.25 33.292969 24.25 34.992188 C 24.25 36.695312 24.988281 37.917969 26.566406 37.917969 C 28.160156 37.917969 28.875 36.667969 28.875 34.980469 Z M 28.875 34.980469 "/>
</g>
</g>
<g clip-path="url(#clip30)" clip-rule="nonzero">
<g clip-path="url(#clip31)" clip-rule="nonzero">
<path style="fill:none;stroke-width:0.2;stroke-linecap:butt;stroke-linejoin:miter;stroke:rgb(41.960784%,67.058824%,9.019608%);stroke-opacity:1;stroke-miterlimit:4;" d="M 27.980469 34.972656 C 27.980469 35.855469 27.664062 37.199219 26.566406 37.199219 C 25.484375 37.199219 25.144531 35.867188 25.144531 34.972656 C 25.144531 34.105469 25.492188 32.761719 26.574219 32.761719 C 27.632812 32.761719 27.980469 34.046875 27.980469 34.972656 Z M 28.875 34.980469 C 28.875 33.359375 28.160156 32.042969 26.574219 32.042969 C 24.980469 32.042969 24.25 33.292969 24.25 34.992188 C 24.25 36.695312 24.988281 37.917969 26.566406 37.917969 C 28.160156 37.917969 28.875 36.667969 28.875 34.980469 Z M 28.875 34.980469 "/>
</g>
</g>
<g clip-path="url(#clip32)" clip-rule="nonzero">
<g clip-path="url(#clip33)" clip-rule="nonzero">
<path style=" stroke:none;fill-rule:nonzero;fill:rgb(0%,0%,0%);fill-opacity:1;" d="M 31.847656 37.046875 C 31.011719 37.109375 30.878906 36.8125 30.878906 36.113281 L 30.878906 33.027344 L 31.847656 33.027344 L 31.847656 32.320312 L 30.878906 32.320312 L 30.878906 30.753906 L 29.933594 31.117188 L 29.933594 32.320312 L 29.195312 32.320312 L 29.195312 33.027344 L 29.933594 33.027344 L 29.933594 36.335938 C 29.933594 37.417969 30.3125 37.847656 31.222656 37.847656 C 31.382812 37.847656 31.714844 37.808594 31.847656 37.773438 Z M 31.847656 37.046875 "/>
</g>
</g>
<g clip-path="url(#clip34)" clip-rule="nonzero">
<g clip-path="url(#clip35)" clip-rule="nonzero">
<path style="fill:none;stroke-width:0.2;stroke-linecap:butt;stroke-linejoin:miter;stroke:rgb(0%,0%,0%);stroke-opacity:1;stroke-miterlimit:4;" d="M 31.847656 37.046875 C 31.011719 37.109375 30.878906 36.8125 30.878906 36.113281 L 30.878906 33.027344 L 31.847656 33.027344 L 31.847656 32.320312 L 30.878906 32.320312 L 30.878906 30.753906 L 29.933594 31.117188 L 29.933594 32.320312 L 29.195312 32.320312 L 29.195312 33.027344 L 29.933594 33.027344 L 29.933594 36.335938 C 29.933594 37.417969 30.3125 37.847656 31.222656 37.847656 C 31.382812 37.847656 31.714844 37.808594 31.847656 37.773438 Z M 31.847656 37.046875 "/>
</g>
</g>
<g clip-path="url(#clip36)" clip-rule="nonzero">
<g clip-path="url(#clip37)" clip-rule="nonzero">
<path style="fill-rule:nonzero;fill:rgb(0%,0%,0%);fill-opacity:1;stroke-width:0.2;stroke-linecap:butt;stroke-linejoin:miter;stroke:rgb(0%,0%,0%);stroke-opacity:1;stroke-miterlimit:4;" d="M 34.1875 32.257812 L 33.242188 32.257812 L 33.242188 37.722656 L 34.1875 37.722656 Z M 34.1875 30.171875 L 33.242188 30.171875 L 33.242188 31.214844 L 34.1875 31.214844 Z M 34.1875 30.171875 "/>
</g>
</g>
<g clip-path="url(#clip38)" clip-rule="nonzero">
<g clip-path="url(#clip39)" clip-rule="nonzero">
<path style=" stroke:none;fill-rule:nonzero;fill:rgb(0%,0%,0%);fill-opacity:1;" d="M 38.917969 36.132812 C 38.804688 36.664062 38.425781 37.25 37.671875 37.25 C 36.605469 37.25 36.273438 35.878906 36.273438 35.03125 C 36.273438 34.175781 36.59375 32.824219 37.660156 32.824219 C 38.425781 32.824219 38.804688 33.429688 38.917969 33.960938 L 39.828125 33.960938 C 39.621094 32.804688 38.804688 32.105469 37.660156 32.105469 C 36.082031 32.105469 35.363281 33.390625 35.363281 35.023438 C 35.363281 36.664062 36.101562 37.96875 37.660156 37.96875 C 38.804688 37.96875 39.636719 37.261719 39.828125 36.132812 Z M 38.917969 36.132812 "/>
</g>
</g>
<g clip-path="url(#clip40)" clip-rule="nonzero">
<g clip-path="url(#clip41)" clip-rule="nonzero">
<path style="fill:none;stroke-width:0.2;stroke-linecap:butt;stroke-linejoin:miter;stroke:rgb(0%,0%,0%);stroke-opacity:1;stroke-miterlimit:4;" d="M 38.917969 36.132812 C 38.804688 36.664062 38.425781 37.25 37.671875 37.25 C 36.605469 37.25 36.273438 35.878906 36.273438 35.03125 C 36.273438 34.175781 36.59375 32.824219 37.660156 32.824219 C 38.425781 32.824219 38.804688 33.429688 38.917969 33.960938 L 39.828125 33.960938 C 39.621094 32.804688 38.804688 32.105469 37.660156 32.105469 C 36.082031 32.105469 35.363281 33.390625 35.363281 35.023438 C 35.363281 36.664062 36.101562 37.96875 37.660156 37.96875 C 38.804688 37.96875 39.636719 37.261719 39.828125 36.132812 Z M 38.917969 36.132812 "/>
</g>
</g>
<g clip-path="url(#clip42)" clip-rule="nonzero">
<g clip-path="url(#clip43)" clip-rule="nonzero">
<path style=" stroke:none;fill-rule:nonzero;fill:rgb(0%,0%,0%);fill-opacity:1;" d="M 42.695312 34.488281 L 44.511719 32.257812 L 43.433594 32.257812 L 41.425781 34.710938 L 41.425781 30.171875 L 40.535156 30.171875 L 40.535156 37.722656 L 41.425781 37.722656 L 41.425781 35.933594 L 42.042969 35.167969 L 43.613281 37.722656 L 44.691406 37.722656 Z M 42.695312 34.488281 "/>
</g>
</g>
<g clip-path="url(#clip44)" clip-rule="nonzero">
<g clip-path="url(#clip45)" clip-rule="nonzero">
<path style="fill:none;stroke-width:0.2;stroke-linecap:butt;stroke-linejoin:miter;stroke:rgb(0%,0%,0%);stroke-opacity:1;stroke-miterlimit:4;" d="M 42.695312 34.488281 L 44.511719 32.257812 L 43.433594 32.257812 L 41.425781 34.710938 L 41.425781 30.171875 L 40.535156 30.171875 L 40.535156 37.722656 L 41.425781 37.722656 L 41.425781 35.933594 L 42.042969 35.167969 L 43.613281 37.722656 L 44.691406 37.722656 Z M 42.695312 34.488281 "/>
</g>
</g>
<g clip-path="url(#clip46)" clip-rule="nonzero">
<g clip-path="url(#clip47)" clip-rule="nonzero">
<path style=" stroke:none;fill-rule:nonzero;fill:url(#linear0);" d="M 44.984375 28.984375 L 5 28.984375 L 5 29.753906 L 44.984375 29.753906 Z M 44.984375 28.984375 "/>
</g>
</g>
<g clip-path="url(#clip48)" clip-rule="nonzero">
<g clip-path="url(#clip49)" clip-rule="nonzero">
<path style=" stroke:none;fill-rule:nonzero;fill:rgb(41.960784%,67.058824%,9.019608%);fill-opacity:1;" d="M 43.273438 28.984375 C 44.210938 28.984375 44.972656 28.238281 44.972656 27.320312 C 44.972656 26.402344 44.210938 25.65625 43.273438 25.65625 C 42.335938 25.65625 41.574219 26.402344 41.574219 27.320312 C 41.574219 28.238281 42.335938 28.984375 43.273438 28.984375 Z M 43.273438 28.984375 "/>
</g>
</g>
</g>
</svg>
