<?xml version="1.0" encoding="UTF-8"?>
<svg xmlns="http://www.w3.org/2000/svg" xmlns:xlink="http://www.w3.org/1999/xlink" width="50px" height="50px" viewBox="0 0 50 50" version="1.1">
<g id="surface1">
<path style=" stroke:none;fill-rule:nonzero;fill:rgb(23.529412%,80.392157%,39.215686%);fill-opacity:1;" d="M 25 50 C 38.808594 50 50 38.808594 50 25 C 50 11.191406 38.808594 0 25 0 C 11.191406 0 0 11.191406 0 25 C 0 38.808594 11.191406 50 25 50 Z M 25 50 "/>
<path style=" stroke:none;fill-rule:nonzero;fill:rgb(9.803922%,9.803922%,9.803922%);fill-opacity:1;" d="M 48.390625 24.996094 C 48.390625 36.207031 40.503906 45.570312 29.980469 47.851562 L 29.828125 47.152344 C 28.242188 47.492188 26.625 47.664062 25 47.664062 C 13.65625 47.664062 3.992188 39.199219 2.523438 27.96875 C 2.398438 26.984375 2.332031 25.992188 2.332031 24.996094 L 1.609375 24.996094 C 1.609375 12.082031 12.082031 1.609375 25 1.609375 L 25 2.328125 C 37.503906 2.328125 47.667969 12.496094 47.667969 24.996094 Z M 48.390625 24.996094 "/>
<path style=" stroke:none;fill-rule:nonzero;fill:rgb(23.529412%,80.392157%,39.215686%);fill-opacity:1;" d="M 37.027344 42.84375 L 36.226562 41.648438 C 45.238281 35.566406 47.773438 23.382812 41.933594 14.195312 L 43.144531 13.417969 C 49.40625 23.265625 46.691406 36.328125 37.027344 42.84375 Z M 37.027344 42.84375 "/>
<path style=" stroke:none;fill-rule:nonzero;fill:rgb(23.529412%,80.392157%,39.215686%);fill-opacity:1;" d="M 7.191406 37.03125 C 5.53125 34.589844 4.394531 31.835938 3.851562 28.941406 C 3.308594 26.042969 3.375 23.066406 4.042969 20.195312 C 4.707031 17.328125 5.964844 14.625 7.730469 12.257812 C 9.496094 9.890625 11.734375 7.910156 14.304688 6.441406 L 15.027344 7.6875 C 8.804688 11.253906 4.9375 17.894531 4.9375 25.019531 C 4.929688 29.015625 6.132812 32.921875 8.390625 36.226562 Z M 7.191406 37.03125 "/>
<path style=" stroke:none;fill-rule:nonzero;fill:rgb(23.529412%,80.392157%,39.215686%);fill-opacity:1;" d="M 16.804688 41.859375 C 7.457031 37.296875 3.605469 26.066406 8.199219 16.777344 C 8.546875 16.082031 8.933594 15.40625 9.363281 14.757812 L 10.570312 15.546875 C 8.703125 18.367188 7.707031 21.671875 7.714844 25.050781 C 7.714844 31.691406 11.441406 37.636719 17.441406 40.570312 Z M 16.804688 41.859375 "/>
<path style=" stroke:none;fill-rule:nonzero;fill:rgb(23.529412%,80.392157%,39.215686%);fill-opacity:1;" d="M 43.128906 29.785156 L 41.738281 29.417969 C 42.113281 27.980469 42.300781 26.5 42.300781 25.015625 C 42.300781 15.46875 34.558594 7.703125 25.042969 7.703125 L 25.042969 6.261719 C 35.367188 6.261719 43.738281 14.65625 43.738281 25.015625 C 43.738281 26.625 43.535156 28.226562 43.128906 29.785156 Z M 43.128906 29.785156 "/>
<path style=" stroke:none;fill-rule:nonzero;fill:rgb(100%,100%,100%);fill-opacity:1;" d="M 39.121094 18.144531 C 35.710938 23.34375 32.675781 21.769531 29.050781 21.0625 C 25.421875 20.359375 23.417969 24.203125 23.417969 24.203125 C 23.417969 24.203125 23.425781 24.191406 23.425781 24.183594 C 23.355469 24.308594 23.289062 24.4375 23.226562 24.566406 C 23.109375 24.792969 23.003906 25.027344 22.902344 25.269531 C 22.914062 25.007812 22.957031 24.746094 23.023438 24.492188 C 23.089844 24.234375 23.175781 23.984375 23.28125 23.742188 C 23.410156 23.4375 23.570312 23.148438 23.753906 22.875 C 24.316406 19.238281 21.316406 17.839844 17.527344 15.652344 C 13.304688 13.214844 15.195312 10.554688 15.195312 10.554688 C 15.195312 10.554688 8.054688 17.976562 12.820312 24.992188 C 17.582031 32.007812 23.605469 33.992188 17.324219 44.554688 C 17.324219 44.554688 21.59375 47.03125 28.457031 45.820312 C 26.664062 38.148438 27.117188 35.257812 29.957031 32.65625 L 29.648438 32.769531 C 29.535156 32.804688 29.421875 32.832031 29.308594 32.863281 L 29.140625 32.910156 C 29.082031 32.921875 29.027344 32.929688 28.96875 32.941406 C 28.855469 32.960938 28.738281 32.980469 28.621094 32.996094 C 28.507812 33.015625 28.386719 33.015625 28.273438 33.019531 C 28.214844 33.019531 28.15625 33.027344 28.097656 33.027344 C 28.039062 33.027344 27.980469 33.023438 27.921875 33.019531 C 27.808594 33.011719 27.691406 33.003906 27.578125 32.988281 C 27.6875 32.953125 27.800781 32.925781 27.910156 32.894531 C 27.96875 32.882812 28.019531 32.871094 28.074219 32.855469 L 28.238281 32.804688 C 28.347656 32.773438 28.453125 32.742188 28.5625 32.714844 C 28.667969 32.683594 28.773438 32.640625 28.878906 32.605469 C 28.933594 32.585938 28.984375 32.570312 29.035156 32.550781 L 29.191406 32.492188 C 29.296875 32.449219 29.402344 32.417969 29.503906 32.375 L 29.808594 32.246094 C 29.914062 32.207031 30.011719 32.15625 30.113281 32.109375 C 30.515625 31.925781 30.914062 31.722656 31.308594 31.507812 L 31.589844 31.347656 C 32.9375 30.671875 34.128906 29.902344 35.222656 28.921875 C 41.957031 22.902344 39.121094 18.144531 39.121094 18.144531 Z M 39.121094 18.144531 "/>
</g>
</svg>
