<?xml version="1.0" encoding="UTF-8"?>
<svg xmlns="http://www.w3.org/2000/svg" xmlns:xlink="http://www.w3.org/1999/xlink" width="50px" height="50px" viewBox="0 0 50 50" version="1.1">
<defs>
<filter id="alpha" filterUnits="objectBoundingBox" x="0%" y="0%" width="100%" height="100%">
  <feColorMatrix type="matrix" in="SourceGraphic" values="0 0 0 0 1 0 0 0 0 1 0 0 0 0 1 0 0 0 1 0"/>
</filter>
<mask id="mask0">
  <g filter="url(#alpha)">
<rect x="0" y="0" width="50" height="50" style="fill:rgb(0%,0%,0%);fill-opacity:0.968627;stroke:none;"/>
  </g>
</mask>
<clipPath id="clip1">
  <rect x="0" y="0" width="50" height="50"/>
</clipPath>
<g id="surface5" clip-path="url(#clip1)">
<path style=" stroke:none;fill-rule:evenodd;fill:rgb(22.745098%,32.941176%,99.215686%);fill-opacity:1;" d="M 18.214844 14.054688 C 20.296875 15.304688 22.410156 16.511719 24.5625 17.671875 C 24.679688 17.757812 24.761719 17.867188 24.804688 18 C 27.144531 16.742188 29.441406 15.429688 31.691406 14.054688 C 32.800781 14.242188 33.777344 14.683594 34.621094 15.371094 C 34.480469 15.519531 34.316406 15.660156 34.132812 15.792969 C 33.496094 16.050781 32.910156 16.378906 32.375 16.78125 C 30.257812 16.023438 28.550781 16.523438 27.246094 18.28125 C 26.980469 18.789062 26.800781 19.320312 26.710938 19.878906 C 25.941406 20.304688 25.175781 20.746094 24.414062 21.195312 C 24.3125 20.957031 24.230469 20.707031 24.171875 20.445312 C 23.84375 20.253906 23.519531 20.066406 23.195312 19.878906 C 22.761719 17.789062 21.445312 16.628906 19.238281 16.402344 C 18.609375 16.421875 18.007812 16.550781 17.433594 16.78125 C 17.703125 16.378906 17.785156 15.9375 17.675781 15.464844 C 17.640625 15.410156 17.589844 15.378906 17.53125 15.371094 C 17.457031 15.125 17.292969 14.953125 17.042969 14.851562 C 16.75 14.804688 16.457031 14.789062 16.164062 14.804688 C 16.796875 14.445312 17.480469 14.195312 18.214844 14.054688 Z M 18.214844 14.054688 "/>
</g>
<mask id="mask1">
  <g filter="url(#alpha)">
<rect x="0" y="0" width="50" height="50" style="fill:rgb(0%,0%,0%);fill-opacity:0.984314;stroke:none;"/>
  </g>
</mask>
<clipPath id="clip2">
  <rect x="0" y="0" width="50" height="50"/>
</clipPath>
<g id="surface8" clip-path="url(#clip2)">
<path style=" stroke:none;fill-rule:evenodd;fill:rgb(21.568627%,33.72549%,100%);fill-opacity:1;" d="M 18.210938 14.054688 C 18.699219 14.054688 19.1875 14.054688 19.675781 14.054688 C 21.273438 15.011719 22.902344 15.917969 24.558594 16.78125 C 24.695312 16.949219 24.808594 17.136719 24.902344 17.34375 C 25.0625 17.21875 25.175781 17.058594 25.242188 16.875 C 26.945312 16.007812 28.605469 15.066406 30.222656 14.054688 C 30.710938 14.054688 31.199219 14.054688 31.6875 14.054688 C 29.4375 15.429688 27.140625 16.742188 24.800781 18 C 24.757812 17.867188 24.675781 17.757812 24.558594 17.671875 C 22.40625 16.511719 20.292969 15.304688 18.210938 14.054688 Z M 18.210938 14.054688 "/>
</g>
<mask id="mask2">
  <g filter="url(#alpha)">
<rect x="0" y="0" width="50" height="50" style="fill:rgb(0%,0%,0%);fill-opacity:0.901961;stroke:none;"/>
  </g>
</mask>
<clipPath id="clip3">
  <rect x="0" y="0" width="50" height="50"/>
</clipPath>
<g id="surface11" clip-path="url(#clip3)">
<path style=" stroke:none;fill-rule:evenodd;fill:rgb(21.176471%,34.509804%,100%);fill-opacity:1;" d="M 19.679688 14.054688 C 21.753906 14.238281 23.382812 15.144531 24.5625 16.78125 C 22.90625 15.917969 21.277344 15.011719 19.679688 14.054688 Z M 19.679688 14.054688 "/>
</g>
<mask id="mask3">
  <g filter="url(#alpha)">
<rect x="0" y="0" width="50" height="50" style="fill:rgb(0%,0%,0%);fill-opacity:0.890196;stroke:none;"/>
  </g>
</mask>
<clipPath id="clip4">
  <rect x="0" y="0" width="50" height="50"/>
</clipPath>
<g id="surface14" clip-path="url(#clip4)">
<path style=" stroke:none;fill-rule:evenodd;fill:rgb(21.176471%,34.509804%,100%);fill-opacity:1;" d="M 30.222656 14.054688 C 28.605469 15.066406 26.945312 16.007812 25.242188 16.875 C 26.433594 15.1875 28.09375 14.246094 30.222656 14.054688 Z M 30.222656 14.054688 "/>
</g>
<mask id="mask4">
  <g filter="url(#alpha)">
<rect x="0" y="0" width="50" height="50" style="fill:rgb(0%,0%,0%);fill-opacity:0.956863;stroke:none;"/>
  </g>
</mask>
<clipPath id="clip5">
  <rect x="0" y="0" width="50" height="50"/>
</clipPath>
<g id="surface17" clip-path="url(#clip5)">
<path style=" stroke:none;fill-rule:evenodd;fill:rgb(24.313725%,31.372549%,99.215686%);fill-opacity:1;" d="M 16.160156 14.800781 C 16.453125 14.789062 16.746094 14.804688 17.039062 14.847656 C 17.289062 14.949219 17.453125 15.121094 17.527344 15.367188 C 16.601562 15.546875 15.65625 15.703125 14.695312 15.835938 C 15.097656 15.378906 15.585938 15.03125 16.160156 14.800781 Z M 16.160156 14.800781 "/>
</g>
<mask id="mask5">
  <g filter="url(#alpha)">
<rect x="0" y="0" width="50" height="50" style="fill:rgb(0%,0%,0%);fill-opacity:0.972549;stroke:none;"/>
  </g>
</mask>
<clipPath id="clip6">
  <rect x="0" y="0" width="50" height="50"/>
</clipPath>
<g id="surface20" clip-path="url(#clip6)">
<path style=" stroke:none;fill-rule:evenodd;fill:rgb(25.490196%,30.588235%,98.823529%);fill-opacity:1;" d="M 17.53125 15.367188 C 17.589844 15.378906 17.640625 15.410156 17.675781 15.460938 C 17.785156 15.9375 17.703125 16.375 17.433594 16.777344 C 16.433594 17.300781 15.75 18.082031 15.382812 19.125 C 14.539062 19.207031 13.691406 19.273438 12.84375 19.3125 C 12.898438 19.03125 12.964844 18.75 13.039062 18.46875 C 12.996094 18.394531 12.929688 18.363281 12.84375 18.375 C 13.25 17.71875 13.65625 17.0625 14.066406 16.402344 C 14.261719 16.195312 14.476562 16.003906 14.699219 15.835938 C 15.660156 15.707031 16.605469 15.546875 17.53125 15.367188 Z M 17.53125 15.367188 "/>
</g>
<mask id="mask6">
  <g filter="url(#alpha)">
<rect x="0" y="0" width="50" height="50" style="fill:rgb(0%,0%,0%);fill-opacity:0.988235;stroke:none;"/>
  </g>
</mask>
<clipPath id="clip7">
  <rect x="0" y="0" width="50" height="50"/>
</clipPath>
<g id="surface23" clip-path="url(#clip7)">
<path style=" stroke:none;fill-rule:evenodd;fill:rgb(24.313725%,31.372549%,99.215686%);fill-opacity:1;" d="M 34.621094 15.367188 C 34.90625 15.484375 35.136719 15.671875 35.304688 15.929688 C 34.605469 16.324219 33.90625 16.730469 33.207031 17.152344 C 33.140625 17.082031 33.058594 17.050781 32.960938 17.058594 C 32.765625 16.964844 32.570312 16.871094 32.375 16.777344 C 32.910156 16.378906 33.496094 16.050781 34.132812 15.789062 C 34.316406 15.65625 34.480469 15.515625 34.621094 15.367188 Z M 34.621094 15.367188 "/>
</g>
<mask id="mask7">
  <g filter="url(#alpha)">
<rect x="0" y="0" width="50" height="50" style="fill:rgb(0%,0%,0%);fill-opacity:0.968627;stroke:none;"/>
  </g>
</mask>
<clipPath id="clip8">
  <rect x="0" y="0" width="50" height="50"/>
</clipPath>
<g id="surface26" clip-path="url(#clip8)">
<path style=" stroke:none;fill-rule:evenodd;fill:rgb(25.490196%,30.588235%,98.823529%);fill-opacity:1;" d="M 35.304688 15.929688 C 36.003906 16.648438 36.558594 17.460938 36.964844 18.371094 C 36.300781 18.769531 35.617188 19.148438 34.914062 19.5 C 34.785156 19.253906 34.625 19.035156 34.425781 18.84375 C 34.101562 18.128906 33.613281 17.53125 32.960938 17.058594 C 33.058594 17.050781 33.140625 17.082031 33.207031 17.152344 C 33.90625 16.726562 34.605469 16.320312 35.304688 15.929688 Z M 35.304688 15.929688 "/>
</g>
<mask id="mask8">
  <g filter="url(#alpha)">
<rect x="0" y="0" width="50" height="50" style="fill:rgb(0%,0%,0%);fill-opacity:0.980392;stroke:none;"/>
  </g>
</mask>
<clipPath id="clip9">
  <rect x="0" y="0" width="50" height="50"/>
</clipPath>
<g id="surface29" clip-path="url(#clip9)">
<path style=" stroke:none;fill-rule:evenodd;fill:rgb(27.058824%,29.411765%,98.823529%);fill-opacity:1;" d="M 36.964844 18.375 C 37.167969 18.546875 37.300781 18.765625 37.355469 19.03125 C 36.78125 19.492188 36.144531 19.867188 35.453125 20.160156 C 35.222656 19.984375 35.042969 19.765625 34.914062 19.503906 C 35.617188 19.148438 36.300781 18.773438 36.964844 18.375 Z M 36.964844 18.375 "/>
</g>
<mask id="mask9">
  <g filter="url(#alpha)">
<rect x="0" y="0" width="50" height="50" style="fill:rgb(0%,0%,0%);fill-opacity:0.964706;stroke:none;"/>
  </g>
</mask>
<clipPath id="clip10">
  <rect x="0" y="0" width="50" height="50"/>
</clipPath>
<g id="surface32" clip-path="url(#clip10)">
<path style=" stroke:none;fill-rule:evenodd;fill:rgb(28.235294%,28.235294%,98.431373%);fill-opacity:1;" d="M 34.425781 18.84375 C 34.625 19.035156 34.785156 19.253906 34.914062 19.5 C 35.042969 19.765625 35.222656 19.984375 35.453125 20.160156 C 36.144531 19.867188 36.78125 19.488281 37.355469 19.03125 C 37.820312 19.644531 38.210938 20.300781 38.527344 21.003906 C 37.867188 21.339844 37.214844 21.699219 36.574219 22.085938 C 35.8125 22.058594 35.0625 21.949219 34.328125 21.757812 C 34.675781 20.796875 34.710938 19.828125 34.425781 18.84375 Z M 34.425781 18.84375 "/>
</g>
<mask id="mask10">
  <g filter="url(#alpha)">
<rect x="0" y="0" width="50" height="50" style="fill:rgb(0%,0%,0%);fill-opacity:0.972549;stroke:none;"/>
  </g>
</mask>
<clipPath id="clip11">
  <rect x="0" y="0" width="50" height="50"/>
</clipPath>
<g id="surface35" clip-path="url(#clip11)">
<path style=" stroke:none;fill-rule:evenodd;fill:rgb(28.235294%,28.235294%,98.431373%);fill-opacity:1;" d="M 12.839844 18.378906 C 12.925781 18.367188 12.992188 18.398438 13.035156 18.472656 C 12.960938 18.75 12.894531 19.035156 12.839844 19.316406 C 12.8125 19.675781 12.8125 20.019531 12.839844 20.351562 C 13.613281 20.210938 14.394531 20.117188 15.183594 20.070312 C 15.210938 20.9375 15.441406 21.75 15.867188 22.511719 C 15.019531 22.582031 14.171875 22.675781 13.328125 22.792969 C 13.246094 22.761719 13.214844 22.699219 13.230469 22.605469 C 13.148438 22.316406 13.015625 22.050781 12.839844 21.808594 C 12.332031 21.519531 11.84375 21.222656 11.375 20.914062 C 11.835938 20.054688 12.324219 19.210938 12.839844 18.378906 Z M 12.839844 18.378906 "/>
</g>
<mask id="mask11">
  <g filter="url(#alpha)">
<rect x="0" y="0" width="50" height="50" style="fill:rgb(0%,0%,0%);fill-opacity:0.976471;stroke:none;"/>
  </g>
</mask>
<clipPath id="clip12">
  <rect x="0" y="0" width="50" height="50"/>
</clipPath>
<g id="surface38" clip-path="url(#clip12)">
<path style=" stroke:none;fill-rule:evenodd;fill:rgb(27.058824%,29.411765%,98.823529%);fill-opacity:1;" d="M 15.378906 19.125 C 15.300781 19.433594 15.238281 19.75 15.183594 20.066406 C 14.394531 20.113281 13.613281 20.207031 12.839844 20.347656 C 12.8125 20.015625 12.8125 19.667969 12.839844 19.3125 C 13.6875 19.269531 14.535156 19.207031 15.378906 19.125 Z M 15.378906 19.125 "/>
</g>
<mask id="mask12">
  <g filter="url(#alpha)">
<rect x="0" y="0" width="50" height="50" style="fill:rgb(0%,0%,0%);fill-opacity:0.972549;stroke:none;"/>
  </g>
</mask>
<clipPath id="clip13">
  <rect x="0" y="0" width="50" height="50"/>
</clipPath>
<g id="surface41" clip-path="url(#clip13)">
<path style=" stroke:none;fill-rule:evenodd;fill:rgb(24.313725%,31.372549%,99.215686%);fill-opacity:1;" d="M 23.191406 19.875 C 23.515625 20.0625 23.839844 20.25 24.167969 20.4375 C 24.226562 20.703125 24.308594 20.953125 24.410156 21.191406 C 25.171875 20.738281 25.9375 20.300781 26.707031 19.875 C 26.707031 20.15625 26.707031 20.4375 26.707031 20.71875 C 26 21.113281 25.300781 21.523438 24.605469 21.941406 C 24.515625 21.726562 24.402344 21.523438 24.265625 21.332031 C 23.886719 21.101562 23.496094 20.898438 23.09375 20.71875 C 23.183594 20.449219 23.214844 20.167969 23.191406 19.875 Z M 23.191406 19.875 "/>
</g>
<mask id="mask13">
  <g filter="url(#alpha)">
<rect x="0" y="0" width="50" height="50" style="fill:rgb(0%,0%,0%);fill-opacity:0.964706;stroke:none;"/>
  </g>
</mask>
<clipPath id="clip14">
  <rect x="0" y="0" width="50" height="50"/>
</clipPath>
<g id="surface44" clip-path="url(#clip14)">
<path style=" stroke:none;fill-rule:evenodd;fill:rgb(25.490196%,30.196078%,98.823529%);fill-opacity:1;" d="M 23.09375 20.726562 C 23.496094 20.902344 23.886719 21.109375 24.265625 21.335938 C 24.402344 21.53125 24.515625 21.734375 24.605469 21.949219 C 25.300781 21.527344 26 21.121094 26.707031 20.726562 C 26.789062 21.109375 26.90625 21.484375 27.046875 21.855469 C 27.351562 22.34375 27.628906 22.847656 27.878906 23.359375 C 27.222656 23.796875 26.539062 24.207031 25.828125 24.578125 C 25.539062 24.066406 25.230469 23.566406 24.902344 23.074219 C 24.648438 23.589844 24.371094 24.09375 24.070312 24.578125 C 23.378906 24.164062 22.664062 23.789062 21.921875 23.453125 C 22.207031 22.878906 22.515625 22.316406 22.847656 21.761719 C 23.003906 21.429688 23.082031 21.085938 23.09375 20.726562 Z M 23.09375 20.726562 "/>
</g>
<mask id="mask14">
  <g filter="url(#alpha)">
<rect x="0" y="0" width="50" height="50" style="fill:rgb(0%,0%,0%);fill-opacity:0.968627;stroke:none;"/>
  </g>
</mask>
<clipPath id="clip15">
  <rect x="0" y="0" width="50" height="50"/>
</clipPath>
<g id="surface47" clip-path="url(#clip15)">
<path style=" stroke:none;fill-rule:evenodd;fill:rgb(29.411765%,27.058824%,98.431373%);fill-opacity:1;" d="M 11.375 20.914062 C 11.84375 21.222656 12.332031 21.519531 12.839844 21.808594 C 13.015625 22.050781 13.148438 22.316406 13.230469 22.605469 C 13.101562 22.761719 12.96875 22.917969 12.839844 23.074219 C 12.128906 22.703125 11.445312 22.292969 10.789062 21.855469 C 10.949219 21.515625 11.144531 21.199219 11.375 20.914062 Z M 11.375 20.914062 "/>
</g>
<mask id="mask15">
  <g filter="url(#alpha)">
<rect x="0" y="0" width="50" height="50" style="fill:rgb(0%,0%,0%);fill-opacity:0.964706;stroke:none;"/>
  </g>
</mask>
<clipPath id="clip16">
  <rect x="0" y="0" width="50" height="50"/>
</clipPath>
<g id="surface50" clip-path="url(#clip16)">
<path style=" stroke:none;fill-rule:evenodd;fill:rgb(29.411765%,27.058824%,98.431373%);fill-opacity:1;" d="M 38.523438 21.007812 C 38.769531 21.289062 38.964844 21.601562 39.109375 21.949219 C 38.398438 22.320312 37.714844 22.726562 37.058594 23.167969 C 36.921875 23.003906 36.808594 22.8125 36.71875 22.605469 C 36.535156 22.894531 36.355469 23.175781 36.179688 23.449219 C 35.332031 23.335938 34.484375 23.207031 33.640625 23.074219 C 33.867188 22.640625 34.09375 22.199219 34.324219 21.757812 C 35.058594 21.953125 35.808594 22.0625 36.570312 22.089844 C 37.210938 21.703125 37.863281 21.34375 38.523438 21.007812 Z M 38.523438 21.007812 "/>
</g>
<mask id="mask16">
  <g filter="url(#alpha)">
<rect x="0" y="0" width="50" height="50" style="fill:rgb(0%,0%,0%);fill-opacity:0.956863;stroke:none;"/>
  </g>
</mask>
<clipPath id="clip17">
  <rect x="0" y="0" width="50" height="50"/>
</clipPath>
<g id="surface53" clip-path="url(#clip17)">
<path style=" stroke:none;fill-rule:evenodd;fill:rgb(30.588235%,25.882353%,98.039216%);fill-opacity:1;" d="M 10.789062 21.851562 C 11.445312 22.292969 12.128906 22.699219 12.839844 23.074219 C 12.433594 23.855469 11.976562 24.609375 11.472656 25.328125 C 10.808594 24.898438 10.125 24.492188 9.421875 24.105469 C 9.878906 23.351562 10.335938 22.601562 10.789062 21.851562 Z M 10.789062 21.851562 "/>
</g>
<mask id="mask17">
  <g filter="url(#alpha)">
<rect x="0" y="0" width="50" height="50" style="fill:rgb(0%,0%,0%);fill-opacity:0.960784;stroke:none;"/>
  </g>
</mask>
<clipPath id="clip18">
  <rect x="0" y="0" width="50" height="50"/>
</clipPath>
<g id="surface56" clip-path="url(#clip18)">
<path style=" stroke:none;fill-rule:evenodd;fill:rgb(30.588235%,25.882353%,98.039216%);fill-opacity:1;" d="M 39.113281 21.945312 C 39.609375 22.621094 40.035156 23.339844 40.382812 24.105469 C 39.714844 24.535156 39.03125 24.945312 38.332031 25.328125 C 37.882812 24.621094 37.460938 23.902344 37.0625 23.167969 C 37.71875 22.726562 38.402344 22.320312 39.113281 21.945312 Z M 39.113281 21.945312 "/>
</g>
<mask id="mask18">
  <g filter="url(#alpha)">
<rect x="0" y="0" width="50" height="50" style="fill:rgb(0%,0%,0%);fill-opacity:0.960784;stroke:none;"/>
  </g>
</mask>
<clipPath id="clip19">
  <rect x="0" y="0" width="50" height="50"/>
</clipPath>
<g id="surface59" clip-path="url(#clip19)">
<path style=" stroke:none;fill-rule:evenodd;fill:rgb(29.411765%,27.058824%,98.431373%);fill-opacity:1;" d="M 15.867188 22.507812 C 16.144531 22.851562 16.371094 23.226562 16.550781 23.636719 C 15.703125 23.75 14.855469 23.878906 14.011719 24.011719 C 13.746094 23.628906 13.515625 23.222656 13.328125 22.789062 C 14.171875 22.671875 15.019531 22.578125 15.867188 22.507812 Z M 15.867188 22.507812 "/>
</g>
<mask id="mask19">
  <g filter="url(#alpha)">
<rect x="0" y="0" width="50" height="50" style="fill:rgb(0%,0%,0%);fill-opacity:0.956863;stroke:none;"/>
  </g>
</mask>
<clipPath id="clip20">
  <rect x="0" y="0" width="50" height="50"/>
</clipPath>
<g id="surface62" clip-path="url(#clip20)">
<path style=" stroke:none;fill-rule:evenodd;fill:rgb(30.196078%,26.27451%,97.647059%);fill-opacity:1;" d="M 33.640625 23.070312 C 34.484375 23.203125 35.332031 23.328125 36.179688 23.445312 C 35.773438 24.230469 35.316406 24.984375 34.8125 25.703125 C 34.695312 25.507812 34.53125 25.351562 34.324219 25.230469 C 34.238281 25.152344 34.207031 25.058594 34.226562 24.949219 C 34.0625 24.949219 33.902344 24.949219 33.738281 24.949219 C 33.738281 24.855469 33.738281 24.761719 33.738281 24.667969 C 33.542969 24.667969 33.347656 24.667969 33.152344 24.667969 C 33.085938 25.042969 33.023438 25.042969 32.957031 24.667969 C 32.859375 24.667969 32.761719 24.667969 32.664062 24.667969 C 32.914062 24.089844 33.242188 23.554688 33.640625 23.070312 Z M 33.640625 23.070312 "/>
</g>
<mask id="mask20">
  <g filter="url(#alpha)">
<rect x="0" y="0" width="50" height="50" style="fill:rgb(0%,0%,0%);fill-opacity:0.952941;stroke:none;"/>
  </g>
</mask>
<clipPath id="clip21">
  <rect x="0" y="0" width="50" height="50"/>
</clipPath>
<g id="surface65" clip-path="url(#clip21)">
<path style=" stroke:none;fill-rule:evenodd;fill:rgb(27.058824%,29.411765%,98.823529%);fill-opacity:1;" d="M 27.878906 23.351562 C 28.089844 23.566406 28.253906 23.816406 28.367188 24.101562 C 27.65625 24.472656 26.972656 24.878906 26.316406 25.324219 C 26.105469 25.109375 25.945312 24.859375 25.828125 24.574219 C 26.539062 24.199219 27.222656 23.792969 27.878906 23.351562 Z M 27.878906 23.351562 "/>
</g>
<mask id="mask21">
  <g filter="url(#alpha)">
<rect x="0" y="0" width="50" height="50" style="fill:rgb(0%,0%,0%);fill-opacity:0.960784;stroke:none;"/>
  </g>
</mask>
<clipPath id="clip22">
  <rect x="0" y="0" width="50" height="50"/>
</clipPath>
<g id="surface68" clip-path="url(#clip22)">
<path style=" stroke:none;fill-rule:evenodd;fill:rgb(27.058824%,29.411765%,98.431373%);fill-opacity:1;" d="M 21.921875 23.445312 C 22.664062 23.785156 23.378906 24.160156 24.070312 24.574219 C 23.929688 24.8125 23.769531 25.03125 23.582031 25.230469 C 22.898438 24.855469 22.214844 24.476562 21.53125 24.101562 C 21.585938 23.835938 21.71875 23.617188 21.921875 23.445312 Z M 21.921875 23.445312 "/>
</g>
<mask id="mask22">
  <g filter="url(#alpha)">
<rect x="0" y="0" width="50" height="50" style="fill:rgb(0%,0%,0%);fill-opacity:0.960784;stroke:none;"/>
  </g>
</mask>
<clipPath id="clip23">
  <rect x="0" y="0" width="50" height="50"/>
</clipPath>
<g id="surface71" clip-path="url(#clip23)">
<path style=" stroke:none;fill-rule:evenodd;fill:rgb(30.588235%,25.882353%,98.039216%);fill-opacity:1;" d="M 16.554688 23.640625 C 17.144531 24.523438 17.699219 25.433594 18.214844 26.367188 C 17.382812 26.503906 16.535156 26.628906 15.675781 26.742188 C 15.085938 25.859375 14.535156 24.953125 14.015625 24.015625 C 14.859375 23.882812 15.707031 23.757812 16.554688 23.640625 Z M 16.554688 23.640625 "/>
</g>
<mask id="mask23">
  <g filter="url(#alpha)">
<rect x="0" y="0" width="50" height="50" style="fill:rgb(0%,0%,0%);fill-opacity:0.960784;stroke:none;"/>
  </g>
</mask>
<clipPath id="clip24">
  <rect x="0" y="0" width="50" height="50"/>
</clipPath>
<g id="surface74" clip-path="url(#clip24)">
<path style=" stroke:none;fill-rule:evenodd;fill:rgb(32.156863%,24.705882%,97.647059%);fill-opacity:1;" d="M 9.421875 24.109375 C 10.125 24.496094 10.808594 24.902344 11.472656 25.332031 C 11.359375 25.671875 11.199219 25.984375 10.984375 26.269531 C 10.269531 25.863281 9.550781 25.457031 8.835938 25.050781 C 9.03125 24.734375 9.226562 24.421875 9.421875 24.109375 Z M 9.421875 24.109375 "/>
</g>
<mask id="mask24">
  <g filter="url(#alpha)">
<rect x="0" y="0" width="50" height="50" style="fill:rgb(0%,0%,0%);fill-opacity:0.960784;stroke:none;"/>
  </g>
</mask>
<clipPath id="clip25">
  <rect x="0" y="0" width="50" height="50"/>
</clipPath>
<g id="surface77" clip-path="url(#clip25)">
<path style=" stroke:none;fill-rule:evenodd;fill:rgb(27.45098%,28.235294%,98.431373%);fill-opacity:1;" d="M 21.535156 24.109375 C 22.21875 24.484375 22.902344 24.859375 23.585938 25.238281 C 23.472656 25.578125 23.3125 25.890625 23.097656 26.175781 C 22.980469 26.109375 22.847656 26.078125 22.707031 26.082031 C 22.734375 25.914062 22.703125 25.757812 22.609375 25.613281 C 22.550781 25.632812 22.503906 25.664062 22.464844 25.707031 C 22.046875 25.515625 21.609375 25.421875 21.144531 25.425781 C 21.144531 25.332031 21.144531 25.238281 21.144531 25.144531 C 21.046875 25.144531 20.949219 25.144531 20.851562 25.144531 C 21.054688 24.777344 21.285156 24.433594 21.535156 24.109375 Z M 21.535156 24.109375 "/>
</g>
<mask id="mask25">
  <g filter="url(#alpha)">
<rect x="0" y="0" width="50" height="50" style="fill:rgb(0%,0%,0%);fill-opacity:0.960784;stroke:none;"/>
  </g>
</mask>
<clipPath id="clip26">
  <rect x="0" y="0" width="50" height="50"/>
</clipPath>
<g id="surface80" clip-path="url(#clip26)">
<path style=" stroke:none;fill-rule:evenodd;fill:rgb(28.235294%,28.235294%,98.431373%);fill-opacity:1;" d="M 28.371094 24.109375 C 28.761719 24.730469 29.152344 25.359375 29.542969 25.988281 C 28.824219 26.398438 28.109375 26.804688 27.394531 27.210938 C 27.035156 26.582031 26.675781 25.957031 26.320312 25.332031 C 26.976562 24.886719 27.660156 24.480469 28.371094 24.109375 Z M 28.371094 24.109375 "/>
</g>
<mask id="mask26">
  <g filter="url(#alpha)">
<rect x="0" y="0" width="50" height="50" style="fill:rgb(0%,0%,0%);fill-opacity:0.956863;stroke:none;"/>
  </g>
</mask>
<clipPath id="clip27">
  <rect x="0" y="0" width="50" height="50"/>
</clipPath>
<g id="surface83" clip-path="url(#clip27)">
<path style=" stroke:none;fill-rule:evenodd;fill:rgb(32.156863%,24.705882%,97.647059%);fill-opacity:1;" d="M 40.378906 24.109375 C 40.621094 24.390625 40.820312 24.703125 40.964844 25.050781 C 40.308594 25.492188 39.625 25.898438 38.914062 26.269531 C 38.71875 25.960938 38.523438 25.648438 38.328125 25.332031 C 39.027344 24.945312 39.710938 24.539062 40.378906 24.109375 Z M 40.378906 24.109375 "/>
</g>
<mask id="mask27">
  <g filter="url(#alpha)">
<rect x="0" y="0" width="50" height="50" style="fill:rgb(0%,0%,0%);fill-opacity:0.976471;stroke:none;"/>
  </g>
</mask>
<clipPath id="clip28">
  <rect x="0" y="0" width="50" height="50"/>
</clipPath>
<g id="surface86" clip-path="url(#clip28)">
<path style=" stroke:none;fill-rule:evenodd;fill:rgb(30.980392%,25.098039%,97.254902%);fill-opacity:1;" d="M 32.664062 24.671875 C 32.761719 24.671875 32.859375 24.671875 32.957031 24.671875 C 33.023438 25.046875 33.085938 25.046875 33.152344 24.671875 C 33.347656 24.671875 33.542969 24.671875 33.738281 24.671875 C 33.738281 24.765625 33.738281 24.859375 33.738281 24.953125 C 33.902344 24.953125 34.0625 24.953125 34.226562 24.953125 C 34.207031 25.0625 34.238281 25.15625 34.324219 25.234375 C 34.53125 25.355469 34.695312 25.515625 34.8125 25.707031 C 34.6875 26.011719 34.527344 26.292969 34.324219 26.550781 C 34.324219 26.457031 34.324219 26.363281 34.324219 26.269531 C 34.027344 26.269531 33.734375 26.238281 33.445312 26.175781 C 33.445312 26.082031 33.445312 25.988281 33.445312 25.894531 C 32.988281 25.714844 32.535156 25.621094 32.078125 25.613281 C 32.238281 25.273438 32.433594 24.957031 32.664062 24.671875 Z M 32.664062 24.671875 "/>
</g>
<mask id="mask28">
  <g filter="url(#alpha)">
<rect x="0" y="0" width="50" height="50" style="fill:rgb(0%,0%,0%);fill-opacity:0.960784;stroke:none;"/>
  </g>
</mask>
<clipPath id="clip29">
  <rect x="0" y="0" width="50" height="50"/>
</clipPath>
<g id="surface89" clip-path="url(#clip29)">
<path style=" stroke:none;fill-rule:evenodd;fill:rgb(33.333333%,23.529412%,97.254902%);fill-opacity:1;" d="M 8.835938 25.046875 C 9.550781 25.453125 10.269531 25.859375 10.984375 26.269531 C 10.660156 26.800781 10.332031 27.332031 10.007812 27.867188 C 9.269531 27.53125 8.550781 27.15625 7.859375 26.738281 C 8.183594 26.175781 8.511719 25.609375 8.835938 25.046875 Z M 8.835938 25.046875 "/>
</g>
<mask id="mask29">
  <g filter="url(#alpha)">
<rect x="0" y="0" width="50" height="50" style="fill:rgb(0%,0%,0%);fill-opacity:0.960784;stroke:none;"/>
  </g>
</mask>
<clipPath id="clip30">
  <rect x="0" y="0" width="50" height="50"/>
</clipPath>
<g id="surface92" clip-path="url(#clip30)">
<path style=" stroke:none;fill-rule:evenodd;fill:rgb(33.333333%,23.529412%,97.254902%);fill-opacity:1;" d="M 40.964844 25.046875 C 41.320312 25.605469 41.679688 26.171875 42.039062 26.738281 C 41.347656 27.152344 40.632812 27.527344 39.890625 27.867188 C 39.542969 27.351562 39.214844 26.820312 38.914062 26.269531 C 39.625 25.898438 40.308594 25.492188 40.964844 25.046875 Z M 40.964844 25.046875 "/>
</g>
<mask id="mask30">
  <g filter="url(#alpha)">
<rect x="0" y="0" width="50" height="50" style="fill:rgb(0%,0%,0%);fill-opacity:0.980392;stroke:none;"/>
  </g>
</mask>
<clipPath id="clip31">
  <rect x="0" y="0" width="50" height="50"/>
</clipPath>
<g id="surface95" clip-path="url(#clip31)">
<path style=" stroke:none;fill-rule:evenodd;fill:rgb(27.45098%,27.058824%,97.254902%);fill-opacity:1;" d="M 20.851562 25.140625 C 20.949219 25.140625 21.046875 25.140625 21.144531 25.140625 C 21.144531 25.234375 21.144531 25.328125 21.144531 25.421875 C 21.609375 25.421875 22.046875 25.515625 22.464844 25.703125 C 22.503906 25.660156 22.550781 25.628906 22.609375 25.609375 C 22.703125 25.753906 22.734375 25.914062 22.707031 26.082031 C 22.847656 26.074219 22.980469 26.105469 23.097656 26.175781 C 22.933594 26.429688 22.769531 26.679688 22.609375 26.925781 C 22.46875 26.871094 22.304688 26.871094 22.121094 26.925781 C 22.121094 26.832031 22.121094 26.738281 22.121094 26.644531 C 21.957031 26.644531 21.796875 26.644531 21.632812 26.644531 C 21.632812 26.550781 21.632812 26.457031 21.632812 26.363281 C 21.234375 26.191406 20.84375 26.035156 20.460938 25.890625 C 20.546875 25.621094 20.679688 25.371094 20.851562 25.140625 Z M 20.851562 25.140625 "/>
</g>
<mask id="mask31">
  <g filter="url(#alpha)">
<rect x="0" y="0" width="50" height="50" style="fill:rgb(0%,0%,0%);fill-opacity:0.988235;stroke:none;"/>
  </g>
</mask>
<clipPath id="clip32">
  <rect x="0" y="0" width="50" height="50"/>
</clipPath>
<g id="surface98" clip-path="url(#clip32)">
<path style=" stroke:none;fill-rule:evenodd;fill:rgb(31.372549%,23.529412%,96.078431%);fill-opacity:1;" d="M 32.078125 25.609375 C 32.535156 25.617188 32.988281 25.710938 33.445312 25.890625 C 33.445312 25.984375 33.445312 26.078125 33.445312 26.171875 C 33.734375 26.234375 34.027344 26.265625 34.324219 26.265625 C 34.324219 26.359375 34.324219 26.453125 34.324219 26.550781 C 34.226562 26.738281 34.128906 26.925781 34.03125 27.113281 C 33.902344 27.113281 33.769531 27.113281 33.640625 27.113281 C 33.667969 26.894531 33.601562 26.707031 33.445312 26.550781 C 32.886719 26.445312 32.363281 26.257812 31.882812 25.984375 C 31.90625 25.839844 31.96875 25.714844 32.078125 25.609375 Z M 32.078125 25.609375 "/>
</g>
<mask id="mask32">
  <g filter="url(#alpha)">
<rect x="0" y="0" width="50" height="50" style="fill:rgb(0%,0%,0%);fill-opacity:0.960784;stroke:none;"/>
  </g>
</mask>
<clipPath id="clip33">
  <rect x="0" y="0" width="50" height="50"/>
</clipPath>
<g id="surface101" clip-path="url(#clip33)">
<path style=" stroke:none;fill-rule:evenodd;fill:rgb(27.058824%,25.882353%,96.078431%);fill-opacity:1;" d="M 20.460938 25.890625 C 20.84375 26.03125 21.234375 26.1875 21.632812 26.359375 C 21.632812 26.453125 21.632812 26.546875 21.632812 26.640625 C 21.796875 26.640625 21.957031 26.640625 22.121094 26.640625 C 22.121094 26.734375 22.121094 26.832031 22.121094 26.925781 C 22.304688 26.867188 22.46875 26.867188 22.609375 26.925781 C 22.472656 27.222656 22.308594 27.503906 22.121094 27.769531 C 22.082031 27.542969 22.019531 27.324219 21.925781 27.113281 C 21.730469 27.050781 21.535156 26.988281 21.339844 26.925781 C 21.324219 26.582031 21.210938 26.550781 20.996094 26.832031 C 20.730469 26.550781 20.421875 26.457031 20.070312 26.546875 C 20.125 26.28125 20.257812 26.0625 20.460938 25.890625 Z M 20.460938 25.890625 "/>
</g>
<mask id="mask33">
  <g filter="url(#alpha)">
<rect x="0" y="0" width="50" height="50" style="fill:rgb(0%,0%,0%);fill-opacity:0.960784;stroke:none;"/>
  </g>
</mask>
<clipPath id="clip34">
  <rect x="0" y="0" width="50" height="50"/>
</clipPath>
<g id="surface104" clip-path="url(#clip34)">
<path style=" stroke:none;fill-rule:evenodd;fill:rgb(29.411765%,27.058824%,98.431373%);fill-opacity:1;" d="M 29.539062 25.984375 C 29.703125 26.300781 29.867188 26.613281 30.027344 26.925781 C 29.390625 27.371094 28.707031 27.746094 27.976562 28.050781 C 27.757812 27.789062 27.5625 27.507812 27.390625 27.207031 C 28.105469 26.800781 28.820312 26.394531 29.539062 25.984375 Z M 29.539062 25.984375 "/>
</g>
<mask id="mask34">
  <g filter="url(#alpha)">
<rect x="0" y="0" width="50" height="50" style="fill:rgb(0%,0%,0%);fill-opacity:0.956863;stroke:none;"/>
  </g>
</mask>
<clipPath id="clip35">
  <rect x="0" y="0" width="50" height="50"/>
</clipPath>
<g id="surface107" clip-path="url(#clip35)">
<path style=" stroke:none;fill-rule:evenodd;fill:rgb(32.156863%,24.705882%,97.647059%);fill-opacity:1;" d="M 18.210938 26.359375 C 18.496094 26.746094 18.753906 27.15625 18.992188 27.582031 C 18.113281 27.683594 17.234375 27.777344 16.355469 27.863281 C 16.078125 27.519531 15.851562 27.144531 15.671875 26.734375 C 16.53125 26.621094 17.378906 26.496094 18.210938 26.359375 Z M 18.210938 26.359375 "/>
</g>
<mask id="mask35">
  <g filter="url(#alpha)">
<rect x="0" y="0" width="50" height="50" style="fill:rgb(0%,0%,0%);fill-opacity:0.980392;stroke:none;"/>
  </g>
</mask>
<clipPath id="clip36">
  <rect x="0" y="0" width="50" height="50"/>
</clipPath>
<g id="surface110" clip-path="url(#clip36)">
<path style=" stroke:none;fill-rule:evenodd;fill:rgb(31.372549%,21.960784%,94.117647%);fill-opacity:1;" d="M 31.882812 25.984375 C 32.363281 26.257812 32.886719 26.445312 33.445312 26.546875 C 33.601562 26.707031 33.667969 26.894531 33.640625 27.113281 C 33.769531 27.113281 33.902344 27.113281 34.03125 27.113281 C 33.859375 27.414062 33.664062 27.695312 33.445312 27.957031 C 33.464844 27.847656 33.433594 27.753906 33.347656 27.675781 C 33.171875 27.441406 32.945312 27.285156 32.664062 27.207031 C 32.664062 27.113281 32.664062 27.019531 32.664062 26.925781 C 32.261719 26.792969 31.871094 26.699219 31.492188 26.640625 C 31.546875 26.375 31.679688 26.15625 31.882812 25.984375 Z M 31.882812 25.984375 "/>
</g>
<mask id="mask36">
  <g filter="url(#alpha)">
<rect x="0" y="0" width="50" height="50" style="fill:rgb(0%,0%,0%);fill-opacity:0.964706;stroke:none;"/>
  </g>
</mask>
<clipPath id="clip37">
  <rect x="0" y="0" width="50" height="50"/>
</clipPath>
<g id="surface113" clip-path="url(#clip37)">
<path style=" stroke:none;fill-rule:evenodd;fill:rgb(30.980392%,20%,91.764706%);fill-opacity:1;" d="M 31.496094 26.640625 C 31.875 26.695312 32.265625 26.789062 32.667969 26.921875 C 32.667969 27.015625 32.667969 27.109375 32.667969 27.203125 C 32.949219 27.285156 33.175781 27.441406 33.351562 27.675781 C 33.4375 27.75 33.46875 27.84375 33.449219 27.957031 C 33.394531 28.222656 33.261719 28.441406 33.058594 28.613281 C 32.964844 28.414062 32.929688 28.195312 32.960938 27.957031 C 32.820312 27.964844 32.691406 27.933594 32.570312 27.863281 C 32.472656 27.691406 32.34375 27.550781 32.179688 27.4375 C 31.789062 27.390625 31.398438 27.375 31.007812 27.390625 C 31.121094 27.105469 31.285156 26.855469 31.496094 26.640625 Z M 31.496094 26.640625 "/>
</g>
<mask id="mask37">
  <g filter="url(#alpha)">
<rect x="0" y="0" width="50" height="50" style="fill:rgb(0%,0%,0%);fill-opacity:0.952941;stroke:none;"/>
  </g>
</mask>
<clipPath id="clip38">
  <rect x="0" y="0" width="50" height="50"/>
</clipPath>
<g id="surface116" clip-path="url(#clip38)">
<path style=" stroke:none;fill-rule:evenodd;fill:rgb(34.509804%,22.352941%,97.254902%);fill-opacity:1;" d="M 7.859375 26.734375 C 8.550781 27.152344 9.269531 27.527344 10.007812 27.863281 C 9.765625 28.339844 9.605469 28.839844 9.519531 29.367188 C 8.785156 28.933594 8.035156 28.527344 7.273438 28.144531 C 7.390625 27.640625 7.585938 27.171875 7.859375 26.734375 Z M 7.859375 26.734375 "/>
</g>
<mask id="mask38">
  <g filter="url(#alpha)">
<rect x="0" y="0" width="50" height="50" style="fill:rgb(0%,0%,0%);fill-opacity:0.956863;stroke:none;"/>
  </g>
</mask>
<clipPath id="clip39">
  <rect x="0" y="0" width="50" height="50"/>
</clipPath>
<g id="surface119" clip-path="url(#clip39)">
<path style=" stroke:none;fill-rule:evenodd;fill:rgb(25.882353%,23.921569%,94.117647%);fill-opacity:1;" d="M 22.121094 27.769531 C 22.046875 27.945312 21.949219 28.105469 21.828125 28.242188 C 21.308594 27.539062 20.59375 27.164062 19.679688 27.113281 C 19.773438 26.898438 19.90625 26.710938 20.070312 26.550781 C 20.421875 26.457031 20.730469 26.550781 20.996094 26.832031 C 21.210938 26.554688 21.324219 26.585938 21.339844 26.925781 C 21.535156 26.988281 21.730469 27.050781 21.925781 27.113281 C 22.019531 27.324219 22.082031 27.542969 22.121094 27.769531 Z M 22.121094 27.769531 "/>
</g>
<mask id="mask39">
  <g filter="url(#alpha)">
<rect x="0" y="0" width="50" height="50" style="fill:rgb(0%,0%,0%);fill-opacity:0.94902;stroke:none;"/>
  </g>
</mask>
<clipPath id="clip40">
  <rect x="0" y="0" width="50" height="50"/>
</clipPath>
<g id="surface122" clip-path="url(#clip40)">
<path style=" stroke:none;fill-rule:evenodd;fill:rgb(34.509804%,22.352941%,97.254902%);fill-opacity:1;" d="M 42.039062 26.734375 C 42.3125 27.171875 42.507812 27.644531 42.625 28.144531 C 41.863281 28.527344 41.113281 28.933594 40.378906 29.367188 C 40.257812 28.863281 40.097656 28.359375 39.890625 27.863281 C 40.632812 27.523438 41.347656 27.148438 42.039062 26.734375 Z M 42.039062 26.734375 "/>
</g>
<mask id="mask40">
  <g filter="url(#alpha)">
<rect x="0" y="0" width="50" height="50" style="fill:rgb(0%,0%,0%);fill-opacity:0.972549;stroke:none;"/>
  </g>
</mask>
<clipPath id="clip41">
  <rect x="0" y="0" width="50" height="50"/>
</clipPath>
<g id="surface125" clip-path="url(#clip41)">
<path style=" stroke:none;fill-rule:evenodd;fill:rgb(30.588235%,25.882353%,98.039216%);fill-opacity:1;" d="M 30.027344 26.921875 C 30.253906 27.234375 30.484375 27.546875 30.710938 27.863281 C 30.710938 27.894531 30.710938 27.925781 30.710938 27.957031 C 30.726562 28.109375 30.792969 28.234375 30.90625 28.332031 C 31.042969 28.628906 31.207031 28.910156 31.394531 29.175781 C 30.710938 29.550781 30.027344 29.925781 29.34375 30.304688 C 29.3125 30.304688 29.277344 30.304688 29.246094 30.304688 C 28.773438 29.582031 28.347656 28.828125 27.976562 28.050781 C 28.707031 27.746094 29.390625 27.367188 30.027344 26.921875 Z M 30.027344 26.921875 "/>
</g>
<mask id="mask41">
  <g filter="url(#alpha)">
<rect x="0" y="0" width="50" height="50" style="fill:rgb(0%,0%,0%);fill-opacity:0.984314;stroke:none;"/>
  </g>
</mask>
<clipPath id="clip42">
  <rect x="0" y="0" width="50" height="50"/>
</clipPath>
<g id="surface128" clip-path="url(#clip42)">
<path style=" stroke:none;fill-rule:evenodd;fill:rgb(24.705882%,22.352941%,91.764706%);fill-opacity:1;" d="M 19.679688 27.117188 C 20.59375 27.167969 21.308594 27.542969 21.828125 28.246094 C 21.714844 28.53125 21.550781 28.78125 21.339844 28.996094 C 21.488281 28.824219 21.457031 28.699219 21.242188 28.621094 C 21.148438 28.476562 21.117188 28.320312 21.144531 28.152344 C 21.046875 28.152344 20.949219 28.152344 20.851562 28.152344 C 20.851562 28.058594 20.851562 27.960938 20.851562 27.867188 C 20.398438 27.707031 19.941406 27.582031 19.484375 27.492188 C 19.550781 27.367188 19.613281 27.242188 19.679688 27.117188 Z M 19.679688 27.117188 "/>
</g>
<mask id="mask42">
  <g filter="url(#alpha)">
<rect x="0" y="0" width="50" height="50" style="fill:rgb(0%,0%,0%);fill-opacity:0.980392;stroke:none;"/>
  </g>
</mask>
<clipPath id="clip43">
  <rect x="0" y="0" width="50" height="50"/>
</clipPath>
<g id="surface131" clip-path="url(#clip43)">
<path style=" stroke:none;fill-rule:evenodd;fill:rgb(30.196078%,17.647059%,89.411765%);fill-opacity:1;" d="M 31.003906 27.398438 C 31.394531 27.382812 31.785156 27.398438 32.175781 27.445312 C 32.339844 27.554688 32.46875 27.695312 32.566406 27.867188 C 32.6875 27.9375 32.816406 27.96875 32.957031 27.960938 C 32.925781 28.199219 32.960938 28.421875 33.054688 28.617188 C 33 28.882812 32.867188 29.101562 32.664062 29.277344 C 32.597656 28.828125 32.402344 28.453125 32.078125 28.148438 C 31.992188 28.070312 31.960938 27.976562 31.980469 27.867188 C 31.546875 27.839844 31.125 27.871094 30.710938 27.960938 C 30.710938 27.929688 30.710938 27.898438 30.710938 27.867188 C 30.785156 27.695312 30.882812 27.539062 31.003906 27.398438 Z M 31.003906 27.398438 "/>
</g>
<mask id="mask43">
  <g filter="url(#alpha)">
<rect x="0" y="0" width="50" height="50" style="fill:rgb(0%,0%,0%);fill-opacity:0.980392;stroke:none;"/>
  </g>
</mask>
<clipPath id="clip44">
  <rect x="0" y="0" width="50" height="50"/>
</clipPath>
<g id="surface134" clip-path="url(#clip44)">
<path style=" stroke:none;fill-rule:evenodd;fill:rgb(33.333333%,23.529412%,97.254902%);fill-opacity:1;" d="M 18.996094 27.585938 C 19.039062 27.699219 19.101562 27.792969 19.191406 27.867188 C 19.167969 27.988281 19.199219 28.082031 19.289062 28.148438 C 19.582031 28.652344 19.875 29.152344 20.167969 29.652344 C 19.292969 29.777344 18.414062 29.871094 17.53125 29.933594 C 17.097656 29.269531 16.707031 28.578125 16.359375 27.867188 C 17.238281 27.785156 18.117188 27.691406 18.996094 27.585938 Z M 18.996094 27.585938 "/>
</g>
<mask id="mask44">
  <g filter="url(#alpha)">
<rect x="0" y="0" width="50" height="50" style="fill:rgb(0%,0%,0%);fill-opacity:0.984314;stroke:none;"/>
  </g>
</mask>
<clipPath id="clip45">
  <rect x="0" y="0" width="50" height="50"/>
</clipPath>
<g id="surface137" clip-path="url(#clip45)">
<path style=" stroke:none;fill-rule:evenodd;fill:rgb(23.137255%,20.392157%,89.411765%);fill-opacity:1;" d="M 19.484375 27.492188 C 19.941406 27.582031 20.398438 27.707031 20.851562 27.867188 C 20.851562 27.960938 20.851562 28.054688 20.851562 28.148438 C 20.949219 28.148438 21.046875 28.148438 21.144531 28.148438 C 21.117188 28.316406 21.148438 28.472656 21.242188 28.621094 C 21.457031 28.695312 21.488281 28.824219 21.339844 28.996094 C 21.292969 29.214844 21.195312 29.402344 21.046875 29.558594 C 21.0625 29.398438 21.046875 29.242188 20.996094 29.089844 C 20.964844 29.183594 20.933594 29.277344 20.898438 29.371094 C 20.851562 29.121094 20.835938 28.871094 20.851562 28.621094 C 20.382812 28.351562 19.878906 28.164062 19.335938 28.054688 C 19.296875 28.078125 19.28125 28.109375 19.289062 28.148438 C 19.199219 28.082031 19.167969 27.988281 19.191406 27.867188 C 19.289062 27.742188 19.386719 27.617188 19.484375 27.492188 Z M 19.484375 27.492188 "/>
</g>
<mask id="mask45">
  <g filter="url(#alpha)">
<rect x="0" y="0" width="50" height="50" style="fill:rgb(0%,0%,0%);fill-opacity:0.996078;stroke:none;"/>
  </g>
</mask>
<clipPath id="clip46">
  <rect x="0" y="0" width="50" height="50"/>
</clipPath>
<g id="surface140" clip-path="url(#clip46)">
<path style=" stroke:none;fill-rule:evenodd;fill:rgb(29.803922%,16.078431%,86.666667%);fill-opacity:1;" d="M 32.664062 29.277344 C 32.539062 29.582031 32.378906 29.867188 32.175781 30.121094 C 32.207031 29.605469 32.144531 29.105469 31.980469 28.621094 C 31.625 28.519531 31.28125 28.394531 30.957031 28.242188 C 30.917969 28.265625 30.898438 28.296875 30.90625 28.335938 C 30.792969 28.242188 30.726562 28.117188 30.710938 27.960938 C 31.125 27.875 31.546875 27.84375 31.980469 27.867188 C 31.960938 27.976562 31.992188 28.070312 32.078125 28.148438 C 32.402344 28.453125 32.597656 28.828125 32.664062 29.277344 Z M 32.664062 29.277344 "/>
</g>
<mask id="mask46">
  <g filter="url(#alpha)">
<rect x="0" y="0" width="50" height="50" style="fill:rgb(0%,0%,0%);fill-opacity:0.960784;stroke:none;"/>
  </g>
</mask>
<clipPath id="clip47">
  <rect x="0" y="0" width="50" height="50"/>
</clipPath>
<g id="surface143" clip-path="url(#clip47)">
<path style=" stroke:none;fill-rule:evenodd;fill:rgb(35.686275%,21.568627%,96.862745%);fill-opacity:1;" d="M 7.273438 28.148438 C 8.035156 28.53125 8.785156 28.9375 9.519531 29.371094 C 9.496094 30.191406 9.660156 30.972656 10.007812 31.71875 C 9.058594 31.152344 8.082031 30.621094 7.078125 30.121094 C 7.035156 29.449219 7.101562 28.789062 7.273438 28.148438 Z M 7.273438 28.148438 "/>
</g>
<mask id="mask47">
  <g filter="url(#alpha)">
<rect x="0" y="0" width="50" height="50" style="fill:rgb(0%,0%,0%);fill-opacity:0.956863;stroke:none;"/>
  </g>
</mask>
<clipPath id="clip48">
  <rect x="0" y="0" width="50" height="50"/>
</clipPath>
<g id="surface146" clip-path="url(#clip48)">
<path style=" stroke:none;fill-rule:evenodd;fill:rgb(35.686275%,21.568627%,96.862745%);fill-opacity:1;" d="M 42.628906 28.148438 C 42.789062 28.792969 42.855469 29.453125 42.824219 30.121094 C 41.800781 30.660156 40.789062 31.226562 39.796875 31.8125 C 40.199219 31.046875 40.394531 30.234375 40.382812 29.371094 C 41.117188 28.9375 41.867188 28.53125 42.628906 28.148438 Z M 42.628906 28.148438 "/>
</g>
<mask id="mask48">
  <g filter="url(#alpha)">
<rect x="0" y="0" width="50" height="50" style="fill:rgb(0%,0%,0%);fill-opacity:0.984314;stroke:none;"/>
  </g>
</mask>
<clipPath id="clip49">
  <rect x="0" y="0" width="50" height="50"/>
</clipPath>
<g id="surface149" clip-path="url(#clip49)">
<path style=" stroke:none;fill-rule:evenodd;fill:rgb(34.509804%,22.745098%,97.254902%);fill-opacity:1;" d="M 20.167969 29.648438 C 20.296875 29.894531 20.457031 30.117188 20.65625 30.304688 C 20.820312 30.621094 20.980469 30.933594 21.144531 31.246094 C 20.367188 31.289062 19.605469 31.382812 18.847656 31.527344 C 18.6875 31.433594 18.554688 31.308594 18.460938 31.152344 C 18.421875 31.171875 18.402344 31.203125 18.410156 31.246094 C 18.230469 30.898438 18.003906 30.585938 17.726562 30.304688 C 17.660156 30.179688 17.597656 30.054688 17.53125 29.929688 C 18.414062 29.867188 19.292969 29.773438 20.167969 29.648438 Z M 20.167969 29.648438 "/>
</g>
<mask id="mask49">
  <g filter="url(#alpha)">
<rect x="0" y="0" width="50" height="50" style="fill:rgb(0%,0%,0%);fill-opacity:0.964706;stroke:none;"/>
  </g>
</mask>
<clipPath id="clip50">
  <rect x="0" y="0" width="50" height="50"/>
</clipPath>
<g id="surface152" clip-path="url(#clip50)">
<path style=" stroke:none;fill-rule:evenodd;fill:rgb(37.647059%,20%,96.470588%);fill-opacity:1;" d="M 7.078125 30.117188 C 8.078125 30.613281 9.054688 31.148438 10.007812 31.714844 C 10.828125 32.847656 11.96875 33.472656 13.425781 33.59375 C 13.703125 33.777344 13.996094 33.949219 14.304688 34.109375 C 14.390625 34.238281 14.421875 34.378906 14.402344 34.535156 C 14.890625 34.84375 15.378906 35.160156 15.867188 35.472656 C 12.367188 36.558594 9.652344 35.585938 7.710938 32.558594 C 7.316406 31.789062 7.105469 30.976562 7.078125 30.117188 Z M 7.078125 30.117188 "/>
</g>
<mask id="mask50">
  <g filter="url(#alpha)">
<rect x="0" y="0" width="50" height="50" style="fill:rgb(0%,0%,0%);fill-opacity:0.964706;stroke:none;"/>
  </g>
</mask>
<clipPath id="clip51">
  <rect x="0" y="0" width="50" height="50"/>
</clipPath>
<g id="surface155" clip-path="url(#clip51)">
<path style=" stroke:none;fill-rule:evenodd;fill:rgb(37.647059%,20%,96.470588%);fill-opacity:1;" d="M 42.824219 30.117188 C 42.519531 32.910156 40.988281 34.777344 38.234375 35.707031 C 37.136719 35.976562 36.027344 36.007812 34.914062 35.800781 C 34.414062 35.710938 33.960938 35.539062 33.546875 35.285156 C 34.523438 34.722656 35.5 34.15625 36.476562 33.59375 C 37.875 33.484375 38.984375 32.890625 39.796875 31.808594 C 40.789062 31.222656 41.800781 30.65625 42.824219 30.117188 Z M 42.824219 30.117188 "/>
</g>
<mask id="mask51">
  <g filter="url(#alpha)">
<rect x="0" y="0" width="50" height="50" style="fill:rgb(0%,0%,0%);fill-opacity:0.976471;stroke:none;"/>
  </g>
</mask>
<clipPath id="clip52">
  <rect x="0" y="0" width="50" height="50"/>
</clipPath>
<g id="surface158" clip-path="url(#clip52)">
<path style=" stroke:none;fill-rule:evenodd;fill:rgb(33.333333%,23.529412%,97.254902%);fill-opacity:1;" d="M 31.980469 30.210938 C 32.011719 30.210938 32.046875 30.210938 32.078125 30.210938 C 32.398438 30.730469 32.691406 31.261719 32.957031 31.808594 C 32.269531 32.191406 31.585938 32.566406 30.90625 32.9375 C 30.769531 32.890625 30.703125 32.796875 30.710938 32.652344 C 30.636719 32.476562 30.539062 32.320312 30.417969 32.183594 C 30.28125 31.886719 30.117188 31.605469 29.929688 31.339844 C 30.585938 30.851562 31.269531 30.476562 31.980469 30.210938 Z M 31.980469 30.210938 "/>
</g>
<mask id="mask52">
  <g filter="url(#alpha)">
<rect x="0" y="0" width="50" height="50" style="fill:rgb(0%,0%,0%);fill-opacity:0.992157;stroke:none;"/>
  </g>
</mask>
<clipPath id="clip53">
  <rect x="0" y="0" width="50" height="50"/>
</clipPath>
<g id="surface161" clip-path="url(#clip53)">
<path style=" stroke:none;fill-rule:evenodd;fill:rgb(29.803922%,15.294118%,84.705882%);fill-opacity:1;" d="M 29.152344 30.59375 C 29.136719 30.941406 29.152344 31.285156 29.203125 31.628906 C 29.234375 31.597656 29.265625 31.566406 29.296875 31.535156 C 29.378906 31.714844 29.425781 31.902344 29.445312 32.097656 C 29.707031 32.082031 29.96875 32.097656 30.226562 32.144531 C 30.300781 32.273438 30.367188 32.289062 30.421875 32.191406 C 30.542969 32.328125 30.640625 32.484375 30.714844 32.660156 C 30.683594 32.660156 30.648438 32.660156 30.617188 32.660156 C 30.121094 32.605469 29.632812 32.511719 29.152344 32.378906 C 29.152344 32.285156 29.152344 32.191406 29.152344 32.097656 C 29.054688 32.097656 28.957031 32.097656 28.859375 32.097656 C 28.894531 31.75 28.828125 31.5 28.664062 31.34375 C 28.777344 31.0625 28.941406 30.8125 29.152344 30.59375 Z M 29.152344 30.59375 "/>
</g>
<mask id="mask53">
  <g filter="url(#alpha)">
<rect x="0" y="0" width="50" height="50" style="fill:rgb(0%,0%,0%);fill-opacity:0.968627;stroke:none;"/>
  </g>
</mask>
<clipPath id="clip54">
  <rect x="0" y="0" width="50" height="50"/>
</clipPath>
<g id="surface164" clip-path="url(#clip54)">
<path style=" stroke:none;fill-rule:evenodd;fill:rgb(35.686275%,21.568627%,96.862745%);fill-opacity:1;" d="M 21.140625 31.25 C 21.554688 32.023438 22.140625 32.652344 22.898438 33.128906 C 21.855469 33.238281 20.8125 33.363281 19.773438 33.503906 C 19.542969 33.28125 19.347656 33.03125 19.1875 32.753906 C 19.210938 32.632812 19.179688 32.539062 19.089844 32.472656 C 19.015625 32.296875 18.917969 32.140625 18.796875 32 C 18.667969 31.75 18.539062 31.5 18.40625 31.25 C 18.402344 31.210938 18.417969 31.175781 18.457031 31.15625 C 18.554688 31.3125 18.683594 31.4375 18.847656 31.53125 C 19.601562 31.386719 20.367188 31.292969 21.140625 31.25 Z M 21.140625 31.25 "/>
</g>
<mask id="mask54">
  <g filter="url(#alpha)">
<rect x="0" y="0" width="50" height="50" style="fill:rgb(0%,0%,0%);fill-opacity:0.992157;stroke:none;"/>
  </g>
</mask>
<clipPath id="clip55">
  <rect x="0" y="0" width="50" height="50"/>
</clipPath>
<g id="surface167" clip-path="url(#clip55)">
<path style=" stroke:none;fill-rule:evenodd;fill:rgb(31.372549%,16.470588%,86.666667%);fill-opacity:1;" d="M 28.660156 31.34375 C 28.824219 31.5 28.890625 31.75 28.855469 32.09375 C 28.953125 32.09375 29.050781 32.09375 29.148438 32.09375 C 29.148438 32.1875 29.148438 32.285156 29.148438 32.378906 C 29.628906 32.507812 30.117188 32.605469 30.613281 32.660156 C 30.628906 32.753906 30.597656 32.816406 30.515625 32.847656 C 30.269531 32.894531 30.027344 32.957031 29.78125 33.035156 C 29.480469 32.9375 29.167969 32.859375 28.855469 32.800781 C 28.886719 32.769531 28.921875 32.738281 28.953125 32.707031 C 28.601562 32.492188 28.40625 32.195312 28.367188 31.8125 C 28.441406 31.636719 28.539062 31.480469 28.660156 31.34375 Z M 28.660156 31.34375 "/>
</g>
<mask id="mask55">
  <g filter="url(#alpha)">
<rect x="0" y="0" width="50" height="50" style="fill:rgb(0%,0%,0%);fill-opacity:0.976471;stroke:none;"/>
  </g>
</mask>
<clipPath id="clip56">
  <rect x="0" y="0" width="50" height="50"/>
</clipPath>
<g id="surface170" clip-path="url(#clip56)">
<path style=" stroke:none;fill-rule:evenodd;fill:rgb(28.235294%,17.647059%,86.666667%);fill-opacity:1;" d="M 17.039062 31.625 C 17.046875 31.71875 17.015625 31.796875 16.941406 31.859375 C 17.191406 32.320312 17.566406 32.648438 18.066406 32.847656 C 18.359375 32.800781 18.636719 32.707031 18.894531 32.566406 C 19.035156 32.703125 19.101562 32.671875 19.089844 32.46875 C 19.179688 32.539062 19.210938 32.632812 19.1875 32.753906 C 19.058594 32.9375 18.929688 33.125 18.796875 33.316406 C 18.613281 33.328125 18.582031 33.28125 18.699219 33.175781 C 18.308594 33.144531 17.917969 33.113281 17.527344 33.082031 C 17.179688 32.828125 16.886719 32.53125 16.648438 32.1875 C 16.730469 31.96875 16.859375 31.78125 17.039062 31.625 Z M 17.039062 31.625 "/>
</g>
<mask id="mask56">
  <g filter="url(#alpha)">
<rect x="0" y="0" width="50" height="50" style="fill:rgb(0%,0%,0%);fill-opacity:0.960784;stroke:none;"/>
  </g>
</mask>
<clipPath id="clip57">
  <rect x="0" y="0" width="50" height="50"/>
</clipPath>
<g id="surface173" clip-path="url(#clip57)">
<path style=" stroke:none;fill-rule:evenodd;fill:rgb(34.509804%,22.352941%,97.254902%);fill-opacity:1;" d="M 32.957031 31.8125 C 33.28125 32.1875 33.636719 32.53125 34.03125 32.847656 C 33.3125 33.304688 32.566406 33.714844 31.785156 34.066406 C 31.398438 33.761719 31.105469 33.382812 30.90625 32.941406 C 31.585938 32.570312 32.269531 32.195312 32.957031 31.8125 Z M 32.957031 31.8125 "/>
</g>
<mask id="mask57">
  <g filter="url(#alpha)">
<rect x="0" y="0" width="50" height="50" style="fill:rgb(0%,0%,0%);fill-opacity:0.988235;stroke:none;"/>
  </g>
</mask>
<clipPath id="clip58">
  <rect x="0" y="0" width="50" height="50"/>
</clipPath>
<g id="surface176" clip-path="url(#clip58)">
<path style=" stroke:none;fill-rule:evenodd;fill:rgb(32.941176%,17.647059%,89.411765%);fill-opacity:1;" d="M 28.367188 31.8125 C 28.40625 32.195312 28.601562 32.492188 28.953125 32.707031 C 28.921875 32.738281 28.886719 32.769531 28.855469 32.800781 C 29.167969 32.859375 29.480469 32.9375 29.78125 33.035156 C 30.027344 32.957031 30.269531 32.894531 30.515625 32.847656 C 30.429688 33.148438 30.265625 33.398438 30.027344 33.597656 C 29.867188 33.472656 29.703125 33.472656 29.539062 33.597656 C 29.160156 33.40625 28.769531 33.25 28.367188 33.128906 C 28.195312 32.898438 28.066406 32.648438 27.976562 32.375 C 28.070312 32.164062 28.199219 31.972656 28.367188 31.8125 Z M 28.367188 31.8125 "/>
</g>
<mask id="mask58">
  <g filter="url(#alpha)">
<rect x="0" y="0" width="50" height="50" style="fill:rgb(0%,0%,0%);fill-opacity:0.988235;stroke:none;"/>
  </g>
</mask>
<clipPath id="clip59">
  <rect x="0" y="0" width="50" height="50"/>
</clipPath>
<g id="surface179" clip-path="url(#clip59)">
<path style=" stroke:none;fill-rule:evenodd;fill:rgb(30.196078%,18.431373%,89.411765%);fill-opacity:1;" d="M 16.652344 32.1875 C 16.890625 32.527344 17.183594 32.824219 17.53125 33.082031 C 17.921875 33.113281 18.3125 33.144531 18.703125 33.175781 C 18.585938 33.277344 18.617188 33.324219 18.800781 33.316406 C 18.703125 33.472656 18.574219 33.597656 18.410156 33.691406 C 18.417969 33.648438 18.398438 33.617188 18.359375 33.597656 C 18.28125 33.703125 18.164062 33.765625 18.019531 33.785156 C 17.171875 33.660156 16.617188 33.222656 16.359375 32.46875 C 16.425781 32.34375 16.523438 32.25 16.652344 32.1875 Z M 16.652344 32.1875 "/>
</g>
<mask id="mask59">
  <g filter="url(#alpha)">
<rect x="0" y="0" width="50" height="50" style="fill:rgb(0%,0%,0%);fill-opacity:0.968627;stroke:none;"/>
  </g>
</mask>
<clipPath id="clip60">
  <rect x="0" y="0" width="50" height="50"/>
</clipPath>
<g id="surface182" clip-path="url(#clip60)">
<path style=" stroke:none;fill-rule:evenodd;fill:rgb(34.117647%,18.431373%,92.156863%);fill-opacity:1;" d="M 27.976562 32.375 C 28.066406 32.648438 28.195312 32.898438 28.367188 33.125 C 28.769531 33.25 29.160156 33.40625 29.539062 33.597656 C 29.703125 33.472656 29.867188 33.472656 30.027344 33.597656 C 29.863281 33.816406 29.667969 34.003906 29.441406 34.160156 C 29.410156 34.097656 29.378906 34.035156 29.34375 33.972656 C 28.828125 33.964844 28.402344 33.777344 28.074219 33.410156 C 27.921875 33.320312 27.761719 33.289062 27.585938 33.316406 C 27.585938 33.09375 27.585938 32.875 27.585938 32.65625 C 27.710938 32.5625 27.84375 32.46875 27.976562 32.375 Z M 27.976562 32.375 "/>
</g>
<mask id="mask60">
  <g filter="url(#alpha)">
<rect x="0" y="0" width="50" height="50" style="fill:rgb(0%,0%,0%);fill-opacity:0.980392;stroke:none;"/>
  </g>
</mask>
<clipPath id="clip61">
  <rect x="0" y="0" width="50" height="50"/>
</clipPath>
<g id="surface185" clip-path="url(#clip61)">
<path style=" stroke:none;fill-rule:evenodd;fill:rgb(32.156863%,19.607843%,91.764706%);fill-opacity:1;" d="M 16.355469 32.46875 C 16.613281 33.222656 17.167969 33.660156 18.015625 33.785156 C 18.160156 33.765625 18.277344 33.703125 18.355469 33.597656 C 18.394531 33.617188 18.414062 33.648438 18.40625 33.691406 C 18.316406 33.933594 18.152344 34.121094 17.917969 34.253906 C 17.417969 34.121094 16.929688 33.964844 16.453125 33.785156 C 16.308594 33.445312 16.113281 33.132812 15.867188 32.84375 C 16.027344 32.722656 16.191406 32.597656 16.355469 32.46875 Z M 16.355469 32.46875 "/>
</g>
<mask id="mask61">
  <g filter="url(#alpha)">
<rect x="0" y="0" width="50" height="50" style="fill:rgb(0%,0%,0%);fill-opacity:0.952941;stroke:none;"/>
  </g>
</mask>
<clipPath id="clip62">
  <rect x="0" y="0" width="50" height="50"/>
</clipPath>
<g id="surface188" clip-path="url(#clip62)">
<path style=" stroke:none;fill-rule:evenodd;fill:rgb(35.686275%,21.568627%,96.862745%);fill-opacity:1;" d="M 34.035156 32.84375 C 34.769531 33.320312 35.582031 33.570312 36.476562 33.59375 C 35.5 34.160156 34.523438 34.722656 33.546875 35.285156 C 32.851562 35.023438 32.265625 34.617188 31.789062 34.066406 C 32.570312 33.710938 33.316406 33.304688 34.035156 32.84375 Z M 34.035156 32.84375 "/>
</g>
<mask id="mask62">
  <g filter="url(#alpha)">
<rect x="0" y="0" width="50" height="50" style="fill:rgb(0%,0%,0%);fill-opacity:0.980392;stroke:none;"/>
  </g>
</mask>
<clipPath id="clip63">
  <rect x="0" y="0" width="50" height="50"/>
</clipPath>
<g id="surface191" clip-path="url(#clip63)">
<path style=" stroke:none;fill-rule:evenodd;fill:rgb(36.078431%,19.607843%,94.509804%);fill-opacity:1;" d="M 27.589844 32.65625 C 27.589844 32.875 27.589844 33.09375 27.589844 33.3125 C 27.765625 33.289062 27.925781 33.320312 28.078125 33.40625 C 28.40625 33.773438 28.832031 33.964844 29.347656 33.972656 C 29.382812 34.035156 29.414062 34.097656 29.445312 34.160156 C 29.246094 34.445312 28.984375 34.664062 28.664062 34.816406 C 28.664062 34.722656 28.664062 34.628906 28.664062 34.535156 C 28.566406 34.535156 28.46875 34.535156 28.371094 34.535156 C 28.371094 34.628906 28.371094 34.722656 28.371094 34.816406 C 28.273438 34.816406 28.175781 34.816406 28.078125 34.816406 C 28.054688 34.414062 27.828125 34.257812 27.394531 34.347656 C 27.394531 34.253906 27.394531 34.160156 27.394531 34.066406 C 27.296875 34.066406 27.199219 34.066406 27.101562 34.066406 C 27.101562 33.972656 27.101562 33.878906 27.101562 33.785156 C 27.003906 33.785156 26.90625 33.785156 26.808594 33.785156 C 26.785156 33.582031 26.6875 33.425781 26.515625 33.3125 C 26.882812 33.121094 27.242188 32.902344 27.589844 32.65625 Z M 27.589844 32.65625 "/>
</g>
<mask id="mask63">
  <g filter="url(#alpha)">
<rect x="0" y="0" width="50" height="50" style="fill:rgb(0%,0%,0%);fill-opacity:0.980392;stroke:none;"/>
  </g>
</mask>
<clipPath id="clip64">
  <rect x="0" y="0" width="50" height="50"/>
</clipPath>
<g id="surface194" clip-path="url(#clip64)">
<path style=" stroke:none;fill-rule:evenodd;fill:rgb(34.509804%,20.392157%,94.509804%);fill-opacity:1;" d="M 15.867188 32.84375 C 16.113281 33.128906 16.308594 33.445312 16.453125 33.785156 C 16.929688 33.964844 17.417969 34.121094 17.917969 34.253906 C 17.695312 34.488281 17.433594 34.675781 17.136719 34.816406 C 16.882812 34.820312 16.671875 34.914062 16.503906 35.097656 C 16.453125 34.914062 16.4375 34.726562 16.453125 34.535156 C 16.355469 34.535156 16.257812 34.535156 16.160156 34.535156 C 16.09375 34.910156 16.03125 34.910156 15.964844 34.535156 C 15.867188 34.535156 15.769531 34.535156 15.671875 34.535156 C 15.640625 34.253906 15.476562 34.097656 15.183594 34.066406 C 15.183594 33.878906 15.183594 33.6875 15.183594 33.5 C 15.019531 33.523438 14.921875 33.460938 14.890625 33.3125 C 15.242188 33.207031 15.570312 33.050781 15.867188 32.84375 Z M 15.867188 32.84375 "/>
</g>
<mask id="mask64">
  <g filter="url(#alpha)">
<rect x="0" y="0" width="50" height="50" style="fill:rgb(0%,0%,0%);fill-opacity:0.960784;stroke:none;"/>
  </g>
</mask>
<clipPath id="clip65">
  <rect x="0" y="0" width="50" height="50"/>
</clipPath>
<g id="surface197" clip-path="url(#clip65)">
<path style=" stroke:none;fill-rule:evenodd;fill:rgb(37.647059%,20%,96.470588%);fill-opacity:1;" d="M 22.898438 33.125 C 24.074219 33.660156 25.28125 33.726562 26.511719 33.3125 C 26.683594 33.421875 26.78125 33.578125 26.804688 33.78125 C 26.902344 33.78125 27 33.78125 27.097656 33.78125 C 27.097656 33.875 27.097656 33.96875 27.097656 34.066406 C 27.195312 34.066406 27.292969 34.066406 27.390625 34.066406 C 27.390625 34.160156 27.390625 34.253906 27.390625 34.347656 C 27.824219 34.253906 28.050781 34.410156 28.074219 34.816406 C 28.171875 34.816406 28.269531 34.816406 28.367188 34.816406 C 28.367188 34.722656 28.367188 34.628906 28.367188 34.535156 C 28.464844 34.535156 28.5625 34.535156 28.660156 34.535156 C 28.660156 34.628906 28.660156 34.722656 28.660156 34.816406 C 26.824219 36.003906 24.839844 36.273438 22.703125 35.613281 C 21.488281 35.203125 20.511719 34.5 19.773438 33.5 C 20.8125 33.359375 21.851562 33.234375 22.898438 33.125 Z M 22.898438 33.125 "/>
</g>
<mask id="mask65">
  <g filter="url(#alpha)">
<rect x="0" y="0" width="50" height="50" style="fill:rgb(0%,0%,0%);fill-opacity:0.941176;stroke:none;"/>
  </g>
</mask>
<clipPath id="clip66">
  <rect x="0" y="0" width="50" height="50"/>
</clipPath>
<g id="surface200" clip-path="url(#clip66)">
<path style=" stroke:none;fill-rule:evenodd;fill:rgb(36.078431%,20.784314%,96.078431%);fill-opacity:1;" d="M 14.894531 33.3125 C 14.925781 33.457031 15.023438 33.519531 15.1875 33.5 C 15.1875 33.6875 15.1875 33.875 15.1875 34.0625 C 15.480469 34.09375 15.644531 34.253906 15.675781 34.535156 C 15.773438 34.535156 15.871094 34.535156 15.96875 34.535156 C 16.035156 34.910156 16.097656 34.910156 16.164062 34.535156 C 16.261719 34.535156 16.359375 34.535156 16.457031 34.535156 C 16.441406 34.722656 16.457031 34.914062 16.507812 35.097656 C 16.675781 34.914062 16.886719 34.820312 17.140625 34.816406 C 16.792969 35.15625 16.367188 35.375 15.871094 35.472656 C 15.382812 35.160156 14.894531 34.847656 14.40625 34.535156 C 14.425781 34.378906 14.394531 34.238281 14.308594 34.109375 C 14 33.953125 13.707031 33.78125 13.429688 33.59375 C 13.9375 33.570312 14.425781 33.476562 14.894531 33.3125 Z M 14.894531 33.3125 "/>
</g>
</defs>
<g id="surface1">
<use xlink:href="#surface5" mask="url(#mask0)"/>
<use xlink:href="#surface8" mask="url(#mask1)"/>
<use xlink:href="#surface11" mask="url(#mask2)"/>
<use xlink:href="#surface14" mask="url(#mask3)"/>
<use xlink:href="#surface17" mask="url(#mask4)"/>
<use xlink:href="#surface20" mask="url(#mask5)"/>
<use xlink:href="#surface23" mask="url(#mask6)"/>
<use xlink:href="#surface26" mask="url(#mask7)"/>
<use xlink:href="#surface29" mask="url(#mask8)"/>
<use xlink:href="#surface32" mask="url(#mask9)"/>
<use xlink:href="#surface35" mask="url(#mask10)"/>
<use xlink:href="#surface38" mask="url(#mask11)"/>
<use xlink:href="#surface41" mask="url(#mask12)"/>
<use xlink:href="#surface44" mask="url(#mask13)"/>
<use xlink:href="#surface47" mask="url(#mask14)"/>
<use xlink:href="#surface50" mask="url(#mask15)"/>
<use xlink:href="#surface53" mask="url(#mask16)"/>
<use xlink:href="#surface56" mask="url(#mask17)"/>
<use xlink:href="#surface59" mask="url(#mask18)"/>
<use xlink:href="#surface62" mask="url(#mask19)"/>
<use xlink:href="#surface65" mask="url(#mask20)"/>
<use xlink:href="#surface68" mask="url(#mask21)"/>
<use xlink:href="#surface71" mask="url(#mask22)"/>
<use xlink:href="#surface74" mask="url(#mask23)"/>
<use xlink:href="#surface77" mask="url(#mask24)"/>
<use xlink:href="#surface80" mask="url(#mask25)"/>
<use xlink:href="#surface83" mask="url(#mask26)"/>
<use xlink:href="#surface86" mask="url(#mask27)"/>
<use xlink:href="#surface89" mask="url(#mask28)"/>
<use xlink:href="#surface92" mask="url(#mask29)"/>
<use xlink:href="#surface95" mask="url(#mask30)"/>
<use xlink:href="#surface98" mask="url(#mask31)"/>
<use xlink:href="#surface101" mask="url(#mask32)"/>
<use xlink:href="#surface104" mask="url(#mask33)"/>
<use xlink:href="#surface107" mask="url(#mask34)"/>
<use xlink:href="#surface110" mask="url(#mask35)"/>
<use xlink:href="#surface113" mask="url(#mask36)"/>
<use xlink:href="#surface116" mask="url(#mask37)"/>
<use xlink:href="#surface119" mask="url(#mask38)"/>
<use xlink:href="#surface122" mask="url(#mask39)"/>
<use xlink:href="#surface125" mask="url(#mask40)"/>
<use xlink:href="#surface128" mask="url(#mask41)"/>
<use xlink:href="#surface131" mask="url(#mask42)"/>
<use xlink:href="#surface134" mask="url(#mask43)"/>
<use xlink:href="#surface137" mask="url(#mask44)"/>
<use xlink:href="#surface140" mask="url(#mask45)"/>
<use xlink:href="#surface143" mask="url(#mask46)"/>
<use xlink:href="#surface146" mask="url(#mask47)"/>
<path style=" stroke:none;fill-rule:evenodd;fill:rgb(21.568627%,18.039216%,86.27451%);fill-opacity:1;" d="M 21.042969 29.558594 C 20.914062 29.808594 20.785156 30.058594 20.652344 30.308594 C 20.457031 30.117188 20.292969 29.898438 20.164062 29.652344 C 19.871094 29.152344 19.578125 28.648438 19.285156 28.148438 C 19.28125 28.109375 19.296875 28.074219 19.335938 28.054688 C 19.875 28.164062 20.378906 28.351562 20.847656 28.617188 C 20.832031 28.871094 20.847656 29.121094 20.898438 29.371094 C 20.929688 29.277344 20.964844 29.183594 20.996094 29.089844 C 21.042969 29.242188 21.058594 29.398438 21.042969 29.558594 Z M 21.042969 29.558594 "/>
<path style=" stroke:none;fill-rule:evenodd;fill:rgb(29.019608%,14.117647%,83.921569%);fill-opacity:1;" d="M 32.175781 30.121094 C 32.175781 30.183594 32.144531 30.214844 32.078125 30.214844 C 32.046875 30.214844 32.015625 30.214844 31.980469 30.214844 C 31.785156 29.871094 31.589844 29.527344 31.394531 29.183594 C 31.207031 28.914062 31.046875 28.632812 30.90625 28.335938 C 30.902344 28.296875 30.917969 28.261719 30.957031 28.242188 C 31.285156 28.394531 31.625 28.519531 31.980469 28.617188 C 32.144531 29.101562 32.210938 29.605469 32.175781 30.121094 Z M 32.175781 30.121094 "/>
<path style=" stroke:none;fill-rule:evenodd;fill:rgb(32.156863%,24.705882%,97.647059%);fill-opacity:1;" d="M 31.394531 29.179688 C 31.589844 29.523438 31.785156 29.867188 31.980469 30.214844 C 31.269531 30.480469 30.585938 30.855469 29.929688 31.339844 C 29.707031 31.007812 29.511719 30.664062 29.34375 30.308594 C 30.027344 29.929688 30.710938 29.554688 31.394531 29.179688 Z M 31.394531 29.179688 "/>
<use xlink:href="#surface149" mask="url(#mask48)"/>
<use xlink:href="#surface152" mask="url(#mask49)"/>
<use xlink:href="#surface155" mask="url(#mask50)"/>
<use xlink:href="#surface158" mask="url(#mask51)"/>
<path style=" stroke:none;fill-rule:evenodd;fill:rgb(23.921569%,15.294118%,81.960784%);fill-opacity:1;" d="M 17.722656 30.304688 C 18 30.585938 18.226562 30.898438 18.40625 31.246094 C 18.535156 31.496094 18.667969 31.746094 18.796875 31.996094 C 18.640625 32.113281 18.464844 32.210938 18.261719 32.277344 C 18.085938 32.195312 17.90625 32.132812 17.722656 32.089844 C 17.746094 31.679688 17.648438 31.304688 17.429688 30.960938 C 17.5 30.730469 17.597656 30.511719 17.722656 30.304688 Z M 17.722656 30.304688 "/>
<path style=" stroke:none;fill-rule:evenodd;fill:rgb(28.627451%,14.117647%,82.352941%);fill-opacity:1;" d="M 29.25 30.304688 C 29.28125 30.304688 29.3125 30.304688 29.347656 30.304688 C 29.515625 30.660156 29.710938 31.007812 29.933594 31.339844 C 30.121094 31.605469 30.28125 31.886719 30.421875 32.183594 C 30.363281 32.28125 30.296875 32.265625 30.226562 32.136719 C 29.964844 32.089844 29.707031 32.074219 29.445312 32.089844 C 29.425781 31.894531 29.375 31.707031 29.296875 31.527344 C 29.265625 31.558594 29.230469 31.589844 29.199219 31.621094 C 29.152344 31.277344 29.132812 30.933594 29.152344 30.585938 C 29.15625 30.480469 29.1875 30.386719 29.25 30.304688 Z M 29.25 30.304688 "/>
<use xlink:href="#surface161" mask="url(#mask52)"/>
<use xlink:href="#surface164" mask="url(#mask53)"/>
<use xlink:href="#surface167" mask="url(#mask54)"/>
<use xlink:href="#surface170" mask="url(#mask55)"/>
<use xlink:href="#surface173" mask="url(#mask56)"/>
<path style=" stroke:none;fill-rule:evenodd;fill:rgb(26.666667%,16.470588%,84.705882%);fill-opacity:1;" d="M 17.433594 30.96875 C 17.652344 31.308594 17.75 31.6875 17.726562 32.097656 C 17.910156 32.140625 18.089844 32.203125 18.265625 32.285156 C 18.46875 32.214844 18.644531 32.121094 18.800781 32.003906 C 18.921875 32.140625 19.019531 32.296875 19.09375 32.472656 C 19.105469 32.675781 19.039062 32.707031 18.898438 32.566406 C 18.640625 32.707031 18.363281 32.804688 18.070312 32.847656 C 17.570312 32.652344 17.195312 32.320312 16.945312 31.863281 C 17.019531 31.796875 17.050781 31.71875 17.042969 31.625 C 17.097656 31.359375 17.230469 31.140625 17.433594 30.96875 Z M 17.433594 30.96875 "/>
<use xlink:href="#surface176" mask="url(#mask57)"/>
<use xlink:href="#surface179" mask="url(#mask58)"/>
<use xlink:href="#surface182" mask="url(#mask59)"/>
<use xlink:href="#surface185" mask="url(#mask60)"/>
<use xlink:href="#surface188" mask="url(#mask61)"/>
<use xlink:href="#surface191" mask="url(#mask62)"/>
<use xlink:href="#surface194" mask="url(#mask63)"/>
<use xlink:href="#surface197" mask="url(#mask64)"/>
<use xlink:href="#surface200" mask="url(#mask65)"/>
</g>
</svg>
