<svg width="50" height="50" viewBox="0 0 50 50" fill="none" xmlns="http://www.w3.org/2000/svg">
<path opacity="0.968" fill-rule="evenodd" clip-rule="evenodd" d="M18.2148 14.0547C20.2955 15.3066 22.4114 16.5125 24.5625 17.6722C24.6798 17.757 24.7612 17.8666 24.8066 18.0011C27.1449 16.7436 29.4398 15.4281 31.6914 14.0547C32.7989 14.2432 33.7755 14.6817 34.6211 15.3701C34.4809 15.5189 34.3182 15.6598 34.1328 15.793C33.4958 16.0519 32.9099 16.3808 32.375 16.7796C30.2595 16.0227 28.5505 16.5238 27.248 18.2829C26.9806 18.7889 26.8015 19.3213 26.7109 19.8803C25.9406 20.3058 25.1756 20.7443 24.416 21.1957C24.3123 20.9581 24.231 20.7075 24.1719 20.444C23.8437 20.2551 23.5182 20.0672 23.1953 19.8803C22.7636 17.7893 21.4452 16.6304 19.2402 16.4037C18.6108 16.4235 18.0087 16.5489 17.4336 16.7796C17.7027 16.3776 17.7841 15.9392 17.6777 15.4641C17.6403 15.4119 17.5915 15.3806 17.5312 15.3701C17.4576 15.1267 17.2948 14.9545 17.043 14.8534C16.7518 14.8066 16.4588 14.7909 16.1641 14.8064C16.7977 14.4463 17.4812 14.1957 18.2148 14.0547Z" fill="#3A54FD"/>
<path opacity="0.984" fill-rule="evenodd" clip-rule="evenodd" d="M18.2109 14.0547C18.6992 14.0547 19.1875 14.0547 19.6758 14.0547C21.2738 15.0114 22.9014 15.9197 24.5586 16.7796C24.696 16.9494 24.81 17.1374 24.9004 17.3433C25.0634 17.2169 25.1773 17.0602 25.2422 16.8735C26.945 16.0072 28.6052 15.0676 30.2227 14.0547C30.7109 14.0547 31.1992 14.0547 31.6875 14.0547C29.4359 15.4281 27.141 16.7436 24.8027 18.0011C24.7573 17.8666 24.6759 17.757 24.5586 17.6722C22.4075 16.5125 20.2916 15.3066 18.2109 14.0547Z" fill="#3756FF"/>
<path opacity="0.902" fill-rule="evenodd" clip-rule="evenodd" d="M19.6797 14.0547C21.7533 14.2374 23.3809 15.1458 24.5625 16.7796C22.9053 15.9197 21.2777 15.0114 19.6797 14.0547Z" fill="#3658FF"/>
<path opacity="0.891" fill-rule="evenodd" clip-rule="evenodd" d="M30.2227 14.0547C28.6052 15.0676 26.945 16.0072 25.2422 16.8735C26.434 15.1876 28.0941 14.248 30.2227 14.0547Z" fill="#3658FF"/>
<path opacity="0.958" fill-rule="evenodd" clip-rule="evenodd" d="M16.1602 14.8027C16.4549 14.7872 16.7479 14.8028 17.0391 14.8496C17.2909 14.9507 17.4537 15.123 17.5273 15.3664C16.6013 15.5478 15.6573 15.7044 14.6953 15.8362C15.096 15.3772 15.5843 15.0327 16.1602 14.8027Z" fill="#3E50FD"/>
<path opacity="0.972" fill-rule="evenodd" clip-rule="evenodd" d="M17.5313 15.3672C17.5915 15.3776 17.6403 15.4089 17.6777 15.4611C17.7841 15.9362 17.7027 16.3746 17.4336 16.7766C16.4347 17.2997 15.7511 18.0827 15.3828 19.1256C14.5383 19.2088 13.692 19.2715 12.8438 19.3136C12.8983 19.0302 12.9634 18.7483 13.0391 18.4679C12.9944 18.3929 12.9293 18.3616 12.8438 18.3739C13.2495 17.7188 13.6564 17.0611 14.0645 16.4008C14.2634 16.1935 14.4749 16.0056 14.6992 15.837C15.6612 15.7052 16.6052 15.5485 17.5313 15.3672Z" fill="#414EFC"/>
<path opacity="0.99" fill-rule="evenodd" clip-rule="evenodd" d="M34.6211 15.3672C34.9069 15.4853 35.1349 15.6732 35.3047 15.931C34.6061 16.3227 33.9062 16.7298 33.2051 17.1524C33.1396 17.0818 33.0582 17.0504 32.9609 17.0585C32.7656 16.9645 32.5703 16.8706 32.375 16.7766C32.9099 16.3778 33.4958 16.049 34.1328 15.79C34.3182 15.6569 34.4809 15.5159 34.6211 15.3672Z" fill="#3E50FD"/>
<path opacity="0.968" fill-rule="evenodd" clip-rule="evenodd" d="M35.3047 15.9297C36.0035 16.6469 36.5569 17.4613 36.9648 18.3727C36.3011 18.7707 35.6175 19.1465 34.9141 19.5002C34.786 19.2526 34.6232 19.0333 34.4258 18.8425C34.1021 18.1275 33.6139 17.5325 32.9609 17.0572C33.0582 17.0491 33.1396 17.0805 33.2051 17.1512C33.9062 16.7285 34.6061 16.3214 35.3047 15.9297Z" fill="#414EFC"/>
<path opacity="0.982" fill-rule="evenodd" clip-rule="evenodd" d="M36.9648 18.375C37.1688 18.5475 37.2989 18.7667 37.3555 19.0327C36.7793 19.4905 36.1445 19.8664 35.4512 20.1603C35.2213 19.9853 35.0423 19.7661 34.9141 19.5025C35.6175 19.1489 36.3011 18.773 36.9648 18.375Z" fill="#454BFC"/>
<path opacity="0.965" fill-rule="evenodd" clip-rule="evenodd" d="M34.4258 18.8438C34.6232 19.0346 34.786 19.2539 34.9141 19.5015C35.0423 19.765 35.2213 19.9843 35.4512 20.1592C36.1445 19.8653 36.7793 19.4895 37.3555 19.0317C37.8198 19.6428 38.2104 20.3005 38.5273 21.0049C37.8676 21.3403 37.2165 21.7005 36.5742 22.0854C35.8126 22.059 35.0639 21.9494 34.3281 21.7565C34.6777 20.7982 34.7103 19.8273 34.4258 18.8438Z" fill="#4848FB"/>
<path opacity="0.971" fill-rule="evenodd" clip-rule="evenodd" d="M12.8398 18.3776C12.9254 18.3653 12.9905 18.3966 13.0352 18.4716C12.9595 18.7519 12.8944 19.0338 12.8398 19.3172C12.8123 19.6739 12.8123 20.0184 12.8398 20.3508C13.6141 20.2118 14.3953 20.1179 15.1836 20.0689C15.2128 20.936 15.4406 21.7503 15.8672 22.5119C15.0176 22.5811 14.1713 22.6751 13.3281 22.7938C13.2463 22.7616 13.2137 22.6991 13.2305 22.6059C13.1469 22.317 13.0166 22.0507 12.8398 21.8072C12.3326 21.5196 11.8443 21.2221 11.375 20.9146C11.8373 20.0563 12.3256 19.2107 12.8398 18.3776Z" fill="#4848FB"/>
<path opacity="0.976" fill-rule="evenodd" clip-rule="evenodd" d="M15.38 19.125C15.3025 19.4353 15.2375 19.7484 15.1847 20.0646C14.3964 20.1136 13.6152 20.2075 12.841 20.3465C12.8134 20.0142 12.8134 19.6696 12.841 19.3129C13.6892 19.2708 14.5355 19.2082 15.38 19.125Z" fill="#454BFC"/>
<path opacity="0.973" fill-rule="evenodd" clip-rule="evenodd" d="M23.1914 19.875C23.5143 20.0619 23.8397 20.2498 24.168 20.4388C24.2271 20.7022 24.3084 20.9528 24.4121 21.1905C25.1717 20.7391 25.9367 20.3006 26.707 19.875C26.707 20.1569 26.707 20.4388 26.707 20.7207C26.0018 21.1149 25.3019 21.5221 24.6074 21.9421C24.515 21.7272 24.4011 21.5235 24.2656 21.3314C23.8854 21.1016 23.4947 20.898 23.0938 20.7207C23.1819 20.449 23.2145 20.1671 23.1914 19.875Z" fill="#3E50FD"/>
<path opacity="0.966" fill-rule="evenodd" clip-rule="evenodd" d="M23.0938 20.7266C23.4947 20.904 23.8854 21.1075 24.2656 21.3373C24.4011 21.5295 24.515 21.7331 24.6074 21.9481C25.3019 21.5281 26.0018 21.1208 26.707 20.7266C26.7906 21.1091 26.9046 21.4849 27.0488 21.8541C27.3528 22.3454 27.6296 22.8465 27.8789 23.3575C27.2233 23.7986 26.5397 24.2058 25.8281 24.579C25.541 24.0672 25.2317 23.5661 24.9004 23.0756C24.6487 23.5912 24.3721 24.0923 24.0703 24.579C23.3792 24.1658 22.663 23.79 21.9219 23.4514C22.2059 22.8791 22.515 22.3154 22.8496 21.7601C23.0021 21.43 23.0835 21.0854 23.0938 20.7266Z" fill="#414DFC"/>
<path opacity="0.967" fill-rule="evenodd" clip-rule="evenodd" d="M11.375 20.9141C11.8443 21.2216 12.3326 21.5191 12.8398 21.8067C13.0166 22.0502 13.1469 22.3165 13.2305 22.6054C13.1003 22.762 12.97 22.9185 12.8398 23.0752C12.1282 22.702 11.4446 22.2948 10.7891 21.8537C10.9489 21.5137 11.1442 21.2006 11.375 20.9141Z" fill="#4B45FB"/>
<path opacity="0.963" fill-rule="evenodd" clip-rule="evenodd" d="M38.5234 21.0078C38.7676 21.2891 38.9629 21.6023 39.1094 21.9474C38.3978 22.3206 37.7142 22.7278 37.0586 23.1689C36.9227 23.0023 36.8087 22.8144 36.7168 22.6052C36.5353 22.893 36.3562 23.1749 36.1797 23.4508C35.3315 23.3342 34.4852 23.2089 33.6406 23.075C33.8672 22.639 34.095 22.2005 34.3242 21.7595C35.06 21.9523 35.8087 22.062 36.5703 22.0884C37.2126 21.7034 37.8637 21.3433 38.5234 21.0078Z" fill="#4B45FB"/>
<path opacity="0.958" fill-rule="evenodd" clip-rule="evenodd" d="M10.7891 21.8516C11.4446 22.2927 12.1282 22.6998 12.8398 23.0731C12.4331 23.8563 11.9773 24.608 11.4727 25.3281C10.809 24.8987 10.1254 24.4916 9.42188 24.1066C9.8791 23.3517 10.3348 22.6 10.7891 21.8516Z" fill="#4E42FA"/>
<path opacity="0.962" fill-rule="evenodd" clip-rule="evenodd" d="M39.1133 21.9453C39.6103 22.6192 40.0335 23.3396 40.3828 24.1064C39.7159 24.537 39.0323 24.9442 38.332 25.3279C37.8841 24.6228 37.4609 23.9024 37.0625 23.1668C37.7181 22.7257 38.4017 22.3185 39.1133 21.9453Z" fill="#4E42FA"/>
<path opacity="0.962" fill-rule="evenodd" clip-rule="evenodd" d="M15.8672 22.5078C16.144 22.8521 16.3719 23.2279 16.5508 23.6353C15.7032 23.7519 14.8568 23.8771 14.0117 24.0112C13.7454 23.6281 13.5175 23.221 13.3281 22.7897C14.1713 22.671 15.0176 22.5771 15.8672 22.5078Z" fill="#4B45FB"/>
<path opacity="0.955" fill-rule="evenodd" clip-rule="evenodd" d="M33.6406 23.0703C34.4852 23.2043 35.3315 23.3296 36.1797 23.4462C35.7718 24.232 35.316 24.9837 34.8125 25.7012C34.6949 25.5095 34.5321 25.353 34.3242 25.2314C34.2377 25.1539 34.2052 25.0599 34.2266 24.9495C34.0638 24.9495 33.9011 24.9495 33.7383 24.9495C33.7383 24.8556 33.7383 24.7616 33.7383 24.6677C33.543 24.6677 33.3477 24.6677 33.1523 24.6677C33.0872 25.0435 33.0222 25.0435 32.957 24.6677C32.8594 24.6677 32.7617 24.6677 32.6641 24.6677C32.916 24.0881 33.2416 23.5556 33.6406 23.0703Z" fill="#4D43F9"/>
<path opacity="0.954" fill-rule="evenodd" clip-rule="evenodd" d="M27.8789 23.3516C28.0892 23.5671 28.252 23.8176 28.3672 24.1033C27.6575 24.4735 26.9739 24.8807 26.3164 25.3247C26.1062 25.1092 25.9434 24.8587 25.8281 24.5731C26.5397 24.1998 27.2233 23.7927 27.8789 23.3516Z" fill="#454BFC"/>
<path opacity="0.961" fill-rule="evenodd" clip-rule="evenodd" d="M21.9219 23.4453C22.663 23.7839 23.3792 24.1597 24.0703 24.5728C23.9303 24.8122 23.7676 25.0315 23.582 25.2306C22.8981 24.8543 22.2146 24.4784 21.5312 24.103C21.5878 23.837 21.718 23.6178 21.9219 23.4453Z" fill="#454BFB"/>
<path opacity="0.96" fill-rule="evenodd" clip-rule="evenodd" d="M16.5547 23.6406C17.1463 24.524 17.6996 25.4324 18.2148 26.3655C17.3822 26.5026 16.5359 26.6278 15.6758 26.7413C15.0869 25.8595 14.5335 24.9513 14.0156 24.0165C14.8607 23.8824 15.7071 23.7571 16.5547 23.6406Z" fill="#4E42FA"/>
<path opacity="0.96" fill-rule="evenodd" clip-rule="evenodd" d="M9.42188 24.1094C10.1254 24.4943 10.809 24.9015 11.4727 25.3309C11.3611 25.6707 11.1984 25.9839 10.9844 26.2705C10.2683 25.8633 9.55208 25.4561 8.83594 25.049C9.03125 24.7358 9.22656 24.4225 9.42188 24.1094Z" fill="#523FF9"/>
<path opacity="0.959" fill-rule="evenodd" clip-rule="evenodd" d="M21.5352 24.1094C22.2185 24.4847 22.9021 24.8606 23.5859 25.2369C23.4744 25.5768 23.3117 25.8899 23.0977 26.1765C22.9797 26.1076 22.8495 26.0763 22.707 26.0826C22.7349 25.9146 22.7023 25.7579 22.6094 25.6128C22.5521 25.6324 22.5033 25.6638 22.4629 25.7067C22.0473 25.5167 21.6078 25.4228 21.1445 25.4248C21.1445 25.3309 21.1445 25.2369 21.1445 25.1429C21.0469 25.1429 20.9492 25.1429 20.8516 25.1429C21.0563 24.7791 21.2843 24.4346 21.5352 24.1094Z" fill="#4648FB"/>
<path opacity="0.96" fill-rule="evenodd" clip-rule="evenodd" d="M28.3711 24.1094C28.7603 24.7324 29.1509 25.3589 29.543 25.9886C28.8248 26.3987 28.1087 26.806 27.3945 27.2101C27.0337 26.5821 26.6756 25.9557 26.3203 25.3309C26.9778 24.8868 27.6614 24.4796 28.3711 24.1094Z" fill="#4848FB"/>
<path opacity="0.957" fill-rule="evenodd" clip-rule="evenodd" d="M40.3789 24.1094C40.623 24.3907 40.8184 24.7039 40.9648 25.049C40.3073 25.493 39.6237 25.9003 38.9141 26.2705C38.7202 25.9606 38.5249 25.6474 38.3281 25.3309C39.0284 24.9471 39.712 24.54 40.3789 24.1094Z" fill="#523FF9"/>
<path opacity="0.976" fill-rule="evenodd" clip-rule="evenodd" d="M32.6641 24.6719C32.7617 24.6719 32.8594 24.6719 32.957 24.6719C33.0222 25.0477 33.0872 25.0477 33.1523 24.6719C33.3477 24.6719 33.543 24.6719 33.7383 24.6719C33.7383 24.7658 33.7383 24.8598 33.7383 24.9538C33.9011 24.9538 34.0638 24.9538 34.2266 24.9538C34.2052 25.0642 34.2377 25.1581 34.3242 25.2356C34.5321 25.3572 34.6949 25.5138 34.8125 25.7054C34.6881 26.0118 34.5254 26.2936 34.3242 26.5511C34.3242 26.4571 34.3242 26.3632 34.3242 26.2692C34.0269 26.2685 33.7339 26.2372 33.4453 26.1753C33.4453 26.0813 33.4453 25.9873 33.4453 25.8934C32.99 25.714 32.5343 25.62 32.0781 25.6115C32.238 25.2715 32.4333 24.9584 32.6641 24.6719Z" fill="#4F40F8"/>
<path opacity="0.961" fill-rule="evenodd" clip-rule="evenodd" d="M8.83594 25.0469C9.55208 25.454 10.2683 25.8612 10.9844 26.2684C10.6589 26.8008 10.3333 27.3332 10.0078 27.8657C9.26861 27.5303 8.55246 27.1544 7.85938 26.7382C8.18489 26.1744 8.51042 25.6106 8.83594 25.0469Z" fill="#553CF8"/>
<path opacity="0.962" fill-rule="evenodd" clip-rule="evenodd" d="M40.9648 25.0469C41.3215 25.6073 41.6796 26.171 42.0391 26.7382C41.3479 27.1513 40.6317 27.5272 39.8906 27.8657C39.5419 27.352 39.2164 26.8196 38.9141 26.2684C39.6237 25.8982 40.3073 25.4909 40.9648 25.0469Z" fill="#553CF8"/>
<path opacity="0.98" fill-rule="evenodd" clip-rule="evenodd" d="M20.8516 25.1406C20.9492 25.1406 21.0469 25.1406 21.1445 25.1406C21.1445 25.2346 21.1445 25.3285 21.1445 25.4225C21.6078 25.4204 22.0473 25.5144 22.4629 25.7044C22.5033 25.6615 22.5521 25.6301 22.6094 25.6104C22.7023 25.7556 22.7349 25.9122 22.707 26.0802C22.8495 26.0739 22.9797 26.1052 23.0977 26.1742C22.9335 26.4282 22.7708 26.6787 22.6094 26.9259C22.4692 26.8699 22.3064 26.8699 22.1211 26.9259C22.1211 26.8319 22.1211 26.738 22.1211 26.644C21.9583 26.644 21.7956 26.644 21.6328 26.644C21.6328 26.55 21.6328 26.4561 21.6328 26.3621C21.2342 26.1898 20.8436 26.0333 20.4609 25.8923C20.5487 25.6203 20.679 25.3697 20.8516 25.1406Z" fill="#4645F8"/>
<path opacity="0.988" fill-rule="evenodd" clip-rule="evenodd" d="M32.0781 25.6094C32.5343 25.6179 32.99 25.7119 33.4453 25.8913C33.4453 25.9852 33.4453 26.0792 33.4453 26.1731C33.7339 26.2351 34.0269 26.2664 34.3242 26.2671C34.3242 26.3611 34.3242 26.455 34.3242 26.549C34.2266 26.7369 34.1289 26.9248 34.0312 27.1128C33.9011 27.1128 33.7708 27.1128 33.6406 27.1128C33.6671 26.8947 33.602 26.7067 33.4453 26.549C32.8854 26.4461 32.3646 26.2582 31.8828 25.9852C31.9056 25.8385 31.9707 25.7132 32.0781 25.6094Z" fill="#503CF5"/>
<path opacity="0.961" fill-rule="evenodd" clip-rule="evenodd" d="M20.4609 25.8906C20.8436 26.0316 21.2342 26.1881 21.6328 26.3604C21.6328 26.4544 21.6328 26.5484 21.6328 26.6423C21.7956 26.6423 21.9583 26.6423 22.1211 26.6423C22.1211 26.7363 22.1211 26.8302 22.1211 26.9242C22.3064 26.8682 22.4692 26.8682 22.6094 26.9242C22.471 27.222 22.3083 27.5038 22.1211 27.7698C22.0836 27.5416 22.0185 27.3223 21.9258 27.1121C21.7305 27.0494 21.5352 26.9869 21.3398 26.9242C21.3253 26.5838 21.2113 26.5524 20.998 26.8302C20.7306 26.55 20.4214 26.4561 20.0703 26.5484C20.1269 26.2823 20.257 26.0631 20.4609 25.8906Z" fill="#4542F5"/>
<path opacity="0.96" fill-rule="evenodd" clip-rule="evenodd" d="M29.5391 25.9844C29.7047 26.2991 29.8675 26.6123 30.0273 26.924C29.3922 27.3708 28.7086 27.7466 27.9766 28.0515C27.7583 27.7893 27.563 27.5074 27.3906 27.2059C28.1048 26.8017 28.8209 26.3945 29.5391 25.9844Z" fill="#4B45FB"/>
<path opacity="0.958" fill-rule="evenodd" clip-rule="evenodd" d="M18.2109 26.3594C18.4944 26.7474 18.7549 27.1546 18.9922 27.5809C18.1143 27.6852 17.2354 27.7791 16.3555 27.8628C16.0786 27.5185 15.8508 27.1426 15.6719 26.7352C16.532 26.6217 17.3783 26.4965 18.2109 26.3594Z" fill="#523FF9"/>
<path opacity="0.982" fill-rule="evenodd" clip-rule="evenodd" d="M31.8828 25.9844C32.3646 26.2573 32.8854 26.4453 33.4453 26.5481C33.602 26.7059 33.6671 26.8938 33.6406 27.1119C33.7708 27.1119 33.9011 27.1119 34.0312 27.1119C33.8589 27.4134 33.6636 27.6953 33.4453 27.9576C33.4667 27.8472 33.4342 27.7532 33.3477 27.6757C33.1715 27.4427 32.9437 27.286 32.6641 27.2059C32.6641 27.1119 32.6641 27.0179 32.6641 26.924C32.2602 26.792 31.8695 26.698 31.4922 26.6421C31.5487 26.3761 31.6789 26.1569 31.8828 25.9844Z" fill="#5038F0"/>
<path opacity="0.966" fill-rule="evenodd" clip-rule="evenodd" d="M31.4961 26.6406C31.8734 26.6965 32.2641 26.7905 32.668 26.9225C32.668 27.0165 32.668 27.1104 32.668 27.2044C32.9476 27.2845 33.1754 27.4412 33.3516 27.6742C33.4381 27.7517 33.4706 27.8457 33.4492 27.9561C33.3927 28.2221 33.2625 28.4413 33.0586 28.6138C32.9641 28.4158 32.9314 28.1965 32.9609 27.9561C32.8213 27.9635 32.691 27.9322 32.5703 27.8621C32.4735 27.6908 32.3434 27.5499 32.1797 27.4393C31.7904 27.3924 31.3998 27.3767 31.0078 27.3923C31.123 27.1067 31.2858 26.8562 31.4961 26.6406Z" fill="#4F33EA"/>
<path opacity="0.953" fill-rule="evenodd" clip-rule="evenodd" d="M7.85938 26.7344C8.55246 27.1506 9.26861 27.5265 10.0078 27.8619C9.76689 28.3381 9.60416 28.8392 9.51953 29.3653C8.784 28.9333 8.0353 28.526 7.27344 28.1438C7.38907 27.64 7.58438 27.1702 7.85938 26.7344Z" fill="#5839F8"/>
<path opacity="0.956" fill-rule="evenodd" clip-rule="evenodd" d="M22.1211 27.7714C22.0466 27.9469 21.9489 28.1036 21.8281 28.2412C21.3086 27.5389 20.5924 27.1631 19.6797 27.1137C19.7749 26.898 19.9051 26.7101 20.0703 26.5499C20.4214 26.4576 20.7306 26.5516 20.998 26.8318C21.2113 26.554 21.3253 26.5853 21.3398 26.9258C21.5352 26.9884 21.7305 27.051 21.9258 27.1137C22.0185 27.3239 22.0836 27.5432 22.1211 27.7714Z" fill="#423DF0"/>
<path opacity="0.95" fill-rule="evenodd" clip-rule="evenodd" d="M42.0391 26.7344C42.3107 27.1737 42.5061 27.6435 42.625 28.1438C41.8631 28.526 41.1145 28.9333 40.3789 29.3653C40.259 28.8617 40.0962 28.3607 39.8906 27.8619C40.6317 27.5234 41.3479 27.1475 42.0391 26.7344Z" fill="#5839F8"/>
<path opacity="0.973" fill-rule="evenodd" clip-rule="evenodd" d="M30.0273 26.9219C30.2552 27.235 30.4831 27.5483 30.7109 27.8615C30.7109 27.8928 30.7109 27.9242 30.7109 27.9554C30.7266 28.1108 30.7916 28.236 30.9062 28.3313C31.0442 28.6283 31.207 28.9102 31.3945 29.1769C30.7126 29.5502 30.029 29.926 29.3438 30.3045C29.3112 30.3045 29.2786 30.3045 29.2461 30.3045C28.7721 29.5802 28.3488 28.8285 27.9766 28.0494C28.7086 27.7445 29.3922 27.3687 30.0273 26.9219Z" fill="#4E42FA"/>
<path opacity="0.984" fill-rule="evenodd" clip-rule="evenodd" d="M19.6797 27.1172C20.5924 27.1666 21.3086 27.5425 21.8281 28.2447C21.7129 28.5304 21.5501 28.7809 21.3398 28.9964C21.4896 28.8233 21.457 28.6981 21.2422 28.6206C21.1492 28.4754 21.1167 28.3188 21.1445 28.1508C21.0469 28.1508 20.9492 28.1508 20.8516 28.1508C20.8516 28.0568 20.8516 27.9628 20.8516 27.8689C20.3984 27.7072 19.9427 27.5818 19.4844 27.493C19.5495 27.3678 19.6146 27.2424 19.6797 27.1172Z" fill="#3F39EA"/>
<path opacity="0.982" fill-rule="evenodd" clip-rule="evenodd" d="M31.0039 27.3965C31.3959 27.3809 31.7865 27.3966 32.1758 27.4434C32.3395 27.554 32.4696 27.695 32.5664 27.8663C32.6871 27.9364 32.8174 27.9676 32.957 27.9602C32.9275 28.2007 32.9602 28.42 33.0547 28.618C32.9981 28.884 32.868 29.1032 32.6641 29.2757C32.5992 28.8276 32.4039 28.4517 32.0781 28.1481C31.9916 28.0706 31.9591 27.9767 31.9805 27.8663C31.5478 27.841 31.1245 27.8723 30.7109 27.9602C30.7109 27.9289 30.7109 27.8976 30.7109 27.8663C30.784 27.6941 30.8816 27.5375 31.0039 27.3965Z" fill="#4D2DE4"/>
<path opacity="0.98" fill-rule="evenodd" clip-rule="evenodd" d="M18.9961 27.5859C19.0383 27.6996 19.1034 27.7936 19.1914 27.8678C19.1683 27.9891 19.2008 28.0831 19.2891 28.1497C19.582 28.6508 19.875 29.152 20.168 29.6531C19.293 29.778 18.4141 29.8719 17.5312 29.935C17.0986 29.2681 16.708 28.579 16.3594 27.8678C17.2393 27.7842 18.1182 27.6902 18.9961 27.5859Z" fill="#553CF8"/>
<path opacity="0.984" fill-rule="evenodd" clip-rule="evenodd" d="M19.4838 27.4922C19.9421 27.581 20.3978 27.7063 20.851 27.868C20.851 27.962 20.851 28.056 20.851 28.1499C20.9486 28.1499 21.0463 28.1499 21.1439 28.1499C21.1161 28.3179 21.1486 28.4746 21.2416 28.6197C21.4564 28.6972 21.4891 28.8225 21.3392 28.9956C21.2912 29.2135 21.1935 29.4014 21.0463 29.5593C21.0619 29.3997 21.0457 29.2431 20.9975 29.0895C20.9649 29.1835 20.9323 29.2774 20.8998 29.3714C20.8513 29.1228 20.835 28.8722 20.851 28.6197C20.3827 28.3517 19.8782 28.1637 19.3373 28.056C19.2983 28.0774 19.2821 28.1088 19.2885 28.1499C19.2002 28.0833 19.1677 27.9893 19.1908 27.868C19.2885 27.7428 19.3861 27.6174 19.4838 27.4922Z" fill="#3B34E4"/>
<path opacity="0.998" fill-rule="evenodd" clip-rule="evenodd" d="M32.6641 29.2773C32.5396 29.5836 32.377 29.8655 32.1758 30.1229C32.208 29.6052 32.143 29.1041 31.9805 28.6195C31.6245 28.5212 31.2827 28.3959 30.9551 28.2437C30.9161 28.2651 30.8999 28.2965 30.9062 28.3377C30.7916 28.2424 30.7266 28.1171 30.7109 27.9618C31.1245 27.8739 31.5478 27.8426 31.9805 27.8678C31.9591 27.9782 31.9916 28.0722 32.0781 28.1497C32.4039 28.4533 32.5992 28.8292 32.6641 29.2773Z" fill="#4C29DD"/>
<path opacity="0.962" fill-rule="evenodd" clip-rule="evenodd" d="M7.275 28.1484C8.03686 28.5307 8.78556 28.9379 9.52109 29.3699C9.49647 30.1912 9.65923 30.9741 10.0094 31.719C9.0579 31.152 8.08133 30.6195 7.07968 30.1216C7.03575 29.4483 7.10086 28.7906 7.275 28.1484Z" fill="#5B37F7"/>
<path opacity="0.958" fill-rule="evenodd" clip-rule="evenodd" d="M42.6289 28.1484C42.7909 28.7949 42.856 29.4526 42.8242 30.1216C41.7991 30.6617 40.79 31.2255 39.7969 31.8129C40.2009 31.0474 40.3962 30.2332 40.3828 29.3699C41.1184 28.9379 41.867 28.5307 42.6289 28.1484Z" fill="#5B37F7"/>
<path fill-rule="evenodd" clip-rule="evenodd" d="M21.0443 29.5581C20.9141 29.8087 20.7839 30.0592 20.6537 30.3098C20.4562 30.1189 20.2934 29.8996 20.1654 29.652C19.8724 29.1509 19.5795 28.6497 19.2865 28.1486C19.2801 28.1075 19.2964 28.0761 19.3353 28.0547C19.8762 28.1625 20.3807 28.3504 20.849 28.6185C20.833 28.8709 20.8493 29.1215 20.8978 29.3701C20.9303 29.2762 20.963 29.1822 20.9955 29.0883C21.0437 29.2418 21.0599 29.3984 21.0443 29.5581Z" fill="#372EDC"/>
<path fill-rule="evenodd" clip-rule="evenodd" d="M32.1771 30.1214C32.1771 30.1841 32.1446 30.2154 32.0795 30.2154C32.0469 30.2154 32.0143 30.2154 31.9818 30.2154C31.7865 29.8708 31.5912 29.5264 31.3959 29.1818C31.2084 28.915 31.0456 28.6332 30.9076 28.3361C30.9012 28.295 30.9175 28.2636 30.9564 28.2422C31.2841 28.3944 31.6259 28.5197 31.9818 28.618C32.1443 29.1026 32.2093 29.6037 32.1771 30.1214Z" fill="#4A24D6"/>
<path fill-rule="evenodd" clip-rule="evenodd" d="M31.3945 29.1797C31.5898 29.5242 31.7852 29.8687 31.9805 30.2133C31.2689 30.4792 30.5854 30.855 29.9297 31.3408C29.7084 31.0087 29.5131 30.6643 29.3438 30.3072C30.029 29.9287 30.7126 29.5529 31.3945 29.1797Z" fill="#523FF9"/>
<path opacity="0.983" fill-rule="evenodd" clip-rule="evenodd" d="M20.168 29.6484C20.296 29.896 20.4588 30.1153 20.6562 30.3062C20.819 30.6193 20.9817 30.9326 21.1445 31.2458C20.3687 31.2874 19.6036 31.3814 18.8496 31.5277C18.6868 31.4337 18.5566 31.3084 18.459 31.1518C18.42 31.1732 18.4038 31.2046 18.4102 31.2458C18.2304 30.8997 18.0025 30.5865 17.7266 30.3062C17.6614 30.1809 17.5964 30.0556 17.5312 29.9303C18.4141 29.8673 19.293 29.7733 20.168 29.6484Z" fill="#583AF8"/>
<path opacity="0.966" fill-rule="evenodd" clip-rule="evenodd" d="M7.07812 30.1172C8.07978 30.6151 9.05634 31.1476 10.0078 31.7145C10.8297 32.8468 11.969 33.4732 13.4258 33.5938C13.702 33.7789 13.9949 33.9511 14.3047 34.1105C14.3906 34.2379 14.4232 34.3789 14.4023 34.5334C14.8896 34.8451 15.3779 35.1584 15.8672 35.473C12.3689 36.5588 9.65082 35.5878 7.71289 32.5602C7.31729 31.7893 7.1057 30.9751 7.07812 30.1172Z" fill="#6033F6"/>
<path opacity="0.965" fill-rule="evenodd" clip-rule="evenodd" d="M42.8242 30.1172C42.5194 32.9119 40.9895 34.7754 38.2344 35.7079C37.1351 35.9769 36.0283 36.0082 34.9141 35.8018C34.4148 35.7101 33.9592 35.5379 33.5469 35.2851C34.5234 34.7213 35.5 34.1575 36.4766 33.5938C37.8762 33.4846 38.9829 32.8895 39.7969 31.8085C40.79 31.221 41.7991 30.6573 42.8242 30.1172Z" fill="#6033F6"/>
<path opacity="0.978" fill-rule="evenodd" clip-rule="evenodd" d="M31.9805 30.2109C32.013 30.2109 32.0456 30.2109 32.0781 30.2109C32.3972 30.731 32.6901 31.2635 32.957 31.8083C32.2693 32.1905 31.5857 32.5664 30.9062 32.9358C30.7689 32.8914 30.7038 32.7974 30.7109 32.6539C30.6364 32.4784 30.5388 32.3218 30.418 32.1841C30.28 31.8871 30.1172 31.6052 29.9297 31.3385C30.5854 30.8527 31.2689 30.4768 31.9805 30.2109Z" fill="#553CF8"/>
<path fill-rule="evenodd" clip-rule="evenodd" d="M17.7227 30.3047C17.9986 30.5851 18.2265 30.8982 18.4062 31.2443C18.5364 31.4949 18.6667 31.7454 18.7969 31.996C18.6422 32.1152 18.4632 32.2092 18.2598 32.2779C18.084 32.1954 17.905 32.1327 17.7227 32.0899C17.7462 31.6795 17.6485 31.3037 17.4297 30.9624C17.5007 30.7318 17.5983 30.5126 17.7227 30.3047Z" fill="#3D27D1"/>
<path fill-rule="evenodd" clip-rule="evenodd" d="M29.2482 30.3047C29.2807 30.3047 29.3133 30.3047 29.3459 30.3047C29.5152 30.6617 29.7105 31.0062 29.9318 31.3383C30.1193 31.605 30.2821 31.8869 30.4201 32.1839C30.3636 32.2823 30.2986 32.2666 30.2248 32.1369C29.9664 32.0902 29.7059 32.0745 29.4435 32.0899C29.4253 31.896 29.3764 31.7081 29.297 31.5262C29.2645 31.5575 29.2319 31.5889 29.1994 31.6201C29.1507 31.277 29.1344 30.9325 29.1506 30.5866C29.1561 30.4824 29.1886 30.3884 29.2482 30.3047Z" fill="#4924D2"/>
<path opacity="0.991" fill-rule="evenodd" clip-rule="evenodd" d="M29.1523 30.5938C29.1362 30.9397 29.1524 31.2842 29.2012 31.6273C29.2337 31.596 29.2663 31.5647 29.2988 31.5334C29.3782 31.7153 29.4271 31.9032 29.4453 32.0971C29.7077 32.0817 29.9682 32.0974 30.2266 32.1441C30.3004 32.2738 30.3654 32.2895 30.4219 32.1911C30.5427 32.3287 30.6403 32.4854 30.7148 32.6609C30.6823 32.6609 30.6497 32.6609 30.6172 32.6609C30.1207 32.6054 29.6324 32.5114 29.1523 32.379C29.1523 32.2851 29.1523 32.1911 29.1523 32.0971C29.0547 32.0971 28.957 32.0971 28.8594 32.0971C28.8934 31.7516 28.8283 31.501 28.6641 31.3454C28.7782 31.0625 28.941 30.8119 29.1523 30.5938Z" fill="#4C27D8"/>
<path opacity="0.968" fill-rule="evenodd" clip-rule="evenodd" d="M21.142 31.2502C21.5555 32.0241 22.1415 32.6504 22.8998 33.1294C21.8545 33.2379 20.8129 33.3632 19.7748 33.5053C19.5419 33.2813 19.3466 33.0308 19.1888 32.7536C19.212 32.6323 19.1795 32.5383 19.0912 32.4717C19.0167 32.2962 18.919 32.1396 18.7982 32.0019C18.668 31.7513 18.5378 31.5008 18.4076 31.2502C18.4012 31.2091 18.4175 31.1777 18.4564 31.1562C18.5541 31.3129 18.6842 31.4381 18.847 31.5321C19.601 31.3858 20.3661 31.2918 21.142 31.2502Z" fill="#5B37F7"/>
<path opacity="0.992" fill-rule="evenodd" clip-rule="evenodd" d="M28.6602 31.3438C28.8244 31.4993 28.8895 31.7499 28.8555 32.0954C28.9531 32.0954 29.0508 32.0954 29.1484 32.0954C29.1484 32.1894 29.1484 32.2834 29.1484 32.3773C29.6285 32.5097 30.1168 32.6037 30.6133 32.6592C30.6301 32.7524 30.5975 32.815 30.5156 32.8471C30.2705 32.8939 30.0264 32.9565 29.7832 33.0351C29.4788 32.9374 29.1695 32.8591 28.8555 32.8001C28.888 32.7689 28.9206 32.7375 28.9531 32.7062C28.6005 32.494 28.4052 32.1964 28.3672 31.8136C28.4417 31.638 28.5394 31.4814 28.6602 31.3438Z" fill="#502ADD"/>
<path opacity="0.978" fill-rule="evenodd" clip-rule="evenodd" d="M17.0391 31.625C17.0475 31.7186 17.0148 31.7969 16.9414 31.8599C17.1918 32.3201 17.5662 32.649 18.0645 32.8465C18.3592 32.8013 18.6359 32.7073 18.8945 32.5646C19.0355 32.7038 19.1007 32.6725 19.0898 32.4707C19.1781 32.5373 19.2106 32.6312 19.1875 32.7525C19.0586 32.937 18.9283 33.1249 18.7969 33.3163C18.6134 33.3264 18.5809 33.2794 18.6992 33.1754C18.3086 33.1441 17.918 33.1127 17.5273 33.0814C17.1814 32.827 16.8885 32.5295 16.6484 32.1888C16.7305 31.9677 16.8607 31.7798 17.0391 31.625Z" fill="#482DDD"/>
<path opacity="0.96" fill-rule="evenodd" clip-rule="evenodd" d="M32.957 31.8125C33.2799 32.1858 33.638 32.5304 34.0312 32.8461C33.314 33.3059 32.5652 33.7131 31.7852 34.0676C31.3974 33.7598 31.1044 33.3839 30.9062 32.94C31.5857 32.5706 32.2693 32.1947 32.957 31.8125Z" fill="#5839F8"/>
<path fill-rule="evenodd" clip-rule="evenodd" d="M17.4336 30.9688C17.6524 31.31 17.7501 31.6859 17.7266 32.0963C17.9089 32.139 18.0879 32.2017 18.2637 32.2842C18.4671 32.2155 18.6461 32.1216 18.8008 32.0023C18.9216 32.14 19.0192 32.2966 19.0938 32.4721C19.1046 32.674 19.0395 32.7052 18.8984 32.5661C18.6398 32.7088 18.3631 32.8028 18.0684 32.848C17.5701 32.6505 17.1957 32.3216 16.9453 31.8614C17.0187 31.7983 17.0514 31.7201 17.043 31.6265C17.0995 31.3605 17.2297 31.1413 17.4336 30.9688Z" fill="#442AD8"/>
<path opacity="0.988" fill-rule="evenodd" clip-rule="evenodd" d="M28.3672 31.8125C28.4052 32.1954 28.6005 32.493 28.9531 32.7051C28.9206 32.7364 28.888 32.7678 28.8555 32.7991C29.1695 32.858 29.4788 32.9364 29.7832 33.034C30.0264 32.9554 30.2705 32.8929 30.5156 32.8461C30.4294 33.1471 30.2666 33.3977 30.0273 33.5978C29.8677 33.4742 29.705 33.4742 29.5391 33.5978C29.1591 33.4077 28.7685 33.2511 28.3672 33.128C28.1946 32.8989 28.0645 32.6483 27.9766 32.3763C28.0692 32.1623 28.1994 31.9744 28.3672 31.8125Z" fill="#542DE4"/>
<path opacity="0.987" fill-rule="evenodd" clip-rule="evenodd" d="M16.6523 32.1875C16.8924 32.5282 17.1854 32.8258 17.5312 33.0801C17.9219 33.1114 18.3125 33.1428 18.7031 33.1741C18.5848 33.2781 18.6173 33.3251 18.8008 33.315C18.7031 33.4717 18.5729 33.5969 18.4102 33.6909C18.4165 33.6497 18.4003 33.6183 18.3613 33.5969C18.2794 33.7025 18.1654 33.7652 18.0195 33.7848C17.1718 33.6607 16.6185 33.2222 16.3594 32.4694C16.4245 32.3441 16.5222 32.2502 16.6523 32.1875Z" fill="#4D2FE4"/>
<path opacity="0.968" fill-rule="evenodd" clip-rule="evenodd" d="M27.9766 32.375C28.0645 32.647 28.1946 32.8976 28.3672 33.1267C28.7685 33.2499 29.1591 33.4064 29.5391 33.5965C29.705 33.4729 29.8677 33.4729 30.0273 33.5965C29.8646 33.8157 29.6692 34.0036 29.4414 34.1603C29.4117 34.0992 29.3792 34.0365 29.3438 33.9723C28.8266 33.9638 28.4033 33.7759 28.0742 33.4086C27.9233 33.3191 27.7605 33.2878 27.5859 33.3146C27.5859 33.0954 27.5859 32.8761 27.5859 32.6569C27.7124 32.564 27.8426 32.4701 27.9766 32.375Z" fill="#572FEB"/>
<path opacity="0.982" fill-rule="evenodd" clip-rule="evenodd" d="M16.3555 32.4688C16.6146 33.2216 17.1679 33.6601 18.0156 33.7842C18.1615 33.7646 18.2755 33.7019 18.3574 33.5963C18.3964 33.6177 18.4126 33.6491 18.4062 33.6902C18.3165 33.9335 18.1537 34.1214 17.918 34.254C17.4196 34.123 16.9313 33.9665 16.4531 33.7842C16.3089 33.4444 16.1136 33.1312 15.8672 32.8446C16.0275 32.7222 16.1903 32.5969 16.3555 32.4688Z" fill="#5232EA"/>
<path opacity="0.953" fill-rule="evenodd" clip-rule="evenodd" d="M34.0352 32.8438C34.7692 33.3193 35.583 33.5698 36.4766 33.5954C35.5 34.1592 34.5234 34.723 33.5469 35.2867C32.8513 35.0245 32.2653 34.6173 31.7891 34.0652C32.5691 33.7107 33.3179 33.3036 34.0352 32.8438Z" fill="#5B37F7"/>
<path opacity="0.98" fill-rule="evenodd" clip-rule="evenodd" d="M27.5898 32.6562C27.5898 32.8755 27.5898 33.0948 27.5898 33.314C27.7645 33.2872 27.9272 33.3185 28.0781 33.4079C28.4072 33.7752 28.8305 33.9632 29.3477 33.9717C29.3831 34.0359 29.4156 34.0986 29.4453 34.1596C29.2452 34.4462 28.9848 34.6654 28.6641 34.8174C28.6641 34.7234 28.6641 34.6294 28.6641 34.5355C28.5664 34.5355 28.4688 34.5355 28.3711 34.5355C28.3711 34.6294 28.3711 34.7234 28.3711 34.8174C28.2734 34.8174 28.1758 34.8174 28.0781 34.8174C28.0552 34.413 27.8272 34.2564 27.3945 34.3476C27.3945 34.2536 27.3945 34.1596 27.3945 34.0657C27.2969 34.0657 27.1992 34.0657 27.1016 34.0657C27.1016 33.9717 27.1016 33.8777 27.1016 33.7838C27.0039 33.7838 26.9062 33.7838 26.8086 33.7838C26.787 33.5805 26.6894 33.4239 26.5156 33.314C26.8835 33.1207 27.2415 32.9014 27.5898 32.6562Z" fill="#5C32F1"/>
<path opacity="0.982" fill-rule="evenodd" clip-rule="evenodd" d="M15.8672 32.8438C16.1136 33.1303 16.3089 33.4436 16.4531 33.7834C16.9313 33.9656 17.4196 34.1222 17.918 34.2532C17.6934 34.4866 17.4329 34.6745 17.1367 34.8169C16.884 34.821 16.6725 34.9149 16.502 35.0988C16.4536 34.9134 16.4373 34.7255 16.4531 34.5351C16.3555 34.5351 16.2578 34.5351 16.1602 34.5351C16.095 34.9109 16.03 34.9109 15.9648 34.5351C15.8672 34.5351 15.7695 34.5351 15.6719 34.5351C15.6394 34.2532 15.4766 34.0965 15.1836 34.0652C15.1836 33.8773 15.1836 33.6894 15.1836 33.5015C15.0196 33.5217 14.922 33.459 14.8906 33.3136C15.2438 33.2063 15.5693 33.0497 15.8672 32.8438Z" fill="#5834F1"/>
<path opacity="0.961" fill-rule="evenodd" clip-rule="evenodd" d="M22.8984 33.125C24.0758 33.662 25.2802 33.7247 26.5117 33.3129C26.6854 33.4229 26.7831 33.5794 26.8047 33.7827C26.9023 33.7827 27 33.7827 27.0977 33.7827C27.0977 33.8767 27.0977 33.9707 27.0977 34.0646C27.1953 34.0646 27.293 34.0646 27.3906 34.0646C27.3906 34.1586 27.3906 34.2525 27.3906 34.3465C27.8233 34.2554 28.0513 34.412 28.0742 34.8163C28.1719 34.8163 28.2695 34.8163 28.3672 34.8163C28.3672 34.7223 28.3672 34.6284 28.3672 34.5344C28.4648 34.5344 28.5625 34.5344 28.6602 34.5344C28.6602 34.6284 28.6602 34.7223 28.6602 34.8163C26.8241 36.0055 24.8385 36.2717 22.7031 35.615C21.4886 35.2043 20.512 34.4996 19.7734 33.5008C20.8115 33.3588 21.8531 33.2334 22.8984 33.125Z" fill="#6033F6"/>
<path opacity="0.941" fill-rule="evenodd" clip-rule="evenodd" d="M14.8945 33.3125C14.9259 33.458 15.0235 33.5206 15.1875 33.5004C15.1875 33.6883 15.1875 33.8763 15.1875 34.0642C15.4805 34.0955 15.6433 34.2521 15.6758 34.534C15.7734 34.534 15.8711 34.534 15.9688 34.534C16.0339 34.9098 16.0989 34.9098 16.1641 34.534C16.2617 34.534 16.3594 34.534 16.457 34.534C16.4412 34.7245 16.4575 34.9124 16.5059 35.0978C16.6764 34.9139 16.8879 34.8199 17.1406 34.8159C16.7919 35.1561 16.3688 35.3753 15.8711 35.4736C15.3818 35.159 14.8936 34.8458 14.4062 34.534C14.4271 34.3795 14.3945 34.2386 14.3086 34.1112C13.9988 33.9517 13.7059 33.7795 13.4297 33.5944C13.936 33.5707 14.4243 33.4767 14.8945 33.3125Z" fill="#5C35F5"/>
</svg>
