<?xml version="1.0" encoding="UTF-8"?>
<svg xmlns="http://www.w3.org/2000/svg" xmlns:xlink="http://www.w3.org/1999/xlink" width="50px" height="50px" viewBox="0 0 50 50" version="1.1">
<defs>
<filter id="alpha" filterUnits="objectBoundingBox" x="0%" y="0%" width="100%" height="100%">
  <feColorMatrix type="matrix" in="SourceGraphic" values="0 0 0 0 1 0 0 0 0 1 0 0 0 0 1 0 0 0 1 0"/>
</filter>
<mask id="mask0">
  <g filter="url(#alpha)">
<rect x="0" y="0" width="50" height="50" style="fill:rgb(0%,0%,0%);fill-opacity:0.592157;stroke:none;"/>
  </g>
</mask>
<clipPath id="clip1">
  <rect x="0" y="0" width="50" height="50"/>
</clipPath>
<g id="surface5" clip-path="url(#clip1)">
<path style=" stroke:none;fill-rule:evenodd;fill:rgb(60%,48.235294%,27.45098%);fill-opacity:1;" d="M 25.238281 2 C 25.410156 2 25.582031 2 25.753906 2 C 26.210938 2.34375 26.667969 2.6875 27.125 3.03125 C 26.679688 2.921875 26.28125 2.722656 25.921875 2.429688 C 25.585938 2.34375 25.242188 2.316406 24.894531 2.34375 C 25.007812 2.230469 25.121094 2.113281 25.238281 2 Z M 25.238281 2 "/>
</g>
<mask id="mask1">
  <g filter="url(#alpha)">
<rect x="0" y="0" width="50" height="50" style="fill:rgb(0%,0%,0%);fill-opacity:0.764706;stroke:none;"/>
  </g>
</mask>
<clipPath id="clip2">
  <rect x="0" y="0" width="50" height="50"/>
</clipPath>
<g id="surface8" clip-path="url(#clip2)">
<path style=" stroke:none;fill-rule:evenodd;fill:rgb(56.078431%,49.411765%,28.627451%);fill-opacity:1;" d="M 24.894531 2.34375 C 24.789062 2.582031 24.617188 2.753906 24.378906 2.859375 C 24.261719 2.859375 24.148438 2.859375 24.035156 2.859375 C 24.234375 2.558594 24.519531 2.386719 24.894531 2.34375 Z M 24.894531 2.34375 "/>
</g>
<mask id="mask2">
  <g filter="url(#alpha)">
<rect x="0" y="0" width="50" height="50" style="fill:rgb(0%,0%,0%);fill-opacity:0.647059;stroke:none;"/>
  </g>
</mask>
<clipPath id="clip3">
  <rect x="0" y="0" width="50" height="50"/>
</clipPath>
<g id="surface11" clip-path="url(#clip3)">
<path style=" stroke:none;fill-rule:evenodd;fill:rgb(54.901961%,41.568627%,29.411765%);fill-opacity:1;" d="M 27.125 3.03125 C 28.300781 3.53125 29.386719 4.160156 30.390625 4.917969 C 30.332031 4.917969 30.273438 4.917969 30.21875 4.917969 C 29.675781 4.675781 29.160156 4.390625 28.671875 4.0625 C 28.269531 3.832031 27.871094 3.601562 27.46875 3.375 C 27.296875 3.316406 27.183594 3.203125 27.125 3.03125 Z M 27.125 3.03125 "/>
</g>
<mask id="mask3">
  <g filter="url(#alpha)">
<rect x="0" y="0" width="50" height="50" style="fill:rgb(0%,0%,0%);fill-opacity:0.733333;stroke:none;"/>
  </g>
</mask>
<clipPath id="clip4">
  <rect x="0" y="0" width="50" height="50"/>
</clipPath>
<g id="surface14" clip-path="url(#clip4)">
<path style=" stroke:none;fill-rule:evenodd;fill:rgb(47.058824%,53.333333%,34.509804%);fill-opacity:1;" d="M 20.425781 4.917969 C 20.257812 5.246094 19.972656 5.417969 19.570312 5.433594 C 19.769531 5.132812 20.054688 4.960938 20.425781 4.917969 Z M 20.425781 4.917969 "/>
</g>
<mask id="mask4">
  <g filter="url(#alpha)">
<rect x="0" y="0" width="50" height="50" style="fill:rgb(0%,0%,0%);fill-opacity:0.580392;stroke:none;"/>
  </g>
</mask>
<clipPath id="clip5">
  <rect x="0" y="0" width="50" height="50"/>
</clipPath>
<g id="surface17" clip-path="url(#clip5)">
<path style=" stroke:none;fill-rule:evenodd;fill:rgb(56.862745%,53.333333%,31.764706%);fill-opacity:1;" d="M 25.921875 3.890625 C 25.738281 3.882812 25.566406 3.824219 25.410156 3.71875 C 24.195312 4.496094 22.933594 5.183594 21.628906 5.777344 C 21.574219 5.777344 21.515625 5.777344 21.457031 5.777344 C 21.800781 5.550781 22.144531 5.320312 22.488281 5.089844 C 23.121094 4.832031 23.691406 4.492188 24.207031 4.0625 C 24.578125 3.847656 24.980469 3.675781 25.410156 3.546875 C 25.671875 3.539062 25.84375 3.652344 25.921875 3.890625 Z M 25.921875 3.890625 "/>
</g>
<mask id="mask5">
  <g filter="url(#alpha)">
<rect x="0" y="0" width="50" height="50" style="fill:rgb(0%,0%,0%);fill-opacity:0.619608;stroke:none;"/>
  </g>
</mask>
<clipPath id="clip6">
  <rect x="0" y="0" width="50" height="50"/>
</clipPath>
<g id="surface20" clip-path="url(#clip6)">
<path style=" stroke:none;fill-rule:evenodd;fill:rgb(47.058824%,32.54902%,34.509804%);fill-opacity:1;" d="M 31.933594 5.777344 C 32.996094 6.222656 33.96875 6.792969 34.855469 7.496094 C 34.109375 7.152344 33.367188 6.808594 32.621094 6.464844 C 32.394531 6.238281 32.164062 6.007812 31.933594 5.777344 Z M 31.933594 5.777344 "/>
</g>
<mask id="mask6">
  <g filter="url(#alpha)">
<rect x="0" y="0" width="50" height="50" style="fill:rgb(0%,0%,0%);fill-opacity:0.792157;stroke:none;"/>
  </g>
</mask>
<clipPath id="clip7">
  <rect x="0" y="0" width="50" height="50"/>
</clipPath>
<g id="surface23" clip-path="url(#clip7)">
<path style=" stroke:none;fill-rule:evenodd;fill:rgb(44.705882%,56.470588%,37.647059%);fill-opacity:1;" d="M 18.367188 6.121094 C 18.195312 6.449219 17.910156 6.621094 17.507812 6.636719 C 17.707031 6.335938 17.992188 6.164062 18.367188 6.121094 Z M 18.367188 6.121094 "/>
</g>
<mask id="mask7">
  <g filter="url(#alpha)">
<rect x="0" y="0" width="50" height="50" style="fill:rgb(0%,0%,0%);fill-opacity:0.682353;stroke:none;"/>
  </g>
</mask>
<clipPath id="clip8">
  <rect x="0" y="0" width="50" height="50"/>
</clipPath>
<g id="surface26" clip-path="url(#clip8)">
<path style=" stroke:none;fill-rule:evenodd;fill:rgb(49.411765%,55.686275%,36.862745%);fill-opacity:1;" d="M 21.457031 5.777344 C 21.515625 5.777344 21.574219 5.777344 21.628906 5.777344 C 20.664062 6.492188 19.632812 7.121094 18.539062 7.667969 C 18.421875 7.667969 18.308594 7.667969 18.195312 7.667969 C 18.71875 7.261719 19.289062 6.917969 19.910156 6.636719 C 20.398438 6.308594 20.914062 6.019531 21.457031 5.777344 Z M 21.457031 5.777344 "/>
</g>
<mask id="mask8">
  <g filter="url(#alpha)">
<rect x="0" y="0" width="50" height="50" style="fill:rgb(0%,0%,0%);fill-opacity:0.592157;stroke:none;"/>
  </g>
</mask>
<clipPath id="clip9">
  <rect x="0" y="0" width="50" height="50"/>
</clipPath>
<g id="surface29" clip-path="url(#clip9)">
<path style=" stroke:none;fill-rule:evenodd;fill:rgb(46.27451%,29.411765%,43.529412%);fill-opacity:1;" d="M 35.199219 7.667969 C 36.945312 8.511719 38.605469 9.484375 40.179688 10.585938 C 39.949219 10.53125 39.722656 10.472656 39.492188 10.417969 C 38.863281 9.929688 38.175781 9.527344 37.429688 9.214844 C 37.136719 8.921875 36.796875 8.695312 36.402344 8.527344 C 36.027344 8.40625 35.683594 8.234375 35.371094 8.011719 C 35.3125 7.898438 35.253906 7.78125 35.199219 7.667969 Z M 35.199219 7.667969 "/>
</g>
<mask id="mask9">
  <g filter="url(#alpha)">
<rect x="0" y="0" width="50" height="50" style="fill:rgb(0%,0%,0%);fill-opacity:0.615686;stroke:none;"/>
  </g>
</mask>
<clipPath id="clip10">
  <rect x="0" y="0" width="50" height="50"/>
</clipPath>
<g id="surface32" clip-path="url(#clip10)">
<path style=" stroke:none;fill-rule:evenodd;fill:rgb(36.470588%,56.470588%,39.607843%);fill-opacity:1;" d="M 18.195312 7.667969 C 18.308594 7.667969 18.421875 7.667969 18.539062 7.667969 C 16.484375 8.867188 14.421875 10.070312 12.355469 11.273438 C 12.355469 11.21875 12.355469 11.160156 12.355469 11.101562 C 12.355469 10.988281 12.414062 10.929688 12.527344 10.929688 C 13.785156 10.1875 15.046875 9.441406 16.304688 8.699219 C 16.933594 8.355469 17.566406 8.011719 18.195312 7.667969 Z M 18.195312 7.667969 "/>
</g>
<mask id="mask10">
  <g filter="url(#alpha)">
<rect x="0" y="0" width="50" height="50" style="fill:rgb(0%,0%,0%);fill-opacity:0.415686;stroke:none;"/>
  </g>
</mask>
<clipPath id="clip11">
  <rect x="0" y="0" width="50" height="50"/>
</clipPath>
<g id="surface35" clip-path="url(#clip11)">
<path style=" stroke:none;fill-rule:evenodd;fill:rgb(27.45098%,59.607843%,43.921569%);fill-opacity:1;" d="M 10.980469 10.414062 C 10.679688 10.769531 10.277344 11 9.777344 11.101562 C 10.09375 10.746094 10.496094 10.515625 10.980469 10.414062 Z M 10.980469 10.414062 "/>
</g>
<mask id="mask11">
  <g filter="url(#alpha)">
<rect x="0" y="0" width="50" height="50" style="fill:rgb(0%,0%,0%);fill-opacity:0.572549;stroke:none;"/>
  </g>
</mask>
<clipPath id="clip12">
  <rect x="0" y="0" width="50" height="50"/>
</clipPath>
<g id="surface38" clip-path="url(#clip12)">
<path style=" stroke:none;fill-rule:evenodd;fill:rgb(40.784314%,22.745098%,46.27451%);fill-opacity:1;" d="M 40.179688 10.757812 C 40.179688 10.703125 40.179688 10.644531 40.179688 10.589844 C 40.664062 10.6875 41.066406 10.917969 41.382812 11.273438 C 40.960938 11.148438 40.558594 10.976562 40.179688 10.757812 Z M 40.179688 10.757812 "/>
</g>
<mask id="mask12">
  <g filter="url(#alpha)">
<rect x="0" y="0" width="50" height="50" style="fill:rgb(0%,0%,0%);fill-opacity:0.513725;stroke:none;"/>
  </g>
</mask>
<clipPath id="clip13">
  <rect x="0" y="0" width="50" height="50"/>
</clipPath>
<g id="surface41" clip-path="url(#clip13)">
<path style=" stroke:none;fill-rule:evenodd;fill:rgb(25.098039%,55.686275%,42.352941%);fill-opacity:1;" d="M 9.777344 11.101562 C 9.464844 11.460938 9.0625 11.691406 8.578125 11.789062 C 8.890625 11.429688 9.292969 11.203125 9.777344 11.101562 Z M 9.777344 11.101562 "/>
</g>
<mask id="mask13">
  <g filter="url(#alpha)">
<rect x="0" y="0" width="50" height="50" style="fill:rgb(0%,0%,0%);fill-opacity:0.556863;stroke:none;"/>
  </g>
</mask>
<clipPath id="clip14">
  <rect x="0" y="0" width="50" height="50"/>
</clipPath>
<g id="surface44" clip-path="url(#clip14)">
<path style=" stroke:none;fill-rule:evenodd;fill:rgb(38.039216%,20.392157%,47.45098%);fill-opacity:1;" d="M 41.382812 11.273438 C 41.867188 11.375 42.269531 11.601562 42.585938 11.960938 C 42.097656 11.863281 41.695312 11.632812 41.382812 11.273438 Z M 41.382812 11.273438 "/>
</g>
<mask id="mask14">
  <g filter="url(#alpha)">
<rect x="0" y="0" width="50" height="50" style="fill:rgb(0%,0%,0%);fill-opacity:0.368627;stroke:none;"/>
  </g>
</mask>
<clipPath id="clip15">
  <rect x="0" y="0" width="50" height="50"/>
</clipPath>
<g id="surface47" clip-path="url(#clip15)">
<path style=" stroke:none;fill-rule:evenodd;fill:rgb(33.72549%,18.039216%,47.058824%);fill-opacity:1;" d="M 41.382812 12.820312 C 41.644531 12.808594 41.816406 12.921875 41.898438 13.164062 C 41.632812 13.175781 41.464844 13.0625 41.382812 12.820312 Z M 41.382812 12.820312 "/>
</g>
<mask id="mask15">
  <g filter="url(#alpha)">
<rect x="0" y="0" width="50" height="50" style="fill:rgb(0%,0%,0%);fill-opacity:0.45098;stroke:none;"/>
  </g>
</mask>
<clipPath id="clip16">
  <rect x="0" y="0" width="50" height="50"/>
</clipPath>
<g id="surface50" clip-path="url(#clip16)">
<path style=" stroke:none;fill-rule:evenodd;fill:rgb(33.333333%,16.862745%,45.882353%);fill-opacity:1;" d="M 42.585938 13.507812 C 42.847656 13.496094 43.019531 13.609375 43.097656 13.851562 C 42.835938 13.863281 42.664062 13.75 42.585938 13.507812 Z M 42.585938 13.507812 "/>
</g>
<mask id="mask16">
  <g filter="url(#alpha)">
<rect x="0" y="0" width="50" height="50" style="fill:rgb(0%,0%,0%);fill-opacity:0.682353;stroke:none;"/>
  </g>
</mask>
<clipPath id="clip17">
  <rect x="0" y="0" width="50" height="50"/>
</clipPath>
<g id="surface53" clip-path="url(#clip17)">
<path style=" stroke:none;fill-rule:evenodd;fill:rgb(12.54902%,79.607843%,50.588235%);fill-opacity:1;" d="M 23.003906 22.09375 C 23.570312 22.238281 24.085938 22.496094 24.550781 22.867188 C 24.949219 22.984375 25.351562 22.984375 25.75 22.867188 C 30.796875 19.945312 35.777344 16.941406 40.695312 13.851562 C 35.78125 10.992188 30.800781 8.214844 25.75 5.519531 C 25.464844 5.40625 25.179688 5.40625 24.894531 5.519531 C 23.582031 6.175781 22.324219 6.921875 21.113281 7.753906 C 20.171875 8.269531 19.199219 8.699219 18.195312 9.042969 C 20.5 7.628906 22.875 6.3125 25.324219 5.089844 C 30.515625 7.875 35.695312 10.679688 40.867188 13.507812 C 41.082031 13.765625 41.082031 14.023438 40.867188 14.28125 C 35.828125 17.257812 30.789062 20.234375 25.75 23.210938 C 24.691406 23.214844 23.773438 22.839844 23.003906 22.09375 Z M 23.003906 22.09375 "/>
</g>
<mask id="mask17">
  <g filter="url(#alpha)">
<rect x="0" y="0" width="50" height="50" style="fill:rgb(0%,0%,0%);fill-opacity:0.176471;stroke:none;"/>
  </g>
</mask>
<clipPath id="clip18">
  <rect x="0" y="0" width="50" height="50"/>
</clipPath>
<g id="surface56" clip-path="url(#clip18)">
<path style=" stroke:none;fill-rule:evenodd;fill:rgb(30.196078%,60.392157%,46.27451%);fill-opacity:1;" d="M 12.355469 11.101562 C 12.355469 11.160156 12.355469 11.21875 12.355469 11.273438 C 10.769531 12.167969 9.195312 13.082031 7.632812 14.023438 C 7.488281 21.007812 7.515625 27.992188 7.71875 34.976562 C 10.191406 36.324219 12.59375 37.757812 14.929688 39.269531 C 14.875 39.269531 14.816406 39.269531 14.757812 39.269531 C 13.695312 38.652344 12.605469 38.078125 11.496094 37.554688 C 10.117188 36.675781 8.714844 35.820312 7.289062 34.976562 C 7.171875 27.992188 7.171875 21.007812 7.289062 14.023438 C 8.917969 12.9375 10.605469 11.964844 12.355469 11.101562 Z M 12.355469 11.101562 "/>
</g>
<mask id="mask18">
  <g filter="url(#alpha)">
<rect x="0" y="0" width="50" height="50" style="fill:rgb(0%,0%,0%);fill-opacity:0.678431;stroke:none;"/>
  </g>
</mask>
<clipPath id="clip19">
  <rect x="0" y="0" width="50" height="50"/>
</clipPath>
<g id="surface59" clip-path="url(#clip19)">
<path style=" stroke:none;fill-rule:evenodd;fill:rgb(43.137255%,23.921569%,54.901961%);fill-opacity:1;" d="M 43.097656 13.851562 C 43.269531 13.851562 43.441406 13.851562 43.613281 13.851562 C 43.644531 20.894531 43.613281 27.933594 43.527344 34.976562 C 43.300781 35.164062 43.042969 35.277344 42.753906 35.320312 C 42.894531 35.089844 43.097656 34.917969 43.355469 34.804688 C 43.386719 31.339844 43.414062 27.878906 43.441406 24.414062 C 43.441406 20.855469 43.328125 17.335938 43.097656 13.851562 Z M 43.097656 13.851562 "/>
</g>
<mask id="mask19">
  <g filter="url(#alpha)">
<rect x="0" y="0" width="50" height="50" style="fill:rgb(0%,0%,0%);fill-opacity:0.631373;stroke:none;"/>
  </g>
</mask>
<clipPath id="clip20">
  <rect x="0" y="0" width="50" height="50"/>
</clipPath>
<g id="surface62" clip-path="url(#clip20)">
<path style=" stroke:none;fill-rule:evenodd;fill:rgb(30.196078%,59.607843%,48.235294%);fill-opacity:1;" d="M 6.515625 12.992188 C 6.464844 13.128906 6.378906 13.242188 6.257812 13.335938 C 6.144531 20.777344 6.144531 28.222656 6.257812 35.664062 C 6.378906 35.757812 6.464844 35.871094 6.515625 36.007812 C 6.324219 35.996094 6.152344 35.941406 6 35.835938 C 6 28.277344 6 20.722656 6 13.164062 C 6.152344 13.058594 6.324219 13.003906 6.515625 12.992188 Z M 6.515625 12.992188 "/>
</g>
<mask id="mask20">
  <g filter="url(#alpha)">
<rect x="0" y="0" width="50" height="50" style="fill:rgb(0%,0%,0%);fill-opacity:0.517647;stroke:none;"/>
  </g>
</mask>
<clipPath id="clip21">
  <rect x="0" y="0" width="50" height="50"/>
</clipPath>
<g id="surface65" clip-path="url(#clip21)">
<path style=" stroke:none;fill-rule:evenodd;fill:rgb(12.54902%,80%,50.980392%);fill-opacity:1;" d="M 15.101562 17.457031 C 15.839844 17.769531 16.585938 18.085938 17.335938 18.402344 C 19.265625 19.585938 21.15625 20.816406 23.003906 22.09375 C 20.3125 20.636719 17.679688 19.089844 15.101562 17.457031 Z M 15.101562 17.457031 "/>
</g>
<mask id="mask21">
  <g filter="url(#alpha)">
<rect x="0" y="0" width="50" height="50" style="fill:rgb(0%,0%,0%);fill-opacity:0.886275;stroke:none;"/>
  </g>
</mask>
<clipPath id="clip22">
  <rect x="0" y="0" width="50" height="50"/>
</clipPath>
<g id="surface68" clip-path="url(#clip22)">
<path style=" stroke:none;fill-rule:evenodd;fill:rgb(62.745098%,35.294118%,78.039216%);fill-opacity:1;" d="M 42.070312 33.429688 C 41.839844 32.261719 41.726562 31.03125 41.726562 29.738281 C 41.914062 25.070312 41.914062 20.40625 41.726562 15.742188 C 40.953125 16.15625 40.210938 16.613281 39.492188 17.113281 C 39.03125 17.289062 38.574219 17.460938 38.117188 17.628906 C 39.222656 16.875 40.367188 16.160156 41.554688 15.484375 C 41.773438 15.367188 41.972656 15.394531 42.15625 15.570312 C 42.226562 21.523438 42.199219 27.476562 42.070312 33.429688 Z M 42.070312 33.429688 "/>
</g>
<mask id="mask22">
  <g filter="url(#alpha)">
<rect x="0" y="0" width="50" height="50" style="fill:rgb(0%,0%,0%);fill-opacity:0.839216;stroke:none;"/>
  </g>
</mask>
<clipPath id="clip23">
  <rect x="0" y="0" width="50" height="50"/>
</clipPath>
<g id="surface71" clip-path="url(#clip23)">
<path style=" stroke:none;fill-rule:evenodd;fill:rgb(46.666667%,25.882353%,58.431373%);fill-opacity:1;" d="M 42.585938 12.132812 C 42.585938 12.078125 42.585938 12.019531 42.585938 11.960938 C 43.328125 12.304688 44.074219 12.648438 44.816406 12.992188 C 44.816406 20.605469 44.816406 28.222656 44.816406 35.835938 C 43.328125 36.695312 41.839844 37.554688 40.351562 38.414062 C 40.351562 38.355469 40.351562 38.296875 40.351562 38.242188 C 40.488281 38.03125 40.660156 37.859375 40.867188 37.726562 C 41.496094 37.46875 42.070312 37.125 42.585938 36.695312 C 43.300781 36.464844 43.960938 36.121094 44.558594 35.664062 C 44.703125 28.164062 44.671875 20.664062 44.472656 13.164062 C 43.839844 12.816406 43.210938 12.472656 42.585938 12.132812 Z M 42.585938 12.132812 "/>
</g>
<mask id="mask23">
  <g filter="url(#alpha)">
<rect x="0" y="0" width="50" height="50" style="fill:rgb(0%,0%,0%);fill-opacity:0.580392;stroke:none;"/>
  </g>
</mask>
<clipPath id="clip24">
  <rect x="0" y="0" width="50" height="50"/>
</clipPath>
<g id="surface74" clip-path="url(#clip24)">
<path style=" stroke:none;fill-rule:evenodd;fill:rgb(90.588235%,67.058824%,15.686275%);fill-opacity:1;" d="M 24.550781 25.1875 C 24.753906 31.128906 24.867188 37.082031 24.894531 43.050781 C 24.148438 42.992188 23.519531 42.707031 23.003906 42.191406 C 23.503906 42.410156 24.019531 42.582031 24.550781 42.707031 C 24.523438 36.835938 24.523438 30.996094 24.550781 25.1875 Z M 24.550781 25.1875 "/>
</g>
<mask id="mask24">
  <g filter="url(#alpha)">
<rect x="0" y="0" width="50" height="50" style="fill:rgb(0%,0%,0%);fill-opacity:0.831373;stroke:none;"/>
  </g>
</mask>
<clipPath id="clip25">
  <rect x="0" y="0" width="50" height="50"/>
</clipPath>
<g id="surface77" clip-path="url(#clip25)">
<path style=" stroke:none;fill-rule:evenodd;fill:rgb(43.921569%,23.921569%,54.117647%);fill-opacity:1;" d="M 42.753906 35.320312 C 42.785156 35.492188 42.726562 35.605469 42.585938 35.664062 C 42.355469 35.722656 42.125 35.777344 41.898438 35.835938 C 42.097656 35.535156 42.382812 35.363281 42.753906 35.320312 Z M 42.753906 35.320312 "/>
</g>
<mask id="mask25">
  <g filter="url(#alpha)">
<rect x="0" y="0" width="50" height="50" style="fill:rgb(0%,0%,0%);fill-opacity:0.4;stroke:none;"/>
  </g>
</mask>
<clipPath id="clip26">
  <rect x="0" y="0" width="50" height="50"/>
</clipPath>
<g id="surface80" clip-path="url(#clip26)">
<path style=" stroke:none;fill-rule:evenodd;fill:rgb(62.352941%,35.294118%,77.254902%);fill-opacity:1;" d="M 41.726562 33.945312 C 37.917969 36.277344 34.082031 38.570312 30.21875 40.816406 C 30.292969 40.546875 30.464844 40.347656 30.734375 40.214844 C 34.398438 38.15625 38.003906 36.007812 41.554688 33.773438 C 41.65625 33.796875 41.714844 33.851562 41.726562 33.945312 Z M 41.726562 33.945312 "/>
</g>
<mask id="mask26">
  <g filter="url(#alpha)">
<rect x="0" y="0" width="50" height="50" style="fill:rgb(0%,0%,0%);fill-opacity:0.388235;stroke:none;"/>
  </g>
</mask>
<clipPath id="clip27">
  <rect x="0" y="0" width="50" height="50"/>
</clipPath>
<g id="surface83" clip-path="url(#clip27)">
<path style=" stroke:none;fill-rule:evenodd;fill:rgb(21.960784%,50.196078%,37.254902%);fill-opacity:1;" d="M 7.203125 36.351562 C 7.464844 36.339844 7.636719 36.453125 7.71875 36.695312 C 7.457031 36.707031 7.285156 36.59375 7.203125 36.351562 Z M 7.203125 36.351562 "/>
</g>
<mask id="mask27">
  <g filter="url(#alpha)">
<rect x="0" y="0" width="50" height="50" style="fill:rgb(0%,0%,0%);fill-opacity:0.423529;stroke:none;"/>
  </g>
</mask>
<clipPath id="clip28">
  <rect x="0" y="0" width="50" height="50"/>
</clipPath>
<g id="surface86" clip-path="url(#clip28)">
<path style=" stroke:none;fill-rule:evenodd;fill:rgb(22.745098%,54.117647%,40%);fill-opacity:1;" d="M 8.40625 37.039062 C 8.667969 37.027344 8.839844 37.140625 8.917969 37.382812 C 8.65625 37.394531 8.484375 37.28125 8.40625 37.039062 Z M 8.40625 37.039062 "/>
</g>
<mask id="mask28">
  <g filter="url(#alpha)">
<rect x="0" y="0" width="50" height="50" style="fill:rgb(0%,0%,0%);fill-opacity:0.862745;stroke:none;"/>
  </g>
</mask>
<clipPath id="clip29">
  <rect x="0" y="0" width="50" height="50"/>
</clipPath>
<g id="surface89" clip-path="url(#clip29)">
<path style=" stroke:none;fill-rule:evenodd;fill:rgb(63.137255%,36.470588%,78.431373%);fill-opacity:1;" d="M 26.265625 24.671875 C 26.4375 30.597656 26.496094 36.550781 26.4375 42.535156 C 26.675781 42.5625 26.902344 42.53125 27.125 42.449219 C 27.984375 41.847656 28.902344 41.359375 29.875 40.988281 C 28.882812 41.6875 27.851562 42.34375 26.78125 42.964844 C 26.621094 43.070312 26.476562 43.042969 26.351562 42.878906 C 26.070312 36.78125 26.039062 30.714844 26.265625 24.671875 Z M 26.265625 24.671875 "/>
</g>
<mask id="mask29">
  <g filter="url(#alpha)">
<rect x="0" y="0" width="50" height="50" style="fill:rgb(0%,0%,0%);fill-opacity:0.329412;stroke:none;"/>
  </g>
</mask>
<clipPath id="clip30">
  <rect x="0" y="0" width="50" height="50"/>
</clipPath>
<g id="surface92" clip-path="url(#clip30)">
<path style=" stroke:none;fill-rule:evenodd;fill:rgb(26.27451%,61.176471%,42.745098%);fill-opacity:1;" d="M 8.917969 37.382812 C 9.347656 37.335938 9.632812 37.507812 9.777344 37.898438 C 9.445312 37.792969 9.160156 37.621094 8.917969 37.382812 Z M 8.917969 37.382812 "/>
</g>
<mask id="mask30">
  <g filter="url(#alpha)">
<rect x="0" y="0" width="50" height="50" style="fill:rgb(0%,0%,0%);fill-opacity:0.72549;stroke:none;"/>
  </g>
</mask>
<clipPath id="clip31">
  <rect x="0" y="0" width="50" height="50"/>
</clipPath>
<g id="surface95" clip-path="url(#clip31)">
<path style=" stroke:none;fill-rule:evenodd;fill:rgb(26.27451%,57.254902%,43.137255%);fill-opacity:1;" d="M 10.464844 38.242188 C 10.695312 38.296875 10.921875 38.355469 11.152344 38.414062 C 11.210938 38.527344 11.265625 38.640625 11.324219 38.757812 C 10.949219 38.714844 10.664062 38.542969 10.464844 38.242188 Z M 10.464844 38.242188 "/>
</g>
<mask id="mask31">
  <g filter="url(#alpha)">
<rect x="0" y="0" width="50" height="50" style="fill:rgb(0%,0%,0%);fill-opacity:0.745098;stroke:none;"/>
  </g>
</mask>
<clipPath id="clip32">
  <rect x="0" y="0" width="50" height="50"/>
</clipPath>
<g id="surface98" clip-path="url(#clip32)">
<path style=" stroke:none;fill-rule:evenodd;fill:rgb(47.843137%,31.372549%,42.745098%);fill-opacity:1;" d="M 37.085938 38.585938 C 36.917969 38.910156 36.632812 39.082031 36.230469 39.097656 C 36.429688 38.796875 36.714844 38.625 37.085938 38.585938 Z M 37.085938 38.585938 "/>
</g>
<mask id="mask32">
  <g filter="url(#alpha)">
<rect x="0" y="0" width="50" height="50" style="fill:rgb(0%,0%,0%);fill-opacity:0.411765;stroke:none;"/>
  </g>
</mask>
<clipPath id="clip33">
  <rect x="0" y="0" width="50" height="50"/>
</clipPath>
<g id="surface101" clip-path="url(#clip33)">
<path style=" stroke:none;fill-rule:evenodd;fill:rgb(26.666667%,50.980392%,36.862745%);fill-opacity:1;" d="M 11.667969 38.925781 C 11.929688 38.914062 12.101562 39.03125 12.183594 39.269531 C 11.921875 39.285156 11.75 39.167969 11.667969 38.925781 Z M 11.667969 38.925781 "/>
</g>
<mask id="mask33">
  <g filter="url(#alpha)">
<rect x="0" y="0" width="50" height="50" style="fill:rgb(0%,0%,0%);fill-opacity:0.403922;stroke:none;"/>
  </g>
</mask>
<clipPath id="clip34">
  <rect x="0" y="0" width="50" height="50"/>
</clipPath>
<g id="surface104" clip-path="url(#clip34)">
<path style=" stroke:none;fill-rule:evenodd;fill:rgb(47.45098%,29.411765%,43.529412%);fill-opacity:1;" d="M 40.351562 38.242188 C 40.351562 38.296875 40.351562 38.355469 40.351562 38.414062 C 38.515625 39.445312 36.683594 40.476562 34.855469 41.503906 C 34.796875 41.503906 34.742188 41.503906 34.683594 41.503906 C 34.960938 41.191406 35.304688 40.964844 35.714844 40.816406 C 36.285156 40.472656 36.859375 40.128906 37.429688 39.785156 C 38.117188 39.386719 38.804688 38.984375 39.492188 38.585938 C 39.757812 38.421875 40.042969 38.308594 40.351562 38.242188 Z M 40.351562 38.242188 "/>
</g>
<mask id="mask34">
  <g filter="url(#alpha)">
<rect x="0" y="0" width="50" height="50" style="fill:rgb(0%,0%,0%);fill-opacity:0.356863;stroke:none;"/>
  </g>
</mask>
<clipPath id="clip35">
  <rect x="0" y="0" width="50" height="50"/>
</clipPath>
<g id="surface107" clip-path="url(#clip35)">
<path style=" stroke:none;fill-rule:evenodd;fill:rgb(29.019608%,47.843137%,33.72549%);fill-opacity:1;" d="M 13.730469 40.128906 C 13.992188 40.117188 14.164062 40.230469 14.246094 40.472656 C 13.980469 40.484375 13.808594 40.371094 13.730469 40.128906 Z M 13.730469 40.128906 "/>
</g>
<mask id="mask35">
  <g filter="url(#alpha)">
<rect x="0" y="0" width="50" height="50" style="fill:rgb(0%,0%,0%);fill-opacity:0.713725;stroke:none;"/>
  </g>
</mask>
<clipPath id="clip36">
  <rect x="0" y="0" width="50" height="50"/>
</clipPath>
<g id="surface110" clip-path="url(#clip36)">
<path style=" stroke:none;fill-rule:evenodd;fill:rgb(43.137255%,52.54902%,34.509804%);fill-opacity:1;" d="M 14.757812 39.269531 C 14.816406 39.269531 14.875 39.269531 14.929688 39.269531 C 17.25 40.402344 19.480469 41.660156 21.628906 43.050781 C 21.515625 43.050781 21.402344 43.050781 21.285156 43.050781 C 20.941406 42.878906 20.597656 42.707031 20.253906 42.535156 C 19.554688 42.066406 18.8125 41.664062 18.023438 41.332031 C 17.371094 40.746094 16.625 40.289062 15.789062 39.957031 C 15.730469 39.8125 15.617188 39.757812 15.445312 39.785156 C 15.21875 39.613281 14.988281 39.441406 14.757812 39.269531 Z M 14.757812 39.269531 "/>
</g>
<mask id="mask36">
  <g filter="url(#alpha)">
<rect x="0" y="0" width="50" height="50" style="fill:rgb(0%,0%,0%);fill-opacity:0.811765;stroke:none;"/>
  </g>
</mask>
<clipPath id="clip37">
  <rect x="0" y="0" width="50" height="50"/>
</clipPath>
<g id="surface113" clip-path="url(#clip37)">
<path style=" stroke:none;fill-rule:evenodd;fill:rgb(56.078431%,41.960784%,37.647059%);fill-opacity:1;" d="M 31.761719 41.675781 C 31.59375 42.003906 31.308594 42.175781 30.90625 42.191406 C 31.105469 41.890625 31.390625 41.71875 31.761719 41.675781 Z M 31.761719 41.675781 "/>
</g>
<mask id="mask37">
  <g filter="url(#alpha)">
<rect x="0" y="0" width="50" height="50" style="fill:rgb(0%,0%,0%);fill-opacity:0.388235;stroke:none;"/>
  </g>
</mask>
<clipPath id="clip38">
  <rect x="0" y="0" width="50" height="50"/>
</clipPath>
<g id="surface116" clip-path="url(#clip38)">
<path style=" stroke:none;fill-rule:evenodd;fill:rgb(48.235294%,33.72549%,33.72549%);fill-opacity:1;" d="M 34.683594 41.503906 C 34.742188 41.503906 34.796875 41.503906 34.855469 41.503906 C 33.582031 42.316406 32.265625 43.058594 30.90625 43.738281 C 31.617188 43.179688 32.363281 42.664062 33.136719 42.191406 C 33.308594 42.21875 33.421875 42.164062 33.480469 42.019531 C 33.855469 41.804688 34.257812 41.632812 34.683594 41.503906 Z M 34.683594 41.503906 "/>
</g>
<mask id="mask38">
  <g filter="url(#alpha)">
<rect x="0" y="0" width="50" height="50" style="fill:rgb(0%,0%,0%);fill-opacity:0.380392;stroke:none;"/>
  </g>
</mask>
<clipPath id="clip39">
  <rect x="0" y="0" width="50" height="50"/>
</clipPath>
<g id="surface119" clip-path="url(#clip39)">
<path style=" stroke:none;fill-rule:evenodd;fill:rgb(34.117647%,48.235294%,30.588235%);fill-opacity:1;" d="M 16.992188 42.019531 C 17.253906 42.007812 17.425781 42.121094 17.507812 42.363281 C 17.246094 42.375 17.074219 42.261719 16.992188 42.019531 Z M 16.992188 42.019531 "/>
</g>
<mask id="mask39">
  <g filter="url(#alpha)">
<rect x="0" y="0" width="50" height="50" style="fill:rgb(0%,0%,0%);fill-opacity:0.772549;stroke:none;"/>
  </g>
</mask>
<clipPath id="clip40">
  <rect x="0" y="0" width="50" height="50"/>
</clipPath>
<g id="surface122" clip-path="url(#clip40)">
<path style=" stroke:none;fill-rule:evenodd;fill:rgb(57.254902%,44.313725%,36.470588%);fill-opacity:1;" d="M 30.90625 42.191406 C 30.933594 42.359375 30.875 42.476562 30.734375 42.535156 C 30.390625 42.648438 30.046875 42.761719 29.703125 42.878906 C 30.019531 42.519531 30.417969 42.289062 30.90625 42.191406 Z M 30.90625 42.191406 "/>
</g>
<mask id="mask40">
  <g filter="url(#alpha)">
<rect x="0" y="0" width="50" height="50" style="fill:rgb(0%,0%,0%);fill-opacity:0.384314;stroke:none;"/>
  </g>
</mask>
<clipPath id="clip41">
  <rect x="0" y="0" width="50" height="50"/>
</clipPath>
<g id="surface125" clip-path="url(#clip41)">
<path style=" stroke:none;fill-rule:evenodd;fill:rgb(34.117647%,43.921569%,28.235294%);fill-opacity:1;" d="M 18.195312 42.707031 C 18.457031 42.695312 18.628906 42.808594 18.710938 43.050781 C 18.449219 43.0625 18.277344 42.949219 18.195312 42.707031 Z M 18.195312 42.707031 "/>
</g>
<mask id="mask41">
  <g filter="url(#alpha)">
<rect x="0" y="0" width="50" height="50" style="fill:rgb(0%,0%,0%);fill-opacity:0.407843;stroke:none;"/>
  </g>
</mask>
<clipPath id="clip42">
  <rect x="0" y="0" width="50" height="50"/>
</clipPath>
<g id="surface128" clip-path="url(#clip42)">
<path style=" stroke:none;fill-rule:evenodd;fill:rgb(55.686275%,44.705882%,33.333333%);fill-opacity:1;" d="M 29.703125 42.878906 C 29.398438 43.230469 29 43.460938 28.5 43.566406 C 28.816406 43.207031 29.214844 42.976562 29.703125 42.878906 Z M 29.703125 42.878906 "/>
</g>
<mask id="mask42">
  <g filter="url(#alpha)">
<rect x="0" y="0" width="50" height="50" style="fill:rgb(0%,0%,0%);fill-opacity:0.423529;stroke:none;"/>
  </g>
</mask>
<clipPath id="clip43">
  <rect x="0" y="0" width="50" height="50"/>
</clipPath>
<g id="surface131" clip-path="url(#clip43)">
<path style=" stroke:none;fill-rule:evenodd;fill:rgb(40.784314%,45.882353%,27.843137%);fill-opacity:1;" d="M 19.398438 43.394531 C 19.660156 43.378906 19.832031 43.496094 19.914062 43.738281 C 19.648438 43.75 19.476562 43.632812 19.398438 43.394531 Z M 19.398438 43.394531 "/>
</g>
<mask id="mask43">
  <g filter="url(#alpha)">
<rect x="0" y="0" width="50" height="50" style="fill:rgb(0%,0%,0%);fill-opacity:0.360784;stroke:none;"/>
  </g>
</mask>
<clipPath id="clip44">
  <rect x="0" y="0" width="50" height="50"/>
</clipPath>
<g id="surface134" clip-path="url(#clip44)">
<path style=" stroke:none;fill-rule:evenodd;fill:rgb(49.019608%,34.901961%,27.843137%);fill-opacity:1;" d="M 30.734375 43.738281 C 30.789062 43.738281 30.847656 43.738281 30.90625 43.738281 C 30.707031 44.035156 30.417969 44.207031 30.046875 44.25 C 30.207031 44 30.4375 43.828125 30.734375 43.738281 Z M 30.734375 43.738281 "/>
</g>
<mask id="mask44">
  <g filter="url(#alpha)">
<rect x="0" y="0" width="50" height="50" style="fill:rgb(0%,0%,0%);fill-opacity:0.364706;stroke:none;"/>
  </g>
</mask>
<clipPath id="clip45">
  <rect x="0" y="0" width="50" height="50"/>
</clipPath>
<g id="surface137" clip-path="url(#clip45)">
<path style=" stroke:none;fill-rule:evenodd;fill:rgb(38.039216%,42.745098%,25.882353%);fill-opacity:1;" d="M 20.253906 43.90625 C 20.371094 43.90625 20.484375 43.90625 20.597656 43.90625 C 20.65625 44.023438 20.714844 44.136719 20.769531 44.25 C 20.507812 44.265625 20.335938 44.148438 20.253906 43.90625 Z M 20.253906 43.90625 "/>
</g>
<mask id="mask45">
  <g filter="url(#alpha)">
<rect x="0" y="0" width="50" height="50" style="fill:rgb(0%,0%,0%);fill-opacity:0.4;stroke:none;"/>
  </g>
</mask>
<clipPath id="clip46">
  <rect x="0" y="0" width="50" height="50"/>
</clipPath>
<g id="surface140" clip-path="url(#clip46)">
<path style=" stroke:none;fill-rule:evenodd;fill:rgb(41.176471%,41.960784%,25.882353%);fill-opacity:1;" d="M 21.457031 44.59375 C 21.71875 44.582031 21.890625 44.699219 21.972656 44.9375 C 21.710938 44.953125 21.539062 44.835938 21.457031 44.59375 Z M 21.457031 44.59375 "/>
</g>
<mask id="mask46">
  <g filter="url(#alpha)">
<rect x="0" y="0" width="50" height="50" style="fill:rgb(0%,0%,0%);fill-opacity:0.341176;stroke:none;"/>
  </g>
</mask>
<clipPath id="clip47">
  <rect x="0" y="0" width="50" height="50"/>
</clipPath>
<g id="surface143" clip-path="url(#clip47)">
<path style=" stroke:none;fill-rule:evenodd;fill:rgb(58.039216%,51.764706%,29.411765%);fill-opacity:1;" d="M 21.285156 43.050781 C 21.402344 43.050781 21.515625 43.050781 21.628906 43.050781 C 22.796875 43.664062 23.941406 44.320312 25.066406 45.023438 C 25.550781 45.097656 26.007812 45.011719 26.4375 44.765625 C 26.4375 44.824219 26.4375 44.882812 26.4375 44.9375 C 26.113281 45.089844 25.796875 45.257812 25.492188 45.453125 C 25.105469 45.304688 24.734375 45.132812 24.378906 44.9375 C 23.925781 44.65625 23.46875 44.367188 23.003906 44.082031 C 22.425781 43.734375 21.851562 43.390625 21.285156 43.050781 Z M 21.285156 43.050781 "/>
</g>
<mask id="mask47">
  <g filter="url(#alpha)">
<rect x="0" y="0" width="50" height="50" style="fill:rgb(0%,0%,0%);fill-opacity:0.466667;stroke:none;"/>
  </g>
</mask>
<clipPath id="clip48">
  <rect x="0" y="0" width="50" height="50"/>
</clipPath>
<g id="surface146" clip-path="url(#clip48)">
<path style=" stroke:none;fill-rule:evenodd;fill:rgb(56.862745%,45.490196%,29.019608%);fill-opacity:1;" d="M 30.046875 44.253906 C 28.558594 45.167969 27.070312 46.085938 25.582031 47 C 25.464844 47 25.351562 47 25.238281 47 C 24.949219 46.769531 24.664062 46.542969 24.378906 46.3125 C 24.75 46.328125 25.09375 46.441406 25.410156 46.65625 C 25.863281 46.429688 26.324219 46.199219 26.78125 45.96875 C 27.46875 45.570312 28.15625 45.167969 28.84375 44.765625 C 29.210938 44.511719 29.613281 44.339844 30.046875 44.253906 Z M 30.046875 44.253906 "/>
</g>
<mask id="mask48">
  <g filter="url(#alpha)">
<rect x="0" y="0" width="50" height="50" style="fill:rgb(0%,0%,0%);fill-opacity:0.447059;stroke:none;"/>
  </g>
</mask>
<clipPath id="clip49">
  <rect x="0" y="0" width="50" height="50"/>
</clipPath>
<g id="surface149" clip-path="url(#clip49)">
<path style=" stroke:none;fill-rule:evenodd;fill:rgb(47.45098%,45.490196%,25.882353%);fill-opacity:1;" d="M 22.660156 45.28125 C 22.921875 45.269531 23.09375 45.382812 23.175781 45.625 C 22.914062 45.636719 22.742188 45.523438 22.660156 45.28125 Z M 22.660156 45.28125 "/>
</g>
<mask id="mask49">
  <g filter="url(#alpha)">
<rect x="0" y="0" width="50" height="50" style="fill:rgb(0%,0%,0%);fill-opacity:0.458824;stroke:none;"/>
  </g>
</mask>
<clipPath id="clip50">
  <rect x="0" y="0" width="50" height="50"/>
</clipPath>
<g id="surface152" clip-path="url(#clip50)">
<path style=" stroke:none;fill-rule:evenodd;fill:rgb(52.156863%,43.529412%,24.705882%);fill-opacity:1;" d="M 23.863281 45.96875 C 23.976562 45.96875 24.089844 45.96875 24.207031 45.96875 C 24.261719 46.085938 24.320312 46.199219 24.378906 46.3125 C 24.117188 46.324219 23.945312 46.210938 23.863281 45.96875 Z M 23.863281 45.96875 "/>
</g>
</defs>
<g id="surface1">
<path style=" stroke:none;fill-rule:nonzero;fill:rgb(85.098039%,85.098039%,85.098039%);fill-opacity:0.0509804;" d="M 50 25 C 50 38.808594 38.808594 50 25 50 C 11.191406 50 0 38.808594 0 25 C 0 11.191406 11.191406 0 25 0 C 38.808594 0 50 11.191406 50 25 Z M 50 25 "/>
<use xlink:href="#surface5" mask="url(#mask0)"/>
<use xlink:href="#surface8" mask="url(#mask1)"/>
<path style=" stroke:none;fill-rule:evenodd;fill:rgb(91.764706%,77.254902%,48.235294%);fill-opacity:1;" d="M 24.894531 2.34375 C 25.242188 2.316406 25.585938 2.34375 25.921875 2.429688 C 26.28125 2.722656 26.679688 2.921875 27.125 3.03125 C 27.183594 3.203125 27.296875 3.316406 27.46875 3.375 C 27.46875 3.71875 27.46875 4.0625 27.46875 4.40625 C 27.054688 4.339844 26.652344 4.226562 26.265625 4.0625 C 26.097656 4.089844 25.980469 4.03125 25.921875 3.890625 C 25.84375 3.652344 25.671875 3.539062 25.410156 3.546875 C 24.980469 3.675781 24.578125 3.847656 24.207031 4.0625 C 24.03125 3.582031 24.085938 3.183594 24.378906 2.859375 C 24.617188 2.753906 24.789062 2.582031 24.894531 2.34375 Z M 24.894531 2.34375 "/>
<path style=" stroke:none;fill-rule:evenodd;fill:rgb(63.529412%,59.215686%,35.686275%);fill-opacity:1;" d="M 24.035156 2.859375 C 23.800781 3.375 23.402344 3.605469 22.832031 3.546875 C 23.148438 3.1875 23.546875 2.957031 24.035156 2.859375 Z M 24.035156 2.859375 "/>
<use xlink:href="#surface11" mask="url(#mask2)"/>
<path style=" stroke:none;fill-rule:evenodd;fill:rgb(85.490196%,81.568627%,51.372549%);fill-opacity:1;" d="M 24.035156 2.859375 C 24.148438 2.859375 24.261719 2.859375 24.378906 2.859375 C 24.085938 3.183594 24.03125 3.585938 24.207031 4.0625 C 23.691406 4.492188 23.121094 4.832031 22.488281 5.089844 C 22.324219 4.847656 22.269531 4.5625 22.316406 4.234375 C 22.539062 4.039062 22.710938 3.808594 22.832031 3.546875 C 23.402344 3.605469 23.800781 3.375 24.035156 2.859375 Z M 24.035156 2.859375 "/>
<path style=" stroke:none;fill-rule:evenodd;fill:rgb(63.529412%,63.137255%,39.607843%);fill-opacity:1;" d="M 22.832031 3.546875 C 22.710938 3.808594 22.539062 4.039062 22.316406 4.234375 C 22.085938 4.234375 21.859375 4.234375 21.628906 4.234375 C 21.945312 3.875 22.34375 3.644531 22.832031 3.546875 Z M 22.832031 3.546875 "/>
<path style=" stroke:none;fill-rule:evenodd;fill:rgb(81.568627%,66.27451%,46.666667%);fill-opacity:1;" d="M 27.46875 3.375 C 27.871094 3.601562 28.269531 3.832031 28.671875 4.0625 C 28.605469 4.5 28.71875 4.871094 29.015625 5.175781 C 28.652344 5.234375 28.59375 5.378906 28.84375 5.605469 C 27.898438 5.21875 27.039062 4.707031 26.265625 4.0625 C 26.652344 4.226562 27.054688 4.339844 27.46875 4.40625 C 27.46875 4.0625 27.46875 3.71875 27.46875 3.375 Z M 27.46875 3.375 "/>
<path style=" stroke:none;fill-rule:evenodd;fill:rgb(59.607843%,62.745098%,40.392157%);fill-opacity:1;" d="M 21.628906 4.234375 C 21.40625 4.738281 21.003906 4.96875 20.425781 4.917969 C 20.742188 4.5625 21.144531 4.332031 21.628906 4.234375 Z M 21.628906 4.234375 "/>
<path style=" stroke:none;fill-rule:evenodd;fill:rgb(87.058824%,69.019608%,54.901961%);fill-opacity:1;" d="M 28.671875 4.0625 C 29.160156 4.390625 29.675781 4.675781 30.21875 4.917969 C 30.230469 5.132812 30.34375 5.277344 30.5625 5.347656 C 30.351562 5.605469 30.351562 5.863281 30.5625 6.121094 C 30.074219 6.109375 29.617188 5.992188 29.1875 5.777344 C 29.015625 5.808594 28.902344 5.75 28.84375 5.605469 C 28.59375 5.378906 28.652344 5.234375 29.015625 5.175781 C 28.71875 4.871094 28.605469 4.5 28.671875 4.0625 Z M 28.671875 4.0625 "/>
<use xlink:href="#surface14" mask="url(#mask3)"/>
<path style=" stroke:none;fill-rule:evenodd;fill:rgb(78.431373%,83.529412%,55.294118%);fill-opacity:1;" d="M 21.628906 4.234375 C 21.859375 4.234375 22.085938 4.234375 22.316406 4.234375 C 22.269531 4.5625 22.324219 4.847656 22.488281 5.089844 C 22.144531 5.320312 21.800781 5.550781 21.457031 5.777344 C 20.914062 6.019531 20.398438 6.308594 19.914062 6.636719 C 19.847656 6.261719 19.734375 5.917969 19.570312 5.605469 C 19.570312 5.550781 19.570312 5.492188 19.570312 5.433594 C 19.972656 5.417969 20.257812 5.246094 20.425781 4.917969 C 21.003906 4.96875 21.40625 4.738281 21.628906 4.234375 Z M 21.628906 4.234375 "/>
<use xlink:href="#surface17" mask="url(#mask4)"/>
<path style=" stroke:none;fill-rule:evenodd;fill:rgb(12.54902%,86.666667%,54.509804%);fill-opacity:1;" d="M 23.003906 22.09375 C 21.15625 20.820312 19.265625 19.585938 17.335938 18.402344 C 16.585938 18.085938 15.839844 17.769531 15.101562 17.457031 C 13.335938 16.460938 11.5625 15.457031 9.777344 14.453125 C 9.632812 14.335938 9.515625 14.191406 9.433594 14.023438 C 12.273438 12.230469 15.195312 10.570312 18.195312 9.042969 C 19.199219 8.699219 20.171875 8.269531 21.113281 7.753906 C 22.324219 6.921875 23.582031 6.175781 24.894531 5.519531 C 25.179688 5.40625 25.464844 5.40625 25.75 5.519531 C 30.800781 8.214844 35.78125 10.992188 40.695312 13.851562 C 35.777344 16.941406 30.796875 19.945312 25.75 22.867188 C 25.351562 22.984375 24.949219 22.984375 24.550781 22.867188 C 24.085938 22.496094 23.570312 22.238281 23.003906 22.09375 Z M 23.003906 22.09375 "/>
<path style=" stroke:none;fill-rule:evenodd;fill:rgb(84.313725%,65.098039%,57.647059%);fill-opacity:1;" d="M 30.21875 4.917969 C 30.273438 4.917969 30.332031 4.917969 30.390625 4.917969 C 30.558594 4.890625 30.675781 4.949219 30.734375 5.089844 C 31.242188 5.542969 31.699219 6.058594 32.105469 6.636719 C 32.050781 6.808594 31.933594 6.921875 31.761719 6.980469 C 31.492188 6.84375 31.207031 6.785156 30.90625 6.808594 C 30.820312 6.550781 30.707031 6.324219 30.5625 6.121094 C 30.351562 5.863281 30.351562 5.605469 30.5625 5.347656 C 30.34375 5.277344 30.230469 5.132812 30.21875 4.917969 Z M 30.21875 4.917969 "/>
<path style=" stroke:none;fill-rule:evenodd;fill:rgb(55.294118%,65.098039%,43.529412%);fill-opacity:1;" d="M 19.570312 5.433594 C 19.570312 5.492188 19.570312 5.550781 19.570312 5.605469 C 19.28125 6.003906 18.878906 6.175781 18.367188 6.121094 C 18.683594 5.765625 19.082031 5.535156 19.570312 5.433594 Z M 19.570312 5.433594 "/>
<path style=" stroke:none;fill-rule:evenodd;fill:rgb(66.27451%,50.980392%,42.745098%);fill-opacity:1;" d="M 29.1875 5.777344 C 29.617188 5.992188 30.074219 6.109375 30.5625 6.121094 C 30.707031 6.324219 30.820312 6.550781 30.90625 6.808594 C 30.273438 6.550781 29.703125 6.207031 29.1875 5.777344 Z M 29.1875 5.777344 "/>
<path style=" stroke:none;fill-rule:evenodd;fill:rgb(74.117647%,56.078431%,52.941176%);fill-opacity:1;" d="M 30.734375 5.089844 C 31.21875 5.191406 31.621094 5.421875 31.933594 5.777344 C 32.164062 6.007812 32.394531 6.238281 32.621094 6.464844 C 32.621094 6.75 32.621094 7.039062 32.621094 7.324219 C 32.402344 7.285156 32.230469 7.339844 32.105469 7.496094 C 31.675781 7.308594 31.277344 7.082031 30.90625 6.808594 C 31.207031 6.785156 31.492188 6.84375 31.761719 6.980469 C 31.933594 6.921875 32.050781 6.808594 32.105469 6.636719 C 31.699219 6.058594 31.242188 5.542969 30.734375 5.089844 Z M 30.734375 5.089844 "/>
<use xlink:href="#surface20" mask="url(#mask5)"/>
<use xlink:href="#surface23" mask="url(#mask6)"/>
<use xlink:href="#surface26" mask="url(#mask7)"/>
<path style=" stroke:none;fill-rule:evenodd;fill:rgb(76.862745%,56.078431%,61.176471%);fill-opacity:1;" d="M 32.621094 6.464844 C 33.367188 6.808594 34.109375 7.152344 34.855469 7.496094 C 35.023438 7.46875 35.140625 7.523438 35.199219 7.667969 C 35.253906 7.78125 35.3125 7.898438 35.371094 8.011719 C 35.25 8.371094 35.078125 8.714844 34.855469 9.042969 C 34.367188 8.941406 33.96875 8.714844 33.652344 8.355469 C 33.253906 7.878906 32.738281 7.59375 32.105469 7.496094 C 32.230469 7.339844 32.398438 7.285156 32.621094 7.324219 C 32.621094 7.039062 32.621094 6.753906 32.621094 6.464844 Z M 32.621094 6.464844 "/>
<path style=" stroke:none;fill-rule:evenodd;fill:rgb(52.156863%,68.627451%,48.235294%);fill-opacity:1;" d="M 17.507812 6.636719 C 17.28125 7.144531 16.882812 7.371094 16.304688 7.324219 C 16.621094 6.964844 17.019531 6.738281 17.507812 6.636719 Z M 17.507812 6.636719 "/>
<path style=" stroke:none;fill-rule:evenodd;fill:rgb(68.627451%,87.058824%,61.568627%);fill-opacity:1;" d="M 19.570312 5.605469 C 19.734375 5.917969 19.847656 6.261719 19.914062 6.636719 C 19.289062 6.917969 18.71875 7.261719 18.195312 7.667969 C 17.566406 8.011719 16.933594 8.355469 16.304688 8.699219 C 16.257812 8.316406 16.085938 8.03125 15.789062 7.839844 C 16.03125 7.738281 16.203125 7.566406 16.304688 7.324219 C 16.882812 7.375 17.28125 7.144531 17.507812 6.636719 C 17.910156 6.621094 18.195312 6.449219 18.367188 6.121094 C 18.878906 6.175781 19.277344 6.003906 19.570312 5.605469 Z M 19.570312 5.605469 "/>
<path style=" stroke:none;fill-rule:evenodd;fill:rgb(57.254902%,41.960784%,41.568627%);fill-opacity:1;" d="M 32.105469 7.496094 C 32.738281 7.59375 33.253906 7.878906 33.652344 8.355469 C 33.054688 8.199219 32.539062 7.914062 32.105469 7.496094 Z M 32.105469 7.496094 "/>
<path style=" stroke:none;fill-rule:evenodd;fill:rgb(44.705882%,66.27451%,47.058824%);fill-opacity:1;" d="M 16.304688 7.324219 C 16.203125 7.566406 16.03125 7.738281 15.789062 7.839844 C 15.378906 8.246094 14.863281 8.476562 14.246094 8.527344 C 14.839844 7.992188 15.527344 7.589844 16.304688 7.324219 Z M 16.304688 7.324219 "/>
<path style=" stroke:none;fill-rule:evenodd;fill:rgb(75.294118%,52.54902%,65.882353%);fill-opacity:1;" d="M 35.371094 8.011719 C 35.683594 8.234375 36.027344 8.40625 36.402344 8.527344 C 36.488281 9.023438 36.375 9.421875 36.058594 9.730469 C 35.570312 9.628906 35.171875 9.402344 34.855469 9.042969 C 35.078125 8.714844 35.25 8.371094 35.371094 8.011719 Z M 35.371094 8.011719 "/>
<path style=" stroke:none;fill-rule:evenodd;fill:rgb(69.803922%,47.058824%,65.098039%);fill-opacity:1;" d="M 36.402344 8.527344 C 36.792969 8.695312 37.136719 8.921875 37.429688 9.214844 C 37.402344 9.5625 37.433594 9.90625 37.515625 10.246094 C 37.796875 10.421875 37.996094 10.652344 38.117188 10.929688 C 37.339844 10.667969 36.65625 10.265625 36.058594 9.730469 C 36.375 9.421875 36.488281 9.023438 36.402344 8.527344 Z M 36.402344 8.527344 "/>
<use xlink:href="#surface29" mask="url(#mask8)"/>
<path style=" stroke:none;fill-rule:evenodd;fill:rgb(58.039216%,89.411765%,67.058824%);fill-opacity:1;" d="M 15.789062 7.839844 C 16.085938 8.03125 16.257812 8.316406 16.304688 8.699219 C 15.046875 9.441406 13.785156 10.1875 12.527344 10.929688 C 12.527344 10.589844 12.527344 10.246094 12.527344 9.902344 C 12.75 9.707031 12.917969 9.476562 13.042969 9.214844 C 13.355469 8.855469 13.757812 8.625 14.246094 8.527344 C 14.863281 8.476562 15.378906 8.246094 15.789062 7.839844 Z M 15.789062 7.839844 "/>
<use xlink:href="#surface32" mask="url(#mask9)"/>
<path style=" stroke:none;fill-rule:evenodd;fill:rgb(37.647059%,68.235294%,51.764706%);fill-opacity:1;" d="M 13.042969 9.214844 C 12.917969 9.476562 12.746094 9.707031 12.527344 9.902344 C 12.023438 10.105469 11.507812 10.277344 10.980469 10.414062 C 11.578125 9.878906 12.265625 9.480469 13.042969 9.214844 Z M 13.042969 9.214844 "/>
<path style=" stroke:none;fill-rule:evenodd;fill:rgb(73.72549%,47.843137%,74.901961%);fill-opacity:1;" d="M 37.429688 9.214844 C 38.175781 9.527344 38.863281 9.929688 39.492188 10.414062 C 39.492188 10.703125 39.492188 10.988281 39.492188 11.273438 C 38.777344 11.214844 38.460938 10.816406 38.546875 10.074219 C 38.539062 10.457031 38.394531 10.742188 38.117188 10.929688 C 37.996094 10.652344 37.796875 10.421875 37.515625 10.246094 C 37.433594 9.90625 37.402344 9.5625 37.429688 9.214844 Z M 37.429688 9.214844 "/>
<path style=" stroke:none;fill-rule:evenodd;fill:rgb(60.784314%,37.254902%,65.490196%);fill-opacity:1;" d="M 39.492188 10.414062 C 39.722656 10.472656 39.949219 10.53125 40.179688 10.585938 C 40.179688 10.644531 40.179688 10.703125 40.179688 10.757812 C 39.980469 10.808594 39.867188 10.953125 39.835938 11.1875 C 39.863281 11.332031 39.894531 11.476562 39.921875 11.617188 C 40.433594 12.03125 40.917969 12.433594 41.382812 12.820312 C 40.207031 12.320312 39.121094 11.691406 38.117188 10.929688 C 38.394531 10.746094 38.539062 10.457031 38.546875 10.074219 C 38.460938 10.816406 38.777344 11.214844 39.492188 11.273438 C 39.492188 10.988281 39.492188 10.703125 39.492188 10.414062 Z M 39.492188 10.414062 "/>
<use xlink:href="#surface35" mask="url(#mask10)"/>
<use xlink:href="#surface38" mask="url(#mask11)"/>
<path style=" stroke:none;fill-rule:evenodd;fill:rgb(47.843137%,92.941176%,73.333333%);fill-opacity:1;" d="M 12.527344 9.902344 C 12.527344 10.246094 12.527344 10.589844 12.527344 10.929688 C 12.414062 10.929688 12.355469 10.988281 12.355469 11.101562 C 10.605469 11.964844 8.917969 12.9375 7.289062 14.023438 C 7.171875 21.007812 7.171875 27.992188 7.289062 34.976562 C 8.714844 35.820312 10.117188 36.675781 11.496094 37.554688 C 11.570312 37.945312 11.453125 38.230469 11.152344 38.414062 C 10.921875 38.355469 10.695312 38.296875 10.464844 38.242188 C 10.183594 38.214844 9.953125 38.097656 9.777344 37.898438 C 9.632812 37.507812 9.347656 37.335938 8.917969 37.382812 C 8.839844 37.140625 8.667969 37.027344 8.40625 37.039062 C 8.121094 37.011719 7.890625 36.894531 7.71875 36.695312 C 7.636719 36.453125 7.464844 36.339844 7.203125 36.351562 C 6.917969 36.324219 6.6875 36.210938 6.515625 36.007812 C 6.464844 35.871094 6.378906 35.757812 6.257812 35.664062 C 6.144531 28.222656 6.144531 20.777344 6.257812 13.335938 C 6.378906 13.242188 6.464844 13.128906 6.515625 12.992188 C 6.75 13.019531 6.980469 12.992188 7.203125 12.90625 C 7.765625 12.640625 8.222656 12.265625 8.578125 11.789062 C 9.0625 11.691406 9.464844 11.460938 9.777344 11.101562 C 10.277344 11 10.679688 10.769531 10.980469 10.417969 C 11.507812 10.277344 12.023438 10.105469 12.527344 9.902344 Z M 12.527344 9.902344 "/>
<path style=" stroke:none;fill-rule:evenodd;fill:rgb(68.627451%,41.176471%,78.431373%);fill-opacity:1;" d="M 40.179688 10.757812 C 40.558594 10.976562 40.960938 11.148438 41.382812 11.273438 C 41.695312 11.632812 42.097656 11.863281 42.582031 11.960938 C 42.582031 12.019531 42.582031 12.078125 42.582031 12.132812 C 42.3125 12.300781 42.140625 12.558594 42.070312 12.90625 C 42.335938 13.035156 42.507812 13.238281 42.582031 13.507812 C 42.300781 13.480469 42.070312 13.367188 41.898438 13.164062 C 41.816406 12.921875 41.644531 12.808594 41.382812 12.820312 C 40.917969 12.433594 40.433594 12.03125 39.921875 11.617188 C 39.894531 11.476562 39.863281 11.332031 39.835938 11.1875 C 39.867188 10.953125 39.980469 10.808594 40.179688 10.757812 Z M 40.179688 10.757812 "/>
<use xlink:href="#surface41" mask="url(#mask12)"/>
<use xlink:href="#surface44" mask="url(#mask13)"/>
<path style=" stroke:none;fill-rule:evenodd;fill:rgb(35.686275%,71.764706%,55.686275%);fill-opacity:1;" d="M 8.578125 11.789062 C 8.222656 12.265625 7.765625 12.636719 7.203125 12.90625 C 6.980469 12.992188 6.75 13.019531 6.515625 12.992188 C 7.113281 12.457031 7.800781 12.054688 8.578125 11.789062 Z M 8.578125 11.789062 "/>
<path style=" stroke:none;fill-rule:evenodd;fill:rgb(67.058824%,37.647059%,83.529412%);fill-opacity:1;" d="M 42.582031 12.132812 C 43.210938 12.472656 43.839844 12.816406 44.472656 13.164062 C 44.671875 20.664062 44.703125 28.164062 44.558594 35.664062 C 43.957031 36.121094 43.300781 36.464844 42.582031 36.695312 C 42.371094 36.371094 42.371094 36.027344 42.582031 35.664062 C 42.726562 35.605469 42.785156 35.492188 42.753906 35.320312 C 43.042969 35.277344 43.300781 35.164062 43.527344 34.976562 C 43.613281 27.933594 43.644531 20.894531 43.613281 13.851562 C 43.441406 13.851562 43.269531 13.851562 43.097656 13.851562 C 43.019531 13.609375 42.847656 13.496094 42.582031 13.507812 C 42.507812 13.238281 42.335938 13.035156 42.070312 12.90625 C 42.140625 12.558594 42.3125 12.300781 42.582031 12.132812 Z M 42.582031 12.132812 "/>
<use xlink:href="#surface47" mask="url(#mask14)"/>
<use xlink:href="#surface50" mask="url(#mask15)"/>
<path style=" stroke:none;fill-rule:evenodd;fill:rgb(67.45098%,37.647059%,84.313725%);fill-opacity:1;" d="M 42.070312 33.429688 C 41.996094 33.640625 41.878906 33.8125 41.726562 33.945312 C 41.714844 33.851562 41.65625 33.796875 41.554688 33.773438 C 38.003906 36.007812 34.398438 38.15625 30.734375 40.214844 C 30.464844 40.347656 30.292969 40.546875 30.21875 40.816406 C 30.160156 40.960938 30.042969 41.019531 29.875 40.988281 C 28.902344 41.359375 27.984375 41.847656 27.125 42.449219 C 26.902344 42.53125 26.675781 42.5625 26.4375 42.535156 C 26.496094 36.550781 26.4375 30.597656 26.265625 24.671875 C 26.253906 24.5 26.308594 24.355469 26.4375 24.242188 C 30.3125 21.992188 34.207031 19.785156 38.117188 17.628906 C 38.574219 17.460938 39.03125 17.289062 39.492188 17.113281 C 40.210938 16.613281 40.953125 16.15625 41.726562 15.738281 C 41.914062 20.40625 41.914062 25.070312 41.726562 29.738281 C 41.726562 31.03125 41.839844 32.261719 42.070312 33.429688 Z M 42.070312 33.429688 "/>
<use xlink:href="#surface53" mask="url(#mask16)"/>
<path style=" stroke:none;fill-rule:evenodd;fill:rgb(92.54902%,69.411765%,16.862745%);fill-opacity:1;" d="M 24.378906 25.015625 C 19.441406 22.171875 14.515625 19.28125 9.605469 16.339844 C 9.382812 16.257812 9.15625 16.230469 8.917969 16.253906 C 8.890625 22.152344 8.917969 28.050781 9.003906 33.945312 C 9.308594 34.253906 9.625 34.539062 9.949219 34.804688 C 9.386719 34.710938 8.957031 34.421875 8.664062 33.945312 C 8.519531 27.894531 8.546875 21.855469 8.75 15.828125 C 9.335938 15.945312 9.90625 16.175781 10.464844 16.511719 C 14.929688 19.148438 19.398438 21.78125 23.863281 24.414062 C 24.132812 24.542969 24.304688 24.746094 24.378906 25.015625 Z M 24.378906 25.015625 "/>
<path style=" stroke:none;fill-rule:evenodd;fill:rgb(99.607843%,74.117647%,17.647059%);fill-opacity:1;" d="M 24.378906 25.015625 C 24.492188 25.015625 24.550781 25.074219 24.550781 25.1875 C 24.523438 30.996094 24.523438 36.835938 24.550781 42.707031 C 24.019531 42.582031 23.503906 42.410156 23.003906 42.191406 C 18.5625 39.863281 14.210938 37.402344 9.949219 34.804688 C 9.625 34.539062 9.308594 34.253906 9.003906 33.945312 C 8.917969 28.050781 8.890625 22.152344 8.917969 16.257812 C 9.15625 16.230469 9.382812 16.257812 9.605469 16.34375 C 14.515625 19.28125 19.441406 22.171875 24.378906 25.015625 Z M 24.378906 25.015625 "/>
<use xlink:href="#surface56" mask="url(#mask17)"/>
<use xlink:href="#surface59" mask="url(#mask18)"/>
<use xlink:href="#surface62" mask="url(#mask19)"/>
<use xlink:href="#surface65" mask="url(#mask20)"/>
<use xlink:href="#surface68" mask="url(#mask21)"/>
<use xlink:href="#surface71" mask="url(#mask22)"/>
<use xlink:href="#surface74" mask="url(#mask23)"/>
<use xlink:href="#surface77" mask="url(#mask24)"/>
<path style=" stroke:none;fill-rule:evenodd;fill:rgb(68.627451%,40%,81.176471%);fill-opacity:1;" d="M 42.582031 35.664062 C 42.371094 36.027344 42.371094 36.371094 42.582031 36.695312 C 42.070312 37.125 41.496094 37.46875 40.867188 37.726562 C 40.648438 37.375 40.675781 37.03125 40.953125 36.695312 C 41.359375 36.484375 41.675781 36.199219 41.898438 35.835938 C 42.125 35.777344 42.355469 35.722656 42.582031 35.664062 Z M 42.582031 35.664062 "/>
<use xlink:href="#surface80" mask="url(#mask25)"/>
<use xlink:href="#surface83" mask="url(#mask26)"/>
<use xlink:href="#surface86" mask="url(#mask27)"/>
<use xlink:href="#surface89" mask="url(#mask28)"/>
<path style=" stroke:none;fill-rule:evenodd;fill:rgb(68.235294%,41.960784%,74.117647%);fill-opacity:1;" d="M 41.898438 35.835938 C 41.675781 36.199219 41.359375 36.484375 40.953125 36.695312 C 40.675781 37.03125 40.648438 37.375 40.867188 37.726562 C 40.660156 37.859375 40.488281 38.03125 40.351562 38.242188 C 40.042969 38.308594 39.757812 38.421875 39.492188 38.582031 C 39.378906 38.25 39.324219 37.90625 39.320312 37.554688 C 39.464844 37.496094 39.523438 37.378906 39.492188 37.210938 C 40.238281 36.664062 41.039062 36.207031 41.898438 35.835938 Z M 41.898438 35.835938 "/>
<use xlink:href="#surface92" mask="url(#mask29)"/>
<path style=" stroke:none;fill-rule:evenodd;fill:rgb(55.686275%,35.294118%,57.647059%);fill-opacity:1;" d="M 39.492188 37.210938 C 39.523438 37.378906 39.464844 37.496094 39.320312 37.554688 C 39.039062 37.824219 38.695312 37.9375 38.289062 37.898438 C 38.605469 37.539062 39.007812 37.308594 39.492188 37.210938 Z M 39.492188 37.210938 "/>
<use xlink:href="#surface95" mask="url(#mask30)"/>
<path style=" stroke:none;fill-rule:evenodd;fill:rgb(74.117647%,48.627451%,74.117647%);fill-opacity:1;" d="M 39.320312 37.554688 C 39.324219 37.90625 39.378906 38.25 39.492188 38.582031 C 38.804688 38.984375 38.117188 39.386719 37.429688 39.785156 C 37.429688 39.386719 37.429688 38.984375 37.429688 38.582031 C 37.824219 38.472656 38.113281 38.246094 38.289062 37.898438 C 38.695312 37.9375 39.039062 37.824219 39.320312 37.554688 Z M 39.320312 37.554688 "/>
<path style=" stroke:none;fill-rule:evenodd;fill:rgb(54.117647%,88.235294%,67.058824%);fill-opacity:1;" d="M 11.496094 37.554688 C 12.605469 38.078125 13.695312 38.652344 14.757812 39.269531 C 14.988281 39.441406 15.21875 39.613281 15.445312 39.785156 C 15.445312 40.128906 15.445312 40.472656 15.445312 40.816406 C 15.273438 40.816406 15.101562 40.816406 14.929688 40.816406 C 14.648438 40.789062 14.417969 40.675781 14.246094 40.472656 C 14.164062 40.230469 13.992188 40.117188 13.730469 40.128906 C 13.167969 39.910156 12.652344 39.625 12.183594 39.269531 C 12.101562 39.03125 11.929688 38.914062 11.667969 38.925781 C 11.496094 38.957031 11.382812 38.898438 11.324219 38.753906 C 11.265625 38.640625 11.210938 38.527344 11.152344 38.410156 C 11.453125 38.230469 11.570312 37.945312 11.496094 37.554688 Z M 11.496094 37.554688 "/>
<path style=" stroke:none;fill-rule:evenodd;fill:rgb(56.470588%,37.254902%,54.509804%);fill-opacity:1;" d="M 38.289062 37.898438 C 38.113281 38.246094 37.824219 38.476562 37.429688 38.585938 C 37.316406 38.585938 37.203125 38.585938 37.085938 38.585938 C 37.402344 38.226562 37.804688 37.996094 38.289062 37.898438 Z M 38.289062 37.898438 "/>
<use xlink:href="#surface98" mask="url(#mask31)"/>
<use xlink:href="#surface101" mask="url(#mask32)"/>
<path style=" stroke:none;fill-rule:evenodd;fill:rgb(76.862745%,52.941176%,69.803922%);fill-opacity:1;" d="M 37.085938 38.585938 C 37.203125 38.585938 37.316406 38.585938 37.429688 38.585938 C 37.429688 38.984375 37.429688 39.386719 37.429688 39.785156 C 36.859375 40.128906 36.285156 40.472656 35.714844 40.816406 C 35.519531 40.464844 35.519531 40.121094 35.714844 39.785156 C 35.933594 39.589844 36.105469 39.363281 36.230469 39.097656 C 36.632812 39.082031 36.917969 38.910156 37.085938 38.585938 Z M 37.085938 38.585938 "/>
<path style=" stroke:none;fill-rule:evenodd;fill:rgb(60%,41.176471%,51.372549%);fill-opacity:1;" d="M 36.230469 39.097656 C 36.105469 39.363281 35.933594 39.589844 35.714844 39.785156 C 35.484375 39.785156 35.253906 39.785156 35.027344 39.785156 C 35.34375 39.429688 35.742188 39.199219 36.230469 39.097656 Z M 36.230469 39.097656 "/>
<path style=" stroke:none;fill-rule:evenodd;fill:rgb(50.196078%,72.156863%,51.372549%);fill-opacity:1;" d="M 15.445312 39.785156 C 15.617188 39.757812 15.730469 39.8125 15.789062 39.957031 C 15.597656 40.265625 15.570312 40.609375 15.703125 40.988281 C 16.078125 41.234375 16.394531 41.523438 16.648438 41.847656 C 16.019531 41.589844 15.445312 41.246094 14.929688 40.816406 C 15.101562 40.816406 15.273438 40.816406 15.445312 40.816406 C 15.445312 40.472656 15.445312 40.128906 15.445312 39.785156 Z M 15.445312 39.785156 "/>
<use xlink:href="#surface104" mask="url(#mask33)"/>
<use xlink:href="#surface107" mask="url(#mask34)"/>
<path style=" stroke:none;fill-rule:evenodd;fill:rgb(65.098039%,85.882353%,61.568627%);fill-opacity:1;" d="M 15.789062 39.957031 C 16.625 40.289062 17.371094 40.746094 18.023438 41.332031 C 17.910156 41.464844 17.855469 41.636719 17.851562 41.847656 C 17.933594 42.15625 18.050781 42.445312 18.195312 42.707031 C 17.910156 42.679688 17.679688 42.5625 17.507812 42.363281 C 17.425781 42.121094 17.253906 42.007812 16.992188 42.019531 C 16.820312 42.046875 16.707031 41.992188 16.648438 41.847656 C 16.394531 41.523438 16.078125 41.234375 15.703125 40.988281 C 15.570312 40.609375 15.597656 40.265625 15.789062 39.957031 Z M 15.789062 39.957031 "/>
<path style=" stroke:none;fill-rule:evenodd;fill:rgb(60.392157%,43.137255%,49.019608%);fill-opacity:1;" d="M 35.027344 39.785156 C 34.800781 40.292969 34.402344 40.523438 33.824219 40.472656 C 34.140625 40.113281 34.539062 39.886719 35.027344 39.785156 Z M 35.027344 39.785156 "/>
<path style=" stroke:none;fill-rule:evenodd;fill:rgb(80.392157%,58.431373%,65.098039%);fill-opacity:1;" d="M 35.027344 39.785156 C 35.253906 39.785156 35.484375 39.785156 35.714844 39.785156 C 35.519531 40.121094 35.519531 40.464844 35.714844 40.816406 C 35.304688 40.960938 34.960938 41.191406 34.683594 41.503906 C 34.257812 41.632812 33.855469 41.804688 33.480469 42.019531 C 33.332031 41.636719 33.273438 41.238281 33.308594 40.816406 C 33.597656 40.855469 33.769531 40.738281 33.824219 40.472656 C 34.402344 40.523438 34.800781 40.292969 35.027344 39.785156 Z M 35.027344 39.785156 "/>
<use xlink:href="#surface110" mask="url(#mask35)"/>
<path style=" stroke:none;fill-rule:evenodd;fill:rgb(66.27451%,48.627451%,49.803922%);fill-opacity:1;" d="M 33.824219 40.472656 C 33.769531 40.738281 33.597656 40.855469 33.308594 40.816406 C 33.273438 41.238281 33.332031 41.636719 33.480469 42.019531 C 33.421875 42.164062 33.308594 42.21875 33.136719 42.191406 C 33.136719 41.90625 33.136719 41.617188 33.136719 41.332031 C 32.652344 41.347656 32.195312 41.460938 31.761719 41.675781 C 32.394531 41.1875 33.078125 40.789062 33.824219 40.472656 Z M 33.824219 40.472656 "/>
<path style=" stroke:none;fill-rule:evenodd;fill:rgb(71.764706%,83.529412%,57.254902%);fill-opacity:1;" d="M 18.023438 41.332031 C 18.8125 41.664062 19.554688 42.066406 20.253906 42.535156 C 20.128906 42.511719 20.015625 42.539062 19.914062 42.621094 C 20.140625 42.847656 20.140625 43.078125 19.914062 43.308594 C 20.125 43.546875 20.351562 43.75 20.597656 43.910156 C 20.484375 43.910156 20.371094 43.910156 20.253906 43.910156 C 20.085938 43.9375 19.972656 43.878906 19.914062 43.738281 C 19.832031 43.496094 19.660156 43.378906 19.398438 43.394531 C 19.113281 43.367188 18.882812 43.25 18.710938 43.050781 C 18.628906 42.808594 18.457031 42.695312 18.195312 42.707031 C 18.050781 42.445312 17.933594 42.15625 17.851562 41.847656 C 17.855469 41.636719 17.910156 41.464844 18.023438 41.332031 Z M 18.023438 41.332031 "/>
<use xlink:href="#surface113" mask="url(#mask36)"/>
<use xlink:href="#surface116" mask="url(#mask37)"/>
<use xlink:href="#surface119" mask="url(#mask38)"/>
<path style=" stroke:none;fill-rule:evenodd;fill:rgb(83.921569%,64.313725%,59.215686%);fill-opacity:1;" d="M 33.136719 42.191406 C 32.363281 42.664062 31.617188 43.179688 30.90625 43.738281 C 30.847656 43.738281 30.789062 43.738281 30.734375 43.738281 C 30.734375 43.335938 30.734375 42.933594 30.734375 42.535156 C 30.875 42.476562 30.933594 42.359375 30.90625 42.191406 C 31.308594 42.175781 31.59375 42.003906 31.761719 41.675781 C 32.195312 41.460938 32.652344 41.347656 33.136719 41.332031 C 33.136719 41.617188 33.136719 41.90625 33.136719 42.191406 Z M 33.136719 42.191406 "/>
<use xlink:href="#surface122" mask="url(#mask39)"/>
<use xlink:href="#surface125" mask="url(#mask40)"/>
<path style=" stroke:none;fill-rule:evenodd;fill:rgb(80%,82.352941%,53.72549%);fill-opacity:1;" d="M 20.253906 42.535156 C 20.597656 42.707031 20.941406 42.878906 21.285156 43.050781 C 21.851562 43.390625 22.425781 43.734375 23.003906 44.082031 C 23.054688 44.441406 22.996094 44.785156 22.832031 45.109375 C 22.5625 44.972656 22.277344 44.914062 21.972656 44.9375 C 21.890625 44.699219 21.71875 44.582031 21.457031 44.59375 C 21.175781 44.566406 20.945312 44.453125 20.769531 44.25 C 20.714844 44.136719 20.65625 44.023438 20.597656 43.910156 C 20.351562 43.75 20.125 43.546875 19.914062 43.308594 C 20.140625 43.078125 20.140625 42.847656 19.914062 42.621094 C 20.015625 42.539062 20.128906 42.511719 20.253906 42.535156 Z M 20.253906 42.535156 "/>
<use xlink:href="#surface128" mask="url(#mask41)"/>
<path style=" stroke:none;fill-rule:evenodd;fill:rgb(87.45098%,69.803922%,54.509804%);fill-opacity:1;" d="M 30.734375 42.535156 C 30.734375 42.933594 30.734375 43.335938 30.734375 43.738281 C 30.4375 43.828125 30.207031 44 30.046875 44.25 C 29.613281 44.339844 29.210938 44.511719 28.84375 44.765625 C 28.664062 44.441406 28.664062 44.128906 28.84375 43.824219 C 28.742188 43.742188 28.625 43.714844 28.5 43.738281 C 28.5 43.679688 28.5 43.621094 28.5 43.566406 C 29 43.460938 29.398438 43.230469 29.703125 42.878906 C 30.046875 42.761719 30.390625 42.648438 30.734375 42.535156 Z M 30.734375 42.535156 "/>
<use xlink:href="#surface131" mask="url(#mask42)"/>
<use xlink:href="#surface134" mask="url(#mask43)"/>
<use xlink:href="#surface137" mask="url(#mask44)"/>
<path style=" stroke:none;fill-rule:evenodd;fill:rgb(69.019608%,56.470588%,37.647059%);fill-opacity:1;" d="M 28.5 43.566406 C 28.5 43.621094 28.5 43.679688 28.5 43.738281 C 28.074219 43.863281 27.730469 44.121094 27.46875 44.507812 C 27.121094 44.597656 26.78125 44.683594 26.4375 44.765625 C 27.035156 44.230469 27.722656 43.828125 28.5 43.566406 Z M 28.5 43.566406 "/>
<path style=" stroke:none;fill-rule:evenodd;fill:rgb(84.313725%,78.039216%,48.627451%);fill-opacity:1;" d="M 23.003906 44.082031 C 23.46875 44.367188 23.925781 44.65625 24.378906 44.9375 C 24.25 44.917969 24.136719 44.945312 24.035156 45.023438 C 24.132812 45.355469 24.191406 45.667969 24.207031 45.96875 C 24.089844 45.96875 23.976562 45.96875 23.863281 45.96875 C 23.578125 45.941406 23.351562 45.828125 23.175781 45.625 C 23.09375 45.382812 22.921875 45.269531 22.660156 45.28125 C 22.375 45.253906 22.148438 45.140625 21.972656 44.9375 C 22.277344 44.914062 22.5625 44.972656 22.832031 45.109375 C 22.996094 44.785156 23.054688 44.441406 23.003906 44.082031 Z M 23.003906 44.082031 "/>
<path style=" stroke:none;fill-rule:evenodd;fill:rgb(90.980392%,74.901961%,50.980392%);fill-opacity:1;" d="M 28.5 43.738281 C 28.625 43.714844 28.742188 43.742188 28.84375 43.824219 C 28.664062 44.128906 28.664062 44.441406 28.84375 44.765625 C 28.15625 45.167969 27.46875 45.570312 26.78125 45.96875 C 26.863281 45.527344 26.75 45.183594 26.4375 44.9375 C 26.4375 44.882812 26.4375 44.824219 26.4375 44.765625 C 26.78125 44.683594 27.121094 44.597656 27.46875 44.507812 C 27.730469 44.121094 28.074219 43.867188 28.5 43.738281 Z M 28.5 43.738281 "/>
<use xlink:href="#surface140" mask="url(#mask45)"/>
<use xlink:href="#surface143" mask="url(#mask46)"/>
<use xlink:href="#surface146" mask="url(#mask47)"/>
<use xlink:href="#surface149" mask="url(#mask48)"/>
<path style=" stroke:none;fill-rule:evenodd;fill:rgb(92.941176%,80%,48.235294%);fill-opacity:1;" d="M 24.378906 44.9375 C 24.734375 45.132812 25.105469 45.304688 25.496094 45.453125 C 25.796875 45.257812 26.113281 45.089844 26.4375 44.9375 C 26.75 45.183594 26.863281 45.527344 26.78125 45.96875 C 26.324219 46.199219 25.863281 46.429688 25.410156 46.65625 C 25.09375 46.441406 24.75 46.328125 24.378906 46.3125 C 24.320312 46.199219 24.261719 46.082031 24.207031 45.96875 C 24.191406 45.667969 24.132812 45.355469 24.035156 45.023438 C 24.136719 44.945312 24.25 44.917969 24.378906 44.9375 Z M 24.378906 44.9375 "/>
<use xlink:href="#surface152" mask="url(#mask49)"/>
</g>
</svg>
