<?xml version="1.0" encoding="UTF-8"?>
<svg xmlns="http://www.w3.org/2000/svg" xmlns:xlink="http://www.w3.org/1999/xlink" width="50px" height="50px" viewBox="0 0 50 50" version="1.1">
<g id="surface1">
<path style=" stroke:none;fill-rule:nonzero;fill:rgb(100%,100%,100%);fill-opacity:1;" d="M 50 25 C 50 38.808594 38.808594 50 25 50 C 11.191406 50 0 38.808594 0 25 C 0 11.191406 11.191406 0 25 0 C 38.808594 0 50 11.191406 50 25 Z M 50 25 "/>
<path style="fill:none;stroke-width:1;stroke-linecap:square;stroke-linejoin:miter;stroke:rgb(50.196078%,50.196078%,50.196078%);stroke-opacity:1;stroke-miterlimit:4;" d="M 4 24.5 L 25.5 3 L 47 24.5 L 25.5 46 Z M 10.296875 9.296875 L 40.703125 9.296875 L 40.703125 39.703125 L 10.296875 39.703125 Z M 10.296875 9.296875 "/>
<path style="fill:none;stroke-width:1;stroke-linecap:round;stroke-linejoin:round;stroke:rgb(50.196078%,50.196078%,50.196078%);stroke-opacity:1;stroke-miterlimit:4;" d="M 25.5 25.675781 C 26.148438 25.675781 26.675781 25.148438 26.675781 24.5 C 26.675781 23.851562 26.148438 23.324219 25.5 23.324219 C 24.851562 23.324219 24.324219 23.851562 24.324219 24.5 C 24.324219 25.148438 24.851562 25.675781 25.5 25.675781 Z M 25.5 25.675781 "/>
</g>
</svg>
