<svg width="50" height="50" viewBox="0 0 50 50" fill="none" xmlns="http://www.w3.org/2000/svg">
<g clip-path="url(#clip0_30_72)">
<path d="M34.6994 25.003H25.351V34.3514H34.6994V25.003Z" fill="#FDFF16"/>
<path d="M15.9966 15.6486C21.1568 15.6486 25.345 19.8368 25.345 24.997H15.9966V15.6486Z" fill="#FDFF16"/>
<path d="M15.9967 25.003L10.5964 34.3514H21.3909L15.9967 25.003Z" fill="#FDFF16"/>
<path d="M34.7354 24.997C37.3169 24.997 39.4096 22.9043 39.4096 20.3228C39.4096 17.7413 37.3169 15.6486 34.7354 15.6486C32.1539 15.6486 30.0612 17.7413 30.0612 20.3228C30.0612 22.9043 32.1539 24.997 34.7354 24.997Z" fill="#FDFF16"/>
<path d="M25.003 50C21.718 50.0096 18.4636 49.3676 15.4284 48.1111C12.3931 46.8546 9.63727 45.0085 7.32029 42.6797C2.5981 37.9575 0 31.6813 0 25.003C0 18.3247 2.5981 12.0425 7.32029 7.32029C12.0425 2.5981 18.3247 0 25.003 0C31.6813 0 37.9575 2.5981 42.6797 7.32029C47.4019 12.0425 50 18.3247 50 25.003C50 31.6813 47.4019 37.9575 42.6797 42.6797C40.3634 45.0078 37.6085 46.8534 34.5744 48.1099C31.5402 49.3664 28.287 50.0089 25.003 50ZM25.003 3.09612C19.1528 3.09612 13.6505 5.37622 9.51638 9.51638C5.37622 13.6505 3.09612 19.1528 3.09612 24.997C3.09612 30.8412 5.37622 36.3495 9.51638 40.4896C13.6505 44.6298 19.1528 46.9099 24.997 46.9099C30.8412 46.9099 36.3495 44.6298 40.4896 40.4896C44.6298 36.3495 46.9099 30.8532 46.9099 25.003C46.9099 19.1528 44.6298 13.6505 40.4896 9.51038C38.46 7.47112 36.0464 5.85429 33.3883 4.75334C30.7301 3.65238 27.8801 3.08913 25.003 3.09612Z" fill="#FDFF16"/>
</g>
<defs>
<clipPath id="clip0_30_72">
<rect width="50" height="50" fill="white"/>
</clipPath>
</defs>
</svg>
