<svg width="50" height="51" viewBox="0 0 50 51" fill="none" xmlns="http://www.w3.org/2000/svg">
<g clip-path="url(#clip0_538_593)">
<path d="M25 50.0547C38.8071 50.0547 50 38.8618 50 25.0547C50 11.2476 38.8071 0.0546875 25 0.0546875C11.1929 0.0546875 0 11.2476 0 25.0547C0 38.8618 11.1929 50.0547 25 50.0547Z" fill="white"/>
<mask id="mask0_538_593" style="mask-type:luminance" maskUnits="userSpaceOnUse" x="9" y="9" width="32" height="28">
<path d="M40.5 9.05469H9.625V36.1797H40.5V9.05469Z" fill="white"/>
</mask>
<g mask="url(#mask0_538_593)">
<g filter="url(#filter0_i_538_593)">
<path fill-rule="evenodd" clip-rule="evenodd" d="M39.6098 30.698L31.9415 28.6436C31.2387 28.453 30.6374 27.9955 30.2733 27.3643L25.696 19.4307C25.3318 18.7997 25.2345 18.0499 25.4208 17.3467L27.4744 9.67154C27.6353 9.06581 28.4525 8.95567 28.7658 9.5021L40.4017 29.6645C40.7149 30.2066 40.2153 30.8631 39.6098 30.698ZM22.676 9.67259L24.7295 17.3436C24.9202 18.0468 24.8185 18.7965 24.4544 19.4276L19.877 27.3612C19.513 27.9924 18.9117 28.4541 18.2088 28.6405L10.5406 30.699C9.93506 30.86 9.43541 30.2077 9.74875 29.6655L21.3845 9.50316C21.6978 8.96099 22.515 9.06687 22.676 9.67259ZM18.5524 29.2871L12.9378 34.9038C12.4932 35.3486 12.8108 36.1067 13.4375 36.1067H36.7133C37.3443 36.1067 37.6575 35.3486 37.2129 34.9038L31.5983 29.2871C31.0818 28.7703 30.383 28.4822 29.6548 28.4822H20.496C19.7678 28.4822 19.069 28.7703 18.5524 29.2871Z" fill="#55A4F7"/>
</g>
</g>
</g>
<defs>
<filter id="filter0_i_538_593" x="9.65234" y="9.14844" width="41.1319" height="37.249" filterUnits="userSpaceOnUse" color-interpolation-filters="sRGB">
<feFlood flood-opacity="0" result="BackgroundImageFix"/>
<feBlend mode="normal" in="SourceGraphic" in2="BackgroundImageFix" result="shape"/>
<feColorMatrix in="SourceAlpha" type="matrix" values="0 0 0 0 0 0 0 0 0 0 0 0 0 0 0 0 0 0 127 0" result="hardAlpha"/>
<feOffset dx="10.2881" dy="10.2881"/>
<feGaussianBlur stdDeviation="10.2881"/>
<feComposite in2="hardAlpha" operator="arithmetic" k2="-1" k3="1"/>
<feColorMatrix type="matrix" values="0 0 0 0 0 0 0 0 0 0 0 0 0 0 0 0 0 0 0.2 0"/>
<feBlend mode="normal" in2="shape" result="effect1_innerShadow_538_593"/>
</filter>
<clipPath id="clip0_538_593">
<rect width="50" height="50" fill="white" transform="translate(0 0.0546875)"/>
</clipPath>
</defs>
</svg>
