<svg width="50" height="50" viewBox="0 0 50 50" fill="none" xmlns="http://www.w3.org/2000/svg">
<g clip-path="url(#clip0_945_3137)">
<mask id="mask0_945_3137" style="mask-type:luminance" maskUnits="userSpaceOnUse" x="0" y="0" width="50" height="50">
<path d="M50 0H0V50H50V0Z" fill="white"/>
</mask>
<g mask="url(#mask0_945_3137)">
<path d="M40.7232 2.00096C39.0614 2.00528 37.4688 2.66801 36.2945 3.84401C35.1203 5.02001 34.4599 6.6134 34.458 8.27529V11.5747C32.6099 7.81054 29.4441 4.85558 25.5618 3.27038C21.6794 1.68517 17.3502 1.57996 13.3954 2.97468C10.0642 4.15564 7.18043 6.33893 5.14004 9.22468C3.09966 12.1104 2.00276 15.5571 2 19.0913V40.7234C2 42.3879 2.6613 43.9845 3.83843 45.1617C5.01556 46.3386 6.61207 47 8.27678 47C9.94149 47 11.538 46.3386 12.7151 45.1617C13.8923 43.9845 14.5536 42.3879 14.5536 40.7234V37.431C16.4014 41.1937 19.5661 44.1472 23.4474 45.7312C27.3287 47.3153 31.6563 47.4194 35.6094 46.0238C38.9394 44.8435 41.8223 42.6606 43.8617 39.7758C45.9014 36.8907 46.9976 33.4451 47 29.912V8.27529C46.9976 6.61159 46.3354 5.01676 45.1587 3.84057C43.9821 2.66438 42.3868 2.00281 40.7232 2.00096ZM29.9093 45.2628C26.628 45.2764 23.4295 44.2329 20.7874 42.287C18.1454 40.3411 16.2002 37.5961 15.2401 34.4583L15.2144 34.3672C14.7738 32.9233 14.5511 31.4217 14.5536 29.912V19.0913C14.5548 17.8874 15.0338 16.7331 15.8853 15.882C16.7369 15.0309 17.8914 14.5525 19.0954 14.5519C20.2981 14.555 21.4508 15.0343 22.301 15.885C23.1513 16.7357 23.63 17.8885 23.6325 19.0913V29.9075C23.6345 31.5719 24.2972 33.1677 25.4749 34.3438C26.3536 35.2188 27.4715 35.8142 28.6879 36.0546C29.9043 36.2953 31.1648 36.1707 32.3103 35.6962C33.4561 35.2217 34.4354 34.4189 35.1256 33.3887C35.8158 32.3585 36.1856 31.1472 36.1883 29.9075V8.27529C36.1883 7.67948 36.3057 7.0895 36.5339 6.53903C36.7618 5.98857 37.096 5.4884 37.5172 5.06711C37.9385 4.64581 38.4388 4.31162 38.9892 4.08361C39.5398 3.8556 40.1296 3.73825 40.7256 3.73825C41.3215 3.73825 41.9113 3.8556 42.4619 4.08361C43.0123 4.31162 43.5124 4.64581 43.9339 5.06711C44.3551 5.4884 44.6893 5.98857 44.9172 6.53903C45.1454 7.0895 45.2626 7.67948 45.2626 8.27529V29.9075C45.2642 31.9239 44.8682 33.9212 44.0971 35.7849C43.3262 37.6485 42.1954 39.3417 40.7692 40.7679C39.3433 42.1941 37.6501 43.3249 35.7867 44.0963C33.9234 44.8677 31.9261 45.2639 29.9093 45.2628ZM34.458 29.9075C34.4572 30.8045 34.1907 31.6814 33.6922 32.4272C33.1935 33.1733 32.4855 33.7548 31.6569 34.0991C30.8282 34.4431 29.9162 34.5342 29.0359 34.3609C28.1558 34.1875 27.3464 33.7575 26.7102 33.1251C26.2442 32.6634 25.8848 32.1055 25.6571 31.4904C25.615 31.3807 25.5777 31.2569 25.5403 31.1331L25.5263 31.0703L25.5123 31.0117C25.4913 30.9302 25.4702 30.8485 25.4562 30.7619C25.4562 30.7316 25.4562 30.6988 25.4399 30.6663V30.6171C25.4399 30.5401 25.4165 30.4632 25.4095 30.3836C25.4025 30.3042 25.4095 30.288 25.4095 30.2249C25.4095 30.1617 25.4095 30.0686 25.4095 29.9913V19.0913C25.408 18.2642 25.2434 17.4455 24.9251 16.6821C24.6068 15.9188 24.1411 15.2256 23.5546 14.6424C22.9681 14.0592 22.2724 13.5974 21.5072 13.2833C20.7421 12.9693 19.9225 12.8092 19.0954 12.8123C17.4306 12.8142 15.8346 13.4763 14.6574 14.6534C13.4802 15.8306 12.8181 17.4266 12.8162 19.0913V40.7234C12.8162 41.9272 12.338 43.0818 11.4867 43.9331C10.6354 44.7843 9.48073 45.2628 8.27678 45.2628C7.07286 45.2628 5.91822 44.7843 5.0669 43.9331C4.21559 43.0818 3.73732 41.9272 3.73732 40.7234V19.0913C3.74002 15.4102 5.06487 11.8524 7.47059 9.06612C9.8763 6.27982 13.2028 4.45026 16.8443 3.9107C20.4857 3.37114 24.1999 4.15747 27.3102 6.12647C30.4206 8.09548 32.7201 11.1161 33.7902 14.6383L33.8533 14.8438C34.253 16.2243 34.4565 17.6541 34.458 19.0913V29.9075Z" fill="url(#paint0_linear_945_3137)"/>
</g>
</g>
<defs>
<linearGradient id="paint0_linear_945_3137" x1="5.08594" y1="43.8511" x2="58.7112" y2="-9.85604" gradientUnits="userSpaceOnUse">
<stop offset="0.05" stop-color="white"/>
<stop offset="0.38" stop-color="#A7B3FF"/>
<stop offset="1" stop-color="#74A4FF"/>
</linearGradient>
<clipPath id="clip0_945_3137">
<rect width="50" height="50" rx="25" fill="white"/>
</clipPath>
</defs>
</svg>
