<?xml version="1.0" encoding="UTF-8"?>
<svg xmlns="http://www.w3.org/2000/svg" xmlns:xlink="http://www.w3.org/1999/xlink" width="50px" height="50px" viewBox="0 0 50 50" version="1.1">
<g id="surface1">
<path style=" stroke:none;fill-rule:nonzero;fill:rgb(4.313725%,3.529412%,7.45098%);fill-opacity:1;" d="M 50 25 C 50 11.191406 38.808594 0 25 0 C 11.191406 0 0 11.191406 0 25 C 0 38.808594 11.191406 50 25 50 C 38.808594 50 50 38.808594 50 25 Z M 50 25 "/>
<path style=" stroke:none;fill-rule:nonzero;fill:rgb(87.843137%,85.490196%,93.333333%);fill-opacity:1;" d="M 31.023438 25.6875 C 31.398438 25.6875 31.699219 25.382812 31.699219 25.007812 C 31.699219 24.632812 31.398438 24.332031 31.023438 24.332031 C 30.648438 24.332031 30.34375 24.632812 30.34375 25.007812 C 30.34375 25.382812 30.648438 25.6875 31.023438 25.6875 Z M 31.023438 25.6875 "/>
<path style=" stroke:none;fill-rule:nonzero;fill:rgb(87.843137%,85.490196%,93.333333%);fill-opacity:1;" d="M 37.0625 19.648438 C 37.4375 19.648438 37.738281 19.34375 37.738281 18.96875 C 37.738281 18.59375 37.4375 18.292969 37.0625 18.292969 C 36.6875 18.292969 36.382812 18.59375 36.382812 18.96875 C 36.382812 19.34375 36.6875 19.648438 37.0625 19.648438 Z M 37.0625 19.648438 "/>
<path style=" stroke:none;fill-rule:nonzero;fill:rgb(87.843137%,85.490196%,93.333333%);fill-opacity:1;" d="M 18.945312 13.585938 C 19.320312 13.585938 19.625 13.28125 19.625 12.90625 C 19.625 12.53125 19.320312 12.226562 18.945312 12.226562 C 18.570312 12.226562 18.265625 12.53125 18.265625 12.90625 C 18.265625 13.28125 18.570312 13.585938 18.945312 13.585938 Z M 18.945312 13.585938 "/>
<path style=" stroke:none;fill-rule:nonzero;fill:rgb(87.843137%,85.490196%,93.333333%);fill-opacity:1;" d="M 12.90625 31.699219 C 13.28125 31.699219 13.585938 31.398438 13.585938 31.023438 C 13.585938 30.648438 13.28125 30.34375 12.90625 30.34375 C 12.53125 30.34375 12.226562 30.648438 12.226562 31.023438 C 12.226562 31.398438 12.53125 31.699219 12.90625 31.699219 Z M 12.90625 31.699219 "/>
<path style=" stroke:none;fill-rule:nonzero;fill:rgb(87.843137%,85.490196%,93.333333%);fill-opacity:1;" d="M 37.050781 13.4375 C 37.335938 13.4375 37.566406 13.203125 37.566406 12.917969 C 37.566406 12.632812 37.335938 12.402344 37.050781 12.402344 C 36.765625 12.402344 36.53125 12.632812 36.53125 12.917969 C 36.53125 13.203125 36.765625 13.4375 37.050781 13.4375 Z M 37.050781 13.4375 "/>
<path style=" stroke:none;fill-rule:nonzero;fill:rgb(87.843137%,85.490196%,93.333333%);fill-opacity:1;" d="M 24.972656 19.476562 C 25.257812 19.476562 25.488281 19.242188 25.488281 18.957031 C 25.488281 18.671875 25.257812 18.441406 24.972656 18.441406 C 24.6875 18.441406 24.453125 18.671875 24.453125 18.957031 C 24.453125 19.242188 24.6875 19.476562 24.972656 19.476562 Z M 24.972656 19.476562 "/>
<path style=" stroke:none;fill-rule:nonzero;fill:rgb(87.843137%,85.490196%,93.333333%);fill-opacity:1;" d="M 24.972656 31.554688 C 25.257812 31.554688 25.488281 31.320312 25.488281 31.035156 C 25.488281 30.75 25.257812 30.519531 24.972656 30.519531 C 24.6875 30.519531 24.453125 30.75 24.453125 31.035156 C 24.453125 31.320312 24.6875 31.554688 24.972656 31.554688 Z M 24.972656 31.554688 "/>
<path style=" stroke:none;fill-rule:nonzero;fill:rgb(87.843137%,85.490196%,93.333333%);fill-opacity:1;" d="M 12.894531 37.566406 C 13.179688 37.566406 13.410156 37.335938 13.410156 37.050781 C 13.410156 36.765625 13.179688 36.53125 12.894531 36.53125 C 12.609375 36.53125 12.375 36.765625 12.375 37.050781 C 12.375 37.335938 12.609375 37.566406 12.894531 37.566406 Z M 12.894531 37.566406 "/>
<path style=" stroke:none;fill-rule:nonzero;fill:rgb(87.843137%,85.490196%,93.333333%);fill-opacity:1;" d="M 24.972656 26.253906 C 25.652344 26.253906 26.203125 25.703125 26.203125 25.019531 C 26.203125 24.339844 25.652344 23.789062 24.972656 23.789062 C 24.292969 23.789062 23.738281 24.339844 23.738281 25.019531 C 23.738281 25.703125 24.292969 26.253906 24.972656 26.253906 Z M 24.972656 26.253906 "/>
<path style=" stroke:none;fill-rule:nonzero;fill:rgb(87.843137%,85.490196%,93.333333%);fill-opacity:1;" d="M 18.933594 25.488281 C 19.21875 25.488281 19.449219 25.257812 19.449219 24.972656 C 19.449219 24.6875 19.21875 24.453125 18.933594 24.453125 C 18.648438 24.453125 18.414062 24.6875 18.414062 24.972656 C 18.414062 25.257812 18.648438 25.488281 18.933594 25.488281 Z M 18.933594 25.488281 "/>
<path style=" stroke:none;fill-rule:nonzero;fill:rgb(87.843137%,85.490196%,93.333333%);fill-opacity:1;" d="M 31.011719 37.59375 C 31.296875 37.59375 31.527344 37.359375 31.527344 37.074219 C 31.527344 36.789062 31.296875 36.554688 31.011719 36.554688 C 30.726562 36.554688 30.492188 36.789062 30.492188 37.074219 C 30.492188 37.359375 30.726562 37.59375 31.011719 37.59375 Z M 31.011719 37.59375 "/>
<path style=" stroke:none;fill-rule:nonzero;fill:rgb(87.843137%,85.490196%,93.333333%);fill-opacity:1;" d="M 18.945312 31.332031 C 19.117188 31.332031 19.253906 31.191406 19.253906 31.023438 C 19.253906 30.851562 19.117188 30.714844 18.945312 30.714844 C 18.773438 30.714844 18.636719 30.851562 18.636719 31.023438 C 18.636719 31.191406 18.773438 31.332031 18.945312 31.332031 Z M 18.945312 31.332031 "/>
<path style=" stroke:none;fill-rule:nonzero;fill:rgb(87.843137%,85.490196%,93.333333%);fill-opacity:1;" d="M 18.945312 37.371094 C 19.117188 37.371094 19.253906 37.230469 19.253906 37.0625 C 19.253906 36.890625 19.117188 36.753906 18.945312 36.753906 C 18.773438 36.753906 18.636719 36.890625 18.636719 37.0625 C 18.636719 37.230469 18.773438 37.371094 18.945312 37.371094 Z M 18.945312 37.371094 "/>
<path style=" stroke:none;fill-rule:nonzero;fill:rgb(87.843137%,85.490196%,93.333333%);fill-opacity:1;" d="M 31.023438 19.277344 C 31.191406 19.277344 31.332031 19.140625 31.332031 18.96875 C 31.332031 18.800781 31.191406 18.660156 31.023438 18.660156 C 30.851562 18.660156 30.714844 18.800781 30.714844 18.96875 C 30.714844 19.140625 30.851562 19.277344 31.023438 19.277344 Z M 31.023438 19.277344 "/>
<path style=" stroke:none;fill-rule:nonzero;fill:rgb(87.843137%,85.490196%,93.333333%);fill-opacity:1;" d="M 31.023438 13.238281 C 31.191406 13.238281 31.332031 13.101562 31.332031 12.929688 C 31.332031 12.761719 31.191406 12.621094 31.023438 12.621094 C 30.851562 12.621094 30.714844 12.761719 30.714844 12.929688 C 30.714844 13.101562 30.851562 13.238281 31.023438 13.238281 Z M 31.023438 13.238281 "/>
<path style=" stroke:none;fill-rule:nonzero;fill:rgb(87.843137%,85.490196%,93.333333%);fill-opacity:1;" d="M 12.894531 25.957031 C 13.4375 25.957031 13.878906 25.515625 13.878906 24.972656 C 13.878906 24.425781 13.4375 23.984375 12.894531 23.984375 C 12.347656 23.984375 11.90625 24.425781 11.90625 24.972656 C 11.90625 25.515625 12.347656 25.957031 12.894531 25.957031 Z M 12.894531 25.957031 "/>
<path style=" stroke:none;fill-rule:nonzero;fill:rgb(87.843137%,85.490196%,93.333333%);fill-opacity:1;" d="M 12.894531 19.917969 C 13.4375 19.917969 13.878906 19.476562 13.878906 18.933594 C 13.878906 18.386719 13.4375 17.945312 12.894531 17.945312 C 12.347656 17.945312 11.90625 18.386719 11.90625 18.933594 C 11.90625 19.476562 12.347656 19.917969 12.894531 19.917969 Z M 12.894531 19.917969 "/>
<path style=" stroke:none;fill-rule:nonzero;fill:rgb(87.843137%,85.490196%,93.333333%);fill-opacity:1;" d="M 37.050781 25.984375 C 37.59375 25.984375 38.035156 25.542969 38.035156 24.996094 C 38.035156 24.453125 37.59375 24.011719 37.050781 24.011719 C 36.503906 24.011719 36.0625 24.453125 36.0625 24.996094 C 36.0625 25.542969 36.503906 25.984375 37.050781 25.984375 Z M 37.050781 25.984375 "/>
<path style=" stroke:none;fill-rule:nonzero;fill:rgb(87.843137%,85.490196%,93.333333%);fill-opacity:1;" d="M 37.050781 32.019531 C 37.59375 32.019531 38.035156 31.578125 38.035156 31.035156 C 38.035156 30.492188 37.59375 30.050781 37.050781 30.050781 C 36.503906 30.050781 36.0625 30.492188 36.0625 31.035156 C 36.0625 31.578125 36.503906 32.019531 37.050781 32.019531 Z M 37.050781 32.019531 "/>
<path style=" stroke:none;fill-rule:nonzero;fill:rgb(87.843137%,85.490196%,93.333333%);fill-opacity:1;" d="M 31.011719 32.292969 C 31.691406 32.292969 32.242188 31.742188 32.242188 31.058594 C 32.242188 30.378906 31.691406 29.828125 31.011719 29.828125 C 30.332031 29.828125 29.777344 30.378906 29.777344 31.058594 C 29.777344 31.742188 30.332031 32.292969 31.011719 32.292969 Z M 31.011719 32.292969 "/>
<path style=" stroke:none;fill-rule:nonzero;fill:rgb(87.843137%,85.490196%,93.333333%);fill-opacity:1;" d="M 37.050781 38.332031 C 37.730469 38.332031 38.28125 37.78125 38.28125 37.097656 C 38.28125 36.417969 37.730469 35.867188 37.050781 35.867188 C 36.367188 35.867188 35.816406 36.417969 35.816406 37.097656 C 35.816406 37.78125 36.367188 38.332031 37.050781 38.332031 Z M 37.050781 38.332031 "/>
<path style=" stroke:none;fill-rule:nonzero;fill:rgb(87.843137%,85.490196%,93.333333%);fill-opacity:1;" d="M 18.933594 20.191406 C 19.613281 20.191406 20.164062 19.636719 20.164062 18.957031 C 20.164062 18.277344 19.613281 17.726562 18.933594 17.726562 C 18.253906 17.726562 17.699219 18.277344 17.699219 18.957031 C 17.699219 19.636719 18.253906 20.191406 18.933594 20.191406 Z M 18.933594 20.191406 "/>
<path style=" stroke:none;fill-rule:nonzero;fill:rgb(87.843137%,85.490196%,93.333333%);fill-opacity:1;" d="M 12.894531 14.152344 C 13.574219 14.152344 14.125 13.597656 14.125 12.917969 C 14.125 12.238281 13.574219 11.6875 12.894531 11.6875 C 12.214844 11.6875 11.660156 12.238281 11.660156 12.917969 C 11.660156 13.597656 12.214844 14.152344 12.894531 14.152344 Z M 12.894531 14.152344 "/>
</g>
</svg>
