<?xml version="1.0" encoding="UTF-8"?>
<svg xmlns="http://www.w3.org/2000/svg" xmlns:xlink="http://www.w3.org/1999/xlink" width="50px" height="50px" viewBox="0 0 50 50" version="1.1">
<g id="surface1">
<path style=" stroke:none;fill-rule:nonzero;fill:rgb(100%,33.72549%,18.039216%);fill-opacity:1;" d="M 24.894531 0.328125 C 11.25 0.328125 0.191406 11.328125 0.191406 24.90625 C 0.191406 38.480469 11.25 49.484375 24.894531 49.484375 C 38.539062 49.484375 49.601562 38.480469 49.601562 24.90625 C 49.601562 11.328125 38.535156 0.328125 24.894531 0.328125 Z M 33.53125 37.195312 L 16.257812 37.195312 C 14.203125 37.195312 12.539062 35.539062 12.539062 33.496094 L 12.539062 16.3125 C 12.539062 14.273438 14.203125 12.617188 16.257812 12.617188 L 33.53125 12.617188 C 35.582031 12.617188 37.246094 14.273438 37.246094 16.3125 L 37.246094 33.5 C 37.246094 35.542969 35.582031 37.199219 33.53125 37.199219 Z M 33.53125 37.195312 "/>
</g>
</svg>
