<?xml version="1.0" encoding="UTF-8"?>
<svg xmlns="http://www.w3.org/2000/svg" xmlns:xlink="http://www.w3.org/1999/xlink" width="50px" height="50px" viewBox="0 0 50 50" version="1.1">
<g id="surface1">
<path style=" stroke:none;fill-rule:nonzero;fill:rgb(37.647059%,0%,100%);fill-opacity:1;" d="M 50 9.921875 C 46.40625 11.015625 42.96875 12.421875 39.53125 13.90625 C 20.15625 22.734375 7.1875 36.015625 10.625 43.59375 C 11.328125 45 12.421875 46.171875 13.90625 46.875 C 18.515625 49.21875 23.75 50 28.828125 49.0625 C 33.90625 48.125 38.59375 45.625 42.109375 41.796875 C 45.625 37.96875 47.890625 33.125 48.4375 27.96875 C 48.984375 22.8125 47.890625 17.578125 45.3125 13.125 Z M 50 9.921875 "/>
<path style=" stroke:none;fill-rule:nonzero;fill:rgb(37.647059%,0%,100%);fill-opacity:1;" d="M 43.671875 10.625 C 40.15625 5.703125 34.84375 2.265625 28.90625 1.015625 C 22.96875 -0.234375 16.71875 0.859375 11.5625 3.984375 C 6.328125 7.1875 2.578125 12.109375 0.9375 17.96875 C -0.78125 23.75 -0.15625 30 2.65625 35.3125 C 7.1875 28.75 17.265625 21.171875 30.078125 15.46875 C 34.453125 13.59375 38.984375 11.953125 43.671875 10.625 Z M 43.671875 10.625 "/>
</g>
</svg>
