<svg width="50" height="50" viewBox="0 0 50 50" fill="none" xmlns="http://www.w3.org/2000/svg">
<g clip-path="url(#clip0_945_3103)">
<path d="M42.6706 7.5051C32.9214 -2.17553 17.0845 -2.17553 7.33534 7.5051C-2.43811 17.1827 -2.43811 32.8403 7.33534 42.497C17.1088 52.1744 32.9214 52.1744 42.6737 42.497C52.4351 32.8553 52.4351 17.1618 42.6737 7.5051H42.6706ZM40.5203 40.3797C31.9462 48.8698 18.0204 48.8698 9.45841 40.3797C0.896429 31.8866 0.884316 18.0974 9.45841 9.61937C18.0325 1.14132 31.9583 1.12932 40.5203 9.61937C49.1216 18.1214 49.1216 31.8867 40.5203 40.3767V40.3797Z" fill="white"/>
<path d="M38.4971 39.4381V10.5731C37.2221 9.38547 35.7986 8.34483 34.2722 7.52915V35.1166L15.8701 7.43018C14.2709 8.27287 12.796 9.31052 11.4937 10.5491V39.4261C12.7688 40.6137 14.1922 41.6543 15.7187 42.47V14.8796L34.1177 42.581C35.7168 41.7383 37.1918 40.6736 38.4941 39.4381H38.4971Z" fill="white"/>
</g>
<defs>
<clipPath id="clip0_945_3103">
<rect width="50" height="50" fill="white"/>
</clipPath>
</defs>
</svg>
