<?xml version="1.0" encoding="UTF-8"?>
<svg xmlns="http://www.w3.org/2000/svg" xmlns:xlink="http://www.w3.org/1999/xlink" width="50px" height="50px" viewBox="0 0 50 50" version="1.1">
<g id="surface1">
<path style=" stroke:none;fill-rule:nonzero;fill:rgb(100%,100%,100%);fill-opacity:1;" d="M 42.671875 7.503906 C 32.921875 -2.175781 17.085938 -2.175781 7.335938 7.503906 C -2.4375 17.183594 -2.4375 32.839844 7.335938 42.496094 C 17.109375 52.175781 32.921875 52.175781 42.671875 42.496094 C 52.433594 32.855469 52.433594 17.160156 42.671875 7.503906 Z M 40.519531 40.378906 C 31.945312 48.871094 18.019531 48.871094 9.457031 40.378906 C 0.894531 31.886719 0.882812 18.097656 9.457031 9.621094 C 18.03125 1.140625 31.957031 1.128906 40.519531 9.621094 C 49.121094 18.121094 49.121094 31.886719 40.519531 40.375 Z M 40.519531 40.378906 "/>
<path style=" stroke:none;fill-rule:nonzero;fill:rgb(100%,100%,100%);fill-opacity:1;" d="M 38.496094 39.4375 L 38.496094 10.574219 C 37.222656 9.386719 35.796875 8.34375 34.273438 7.527344 L 34.273438 35.117188 L 15.871094 7.429688 C 14.269531 8.273438 12.796875 9.308594 11.492188 10.550781 L 11.492188 39.425781 C 12.769531 40.613281 14.191406 41.65625 15.71875 42.46875 L 15.71875 14.878906 L 34.117188 42.582031 C 35.71875 41.738281 37.191406 40.671875 38.492188 39.4375 Z M 38.496094 39.4375 "/>
</g>
</svg>
