<?xml version="1.0" encoding="UTF-8"?>
<svg xmlns="http://www.w3.org/2000/svg" xmlns:xlink="http://www.w3.org/1999/xlink" width="50px" height="50px" viewBox="0 0 50 50" version="1.1">
<defs>
<linearGradient id="linear0" gradientUnits="userSpaceOnUse" x1="43.8785" y1="24.143" x2="8.30119" y2="30.2656" >
<stop offset="0" style="stop-color:rgb(0.392157%,63.137255%,97.647059%);stop-opacity:1;"/>
<stop offset="1" style="stop-color:rgb(17.254902%,94.509804%,62.352941%);stop-opacity:1;"/>
</linearGradient>
<linearGradient id="linear1" gradientUnits="userSpaceOnUse" x1="43.2923" y1="20.7371" x2="7.715" y2="26.8597" >
<stop offset="0" style="stop-color:rgb(0.392157%,63.137255%,97.647059%);stop-opacity:1;"/>
<stop offset="1" style="stop-color:rgb(17.254902%,94.509804%,62.352941%);stop-opacity:1;"/>
</linearGradient>
<linearGradient id="linear2" gradientUnits="userSpaceOnUse" x1="42.5554" y1="16.4549" x2="6.97816" y2="22.5775" >
<stop offset="0" style="stop-color:rgb(0.392157%,63.137255%,97.647059%);stop-opacity:1;"/>
<stop offset="1" style="stop-color:rgb(17.254902%,94.509804%,62.352941%);stop-opacity:1;"/>
</linearGradient>
<linearGradient id="linear3" gradientUnits="userSpaceOnUse" x1="42.7963" y1="17.8554" x2="7.21906" y2="23.978" >
<stop offset="0" style="stop-color:rgb(0.392157%,63.137255%,97.647059%);stop-opacity:1;"/>
<stop offset="1" style="stop-color:rgb(17.254902%,94.509804%,62.352941%);stop-opacity:1;"/>
</linearGradient>
<linearGradient id="linear4" gradientUnits="userSpaceOnUse" x1="43.5091" y1="21.9972" x2="7.93186" y2="28.1198" >
<stop offset="0" style="stop-color:rgb(0.392157%,63.137255%,97.647059%);stop-opacity:1;"/>
<stop offset="1" style="stop-color:rgb(17.254902%,94.509804%,62.352941%);stop-opacity:1;"/>
</linearGradient>
<linearGradient id="linear5" gradientUnits="userSpaceOnUse" x1="44.2785" y1="26.4678" x2="8.70125" y2="32.5904" >
<stop offset="0" style="stop-color:rgb(0.392157%,63.137255%,97.647059%);stop-opacity:1;"/>
<stop offset="1" style="stop-color:rgb(17.254902%,94.509804%,62.352941%);stop-opacity:1;"/>
</linearGradient>
</defs>
<g id="surface1">
<path style=" stroke:none;fill-rule:nonzero;fill:rgb(95.294118%,95.294118%,95.294118%);fill-opacity:1;" d="M 50 25 C 50 38.808594 38.808594 50 25 50 C 11.191406 50 0 38.808594 0 25 C 0 11.191406 11.191406 0 25 0 C 38.808594 0 50 11.191406 50 25 Z M 50 25 "/>
<path style=" stroke:none;fill-rule:nonzero;fill:url(#linear0);" d="M 22.351562 24.464844 L 23.59375 27.90625 C 23.59375 27.90625 21.289062 30.074219 18.5 31.417969 C 15.511719 32.855469 11.972656 33.363281 10.214844 29.578125 C 14.519531 33.035156 22.351562 24.464844 22.351562 24.464844 Z M 22.351562 24.464844 "/>
<path style=" stroke:none;fill-rule:nonzero;fill:url(#linear1);" d="M 18.875 32.042969 C 18.289062 32.632812 9.910156 38.722656 5.894531 32.59375 C 4.007812 29.71875 5.277344 24.570312 8.101562 20.9375 C 11.335938 16.777344 17.277344 14.519531 19.832031 18.511719 C 14.664062 16.046875 9.128906 23.105469 9.128906 26.710938 C 9.128906 30.3125 10.566406 35.445312 18.875 32.042969 Z M 18.875 32.042969 "/>
<path style=" stroke:none;fill-rule:nonzero;fill:url(#linear2);" d="M 11.816406 17.074219 C 16.238281 13.480469 21.816406 13.363281 23.804688 16.191406 C 25.789062 19.023438 27.132812 22.777344 27.132812 22.777344 L 23.59375 26.113281 C 23.59375 26.113281 21.617188 19.824219 20.484375 18.226562 C 19.355469 16.625 17.332031 14.519531 11.816406 17.074219 Z M 11.816406 17.074219 "/>
<path style=" stroke:none;fill-rule:nonzero;fill:url(#linear3);" d="M 28.144531 23.492188 L 26.898438 20.054688 C 26.898438 20.054688 28.699219 18.402344 31.488281 17.058594 C 34.476562 15.617188 37.667969 15.789062 39.605469 18.738281 C 35.011719 15.246094 28.144531 23.492188 28.144531 23.492188 Z M 28.144531 23.492188 "/>
<path style=" stroke:none;fill-rule:nonzero;fill:url(#linear4);" d="M 31.597656 16.25 C 32.1875 15.660156 39.789062 11 43.808594 17.128906 C 45.695312 20.007812 45.394531 24.773438 42.519531 28.363281 C 38.820312 32.992188 33.6875 33.6875 31.128906 29.699219 C 36.214844 32.503906 41.105469 25.902344 41.105469 22.296875 C 41.105469 18.695312 38.972656 13.65625 31.597656 16.25 Z M 31.597656 16.25 "/>
<path style=" stroke:none;fill-rule:nonzero;fill:url(#linear5);" d="M 39.820312 31.808594 C 34.757812 36.457031 28.90625 35.523438 26.921875 32.691406 C 24.9375 29.859375 23.59375 26.109375 23.59375 26.109375 L 27.132812 22.769531 C 27.132812 22.769531 29.558594 29.058594 30.6875 30.660156 C 31.820312 32.257812 34.617188 34.910156 39.820312 31.808594 Z M 39.820312 31.808594 "/>
</g>
</svg>
