<svg width="50" height="50" viewBox="0 0 50 50" fill="none" xmlns="http://www.w3.org/2000/svg">
<g clip-path="url(#clip0_954_5231)">
<circle cx="25" cy="25" r="25" fill="#F3F3F3"/>
<path d="M22.3511 24.4656L23.5942 27.9055C23.5942 27.9055 21.2895 30.0732 18.4987 31.4175C15.5127 32.8558 11.9736 33.3615 10.2153 29.5787C14.5179 33.0355 22.3511 24.4656 22.3511 24.4656Z" fill="url(#paint0_linear_954_5231)"/>
<path d="M18.8756 32.0427C18.2872 32.6311 9.91198 38.7245 5.89433 32.5943C4.00849 29.7169 5.27575 24.57 8.10064 20.9371C11.3349 16.7776 17.2759 14.5198 19.8318 18.5098C14.665 16.0459 9.13046 23.1066 9.13046 26.7105C9.13046 30.3143 10.5647 35.4443 18.8756 32.0427Z" fill="url(#paint1_linear_954_5231)"/>
<path d="M11.8151 17.0755C16.2372 13.4809 21.8176 13.3614 23.8035 16.193C25.7893 19.0246 27.1315 22.7756 27.1315 22.7756L23.5943 26.1128C23.5943 26.1128 21.6154 19.8244 20.4846 18.2247C19.3538 16.6251 17.3312 14.5197 11.8151 17.0755Z" fill="url(#paint2_linear_954_5231)"/>
<path d="M28.1427 23.4928L26.8995 20.0528C26.8995 20.0528 28.6984 18.4015 31.4892 17.0573C34.4752 15.6189 37.6672 15.7886 39.6071 18.7397C35.0103 15.2461 28.1427 23.4928 28.1427 23.4928Z" fill="url(#paint3_linear_954_5231)"/>
<path d="M31.5995 16.2481C32.1879 15.6597 39.7909 11.0005 43.8085 17.1307C45.6944 20.0081 45.3964 24.7718 42.5214 28.3652C38.8193 32.9925 33.6864 33.6883 31.1306 29.6983C36.2147 32.5023 41.1056 25.9013 41.1056 22.2975C41.1056 18.6936 38.9727 13.6555 31.5995 16.2481Z" fill="url(#paint4_linear_954_5231)"/>
<path d="M39.8186 31.8075C34.7575 36.4556 28.9081 35.5217 26.9223 32.6901C24.9365 29.8585 23.5942 26.1075 23.5942 26.1075L27.1315 22.7703C27.1315 22.7703 29.5586 29.0587 30.6894 30.6583C31.8202 32.258 34.6177 34.9111 39.8186 31.8075Z" fill="url(#paint5_linear_954_5231)"/>
</g>
<defs>
<linearGradient id="paint0_linear_954_5231" x1="43.8785" y1="24.143" x2="8.30119" y2="30.2656" gradientUnits="userSpaceOnUse">
<stop stop-color="#01A1F9"/>
<stop offset="1" stop-color="#2CF19F"/>
</linearGradient>
<linearGradient id="paint1_linear_954_5231" x1="43.2923" y1="20.7371" x2="7.715" y2="26.8597" gradientUnits="userSpaceOnUse">
<stop stop-color="#01A1F9"/>
<stop offset="1" stop-color="#2CF19F"/>
</linearGradient>
<linearGradient id="paint2_linear_954_5231" x1="42.5554" y1="16.4549" x2="6.97816" y2="22.5775" gradientUnits="userSpaceOnUse">
<stop stop-color="#01A1F9"/>
<stop offset="1" stop-color="#2CF19F"/>
</linearGradient>
<linearGradient id="paint3_linear_954_5231" x1="42.7963" y1="17.8554" x2="7.21906" y2="23.978" gradientUnits="userSpaceOnUse">
<stop stop-color="#01A1F9"/>
<stop offset="1" stop-color="#2CF19F"/>
</linearGradient>
<linearGradient id="paint4_linear_954_5231" x1="43.5091" y1="21.9972" x2="7.93186" y2="28.1198" gradientUnits="userSpaceOnUse">
<stop stop-color="#01A1F9"/>
<stop offset="1" stop-color="#2CF19F"/>
</linearGradient>
<linearGradient id="paint5_linear_954_5231" x1="44.2785" y1="26.4678" x2="8.70125" y2="32.5904" gradientUnits="userSpaceOnUse">
<stop stop-color="#01A1F9"/>
<stop offset="1" stop-color="#2CF19F"/>
</linearGradient>
<clipPath id="clip0_954_5231">
<rect width="50" height="50" fill="white"/>
</clipPath>
</defs>
</svg>
