<svg width="47" height="31" viewBox="0 0 47 31" fill="none" xmlns="http://www.w3.org/2000/svg">
<path fill-rule="evenodd" clip-rule="evenodd" d="M24.2597 0.753522C22.7457 2.26652 23.6587 5.97252 25.7047 6.62152C28.5167 7.51452 31.0207 5.01052 30.1277 2.19852C29.4787 0.152522 25.7727 -0.760478 24.2597 0.753522ZM2.84075 10.3365C-3.17725 16.7845 0.974748 27.0865 9.59275 27.0865C18.3667 27.0865 22.6527 15.4245 15.8457 10.0705C12.2577 7.24852 5.59675 7.38452 2.84075 10.3365ZM22.7737 11.3365C22.2387 13.1245 21.2347 16.8365 20.5447 19.5865C19.8537 22.3365 18.6817 25.2965 17.9407 26.1655C16.0487 28.3815 16.2647 30.0865 18.4377 30.0865C21.4577 30.0865 23.1847 27.0785 25.4497 17.8725C28.0347 7.36052 28.0187 8.08652 25.6707 8.08652C24.3677 8.08652 23.4337 9.13452 22.7737 11.3365ZM30.0477 10.5415C24.2867 16.3015 28.8797 27.0865 37.0927 27.0865C45.4107 27.0865 49.8167 16.5835 43.9567 10.7225C40.3247 7.09052 33.5857 7.00252 30.0477 10.5415ZM13.3147 13.3365C15.4927 16.1505 15.4687 18.1185 13.2277 20.7245C11.3887 22.8625 10.4007 23.2555 8.22875 22.7095C2.13475 21.1805 3.21675 12.0865 9.49375 12.0865C11.0637 12.0865 12.7827 12.6495 13.3147 13.3365ZM40.7637 13.7415C41.7697 14.6515 42.5927 16.4265 42.5927 17.6845C42.5927 20.0385 39.2677 23.0865 36.6987 23.0865C34.4167 23.0865 31.5927 19.9985 31.5927 17.5025C31.5927 12.7115 37.1207 10.4445 40.7637 13.7415Z" fill="#FEFFFC"/>
</svg>
