<?xml version="1.0" encoding="UTF-8"?>
<svg xmlns="http://www.w3.org/2000/svg" xmlns:xlink="http://www.w3.org/1999/xlink" width="50px" height="50px" viewBox="0 0 50 50" version="1.1">
<g id="surface1">
<path style=" stroke:none;fill-rule:nonzero;fill:rgb(100%,100%,100%);fill-opacity:1;" d="M 50 25 C 50 38.808594 38.808594 50 25 50 C 11.191406 50 0 38.808594 0 25 C 0 11.191406 11.191406 0 25 0 C 38.808594 0 50 11.191406 50 25 Z M 50 25 "/>
<path style=" stroke:none;fill-rule:evenodd;fill:rgb(92.156863%,92.156863%,92.156863%);fill-opacity:1;" d="M 11 15.898438 L 11 20.800781 L 20 20.800781 L 20 29.601562 L 11 29.601562 L 11 39.398438 L 20.800781 39.398438 L 20.800781 30.398438 L 29.601562 30.398438 L 29.601562 39.398438 L 39.398438 39.398438 L 39.398438 29.601562 L 30.398438 29.601562 L 30.398438 20.800781 L 39.398438 20.800781 L 39.398438 11 L 29.601562 11 L 29.601562 20 L 20.800781 20 L 20.800781 11 L 11 11 Z M 11 15.898438 "/>
<path style=" stroke:none;fill-rule:evenodd;fill:rgb(81.176471%,81.176471%,81.176471%);fill-opacity:1;" d="M 11 15.777344 L 11 20.554688 L 11.449219 20.675781 C 11.699219 20.738281 13.855469 20.796875 16.25 20.796875 C 19.015625 20.800781 20.601562 20.871094 20.601562 21 C 20.601562 21.109375 20.460938 21.199219 20.289062 21.199219 C 20.015625 21.199219 19.984375 21.707031 20.039062 25.398438 L 20.101562 29.601562 L 16 29.601562 C 13.746094 29.605469 11.699219 29.660156 11.449219 29.726562 L 11 29.847656 L 11 39.398438 L 20.554688 39.398438 L 20.675781 38.949219 C 20.738281 38.703125 20.796875 36.542969 20.796875 34.148438 C 20.800781 31.386719 20.871094 29.800781 21 29.800781 C 21.109375 29.800781 21.199219 29.941406 21.199219 30.109375 C 21.199219 30.386719 21.707031 30.414062 25.398438 30.359375 L 29.601562 30.300781 L 29.601562 34.398438 C 29.605469 36.65625 29.660156 38.703125 29.726562 38.949219 L 29.847656 39.398438 L 39.398438 39.398438 L 39.398438 29.847656 L 38.949219 29.726562 C 38.703125 29.660156 36.542969 29.605469 34.148438 29.601562 C 31.386719 29.601562 29.800781 29.527344 29.800781 29.398438 C 29.800781 29.289062 29.941406 29.199219 30.109375 29.199219 C 30.386719 29.199219 30.414062 28.695312 30.359375 25 L 30.300781 20.800781 L 34.398438 20.796875 C 36.65625 20.796875 38.703125 20.738281 38.949219 20.675781 L 39.398438 20.554688 L 39.398438 11 L 29.847656 11 L 29.726562 11.449219 C 29.660156 11.699219 29.605469 13.855469 29.601562 16.25 C 29.601562 19.015625 29.527344 20.601562 29.398438 20.601562 C 29.289062 20.601562 29.199219 20.460938 29.199219 20.289062 C 29.199219 20.015625 28.695312 19.984375 25 20.039062 L 20.800781 20.101562 L 20.796875 16 C 20.796875 13.746094 20.738281 11.699219 20.675781 11.449219 L 20.554688 11 L 11 11 Z M 11 15.777344 "/>
<path style=" stroke:none;fill-rule:evenodd;fill:rgb(68.627451%,68.627451%,68.627451%);fill-opacity:1;" d="M 11 15.800781 L 11 20.601562 L 15.800781 20.601562 C 20.464844 20.601562 20.601562 20.609375 20.601562 21 C 20.601562 21.21875 20.511719 21.398438 20.398438 21.398438 C 20.273438 21.398438 20.199219 22.800781 20.199219 25.199219 C 20.199219 27.601562 20.273438 29 20.398438 29 C 20.511719 29 20.601562 29.179688 20.601562 29.398438 C 20.601562 29.789062 20.464844 29.800781 15.800781 29.800781 L 11 29.800781 L 11 39.398438 L 20.601562 39.398438 L 20.601562 34.601562 C 20.601562 29.933594 20.609375 29.800781 21 29.800781 C 21.21875 29.800781 21.398438 29.890625 21.398438 30 C 21.398438 30.125 22.800781 30.199219 25.199219 30.199219 C 27.601562 30.199219 29 30.125 29 30 C 29 29.890625 29.179688 29.800781 29.398438 29.800781 C 29.789062 29.800781 29.800781 29.933594 29.800781 34.601562 L 29.800781 39.398438 L 39.398438 39.398438 L 39.398438 29.800781 L 34.601562 29.800781 C 29.933594 29.800781 29.800781 29.789062 29.800781 29.398438 C 29.800781 29.179688 29.890625 29 30 29 C 30.125 29 30.199219 27.601562 30.199219 25.199219 C 30.199219 22.800781 30.125 21.398438 30 21.398438 C 29.890625 21.398438 29.800781 21.21875 29.800781 21 C 29.800781 20.609375 29.933594 20.601562 34.601562 20.601562 L 39.398438 20.601562 L 39.398438 11 L 29.800781 11 L 29.800781 15.800781 C 29.800781 20.464844 29.789062 20.601562 29.398438 20.601562 C 29.179688 20.601562 29 20.511719 29 20.398438 C 29 20.273438 27.601562 20.199219 25.199219 20.199219 C 22.800781 20.199219 21.398438 20.273438 21.398438 20.398438 C 21.398438 20.511719 21.21875 20.601562 21 20.601562 C 20.609375 20.601562 20.601562 20.464844 20.601562 15.800781 L 20.601562 11 L 11 11 Z M 11 15.800781 "/>
<path style=" stroke:none;fill-rule:evenodd;fill:rgb(52.156863%,52.156863%,52.156863%);fill-opacity:1;" d="M 11.351562 11.417969 C 11.039062 11.757812 11 12.28125 11 16 C 11 19.601562 11.042969 20.199219 11.300781 20.199219 C 11.464844 20.199219 11.601562 20.289062 11.601562 20.398438 C 11.601562 20.527344 13.136719 20.601562 15.8125 20.601562 C 19.199219 20.601562 20.085938 20.542969 20.3125 20.3125 C 20.542969 20.085938 20.601562 19.199219 20.601562 15.8125 C 20.601562 13.136719 20.527344 11.601562 20.398438 11.601562 C 20.289062 11.601562 20.199219 11.464844 20.199219 11.300781 C 20.199219 11.042969 19.601562 11.003906 15.949219 11.015625 C 12.027344 11.03125 11.671875 11.0625 11.351562 11.417969 Z M 30.199219 11.300781 C 30.199219 11.464844 30.109375 11.601562 30 11.601562 C 29.871094 11.601562 29.800781 13.136719 29.800781 15.8125 C 29.800781 19.199219 29.855469 20.085938 30.085938 20.3125 C 30.316406 20.542969 31.199219 20.601562 34.585938 20.601562 C 37.261719 20.601562 38.800781 20.527344 38.800781 20.398438 C 38.800781 20.289062 38.933594 20.199219 39.101562 20.199219 C 39.355469 20.199219 39.398438 19.601562 39.398438 16 C 39.398438 12.066406 39.375 11.773438 39 11.398438 C 38.625 11.027344 38.332031 11 34.398438 11 C 30.800781 11 30.199219 11.042969 30.199219 11.300781 Z M 20.601562 25.199219 L 20.601562 29.800781 L 29.800781 29.800781 L 29.800781 20.601562 L 20.601562 20.601562 Z M 11.601562 30 C 11.601562 30.109375 11.464844 30.199219 11.300781 30.199219 C 11.042969 30.199219 11 30.800781 11 34.398438 C 11 38.332031 11.027344 38.625 11.398438 39 C 11.773438 39.375 12.066406 39.398438 16 39.398438 C 19.601562 39.398438 20.199219 39.355469 20.199219 39.101562 C 20.199219 38.933594 20.289062 38.800781 20.398438 38.800781 C 20.527344 38.800781 20.601562 37.261719 20.601562 34.585938 C 20.601562 31.199219 20.542969 30.316406 20.3125 30.085938 C 20.085938 29.855469 19.199219 29.800781 15.8125 29.800781 C 13.136719 29.800781 11.601562 29.871094 11.601562 30 Z M 30.050781 30.097656 C 29.734375 30.457031 29.6875 38.800781 30 38.800781 C 30.109375 38.800781 30.199219 38.933594 30.199219 39.101562 C 30.199219 39.355469 30.800781 39.398438 34.398438 39.398438 C 38.332031 39.398438 38.625 39.375 39 39 C 39.375 38.625 39.398438 38.332031 39.398438 34.398438 C 39.398438 30.800781 39.355469 30.199219 39.101562 30.199219 C 38.933594 30.199219 38.800781 30.109375 38.800781 30 C 38.800781 29.871094 37.253906 29.804688 34.550781 29.808594 C 31.136719 29.8125 30.25 29.871094 30.050781 30.097656 Z M 30.050781 30.097656 "/>
<path style=" stroke:none;fill-rule:evenodd;fill:rgb(25.098039%,25.098039%,25.098039%);fill-opacity:1;" d="M 11.601562 11.300781 C 11.601562 11.464844 11.464844 11.601562 11.300781 11.601562 C 11.042969 11.601562 11 12.199219 11 15.800781 C 11 19.398438 11.042969 20 11.300781 20 C 11.464844 20 11.601562 20.136719 11.601562 20.300781 C 11.601562 20.558594 12.1875 20.601562 15.699219 20.601562 C 19.535156 20.601562 19.824219 20.574219 20.199219 20.199219 C 20.574219 19.824219 20.601562 19.535156 20.601562 15.699219 C 20.601562 12.1875 20.558594 11.601562 20.300781 11.601562 C 20.136719 11.601562 20 11.464844 20 11.300781 C 20 11.042969 19.398438 11 15.800781 11 C 12.199219 11 11.601562 11.042969 11.601562 11.300781 Z M 30.398438 11.300781 C 30.398438 11.464844 30.265625 11.601562 30.101562 11.601562 C 29.84375 11.601562 29.800781 12.1875 29.800781 15.699219 C 29.800781 19.535156 29.824219 19.824219 30.199219 20.199219 C 30.574219 20.574219 30.867188 20.601562 34.699219 20.601562 C 38.210938 20.601562 38.800781 20.558594 38.800781 20.300781 C 38.800781 20.136719 38.933594 20 39.101562 20 C 39.355469 20 39.398438 19.398438 39.398438 15.800781 C 39.398438 12.199219 39.355469 11.601562 39.101562 11.601562 C 38.933594 11.601562 38.800781 11.464844 38.800781 11.300781 C 38.800781 11.042969 38.199219 11 34.601562 11 C 31 11 30.398438 11.042969 30.398438 11.300781 Z M 20.601562 25.199219 L 20.601562 29.800781 L 29.800781 29.800781 L 29.800781 20.601562 L 20.601562 20.601562 Z M 11.601562 30.101562 C 11.601562 30.265625 11.464844 30.398438 11.300781 30.398438 C 11.042969 30.398438 11 31 11 34.601562 C 11 38.199219 11.042969 38.800781 11.300781 38.800781 C 11.464844 38.800781 11.601562 38.933594 11.601562 39.101562 C 11.601562 39.355469 12.199219 39.398438 15.800781 39.398438 C 19.398438 39.398438 20 39.355469 20 39.101562 C 20 38.933594 20.136719 38.800781 20.300781 38.800781 C 20.558594 38.800781 20.601562 38.210938 20.601562 34.699219 C 20.601562 30.867188 20.574219 30.574219 20.199219 30.199219 C 19.824219 29.824219 19.535156 29.800781 15.699219 29.800781 C 12.1875 29.800781 11.601562 29.84375 11.601562 30.101562 Z M 30.148438 30.214844 C 29.839844 30.554688 29.800781 31.074219 29.800781 34.699219 C 29.800781 38.210938 29.84375 38.800781 30.101562 38.800781 C 30.265625 38.800781 30.398438 38.933594 30.398438 39.101562 C 30.398438 39.355469 31 39.398438 34.601562 39.398438 C 38.199219 39.398438 38.800781 39.355469 38.800781 39.101562 C 38.800781 38.933594 38.933594 38.800781 39.101562 38.800781 C 39.355469 38.800781 39.398438 38.199219 39.398438 34.601562 C 39.398438 31 39.355469 30.398438 39.101562 30.398438 C 38.933594 30.398438 38.800781 30.265625 38.800781 30.101562 C 38.800781 29.84375 38.214844 29.800781 34.648438 29.816406 C 30.828125 29.832031 30.472656 29.863281 30.148438 30.214844 Z M 30.148438 30.214844 "/>
<path style=" stroke:none;fill-rule:evenodd;fill:rgb(15.686275%,15.686275%,15.686275%);fill-opacity:1;" d="M 11.601562 15.902344 L 11.601562 20.207031 L 15.851562 20.152344 L 20.101562 20.101562 L 20.152344 15.851562 L 20.207031 11.601562 L 11.601562 11.601562 Z M 30.246094 15.851562 L 30.300781 20.101562 L 34.550781 20.152344 L 38.800781 20.207031 L 38.800781 11.601562 L 30.191406 11.601562 Z M 20.726562 21.050781 C 20.660156 21.296875 20.605469 23.3125 20.601562 25.527344 C 20.601562 29.535156 20.601562 29.554688 21.050781 29.675781 C 21.296875 29.742188 23.3125 29.796875 25.527344 29.796875 C 29.535156 29.800781 29.554688 29.796875 29.675781 29.351562 C 29.738281 29.101562 29.796875 27.089844 29.796875 24.875 C 29.800781 20.867188 29.796875 20.847656 29.351562 20.726562 C 29.101562 20.660156 27.089844 20.605469 24.875 20.601562 C 20.867188 20.601562 20.847656 20.601562 20.726562 21.050781 Z M 11.601562 34.496094 L 11.601562 38.800781 L 20.207031 38.800781 L 20.152344 34.550781 L 20.101562 30.300781 L 11.601562 30.191406 Z M 30.332031 30.332031 C 30.261719 30.40625 30.199219 32.339844 30.199219 34.632812 L 30.199219 38.800781 L 38.800781 38.800781 L 38.800781 30.199219 L 34.632812 30.199219 C 32.339844 30.199219 30.40625 30.261719 30.332031 30.332031 Z M 30.332031 30.332031 "/>
<path style=" stroke:none;fill-rule:evenodd;fill:rgb(0%,0%,0%);fill-opacity:1;" d="M 11.601562 15.800781 L 11.601562 20 L 20 20 L 20 11.601562 L 11.601562 11.601562 Z M 30.398438 15.800781 L 30.398438 20 L 38.800781 20 L 38.800781 11.601562 L 30.398438 11.601562 Z M 20.800781 25.199219 L 20.800781 29.601562 L 29.601562 29.601562 L 29.601562 20.800781 L 20.800781 20.800781 Z M 11.601562 34.601562 L 11.601562 38.800781 L 20 38.800781 L 20 30.398438 L 11.601562 30.398438 Z M 30.398438 34.601562 L 30.398438 38.800781 L 38.800781 38.800781 L 38.800781 30.398438 L 30.398438 30.398438 Z M 30.398438 34.601562 "/>
</g>
</svg>
