<svg width="50" height="51" viewBox="0 0 50 51" fill="none" xmlns="http://www.w3.org/2000/svg">
<g clip-path="url(#clip0_538_601)">
<mask id="mask0_538_601" style="mask-type:luminance" maskUnits="userSpaceOnUse" x="0" y="0" width="50" height="51">
<path d="M50 0.0546875H0V50.0547H50V0.0546875Z" fill="white"/>
</mask>
<g mask="url(#mask0_538_601)">
<mask id="mask1_538_601" style="mask-type:luminance" maskUnits="userSpaceOnUse" x="5" y="5" width="40" height="41">
<path d="M45 5.05469H5V45.0547H45V5.05469Z" fill="white"/>
</mask>
<g mask="url(#mask1_538_601)">
<path fill-rule="evenodd" clip-rule="evenodd" d="M25 38.9941C32.6985 38.9941 38.9394 32.7532 38.9394 25.0547C38.9394 17.3562 32.6985 11.1153 25 11.1153C17.3015 11.1153 11.0606 17.3562 11.0606 25.0547C11.0606 32.7532 17.3015 38.9941 25 38.9941ZM25 45.0547C36.0458 45.0547 45 36.1004 45 25.0547C45 14.0089 36.0458 5.05469 25 5.05469C13.9542 5.05469 5 14.0089 5 25.0547C5 36.1004 13.9542 45.0547 25 45.0547Z" fill="white"/>
<path fill-rule="evenodd" clip-rule="evenodd" d="M33.0212 38.7778C30.6156 37.3448 28.3732 34.8489 27.2455 32.1656C26.6326 30.7071 28.3167 28.2248 30.1456 26.3281L30.4666 26.6071C30.2844 26.817 30.1262 27.1644 30.0269 27.7183C29.626 29.9545 30.8165 32.2028 32.9931 33.6059C34.2151 34.3936 35.2912 34.3428 35.9067 33.7511L39.9839 38.1901C38.5361 39.7009 36.1659 40.3188 33.0212 38.7778Z" fill="white"/>
<path fill-rule="evenodd" clip-rule="evenodd" d="M16.947 38.7778C19.3525 37.3448 21.595 34.8489 22.7227 32.1656C23.3357 30.7071 21.6516 28.2248 19.8225 26.3281L19.5017 26.6071C19.6838 26.817 19.842 27.1644 19.9413 27.7183C20.3422 29.9545 19.1518 32.2028 16.9751 33.6059C15.753 34.3936 14.677 34.3428 14.0615 33.7511L9.98438 38.1901C11.432 39.7009 13.8025 40.3188 16.947 38.7778Z" fill="white"/>
<path fill-rule="evenodd" clip-rule="evenodd" d="M43.6511 19.3187L38.855 16.3906C36.1813 20.2976 31.3057 23.9184 24.9844 23.9184V33.4647C26.8605 33.4647 27.9751 34.5728 29.2876 35.8775C30.284 36.868 31.3945 37.972 33.0391 38.7906C27.0228 33.8553 31.5603 28.9291 36.0646 26.2546C39.5104 24.2086 42.0038 21.7772 43.6511 19.3187Z" fill="white"/>
<path fill-rule="evenodd" clip-rule="evenodd" d="M6.31641 19.3187L11.1126 16.3906C13.7864 20.2976 18.6617 23.9184 24.9831 23.9184V33.4647C23.1069 33.4647 21.9924 34.5728 20.68 35.8775C19.6835 36.868 18.5729 37.972 16.9285 38.7906C22.9446 33.8553 18.4072 28.9291 13.9027 26.2546C10.4571 24.2086 7.96377 21.7772 6.31641 19.3187Z" fill="white"/>
</g>
</g>
</g>
<defs>
<clipPath id="clip0_538_601">
<rect width="50" height="50" fill="white" transform="translate(0 0.0546875)"/>
</clipPath>
</defs>
</svg>
