<svg width="50" height="50" viewBox="0 0 50 50" fill="none" xmlns="http://www.w3.org/2000/svg">
<g clip-path="url(#clip0_401_981)">
<path d="M49.8188 27.6432C49.8188 22.261 53.7568 18.3865 59.1677 18.3865C64.5787 18.3865 68.5167 22.261 68.5167 27.6432C68.5167 33.0255 64.5787 36.8995 59.1677 36.8995C53.7912 36.8995 49.8188 33.0255 49.8188 27.6432ZM64.6125 27.6432C64.6125 24.2833 62.4552 21.7464 59.1677 21.7464C55.8802 21.7464 53.7568 24.2833 53.7568 27.6432C53.7568 30.9688 55.8802 33.5401 59.1677 33.5401C62.4552 33.5057 64.6125 30.9688 64.6125 27.6432Z" fill="white"/>
<path fill-rule="evenodd" clip-rule="evenodd" d="M39.013 7.23384C41.3604 8.97499 42.6641 10.5391 43.0698 12.1031C43.3307 12.9885 43.099 14.051 42.5193 14.8479C41.9396 15.6448 41.0125 16.0875 39.9401 16.0875C39.5344 16.0875 39.1286 16.0286 38.7229 15.9104C38.4828 16.5922 38.2828 17.264 38.1417 17.901C39.9187 20.651 40.9542 23.9422 40.9542 27.4792C40.9542 37.1297 33.2745 44.95 23.7984 44.95C14.3219 44.95 6.64218 37.1297 6.64218 27.4792C6.64218 17.8286 14.3219 10.0078 23.7984 10.0078C25.8937 10.0078 27.9031 10.3927 29.7625 11.0969C29.9703 10.9917 30.2026 10.8672 30.4588 10.7213C30.6307 10.6208 30.8161 10.5104 31.0135 10.3901C30.8401 10.125 30.6953 9.83072 30.5797 9.59478C30.2609 8.82759 30.3771 7.55832 30.8693 6.61405C31.275 5.81718 31.913 5.28593 32.637 5.13853C32.9271 5.07968 33.2167 5.04999 33.5354 5.04999C35.1297 5.04999 37.1292 5.84686 39.013 7.23384ZM30.7859 11.5229L30.8062 11.5109L30.8115 11.513C31.7391 11.0114 33.0719 10.1557 34.6078 8.91613C35.1875 9.15207 35.9406 9.56509 36.8682 10.1849C37.9693 10.9229 38.926 11.7495 39.5344 12.3984C38.5219 13.7536 37.8557 15.6088 37.45 16.9068C35.7151 14.5896 33.4255 12.7265 30.7859 11.5229ZM30.1828 12.3099C28.2245 11.4552 26.0661 10.9818 23.7984 10.9818C14.8437 10.9818 7.59843 18.3599 7.59843 27.4792C7.59843 36.5984 14.8437 43.976 23.7984 43.976C32.724 43.976 39.9979 36.5984 39.9979 27.4792C39.9979 24.537 39.2437 21.7765 37.9219 19.3864L37.9115 19.5109C36.1266 16.3547 33.4292 13.825 30.1828 12.3099ZM32.0286 9.74218C31.9344 9.80572 31.8411 9.86665 31.75 9.92603C31.5745 9.67238 31.4422 9.44895 31.362 9.2703C31.0146 8.44374 31.4198 6.28957 32.8109 5.99426C34.2021 5.69947 36.3755 6.34843 38.5203 7.94218C40.6646 9.53592 41.8818 10.9526 42.2583 12.3396C42.601 13.7062 41.5656 15.7318 39.0125 15.0854C39.0411 15.0161 39.0703 14.9469 39.0995 14.8776C39.2156 14.9068 39.3604 14.9068 39.5052 14.9068C39.8531 14.9068 40.2589 14.8479 40.5776 14.5823C40.8094 14.4052 41.0703 14.0807 41.0411 13.4906C41.0411 12.9297 40.6068 12.2213 39.7083 11.3656C39.0708 10.7458 38.201 10.0672 37.3318 9.44738C34.8396 7.76509 33.101 7.2927 32.3182 8.08957C31.7969 8.62082 31.8547 9.2703 32.0286 9.74218ZM40.0849 13.1364C40.1719 13.2838 40.201 13.4312 40.201 13.5198C40.201 13.7854 40.1141 13.8739 40.0562 13.9328V13.9333C39.9401 14.0213 39.7083 14.0807 39.5052 14.0807C39.6792 13.7271 39.8818 13.4323 40.0844 13.1375L40.0849 13.1364ZM32.9271 8.73905C33.0141 8.65051 33.2458 8.59165 33.6224 8.65051C33.3328 8.88645 33.0427 9.09322 32.7531 9.29947C32.724 9.09322 32.7531 8.88645 32.9271 8.73905Z" fill="white"/>
<path d="M28.8406 20.0422C30.2813 20.0422 31.449 18.8531 31.449 17.3859C31.449 15.9193 30.2813 14.7297 28.8406 14.7297C27.4005 14.7297 26.2328 15.9193 26.2328 17.3859C26.2328 18.8531 27.4005 20.0422 28.8406 20.0422Z" fill="white"/>
<path d="M33.1005 22.0193C33.7089 22.0193 34.2021 21.5172 34.2021 20.8979C34.2021 20.2786 33.7089 19.7766 33.1005 19.7766C32.4927 19.7766 31.9995 20.2786 31.9995 20.8979C31.9995 21.5172 32.4927 22.0193 33.1005 22.0193Z" fill="white"/>
<path fill-rule="evenodd" clip-rule="evenodd" d="M8.67761 30.3985C8.70834 30.4323 8.73907 30.4662 8.77084 30.5C9.60157 31.3891 10.7776 32.1844 12.213 32.8125C15.0885 34.0719 19.1156 34.7115 23.8797 34.025L23.8813 34.0245C27.4339 33.5078 29.7906 32.5672 31.8339 31.7516C32.5412 31.4693 33.2104 31.2021 33.8792 30.9724C34.5844 30.7354 35.2734 30.5573 35.9313 30.3959C36.0422 30.3688 36.1537 30.3417 36.2651 30.3146C36.7943 30.1854 37.3162 30.0589 37.7693 29.9183C38.2068 29.7828 38.6646 29.6115 39.0589 29.3589C38.0807 37.05 31.6151 43.0021 23.7984 43.0021C16.338 43.0021 10.0854 37.5797 8.67761 30.3985ZM23.5396 38.9594C23.5396 39.4157 23.176 39.7854 22.7281 39.7854C22.2797 39.7854 21.9167 39.4157 21.9167 38.9594C21.9167 38.5032 22.2797 38.1328 22.7281 38.1328C23.176 38.1328 23.5396 38.5032 23.5396 38.9594ZM26.9589 39.3724C27.4073 39.3724 27.7703 39.0026 27.7703 38.5459C27.7703 38.0896 27.4073 37.7198 26.9589 37.7198C26.5109 37.7198 26.1479 38.0896 26.1479 38.5459C26.1479 39.0026 26.5109 39.3724 26.9589 39.3724ZM25.4792 40.6709C25.4792 41.0131 25.2068 41.2907 24.8708 41.2907C24.5344 41.2907 24.262 41.0131 24.262 40.6709C24.262 40.3287 24.5344 40.0511 24.8708 40.0511C25.2068 40.0511 25.4792 40.3287 25.4792 40.6709ZM28.6089 40.8479C28.9453 40.8479 29.2177 40.5703 29.2177 40.2282C29.2177 39.886 28.9453 39.6084 28.6089 39.6084C28.2729 39.6084 28.0005 39.886 28.0005 40.2282C28.0005 40.5703 28.2729 40.8479 28.6089 40.8479ZM20.6104 38.1328C20.6104 38.8828 20.0135 39.4907 19.2776 39.4907C18.5412 39.4907 17.9443 38.8828 17.9443 38.1328C17.9443 37.3834 18.5412 36.7756 19.2776 36.7756C20.0135 36.7756 20.6104 37.3834 20.6104 38.1328ZM31.1891 36.1558C31.925 36.1558 32.5219 35.5479 32.5219 34.7979C32.5219 34.0485 31.925 33.4407 31.1891 33.4407C30.4526 33.4407 29.8557 34.0485 29.8557 34.7979C29.8557 35.5479 30.4526 36.1558 31.1891 36.1558Z" fill="white"/>
<path d="M39.1578 27.4792C39.1578 25.6787 36.0859 24.6459 31.9995 24.2917C29.0438 24.0558 26.0589 24.3505 22.6391 25.413C19.6833 26.2985 17.0172 26.1511 15.0755 25.9151C10.7573 25.413 8.38126 25.3542 8.38126 27.4792C8.38126 30.5485 14.525 34.3849 23.7406 33.0568C28.4063 32.3782 30.8115 30.9912 33.5646 30.0464C36.5495 29.0433 39.1578 29.0724 39.1578 27.4792Z" fill="white"/>
</g>
<defs>
<clipPath id="clip0_401_981">
<rect width="50" height="50" fill="white"/>
</clipPath>
</defs>
</svg>
