<?xml version="1.0" encoding="UTF-8"?>
<svg xmlns="http://www.w3.org/2000/svg" xmlns:xlink="http://www.w3.org/1999/xlink" width="50px" height="50px" viewBox="0 0 50 50" version="1.1">
<defs>
<radialGradient id="radial0" gradientUnits="userSpaceOnUse" cx="0" cy="0" fx="0" fy="0" r="1" gradientTransform="matrix(16.2493,0,0,16.5275,46.1033,6.8051)">
<stop offset="0" style="stop-color:rgb(100%,91.764706%,100%);stop-opacity:0.6;"/>
<stop offset="0.6807" style="stop-color:rgb(62.745098%,52.941176%,78.823529%);stop-opacity:1;"/>
<stop offset="1" style="stop-color:rgb(6.27451%,0%,18.431373%);stop-opacity:1;"/>
</radialGradient>
<radialGradient id="radial1" gradientUnits="userSpaceOnUse" cx="0" cy="0" fx="0" fy="0" r="1" gradientTransform="matrix(45.5082,0,0,49.229,41.8485,24.4357)">
<stop offset="0" style="stop-color:rgb(100%,91.764706%,100%);stop-opacity:0.6;"/>
<stop offset="0.6807" style="stop-color:rgb(62.745098%,52.941176%,78.823529%);stop-opacity:1;"/>
<stop offset="1" style="stop-color:rgb(6.27451%,0%,18.431373%);stop-opacity:1;"/>
</radialGradient>
<filter id="alpha" filterUnits="objectBoundingBox" x="0%" y="0%" width="100%" height="100%">
  <feColorMatrix type="matrix" in="SourceGraphic" values="0 0 0 0 1 0 0 0 0 1 0 0 0 0 1 0 0 0 1 0"/>
</filter>
<mask id="mask0">
  <g filter="url(#alpha)">
<rect x="0" y="0" width="50" height="50" style="fill:rgb(0%,0%,0%);fill-opacity:0.6;stroke:none;"/>
  </g>
</mask>
<clipPath id="clip1">
  <rect x="0" y="0" width="50" height="50"/>
</clipPath>
<g id="surface5" clip-path="url(#clip1)">
<path style=" stroke:none;fill-rule:nonzero;fill:rgb(66.27451%,52.54902%,59.607843%);fill-opacity:1;" d="M 45.09375 7.433594 C 42.332031 4.472656 40.003906 3.699219 37.203125 3.070312 C 35.023438 2.550781 35.605469 1.292969 38.257812 1.554688 C 36.988281 1.109375 35.785156 1 34.914062 1.183594 C 33.167969 1.554688 32.660156 4.253906 33.097656 5.289062 C 33.277344 5.695312 33.679688 6.285156 34.222656 6.953125 C 33.242188 7.617188 32.40625 8.097656 31.714844 8.46875 C 32.042969 8.617188 32.441406 8.800781 32.914062 9.058594 C 34.152344 9.726562 35.496094 10.835938 35.496094 10.835938 C 33.460938 9.058594 33.894531 8.246094 36.695312 6.25 C 37.570312 5.621094 39.167969 5.695312 40.660156 6.472656 C 42.148438 7.246094 43.894531 9.207031 43.894531 9.207031 L 42.222656 12.460938 C 42.332031 12.5 42.441406 12.535156 42.550781 12.574219 C 43.605469 12.867188 44.441406 12.792969 45.09375 12.535156 C 45.859375 12.054688 47.855469 10.429688 45.09375 7.433594 Z M 45.09375 7.433594 "/>
</g>
<mask id="mask1">
  <g filter="url(#alpha)">
<rect x="0" y="0" width="50" height="50" style="fill:rgb(0%,0%,0%);fill-opacity:0.6;stroke:none;"/>
  </g>
</mask>
<linearGradient id="linear0" gradientUnits="userSpaceOnUse" x1="20.3459" y1="48.485" x2="27.065" y2="7.73055" >
<stop offset="0" style="stop-color:rgb(50.588235%,100%,100%);stop-opacity:1;"/>
<stop offset="0.6202" style="stop-color:rgb(100%,100%,100%);stop-opacity:0;"/>
</linearGradient>
<clipPath id="clip2">
  <rect x="0" y="0" width="50" height="50"/>
</clipPath>
<g id="surface8" clip-path="url(#clip2)">
<path style=" stroke:none;fill-rule:nonzero;fill:url(#linear0);" d="M 23.605469 48.777344 C 34.828125 48.777344 43.929688 39.523438 43.929688 28.105469 C 43.929688 16.691406 34.828125 7.4375 23.605469 7.4375 C 12.382812 7.4375 3.28125 16.691406 3.28125 28.105469 C 3.28125 39.523438 12.382812 48.777344 23.605469 48.777344 Z M 23.605469 48.777344 "/>
</g>
<mask id="mask2">
  <g filter="url(#alpha)">
<rect x="0" y="0" width="50" height="50" style="fill:rgb(0%,0%,0%);fill-opacity:0.6;stroke:none;"/>
  </g>
</mask>
<clipPath id="clip3">
  <rect x="0" y="0" width="50" height="50"/>
</clipPath>
<g id="surface11" clip-path="url(#clip3)">
<path style=" stroke:none;fill-rule:nonzero;fill:rgb(66.27451%,52.54902%,59.607843%);fill-opacity:1;" d="M 23.460938 46.265625 C 12.375 44.453125 4.847656 33.839844 6.664062 22.5625 C 7.464844 17.570312 9.9375 13.316406 13.429688 10.246094 C 8.339844 13.242188 4.558594 18.457031 3.539062 24.816406 C 1.757812 36.097656 9.285156 46.710938 20.335938 48.519531 C 26.515625 49.558594 32.480469 47.597656 36.878906 43.75 C 32.988281 46.042969 28.261719 47.042969 23.460938 46.265625 Z M 23.460938 46.265625 "/>
</g>
<mask id="mask3">
  <g filter="url(#alpha)">
<rect x="0" y="0" width="50" height="50" style="fill:rgb(0%,0%,0%);fill-opacity:0.6;stroke:none;"/>
  </g>
</mask>
<linearGradient id="linear1" gradientUnits="userSpaceOnUse" x1="37.9283" y1="14.0678" x2="20.8624" y2="29.4627" >
<stop offset="0.2888" style="stop-color:rgb(100%,100%,100%);stop-opacity:1;"/>
<stop offset="0.7796" style="stop-color:rgb(100%,100%,100%);stop-opacity:0;"/>
</linearGradient>
<clipPath id="clip4">
  <rect x="0" y="0" width="50" height="50"/>
</clipPath>
<g id="surface14" clip-path="url(#clip4)">
<path style=" stroke:none;fill-rule:nonzero;fill:url(#linear1);" d="M 26.839844 7.730469 C 21.714844 6.878906 16.734375 8.0625 12.664062 10.6875 C 12.589844 10.761719 12.515625 10.835938 12.515625 10.835938 C 14.082031 9.875 16.371094 9.023438 16.371094 9.023438 C 10.480469 12.5 8.664062 16.457031 8.664062 16.457031 C 10.953125 11.945312 17.679688 8.765625 22.953125 8.542969 C 28.222656 8.324219 31.675781 9.914062 35.894531 13.351562 C 40.109375 16.828125 42.65625 23.925781 42.402344 29.546875 C 42.183594 35.167969 39.273438 39.71875 39.273438 39.71875 C 41.273438 37.09375 42.472656 35.167969 43.238281 33.210938 C 43.382812 32.617188 43.527344 32.027344 43.601562 31.398438 C 45.417969 20.15625 37.929688 9.542969 26.839844 7.730469 Z M 26.839844 7.730469 "/>
</g>
<linearGradient id="linear2" gradientUnits="userSpaceOnUse" x1="4.28054" y1="37.7285" x2="42.9018" y2="37.7285" >
<stop offset="0" style="stop-color:rgb(0%,0.784314%,91.372549%);stop-opacity:1;"/>
<stop offset="0.9952" style="stop-color:rgb(100%,0%,78.039216%);stop-opacity:1;"/>
</linearGradient>
<mask id="mask4">
  <g filter="url(#alpha)">
<rect x="0" y="0" width="50" height="50" style="fill:rgb(0%,0%,0%);fill-opacity:0.6;stroke:none;"/>
  </g>
</mask>
<mask id="mask5">
  <g filter="url(#alpha)">
<rect x="0" y="0" width="50" height="50" style="fill:rgb(0%,0%,0%);fill-opacity:0.6;stroke:none;"/>
  </g>
</mask>
<linearGradient id="linear3" gradientUnits="userSpaceOnUse" x1="44.7295" y1="29.6452" x2="23.3717" y2="49.4897" >
<stop offset="0.2888" style="stop-color:rgb(100%,100%,100%);stop-opacity:1;"/>
<stop offset="0.7796" style="stop-color:rgb(100%,100%,100%);stop-opacity:0;"/>
</linearGradient>
<clipPath id="clip6">
  <rect x="0" y="0" width="50" height="50"/>
</clipPath>
<g id="surface18" clip-path="url(#clip6)">
<path style=" stroke:none;fill-rule:nonzero;fill:url(#linear3);" d="M 41.382812 27.921875 C 41.382812 38.5 33.167969 47.152344 22.84375 47.558594 C 23.097656 47.558594 23.351562 47.558594 23.605469 47.558594 C 34.257812 47.558594 42.910156 38.757812 42.910156 27.921875 Z M 41.382812 27.921875 "/>
</g>
<clipPath id="clip5">
  <rect x="0" y="0" width="50" height="50"/>
</clipPath>
<g id="surface20" clip-path="url(#clip5)">
<use xlink:href="#surface18" mask="url(#mask5)"/>
</g>
<mask id="mask6">
  <g filter="url(#alpha)">
<rect x="0" y="0" width="50" height="50" style="fill:rgb(0%,0%,0%);fill-opacity:0.701961;stroke:none;"/>
  </g>
</mask>
<mask id="mask7">
  <g filter="url(#alpha)">
<rect x="0" y="0" width="50" height="50" style="fill:rgb(0%,0%,0%);fill-opacity:0.701961;stroke:none;"/>
  </g>
</mask>
<linearGradient id="linear4" gradientUnits="userSpaceOnUse" x1="4.28054" y1="37.7285" x2="24.9426" y2="37.7285" >
<stop offset="0" style="stop-color:rgb(0%,0.784314%,57.254902%);stop-opacity:1;"/>
<stop offset="0.9952" style="stop-color:rgb(49.019608%,0%,78.039216%);stop-opacity:1;"/>
</linearGradient>
<clipPath id="clip8">
  <rect x="0" y="0" width="50" height="50"/>
</clipPath>
<g id="surface24" clip-path="url(#clip8)">
<path style=" stroke:none;fill-rule:nonzero;fill:url(#linear4);" d="M 6.992188 27.921875 L 4.265625 27.921875 C 4.265625 38.757812 12.917969 47.558594 23.570312 47.558594 C 24.042969 47.558594 24.476562 47.558594 24.914062 47.519531 C 14.917969 46.78125 6.992188 38.277344 6.992188 27.921875 Z M 6.992188 27.921875 "/>
</g>
<clipPath id="clip7">
  <rect x="0" y="0" width="50" height="50"/>
</clipPath>
<g id="surface26" clip-path="url(#clip7)">
<use xlink:href="#surface24" mask="url(#mask7)"/>
</g>
<linearGradient id="linear5" gradientUnits="userSpaceOnUse" x1="4.30646" y1="29.7368" x2="42.8758" y2="29.7368" >
<stop offset="0" style="stop-color:rgb(0%,0.784314%,57.254902%);stop-opacity:1;"/>
<stop offset="0.9952" style="stop-color:rgb(74.509804%,0%,78.039216%);stop-opacity:1;"/>
</linearGradient>
<mask id="mask8">
  <g filter="url(#alpha)">
<rect x="0" y="0" width="50" height="50" style="fill:rgb(0%,0%,0%);fill-opacity:0.6;stroke:none;"/>
  </g>
</mask>
<mask id="mask9">
  <g filter="url(#alpha)">
<rect x="0" y="0" width="50" height="50" style="fill:rgb(0%,0%,0%);fill-opacity:0.6;stroke:none;"/>
  </g>
</mask>
<linearGradient id="linear6" gradientUnits="userSpaceOnUse" x1="42.2432" y1="8.70089" x2="39.4022" y2="13.2395" >
<stop offset="0.2888" style="stop-color:rgb(100%,100%,100%);stop-opacity:1;"/>
<stop offset="0.7796" style="stop-color:rgb(100%,100%,100%);stop-opacity:0;"/>
</linearGradient>
<clipPath id="clip10">
  <rect x="0" y="0" width="50" height="50"/>
</clipPath>
<g id="surface30" clip-path="url(#clip10)">
<path style=" stroke:none;fill-rule:nonzero;fill:url(#linear6);" d="M 40.222656 12.800781 C 40.183594 12.800781 40.148438 12.800781 40.148438 12.800781 C 39.929688 12.765625 39.785156 12.542969 39.820312 12.28125 C 40.148438 10.582031 41.53125 8.953125 41.601562 8.882812 C 41.746094 8.695312 42.039062 8.695312 42.183594 8.84375 C 42.367188 8.992188 42.367188 9.289062 42.21875 9.4375 C 42.183594 9.472656 40.910156 10.988281 40.621094 12.46875 C 40.585938 12.691406 40.402344 12.800781 40.222656 12.800781 Z M 40.222656 12.800781 "/>
</g>
<clipPath id="clip9">
  <rect x="0" y="0" width="50" height="50"/>
</clipPath>
<g id="surface32" clip-path="url(#clip9)">
<use xlink:href="#surface30" mask="url(#mask9)"/>
</g>
<mask id="mask10">
  <g filter="url(#alpha)">
<rect x="0" y="0" width="50" height="50" style="fill:rgb(0%,0%,0%);fill-opacity:0.2;stroke:none;"/>
  </g>
</mask>
<clipPath id="clip11">
  <rect x="0" y="0" width="50" height="50"/>
</clipPath>
<g id="surface35" clip-path="url(#clip11)">
<path style=" stroke:none;fill-rule:nonzero;fill:rgb(100%,100%,100%);fill-opacity:1;" d="M 22.265625 43.523438 C 22.828125 43.523438 23.28125 43.0625 23.28125 42.488281 C 23.28125 41.917969 22.828125 41.453125 22.265625 41.453125 C 21.703125 41.453125 21.246094 41.917969 21.246094 42.488281 C 21.246094 43.0625 21.703125 43.523438 22.265625 43.523438 Z M 22.265625 43.523438 "/>
</g>
<mask id="mask11">
  <g filter="url(#alpha)">
<rect x="0" y="0" width="50" height="50" style="fill:rgb(0%,0%,0%);fill-opacity:0.4;stroke:none;"/>
  </g>
</mask>
<mask id="mask12">
  <g filter="url(#alpha)">
<rect x="0" y="0" width="50" height="50" style="fill:rgb(0%,0%,0%);fill-opacity:0.6;stroke:none;"/>
  </g>
</mask>
<linearGradient id="linear7" gradientUnits="userSpaceOnUse" x1="21.2319" y1="42.5302" x2="22.7701" y2="42.5302" >
<stop offset="0.2888" style="stop-color:rgb(100%,100%,100%);stop-opacity:1;"/>
<stop offset="0.7796" style="stop-color:rgb(100%,100%,100%);stop-opacity:0;"/>
</linearGradient>
<clipPath id="clip13">
  <rect x="0" y="0" width="50" height="50"/>
</clipPath>
<g id="surface39" clip-path="url(#clip13)">
<path style=" stroke:none;fill-rule:nonzero;fill:url(#linear7);" d="M 21.679688 43.164062 C 21.277344 42.757812 21.277344 42.09375 21.679688 41.683594 C 21.75 41.609375 21.824219 41.574219 21.894531 41.5 C 21.75 41.539062 21.640625 41.609375 21.53125 41.722656 C 21.132812 42.128906 21.132812 42.792969 21.53125 43.203125 C 21.859375 43.535156 22.367188 43.609375 22.769531 43.386719 C 22.40625 43.535156 21.96875 43.460938 21.679688 43.164062 Z M 21.679688 43.164062 "/>
</g>
<clipPath id="clip12">
  <rect x="0" y="0" width="50" height="50"/>
</clipPath>
<g id="surface41" clip-path="url(#clip12)">
<use xlink:href="#surface39" mask="url(#mask12)"/>
</g>
<mask id="mask13">
  <g filter="url(#alpha)">
<rect x="0" y="0" width="50" height="50" style="fill:rgb(0%,0%,0%);fill-opacity:0.301961;stroke:none;"/>
  </g>
</mask>
<clipPath id="clip14">
  <rect x="0" y="0" width="50" height="50"/>
</clipPath>
<g id="surface44" clip-path="url(#clip14)">
<path style=" stroke:none;fill-rule:nonzero;fill:rgb(100%,100%,100%);fill-opacity:1;" d="M 22.621094 42.195312 C 22.742188 42.195312 22.839844 42.09375 22.839844 41.972656 C 22.839844 41.851562 22.742188 41.75 22.621094 41.75 C 22.503906 41.75 22.40625 41.851562 22.40625 41.972656 C 22.40625 42.09375 22.503906 42.195312 22.621094 42.195312 Z M 22.621094 42.195312 "/>
</g>
<mask id="mask14">
  <g filter="url(#alpha)">
<rect x="0" y="0" width="50" height="50" style="fill:rgb(0%,0%,0%);fill-opacity:0.2;stroke:none;"/>
  </g>
</mask>
<clipPath id="clip15">
  <rect x="0" y="0" width="50" height="50"/>
</clipPath>
<g id="surface47" clip-path="url(#clip15)">
<path style=" stroke:none;fill-rule:nonzero;fill:rgb(100%,100%,100%);fill-opacity:1;" d="M 27.574219 43.007812 C 28.136719 43.007812 28.59375 42.546875 28.59375 41.972656 C 28.59375 41.402344 28.136719 40.9375 27.574219 40.9375 C 27.011719 40.9375 26.558594 41.402344 26.558594 41.972656 C 26.558594 42.546875 27.011719 43.007812 27.574219 43.007812 Z M 27.574219 43.007812 "/>
</g>
<mask id="mask15">
  <g filter="url(#alpha)">
<rect x="0" y="0" width="50" height="50" style="fill:rgb(0%,0%,0%);fill-opacity:0.4;stroke:none;"/>
  </g>
</mask>
<mask id="mask16">
  <g filter="url(#alpha)">
<rect x="0" y="0" width="50" height="50" style="fill:rgb(0%,0%,0%);fill-opacity:0.6;stroke:none;"/>
  </g>
</mask>
<linearGradient id="linear8" gradientUnits="userSpaceOnUse" x1="26.5388" y1="42.007" x2="28.0768" y2="42.007" >
<stop offset="0.2888" style="stop-color:rgb(100%,100%,100%);stop-opacity:1;"/>
<stop offset="0.7796" style="stop-color:rgb(100%,100%,100%);stop-opacity:0;"/>
</linearGradient>
<clipPath id="clip17">
  <rect x="0" y="0" width="50" height="50"/>
</clipPath>
<g id="surface51" clip-path="url(#clip17)">
<path style=" stroke:none;fill-rule:nonzero;fill:url(#linear8);" d="M 26.988281 42.648438 C 26.589844 42.242188 26.589844 41.574219 26.988281 41.167969 C 27.0625 41.09375 27.132812 41.058594 27.207031 40.984375 C 27.0625 41.019531 26.953125 41.09375 26.84375 41.207031 C 26.445312 41.613281 26.445312 42.277344 26.84375 42.683594 C 27.171875 43.019531 27.679688 43.09375 28.078125 42.871094 C 27.714844 43.019531 27.28125 42.945312 26.988281 42.648438 Z M 26.988281 42.648438 "/>
</g>
<clipPath id="clip16">
  <rect x="0" y="0" width="50" height="50"/>
</clipPath>
<g id="surface53" clip-path="url(#clip16)">
<use xlink:href="#surface51" mask="url(#mask16)"/>
</g>
<mask id="mask17">
  <g filter="url(#alpha)">
<rect x="0" y="0" width="50" height="50" style="fill:rgb(0%,0%,0%);fill-opacity:0.301961;stroke:none;"/>
  </g>
</mask>
<clipPath id="clip18">
  <rect x="0" y="0" width="50" height="50"/>
</clipPath>
<g id="surface56" clip-path="url(#clip18)">
<path style=" stroke:none;fill-rule:nonzero;fill:rgb(100%,100%,100%);fill-opacity:1;" d="M 27.933594 41.679688 C 28.054688 41.679688 28.152344 41.578125 28.152344 41.457031 C 28.152344 41.335938 28.054688 41.234375 27.933594 41.234375 C 27.8125 41.234375 27.714844 41.335938 27.714844 41.457031 C 27.714844 41.578125 27.8125 41.679688 27.933594 41.679688 Z M 27.933594 41.679688 "/>
</g>
<mask id="mask18">
  <g filter="url(#alpha)">
<rect x="0" y="0" width="50" height="50" style="fill:rgb(0%,0%,0%);fill-opacity:0.2;stroke:none;"/>
  </g>
</mask>
<clipPath id="clip19">
  <rect x="0" y="0" width="50" height="50"/>
</clipPath>
<g id="surface59" clip-path="url(#clip19)">
<path style=" stroke:none;fill-rule:nonzero;fill:rgb(100%,100%,100%);fill-opacity:1;" d="M 24.949219 45.414062 C 25.371094 45.414062 25.714844 45.066406 25.714844 44.640625 C 25.714844 44.210938 25.371094 43.863281 24.949219 43.863281 C 24.527344 43.863281 24.1875 44.210938 24.1875 44.640625 C 24.1875 45.066406 24.527344 45.414062 24.949219 45.414062 Z M 24.949219 45.414062 "/>
</g>
<mask id="mask19">
  <g filter="url(#alpha)">
<rect x="0" y="0" width="50" height="50" style="fill:rgb(0%,0%,0%);fill-opacity:0.4;stroke:none;"/>
  </g>
</mask>
<mask id="mask20">
  <g filter="url(#alpha)">
<rect x="0" y="0" width="50" height="50" style="fill:rgb(0%,0%,0%);fill-opacity:0.6;stroke:none;"/>
  </g>
</mask>
<linearGradient id="linear9" gradientUnits="userSpaceOnUse" x1="24.1656" y1="44.6511" x2="25.3205" y2="44.6511" >
<stop offset="0.2888" style="stop-color:rgb(100%,100%,100%);stop-opacity:1;"/>
<stop offset="0.7796" style="stop-color:rgb(100%,100%,100%);stop-opacity:0;"/>
</linearGradient>
<clipPath id="clip21">
  <rect x="0" y="0" width="50" height="50"/>
</clipPath>
<g id="surface63" clip-path="url(#clip21)">
<path style=" stroke:none;fill-rule:nonzero;fill:url(#linear9);" d="M 24.511719 45.125 C 24.222656 44.828125 24.222656 44.3125 24.511719 44.015625 C 24.550781 43.976562 24.621094 43.941406 24.660156 43.902344 C 24.550781 43.941406 24.476562 44.015625 24.402344 44.089844 C 24.113281 44.382812 24.113281 44.902344 24.402344 45.199219 C 24.660156 45.457031 25.023438 45.492188 25.347656 45.308594 C 25.058594 45.421875 24.730469 45.347656 24.511719 45.125 Z M 24.511719 45.125 "/>
</g>
<clipPath id="clip20">
  <rect x="0" y="0" width="50" height="50"/>
</clipPath>
<g id="surface65" clip-path="url(#clip20)">
<use xlink:href="#surface63" mask="url(#mask20)"/>
</g>
<mask id="mask21">
  <g filter="url(#alpha)">
<rect x="0" y="0" width="50" height="50" style="fill:rgb(0%,0%,0%);fill-opacity:0.301961;stroke:none;"/>
  </g>
</mask>
<clipPath id="clip22">
  <rect x="0" y="0" width="50" height="50"/>
</clipPath>
<g id="surface68" clip-path="url(#clip22)">
<path style=" stroke:none;fill-rule:nonzero;fill:rgb(100%,100%,100%);fill-opacity:1;" d="M 25.207031 44.378906 C 25.285156 44.378906 25.351562 44.3125 25.351562 44.230469 C 25.351562 44.148438 25.285156 44.082031 25.207031 44.082031 C 25.125 44.082031 25.058594 44.148438 25.058594 44.230469 C 25.058594 44.3125 25.125 44.378906 25.207031 44.378906 Z M 25.207031 44.378906 "/>
</g>
<mask id="mask22">
  <g filter="url(#alpha)">
<rect x="0" y="0" width="50" height="50" style="fill:rgb(0%,0%,0%);fill-opacity:0.2;stroke:none;"/>
  </g>
</mask>
<clipPath id="clip23">
  <rect x="0" y="0" width="50" height="50"/>
</clipPath>
<g id="surface71" clip-path="url(#clip23)">
<path style=" stroke:none;fill-rule:nonzero;fill:rgb(100%,100%,100%);fill-opacity:1;" d="M 29.640625 44.855469 C 30.0625 44.855469 30.40625 44.507812 30.40625 44.082031 C 30.40625 43.652344 30.0625 43.304688 29.640625 43.304688 C 29.21875 43.304688 28.878906 43.652344 28.878906 44.082031 C 28.878906 44.507812 29.21875 44.855469 29.640625 44.855469 Z M 29.640625 44.855469 "/>
</g>
<mask id="mask23">
  <g filter="url(#alpha)">
<rect x="0" y="0" width="50" height="50" style="fill:rgb(0%,0%,0%);fill-opacity:0.4;stroke:none;"/>
  </g>
</mask>
<mask id="mask24">
  <g filter="url(#alpha)">
<rect x="0" y="0" width="50" height="50" style="fill:rgb(0%,0%,0%);fill-opacity:0.6;stroke:none;"/>
  </g>
</mask>
<linearGradient id="linear10" gradientUnits="userSpaceOnUse" x1="28.8574" y1="44.0927" x2="30.0122" y2="44.0927" >
<stop offset="0.2888" style="stop-color:rgb(100%,100%,100%);stop-opacity:1;"/>
<stop offset="0.7796" style="stop-color:rgb(100%,100%,100%);stop-opacity:0;"/>
</linearGradient>
<clipPath id="clip25">
  <rect x="0" y="0" width="50" height="50"/>
</clipPath>
<g id="surface75" clip-path="url(#clip25)">
<path style=" stroke:none;fill-rule:nonzero;fill:url(#linear10);" d="M 29.207031 44.566406 C 28.914062 44.269531 28.914062 43.753906 29.207031 43.457031 C 29.242188 43.417969 29.3125 43.382812 29.351562 43.34375 C 29.242188 43.382812 29.167969 43.457031 29.097656 43.53125 C 28.804688 43.828125 28.804688 44.34375 29.097656 44.640625 C 29.351562 44.898438 29.714844 44.9375 30.042969 44.75 C 29.75 44.863281 29.421875 44.789062 29.207031 44.566406 Z M 29.207031 44.566406 "/>
</g>
<clipPath id="clip24">
  <rect x="0" y="0" width="50" height="50"/>
</clipPath>
<g id="surface77" clip-path="url(#clip24)">
<use xlink:href="#surface75" mask="url(#mask24)"/>
</g>
<mask id="mask25">
  <g filter="url(#alpha)">
<rect x="0" y="0" width="50" height="50" style="fill:rgb(0%,0%,0%);fill-opacity:0.301961;stroke:none;"/>
  </g>
</mask>
<clipPath id="clip26">
  <rect x="0" y="0" width="50" height="50"/>
</clipPath>
<g id="surface80" clip-path="url(#clip26)">
<path style=" stroke:none;fill-rule:nonzero;fill:rgb(100%,100%,100%);fill-opacity:1;" d="M 29.898438 43.824219 C 29.976562 43.824219 30.042969 43.757812 30.042969 43.675781 C 30.042969 43.59375 29.976562 43.527344 29.898438 43.527344 C 29.816406 43.527344 29.753906 43.59375 29.753906 43.675781 C 29.753906 43.757812 29.816406 43.824219 29.898438 43.824219 Z M 29.898438 43.824219 "/>
</g>
<mask id="mask26">
  <g filter="url(#alpha)">
<rect x="0" y="0" width="50" height="50" style="fill:rgb(0%,0%,0%);fill-opacity:0.2;stroke:none;"/>
  </g>
</mask>
<clipPath id="clip27">
  <rect x="0" y="0" width="50" height="50"/>
</clipPath>
<g id="surface83" clip-path="url(#clip27)">
<path style=" stroke:none;fill-rule:nonzero;fill:rgb(100%,100%,100%);fill-opacity:1;" d="M 17.933594 43.160156 C 18.859375 43.160156 19.605469 42.398438 19.605469 41.457031 C 19.605469 40.519531 18.859375 39.757812 17.933594 39.757812 C 17.011719 39.757812 16.261719 40.519531 16.261719 41.457031 C 16.261719 42.398438 17.011719 43.160156 17.933594 43.160156 Z M 17.933594 43.160156 "/>
</g>
<mask id="mask27">
  <g filter="url(#alpha)">
<rect x="0" y="0" width="50" height="50" style="fill:rgb(0%,0%,0%);fill-opacity:0.4;stroke:none;"/>
  </g>
</mask>
<mask id="mask28">
  <g filter="url(#alpha)">
<rect x="0" y="0" width="50" height="50" style="fill:rgb(0%,0%,0%);fill-opacity:0.6;stroke:none;"/>
  </g>
</mask>
<linearGradient id="linear11" gradientUnits="userSpaceOnUse" x1="16.2636" y1="41.497" x2="18.7756" y2="41.497" >
<stop offset="0.2888" style="stop-color:rgb(100%,100%,100%);stop-opacity:1;"/>
<stop offset="0.7796" style="stop-color:rgb(100%,100%,100%);stop-opacity:0;"/>
</linearGradient>
<clipPath id="clip29">
  <rect x="0" y="0" width="50" height="50"/>
</clipPath>
<g id="surface87" clip-path="url(#clip29)">
<path style=" stroke:none;fill-rule:nonzero;fill:url(#linear11);" d="M 16.988281 42.527344 C 16.335938 41.859375 16.335938 40.789062 16.988281 40.121094 C 17.097656 40.011719 17.207031 39.9375 17.351562 39.863281 C 17.132812 39.9375 16.953125 40.085938 16.769531 40.234375 C 16.117188 40.898438 16.117188 41.972656 16.769531 42.636719 C 17.316406 43.191406 18.152344 43.300781 18.808594 42.894531 C 18.1875 43.15625 17.460938 43.042969 16.988281 42.527344 Z M 16.988281 42.527344 "/>
</g>
<clipPath id="clip28">
  <rect x="0" y="0" width="50" height="50"/>
</clipPath>
<g id="surface89" clip-path="url(#clip28)">
<use xlink:href="#surface87" mask="url(#mask28)"/>
</g>
<mask id="mask29">
  <g filter="url(#alpha)">
<rect x="0" y="0" width="50" height="50" style="fill:rgb(0%,0%,0%);fill-opacity:0.301961;stroke:none;"/>
  </g>
</mask>
<clipPath id="clip30">
  <rect x="0" y="0" width="50" height="50"/>
</clipPath>
<g id="surface92" clip-path="url(#clip30)">
<path style=" stroke:none;fill-rule:nonzero;fill:rgb(100%,100%,100%);fill-opacity:1;" d="M 18.519531 40.9375 C 18.71875 40.9375 18.882812 40.773438 18.882812 40.566406 C 18.882812 40.363281 18.71875 40.199219 18.519531 40.199219 C 18.316406 40.199219 18.15625 40.363281 18.15625 40.566406 C 18.15625 40.773438 18.316406 40.9375 18.519531 40.9375 Z M 18.519531 40.9375 "/>
</g>
<mask id="mask30">
  <g filter="url(#alpha)">
<rect x="0" y="0" width="50" height="50" style="fill:rgb(0%,0%,0%);fill-opacity:0.2;stroke:none;"/>
  </g>
</mask>
<clipPath id="clip31">
  <rect x="0" y="0" width="50" height="50"/>
</clipPath>
<g id="surface95" clip-path="url(#clip31)">
<path style=" stroke:none;fill-rule:nonzero;fill:rgb(100%,100%,100%);fill-opacity:1;" d="M 32.882812 38.976562 C 33.808594 38.976562 34.558594 38.21875 34.558594 37.277344 C 34.558594 36.335938 33.808594 35.578125 32.882812 35.578125 C 31.960938 35.578125 31.210938 36.335938 31.210938 37.277344 C 31.210938 38.21875 31.960938 38.976562 32.882812 38.976562 Z M 32.882812 38.976562 "/>
</g>
<mask id="mask31">
  <g filter="url(#alpha)">
<rect x="0" y="0" width="50" height="50" style="fill:rgb(0%,0%,0%);fill-opacity:0.4;stroke:none;"/>
  </g>
</mask>
<mask id="mask32">
  <g filter="url(#alpha)">
<rect x="0" y="0" width="50" height="50" style="fill:rgb(0%,0%,0%);fill-opacity:0.6;stroke:none;"/>
  </g>
</mask>
<linearGradient id="linear12" gradientUnits="userSpaceOnUse" x1="31.1819" y1="37.3197" x2="33.6937" y2="37.3197" >
<stop offset="0.2888" style="stop-color:rgb(100%,100%,100%);stop-opacity:1;"/>
<stop offset="0.7796" style="stop-color:rgb(100%,100%,100%);stop-opacity:0;"/>
</linearGradient>
<clipPath id="clip33">
  <rect x="0" y="0" width="50" height="50"/>
</clipPath>
<g id="surface99" clip-path="url(#clip33)">
<path style=" stroke:none;fill-rule:nonzero;fill:url(#linear12);" d="M 31.894531 38.351562 C 31.238281 37.683594 31.238281 36.613281 31.894531 35.945312 C 32.003906 35.835938 32.113281 35.761719 32.257812 35.6875 C 32.039062 35.761719 31.855469 35.910156 31.675781 36.058594 C 31.019531 36.722656 31.019531 37.796875 31.675781 38.460938 C 32.21875 39.015625 33.058594 39.125 33.710938 38.71875 C 33.09375 38.980469 32.402344 38.867188 31.894531 38.351562 Z M 31.894531 38.351562 "/>
</g>
<clipPath id="clip32">
  <rect x="0" y="0" width="50" height="50"/>
</clipPath>
<g id="surface101" clip-path="url(#clip32)">
<use xlink:href="#surface99" mask="url(#mask32)"/>
</g>
<mask id="mask33">
  <g filter="url(#alpha)">
<rect x="0" y="0" width="50" height="50" style="fill:rgb(0%,0%,0%);fill-opacity:0.301961;stroke:none;"/>
  </g>
</mask>
<clipPath id="clip34">
  <rect x="0" y="0" width="50" height="50"/>
</clipPath>
<g id="surface104" clip-path="url(#clip34)">
<path style=" stroke:none;fill-rule:nonzero;fill:rgb(100%,100%,100%);fill-opacity:1;" d="M 33.460938 36.761719 C 33.660156 36.761719 33.824219 36.597656 33.824219 36.390625 C 33.824219 36.1875 33.660156 36.023438 33.460938 36.023438 C 33.257812 36.023438 33.09375 36.1875 33.09375 36.390625 C 33.09375 36.597656 33.257812 36.761719 33.460938 36.761719 Z M 33.460938 36.761719 "/>
</g>
</defs>
<g id="surface1">
<path style=" stroke:none;fill-rule:nonzero;fill:rgb(36.862745%,7.058824%,62.745098%);fill-opacity:1;" d="M 47.785156 8.839844 C 47.273438 6.878906 45.640625 4.917969 42.695312 2.738281 C 40.332031 1 37.824219 0 35.824219 0 C 35.421875 0 35.058594 0.0351562 34.695312 0.109375 C 33.785156 0.296875 32.988281 0.960938 32.476562 1.960938 C 31.859375 3.144531 31.714844 4.734375 32.113281 5.695312 C 32.261719 5.992188 32.441406 6.359375 32.660156 6.691406 C 30.734375 7.875 29.640625 8.210938 29.496094 8.246094 C 34.515625 9.949219 38.695312 13.496094 41.3125 18.121094 L 41.347656 17.675781 C 41.457031 16.457031 41.820312 15.050781 42.332031 13.609375 C 42.839844 13.757812 43.347656 13.832031 43.859375 13.832031 C 45.203125 13.832031 46.367188 13.277344 47.09375 12.277344 C 47.820312 11.277344 48.109375 9.949219 47.785156 8.839844 Z M 47.785156 8.839844 "/>
<path style=" stroke:none;fill-rule:nonzero;fill:url(#radial0);" d="M 42.550781 12.535156 C 45.859375 13.460938 47.203125 10.871094 46.765625 9.136719 C 46.292969 7.398438 44.765625 5.621094 42.078125 3.625 C 39.386719 1.628906 36.660156 0.816406 34.914062 1.183594 C 33.167969 1.554688 32.660156 4.253906 33.097656 5.289062 C 33.277344 5.695312 33.679688 6.289062 34.222656 6.953125 C 33.53125 7.433594 32.878906 7.804688 32.332031 8.136719 C 35.679688 9.652344 38.585938 12.019531 40.765625 14.976562 C 41.023438 13.980469 41.386719 13.089844 41.714844 12.316406 C 41.96875 12.351562 42.257812 12.425781 42.550781 12.535156 Z M 42.550781 12.535156 "/>
<path style=" stroke:none;fill-rule:nonzero;fill:url(#radial1);" d="M 23.605469 48.777344 C 34.828125 48.777344 43.929688 39.523438 43.929688 28.105469 C 43.929688 16.691406 34.828125 7.4375 23.605469 7.4375 C 12.382812 7.4375 3.28125 16.691406 3.28125 28.105469 C 3.28125 39.523438 12.382812 48.777344 23.605469 48.777344 Z M 23.605469 48.777344 "/>
<use xlink:href="#surface5" mask="url(#mask0)"/>
<path style=" stroke:none;fill-rule:nonzero;fill:rgb(36.862745%,7.058824%,62.745098%);fill-opacity:1;" d="M 37.167969 4.847656 C 37.894531 5.140625 38.839844 5.660156 40.003906 6.4375 C 41.386719 7.359375 42.585938 8.394531 43.347656 9.210938 C 42.078125 10.910156 41.242188 13.242188 40.730469 14.867188 C 40.984375 15.238281 41.277344 15.605469 41.53125 15.976562 C 41.785156 15.050781 42.222656 13.683594 42.804688 12.316406 C 42.949219 12.351562 43.132812 12.351562 43.3125 12.351562 C 43.75 12.351562 44.257812 12.277344 44.65625 11.945312 C 44.949219 11.722656 45.277344 11.316406 45.238281 10.578125 C 45.238281 9.875 44.695312 8.988281 43.566406 7.914062 C 42.765625 7.140625 41.675781 6.289062 40.585938 5.511719 C 37.460938 3.402344 35.277344 2.8125 34.296875 3.8125 C 33.640625 4.476562 33.714844 5.289062 33.933594 5.882812 C 32.769531 6.660156 31.789062 7.214844 31.132812 7.582031 C 31.570312 7.730469 31.96875 7.914062 32.40625 8.101562 C 33.570312 7.472656 35.242188 6.398438 37.167969 4.847656 Z M 44.039062 10.132812 C 44.148438 10.320312 44.183594 10.503906 44.183594 10.613281 C 44.183594 10.949219 44.078125 11.058594 44.003906 11.132812 C 43.859375 11.242188 43.566406 11.316406 43.3125 11.316406 C 43.53125 10.875 43.785156 10.503906 44.039062 10.132812 Z M 35.058594 4.625 C 35.167969 4.511719 35.460938 4.441406 35.933594 4.511719 C 35.570312 4.808594 35.207031 5.066406 34.84375 5.328125 C 34.804688 5.066406 34.84375 4.808594 35.058594 4.625 Z M 35.058594 4.625 "/>
<path style=" stroke:none;fill-rule:nonzero;fill:rgb(36.862745%,7.058824%,62.745098%);fill-opacity:1;" d="M 23.605469 6.21875 C 11.71875 6.21875 2.082031 16.015625 2.082031 28.109375 C 2.082031 40.199219 11.71875 50 23.605469 50 C 35.496094 50 45.128906 40.199219 45.128906 28.109375 C 45.128906 16.015625 35.457031 6.21875 23.605469 6.21875 Z M 23.605469 48.78125 C 12.371094 48.78125 3.28125 39.535156 3.28125 28.109375 C 3.28125 16.683594 12.371094 7.4375 23.605469 7.4375 C 34.839844 7.4375 43.929688 16.683594 43.929688 28.109375 C 43.929688 39.535156 34.804688 48.78125 23.605469 48.78125 Z M 23.605469 48.78125 "/>
<use xlink:href="#surface8" mask="url(#mask1)"/>
<use xlink:href="#surface11" mask="url(#mask2)"/>
<use xlink:href="#surface14" mask="url(#mask3)"/>
<path style=" stroke:none;fill-rule:nonzero;fill:url(#linear2);" d="M 42.910156 27.921875 C 42.910156 38.757812 34.257812 47.558594 23.605469 47.558594 C 12.953125 47.558594 4.265625 38.757812 4.265625 27.921875 Z M 42.910156 27.921875 "/>
<use xlink:href="#surface20" mask="url(#mask4)"/>
<use xlink:href="#surface26" mask="url(#mask6)"/>
<path style=" stroke:none;fill-rule:nonzero;fill:url(#linear5);" d="M 42.875 28.105469 C 42.875 25.851562 39.019531 24.554688 33.894531 24.113281 C 30.1875 23.816406 26.441406 24.1875 22.152344 25.515625 C 18.441406 26.625 15.097656 26.441406 12.664062 26.144531 C 7.246094 25.515625 4.265625 25.441406 4.265625 28.105469 C 4.265625 31.953125 11.972656 36.757812 23.53125 35.09375 C 29.386719 34.242188 32.402344 32.507812 35.859375 31.324219 C 39.601562 30.066406 42.875 30.101562 42.875 28.105469 Z M 42.875 28.105469 "/>
<path style=" stroke:none;fill-rule:nonzero;fill:rgb(100%,100%,100%);fill-opacity:1;" d="M 29.933594 18.789062 C 31.738281 18.789062 33.203125 17.296875 33.203125 15.460938 C 33.203125 13.621094 31.738281 12.132812 29.933594 12.132812 C 28.125 12.132812 26.660156 13.621094 26.660156 15.460938 C 26.660156 17.296875 28.125 18.789062 29.933594 18.789062 Z M 29.933594 18.789062 "/>
<path style=" stroke:none;fill-rule:nonzero;fill:rgb(100%,100%,100%);fill-opacity:1;" d="M 35.277344 21.265625 C 36.039062 21.265625 36.660156 20.636719 36.660156 19.859375 C 36.660156 19.085938 36.039062 18.457031 35.277344 18.457031 C 34.515625 18.457031 33.894531 19.085938 33.894531 19.859375 C 33.894531 20.636719 34.515625 21.265625 35.277344 21.265625 Z M 35.277344 21.265625 "/>
<use xlink:href="#surface32" mask="url(#mask8)"/>
<use xlink:href="#surface35" mask="url(#mask10)"/>
<use xlink:href="#surface41" mask="url(#mask11)"/>
<use xlink:href="#surface44" mask="url(#mask13)"/>
<use xlink:href="#surface47" mask="url(#mask14)"/>
<use xlink:href="#surface53" mask="url(#mask15)"/>
<use xlink:href="#surface56" mask="url(#mask17)"/>
<use xlink:href="#surface59" mask="url(#mask18)"/>
<use xlink:href="#surface65" mask="url(#mask19)"/>
<use xlink:href="#surface68" mask="url(#mask21)"/>
<use xlink:href="#surface71" mask="url(#mask22)"/>
<use xlink:href="#surface77" mask="url(#mask23)"/>
<use xlink:href="#surface80" mask="url(#mask25)"/>
<use xlink:href="#surface83" mask="url(#mask26)"/>
<use xlink:href="#surface89" mask="url(#mask27)"/>
<use xlink:href="#surface92" mask="url(#mask29)"/>
<use xlink:href="#surface95" mask="url(#mask30)"/>
<use xlink:href="#surface101" mask="url(#mask31)"/>
<use xlink:href="#surface104" mask="url(#mask33)"/>
</g>
</svg>
