<?xml version="1.0" encoding="UTF-8"?>
<!DOCTYPE svg PUBLIC "-//W3C//DTD SVG 1.1//EN" "http://www.w3.org/Graphics/SVG/1.1/DTD/svg11.dtd">
<svg xmlns="http://www.w3.org/2000/svg" version="1.1" width="320px" height="320px" style="shape-rendering:geometricPrecision; text-rendering:geometricPrecision; image-rendering:optimizeQuality; fill-rule:evenodd; clip-rule:evenodd" xmlns:xlink="http://www.w3.org/1999/xlink">
<g><path style="opacity:0.258" fill="#e9a092" d="M 142.5,5.5 C 147.99,4.83387 153.657,4.50053 159.5,4.5C 167.4,4.28223 175.066,4.94889 182.5,6.5C 180.167,6.5 177.833,6.5 175.5,6.5C 164.679,5.5054 153.679,5.17207 142.5,5.5 Z"/></g>
<g><path style="opacity:1" fill="#ee5e59" d="M 175.5,6.5 C 177.833,6.5 180.167,6.5 182.5,6.5C 186.291,6.65873 189.958,7.32539 193.5,8.5C 195.102,10.0739 197.102,10.7406 199.5,10.5C 200.791,10.2627 201.791,10.596 202.5,11.5C 203.552,13.256 205.219,13.9227 207.5,13.5C 208.552,15.256 210.219,15.9227 212.5,15.5C 214.819,15.9925 216.819,16.9925 218.5,18.5C 219.344,20.7593 221.011,21.7593 223.5,21.5C 225.379,24.258 228.046,25.9247 231.5,26.5C 232.035,28.4456 233.368,29.4456 235.5,29.5C 236.035,31.4456 237.368,32.4456 239.5,32.5C 243.5,35.8333 247.167,39.5 250.5,43.5C 250.961,45.5504 251.628,47.5504 252.5,49.5C 255.176,52.5583 258.176,55.225 261.5,57.5C 262.053,59.9393 262.053,62.2727 261.5,64.5C 262.665,65.5836 263.998,66.4169 265.5,67C 266.554,68.3876 266.72,69.8876 266,71.5C 264.413,70.273 263.079,70.6063 262,72.5C 261.264,78.9153 262.097,79.082 264.5,73C 265.793,72.51 267.127,72.3433 268.5,72.5C 268.157,74.4832 268.824,75.8166 270.5,76.5C 271.68,79.5396 273.347,82.2063 275.5,84.5C 276.301,86.0418 276.634,87.7085 276.5,89.5C 276.41,92.1522 277.076,94.4855 278.5,96.5C 278.5,96.8333 278.5,97.1667 278.5,97.5C 278.506,102.215 279.006,106.882 280,111.5C 280.667,172.167 280.667,232.833 280,293.5C 279.551,297.105 278.384,300.438 276.5,303.5C 275.914,303.291 275.414,302.957 275,302.5C 274.506,304.134 274.34,305.801 274.5,307.5C 274.167,308.5 273.5,309.167 272.5,309.5C 270.011,309.241 268.344,310.241 267.5,312.5C 266.292,313.234 264.959,313.567 263.5,313.5C 194.166,313.667 124.833,313.5 55.5,313C 53.6547,311.872 51.6547,311.372 49.5,311.5C 47.847,311.34 46.5137,310.674 45.5,309.5C 45.5123,306.858 44.179,305.525 41.5,305.5C 41.13,301.767 40.4633,298.101 39.5,294.5C 41.0165,292.814 42.3498,290.981 43.5,289C 42.1795,262.109 41.5128,235.109 41.5,208C 41.5021,181.262 41.8355,154.596 42.5,128C 41.3396,122.398 40.3396,116.731 39.5,111C 41.4682,105.326 42.4682,99.4931 42.5,93.5C 42.5,92.1667 42.5,90.8333 42.5,89.5C 44.3104,86.855 45.3104,83.855 45.5,80.5C 48.4688,78.3799 49.8021,75.3799 49.5,71.5C 53.2684,69.2442 55.6017,65.9109 56.5,61.5C 56.5,60.8333 56.5,60.1667 56.5,59.5C 58.2624,58.7377 59.2624,57.4044 59.5,55.5C 61.2624,54.7377 62.2624,53.4044 62.5,51.5C 64.914,50.0892 66.5806,48.0892 67.5,45.5C 68.1667,44.1667 69.1667,43.1667 70.5,42.5C 73.1667,40.5 75.5,38.1667 77.5,35.5C 80.4274,34.2427 82.7607,32.2427 84.5,29.5C 86.4044,29.2624 87.7377,28.2624 88.5,26.5C 90.0269,26.573 91.0269,25.9063 91.5,24.5C 93.0269,24.573 94.0269,23.9063 94.5,22.5C 96.8477,22.4077 98.5144,21.4077 99.5,19.5C 102.167,19.1667 104.833,18.8333 107.5,18.5C 107.5,17.5 107.5,16.5 107.5,15.5C 110.491,15.8337 112.824,14.8337 114.5,12.5C 115.833,12.5 117.167,12.5 118.5,12.5C 120.262,12.3573 121.929,12.6906 123.5,13.5C 124.287,12.7579 124.953,11.9246 125.5,11C 141.95,7.26313 158.617,5.76313 175.5,6.5 Z M 107.5,115.5 C 108.207,118.786 108.54,122.119 108.5,125.5C 106.729,131.693 102.729,135.693 96.5,137.5C 93.0977,137.658 89.7644,137.324 86.5,136.5C 83.8883,135.221 81.5549,133.555 79.5,131.5C 79.3404,129.847 78.6737,128.514 77.5,127.5C 76.5013,110.661 84.168,104.161 100.5,108C 103.412,110.015 105.745,112.515 107.5,115.5 Z M 232.5,108.5 C 238.425,114.708 240.092,122.041 237.5,130.5C 234.762,133.246 231.762,135.58 228.5,137.5C 227.833,137.5 227.167,137.5 226.5,137.5C 222.3,137.81 218.3,137.143 214.5,135.5C 213.167,133.5 211.5,131.833 209.5,130.5C 209.125,128.302 208.458,126.302 207.5,124.5C 207.704,121.482 208.037,118.482 208.5,115.5C 209.338,115.158 209.672,114.492 209.5,113.5C 215.908,106.288 223.575,104.621 232.5,108.5 Z M 164.5,127.5 C 167.594,128.883 170.594,130.55 173.5,132.5C 175.116,134.738 176.449,137.071 177.5,139.5C 177.687,141.564 178.187,143.564 179,145.5C 179.671,146.252 180.504,146.586 181.5,146.5C 183.509,148.065 185.843,149.065 188.5,149.5C 189.514,150.674 190.847,151.34 192.5,151.5C 193.234,152.708 193.567,154.041 193.5,155.5C 193.5,156.167 193.5,156.833 193.5,157.5C 191.654,160.54 190.321,163.873 189.5,167.5C 188.094,167.973 187.427,168.973 187.5,170.5C 186.326,171.514 185.66,172.847 185.5,174.5C 184.094,174.973 183.427,175.973 183.5,177.5C 181.413,178.585 180.08,180.251 179.5,182.5C 175.141,186.528 170.807,190.528 166.5,194.5C 164.072,195.212 161.739,196.212 159.5,197.5C 158.14,196.82 156.807,196.153 155.5,195.5C 155.167,195.5 154.833,195.5 154.5,195.5C 150.191,192.198 145.857,188.864 141.5,185.5C 140.833,184.167 139.833,183.167 138.5,182.5C 137.92,180.251 136.587,178.585 134.5,177.5C 133.66,175.147 132.326,173.147 130.5,171.5C 129.403,168.314 128.07,165.314 126.5,162.5C 125.779,159.183 125.612,155.849 126,152.5C 130.756,150.432 135.256,148.099 139.5,145.5C 141.074,143.898 141.741,141.898 141.5,139.5C 142.345,138.329 143.011,136.995 143.5,135.5C 148.869,129.055 155.869,126.388 164.5,127.5 Z M 75.5,269.5 C 76.8333,269.833 78.1667,270.167 79.5,270.5C 80.1667,271.833 81.1667,272.833 82.5,273.5C 83.8333,277.833 83.8333,282.167 82.5,286.5C 81.1667,287.167 80.1667,288.167 79.5,289.5C 76.6697,289.963 74.003,290.629 71.5,291.5C 69.5853,291.216 67.9187,291.549 66.5,292.5C 65.5318,294.607 65.1984,296.941 65.5,299.5C 63.5,299.5 61.5,299.5 59.5,299.5C 59.3335,289.494 59.5002,279.494 60,269.5C 64.9554,269.398 70.1221,269.398 75.5,269.5 Z M 127.5,268.5 C 128.87,268.856 129.87,269.69 130.5,271C 129.05,278.705 129.383,286.205 131.5,293.5C 135.298,294.483 139.298,294.817 143.5,294.5C 143.5,296.167 143.5,297.833 143.5,299.5C 137.167,299.5 130.833,299.5 124.5,299.5C 124.5,289.5 124.5,279.5 124.5,269.5C 125.791,269.737 126.791,269.404 127.5,268.5 Z M 167.5,268.5 C 167.833,268.5 168.167,268.5 168.5,268.5C 169.93,269.537 171.597,270.204 173.5,270.5C 174.833,272.5 176.5,274.167 178.5,275.5C 180.002,279.342 180.668,283.342 180.5,287.5C 179.463,288.93 178.796,290.597 178.5,292.5C 177.094,292.973 176.427,293.973 176.5,295.5C 175.833,295.5 175.5,295.833 175.5,296.5C 173.973,296.427 172.973,297.094 172.5,298.5C 171.508,298.328 170.842,298.662 170.5,299.5C 167.833,299.833 165.167,300.167 162.5,300.5C 159.924,299.512 157.257,298.512 154.5,297.5C 153.167,295.5 151.5,293.833 149.5,292.5C 149.443,291.391 149.11,290.391 148.5,289.5C 147.296,285.086 147.629,280.753 149.5,276.5C 150.338,276.158 150.672,275.492 150.5,274.5C 155.015,269.416 160.682,267.416 167.5,268.5 Z M 187.5,268.5 C 190.249,268.274 192.916,268.607 195.5,269.5C 196.857,271.565 198.19,273.565 199.5,275.5C 199.5,275.833 199.5,276.167 199.5,276.5C 200.655,279.475 202.322,282.142 204.5,284.5C 206.6,282.636 207.933,280.303 208.5,277.5C 210.008,275.819 211.008,273.819 211.5,271.5C 211.5,271.167 211.5,270.833 211.5,270.5C 212.82,269.058 214.486,268.392 216.5,268.5C 217.919,269.451 219.585,269.784 221.5,269.5C 221.5,279.5 221.5,289.5 221.5,299.5C 219.5,299.5 217.5,299.5 215.5,299.5C 215.219,294.435 215.552,289.435 216.5,284.5C 215.838,281.3 214.838,280.966 213.5,283.5C 211.659,285.849 210.326,288.515 209.5,291.5C 208.326,292.514 207.66,293.847 207.5,295.5C 205.751,297.531 203.751,297.865 201.5,296.5C 200.284,291.738 198.284,287.405 195.5,283.5C 195.217,282.711 194.717,282.044 194,281.5C 193.501,287.491 193.334,293.491 193.5,299.5C 192.209,299.263 191.209,299.596 190.5,300.5C 189.833,300.5 189.167,300.5 188.5,300.5C 187.524,289.915 187.191,279.248 187.5,268.5 Z M 248.5,273.5 C 248.935,276.157 249.935,278.491 251.5,280.5C 252.655,284.797 254.321,288.797 256.5,292.5C 256.66,294.153 257.326,295.486 258.5,296.5C 258.5,296.833 258.5,297.167 258.5,297.5C 258.218,298.778 257.551,299.778 256.5,300.5C 253.213,299.88 251.213,297.88 250.5,294.5C 246.374,292.553 242.04,292.053 237.5,293C 236.244,293.417 235.577,294.25 235.5,295.5C 234.326,296.514 233.66,297.847 233.5,299.5C 231.708,299.366 230.042,299.699 228.5,300.5C 227.89,299.609 227.557,298.609 227.5,297.5C 227.5,297.167 227.5,296.833 227.5,296.5C 228.674,295.486 229.34,294.153 229.5,292.5C 230.404,291.791 230.737,290.791 230.5,289.5C 232.008,287.819 233.008,285.819 233.5,283.5C 234.11,282.609 234.443,281.609 234.5,280.5C 236.343,276.649 238.343,272.816 240.5,269C 244.323,268.495 246.99,269.995 248.5,273.5 Z M 106.5,269.5 C 106.707,272.241 107.707,274.574 109.5,276.5C 109.402,278.553 110.069,280.22 111.5,281.5C 111.328,282.492 111.662,283.158 112.5,283.5C 113.796,287.739 115.462,291.739 117.5,295.5C 117.539,296.583 117.873,297.583 118.5,298.5C 116.604,299.466 114.604,299.799 112.5,299.5C 111.921,294.421 109.088,292.087 104,292.5C 101.102,292.637 98.2686,293.137 95.5,294C 94.536,295.725 93.8693,297.559 93.5,299.5C 90.9179,299.975 88.9179,299.308 87.5,297.5C 88.3627,295.579 89.0293,293.579 89.5,291.5C 90.6737,290.486 91.3404,289.153 91.5,287.5C 91.5,287.167 91.5,286.833 91.5,286.5C 92.6737,285.486 93.3404,284.153 93.5,282.5C 95.6787,278.797 97.3454,274.797 98.5,270.5C 101.054,269.612 103.721,269.279 106.5,269.5 Z"/></g>
<g><path style="opacity:1" fill="#e76a62" d="M 142.5,5.5 C 153.679,5.17207 164.679,5.5054 175.5,6.5C 158.617,5.76313 141.95,7.26313 125.5,11C 124.953,11.9246 124.287,12.7579 123.5,13.5C 121.929,12.6906 120.262,12.3573 118.5,12.5C 121.5,11.1667 124.5,9.83333 127.5,8.5C 132.206,6.6253 137.206,5.6253 142.5,5.5 Z"/></g>
<g><path style="opacity:0.192" fill="#f3a398" d="M 193.5,8.5 C 195.786,8.59495 197.786,9.26162 199.5,10.5C 197.102,10.7406 195.102,10.0739 193.5,8.5 Z"/></g>
<g><path style="opacity:0.471" fill="#eb9389" d="M 127.5,8.5 C 124.5,9.83333 121.5,11.1667 118.5,12.5C 117.167,12.5 115.833,12.5 114.5,12.5C 118.502,10.3902 122.835,9.0569 127.5,8.5 Z"/></g>
<g><path style="opacity:0.6" fill="#e98b82" d="M 202.5,11.5 C 204.553,11.4021 206.22,12.0687 207.5,13.5C 205.219,13.9227 203.552,13.256 202.5,11.5 Z"/></g>
<g><path style="opacity:0.651" fill="#e5897e" d="M 114.5,12.5 C 112.824,14.8337 110.491,15.8337 107.5,15.5C 109.509,13.9348 111.843,12.9348 114.5,12.5 Z"/></g>
<g><path style="opacity:0.624" fill="#ea8d86" d="M 207.5,13.5 C 209.553,13.4021 211.22,14.0687 212.5,15.5C 210.219,15.9227 208.552,15.256 207.5,13.5 Z"/></g>
<g><path style="opacity:1" fill="#e6766e" d="M 107.5,15.5 C 107.5,16.5 107.5,17.5 107.5,18.5C 104.833,18.8333 102.167,19.1667 99.5,19.5C 101.849,17.659 104.515,16.3257 107.5,15.5 Z"/></g>
<g><path style="opacity:0.847" fill="#ec9488" d="M 218.5,18.5 C 220.674,18.7497 222.341,19.7497 223.5,21.5C 221.011,21.7593 219.344,20.7593 218.5,18.5 Z"/></g>
<g><path style="opacity:0.251" fill="#ed9d92" d="M 99.5,19.5 C 98.5144,21.4077 96.8477,22.4077 94.5,22.5C 95.6594,20.7497 97.326,19.7497 99.5,19.5 Z"/></g>
<g><path style="opacity:0.341" fill="#ef9e91" d="M 94.5,22.5 C 94.0269,23.9063 93.0269,24.573 91.5,24.5C 91.9731,23.0937 92.9731,22.427 94.5,22.5 Z"/></g>
<g><path style="opacity:0.859" fill="#eb9285" d="M 223.5,21.5 C 226.704,22.3833 229.371,24.0499 231.5,26.5C 228.046,25.9247 225.379,24.258 223.5,21.5 Z"/></g>
<g><path style="opacity:0.376" fill="#ef9c93" d="M 91.5,24.5 C 91.0269,25.9063 90.0269,26.573 88.5,26.5C 88.9731,25.0937 89.9731,24.427 91.5,24.5 Z"/></g>
<g><path style="opacity:0.294" fill="#ed9f94" d="M 88.5,26.5 C 87.7377,28.2624 86.4044,29.2624 84.5,29.5C 85.2623,27.7376 86.5956,26.7376 88.5,26.5 Z"/></g>
<g><path style="opacity:0.29" fill="#eb978c" d="M 231.5,26.5 C 233.23,27.0256 234.564,28.0256 235.5,29.5C 233.368,29.4456 232.035,28.4456 231.5,26.5 Z"/></g>
<g><path style="opacity:0.612" fill="#ed958a" d="M 235.5,29.5 C 237.23,30.0256 238.564,31.0256 239.5,32.5C 237.368,32.4456 236.035,31.4456 235.5,29.5 Z"/></g>
<g><path style="opacity:0.576" fill="#e78e80" d="M 84.5,29.5 C 82.7607,32.2427 80.4274,34.2427 77.5,35.5C 79.2393,32.7573 81.5726,30.7573 84.5,29.5 Z"/></g>
<g><path style="opacity:0.224" fill="#eda598" d="M 77.5,35.5 C 75.5,38.1667 73.1667,40.5 70.5,42.5C 71.8333,39.1667 74.1667,36.8333 77.5,35.5 Z"/></g>
<g><path style="opacity:0.29" fill="#e99988" d="M 67.5,45.5 C 66.5806,48.0892 64.914,50.0892 62.5,51.5C 63.4194,48.9108 65.086,46.9108 67.5,45.5 Z"/></g>
<g><path style="opacity:0.949" fill="#e67a70" d="M 250.5,43.5 C 254.922,47.5873 258.589,52.2539 261.5,57.5C 258.176,55.225 255.176,52.5583 252.5,49.5C 251.628,47.5504 250.961,45.5504 250.5,43.5 Z"/></g>
<g><path style="opacity:0.263" fill="#ea9b8f" d="M 62.5,51.5 C 62.2624,53.4044 61.2624,54.7377 59.5,55.5C 59.7376,53.5956 60.7376,52.2623 62.5,51.5 Z"/></g>
<g><path style="opacity:0.278" fill="#f0a195" d="M 59.5,55.5 C 59.2624,57.4044 58.2624,58.7377 56.5,59.5C 56.7376,57.5956 57.7376,56.2623 59.5,55.5 Z"/></g>
<g><path style="opacity:0.129" fill="#f7b3a5" d="M 56.5,59.5 C 56.5,60.1667 56.5,60.8333 56.5,61.5C 55.8333,61.8333 55.1667,62.1667 54.5,62.5C 54.427,60.9731 55.0937,59.9731 56.5,59.5 Z"/></g>
<g><path style="opacity:0.184" fill="#ea9b8b" d="M 264.5,62.5 C 265.906,62.9731 266.573,63.9731 266.5,65.5C 265.094,65.0269 264.427,64.0269 264.5,62.5 Z"/></g>
<g><path style="opacity:0.129" fill="#f8b7aa" d="M 53.5,64.5 C 53.573,66.0269 52.9063,67.0269 51.5,67.5C 51.427,65.9731 52.0937,64.9731 53.5,64.5 Z"/></g>
<g><path style="opacity:0.875" fill="#e1776d" d="M 56.5,61.5 C 55.6017,65.9109 53.2684,69.2442 49.5,71.5C 49.6596,69.847 50.3263,68.5137 51.5,67.5C 52.9063,67.0269 53.573,66.0269 53.5,64.5C 53.3284,63.5084 53.6618,62.8417 54.5,62.5C 55.1667,62.1667 55.8333,61.8333 56.5,61.5 Z"/></g>
<g><path style="opacity:1" fill="#e8665e" d="M 261.5,57.5 C 263.25,58.6594 264.25,60.326 264.5,62.5C 264.427,64.0269 265.094,65.0269 266.5,65.5C 268.341,67.8485 269.674,70.5152 270.5,73.5C 270.5,74.5 270.5,75.5 270.5,76.5C 268.824,75.8166 268.157,74.4832 268.5,72.5C 267.127,72.3433 265.793,72.51 264.5,73C 262.097,79.082 261.264,78.9153 262,72.5C 263.079,70.6063 264.413,70.273 266,71.5C 266.72,69.8876 266.554,68.3876 265.5,67C 263.998,66.4169 262.665,65.5836 261.5,64.5C 262.053,62.2727 262.053,59.9393 261.5,57.5 Z"/></g>
<g><path style="opacity:0.792" fill="#e98c80" d="M 270.5,73.5 C 272.951,76.7403 274.618,80.4069 275.5,84.5C 273.347,82.2063 271.68,79.5396 270.5,76.5C 270.5,75.5 270.5,74.5 270.5,73.5 Z"/></g>
<g><path style="opacity:0.945" fill="#e78377" d="M 49.5,71.5 C 49.8021,75.3799 48.4688,78.3799 45.5,80.5C 46.0749,77.0884 47.4082,74.0884 49.5,71.5 Z"/></g>
<g><path style="opacity:0.616" fill="#efa195" d="M 45.5,80.5 C 45.3104,83.855 44.3104,86.855 42.5,89.5C 42.5275,86.0836 43.5275,83.0836 45.5,80.5 Z"/></g>
<g><path style="opacity:0.275" fill="#eb9389" d="M 276.5,89.5 C 277.924,91.5145 278.59,93.8478 278.5,96.5C 277.076,94.4855 276.41,92.1522 276.5,89.5 Z"/></g>
<g><path style="opacity:0.745" fill="#e68d80" d="M 42.5,89.5 C 42.5,90.8333 42.5,92.1667 42.5,93.5C 42.0195,96.0783 41.0195,98.4116 39.5,100.5C 39.7424,96.521 40.7424,92.8544 42.5,89.5 Z"/></g>
<g><path style="opacity:0.878" fill="#e47970" d="M 232.5,108.5 C 223.575,104.621 215.908,106.288 209.5,113.5C 209.5,112.167 209.5,110.833 209.5,109.5C 210.5,109.5 211.5,109.5 212.5,109.5C 212.5,108.5 212.5,107.5 212.5,106.5C 218.472,105.526 224.472,105.359 230.5,106C 231.756,106.417 232.423,107.25 232.5,108.5 Z"/></g>
<g><path style="opacity:1" fill="#ed5f5b" d="M 42.5,93.5 C 42.4682,99.4931 41.4682,105.326 39.5,111C 40.3396,116.731 41.3396,122.398 42.5,128C 41.8355,154.596 41.5021,181.262 41.5,208C 41.5128,235.109 42.1795,262.109 43.5,289C 42.3498,290.981 41.0165,292.814 39.5,294.5C 38.5009,232.336 38.1676,170.002 38.5,107.5C 38.298,105.05 38.6314,102.717 39.5,100.5C 41.0195,98.4116 42.0195,96.0783 42.5,93.5 Z"/></g>
<g><path style="opacity:0.542" fill="#e87970" d="M 232.5,108.5 C 236.047,108.558 238.38,110.225 239.5,113.5C 240.833,118.833 240.833,124.167 239.5,129.5C 238.817,129.863 238.15,130.196 237.5,130.5C 240.092,122.041 238.425,114.708 232.5,108.5 Z"/></g>
<g><path style="opacity:0.222" fill="#e28479" d="M 107.5,115.5 C 108.972,117.117 109.639,119.117 109.5,121.5C 109.489,123.045 109.156,124.378 108.5,125.5C 108.54,122.119 108.207,118.786 107.5,115.5 Z"/></g>
<g><path style="opacity:0.343" fill="#e4766d" d="M 208.5,115.5 C 208.037,118.482 207.704,121.482 207.5,124.5C 206.366,122.034 206.199,119.367 207,116.5C 207.383,115.944 207.883,115.611 208.5,115.5 Z"/></g>
<g><path style="opacity:0.706" fill="#e88677" d="M 38.5,107.5 C 38.1676,170.002 38.5009,232.336 39.5,294.5C 40.4633,298.101 41.13,301.767 41.5,305.5C 39.1441,302.285 37.6441,298.619 37,294.5C 36.3333,235.167 36.3333,175.833 37,116.5C 37.1805,113.305 37.6805,110.305 38.5,107.5 Z"/></g>
<g><path style="opacity:0.369" fill="#e68578" d="M 278.5,97.5 C 279.832,101.264 280.665,105.264 281,109.5C 281.618,170.835 281.951,232.168 282,293.5C 281.307,299.224 278.807,303.89 274.5,307.5C 274.34,305.801 274.506,304.134 275,302.5C 275.414,302.957 275.914,303.291 276.5,303.5C 278.384,300.438 279.551,297.105 280,293.5C 280.667,232.833 280.667,172.167 280,111.5C 279.006,106.882 278.506,102.215 278.5,97.5 Z"/></g>
<g><path style="opacity:1" fill="#e8716b" d="M 164.5,127.5 C 155.869,126.388 148.869,129.055 143.5,135.5C 143.201,133.396 143.534,131.396 144.5,129.5C 146.102,130.55 146.935,129.883 147,127.5C 152.797,126.51 158.631,126.51 164.5,127.5 Z"/></g>
<g><path style="opacity:0.682" fill="#da8272" d="M 77.5,127.5 C 78.6737,128.514 79.3404,129.847 79.5,131.5C 77.8235,130.817 77.1568,129.483 77.5,127.5 Z"/></g>
<g><path style="opacity:0.443" fill="#e79387" d="M 209.5,130.5 C 211.5,131.833 213.167,133.5 214.5,135.5C 211.833,134.833 210.167,133.167 209.5,130.5 Z"/></g>
<g><path style="opacity:0.541" fill="#e48279" d="M 173.5,132.5 C 176.59,133.665 177.924,135.998 177.5,139.5C 176.449,137.071 175.116,134.738 173.5,132.5 Z"/></g>
<g><path style="opacity:0.843" fill="#e3766b" d="M 79.5,131.5 C 81.5549,133.555 83.8883,135.221 86.5,136.5C 86.5,136.833 86.5,137.167 86.5,137.5C 84.5648,136.85 82.5648,136.517 80.5,136.5C 80.3713,134.784 80.038,133.117 79.5,131.5 Z"/></g>
<g><path style="opacity:0.341" fill="#e3857b" d="M 237.5,130.5 C 235.938,134.733 232.938,137.067 228.5,137.5C 231.762,135.58 234.762,133.246 237.5,130.5 Z"/></g>
<g><path style="opacity:1" fill="#e76a62" d="M 108.5,125.5 C 108.896,128.482 108.229,131.149 106.5,133.5C 107.305,135.472 108.639,136.972 110.5,138C 110.167,138.333 109.833,138.667 109.5,139C 107.522,138.413 105.689,137.246 104,135.5C 99.3193,139.294 94.1527,140.294 88.5,138.5C 91.3854,138.806 94.0521,138.473 96.5,137.5C 102.729,135.693 106.729,131.693 108.5,125.5 Z"/></g>
<g><path style="opacity:0.694" fill="#ec9287" d="M 214.5,135.5 C 218.3,137.143 222.3,137.81 226.5,137.5C 223.696,138.638 220.696,138.805 217.5,138C 215.881,137.764 214.881,136.931 214.5,135.5 Z"/></g>
<g><path style="opacity:0.11" fill="#f39f92" d="M 86.5,137.5 C 86.5,137.167 86.5,136.833 86.5,136.5C 89.7644,137.324 93.0977,137.658 96.5,137.5C 94.0521,138.473 91.3854,138.806 88.5,138.5C 87.8333,138.167 87.1667,137.833 86.5,137.5 Z"/></g>
<g><path style="opacity:0.271" fill="#df7d75" d="M 141.5,139.5 C 141.741,141.898 141.074,143.898 139.5,145.5C 139.054,142.99 139.72,140.99 141.5,139.5 Z"/></g>
<g><path style="opacity:0.263" fill="#db7f74" d="M 177.5,139.5 C 179.071,141.635 180.404,143.968 181.5,146.5C 180.504,146.586 179.671,146.252 179,145.5C 178.187,143.564 177.687,141.564 177.5,139.5 Z"/></g>
<g><path style="opacity:0.898" fill="#e7716a" d="M 139.5,145.5 C 135.256,148.099 130.756,150.432 126,152.5C 125.612,155.849 125.779,159.183 126.5,162.5C 125.685,161.571 124.852,160.571 124,159.5C 123.581,160.672 122.915,161.672 122,162.5C 121.833,162 121.667,161.5 121.5,161C 122.911,158.022 123.911,154.855 124.5,151.5C 127.341,149.914 130.007,148.08 132.5,146C 134.81,145.503 137.143,145.337 139.5,145.5 Z"/></g>
<g><path style="opacity:0.733" fill="#e87f7b" d="M 181.5,146.5 C 184.491,146.166 186.824,147.166 188.5,149.5C 185.843,149.065 183.509,148.065 181.5,146.5 Z"/></g>
<g><path style="opacity:0.047" fill="#f8aa9e" d="M 192.5,151.5 C 193.586,151.62 194.253,152.287 194.5,153.5C 194.457,154.416 194.124,155.083 193.5,155.5C 193.567,154.041 193.234,152.708 192.5,151.5 Z"/></g>
<g><path style="opacity:0.655" fill="#de7a6e" d="M 193.5,157.5 C 194.25,161.775 192.917,165.109 189.5,167.5C 190.321,163.873 191.654,160.54 193.5,157.5 Z"/></g>
<g><path style="opacity:0.141" fill="#f6a199" d="M 189.5,167.5 C 189.573,169.027 188.906,170.027 187.5,170.5C 187.427,168.973 188.094,167.973 189.5,167.5 Z"/></g>
<g><path style="opacity:0.878" fill="#e67c75" d="M 130.5,171.5 C 132.326,173.147 133.66,175.147 134.5,177.5C 131.196,176.856 129.862,174.856 130.5,171.5 Z"/></g>
<g><path style="opacity:0.522" fill="#e88c7c" d="M 185.5,174.5 C 185.573,176.027 184.906,177.027 183.5,177.5C 183.427,175.973 184.094,174.973 185.5,174.5 Z"/></g>
<g><path style="opacity:0.471" fill="#eb9488" d="M 134.5,177.5 C 136.587,178.585 137.92,180.251 138.5,182.5C 136.413,181.415 135.08,179.749 134.5,177.5 Z"/></g>
<g><path style="opacity:0.271" fill="#ea9789" d="M 183.5,177.5 C 182.92,179.749 181.587,181.415 179.5,182.5C 180.08,180.251 181.413,178.585 183.5,177.5 Z"/></g>
<g><path style="opacity:0.553" fill="#e08076" d="M 179.5,182.5 C 176.446,187.887 172.113,191.887 166.5,194.5C 170.807,190.528 175.141,186.528 179.5,182.5 Z"/></g>
<g><path style="opacity:0.945" fill="#e6766d" d="M 141.5,185.5 C 145.857,188.864 150.191,192.198 154.5,195.5C 152.194,195.007 149.861,194.674 147.5,194.5C 145.658,191.386 143.658,188.386 141.5,185.5 Z"/></g>
<g><path style="opacity:0.875" fill="#e4766d" d="M 166.5,194.5 C 164.233,198.45 160.9,199.45 156.5,197.5C 155.702,197.043 155.369,196.376 155.5,195.5C 156.807,196.153 158.14,196.82 159.5,197.5C 161.739,196.212 164.072,195.212 166.5,194.5 Z"/></g>
<g><path style="opacity:1" fill="#e36763" d="M 159.5,267.5 C 161.641,266.837 163.975,266.503 166.5,266.5C 170.585,266.587 174.252,267.587 177.5,269.5C 177.833,271.5 178.167,273.5 178.5,275.5C 176.5,274.167 174.833,272.5 173.5,270.5C 172.365,268.787 170.698,268.12 168.5,268.5C 168.167,268.5 167.833,268.5 167.5,268.5C 165.052,267.527 162.385,267.194 159.5,267.5 Z"/></g>
<g><path style="opacity:0.982" fill="#e87b77" d="M 159.5,267.5 C 162.385,267.194 165.052,267.527 167.5,268.5C 160.682,267.416 155.015,269.416 150.5,274.5C 150.244,272.208 150.577,270.041 151.5,268C 154.146,267.503 156.813,267.336 159.5,267.5 Z"/></g>
<g><path style="opacity:0.333" fill="#de847c" d="M 186.5,268.5 C 190.034,267.207 193.701,267.207 197.5,268.5C 198.944,270.608 199.61,272.941 199.5,275.5C 198.19,273.565 196.857,271.565 195.5,269.5C 192.916,268.607 190.249,268.274 187.5,268.5C 187.167,268.5 186.833,268.5 186.5,268.5 Z"/></g>
<g><path style="opacity:0.457" fill="#d7756f" d="M 221.5,268.5 C 219.833,268.5 218.167,268.5 216.5,268.5C 214.486,268.392 212.82,269.058 211.5,270.5C 211.5,269.5 211.5,268.5 211.5,267.5C 215.042,267.187 218.375,267.521 221.5,268.5 Z"/></g>
<g><path style="opacity:0.475" fill="#e0867e" d="M 248.5,273.5 C 246.99,269.995 244.323,268.495 240.5,269C 238.343,272.816 236.343,276.649 234.5,280.5C 234.986,276.053 236.32,271.886 238.5,268C 241.167,267.333 243.833,267.333 246.5,268C 248.155,269.444 248.822,271.278 248.5,273.5 Z"/></g>
<g><path style="opacity:0.012" fill="#fec6c0" d="M 106.5,269.5 C 103.721,269.279 101.054,269.612 98.5,270.5C 98.5,270.167 98.5,269.833 98.5,269.5C 101.167,268.167 103.833,268.167 106.5,269.5 Z"/></g>
<g><path style="opacity:0.427" fill="#e9928a" d="M 168.5,268.5 C 170.698,268.12 172.365,268.787 173.5,270.5C 171.597,270.204 169.93,269.537 168.5,268.5 Z"/></g>
<g><path style="opacity:0.314" fill="#ef9d96" d="M 79.5,270.5 C 81.5,270.5 82.5,271.5 82.5,273.5C 81.1667,272.833 80.1667,271.833 79.5,270.5 Z"/></g>
<g><path style="opacity:0.984" fill="#e17a72" d="M 98.5,269.5 C 98.5,269.833 98.5,270.167 98.5,270.5C 97.3454,274.797 95.6787,278.797 93.5,282.5C 93.2319,277.287 94.8985,272.954 98.5,269.5 Z"/></g>
<g><path style="opacity:0.413" fill="#e2928d" d="M 123.5,268.5 C 125.895,267.186 128.395,267.186 131,268.5C 131.5,276.827 131.666,285.16 131.5,293.5C 129.383,286.205 129.05,278.705 130.5,271C 129.87,269.69 128.87,268.856 127.5,268.5C 126.167,268.5 124.833,268.5 123.5,268.5 Z"/></g>
<g><path style="opacity:0.886" fill="#ea887f" d="M 211.5,271.5 C 211.008,273.819 210.008,275.819 208.5,277.5C 208.5,275.5 208.5,273.5 208.5,271.5C 209.5,271.5 210.5,271.5 211.5,271.5 Z"/></g>
<g><path style="opacity:0.384" fill="#e29790" d="M 161.5,274.5 C 164.293,273.254 166.96,273.587 169.5,275.5C 166.833,275.167 164.167,274.833 161.5,274.5 Z"/></g>
<g><path style="opacity:0.908" fill="#e27772" d="M 75.5,275.5 C 75.5,278.5 75.5,281.5 75.5,284.5C 66.0121,287.843 63.0121,284.677 66.5,275C 69.592,274.264 72.592,274.431 75.5,275.5 Z"/></g>
<g><path style="opacity:0.973" fill="#df6c64" d="M 161.5,274.5 C 164.167,274.833 166.833,275.167 169.5,275.5C 171.262,276.262 172.262,277.596 172.5,279.5C 167.709,276.005 162.709,275.671 157.5,278.5C 157.5,277.833 157.5,277.167 157.5,276.5C 158.514,275.326 159.847,274.66 161.5,274.5 Z"/></g>
<g><path style="opacity:0.983" fill="#e66f67" d="M 208.5,277.5 C 207.933,280.303 206.6,282.636 204.5,284.5C 202.322,282.142 200.655,279.475 199.5,276.5C 201.017,276.511 202.184,277.177 203,278.5C 203.833,277.5 204.667,276.5 205.5,275.5C 206.265,276.612 207.265,277.279 208.5,277.5 Z"/></g>
<g><path style="opacity:0.041" fill="#fed0cd" d="M 123.5,268.5 C 124.833,268.5 126.167,268.5 127.5,268.5C 126.791,269.404 125.791,269.737 124.5,269.5C 124.5,279.5 124.5,289.5 124.5,299.5C 130.833,299.5 137.167,299.5 143.5,299.5C 143.5,297.833 143.5,296.167 143.5,294.5C 144.461,296.265 144.795,298.265 144.5,300.5C 137.5,300.5 130.5,300.5 123.5,300.5C 123.5,289.833 123.5,279.167 123.5,268.5 Z"/></g>
<g><path style="opacity:0.624" fill="#e8938d" d="M 109.5,276.5 C 111.256,277.552 111.923,279.219 111.5,281.5C 110.069,280.22 109.402,278.553 109.5,276.5 Z"/></g>
<g><path style="opacity:0.149" fill="#f0aca7" d="M 157.5,276.5 C 157.5,277.167 157.5,277.833 157.5,278.5C 156.833,278.833 156.167,279.167 155.5,279.5C 155.427,277.973 156.094,276.973 157.5,276.5 Z"/></g>
<g><path style="opacity:0.2" fill="#e6938b" d="M 248.5,273.5 C 250.536,275.206 251.536,277.539 251.5,280.5C 249.935,278.491 248.935,276.157 248.5,273.5 Z"/></g>
<g><path style="opacity:0.28" fill="#ef9e99" d="M 75.5,269.5 C 70.1221,269.398 64.9554,269.398 60,269.5C 59.5002,279.494 59.3335,289.494 59.5,299.5C 61.5,299.5 63.5,299.5 65.5,299.5C 65.1984,296.941 65.5318,294.607 66.5,292.5C 66.5,295.167 66.5,297.833 66.5,300.5C 63.8333,300.5 61.1667,300.5 58.5,300.5C 58.5,289.833 58.5,279.167 58.5,268.5C 61.4153,267.878 64.4153,267.544 67.5,267.5C 70.5902,267.522 73.2568,268.188 75.5,269.5 Z"/></g>
<g><path style="opacity:0.658" fill="#dd8680" d="M 75.5,275.5 C 78.1667,278.5 78.1667,281.5 75.5,284.5C 75.5,281.5 75.5,278.5 75.5,275.5 Z"/></g>
<g><path style="opacity:0.757" fill="#dd908d" d="M 104.5,281.5 C 103.041,281.433 101.708,281.766 100.5,282.5C 101.398,277.852 102.731,277.519 104.5,281.5 Z"/></g>
<g><path style="opacity:0.329" fill="#d97d76" d="M 178.5,275.5 C 179.931,275.881 180.764,276.881 181,278.5C 181.805,281.696 181.638,284.696 180.5,287.5C 180.668,283.342 180.002,279.342 178.5,275.5 Z"/></g>
<g><path style="opacity:0.103" fill="#ffb9b4" d="M 216.5,268.5 C 218.167,268.5 219.833,268.5 221.5,268.5C 222.167,268.5 222.5,268.833 222.5,269.5C 222.5,279.833 222.5,290.167 222.5,300.5C 220.167,300.5 217.833,300.5 215.5,300.5C 215.5,300.167 215.5,299.833 215.5,299.5C 217.5,299.5 219.5,299.5 221.5,299.5C 221.5,289.5 221.5,279.5 221.5,269.5C 219.585,269.784 217.919,269.451 216.5,268.5 Z"/></g>
<g><path style="opacity:1" fill="#ef5d59" d="M 68.5,276.5 C 70.5,276.5 72.5,276.5 74.5,276.5C 74.5,278.833 74.5,281.167 74.5,283.5C 72.139,283.674 69.8056,284.007 67.5,284.5C 67.2786,281.721 67.612,279.054 68.5,276.5 Z"/></g>
<g><path style="opacity:0.071" fill="#fec1b9" d="M 186.5,268.5 C 186.833,268.5 187.167,268.5 187.5,268.5C 187.191,279.248 187.524,289.915 188.5,300.5C 187.833,300.5 187.167,300.5 186.5,300.5C 186.5,289.833 186.5,279.167 186.5,268.5 Z"/></g>
<g><path style="opacity:0.51" fill="#e78a88" d="M 149.5,276.5 C 147.629,280.753 147.296,285.086 148.5,289.5C 145.654,284.912 145.988,280.578 149.5,276.5 Z"/></g>
<g><path style="opacity:0.239" fill="#e49494" d="M 93.5,282.5 C 93.3404,284.153 92.6737,285.486 91.5,286.5C 91.2291,284.62 91.8958,283.287 93.5,282.5 Z"/></g>
<g><path style="opacity:0.969" fill="#e36a64" d="M 104.5,281.5 C 105.404,282.209 105.737,283.209 105.5,284.5C 104.448,286.256 102.781,286.923 100.5,286.5C 100.5,285.5 100.5,284.5 100.5,283.5C 100.5,283.167 100.5,282.833 100.5,282.5C 101.708,281.766 103.041,281.433 104.5,281.5 Z"/></g>
<g><path style="opacity:0.537" fill="#e99592" d="M 172.5,279.5 C 175.27,283.429 174.937,287.096 171.5,290.5C 172.244,286.881 172.577,283.215 172.5,279.5 Z"/></g>
<g><path style="opacity:0.839" fill="#ea948a" d="M 233.5,283.5 C 233.008,285.819 232.008,287.819 230.5,289.5C 230.087,286.68 231.087,284.68 233.5,283.5 Z"/></g>
<g><path style="opacity:0.824" fill="#e4817b" d="M 112.5,283.5 C 113.496,283.414 114.329,283.748 115,284.5C 116.357,288.065 117.19,291.732 117.5,295.5C 115.462,291.739 113.796,287.739 112.5,283.5 Z"/></g>
<g><path style="opacity:0.376" fill="#dd8580" d="M 100.5,283.5 C 100.5,284.5 100.5,285.5 100.5,286.5C 102.781,286.923 104.448,286.256 105.5,284.5C 106.404,285.209 106.737,286.209 106.5,287.5C 104.167,287.5 101.833,287.5 99.5,287.5C 99.2322,285.901 99.5655,284.568 100.5,283.5 Z"/></g>
<g><path style="opacity:0.409" fill="#dc8781" d="M 244.5,281.5 C 245.738,283.214 246.405,285.214 246.5,287.5C 244.167,287.5 241.833,287.5 239.5,287.5C 239.396,283.973 240.563,280.973 243,278.5C 244.039,279.244 244.539,280.244 244.5,281.5 Z"/></g>
<g><path style="opacity:0.918" fill="#e3615a" d="M 244.5,281.5 C 244.5,283.167 244.5,284.833 244.5,286.5C 240,286.781 239.167,285.114 242,281.5C 242.77,280.402 243.603,280.402 244.5,281.5 Z"/></g>
<g><path style="opacity:1" fill="#ef635d" d="M 172.5,279.5 C 172.577,283.215 172.244,286.881 171.5,290.5C 171.5,292.5 170.5,293.5 168.5,293.5C 164.556,293.887 160.889,293.22 157.5,291.5C 156.542,291.047 155.708,290.381 155,289.5C 154.192,285.973 154.359,282.64 155.5,279.5C 156.167,279.167 156.833,278.833 157.5,278.5C 162.709,275.671 167.709,276.005 172.5,279.5 Z"/></g>
<g><path style="opacity:0.329" fill="#e5a19c" d="M 82.5,286.5 C 82.5,288.5 81.5,289.5 79.5,289.5C 80.1667,288.167 81.1667,287.167 82.5,286.5 Z"/></g>
<g><path style="opacity:0.22" fill="#f09fa2" d="M 91.5,287.5 C 91.3404,289.153 90.6737,290.486 89.5,291.5C 89.2291,289.62 89.8958,288.287 91.5,287.5 Z"/></g>
<g><path style="opacity:0.58" fill="#e99a95" d="M 79.5,289.5 C 78.713,291.104 77.3797,291.771 75.5,291.5C 74.1667,291.5 72.8333,291.5 71.5,291.5C 74.003,290.629 76.6697,289.963 79.5,289.5 Z"/></g>
<g><path style="opacity:0.604" fill="#eb968d" d="M 180.5,287.5 C 180.88,289.698 180.213,291.365 178.5,292.5C 178.796,290.597 179.463,288.93 180.5,287.5 Z"/></g>
<g><path style="opacity:0.835" fill="#dc6a63" d="M 213.5,283.5 C 214.488,288.64 214.821,293.974 214.5,299.5C 213.677,296.023 213.177,292.356 213,288.5C 212.241,290.063 211.074,291.063 209.5,291.5C 210.326,288.515 211.659,285.849 213.5,283.5 Z"/></g>
<g><path style="opacity:0.218" fill="#f1a09a" d="M 215.5,299.5 C 215.5,299.833 215.5,300.167 215.5,300.5C 215.167,300.5 214.833,300.5 214.5,300.5C 214.5,300.167 214.5,299.833 214.5,299.5C 214.821,293.974 214.488,288.64 213.5,283.5C 214.838,280.966 215.838,281.3 216.5,284.5C 215.552,289.435 215.219,294.435 215.5,299.5 Z"/></g>
<g><path style="opacity:0.598" fill="#e5928c" d="M 112.5,299.5 C 114.607,300.468 116.941,300.802 119.5,300.5C 113.589,302.851 110.255,300.851 109.5,294.5C 105.154,294.334 100.821,294.501 96.5,295C 95.9473,296.878 94.9473,298.378 93.5,299.5C 93.8693,297.559 94.536,295.725 95.5,294C 98.2686,293.137 101.102,292.637 104,292.5C 109.088,292.087 111.921,294.421 112.5,299.5 Z"/></g>
<g><path style="opacity:0.447" fill="#efaaa5" d="M 149.5,292.5 C 151.5,293.833 153.167,295.5 154.5,297.5C 151.833,296.833 150.167,295.167 149.5,292.5 Z"/></g>
<g><path style="opacity:0.351" fill="#db8681" d="M 157.5,291.5 C 160.889,293.22 164.556,293.887 168.5,293.5C 165.696,294.638 162.696,294.805 159.5,294C 158.619,293.292 157.953,292.458 157.5,291.5 Z"/></g>
<g><path style="opacity:0.51" fill="#e6928e" d="M 256.5,300.5 C 257.5,300.5 258.5,300.5 259.5,300.5C 253.589,302.851 250.255,300.851 249.5,294.5C 244.737,294.226 240.07,294.559 235.5,295.5C 235.577,294.25 236.244,293.417 237.5,293C 242.04,292.053 246.374,292.553 250.5,294.5C 251.213,297.88 253.213,299.88 256.5,300.5 Z"/></g>
<g><path style="opacity:0.204" fill="#efaca6" d="M 178.5,292.5 C 178.573,294.027 177.906,295.027 176.5,295.5C 176.427,293.973 177.094,292.973 178.5,292.5 Z"/></g>
<g><path style="opacity:0.251" fill="#e9a099" d="M 229.5,292.5 C 229.34,294.153 228.674,295.486 227.5,296.5C 227.5,295.5 227.5,294.5 227.5,293.5C 228.167,293.167 228.833,292.833 229.5,292.5 Z"/></g>
<g><path style="opacity:0.251" fill="#e89696" d="M 256.5,292.5 C 258.104,293.287 258.771,294.62 258.5,296.5C 257.326,295.486 256.66,294.153 256.5,292.5 Z"/></g>
<g><path style="opacity:0.294" fill="#ea958e" d="M 195.5,283.5 C 194.511,288.975 194.178,294.642 194.5,300.5C 193.167,300.5 191.833,300.5 190.5,300.5C 191.209,299.596 192.209,299.263 193.5,299.5C 193.334,293.491 193.501,287.491 194,281.5C 194.717,282.044 195.217,282.711 195.5,283.5 Z"/></g>
<g><path style="opacity:1" fill="#e06b65" d="M 222.5,269.5 C 223.33,277.99 223.83,286.657 224,295.5C 224.414,295.957 224.914,296.291 225.5,296.5C 226.176,295.398 226.842,294.398 227.5,293.5C 227.5,294.5 227.5,295.5 227.5,296.5C 227.5,296.833 227.5,297.167 227.5,297.5C 226.115,298.947 226.448,299.947 228.5,300.5C 230.042,299.699 231.708,299.366 233.5,299.5C 230.961,301.854 227.961,302.188 224.5,300.5C 221.054,303.117 217.72,303.117 214.5,300.5C 214.833,300.5 215.167,300.5 215.5,300.5C 217.833,300.5 220.167,300.5 222.5,300.5C 222.5,290.167 222.5,279.833 222.5,269.5 Z"/></g>
<g><path style="opacity:0.349" fill="#f2a39b" d="M 175.5,296.5 C 175.027,297.906 174.027,298.573 172.5,298.5C 172.973,297.094 173.973,296.427 175.5,296.5 Z"/></g>
<g><path style="opacity:0.282" fill="#ef9996" d="M 207.5,295.5 C 206.952,298.084 205.285,299.084 202.5,298.5C 201.662,298.158 201.328,297.492 201.5,296.5C 203.751,297.865 205.751,297.531 207.5,295.5 Z"/></g>
<g><path style="opacity:0.082" fill="#f9c4c1" d="M 154.5,297.5 C 157.257,298.512 159.924,299.512 162.5,300.5C 160.833,300.5 159.167,300.5 157.5,300.5C 156.306,299.728 155.306,298.728 154.5,297.5 Z"/></g>
<g><path style="opacity:1" fill="#e06d66" d="M 209.5,291.5 C 209.477,293.927 208.977,296.26 208,298.5C 206.057,299.807 204.223,299.807 202.5,298.5C 205.285,299.084 206.952,298.084 207.5,295.5C 207.66,293.847 208.326,292.514 209.5,291.5 Z"/></g>
<g><path style="opacity:0.047" fill="#fcc8c5" d="M 227.5,297.5 C 227.557,298.609 227.89,299.609 228.5,300.5C 226.448,299.947 226.115,298.947 227.5,297.5 Z"/></g>
<g><path style="opacity:0.024" fill="#ffcdc8" d="M 87.5,297.5 C 88.9179,299.308 90.9179,299.975 93.5,299.5C 91.3926,300.468 89.0593,300.802 86.5,300.5C 86.2627,299.209 86.596,298.209 87.5,297.5 Z"/></g>
<g><path style="opacity:0.026" fill="#f6bfba" d="M 117.5,295.5 C 119.213,296.635 119.88,298.302 119.5,300.5C 116.941,300.802 114.607,300.468 112.5,299.5C 114.604,299.799 116.604,299.466 118.5,298.5C 117.873,297.583 117.539,296.583 117.5,295.5 Z"/></g>
<g><path style="opacity:1" fill="#e86863" d="M 195.5,283.5 C 198.284,287.405 200.284,291.738 201.5,296.5C 199.657,295.754 198.324,294.421 197.5,292.5C 196.119,293 195.453,294 195.5,295.5C 197.763,297.359 198.929,299.692 199,302.5C 196.4,301.407 193.734,301.407 191,302.5C 189.124,302.475 187.624,301.809 186.5,300.5C 187.167,300.5 187.833,300.5 188.5,300.5C 189.167,300.5 189.833,300.5 190.5,300.5C 191.833,300.5 193.167,300.5 194.5,300.5C 194.178,294.642 194.511,288.975 195.5,283.5 Z"/></g>
<g><path style="opacity:0.012" fill="#fcccbf" d="M 258.5,297.5 C 259.404,298.209 259.737,299.209 259.5,300.5C 258.5,300.5 257.5,300.5 256.5,300.5C 257.551,299.778 258.218,298.778 258.5,297.5 Z"/></g>
<g><path style="opacity:0.678" fill="#db7771" d="M 131.5,293.5 C 136.167,293.5 140.833,293.5 145.5,293.5C 145.5,296.167 145.5,298.833 145.5,301.5C 137.981,301.825 130.648,301.492 123.5,300.5C 130.5,300.5 137.5,300.5 144.5,300.5C 144.795,298.265 144.461,296.265 143.5,294.5C 139.298,294.817 135.298,294.483 131.5,293.5 Z"/></g>
<g><path style="opacity:0.361" fill="#dd8982" d="M 170.5,299.5 C 168.152,300.952 165.486,301.618 162.5,301.5C 160.631,301.493 158.964,301.16 157.5,300.5C 159.167,300.5 160.833,300.5 162.5,300.5C 165.167,300.167 167.833,299.833 170.5,299.5 Z"/></g>
<g><path style="opacity:0.99" fill="#dd625d" d="M 58.5,268.5 C 58.5,279.167 58.5,289.833 58.5,300.5C 61.1667,300.5 63.8333,300.5 66.5,300.5C 66.5,297.833 66.5,295.167 66.5,292.5C 67.9187,291.549 69.5853,291.216 71.5,291.5C 72.8333,291.5 74.1667,291.5 75.5,291.5C 73.0521,292.473 70.3854,292.806 67.5,292.5C 69.4421,301.289 66.2754,304.289 58,301.5C 57.1743,290.326 57.341,279.326 58.5,268.5 Z"/></g>
<g><path style="opacity:0.847" fill="#e4877b" d="M 41.5,305.5 C 44.179,305.525 45.5123,306.858 45.5,309.5C 43.8333,308.5 42.5,307.167 41.5,305.5 Z"/></g>
<g><path style="opacity:0.71" fill="#e68272" d="M 272.5,309.5 C 271.101,310.89 269.434,311.89 267.5,312.5C 268.344,310.241 270.011,309.241 272.5,309.5 Z"/></g>
<g><path style="opacity:0.176" fill="#e49286" d="M 49.5,311.5 C 51.6547,311.372 53.6547,311.872 55.5,313C 124.833,313.5 194.166,313.667 263.5,313.5C 194.001,314.665 124.335,314.832 54.5,314C 52.5087,313.626 50.842,312.793 49.5,311.5 Z"/></g>
</svg>
