<?xml version="1.0" encoding="UTF-8"?>
<svg xmlns="http://www.w3.org/2000/svg" xmlns:xlink="http://www.w3.org/1999/xlink" width="50px" height="50px" viewBox="0 0 50 50" version="1.1">
<g id="surface1">
<path style=" stroke:none;fill-rule:nonzero;fill:rgb(9.803922%,41.568627%,89.803922%);fill-opacity:1;" d="M 25 50 C 38.808594 50 50 38.808594 50 25 C 50 11.191406 38.808594 0 25 0 C 11.191406 0 0 11.191406 0 25 C 0 38.808594 11.191406 50 25 50 Z M 25 50 "/>
<path style=" stroke:none;fill-rule:nonzero;fill:rgb(72.941176%,85.490196%,98.431373%);fill-opacity:1;" d="M 35.59375 17.328125 C 34.757812 16.957031 33.78125 17.332031 33.410156 18.164062 L 27.925781 30.488281 C 27.550781 31.324219 27.929688 32.300781 28.761719 32.671875 C 29.597656 33.042969 30.574219 32.667969 30.945312 31.835938 L 36.429688 19.511719 C 36.804688 18.675781 36.429688 17.699219 35.59375 17.328125 Z M 35.59375 17.328125 "/>
<path style=" stroke:none;fill-rule:nonzero;fill:rgb(100%,100%,100%);fill-opacity:1;" d="M 34.921875 20.492188 C 35.835938 20.492188 36.574219 19.753906 36.574219 18.839844 C 36.574219 17.925781 35.835938 17.183594 34.921875 17.183594 C 34.007812 17.183594 33.269531 17.925781 33.269531 18.839844 C 33.269531 19.753906 34.007812 20.492188 34.921875 20.492188 Z M 34.921875 20.492188 "/>
<path style=" stroke:none;fill-rule:nonzero;fill:rgb(100%,100%,100%);fill-opacity:1;" d="M 29.433594 32.816406 C 30.347656 32.816406 31.089844 32.074219 31.089844 31.160156 C 31.089844 30.246094 30.347656 29.507812 29.433594 29.507812 C 28.523438 29.507812 27.78125 30.246094 27.78125 31.160156 C 27.78125 32.074219 28.523438 32.816406 29.433594 32.816406 Z M 29.433594 32.816406 "/>
<path style=" stroke:none;fill-rule:nonzero;fill:rgb(100%,100%,100%);fill-opacity:1;" d="M 21.238281 17.328125 C 20.402344 16.957031 19.425781 17.332031 19.054688 18.164062 L 13.566406 30.488281 C 13.195312 31.324219 13.570312 32.300781 14.40625 32.671875 C 15.238281 33.042969 16.21875 32.667969 16.589844 31.835938 L 22.074219 19.511719 C 22.449219 18.675781 22.070312 17.699219 21.238281 17.328125 Z M 21.238281 17.328125 "/>
<path style=" stroke:none;fill-rule:nonzero;fill:rgb(100%,100%,100%);fill-opacity:1;" d="M 28.414062 17.328125 C 27.582031 16.957031 26.605469 17.332031 26.234375 18.164062 L 23.488281 24.328125 C 23.117188 25.160156 23.492188 26.140625 24.328125 26.511719 C 25.164062 26.882812 26.140625 26.507812 26.511719 25.671875 L 29.253906 19.511719 C 29.625 18.675781 29.25 17.699219 28.414062 17.328125 Z M 28.414062 17.328125 "/>
</g>
</svg>
