<?xml version="1.0" encoding="UTF-8"?>
<svg xmlns="http://www.w3.org/2000/svg" xmlns:xlink="http://www.w3.org/1999/xlink" width="50px" height="50px" viewBox="0 0 50 50" version="1.1">
<g id="surface1">
<path style=" stroke:none;fill-rule:evenodd;fill:rgb(69.411765%,69.411765%,69.803922%);fill-opacity:1;" d="M 21.644531 0.0820312 C 21.414062 0.136719 20.460938 0.328125 19.535156 0.507812 C 18.605469 0.683594 16.988281 1.164062 15.945312 1.574219 C 7.867188 4.75 1.894531 11.847656 0.300781 20.160156 C -0.113281 22.335938 -0.0976562 27.785156 0.332031 29.886719 C 1.882812 37.472656 6.765625 43.832031 13.726562 47.339844 C 23.347656 52.191406 34.988281 50.285156 42.667969 42.609375 C 50.285156 34.992188 52.175781 23.367188 47.355469 13.78125 C 44.03125 7.171875 37.515625 2.058594 30.410156 0.480469 C 28.875 0.136719 22.59375 -0.144531 21.644531 0.0820312 Z M 21.644531 0.0820312 "/>
<path style=" stroke:none;fill-rule:evenodd;fill:rgb(52.54902%,52.941176%,53.333333%);fill-opacity:1;" d="M 21.644531 0.0820312 C 21.414062 0.136719 20.460938 0.328125 19.535156 0.507812 C 18.605469 0.683594 16.988281 1.164062 15.945312 1.574219 C 7.867188 4.75 1.894531 11.847656 0.300781 20.160156 C -0.113281 22.335938 -0.0976562 27.785156 0.332031 29.886719 C 1.882812 37.472656 6.765625 43.832031 13.726562 47.339844 C 23.347656 52.191406 34.988281 50.285156 42.667969 42.609375 C 50.285156 34.992188 52.175781 23.367188 47.355469 13.78125 C 44.03125 7.171875 37.515625 2.058594 30.410156 0.480469 C 28.875 0.136719 22.59375 -0.144531 21.644531 0.0820312 Z M 23.59375 1.5625 C 23.523438 1.632812 23.34375 1.636719 23.191406 1.578125 C 23.019531 1.511719 23.070312 1.460938 23.316406 1.449219 C 23.539062 1.441406 23.664062 1.492188 23.59375 1.5625 Z M 26.761719 1.5625 C 26.691406 1.632812 26.507812 1.636719 26.355469 1.578125 C 26.1875 1.511719 26.238281 1.460938 26.484375 1.449219 C 26.707031 1.441406 26.832031 1.492188 26.761719 1.5625 Z M 11.984375 26.925781 C 11.945312 28.054688 11.914062 27.128906 11.914062 24.867188 C 11.914062 22.601562 11.945312 21.675781 11.984375 22.808594 C 12.019531 23.9375 12.019531 25.792969 11.984375 26.925781 Z M 37.949219 22.175781 C 37.898438 22.433594 37.855469 22.222656 37.855469 21.699219 C 37.855469 21.175781 37.898438 20.964844 37.949219 21.222656 C 38 21.484375 38 21.914062 37.949219 22.175781 Z M 37.800781 22.8125 C 37.800781 22.847656 37.207031 23.441406 36.480469 24.132812 L 35.160156 25.394531 L 36.421875 24.074219 C 37.589844 22.847656 37.800781 22.65625 37.800781 22.8125 Z M 37.953125 28.085938 C 37.910156 28.578125 37.875 28.175781 37.875 27.1875 C 37.875 26.199219 37.910156 25.796875 37.953125 26.289062 C 38 26.785156 38 27.589844 37.953125 28.085938 Z M 24.226562 42.726562 C 24.15625 42.796875 23.976562 42.804688 23.824219 42.742188 C 23.65625 42.675781 23.703125 42.625 23.949219 42.613281 C 24.171875 42.605469 24.296875 42.65625 24.226562 42.726562 Z M 26.128906 42.726562 C 26.058594 42.796875 25.875 42.804688 25.722656 42.742188 C 25.554688 42.675781 25.605469 42.625 25.851562 42.613281 C 26.074219 42.605469 26.199219 42.65625 26.128906 42.726562 Z M 23.804688 48.425781 C 23.734375 48.496094 23.554688 48.503906 23.402344 48.441406 C 23.230469 48.375 23.28125 48.324219 23.527344 48.316406 C 23.75 48.304688 23.875 48.355469 23.804688 48.425781 Z M 26.550781 48.425781 C 26.480469 48.496094 26.296875 48.503906 26.144531 48.441406 C 25.976562 48.375 26.027344 48.324219 26.273438 48.316406 C 26.496094 48.304688 26.621094 48.355469 26.550781 48.425781 Z M 26.550781 48.425781 "/>
<path style=" stroke:none;fill-rule:evenodd;fill:rgb(43.137255%,43.529412%,43.921569%);fill-opacity:1;" d="M 21.644531 0.0820312 C 21.414062 0.136719 20.460938 0.328125 19.535156 0.507812 C 18.605469 0.683594 16.988281 1.164062 15.945312 1.574219 C 7.867188 4.75 1.894531 11.847656 0.300781 20.160156 C -0.113281 22.335938 -0.0976562 27.785156 0.332031 29.886719 C 1.882812 37.472656 6.765625 43.832031 13.726562 47.339844 C 23.347656 52.191406 34.988281 50.285156 42.667969 42.609375 C 50.285156 34.992188 52.175781 23.367188 47.355469 13.78125 C 44.03125 7.171875 37.515625 2.058594 30.410156 0.480469 C 28.875 0.136719 22.59375 -0.144531 21.644531 0.0820312 Z M 23.492188 1.574219 C 23.347656 1.632812 23.109375 1.632812 22.964844 1.574219 C 22.820312 1.515625 22.9375 1.464844 23.230469 1.464844 C 23.519531 1.464844 23.636719 1.515625 23.492188 1.574219 Z M 26.871094 1.574219 C 26.726562 1.632812 26.488281 1.632812 26.34375 1.574219 C 26.199219 1.515625 26.316406 1.464844 26.609375 1.464844 C 26.898438 1.464844 27.015625 1.515625 26.871094 1.574219 Z M 25.183594 3.683594 C 25.039062 3.742188 24.800781 3.742188 24.65625 3.683594 C 24.507812 3.625 24.628906 3.578125 24.917969 3.578125 C 25.207031 3.578125 25.328125 3.625 25.183594 3.683594 Z M 23.804688 7.261719 C 23.734375 7.332031 23.554688 7.339844 23.402344 7.277344 C 23.230469 7.210938 23.28125 7.160156 23.527344 7.148438 C 23.75 7.140625 23.875 7.191406 23.804688 7.261719 Z M 26.550781 7.261719 C 26.480469 7.332031 26.296875 7.339844 26.144531 7.277344 C 25.976562 7.210938 26.027344 7.160156 26.273438 7.148438 C 26.496094 7.140625 26.621094 7.191406 26.550781 7.261719 Z M 8.660156 8.050781 C 8.660156 8.089844 8.445312 8.304688 8.183594 8.523438 L 7.707031 8.925781 L 8.109375 8.453125 C 8.488281 8.007812 8.660156 7.882812 8.660156 8.050781 Z M 41.707031 8.398438 C 41.917969 8.632812 42.039062 8.820312 41.984375 8.820312 C 41.925781 8.820312 41.707031 8.632812 41.496094 8.398438 C 41.285156 8.167969 41.160156 7.976562 41.21875 7.976562 C 41.277344 7.976562 41.496094 8.167969 41.707031 8.398438 Z M 10.980469 8.894531 C 10.980469 8.933594 10.765625 9.148438 10.507812 9.371094 L 10.03125 9.773438 L 10.433594 9.296875 C 10.8125 8.851562 10.980469 8.726562 10.980469 8.894531 Z M 39.382812 9.242188 C 39.59375 9.476562 39.71875 9.667969 39.660156 9.667969 C 39.601562 9.667969 39.382812 9.476562 39.171875 9.242188 C 38.960938 9.011719 38.835938 8.820312 38.894531 8.820312 C 38.953125 8.820312 39.171875 9.011719 39.382812 9.242188 Z M 9.503906 10.378906 C 9.503906 10.421875 9.335938 10.589844 9.132812 10.75 C 8.796875 11.011719 8.792969 11.003906 9.054688 10.667969 C 9.328125 10.316406 9.503906 10.207031 9.503906 10.378906 Z M 40.78125 10.667969 C 41.046875 11.003906 41.039062 11.011719 40.703125 10.75 C 40.351562 10.472656 40.238281 10.300781 40.414062 10.300781 C 40.457031 10.300781 40.625 10.464844 40.78125 10.667969 Z M 19.785156 20.894531 C 19.714844 21.0625 19.664062 21.011719 19.65625 20.765625 C 19.648438 20.542969 19.695312 20.417969 19.765625 20.488281 C 19.835938 20.558594 19.84375 20.742188 19.785156 20.894531 Z M 30.128906 20.894531 C 30.0625 21.0625 30.011719 21.011719 30.003906 20.765625 C 29.992188 20.542969 30.042969 20.417969 30.113281 20.488281 C 30.183594 20.558594 30.191406 20.742188 30.128906 20.894531 Z M 11.984375 26.925781 C 11.945312 28.054688 11.914062 27.128906 11.914062 24.867188 C 11.914062 22.601562 11.945312 21.675781 11.984375 22.808594 C 12.019531 23.9375 12.019531 25.792969 11.984375 26.925781 Z M 37.949219 22.175781 C 37.898438 22.433594 37.855469 22.222656 37.855469 21.699219 C 37.855469 21.175781 37.898438 20.964844 37.949219 21.222656 C 38 21.484375 38 21.914062 37.949219 22.175781 Z M 3.734375 23.214844 C 3.667969 23.386719 3.617188 23.335938 3.605469 23.089844 C 3.597656 22.867188 3.648438 22.742188 3.71875 22.8125 C 3.789062 22.882812 3.796875 23.0625 3.734375 23.214844 Z M 36.648438 24.007812 L 35.40625 25.265625 L 36.65625 25.328125 L 37.90625 25.394531 L 37.929688 28.769531 L 37.855469 27.136719 L 37.78125 25.5 L 36.523438 25.5 C 35.832031 25.5 35.265625 25.429688 35.265625 25.347656 C 35.265625 25.175781 37.621094 22.753906 37.785156 22.753906 C 37.84375 22.753906 37.332031 23.320312 36.648438 24.007812 Z M 46.179688 23.214844 C 46.113281 23.386719 46.0625 23.335938 46.050781 23.089844 C 46.042969 22.867188 46.09375 22.742188 46.164062 22.8125 C 46.234375 22.882812 46.242188 23.0625 46.179688 23.214844 Z M 19.160156 25.441406 C 18.722656 25.488281 18.054688 25.488281 17.679688 25.441406 C 17.304688 25.394531 17.664062 25.355469 18.476562 25.355469 C 19.289062 25.359375 19.597656 25.394531 19.160156 25.441406 Z M 3.734375 27.015625 C 3.667969 27.183594 3.617188 27.132812 3.605469 26.886719 C 3.597656 26.667969 3.648438 26.542969 3.71875 26.613281 C 3.789062 26.683594 3.796875 26.863281 3.734375 27.015625 Z M 46.179688 27.015625 C 46.113281 27.183594 46.0625 27.132812 46.050781 26.886719 C 46.042969 26.667969 46.09375 26.542969 46.164062 26.613281 C 46.234375 26.683594 46.242188 26.863281 46.179688 27.015625 Z M 1.621094 27.859375 C 1.554688 28.027344 1.503906 27.980469 1.496094 27.734375 C 1.488281 27.511719 1.535156 27.386719 1.605469 27.457031 C 1.675781 27.527344 1.683594 27.707031 1.621094 27.859375 Z M 48.292969 27.859375 C 48.222656 28.027344 48.171875 27.980469 48.164062 27.734375 C 48.15625 27.511719 48.203125 27.386719 48.273438 27.457031 C 48.34375 27.527344 48.351562 27.707031 48.292969 27.859375 Z M 19.785156 28.917969 C 19.714844 29.085938 19.664062 29.035156 19.65625 28.789062 C 19.648438 28.566406 19.695312 28.441406 19.765625 28.511719 C 19.835938 28.582031 19.84375 28.765625 19.785156 28.917969 Z M 30.128906 28.917969 C 30.0625 29.085938 30.011719 29.035156 30.003906 28.789062 C 29.992188 28.566406 30.042969 28.441406 30.113281 28.511719 C 30.183594 28.582031 30.191406 28.765625 30.128906 28.917969 Z M 19.003906 30.847656 C 19.003906 30.890625 18.792969 31.101562 18.53125 31.324219 L 18.054688 31.726562 L 18.457031 31.25 C 18.835938 30.804688 19.003906 30.679688 19.003906 30.847656 Z M 31.359375 31.199219 C 31.570312 31.429688 31.695312 31.621094 31.636719 31.621094 C 31.578125 31.621094 31.359375 31.429688 31.148438 31.199219 C 30.9375 30.964844 30.8125 30.777344 30.871094 30.777344 C 30.929688 30.777344 31.148438 30.964844 31.359375 31.199219 Z M 10.769531 40.847656 C 10.769531 41.007812 10.582031 40.839844 9.707031 39.90625 L 8.765625 38.902344 L 9.765625 39.84375 C 10.320312 40.363281 10.769531 40.8125 10.769531 40.847656 Z M 40.121094 39.960938 C 39.609375 40.480469 39.140625 40.910156 39.085938 40.910156 C 39.027344 40.910156 39.398438 40.480469 39.910156 39.960938 C 40.425781 39.4375 40.890625 39.007812 40.949219 39.007812 C 41.007812 39.007812 40.636719 39.4375 40.121094 39.960938 Z M 24.125 42.738281 C 23.980469 42.796875 23.742188 42.796875 23.597656 42.738281 C 23.453125 42.679688 23.570312 42.632812 23.863281 42.632812 C 24.152344 42.632812 24.273438 42.679688 24.125 42.738281 Z M 26.238281 42.738281 C 26.09375 42.796875 25.855469 42.796875 25.710938 42.738281 C 25.566406 42.679688 25.683594 42.632812 25.972656 42.632812 C 26.265625 42.632812 26.382812 42.679688 26.238281 42.738281 Z M 23.703125 48.4375 C 23.558594 48.496094 23.320312 48.496094 23.175781 48.4375 C 23.03125 48.378906 23.148438 48.332031 23.441406 48.332031 C 23.730469 48.332031 23.847656 48.378906 23.703125 48.4375 Z M 26.660156 48.4375 C 26.515625 48.496094 26.277344 48.496094 26.132812 48.4375 C 25.988281 48.378906 26.105469 48.332031 26.398438 48.332031 C 26.6875 48.332031 26.804688 48.378906 26.660156 48.4375 Z M 26.660156 48.4375 "/>
<path style=" stroke:none;fill-rule:evenodd;fill:rgb(30.588235%,30.980392%,31.372549%);fill-opacity:1;" d="M 21.644531 0.0820312 C 21.414062 0.136719 20.460938 0.328125 19.535156 0.507812 C 18.605469 0.683594 16.988281 1.164062 15.945312 1.574219 C 7.867188 4.75 1.894531 11.847656 0.300781 20.160156 C -0.113281 22.335938 -0.0976562 27.785156 0.332031 29.886719 C 1.882812 37.472656 6.765625 43.832031 13.726562 47.339844 C 23.347656 52.191406 34.988281 50.285156 42.667969 42.609375 C 50.285156 34.992188 52.175781 23.367188 47.355469 13.78125 C 44.03125 7.171875 37.515625 2.058594 30.410156 0.480469 C 28.875 0.136719 22.59375 -0.144531 21.644531 0.0820312 Z M 23.386719 1.578125 C 23.183594 1.632812 22.851562 1.632812 22.648438 1.578125 C 22.445312 1.527344 22.613281 1.480469 23.019531 1.480469 C 23.425781 1.480469 23.589844 1.527344 23.386719 1.578125 Z M 27.1875 1.578125 C 26.984375 1.632812 26.652344 1.632812 26.449219 1.578125 C 26.246094 1.527344 26.414062 1.480469 26.820312 1.480469 C 27.226562 1.480469 27.390625 1.527344 27.1875 1.578125 Z M 21.484375 1.773438 C 21.414062 1.84375 21.230469 1.851562 21.078125 1.789062 C 20.910156 1.722656 20.960938 1.671875 21.207031 1.660156 C 21.429688 1.652344 21.550781 1.703125 21.484375 1.773438 Z M 28.875 1.773438 C 28.804688 1.84375 28.621094 1.851562 28.46875 1.789062 C 28.300781 1.722656 28.351562 1.671875 28.597656 1.660156 C 28.820312 1.652344 28.945312 1.703125 28.875 1.773438 Z M 25.183594 3.683594 C 25.039062 3.742188 24.800781 3.742188 24.65625 3.683594 C 24.507812 3.625 24.628906 3.578125 24.917969 3.578125 C 25.207031 3.578125 25.328125 3.625 25.183594 3.683594 Z M 22.328125 3.882812 C 22.257812 3.953125 22.074219 3.960938 21.921875 3.898438 C 21.753906 3.832031 21.804688 3.78125 22.050781 3.773438 C 22.273438 3.761719 22.398438 3.8125 22.328125 3.882812 Z M 28.027344 3.882812 C 27.957031 3.953125 27.777344 3.960938 27.625 3.898438 C 27.457031 3.832031 27.503906 3.78125 27.75 3.773438 C 27.972656 3.761719 28.097656 3.8125 28.027344 3.882812 Z M 21.058594 4.09375 C 20.988281 4.164062 20.808594 4.171875 20.65625 4.109375 C 20.488281 4.042969 20.535156 3.992188 20.78125 3.984375 C 21.003906 3.972656 21.128906 4.023438 21.058594 4.09375 Z M 29.296875 4.09375 C 29.226562 4.164062 29.042969 4.171875 28.890625 4.109375 C 28.722656 4.042969 28.773438 3.992188 29.019531 3.984375 C 29.242188 3.972656 29.367188 4.023438 29.296875 4.09375 Z M 23.703125 7.273438 C 23.558594 7.332031 23.320312 7.332031 23.175781 7.273438 C 23.03125 7.214844 23.148438 7.167969 23.441406 7.167969 C 23.730469 7.167969 23.847656 7.214844 23.703125 7.273438 Z M 26.660156 7.273438 C 26.515625 7.332031 26.277344 7.332031 26.132812 7.273438 C 25.988281 7.214844 26.105469 7.167969 26.398438 7.167969 C 26.6875 7.167969 26.804688 7.214844 26.660156 7.273438 Z M 9.082031 7.617188 C 9.082031 7.652344 8.675781 8.054688 8.183594 8.515625 L 7.285156 9.351562 L 8.121094 8.453125 C 8.898438 7.617188 9.082031 7.457031 9.082031 7.617188 Z M 41.707031 8.398438 C 42.160156 8.863281 42.484375 9.242188 42.425781 9.242188 C 42.367188 9.242188 41.949219 8.863281 41.496094 8.398438 C 41.042969 7.933594 40.71875 7.554688 40.777344 7.554688 C 40.835938 7.554688 41.253906 7.933594 41.707031 8.398438 Z M 10.980469 8.882812 C 10.980469 8.917969 10.484375 9.414062 9.871094 9.992188 L 8.765625 11.039062 L 9.8125 9.929688 C 10.785156 8.902344 10.980469 8.726562 10.980469 8.882812 Z M 40.015625 9.878906 C 40.589844 10.457031 41.007812 10.933594 40.953125 10.933594 C 40.894531 10.933594 40.378906 10.457031 39.804688 9.878906 C 39.234375 9.296875 38.8125 8.820312 38.871094 8.820312 C 38.929688 8.820312 39.445312 9.296875 40.015625 9.878906 Z M 11.402344 13.546875 C 11.402344 13.589844 11.238281 13.757812 11.035156 13.914062 C 10.699219 14.179688 10.691406 14.171875 10.953125 13.835938 C 11.230469 13.484375 11.402344 13.371094 11.402344 13.546875 Z M 38.882812 13.835938 C 39.144531 14.171875 39.136719 14.179688 38.800781 13.914062 C 38.597656 13.757812 38.433594 13.589844 38.433594 13.546875 C 38.433594 13.371094 38.605469 13.484375 38.882812 13.835938 Z M 15.570312 17.394531 C 15.5 17.464844 15.316406 17.472656 15.164062 17.410156 C 14.996094 17.34375 15.046875 17.292969 15.292969 17.28125 C 15.515625 17.273438 15.640625 17.324219 15.570312 17.394531 Z M 16.625 17.394531 C 16.554688 17.464844 16.375 17.472656 16.222656 17.410156 C 16.050781 17.34375 16.101562 17.292969 16.347656 17.28125 C 16.570312 17.273438 16.695312 17.324219 16.625 17.394531 Z M 33.730469 17.394531 C 33.660156 17.464844 33.476562 17.472656 33.324219 17.410156 C 33.15625 17.34375 33.207031 17.292969 33.453125 17.28125 C 33.675781 17.273438 33.800781 17.324219 33.730469 17.394531 Z M 34.785156 17.394531 C 34.714844 17.464844 34.535156 17.472656 34.382812 17.410156 C 34.214844 17.34375 34.261719 17.292969 34.507812 17.28125 C 34.730469 17.273438 34.855469 17.324219 34.785156 17.394531 Z M 18.550781 23.949219 L 17.222656 25.289062 L 19.851562 25.289062 L 19.808594 27.242188 L 19.761719 29.191406 L 19.691406 27.347656 L 19.621094 25.5 L 18.363281 25.5 C 17.671875 25.5 17.105469 25.425781 17.105469 25.335938 C 17.105469 25.242188 17.675781 24.605469 18.371094 23.914062 C 19.597656 22.703125 19.640625 22.625 19.679688 21.496094 L 19.71875 20.328125 L 19.796875 21.46875 L 19.875 22.613281 Z M 30.144531 26.914062 C 30.105469 28.167969 30.074219 27.199219 30.074219 24.761719 C 30.074219 22.320312 30.105469 21.296875 30.144531 22.480469 C 30.179688 23.664062 30.179688 25.65625 30.144531 26.914062 Z M 11.984375 26.925781 C 11.945312 28.054688 11.914062 27.128906 11.914062 24.867188 C 11.914062 22.601562 11.945312 21.675781 11.984375 22.808594 C 12.019531 23.9375 12.019531 25.792969 11.984375 26.925781 Z M 37.949219 22.175781 C 37.898438 22.433594 37.855469 22.222656 37.855469 21.699219 C 37.855469 21.175781 37.898438 20.964844 37.949219 21.222656 C 38 21.484375 38 21.914062 37.949219 22.175781 Z M 1.621094 22.160156 C 1.554688 22.328125 1.503906 22.277344 1.496094 22.035156 C 1.488281 21.8125 1.535156 21.6875 1.605469 21.757812 C 1.675781 21.828125 1.683594 22.007812 1.621094 22.160156 Z M 48.292969 22.160156 C 48.222656 22.328125 48.171875 22.277344 48.164062 22.035156 C 48.15625 21.8125 48.203125 21.6875 48.273438 21.757812 C 48.34375 21.828125 48.351562 22.007812 48.292969 22.160156 Z M 7.324219 22.582031 C 7.257812 22.75 7.207031 22.703125 7.195312 22.457031 C 7.1875 22.234375 7.238281 22.109375 7.308594 22.179688 C 7.378906 22.25 7.386719 22.429688 7.324219 22.582031 Z M 3.734375 23.757812 C 3.683594 23.960938 3.640625 23.792969 3.640625 23.386719 C 3.640625 22.980469 3.683594 22.816406 3.734375 23.019531 C 3.789062 23.222656 3.789062 23.554688 3.734375 23.757812 Z M 36.648438 24.007812 L 35.40625 25.265625 L 36.65625 25.328125 L 37.90625 25.394531 L 37.929688 28.769531 L 37.855469 27.136719 L 37.78125 25.5 L 36.523438 25.5 C 35.832031 25.5 35.265625 25.429688 35.265625 25.347656 C 35.265625 25.175781 37.621094 22.753906 37.785156 22.753906 C 37.84375 22.753906 37.332031 23.320312 36.648438 24.007812 Z M 46.179688 23.757812 C 46.128906 23.960938 46.085938 23.792969 46.085938 23.386719 C 46.085938 22.980469 46.128906 22.816406 46.179688 23.019531 C 46.234375 23.222656 46.234375 23.554688 46.179688 23.757812 Z M 1.414062 25.230469 C 1.359375 25.4375 1.3125 25.320312 1.308594 24.972656 C 1.304688 24.621094 1.347656 24.453125 1.40625 24.597656 C 1.464844 24.742188 1.46875 25.027344 1.414062 25.230469 Z M 48.503906 25.230469 C 48.449219 25.4375 48.402344 25.320312 48.398438 24.972656 C 48.394531 24.621094 48.4375 24.453125 48.496094 24.597656 C 48.554688 24.742188 48.558594 25.027344 48.503906 25.230469 Z M 3.734375 26.925781 C 3.683594 27.128906 3.640625 26.960938 3.640625 26.554688 C 3.640625 26.148438 3.683594 25.980469 3.734375 26.183594 C 3.789062 26.386719 3.789062 26.71875 3.734375 26.925781 Z M 46.179688 26.925781 C 46.128906 27.128906 46.085938 26.960938 46.085938 26.554688 C 46.085938 26.148438 46.128906 25.980469 46.179688 26.183594 C 46.234375 26.386719 46.234375 26.71875 46.179688 26.925781 Z M 1.617188 28.085938 C 1.558594 28.230469 1.511719 28.109375 1.511719 27.820312 C 1.511719 27.53125 1.558594 27.414062 1.617188 27.558594 C 1.675781 27.703125 1.675781 27.941406 1.617188 28.085938 Z M 48.285156 28.085938 C 48.226562 28.230469 48.179688 28.109375 48.179688 27.820312 C 48.179688 27.53125 48.226562 27.414062 48.285156 27.558594 C 48.34375 27.703125 48.34375 27.941406 48.285156 28.085938 Z M 3.945312 28.492188 C 3.878906 28.664062 3.828125 28.613281 3.816406 28.367188 C 3.808594 28.144531 3.859375 28.019531 3.929688 28.089844 C 4 28.160156 4.007812 28.339844 3.945312 28.492188 Z M 45.96875 28.492188 C 45.902344 28.664062 45.851562 28.613281 45.839844 28.367188 C 45.832031 28.144531 45.882812 28.019531 45.953125 28.089844 C 46.023438 28.160156 46.03125 28.339844 45.96875 28.492188 Z M 19.003906 30.847656 C 19.003906 30.890625 18.792969 31.101562 18.53125 31.324219 L 18.054688 31.726562 L 18.457031 31.25 C 18.835938 30.804688 19.003906 30.679688 19.003906 30.847656 Z M 31.359375 31.199219 C 31.570312 31.429688 31.695312 31.621094 31.636719 31.621094 C 31.578125 31.621094 31.359375 31.429688 31.148438 31.199219 C 30.9375 30.964844 30.8125 30.777344 30.871094 30.777344 C 30.929688 30.777344 31.148438 30.964844 31.359375 31.199219 Z M 13.753906 38.746094 C 14.015625 39.082031 14.007812 39.085938 13.671875 38.824219 C 13.46875 38.664062 13.304688 38.5 13.304688 38.457031 C 13.304688 38.28125 13.476562 38.394531 13.753906 38.746094 Z M 36.53125 38.457031 C 36.53125 38.5 36.367188 38.664062 36.164062 38.824219 C 35.828125 39.085938 35.820312 39.082031 36.082031 38.746094 C 36.359375 38.394531 36.53125 38.28125 36.53125 38.457031 Z M 10.769531 40.847656 C 10.769531 41.007812 10.582031 40.839844 9.707031 39.90625 L 8.765625 38.902344 L 9.765625 39.84375 C 10.320312 40.363281 10.769531 40.8125 10.769531 40.847656 Z M 40.121094 39.960938 C 39.609375 40.480469 39.140625 40.910156 39.085938 40.910156 C 39.027344 40.910156 39.398438 40.480469 39.910156 39.960938 C 40.425781 39.4375 40.890625 39.007812 40.949219 39.007812 C 41.007812 39.007812 40.636719 39.4375 40.121094 39.960938 Z M 6.785156 39.800781 C 7.046875 40.136719 7.039062 40.144531 6.707031 39.882812 C 6.351562 39.605469 6.242188 39.429688 6.414062 39.429688 C 6.460938 39.429688 6.625 39.597656 6.785156 39.800781 Z M 43.5 39.511719 C 43.5 39.554688 43.335938 39.722656 43.132812 39.882812 C 42.796875 40.144531 42.789062 40.136719 43.050781 39.800781 C 43.328125 39.449219 43.5 39.335938 43.5 39.511719 Z M 8.355469 41.59375 L 8.976562 42.28125 L 8.289062 41.660156 C 7.648438 41.082031 7.503906 40.910156 7.667969 40.910156 C 7.703125 40.910156 8.015625 41.21875 8.355469 41.59375 Z M 42.234375 40.976562 C 42.234375 41.011719 41.925781 41.320312 41.546875 41.660156 L 40.863281 42.28125 L 41.480469 41.59375 C 42.058594 40.957031 42.234375 40.8125 42.234375 40.976562 Z M 24.019531 42.742188 C 23.816406 42.796875 23.484375 42.796875 23.28125 42.742188 C 23.078125 42.691406 23.246094 42.648438 23.652344 42.648438 C 24.058594 42.648438 24.222656 42.691406 24.019531 42.742188 Z M 26.554688 42.742188 C 26.351562 42.796875 26.019531 42.796875 25.816406 42.742188 C 25.613281 42.691406 25.777344 42.648438 26.183594 42.648438 C 26.59375 42.648438 26.757812 42.691406 26.554688 42.742188 Z M 10.164062 43.179688 C 10.425781 43.511719 10.417969 43.519531 10.082031 43.257812 C 9.730469 42.984375 9.621094 42.808594 9.792969 42.808594 C 9.835938 42.808594 10.003906 42.976562 10.164062 43.179688 Z M 40.121094 42.890625 C 40.121094 42.933594 39.957031 43.097656 39.753906 43.257812 C 39.417969 43.519531 39.410156 43.511719 39.671875 43.179688 C 39.949219 42.828125 40.121094 42.714844 40.121094 42.890625 Z M 22.539062 46.101562 C 22.46875 46.171875 22.285156 46.179688 22.132812 46.121094 C 21.964844 46.050781 22.015625 46.003906 22.261719 45.992188 C 22.484375 45.984375 22.609375 46.03125 22.539062 46.101562 Z M 27.816406 46.101562 C 27.746094 46.171875 27.566406 46.179688 27.414062 46.121094 C 27.246094 46.050781 27.292969 46.003906 27.539062 45.992188 C 27.761719 45.984375 27.886719 46.03125 27.816406 46.101562 Z M 23.597656 48.441406 C 23.394531 48.496094 23.0625 48.496094 22.859375 48.441406 C 22.65625 48.390625 22.824219 48.347656 23.230469 48.347656 C 23.636719 48.347656 23.800781 48.390625 23.597656 48.441406 Z M 26.976562 48.441406 C 26.773438 48.496094 26.441406 48.496094 26.238281 48.441406 C 26.035156 48.390625 26.203125 48.347656 26.609375 48.347656 C 27.015625 48.347656 27.179688 48.390625 26.976562 48.441406 Z M 26.976562 48.441406 "/>
<path style=" stroke:none;fill-rule:evenodd;fill:rgb(13.72549%,14.509804%,14.901961%);fill-opacity:1;" d="M 21.644531 0.0820312 C 21.414062 0.136719 20.460938 0.328125 19.535156 0.507812 C 18.605469 0.683594 16.988281 1.164062 15.945312 1.574219 C 7.867188 4.75 1.894531 11.847656 0.300781 20.160156 C -0.113281 22.335938 -0.0976562 27.785156 0.332031 29.886719 C 1.882812 37.472656 6.765625 43.832031 13.726562 47.339844 C 23.347656 52.191406 34.988281 50.285156 42.667969 42.609375 C 50.285156 34.992188 52.175781 23.367188 47.355469 13.78125 C 44.03125 7.171875 37.515625 2.058594 30.410156 0.480469 C 28.875 0.136719 22.59375 -0.144531 21.644531 0.0820312 Z M 23.390625 1.578125 C 23.1875 1.632812 22.808594 1.632812 22.546875 1.582031 C 22.28125 1.53125 22.449219 1.488281 22.914062 1.488281 C 23.375 1.484375 23.59375 1.527344 23.390625 1.578125 Z M 27.402344 1.578125 C 27.199219 1.632812 26.820312 1.632812 26.558594 1.582031 C 26.292969 1.53125 26.460938 1.488281 26.925781 1.488281 C 27.390625 1.484375 27.605469 1.527344 27.402344 1.578125 Z M 21.382812 1.785156 C 21.234375 1.84375 21 1.84375 20.851562 1.785156 C 20.707031 1.726562 20.828125 1.679688 21.117188 1.679688 C 21.40625 1.679688 21.527344 1.726562 21.382812 1.785156 Z M 28.984375 1.785156 C 28.839844 1.84375 28.601562 1.84375 28.457031 1.785156 C 28.308594 1.726562 28.429688 1.679688 28.71875 1.679688 C 29.011719 1.679688 29.128906 1.726562 28.984375 1.785156 Z M 20.214844 1.984375 C 20.144531 2.054688 19.964844 2.0625 19.8125 2 C 19.640625 1.933594 19.691406 1.882812 19.9375 1.871094 C 20.160156 1.863281 20.285156 1.914062 20.214844 1.984375 Z M 30.140625 1.984375 C 30.070312 2.054688 29.886719 2.0625 29.734375 2 C 29.566406 1.933594 29.617188 1.882812 29.863281 1.871094 C 30.085938 1.863281 30.210938 1.914062 30.140625 1.984375 Z M 19.371094 2.195312 C 19.300781 2.265625 19.117188 2.273438 18.964844 2.210938 C 18.796875 2.144531 18.847656 2.09375 19.09375 2.082031 C 19.316406 2.074219 19.441406 2.125 19.371094 2.195312 Z M 30.984375 2.195312 C 30.914062 2.265625 30.734375 2.273438 30.582031 2.210938 C 30.410156 2.144531 30.460938 2.09375 30.707031 2.082031 C 30.929688 2.074219 31.054688 2.125 30.984375 2.195312 Z M 15.414062 3.542969 C 15.242188 3.65625 15.003906 3.75 14.886719 3.75 C 14.773438 3.75 14.820312 3.65625 14.992188 3.542969 C 15.167969 3.433594 15.40625 3.339844 15.523438 3.339844 C 15.636719 3.339844 15.589844 3.433594 15.414062 3.542969 Z M 34.84375 3.542969 C 35.019531 3.65625 35.066406 3.75 34.949219 3.75 C 34.832031 3.75 34.59375 3.65625 34.421875 3.542969 C 34.246094 3.433594 34.199219 3.339844 34.316406 3.339844 C 34.429688 3.339844 34.667969 3.433594 34.84375 3.542969 Z M 25.183594 3.683594 C 25.039062 3.742188 24.800781 3.742188 24.65625 3.683594 C 24.507812 3.625 24.628906 3.578125 24.917969 3.578125 C 25.207031 3.578125 25.328125 3.625 25.183594 3.683594 Z M 22.652344 3.894531 C 22.507812 3.953125 22.222656 3.957031 22.019531 3.902344 C 21.8125 3.847656 21.929688 3.800781 22.277344 3.796875 C 22.628906 3.792969 22.796875 3.835938 22.652344 3.894531 Z M 27.929688 3.894531 C 27.789062 3.953125 27.503906 3.957031 27.296875 3.902344 C 27.09375 3.847656 27.210938 3.800781 27.558594 3.796875 C 27.90625 3.792969 28.074219 3.835938 27.929688 3.894531 Z M 14.148438 4.066406 C 14.148438 4.117188 13.933594 4.265625 13.671875 4.394531 C 13.21875 4.613281 13.214844 4.609375 13.609375 4.292969 C 14.039062 3.949219 14.148438 3.902344 14.148438 4.066406 Z M 21.171875 4.105469 C 21.023438 4.164062 20.789062 4.164062 20.640625 4.105469 C 20.496094 4.046875 20.617188 4 20.90625 4 C 21.195312 4 21.316406 4.046875 21.171875 4.105469 Z M 29.195312 4.105469 C 29.050781 4.164062 28.8125 4.164062 28.667969 4.105469 C 28.523438 4.046875 28.640625 4 28.929688 4 C 29.222656 4 29.339844 4.046875 29.195312 4.105469 Z M 36.53125 4.507812 C 36.53125 4.566406 36.34375 4.511719 36.109375 4.390625 C 35.878906 4.265625 35.6875 4.117188 35.6875 4.058594 C 35.6875 4 35.878906 4.054688 36.109375 4.175781 C 36.34375 4.300781 36.53125 4.449219 36.53125 4.507812 Z M 20.214844 4.304688 C 20.144531 4.375 19.964844 4.382812 19.8125 4.320312 C 19.640625 4.253906 19.691406 4.203125 19.9375 4.195312 C 20.160156 4.183594 20.285156 4.234375 20.214844 4.304688 Z M 30.140625 4.304688 C 30.070312 4.375 29.886719 4.382812 29.734375 4.320312 C 29.566406 4.253906 29.617188 4.203125 29.863281 4.195312 C 30.085938 4.183594 30.210938 4.234375 30.140625 4.304688 Z M 16.683594 5.445312 C 16.507812 5.558594 16.269531 5.648438 16.15625 5.648438 C 16.039062 5.648438 16.085938 5.558594 16.261719 5.445312 C 16.433594 5.332031 16.671875 5.238281 16.789062 5.238281 C 16.90625 5.238281 16.855469 5.332031 16.683594 5.445312 Z M 33.578125 5.445312 C 33.75 5.558594 33.796875 5.648438 33.683594 5.648438 C 33.566406 5.648438 33.328125 5.558594 33.152344 5.445312 C 32.980469 5.332031 32.933594 5.238281 33.046875 5.238281 C 33.164062 5.238281 33.402344 5.332031 33.578125 5.445312 Z M 10.558594 6.367188 C 10.558594 6.414062 10.394531 6.578125 10.191406 6.738281 C 9.855469 7 9.847656 6.992188 10.109375 6.65625 C 10.386719 6.304688 10.558594 6.195312 10.558594 6.367188 Z M 39.726562 6.65625 C 39.988281 6.992188 39.980469 7 39.648438 6.738281 C 39.296875 6.460938 39.183594 6.289062 39.359375 6.289062 C 39.402344 6.289062 39.566406 6.453125 39.726562 6.65625 Z M 9.503906 7.191406 C 9.503906 7.226562 8.957031 7.773438 8.289062 8.40625 L 7.074219 9.5625 L 8.230469 8.347656 C 9.300781 7.21875 9.503906 7.035156 9.503906 7.191406 Z M 23.597656 7.277344 C 23.394531 7.332031 23.0625 7.332031 22.859375 7.277344 C 22.65625 7.226562 22.824219 7.183594 23.230469 7.183594 C 23.636719 7.183594 23.800781 7.226562 23.597656 7.277344 Z M 26.976562 7.277344 C 26.773438 7.332031 26.441406 7.332031 26.238281 7.277344 C 26.035156 7.226562 26.203125 7.183594 26.609375 7.183594 C 27.015625 7.183594 27.179688 7.226562 26.976562 7.277344 Z M 41.601562 8.292969 C 42.230469 8.933594 42.699219 9.457031 42.640625 9.457031 C 42.585938 9.457031 42.019531 8.933594 41.390625 8.292969 C 40.757812 7.65625 40.289062 7.132812 40.347656 7.132812 C 40.40625 7.132812 40.96875 7.65625 41.601562 8.292969 Z M 21.90625 7.472656 C 21.835938 7.542969 21.652344 7.550781 21.5 7.488281 C 21.332031 7.421875 21.382812 7.371094 21.628906 7.359375 C 21.851562 7.351562 21.976562 7.402344 21.90625 7.472656 Z M 28.449219 7.472656 C 28.382812 7.542969 28.199219 7.550781 28.046875 7.488281 C 27.878906 7.421875 27.929688 7.371094 28.175781 7.359375 C 28.398438 7.351562 28.519531 7.402344 28.449219 7.472656 Z M 12.039062 8.058594 C 12.039062 8.101562 11.871094 8.265625 11.667969 8.425781 C 11.332031 8.6875 11.324219 8.683594 11.585938 8.347656 C 11.863281 7.996094 12.039062 7.882812 12.039062 8.058594 Z M 38.25 8.347656 C 38.511719 8.683594 38.503906 8.6875 38.167969 8.425781 C 37.816406 8.152344 37.707031 7.976562 37.878906 7.976562 C 37.921875 7.976562 38.089844 8.144531 38.25 8.347656 Z M 10.980469 8.882812 C 10.980469 8.917969 10.484375 9.414062 9.871094 9.992188 L 8.765625 11.039062 L 9.8125 9.929688 C 10.785156 8.902344 10.980469 8.726562 10.980469 8.882812 Z M 40.015625 9.878906 C 40.589844 10.457031 41.007812 10.933594 40.953125 10.933594 C 40.894531 10.933594 40.378906 10.457031 39.804688 9.878906 C 39.234375 9.296875 38.8125 8.820312 38.871094 8.820312 C 38.929688 8.820312 39.445312 9.296875 40.015625 9.878906 Z M 6.757812 10.167969 C 6.757812 10.210938 6.589844 10.378906 6.386719 10.539062 C 6.054688 10.800781 6.046875 10.792969 6.308594 10.457031 C 6.585938 10.105469 6.757812 9.996094 6.757812 10.167969 Z M 14.992188 10.167969 C 14.992188 10.210938 14.828125 10.378906 14.625 10.539062 C 14.289062 10.800781 14.28125 10.792969 14.542969 10.457031 C 14.820312 10.105469 14.992188 9.996094 14.992188 10.167969 Z M 35.292969 10.457031 C 35.554688 10.792969 35.546875 10.800781 35.214844 10.539062 C 34.859375 10.261719 34.75 10.089844 34.921875 10.089844 C 34.96875 10.089844 35.132812 10.253906 35.292969 10.457031 Z M 43.527344 10.457031 C 43.789062 10.792969 43.785156 10.800781 43.449219 10.539062 C 43.246094 10.378906 43.078125 10.210938 43.078125 10.167969 C 43.078125 9.996094 43.253906 10.105469 43.527344 10.457031 Z M 14.148438 10.800781 C 14.148438 10.84375 13.984375 11.011719 13.78125 11.171875 C 13.445312 11.433594 13.4375 11.425781 13.699219 11.089844 C 13.976562 10.738281 14.148438 10.628906 14.148438 10.800781 Z M 36.136719 11.089844 C 36.398438 11.425781 36.390625 11.433594 36.058594 11.171875 C 35.707031 10.894531 35.59375 10.722656 35.769531 10.722656 C 35.8125 10.722656 35.976562 10.886719 36.136719 11.089844 Z M 8.660156 11.429688 C 8.660156 11.46875 8.445312 11.683594 8.183594 11.902344 L 7.707031 12.304688 L 8.109375 11.832031 C 8.488281 11.382812 8.660156 11.257812 8.660156 11.429688 Z M 41.707031 11.777344 C 41.917969 12.007812 42.039062 12.199219 41.984375 12.199219 C 41.925781 12.199219 41.707031 12.007812 41.496094 11.777344 C 41.285156 11.546875 41.160156 11.355469 41.21875 11.355469 C 41.277344 11.355469 41.496094 11.546875 41.707031 11.777344 Z M 13.09375 11.628906 C 13.09375 11.664062 12.738281 12.023438 12.300781 12.421875 L 11.507812 13.148438 L 12.238281 12.359375 C 12.914062 11.621094 13.09375 11.46875 13.09375 11.628906 Z M 37.589844 12.304688 C 37.984375 12.710938 38.257812 13.042969 38.199219 13.042969 C 38.140625 13.042969 37.769531 12.710938 37.378906 12.304688 C 36.984375 11.898438 36.707031 11.566406 36.765625 11.566406 C 36.824219 11.566406 37.195312 11.898438 37.589844 12.304688 Z M 11.402344 13.539062 C 11.402344 13.578125 11.191406 13.792969 10.929688 14.015625 L 10.453125 14.417969 L 10.855469 13.941406 C 11.234375 13.496094 11.402344 13.371094 11.402344 13.539062 Z M 38.882812 13.835938 C 39.144531 14.171875 39.136719 14.179688 38.800781 13.914062 C 38.597656 13.757812 38.433594 13.589844 38.433594 13.546875 C 38.433594 13.371094 38.605469 13.484375 38.882812 13.835938 Z M 8.683594 17.832031 C 8.433594 18.257812 8.375 18.121094 8.578125 17.589844 C 8.652344 17.402344 8.753906 17.292969 8.808594 17.347656 C 8.863281 17.402344 8.808594 17.617188 8.683594 17.832031 Z M 16.3125 17.414062 C 16.050781 17.464844 15.625 17.464844 15.363281 17.414062 C 15.101562 17.363281 15.316406 17.324219 15.839844 17.324219 C 16.359375 17.324219 16.574219 17.363281 16.3125 17.414062 Z M 34.472656 17.414062 C 34.210938 17.464844 33.785156 17.464844 33.523438 17.414062 C 33.261719 17.363281 33.476562 17.324219 34 17.324219 C 34.519531 17.324219 34.734375 17.363281 34.472656 17.414062 Z M 41.382812 18.003906 C 41.382812 18.121094 41.289062 18.074219 41.179688 17.898438 C 41.066406 17.726562 40.972656 17.488281 40.972656 17.371094 C 40.972656 17.253906 41.066406 17.304688 41.179688 17.476562 C 41.289062 17.652344 41.382812 17.890625 41.382812 18.003906 Z M 13.726562 17.964844 C 13.726562 18 13.417969 18.308594 13.039062 18.652344 L 12.355469 19.273438 L 12.972656 18.585938 C 13.550781 17.945312 13.726562 17.800781 13.726562 17.964844 Z M 18.703125 18.585938 L 19.324219 19.273438 L 18.636719 18.652344 C 17.996094 18.074219 17.851562 17.898438 18.015625 17.898438 C 18.050781 17.898438 18.359375 18.207031 18.703125 18.585938 Z M 31.886719 17.964844 C 31.886719 18 31.578125 18.308594 31.199219 18.652344 L 30.515625 19.273438 L 31.132812 18.585938 C 31.710938 17.945312 31.886719 17.800781 31.886719 17.964844 Z M 36.863281 18.585938 L 37.484375 19.273438 L 36.796875 18.652344 C 36.417969 18.308594 36.109375 18 36.109375 17.964844 C 36.109375 17.800781 36.285156 17.945312 36.863281 18.585938 Z M 1.835938 20.683594 C 1.765625 20.851562 1.714844 20.800781 1.707031 20.554688 C 1.699219 20.332031 1.746094 20.207031 1.816406 20.277344 C 1.886719 20.347656 1.894531 20.53125 1.835938 20.683594 Z M 4.15625 20.683594 C 4.089844 20.851562 4.039062 20.800781 4.03125 20.554688 C 4.019531 20.332031 4.070312 20.207031 4.140625 20.277344 C 4.210938 20.347656 4.21875 20.53125 4.15625 20.683594 Z M 45.757812 20.683594 C 45.691406 20.851562 45.640625 20.800781 45.628906 20.554688 C 45.621094 20.332031 45.671875 20.207031 45.742188 20.277344 C 45.8125 20.347656 45.816406 20.53125 45.757812 20.683594 Z M 48.078125 20.683594 C 48.011719 20.851562 47.960938 20.800781 47.953125 20.554688 C 47.945312 20.332031 47.992188 20.207031 48.0625 20.277344 C 48.132812 20.347656 48.140625 20.53125 48.078125 20.683594 Z M 18.550781 23.949219 L 17.222656 25.289062 L 19.851562 25.289062 L 19.808594 27.242188 L 19.761719 29.191406 L 19.691406 27.347656 L 19.621094 25.5 L 18.363281 25.5 C 17.671875 25.5 17.105469 25.425781 17.105469 25.335938 C 17.105469 25.242188 17.675781 24.605469 18.371094 23.914062 C 19.597656 22.703125 19.640625 22.625 19.679688 21.496094 L 19.71875 20.328125 L 19.796875 21.46875 L 19.875 22.613281 Z M 30.144531 26.914062 C 30.105469 28.167969 30.074219 27.199219 30.074219 24.761719 C 30.074219 22.320312 30.105469 21.296875 30.144531 22.480469 C 30.179688 23.664062 30.179688 25.65625 30.144531 26.914062 Z M 11.984375 26.925781 C 11.945312 28.054688 11.914062 27.128906 11.914062 24.867188 C 11.914062 22.601562 11.945312 21.675781 11.984375 22.808594 C 12.019531 23.9375 12.019531 25.792969 11.984375 26.925781 Z M 37.949219 22.175781 C 37.898438 22.433594 37.855469 22.222656 37.855469 21.699219 C 37.855469 21.175781 37.898438 20.964844 37.949219 21.222656 C 38 21.484375 38 21.914062 37.949219 22.175781 Z M 3.941406 21.964844 C 3.882812 22.109375 3.835938 21.988281 3.835938 21.699219 C 3.835938 21.410156 3.882812 21.289062 3.941406 21.433594 C 4 21.582031 4 21.816406 3.941406 21.964844 Z M 45.964844 21.964844 C 45.90625 22.109375 45.859375 21.988281 45.859375 21.699219 C 45.859375 21.410156 45.90625 21.289062 45.964844 21.433594 C 46.023438 21.582031 46.023438 21.816406 45.964844 21.964844 Z M 1.617188 22.175781 C 1.558594 22.320312 1.511719 22.199219 1.511719 21.910156 C 1.511719 21.621094 1.558594 21.5 1.617188 21.644531 C 1.675781 21.792969 1.675781 22.027344 1.617188 22.175781 Z M 48.285156 22.175781 C 48.226562 22.320312 48.179688 22.199219 48.179688 21.910156 C 48.179688 21.621094 48.226562 21.5 48.285156 21.644531 C 48.34375 21.792969 48.34375 22.027344 48.285156 22.175781 Z M 7.320312 22.597656 C 7.261719 22.742188 7.214844 22.621094 7.214844 22.332031 C 7.214844 22.042969 7.261719 21.921875 7.320312 22.070312 C 7.378906 22.214844 7.378906 22.453125 7.320312 22.597656 Z M 42.585938 22.597656 C 42.527344 22.742188 42.480469 22.621094 42.480469 22.332031 C 42.480469 22.042969 42.527344 21.921875 42.585938 22.070312 C 42.644531 22.214844 42.644531 22.453125 42.585938 22.597656 Z M 3.746094 26.070312 C 3.703125 26.742188 3.667969 26.25 3.667969 24.972656 C 3.667969 23.695312 3.703125 23.144531 3.746094 23.75 C 3.789062 24.355469 3.789062 25.398438 3.746094 26.070312 Z M 36.648438 24.007812 L 35.40625 25.265625 L 36.65625 25.328125 L 37.90625 25.394531 L 37.929688 28.769531 L 37.855469 27.136719 L 37.78125 25.5 L 36.523438 25.5 C 35.832031 25.5 35.265625 25.429688 35.265625 25.347656 C 35.265625 25.175781 37.621094 22.753906 37.785156 22.753906 C 37.84375 22.753906 37.332031 23.320312 36.648438 24.007812 Z M 46.191406 26.070312 C 46.148438 26.742188 46.113281 26.25 46.113281 24.972656 C 46.113281 23.695312 46.148438 23.144531 46.191406 23.75 C 46.234375 24.355469 46.234375 25.398438 46.191406 26.070312 Z M 1.421875 25.757812 C 1.378906 26.253906 1.339844 25.898438 1.339844 24.972656 C 1.339844 24.042969 1.375 23.636719 1.421875 24.070312 C 1.464844 24.5 1.46875 25.261719 1.421875 25.757812 Z M 48.511719 25.757812 C 48.46875 26.253906 48.429688 25.898438 48.429688 24.972656 C 48.429688 24.042969 48.464844 23.636719 48.511719 24.070312 C 48.558594 24.5 48.558594 25.261719 48.511719 25.757812 Z M 7.121094 25.546875 C 7.074219 25.925781 7.035156 25.667969 7.035156 24.972656 C 7.035156 24.273438 7.070312 23.964844 7.121094 24.28125 C 7.167969 24.597656 7.167969 25.167969 7.121094 25.546875 Z M 42.808594 25.546875 C 42.761719 25.925781 42.722656 25.667969 42.722656 24.972656 C 42.722656 24.273438 42.757812 23.964844 42.808594 24.28125 C 42.855469 24.597656 42.855469 25.167969 42.808594 25.546875 Z M 7.324219 27.648438 C 7.257812 27.816406 7.207031 27.769531 7.195312 27.523438 C 7.1875 27.300781 7.238281 27.175781 7.308594 27.246094 C 7.378906 27.316406 7.386719 27.496094 7.324219 27.648438 Z M 42.589844 27.648438 C 42.523438 27.816406 42.472656 27.769531 42.460938 27.523438 C 42.453125 27.300781 42.503906 27.175781 42.574219 27.246094 C 42.644531 27.316406 42.652344 27.496094 42.589844 27.648438 Z M 1.625 28.1875 C 1.570312 28.390625 1.523438 28.273438 1.519531 27.925781 C 1.515625 27.578125 1.558594 27.410156 1.617188 27.554688 C 1.675781 27.695312 1.679688 27.980469 1.625 28.1875 Z M 48.292969 28.1875 C 48.238281 28.390625 48.191406 28.273438 48.1875 27.925781 C 48.183594 27.578125 48.226562 27.410156 48.285156 27.554688 C 48.34375 27.695312 48.347656 27.980469 48.292969 28.1875 Z M 3.941406 28.507812 C 3.882812 28.652344 3.835938 28.535156 3.835938 28.242188 C 3.835938 27.953125 3.882812 27.835938 3.941406 27.980469 C 4 28.125 4 28.363281 3.941406 28.507812 Z M 45.964844 28.507812 C 45.90625 28.652344 45.859375 28.535156 45.859375 28.242188 C 45.859375 27.953125 45.90625 27.835938 45.964844 27.980469 C 46.023438 28.125 46.023438 28.363281 45.964844 28.507812 Z M 1.835938 29.550781 C 1.765625 29.71875 1.714844 29.667969 1.707031 29.421875 C 1.699219 29.199219 1.746094 29.074219 1.816406 29.144531 C 1.886719 29.214844 1.894531 29.398438 1.835938 29.550781 Z M 4.15625 29.550781 C 4.089844 29.71875 4.039062 29.667969 4.03125 29.421875 C 4.019531 29.199219 4.070312 29.074219 4.140625 29.144531 C 4.210938 29.214844 4.21875 29.398438 4.15625 29.550781 Z M 45.757812 29.550781 C 45.691406 29.71875 45.640625 29.667969 45.628906 29.421875 C 45.621094 29.199219 45.671875 29.074219 45.742188 29.144531 C 45.8125 29.214844 45.816406 29.398438 45.757812 29.550781 Z M 48.078125 29.550781 C 48.011719 29.71875 47.960938 29.667969 47.953125 29.421875 C 47.945312 29.199219 47.992188 29.074219 48.0625 29.144531 C 48.132812 29.214844 48.140625 29.398438 48.078125 29.550781 Z M 19.003906 30.847656 C 19.003906 30.890625 18.792969 31.101562 18.53125 31.324219 L 18.054688 31.726562 L 18.457031 31.25 C 18.835938 30.804688 19.003906 30.679688 19.003906 30.847656 Z M 31.359375 31.199219 C 31.570312 31.429688 31.695312 31.621094 31.636719 31.621094 C 31.578125 31.621094 31.359375 31.429688 31.148438 31.199219 C 30.9375 30.964844 30.8125 30.777344 30.871094 30.777344 C 30.929688 30.777344 31.148438 30.964844 31.359375 31.199219 Z M 9.164062 33.046875 C 9.355469 33.421875 9.464844 33.730469 9.410156 33.730469 C 9.285156 33.730469 8.660156 32.5625 8.660156 32.335938 C 8.660156 32.113281 8.773438 32.273438 9.164062 33.046875 Z M 40.871094 33.078125 C 40.40625 33.976562 40.257812 33.90625 40.691406 32.996094 C 40.886719 32.589844 41.082031 32.296875 41.125 32.34375 C 41.171875 32.390625 41.058594 32.71875 40.871094 33.078125 Z M 11.21875 36.210938 C 11.480469 36.546875 11.472656 36.554688 11.140625 36.292969 C 10.789062 36.015625 10.675781 35.84375 10.851562 35.84375 C 10.894531 35.84375 11.058594 36.007812 11.21875 36.210938 Z M 39.066406 35.921875 C 39.066406 35.964844 38.902344 36.132812 38.695312 36.292969 C 38.363281 36.554688 38.355469 36.546875 38.617188 36.210938 C 38.894531 35.859375 39.066406 35.75 39.066406 35.921875 Z M 12.460938 37.636719 C 12.730469 37.925781 12.90625 38.164062 12.851562 38.164062 C 12.792969 38.164062 12.519531 37.925781 12.25 37.636719 C 11.976562 37.347656 11.800781 37.109375 11.859375 37.109375 C 11.914062 37.109375 12.1875 37.347656 12.460938 37.636719 Z M 38.011719 37.179688 C 38.011719 37.214844 37.75 37.476562 37.429688 37.757812 L 36.847656 38.269531 L 37.359375 37.691406 C 37.839844 37.148438 38.011719 37.011719 38.011719 37.179688 Z M 8.472656 38.324219 C 8.738281 38.65625 8.730469 38.664062 8.394531 38.402344 C 8.042969 38.128906 7.929688 37.953125 8.105469 37.953125 C 8.148438 37.953125 8.316406 38.121094 8.472656 38.324219 Z M 41.8125 38.035156 C 41.8125 38.078125 41.644531 38.242188 41.441406 38.402344 C 41.105469 38.664062 41.101562 38.65625 41.363281 38.324219 C 41.636719 37.972656 41.8125 37.859375 41.8125 38.035156 Z M 13.832031 38.796875 C 14.042969 39.03125 14.167969 39.21875 14.109375 39.21875 C 14.050781 39.21875 13.832031 39.03125 13.621094 38.796875 C 13.410156 38.566406 13.285156 38.375 13.34375 38.375 C 13.402344 38.375 13.621094 38.566406 13.832031 38.796875 Z M 36.53125 38.449219 C 36.53125 38.488281 36.320312 38.703125 36.058594 38.925781 L 35.582031 39.324219 L 35.984375 38.851562 C 36.363281 38.40625 36.53125 38.28125 36.53125 38.449219 Z M 10.769531 40.847656 C 10.769531 41.007812 10.582031 40.839844 9.707031 39.90625 L 8.765625 38.902344 L 9.765625 39.84375 C 10.320312 40.363281 10.769531 40.8125 10.769531 40.847656 Z M 40.121094 39.960938 C 39.609375 40.480469 39.140625 40.910156 39.085938 40.910156 C 39.027344 40.910156 39.398438 40.480469 39.910156 39.960938 C 40.425781 39.4375 40.890625 39.007812 40.949219 39.007812 C 41.007812 39.007812 40.636719 39.4375 40.121094 39.960938 Z M 6.785156 39.800781 C 7.046875 40.136719 7.039062 40.144531 6.707031 39.882812 C 6.351562 39.605469 6.242188 39.429688 6.414062 39.429688 C 6.460938 39.429688 6.625 39.597656 6.785156 39.800781 Z M 43.5 39.511719 C 43.5 39.554688 43.335938 39.722656 43.132812 39.882812 C 42.796875 40.144531 42.789062 40.136719 43.050781 39.800781 C 43.328125 39.449219 43.5 39.335938 43.5 39.511719 Z M 8.339844 41.542969 C 8.914062 42.125 9.335938 42.597656 9.277344 42.597656 C 9.21875 42.597656 8.703125 42.125 8.128906 41.542969 C 7.558594 40.960938 7.136719 40.488281 7.195312 40.488281 C 7.253906 40.488281 7.769531 40.960938 8.339844 41.542969 Z M 42.65625 40.546875 C 42.65625 40.582031 42.15625 41.078125 41.546875 41.65625 L 40.4375 42.703125 L 41.488281 41.59375 C 42.460938 40.566406 42.65625 40.390625 42.65625 40.546875 Z M 11.71875 41.542969 C 11.929688 41.773438 12.054688 41.964844 11.996094 41.964844 C 11.9375 41.964844 11.71875 41.773438 11.507812 41.542969 C 11.300781 41.308594 11.175781 41.121094 11.234375 41.121094 C 11.289062 41.121094 11.511719 41.308594 11.71875 41.542969 Z M 38.644531 41.191406 C 38.644531 41.234375 38.429688 41.445312 38.167969 41.667969 L 37.695312 42.070312 L 38.097656 41.59375 C 38.472656 41.148438 38.644531 41.023438 38.644531 41.191406 Z M 21.058594 42.304688 C 20.988281 42.375 20.808594 42.382812 20.65625 42.320312 C 20.488281 42.253906 20.535156 42.203125 20.78125 42.191406 C 21.003906 42.183594 21.128906 42.234375 21.058594 42.304688 Z M 29.296875 42.304688 C 29.226562 42.375 29.042969 42.382812 28.890625 42.320312 C 28.722656 42.253906 28.773438 42.203125 29.019531 42.191406 C 29.242188 42.183594 29.367188 42.234375 29.296875 42.304688 Z M 24.023438 42.742188 C 23.820312 42.796875 23.441406 42.796875 23.179688 42.746094 C 22.917969 42.695312 23.082031 42.652344 23.546875 42.652344 C 24.011719 42.648438 24.226562 42.691406 24.023438 42.742188 Z M 26.769531 42.742188 C 26.566406 42.796875 26.1875 42.796875 25.925781 42.746094 C 25.660156 42.695312 25.828125 42.652344 26.289062 42.652344 C 26.753906 42.648438 26.96875 42.691406 26.769531 42.742188 Z M 10.242188 43.230469 C 10.453125 43.464844 10.578125 43.652344 10.519531 43.652344 C 10.460938 43.652344 10.242188 43.464844 10.03125 43.230469 C 9.820312 43 9.695312 42.808594 9.753906 42.808594 C 9.8125 42.808594 10.03125 43 10.242188 43.230469 Z M 40.121094 42.882812 C 40.121094 42.921875 39.910156 43.136719 39.648438 43.355469 L 39.171875 43.757812 L 39.574219 43.285156 C 39.953125 42.839844 40.121094 42.714844 40.121094 42.882812 Z M 14.992188 43.773438 C 14.992188 43.832031 14.804688 43.777344 14.570312 43.652344 C 14.339844 43.53125 14.148438 43.378906 14.148438 43.320312 C 14.148438 43.265625 14.339844 43.316406 14.570312 43.441406 C 14.804688 43.566406 14.992188 43.714844 14.992188 43.773438 Z M 35.6875 43.328125 C 35.6875 43.382812 35.472656 43.53125 35.214844 43.65625 C 34.757812 43.878906 34.753906 43.875 35.148438 43.558594 C 35.578125 43.214844 35.6875 43.167969 35.6875 43.328125 Z M 11.21875 44.023438 C 11.480469 44.359375 11.472656 44.367188 11.140625 44.101562 C 10.789062 43.828125 10.675781 43.652344 10.851562 43.652344 C 10.894531 43.652344 11.058594 43.820312 11.21875 44.023438 Z M 39.066406 43.734375 C 39.066406 43.777344 38.902344 43.945312 38.695312 44.101562 C 38.363281 44.367188 38.355469 44.359375 38.617188 44.023438 C 38.894531 43.671875 39.066406 43.558594 39.066406 43.734375 Z M 15.117188 46.347656 C 15.019531 46.441406 13.726562 45.800781 13.726562 45.65625 C 13.726562 45.605469 14.058594 45.71875 14.464844 45.910156 C 14.867188 46.105469 15.160156 46.300781 15.117188 46.347656 Z M 20.214844 45.679688 C 20.144531 45.75 19.964844 45.757812 19.8125 45.699219 C 19.640625 45.628906 19.691406 45.582031 19.9375 45.570312 C 20.160156 45.5625 20.285156 45.609375 20.214844 45.679688 Z M 30.140625 45.679688 C 30.070312 45.75 29.886719 45.757812 29.734375 45.699219 C 29.566406 45.628906 29.617188 45.582031 29.863281 45.570312 C 30.085938 45.5625 30.210938 45.609375 30.140625 45.679688 Z M 36.109375 45.652344 C 36.109375 45.78125 34.917969 46.402344 34.695312 46.390625 C 34.601562 46.382812 34.859375 46.199219 35.265625 45.976562 C 36.097656 45.519531 36.109375 45.515625 36.109375 45.652344 Z M 21.269531 45.890625 C 21.203125 45.960938 21.019531 45.96875 20.867188 45.910156 C 20.699219 45.839844 20.75 45.792969 20.996094 45.78125 C 21.21875 45.773438 21.339844 45.820312 21.269531 45.890625 Z M 29.085938 45.890625 C 29.015625 45.960938 28.832031 45.96875 28.679688 45.910156 C 28.511719 45.839844 28.5625 45.792969 28.808594 45.78125 C 29.03125 45.773438 29.15625 45.820312 29.085938 45.890625 Z M 22.863281 46.113281 C 22.71875 46.171875 22.433594 46.175781 22.230469 46.121094 C 22.023438 46.070312 22.140625 46.019531 22.488281 46.015625 C 22.839844 46.011719 23.007812 46.054688 22.863281 46.113281 Z M 27.71875 46.113281 C 27.578125 46.171875 27.292969 46.175781 27.085938 46.121094 C 26.882812 46.070312 27 46.019531 27.347656 46.015625 C 27.695312 46.011719 27.863281 46.054688 27.71875 46.113281 Z M 21.484375 48.214844 C 21.414062 48.285156 21.230469 48.292969 21.078125 48.230469 C 20.910156 48.164062 20.960938 48.113281 21.207031 48.101562 C 21.429688 48.09375 21.550781 48.144531 21.484375 48.214844 Z M 28.875 48.214844 C 28.804688 48.285156 28.621094 48.292969 28.46875 48.230469 C 28.300781 48.164062 28.351562 48.113281 28.597656 48.101562 C 28.820312 48.09375 28.945312 48.144531 28.875 48.214844 Z M 23.492188 48.445312 C 23.230469 48.496094 22.804688 48.496094 22.542969 48.445312 C 22.28125 48.398438 22.496094 48.355469 23.019531 48.355469 C 23.539062 48.355469 23.753906 48.398438 23.492188 48.445312 Z M 27.292969 48.445312 C 27.03125 48.496094 26.605469 48.496094 26.34375 48.445312 C 26.082031 48.398438 26.296875 48.355469 26.820312 48.355469 C 27.339844 48.355469 27.554688 48.398438 27.292969 48.445312 Z M 27.292969 48.445312 "/>
<path style=" stroke:none;fill-rule:evenodd;fill:rgb(1.960784%,2.745098%,3.137255%);fill-opacity:1;" d="M 21.644531 0.0820312 C 21.414062 0.136719 20.460938 0.328125 19.535156 0.507812 C 18.605469 0.683594 16.988281 1.164062 15.945312 1.574219 C 7.867188 4.75 1.894531 11.847656 0.300781 20.160156 C -0.113281 22.335938 -0.0976562 27.785156 0.332031 29.886719 C 1.882812 37.472656 6.765625 43.832031 13.726562 47.339844 C 23.347656 52.191406 34.988281 50.285156 42.667969 42.609375 C 50.285156 34.992188 52.175781 23.367188 47.355469 13.78125 C 44.03125 7.171875 37.515625 2.058594 30.410156 0.480469 C 28.875 0.136719 22.59375 -0.144531 21.644531 0.0820312 Z M 23.285156 1.582031 C 23.023438 1.632812 22.550781 1.632812 22.230469 1.585938 C 21.90625 1.535156 22.121094 1.496094 22.703125 1.492188 C 23.28125 1.492188 23.542969 1.53125 23.285156 1.582031 Z M 27.71875 1.582031 C 27.460938 1.632812 26.984375 1.632812 26.664062 1.585938 C 26.34375 1.535156 26.554688 1.496094 27.136719 1.492188 C 27.714844 1.492188 27.980469 1.53125 27.71875 1.582031 Z M 21.386719 1.78125 C 21.242188 1.839844 20.957031 1.84375 20.75 1.789062 C 20.546875 1.738281 20.664062 1.691406 21.011719 1.6875 C 21.359375 1.679688 21.527344 1.726562 21.386719 1.78125 Z M 29.199219 1.78125 C 29.054688 1.839844 28.769531 1.84375 28.566406 1.789062 C 28.359375 1.738281 28.476562 1.691406 28.824219 1.6875 C 29.171875 1.679688 29.339844 1.726562 29.199219 1.78125 Z M 19.003906 2.285156 C 18.25 2.503906 17.539062 2.679688 17.421875 2.671875 C 17.054688 2.644531 19.515625 1.882812 19.957031 1.882812 C 20.1875 1.882812 19.761719 2.066406 19.003906 2.285156 Z M 31.875 2.394531 C 32.8125 2.6875 33.578125 2.980469 33.578125 3.039062 C 33.578125 3.101562 33.363281 3.078125 33.101562 2.992188 C 32.839844 2.902344 31.914062 2.617188 31.042969 2.355469 C 30.171875 2.09375 29.621094 1.875 29.816406 1.867188 C 30.015625 1.859375 30.941406 2.097656 31.875 2.394531 Z M 16.894531 2.910156 C 16.71875 3.023438 16.480469 3.117188 16.367188 3.117188 C 16.25 3.117188 16.296875 3.023438 16.472656 2.910156 C 16.644531 2.796875 16.882812 2.707031 17 2.707031 C 17.117188 2.707031 17.066406 2.796875 16.894531 2.910156 Z M 15.628906 3.4375 C 15.335938 3.605469 15.003906 3.742188 14.886719 3.742188 C 14.773438 3.742188 14.914062 3.605469 15.203125 3.4375 C 15.496094 3.273438 15.828125 3.136719 15.945312 3.136719 C 16.058594 3.136719 15.917969 3.273438 15.628906 3.4375 Z M 34.632812 3.4375 C 34.921875 3.605469 35.066406 3.742188 34.949219 3.742188 C 34.832031 3.742188 34.5 3.605469 34.210938 3.4375 C 33.917969 3.273438 33.777344 3.136719 33.894531 3.136719 C 34.007812 3.136719 34.34375 3.273438 34.632812 3.4375 Z M 25.183594 3.683594 C 25.039062 3.742188 24.800781 3.742188 24.65625 3.683594 C 24.507812 3.625 24.628906 3.578125 24.917969 3.578125 C 25.207031 3.578125 25.328125 3.625 25.183594 3.683594 Z M 22.96875 3.902344 C 22.765625 3.953125 22.386719 3.957031 22.121094 3.90625 C 21.859375 3.855469 22.027344 3.8125 22.488281 3.808594 C 22.953125 3.804688 23.167969 3.847656 22.96875 3.902344 Z M 27.824219 3.902344 C 27.621094 3.953125 27.242188 3.957031 26.980469 3.90625 C 26.71875 3.855469 26.882812 3.8125 27.347656 3.808594 C 27.8125 3.804688 28.027344 3.847656 27.824219 3.902344 Z M 14.148438 4.066406 C 14.148438 4.121094 13.863281 4.3125 13.515625 4.496094 C 12.722656 4.90625 12.671875 4.726562 13.460938 4.296875 C 14.125 3.9375 14.148438 3.929688 14.148438 4.066406 Z M 20.484375 4.292969 C 19.84375 4.453125 19.226562 4.574219 19.109375 4.570312 C 18.6875 4.542969 20.605469 4 21.117188 4 C 21.40625 4 21.121094 4.132812 20.484375 4.292969 Z M 30.09375 4.277344 C 31.210938 4.644531 30.804688 4.65625 29.351562 4.292969 C 28.714844 4.132812 28.429688 4 28.71875 4 C 29.011719 4 29.628906 4.125 30.09375 4.277344 Z M 36.953125 4.714844 C 36.953125 4.773438 36.671875 4.675781 36.320312 4.496094 C 35.972656 4.3125 35.6875 4.121094 35.6875 4.0625 C 35.6875 4.003906 35.972656 4.101562 36.320312 4.285156 C 36.671875 4.464844 36.953125 4.65625 36.953125 4.714844 Z M 18.160156 4.917969 C 17.195312 5.289062 16.816406 5.28125 17.632812 4.910156 C 17.980469 4.75 18.410156 4.621094 18.582031 4.625 C 18.757812 4.628906 18.566406 4.761719 18.160156 4.917969 Z M 32.203125 4.910156 C 33.019531 5.28125 32.640625 5.289062 31.675781 4.917969 C 31.269531 4.761719 31.078125 4.628906 31.253906 4.625 C 31.425781 4.621094 31.855469 4.75 32.203125 4.910156 Z M 12.671875 4.886719 C 12.671875 4.929688 12.289062 5.21875 11.824219 5.523438 C 11.363281 5.832031 10.980469 6.039062 10.980469 5.984375 C 10.980469 5.890625 12.484375 4.8125 12.613281 4.8125 C 12.644531 4.8125 12.671875 4.847656 12.671875 4.886719 Z M 38.714844 5.851562 C 38.847656 6.015625 38.558594 5.882812 38.0625 5.558594 C 37.570312 5.230469 37.167969 4.925781 37.167969 4.875 C 37.167969 4.722656 38.453125 5.53125 38.714844 5.851562 Z M 16.875 5.3125 C 16.660156 5.511719 14.148438 6.707031 14.148438 6.613281 C 14.148438 6.484375 16.5 5.257812 16.769531 5.242188 C 16.878906 5.238281 16.925781 5.269531 16.875 5.3125 Z M 34.425781 5.871094 C 35.121094 6.21875 35.6875 6.554688 35.6875 6.613281 C 35.6875 6.707031 33.175781 5.511719 32.960938 5.3125 C 32.699219 5.074219 33.3125 5.308594 34.425781 5.871094 Z M 10.550781 6.351562 C 10.382812 6.503906 9.472656 7.335938 8.535156 8.199219 L 6.828125 9.773438 L 8.699219 7.925781 C 9.730469 6.910156 10.636719 6.078125 10.714844 6.078125 C 10.796875 6.078125 10.722656 6.203125 10.550781 6.351562 Z M 41.917969 8.644531 C 43.03125 9.8125 42.964844 9.769531 41.390625 8.300781 C 38.949219 6.023438 38.835938 5.90625 39.804688 6.660156 C 40.269531 7.019531 41.21875 7.910156 41.917969 8.644531 Z M 13.921875 6.796875 C 13.871094 6.84375 13.214844 7.335938 12.460938 7.890625 C 11.703125 8.445312 10.5625 9.378906 9.925781 9.960938 C 8.867188 10.933594 8.839844 10.945312 9.609375 10.117188 C 10.402344 9.261719 13.601562 6.710938 13.878906 6.710938 C 13.949219 6.710938 13.96875 6.75 13.921875 6.796875 Z M 38.328125 8.414062 C 39.023438 8.964844 39.925781 9.78125 40.332031 10.222656 C 40.839844 10.773438 40.707031 10.691406 39.910156 9.964844 C 39.273438 9.378906 38.132812 8.445312 37.378906 7.890625 C 36.621094 7.335938 35.957031 6.824219 35.898438 6.753906 C 35.652344 6.457031 37.160156 7.484375 38.328125 8.414062 Z M 23.492188 7.28125 C 23.230469 7.332031 22.804688 7.332031 22.542969 7.28125 C 22.28125 7.230469 22.496094 7.191406 23.019531 7.191406 C 23.539062 7.191406 23.753906 7.230469 23.492188 7.28125 Z M 27.292969 7.28125 C 27.03125 7.332031 26.605469 7.332031 26.34375 7.28125 C 26.082031 7.230469 26.296875 7.191406 26.820312 7.191406 C 27.339844 7.191406 27.554688 7.230469 27.292969 7.28125 Z M 21.804688 7.484375 C 21.660156 7.542969 21.421875 7.542969 21.277344 7.484375 C 21.128906 7.425781 21.25 7.378906 21.539062 7.378906 C 21.832031 7.378906 21.949219 7.425781 21.804688 7.484375 Z M 28.5625 7.484375 C 28.414062 7.542969 28.179688 7.542969 28.03125 7.484375 C 27.886719 7.425781 28.007812 7.378906 28.296875 7.378906 C 28.585938 7.378906 28.707031 7.425781 28.5625 7.484375 Z M 20.847656 7.683594 C 20.777344 7.753906 20.597656 7.761719 20.445312 7.699219 C 20.277344 7.632812 20.324219 7.582031 20.570312 7.570312 C 20.792969 7.5625 20.917969 7.613281 20.847656 7.683594 Z M 29.507812 7.683594 C 29.4375 7.753906 29.253906 7.761719 29.101562 7.699219 C 28.933594 7.632812 28.984375 7.582031 29.230469 7.570312 C 29.453125 7.5625 29.578125 7.613281 29.507812 7.683594 Z M 17.722656 8.679688 C 17.398438 8.929688 15.203125 10.074219 15.203125 9.988281 C 15.203125 9.851562 17.371094 8.617188 17.617188 8.613281 C 17.722656 8.613281 17.769531 8.640625 17.722656 8.679688 Z M 33.523438 9.25 C 34.132812 9.601562 34.632812 9.933594 34.632812 9.988281 C 34.632812 10.046875 34.085938 9.789062 33.417969 9.421875 C 32.007812 8.640625 31.964844 8.609375 32.222656 8.613281 C 32.328125 8.613281 32.914062 8.902344 33.523438 9.25 Z M 6.214844 10.828125 C 5.90625 11.234375 5.605469 11.566406 5.546875 11.566406 C 5.441406 11.566406 5.699219 11.191406 6.304688 10.457031 C 6.859375 9.789062 6.792969 10.074219 6.214844 10.828125 Z M 14.992188 10.167969 C 14.992188 10.214844 14.636719 10.503906 14.203125 10.816406 L 13.410156 11.386719 L 14.140625 10.738281 C 14.859375 10.097656 14.992188 10.011719 14.992188 10.167969 Z M 36.246094 11.191406 C 36.328125 11.324219 36.042969 11.164062 35.617188 10.839844 C 35.191406 10.515625 34.84375 10.207031 34.84375 10.15625 C 34.84375 10.007812 36.078125 10.921875 36.246094 11.191406 Z M 43.929688 10.9375 C 44.566406 11.835938 44.300781 11.714844 43.59375 10.792969 C 43.269531 10.363281 43.109375 10.082031 43.242188 10.164062 C 43.375 10.246094 43.683594 10.59375 43.929688 10.9375 Z M 8.210938 11.988281 C 7.835938 12.453125 7.488281 12.832031 7.4375 12.832031 C 7.328125 12.832031 7.691406 12.332031 8.316406 11.617188 C 9.007812 10.828125 8.933594 11.085938 8.210938 11.988281 Z M 42.046875 12.234375 C 42.695312 13.144531 42.398438 12.949219 41.589844 11.9375 C 41.199219 11.441406 41.046875 11.171875 41.25 11.335938 C 41.453125 11.5 41.8125 11.902344 42.046875 12.234375 Z M 12.128906 12.675781 C 11.453125 13.398438 10.539062 14.558594 10.09375 15.246094 C 9.144531 16.714844 8.894531 17 9.363281 16.082031 C 9.832031 15.15625 11.070312 13.539062 12.210938 12.359375 C 13.621094 10.902344 13.558594 11.128906 12.128906 12.675781 Z M 39.207031 14.195312 C 39.730469 14.886719 40.304688 15.742188 40.484375 16.097656 C 40.941406 17 40.6875 16.707031 39.742188 15.246094 C 39.296875 14.558594 38.375 13.375 37.691406 12.621094 C 36.824219 11.667969 36.722656 11.507812 37.351562 12.09375 C 37.847656 12.558594 38.683594 13.503906 39.207031 14.195312 Z M 4.859375 12.832031 C 4.734375 13.066406 4.585938 13.253906 4.527344 13.253906 C 4.46875 13.253906 4.523438 13.066406 4.644531 12.832031 C 4.769531 12.601562 4.917969 12.410156 4.976562 12.410156 C 5.035156 12.410156 4.980469 12.601562 4.859375 12.832031 Z M 45.191406 12.832031 C 45.316406 13.066406 45.367188 13.253906 45.3125 13.253906 C 45.253906 13.253906 45.105469 13.066406 44.980469 12.832031 C 44.855469 12.601562 44.800781 12.410156 44.859375 12.410156 C 44.917969 12.410156 45.066406 12.601562 45.191406 12.832031 Z M 3.96875 14.410156 C 3.71875 14.929688 3.472656 15.320312 3.429688 15.277344 C 3.335938 15.179688 4.1875 13.464844 4.332031 13.464844 C 4.386719 13.464844 4.222656 13.890625 3.96875 14.410156 Z M 46.046875 14.332031 C 46.289062 14.808594 46.449219 15.230469 46.40625 15.277344 C 46.363281 15.320312 46.121094 14.929688 45.867188 14.410156 C 45.292969 13.226562 45.445312 13.15625 46.046875 14.332031 Z M 6.757812 14.097656 C 6.632812 14.332031 6.484375 14.523438 6.425781 14.523438 C 6.367188 14.523438 6.421875 14.332031 6.546875 14.097656 C 6.671875 13.867188 6.820312 13.675781 6.878906 13.675781 C 6.9375 13.675781 6.882812 13.867188 6.757812 14.097656 Z M 43.289062 14.097656 C 43.414062 14.332031 43.46875 14.523438 43.410156 14.523438 C 43.351562 14.523438 43.203125 14.332031 43.078125 14.097656 C 42.953125 13.867188 42.902344 13.675781 42.957031 13.675781 C 43.015625 13.675781 43.164062 13.867188 43.289062 14.097656 Z M 2.933594 16.820312 C 2.804688 17.195312 2.660156 17.460938 2.613281 17.417969 C 2.570312 17.371094 2.640625 17.027344 2.769531 16.65625 C 2.898438 16.28125 3.042969 16.015625 3.085938 16.058594 C 3.132812 16.105469 3.0625 16.449219 2.933594 16.820312 Z M 47.179688 17.054688 C 47.28125 17.421875 47.261719 17.484375 47.125 17.265625 C 47.019531 17.09375 46.867188 16.710938 46.789062 16.421875 C 46.691406 16.054688 46.707031 15.992188 46.84375 16.210938 C 46.953125 16.382812 47.105469 16.765625 47.179688 17.054688 Z M 5.304688 16.984375 C 5.054688 17.414062 4.996094 17.277344 5.199219 16.746094 C 5.273438 16.558594 5.375 16.449219 5.429688 16.503906 C 5.484375 16.554688 5.429688 16.773438 5.304688 16.984375 Z M 44.761719 17.160156 C 44.761719 17.277344 44.667969 17.230469 44.558594 17.054688 C 44.445312 16.878906 44.351562 16.644531 44.351562 16.527344 C 44.351562 16.410156 44.445312 16.457031 44.558594 16.632812 C 44.667969 16.808594 44.761719 17.042969 44.761719 17.160156 Z M 8.578125 18.039062 C 8.398438 18.367188 8.25 18.570312 8.246094 18.488281 C 8.230469 18.238281 8.722656 17.257812 8.816406 17.351562 C 8.863281 17.398438 8.757812 17.710938 8.578125 18.039062 Z M 16.3125 17.414062 C 16.050781 17.464844 15.625 17.464844 15.363281 17.414062 C 15.101562 17.363281 15.316406 17.324219 15.839844 17.324219 C 16.359375 17.324219 16.574219 17.363281 16.3125 17.414062 Z M 34.472656 17.414062 C 34.210938 17.464844 33.785156 17.464844 33.523438 17.414062 C 33.261719 17.363281 33.476562 17.324219 34 17.324219 C 34.519531 17.324219 34.734375 17.363281 34.472656 17.414062 Z M 41.585938 18.425781 C 41.585938 18.542969 41.449219 18.402344 41.285156 18.109375 C 41.117188 17.820312 40.980469 17.488281 40.980469 17.371094 C 40.980469 17.253906 41.117188 17.398438 41.285156 17.6875 C 41.449219 17.976562 41.585938 18.3125 41.585938 18.425781 Z M 4.875 18.132812 C 4.765625 18.410156 4.667969 18.527344 4.660156 18.390625 C 4.640625 18.0625 4.886719 17.4375 4.992188 17.542969 C 5.039062 17.589844 4.988281 17.855469 4.875 18.132812 Z M 14.253906 17.828125 C 13.277344 18.34375 12.855469 18.777344 12.433594 19.695312 C 12.222656 20.15625 12.042969 20.386719 12.042969 20.199219 C 12.03125 19.410156 13.910156 17.457031 14.65625 17.484375 C 14.78125 17.488281 14.601562 17.644531 14.253906 17.828125 Z M 36.125 17.957031 C 36.917969 18.492188 37.800781 19.679688 37.796875 20.199219 C 37.792969 20.386719 37.617188 20.15625 37.402344 19.695312 C 36.980469 18.777344 36.5625 18.34375 35.582031 17.828125 C 35.234375 17.644531 35.054688 17.488281 35.179688 17.484375 C 35.308594 17.480469 35.734375 17.691406 36.125 17.957031 Z M 45.171875 18.320312 C 45.164062 18.53125 45.097656 18.496094 44.980469 18.214844 C 44.730469 17.636719 44.730469 17.300781 44.980469 17.6875 C 45.09375 17.863281 45.179688 18.148438 45.171875 18.320312 Z M 2.414062 18.410156 C 2.335938 18.722656 2.230469 18.933594 2.183594 18.882812 C 2.132812 18.835938 2.15625 18.539062 2.234375 18.230469 C 2.3125 17.921875 2.414062 17.710938 2.464844 17.757812 C 2.515625 17.808594 2.492188 18.101562 2.414062 18.410156 Z M 47.695312 18.742188 C 47.695312 18.941406 47.628906 18.90625 47.511719 18.636719 C 47.414062 18.40625 47.332031 18.074219 47.332031 17.898438 C 47.332031 17.699219 47.398438 17.738281 47.511719 18.003906 C 47.613281 18.238281 47.695312 18.570312 47.695312 18.742188 Z M 19.453125 19.695312 C 19.664062 20.15625 19.84375 21.011719 19.847656 21.589844 C 19.851562 22.59375 19.796875 22.691406 18.535156 23.960938 L 17.222656 25.289062 L 19.851562 25.289062 L 19.808594 27.242188 L 19.761719 29.191406 L 19.691406 27.347656 L 19.621094 25.5 L 16.800781 25.5 L 18.21875 24.070312 C 19.574219 22.707031 19.640625 22.589844 19.640625 21.632812 C 19.640625 20.449219 19.203125 19.304688 18.414062 18.429688 L 17.84375 17.796875 L 18.453125 18.324219 C 18.789062 18.613281 19.238281 19.230469 19.453125 19.695312 Z M 31.425781 18.480469 C 30.355469 19.625 30.308594 19.859375 30.1875 24.65625 L 30.074219 29.191406 L 30.03125 24.910156 C 29.996094 21.445312 30.050781 20.480469 30.3125 19.84375 C 30.609375 19.136719 31.59375 17.898438 31.859375 17.898438 C 31.917969 17.898438 31.722656 18.160156 31.425781 18.480469 Z M 2.046875 19.628906 C 1.976562 19.796875 1.929688 19.746094 1.917969 19.5 C 1.910156 19.277344 1.957031 19.152344 2.027344 19.222656 C 2.097656 19.292969 2.105469 19.476562 2.046875 19.628906 Z M 47.867188 19.628906 C 47.800781 19.796875 47.75 19.746094 47.742188 19.5 C 47.730469 19.277344 47.78125 19.152344 47.851562 19.222656 C 47.921875 19.292969 47.929688 19.476562 47.867188 19.628906 Z M 4.367188 19.839844 C 4.300781 20.007812 4.25 19.957031 4.242188 19.710938 C 4.230469 19.488281 4.28125 19.363281 4.351562 19.433594 C 4.421875 19.503906 4.429688 19.6875 4.367188 19.839844 Z M 45.546875 19.839844 C 45.480469 20.007812 45.429688 19.957031 45.417969 19.710938 C 45.410156 19.488281 45.460938 19.363281 45.53125 19.433594 C 45.597656 19.503906 45.605469 19.6875 45.546875 19.839844 Z M 1.828125 20.695312 C 1.769531 20.839844 1.722656 20.722656 1.722656 20.433594 C 1.722656 20.140625 1.769531 20.023438 1.828125 20.167969 C 1.886719 20.3125 1.886719 20.550781 1.828125 20.695312 Z M 7.683594 20.828125 C 7.609375 21.199219 7.503906 21.457031 7.449219 21.40625 C 7.394531 21.351562 7.417969 21.007812 7.496094 20.644531 C 7.578125 20.277344 7.683594 20.019531 7.730469 20.066406 C 7.777344 20.113281 7.757812 20.457031 7.683594 20.828125 Z M 42.410156 21.171875 C 42.40625 21.511719 42.371094 21.488281 42.234375 21.066406 C 42.003906 20.34375 42.003906 19.789062 42.234375 20.328125 C 42.335938 20.558594 42.414062 20.9375 42.410156 21.171875 Z M 48.074219 20.695312 C 48.015625 20.839844 47.96875 20.722656 47.96875 20.433594 C 47.96875 20.140625 48.015625 20.023438 48.074219 20.167969 C 48.132812 20.3125 48.132812 20.550781 48.074219 20.695312 Z M 4.152344 20.90625 C 4.09375 21.050781 4.046875 20.933594 4.046875 20.644531 C 4.046875 20.351562 4.09375 20.234375 4.152344 20.378906 C 4.210938 20.523438 4.210938 20.761719 4.152344 20.90625 Z M 45.753906 20.90625 C 45.695312 21.050781 45.644531 20.933594 45.644531 20.644531 C 45.644531 20.351562 45.695312 20.234375 45.753906 20.378906 C 45.8125 20.523438 45.8125 20.761719 45.753906 20.90625 Z M 11.984375 26.925781 C 11.945312 28.054688 11.914062 27.128906 11.914062 24.867188 C 11.914062 22.601562 11.945312 21.675781 11.984375 22.808594 C 12.019531 23.9375 12.019531 25.792969 11.984375 26.925781 Z M 37.949219 22.175781 C 37.898438 22.433594 37.855469 22.222656 37.855469 21.699219 C 37.855469 21.175781 37.898438 20.964844 37.949219 21.222656 C 38 21.484375 38 21.914062 37.949219 22.175781 Z M 1.625 22.066406 C 1.570312 22.269531 1.523438 22.152344 1.519531 21.804688 C 1.515625 21.457031 1.558594 21.289062 1.617188 21.429688 C 1.675781 21.574219 1.679688 21.859375 1.625 22.066406 Z M 3.949219 22.066406 C 3.894531 22.269531 3.847656 22.152344 3.84375 21.804688 C 3.839844 21.457031 3.882812 21.289062 3.941406 21.429688 C 3.996094 21.574219 4 21.859375 3.949219 22.066406 Z M 45.96875 22.066406 C 45.917969 22.269531 45.871094 22.152344 45.867188 21.804688 C 45.859375 21.457031 45.90625 21.289062 45.960938 21.429688 C 46.019531 21.574219 46.023438 21.859375 45.96875 22.066406 Z M 48.292969 22.066406 C 48.238281 22.269531 48.191406 22.152344 48.1875 21.804688 C 48.183594 21.457031 48.226562 21.289062 48.285156 21.429688 C 48.34375 21.574219 48.347656 21.859375 48.292969 22.066406 Z M 7.328125 22.488281 C 7.273438 22.691406 7.226562 22.574219 7.222656 22.226562 C 7.21875 21.878906 7.261719 21.710938 7.320312 21.851562 C 7.375 21.996094 7.378906 22.28125 7.328125 22.488281 Z M 42.589844 22.488281 C 42.539062 22.691406 42.492188 22.574219 42.488281 22.226562 C 42.480469 21.878906 42.527344 21.710938 42.582031 21.851562 C 42.640625 21.996094 42.644531 22.28125 42.589844 22.488281 Z M 3.746094 26.070312 C 3.703125 26.742188 3.667969 26.25 3.667969 24.972656 C 3.667969 23.695312 3.703125 23.144531 3.746094 23.75 C 3.789062 24.355469 3.789062 25.398438 3.746094 26.070312 Z M 36.648438 24.007812 L 35.40625 25.265625 L 36.65625 25.328125 L 37.90625 25.394531 L 37.929688 28.769531 L 37.855469 27.136719 L 37.78125 25.5 L 36.417969 25.5 C 35.667969 25.5 35.054688 25.460938 35.054688 25.414062 C 35.054688 25.296875 37.667969 22.765625 37.792969 22.757812 C 37.847656 22.757812 37.332031 23.320312 36.648438 24.007812 Z M 46.191406 26.070312 C 46.148438 26.742188 46.113281 26.25 46.113281 24.972656 C 46.113281 23.695312 46.148438 23.144531 46.191406 23.75 C 46.234375 24.355469 46.234375 25.398438 46.191406 26.070312 Z M 1.421875 25.964844 C 1.378906 26.582031 1.34375 26.132812 1.34375 24.972656 C 1.34375 23.808594 1.378906 23.308594 1.421875 23.855469 C 1.464844 24.402344 1.464844 25.351562 1.421875 25.964844 Z M 48.515625 25.964844 C 48.472656 26.582031 48.4375 26.132812 48.433594 24.972656 C 48.433594 23.808594 48.46875 23.308594 48.511719 23.855469 C 48.554688 24.402344 48.558594 25.351562 48.515625 25.964844 Z M 7.125 25.980469 C 7.078125 26.46875 7.042969 26.015625 7.042969 24.972656 C 7.042969 23.925781 7.082031 23.527344 7.125 24.082031 C 7.167969 24.636719 7.167969 25.492188 7.125 25.980469 Z M 42.8125 25.980469 C 42.765625 26.46875 42.730469 26.015625 42.730469 24.972656 C 42.730469 23.925781 42.769531 23.527344 42.8125 24.082031 C 42.855469 24.636719 42.855469 25.492188 42.8125 25.980469 Z M 7.328125 27.976562 C 7.273438 28.179688 7.226562 28.0625 7.222656 27.714844 C 7.21875 27.367188 7.261719 27.199219 7.320312 27.34375 C 7.375 27.484375 7.378906 27.769531 7.328125 27.976562 Z M 42.589844 27.976562 C 42.539062 28.179688 42.492188 28.0625 42.488281 27.714844 C 42.480469 27.367188 42.527344 27.199219 42.582031 27.34375 C 42.640625 27.484375 42.644531 27.769531 42.589844 27.976562 Z M 1.625 28.402344 C 1.570312 28.605469 1.527344 28.4375 1.527344 28.03125 C 1.527344 27.625 1.570312 27.460938 1.625 27.664062 C 1.675781 27.867188 1.675781 28.199219 1.625 28.402344 Z M 48.292969 28.402344 C 48.238281 28.605469 48.195312 28.4375 48.195312 28.03125 C 48.195312 27.625 48.238281 27.460938 48.292969 27.664062 C 48.34375 27.867188 48.34375 28.199219 48.292969 28.402344 Z M 3.949219 28.398438 C 3.894531 28.601562 3.847656 28.484375 3.84375 28.136719 C 3.839844 27.789062 3.882812 27.621094 3.941406 27.765625 C 3.996094 27.90625 4 28.191406 3.949219 28.398438 Z M 45.96875 28.398438 C 45.917969 28.601562 45.871094 28.484375 45.867188 28.136719 C 45.859375 27.789062 45.90625 27.621094 45.960938 27.765625 C 46.019531 27.90625 46.023438 28.191406 45.96875 28.398438 Z M 7.777344 29.722656 C 7.78125 29.914062 7.714844 29.875 7.601562 29.617188 C 7.503906 29.382812 7.425781 29.003906 7.425781 28.769531 C 7.433594 28.429688 7.464844 28.453125 7.601562 28.875 C 7.695312 29.167969 7.773438 29.546875 7.777344 29.722656 Z M 42.339844 29.296875 C 42.148438 30.164062 41.980469 29.992188 42.15625 29.113281 C 42.230469 28.742188 42.332031 28.484375 42.386719 28.539062 C 42.441406 28.589844 42.421875 28.933594 42.339844 29.296875 Z M 4.152344 29.5625 C 4.09375 29.707031 4.046875 29.589844 4.046875 29.296875 C 4.046875 29.007812 4.09375 28.890625 4.152344 29.035156 C 4.210938 29.179688 4.210938 29.417969 4.152344 29.5625 Z M 45.753906 29.5625 C 45.695312 29.707031 45.644531 29.589844 45.644531 29.296875 C 45.644531 29.007812 45.695312 28.890625 45.753906 29.035156 C 45.8125 29.179688 45.8125 29.417969 45.753906 29.5625 Z M 1.828125 29.773438 C 1.769531 29.917969 1.722656 29.800781 1.722656 29.511719 C 1.722656 29.21875 1.769531 29.101562 1.828125 29.246094 C 1.886719 29.390625 1.886719 29.628906 1.828125 29.773438 Z M 12.179688 29.550781 C 12.113281 29.71875 12.0625 29.667969 12.054688 29.421875 C 12.042969 29.199219 12.09375 29.074219 12.164062 29.144531 C 12.234375 29.214844 12.242188 29.398438 12.179688 29.550781 Z M 37.734375 29.550781 C 37.664062 29.71875 37.617188 29.667969 37.605469 29.421875 C 37.597656 29.199219 37.644531 29.074219 37.714844 29.144531 C 37.785156 29.214844 37.792969 29.398438 37.734375 29.550781 Z M 48.074219 29.773438 C 48.015625 29.917969 47.96875 29.800781 47.96875 29.511719 C 47.96875 29.21875 48.015625 29.101562 48.074219 29.246094 C 48.132812 29.390625 48.132812 29.628906 48.074219 29.773438 Z M 19.640625 29.574219 C 19.640625 29.726562 19.5 30.035156 19.328125 30.261719 C 19.046875 30.632812 19.042969 30.605469 19.269531 29.984375 C 19.539062 29.246094 19.640625 29.136719 19.640625 29.574219 Z M 30.660156 30.25 C 30.851562 30.664062 30.847656 30.664062 30.527344 30.261719 C 30.34375 30.035156 30.207031 29.703125 30.214844 29.523438 C 30.230469 29.238281 30.246094 29.234375 30.347656 29.511719 C 30.414062 29.683594 30.554688 30.015625 30.660156 30.25 Z M 4.367188 30.394531 C 4.300781 30.5625 4.25 30.511719 4.242188 30.265625 C 4.230469 30.042969 4.28125 29.917969 4.351562 29.988281 C 4.421875 30.058594 4.429688 30.242188 4.367188 30.394531 Z M 45.546875 30.394531 C 45.480469 30.5625 45.429688 30.511719 45.417969 30.265625 C 45.410156 30.042969 45.460938 29.917969 45.53125 29.988281 C 45.597656 30.058594 45.605469 30.242188 45.546875 30.394531 Z M 2.046875 30.605469 C 1.976562 30.773438 1.929688 30.722656 1.917969 30.476562 C 1.910156 30.253906 1.957031 30.128906 2.027344 30.199219 C 2.097656 30.269531 2.105469 30.453125 2.046875 30.605469 Z M 47.867188 30.605469 C 47.800781 30.773438 47.75 30.722656 47.742188 30.476562 C 47.730469 30.253906 47.78125 30.128906 47.851562 30.199219 C 47.921875 30.269531 47.929688 30.453125 47.867188 30.605469 Z M 18.785156 31.105469 C 18.636719 31.285156 18.316406 31.53125 18.074219 31.652344 C 17.808594 31.78125 17.886719 31.652344 18.265625 31.332031 C 18.992188 30.710938 19.175781 30.632812 18.785156 31.105469 Z M 32.097656 31.773438 C 32.097656 31.933594 31.304688 31.410156 31.023438 31.0625 C 30.839844 30.835938 30.988281 30.886719 31.410156 31.199219 C 31.789062 31.472656 32.097656 31.734375 32.097656 31.773438 Z M 2.875 33.25 C 2.777344 33.351562 2.105469 31.425781 2.128906 31.109375 C 2.136719 30.984375 2.324219 31.398438 2.550781 32.027344 C 2.773438 32.65625 2.917969 33.207031 2.875 33.25 Z M 47.40625 32.253906 C 47.210938 32.851562 47.011719 33.300781 46.96875 33.257812 C 46.925781 33.214844 47.050781 32.691406 47.242188 32.089844 C 47.433594 31.488281 47.632812 31.035156 47.679688 31.082031 C 47.726562 31.132812 47.605469 31.660156 47.40625 32.253906 Z M 9.058594 32.835938 C 9.421875 33.558594 9.671875 34.152344 9.613281 34.152344 C 9.496094 34.152344 8.234375 31.714844 8.234375 31.484375 C 8.234375 31.242188 8.371094 31.460938 9.058594 32.835938 Z M 40.976562 32.867188 C 40.621094 33.574219 40.28125 34.152344 40.226562 34.152344 C 40.171875 34.152344 40.429688 33.539062 40.800781 32.789062 C 41.171875 32.039062 41.507812 31.457031 41.550781 31.5 C 41.59375 31.542969 41.335938 32.15625 40.976562 32.867188 Z M 15.398438 32.179688 C 15.609375 32.359375 14.644531 32.226562 14.359375 32.035156 C 14.128906 31.878906 14.214844 31.855469 14.675781 31.960938 C 15.023438 32.039062 15.351562 32.136719 15.398438 32.179688 Z M 35.476562 32.042969 C 35.300781 32.15625 34.96875 32.238281 34.738281 32.230469 C 34.390625 32.214844 34.410156 32.183594 34.84375 32.042969 C 35.589844 31.804688 35.847656 31.804688 35.476562 32.042969 Z M 17.046875 32.171875 C 16.976562 32.242188 16.796875 32.25 16.644531 32.1875 C 16.476562 32.121094 16.523438 32.070312 16.769531 32.058594 C 16.992188 32.050781 17.117188 32.101562 17.046875 32.171875 Z M 33.308594 32.171875 C 33.238281 32.242188 33.054688 32.25 32.902344 32.1875 C 32.734375 32.121094 32.785156 32.070312 33.03125 32.058594 C 33.253906 32.050781 33.378906 32.101562 33.308594 32.171875 Z M 5.484375 33.414062 C 5.484375 33.53125 5.390625 33.484375 5.28125 33.308594 C 5.167969 33.136719 5.074219 32.898438 5.074219 32.78125 C 5.074219 32.664062 5.167969 32.714844 5.28125 32.886719 C 5.390625 33.0625 5.484375 33.300781 5.484375 33.414062 Z M 44.582031 33.242188 C 44.332031 33.667969 44.273438 33.53125 44.476562 33 C 44.550781 32.8125 44.652344 32.703125 44.707031 32.757812 C 44.761719 32.8125 44.707031 33.027344 44.582031 33.242188 Z M 3.371094 34.257812 C 3.371094 34.375 3.28125 34.328125 3.167969 34.152344 C 3.054688 33.980469 2.964844 33.742188 2.964844 33.625 C 2.964844 33.511719 3.054688 33.558594 3.167969 33.730469 C 3.28125 33.90625 3.371094 34.144531 3.371094 34.257812 Z M 46.695312 34.085938 C 46.445312 34.511719 46.386719 34.375 46.589844 33.84375 C 46.660156 33.65625 46.765625 33.546875 46.820312 33.601562 C 46.875 33.65625 46.816406 33.875 46.695312 34.085938 Z M 10.238281 34.917969 C 10.441406 35.222656 10.5 35.410156 10.371094 35.328125 C 10.128906 35.179688 9.636719 34.363281 9.789062 34.363281 C 9.835938 34.363281 10.039062 34.613281 10.238281 34.917969 Z M 39.917969 34.777344 C 39.796875 35 39.59375 35.25 39.464844 35.328125 C 39.339844 35.410156 39.398438 35.222656 39.597656 34.917969 C 40.019531 34.273438 40.238281 34.175781 39.917969 34.777344 Z M 3.992188 35.578125 C 4.238281 36.074219 4.394531 36.476562 4.339844 36.476562 C 4.21875 36.476562 3.378906 34.882812 3.378906 34.65625 C 3.378906 34.425781 3.5 34.609375 3.992188 35.578125 Z M 46.046875 35.609375 C 45.445312 36.785156 45.292969 36.714844 45.867188 35.53125 C 46.121094 35.011719 46.363281 34.621094 46.40625 34.664062 C 46.449219 34.710938 46.289062 35.136719 46.046875 35.609375 Z M 7.183594 36.488281 C 7.652344 37.238281 7.808594 37.574219 7.527344 37.242188 C 7.050781 36.675781 5.898438 34.753906 6.191406 35.011719 C 6.265625 35.078125 6.710938 35.742188 7.183594 36.488281 Z M 43.277344 35.816406 C 43.027344 36.269531 42.589844 36.910156 42.3125 37.242188 C 42.03125 37.574219 42.203125 37.207031 42.691406 36.421875 C 43.65625 34.875 44.019531 34.5 43.277344 35.816406 Z M 14.835938 39.535156 C 16.132812 40.390625 16.480469 40.761719 15.390625 40.128906 C 14.339844 39.519531 12.039062 37.507812 11.214844 36.476562 C 10.761719 35.914062 11.09375 36.179688 12.039062 37.132812 C 12.90625 38.015625 14.167969 39.097656 14.835938 39.535156 Z M 38.597656 36.527344 C 37.722656 37.597656 35.386719 39.597656 34.390625 40.128906 C 33.710938 40.492188 33.703125 40.492188 34.203125 40.128906 C 36.410156 38.523438 37.3125 37.753906 38.167969 36.769531 C 39.328125 35.421875 39.652344 35.242188 38.597656 36.527344 Z M 4.859375 37.109375 C 4.980469 37.339844 5.035156 37.53125 4.976562 37.53125 C 4.917969 37.53125 4.769531 37.339844 4.644531 37.109375 C 4.523438 36.878906 4.46875 36.6875 4.527344 36.6875 C 4.585938 36.6875 4.734375 36.878906 4.859375 37.109375 Z M 45.191406 37.109375 C 45.066406 37.339844 44.917969 37.53125 44.859375 37.53125 C 44.800781 37.53125 44.855469 37.339844 44.980469 37.109375 C 45.105469 36.878906 45.253906 36.6875 45.3125 36.6875 C 45.367188 36.6875 45.316406 36.878906 45.191406 37.109375 Z M 11.824219 41.644531 C 12.347656 42.085938 12.585938 42.316406 12.355469 42.15625 C 11.265625 41.410156 9.621094 39.902344 8.824219 38.925781 C 8.125 38.066406 8.242188 38.148438 9.410156 39.34375 C 10.21875 40.167969 11.304688 41.203125 11.824219 41.644531 Z M 40.992188 38.976562 C 40.207031 39.917969 38.519531 41.445312 37.484375 42.15625 C 37.25 42.316406 37.488281 42.085938 38.011719 41.644531 C 38.535156 41.203125 39.578125 40.195312 40.332031 39.402344 C 41.089844 38.609375 41.738281 37.957031 41.777344 37.957031 C 41.820312 37.957031 41.464844 38.414062 40.992188 38.976562 Z M 8.007812 41.183594 C 8.644531 41.855469 9.878906 42.941406 10.757812 43.601562 C 12.597656 44.980469 13.042969 45.375 12.144531 44.820312 C 10.207031 43.636719 7.054688 40.675781 5.933594 38.988281 C 5.53125 38.382812 5.566406 38.402344 6.15625 39.113281 C 6.542969 39.578125 7.375 40.507812 8.007812 41.183594 Z M 43.902344 39.042969 C 42.640625 40.808594 39.578125 43.660156 37.695312 44.824219 C 36.753906 45.402344 37.101562 45.085938 38.644531 43.953125 C 40.394531 42.667969 42.199219 40.953125 43.3125 39.507812 C 44.253906 38.285156 44.675781 37.953125 43.902344 39.042969 Z M 17.648438 41.28125 C 17.554688 41.375 16.261719 40.734375 16.261719 40.589844 C 16.261719 40.539062 16.59375 40.652344 16.996094 40.84375 C 17.402344 41.039062 17.695312 41.234375 17.648438 41.28125 Z M 33.578125 40.585938 C 33.578125 40.714844 32.386719 41.335938 32.160156 41.324219 C 32.070312 41.316406 32.324219 41.132812 32.730469 40.910156 C 33.5625 40.453125 33.578125 40.449219 33.578125 40.585938 Z M 18.582031 41.542969 C 18.757812 41.65625 18.804688 41.746094 18.6875 41.746094 C 18.574219 41.746094 18.335938 41.65625 18.160156 41.542969 C 17.988281 41.429688 17.9375 41.339844 18.054688 41.339844 C 18.171875 41.339844 18.410156 41.429688 18.582031 41.542969 Z M 31.675781 41.542969 C 31.5 41.65625 31.265625 41.746094 31.148438 41.746094 C 31.03125 41.746094 31.078125 41.65625 31.253906 41.542969 C 31.425781 41.429688 31.664062 41.339844 31.78125 41.339844 C 31.898438 41.339844 31.851562 41.429688 31.675781 41.542969 Z M 21.011719 42.265625 C 21.59375 42.429688 21.878906 42.5625 21.644531 42.5625 C 21.195312 42.566406 19.386719 42.023438 19.746094 41.992188 C 19.859375 41.980469 20.429688 42.105469 21.011719 42.265625 Z M 29.457031 42.289062 C 28.992188 42.441406 28.421875 42.5625 28.191406 42.5625 C 27.960938 42.558594 28.195312 42.433594 28.71875 42.28125 C 29.960938 41.921875 30.550781 41.925781 29.457031 42.289062 Z M 23.917969 42.746094 C 23.660156 42.796875 23.183594 42.796875 22.863281 42.75 C 22.542969 42.703125 22.753906 42.660156 23.335938 42.660156 C 23.914062 42.65625 24.179688 42.695312 23.917969 42.746094 Z M 27.085938 42.746094 C 26.824219 42.796875 26.351562 42.796875 26.03125 42.75 C 25.710938 42.703125 25.921875 42.660156 26.503906 42.660156 C 27.082031 42.65625 27.34375 42.695312 27.085938 42.746094 Z M 16.367188 44.460938 C 16.277344 44.550781 14.347656 43.550781 13.832031 43.140625 C 13.601562 42.957031 14.089844 43.164062 14.921875 43.597656 C 15.753906 44.035156 16.40625 44.421875 16.367188 44.460938 Z M 36.003906 43.148438 C 35.5 43.539062 33.660156 44.5 33.425781 44.496094 C 33.261719 44.492188 36.121094 42.851562 36.320312 42.832031 C 36.378906 42.828125 36.238281 42.96875 36.003906 43.148438 Z M 17.316406 44.710938 C 17.492188 44.820312 17.539062 44.914062 17.421875 44.914062 C 17.304688 44.914062 17.066406 44.820312 16.894531 44.710938 C 16.71875 44.597656 16.671875 44.503906 16.789062 44.503906 C 16.90625 44.503906 17.140625 44.597656 17.316406 44.710938 Z M 32.941406 44.710938 C 32.769531 44.820312 32.53125 44.914062 32.414062 44.914062 C 32.296875 44.914062 32.347656 44.820312 32.519531 44.710938 C 32.695312 44.597656 32.933594 44.503906 33.046875 44.503906 C 33.164062 44.503906 33.117188 44.597656 32.941406 44.710938 Z M 15.957031 46.769531 C 15.863281 46.863281 12.882812 45.378906 12.882812 45.234375 C 12.882812 45.179688 13.589844 45.484375 14.457031 45.914062 C 15.324219 46.34375 16 46.730469 15.957031 46.769531 Z M 36.953125 45.234375 C 36.953125 45.363281 34.070312 46.824219 33.84375 46.808594 C 33.71875 46.800781 36.679688 45.1875 36.902344 45.140625 C 36.929688 45.136719 36.953125 45.175781 36.953125 45.234375 Z M 20.0625 45.554688 C 20.484375 45.691406 20.507812 45.722656 20.167969 45.730469 C 19.933594 45.730469 19.554688 45.652344 19.324219 45.554688 C 18.785156 45.324219 19.339844 45.324219 20.0625 45.554688 Z M 30.515625 45.554688 C 30.28125 45.652344 29.902344 45.730469 29.667969 45.730469 C 29.332031 45.722656 29.351562 45.691406 29.773438 45.554688 C 30.496094 45.324219 31.050781 45.324219 30.515625 45.554688 Z M 21.382812 45.90625 C 21.234375 45.964844 21 45.964844 20.851562 45.90625 C 20.707031 45.847656 20.828125 45.796875 21.117188 45.796875 C 21.40625 45.796875 21.527344 45.847656 21.382812 45.90625 Z M 28.984375 45.90625 C 28.839844 45.964844 28.601562 45.964844 28.457031 45.90625 C 28.308594 45.847656 28.429688 45.796875 28.71875 45.796875 C 29.011719 45.796875 29.128906 45.847656 28.984375 45.90625 Z M 23.179688 46.121094 C 22.976562 46.171875 22.597656 46.175781 22.335938 46.125 C 22.070312 46.074219 22.238281 46.03125 22.703125 46.027344 C 23.164062 46.027344 23.378906 46.066406 23.179688 46.121094 Z M 27.613281 46.121094 C 27.410156 46.171875 27.03125 46.175781 26.769531 46.125 C 26.507812 46.074219 26.671875 46.03125 27.136719 46.027344 C 27.601562 46.027344 27.816406 46.066406 27.613281 46.121094 Z M 17.949219 47.382812 C 18.582031 47.628906 18.601562 47.652344 18.078125 47.550781 C 17.742188 47.484375 17.171875 47.292969 16.8125 47.128906 C 16.316406 46.898438 16.285156 46.859375 16.683594 46.957031 C 16.972656 47.03125 17.542969 47.222656 17.949219 47.382812 Z M 33.023438 47.140625 C 32.664062 47.300781 32.09375 47.484375 31.757812 47.550781 C 31.421875 47.613281 31.621094 47.484375 32.203125 47.261719 C 33.410156 46.796875 34.015625 46.707031 33.023438 47.140625 Z M 19.371094 47.792969 C 19.300781 47.863281 19.117188 47.871094 18.964844 47.808594 C 18.796875 47.742188 18.847656 47.691406 19.09375 47.679688 C 19.316406 47.671875 19.441406 47.722656 19.371094 47.792969 Z M 30.984375 47.792969 C 30.914062 47.863281 30.734375 47.871094 30.582031 47.808594 C 30.410156 47.742188 30.460938 47.691406 30.707031 47.679688 C 30.929688 47.671875 31.054688 47.722656 30.984375 47.792969 Z M 20.214844 48.003906 C 20.144531 48.074219 19.964844 48.082031 19.8125 48.019531 C 19.640625 47.953125 19.691406 47.902344 19.9375 47.890625 C 20.160156 47.882812 20.285156 47.933594 20.214844 48.003906 Z M 30.140625 48.003906 C 30.070312 48.074219 29.886719 48.082031 29.734375 48.019531 C 29.566406 47.953125 29.617188 47.902344 29.863281 47.890625 C 30.085938 47.882812 30.210938 47.933594 30.140625 48.003906 Z M 21.386719 48.226562 C 21.242188 48.28125 20.957031 48.285156 20.75 48.234375 C 20.546875 48.179688 20.664062 48.132812 21.011719 48.128906 C 21.359375 48.125 21.527344 48.167969 21.386719 48.226562 Z M 29.199219 48.226562 C 29.054688 48.28125 28.769531 48.285156 28.566406 48.234375 C 28.359375 48.179688 28.476562 48.132812 28.824219 48.128906 C 29.171875 48.125 29.339844 48.167969 29.199219 48.226562 Z M 23.496094 48.445312 C 23.234375 48.496094 22.761719 48.496094 22.441406 48.449219 C 22.121094 48.402344 22.332031 48.359375 22.914062 48.359375 C 23.492188 48.355469 23.753906 48.398438 23.496094 48.445312 Z M 27.507812 48.445312 C 27.25 48.496094 26.773438 48.496094 26.453125 48.449219 C 26.132812 48.402344 26.34375 48.359375 26.925781 48.359375 C 27.503906 48.355469 27.769531 48.398438 27.507812 48.445312 Z M 27.507812 48.445312 "/>
<path style=" stroke:none;fill-rule:evenodd;fill:rgb(100%,100%,100%);fill-opacity:1;" d="M 23.546875 1.570312 C 17.492188 2.082031 12.570312 4.308594 8.441406 8.398438 C -0.34375 17.105469 -0.847656 30.898438 7.273438 40.320312 C 10.160156 43.667969 14.574219 46.429688 18.90625 47.601562 C 20.835938 48.121094 21.335938 48.171875 24.917969 48.171875 C 28.5 48.171875 29 48.121094 30.933594 47.601562 C 43.589844 44.179688 51.035156 30.996094 47.398438 18.425781 C 45.269531 11.054688 39.488281 5.109375 32.132812 2.714844 C 29.523438 1.863281 25.84375 1.375 23.546875 1.570312 Z M 29.265625 4.058594 C 36.246094 5.542969 42.265625 10.621094 44.796875 17.160156 C 45.925781 20.066406 46.304688 22.429688 46.179688 25.710938 C 46.015625 30.007812 45.015625 33.246094 42.816406 36.597656 C 41.5 38.609375 38.828125 41.347656 36.980469 42.589844 C 30.652344 46.839844 22.71875 47.484375 15.917969 44.296875 C 13.480469 43.15625 11.761719 41.941406 9.8125 39.976562 C 5.808594 35.949219 3.875 31.46875 3.65625 25.710938 C 3.566406 23.378906 3.625 22.496094 3.964844 20.855469 C 4.859375 16.570312 6.726562 13.0625 9.703125 10.070312 C 13.441406 6.3125 17.246094 4.46875 22.914062 3.667969 C 24.035156 3.507812 27.765625 3.738281 29.265625 4.058594 Z M 21.222656 7.644531 C 14.710938 9.140625 9.839844 13.707031 7.898438 20.125 C 7.394531 21.792969 7.328125 22.367188 7.328125 24.972656 C 7.328125 27.566406 7.398438 28.152344 7.890625 29.785156 C 9.425781 34.867188 12.578125 38.601562 17.210938 40.832031 C 20.105469 42.226562 21.34375 42.492188 24.917969 42.492188 C 28.492188 42.492188 29.730469 42.226562 32.625 40.832031 C 37.257812 38.601562 40.410156 34.867188 41.945312 29.785156 C 42.441406 28.152344 42.507812 27.566406 42.507812 24.972656 C 42.507812 22.367188 42.441406 21.792969 41.9375 20.125 C 40.867188 16.578125 38.800781 13.421875 36.199219 11.355469 C 34.144531 9.722656 32.785156 8.976562 30.40625 8.167969 C 28.59375 7.554688 28.121094 7.480469 25.445312 7.421875 C 23.457031 7.375 22.074219 7.449219 21.222656 7.644531 Z M 17.375 17.558594 C 18.203125 17.914062 19.320312 19.058594 19.625 19.867188 C 19.75 20.191406 19.851562 20.949219 19.851562 21.546875 C 19.851562 22.601562 19.804688 22.683594 18.535156 23.960938 L 17.222656 25.289062 L 19.851562 25.289062 L 19.84375 27.242188 C 19.84375 28.675781 19.738281 29.417969 19.453125 30.046875 C 18.136719 32.941406 14.28125 33.191406 12.496094 30.503906 C 11.9375 29.65625 11.929688 29.605469 11.863281 25.382812 C 11.820312 22.695312 11.882812 20.796875 12.03125 20.246094 C 12.308594 19.214844 13.351562 17.949219 14.25 17.558594 C 15.089844 17.195312 16.527344 17.195312 17.375 17.558594 Z M 35.539062 17.550781 C 36.988281 18.15625 38.007812 19.90625 38.007812 21.800781 C 38.011719 22.546875 37.867188 22.785156 36.695312 23.960938 L 35.382812 25.289062 L 38.058594 25.289062 L 37.976562 27.472656 C 37.90625 29.410156 37.832031 29.753906 37.335938 30.507812 C 35.558594 33.195312 31.695312 32.9375 30.382812 30.046875 C 30.046875 29.308594 29.996094 28.605469 29.992188 24.828125 C 29.988281 22.25 30.078125 20.214844 30.210938 19.867188 C 30.503906 19.085938 31.621094 17.921875 32.414062 17.566406 C 33.238281 17.199219 34.675781 17.191406 35.539062 17.550781 Z M 35.539062 17.550781 "/>
</g>
</svg>
