<svg width="50" height="50" viewBox="0 0 50 50" fill="none" xmlns="http://www.w3.org/2000/svg">
<g clip-path="url(#clip0_30_147)">
<circle cx="25" cy="25" r="25" fill="#4C67EF"/>
<path d="M37.6962 13.1752L37.6952 8L34.2168 11.8222C34.1758 11.8673 32.5326 13.672 30.4412 15.9715C30.3091 15.3834 30.1189 14.8032 29.8708 14.2391C28.8651 11.9506 27.0308 10.1921 24.7062 9.28777C22.3816 8.38342 19.8448 8.44063 17.5632 9.45037C15.2816 10.4591 13.5284 12.2989 12.6268 14.6306C12.0904 16.0167 12.0133 17.3647 12.0093 18.5009C11.9973 21.5392 12.0003 36.8087 12.0003 36.9623L12.0013 42.1375L15.4798 38.3153C15.5208 38.2702 17.1639 36.4655 19.2554 34.166C19.3875 34.7541 19.5776 35.3343 19.8258 35.8984C20.8315 38.1869 22.6668 39.9454 24.9914 40.8497C26.0871 41.2763 27.2289 41.4891 28.3707 41.4881C29.6506 41.4881 30.9285 41.2201 32.1343 40.6871C34.4159 39.6784 36.1692 37.8386 37.0708 35.5069C37.6072 34.1208 37.6832 32.7718 37.6882 31.6356C37.6992 28.5983 37.6962 13.3287 37.6962 13.1752ZM16.0121 18.516C16.0151 17.709 16.0592 16.8558 16.3584 16.082C16.8737 14.75 17.8744 13.6991 19.1773 13.123C19.8668 12.8179 20.5963 12.6653 21.3268 12.6653C21.9783 12.6653 22.6307 12.7867 23.2572 13.0306C24.5851 13.5476 25.6328 14.5513 26.2072 15.8591C26.7816 17.166 26.8146 18.6193 26.2993 19.9513C25.9971 20.7322 25.4327 21.4157 24.9203 21.9808C23.7005 23.3268 19.2254 28.244 16.0021 31.7871C16.0031 27.0165 16.0051 20.4009 16.0121 18.516ZM33.6844 31.6215C33.6814 32.4285 33.6374 33.2817 33.3382 34.0555C32.8228 35.3875 31.8221 36.4384 30.5192 37.0145C29.2163 37.5906 27.7673 37.6238 26.4394 37.1068C25.1115 36.5899 24.0637 35.5862 23.4893 34.2784C22.9149 32.9715 22.8819 31.5181 23.3973 30.1862C23.6995 29.4053 24.2639 28.7218 24.7762 28.1567C25.9961 26.8107 30.4712 21.8935 33.6944 18.3504C33.6934 23.121 33.6924 29.7365 33.6844 31.6215Z" fill="white"/>
</g>
<defs>
<clipPath id="clip0_30_147">
<rect width="50" height="50" fill="white"/>
</clipPath>
</defs>
</svg>
