<?xml version="1.0" standalone="no"?>
<!DOCTYPE svg PUBLIC "-//W3C//DTD SVG 20010904//EN"
 "http://www.w3.org/TR/2001/REC-SVG-20010904/DTD/svg10.dtd">
<svg version="1.0" xmlns="http://www.w3.org/2000/svg"
 width="250.000000pt" height="250.000000pt" viewBox="0 0 250.000000 250.000000"
 preserveAspectRatio="xMidYMid meet">

<g transform="translate(0.000000,250.000000) scale(0.100000,-0.100000)"
fill="#000000" stroke="none">
<path d="M1179 2496 c-2 -2 -55 -11 -117 -20 -321 -47 -610 -220 -808 -483
-104 -138 -196 -347 -222 -503 -39 -234 -39 -234 -7 -439 49 -314 223 -602
482 -797 138 -104 347 -196 503 -222 234 -39 234 -39 439 -7 314 49 602 223
797 482 104 138 196 347 222 503 39 234 39 234 7 439 -49 314 -223 602 -482
797 -142 107 -350 198 -513 223 -41 7 -99 16 -129 22 -54 9 -164 12 -172 5z
m756 -1032 l0 -669 -29 -79 c-43 -116 -120 -207 -228 -270 -55 -31 -183 -66
-242 -66 -55 0 -170 31 -231 62 -101 52 -196 161 -234 269 l-18 49 -182 -200
c-100 -110 -186 -200 -192 -200 -6 0 -9 231 -7 688 l4 687 23 55 c45 108 108
186 201 247 70 46 190 83 266 83 61 0 187 -36 247 -70 98 -55 188 -163 227
-272 5 -16 13 -28 17 -27 5 0 87 88 183 195 96 107 179 193 185 191 7 -3 10
-231 10 -673z"/>
<path d="M990 1881 c-48 -15 -87 -40 -123 -80 -73 -80 -71 -72 -75 -501 l-2
-385 57 60 c32 33 99 105 149 160 50 55 126 138 169 185 42 47 93 104 112 127
147 179 17 446 -216 442 -25 0 -57 -4 -71 -8z"/>
<path d="M1682 1555 c-13 -17 -49 -57 -80 -90 -31 -33 -81 -87 -111 -120 -30
-33 -94 -103 -142 -155 -169 -185 -179 -202 -179 -309 0 -78 18 -127 67 -181
123 -137 344 -112 440 48 l28 47 3 305 c2 168 2 345 0 395 l-3 90 -23 -30z"/>
</g>
</svg>
