<?xml version="1.0" standalone="no"?>
<!DOCTYPE svg PUBLIC "-//W3C//DTD SVG 20010904//EN"
 "http://www.w3.org/TR/2001/REC-SVG-20010904/DTD/svg10.dtd">
<svg version="1.0" xmlns="http://www.w3.org/2000/svg"
 width="250.000000pt" height="250.000000pt" viewBox="0 0 250.000000 250.000000"
 preserveAspectRatio="xMidYMid meet">

<g transform="translate(0.000000,250.000000) scale(0.100000,-0.100000)"
fill="#000000" stroke="none">
<path d="M1064 2485 c-175 -33 -302 -78 -429 -150 -318 -182 -534 -481 -611
-850 -26 -124 -26 -346 0 -470 107 -510 481 -884 991 -991 124 -26 346 -26
470 0 256 53 467 167 645 345 180 181 293 391 346 646 26 124 26 346 0 470
-105 504 -472 876 -971 987 -116 26 -341 33 -441 13z m229 -128 c93 -39 199
-246 248 -484 7 -35 18 -63 24 -63 6 0 45 11 86 25 158 54 229 68 349 69 98 1
120 -2 149 -19 109 -64 103 -196 -18 -355 -38 -51 -41 -58 -35 -101 6 -42 3
-49 -26 -83 -31 -35 -36 -37 -87 -35 -47 2 -58 -1 -80 -24 l-26 -26 34 -27
c19 -15 81 -75 139 -133 180 -180 237 -313 176 -406 -60 -92 -276 -98 -553
-15 l-92 28 -11 -57 c-61 -312 -155 -496 -265 -517 -100 -18 -198 75 -265 250
-6 17 -24 32 -50 42 -69 28 -92 106 -47 161 19 22 23 36 19 66 -2 20 -7 39
-11 41 -4 3 -44 -9 -89 -25 -161 -56 -239 -72 -362 -73 -98 -1 -120 2 -149 19
-86 50 -101 140 -44 255 37 77 166 236 247 305 31 27 56 54 56 60 0 6 -32 37
-71 69 -38 32 -103 95 -143 141 -131 150 -174 271 -124 344 12 19 37 43 55 54
48 28 148 40 234 28 70 -9 74 -9 102 15 43 36 109 34 148 -5 16 -16 29 -39 29
-50 0 -15 10 -23 40 -32 22 -7 42 -10 45 -7 3 2 14 50 25 106 71 355 195 520
343 459z"/>
<path d="M1160 2262 c-32 -33 -56 -72 -78 -127 -35 -87 -80 -265 -84 -332 l-3
-43 115 -50 c63 -27 120 -50 126 -50 6 0 68 27 137 60 l125 60 -14 63 c-51
219 -114 368 -182 430 -58 51 -84 49 -142 -11z"/>
<path d="M1920 1843 c-90 -15 -322 -84 -342 -102 -4 -4 0 -70 9 -147 l17 -139
110 -76 111 -77 35 29 c29 25 34 34 32 66 -5 76 46 131 113 120 29 -5 37 -1
63 31 86 108 119 216 78 261 -32 35 -130 50 -226 34z"/>
<path d="M374 1796 c-36 -16 -64 -51 -64 -81 0 -32 46 -121 94 -184 44 -57
169 -179 233 -228 l32 -25 114 85 113 86 12 133 c12 145 13 140 -48 158 -28 8
-38 6 -55 -9 -49 -46 -132 -30 -161 32 -12 25 -25 37 -47 41 -53 11 -191 6
-223 -8z"/>
<path d="M1407 1668 c-48 -23 -87 -44 -87 -48 0 -3 24 -19 53 -34 28 -15 76
-42 106 -59 l54 -30 -7 78 c-8 93 -16 135 -25 135 -4 0 -46 -19 -94 -42z"/>
<path d="M975 1633 c-3 -32 -8 -75 -10 -95 -3 -21 -1 -38 4 -38 19 0 192 113
184 121 -10 10 -148 69 -162 69 -5 0 -12 -26 -16 -57z"/>
<path d="M1188 1556 c-20 -12 -80 -48 -133 -81 l-95 -59 1 -151 c1 -82 4 -161
8 -175 5 -19 37 -42 136 -97 72 -40 138 -73 147 -73 18 0 96 43 222 123 l78
50 -3 159 c-4 154 -5 160 -28 177 -40 30 -267 151 -282 150 -8 0 -31 -11 -51
-23z m150 -166 c48 -30 72 -75 72 -140 0 -100 -60 -160 -160 -160 -100 0 -160
60 -160 160 0 65 24 110 72 140 45 27 131 27 176 0z"/>
<path d="M1610 1255 c0 -63 3 -115 6 -115 8 0 154 113 154 120 0 6 -146 110
-155 110 -3 0 -5 -52 -5 -115z"/>
<path d="M805 1304 c-38 -30 -70 -61 -70 -67 0 -11 141 -116 158 -117 4 0 7
54 7 120 0 90 -3 120 -12 120 -7 -1 -44 -26 -83 -56z"/>
<path d="M1720 1139 l-105 -79 -6 -58 c-4 -31 -10 -96 -13 -144 l-7 -87 83
-26 c312 -99 534 -80 514 44 -9 59 -53 134 -120 209 -66 73 -198 197 -226 212
-11 5 -46 -15 -120 -71z"/>
<path d="M591 1124 c-198 -183 -298 -366 -237 -433 58 -64 246 -49 499 41 89
31 89 31 84 62 -3 17 -11 79 -18 137 l-13 106 -60 39 c-34 21 -84 55 -113 76
-29 21 -56 38 -61 38 -5 0 -42 -30 -81 -66z"/>
<path d="M1431 945 l-104 -65 77 -35 c127 -58 123 -58 130 22 4 37 8 85 10
106 2 20 1 37 -2 37 -4 -1 -54 -30 -111 -65z"/>
<path d="M984 910 c12 -131 7 -128 111 -77 l89 43 -70 38 c-38 21 -84 48 -103
59 l-34 20 7 -83z"/>
<path d="M1136 785 c-59 -29 -112 -57 -117 -62 -13 -13 11 -93 28 -93 8 0 30
-15 49 -34 40 -40 46 -89 14 -129 -27 -34 -26 -41 18 -123 56 -107 101 -154
149 -154 61 0 140 121 188 287 27 92 57 245 49 252 -6 6 -258 111 -264 110 -3
0 -54 -25 -114 -54z"/>
</g>
</svg>
