<svg width="50" height="50" viewBox="0 0 50 50" fill="none" xmlns="http://www.w3.org/2000/svg">
<g clip-path="url(#clip0_954_5310)">
<mask id="mask0_954_5310" style="mask-type:luminance" maskUnits="userSpaceOnUse" x="0" y="0" width="50" height="50">
<path d="M50 0H0V50H50V0Z" fill="white"/>
</mask>
<g mask="url(#mask0_954_5310)">
<path d="M24.9512 50C38.7853 50 50 38.7853 50 24.9512C50 11.1171 38.7853 -0.0976562 24.9512 -0.0976562C11.1171 -0.0976562 -0.0976562 11.1171 -0.0976562 24.9512C-0.0976562 38.7853 11.1171 50 24.9512 50Z" fill="white"/>
<path d="M33.708 12.936H17.0088V16.6017H33.708V12.936Z" fill="#E50913"/>
<path d="M34.0276 25.9174C34.0276 27.2093 33.7311 28.3954 33.138 29.4755C32.5451 30.5345 31.6343 31.3923 30.4059 32.0489C29.1775 32.7054 27.6526 33.0337 25.8311 33.0337H22.4636V41.0396H17.031V18.7375H25.8311C27.6102 18.7375 29.1139 19.0447 30.3423 19.6588C31.5708 20.2731 32.492 21.1203 33.1063 22.2004C33.7205 23.2805 34.0276 24.5196 34.0276 25.9174ZM25.4181 28.7131C26.4559 28.7131 27.229 28.4696 27.7373 27.9824C28.2456 27.4953 28.4998 26.807 28.4998 25.9174C28.4998 25.0279 28.2456 24.3395 27.7373 23.8524C27.229 23.3653 26.4559 23.1217 25.4181 23.1217H22.4636V28.7131H25.4181Z" fill="black"/>
</g>
</g>
<defs>
<clipPath id="clip0_954_5310">
<rect width="50" height="50" fill="white"/>
</clipPath>
</defs>
</svg>
