<?xml version="1.0" encoding="UTF-8"?>
<svg xmlns="http://www.w3.org/2000/svg" xmlns:xlink="http://www.w3.org/1999/xlink" width="50px" height="50px" viewBox="0 0 50 50" version="1.1">
<g id="surface1">
<path style=" stroke:none;fill-rule:nonzero;fill:rgb(100%,100%,100%);fill-opacity:1;" d="M 24.933594 50 C 38.707031 50 49.867188 38.875 49.867188 25.148438 C 49.867188 11.425781 38.707031 0.296875 24.933594 0.296875 C 11.164062 0.296875 0 11.425781 0 25.148438 C 0 38.875 11.164062 50 24.933594 50 Z M 24.933594 50 "/>
<path style=" stroke:none;fill-rule:nonzero;fill:rgb(23.921569%,34.509804%,48.235294%);fill-opacity:1;" d="M 33.695312 14.019531 L 7.042969 29.375 L 15.929688 34.484375 L 42.585938 19.128906 Z M 33.695312 14.019531 "/>
<path style=" stroke:none;fill-rule:nonzero;fill:rgb(83.529412%,96.470588%,100%);fill-opacity:1;" d="M 42.589844 29.355469 L 42.585938 19.128906 L 33.699219 24.246094 L 33.707031 34.476562 Z M 42.589844 29.355469 "/>
<path style=" stroke:none;fill-rule:nonzero;fill:rgb(35.294118%,48.235294%,57.254902%);fill-opacity:1;" d="M 24.8125 19.136719 L 15.921875 14.027344 L 15.925781 24.257812 Z M 24.8125 19.136719 "/>
<path style=" stroke:none;fill-rule:nonzero;fill:rgb(35.294118%,48.235294%,57.254902%);fill-opacity:1;" d="M 33.707031 34.476562 L 33.699219 24.246094 L 24.816406 29.367188 Z M 33.707031 34.476562 "/>
<path style=" stroke:none;fill-rule:nonzero;fill:rgb(66.666667%,93.333333%,100%);fill-opacity:1;" d="M 15.925781 24.257812 L 15.921875 14.027344 L 7.039062 19.148438 L 7.042969 29.375 Z M 15.925781 24.257812 "/>
</g>
</svg>
