<svg width="50" height="50" viewBox="0 0 50 50" fill="none" xmlns="http://www.w3.org/2000/svg">
<g clip-path="url(#clip0_954_5372)">
<path d="M29.5283 49.5846C43.1062 47.0827 52.0852 34.0475 49.5833 20.4696C47.0815 6.89166 34.0462 -2.08727 20.4683 0.41458C6.89038 2.91643 -2.08855 15.9517 0.413301 29.5296C2.91515 43.1075 15.9504 52.0864 29.5283 49.5846Z" fill="white"/>
<path d="M25 0C11.1914 0 0 11.1914 0 25C0 38.8086 11.1914 50 25 50C38.8086 50 50 38.8086 50 25C50 11.1914 38.8086 0 25 0ZM25 46.8359C12.9297 46.8359 3.16406 37.0508 3.16406 25C3.16406 12.9492 12.9297 3.16406 25 3.16406C37.0703 3.16406 46.8555 12.9297 46.8555 25C46.8555 37.0703 37.0703 46.8359 25 46.8359Z" fill="black"/>
<path d="M24.8633 42.5586C34.6289 42.5586 42.5586 34.6484 42.5586 24.8633C42.5586 15.0977 34.6484 7.16797 24.8633 7.16797C15.0781 7.16797 7.16797 15.0781 7.16797 24.8633C7.1875 34.6289 15.0977 42.5586 24.8633 42.5586Z" fill="black"/>
<path d="M15 22.4219C15.293 22.4219 15.5664 22.5 15.8008 22.6367C16.0547 22.7734 16.25 22.9688 16.3867 23.2031C16.543 23.4375 16.6016 23.7109 16.6016 24.0039C16.6016 24.2969 16.5234 24.5703 16.3867 24.8242C16.2305 25.0586 16.0352 25.2539 15.8008 25.4102C15.5469 25.5469 15.293 25.625 15 25.625H13.6133V27.5977H12.7734V22.4219H15ZM14.9805 24.8437C15.1172 24.8437 15.2539 24.8047 15.3711 24.7266C15.4883 24.6484 15.5859 24.5508 15.6445 24.4141C15.7227 24.2773 15.7617 24.1406 15.7617 23.9844C15.7617 23.75 15.6836 23.5547 15.5273 23.3984C15.3711 23.2422 15.1953 23.1641 14.9805 23.1641H13.6133V24.8242H14.9805V24.8437Z" fill="white"/>
<path d="M23.2031 25.0195C23.2031 25.3906 23.1445 25.7422 23.0078 26.0742C22.8711 26.3867 22.6953 26.6797 22.4414 26.9141C22.207 27.1484 21.9141 27.3437 21.582 27.4805C21.25 27.6172 20.8984 27.6758 20.5078 27.6758C20.1172 27.6758 19.7461 27.6172 19.4336 27.4805C19.1016 27.3437 18.8281 27.1484 18.5742 26.9141C18.3398 26.6797 18.1445 26.3867 18.0078 26.0742C17.8711 25.7422 17.8125 25.3906 17.8125 25.0195C17.8125 24.6484 17.8711 24.2969 18.0078 23.9844C18.1445 23.6523 18.3203 23.3789 18.5742 23.1445C18.8086 22.9102 19.1016 22.7148 19.4336 22.5781C19.7656 22.4414 20.1172 22.3633 20.5078 22.3633C20.8984 22.3633 21.25 22.4414 21.582 22.5781C21.9141 22.7148 22.1875 22.8906 22.4414 23.1445C22.6953 23.3789 22.8711 23.6719 23.0078 23.9844C23.125 24.2969 23.2031 24.6289 23.2031 25.0195ZM22.3242 25.0195C22.3242 24.668 22.2461 24.3359 22.0898 24.0625C21.9336 23.7695 21.7188 23.5547 21.4453 23.3984C21.1719 23.2227 20.8594 23.1445 20.5078 23.1445C20.1563 23.1445 19.8242 23.2227 19.5508 23.3984C19.2773 23.5547 19.0625 23.7891 18.9063 24.0625C18.75 24.3359 18.6719 24.668 18.6719 25.0195C18.6719 25.3711 18.75 25.7031 18.9063 25.9961C19.0625 26.2695 19.2773 26.5039 19.5508 26.6602C19.8242 26.8164 20.1563 26.8945 20.5078 26.8945C20.8594 26.8945 21.1719 26.8164 21.4453 26.6602C21.7188 26.4844 21.9336 26.2695 22.0898 25.9766C22.2461 25.6836 22.3242 25.3711 22.3242 25.0195Z" fill="white"/>
<path d="M34.2773 27.5977V23.2031H32.7344V22.4414H36.7187V23.2031H35.1367V27.5977H34.2773Z" fill="white"/>
<path d="M25.4297 22.4219H24.5703V23.1641V26.8555V27.5977H25.4297V26.8555V23.1641V22.4219Z" fill="white"/>
<path d="M30.6836 22.4219V24.1211C30.6836 24.3945 30.6836 24.668 30.7031 24.9609V26.3086L27.6172 22.4219H26.8555V27.5977H27.6953V25.7617V25.4492V23.8281L30.7617 27.6172H31.543V22.4414H30.6836V22.4219Z" fill="white"/>
</g>
<defs>
<clipPath id="clip0_954_5372">
<rect width="50" height="50" fill="white"/>
</clipPath>
</defs>
</svg>
