<?xml version="1.0" encoding="UTF-8"?>
<svg xmlns="http://www.w3.org/2000/svg" xmlns:xlink="http://www.w3.org/1999/xlink" width="50px" height="50px" viewBox="0 0 50 50" version="1.1">
<g id="surface1">
<path style=" stroke:none;fill-rule:nonzero;fill:rgb(100%,100%,100%);fill-opacity:1;" d="M 29.527344 49.585938 C 43.105469 47.082031 52.085938 34.046875 49.582031 20.46875 C 47.082031 6.890625 34.046875 -2.085938 20.46875 0.414062 C 6.890625 2.917969 -2.089844 15.953125 0.414062 29.53125 C 2.914062 43.109375 15.949219 52.085938 29.527344 49.585938 Z M 29.527344 49.585938 "/>
<path style=" stroke:none;fill-rule:nonzero;fill:rgb(0%,0%,0%);fill-opacity:1;" d="M 25 0 C 11.191406 0 0 11.191406 0 25 C 0 38.808594 11.191406 50 25 50 C 38.808594 50 50 38.808594 50 25 C 50 11.191406 38.808594 0 25 0 Z M 25 46.835938 C 12.929688 46.835938 3.164062 37.050781 3.164062 25 C 3.164062 12.949219 12.929688 3.164062 25 3.164062 C 37.070312 3.164062 46.855469 12.929688 46.855469 25 C 46.855469 37.070312 37.070312 46.835938 25 46.835938 Z M 25 46.835938 "/>
<path style=" stroke:none;fill-rule:nonzero;fill:rgb(0%,0%,0%);fill-opacity:1;" d="M 24.863281 42.558594 C 34.628906 42.558594 42.558594 34.648438 42.558594 24.863281 C 42.558594 15.097656 34.648438 7.167969 24.863281 7.167969 C 15.078125 7.167969 7.167969 15.078125 7.167969 24.863281 C 7.1875 34.628906 15.097656 42.558594 24.863281 42.558594 Z M 24.863281 42.558594 "/>
<path style=" stroke:none;fill-rule:nonzero;fill:rgb(100%,100%,100%);fill-opacity:1;" d="M 15 22.421875 C 15.292969 22.421875 15.566406 22.5 15.800781 22.636719 C 16.054688 22.773438 16.25 22.96875 16.386719 23.203125 C 16.542969 23.4375 16.601562 23.710938 16.601562 24.003906 C 16.601562 24.296875 16.523438 24.570312 16.386719 24.824219 C 16.230469 25.058594 16.035156 25.253906 15.800781 25.410156 C 15.546875 25.546875 15.292969 25.625 15 25.625 L 13.613281 25.625 L 13.613281 27.597656 L 12.773438 27.597656 L 12.773438 22.421875 Z M 14.980469 24.84375 C 15.117188 24.84375 15.253906 24.804688 15.371094 24.726562 C 15.488281 24.648438 15.585938 24.550781 15.644531 24.414062 C 15.722656 24.277344 15.761719 24.140625 15.761719 23.984375 C 15.761719 23.75 15.683594 23.554688 15.527344 23.398438 C 15.371094 23.242188 15.195312 23.164062 14.980469 23.164062 L 13.613281 23.164062 L 13.613281 24.824219 L 14.980469 24.824219 Z M 14.980469 24.84375 "/>
<path style=" stroke:none;fill-rule:nonzero;fill:rgb(100%,100%,100%);fill-opacity:1;" d="M 23.203125 25.019531 C 23.203125 25.390625 23.144531 25.742188 23.007812 26.074219 C 22.871094 26.386719 22.695312 26.679688 22.441406 26.914062 C 22.207031 27.148438 21.914062 27.34375 21.582031 27.480469 C 21.25 27.617188 20.898438 27.675781 20.507812 27.675781 C 20.117188 27.675781 19.746094 27.617188 19.433594 27.480469 C 19.101562 27.34375 18.828125 27.148438 18.574219 26.914062 C 18.339844 26.679688 18.144531 26.386719 18.007812 26.074219 C 17.871094 25.742188 17.8125 25.390625 17.8125 25.019531 C 17.8125 24.648438 17.871094 24.296875 18.007812 23.984375 C 18.144531 23.652344 18.320312 23.378906 18.574219 23.144531 C 18.808594 22.910156 19.101562 22.714844 19.433594 22.578125 C 19.765625 22.441406 20.117188 22.363281 20.507812 22.363281 C 20.898438 22.363281 21.25 22.441406 21.582031 22.578125 C 21.914062 22.714844 22.1875 22.890625 22.441406 23.144531 C 22.695312 23.378906 22.871094 23.671875 23.007812 23.984375 C 23.125 24.296875 23.203125 24.628906 23.203125 25.019531 Z M 22.324219 25.019531 C 22.324219 24.667969 22.246094 24.335938 22.089844 24.0625 C 21.933594 23.769531 21.71875 23.554688 21.445312 23.398438 C 21.171875 23.222656 20.859375 23.144531 20.507812 23.144531 C 20.15625 23.144531 19.824219 23.222656 19.550781 23.398438 C 19.277344 23.554688 19.0625 23.789062 18.90625 24.0625 C 18.75 24.335938 18.671875 24.667969 18.671875 25.019531 C 18.671875 25.371094 18.75 25.703125 18.90625 25.996094 C 19.0625 26.269531 19.277344 26.503906 19.550781 26.660156 C 19.824219 26.816406 20.15625 26.894531 20.507812 26.894531 C 20.859375 26.894531 21.171875 26.816406 21.445312 26.660156 C 21.71875 26.484375 21.933594 26.269531 22.089844 25.976562 C 22.246094 25.683594 22.324219 25.371094 22.324219 25.019531 Z M 22.324219 25.019531 "/>
<path style=" stroke:none;fill-rule:nonzero;fill:rgb(100%,100%,100%);fill-opacity:1;" d="M 34.277344 27.597656 L 34.277344 23.203125 L 32.734375 23.203125 L 32.734375 22.441406 L 36.71875 22.441406 L 36.71875 23.203125 L 35.136719 23.203125 L 35.136719 27.597656 Z M 34.277344 27.597656 "/>
<path style=" stroke:none;fill-rule:nonzero;fill:rgb(100%,100%,100%);fill-opacity:1;" d="M 25.429688 22.421875 L 24.570312 22.421875 L 24.570312 27.597656 L 25.429688 27.597656 Z M 25.429688 22.421875 "/>
<path style=" stroke:none;fill-rule:nonzero;fill:rgb(100%,100%,100%);fill-opacity:1;" d="M 30.683594 22.421875 L 30.683594 24.121094 C 30.683594 24.394531 30.683594 24.667969 30.703125 24.960938 L 30.703125 26.308594 L 27.617188 22.421875 L 26.855469 22.421875 L 26.855469 27.597656 L 27.695312 27.597656 L 27.695312 23.828125 L 30.761719 27.617188 L 31.542969 27.617188 L 31.542969 22.441406 L 30.683594 22.441406 Z M 30.683594 22.421875 "/>
</g>
</svg>
