<?xml version="1.0" encoding="UTF-8"?>
<svg xmlns="http://www.w3.org/2000/svg" xmlns:xlink="http://www.w3.org/1999/xlink" width="50px" height="50px" viewBox="0 0 50 51" version="1.1">
<defs>
<clipPath id="clip1">
  <path d="M 0 0.945312 L 50 0.945312 L 50 50.945312 L 0 50.945312 Z M 0 0.945312 "/>
</clipPath>
<radialGradient id="radial0" gradientUnits="userSpaceOnUse" cx="0" cy="0" fx="0" fy="0" r="1" gradientTransform="matrix(34.978037,-36.129342,36.129342,34.978037,7.34649,43.27)">
<stop offset="0" style="stop-color:rgb(74.117647%,74.901961%,100%);stop-opacity:1;"/>
<stop offset="1" style="stop-color:rgb(80%,95.686275%,92.941176%);stop-opacity:1;"/>
</radialGradient>
</defs>
<g id="surface1">
<g clip-path="url(#clip1)" clip-rule="nonzero">
<path style=" stroke:none;fill-rule:nonzero;fill:rgb(100%,100%,100%);fill-opacity:1;" d="M 25 50.945312 C 38.808594 50.945312 50 39.753906 50 25.945312 C 50 12.136719 38.808594 0.945312 25 0.945312 C 11.191406 0.945312 0 12.136719 0 25.945312 C 0 39.753906 11.191406 50.945312 25 50.945312 Z M 25 50.945312 "/>
<path style=" stroke:none;fill-rule:nonzero;fill:url(#radial0);" d="M 25 50.945312 C 38.808594 50.945312 50 39.753906 50 25.945312 C 50 12.136719 38.808594 0.945312 25 0.945312 C 11.191406 0.945312 0 12.136719 0 25.945312 C 0 39.753906 11.191406 50.945312 25 50.945312 Z M 25 50.945312 "/>
</g>
<path style=" stroke:none;fill-rule:evenodd;fill:rgb(20.784314%,20.784314%,29.019608%);fill-opacity:1;" d="M 13.636719 33.953125 C 13.339844 34.460938 13.703125 35.097656 14.289062 35.097656 L 18.8125 35.109375 L 30.785156 26.445312 L 23.816406 35.128906 L 25.109375 35.132812 L 29.597656 35.144531 L 31.769531 28.300781 L 32.585938 35.15625 L 35.929688 35.164062 C 36.515625 35.167969 36.882812 34.53125 36.589844 34.023438 L 31.210938 24.699219 L 25.828125 15.363281 C 25.535156 14.859375 24.808594 14.855469 24.515625 15.359375 L 22.777344 18.335938 L 28.375 22.476562 L 21.269531 20.910156 L 19.070312 24.664062 L 18.355469 25.898438 L 29.503906 24.25 L 15.800781 30.242188 Z M 32.773438 23.433594 C 33.070312 23.5 33.242188 23.804688 33.144531 24.09375 L 32.304688 26.589844 L 30.144531 22.851562 Z M 32.773438 23.433594 "/>
</g>
</svg>
