<svg width="50" height="51" viewBox="0 0 50 51" fill="none" xmlns="http://www.w3.org/2000/svg">
<g clip-path="url(#clip0_538_615)">
<path d="M25 50.9453C38.8071 50.9453 50 39.7524 50 25.9453C50 12.1382 38.8071 0.945312 25 0.945312C11.1929 0.945312 0 12.1382 0 25.9453C0 39.7524 11.1929 50.9453 25 50.9453Z" fill="white"/>
<path d="M25 50.9453C38.8071 50.9453 50 39.7524 50 25.9453C50 12.1382 38.8071 0.945312 25 0.945312C11.1929 0.945312 0 12.1382 0 25.9453C0 39.7524 11.1929 50.9453 25 50.9453Z" fill="url(#paint0_radial_538_615)"/>
<path fill-rule="evenodd" clip-rule="evenodd" d="M13.6363 33.9527C13.3406 34.4592 13.704 35.0965 14.2895 35.098L18.8138 35.1102L30.7838 26.4461L23.8153 35.13L25.1101 35.1317L29.5968 35.1452L31.769 28.3005L32.5858 35.1564L35.9307 35.1648C36.5162 35.1663 36.8829 34.531 36.5898 34.023L31.2123 24.7003L25.8276 15.3645C25.5362 14.8592 24.8091 14.8573 24.5151 15.3611L22.7789 18.3361L28.3742 22.4755L21.2682 20.9088L19.072 24.6631L18.3551 25.8983L29.5027 24.2482L15.8017 30.2438L13.6363 33.9527ZM32.7747 23.4346C33.0687 23.4998 33.2412 23.8063 33.1449 24.0922L32.3032 26.5913L30.146 22.8516L32.7747 23.4346Z" fill="#35354A"/>
</g>
<defs>
<radialGradient id="paint0_radial_538_615" cx="0" cy="0" r="1" gradientUnits="userSpaceOnUse" gradientTransform="translate(7.34649 43.27) rotate(-45.9276) scale(50.2871)">
<stop stop-color="#BDBFFF"/>
<stop offset="1" stop-color="#CCF4ED"/>
</radialGradient>
<clipPath id="clip0_538_615">
<rect width="50" height="50" fill="white" transform="translate(0 0.945312)"/>
</clipPath>
</defs>
</svg>
