<?xml version="1.0" encoding="UTF-8"?>
<svg xmlns="http://www.w3.org/2000/svg" xmlns:xlink="http://www.w3.org/1999/xlink" width="50px" height="50px" viewBox="0 0 50 50" version="1.1">
<g id="surface1">
<path style=" stroke:none;fill-rule:nonzero;fill:rgb(9.411765%,9.411765%,9.411765%);fill-opacity:1;" d="M 25 50 C 38.808594 50 50 38.808594 50 25 C 50 11.191406 38.808594 0 25 0 C 11.191406 0 0 11.191406 0 25 C 0 38.808594 11.191406 50 25 50 Z M 25 50 "/>
<path style=" stroke:none;fill-rule:nonzero;fill:rgb(96.470588%,82.745098%,4.705882%);fill-opacity:1;" d="M 26.140625 22 L 36.078125 12.039062 L 38.101562 14.078125 L 28.160156 24.019531 Z M 11.878906 36.238281 L 21.839844 26.28125 L 23.859375 28.320312 L 13.917969 38.261719 Z M 26.140625 28.320312 L 28.160156 26.28125 L 38.121094 36.238281 L 36.078125 38.261719 Z M 11.878906 14.078125 L 13.917969 12.039062 L 23.859375 21.980469 L 21.839844 24.019531 Z M 22.960938 25.140625 L 25 23.101562 L 27.039062 25.140625 L 25 27.179688 Z M 22.960938 25.140625 "/>
</g>
</svg>
