<svg width="50" height="50" viewBox="0 0 50 50" fill="none" xmlns="http://www.w3.org/2000/svg">
<g clip-path="url(#clip0_954_5354)">
<path d="M25 50C38.8071 50 50 38.8071 50 25C50 11.1929 38.8071 0 25 0C11.1929 0 0 11.1929 0 25C0 38.8071 11.1929 50 25 50Z" fill="#181818"/>
<path d="M26.1399 22L36.0799 12.04L38.0999 14.08L28.1599 24.02L26.1399 22ZM11.8799 36.24L21.8399 26.28L23.8599 28.32L13.9199 38.26L11.8799 36.24ZM26.1399 28.32L28.1599 26.28L38.1199 36.24L36.0799 38.26L26.1399 28.32ZM11.8799 14.08L13.9199 12.04L23.8599 21.98L21.8399 24.02L11.8799 14.08ZM22.9599 25.14L24.9999 23.1L27.0399 25.14L24.9999 27.18L22.9599 25.14Z" fill="#F6D30C"/>
</g>
<defs>
<clipPath id="clip0_954_5354">
<rect width="50" height="50" fill="white"/>
</clipPath>
</defs>
</svg>
