<svg width="50" height="44" viewBox="0 0 50 44" fill="none" xmlns="http://www.w3.org/2000/svg">
<path fill-rule="evenodd" clip-rule="evenodd" d="M14.7499 1.18742C10.6779 2.69906 8.44009 4.23773 5.36918 7.63697C1.00682 12.4654 0.104214 14.9557 0.0977758 22.1778C0.0926254 27.793 0.30701 29.0683 1.77422 32.1566C3.676 36.1604 7.14992 39.8783 11.2297 42.2771C14.5291 44.2175 18.4775 44.0791 21.513 41.9172C23.7032 40.3579 26.0305 35.3955 27.0252 30.166C27.7076 26.5742 27.7192 26.5607 31.9116 24.3866C42.39 18.9543 44.3678 12.2227 37.38 5.78155C33.2874 2.00955 29.4401 0.483753 23.2687 0.185675C19.2932 -0.00617638 17.3496 0.222371 14.7499 1.18742ZM29.6306 3.59329C31.5852 4.2403 33.9589 5.77576 35.9077 7.65371C38.4661 10.1201 39.041 11.0806 39.0372 12.8852C39.0326 15.4688 37.3626 18.2622 34.7662 20.0301C33.7535 20.7189 29.7388 22.8904 25.8438 24.856C16.7489 29.4443 12.5449 32.5957 10.9251 36.0361L9.65687 38.7311L7.0012 35.7149C0.610882 28.4541 0.567103 16.5941 6.90528 9.39389C12.8977 2.58639 20.6246 0.614443 29.6306 3.59329ZM40.0762 26.2865C39.473 26.9528 38.6953 28.5275 38.3483 29.7861C37.9292 31.3042 36.9847 32.5268 35.5458 33.4165C31.0837 36.1739 31.6721 40.3244 36.9068 43.0207C39.0758 44.1377 43.0029 43.8763 45.3245 42.4606C51.0813 38.9506 51.6292 30.5555 46.3713 26.4191C44.2474 24.7484 41.5203 24.6905 40.0762 26.2865ZM42.5175 29.3863C41.613 30.0482 41.2454 30.0759 41.0529 29.499C40.9112 29.0748 41.3394 28.3305 42.0038 27.8451C42.9083 27.1833 43.2759 27.1556 43.4684 27.7324C43.61 28.1567 43.1819 28.9009 42.5175 29.3863ZM24.5904 30.0643C23.3369 35.2565 22.8199 36.6503 21.5491 38.2669C18.7395 41.838 13.6606 42.5488 12.89 39.4785C12.2218 36.8158 14.8838 33.6541 20.6935 30.213C24.6741 27.8548 25.1279 27.8374 24.5904 30.0643ZM47.3389 31.8701C48.4881 36.0342 46.4936 39.8789 42.5008 41.1968C38.5002 42.5172 33.657 38.9512 35.8549 36.3027C36.2849 35.7844 38.3708 34.4363 40.4902 33.3064C42.6096 32.1766 44.6575 30.7506 45.0406 30.137C45.9586 28.6672 46.5844 29.1391 47.3389 31.8701Z" fill="white"/>
<path fill-rule="evenodd" clip-rule="evenodd" d="M16.0491 0.862322C9.60085 2.96882 5.14771 6.78847 1.86435 13.0275C0.298635 16.0025 0.0977704 17.0789 0.095839 22.4997C0.0939076 27.9571 0.292197 29.0078 1.93774 32.257C4.85028 38.0055 11.7016 43.745 15.6525 43.745C21.2362 43.745 25.1112 39.1173 26.8263 30.4016C27.555 26.6959 27.6278 26.6019 31.2125 24.7369C41.8068 19.2234 44.2841 12.0586 37.6639 6.07836C32.0017 0.962754 22.6493 -1.2944 16.0491 0.862322ZM30.6388 3.87658C32.4112 4.63883 35.0269 6.52773 36.4517 8.07284C41.8158 13.8921 39.2412 18.6041 27.642 24.1961C16.6569 29.4919 11.6146 33.2884 10.9142 36.7932C10.4481 39.1212 9.7412 39.0639 7.33147 36.5022C1.90877 30.737 0.363014 21.1928 3.70947 14.1303C8.62228 3.76327 20.1617 -0.630642 30.6388 3.87658ZM41.1205 25.5056C40.046 25.9382 38.3979 29.1649 38.3979 30.8368C38.3979 31.563 38.1185 32.1566 37.7766 32.1566C37.4347 32.1566 36.1311 33.056 34.8795 34.155C32.0681 36.6226 31.9393 38.6731 34.4385 41.1717C39.3307 46.0646 48.4243 43.1765 49.7106 36.3226C50.9274 29.8338 45.9477 23.5632 41.1205 25.5056ZM43.5482 27.9352C43.5482 28.8874 40.9589 31.0692 40.4419 30.5523C40.0131 30.1242 42.1918 27.0062 42.9192 27.0062C43.265 27.0062 43.5482 27.4241 43.5482 27.9352ZM24.6103 30.9984C23.8822 35.5501 21.0662 40.0225 18.2599 41.0829C12.4883 43.2647 10.4796 38.5251 15.2515 33.985C17.6084 31.7433 23.0581 28.3994 24.4777 28.3241C24.7886 28.3074 24.8479 29.5106 24.6103 30.9984ZM47.7329 34.0983C47.7329 36.8357 47.438 37.5774 45.6283 39.3871C43.8804 41.1344 43.0364 41.4917 40.6531 41.4917C38.414 41.4917 37.4122 41.1202 36.0937 39.8017C33.8482 37.5561 34.5892 36.2125 39.5232 33.5826C41.5975 32.4772 43.8392 30.9707 44.5049 30.2349C45.6039 29.0207 45.8086 28.9904 46.7241 29.9066C47.3679 30.5503 47.7329 32.0665 47.7329 34.0983Z" fill="white"/>
<path fill-rule="evenodd" clip-rule="evenodd" d="M15.4143 1.12306C8.91714 3.45039 4.67839 7.28806 1.75941 13.4865C0.373963 16.4287 0.09198 17.9525 0.09198 22.4997C0.09198 27.0668 0.372675 28.57 1.78838 31.5901C5.17926 38.8212 12.4445 44.4094 17.2775 43.5022C21.9766 42.6209 24.8987 38.6744 26.4921 31.0583C26.9737 28.7593 27.4591 26.817 27.5711 26.7423C27.6832 26.6683 29.8553 25.3929 32.397 23.9077C37.2931 21.0486 40.6492 17.6158 41.1598 14.9434C42.9238 5.71526 26.7831 -2.94895 15.4143 1.12306ZM30.8049 3.98216C34.8718 5.84402 38.7584 9.57032 39.2348 12.0644C39.6816 14.402 38.3586 17.3699 35.9753 19.3753C34.9001 20.2799 29.9983 23.0875 25.0822 25.6137C15.433 30.5729 11.5432 33.7732 10.752 37.4042L10.2826 39.5603L7.71646 36.9181C4.31271 33.4127 2.25063 28.863 1.85469 23.983C0.603154 8.56664 16.6311 -2.50666 30.8049 3.98216ZM40.3653 26.3264C39.6764 27.0153 38.9335 28.5385 38.7133 29.7115C38.4358 31.1909 37.6279 32.2944 36.0789 33.3097C31.4932 36.3155 31.6837 40.0174 36.5521 42.5011C44.736 46.6762 52.9831 37.9798 48.7359 29.6542C46.5561 25.382 42.8021 23.8896 40.3653 26.3264ZM44.192 27.6031C44.192 28.3569 40.8848 30.9952 40.4657 30.5761C39.9134 30.0237 42.2594 27.0063 43.2411 27.0063C43.7639 27.0063 44.192 27.2747 44.192 27.6031ZM24.4719 31.6603C23.2532 36.8847 21.8137 39.2712 18.9417 40.8279C13.8937 43.5634 10.5466 39.2571 14.2761 34.8245C15.7607 33.0605 23.8185 27.6629 24.9818 27.6533C25.2161 27.6513 24.9869 29.4546 24.4719 31.6603ZM48.0548 33.8987C48.0548 40.6161 40.1973 44.2169 35.786 39.5217C33.7934 37.4003 34.4456 36.3188 39.2876 33.7127C41.3162 32.6208 43.6113 31.0892 44.3884 30.3083L45.8015 28.8887L46.9282 30.2722C47.5481 31.0332 48.0548 32.6652 48.0548 33.8987Z" fill="white"/>
<path fill-rule="evenodd" clip-rule="evenodd" d="M15.7388 1.20869C-0.333576 6.34748 -5.3172 26.3972 6.53187 38.2469C10.8202 42.5346 14.7602 44.2091 18.0256 43.1321C19.2713 42.7207 21.0154 41.8149 21.8999 41.1183C23.6884 39.7116 26.0672 34.0224 26.7194 29.5924C27.1288 26.8105 27.3059 26.618 31.6335 24.2527C34.1024 22.9033 36.8064 21.1599 37.6433 20.379C41.1391 17.1143 41.9664 12.3483 39.6784 8.64647C36.9352 4.20814 27.9806 -0.0943511 21.6849 0.00157461C20.4314 0.0202447 17.7558 0.563609 15.7388 1.20869ZM28.4628 2.86711C32.7531 4.17659 37.6272 7.8752 38.8176 10.724C40.9306 15.781 38.1513 18.915 26.028 25.1457C16.109 30.2433 11.6378 33.8183 10.9631 37.1898C10.7378 38.3165 10.3245 39.2384 10.0451 39.2384C9.76501 39.2384 8.36283 37.9051 6.9278 36.275C-1.1924 27.0494 0.382325 12.6483 10.2543 5.85626C15.8231 2.02503 22.2482 0.970488 28.4628 2.86711ZM40.4207 26.7146C39.7112 27.6166 38.9464 29.1926 38.7217 30.2169C38.459 31.4124 37.5165 32.5493 36.0918 33.3901C32.115 35.7368 31.9155 38.8785 35.5619 41.7466C39.8039 45.0834 46.4775 43.3606 48.7572 38.3409C50.2965 34.952 50.2868 33.1848 48.7121 29.9317C47.4644 27.3539 44.6388 25.0749 42.6907 25.0749C42.1518 25.0749 41.1301 25.8127 40.4207 26.7146ZM44.192 27.4479C44.192 28.0898 41.4861 30.869 40.861 30.869C39.9687 30.869 40.2681 29.0909 41.3407 28.0177C42.3617 26.9972 44.192 26.6309 44.192 27.4479ZM25.2915 28.7767C25.117 29.396 24.7726 30.9173 24.526 32.1566C23.033 39.6543 15.8573 44.7036 12.9653 40.291C11.1234 37.4789 13.5525 34.2116 20.6555 29.9465C24.9663 27.3584 25.746 27.1614 25.2915 28.7767ZM47.3074 30.5774C50.4201 37.4087 43.6577 44.2336 37.1238 40.855C34.9684 39.7399 34.0909 37.6521 35.2111 36.3027C35.6411 35.7844 37.6768 34.4627 39.7344 33.3663C41.7926 32.2693 43.9718 30.824 44.5777 30.1544C46.0243 28.5559 46.4144 28.6164 47.3074 30.5774Z" fill="white"/>
<path fill-rule="evenodd" clip-rule="evenodd" d="M17.6251 0.667289C6.21962 3.3545 -1.67654 15.0272 0.381673 26.1597C1.73236 33.4681 6.13914 39.4631 12.3807 42.4851C15.0261 43.7656 15.61 43.8326 17.9747 43.1237C19.4271 42.6885 21.4261 41.4647 22.4175 40.403C24.2659 38.4247 26.8095 31.4504 26.8095 28.3602C26.8095 26.9155 27.3664 26.3548 30.1894 24.9552C38.3637 20.9037 41.358 17.3474 40.796 12.3593C40.2629 7.63381 34.6419 2.74804 27.6394 0.924164C23.5854 -0.131662 21.2696 -0.191535 17.6251 0.667289ZM31.4352 4.02404C33.326 4.94918 35.8832 6.74859 37.118 8.02266C39.0153 9.9798 39.3635 10.7942 39.3635 13.2722C39.3635 15.9394 39.0951 16.4487 36.4117 18.8784C34.7887 20.3475 29.7291 23.4216 25.1685 25.709C16.0691 30.2729 11.6288 33.8614 10.9631 37.1899C10.7378 38.3165 10.3341 39.2384 10.065 39.2384C9.03494 39.2384 4.72601 33.7964 3.25494 30.6373C1.10079 26.0116 1.09114 19.0084 3.2324 14.4104C7.17179 5.95028 14.1576 1.69028 23.38 2.12484C26.7258 2.28257 28.9443 2.80534 31.4352 4.02404ZM41.1353 26.0638C40.3589 26.6078 39.3822 28.1909 38.9657 29.5821C38.4339 31.3551 37.4663 32.6022 35.7274 33.7526C33.6795 35.1078 33.2475 35.7651 33.2475 37.5259C33.2475 39.9202 34.9889 41.9333 38.0695 43.1012C40.7586 44.1203 43.8308 43.3787 46.4498 41.079C50.8045 37.2562 50.7884 30.9058 46.4138 27.0649C43.8418 24.8071 43.124 24.6706 41.1353 26.0638ZM44.192 27.5381C44.192 28.4046 41.0155 31.1266 40.5494 30.6598C39.7402 29.8506 41.5634 27.0063 42.8909 27.0063C43.6062 27.0063 44.192 27.2458 44.192 27.5381ZM25.2097 29.7424C24.3663 33.9986 22.6429 38.001 20.9593 39.6138C18.735 41.7454 14.6147 42.4027 13.0831 40.8711C11.3977 39.1856 11.7872 37.5111 14.5677 34.4949C16.7901 32.0839 23.5191 27.7177 25.0899 27.6675C25.3841 27.6578 25.4376 28.5913 25.2097 29.7424ZM47.0724 30.1931C48.3406 32.6453 48.3297 36.6285 47.0498 38.4549C44.7244 41.775 40.158 42.6859 36.6274 40.5331C32.9906 38.3152 33.8855 36.4707 40.2481 33.0702C42.1512 32.053 44.1791 30.5716 44.7547 29.7778C45.3302 28.984 45.8665 28.3254 45.9457 28.3138C46.0255 28.3029 46.5322 29.1488 47.0724 30.1931Z" fill="white"/>
<path fill-rule="evenodd" clip-rule="evenodd" d="M17.9399 0.63764C13.8428 1.46427 9.01178 4.35234 5.85717 7.86039C-1.55421 16.1036 -1.4879 28.9692 6.00911 37.3076C14.972 47.2768 23.6929 44.3121 26.3376 30.3965L27.0625 26.5813L31.1989 24.3796C36.3931 21.6145 40.1632 17.9236 40.6962 15.0806C42.2709 6.6874 29.1703 -1.62659 17.9399 0.63764ZM29.7646 3.2624C34.7224 5.11782 39.6855 9.8671 39.6855 12.7565C39.6855 17.2605 36.2502 20.5477 27.0046 24.8901C16.6285 29.7636 12.046 33.3785 11.0095 37.5072C10.7706 38.4594 10.3438 39.2384 10.0605 39.2384C9.77789 39.2384 8.236 37.7815 6.63488 36.0001C-3.14632 25.1212 1.61327 7.85267 15.789 2.78728C19.4155 1.49131 25.5915 1.70119 29.7646 3.2624ZM41.1346 26.0644C40.3582 26.6084 39.4189 28.1818 39.0475 29.5602C38.5743 31.3171 37.7212 32.4701 36.1954 33.4127C32.7994 35.5114 32.2039 38.677 34.754 41.0732C40.4432 46.4174 49.3424 42.1631 49.3424 34.0983C49.3424 30.954 48.078 28.2681 45.7275 26.4191C43.6867 24.8141 42.9959 24.7607 41.1346 26.0644ZM44.192 27.8979C44.192 28.8076 41.5415 30.869 40.3724 30.869C39.6822 30.869 40.1232 29.1404 41.152 27.811C41.9928 26.7243 44.192 26.7867 44.192 27.8979ZM25.5181 28.4548C25.5123 29.7932 24.244 34.2586 23.1386 36.8351C21.3476 41.0075 15.5077 43.2956 13.0136 40.8022C10.3019 38.0905 13.1276 34.088 20.9999 29.4894C24.2923 27.5664 25.5239 27.2844 25.5181 28.4548ZM47.9917 31.9043C48.8306 34.941 47.8044 38.1491 45.329 40.2318C43.574 41.7086 42.8471 41.9101 40.1908 41.6545C36.536 41.3037 34.3915 39.6601 34.6658 37.4209C34.8113 36.2319 35.9868 35.2172 39.5863 33.1738C42.1872 31.697 44.6002 29.9793 44.9491 29.3555C45.8054 27.8258 47.185 28.9814 47.9917 31.9043Z" fill="white"/>
<path fill-rule="evenodd" clip-rule="evenodd" d="M18.4691 0.663424C11.5078 2.04437 5.47347 6.76597 2.21458 13.3823C0.986214 15.875 0.735777 17.4202 0.736421 22.4997C0.737065 29.5519 1.86886 32.776 5.92091 37.2607C15.0673 47.385 24.3361 43.83 26.5057 29.3652C26.9486 26.4108 27.0986 26.235 30.7689 24.3822C41.5074 18.9614 43.7079 12.5872 37.0189 6.2754C32.1241 1.65616 24.7339 -0.579747 18.4691 0.663424ZM29.4716 3.01135C34.21 4.53779 39.6855 9.75898 39.6855 12.7501C39.6855 17.6442 37.3755 19.7681 25.5264 25.7695C16.8358 30.1712 12.4947 33.6007 11.247 37.0508C10.8118 38.254 10.1861 39.2384 9.85644 39.2384C8.65318 39.2384 4.65972 34.3185 3.06374 30.8691C0.872261 26.1339 0.779555 19.1417 2.84678 14.5604C5.26746 9.19694 9.43926 5.19511 14.8993 2.99976C18.3217 1.62397 25.1833 1.62912 29.4716 3.01135ZM41.8802 25.7374C40.6267 26.2105 39.7106 27.8374 38.7198 31.3519C38.4951 32.1483 38.0631 32.8004 37.7599 32.8004C37.4573 32.8004 36.3178 33.5505 35.2285 34.4672C32.8207 36.4933 32.6623 38.7118 34.7746 40.8241C40.2192 46.2687 49.3379 42.0512 49.3379 34.088C49.3379 29.1018 45.2112 24.4813 41.8802 25.7374ZM44.192 27.9282C44.192 28.9551 40.7149 31.6841 40.14 31.1092C39.7196 30.6882 40.2411 28.9885 41.152 27.811C42.0044 26.7095 44.192 26.7938 44.192 27.9282ZM25.2522 30.3862C24.5472 34.8258 22.0242 39.6601 19.8166 40.8022C17.4957 42.0022 13.8596 42.1258 12.7748 41.041C10.2659 38.5322 13.2666 33.92 20.0117 29.9188C25.1505 26.8704 25.8013 26.9284 25.2522 30.3862ZM48.0715 31.8863C50.4459 39.0788 41.0355 45.1942 35.7409 39.8996C33.2456 37.4042 33.9261 36.0291 38.9052 33.5061C40.9273 32.4805 43.2817 30.8922 44.136 29.9761C45.9638 28.0151 46.9526 28.4954 48.0715 31.8863Z" fill="white"/>
</svg>
