<?xml version="1.0" encoding="UTF-8"?>
<svg xmlns="http://www.w3.org/2000/svg" xmlns:xlink="http://www.w3.org/1999/xlink" width="50px" height="50px" viewBox="0 0 50 50" version="1.1">
<g id="surface1">
<path style=" stroke:none;fill-rule:nonzero;fill:rgb(100%,100%,100%);fill-opacity:1;" d="M 25 50 C 38.808594 50 50 38.808594 50 25 C 50 11.191406 38.808594 0 25 0 C 11.191406 0 0 11.191406 0 25 C 0 38.808594 11.191406 50 25 50 Z M 25 50 "/>
<path style=" stroke:none;fill-rule:evenodd;fill:rgb(0%,0%,0%);fill-opacity:1;" d="M 23.546875 24.992188 C 30.242188 24.949219 35.757812 19.707031 36.234375 13.125 C 36.25 12.875 36.175781 12.652344 36.003906 12.464844 C 35.832031 12.277344 35.617188 12.183594 35.363281 12.183594 L 24.339844 12.183594 C 23.863281 12.183594 23.46875 12.578125 23.46875 13.054688 L 23.46875 22.84375 C 23.46875 24 22.410156 24.992188 21.1875 24.992188 L 12.773438 24.992188 C 12.414062 24.992188 12.105469 25.195312 11.96875 25.53125 C 11.832031 25.863281 11.902344 26.222656 12.15625 26.480469 L 23.214844 37.535156 C 23.382812 37.707031 23.589844 37.789062 23.828125 37.789062 L 34.164062 37.789062 C 34.523438 37.789062 34.832031 37.585938 34.96875 37.253906 C 35.105469 36.917969 35.039062 36.558594 34.78125 36.304688 L 23.929688 25.453125 L 23.726562 25.246094 L 23.46875 24.992188 Z M 49.992188 25 C 49.992188 11.191406 38.800781 0 24.992188 0 C 11.183594 0 0 11.191406 0 25 C 0 38.808594 11.191406 50 25 50 C 38.808594 50 49.992188 38.800781 49.992188 25 Z M 49.992188 25 "/>
</g>
</svg>
