<?xml version="1.0" encoding="UTF-8"?>
<svg xmlns="http://www.w3.org/2000/svg" xmlns:xlink="http://www.w3.org/1999/xlink" width="50px" height="50px" viewBox="0 0 50 50" version="1.1">
<defs>
<linearGradient id="linear0" gradientUnits="userSpaceOnUse" x1="11.0242" y1="11.0242" x2="56.878" y2="22.4877" >
<stop offset="0" style="stop-color:rgb(31.372549%,51.764706%,91.372549%);stop-opacity:1;"/>
<stop offset="1" style="stop-color:rgb(43.529412%,31.372549%,91.372549%);stop-opacity:1;"/>
</linearGradient>
<linearGradient id="linear1" gradientUnits="userSpaceOnUse" x1="-0.00000519908" y1="-0.0000042037" x2="45.854" y2="11.4635" >
<stop offset="0" style="stop-color:rgb(91.372549%,31.372549%,38.431373%);stop-opacity:1;"/>
<stop offset="1" style="stop-color:rgb(91.372549%,31.372549%,81.568627%);stop-opacity:1;"/>
</linearGradient>
<linearGradient id="linear2" gradientUnits="userSpaceOnUse" x1="11.0242" y1="11.0239" x2="43.9087" y2="19.245" >
<stop offset="0" style="stop-color:rgb(31.372549%,51.764706%,91.372549%);stop-opacity:1;"/>
<stop offset="1" style="stop-color:rgb(91.372549%,31.372549%,38.431373%);stop-opacity:1;"/>
</linearGradient>
</defs>
<g id="surface1">
<path style=" stroke:none;fill-rule:evenodd;fill:url(#linear0);" d="M 20.40625 40.617188 C 25.988281 46.199219 35.035156 46.199219 40.617188 40.617188 C 46.199219 35.035156 46.199219 25.988281 40.617188 20.40625 C 35.035156 14.824219 25.988281 14.824219 20.40625 20.40625 C 14.824219 25.988281 14.824219 35.035156 20.40625 40.617188 Z M 16.730469 44.292969 C 24.34375 51.902344 36.683594 51.902344 44.292969 44.292969 C 51.902344 36.683594 51.902344 24.34375 44.292969 16.730469 C 36.683594 9.121094 24.34375 9.121094 16.730469 16.730469 C 9.121094 24.34375 9.121094 36.683594 16.730469 44.292969 Z M 16.730469 44.292969 "/>
<path style=" stroke:none;fill-rule:evenodd;fill:url(#linear1);" d="M 9.382812 29.59375 C 14.964844 35.175781 24.011719 35.175781 29.59375 29.59375 C 35.175781 24.011719 35.175781 14.964844 29.59375 9.382812 C 24.011719 3.800781 14.964844 3.800781 9.382812 9.382812 C 3.800781 14.964844 3.800781 24.011719 9.382812 29.59375 Z M 5.707031 33.269531 C 13.320312 40.878906 25.65625 40.878906 33.269531 33.269531 C 40.878906 25.65625 40.878906 13.320312 33.269531 5.707031 C 25.65625 -1.902344 13.320312 -1.902344 5.707031 5.707031 C -1.902344 13.320312 -1.902344 25.65625 5.707031 33.269531 Z M 5.707031 33.269531 "/>
<path style=" stroke:none;fill-rule:evenodd;fill:url(#linear2);" d="M 16.527344 33.472656 C 21.101562 34.433594 26.050781 33.136719 29.59375 29.59375 C 33.136719 26.050781 34.4375 21.101562 33.472656 16.527344 C 28.898438 15.5625 23.949219 16.863281 20.40625 20.40625 C 16.863281 23.949219 15.5625 28.898438 16.527344 33.472656 Z M 12.367188 37.632812 C 9.625 30.640625 11.082031 22.382812 16.730469 16.730469 C 22.382812 11.082031 30.640625 9.625 37.632812 12.367188 C 40.375 19.359375 38.917969 27.617188 33.269531 33.269531 C 27.617188 38.917969 19.359375 40.375 12.367188 37.632812 Z M 12.367188 37.632812 "/>
</g>
</svg>
