<?xml version="1.0" encoding="UTF-8"?>
<svg xmlns="http://www.w3.org/2000/svg" xmlns:xlink="http://www.w3.org/1999/xlink" width="50px" height="50px" viewBox="0 0 50 50" version="1.1">
<defs>
<linearGradient id="linear0" gradientUnits="userSpaceOnUse" x1="13.1285" y1="46.9274" x2="32.2626" y2="-0.00000137636" >
<stop offset="0" style="stop-color:rgb(24.705882%,67.843137%,42.352941%);stop-opacity:1;"/>
<stop offset="1" style="stop-color:rgb(43.137255%,76.078431%,71.764706%);stop-opacity:1;"/>
</linearGradient>
</defs>
<g id="surface1">
<path style=" stroke:none;fill-rule:nonzero;fill:url(#linear0);" d="M 25 50 C 38.808594 50 50 38.808594 50 25 C 50 11.191406 38.808594 0 25 0 C 11.191406 0 0 11.191406 0 25 C 0 38.808594 11.191406 50 25 50 Z M 25 50 "/>
<path style=" stroke:none;fill-rule:evenodd;fill:rgb(100%,100%,100%);fill-opacity:1;" d="M 25 48.042969 C 37.726562 48.042969 48.042969 37.664062 48.042969 24.859375 C 48.042969 12.054688 37.726562 1.675781 25 1.675781 C 12.273438 1.675781 1.957031 12.054688 1.957031 24.859375 C 1.957031 37.664062 12.273438 48.042969 25 48.042969 Z M 25 46.089844 C 36.648438 46.089844 46.089844 36.585938 46.089844 24.859375 C 46.089844 13.136719 36.648438 3.632812 25 3.632812 C 13.351562 3.632812 3.910156 13.136719 3.910156 24.859375 C 3.910156 36.585938 13.351562 46.089844 25 46.089844 Z M 25 46.089844 "/>
<path style=" stroke:none;fill-rule:nonzero;fill:rgb(100%,100%,100%);fill-opacity:1;" d="M 22.867188 19.738281 L 22.867188 19.757812 L 21.117188 10.523438 L 19.664062 10.054688 L 18.753906 11.285156 Z M 22.867188 19.738281 "/>
<path style=" stroke:none;fill-rule:nonzero;fill:rgb(100%,100%,100%);fill-opacity:1;" d="M 23.816406 15.882812 L 24.5625 19.460938 L 25.363281 15.828125 L 24.582031 15.308594 Z M 23.816406 15.882812 "/>
<path style=" stroke:none;fill-rule:nonzero;fill:rgb(100%,100%,100%);fill-opacity:1;" d="M 29.347656 16.519531 L 28.398438 16.609375 L 27.28125 20.148438 L 29.738281 17.375 Z M 29.347656 16.519531 "/>
<path style=" stroke:none;fill-rule:nonzero;fill:rgb(100%,100%,100%);fill-opacity:1;" d="M 37.46875 17.261719 L 37.46875 15.753906 L 35.996094 15.289062 L 29.105469 21.75 Z M 37.46875 17.261719 "/>
<path style=" stroke:none;fill-rule:nonzero;fill:rgb(100%,100%,100%);fill-opacity:1;" d="M 20.632812 21.082031 L 18.585938 18.007812 L 17.652344 18.15625 L 17.503906 19.085938 Z M 20.632812 21.082031 "/>
<path style=" stroke:none;fill-rule:nonzero;fill:rgb(100%,100%,100%);fill-opacity:1;" d="M 33.816406 24.207031 L 30.148438 24.933594 L 33.816406 25.734375 L 34.375 24.972656 Z M 33.816406 24.207031 "/>
<path style=" stroke:none;fill-rule:nonzero;fill:rgb(100%,100%,100%);fill-opacity:1;" d="M 18.996094 24.953125 L 9.570312 23.761719 L 8.660156 24.992188 L 9.570312 26.21875 Z M 18.996094 24.953125 "/>
<path style=" stroke:none;fill-rule:nonzero;fill:rgb(100%,100%,100%);fill-opacity:1;" d="M 15.511719 27 L 15.234375 27.878906 L 15.996094 28.4375 L 19.253906 26.609375 Z M 15.511719 27 "/>
<path style=" stroke:none;fill-rule:nonzero;fill:rgb(100%,100%,100%);fill-opacity:1;" d="M 16.59375 29.589844 L 16.554688 30.523438 L 17.449219 30.839844 L 20.054688 28.101562 Z M 16.59375 29.589844 "/>
<path style=" stroke:none;fill-rule:nonzero;fill:rgb(100%,100%,100%);fill-opacity:1;" d="M 21.285156 29.367188 L 18.511719 31.804688 L 18.753906 32.699219 L 19.703125 32.738281 Z M 21.285156 29.367188 "/>
<path style=" stroke:none;fill-rule:nonzero;fill:rgb(100%,100%,100%);fill-opacity:1;" d="M 24.582031 30.445312 L 23.835938 34.058594 L 24.601562 34.601562 L 25.363281 34.042969 Z M 24.582031 30.445312 "/>
<path style=" stroke:none;fill-rule:nonzero;fill:rgb(100%,100%,100%);fill-opacity:1;" d="M 37.484375 32.644531 L 29.105469 28.195312 L 36.035156 34.617188 L 37.484375 34.152344 Z M 37.484375 32.644531 "/>
<path style=" stroke:none;fill-rule:nonzero;fill:rgb(100%,100%,100%);fill-opacity:1;" d="M 28.25 33.332031 L 26.367188 30.1875 L 26.796875 33.796875 L 27.691406 34.078125 Z M 28.25 33.332031 "/>
<path style=" stroke:none;fill-rule:nonzero;fill:rgb(100%,100%,100%);fill-opacity:1;" d="M 22.886719 30.1875 L 18.808594 38.660156 L 19.722656 39.886719 L 21.171875 39.421875 Z M 22.886719 30.1875 "/>
</g>
</svg>
