<svg width="50" height="50" viewBox="0 0 50 50" fill="none" xmlns="http://www.w3.org/2000/svg">
<g clip-path="url(#clip0_965_5471)">
<path d="M25 50C38.8071 50 50 38.8071 50 25C50 11.1929 38.8071 0 25 0C11.1929 0 0 11.1929 0 25C0 38.8071 11.1929 50 25 50Z" fill="url(#paint0_linear_965_5471)"/>
<path fill-rule="evenodd" clip-rule="evenodd" d="M25 48.0447C37.7271 48.0447 48.0447 37.6649 48.0447 24.8604C48.0447 12.056 37.7271 1.67603 25 1.67603C12.2728 1.67603 1.95532 12.056 1.95532 24.8604C1.95532 37.6649 12.2728 48.0447 25 48.0447ZM25 46.0894C36.6475 46.0894 46.0894 36.585 46.0894 24.8604C46.0894 13.1359 36.6475 3.63133 25 3.63133C13.3527 3.63133 3.91063 13.1359 3.91063 24.8604C3.91063 36.585 13.3527 46.0894 25 46.0894Z" fill="white"/>
<path d="M22.8679 19.7393V19.7579L21.1174 10.5215L19.6649 10.0559L18.7524 11.285L22.8679 19.7393Z" fill="white"/>
<path d="M23.8174 15.8847L24.5623 19.4601L25.363 15.8288L24.5809 15.3074L23.8174 15.8847Z" fill="white"/>
<path d="M29.3484 16.5176L28.3987 16.6107L27.2812 20.1489L29.7395 17.3742L29.3484 16.5176Z" fill="white"/>
<path d="M37.4674 17.2625V15.7541L35.9961 15.2886L29.1062 21.7504L37.4674 17.2625Z" fill="white"/>
<path d="M20.6331 21.0802L18.5847 18.0076L17.6536 18.1565L17.5046 19.0876L20.6331 21.0802Z" fill="white"/>
<path d="M33.8174 24.2085L30.1489 24.9348L33.8174 25.7355L34.376 24.972L33.8174 24.2085Z" fill="white"/>
<path d="M18.9944 24.9535L9.57167 23.7617L8.65918 24.9908L9.57167 26.2198L18.9944 24.9535Z" fill="white"/>
<path d="M15.512 27.0019L15.2327 27.8771L15.9962 28.4358L19.255 26.6108L15.512 27.0019Z" fill="white"/>
<path d="M16.5922 29.5903L16.5549 30.5215L17.4488 30.838L20.0559 28.1006L16.5922 29.5903Z" fill="white"/>
<path d="M21.2849 29.3667L18.5103 31.8064L18.7523 32.7002L19.7021 32.7374L21.2849 29.3667Z" fill="white"/>
<path d="M24.5811 30.447L23.8362 34.0596L24.5997 34.5998L25.3632 34.0412L24.5811 30.447Z" fill="white"/>
<path d="M37.4861 32.6444L29.1062 28.1936L36.0336 34.6182L37.4861 34.1528V32.6444Z" fill="white"/>
<path d="M28.2494 33.3332L26.3687 30.1863L26.7969 33.7988L27.6908 34.0782L28.2494 33.3332Z" fill="white"/>
<path d="M22.8866 30.1863L18.8083 38.6592L19.7208 39.8882L21.1733 39.4226L22.8866 30.1863Z" fill="white"/>
</g>
<defs>
<linearGradient id="paint0_linear_965_5471" x1="13.1285" y1="46.9274" x2="32.2626" y2="-1.37636e-06" gradientUnits="userSpaceOnUse">
<stop stop-color="#3FAD6C"/>
<stop offset="1" stop-color="#6EC2B7"/>
</linearGradient>
<clipPath id="clip0_965_5471">
<rect width="50" height="50" fill="white"/>
</clipPath>
</defs>
</svg>
