<?xml version="1.0" encoding="UTF-8"?>
<svg xmlns="http://www.w3.org/2000/svg" xmlns:xlink="http://www.w3.org/1999/xlink" width="50px" height="50px" viewBox="0 0 50 50" version="1.1">
<defs>
<linearGradient id="linear0" gradientUnits="userSpaceOnUse" x1="8.35218" y1="40.9992" x2="38.8639" y2="11.6762" >
<stop offset="0.0156851" style="stop-color:rgb(18.039216%,5.490196%,35.686275%);stop-opacity:1;"/>
<stop offset="1" style="stop-color:rgb(18.039216%,12.54902%,35.686275%);stop-opacity:1;"/>
</linearGradient>
<linearGradient id="linear1" gradientUnits="userSpaceOnUse" x1="42.4658" y1="9.48052" x2="20.4151" y2="41.8529" >
<stop offset="0.0403439" style="stop-color:rgb(41.568627%,94.901961%,65.098039%);stop-opacity:1;"/>
<stop offset="0.197" style="stop-color:rgb(39.215686%,93.72549%,67.058824%);stop-opacity:1;"/>
<stop offset="0.4077" style="stop-color:rgb(32.54902%,90.980392%,72.54902%);stop-opacity:1;"/>
<stop offset="0.6492" style="stop-color:rgb(21.568627%,86.27451%,81.960784%);stop-opacity:1;"/>
<stop offset="0.9118" style="stop-color:rgb(6.27451%,79.607843%,94.509804%);stop-opacity:1;"/>
<stop offset="1" style="stop-color:rgb(0.392157%,77.254902%,99.215686%);stop-opacity:1;"/>
</linearGradient>
<linearGradient id="linear2" gradientUnits="userSpaceOnUse" x1="37.4759" y1="6.08168" x2="15.4251" y2="38.4541" >
<stop offset="0.0403439" style="stop-color:rgb(41.568627%,94.901961%,65.098039%);stop-opacity:1;"/>
<stop offset="0.197" style="stop-color:rgb(39.215686%,93.72549%,67.058824%);stop-opacity:1;"/>
<stop offset="0.4077" style="stop-color:rgb(32.54902%,90.980392%,72.54902%);stop-opacity:1;"/>
<stop offset="0.6492" style="stop-color:rgb(21.568627%,86.27451%,81.960784%);stop-opacity:1;"/>
<stop offset="0.9118" style="stop-color:rgb(6.27451%,79.607843%,94.509804%);stop-opacity:1;"/>
<stop offset="1" style="stop-color:rgb(0.392157%,77.254902%,99.215686%);stop-opacity:1;"/>
</linearGradient>
<linearGradient id="linear3" gradientUnits="userSpaceOnUse" x1="34.6289" y1="4.14234" x2="12.5781" y2="36.5148" >
<stop offset="0.0403439" style="stop-color:rgb(41.568627%,94.901961%,65.098039%);stop-opacity:1;"/>
<stop offset="0.197" style="stop-color:rgb(39.215686%,93.72549%,67.058824%);stop-opacity:1;"/>
<stop offset="0.4077" style="stop-color:rgb(32.54902%,90.980392%,72.54902%);stop-opacity:1;"/>
<stop offset="0.6492" style="stop-color:rgb(21.568627%,86.27451%,81.960784%);stop-opacity:1;"/>
<stop offset="0.9118" style="stop-color:rgb(6.27451%,79.607843%,94.509804%);stop-opacity:1;"/>
<stop offset="1" style="stop-color:rgb(0.392157%,77.254902%,99.215686%);stop-opacity:1;"/>
</linearGradient>
</defs>
<g id="surface1">
<path style=" stroke:none;fill-rule:nonzero;fill:url(#linear0);" d="M 25 50 C 11.183594 50 0 38.816406 0 25 C 0 11.183594 11.183594 0 25 0 C 38.816406 0 50 11.183594 50 25 C 50 38.816406 38.816406 50 25 50 Z M 25 50 "/>
<path style=" stroke:none;fill-rule:nonzero;fill:url(#linear1);" d="M 38.273438 32.683594 C 38.226562 32.773438 38.183594 32.863281 38.136719 32.910156 L 38.046875 33.046875 C 37.726562 33.5 37.363281 33.863281 36.910156 34.136719 L 27.226562 39.726562 C 26.546875 40.136719 25.773438 40.316406 25.046875 40.316406 C 24.273438 40.316406 23.546875 40.136719 22.863281 39.726562 L 14.363281 34.863281 C 14.273438 34.773438 14.183594 34.726562 14.089844 34.683594 C 14 34.546875 13.953125 34.453125 13.953125 34.316406 C 14.046875 34 14.773438 33.863281 14.816406 33.816406 C 15 33.773438 15.183594 33.773438 15.363281 33.726562 L 15.5 33.726562 C 15.816406 33.683594 16.136719 33.636719 16.410156 33.589844 C 16.726562 33.546875 17 33.5 17.316406 33.453125 C 18.546875 33.273438 19.726562 33.136719 20.910156 33 C 22.046875 32.863281 23.183594 32.726562 24.363281 32.636719 C 25.589844 32.5 26.726562 32.410156 27.726562 32.363281 C 28.816406 32.316406 29.910156 32.226562 30.953125 32.183594 C 32 32.136719 33.046875 32.136719 34.089844 32.089844 C 34.183594 32.089844 34.316406 32.089844 34.410156 32.089844 L 34.726562 32.089844 C 35.5 32.089844 36.316406 32.089844 37.136719 32.136719 C 37.226562 32.136719 37.316406 32.136719 37.453125 32.136719 L 37.636719 32.136719 C 37.953125 32.183594 38.136719 32.273438 38.226562 32.410156 C 38.316406 32.5 38.316406 32.589844 38.273438 32.683594 Z M 38.273438 32.683594 "/>
<path style=" stroke:none;fill-rule:nonzero;fill:url(#linear2);" d="M 38.863281 24.136719 L 38.863281 27.320312 C 38.863281 28.5 38.863281 28.546875 36.410156 28.820312 L 34.816406 28.953125 C 34.589844 28.953125 34.410156 29 34.183594 29 L 33.683594 29.089844 C 29.636719 29.5 25.546875 29.863281 21.5 30.089844 C 19.683594 30.183594 17.910156 30.273438 16.089844 30.363281 C 15.273438 30.410156 14.410156 30.410156 13.589844 30.453125 C 13.183594 30.453125 12.773438 30.453125 12.363281 30.453125 C 12.046875 30.453125 11.546875 30.546875 11.273438 30.320312 C 11.046875 30.089844 11.089844 29.636719 11.089844 29.320312 L 11.089844 21.320312 C 11.089844 20.183594 11.453125 19.953125 13.773438 19.820312 C 14.183594 19.820312 14.546875 19.820312 15.089844 19.820312 C 21.910156 19.820312 29.136719 20.820312 37.863281 23 L 37.910156 23 C 38 23 38.046875 23.046875 38.136719 23.046875 C 38.5 23.183594 38.863281 23.089844 38.863281 24.136719 Z M 38.863281 24.136719 "/>
<path style=" stroke:none;fill-rule:nonzero;fill:url(#linear3);" d="M 38.273438 18.863281 C 38.226562 18.910156 38.183594 18.910156 38.136719 18.953125 C 37.863281 19.046875 37.546875 19 37.273438 18.953125 C 36.953125 18.953125 36.636719 18.910156 36.316406 18.910156 C 35.726562 18.863281 35.089844 18.816406 34.5 18.726562 C 33.683594 18.636719 32.863281 18.546875 32.089844 18.453125 C 30.863281 18.316406 29.636719 18.183594 28.453125 18.046875 C 27.046875 17.910156 25.589844 17.726562 24.183594 17.589844 C 22.773438 17.453125 21.363281 17.273438 19.953125 17.136719 C 18.726562 17 17.546875 16.863281 16.316406 16.773438 C 15.546875 16.683594 14.726562 16.589844 13.953125 16.5 C 13.773438 16.5 13.546875 16.453125 13.363281 16.453125 C 13.316406 16.453125 13.273438 16.453125 13.226562 16.453125 C 13.089844 16.410156 12.953125 16.410156 12.863281 16.316406 C 12.816406 16.273438 12.816406 16.183594 12.910156 16.046875 L 12.953125 16 C 13 15.953125 13.089844 15.910156 13.136719 15.863281 C 13.226562 15.816406 13.273438 15.773438 13.363281 15.726562 L 22.816406 10.273438 C 23.5 9.910156 24.273438 9.683594 25.046875 9.683594 C 25.816406 9.683594 26.589844 9.863281 27.226562 10.273438 C 27.226562 10.273438 36.546875 15.636719 36.683594 15.726562 C 37.453125 16.183594 38.089844 16.953125 38.273438 17.863281 C 38.316406 18.089844 38.453125 18.636719 38.273438 18.863281 Z M 38.273438 18.863281 "/>
</g>
</svg>
