<?xml version="1.0" encoding="UTF-8"?>
<svg xmlns="http://www.w3.org/2000/svg" xmlns:xlink="http://www.w3.org/1999/xlink" width="50px" height="50px" viewBox="0 0 50 50" version="1.1">
<defs>
<radialGradient id="radial0" gradientUnits="userSpaceOnUse" cx="9.819284" cy="14.366022" fx="9.819284" fy="14.366022" r="8.166124" gradientTransform="matrix(0.819578,0,0,0.794382,17.095078,12.450173)">
<stop offset="0" style="stop-color:rgb(74.509804%,27.45098%,31.372549%);stop-opacity:1;"/>
<stop offset="1" style="stop-color:rgb(60.784314%,21.568627%,35.294118%);stop-opacity:1;"/>
</radialGradient>
<linearGradient id="linear0" gradientUnits="userSpaceOnUse" x1="1.093238" y1="11.919086" x2="23.120203" y2="11.919086" gradientTransform="matrix(0.732914,0,0,0.888315,16.126819,5.914432)">
<stop offset="0" style="stop-color:rgb(100%,23.529412%,33.333333%);stop-opacity:1;"/>
<stop offset="0.514" style="stop-color:rgb(100%,23.921569%,33.72549%);stop-opacity:1;"/>
<stop offset="1" style="stop-color:rgb(100%,54.509804%,39.607843%);stop-opacity:1;"/>
</linearGradient>
<linearGradient id="linear1" gradientUnits="userSpaceOnUse" x1="1.257593" y1="17.490404" x2="23.294216" y2="17.490404" gradientTransform="matrix(0.646526,0,0,1.00701,16.368884,14.749786)">
<stop offset="0" style="stop-color:rgb(100%,23.529412%,33.333333%);stop-opacity:1;"/>
<stop offset="0.514" style="stop-color:rgb(100%,23.529412%,33.333333%);stop-opacity:1;"/>
<stop offset="1" style="stop-color:rgb(100%,54.509804%,39.607843%);stop-opacity:1;"/>
</linearGradient>
</defs>
<g id="surface1">
<path style=" stroke:none;fill-rule:nonzero;fill:rgb(20%,20%,20%);fill-opacity:1;" d="M 50 25 C 50 38.808594 38.808594 50 25 50 C 11.191406 50 0 38.808594 0 25 C 0 11.191406 11.191406 0 25 0 C 38.808594 0 50 11.191406 50 25 Z M 50 25 "/>
<path style=" stroke:none;fill-rule:nonzero;fill:url(#radial0);" d="M 22.582031 30.242188 C 22.359375 30.269531 22.136719 30.195312 21.976562 30.039062 L 18.75 26.8125 C 18.59375 26.652344 18.519531 26.429688 18.546875 26.207031 C 18.519531 25.984375 18.59375 25.761719 18.75 25.601562 L 26.816406 17.734375 C 26.980469 17.582031 27.203125 17.507812 27.421875 17.535156 C 27.644531 17.507812 27.867188 17.582031 28.027344 17.734375 L 31.457031 20.960938 C 31.660156 20.960938 31.660156 21.367188 31.660156 21.566406 C 31.6875 21.789062 31.613281 22.011719 31.457031 22.171875 L 23.1875 30.039062 C 23.027344 30.195312 22.804688 30.269531 22.582031 30.242188 Z M 22.582031 30.242188 "/>
<path style=" stroke:none;fill-rule:nonzero;fill:url(#linear0);" d="M 31.457031 14.507812 L 24.800781 8.050781 C 23.789062 7.175781 22.507812 6.679688 21.167969 6.640625 C 19.730469 6.65625 18.355469 7.238281 17.335938 8.253906 C 16.933594 8.457031 16.933594 8.65625 16.933594 8.859375 C 16.90625 9.082031 16.980469 9.304688 17.136719 9.464844 L 26.210938 18.140625 C 26.414062 18.339844 26.617188 18.339844 26.617188 18.542969 C 28.644531 20.640625 28.816406 23.910156 27.019531 26.207031 L 31.457031 21.972656 C 32.503906 21.058594 33.09375 19.730469 33.070312 18.339844 C 33.054688 16.902344 32.476562 15.527344 31.457031 14.507812 Z M 31.457031 14.507812 "/>
<path style=" stroke:none;fill-rule:nonzero;fill:url(#linear1);" d="M 23.589844 29.03125 C 21.519531 26.925781 21.429688 23.578125 23.390625 21.367188 L 18.949219 25.601562 C 17.917969 26.609375 17.335938 27.992188 17.335938 29.433594 C 17.335938 30.878906 17.917969 32.257812 18.949219 33.269531 L 28.632812 43.152344 C 28.792969 43.308594 29.015625 43.382812 29.238281 43.355469 C 29.460938 43.382812 29.683594 43.308594 29.84375 43.152344 C 30.875 42.144531 31.457031 40.761719 31.457031 39.320312 C 31.457031 37.875 30.875 36.496094 29.84375 35.488281 L 23.792969 29.433594 C 23.792969 29.234375 23.589844 29.234375 23.589844 29.03125 Z M 23.589844 29.03125 "/>
</g>
</svg>
