<?xml version="1.0" encoding="UTF-8"?>
<svg xmlns="http://www.w3.org/2000/svg" xmlns:xlink="http://www.w3.org/1999/xlink" width="50px" height="50px" viewBox="0 0 50 50" version="1.1">
<g id="surface1">
<path style=" stroke:none;fill-rule:evenodd;fill:rgb(0%,0%,0%);fill-opacity:1;" d="M 30.597656 2.339844 C 27.476562 -0.78125 22.414062 -0.78125 19.292969 2.339844 L 2.339844 19.292969 C -0.78125 22.414062 -0.78125 27.476562 2.339844 30.597656 L 19.292969 47.550781 C 22.414062 50.671875 27.476562 50.671875 30.597656 47.550781 L 47.550781 30.597656 C 50.671875 27.476562 50.671875 22.414062 47.550781 19.292969 Z M 40.929688 16.988281 C 40.929688 12.574219 37.351562 8.996094 32.9375 8.996094 L 16.953125 8.996094 C 12.539062 8.996094 8.960938 12.574219 8.960938 16.988281 L 8.960938 32.972656 C 8.960938 37.386719 12.539062 40.964844 16.953125 40.964844 L 32.9375 40.964844 C 37.351562 40.964844 40.929688 37.386719 40.929688 32.972656 Z M 40.929688 16.988281 "/>
<path style=" stroke:none;fill-rule:nonzero;fill:rgb(0%,0%,0%);fill-opacity:1;" d="M 22.683594 11.417969 C 23.933594 10.167969 25.957031 10.167969 27.207031 11.417969 L 38.507812 22.71875 C 39.757812 23.96875 39.757812 25.992188 38.507812 27.242188 L 27.207031 38.542969 C 25.957031 39.792969 23.933594 39.792969 22.683594 38.542969 L 11.382812 27.242188 C 10.132812 25.992188 10.132812 23.96875 11.382812 22.71875 Z M 22.683594 11.417969 "/>
</g>
</svg>
