<svg width="50" height="50" viewBox="0 0 50 50" fill="none" xmlns="http://www.w3.org/2000/svg">
<g clip-path="url(#clip0_538_620)">
<path fill-rule="evenodd" clip-rule="evenodd" d="M50 25C50 18.3696 47.3661 12.0107 42.6777 7.32233C37.9893 2.63392 31.6304 0 25 0C18.3696 0 12.0107 2.63392 7.32233 7.32233C2.63392 12.0107 0 18.3696 0 25C0 31.6304 2.63392 37.9893 7.32233 42.6777C12.0107 47.3661 18.3696 50 25 50C38.8079 50 50 38.8053 50 25Z" fill="#212121"/>
<path fill-rule="evenodd" clip-rule="evenodd" d="M32.2516 22.3787L26.7016 18.3024C26.2895 17.9993 25.7921 17.8345 25.2806 17.8313C24.5437 17.8313 23.8069 18.1813 23.3384 18.8208C23.1487 19.0745 23.0111 19.3633 22.9338 19.6705C22.8564 19.9777 22.8408 20.2972 22.8878 20.6105C22.9348 20.9238 23.0435 21.2247 23.2075 21.4957C23.3716 21.7667 23.5879 22.0024 23.8437 22.1892L29.3937 26.2734C30.6463 27.1945 31.3595 28.484 31.3595 29.8208C31.3595 32.4866 28.6569 34.6471 25.3279 34.6471C22.5174 34.6471 20.1648 33.1155 19.4911 31.0287H14.5569C15.2358 35.7787 19.8042 39.4708 25.3279 39.4708C31.3095 39.4708 36.1832 35.1419 36.1832 29.8208C36.1832 26.9261 34.749 24.2261 32.2516 22.3787ZM36.099 18.9655H31.1648C30.4911 16.8787 28.1384 15.3471 25.3279 15.3471C21.999 15.3471 19.2963 17.505 19.2963 20.1734C19.2963 21.5103 20.0069 22.8024 21.2621 23.7182L26.8121 27.8076C27.0676 27.9945 27.2835 28.2301 27.4474 28.5008C27.6112 28.7716 27.7198 29.0722 27.7668 29.3852C27.8137 29.6981 27.7982 30.0173 27.7211 30.3243C27.644 30.6312 27.5067 30.9198 27.3174 31.1734C26.9399 31.6878 26.3737 32.0313 25.7431 32.1285C25.1125 32.2257 24.4691 32.0686 23.9542 31.6919L18.4042 27.6129C15.9069 25.7734 14.4727 23.0708 14.4727 20.1761C14.4727 14.8524 19.3463 10.5234 25.3279 10.5234C30.8542 10.5234 35.4227 14.2129 36.099 18.9655Z" fill="white"/>
</g>
<defs>
<clipPath id="clip0_538_620">
<rect width="50" height="50" fill="white"/>
</clipPath>
</defs>
</svg>
