<?xml version="1.0" encoding="UTF-8"?>
<svg xmlns="http://www.w3.org/2000/svg" xmlns:xlink="http://www.w3.org/1999/xlink" width="50px" height="50px" viewBox="0 0 50 50" version="1.1">
<g id="surface1">
<path style=" stroke:none;fill-rule:evenodd;fill:rgb(12.941176%,12.941176%,12.941176%);fill-opacity:1;" d="M 50 25 C 50 18.371094 47.367188 12.011719 42.675781 7.324219 C 37.988281 2.632812 31.628906 0 25 0 C 18.371094 0 12.011719 2.632812 7.324219 7.324219 C 2.632812 12.011719 0 18.371094 0 25 C 0 31.628906 2.632812 37.988281 7.324219 42.675781 C 12.011719 47.367188 18.371094 50 25 50 C 38.808594 50 50 38.804688 50 25 Z M 50 25 "/>
<path style=" stroke:none;fill-rule:evenodd;fill:rgb(100%,100%,100%);fill-opacity:1;" d="M 32.25 22.378906 L 26.703125 18.300781 C 26.289062 18 25.792969 17.835938 25.28125 17.832031 C 24.542969 17.832031 23.808594 18.179688 23.339844 18.820312 C 23.148438 19.074219 23.011719 19.363281 22.933594 19.671875 C 22.855469 19.976562 22.839844 20.296875 22.886719 20.609375 C 22.933594 20.921875 23.042969 21.226562 23.207031 21.496094 C 23.371094 21.765625 23.589844 22.003906 23.84375 22.1875 L 29.394531 26.273438 C 30.644531 27.195312 31.359375 28.484375 31.359375 29.820312 C 31.359375 32.488281 28.65625 34.648438 25.328125 34.648438 C 22.515625 34.648438 20.164062 33.117188 19.492188 31.027344 L 14.558594 31.027344 C 15.234375 35.777344 19.804688 39.472656 25.328125 39.472656 C 31.308594 39.472656 36.183594 35.140625 36.183594 29.820312 C 36.183594 26.925781 34.75 24.226562 32.25 22.378906 Z M 36.097656 18.964844 L 31.164062 18.964844 C 30.492188 16.878906 28.136719 15.347656 25.328125 15.347656 C 22 15.347656 19.296875 17.503906 19.296875 20.171875 C 19.296875 21.511719 20.007812 22.800781 21.261719 23.71875 L 26.8125 27.808594 C 27.066406 27.996094 27.285156 28.230469 27.449219 28.5 C 27.609375 28.773438 27.71875 29.070312 27.765625 29.386719 C 27.8125 29.699219 27.796875 30.015625 27.722656 30.324219 C 27.644531 30.632812 27.507812 30.917969 27.316406 31.171875 C 26.941406 31.6875 26.375 32.03125 25.742188 32.128906 C 25.113281 32.226562 24.46875 32.070312 23.953125 31.691406 L 18.402344 27.613281 C 15.90625 25.773438 14.472656 23.070312 14.472656 20.175781 C 14.472656 14.851562 19.347656 10.523438 25.328125 10.523438 C 30.855469 10.523438 35.421875 14.214844 36.097656 18.964844 Z M 36.097656 18.964844 "/>
</g>
</svg>
