<?xml version="1.0" encoding="UTF-8"?>
<svg xmlns="http://www.w3.org/2000/svg" xmlns:xlink="http://www.w3.org/1999/xlink" width="50px" height="50px" viewBox="0 0 50 50" version="1.1">
<g id="surface1">
<path style=" stroke:none;fill-rule:nonzero;fill:rgb(8.235294%,10.196078%,12.54902%);fill-opacity:1;" d="M 42.679688 7.324219 C 37.953125 2.601562 31.679688 0 25.003906 0 C 11.214844 0 0 11.214844 0 25 C 0 38.785156 11.214844 50 25.003906 50 C 31.679688 50 37.960938 47.398438 42.679688 42.675781 C 47.402344 37.949219 50 31.675781 50 25 C 50 18.324219 47.402344 12.046875 42.679688 7.324219 Z M 25.003906 48.269531 C 12.171875 48.269531 1.730469 37.828125 1.730469 25 C 1.730469 12.171875 12.171875 1.730469 25.003906 1.730469 C 37.835938 1.730469 48.273438 12.171875 48.273438 25 C 48.273438 37.828125 37.835938 48.269531 25.003906 48.269531 Z M 25.003906 48.269531 "/>
<path style=" stroke:none;fill-rule:nonzero;fill:rgb(8.235294%,10.196078%,12.54902%);fill-opacity:1;" d="M 25.003906 48.269531 C 12.171875 48.269531 1.730469 37.828125 1.730469 25 C 1.730469 12.171875 12.171875 1.730469 25.003906 1.730469 C 37.832031 1.730469 48.273438 12.171875 48.273438 25 C 48.273438 37.828125 37.832031 48.269531 25.003906 48.269531 Z M 25.003906 48.269531 "/>
<path style=" stroke:none;fill-rule:nonzero;fill:rgb(100%,100%,100%);fill-opacity:1;" d="M 42.679688 7.324219 C 37.953125 2.601562 31.679688 0 25.003906 0 C 11.214844 0 0 11.214844 0 25 C 0 38.785156 11.214844 50 25.003906 50 C 31.679688 50 37.960938 47.398438 42.679688 42.675781 C 47.402344 37.949219 50 31.675781 50 25 C 50 18.324219 47.402344 12.046875 42.679688 7.324219 Z M 25.003906 48.269531 C 12.171875 48.269531 1.730469 37.828125 1.730469 25 C 1.730469 12.171875 12.171875 1.730469 25.003906 1.730469 C 37.835938 1.730469 48.273438 12.171875 48.273438 25 C 48.273438 37.828125 37.835938 48.269531 25.003906 48.269531 Z M 25.003906 48.269531 "/>
<path style=" stroke:none;fill-rule:nonzero;fill:rgb(100%,100%,100%);fill-opacity:1;" d="M 33.195312 25.585938 C 31.59375 24.15625 29.5 23.199219 27.46875 22.277344 L 27.457031 22.269531 C 23.875 20.636719 20.78125 19.222656 21.003906 15.878906 C 21.097656 14.601562 22.023438 13.832031 22.78125 13.417969 C 23.636719 12.949219 24.773438 12.667969 25.820312 12.667969 C 25.945312 12.667969 26.070312 12.675781 26.191406 12.679688 C 29.246094 12.882812 31.65625 14.179688 34.007812 16.867188 L 34.148438 17.03125 L 34.3125 16.894531 L 35.234375 16.09375 L 35.398438 15.949219 L 35.253906 15.78125 C 32.628906 12.773438 29.78125 11.257812 26.296875 11.023438 C 26.144531 11.007812 25.984375 11.003906 25.8125 11.003906 C 25.707031 11.003906 25.589844 11.003906 25.472656 11.007812 L 25.320312 11.007812 C 23.035156 11.007812 20.53125 11.757812 18.628906 13.019531 C 16.355469 14.523438 15.078125 16.59375 15.042969 18.847656 C 14.953125 24.332031 19.4375 26.175781 23.390625 27.808594 L 23.402344 27.816406 L 23.441406 27.828125 C 26.941406 29.277344 29.960938 30.527344 29.894531 33.878906 C 29.863281 36.085938 26.707031 37.308594 24.535156 37.308594 L 24.230469 37.308594 L 24.230469 37.3125 C 20.996094 37.21875 18.109375 35.820312 15.644531 33.179688 L 15.496094 33.019531 L 15.335938 33.164062 L 14.441406 33.992188 L 14.28125 34.144531 L 14.429688 34.300781 C 17.230469 37.316406 20.683594 38.9375 24.421875 38.980469 L 24.589844 38.980469 C 27.003906 38.980469 29.628906 38.332031 31.609375 37.238281 C 34.089844 35.882812 35.535156 33.90625 35.683594 31.679688 C 35.851562 29.230469 35.039062 27.234375 33.195312 25.585938 Z M 21.585938 20.816406 C 23.011719 22.035156 24.941406 22.910156 26.804688 23.753906 L 26.839844 23.769531 C 28.816406 24.679688 30.683594 25.539062 32.039062 26.734375 C 33.539062 28.054688 34.171875 29.585938 34.039062 31.546875 C 33.914062 33.492188 32.46875 34.792969 31.15625 35.578125 C 31.410156 35.058594 31.550781 34.492188 31.566406 33.894531 C 31.59375 31.875 30.820312 30.257812 29.191406 28.949219 C 27.765625 27.804688 25.875 27.03125 24.046875 26.273438 C 20.242188 24.710938 16.648438 23.230469 16.714844 18.863281 C 16.734375 17.183594 17.742188 15.59375 19.558594 14.386719 C 19.617188 14.347656 19.679688 14.308594 19.742188 14.269531 C 19.527344 14.738281 19.40625 15.226562 19.378906 15.742188 C 19.234375 17.765625 19.957031 19.425781 21.585938 20.816406 Z M 21.585938 20.816406 "/>
</g>
</svg>
