<?xml version="1.0" encoding="UTF-8"?>
<svg xmlns="http://www.w3.org/2000/svg" xmlns:xlink="http://www.w3.org/1999/xlink" width="50px" height="50px" viewBox="0 0 50 51" version="1.1">
<defs>
<clipPath id="clip1">
  <path d="M 0 0 L 50 0 L 50 50.214844 L 0 50.214844 Z M 0 0 "/>
</clipPath>
<linearGradient id="linear0" gradientUnits="userSpaceOnUse" x1="24.9403" y1="0.000000373512" x2="34.8489" y2="50.1319" >
<stop offset="0" style="stop-color:rgb(47.058824%,0%,0%);stop-opacity:1;"/>
<stop offset="1" style="stop-color:rgb(75.686275%,7.058824%,12.156863%);stop-opacity:1;"/>
</linearGradient>
</defs>
<g id="surface1">
<g clip-path="url(#clip1)" clip-rule="nonzero">
<path style=" stroke:none;fill-rule:evenodd;fill:url(#linear0);" d="M 24.875 50.152344 C 32.199219 50.152344 38.789062 46.996094 43.359375 41.964844 L 42.144531 40.617188 C 40.636719 38.949219 38.070312 38.808594 36.390625 40.296875 L 33.792969 42.597656 C 30.261719 45.726562 24.894531 45.53125 21.601562 42.148438 L 19.980469 40.484375 C 18.421875 38.882812 15.867188 38.828125 14.238281 40.355469 L 9.476562 44.835938 C 13.722656 48.167969 19.066406 50.152344 24.875 50.152344 Z M 45.660156 37.4375 L 46.253906 38.089844 C 48.554688 34.296875 49.878906 29.84375 49.878906 25.074219 C 49.878906 19.296875 47.929688 13.976562 44.65625 9.734375 C 44.046875 9.890625 43.464844 10.191406 42.960938 10.636719 L 40.367188 12.9375 C 36.835938 16.066406 31.46875 15.867188 28.175781 12.488281 L 26.550781 10.820312 C 24.992188 9.21875 22.441406 9.164062 20.8125 10.695312 L 14.132812 16.980469 L 10.882812 13.527344 L 17.5625 7.242188 C 21.074219 3.9375 26.585938 4.058594 29.949219 7.511719 L 31.570312 9.179688 C 33.097656 10.746094 35.585938 10.839844 37.222656 9.386719 L 39.816406 7.085938 C 40.253906 6.703125 40.714844 6.367188 41.199219 6.082031 C 36.820312 2.292969 31.113281 0 24.875 0 C 12.328125 0 1.941406 9.261719 0.144531 21.339844 C 3.566406 19.363281 8.011719 19.882812 10.886719 22.832031 L 12.765625 24.761719 C 14.222656 26.257812 16.578125 26.417969 18.222656 25.128906 L 23.789062 20.769531 C 27.128906 18.152344 31.855469 18.277344 35.050781 21.070312 L 42.628906 27.691406 L 39.507812 31.261719 L 31.929688 24.640625 C 30.449219 23.347656 28.257812 23.289062 26.710938 24.5 L 21.148438 28.859375 C 17.59375 31.644531 12.515625 31.300781 9.367188 28.070312 L 7.488281 26.140625 C 5.929688 24.539062 3.378906 24.484375 1.75 26.015625 L 0 27.664062 C 0.542969 32.960938 2.726562 37.769531 6.035156 41.566406 L 10.992188 36.902344 C 14.5 33.601562 20.011719 33.71875 23.375 37.175781 L 25 38.839844 C 26.523438 40.40625 29.011719 40.5 30.648438 39.050781 L 33.246094 36.75 C 36.871094 33.535156 42.414062 33.839844 45.660156 37.4375 Z M 45.660156 37.4375 "/>
</g>
</g>
</svg>
