<svg width="50" height="50" viewBox="0 0 50 50" fill="none" xmlns="http://www.w3.org/2000/svg">
<g clip-path="url(#clip0_664_1061)">
<path fill-rule="evenodd" clip-rule="evenodd" d="M24.8746 49.9369C32.1987 49.9369 38.7875 46.7929 43.3608 41.7828L42.144 40.4418C40.6379 38.7824 38.0707 38.6406 36.3897 40.124L33.7937 42.4148C30.2623 45.5313 24.8946 45.3348 21.6024 41.9685L19.9793 40.3088C18.4206 38.715 15.8666 38.6597 14.2395 40.1841L9.47851 44.6446C13.723 47.9605 19.0676 49.9369 24.8746 49.9369ZM45.6619 37.2766L46.2528 37.9279C48.5547 34.15 49.8806 29.7139 49.8806 24.9685C49.8806 19.2143 47.9313 13.9148 44.6558 9.6924C44.047 9.84824 43.4651 10.1465 42.9625 10.59L40.3668 12.8807C36.8353 15.9973 31.4677 15.8008 28.1754 12.4345L26.5524 10.7748C24.9935 9.18112 22.4397 9.12556 20.8125 10.65L14.1337 16.9075L10.8845 13.4693L17.5633 7.21176C21.0744 3.92217 26.5858 4.04206 29.9491 7.4812L31.5722 9.14088C33.0981 10.7009 35.5853 10.7919 37.222 9.34764L39.8177 7.05689C40.2534 6.67245 40.7166 6.33861 41.2002 6.05491C36.8194 2.28165 31.1138 0 24.8746 0C12.33 0 1.94295 9.22335 0.144127 21.2489C3.56722 19.2814 8.01188 19.7958 10.887 22.7356L12.7642 24.6549C14.2232 26.147 16.5769 26.3043 18.2232 25.02L23.7877 20.6793C27.1276 18.0739 31.8558 18.1999 35.0509 20.9795L42.6278 27.571L39.5084 31.1262L31.9312 24.5348C30.4506 23.2466 28.2595 23.1882 26.7119 24.3957L21.1472 28.7365C17.5947 31.5077 12.5158 31.168 9.36731 27.9487L7.49019 26.0294C5.93151 24.4356 3.37752 24.38 1.75043 25.9045L0 27.5444C0.541338 32.8182 2.72655 37.6058 6.03558 41.388L10.9904 36.7457C14.5015 33.4562 20.0127 33.576 23.3761 37.0152L24.9994 38.6749C26.525 40.2348 29.0125 40.326 30.6489 38.8818L33.2448 36.591C36.8722 33.3897 42.4123 33.6957 45.6619 37.2766Z" fill="url(#paint0_linear_664_1061)"/>
</g>
<defs>
<linearGradient id="paint0_linear_664_1061" x1="24.9403" y1="3.71909e-07" x2="34.7672" y2="49.9328" gradientUnits="userSpaceOnUse">
<stop stop-color="white"/>
<stop offset="1" stop-color="white"/>
</linearGradient>
<clipPath id="clip0_664_1061">
<rect width="50" height="50" fill="white"/>
</clipPath>
</defs>
</svg>
