<?xml version="1.0" encoding="UTF-8"?>
<svg xmlns="http://www.w3.org/2000/svg" xmlns:xlink="http://www.w3.org/1999/xlink" width="50px" height="50px" viewBox="0 0 50 50" version="1.1">
<g id="surface1">
<path style=" stroke:none;fill-rule:nonzero;fill:rgb(0.392157%,33.72549%,98.823529%);fill-opacity:1;" d="M 44.011719 2.050781 C 44.5625 2.050781 45.007812 2.507812 45.007812 3.078125 L 45.007812 20.480469 C 45.023438 22.5 45.039062 25.019531 44.695312 27.691406 C 44.296875 30.808594 43.511719 33.34375 42.300781 35.441406 C 38.347656 42.273438 31.253906 47.28125 24.59375 47.949219 C 24.5625 47.953125 24.53125 47.953125 24.5 47.953125 C 24.464844 47.953125 24.433594 47.953125 24.402344 47.949219 C 17.738281 47.273438 10.640625 42.269531 6.699219 35.441406 C 5.480469 33.34375 4.699219 30.804688 4.300781 27.691406 C 3.960938 25.019531 3.980469 22.5 3.996094 20.480469 L 3.996094 3.078125 C 3.996094 2.507812 4.441406 2.050781 4.992188 2.050781 Z M 44.011719 0 L 4.992188 0 C 3.347656 0 2.007812 1.382812 2.007812 3.078125 L 2.007812 20.46875 C 1.988281 22.429688 1.96875 25.121094 2.328125 27.957031 C 2.765625 31.359375 3.632812 34.148438 4.988281 36.492188 C 7.070312 40.09375 9.976562 43.273438 13.402344 45.691406 C 16.859375 48.128906 20.585938 49.613281 24.179688 49.980469 C 24.285156 49.992188 24.390625 50 24.496094 50 C 24.601562 50 24.703125 49.992188 24.808594 49.980469 C 28.402344 49.613281 32.128906 48.132812 35.585938 45.695312 C 39.007812 43.273438 41.921875 40.09375 44.007812 36.492188 C 45.363281 34.144531 46.234375 31.355469 46.664062 27.960938 C 47.023438 25.152344 47.007812 22.5625 46.996094 20.476562 L 46.996094 3.078125 C 46.996094 1.382812 45.65625 0.00390625 44.011719 0.00390625 Z M 44.011719 0 "/>
<path style=" stroke:none;fill-rule:nonzero;fill:rgb(0.392157%,33.72549%,98.823529%);fill-opacity:1;" d="M 41.300781 22.792969 C 41.589844 23.019531 42.007812 22.804688 42.007812 22.429688 L 42 20.359375 L 42 5.59375 C 42 5.339844 41.800781 5.132812 41.554688 5.132812 L 7.441406 5.132812 C 7.195312 5.132812 6.996094 5.339844 6.996094 5.59375 L 6.996094 14.671875 C 6.996094 15.0625 7.082031 15.445312 7.253906 15.792969 C 7.421875 16.140625 7.664062 16.445312 7.96875 16.675781 L 33.632812 36.476562 C 33.855469 36.648438 33.871094 36.980469 33.667969 37.179688 C 33.191406 37.640625 32.691406 38.074219 32.171875 38.484375 C 32.011719 38.609375 31.796875 38.609375 31.640625 38.488281 L 7.703125 19.984375 C 7.414062 19.757812 6.996094 19.972656 6.996094 20.351562 C 6.996094 23.523438 6.722656 29.441406 9.308594 33.976562 C 12.195312 39.042969 17.152344 43.042969 22.25 44.335938 C 22.988281 44.523438 23.722656 44.652344 24.460938 44.722656 C 24.488281 44.726562 24.519531 44.726562 24.542969 44.722656 C 27.882812 44.414062 31.277344 42.839844 34.191406 40.464844 C 34.921875 39.867188 35.625 39.222656 36.289062 38.53125 C 37.601562 37.164062 38.75 35.640625 39.695312 33.984375 C 40.550781 32.484375 41.089844 30.835938 41.433594 29.1875 C 41.511719 28.832031 41.574219 28.46875 41.632812 28.105469 C 41.785156 27.164062 41.410156 26.207031 40.671875 25.636719 L 18.945312 8.875 C 18.605469 8.609375 18.78125 8.050781 19.214844 8.050781 L 22.089844 8.050781 C 22.1875 8.050781 22.277344 8.085938 22.359375 8.144531 L 41.304688 22.796875 Z M 41.300781 22.792969 "/>
</g>
</svg>
