<?xml version="1.0" encoding="UTF-8"?>
<svg xmlns="http://www.w3.org/2000/svg" xmlns:xlink="http://www.w3.org/1999/xlink" width="50px" height="50px" viewBox="0 0 50 50" version="1.1">
<defs>
<linearGradient id="linear0" gradientUnits="userSpaceOnUse" x1="24.9998" y1="50" x2="24.9998" y2="0.0000207424" >
<stop offset="0" style="stop-color:rgb(66.27451%,53.333333%,23.529412%);stop-opacity:1;"/>
<stop offset="0.69" style="stop-color:rgb(78.823529%,67.058824%,40.392157%);stop-opacity:1;"/>
<stop offset="1" style="stop-color:rgb(78.823529%,71.764706%,55.294118%);stop-opacity:1;"/>
</linearGradient>
</defs>
<g id="surface1">
<path style=" stroke:none;fill-rule:nonzero;fill:rgb(100%,100%,100%);fill-opacity:1;" d="M 12.507812 25.703125 C 12.695312 25.519531 12.800781 25.261719 12.800781 25 C 12.800781 24.734375 12.695312 24.476562 12.507812 24.292969 L 7.105469 18.894531 C 6.917969 18.703125 6.667969 18.597656 6.402344 18.597656 C 6.132812 18.597656 5.882812 18.703125 5.695312 18.890625 L 0.292969 24.292969 C 0.105469 24.480469 0 24.734375 0 25 C 0 25.265625 0.105469 25.515625 0.292969 25.703125 L 5.691406 31.105469 C 6.070312 31.484375 6.730469 31.484375 7.105469 31.109375 Z M 12.507812 25.703125 "/>
<path style=" stroke:none;fill-rule:nonzero;fill:rgb(100%,100%,100%);fill-opacity:1;" d="M 49.707031 24.292969 L 44.308594 18.890625 C 44.113281 18.695312 43.855469 18.597656 43.601562 18.597656 C 43.34375 18.597656 43.085938 18.695312 42.894531 18.890625 L 37.492188 24.292969 C 37.101562 24.683594 37.101562 25.316406 37.492188 25.707031 L 42.894531 31.105469 C 43.265625 31.484375 43.933594 31.480469 44.308594 31.109375 L 49.707031 25.707031 C 50.097656 25.316406 50.097656 24.683594 49.707031 24.292969 Z M 49.707031 24.292969 "/>
<path style=" stroke:none;fill-rule:nonzero;fill:url(#linear0);" d="M 40.53125 34.898438 C 40.730469 34.703125 40.839844 34.441406 40.839844 34.160156 C 40.839844 33.878906 40.730469 33.617188 40.53125 33.417969 L 34.902344 27.789062 C 34.492188 27.378906 33.828125 27.378906 33.417969 27.789062 L 33.289062 27.917969 C 32.785156 28.421875 31.90625 28.421875 31.402344 27.917969 L 31.242188 27.761719 C 30.992188 27.511719 30.851562 27.164062 30.851562 26.816406 C 30.851562 26.464844 30.992188 26.121094 31.242188 25.871094 L 31.371094 25.738281 C 31.570312 25.542969 31.679688 25.28125 31.679688 25 C 31.679688 24.71875 31.570312 24.457031 31.371094 24.257812 L 25.769531 18.652344 C 25.34375 18.230469 24.65625 18.230469 24.230469 18.65625 L 24.152344 18.730469 C 23.894531 18.988281 23.550781 19.132812 23.183594 19.132812 C 22.816406 19.132812 22.472656 18.988281 22.210938 18.730469 L 22.109375 18.628906 C 21.851562 18.371094 21.707031 18.019531 21.707031 17.65625 C 21.707031 17.292969 21.847656 16.945312 22.109375 16.683594 L 22.210938 16.582031 C 22.410156 16.382812 22.519531 16.121094 22.519531 15.839844 C 22.519531 15.558594 22.410156 15.296875 22.210938 15.097656 C 21.621094 14.507812 21.621094 13.539062 22.210938 12.949219 C 22.472656 12.6875 22.816406 12.542969 23.183594 12.542969 C 23.550781 12.546875 23.894531 12.6875 24.15625 12.949219 L 24.230469 13.023438 C 24.644531 13.4375 25.359375 13.433594 25.769531 13.023438 L 25.84375 12.945312 C 26.378906 12.414062 27.25 12.410156 27.789062 12.945312 L 27.890625 13.050781 C 28.152344 13.3125 28.292969 13.65625 28.292969 14.023438 C 28.292969 14.386719 28.152344 14.734375 27.890625 14.996094 L 27.816406 15.070312 C 27.613281 15.273438 27.496094 15.550781 27.496094 15.839844 C 27.496094 16.125 27.609375 16.402344 27.816406 16.609375 L 33.417969 22.210938 C 33.828125 22.621094 34.496094 22.621094 34.902344 22.210938 L 40.535156 16.582031 C 40.730469 16.382812 40.839844 16.121094 40.839844 15.839844 C 40.839844 15.558594 40.730469 15.296875 40.535156 15.097656 L 34.902344 9.46875 C 34.503906 9.070312 33.816406 9.070312 33.417969 9.464844 L 33.289062 9.597656 C 32.785156 10.101562 31.90625 10.101562 31.398438 9.597656 L 31.242188 9.441406 C 30.722656 8.917969 30.722656 8.070312 31.242188 7.550781 L 31.371094 7.417969 C 31.570312 7.222656 31.679688 6.953125 31.679688 6.679688 C 31.679688 6.402344 31.570312 6.132812 31.371094 5.9375 L 25.742188 0.308594 C 25.332031 -0.101562 24.667969 -0.101562 24.257812 0.308594 L 18.65625 5.910156 C 18.453125 6.113281 18.335938 6.390625 18.335938 6.679688 C 18.335938 6.964844 18.453125 7.246094 18.65625 7.449219 L 18.730469 7.523438 C 18.992188 7.785156 19.132812 8.128906 19.132812 8.496094 C 19.132812 8.863281 18.992188 9.207031 18.730469 9.46875 L 18.628906 9.570312 C 18.371094 9.828125 18.023438 9.972656 17.65625 9.972656 C 17.289062 9.972656 16.945312 9.828125 16.683594 9.570312 L 16.609375 9.492188 C 16.199219 9.082031 15.480469 9.082031 15.070312 9.492188 L 9.464844 15.097656 C 9.273438 15.292969 9.160156 15.5625 9.160156 15.839844 C 9.160156 16.117188 9.269531 16.386719 9.464844 16.582031 L 15.097656 22.210938 C 15.507812 22.621094 16.171875 22.621094 16.582031 22.210938 L 16.710938 22.082031 C 17.234375 21.5625 18.078125 21.5625 18.601562 22.082031 L 18.757812 22.238281 C 19.011719 22.492188 19.148438 22.828125 19.148438 23.183594 C 19.148438 23.539062 19.011719 23.875 18.757812 24.125 L 18.628906 24.257812 C 18.21875 24.667969 18.21875 25.332031 18.628906 25.742188 L 24.257812 31.371094 C 24.65625 31.769531 25.351562 31.765625 25.742188 31.371094 L 25.871094 31.242188 C 26.121094 30.992188 26.464844 30.851562 26.816406 30.851562 C 27.167969 30.851562 27.511719 30.992188 27.761719 31.242188 L 27.917969 31.398438 C 28.171875 31.652344 28.308594 31.988281 28.308594 32.34375 C 28.308594 32.699219 28.171875 33.035156 27.917969 33.285156 L 27.785156 33.417969 C 27.59375 33.613281 27.480469 33.882812 27.480469 34.160156 C 27.480469 34.433594 27.59375 34.707031 27.785156 34.898438 L 27.917969 35.03125 C 28.171875 35.285156 28.308594 35.621094 28.308594 35.976562 C 28.308594 36.332031 28.171875 36.667969 27.917969 36.917969 L 27.761719 37.078125 C 27.257812 37.582031 26.378906 37.582031 25.871094 37.078125 L 25.742188 36.945312 C 25.332031 36.539062 24.667969 36.539062 24.257812 36.945312 L 24.128906 37.078125 C 23.625 37.582031 22.742188 37.582031 22.238281 37.078125 L 22.082031 36.921875 C 21.828125 36.667969 21.691406 36.332031 21.691406 35.976562 C 21.691406 35.617188 21.832031 35.28125 22.082031 35.03125 L 22.210938 34.898438 C 22.40625 34.707031 22.519531 34.4375 22.519531 34.160156 C 22.519531 33.882812 22.40625 33.613281 22.210938 33.417969 L 16.582031 27.785156 C 16.171875 27.375 15.507812 27.378906 15.097656 27.785156 L 9.464844 33.417969 C 9.269531 33.613281 9.160156 33.882812 9.160156 34.160156 C 9.160156 34.433594 9.269531 34.707031 9.464844 34.898438 L 15.097656 40.53125 C 15.496094 40.929688 16.183594 40.929688 16.582031 40.53125 L 17.65625 39.457031 L 19.703125 41.503906 L 18.625 42.578125 C 18.429688 42.777344 18.320312 43.042969 18.320312 43.320312 C 18.320312 43.597656 18.429688 43.863281 18.625 44.058594 L 24.257812 49.691406 C 24.667969 50.101562 25.332031 50.101562 25.742188 49.691406 L 31.371094 44.058594 C 31.566406 43.867188 31.679688 43.59375 31.679688 43.320312 C 31.679688 43.042969 31.566406 42.773438 31.371094 42.578125 L 31.242188 42.449219 C 30.988281 42.195312 30.851562 41.859375 30.851562 41.503906 C 30.851562 41.148438 30.988281 40.8125 31.242188 40.558594 L 31.402344 40.402344 C 31.902344 39.898438 32.785156 39.894531 33.289062 40.402344 L 33.417969 40.53125 C 33.816406 40.929688 34.503906 40.929688 34.902344 40.53125 Z M 34.160156 37.257812 L 32.988281 36.085938 L 26.925781 42.148438 L 28.097656 43.320312 L 25 46.417969 L 21.902344 43.320312 L 23.074219 42.148438 L 17.011719 36.085938 L 15.839844 37.257812 L 12.742188 34.160156 L 15.839844 31.0625 L 18.9375 34.160156 L 17.765625 35.332031 L 23.828125 41.394531 L 25 40.222656 L 26.171875 41.394531 L 32.234375 35.332031 L 31.0625 34.160156 L 32.230469 32.988281 L 26.171875 26.925781 L 25 28.097656 L 21.902344 25 L 23.074219 23.828125 L 17.011719 17.765625 L 15.839844 18.9375 L 12.742188 15.839844 L 15.839844 12.738281 L 17.011719 13.914062 L 23.074219 7.851562 L 21.902344 6.679688 L 25 3.582031 L 28.097656 6.679688 L 26.925781 7.851562 L 32.988281 13.910156 L 34.160156 12.742188 L 37.257812 15.839844 L 34.160156 18.9375 L 31.0625 15.839844 L 32.234375 14.667969 L 26.171875 8.605469 L 25 9.777344 L 23.828125 8.609375 L 17.765625 14.667969 L 18.9375 15.839844 L 17.765625 17.011719 L 23.828125 23.074219 L 25 21.902344 L 28.097656 25 L 26.925781 26.171875 L 32.988281 32.234375 L 34.160156 31.0625 L 37.257812 34.160156 Z M 34.160156 37.257812 "/>
</g>
</svg>
