<?xml version="1.0" encoding="UTF-8"?>
<svg xmlns="http://www.w3.org/2000/svg" xmlns:xlink="http://www.w3.org/1999/xlink" width="50px" height="50px" viewBox="0 0 50 50" version="1.1">
<g id="surface1">
<path style=" stroke:none;fill-rule:nonzero;fill:rgb(100%,100%,100%);fill-opacity:1;" d="M 50 25 C 50 38.808594 38.808594 50 25 50 C 11.191406 50 0 38.808594 0 25 C 0 11.191406 11.191406 0 25 0 C 38.808594 0 50 11.191406 50 25 Z M 50 25 "/>
<path style=" stroke:none;fill-rule:nonzero;fill:rgb(9.803922%,14.901961%,43.921569%);fill-opacity:1;" d="M 48.785156 27.609375 C 48.546875 27.449219 48.34375 27.332031 48.148438 27.214844 C 48.109375 27.179688 48.070312 27.179688 48.027344 27.140625 L 47.667969 26.90625 L 47.390625 26.707031 L 27.574219 14 L 18.242188 23.570312 L 18.164062 23.648438 C 17.917969 23.890625 17.75 24.195312 17.679688 24.53125 C 17.609375 24.863281 17.644531 25.210938 17.777344 25.527344 C 17.90625 25.839844 18.132812 26.109375 18.421875 26.300781 C 18.710938 26.488281 19.046875 26.589844 19.394531 26.589844 C 19.636719 26.59375 19.875 26.546875 20.097656 26.449219 C 20.316406 26.355469 20.511719 26.210938 20.671875 26.035156 L 28.054688 18.472656 L 46.152344 30.140625 C 44.910156 34.859375 42.074219 39.019531 38.105469 41.941406 C 34.136719 44.863281 29.273438 46.367188 24.320312 46.203125 C 19.367188 46.042969 14.617188 44.230469 10.851562 41.058594 C 7.089844 37.886719 4.535156 33.550781 3.609375 28.761719 L 3.609375 28.683594 C 3.609375 28.644531 3.609375 28.644531 3.5625 28.605469 C 3.472656 28.144531 3.195312 27.738281 2.800781 27.480469 C 2.402344 27.21875 1.917969 27.121094 1.449219 27.214844 C 0.980469 27.304688 0.570312 27.574219 0.304688 27.964844 C 0.0390625 28.355469 -0.0585938 28.835938 0.0351562 29.292969 C 0.0351562 29.371094 0.0742188 29.457031 0.0742188 29.535156 C 1.183594 35.332031 4.351562 40.550781 9.011719 44.265625 C 13.671875 47.980469 19.519531 49.945312 25.515625 49.8125 C 31.511719 49.675781 37.265625 47.453125 41.75 43.535156 C 46.234375 39.621094 49.15625 34.261719 50 28.421875 C 49.660156 28.160156 49.167969 27.882812 48.785156 27.609375 Z M 48.785156 27.609375 "/>
<path style=" stroke:none;fill-rule:nonzero;fill:rgb(9.803922%,14.901961%,43.921569%);fill-opacity:1;" d="M 49.96875 20.515625 C 49.972656 20.496094 49.96875 20.472656 49.960938 20.453125 C 49.957031 20.433594 49.945312 20.414062 49.929688 20.398438 L 49.96875 20.398438 C 48.886719 14.589844 45.734375 9.347656 41.082031 5.609375 C 36.425781 1.875 30.570312 -0.113281 24.5625 0.00390625 C 18.550781 0.121094 12.78125 2.335938 8.28125 6.253906 C 3.78125 10.167969 0.847656 15.53125 0 21.378906 C 0.441406 21.648438 0.882812 21.886719 1.316406 22.160156 C 1.40625 22.21875 1.5 22.273438 1.601562 22.320312 C 1.640625 22.320312 1.640625 22.359375 1.679688 22.359375 L 22.546875 35.773438 L 31.890625 26.199219 L 31.972656 26.121094 C 32.230469 25.890625 32.414062 25.585938 32.488281 25.246094 C 32.566406 24.910156 32.535156 24.558594 32.398438 24.242188 C 32.261719 23.921875 32.027344 23.652344 31.730469 23.472656 C 31.433594 23.289062 31.082031 23.203125 30.734375 23.222656 C 30.492188 23.214844 30.253906 23.261719 30.03125 23.359375 C 29.8125 23.457031 29.613281 23.597656 29.457031 23.777344 L 21.996094 31.34375 L 3.90625 19.738281 C 5.144531 15.039062 7.96875 10.894531 11.914062 7.972656 C 15.859375 5.054688 20.691406 3.535156 25.628906 3.664062 C 30.566406 3.792969 35.3125 5.5625 39.09375 8.683594 C 42.875 11.804688 45.46875 16.09375 46.453125 20.847656 C 46.445312 20.945312 46.460938 21.039062 46.492188 21.128906 C 46.535156 21.355469 46.621094 21.570312 46.746094 21.765625 C 46.875 21.957031 47.039062 22.125 47.230469 22.257812 C 47.425781 22.386719 47.640625 22.480469 47.871094 22.527344 C 48.101562 22.578125 48.335938 22.582031 48.566406 22.539062 C 48.792969 22.496094 49.011719 22.410156 49.203125 22.285156 C 49.398438 22.160156 49.566406 22 49.695312 21.8125 C 49.824219 21.625 49.917969 21.414062 49.964844 21.191406 C 50.011719 20.96875 50.011719 20.738281 49.96875 20.515625 Z M 49.96875 20.515625 "/>
</g>
</svg>
