<svg width="50" height="50" viewBox="0 0 50 50" fill="none" xmlns="http://www.w3.org/2000/svg">
<g clip-path="url(#clip0_965_5501)">
<circle cx="25" cy="25" r="25" fill="white"/>
<path d="M48.7857 27.6111C48.5485 27.45 48.3452 27.3333 48.1475 27.2167C48.108 27.1778 48.0685 27.1778 48.0289 27.1389L47.6675 26.9056L47.3907 26.7056L27.5728 14L18.2427 23.5722L18.1637 23.65C17.9169 23.8894 17.7481 24.1958 17.679 24.53C17.6099 24.8642 17.6435 25.211 17.7756 25.5263C17.9077 25.8416 18.1323 26.1111 18.4206 26.3003C18.7091 26.4896 19.0482 26.59 19.3949 26.5889C19.636 26.5941 19.8754 26.5471 20.096 26.451C20.3166 26.355 20.513 26.2124 20.6713 26.0333L28.0529 18.4722L46.1539 30.1389C44.9117 34.8584 42.0725 39.0211 38.104 41.9413C34.1355 44.8616 29.2742 46.3653 24.3209 46.2049C19.3675 46.0445 14.6174 44.2295 10.8528 41.0588C7.0881 37.8881 4.53342 33.5508 3.60943 28.7611V28.6833C3.60943 28.6444 3.60943 28.6444 3.56425 28.6056C3.47138 28.1451 3.19637 27.7398 2.79971 27.4788C2.40306 27.2178 1.91725 27.1226 1.44917 27.2139C0.981082 27.3052 0.569063 27.5758 0.303743 27.9659C0.0384231 28.3561 -0.0584606 28.834 0.0344075 29.2944C0.0344075 29.3722 0.0739417 29.4556 0.0739417 29.5333C1.18459 35.3306 4.35208 40.5515 9.01178 44.2653C13.6714 47.9792 19.5205 49.9446 25.5161 49.8111C31.5118 49.6777 37.2645 47.4541 41.7486 43.5368C46.2328 39.6194 49.157 34.263 50 28.4222C49.6611 28.1611 49.1698 27.8833 48.7857 27.6111Z" fill="#192670"/>
<path d="M49.9688 20.5162C49.9713 20.4951 49.9691 20.4737 49.9623 20.4535C49.9554 20.4333 49.9441 20.4149 49.9292 20.3995H49.9688C48.8858 14.5893 45.7352 9.34733 41.0804 5.61089C36.4255 1.87447 30.5701 -0.112645 24.5613 0.00493419C18.5525 0.122513 12.7822 2.33712 8.28244 6.25267C3.78264 10.1682 0.846807 15.5294 0 21.3773C0.440901 21.6495 0.881802 21.8884 1.31705 22.1606C1.40737 22.2207 1.5018 22.2745 1.59968 22.3217C1.63925 22.3217 1.63925 22.3606 1.67882 22.3606L22.5481 35.7717L31.8918 26.1995L31.971 26.1217C32.2315 25.8902 32.4125 25.5849 32.4889 25.2479C32.5652 24.9109 32.5333 24.559 32.3974 24.2407C32.2615 23.9223 32.0284 23.6533 31.7303 23.4708C31.4321 23.2883 31.0837 23.2012 30.7331 23.2217C30.4917 23.2165 30.2521 23.2636 30.0313 23.3596C29.8106 23.4556 29.614 23.5982 29.4556 23.7773L21.9942 31.3439L3.90593 19.7384C5.14492 15.0403 7.96719 10.8935 11.9124 7.97444C15.8575 5.05544 20.6926 3.53649 25.629 3.66541C30.5653 3.79432 35.3116 5.5635 39.0934 8.68428C42.8752 11.8051 45.4695 16.0933 46.4529 20.8495C46.4465 20.9438 46.46 21.0383 46.4924 21.1273C46.534 21.354 46.6206 21.5704 46.7475 21.7642C46.8743 21.9579 47.0388 22.1251 47.2315 22.2562C47.4243 22.3873 47.6414 22.4798 47.8706 22.5282C48.0998 22.5766 48.3364 22.5801 48.5669 22.5384C48.7942 22.4964 49.0109 22.4107 49.2044 22.2863C49.398 22.1618 49.5646 22.0011 49.6948 21.8132C49.8251 21.6253 49.9163 21.4141 49.9633 21.1915C50.0103 20.9689 50.0122 20.7394 49.9688 20.5162Z" fill="#192670"/>
</g>
<defs>
<clipPath id="clip0_965_5501">
<rect width="50" height="50" fill="white"/>
</clipPath>
</defs>
</svg>
