<?xml version="1.0" encoding="UTF-8"?>
<svg xmlns="http://www.w3.org/2000/svg" xmlns:xlink="http://www.w3.org/1999/xlink" width="50px" height="50px" viewBox="0 0 50 50" version="1.1">
<g id="surface1">
<path style=" stroke:none;fill-rule:evenodd;fill:rgb(89.411765%,67.45098%,29.803922%);fill-opacity:1;" d="M 24.328125 3.953125 C 24.023438 4.050781 24.082031 4.015625 16.691406 8.648438 C 8.390625 13.847656 8.863281 13.503906 8.652344 14.523438 C 8.59375 14.816406 10.066406 40.132812 10.191406 40.933594 C 10.3125 41.730469 10.910156 42.417969 11.699219 42.683594 L 11.988281 42.777344 L 25.058594 42.765625 L 38.125 42.753906 L 38.394531 42.644531 C 39.007812 42.398438 39.527344 41.835938 39.722656 41.214844 C 39.863281 40.769531 41.433594 15.070312 41.351562 14.585938 C 41.28125 14.171875 41.027344 13.683594 40.730469 13.394531 C 40.359375 13.027344 26.085938 4.113281 25.664062 3.980469 C 25.3125 3.875 24.628906 3.859375 24.328125 3.953125 Z M 31.433594 11.433594 C 37.769531 15.386719 37.882812 15.460938 37.949219 15.800781 C 37.992188 16.003906 36.609375 38.75 36.546875 38.910156 C 36.476562 39.101562 36.328125 39.265625 36.15625 39.351562 C 35.976562 39.445312 35.84375 39.445312 24.960938 39.445312 L 13.949219 39.445312 L 13.792969 39.339844 C 13.550781 39.175781 13.4375 38.96875 13.40625 38.644531 C 13.390625 38.484375 13.0625 33.285156 12.679688 27.082031 L 11.980469 15.808594 L 12.085938 15.613281 C 12.167969 15.457031 12.285156 15.355469 12.65625 15.117188 C 12.914062 14.953125 15.738281 13.183594 18.933594 11.179688 L 24.746094 7.542969 L 25 7.558594 C 25.246094 7.574219 25.445312 7.695312 31.433594 11.433594 Z M 20.535156 14.832031 L 16.089844 17.621094 L 16.101562 17.847656 C 16.109375 17.976562 16.238281 20.050781 16.390625 22.460938 C 16.542969 24.871094 16.667969 26.894531 16.667969 26.960938 L 16.667969 27.082031 L 28.890625 27.082031 L 28.886719 27.234375 C 28.886719 27.316406 28.835938 28.164062 28.773438 29.121094 C 28.710938 30.074219 28.660156 30.914062 28.65625 30.984375 L 28.65625 31.109375 L 21.355469 31.109375 L 21.328125 30.753906 C 21.3125 30.554688 21.277344 29.933594 21.25 29.375 C 21.21875 28.816406 21.1875 28.308594 21.175781 28.253906 L 21.15625 28.148438 L 16.757812 28.148438 L 16.757812 28.367188 C 16.757812 28.628906 17.117188 34.847656 17.15625 35.265625 L 17.183594 35.554688 L 25.003906 35.554688 C 29.304688 35.554688 32.824219 35.539062 32.824219 35.519531 C 32.824219 35.5 33 32.636719 33.21875 29.152344 C 33.433594 25.667969 33.609375 22.777344 33.609375 22.726562 C 33.609375 22.640625 33.480469 22.640625 27.222656 22.640625 C 22.140625 22.640625 20.832031 22.628906 20.832031 22.582031 C 20.835938 22.550781 20.800781 21.964844 20.757812 21.28125 C 20.691406 20.214844 20.6875 20.03125 20.746094 19.980469 C 20.804688 19.921875 24.703125 17.46875 24.90625 17.363281 C 24.980469 17.320312 25.320312 17.515625 27.140625 18.648438 L 29.28125 19.984375 L 29.265625 20.804688 L 29.25 21.621094 L 33.679688 21.597656 L 33.78125 19.882812 C 33.835938 18.941406 33.882812 18.046875 33.886719 17.890625 L 33.890625 17.609375 L 29.527344 14.882812 C 27.125 13.386719 25.121094 12.132812 25.070312 12.101562 C 24.984375 12.050781 24.523438 12.328125 20.535156 14.832031 Z M 20.535156 14.832031 "/>
</g>
</svg>
