<svg width="50" height="50" viewBox="0 0 50 50" fill="none" xmlns="http://www.w3.org/2000/svg">
<path d="M18.6554 33.3555C23.4303 32.3511 26.4871 27.6661 25.4827 22.8911C24.4784 18.1161 19.7933 15.0594 15.0183 16.0637C10.2434 17.0681 7.18663 21.7531 8.19097 26.528C9.19532 31.3031 13.8804 34.3599 18.6554 33.3555Z" fill="#F7771A"/>
<path d="M36.6969 8.67744C37.6006 9.4705 38.4906 10.2745 39.297 11.1723C44.7508 17.2476 46.2211 26.2021 42.9741 33.684C40.8277 38.6301 37.3201 42.2973 32.4503 44.5922C28.1422 46.6236 23.6151 47.1243 18.9353 46.1481C18.8578 46.1315 18.7836 46.1073 18.6909 46.0362C24.4754 45.6419 29.4424 43.465 33.3678 39.1951C37.2964 34.9233 39.2092 29.8343 38.9948 24.0099C38.8208 19.2584 37.207 15.0126 34.1794 11.3323C31.1619 7.66089 27.2997 5.29763 22.694 4.12631C22.7738 3.95538 22.8954 4.0078 22.9887 4.00686C25.3785 3.96194 27.7076 4.31797 29.9783 5.06487C31.2528 5.48446 32.472 6.02352 33.648 6.66786C33.7054 6.69889 33.7727 6.71248 33.8359 6.73525L36.6944 8.67786L36.6969 8.67744Z" fill="#F7771A"/>
</svg>
