<?xml version="1.0" standalone="no"?>
<!DOCTYPE svg PUBLIC "-//W3C//DTD SVG 20010904//EN"
 "http://www.w3.org/TR/2001/REC-SVG-20010904/DTD/svg10.dtd">
<svg version="1.0" xmlns="http://www.w3.org/2000/svg"
 width="400.000000pt" height="400.000000pt" viewBox="0 0 400.000000 400.000000"
 preserveAspectRatio="xMidYMid meet">

<g transform="translate(0.000000,400.000000) scale(0.100000,-0.100000)"
fill="#000000" stroke="none">
<path d="M1756 3970 c-108 -14 -260 -49 -380 -88 -143 -46 -395 -173 -515
-259 -279 -200 -477 -431 -629 -733 -87 -172 -139 -321 -179 -509 -26 -118
-27 -142 -27 -386 0 -244 1 -268 27 -386 40 -188 92 -337 179 -509 191 -380
479 -674 849 -865 307 -158 581 -225 924 -225 343 0 617 67 924 225 565 293
963 859 1046 1491 19 147 19 391 0 538 -71 541 -369 1031 -826 1359 -121 87
-372 213 -518 260 -215 70 -327 88 -581 92 -124 2 -256 0 -294 -5z m329 -779
c191 -39 368 -127 529 -263 226 -189 359 -425 411 -722 96 -560 -237 -1128
-775 -1321 -239 -85 -468 -96 -715 -34 -44 11 -83 24 -87 27 -4 4 45 8 108 9
249 6 473 81 681 229 85 61 220 199 283 290 238 344 274 827 89 1197 -122 244
-308 431 -551 552 -119 60 -115 66 27 36z m-463 -621 c183 -56 321 -219 348
-408 29 -211 -82 -417 -277 -514 -78 -39 -90 -42 -187 -46 -86 -4 -116 -1
-174 17 -358 109 -471 558 -207 825 100 102 203 144 351 145 55 1 103 -6 146
-19z"/>
</g>
</svg>
