<?xml version="1.0" encoding="UTF-8"?>
<svg xmlns="http://www.w3.org/2000/svg" xmlns:xlink="http://www.w3.org/1999/xlink" width="50px" height="50px" viewBox="0 0 50 50" version="1.1">
<g id="surface1">
<path style=" stroke:none;fill-rule:nonzero;fill:rgb(0%,0%,0%);fill-opacity:1;" d="M 21.949219 0.375 C 20.601562 0.550781 18.699219 0.988281 17.199219 1.476562 C 15.414062 2.050781 12.261719 3.636719 10.761719 4.710938 C 7.273438 7.210938 4.800781 10.101562 2.898438 13.875 C 1.8125 16.023438 1.164062 17.886719 0.664062 20.238281 C 0.335938 21.710938 0.324219 22.011719 0.324219 25.0625 C 0.324219 28.113281 0.335938 28.414062 0.664062 29.886719 C 1.164062 32.238281 1.8125 34.101562 2.898438 36.25 C 5.289062 41 8.886719 44.675781 13.511719 47.0625 C 17.351562 49.039062 20.773438 49.875 25.0625 49.875 C 29.351562 49.875 32.773438 49.039062 36.613281 47.0625 C 43.675781 43.398438 48.648438 36.324219 49.6875 28.425781 C 49.925781 26.585938 49.925781 23.539062 49.6875 21.699219 C 48.800781 14.9375 45.074219 8.8125 39.363281 4.710938 C 37.851562 3.625 34.710938 2.050781 32.886719 1.460938 C 30.199219 0.585938 28.800781 0.363281 25.625 0.3125 C 24.074219 0.289062 22.425781 0.3125 21.949219 0.375 Z M 26.0625 10.113281 C 28.449219 10.601562 30.664062 11.699219 32.675781 13.398438 C 35.5 15.761719 37.164062 18.710938 37.8125 22.425781 C 39.011719 29.425781 34.851562 36.523438 28.125 38.9375 C 25.136719 40 22.273438 40.136719 19.1875 39.363281 C 18.636719 39.226562 18.148438 39.0625 18.101562 39.023438 C 18.050781 38.976562 18.664062 38.925781 19.449219 38.914062 C 22.5625 38.835938 25.363281 37.898438 27.960938 36.050781 C 29.023438 35.289062 30.710938 33.5625 31.5 32.425781 C 34.476562 28.125 34.925781 22.085938 32.613281 17.460938 C 31.085938 14.414062 28.761719 12.074219 25.726562 10.5625 C 24.238281 9.8125 24.289062 9.738281 26.0625 10.113281 Z M 20.273438 17.875 C 22.5625 18.574219 24.289062 20.613281 24.625 22.976562 C 24.988281 25.613281 23.601562 28.1875 21.164062 29.398438 C 20.1875 29.886719 20.039062 29.925781 18.824219 29.976562 C 17.75 30.023438 17.375 29.988281 16.648438 29.761719 C 12.175781 28.398438 10.761719 22.789062 14.0625 19.449219 C 15.3125 18.175781 16.601562 17.648438 18.449219 17.636719 C 19.136719 17.625 19.738281 17.710938 20.273438 17.875 Z M 20.273438 17.875 "/>
</g>
</svg>
