<svg width="34" height="50" viewBox="0 0 34 50" fill="none" xmlns="http://www.w3.org/2000/svg">
<path d="M31.8186 7.26486C32.8044 6.09346 33.3331 4.69873 33.3333 3.26944C33.3059 2.42894 32.9593 1.61716 32.3431 0.950201C32.0382 0.639028 31.65 0.391303 31.2095 0.22674C30.769 0.0621773 30.2884 -0.0146763 29.8058 0.00231083C25.8531 0.00231083 23.8487 3.06714 23.8487 9.11187C23.8498 9.98083 23.9069 10.8491 24.0198 11.713L18.1804 15.7861C16.7751 14.7763 14.929 14.2647 12.6871 14.2647C11.0319 14.2609 9.39835 14.5771 7.91564 15.1884C6.45947 15.7794 5.16756 16.6161 4.1223 17.6451C2.95432 18.8588 2.00288 20.2059 1.29727 21.6449C0.406965 23.4359 -0.033254 25.3592 0.00365945 27.2967C-0.0495898 29.3082 0.478969 31.3008 1.54493 33.1074C0.718496 35.2357 0.310713 37.4608 0.33729 39.697C0.318741 42.1016 1.19134 44.4526 2.83664 46.431C4.52597 48.4803 6.7167 49.5197 9.34784 49.5197C9.43065 49.5212 9.51293 49.5084 9.58947 49.4821C9.666 49.4558 9.73511 49.4165 9.79243 49.3668C9.87123 49.2875 9.92941 49.1955 9.9633 49.0966C9.99719 48.9977 10.0061 48.894 9.98934 48.7921C9.95147 48.1648 9.52772 48.0971 9.34784 48.0971C7.3351 48.0971 5.73097 47.3078 4.44381 45.6838C3.13549 44.0308 2.451 42.0908 2.47802 40.1126C2.45746 38.4295 2.67738 36.7504 3.13316 35.1104C5.28374 37.1802 8.34924 38.2287 12.2573 38.2287C14.9064 38.2726 17.5345 37.8296 19.9534 36.9313C22.0667 36.1356 23.8819 34.8803 25.2074 33.2983C26.4834 31.7388 27.4361 30.0129 28.026 28.1921C28.6411 26.3051 28.9503 24.3584 28.9454 22.4034C28.9454 20.446 28.4566 16.7334 27.492 11.3676C29.1175 10.1412 30.569 8.76476 31.8186 7.26486ZM31.2407 3.4475C31.2407 5.0161 29.8801 6.96819 27.1933 9.25564C27.091 8.38735 27.0395 7.66157 27.0395 7.09246C27.0395 3.51546 27.9707 1.70178 29.8073 1.70178C30.4227 1.70178 31.2407 1.88268 31.2407 3.4475ZM16.5138 16.9807C9.58944 21.896 4.90505 26.569 2.57118 30.8885C2.18553 29.7727 1.99425 28.6168 2.00314 27.4559C2.00147 26.1021 2.25301 24.7564 2.74878 23.4668C3.861 20.4409 5.71393 18.2614 8.25684 16.9891C9.65442 16.3017 11.2528 15.9471 12.8769 15.9642C14.4015 15.9642 15.5943 16.297 16.5138 16.9807ZM9.06874 25.4783C11.6889 22.9231 14.5489 20.5445 17.6218 18.3649C17.8303 18.909 17.9364 19.4767 17.9362 20.0477C17.9218 21.8385 17.0673 23.5541 15.5542 24.8296C14.4897 25.8121 13.3169 26.3104 12.0703 26.3104H11.6181L11.6972 26.6801C11.7424 26.9868 11.9092 27.2723 12.1714 27.4914C12.4479 27.6866 12.8035 27.7868 13.1658 27.7717C14.7094 27.7889 16.2137 27.3671 17.4291 26.5763C18.5655 25.8703 19.4479 24.9196 19.9807 23.827C20.4761 22.7133 20.7194 21.5331 20.6983 20.3459C20.7089 19.1606 20.2891 18.0001 19.4937 17.0159L24.2542 13.7371C24.778 18.318 25.0434 21.1066 25.0434 22.0297C25.0434 25.9424 24.0505 29.3142 22.0919 32.0513C21.1086 33.4254 19.6996 34.5552 18.0119 35.3231C16.142 36.1533 14.0461 36.5694 11.9263 36.5312C8.22048 36.5312 5.56435 35.4282 3.80685 33.1596C4.97322 30.3506 6.75744 27.746 9.06874 25.4783Z" fill="url(#paint0_linear_653_738)"/>
<path d="M4.3514 45.9053C5.6628 46.7862 7.24157 47.0693 8.32425 45.7005C8.54506 45.3476 8.81503 45.0176 9.12858 44.7171C10.017 43.9869 11.3208 43.5644 12.5035 43.2948C15.0288 42.7355 17.7066 42.8922 20.1125 43.7402C20.2188 43.7917 20.2967 43.8756 20.3297 43.9741C20.3626 44.0726 20.348 44.1778 20.289 44.2675C19.109 46.3977 16.6494 47.4931 14.0175 48.0232C11.6764 48.4935 8.84797 48.9824 6.91665 47.5047C6.85525 47.4517 6.81117 47.3865 6.78861 47.3154C6.76606 47.2442 6.76578 47.1695 6.78778 47.0982C6.80979 47.0269 6.85336 46.9615 6.91435 46.9082C6.97535 46.8548 7.05174 46.8153 7.13629 46.7934C10.0477 45.8056 13.1154 44.8114 16.2188 44.3631C16.3096 44.3439 16.4059 44.3549 16.4871 44.3939C16.5682 44.4328 16.6278 44.4966 16.6531 44.5716C16.6785 44.6466 16.6675 44.7268 16.6226 44.7951C16.5776 44.8634 16.5023 44.9145 16.4127 44.9373C13.3862 45.7455 10.426 46.4351 7.53013 47.5648C7.56307 47.3421 7.59829 47.12 7.63124 46.8972C9.377 48.1352 12.238 47.5538 14.2557 47.1102C16.4763 46.622 18.4614 45.6779 19.4782 43.8928C19.5361 44.0684 19.5963 44.2445 19.6566 44.421C16.2998 43.2494 10.9933 43.2627 8.98809 46.2102C7.93684 47.7564 5.24701 47.4402 4.01437 46.1903C3.97294 46.1525 3.9505 46.103 3.95167 46.0519C3.95284 46.0007 3.97754 45.9519 4.02067 45.9154C4.0638 45.879 4.1221 45.8576 4.1836 45.8557C4.24511 45.8538 4.30515 45.8716 4.3514 45.9053Z" fill="url(#paint1_linear_653_738)"/>
<path d="M12.2089 49.7865C13.8547 49.7882 15.4924 49.5945 17.0724 49.2114C18.5871 48.827 19.1805 47.846 20.3791 47.113C21.2317 46.603 22.2157 46.2653 23.2529 46.1266C24.2901 45.988 25.352 46.0522 26.3541 46.3143C26.4095 46.3264 26.4609 46.3488 26.5043 46.3798C26.5478 46.4109 26.5822 46.4497 26.605 46.4933C26.6278 46.537 26.6383 46.5844 26.6359 46.632C26.6334 46.6796 26.618 46.726 26.5908 46.7679C24.689 48.9673 21.2009 49.3436 18.1838 49.0016C17.7567 48.9538 17.8661 48.4148 18.2664 48.3944C21.1187 48.249 24.0486 48.5699 25.9985 46.3995C26.0579 46.5732 26.1151 46.7456 26.1742 46.9195C24.8679 46.5393 23.4453 46.5367 22.137 46.912C21.365 47.1301 20.6522 47.4722 20.039 47.9187C19.602 48.2447 19.3017 48.6977 18.8405 48.995C17.192 50.053 14.1633 50.0703 12.2134 49.9491C12.0911 49.9419 12.0812 49.7871 12.2092 49.7859L12.2089 49.7865Z" fill="url(#paint2_linear_653_738)"/>
<defs>
<linearGradient id="paint0_linear_653_738" x1="0" y1="24.7599" x2="33.3333" y2="24.7599" gradientUnits="userSpaceOnUse">
<stop stop-color="white"/>
<stop offset="0.998" stop-color="#D9D9D9"/>
</linearGradient>
<linearGradient id="paint1_linear_653_738" x1="-59.0063" y1="69.377" x2="-45.595" y2="69.377" gradientUnits="userSpaceOnUse">
<stop stop-color="white"/>
<stop offset="0.998" stop-color="#D9D9D9"/>
</linearGradient>
<linearGradient id="paint2_linear_653_738" x1="-65.9359" y1="69.1669" x2="-55.0032" y2="69.1669" gradientUnits="userSpaceOnUse">
<stop stop-color="white"/>
<stop offset="0.998" stop-color="#D9D9D9"/>
</linearGradient>
</defs>
</svg>
