<?xml version="1.0" encoding="UTF-8"?>
<svg xmlns="http://www.w3.org/2000/svg" xmlns:xlink="http://www.w3.org/1999/xlink" width="50px" height="50px" viewBox="0 0 50 50" version="1.1">
<defs>
<linearGradient id="linear0" gradientUnits="userSpaceOnUse" x1="25" y1="0" x2="25" y2="50" >
<stop offset="0" style="stop-color:rgb(98.039216%,86.27451%,49.411765%);stop-opacity:1;"/>
<stop offset="1" style="stop-color:rgb(31.372549%,25.098039%,5.882353%);stop-opacity:1;"/>
</linearGradient>
<linearGradient id="linear1" gradientUnits="userSpaceOnUse" x1="25" y1="1.5625" x2="25" y2="48.4375" >
<stop offset="0" style="stop-color:rgb(85.490196%,67.058824%,8.627451%);stop-opacity:1;"/>
<stop offset="1" style="stop-color:rgb(65.490196%,54.117647%,18.823529%);stop-opacity:1;"/>
</linearGradient>
<linearGradient id="linear2" gradientUnits="userSpaceOnUse" x1="24.9999" y1="2.34375" x2="24.9999" y2="25" >
<stop offset="0" style="stop-color:rgb(98.823529%,82.352941%,30.980392%);stop-opacity:1;"/>
<stop offset="1" style="stop-color:rgb(76.470588%,61.176471%,13.333333%);stop-opacity:1;"/>
</linearGradient>
<linearGradient id="linear3" gradientUnits="userSpaceOnUse" x1="25" y1="8.20314" x2="25" y2="45.3125" >
<stop offset="0" style="stop-color:rgb(100%,90.980392%,62.745098%);stop-opacity:1;"/>
<stop offset="1" style="stop-color:rgb(87.45098%,75.294118%,36.078431%);stop-opacity:1;"/>
</linearGradient>
</defs>
<g id="surface1">
<path style=" stroke:none;fill-rule:nonzero;fill:url(#linear0);" d="M 25 50 C 38.808594 50 50 38.808594 50 25 C 50 11.191406 38.808594 0 25 0 C 11.191406 0 0 11.191406 0 25 C 0 38.808594 11.191406 50 25 50 Z M 25 50 "/>
<path style=" stroke:none;fill-rule:nonzero;fill:url(#linear1);" d="M 25 48.4375 C 37.945312 48.4375 48.4375 37.945312 48.4375 25 C 48.4375 12.054688 37.945312 1.5625 25 1.5625 C 12.054688 1.5625 1.5625 12.054688 1.5625 25 C 1.5625 37.945312 12.054688 48.4375 25 48.4375 Z M 25 48.4375 "/>
<path style=" stroke:none;fill-rule:evenodd;fill:url(#linear2);" d="M 44.917969 19.542969 C 42.449219 11.195312 34.46875 5.078125 25 5.078125 C 15.53125 5.078125 7.546875 11.195312 5.082031 19.542969 C 5.320312 10.441406 14.148438 3.125 25 3.125 C 35.851562 3.125 44.679688 10.441406 44.917969 19.542969 Z M 44.917969 19.542969 "/>
<path style=" stroke:none;fill-rule:nonzero;fill:rgb(59.607843%,47.45098%,9.411765%);fill-opacity:1;" d="M 36.199219 12.3125 C 36.652344 10.625 35.910156 8.550781 34.097656 8.59375 C 30.613281 8.546875 30.046875 13.410156 30.4375 17.65625 L 26.742188 20.808594 C 25.367188 19.632812 23.441406 19.398438 21.710938 19.808594 C 15.929688 21.230469 13.796875 29.476562 16.21875 34.207031 C 15.035156 36.984375 15.199219 40.390625 16.816406 42.964844 C 18.175781 45.675781 22.292969 46.554688 21.472656 44.777344 C 21.28125 44.535156 21.28125 44.621094 20.984375 44.589844 C 17.121094 44.34375 16.15625 38.539062 17.222656 35.757812 C 20.648438 39.789062 28.195312 38.410156 30.863281 34.820312 C 34.800781 29.539062 33.457031 23.136719 32.644531 17.386719 C 34.082031 15.957031 35.6875 14.367188 36.199219 12.3125 Z M 16.851562 32.484375 C 14.882812 24.808594 21.449219 18.59375 25.679688 21.722656 L 25.683594 21.722656 C 22.015625 24.625 19.003906 28.296875 16.851562 32.484375 Z M 29.199219 33.382812 C 26.921875 37.433594 20.148438 38.320312 17.613281 34.242188 C 18.351562 32.070312 19.484375 30.054688 20.949219 28.300781 L 20.96875 28.292969 C 22.625 26.316406 24.4375 24.476562 26.386719 22.789062 C 27.257812 25.476562 25.105469 29.109375 22.582031 28.933594 C 22.730469 31.308594 26.257812 29.464844 26.941406 28.515625 C 28.589844 26.710938 28.742188 23.410156 27.566406 21.746094 L 30.578125 19.210938 C 31.203125 26.417969 31.632812 28.550781 29.199219 33.382812 Z M 32.441406 15.746094 C 31.8125 8.996094 34.449219 9.652344 34.785156 10.234375 C 35.691406 12.082031 33.285156 15.167969 32.441406 15.746094 Z M 32.441406 15.746094 "/>
<path style=" stroke:none;fill-rule:nonzero;fill:url(#linear3);" d="M 35.417969 11.921875 C 35.871094 10.234375 35.128906 8.160156 33.316406 8.203125 C 29.832031 8.15625 29.265625 13.019531 29.65625 17.265625 L 25.960938 20.417969 C 24.585938 19.242188 22.660156 19.007812 20.929688 19.417969 C 15.148438 20.839844 13.015625 29.085938 15.4375 33.816406 C 14.253906 36.59375 14.417969 40 16.035156 42.574219 C 17.394531 45.285156 21.511719 46.164062 20.695312 44.386719 C 20.5 44.144531 20.5 44.230469 20.203125 44.199219 C 16.339844 43.953125 15.375 38.148438 16.441406 35.367188 C 19.867188 39.398438 27.414062 38.019531 30.082031 34.429688 C 34.019531 29.148438 32.675781 22.746094 31.863281 16.996094 C 33.300781 15.566406 34.90625 13.976562 35.417969 11.921875 Z M 16.070312 32.09375 C 14.101562 24.417969 20.667969 18.207031 24.898438 21.332031 L 24.902344 21.332031 C 21.234375 24.234375 18.222656 27.90625 16.070312 32.09375 Z M 28.417969 32.992188 C 26.140625 37.042969 19.367188 37.929688 16.832031 33.851562 C 17.570312 31.679688 18.703125 29.664062 20.167969 27.910156 L 20.1875 27.902344 C 21.84375 25.925781 23.65625 24.085938 25.605469 22.398438 C 26.476562 25.085938 24.324219 28.71875 21.800781 28.542969 C 21.949219 30.917969 25.476562 29.074219 26.160156 28.125 C 27.808594 26.320312 27.960938 23.019531 26.785156 21.355469 L 29.796875 18.820312 C 30.421875 26.027344 30.851562 28.160156 28.417969 32.992188 Z M 31.660156 15.355469 C 31.03125 8.605469 33.664062 9.261719 34.003906 9.84375 C 34.910156 11.6875 32.503906 14.777344 31.660156 15.355469 Z M 31.660156 15.355469 "/>
</g>
</svg>
