<?xml version="1.0" encoding="UTF-8"?>
<svg xmlns="http://www.w3.org/2000/svg" xmlns:xlink="http://www.w3.org/1999/xlink" width="50px" height="50px" viewBox="0 0 50 50" version="1.1">
<g id="surface1">
<path style=" stroke:none;fill-rule:nonzero;fill:rgb(12.156863%,12.156863%,17.647059%);fill-opacity:1;" d="M 50 25 C 50 11.191406 38.808594 0 25 0 C 11.191406 0 0 11.191406 0 25 C 0 38.808594 11.191406 50 25 50 C 38.808594 50 50 38.808594 50 25 Z M 50 25 "/>
<path style=" stroke:none;fill-rule:nonzero;fill:rgb(94.901961%,37.647059%,34.117647%);fill-opacity:1;" d="M 25 31.25 C 21.546875 31.25 18.75 28.453125 18.75 25 C 18.75 21.546875 21.546875 18.75 25 18.75 C 28.453125 18.75 31.25 21.546875 31.25 25 C 31.25 28.453125 28.453125 31.25 25 31.25 Z M 25 31.25 "/>
<path style=" stroke:none;fill-rule:nonzero;fill:rgb(94.901961%,37.647059%,34.117647%);fill-opacity:1;" d="M 25 31.25 C 28.453125 31.25 31.25 28.453125 31.25 25 C 31.25 21.546875 28.453125 18.75 25 18.75 C 21.546875 18.75 18.75 21.546875 18.75 25 C 18.75 28.453125 21.546875 31.25 25 31.25 Z M 25 31.25 "/>
<path style=" stroke:none;fill-rule:nonzero;fill:rgb(94.901961%,37.647059%,34.117647%);fill-opacity:1;" d="M 33.75 25 C 33.75 28.453125 36.546875 31.25 40 31.25 L 40 18.75 C 36.546875 18.75 33.75 21.546875 33.75 25 Z M 33.75 25 "/>
<path style=" stroke:none;fill-rule:nonzero;fill:rgb(94.901961%,37.647059%,34.117647%);fill-opacity:1;" d="M 16.25 25 C 16.25 21.546875 13.453125 18.75 10 18.75 L 10 31.25 C 13.453125 31.25 16.25 28.453125 16.25 25 Z M 16.25 25 "/>
<path style=" stroke:none;fill-rule:nonzero;fill:rgb(94.901961%,37.647059%,34.117647%);fill-opacity:1;" d="M 25 16.25 C 28.453125 16.25 31.25 13.453125 31.25 10 L 18.75 10 C 18.75 13.453125 21.546875 16.25 25 16.25 Z M 25 16.25 "/>
<path style=" stroke:none;fill-rule:nonzero;fill:rgb(94.901961%,37.647059%,34.117647%);fill-opacity:1;" d="M 40 16.25 L 40 10 L 33.75 10 C 33.75 13.453125 36.546875 16.25 40 16.25 Z M 40 16.25 "/>
<path style=" stroke:none;fill-rule:nonzero;fill:rgb(94.901961%,37.647059%,34.117647%);fill-opacity:1;" d="M 16.25 10 L 10 10 L 10 16.25 C 13.453125 16.25 16.25 13.453125 16.25 10 Z M 16.25 10 "/>
<path style=" stroke:none;fill-rule:nonzero;fill:rgb(94.901961%,37.647059%,34.117647%);fill-opacity:1;" d="M 25 33.75 C 21.546875 33.75 18.75 36.546875 18.75 40 L 31.25 40 C 31.25 36.546875 28.453125 33.75 25 33.75 Z M 25 33.75 "/>
<path style=" stroke:none;fill-rule:nonzero;fill:rgb(94.901961%,37.647059%,34.117647%);fill-opacity:1;" d="M 40 33.75 C 36.546875 33.75 33.75 36.546875 33.75 40 L 40 40 Z M 40 33.75 "/>
<path style=" stroke:none;fill-rule:nonzero;fill:rgb(94.901961%,37.647059%,34.117647%);fill-opacity:1;" d="M 10 33.75 L 10 40 L 16.25 40 C 16.25 36.546875 13.453125 33.75 10 33.75 Z M 10 33.75 "/>
</g>
</svg>
