<svg width="48" height="48" viewBox="0 0 48 48" fill="none" xmlns="http://www.w3.org/2000/svg">
<g clip-path="url(#clip0_965_5577)">
<path d="M48 24C48 10.7452 37.2548 0 24 0C10.7452 0 0 10.7452 0 24C0 37.2548 10.7452 48 24 48C37.2548 48 48 37.2548 48 24Z" fill="#1F1F2D"/>
<path d="M24 30C20.685 30 18 27.315 18 24C18 20.685 20.685 18 24 18C27.315 18 30 20.685 30 24C30 27.315 27.315 30 24 30Z" fill="#F26057"/>
<path d="M24 30C27.3137 30 30 27.3137 30 24C30 20.6863 27.3137 18 24 18C20.6863 18 18 20.6863 18 24C18 27.3137 20.6863 30 24 30Z" fill="#F26057"/>
<path d="M32.3999 24C32.3999 27.315 35.0849 30 38.3999 30V18C35.0849 18 32.3999 20.685 32.3999 24Z" fill="#F26057"/>
<path d="M15.6001 24C15.6001 20.685 12.9151 18 9.6001 18V30C12.9151 30 15.6001 27.315 15.6001 24Z" fill="#F26057"/>
<path d="M24 15.6001C27.315 15.6001 30 12.9151 30 9.6001H18C18 12.9151 20.685 15.6001 24 15.6001Z" fill="#F26057"/>
<path d="M38.3999 15.6001V9.6001H32.3999C32.3999 12.9151 35.0849 15.6001 38.3999 15.6001Z" fill="#F26057"/>
<path d="M15.6001 9.6001H9.6001V15.6001C12.9151 15.6001 15.6001 12.9151 15.6001 9.6001Z" fill="#F26057"/>
<path d="M24 32.3999C20.685 32.3999 18 35.0849 18 38.3999H30C30 35.0849 27.315 32.3999 24 32.3999Z" fill="#F26057"/>
<path d="M38.3999 32.3999C35.0849 32.3999 32.3999 35.0849 32.3999 38.3999H38.3999V32.3999Z" fill="#F26057"/>
<path d="M9.6001 32.3999V38.3999H15.6001C15.6001 35.0849 12.9151 32.3999 9.6001 32.3999Z" fill="#F26057"/>
</g>
<defs>
<clipPath id="clip0_965_5577">
<rect width="48" height="48" fill="white"/>
</clipPath>
</defs>
</svg>
