<?xml version="1.0" encoding="UTF-8"?>
<svg xmlns="http://www.w3.org/2000/svg" xmlns:xlink="http://www.w3.org/1999/xlink" width="50px" height="50px" viewBox="0 0 50 45" version="1.1">
<defs>
<linearGradient id="linear0" gradientUnits="userSpaceOnUse" x1="27.8629" y1="42.8745" x2="22.137" y2="2.13252" >
<stop offset="0" style="stop-color:rgb(19.215686%,65.882353%,98.039216%);stop-opacity:1;"/>
<stop offset="0.3771" style="stop-color:rgb(19.215686%,65.882353%,98.039216%);stop-opacity:1;"/>
<stop offset="0.4767" style="stop-color:rgb(35.686275%,52.156863%,98.431373%);stop-opacity:1;"/>
<stop offset="0.7003" style="stop-color:rgb(77.647059%,17.647059%,99.215686%);stop-opacity:1;"/>
<stop offset="0.7374" style="stop-color:rgb(84.705882%,11.764706%,99.215686%);stop-opacity:1;"/>
<stop offset="0.825" style="stop-color:rgb(68.235294%,10.980392%,85.882353%);stop-opacity:1;"/>
<stop offset="1" style="stop-color:rgb(31.764706%,9.019608%,56.470588%);stop-opacity:1;"/>
</linearGradient>
</defs>
<g id="surface1">
<path style=" stroke:none;fill-rule:nonzero;fill:url(#linear0);" d="M 40.785156 27.332031 C 40.785156 31.691406 39.023438 35.636719 36.164062 38.496094 C 33.304688 41.355469 29.355469 43.117188 25 43.117188 C 20.644531 43.117188 16.695312 41.355469 13.835938 38.496094 C 10.976562 35.636719 9.214844 31.691406 9.214844 27.332031 C 9.214844 26.96875 9.355469 26.648438 9.597656 26.414062 C 9.828125 26.183594 10.15625 26.03125 10.511719 26.03125 L 15.34375 26.03125 C 15.703125 26.03125 16.027344 26.175781 16.257812 26.414062 C 16.492188 26.648438 16.640625 26.976562 16.640625 27.332031 C 16.640625 29.636719 17.578125 31.730469 19.089844 33.242188 L 19.164062 33.316406 C 20.671875 34.789062 22.730469 35.691406 25 35.691406 L 25.292969 35.691406 L 25.292969 35.675781 C 27.488281 35.601562 29.464844 34.683594 30.910156 33.242188 L 30.917969 33.234375 C 32.421875 31.730469 33.359375 29.636719 33.359375 27.324219 C 33.359375 26.046875 33.070312 24.816406 32.542969 23.714844 C 32.011719 22.597656 31.222656 21.601562 30.246094 20.8125 C 29.726562 20.398438 29.316406 19.898438 29.023438 19.324219 C 28.726562 18.753906 28.5625 18.140625 28.53125 17.46875 C 28.476562 16.539062 28.0625 15.703125 27.429688 15.101562 C 26.800781 14.507812 25.9375 14.136719 25 14.136719 C 24.023438 14.136719 23.140625 14.527344 22.503906 15.164062 L 22.496094 15.171875 C 21.859375 15.808594 21.46875 16.691406 21.46875 17.667969 C 21.46875 18.644531 21.867188 19.527344 22.503906 20.171875 L 22.707031 20.375 L 22.722656 20.363281 C 23.339844 20.882812 24.136719 21.203125 25.007812 21.203125 C 26.6875 21.203125 28.222656 21.886719 29.335938 23.003906 L 29.34375 23.007812 C 30.453125 24.125 31.128906 25.648438 31.128906 27.332031 C 31.128906 29.015625 30.445312 30.546875 29.328125 31.664062 L 29.324219 31.667969 C 28.207031 32.777344 26.683594 33.460938 25 33.460938 C 23.371094 33.460938 21.894531 32.824219 20.800781 31.785156 C 19.691406 30.738281 18.980469 29.289062 18.890625 27.675781 C 18.878906 27.375 18.808594 27.09375 18.679688 26.855469 C 18.558594 26.613281 18.371094 26.394531 18.140625 26.210938 C 16.859375 25.179688 15.835938 23.871094 15.128906 22.40625 C 14.433594 20.949219 14.050781 19.335938 14.050781 17.679688 C 14.050781 14.664062 15.273438 11.929688 17.257812 9.9375 L 17.265625 9.933594 L 17.269531 9.925781 C 19.253906 7.941406 21.992188 6.71875 25.007812 6.71875 C 28.023438 6.71875 30.757812 7.941406 32.75 9.925781 L 32.761719 9.9375 C 34.398438 11.582031 35.519531 13.726562 35.863281 16.121094 L 35.894531 16.375 L 38.144531 16.375 L 38.105469 16.046875 C 37.734375 13.058594 36.367188 10.375 34.34375 8.351562 C 31.941406 5.957031 28.640625 4.488281 25 4.488281 C 21.359375 4.488281 18.058594 5.964844 15.671875 8.351562 C 13.28125 10.738281 11.804688 14.035156 11.804688 17.679688 C 11.804688 18.558594 11.894531 19.417969 12.058594 20.265625 C 12.230469 21.121094 12.1875 21.074219 12.515625 21.867188 C 12.585938 22.03125 12.621094 22.195312 12.621094 22.367188 C 12.621094 22.871094 12.320312 23.359375 11.820312 23.5625 C 11.65625 23.632812 11.492188 23.667969 11.328125 23.667969 C 10.820312 23.667969 10.335938 23.367188 10.128906 22.867188 C 9.726562 21.902344 9.71875 21.785156 9.515625 20.78125 C 9.308594 19.761719 9.207031 18.726562 9.207031 17.6875 C 9.207031 13.332031 10.972656 9.382812 13.832031 6.527344 C 16.6875 3.667969 20.636719 1.902344 24.992188 1.902344 C 29.351562 1.902344 33.296875 3.667969 36.15625 6.527344 C 39.015625 9.382812 40.78125 13.332031 40.78125 17.6875 C 40.78125 18.050781 40.636719 18.371094 40.398438 18.605469 C 40.164062 18.835938 39.835938 18.988281 39.480469 18.988281 L 34.652344 18.988281 C 34.289062 18.988281 33.96875 18.84375 33.734375 18.605469 C 33.503906 18.371094 33.351562 18.042969 33.351562 17.6875 C 33.351562 15.375 32.414062 13.285156 30.910156 11.777344 L 30.902344 11.773438 C 29.398438 10.261719 27.304688 9.328125 24.992188 9.328125 C 22.679688 9.328125 20.589844 10.261719 19.082031 11.773438 L 19.078125 11.777344 C 17.566406 13.285156 16.632812 15.375 16.632812 17.6875 C 16.632812 18.96875 16.921875 20.199219 17.449219 21.300781 C 17.980469 22.414062 18.769531 23.414062 19.746094 24.207031 C 20.265625 24.625 20.675781 25.125 20.972656 25.699219 C 21.265625 26.265625 21.429688 26.886719 21.464844 27.550781 C 21.519531 28.480469 21.929688 29.316406 22.566406 29.917969 C 23.195312 30.511719 24.054688 30.882812 24.992188 30.882812 C 25.972656 30.882812 26.855469 30.492188 27.488281 29.855469 L 27.496094 29.847656 C 28.132812 29.214844 28.523438 28.332031 28.523438 27.351562 C 28.523438 26.375 28.132812 25.492188 27.496094 24.855469 L 27.496094 24.828125 C 26.859375 24.191406 25.976562 23.804688 25 23.804688 C 23.332031 23.804688 21.820312 23.132812 20.710938 22.050781 L 20.671875 22.003906 C 19.5625 20.894531 18.878906 19.363281 18.878906 17.675781 C 18.878906 15.992188 19.5625 14.464844 20.671875 13.351562 L 20.675781 13.34375 C 21.792969 12.238281 23.316406 11.554688 25.007812 11.546875 C 26.632812 11.546875 28.113281 12.183594 29.207031 13.222656 C 30.316406 14.269531 31.027344 15.71875 31.113281 17.332031 C 31.128906 17.632812 31.195312 17.914062 31.328125 18.152344 C 31.449219 18.394531 31.632812 18.613281 31.867188 18.796875 C 33.144531 19.828125 34.171875 21.136719 34.875 22.597656 C 35.574219 24.054688 35.957031 25.671875 35.957031 27.324219 C 35.957031 30.34375 34.734375 33.078125 32.75 35.0625 L 32.742188 35.070312 L 32.734375 35.074219 C 30.800781 37.003906 28.160156 38.214844 25.238281 38.277344 L 24.992188 38.277344 C 22.011719 38.277344 19.308594 37.085938 17.339844 35.15625 L 17.332031 35.152344 L 17.324219 35.144531 C 17.296875 35.125 17.269531 35.097656 17.25 35.074219 C 15.617188 33.433594 14.488281 31.285156 14.152344 28.878906 L 14.117188 28.625 L 11.867188 28.625 L 11.910156 28.953125 C 12.277344 31.941406 13.644531 34.625 15.671875 36.648438 C 18.058594 39.035156 21.355469 40.511719 25 40.511719 C 28.640625 40.511719 31.941406 39.035156 34.328125 36.648438 C 36.71875 34.261719 38.195312 30.964844 38.195312 27.320312 C 38.195312 26.449219 38.105469 25.582031 37.941406 24.734375 C 37.769531 23.878906 37.8125 23.933594 37.484375 23.132812 C 37.414062 22.96875 37.378906 22.804688 37.378906 22.632812 C 37.378906 22.128906 37.679688 21.640625 38.179688 21.4375 C 38.34375 21.367188 38.507812 21.332031 38.671875 21.332031 C 39.179688 21.332031 39.664062 21.636719 39.871094 22.132812 C 40.273438 23.097656 40.28125 23.207031 40.480469 24.21875 C 40.683594 25.261719 40.785156 26.292969 40.785156 27.332031 Z M 24.992188 28.640625 C 25.355469 28.640625 25.675781 28.496094 25.917969 28.257812 C 26.15625 28.015625 26.300781 27.695312 26.300781 27.332031 C 26.300781 26.96875 26.15625 26.648438 25.917969 26.410156 C 25.675781 26.175781 25.355469 26.027344 24.992188 26.027344 C 24.628906 26.027344 24.308594 26.167969 24.070312 26.410156 C 23.832031 26.648438 23.6875 26.96875 23.6875 27.332031 C 23.6875 27.695312 23.832031 28.015625 24.070312 28.257812 C 24.308594 28.496094 24.636719 28.640625 24.992188 28.640625 Z M 24.992188 16.367188 C 24.628906 16.367188 24.308594 16.511719 24.070312 16.75 C 23.832031 16.992188 23.6875 17.3125 23.6875 17.675781 C 23.6875 18.035156 23.832031 18.359375 24.070312 18.597656 C 24.308594 18.832031 24.628906 18.980469 24.992188 18.980469 C 25.355469 18.980469 25.675781 18.835938 25.917969 18.597656 C 26.15625 18.359375 26.300781 18.035156 26.300781 17.675781 C 26.300781 17.3125 26.15625 16.992188 25.917969 16.75 C 25.675781 16.511719 25.355469 16.367188 24.992188 16.367188 Z M 24.992188 16.367188 "/>
</g>
</svg>
