<svg width="50" height="50" viewBox="0 0 50 50" fill="none" xmlns="http://www.w3.org/2000/svg">
<circle cx="25" cy="25" r="25" fill="#FCFCFC"/>
<path fill-rule="evenodd" clip-rule="evenodd" d="M25.9281 29.6392C39.2844 27.9993 49.7836 23.9969 49.3788 20.6998C48.9739 17.4026 37.8183 16.0592 24.462 17.6992C11.1057 19.3391 0.606487 23.3414 1.01132 26.6386C1.41617 29.9357 12.5718 31.2791 25.9281 29.6392Z" fill="white" stroke="#979797" stroke-width="0.976562"/>
<path fill-rule="evenodd" clip-rule="evenodd" d="M25.791 28.699C38.3351 27.1588 48.2284 23.6648 47.8884 20.895C47.5483 18.1252 37.1036 17.1284 24.5594 18.6686C12.0153 20.2088 2.12204 23.7028 2.46213 26.4727C2.80222 29.2424 13.247 30.2392 25.791 28.699Z" fill="#000002"/>
<path fill-rule="evenodd" clip-rule="evenodd" d="M25.0225 37.3395C31.6512 37.3395 37.2664 32.9908 39.1823 26.985C39.2263 26.847 38.9825 27.0111 38.524 27.1517C37.7312 27.3947 36.2267 27.8177 33.9566 28.2895C30.8512 28.935 26.3954 29.587 24.875 29.7681C23.3002 29.9557 20.0884 30.1276 17.3169 30.2231C15.6839 30.2793 14.4648 30.3738 13.5617 30.3416C12.9321 30.3191 12.2977 30.096 12.4505 30.3416C15.0749 34.5598 19.6967 37.3395 25.0225 37.3395Z" fill="#6758FF"/>
<path fill-rule="evenodd" clip-rule="evenodd" d="M25.9955 36.1322C28.9829 36.1322 31.1169 34.3742 31.1169 34.0506C31.1169 33.7269 28.9829 34.8435 25.9955 34.8435C23.0082 34.8435 20.0295 34.5198 20.0295 34.8435C20.0295 35.0476 21.5405 35.6569 23.3854 35.9002C24.4661 36.0426 24.892 36.1322 25.9955 36.1322Z" fill="#FF7FA7"/>
</svg>
