<?xml version="1.0" encoding="UTF-8"?>
<svg xmlns="http://www.w3.org/2000/svg" xmlns:xlink="http://www.w3.org/1999/xlink" width="50px" height="50px" viewBox="0 0 50 50" version="1.1">
<g id="surface1">
<path style=" stroke:none;fill-rule:nonzero;fill:rgb(98.823529%,98.823529%,98.823529%);fill-opacity:1;" d="M 50 25 C 50 38.808594 38.808594 50 25 50 C 11.191406 50 0 38.808594 0 25 C 0 11.191406 11.191406 0 25 0 C 38.808594 0 50 11.191406 50 25 Z M 50 25 "/>
<path style="fill-rule:evenodd;fill:rgb(100%,100%,100%);fill-opacity:1;stroke-width:0.976562;stroke-linecap:butt;stroke-linejoin:miter;stroke:rgb(59.215686%,59.215686%,59.215686%);stroke-opacity:1;stroke-miterlimit:4;" d="M 25.929688 29.640625 C 39.285156 28 49.785156 23.996094 49.378906 20.699219 C 48.972656 17.402344 37.816406 16.058594 24.460938 17.699219 C 11.105469 19.339844 0.605469 23.339844 1.011719 26.636719 C 1.417969 29.9375 12.570312 31.277344 25.929688 29.640625 Z M 25.929688 29.640625 "/>
<path style=" stroke:none;fill-rule:evenodd;fill:rgb(0%,0%,0.784314%);fill-opacity:1;" d="M 25.789062 28.699219 C 38.335938 27.160156 48.226562 23.664062 47.886719 20.894531 C 47.546875 18.125 37.105469 17.128906 24.558594 18.667969 C 12.015625 20.207031 2.121094 23.703125 2.460938 26.472656 C 2.800781 29.242188 13.246094 30.238281 25.789062 28.699219 Z M 25.789062 28.699219 "/>
<path style=" stroke:none;fill-rule:evenodd;fill:rgb(40.392157%,34.509804%,100%);fill-opacity:1;" d="M 25.023438 37.339844 C 31.652344 37.339844 37.265625 32.992188 39.183594 26.984375 C 39.226562 26.847656 38.984375 27.011719 38.523438 27.152344 C 37.730469 27.394531 36.226562 27.816406 33.957031 28.289062 C 30.851562 28.933594 26.394531 29.585938 24.875 29.769531 C 23.300781 29.957031 20.089844 30.128906 17.316406 30.222656 C 15.683594 30.28125 14.464844 30.375 13.5625 30.339844 C 12.933594 30.320312 12.296875 30.097656 12.449219 30.339844 C 15.074219 34.558594 19.695312 37.339844 25.023438 37.339844 Z M 25.023438 37.339844 "/>
<path style=" stroke:none;fill-rule:evenodd;fill:rgb(100%,49.803922%,65.490196%);fill-opacity:1;" d="M 25.996094 36.132812 C 28.984375 36.132812 31.117188 34.375 31.117188 34.050781 C 31.117188 33.726562 28.984375 34.84375 25.996094 34.84375 C 23.007812 34.84375 20.03125 34.519531 20.03125 34.84375 C 20.03125 35.046875 21.539062 35.65625 23.386719 35.898438 C 24.464844 36.042969 24.890625 36.132812 25.996094 36.132812 Z M 25.996094 36.132812 "/>
</g>
</svg>
