<?xml version="1.0" encoding="UTF-8"?>
<svg xmlns="http://www.w3.org/2000/svg" xmlns:xlink="http://www.w3.org/1999/xlink" width="50px" height="50px" viewBox="0 0 50 50" version="1.1">
<g id="surface1">
<path style="fill-rule:nonzero;fill:rgb(100%,100%,100%);fill-opacity:1;stroke-width:1;stroke-linecap:butt;stroke-linejoin:miter;stroke:rgb(81.568627%,82.352941%,82.745098%);stroke-opacity:1;stroke-miterlimit:4;" d="M 25 49.265625 C 38.402344 49.265625 49.265625 38.402344 49.265625 25 C 49.265625 11.597656 38.402344 0.734375 25 0.734375 C 11.597656 0.734375 0.734375 11.597656 0.734375 25 C 0.734375 38.402344 11.597656 49.265625 25 49.265625 Z M 25 49.265625 "/>
<path style=" stroke:none;fill-rule:nonzero;fill:rgb(81.568627%,82.352941%,82.745098%);fill-opacity:1;" d="M 25 50 C 20.054688 50 15.222656 48.535156 11.109375 45.785156 C 7 43.039062 3.796875 39.136719 1.902344 34.566406 C 0.0117188 30 -0.484375 24.972656 0.480469 20.121094 C 1.445312 15.273438 3.824219 10.820312 7.324219 7.324219 C 10.820312 3.824219 15.273438 1.445312 20.121094 0.480469 C 24.972656 -0.484375 30 0.0117188 34.566406 1.902344 C 39.136719 3.796875 43.039062 7 45.785156 11.109375 C 48.535156 15.222656 50 20.054688 50 25 C 49.992188 31.628906 47.355469 37.980469 42.667969 42.667969 C 37.980469 47.355469 31.628906 49.992188 25 50 Z M 25 1.480469 C 20.347656 1.480469 15.800781 2.859375 11.933594 5.441406 C 8.066406 8.027344 5.050781 11.703125 3.269531 16 C 1.488281 20.296875 1.023438 25.027344 1.929688 29.589844 C 2.839844 34.152344 5.078125 38.34375 8.367188 41.632812 C 11.65625 44.921875 15.847656 47.160156 20.410156 48.070312 C 24.972656 48.976562 29.703125 48.511719 34 46.730469 C 38.296875 44.949219 41.972656 41.933594 44.558594 38.066406 C 47.140625 34.199219 48.519531 29.652344 48.519531 25 C 48.515625 18.765625 46.035156 12.785156 41.625 8.375 C 37.214844 3.964844 31.234375 1.488281 25 1.480469 Z M 25 1.480469 "/>
<path style=" stroke:none;fill-rule:nonzero;fill:rgb(36.078431%,40.392157%,69.019608%);fill-opacity:1;" d="M 21.597656 18.066406 L 25.039062 12.617188 L 28.550781 17.902344 C 29.398438 17.167969 30 16.1875 30.269531 15.097656 C 30.539062 14.007812 30.464844 12.859375 30.0625 11.8125 C 29.65625 10.765625 28.9375 9.871094 28.003906 9.246094 C 27.070312 8.621094 25.964844 8.300781 24.84375 8.328125 C 23.722656 8.355469 22.632812 8.726562 21.730469 9.394531 C 20.828125 10.0625 20.152344 10.992188 19.796875 12.058594 C 19.441406 13.121094 19.425781 14.273438 19.746094 15.347656 C 20.070312 16.421875 20.714844 17.375 21.597656 18.066406 Z M 21.597656 18.066406 "/>
<path style=" stroke:none;fill-rule:nonzero;fill:rgb(36.078431%,40.392157%,69.019608%);fill-opacity:1;" d="M 20.558594 32.285156 L 14.109375 32.207031 L 16.773438 26.445312 C 15.703125 26.113281 14.554688 26.113281 13.484375 26.457031 C 12.417969 26.796875 11.480469 27.460938 10.800781 28.351562 C 10.121094 29.246094 9.734375 30.328125 9.695312 31.449219 C 9.652344 32.570312 9.957031 33.675781 10.570312 34.617188 C 11.179688 35.558594 12.066406 36.289062 13.105469 36.707031 C 14.148438 37.128906 15.292969 37.214844 16.382812 36.960938 C 17.476562 36.703125 18.464844 36.117188 19.210938 35.28125 C 19.957031 34.445312 20.429688 33.398438 20.558594 32.285156 Z M 20.558594 32.285156 "/>
<path style=" stroke:none;fill-rule:nonzero;fill:rgb(36.078431%,40.392157%,69.019608%);fill-opacity:1;" d="M 29.289062 32.375 L 35.738281 32.199219 L 32.972656 26.480469 C 34.039062 26.125 35.1875 26.109375 36.261719 26.429688 C 37.335938 26.753906 38.285156 27.398438 38.980469 28.28125 C 39.671875 29.164062 40.078125 30.238281 40.140625 31.359375 C 40.199219 32.476562 39.914062 33.589844 39.320312 34.542969 C 38.722656 35.492188 37.851562 36.238281 36.816406 36.675781 C 35.785156 37.113281 34.640625 37.21875 33.542969 36.984375 C 32.445312 36.746094 31.449219 36.175781 30.6875 35.351562 C 29.925781 34.527344 29.4375 33.488281 29.289062 32.375 Z M 29.289062 32.375 "/>
</g>
</svg>
