<?xml version="1.0" encoding="UTF-8"?>
<svg xmlns="http://www.w3.org/2000/svg" xmlns:xlink="http://www.w3.org/1999/xlink" width="50px" height="50px" viewBox="0 0 50 50" version="1.1">
<defs>
<linearGradient id="linear0" gradientUnits="userSpaceOnUse" x1="3.72246" y1="19.7423" x2="52.2818" y2="31.7415" >
<stop offset="0" style="stop-color:rgb(99.607843%,96.078431%,62.745098%);stop-opacity:1;"/>
<stop offset="0.6354" style="stop-color:rgb(57.647059%,83.137255%,79.607843%);stop-opacity:1;"/>
<stop offset="1" style="stop-color:rgb(44.313725%,60.392157%,81.960784%);stop-opacity:1;"/>
</linearGradient>
</defs>
<g id="surface1">
<path style=" stroke:none;fill-rule:nonzero;fill:url(#linear0);" d="M 25 50 C 18.320312 50 12.046875 47.398438 7.324219 42.675781 C 2.601562 37.953125 0 31.679688 0 25 C 0 18.320312 2.601562 12.046875 7.324219 7.324219 C 12.046875 2.601562 18.320312 0 25 0 C 31.679688 0 37.953125 2.601562 42.675781 7.324219 C 47.398438 12.046875 50 18.320312 50 25 C 50 31.679688 47.398438 37.953125 42.675781 42.675781 C 37.953125 47.398438 31.679688 50 25 50 Z M 25 2.03125 C 12.335938 2.03125 2.03125 12.335938 2.03125 25 C 2.03125 37.664062 12.335938 47.96875 25 47.96875 C 37.664062 47.96875 47.96875 37.664062 47.96875 25 C 47.96875 12.335938 37.664062 2.03125 25 2.03125 Z M 22.019531 17.675781 L 7.425781 14.066406 L 17.121094 25.566406 L 9.167969 38.347656 L 23.105469 32.675781 L 32.804688 44.179688 L 31.71875 29.179688 L 45.65625 23.511719 L 31.0625 19.898438 L 29.976562 4.898438 Z M 22.019531 17.675781 "/>
</g>
</svg>
