<svg width="50" height="50" viewBox="0 0 50 50" fill="none" xmlns="http://www.w3.org/2000/svg">
<g clip-path="url(#clip0_965_5575)">
<path d="M25 50C18.3208 50 12.0455 47.399 7.32324 42.6768C2.60101 37.9545 0 31.6792 0 25C0 18.3208 2.60101 12.0455 7.32324 7.32324C12.0455 2.60101 18.3208 0 25 0C31.6792 0 37.9545 2.60101 42.6768 7.32324C47.399 12.0455 50 18.3208 50 25C50 31.6792 47.399 37.9545 42.6768 42.6768C37.9545 47.399 31.6792 50 25 50ZM25 2.03282C12.3359 2.03282 2.03282 12.3359 2.03282 25C2.03282 37.6641 12.3359 47.9671 25 47.9671C37.6641 47.9671 47.9671 37.6641 47.9671 25C47.9671 12.3359 37.6641 2.03282 25 2.03282ZM22.0203 17.6768L7.42424 14.0656L17.1213 25.5681L9.16666 38.346L23.106 32.6768L32.803 44.1792L31.7171 29.1793L45.6566 23.5101L31.0606 19.899L29.9748 4.89899L22.0203 17.6768Z" fill="url(#paint0_linear_965_5575)"/>
</g>
<defs>
<linearGradient id="paint0_linear_965_5575" x1="3.72246" y1="19.7423" x2="52.2818" y2="31.7415" gradientUnits="userSpaceOnUse">
<stop stop-color="#FEF5A0"/>
<stop offset="0.6354" stop-color="#93D4CB"/>
<stop offset="1" stop-color="#719AD1"/>
</linearGradient>
<clipPath id="clip0_965_5575">
<rect width="50" height="50" fill="white"/>
</clipPath>
</defs>
</svg>
