<svg width="50" height="50" viewBox="0 0 50 50" fill="none" xmlns="http://www.w3.org/2000/svg">
<g clip-path="url(#clip0_965_5565)">
<path d="M25 49.2645C38.4009 49.2645 49.2645 38.4009 49.2645 25C49.2645 11.5992 38.4009 0.735596 25 0.735596C11.5992 0.735596 0.735596 11.5992 0.735596 25C0.735596 38.4009 11.5992 49.2645 25 49.2645Z" fill="white" stroke="#D0D2D3"/>
<path d="M25 50C20.0555 50 15.222 48.5338 11.1108 45.7868C6.99953 43.0397 3.79521 39.1353 1.90302 34.5671C0.0108321 29.9989 -0.484251 24.9723 0.480379 20.1228C1.44501 15.2732 3.82603 10.8187 7.32234 7.32234C10.8187 3.82603 15.2732 1.44501 20.1228 0.480379C24.9723 -0.484251 29.9989 0.0108321 34.5671 1.90302C39.1353 3.79521 43.0397 6.99953 45.7868 11.1108C48.5338 15.222 50 20.0555 50 25C49.9922 31.628 47.3557 37.9823 42.669 42.669C37.9823 47.3557 31.628 49.9922 25 50ZM25 1.4793C20.3481 1.4793 15.8006 2.85877 11.9326 5.44326C8.06464 8.02774 5.04994 11.7012 3.26971 15.999C1.48948 20.2969 1.02369 25.0261 1.93125 29.5887C2.8388 34.1512 5.07893 38.3422 8.36836 41.6317C11.6578 44.9211 15.8488 47.1612 20.4113 48.0688C24.9739 48.9763 29.7031 48.5105 34.001 46.7303C38.2988 44.9501 41.9723 41.9354 44.5568 38.0674C47.1413 34.1995 48.5207 29.652 48.5207 25C48.5137 18.7641 46.0333 12.7856 41.6239 8.37614C37.2144 3.96668 31.2359 1.48635 25 1.4793Z" fill="#D0D2D3"/>
<path d="M21.5975 18.068L25.0383 12.6153L28.5502 17.9023C29.3981 17.1662 29.9982 16.1864 30.2687 15.0966C30.5392 14.0067 30.4667 12.86 30.0613 11.8129C29.656 10.7657 28.9373 9.86919 28.0035 9.24559C27.0697 8.62198 25.9663 8.3017 24.8437 8.32845C23.7212 8.3552 22.6342 8.72768 21.7312 9.39506C20.8281 10.0624 20.153 10.9922 19.798 12.0574C19.4429 13.1227 19.4252 14.2716 19.7473 15.3473C20.0693 16.423 20.7155 17.3731 21.5975 18.068Z" fill="#5C67B0"/>
<path d="M20.5591 32.284L14.1094 32.2071L16.7721 26.4467C15.7014 26.1116 14.5535 26.1149 13.4848 26.4561C12.4161 26.7974 11.4786 27.4599 10.8003 28.3535C10.122 29.2471 9.73578 30.3281 9.69439 31.4492C9.65299 32.5703 9.95841 33.6769 10.569 34.6181C11.1796 35.5592 12.0656 36.2891 13.1062 36.7083C14.1469 37.1274 15.2914 37.2153 16.3839 36.9601C17.4763 36.7048 18.4635 36.1188 19.2106 35.282C19.9578 34.4452 20.4287 33.3982 20.5591 32.284Z" fill="#5C67B0"/>
<path d="M29.2898 32.3757L35.7365 32.1981L32.9732 26.4792C34.038 26.125 35.1862 26.1079 36.2611 26.4304C37.3359 26.7528 38.2851 27.399 38.9792 28.2808C39.6732 29.1627 40.0782 30.2372 40.139 31.3577C40.1998 32.4782 39.9134 33.5902 39.3189 34.542C38.7243 35.4937 37.8506 36.2388 36.817 36.6757C35.7833 37.1125 34.64 37.2198 33.5431 36.9828C32.4462 36.7459 31.4492 36.1763 30.688 35.3518C29.9268 34.5273 29.4385 33.4879 29.2898 32.3757Z" fill="#5C67B0"/>
</g>
<defs>
<clipPath id="clip0_965_5565">
<rect width="50" height="50" fill="white"/>
</clipPath>
</defs>
</svg>
