<svg width="50" height="50" viewBox="0 0 50 50" fill="none" xmlns="http://www.w3.org/2000/svg">
<mask id="mask0_10991_60644" style="mask-type:luminance" maskUnits="userSpaceOnUse" x="0" y="0" width="50" height="50">
<path d="M50 0H0V50H50V0Z" fill="white"/>
</mask>
<g mask="url(#mask0_10991_60644)">
<path d="M25 50C38.8071 50 50 38.8071 50 25C50 11.1929 38.8071 0 25 0C11.1929 0 0 11.1929 0 25C0 38.8071 11.1929 50 25 50Z" fill="#EDE9E9"/>
<path d="M37.0117 30.2736C37.0117 36.9372 31.6588 40.918 25.054 40.918C18.4491 40.918 13.8517 36.9805 12.9883 31.9611H19.0751C19.7442 33.865 21.9242 35.2496 25.054 35.2496C28.529 35.2496 31.0328 33.4973 31.0328 30.3818C31.0328 27.2664 28.5938 25.6654 25.0324 25.6654V30.0573C18.3196 30.0573 13.1825 26.2496 13.1825 19.889C13.1825 13.5283 18.1254 9.17969 25.0756 9.17969C31.6588 9.17969 36.1915 13.0956 36.6448 17.9201H30.7738C30.2989 16.1894 28.3779 14.8696 25.2051 14.8696C21.3414 14.8696 19.2046 16.6653 19.2046 19.7158C19.2046 22.7663 21.6652 24.2375 25.0324 24.2375V19.6293C32.3279 19.6293 37.0117 23.9995 37.0117 30.2736Z" fill="black"/>
</g>
</svg>
