<?xml version="1.0" encoding="UTF-8"?>
<svg xmlns="http://www.w3.org/2000/svg" xmlns:xlink="http://www.w3.org/1999/xlink" width="50px" height="50px" viewBox="0 0 50 50" version="1.1">
<g id="surface1">
<path style=" stroke:none;fill-rule:nonzero;fill:rgb(0%,51.764706%,48.235294%);fill-opacity:1;" d="M 25 49.183594 C 38.355469 49.183594 49.183594 38.355469 49.183594 25 C 49.183594 11.644531 38.355469 0.816406 25 0.816406 C 11.644531 0.816406 0.816406 11.644531 0.816406 25 C 0.816406 38.355469 11.644531 49.183594 25 49.183594 Z M 25 49.183594 "/>
<path style=" stroke:none;fill-rule:evenodd;fill:rgb(100%,100%,100%);fill-opacity:1;" d="M 30.929688 34.167969 C 30.929688 37.292969 28.390625 39.824219 25.253906 39.824219 C 22.128906 39.824219 19.582031 37.292969 19.582031 34.167969 C 19.582031 33.273438 19.789062 32.429688 20.160156 31.679688 L 17.773438 29.734375 L 17.714844 29.699219 C 16.933594 31.003906 16.488281 32.539062 16.488281 34.167969 C 16.488281 38.988281 20.410156 42.90625 25.253906 42.90625 C 30.101562 42.90625 34.027344 38.996094 34.027344 34.167969 C 34.027344 29.34375 30.105469 25.429688 25.261719 25.429688 L 3.9375 25.429688 L 9.582031 29.882812 L 9.582031 28.511719 L 25.253906 28.511719 C 28.382812 28.515625 30.929688 31.042969 30.929688 34.167969 Z M 30.929688 34.167969 "/>
<path style=" stroke:none;fill-rule:evenodd;fill:rgb(100%,100%,100%);fill-opacity:1;" d="M 19.074219 15.832031 C 19.074219 12.707031 21.609375 10.179688 24.746094 10.179688 C 27.878906 10.179688 30.410156 12.707031 30.410156 15.832031 C 30.410156 16.726562 30.207031 17.574219 29.832031 18.324219 L 32.222656 20.265625 L 32.277344 20.300781 C 33.0625 18.996094 33.503906 17.460938 33.503906 15.832031 C 33.503906 11.011719 29.582031 7.09375 24.738281 7.09375 C 19.894531 7.09375 15.972656 11.003906 15.972656 15.832031 C 15.972656 20.65625 19.894531 24.574219 24.738281 24.574219 L 46.054688 24.574219 L 40.410156 20.117188 L 40.410156 21.488281 L 24.746094 21.488281 C 21.617188 21.484375 19.074219 18.957031 19.074219 15.832031 Z M 19.074219 15.832031 "/>
</g>
</svg>
