<svg width="50" height="50" viewBox="0 0 50 50" fill="none" xmlns="http://www.w3.org/2000/svg">
<g clip-path="url(#clip0_965_5562)">
<path d="M50 25C50 11.1929 38.8071 0 25 0C11.1929 0 0 11.1929 0 25C0 38.8071 11.1929 50 25 50C38.8071 50 50 38.8071 50 25Z" fill="#E6007A"/>
<path d="M36.0805 32.6446C33.4299 32.6446 31.2851 30.4959 31.2851 27.8492V20.6682H37.4701V16.4913H31.2851V9.58337L26.5459 12.1136V16.4913H17.5576C11.2922 16.4913 9.64556 24.0419 14.4651 26.8532L19.3649 30.1465C20.4493 30.9498 20.0075 32.6367 18.4813 32.6367H11.8143V36.8536H18.4813C24.7868 36.8536 26.3934 29.3032 21.5738 26.4917L16.7142 23.1984C15.6298 22.3952 16.0314 20.6682 17.5576 20.6682H26.5459V27.9055C26.5459 33.3675 30.3211 36.8577 36.0243 36.8577H37.4701V32.6446H36.0805Z" fill="white"/>
</g>
<defs>
<clipPath id="clip0_965_5562">
<rect width="50" height="50" fill="white"/>
</clipPath>
</defs>
</svg>
