<?xml version="1.0" encoding="UTF-8"?>
<svg xmlns="http://www.w3.org/2000/svg" xmlns:xlink="http://www.w3.org/1999/xlink" width="50px" height="50px" viewBox="0 0 50 50" version="1.1">
<g id="surface1">
<path style=" stroke:none;fill-rule:nonzero;fill:rgb(90.196078%,0%,47.843137%);fill-opacity:1;" d="M 50 25 C 50 11.191406 38.808594 0 25 0 C 11.191406 0 0 11.191406 0 25 C 0 38.808594 11.191406 50 25 50 C 38.808594 50 50 38.808594 50 25 Z M 50 25 "/>
<path style=" stroke:none;fill-rule:nonzero;fill:rgb(100%,100%,100%);fill-opacity:1;" d="M 36.082031 32.644531 C 33.429688 32.644531 31.285156 30.496094 31.285156 27.847656 L 31.285156 20.667969 L 37.46875 20.667969 L 37.46875 16.492188 L 31.285156 16.492188 L 31.285156 9.582031 L 26.546875 12.113281 L 26.546875 16.492188 L 17.558594 16.492188 C 11.292969 16.492188 9.644531 24.042969 14.464844 26.851562 L 19.363281 30.148438 C 20.449219 30.949219 20.007812 32.636719 18.480469 32.636719 L 11.8125 32.636719 L 11.8125 36.855469 L 18.480469 36.855469 C 24.785156 36.855469 26.394531 29.304688 21.574219 26.492188 L 16.714844 23.199219 C 15.628906 22.394531 16.03125 20.667969 17.558594 20.667969 L 26.546875 20.667969 L 26.546875 27.90625 C 26.546875 33.367188 30.320312 36.859375 36.023438 36.859375 L 37.46875 36.859375 L 37.46875 32.644531 Z M 36.082031 32.644531 "/>
</g>
</svg>
