<svg width="50" height="51" viewBox="0 0 50 51" fill="none" xmlns="http://www.w3.org/2000/svg">
<g clip-path="url(#clip0_540_262)">
<path fill-rule="evenodd" clip-rule="evenodd" d="M42.5822 43.5037C44.5508 41.5588 46.1995 39.285 47.4373 36.7736C46.3241 36.4098 45.2425 36.0037 44.2106 35.57C38.453 33.1449 31.9417 32.668 26.1369 34.7033C15.3866 38.4687 7.49593 38.0863 2.25749 36.1291C3.92171 39.7733 6.44124 42.9455 9.55485 45.3942C13.1681 45.2738 17.5081 44.4958 22.6481 42.6916C29.1488 40.4137 36.3127 40.9411 42.5822 43.5078V43.5037ZM40.1798 45.6017C34.8161 43.7072 28.9339 43.4687 23.6369 45.3283C19.8673 46.6483 16.4453 47.4613 13.3708 47.8714C16.8441 49.6992 20.8008 50.7344 25 50.7344C30.7072 50.7344 35.9684 48.8203 40.1798 45.6017ZM45.367 33C46.4062 33.4378 47.4691 33.8317 48.5392 34.1719C49.484 31.5352 50 28.695 50 25.7344H0C0 28.0236 0.308431 30.238 0.882975 32.3441C4.9764 34.805 12.7148 36.4261 25.1522 32.0666C31.7497 29.7537 39.0316 30.3324 45.367 33Z" fill="#6495ED"/>
<path fill-rule="evenodd" clip-rule="evenodd" d="M0 25.7344C0 11.9258 11.1914 0.734375 25 0.734375C38.8086 0.734375 50 11.9258 50 25.7344H38.5002C38.5002 18.2775 32.4569 12.2342 25 12.2342C17.5431 12.2342 11.4998 18.2775 11.4998 25.7344H0Z" fill="#EDBC64"/>
</g>
<defs>
<clipPath id="clip0_540_262">
<rect width="50" height="50" fill="white" transform="translate(0 0.734375)"/>
</clipPath>
</defs>
</svg>
