<?xml version="1.0" encoding="UTF-8"?>
<svg xmlns="http://www.w3.org/2000/svg" xmlns:xlink="http://www.w3.org/1999/xlink" width="50px" height="50px" viewBox="0 0 50 51" version="1.1">
<defs>
<clipPath id="clip1">
  <path d="M 0 25 L 50 25 L 50 50.734375 L 0 50.734375 Z M 0 25 "/>
</clipPath>
<clipPath id="clip2">
  <path d="M 0 0.734375 L 50 0.734375 L 50 26 L 0 26 Z M 0 0.734375 "/>
</clipPath>
</defs>
<g id="surface1">
<g clip-path="url(#clip1)" clip-rule="nonzero">
<path style=" stroke:none;fill-rule:evenodd;fill:rgb(39.215686%,58.431373%,92.941176%);fill-opacity:1;" d="M 42.582031 43.503906 C 44.550781 41.558594 46.199219 39.285156 47.4375 36.773438 C 46.324219 36.410156 45.242188 36.003906 44.210938 35.570312 C 38.453125 33.144531 31.941406 32.667969 26.136719 34.703125 C 15.386719 38.46875 7.496094 38.085938 2.257812 36.128906 C 3.921875 39.773438 6.441406 42.945312 9.554688 45.394531 C 13.167969 45.273438 17.507812 44.496094 22.648438 42.691406 C 29.148438 40.414062 36.3125 40.941406 42.582031 43.507812 Z M 40.179688 45.601562 C 34.816406 43.707031 28.933594 43.46875 23.636719 45.328125 C 19.867188 46.648438 16.445312 47.460938 13.371094 47.871094 C 16.84375 49.699219 20.800781 50.734375 25 50.734375 C 30.707031 50.734375 35.96875 48.820312 40.179688 45.601562 Z M 45.367188 33 C 46.40625 33.4375 47.46875 33.832031 48.539062 34.171875 C 49.484375 31.535156 50 28.695312 50 25.734375 L 0 25.734375 C 0 28.023438 0.308594 30.238281 0.882812 32.34375 C 4.976562 34.804688 12.714844 36.425781 25.152344 32.066406 C 31.75 29.753906 39.03125 30.332031 45.367188 33 Z M 45.367188 33 "/>
</g>
<g clip-path="url(#clip2)" clip-rule="nonzero">
<path style=" stroke:none;fill-rule:evenodd;fill:rgb(92.941176%,73.72549%,39.215686%);fill-opacity:1;" d="M 0 25.734375 C 0 11.925781 11.191406 0.734375 25 0.734375 C 38.808594 0.734375 50 11.925781 50 25.734375 L 38.5 25.734375 C 38.5 18.277344 32.457031 12.234375 25 12.234375 C 17.542969 12.234375 11.5 18.277344 11.5 25.734375 Z M 0 25.734375 "/>
</g>
</g>
</svg>
