<svg xmlns="http://www.w3.org/2000/svg" width="1002" height="1002" fill="none"><rect width="1001.15" height="1001.15" fill="url(#a)" rx="500.577"/><path fill="#fff" fill-rule="evenodd" d="M419.429 233.832c21.709-21.648 50.525-33.601 81.16-33.601 30.635 0 59.507 11.898 81.161 33.601 21.653 21.704 33.61 50.458 33.61 81.14 0 30.682-11.957 59.491-33.61 81.139l-81.161 81.14-81.16-81.14c-21.654-21.703-33.61-50.457-33.61-81.139 0-30.682 11.901-59.491 33.61-81.14zm185.673 185.577c44.74-44.729 117.526-44.729 162.266 0v.055c44.74 44.728 44.74 117.495 0 162.224-44.74 44.728-117.526 44.728-162.266 0l-81.16-81.14 81.16-81.139zM500.589 523.903l-81.16 81.14c-21.654 21.648-33.61 50.457-33.61 81.139 0 30.682 11.956 59.437 33.61 81.14 21.654 21.648 50.47 33.601 81.16 33.601 30.69 0 59.452-11.953 81.161-33.601 21.653-21.648 33.61-50.458 33.61-81.14 0-30.682-11.957-59.436-33.61-81.139l-81.161-81.14zm-266.803 57.785c-44.74-44.729-44.74-117.495 0-162.224v-.055c44.74-44.729 117.525-44.729 162.265 0l81.161 81.139-81.161 81.14c-44.74 44.729-117.525 44.729-162.265 0z" clip-rule="evenodd"/><defs><linearGradient id="a" x1="184.93" x2="806.699" y1="299.489" y2="752.823" gradientUnits="userSpaceOnUse"><stop stop-color="#FF4E4D"/><stop offset=".5" stop-color="#CD00CD"/><stop offset="1" stop-color="#7F00FF"/></linearGradient></defs></svg>