<?xml version="1.0" encoding="UTF-8"?>
<svg xmlns="http://www.w3.org/2000/svg" xmlns:xlink="http://www.w3.org/1999/xlink" width="50px" height="50px" viewBox="0 0 50 50" version="1.1">
<defs>
<clipPath id="clip1">
  <path d="M 25 0 C 38.808594 0 50 11.191406 50 25 C 50 38.808594 38.808594 50 25 50 C 11.191406 50 0 38.808594 0 25 C 0 11.191406 11.191406 0 25 0 Z M 25 0 "/>
</clipPath>
<clipPath id="clip2">
  <path d="M 9 12 L 41 12 L 41 41 L 9 41 Z M 9 12 "/>
</clipPath>
<clipPath id="clip3">
  <path d="M 25 0 C 38.808594 0 50 11.191406 50 25 C 50 38.808594 38.808594 50 25 50 C 11.191406 50 0 38.808594 0 25 C 0 11.191406 11.191406 0 25 0 Z M 25 0 "/>
</clipPath>
</defs>
<g id="surface1">
<g clip-path="url(#clip1)" clip-rule="nonzero">
<path style=" stroke:none;fill-rule:nonzero;fill:rgb(0%,0%,0%);fill-opacity:1;" d="M 42.628906 0 L 7.371094 0 C 3.300781 0 0 3.300781 0 7.371094 L 0 42.628906 C 0 46.699219 3.300781 50 7.371094 50 L 42.628906 50 C 46.699219 50 50 46.699219 50 42.628906 L 50 7.371094 C 50 3.300781 46.699219 0 42.628906 0 Z M 42.628906 0 "/>
</g>
<g clip-path="url(#clip2)" clip-rule="nonzero">
<g clip-path="url(#clip3)" clip-rule="nonzero">
<path style=" stroke:none;fill-rule:nonzero;fill:rgb(100%,100%,100%);fill-opacity:1;" d="M 39.917969 14.730469 C 39 13.152344 37.359375 12.203125 35.523438 12.203125 L 25.414062 12.203125 C 25.28125 12.195312 25.152344 12.1875 25.019531 12.1875 C 24.890625 12.1875 24.757812 12.195312 24.628906 12.203125 L 14.515625 12.203125 C 12.683594 12.203125 11.042969 13.152344 10.125 14.730469 C 9.207031 16.308594 9.207031 18.195312 10.125 19.773438 L 20.628906 37.855469 C 21.546875 39.433594 23.1875 40.378906 25.019531 40.378906 C 26.855469 40.378906 28.496094 39.433594 29.414062 37.855469 L 39.917969 19.773438 C 40.832031 18.203125 40.832031 16.308594 39.917969 14.730469 Z M 26.984375 36.464844 C 26.574219 37.167969 25.839844 37.59375 25.019531 37.59375 C 24.199219 37.59375 23.464844 37.167969 23.054688 36.464844 L 17.144531 26.292969 L 23.054688 16.109375 C 23.421875 15.476562 24.042969 15.078125 24.757812 15 L 25.28125 15 C 26 15.078125 26.617188 15.484375 26.984375 16.109375 L 32.898438 26.285156 Z M 26.984375 36.464844 "/>
</g>
</g>
</g>
</svg>
