<?xml version="1.0" encoding="UTF-8"?>
<svg xmlns="http://www.w3.org/2000/svg" xmlns:xlink="http://www.w3.org/1999/xlink" width="50px" height="50px" viewBox="0 0 50 50" version="1.1">
<defs>
<filter id="alpha" filterUnits="objectBoundingBox" x="0%" y="0%" width="100%" height="100%">
  <feColorMatrix type="matrix" in="SourceGraphic" values="0 0 0 0 1 0 0 0 0 1 0 0 0 0 1 0 0 0 1 0"/>
</filter>
<mask id="mask0">
  <g filter="url(#alpha)">
<rect x="0" y="0" width="50" height="50" style="fill:rgb(0%,0%,0%);fill-opacity:0.25098;stroke:none;"/>
  </g>
</mask>
<clipPath id="clip1">
  <rect x="0" y="0" width="50" height="50"/>
</clipPath>
<g id="surface5" clip-path="url(#clip1)">
<path style=" stroke:none;fill-rule:nonzero;fill:rgb(0%,0%,0%);fill-opacity:1;" d="M 19.9375 39.4375 C 19.796875 39.308594 19.707031 39.132812 19.6875 38.941406 L 18.265625 23.6875 L 23.328125 23.6875 L 23.328125 40.777344 C 23.328125 41.429688 22.5625 41.773438 22.078125 41.34375 Z M 19.9375 39.4375 "/>
<path style=" stroke:none;fill-rule:nonzero;fill:rgb(0%,0%,0%);fill-opacity:1;" d="M 23.328125 23.386719 L 23.328125 21.257812 L 17.996094 20.792969 L 18.238281 23.386719 Z M 23.328125 23.386719 "/>
<path style=" stroke:none;fill-rule:nonzero;fill:rgb(0%,0%,0%);fill-opacity:1;" d="M 23.328125 20.953125 L 17.96875 20.484375 L 17.128906 11.5 C 17.089844 11.058594 17.433594 10.671875 17.875 10.671875 L 22.574219 10.671875 C 22.992188 10.671875 23.328125 11.011719 23.328125 11.429688 Z M 23.328125 20.953125 "/>
<path style=" stroke:none;fill-rule:nonzero;fill:rgb(0%,0%,0%);fill-opacity:1;" d="M 33.21875 23.386719 L 37.074219 23.386719 C 37.28125 23.386719 37.449219 23.214844 37.449219 23.007812 L 37.449219 20.777344 C 37.449219 20.554688 37.261719 20.378906 37.039062 20.398438 L 33.457031 20.753906 Z M 33.21875 23.386719 "/>
<path style=" stroke:none;fill-rule:nonzero;fill:rgb(0%,0%,0%);fill-opacity:1;" d="M 33.152344 20.78125 L 27.816406 21.308594 L 27.816406 23.386719 L 32.917969 23.386719 Z M 33.152344 20.78125 "/>
<path style=" stroke:none;fill-rule:nonzero;fill:rgb(0%,0%,0%);fill-opacity:1;" d="M 27.515625 21.335938 L 27.515625 23.386719 L 13.300781 23.386719 C 13.09375 23.386719 12.925781 23.214844 12.925781 23.007812 L 12.925781 20.769531 C 12.925781 20.550781 13.113281 20.375 13.332031 20.394531 L 25.964844 21.484375 C 25.988281 21.484375 26.011719 21.484375 26.03125 21.484375 Z M 27.515625 21.335938 "/>
<path style=" stroke:none;fill-rule:nonzero;fill:rgb(0%,0%,0%);fill-opacity:1;" d="M 29.097656 41.292969 C 28.628906 41.773438 27.816406 41.4375 27.816406 40.761719 L 27.816406 17.285156 L 33.476562 17.285156 L 31.507812 38.589844 C 31.492188 38.761719 31.414062 38.925781 31.292969 39.050781 Z M 29.097656 41.292969 "/>
<path style=" stroke:none;fill-rule:nonzero;fill:rgb(0%,0%,0%);fill-opacity:1;" d="M 33.503906 16.984375 L 27.816406 16.984375 L 27.816406 13.722656 L 33.84375 13.34375 Z M 33.503906 16.984375 "/>
<path style=" stroke:none;fill-rule:nonzero;fill:rgb(0%,0%,0%);fill-opacity:1;" d="M 27.816406 11.429688 L 27.816406 13.417969 L 33.871094 13.039062 L 34.011719 11.5 C 34.054688 11.058594 33.707031 10.671875 33.265625 10.671875 L 28.566406 10.671875 C 28.152344 10.671875 27.816406 11.011719 27.816406 11.429688 Z M 27.816406 11.429688 "/>
<path style=" stroke:none;fill-rule:nonzero;fill:rgb(0%,0%,0%);fill-opacity:1;" d="M 23.328125 16.984375 L 23.328125 13.730469 L 17.304688 13.433594 L 17.636719 16.984375 Z M 23.328125 16.984375 "/>
<path style=" stroke:none;fill-rule:nonzero;fill:rgb(0%,0%,0%);fill-opacity:1;" d="M 23.625 16.984375 L 38.800781 16.984375 C 38.96875 16.984375 39.101562 16.847656 39.101562 16.683594 L 39.101562 13.320312 C 39.101562 13.144531 38.957031 13.007812 38.78125 13.015625 L 25.75 13.851562 L 23.625 13.746094 Z M 23.625 16.984375 "/>
<path style=" stroke:none;fill-rule:nonzero;fill:rgb(0%,0%,0%);fill-opacity:1;" d="M 16.980469 13.417969 L 17.339844 16.984375 L 11.257812 16.984375 C 11.09375 16.984375 10.957031 16.847656 10.957031 16.683594 L 10.957031 13.4375 C 10.957031 13.261719 11.101562 13.125 11.273438 13.132812 Z M 16.980469 13.417969 "/>
</g>
<linearGradient id="linear0" gradientUnits="userSpaceOnUse" x1="10.8978" y1="26.0435" x2="39.0418" y2="26.0435" >
<stop offset="0" style="stop-color:rgb(32.941176%,20%,100%);stop-opacity:1;"/>
<stop offset="0.5" style="stop-color:rgb(12.54902%,74.117647%,100%);stop-opacity:1;"/>
<stop offset="1" style="stop-color:rgb(64.705882%,99.607843%,79.607843%);stop-opacity:1;"/>
</linearGradient>
<linearGradient id="linear1" gradientUnits="userSpaceOnUse" x1="10.8978" y1="26.0435" x2="39.0418" y2="26.0435" >
<stop offset="0" style="stop-color:rgb(32.941176%,20%,100%);stop-opacity:1;"/>
<stop offset="0.5" style="stop-color:rgb(12.54902%,74.117647%,100%);stop-opacity:1;"/>
<stop offset="1" style="stop-color:rgb(64.705882%,99.607843%,79.607843%);stop-opacity:1;"/>
</linearGradient>
<linearGradient id="linear2" gradientUnits="userSpaceOnUse" x1="10.8978" y1="26.0435" x2="39.0418" y2="26.0435" >
<stop offset="0" style="stop-color:rgb(32.941176%,20%,100%);stop-opacity:1;"/>
<stop offset="0.5" style="stop-color:rgb(12.54902%,74.117647%,100%);stop-opacity:1;"/>
<stop offset="1" style="stop-color:rgb(64.705882%,99.607843%,79.607843%);stop-opacity:1;"/>
</linearGradient>
<linearGradient id="linear3" gradientUnits="userSpaceOnUse" x1="10.8978" y1="26.0434" x2="39.0417" y2="26.0434" >
<stop offset="0" style="stop-color:rgb(32.941176%,20%,100%);stop-opacity:1;"/>
<stop offset="0.5" style="stop-color:rgb(12.54902%,74.117647%,100%);stop-opacity:1;"/>
<stop offset="1" style="stop-color:rgb(64.705882%,99.607843%,79.607843%);stop-opacity:1;"/>
</linearGradient>
<linearGradient id="linear4" gradientUnits="userSpaceOnUse" x1="10.8978" y1="26.0435" x2="39.0417" y2="26.0435" >
<stop offset="0" style="stop-color:rgb(32.941176%,20%,100%);stop-opacity:1;"/>
<stop offset="0.5" style="stop-color:rgb(12.54902%,74.117647%,100%);stop-opacity:1;"/>
<stop offset="1" style="stop-color:rgb(64.705882%,99.607843%,79.607843%);stop-opacity:1;"/>
</linearGradient>
<linearGradient id="linear5" gradientUnits="userSpaceOnUse" x1="10.8977" y1="26.0435" x2="39.0417" y2="26.0435" >
<stop offset="0" style="stop-color:rgb(32.941176%,20%,100%);stop-opacity:1;"/>
<stop offset="0.5" style="stop-color:rgb(12.54902%,74.117647%,100%);stop-opacity:1;"/>
<stop offset="1" style="stop-color:rgb(64.705882%,99.607843%,79.607843%);stop-opacity:1;"/>
</linearGradient>
<linearGradient id="linear6" gradientUnits="userSpaceOnUse" x1="10.8978" y1="26.0434" x2="39.0417" y2="26.0434" >
<stop offset="0" style="stop-color:rgb(32.941176%,20%,100%);stop-opacity:1;"/>
<stop offset="0.5" style="stop-color:rgb(12.54902%,74.117647%,100%);stop-opacity:1;"/>
<stop offset="1" style="stop-color:rgb(64.705882%,99.607843%,79.607843%);stop-opacity:1;"/>
</linearGradient>
<linearGradient id="linear7" gradientUnits="userSpaceOnUse" x1="10.8978" y1="26.0434" x2="39.0417" y2="26.0434" >
<stop offset="0" style="stop-color:rgb(32.941176%,20%,100%);stop-opacity:1;"/>
<stop offset="0.5" style="stop-color:rgb(12.54902%,74.117647%,100%);stop-opacity:1;"/>
<stop offset="1" style="stop-color:rgb(64.705882%,99.607843%,79.607843%);stop-opacity:1;"/>
</linearGradient>
<linearGradient id="linear8" gradientUnits="userSpaceOnUse" x1="10.8978" y1="26.0434" x2="39.0417" y2="26.0434" >
<stop offset="0" style="stop-color:rgb(32.941176%,20%,100%);stop-opacity:1;"/>
<stop offset="0.5" style="stop-color:rgb(12.54902%,74.117647%,100%);stop-opacity:1;"/>
<stop offset="1" style="stop-color:rgb(64.705882%,99.607843%,79.607843%);stop-opacity:1;"/>
</linearGradient>
<linearGradient id="linear9" gradientUnits="userSpaceOnUse" x1="10.8977" y1="26.0434" x2="39.0416" y2="26.0434" >
<stop offset="0" style="stop-color:rgb(32.941176%,20%,100%);stop-opacity:1;"/>
<stop offset="0.5" style="stop-color:rgb(12.54902%,74.117647%,100%);stop-opacity:1;"/>
<stop offset="1" style="stop-color:rgb(64.705882%,99.607843%,79.607843%);stop-opacity:1;"/>
</linearGradient>
<linearGradient id="linear10" gradientUnits="userSpaceOnUse" x1="10.8978" y1="26.0434" x2="39.0418" y2="26.0434" >
<stop offset="0" style="stop-color:rgb(32.941176%,20%,100%);stop-opacity:1;"/>
<stop offset="0.5" style="stop-color:rgb(12.54902%,74.117647%,100%);stop-opacity:1;"/>
<stop offset="1" style="stop-color:rgb(64.705882%,99.607843%,79.607843%);stop-opacity:1;"/>
</linearGradient>
<linearGradient id="linear11" gradientUnits="userSpaceOnUse" x1="10.8977" y1="26.0436" x2="39.0417" y2="26.0436" >
<stop offset="0" style="stop-color:rgb(32.941176%,20%,100%);stop-opacity:1;"/>
<stop offset="0.5" style="stop-color:rgb(12.54902%,74.117647%,100%);stop-opacity:1;"/>
<stop offset="1" style="stop-color:rgb(64.705882%,99.607843%,79.607843%);stop-opacity:1;"/>
</linearGradient>
</defs>
<g id="surface1">
<path style=" stroke:none;fill-rule:nonzero;fill:rgb(0%,0%,0%);fill-opacity:1;" d="M 50 25 C 50 11.191406 38.808594 0 25 0 C 11.191406 0 0 11.191406 0 25 C 0 38.808594 11.191406 50 25 50 C 38.808594 50 50 38.808594 50 25 Z M 50 25 "/>
<use xlink:href="#surface5" mask="url(#mask0)"/>
<path style=" stroke:none;fill-rule:nonzero;fill:url(#linear0);" d="M 19.878906 39.378906 C 19.734375 39.25 19.644531 39.074219 19.628906 38.882812 L 18.207031 23.628906 L 23.265625 23.628906 L 23.265625 40.714844 C 23.265625 41.367188 22.503906 41.714844 22.019531 41.28125 Z M 19.878906 39.378906 "/>
<path style=" stroke:none;fill-rule:nonzero;fill:url(#linear1);" d="M 23.265625 23.324219 L 23.265625 21.195312 L 17.933594 20.730469 L 18.175781 23.324219 Z M 23.265625 23.324219 "/>
<path style=" stroke:none;fill-rule:nonzero;fill:url(#linear2);" d="M 23.265625 20.890625 L 17.90625 20.425781 L 17.070312 11.441406 C 17.027344 10.996094 17.375 10.613281 17.816406 10.613281 L 22.515625 10.613281 C 22.929688 10.613281 23.265625 10.953125 23.265625 11.371094 Z M 23.265625 20.890625 "/>
<path style=" stroke:none;fill-rule:nonzero;fill:url(#linear3);" d="M 33.15625 23.324219 L 37.015625 23.324219 C 37.222656 23.324219 37.390625 23.15625 37.390625 22.945312 L 37.390625 20.714844 C 37.390625 20.492188 37.199219 20.316406 36.980469 20.339844 L 33.398438 20.691406 Z M 33.15625 23.324219 "/>
<path style=" stroke:none;fill-rule:nonzero;fill:url(#linear4);" d="M 33.09375 20.722656 L 27.753906 21.246094 L 27.753906 23.324219 L 32.855469 23.324219 Z M 33.09375 20.722656 "/>
<path style=" stroke:none;fill-rule:nonzero;fill:url(#linear5);" d="M 27.453125 21.277344 L 27.453125 23.324219 L 13.238281 23.324219 C 13.03125 23.324219 12.863281 23.15625 12.863281 22.945312 L 12.863281 20.710938 C 12.863281 20.488281 13.050781 20.316406 13.269531 20.332031 L 25.90625 21.421875 C 25.925781 21.425781 25.949219 21.425781 25.972656 21.421875 Z M 27.453125 21.277344 "/>
<path style=" stroke:none;fill-rule:nonzero;fill:url(#linear6);" d="M 29.039062 41.230469 C 28.566406 41.714844 27.753906 41.375 27.753906 40.699219 L 27.753906 17.226562 L 33.417969 17.226562 L 31.445312 38.527344 C 31.429688 38.699219 31.355469 38.863281 31.234375 38.988281 Z M 29.039062 41.230469 "/>
<path style=" stroke:none;fill-rule:nonzero;fill:url(#linear7);" d="M 33.445312 16.921875 L 27.753906 16.921875 L 27.753906 13.660156 L 33.78125 13.28125 Z M 33.445312 16.921875 "/>
<path style=" stroke:none;fill-rule:nonzero;fill:url(#linear8);" d="M 27.753906 11.371094 L 27.753906 13.359375 L 33.808594 12.976562 L 33.953125 11.441406 C 33.992188 10.996094 33.648438 10.613281 33.203125 10.613281 L 28.503906 10.613281 C 28.089844 10.613281 27.753906 10.953125 27.753906 11.371094 Z M 27.753906 11.371094 "/>
<path style=" stroke:none;fill-rule:nonzero;fill:url(#linear9);" d="M 23.265625 16.921875 L 23.265625 13.671875 L 17.246094 13.371094 L 17.574219 16.921875 Z M 23.265625 16.921875 "/>
<path style=" stroke:none;fill-rule:nonzero;fill:url(#linear10);" d="M 23.566406 16.921875 L 38.742188 16.921875 C 38.90625 16.921875 39.042969 16.789062 39.042969 16.621094 L 39.042969 13.257812 C 39.042969 13.082031 38.894531 12.945312 38.722656 12.957031 L 25.691406 13.792969 L 23.566406 13.6875 Z M 23.566406 16.921875 "/>
<path style=" stroke:none;fill-rule:nonzero;fill:url(#linear11);" d="M 16.917969 13.355469 L 17.277344 16.925781 L 11.199219 16.925781 C 11.03125 16.925781 10.898438 16.789062 10.898438 16.621094 L 10.898438 13.375 C 10.898438 13.203125 11.042969 13.0625 11.210938 13.074219 Z M 16.917969 13.355469 "/>
<path style=" stroke:none;fill-rule:nonzero;fill:rgb(100%,100%,100%);fill-opacity:1;" d="M 18.183594 20.449219 L 17.90625 20.425781 L 17.582031 16.925781 L 17.574219 16.925781 L 17.246094 13.371094 L 17.25 13.371094 L 17.070312 11.441406 C 17.027344 10.996094 17.375 10.613281 17.816406 10.613281 L 22.515625 10.613281 C 22.800781 10.613281 23.046875 10.773438 23.175781 11.007812 C 23.070312 10.949219 22.945312 10.917969 22.816406 10.917969 L 18.117188 10.917969 C 17.675781 10.917969 17.328125 11.300781 17.371094 11.742188 L 17.550781 13.675781 L 17.546875 13.675781 L 17.875 17.226562 L 17.882812 17.226562 Z M 18.183594 20.449219 "/>
<path style=" stroke:none;fill-rule:nonzero;fill:rgb(100%,100%,100%);fill-opacity:1;" d="M 23.566406 16.921875 L 23.867188 16.921875 L 23.867188 13.988281 L 25.992188 14.09375 L 39.023438 13.261719 C 39.03125 13.257812 39.035156 13.257812 39.042969 13.257812 C 39.042969 13.082031 38.894531 12.945312 38.722656 12.957031 L 34.113281 13.25 L 34.109375 13.28125 L 28.054688 13.660156 L 28.054688 13.640625 L 25.691406 13.792969 L 23.566406 13.6875 Z M 23.566406 16.921875 "/>
<path style=" stroke:none;fill-rule:nonzero;fill:rgb(100%,100%,100%);fill-opacity:1;" d="M 33.863281 11.007812 C 33.757812 10.949219 33.636719 10.917969 33.503906 10.917969 L 28.804688 10.917969 C 28.390625 10.917969 28.054688 11.253906 28.054688 11.671875 L 28.054688 13.339844 L 27.753906 13.359375 L 27.753906 11.371094 C 27.753906 10.953125 28.089844 10.613281 28.503906 10.613281 L 33.203125 10.613281 C 33.492188 10.613281 33.738281 10.773438 33.863281 11.007812 Z M 33.863281 11.007812 "/>
<path style=" stroke:none;fill-rule:nonzero;fill:rgb(100%,100%,100%);fill-opacity:1;" d="M 27.753906 17.226562 L 33.417969 17.226562 L 33.390625 17.53125 L 28.054688 17.53125 L 28.054688 41.003906 C 28.054688 41.136719 28.085938 41.257812 28.144531 41.363281 C 27.917969 41.238281 27.753906 41.003906 27.753906 40.699219 L 27.753906 21.578125 L 27.753906 21.582031 Z M 27.753906 17.226562 "/>
<path style=" stroke:none;fill-rule:nonzero;fill:rgb(100%,100%,100%);fill-opacity:1;" d="M 27.453125 21.609375 L 27.453125 21.277344 L 25.972656 21.421875 C 25.949219 21.425781 25.925781 21.425781 25.90625 21.421875 L 17.933594 20.730469 L 17.933594 20.734375 L 13.269531 20.332031 C 13.050781 20.316406 12.863281 20.488281 12.863281 20.710938 L 12.863281 22.945312 C 12.863281 23.132812 12.996094 23.285156 13.171875 23.320312 C 13.167969 23.296875 13.164062 23.273438 13.164062 23.25 L 13.164062 21.015625 C 13.164062 20.792969 13.351562 20.617188 13.570312 20.636719 L 18.238281 21.039062 L 18.234375 21.035156 L 26.207031 21.726562 C 26.226562 21.726562 26.25 21.726562 26.273438 21.726562 Z M 27.453125 21.609375 "/>
<path style=" stroke:none;fill-rule:nonzero;fill:rgb(100%,100%,100%);fill-opacity:1;" d="M 18.207031 23.628906 L 19.628906 38.882812 C 19.644531 39.074219 19.734375 39.25 19.878906 39.378906 L 20.046875 39.527344 C 19.980469 39.425781 19.941406 39.308594 19.929688 39.183594 L 18.507812 23.929688 L 23.265625 23.929688 L 23.265625 23.628906 Z M 18.207031 23.628906 "/>
<path style=" stroke:none;fill-rule:nonzero;fill:rgb(100%,100%,100%);fill-opacity:1;" d="M 33.183594 23.324219 L 33.484375 23.324219 L 33.699219 20.996094 L 37.28125 20.640625 C 37.316406 20.640625 37.351562 20.640625 37.382812 20.648438 C 37.351562 20.457031 37.175781 20.320312 36.980469 20.339844 L 33.425781 20.6875 L 33.332031 21.6875 Z M 33.183594 23.324219 "/>
<path style=" stroke:none;fill-rule:nonzero;fill:rgb(100%,100%,100%);fill-opacity:1;" d="M 16.949219 13.644531 L 16.917969 13.355469 L 11.210938 13.074219 C 11.042969 13.0625 10.898438 13.203125 10.898438 13.375 L 10.898438 16.621094 C 10.898438 16.789062 11.03125 16.925781 11.199219 16.925781 L 11.199219 13.679688 C 11.199219 13.503906 11.34375 13.367188 11.511719 13.375 Z M 16.949219 13.644531 "/>
</g>
</svg>
