<?xml version="1.0" encoding="UTF-8"?>
<svg xmlns="http://www.w3.org/2000/svg" xmlns:xlink="http://www.w3.org/1999/xlink" width="50px" height="50px" viewBox="0 0 50 50" version="1.1">
<defs>
<clipPath id="clip1">
  <path d="M 2 5 L 46 5 L 46 50 L 2 50 Z M 2 5 "/>
</clipPath>
<clipPath id="clip2">
  <path d="M 25 0 C 38.808594 0 50 11.191406 50 25 C 50 38.808594 38.808594 50 25 50 C 11.191406 50 0 38.808594 0 25 C 0 11.191406 11.191406 0 25 0 Z M 25 0 "/>
</clipPath>
<clipPath id="clip3">
  <path d="M 3 25 L 43 25 L 43 50 L 3 50 Z M 3 25 "/>
</clipPath>
<clipPath id="clip4">
  <path d="M 25 0 C 38.808594 0 50 11.191406 50 25 C 50 38.808594 38.808594 50 25 50 C 11.191406 50 0 38.808594 0 25 C 0 11.191406 11.191406 0 25 0 Z M 25 0 "/>
</clipPath>
<linearGradient id="linear0" gradientUnits="userSpaceOnUse" x1="19.8915" y1="30.0896" x2="28.5476" y2="50.3756" >
<stop offset="0" style="stop-color:rgb(96.862745%,83.137255%,36.078431%);stop-opacity:1;"/>
<stop offset="1" style="stop-color:rgb(87.058824%,21.176471%,20%);stop-opacity:1;"/>
</linearGradient>
<clipPath id="clip5">
  <path d="M 2 0 L 48 0 L 48 43 L 2 43 Z M 2 0 "/>
</clipPath>
<clipPath id="clip6">
  <path d="M 25 0 C 38.808594 0 50 11.191406 50 25 C 50 38.808594 38.808594 50 25 50 C 11.191406 50 0 38.808594 0 25 C 0 11.191406 11.191406 0 25 0 Z M 25 0 "/>
</clipPath>
<linearGradient id="linear1" gradientUnits="userSpaceOnUse" x1="9.73103" y1="9.69141" x2="29.8696" y2="32.2041" >
<stop offset="0" style="stop-color:rgb(96.862745%,83.137255%,36.078431%);stop-opacity:1;"/>
<stop offset="1" style="stop-color:rgb(87.058824%,21.176471%,20%);stop-opacity:1;"/>
</linearGradient>
</defs>
<g id="surface1">
<g clip-path="url(#clip1)" clip-rule="nonzero">
<g clip-path="url(#clip2)" clip-rule="nonzero">
<path style=" stroke:none;fill-rule:nonzero;fill:rgb(94.901961%,89.019608%,45.098039%);fill-opacity:1;" d="M 23.988281 49.855469 C 36.0625 49.855469 45.851562 40.003906 45.851562 27.851562 C 45.851562 15.699219 36.0625 5.847656 23.988281 5.847656 C 11.914062 5.847656 2.125 15.699219 2.125 27.851562 C 2.125 40.003906 11.914062 49.855469 23.988281 49.855469 Z M 23.988281 49.855469 "/>
</g>
</g>
<g clip-path="url(#clip3)" clip-rule="nonzero">
<g clip-path="url(#clip4)" clip-rule="nonzero">
<path style=" stroke:none;fill-rule:evenodd;fill:url(#linear0);" d="M 32.871094 25.570312 L 3 34.527344 C 4.363281 38.894531 7.144531 42.917969 11.359375 45.894531 C 21.761719 53.230469 34.738281 50.109375 42.871094 41.351562 C 43.046875 41.164062 42.871094 40.851562 42.636719 40.960938 C 41.105469 41.679688 39.390625 41.894531 37.730469 41.574219 C 36.191406 41.277344 34.773438 40.523438 33.664062 39.410156 C 32.550781 38.296875 31.800781 36.875 31.503906 35.324219 C 31.117188 33.363281 31.476562 31.332031 32.507812 29.625 C 33.539062 27.914062 35.167969 26.65625 37.074219 26.097656 Z M 32.871094 25.570312 "/>
</g>
</g>
<g clip-path="url(#clip5)" clip-rule="nonzero">
<g clip-path="url(#clip6)" clip-rule="nonzero">
<path style=" stroke:none;fill-rule:evenodd;fill:url(#linear1);" d="M 29.421875 23.824219 C 30.011719 23.582031 30.585938 23.296875 31.132812 22.972656 C 33.820312 21.421875 36.957031 20.847656 40.015625 21.339844 C 43.074219 21.835938 45.875 23.367188 47.945312 25.6875 C 47.976562 25.726562 47.996094 25.773438 48 25.824219 C 48.003906 25.875 47.992188 25.921875 47.964844 25.96875 C 47.9375 26.011719 47.902344 26.042969 47.855469 26.0625 C 47.808594 26.085938 47.757812 26.089844 47.707031 26.078125 C 43.984375 25.289062 39.96875 25.132812 36.914062 26.140625 C 33.226562 27.355469 30.523438 29.992188 28.652344 33.261719 C 25.910156 38.058594 24.78125 39.417969 20.347656 41.152344 C 12.628906 44.183594 5.425781 41.4375 3 34.539062 C 1.457031 29.570312 1.703125 24.210938 3.695312 19.40625 C 5.6875 14.597656 9.296875 10.648438 13.890625 8.25 C 16.566406 6.824219 19.808594 5.625 22.523438 4.835938 C 25.140625 4.082031 29.597656 2.992188 30.746094 0.15625 C 30.769531 0.105469 30.808594 0.0625 30.859375 0.0351562 C 30.90625 0.00390625 30.964844 -0.00390625 31.023438 0.00390625 C 31.078125 0.0117188 31.132812 0.0390625 31.171875 0.078125 C 31.210938 0.121094 31.238281 0.171875 31.242188 0.230469 C 31.703125 3.578125 30.941406 5.101562 29.027344 6.910156 C 26.957031 8.875 24.398438 9.765625 22.101562 11.183594 C 18.601562 13.515625 17.492188 17.777344 19.816406 21.296875 C 21.195312 23.386719 23.542969 24.5 26.011719 24.5 C 26.769531 24.496094 27.523438 24.402344 28.257812 24.21875 C 28.65625 24.113281 29.042969 23.984375 29.421875 23.824219 Z M 29.421875 23.824219 "/>
</g>
</g>
</g>
</svg>
