<?xml version="1.0" encoding="UTF-8"?>
<svg xmlns="http://www.w3.org/2000/svg" xmlns:xlink="http://www.w3.org/1999/xlink" width="50px" height="50px" viewBox="0 0 50 50" version="1.1">
<g id="surface1">
<path style=" stroke:none;fill-rule:nonzero;fill:rgb(93.72549%,46.666667%,18.823529%);fill-opacity:1;" d="M 49.609375 20.855469 L 47.609375 18.261719 L 36.179688 10.886719 C 36.21875 11.101562 36.257812 11.320312 36.304688 11.535156 C 36.398438 11.933594 36.496094 12.332031 36.605469 12.726562 C 36.671875 12.964844 36.738281 13.203125 36.808594 13.429688 C 36.828125 13.5 36.851562 13.570312 36.871094 13.644531 C 39.128906 20.898438 43.636719 24.347656 49.6875 28.96875 C 50.082031 26.503906 50.105469 23.992188 49.761719 21.515625 Z M 49.609375 20.855469 "/>
<path style=" stroke:none;fill-rule:nonzero;fill:rgb(97.647059%,84.705882%,36.862745%);fill-opacity:1;" d="M 27.402344 31.25 C 16.527344 26.386719 9.726562 16.515625 9.332031 6.578125 C 9.328125 6.484375 9.296875 6.394531 9.242188 6.316406 C 9.1875 6.238281 9.113281 6.175781 9.027344 6.140625 C 8.941406 6.101562 8.84375 6.089844 8.75 6.105469 C 8.65625 6.121094 8.570312 6.164062 8.5 6.226562 C 5.652344 8.734375 3.414062 11.859375 1.957031 15.359375 C 0.496094 18.859375 -0.148438 22.648438 0.0703125 26.4375 C 0.289062 30.222656 1.367188 33.910156 3.222656 37.222656 C 5.078125 40.53125 7.664062 43.375 10.78125 45.535156 C 13.898438 47.699219 17.464844 49.125 21.214844 49.707031 C 24.964844 50.285156 28.796875 50.003906 32.421875 48.886719 C 36.046875 47.765625 39.367188 45.835938 42.136719 43.242188 C 44.90625 40.648438 47.046875 37.457031 48.402344 33.914062 C 48.433594 33.828125 48.445312 33.734375 48.429688 33.644531 C 48.414062 33.554688 48.375 33.472656 48.3125 33.402344 C 48.253906 33.332031 48.175781 33.28125 48.089844 33.253906 C 48 33.226562 47.90625 33.222656 47.820312 33.246094 C 40.980469 34.878906 33.792969 34.179688 27.402344 31.25 Z M 49.757812 21.539062 C 48.875 19.492188 48.875 19.492188 25.160156 10.929688 C 13.226562 6.617188 11.007812 2.453125 19.648438 0.570312 C 20.070312 0.480469 20.496094 0.398438 20.921875 0.328125 C 24.214844 -0.207031 27.578125 -0.0820312 30.820312 0.695312 C 34.0625 1.476562 37.113281 2.894531 39.800781 4.871094 C 42.484375 6.847656 44.75 9.339844 46.460938 12.199219 C 48.171875 15.0625 49.292969 18.238281 49.757812 21.539062 Z M 49.757812 21.539062 "/>
<path style=" stroke:none;fill-rule:nonzero;fill:rgb(93.72549%,46.666667%,18.823529%);fill-opacity:1;" d="M 26.992188 0.0820312 L 26.707031 0.0585938 C 27.097656 0.0859375 27.480469 0.132812 27.867188 0.179688 C 27.800781 0.171875 27.734375 0.160156 27.664062 0.152344 C 27.445312 0.125 27.222656 0.105469 26.992188 0.0820312 Z M 26.992188 0.0820312 "/>
</g>
</svg>
