<svg width="21" height="20" viewBox="0 0 21 20" fill="none" xmlns="http://www.w3.org/2000/svg">
<path fill-rule="evenodd" clip-rule="evenodd" d="M14.1252 2.5V7.1248L20.0621 16.1232C21.1587 17.7853 19.9668 20 17.9754 20H3.89672C1.89459 20 0.704737 17.764 1.8232 16.1034L7.87518 7.11828V2.5H6.62518C5.93483 2.5 5.37518 1.94036 5.37518 1.25C5.37518 0.559644 5.93483 0 6.62518 0H7.87518H14.1252H15.3752C16.0656 0 16.6252 0.559644 16.6252 1.25C16.6252 1.94036 16.0656 2.5 15.3752 2.5H14.1252ZM9.12518 7.5V2.5H12.8752V7.5L13.9608 9.14539C13.7413 9.03831 13.5031 8.95238 13.2473 8.90121C12.3479 8.72134 11.4676 9.01486 10.7413 9.74108C10.1742 10.3082 9.36554 10.4595 8.51793 10.3943C8.10883 10.3628 7.73978 10.2832 7.47165 10.21C7.41896 10.1957 7.37079 10.1817 7.32766 10.1687L9.12518 7.5ZM8.50018 18.75C9.53572 18.75 10.3752 17.9105 10.3752 16.875C10.3752 15.8395 9.53572 15 8.50018 15C7.46465 15 6.62518 15.8395 6.62518 16.875C6.62518 17.9105 7.46465 18.75 8.50018 18.75ZM14.1252 13.75C14.1252 14.4404 13.5655 15 12.8752 15C12.1848 15 11.6252 14.4404 11.6252 13.75C11.6252 13.0596 12.1848 12.5 12.8752 12.5C13.5655 12.5 14.1252 13.0596 14.1252 13.75Z" fill="black"/>
</svg>
