<svg width="50" height="50" viewBox="0 0 50 50" fill="none" xmlns="http://www.w3.org/2000/svg">
<g clip-path="url(#clip0_975_5659)">
<path fill-rule="evenodd" clip-rule="evenodd" d="M0 25C0 18.3696 2.63392 12.0107 7.32233 7.32233C12.0107 2.63392 18.3696 0 25 0C31.6304 0 37.9893 2.63392 42.6777 7.32233C47.3661 12.0107 50 18.3696 50 25C50 31.6304 47.3661 37.9893 42.6777 42.6777C37.9893 47.3661 31.6304 50 25 50C18.3696 50 12.0107 47.3661 7.32233 42.6777C2.63392 37.9893 0 31.6304 0 25ZM20.8237 18.0158H13.8395C12.9133 18.0158 12.0251 17.6479 11.3702 16.993C10.7153 16.3381 10.3474 15.4498 10.3474 14.5237C10.3474 13.5975 10.7153 12.7093 11.3702 12.0544C12.0251 11.3995 12.9133 11.0316 13.8395 11.0316H24.9447C24.9903 11.0309 25.036 11.0309 25.0816 11.0316H36.1921C37.1183 11.0316 38.0065 11.3995 38.6614 12.0544C39.3163 12.7093 39.6842 13.5975 39.6842 14.5237C39.6842 15.4498 39.3163 16.3381 38.6614 16.993C38.0065 17.6479 37.1183 18.0158 36.1921 18.0158H29.2053V28.4921C29.2053 28.5974 29.1 28.6605 29.0026 28.6237C28.6617 28.5001 28.2961 28.4606 27.9367 28.5084C27.5773 28.5563 27.2347 28.6901 26.938 28.8985C26.6413 29.1068 26.3992 29.3837 26.2322 29.7056C26.0653 30.0274 25.9784 30.3848 25.9789 30.7474V31.1237C25.9789 31.3526 26.0132 31.5737 26.0763 31.7816C26.1842 32.1395 26.0526 32.5711 25.6868 32.6289C25.1174 32.7204 24.5353 32.6944 23.9763 32.5526C23.5289 32.4395 23.5395 31.8289 23.8632 31.5C24.2629 31.0919 24.5279 30.5711 24.6226 30.0078C24.7173 29.4445 24.6371 28.8657 24.3929 28.3493C24.1486 27.833 23.752 27.4039 23.2564 27.1198C22.7608 26.8357 22.1901 26.7103 21.6211 26.7605C21.2289 26.7921 20.8237 26.5211 20.8237 26.1263V18.0158ZM28.1553 31.9842C28.2928 31.9842 28.429 31.9571 28.5561 31.9045C28.6831 31.8518 28.7986 31.7747 28.8959 31.6774C28.9931 31.5802 29.0703 31.4647 29.1229 31.3377C29.1755 31.2106 29.2026 31.0744 29.2026 30.9368C29.2026 30.7993 29.1755 30.6631 29.1229 30.536C29.0703 30.409 28.9931 30.2935 28.8959 30.1962C28.7986 30.099 28.6831 30.0218 28.5561 29.9692C28.429 29.9166 28.2928 29.8895 28.1553 29.8895C27.8775 29.8895 27.6111 29.9998 27.4147 30.1962C27.2182 30.3927 27.1079 30.6591 27.1079 30.9368C27.1079 31.2146 27.2182 31.481 27.4147 31.6774C27.6111 31.8739 27.8775 31.9842 28.1553 31.9842ZM26.3 34.8026C26.3 35.19 26.4539 35.5615 26.7278 35.8354C27.0017 36.1093 27.3732 36.2632 27.7605 36.2632C28.1479 36.2632 28.5194 36.1093 28.7933 35.8354C29.0672 35.5615 29.2211 35.19 29.2211 34.8026C29.2211 34.4153 29.0672 34.0438 28.7933 33.7699C28.5194 33.496 28.1479 33.3421 27.7605 33.3421C27.3732 33.3421 27.0017 33.496 26.7278 33.7699C26.4539 34.0438 26.3 34.4153 26.3 34.8026ZM27.1737 39.0395C27.1737 39.3106 27.2814 39.5707 27.4731 39.7624C27.6649 39.9541 27.9249 40.0618 28.1961 40.0618C28.4672 40.0618 28.7272 39.9541 28.919 39.7624C29.1107 39.5707 29.2184 39.3106 29.2184 39.0395C29.2184 38.7683 29.1107 38.5083 28.919 38.3166C28.7272 38.1248 28.4672 38.0171 28.1961 38.0171C27.9249 38.0171 27.6649 38.1248 27.4731 38.3166C27.2814 38.5083 27.1737 38.7683 27.1737 39.0395ZM26.2974 37.5211C26.2974 37.8072 26.1837 38.0816 25.9814 38.284C25.779 38.4863 25.5046 38.6 25.2184 38.6C24.9323 38.6 24.6578 38.4863 24.4555 38.284C24.2531 38.0816 24.1395 37.8072 24.1395 37.5211C24.1395 37.2349 24.2531 36.9605 24.4555 36.7581C24.6578 36.5558 24.9323 36.4421 25.2184 36.4421C25.5046 36.4421 25.779 36.5558 25.9814 36.7581C26.1837 36.9605 26.2974 37.2349 26.2974 37.5211ZM24.6921 43.1579C24.2664 43.1579 23.8581 42.9888 23.557 42.6877C23.256 42.3867 23.0868 41.9784 23.0868 41.5526C23.0868 41.1269 23.256 40.7186 23.557 40.4175C23.8581 40.1165 24.2664 39.9474 24.6921 39.9474C25.1178 39.9474 25.5262 40.1165 25.8272 40.4175C26.1282 40.7186 26.2974 41.1269 26.2974 41.5526C26.2974 41.9784 26.1282 42.3867 25.8272 42.6877C25.5262 42.9888 25.1178 43.1579 24.6921 43.1579ZM19.7579 35.2737C19.7579 35.816 19.9733 36.3361 20.3568 36.7195C20.7402 37.103 21.2603 37.3184 21.8026 37.3184C22.3449 37.3184 22.865 37.103 23.2485 36.7195C23.6319 36.3361 23.8474 35.816 23.8474 35.2737C23.8474 34.7314 23.6319 34.2113 23.2485 33.8278C22.865 33.4444 22.3449 33.2289 21.8026 33.2289C21.2603 33.2289 20.7402 33.4444 20.3568 33.8278C19.9733 34.2113 19.7579 34.7314 19.7579 35.2737ZM21.8711 28.1421C21.5004 28.1421 21.145 28.2893 20.883 28.5514C20.6209 28.8134 20.4737 29.1689 20.4737 29.5395C20.4737 29.9101 20.6209 30.2655 20.883 30.5276C21.145 30.7896 21.5004 30.9368 21.8711 30.9368C22.2417 30.9368 22.5971 30.7896 22.8591 30.5276C23.1212 30.2655 23.2684 29.9101 23.2684 29.5395C23.2684 29.1689 23.1212 28.8134 22.8591 28.5514C22.5971 28.2893 22.2417 28.1421 21.8711 28.1421Z" fill="url(#paint0_linear_975_5659)"/>
</g>
<defs>
<linearGradient id="paint0_linear_975_5659" x1="50" y1="50" x2="19.7" y2="-9.95526" gradientUnits="userSpaceOnUse">
<stop stop-color="#71399F"/>
<stop offset="0.11" stop-color="#71399F"/>
<stop offset="0.8" stop-color="#EC096D"/>
<stop offset="1" stop-color="#EC096D"/>
</linearGradient>
<clipPath id="clip0_975_5659">
<rect width="50" height="50" fill="white"/>
</clipPath>
</defs>
</svg>
