<?xml version="1.0" encoding="UTF-8"?>
<svg xmlns="http://www.w3.org/2000/svg" xmlns:xlink="http://www.w3.org/1999/xlink" width="50px" height="50px" viewBox="0 0 50 50" version="1.1">
<defs>
<linearGradient id="linear0" gradientUnits="userSpaceOnUse" x1="50" y1="50" x2="19.7" y2="-9.95526" >
<stop offset="0" style="stop-color:rgb(44.313725%,22.352941%,62.352941%);stop-opacity:1;"/>
<stop offset="0.11" style="stop-color:rgb(44.313725%,22.352941%,62.352941%);stop-opacity:1;"/>
<stop offset="0.8" style="stop-color:rgb(92.54902%,3.529412%,42.745098%);stop-opacity:1;"/>
<stop offset="1" style="stop-color:rgb(92.54902%,3.529412%,42.745098%);stop-opacity:1;"/>
</linearGradient>
</defs>
<g id="surface1">
<path style=" stroke:none;fill-rule:evenodd;fill:url(#linear0);" d="M 0 25 C 0 18.371094 2.632812 12.011719 7.324219 7.324219 C 12.011719 2.632812 18.371094 0 25 0 C 31.628906 0 37.988281 2.632812 42.675781 7.324219 C 47.367188 12.011719 50 18.371094 50 25 C 50 31.628906 47.367188 37.988281 42.675781 42.675781 C 37.988281 47.367188 31.628906 50 25 50 C 18.371094 50 12.011719 47.367188 7.324219 42.675781 C 2.632812 37.988281 0 31.628906 0 25 Z M 20.824219 18.015625 L 13.839844 18.015625 C 12.914062 18.015625 12.023438 17.648438 11.371094 16.992188 C 10.714844 16.339844 10.347656 15.449219 10.347656 14.523438 C 10.347656 13.597656 10.714844 12.710938 11.371094 12.054688 C 12.023438 11.398438 12.914062 11.03125 13.839844 11.03125 L 24.945312 11.03125 C 24.992188 11.03125 25.035156 11.03125 25.082031 11.03125 L 36.191406 11.03125 C 37.117188 11.03125 38.007812 11.398438 38.660156 12.054688 C 39.316406 12.710938 39.683594 13.597656 39.683594 14.523438 C 39.683594 15.449219 39.316406 16.339844 38.660156 16.992188 C 38.007812 17.648438 37.117188 18.015625 36.191406 18.015625 L 29.207031 18.015625 L 29.207031 28.492188 C 29.207031 28.597656 29.101562 28.660156 29.003906 28.625 C 28.660156 28.5 28.296875 28.460938 27.9375 28.507812 C 27.578125 28.554688 27.234375 28.691406 26.9375 28.898438 C 26.640625 29.105469 26.398438 29.382812 26.230469 29.707031 C 26.066406 30.027344 25.976562 30.386719 25.980469 30.746094 L 25.980469 31.125 C 25.980469 31.351562 26.011719 31.574219 26.078125 31.78125 C 26.183594 32.140625 26.050781 32.570312 25.6875 32.628906 C 25.117188 32.71875 24.535156 32.695312 23.976562 32.550781 C 23.527344 32.441406 23.539062 31.828125 23.863281 31.5 C 24.261719 31.09375 24.527344 30.570312 24.621094 30.007812 C 24.71875 29.445312 24.636719 28.867188 24.394531 28.347656 C 24.148438 27.832031 23.753906 27.402344 23.257812 27.121094 C 22.761719 26.835938 22.191406 26.710938 21.621094 26.761719 C 21.230469 26.792969 20.824219 26.519531 20.824219 26.125 Z M 28.15625 31.984375 C 28.292969 31.984375 28.429688 31.957031 28.554688 31.90625 C 28.683594 31.851562 28.796875 31.773438 28.894531 31.675781 C 28.992188 31.582031 29.070312 31.464844 29.121094 31.335938 C 29.175781 31.210938 29.203125 31.074219 29.203125 30.9375 C 29.203125 30.800781 29.175781 30.664062 29.121094 30.535156 C 29.070312 30.410156 28.992188 30.292969 28.894531 30.195312 C 28.796875 30.097656 28.683594 30.023438 28.554688 29.96875 C 28.429688 29.917969 28.292969 29.890625 28.15625 29.890625 C 27.878906 29.890625 27.609375 30 27.414062 30.195312 C 27.21875 30.394531 27.109375 30.660156 27.109375 30.9375 C 27.109375 31.214844 27.21875 31.480469 27.414062 31.675781 C 27.609375 31.875 27.878906 31.984375 28.15625 31.984375 Z M 26.300781 34.800781 C 26.300781 35.191406 26.453125 35.5625 26.726562 35.835938 C 27 36.109375 27.375 36.261719 27.761719 36.261719 C 28.148438 36.261719 28.519531 36.109375 28.792969 35.835938 C 29.066406 35.5625 29.222656 35.191406 29.222656 34.800781 C 29.222656 34.414062 29.066406 34.042969 28.792969 33.769531 C 28.519531 33.496094 28.148438 33.34375 27.761719 33.34375 C 27.375 33.34375 27 33.496094 26.726562 33.769531 C 26.453125 34.042969 26.300781 34.414062 26.300781 34.800781 Z M 27.171875 39.039062 C 27.171875 39.3125 27.28125 39.570312 27.472656 39.761719 C 27.664062 39.953125 27.925781 40.0625 28.195312 40.0625 C 28.46875 40.0625 28.726562 39.953125 28.917969 39.761719 C 29.109375 39.570312 29.21875 39.3125 29.21875 39.039062 C 29.21875 38.769531 29.109375 38.507812 28.917969 38.316406 C 28.726562 38.125 28.46875 38.015625 28.195312 38.015625 C 27.925781 38.015625 27.664062 38.125 27.472656 38.316406 C 27.28125 38.507812 27.171875 38.769531 27.171875 39.039062 Z M 26.296875 37.519531 C 26.296875 37.808594 26.183594 38.082031 25.980469 38.285156 C 25.777344 38.484375 25.503906 38.601562 25.21875 38.601562 C 24.933594 38.601562 24.65625 38.484375 24.457031 38.285156 C 24.253906 38.082031 24.140625 37.808594 24.140625 37.519531 C 24.140625 37.234375 24.253906 36.960938 24.457031 36.757812 C 24.65625 36.554688 24.933594 36.441406 25.21875 36.441406 C 25.503906 36.441406 25.777344 36.554688 25.980469 36.757812 C 26.183594 36.960938 26.296875 37.234375 26.296875 37.519531 Z M 24.691406 43.15625 C 24.265625 43.15625 23.859375 42.988281 23.558594 42.6875 C 23.257812 42.386719 23.085938 41.976562 23.085938 41.550781 C 23.085938 41.125 23.257812 40.71875 23.558594 40.417969 C 23.859375 40.117188 24.265625 39.949219 24.691406 39.949219 C 25.117188 39.949219 25.527344 40.117188 25.828125 40.417969 C 26.128906 40.71875 26.296875 41.125 26.296875 41.550781 C 26.296875 41.976562 26.128906 42.386719 25.828125 42.6875 C 25.527344 42.988281 25.117188 43.15625 24.691406 43.15625 Z M 19.757812 35.273438 C 19.757812 35.816406 19.972656 36.335938 20.355469 36.71875 C 20.738281 37.101562 21.261719 37.320312 21.800781 37.320312 C 22.34375 37.320312 22.863281 37.101562 23.25 36.71875 C 23.632812 36.335938 23.847656 35.816406 23.847656 35.273438 C 23.847656 34.730469 23.632812 34.210938 23.25 33.828125 C 22.863281 33.445312 22.34375 33.230469 21.800781 33.230469 C 21.261719 33.230469 20.738281 33.445312 20.355469 33.828125 C 19.972656 34.210938 19.757812 34.730469 19.757812 35.273438 Z M 21.871094 28.140625 C 21.5 28.140625 21.144531 28.289062 20.882812 28.550781 C 20.621094 28.8125 20.472656 29.167969 20.472656 29.539062 C 20.472656 29.910156 20.621094 30.265625 20.882812 30.527344 C 21.144531 30.789062 21.5 30.9375 21.871094 30.9375 C 22.242188 30.9375 22.597656 30.789062 22.859375 30.527344 C 23.121094 30.265625 23.269531 29.910156 23.269531 29.539062 C 23.269531 29.167969 23.121094 28.8125 22.859375 28.550781 C 22.597656 28.289062 22.242188 28.140625 21.871094 28.140625 Z M 21.871094 28.140625 "/>
</g>
</svg>
