<?xml version="1.0" encoding="UTF-8"?>
<svg xmlns="http://www.w3.org/2000/svg" xmlns:xlink="http://www.w3.org/1999/xlink" width="50px" height="50px" viewBox="0 0 50 49" version="1.1">
<g id="surface1">
<path style=" stroke:none;fill-rule:nonzero;fill:rgb(100%,40.392157%,12.156863%);fill-opacity:1;" d="M 25.03125 0 C 11.496094 0 0.519531 11 0.519531 24.566406 C 0.519531 37.269531 10.144531 47.722656 22.480469 49 L 22.480469 14.238281 L 11.648438 10.007812 L 22.480469 10.007812 L 25.03125 8.53125 L 27.578125 10.007812 L 38.414062 10.007812 L 27.578125 14.238281 L 27.578125 49 C 39.917969 47.722656 49.539062 37.269531 49.539062 24.566406 C 49.539062 11 38.566406 0 25.03125 0 Z M 17.96875 16.964844 L 17.96875 41.910156 L 12.871094 35.667969 L 12.871094 20.097656 L 9.058594 18.59375 L 7.972656 20.644531 L 6.207031 12.316406 Z M 42.085938 20.644531 L 41.003906 18.59375 L 37.191406 20.097656 L 37.191406 35.667969 L 32.09375 41.910156 L 32.09375 16.964844 L 43.855469 12.316406 Z M 42.085938 20.644531 "/>
</g>
</svg>
