<svg width="51" height="50" viewBox="0 0 51 50" fill="none" xmlns="http://www.w3.org/2000/svg">
<path d="M25.5314 0C11.7244 0 0.53125 11.223 0.53125 25.0669C0.53125 38.0306 10.3458 48.6958 22.9313 49.9996V14.5283L11.8795 10.2124H22.9309L25.5311 8.7069L28.1313 10.2124H39.1826L28.1313 14.5283V50C40.7166 48.695 50.5313 38.0306 50.5313 25.0669C50.5316 11.223 39.3388 0 25.5314 0ZM18.3293 17.3123V42.7663L13.1286 36.3942V20.5092L9.24029 18.9743L8.13398 21.0648L6.331 12.569L18.3293 17.3123ZM42.9289 21.0648L41.8226 18.9743L37.9343 20.5092V36.3942L32.7339 42.7663V17.3123L44.7314 12.569L42.9289 21.0648Z" fill="#FF671F"/>
</svg>
