<svg xmlns="http://www.w3.org/2000/svg" width="280" height="280" viewBox="0 0 280 280" version="1.1"><path d="M 155.824 71.003 C 156.122 83.695, 155.999 84.863, 154.324 85.296 C 153.321 85.556, 155.488 85.820, 159.140 85.884 L 165.780 86 165.317 82.250 C 164.366 74.553, 160.667 64.754, 156.291 58.340 C 155.856 57.702, 155.646 63.400, 155.824 71.003 M 157.750 93.630 C 156.254 94.072, 156 95.433, 156 103.019 L 156 111.890 151.250 112.195 L 146.500 112.500 146.195 117.250 L 145.890 122 150.990 122 L 156.089 122 155.795 139.501 C 155.633 149.127, 155.725 157.002, 156 157.001 C 156.275 157.001, 157.765 155.415, 159.310 153.478 C 164.507 146.965, 165.345 143.640, 165.798 127.750 C 166.278 110.910, 165.504 111.874, 176.018 115.005 C 191.918 119.740, 202.198 133.631, 202.288 150.500 C 202.325 157.383, 201.905 159.407, 199.280 165 C 193.298 177.745, 182.078 185.840, 169.255 186.663 C 165.540 186.901, 161.068 187.314, 159.318 187.580 L 156.136 188.065 155.818 197.671 L 155.500 207.278 166 206.670 C 178.655 205.937, 184.941 204.325, 193.235 199.683 C 206.745 192.124, 217.810 177.437, 220.920 162.940 C 222.263 156.675, 222.281 142.932, 220.954 137.176 C 218.921 128.361, 213.099 118.086, 206.156 111.060 C 198.588 103.402, 193.278 100.024, 183.363 96.559 C 176.638 94.210, 161.610 92.491, 157.750 93.630 M 157 216.937 C 157 219.771, 156.738 220, 153.500 220 C 149.665 220, 149.343 220.548, 151.500 223.397 C 152.290 224.441, 152.659 225.791, 152.321 226.397 C 151.983 227.004, 152.313 226.938, 153.053 226.250 C 155.465 224.012, 157 224.819, 157 228.326 C 157 230.569, 157.804 232.406, 159.469 233.971 C 160.827 235.247, 161.694 236.788, 161.395 237.395 C 161.096 238.003, 161.575 237.607, 162.458 236.515 C 163.743 234.927, 164.008 232.524, 163.782 224.515 L 163.500 214.500 160.250 214.187 C 157.222 213.895, 157 214.083, 157 216.937 M 169.262 221.529 C 168.062 222.370, 166.807 224.512, 166.474 226.289 C 165.280 232.652, 169.074 237.388, 175.226 237.213 C 176.947 237.164, 177.785 237.539, 177.388 238.182 C 177.017 238.782, 174.895 239.023, 172.427 238.745 C 167.278 238.164, 165.946 239.946, 169.140 243.140 C 172.022 246.022, 179.508 245.282, 182.145 241.854 C 184.742 238.477, 184.820 223.343, 182.250 221.392 C 179.858 219.576, 171.931 219.659, 169.262 221.529 M 189.789 221.363 C 187.362 223.208, 185.811 227.864, 186.532 231.147 C 187.338 234.815, 192.390 239, 196.012 239 C 200.974 239, 204.178 237.268, 203.819 234.778 C 203.534 232.798, 202.963 232.578, 198.500 232.729 L 193.500 232.898 199 231.127 C 204.113 229.481, 204.485 229.151, 204.284 226.428 C 204.165 224.818, 203.103 222.713, 201.923 221.750 C 199.387 219.680, 192.302 219.454, 189.789 221.363 M 208.250 221.523 C 203.885 224.609, 206.727 230.454, 213.500 232.317 C 214.600 232.619, 213.823 232.796, 211.773 232.710 C 206.568 232.492, 204.744 234.525, 207.861 237.071 C 210.750 239.432, 216.701 239.598, 219.832 237.405 C 221.624 236.150, 222.044 235.031, 221.805 232.155 C 221.545 229.036, 221.031 228.348, 218.298 227.465 C 213.554 225.932, 212.931 224.632, 217.322 225.426 C 221.057 226.102, 221.137 226.053, 220.822 223.309 C 220.522 220.693, 220.156 220.480, 215.500 220.216 C 212.153 220.026, 209.756 220.458, 208.250 221.523 M 174.068 226.419 C 172.254 228.603, 173.182 231.452, 175.829 231.829 C 177.887 232.121, 178.104 231.803, 177.819 228.906 C 177.459 225.239, 175.903 224.207, 174.068 226.419 M 193.500 226 C 193.160 226.550, 193.557 227, 194.382 227 C 195.207 227, 196.160 226.550, 196.500 226 C 196.840 225.450, 196.443 225, 195.618 225 C 194.793 225, 193.840 225.450, 193.500 226" stroke="none" fill="#d61095" fill-rule="evenodd"/><path d="M 105.500 35.970 C 86.142 38.782, 70.317 50.874, 62.272 69 L 58.500 77.500 58.209 142.260 L 57.918 207.019 106.709 206.760 L 155.500 206.500 155.787 197.316 C 156.026 189.636, 156.354 188.059, 157.787 187.682 C 158.729 187.435, 141.162 187.180, 118.750 187.116 L 78 187 78 135.353 C 78 84.672, 78.041 83.591, 80.198 77.603 C 83.497 68.443, 92.155 60.176, 101.559 57.208 C 110.176 54.489, 114 54.445, 122.145 56.972 C 133.393 60.461, 143.963 71.598, 145.452 81.531 C 146.056 85.554, 146.391 85.999, 148.811 85.986 C 150.290 85.979, 152.545 85.693, 153.823 85.351 C 156.132 84.732, 156.144 84.644, 155.823 70.951 L 155.500 57.174 149.500 51.249 C 146.200 47.990, 142.825 45.022, 142 44.653 C 141.175 44.284, 139.150 43.160, 137.500 42.154 C 129.675 37.384, 115.123 34.572, 105.500 35.970 M 128.389 94.089 C 117.615 95.891, 106.820 105.222, 103.773 115.367 C 103.090 117.640, 102.534 124.225, 102.538 130 C 102.547 143.497, 104.334 148.950, 111.039 155.944 C 118.049 163.255, 123.403 165.479, 134 165.485 C 142.732 165.490, 146.853 164.240, 153.168 159.674 L 155.837 157.744 155.955 139.872 L 156.073 122 151.037 122 L 146 122 146 130.365 C 146 137.320, 145.650 139.176, 143.922 141.371 C 141.064 145.005, 138.227 146.337, 133.719 146.160 C 125.380 145.833, 122.002 141.168, 122.018 130 C 122.031 121.361, 123.192 118.461, 127.912 115.280 C 130.429 113.584, 132.731 112.998, 136.898 112.993 C 139.979 112.989, 145.537 112.699, 149.250 112.348 L 156 111.711 156 102.929 C 156 95.406, 156.251 94.081, 157.750 93.689 C 160.966 92.849, 133.574 93.221, 128.389 94.089 M 81.163 212.878 C 80.427 213.345, 79.977 214.800, 80.163 216.113 C 80.432 218.021, 81.100 218.500, 83.486 218.500 C 86.805 218.500, 88.047 215.966, 85.960 213.452 C 84.600 211.813, 83.122 211.636, 81.163 212.878 M 60.250 216.031 C 58.126 216.885, 58 217.498, 58 226.993 C 58 237.039, 58.003 237.051, 60.750 238.113 C 64.553 239.583, 72.606 238.667, 75.010 236.491 C 77.395 234.332, 77.749 228.224, 75.538 227.376 C 74.273 226.891, 74.293 226.483, 75.679 224.366 C 79.829 218.034, 69.350 212.373, 60.250 216.031 M 106.750 215.631 C 105.228 216.079, 105 217.507, 105 226.598 L 105 237.050 107.750 238.113 C 112.124 239.803, 120.053 238.653, 122.186 236.018 C 124.406 233.277, 124.527 229.682, 122.458 227.965 C 121.388 227.077, 121.234 226.366, 121.958 225.642 C 123.401 224.199, 123.263 219.742, 121.708 217.615 C 120.391 215.814, 110.556 214.509, 106.750 215.631 M 90 225.434 C 90 233.667, 90.279 235.279, 92 237 C 94.693 239.693, 99.590 239.635, 101.057 236.893 C 102.299 234.573, 101.547 233.380, 98.500 232.839 C 97.194 232.606, 96.393 231.557, 96.191 229.814 C 95.927 227.541, 96.298 227.096, 98.691 226.822 C 100.935 226.565, 101.500 225.997, 101.500 224 C 101.500 222.030, 100.930 221.434, 98.812 221.190 C 96.930 220.972, 96.030 220.222, 95.812 218.690 C 95.591 217.142, 94.693 216.407, 92.750 216.184 L 90 215.867 90 225.434 M 80 228.918 C 80 237.799, 80.046 237.973, 82.573 238.608 C 83.988 238.963, 85.583 238.817, 86.116 238.284 C 86.650 237.750, 86.954 233.531, 86.793 228.907 L 86.500 220.500 83.250 220.187 L 80 219.873 80 228.918 M 127.667 220.667 C 127.300 221.033, 127 222.389, 127 223.678 C 127 225.869, 127.274 225.980, 131.153 225.360 C 134.168 224.877, 135.111 225.011, 134.594 225.848 C 134.202 226.481, 132.979 227, 131.875 227 C 128.017 227, 126 228.881, 126 232.478 C 126 234.867, 126.665 236.352, 128.223 237.443 C 131.124 239.476, 137.934 239.435, 140.886 237.368 C 143.006 235.883, 143.179 235.149, 142.803 229.247 C 142.492 224.365, 141.923 222.417, 140.504 221.379 C 138.592 219.981, 128.891 219.443, 127.667 220.667 M 65 222.500 C 65 223.628, 65.702 224.039, 67.250 223.820 C 68.487 223.644, 69.500 223.050, 69.500 222.500 C 69.500 221.950, 68.487 221.356, 67.250 221.180 C 65.702 220.961, 65 221.372, 65 222.500 M 112 222.500 C 112 223.333, 112.889 224, 114 224 C 115.111 224, 116 223.333, 116 222.500 C 116 221.667, 115.111 221, 114 221 C 112.889 221, 112 221.667, 112 222.500 M 147 222.501 C 146.315 223.326, 145.535 225.944, 145.268 228.318 C 144.870 231.845, 145.212 233.130, 147.141 235.351 C 149.897 238.525, 155.161 239.676, 159.429 238.038 L 162.358 236.913 160.195 234.751 C 159.006 233.561, 156.788 232.568, 155.266 232.544 C 152.705 232.503, 152.492 232.186, 152.392 228.273 C 152.291 224.326, 150.740 221, 149 221 C 148.585 221, 147.684 221.675, 147 222.501 M 65 230.930 C 65 232.487, 65.638 233, 67.573 233 C 70.856 233, 70.564 229.655, 67.240 229.180 C 65.539 228.938, 65 229.359, 65 230.930 M 111.709 230.994 C 112.089 232.450, 112.918 233.011, 114.380 232.802 C 117.460 232.363, 117.031 229.561, 113.828 229.191 C 111.543 228.927, 111.236 229.188, 111.709 230.994 M 133.166 231.876 C 132.079 232.565, 132.107 232.827, 133.318 233.292 C 134.864 233.885, 136 233.267, 136 231.833 C 136 230.775, 134.876 230.792, 133.166 231.876" stroke="none" fill="#427dd2" fill-rule="evenodd"/></svg>