<svg width="50" height="50" viewBox="0 0 50 50" fill="none" xmlns="http://www.w3.org/2000/svg">
<g clip-path="url(#clip0_975_5721)">
<path d="M24.853 49.8263C38.579 49.8263 49.706 38.6992 49.706 24.9733C49.706 11.2473 38.579 0.120239 24.853 0.120239C11.1271 0.120239 0 11.2473 0 24.9733C0 38.6992 11.1271 49.8263 24.853 49.8263Z" fill="white"/>
<path d="M26.4165 44.7221L18.1054 36.1171L15.1525 38.9765L11.2642 34.9413L27.8328 18.9204L40.0456 31.5473L26.4165 44.7221ZM22.1407 32.2288L26.5501 36.7985L32.0953 31.4271L27.6859 26.8573L22.1407 32.2288Z" fill="url(#paint0_linear_975_5721)"/>
<g opacity="0.2">
<path d="M34.0996 14.8585L23.3166 25.2941L18.8938 20.7243L28.2604 11.6783H20.1899L10.9702 20.6041L23.1696 33.2176L37.9879 18.8937L34.0996 14.8585Z" fill="#533E94"/>
<path d="M29.129 9.72751L25.7751 6.28015L22.2075 9.72751H29.129Z" fill="#533E94"/>
</g>
<path d="M33.0974 13.8563L22.301 24.2919L17.8916 19.7221L27.2582 10.6761H19.1877L9.96802 19.5885L22.1674 32.2154L36.9857 17.8915L33.0974 13.8563Z" fill="#7800F4"/>
<path d="M28.1268 8.72531L24.7729 5.27795L21.2053 8.72531H28.1268Z" fill="#7800F4"/>
</g>
<defs>
<linearGradient id="paint0_linear_975_5721" x1="25.6549" y1="21.0042" x2="25.6549" y2="44.1272" gradientUnits="userSpaceOnUse">
<stop stop-color="#040000"/>
<stop offset="1" stop-color="#322951"/>
</linearGradient>
<clipPath id="clip0_975_5721">
<rect width="50" height="50" fill="white"/>
</clipPath>
</defs>
</svg>
