<?xml version="1.0" encoding="UTF-8"?>
<svg xmlns="http://www.w3.org/2000/svg" xmlns:xlink="http://www.w3.org/1999/xlink" width="50px" height="50px" viewBox="0 0 50 50" version="1.1">
<g id="surface1">
<path style=" stroke:none;fill-rule:nonzero;fill:rgb(98.823529%,98.823529%,98.823529%);fill-opacity:1;" d="M 42.234375 7.765625 C 37.628906 3.160156 31.511719 0.625 25 0.625 C 11.558594 0.625 0.625 11.558594 0.625 25 C 0.625 38.441406 11.558594 49.375 25 49.375 C 31.511719 49.375 37.636719 46.839844 42.234375 42.234375 C 46.839844 37.628906 49.375 31.511719 49.375 25 C 49.375 18.488281 46.84375 12.371094 42.234375 7.765625 Z M 42.234375 7.765625 "/>
<path style=" stroke:none;fill-rule:nonzero;fill:rgb(18.823529%,32.941176%,73.72549%);fill-opacity:1;" d="M 37.503906 18.785156 L 23.023438 18.785156 C 22.914062 18.785156 22.816406 18.726562 22.761719 18.621094 L 19.894531 13.351562 C 19.878906 13.320312 19.871094 13.285156 19.875 13.25 C 19.898438 13.089844 20.023438 12.96875 20.175781 12.96875 L 40.359375 12.96875 C 40.511719 12.96875 40.640625 13.089844 40.660156 13.25 C 40.664062 13.285156 40.65625 13.320312 40.640625 13.351562 L 37.769531 18.621094 C 37.714844 18.71875 37.613281 18.785156 37.503906 18.785156 Z M 37.503906 18.785156 "/>
<path style=" stroke:none;fill-rule:nonzero;fill:rgb(18.823529%,32.941176%,73.72549%);fill-opacity:1;" d="M 15.441406 13.285156 L 22.789062 25.761719 C 22.84375 25.855469 22.84375 25.96875 22.796875 26.066406 L 20.070312 31 C 20.054688 31.03125 20.03125 31.050781 20.003906 31.066406 C 19.871094 31.121094 19.703125 31.066406 19.628906 30.933594 L 9.378906 13.546875 C 9.304688 13.414062 9.335938 13.25 9.449219 13.15625 C 9.476562 13.136719 9.503906 13.125 9.539062 13.125 L 15.179688 13.136719 C 15.285156 13.136719 15.386719 13.195312 15.441406 13.285156 Z M 15.441406 13.285156 "/>
<path style=" stroke:none;fill-rule:nonzero;fill:rgb(18.823529%,32.941176%,73.72549%);fill-opacity:1;" d="M 22.230469 35.199219 L 29.363281 22.601562 C 29.417969 22.503906 29.515625 22.445312 29.625 22.445312 L 35.261719 22.339844 C 35.289062 22.339844 35.324219 22.34375 35.351562 22.363281 C 35.464844 22.457031 35.5 22.625 35.425781 22.753906 L 25.480469 40.320312 C 25.40625 40.449219 25.246094 40.503906 25.105469 40.457031 C 25.074219 40.445312 25.050781 40.421875 25.035156 40.390625 L 22.226562 35.5 C 22.175781 35.410156 22.175781 35.296875 22.230469 35.199219 Z M 22.230469 35.199219 "/>
</g>
</svg>
