<svg width="50" height="50" viewBox="0 0 50 50" fill="none" xmlns="http://www.w3.org/2000/svg">
<path d="M13 23.7821L23.8119 30.4167C24.531 30.8607 25.4753 30.8607 26.1944 30.4167L37.0063 23.7821L44.1412 18.942C44.9791 18.373 45.2418 17.3287 44.7603 16.4783L41.9338 11.5132C41.3898 10.5564 40.1016 10.1875 39.0573 10.6815L25.988 16.891C25.369 17.1849 24.6373 17.1849 24.0182 16.891L10.9489 10.6878C9.90465 10.1937 8.61648 10.5627 8.07245 11.5194L5.23973 16.4783C4.75823 17.3287 5.02086 18.3667 5.8588 18.942L12.9938 23.7821H13Z" fill="#CAFF94"/>
<path d="M26.8513 48.3262L39.5329 36.2574C40.4771 35.4695 40.696 34.1813 40.0519 33.1683L38.3573 30.5044C37.7382 29.5289 36.3374 29.235 35.3119 29.8728L26.2072 35.5258C25.4818 35.976 24.5313 35.976 23.806 35.5258L14.7012 29.8728C13.6757 29.235 12.2749 29.5289 11.6559 30.5044L9.96125 33.1683C9.31716 34.1813 9.52977 35.4632 10.4802 36.2574L23.1619 48.3262C24.2061 49.2016 25.807 49.2016 26.8513 48.3262Z" fill="#CAFF94"/>
<path d="M16.6457 4.70974L24.0245 1.22043C24.6373 0.926524 25.3752 0.926524 25.988 1.22043L33.3668 4.70974C34.9051 5.43512 34.9051 7.44241 33.3668 8.16781L25.988 11.6571C25.3752 11.951 24.6373 11.951 24.0245 11.6571L16.6457 8.16781C15.1074 7.44241 15.1074 5.43512 16.6457 4.70974Z" fill="#CAFF94"/>
</svg>
