<svg width="50" height="50" viewBox="0 0 50 50" fill="none" xmlns="http://www.w3.org/2000/svg">
<g clip-path="url(#clip0_923_2193)">
<mask id="mask0_923_2193" style="mask-type:luminance" maskUnits="userSpaceOnUse" x="0" y="0" width="50" height="50">
<path d="M50 0H0V50H50V0Z" fill="white"/>
</mask>
<g mask="url(#mask0_923_2193)">
<path d="M50 0H0V50H50V0Z" fill="white"/>
<path d="M50 0H0V50H50V0Z" fill="black"/>
<path d="M25.0685 43.8043C20.0951 43.8011 15.3259 41.8251 11.8076 38.31C8.28928 34.7948 6.30904 30.0274 6.30139 25.054C6.30904 20.0803 8.28917 15.3128 11.8074 11.7972C15.3258 8.2816 20.0948 6.30509 25.0685 6.30127C30.0422 6.30509 34.8113 8.2816 38.3296 11.7972C41.8478 15.3128 43.828 20.0803 43.8356 25.054C43.828 30.0274 41.8478 34.7948 38.3295 38.31C34.8111 41.8251 30.0421 43.8011 25.0685 43.8043ZM25.0685 7.7449C20.4776 7.74808 16.0752 9.57228 12.8276 12.8173C9.57987 16.0622 7.75202 20.4631 7.74502 25.054C7.74949 29.6455 9.5766 34.0476 12.8249 37.2926C16.0732 40.5378 20.477 42.3607 25.0685 42.3607C29.6602 42.3607 34.0639 40.5378 37.3122 37.2926C40.5604 34.0476 42.3876 29.6455 42.3921 25.054C42.385 20.4631 40.5571 16.0622 37.3095 12.8173C34.0618 9.57228 29.6596 7.74808 25.0685 7.7449Z" fill="white"/>
<path d="M27.4413 40.8376C23.3208 40.8343 19.3699 39.1969 16.4551 36.2844C13.5404 33.372 11.8999 29.4222 11.8935 25.3017C11.8999 21.1813 13.5404 17.2316 16.4551 14.319C19.3699 11.4065 23.3208 9.76905 27.4413 9.76587C31.5618 9.76905 35.5128 11.4065 38.4276 14.319C41.3422 17.2316 42.9828 21.1813 42.9892 25.3017C42.9828 29.4222 41.3422 33.372 38.4276 36.2844C35.5128 39.1969 31.5618 40.8343 27.4413 40.8376ZM27.4413 10.8871C23.6184 10.8903 19.9529 12.4097 17.2488 15.112C14.5447 17.8143 13.0228 21.4788 13.0171 25.3017C13.0235 29.1242 14.5456 32.7881 17.2496 35.4899C19.9537 38.1917 23.6188 39.7107 27.4413 39.7139C31.2639 39.7107 34.9289 38.1917 37.633 35.4899C40.337 32.7881 41.8592 29.1242 41.8655 25.3017C41.8592 21.4792 40.337 17.8153 37.633 15.1135C34.9289 12.4117 31.2639 10.8927 27.4413 10.8895V10.8871Z" fill="white"/>
<path d="M29.8138 37.8735C26.5466 37.871 23.4137 36.5725 21.1025 34.2632C18.7912 31.9537 17.4904 28.8218 17.4854 25.5546C17.4904 22.2873 18.7912 19.1554 21.1025 16.8459C23.4137 14.5365 26.5466 13.2381 29.8138 13.2356C33.0814 13.2375 36.2145 14.5357 38.5259 16.8452C40.8373 19.1548 42.138 22.287 42.1423 25.5546C42.1373 28.8218 40.8364 31.9537 38.5252 34.2632C36.214 36.5725 33.0811 37.871 29.8138 37.8735ZM29.8138 14.0367C26.7589 14.0387 23.8293 15.2525 21.6682 17.4118C19.5071 19.5711 18.291 22.4995 18.2864 25.5546C18.2915 28.6091 19.5081 31.537 21.6692 33.6958C23.8301 35.8546 26.7593 37.068 29.8138 37.0699C32.8685 37.068 35.7975 35.8546 37.9586 33.6958C40.1196 31.537 41.3362 28.6091 41.3412 25.5546C41.3369 22.4995 40.1206 19.5711 37.9595 17.4118C35.7984 15.2525 32.8689 14.0387 29.8138 14.0367Z" fill="white"/>
<path d="M32.1846 34.9068C29.7705 34.9049 27.4557 33.9455 25.7481 32.2391C24.0402 30.5328 23.0792 28.2188 23.0753 25.8047C23.0785 23.3902 24.0394 21.0755 25.7472 19.3687C27.4549 17.6618 29.7701 16.7021 32.1846 16.7002C34.5992 16.7021 36.9144 17.6618 38.622 19.3687C40.3298 21.0755 41.2907 23.3902 41.2938 25.8047C41.29 28.2188 40.3289 30.5328 38.6212 32.2391C36.9135 33.9455 34.5987 34.9049 32.1846 34.9068ZM32.1846 17.1814C29.8976 17.1833 27.705 18.0922 26.0875 19.709C24.47 21.3255 23.5597 23.5177 23.5566 25.8047C23.5604 28.0912 24.4708 30.2828 26.0883 31.8988C27.7057 33.515 29.8982 34.4236 32.1846 34.4255C34.4711 34.4236 36.6634 33.515 38.2809 31.8988C39.8983 30.2828 40.8089 28.0912 40.8126 25.8047C40.8094 23.5177 39.8994 21.3255 38.2819 19.709C36.6644 18.0922 34.4715 17.1833 32.1846 17.1814Z" fill="white"/>
</g>
</g>
<defs>
<clipPath id="clip0_923_2193">
<rect width="50" height="50" rx="25" fill="white"/>
</clipPath>
</defs>
</svg>
