<svg width="50" height="50" viewBox="0 0 50 50" fill="none" xmlns="http://www.w3.org/2000/svg">
<circle cx="25" cy="25" r="25" fill="white"/>
<path d="M20.7403 27.5049C17.5064 24.3597 16.1301 21.5592 16.1301 18.7869C16.1301 17.1475 16.3412 16.1202 16.6114 15.1773C15.024 17.9777 14.4836 20.0676 14.4836 22.0447C14.4836 32.4937 25.9838 33.8447 25.9838 41.2398C25.9838 43.027 24.8439 45.4546 21.0105 50C32.5782 37.1377 35.5166 32.5078 35.5166 29.2992C35.5166 20.3138 24.0671 18.8081 24.0671 8.70392C24.0671 6.396 25.6545 3.6237 28.6097 0C28.6097 0 25.798 3.30002 24.2782 5.05911C18.8658 11.3355 16.7718 19.4835 20.7488 27.512L20.7403 27.5049Z" fill="black"/>
</svg>
