<?xml version="1.0" encoding="UTF-8"?>
<svg xmlns="http://www.w3.org/2000/svg" xmlns:xlink="http://www.w3.org/1999/xlink" width="50px" height="50px" viewBox="0 0 50 50" version="1.1">
<g id="surface1">
<path style=" stroke:none;fill-rule:nonzero;fill:rgb(100%,100%,100%);fill-opacity:1;" d="M 50 25 C 50 38.808594 38.808594 50 25 50 C 11.191406 50 0 38.808594 0 25 C 0 11.191406 11.191406 0 25 0 C 38.808594 0 50 11.191406 50 25 Z M 50 25 "/>
<path style=" stroke:none;fill-rule:nonzero;fill:rgb(0%,0%,0%);fill-opacity:1;" d="M 20.742188 27.503906 C 17.507812 24.359375 16.128906 21.558594 16.128906 18.785156 C 16.128906 17.148438 16.339844 16.121094 16.613281 15.175781 C 15.023438 17.976562 14.484375 20.066406 14.484375 22.042969 C 14.484375 32.492188 25.984375 33.84375 25.984375 41.238281 C 25.984375 43.027344 24.84375 45.453125 21.011719 50 C 32.578125 37.136719 35.515625 32.507812 35.515625 29.300781 C 35.515625 20.3125 24.066406 18.808594 24.066406 8.703125 C 24.066406 6.394531 25.65625 3.625 28.609375 0 C 28.609375 0 25.796875 3.300781 24.277344 5.058594 C 18.867188 11.335938 16.773438 19.484375 20.75 27.511719 Z M 20.742188 27.503906 "/>
</g>
</svg>
