<?xml version="1.0" encoding="UTF-8"?>
<svg xmlns="http://www.w3.org/2000/svg" xmlns:xlink="http://www.w3.org/1999/xlink" width="50px" height="50px" viewBox="0 0 50 50" version="1.1">
<g id="surface1">
<path style=" stroke:none;fill-rule:nonzero;fill:rgb(0%,69.411765%,100%);fill-opacity:1;" d="M 25 0 C 38.808594 0 50 11.191406 50 25 C 50 38.808594 38.808594 50 25 50 C 11.191406 50 0 38.808594 0 25 C 0 11.191406 11.191406 0 25 0 Z M 25 0 "/>
<path style=" stroke:none;fill-rule:nonzero;fill:rgb(100%,100%,100%);fill-opacity:1;" d="M 28.5625 26.816406 L 26.800781 28.574219 L 38.945312 40.71875 L 40.703125 38.960938 Z M 11.03125 9.28125 L 9.273438 11.039062 L 21.414062 23.183594 L 23.171875 21.421875 Z M 38.941406 9.285156 L 26.808594 21.4375 L 28.566406 23.195312 L 40.703125 11.042969 Z M 21.417969 26.816406 L 9.285156 38.964844 L 11.042969 40.722656 L 23.175781 28.574219 Z M 21.417969 26.816406 "/>
</g>
</svg>
