<?xml version="1.0" standalone="no"?>
<!DOCTYPE svg PUBLIC "-//W3C//DTD SVG 20010904//EN"
 "http://www.w3.org/TR/2001/REC-SVG-20010904/DTD/svg10.dtd">
<svg version="1.0" xmlns="http://www.w3.org/2000/svg"
 width="280.000000pt" height="280.000000pt" viewBox="0 0 280.000000 280.000000"
 preserveAspectRatio="xMidYMid meet">

<g transform="translate(0.000000,280.000000) scale(0.100000,-0.100000)"
fill="#000000" stroke="none">
<path d="M1275 2794 c-263 -29 -514 -124 -707 -269 -167 -126 -331 -321 -421
-500 -47 -94 -104 -269 -124 -380 -22 -121 -22 -369 0 -490 50 -275 173 -517
366 -717 169 -177 346 -290 566 -363 161 -53 264 -69 445 -69 181 0 284 16
445 69 220 73 397 186 566 363 193 200 316 442 366 717 22 121 22 369 0 490
-23 126 -80 293 -139 406 -128 246 -363 477 -613 602 -94 47 -269 104 -375
123 -87 15 -304 25 -375 18z m-318 -816 c4 -7 66 -67 137 -133 70 -65 149
-140 175 -165 101 -99 200 -139 305 -125 106 14 120 25 466 354 l85 81 125 0
125 0 -45 -41 c-25 -23 -108 -101 -185 -173 -318 -299 -332 -311 -400 -342
-73 -34 -156 -47 -250 -41 -153 10 -210 42 -407 228 -73 69 -190 178 -260 243
-71 65 -128 120 -128 122 0 2 56 4 125 4 88 0 126 -4 132 -12z m-390 -191 c12
-7 36 -26 55 -42 44 -40 199 -171 251 -213 23 -19 58 -48 77 -66 19 -17 63
-55 97 -83 l62 -52 -62 -53 c-34 -29 -75 -65 -92 -80 -16 -14 -51 -44 -77 -65
-25 -21 -86 -72 -135 -113 -48 -41 -96 -82 -107 -90 -10 -8 -30 -25 -43 -37
-37 -33 -61 -38 -84 -17 -18 16 -19 35 -19 452 0 391 2 437 17 454 19 21 30
22 60 5z m1125 -539 c61 -20 92 -37 132 -68 23 -18 270 -246 381 -351 44 -42
100 -95 125 -117 l45 -42 -125 0 -125 0 -81 78 c-332 319 -366 344 -483 358
-102 11 -212 -38 -306 -139 -17 -18 -89 -86 -160 -152 -72 -66 -134 -126 -138
-132 -6 -9 -44 -13 -135 -13 l-127 0 60 58 c33 32 123 116 200 187 77 71 167
155 200 187 128 125 224 167 377 168 75 0 113 -5 160 -22z"/>
</g>
</svg>
