<svg width="50" height="50" viewBox="0 0 50 50" fill="none" xmlns="http://www.w3.org/2000/svg">
<path d="M27.8045 26.9174C31.0351 26.9174 34.1687 28.0596 36.5552 30.2983L49.9285 42.8251H43.516L33.3758 33.3299C31.8842 31.9378 29.8954 31.1932 27.8071 31.1932C25.7189 31.1932 23.7301 31.9378 22.2385 33.3299L12.0983 42.8251H5.68577L19.0591 30.2983C21.4456 28.0622 24.5766 26.9174 27.8097 26.9174H27.8045ZM27.8045 23.9367C24.5741 23.9367 21.4405 22.7945 19.054 20.5558L5.68323 8.02649H12.0958L22.236 17.5216C23.7276 18.9138 25.7163 19.6583 27.8045 19.6583C29.8929 19.6583 31.8816 18.9138 33.3732 17.5216L43.5134 8.02649H49.926L36.5527 20.5532C34.1662 22.7894 31.0351 23.9342 27.802 23.9342L27.8045 23.9367Z" fill="white"/>
<path d="M16.619 25.4284L2.64906 37.259C1.60623 38.2024 0.412964 37.7563 0.412964 36.3641V14.4901C0.412964 13.0979 1.60623 12.6517 2.64906 13.5951L16.619 25.4258V25.4284Z" fill="white"/>
</svg>
