<?xml version="1.0" standalone="no"?>
<!DOCTYPE svg PUBLIC "-//W3C//DTD SVG 20010904//EN"
 "http://www.w3.org/TR/2001/REC-SVG-20010904/DTD/svg10.dtd">
<svg version="1.0" xmlns="http://www.w3.org/2000/svg"
 width="150.000000pt" height="150.000000pt" viewBox="0 0 150.000000 150.000000"
 preserveAspectRatio="xMidYMid meet">

<g transform="translate(0.000000,150.000000) scale(0.100000,-0.100000)"
fill="#000000" stroke="none">
<path d="M600 1484 c-98 -21 -175 -52 -254 -104 -404 -266 -464 -820 -125
-1159 295 -294 763 -294 1058 0 335 335 281 884 -114 1152 -159 109 -378 152
-565 111z m68 -116 c11 -18 28 -57 38 -85 19 -53 34 -69 34 -35 0 27 68 162
85 168 19 8 105 -12 170 -39 193 -80 349 -260 400 -462 29 -114 10 -362 -31
-396 -15 -13 -174 -8 -209 6 -14 6 -8 -5 18 -34 40 -45 97 -129 97 -143 0 -15
-93 -109 -138 -140 -121 -83 -241 -121 -387 -122 -123 -1 -184 13 -300 69 -86
42 -193 124 -215 166 -13 24 11 74 69 144 22 27 39 50 38 52 -2 1 -19 -2 -38
-7 -69 -18 -153 -22 -171 -8 -10 7 -27 49 -39 98 -71 282 70 605 324 741 83
44 197 80 219 68 9 -5 25 -23 36 -41z"/>
<path d="M841 1288 c-123 -287 52 -623 357 -687 92 -19 109 -16 117 22 4 17 9
39 11 48 4 13 -8 17 -63 22 -276 26 -445 331 -319 574 15 30 15 33 -1 41 -10
5 -33 13 -51 17 -31 6 -33 5 -51 -37z"/>
<path d="M535 1308 c-16 -6 -31 -12 -33 -13 -1 -1 10 -29 25 -61 25 -52 28
-71 28 -159 0 -93 -2 -105 -32 -165 -60 -123 -185 -214 -307 -227 l-58 -6 6
-41 c10 -58 16 -62 90 -49 189 32 352 189 396 382 18 78 8 212 -21 286 -26 65
-39 73 -94 53z"/>
<path d="M1014 1224 c-56 -134 -26 -275 79 -370 49 -44 108 -69 190 -80 45 -6
47 -6 47 18 0 14 -3 39 -6 56 -6 28 -12 32 -58 42 -61 13 -104 41 -137 88 -20
29 -24 48 -24 106 0 39 4 83 8 98 8 23 4 29 -29 52 -21 14 -42 26 -47 26 -4 0
-15 -16 -23 -36z"/>
<path d="M377 1218 l-37 -33 16 -48 c37 -107 -31 -229 -143 -257 -47 -12 -51
-16 -57 -49 -12 -74 -12 -74 46 -67 63 9 159 58 195 100 52 62 78 134 77 216
0 74 -30 170 -52 170 -5 0 -25 -15 -45 -32z"/>
<path d="M1180 1095 c0 -48 24 -91 60 -110 42 -22 51 -20 40 10 -15 40 -79
135 -90 135 -5 0 -10 -16 -10 -35z"/>
<path d="M254 1085 c-31 -43 -66 -116 -60 -122 8 -9 54 24 72 51 9 15 14 40
12 63 l-3 38 -21 -30z"/>
<path d="M721 908 c-19 -62 -53 -126 -104 -194 -25 -32 -44 -60 -43 -61 1 -1
22 3 46 9 56 13 214 13 258 -1 l32 -10 -44 52 c-49 56 -103 149 -121 210 l-11
39 -13 -44z"/>
<path d="M626 579 c-100 -24 -224 -107 -281 -189 l-29 -42 38 -35 38 -35 19
31 c32 52 98 109 167 143 62 31 74 33 167 33 97 0 104 -2 177 -37 70 -35 119
-77 160 -138 l16 -25 38 37 37 36 -22 30 c-58 82 -173 160 -276 187 -64 16
-187 18 -249 4z"/>
<path d="M675 401 c-59 -15 -111 -46 -158 -94 -26 -27 -47 -57 -45 -65 2 -9
22 -24 46 -32 l43 -16 44 43 c89 84 205 82 293 -8 l31 -32 46 17 c25 10 45 24
45 32 0 26 -81 103 -136 130 -57 28 -154 40 -209 25z"/>
<path d="M679 190 l-24 -19 88 -1 c48 0 87 3 87 6 0 35 -114 46 -151 14z"/>
</g>
</svg>
