<svg width="50" height="50" viewBox="0 0 50 50" fill="none" xmlns="http://www.w3.org/2000/svg">
<g clip-path="url(#clip0_30_84)">
<path d="M49.8748 24.7653C49.8748 24.7653 49.8748 24.7653 49.8748 24.7641C49.8748 24.6296 49.8761 24.4951 49.8748 24.3593C49.8748 24.3593 49.8748 24.3593 49.8748 24.3581C49.8748 24.3544 49.8748 24.3519 49.8748 24.3484V24.346C49.8748 24.2384 49.8724 24.1343 49.8711 24.0317C49.8675 23.8458 49.8625 23.6674 49.8541 23.4974C49.8541 23.4974 49.8541 23.4961 49.8541 23.4949C49.8541 23.4924 49.8541 23.4901 49.8541 23.4877C49.8541 23.4877 49.8541 23.4877 49.8541 23.4864C49.8479 23.3458 49.8417 23.2053 49.8333 23.0671C49.8247 22.9276 49.815 22.7882 49.8051 22.6428C49.7831 22.3493 49.755 22.0609 49.7245 21.787C49.7085 21.6451 49.6914 21.5021 49.6743 21.3725C49.6743 21.3725 49.6743 21.3701 49.6743 21.3688C49.6743 21.3664 49.6743 21.3651 49.6743 21.3627C49.662 21.2697 49.6498 21.1794 49.6377 21.0889C49.6241 20.9898 49.6095 20.8921 49.5949 20.7942C49.5801 20.6988 49.5655 20.6035 49.5497 20.5093C49.5264 20.3674 49.502 20.2269 49.4775 20.09C49.4639 20.0153 49.4506 19.9421 49.4372 19.8699C49.431 19.837 49.4248 19.8051 49.4189 19.7732C49.4115 19.7354 49.4041 19.6963 49.3969 19.6585C49.3895 19.6217 49.3821 19.5863 49.3748 19.5509C49.3675 19.5178 49.3613 19.4849 49.3539 19.453C49.3467 19.4176 49.3393 19.3833 49.3308 19.3479C49.3247 19.3197 49.3185 19.2916 49.3123 19.2648C49.3123 19.2599 49.3099 19.2549 49.3088 19.25C49.3088 19.2475 49.3088 19.2438 49.3076 19.2416C49.3064 19.2342 49.3051 19.2268 49.3027 19.2208C49.2745 19.0997 49.2476 18.9775 49.2196 18.8551C49.2146 18.8306 49.2072 18.8002 49.1976 18.7658C49.1976 18.7609 49.1951 18.7562 49.1939 18.7525C49.1682 18.6461 49.1412 18.5396 49.1131 18.4273C49.1108 18.4199 49.1095 18.4125 49.1083 18.4053C49.1083 18.4041 49.1083 18.4016 49.1071 18.4004C49.1071 18.4004 49.1071 18.4004 49.1071 18.3991C49.1071 18.3967 49.1058 18.3942 49.1046 18.3917C49.0386 18.1276 48.9639 17.8539 48.8821 17.5775C48.8808 17.5726 48.8784 17.5665 48.8771 17.5616C48.8771 17.5592 48.8759 17.5567 48.8747 17.5555C48.8747 17.5543 48.8747 17.5518 48.8734 17.5506L48.8674 17.5286L48.8588 17.5017C48.8588 17.5017 48.8576 17.4956 48.8564 17.4931V17.4883C48.8282 17.3966 48.8002 17.3061 48.7733 17.2156C48.7733 17.2156 48.7733 17.2144 48.7733 17.2132C48.7708 17.2046 48.7683 17.196 48.7646 17.1875C48.7365 17.0958 48.7085 17.0041 48.6778 16.9136C48.6717 16.8941 48.6657 16.8745 48.6583 16.8549C48.6583 16.8537 48.6583 16.8513 48.6571 16.8501C48.6486 16.8219 48.6388 16.795 48.6289 16.7669L48.6241 16.751C48.6241 16.751 48.6241 16.7498 48.6241 16.7486C48.6217 16.74 48.618 16.7302 48.6155 16.7217C48.6009 16.6764 48.5849 16.6312 48.5703 16.586C48.5703 16.586 48.5703 16.5835 48.5703 16.5823C48.5569 16.542 48.5433 16.5016 48.5287 16.46L48.5263 16.4527L48.5176 16.4282C48.5042 16.3891 48.4909 16.3488 48.4761 16.3084C48.4748 16.3035 48.4736 16.2999 48.4713 16.295C48.4664 16.2815 48.4615 16.2693 48.4578 16.2559C48.4493 16.2302 48.4395 16.2045 48.4308 16.1788L48.4261 16.1654L48.3979 16.0896L48.3319 15.9086C48.3319 15.9086 48.3319 15.9062 48.3307 15.905C48.327 15.8952 48.3233 15.8854 48.3196 15.8744L48.2953 15.8072C48.2891 15.79 48.2829 15.7729 48.2755 15.757L48.2696 15.7424C48.2696 15.7424 48.2634 15.7277 48.2634 15.7253C48.2414 15.6666 48.2182 15.6091 48.1949 15.548C48.1865 15.526 48.1778 15.5039 48.1692 15.4832C48.168 15.4795 48.1667 15.4758 48.1655 15.4722C48.146 15.422 48.1264 15.3731 48.1069 15.323C48.1069 15.3218 48.1057 15.3193 48.1044 15.3181C48.1044 15.3157 48.102 15.3132 48.102 15.3108C48.0727 15.2362 48.0433 15.1628 48.0115 15.0895C48.0104 15.0858 48.0079 15.0822 48.0067 15.0785C48.0055 15.0748 48.0042 15.0711 48.0018 15.0675C48.0018 15.0663 48.0005 15.065 47.9993 15.0626C47.9993 15.0614 47.9981 15.0589 47.9969 15.0577C47.9442 14.9293 47.8893 14.801 47.8344 14.6738C47.8344 14.6713 47.8319 14.6689 47.8307 14.6665L47.827 14.6591C47.8013 14.6004 47.7743 14.5405 47.7474 14.4806C47.7145 14.4048 47.6814 14.329 47.646 14.2532C47.6363 14.2312 47.6264 14.2092 47.6153 14.1884C47.5921 14.1346 47.5666 14.082 47.5421 14.0295C47.5226 13.9855 47.5005 13.9402 47.4798 13.8962C47.4675 13.8693 47.4553 13.8436 47.4417 13.818C47.4382 13.8106 47.4345 13.8033 47.4308 13.796L47.3611 13.6517C47.3611 13.6517 47.3574 13.6444 47.355 13.6407L47.349 13.6272C47.3292 13.5881 47.3097 13.549 47.2902 13.5099C47.2719 13.4732 47.2548 13.4377 47.2365 13.4023C47.2009 13.3301 47.1643 13.258 47.1264 13.1859C47.1153 13.1651 47.1044 13.1431 47.0933 13.1223C47.0861 13.1088 47.08 13.0954 47.0726 13.082C47.0676 13.0734 47.0629 13.0636 47.0579 13.0551C47.0579 13.0538 47.0567 13.0526 47.0555 13.0502C47.0555 13.0489 47.0542 13.0477 47.053 13.0453C47.0518 13.0428 47.0493 13.0392 47.0481 13.0367L46.9858 12.9193L46.9833 12.9145C46.9833 12.9145 46.9796 12.9083 46.9784 12.9047C46.9687 12.8876 46.9601 12.8692 46.9504 12.8521C46.921 12.7959 46.8891 12.7384 46.8587 12.6822C46.855 12.676 46.8513 12.6687 46.8476 12.6614C46.8476 12.6614 46.8476 12.6614 46.8476 12.6601C46.8428 12.6504 46.8391 12.6442 46.8342 12.6357C46.8292 12.6271 46.8243 12.6161 46.8196 12.6088C46.7939 12.5611 46.7669 12.5134 46.74 12.467C46.7328 12.4548 46.7266 12.4425 46.7192 12.4303C46.7083 12.4107 46.6997 12.3936 46.691 12.3789C46.6752 12.3496 46.6581 12.319 46.641 12.2897L46.625 12.2628C46.619 12.2518 46.6141 12.2445 46.6079 12.2322L46.6018 12.2212C46.5946 12.2078 46.5872 12.1943 46.5787 12.1809C46.5763 12.1772 46.5738 12.1735 46.5713 12.1687C46.5701 12.1662 46.5689 12.1638 46.5676 12.1625C46.5102 12.0635 46.4527 11.9645 46.394 11.8654C46.3354 11.7676 46.2754 11.6686 46.2155 11.5708C46.2069 11.5549 46.196 11.539 46.1873 11.5231C46.1801 11.5109 46.174 11.4999 46.1666 11.4877C46.1386 11.4424 46.1104 11.3972 46.081 11.352C46.0738 11.3397 46.0639 11.3238 46.0516 11.3055C46.0444 11.2933 46.0358 11.281 46.0285 11.2688C46.0224 11.2603 46.0175 11.2517 46.0113 11.2419C45.9833 11.1955 45.9539 11.149 45.9233 11.105L45.878 11.0353C45.8402 10.9754 45.8011 10.9155 45.762 10.858C45.7608 10.8556 45.7583 10.8531 45.7571 10.8507C45.7472 10.8348 45.7363 10.8177 45.724 10.8006C45.702 10.7675 45.6799 10.7345 45.6567 10.7003C45.6567 10.7003 45.6555 10.6979 45.6544 10.6966C45.6483 10.6881 45.6421 10.6795 45.6372 10.6697C45.6324 10.6624 45.6275 10.6551 45.6226 10.6489C45.6127 10.6343 45.603 10.6208 45.5932 10.6061C45.5859 10.5964 45.5798 10.5854 45.5724 10.5756C45.5528 10.5463 45.5321 10.5157 45.5113 10.4863C45.5101 10.4839 45.5076 10.4814 45.5064 10.479C45.5039 10.4741 45.5004 10.4704 45.4979 10.4656C45.4673 10.4215 45.4379 10.3775 45.4062 10.3335C45.4025 10.3286 45.3988 10.3237 45.3951 10.3188C45.3829 10.3017 45.3719 10.2858 45.3597 10.2687C45.356 10.2638 45.3535 10.2589 45.3498 10.254L45.2717 10.1428C45.2655 10.1342 45.2606 10.1269 45.2546 10.1183L45.1542 9.9814L45.1433 9.96673C45.1433 9.96673 45.1372 9.95694 45.1335 9.95328C45.1335 9.95328 45.1335 9.95328 45.1335 9.95206C45.1053 9.91171 45.0761 9.87259 45.0467 9.83224C45.0467 9.83224 45.0467 9.83103 45.0454 9.82979C45.0197 9.79434 44.9942 9.76011 44.9685 9.72587L44.9317 9.67698C44.8951 9.62562 44.856 9.5755 44.8182 9.52537C44.8145 9.52048 44.8095 9.51437 44.8058 9.50948C44.8058 9.50948 44.8046 9.50824 44.8034 9.50703C44.8034 9.50703 44.8034 9.50703 44.8021 9.5058C44.7081 9.38354 44.6127 9.26006 44.5148 9.13412C44.4574 9.06199 44.4011 8.99108 44.3425 8.91895L44.3303 8.90305C44.3303 8.90305 44.3266 8.89939 44.3254 8.89694C44.3009 8.86638 44.2764 8.83581 44.252 8.8077C44.23 8.7808 44.2079 8.7539 44.1859 8.72699C44.18 8.71967 44.1738 8.71233 44.1689 8.70622C44.1444 8.67687 44.1211 8.64752 44.0967 8.61819C44.0858 8.60351 44.0734 8.59006 44.0613 8.57539C44.0551 8.56805 44.049 8.56073 44.043 8.55338C44.0294 8.53749 44.016 8.52037 44.0027 8.50448C44.0027 8.50448 44.0027 8.50448 44.0014 8.50326C44.0002 8.50081 43.9977 8.4996 43.9965 8.49715C43.9965 8.49592 43.994 8.4947 43.9928 8.49347C43.9671 8.46291 43.9426 8.43358 43.9169 8.40423C43.9085 8.39444 43.8998 8.38467 43.8926 8.37488C43.8914 8.37367 43.8902 8.37243 43.8889 8.36999C43.8828 8.36266 43.8766 8.35532 43.8694 8.34798C43.8486 8.32476 43.8289 8.30154 43.8081 8.27708C43.8058 8.27463 43.8046 8.2734 43.8021 8.27096C43.7873 8.25263 43.7727 8.23673 43.7618 8.22451C43.6884 8.13891 43.6125 8.05333 43.5368 7.9702C43.5148 7.94453 43.4928 7.91884 43.4708 7.89562C43.4659 7.89073 43.4622 7.88583 43.4572 7.88096C43.4145 7.83326 43.3717 7.78559 43.3277 7.73912C43.3007 7.70856 43.2727 7.67921 43.2458 7.64988C43.1993 7.59974 43.1528 7.54962 43.1113 7.50684C43.1088 7.50439 43.1064 7.50194 43.1039 7.49828C43.1016 7.49583 43.0991 7.49339 43.0967 7.49094C43.0747 7.4677 43.0527 7.44324 43.0294 7.42002C43.0111 7.40046 42.9926 7.3809 42.9731 7.36134C42.9572 7.34421 42.9414 7.32833 42.9256 7.31243C42.9182 7.30388 42.9095 7.29532 42.9023 7.28798L42.8925 7.27821L42.78 7.16083C42.78 7.16083 42.769 7.14983 42.7641 7.14372C42.7579 7.13759 42.753 7.13272 42.747 7.12659L42.6798 7.05935C42.6064 6.98478 42.5329 6.9102 42.4572 6.83684C42.4523 6.83194 42.4474 6.82828 42.4425 6.82338C42.4425 6.82338 42.4425 6.82338 42.4414 6.82217C42.4402 6.82094 42.4389 6.81972 42.4377 6.81849C42.4254 6.80627 42.412 6.79404 42.3997 6.78182C42.3949 6.77692 42.3912 6.77326 42.3863 6.76837C42.3863 6.76837 42.3851 6.76715 42.3838 6.76592C42.2641 6.64856 42.143 6.5324 42.0183 6.41625L41.8178 6.23043C41.7407 6.15951 41.665 6.09226 41.5903 6.02502C41.4363 5.88809 41.2884 5.75728 41.1405 5.63256C41.1307 5.624 41.1197 5.61544 41.1099 5.60689C41.056 5.56164 41.0023 5.51641 40.9484 5.47118C40.902 5.43205 40.8557 5.39537 40.8092 5.35626C40.7676 5.32201 40.7259 5.28779 40.6844 5.25478L40.6576 5.23277C40.6025 5.18752 40.5463 5.14106 40.4937 5.10073C40.1917 4.86231 39.9116 4.64958 39.6391 4.45152C39.6354 4.44907 39.6317 4.44662 39.6292 4.44418L39.5595 4.39405C39.5071 4.35615 39.4532 4.31824 39.4067 4.28523C39.1965 4.13608 38.9789 3.98692 38.7405 3.83043C38.65 3.7693 38.5583 3.70939 38.4653 3.65071C38.4581 3.64581 38.452 3.64215 38.4446 3.63726C38.3627 3.58469 38.2808 3.53212 38.1976 3.48198C38.128 3.4392 38.0595 3.3964 37.9983 3.35849C37.8051 3.2399 37.6083 3.12376 37.4127 3.01127C37.3185 2.95749 37.2233 2.90368 37.1266 2.84867C37.0336 2.79731 36.9395 2.74474 36.8368 2.68972C36.8271 2.68361 36.816 2.67872 36.8064 2.67383C36.7745 2.65671 36.7426 2.6396 36.7109 2.62249C36.6914 2.61148 36.6719 2.6017 36.6523 2.59069C36.6167 2.57236 36.5826 2.55402 36.547 2.53567C36.5275 2.52467 36.5067 2.5149 36.4872 2.5039C36.453 2.48677 36.4211 2.46965 36.3893 2.45375C36.371 2.44398 36.3527 2.4342 36.3344 2.42564C36.2866 2.40118 36.2414 2.37796 36.1986 2.35717C36.1937 2.35472 36.1877 2.35229 36.1815 2.34985C33.9074 1.21036 31.4794 0.426669 28.9657 0.019538C28.3592 -0.0782711 27.7528 0.196817 27.4264 0.717651C26.0521 2.91347 25.1083 5.28534 24.5912 7.72446C24.0923 5.61055 23.2696 3.56145 22.1287 1.64073C21.9784 1.38764 21.8183 1.13089 21.6386 0.857028C21.2961 0.332528 20.6678 0.0708879 20.0541 0.195595C17.5794 0.699312 15.2015 1.57593 12.9861 2.80099C12.9567 2.81689 12.9262 2.834 12.8968 2.85233L12.8858 2.85846C12.7257 2.9477 12.5802 3.03083 12.442 3.11154C12.4273 3.12009 12.4139 3.12742 12.4004 3.13599C12.3821 3.14699 12.3638 3.158 12.3454 3.16777C12.3344 3.17388 12.3234 3.18001 12.3136 3.18733C12.1938 3.25824 12.0764 3.33038 11.9652 3.39884C11.9102 3.43185 11.8576 3.46486 11.8063 3.49787C11.6241 3.61157 11.4566 3.71918 11.2976 3.82553C11.272 3.84265 11.2463 3.85978 11.2206 3.87566C11.1937 3.89279 11.1668 3.91111 11.1399 3.92824C11.1289 3.93557 11.1191 3.94168 11.1081 3.94902C11.0201 4.0077 10.9333 4.0664 10.8477 4.12631C10.8269 4.13974 10.8062 4.15442 10.7866 4.16909C10.6778 4.2449 10.5702 4.32069 10.4626 4.39772C10.41 4.43441 10.3599 4.47229 10.3086 4.5102C10.2768 4.53344 10.2438 4.55666 10.212 4.58111C10.1948 4.59333 10.179 4.60557 10.1618 4.61779C10.1117 4.65448 10.0628 4.69115 10.0188 4.72416C9.80361 4.88555 9.60555 5.0396 9.41604 5.19365C9.33291 5.26089 9.24854 5.32812 9.16541 5.39659C9.13729 5.4186 9.11039 5.44184 9.08472 5.46384C9.05537 5.4883 9.02481 5.51397 8.99546 5.53964C8.91233 5.6081 8.83041 5.6778 8.74849 5.7487C8.65435 5.82817 8.56022 5.91132 8.46485 5.99567L8.37805 6.07393C8.28391 6.15828 8.18976 6.24386 8.10662 6.32212C8.00148 6.4187 7.89879 6.51652 7.79608 6.61432C7.69828 6.70724 7.60169 6.80138 7.50632 6.89675C7.50632 6.89675 7.50632 6.89675 7.50509 6.89796C7.48553 6.91631 7.46842 6.93342 7.45375 6.94809C7.37183 7.03 7.28992 7.11314 7.20923 7.19506C7.20678 7.1975 7.19699 7.20851 7.19333 7.21096C7.11631 7.29043 7.03928 7.37111 6.96347 7.45182C6.95981 7.45548 6.95615 7.45793 6.9537 7.46159C6.93291 7.4836 6.9109 7.5056 6.89013 7.53006C6.86567 7.55573 6.84122 7.58141 6.818 7.60708C6.77154 7.65599 6.72629 7.7049 6.68106 7.75502C6.67738 7.75868 6.67495 7.76236 6.67127 7.76479C6.6456 7.79169 6.61993 7.81981 6.59548 7.84794C6.58324 7.8614 6.56979 7.87483 6.55757 7.88951C6.54902 7.89928 6.53923 7.91029 6.52823 7.92129C6.51478 7.93597 6.50256 7.95064 6.48911 7.9653C6.48666 7.96898 6.483 7.97265 6.47932 7.97631C6.47932 7.97631 6.47689 7.97875 6.47689 7.97999C6.4353 8.02645 6.39374 8.07289 6.3534 8.11935C6.33139 8.14259 6.3106 8.16581 6.29104 8.19027C6.24948 8.23673 6.20912 8.28319 6.17 8.32965C6.1321 8.37243 6.09543 8.41523 6.05752 8.46169C6.03551 8.48736 6.01229 8.51426 5.9915 8.53993C5.98539 8.54604 5.9805 8.55217 5.9756 8.55949C5.96949 8.56684 5.9646 8.57294 5.95849 8.58029C5.91448 8.63286 5.87046 8.68543 5.82768 8.738C5.81789 8.749 5.8081 8.76124 5.79955 8.77224C5.78977 8.78324 5.77999 8.79546 5.77143 8.80647C5.72986 8.85659 5.6883 8.90673 5.64918 8.95685C5.62717 8.98375 5.60516 9.01064 5.58316 9.03877L5.56236 9.06444C5.54402 9.08766 5.52446 9.1109 5.50613 9.13536C5.48779 9.15736 5.46944 9.18059 5.45111 9.20504C5.44622 9.21115 5.44132 9.21726 5.43643 9.22338C5.39852 9.27228 5.36064 9.32118 5.32273 9.36888C5.29828 9.39944 5.27627 9.42877 5.25182 9.46057L5.24692 9.46668C5.16013 9.57916 5.07455 9.69286 4.99018 9.80779C4.98407 9.81634 4.97796 9.8249 4.97062 9.83469C4.95106 9.86159 4.9315 9.8897 4.91194 9.91661C4.88504 9.95451 4.85692 9.99118 4.83002 10.0291C4.79456 10.0768 4.75911 10.1269 4.72365 10.177L4.67842 10.2406C4.63073 10.3091 4.58305 10.3775 4.53537 10.446C4.52192 10.4643 4.50847 10.4839 4.49502 10.5035C4.45222 10.5658 4.41066 10.6282 4.36787 10.6917C4.34708 10.7235 4.32507 10.7553 4.3043 10.7871L4.27374 10.8323C4.26761 10.8421 4.2615 10.8507 4.25539 10.8605L4.22604 10.9069C4.18203 10.9729 4.13801 11.0426 4.094 11.1111C4.00108 11.2554 3.90939 11.4008 3.8177 11.55C3.748 11.6637 3.67831 11.7774 3.61108 11.8911C3.60374 11.9033 3.59395 11.918 3.58418 11.9351C3.57683 11.9474 3.57073 11.9596 3.56217 11.973C3.54261 12.0073 3.52305 12.0403 3.50349 12.0745L3.47904 12.1173C3.45948 12.1515 3.4399 12.1858 3.42034 12.22L3.41057 12.2371C3.40444 12.2469 3.39956 12.2567 3.39345 12.2677C3.33476 12.3704 3.27608 12.4755 3.21861 12.5795C3.21495 12.5856 3.21127 12.5917 3.20882 12.5978L3.16849 12.6748C3.13548 12.7347 3.10368 12.7946 3.07191 12.8545C3.04867 12.8961 3.02544 12.9401 3.00344 12.9829C3.00344 12.9829 3.0022 12.9854 3.00099 12.9866C2.9912 13.0061 2.9802 13.0257 2.96919 13.0477C2.94229 13.0966 2.91662 13.148 2.89095 13.1993C2.88728 13.2067 2.88361 13.214 2.87995 13.2213C2.87995 13.2238 2.8775 13.2262 2.87627 13.2274L2.85794 13.2629C2.83838 13.3008 2.81882 13.3387 2.79925 13.3778L2.79314 13.3901C2.79314 13.3901 2.78703 13.4011 2.78458 13.4072C2.76136 13.4548 2.73691 13.5025 2.71367 13.5502C2.69534 13.5869 2.67699 13.6236 2.65988 13.6615C2.6452 13.6908 2.63176 13.7189 2.61831 13.7483C2.61831 13.7507 2.61587 13.7519 2.61587 13.7544C2.61587 13.7568 2.61342 13.7593 2.61219 13.7617C2.60853 13.7678 2.60608 13.7739 2.60242 13.7813C2.59997 13.785 2.59875 13.7898 2.59631 13.7947C2.57918 13.8314 2.56085 13.8669 2.54374 13.9048C2.50828 13.9794 2.47282 14.0527 2.43981 14.1285C2.42881 14.153 2.4178 14.1774 2.4068 14.2019C2.38724 14.2434 2.36889 14.285 2.34933 14.3278V14.3315C2.34933 14.3315 2.34323 14.3412 2.34078 14.3474C2.30777 14.4195 2.27476 14.4929 2.24296 14.5662C2.2393 14.5748 2.23564 14.5821 2.23196 14.5894C2.23196 14.5907 2.23074 14.5931 2.22951 14.5943C2.2283 14.598 2.22706 14.6004 2.22585 14.6041C2.1855 14.697 2.14516 14.7899 2.10481 14.8853C2.10481 14.8853 2.10481 14.8853 2.10481 14.8865C2.10481 14.8878 2.10481 14.889 2.1036 14.8902C2.10236 14.8939 2.09992 14.8975 2.0987 14.9C2.0987 14.9024 2.09625 14.9049 2.09625 14.9073C2.06935 14.9721 2.04245 15.0357 2.01678 15.098C1.93486 15.2973 1.86029 15.4832 1.79305 15.6604C1.79305 15.6617 1.79305 15.6629 1.79182 15.6641C1.78816 15.6751 1.78326 15.6886 1.77715 15.7032C1.77715 15.7057 1.77592 15.7069 1.7747 15.7094C1.73313 15.8182 1.69279 15.927 1.65244 16.0382C1.63533 16.0871 1.61821 16.1348 1.60109 16.1825L1.59131 16.2106C1.58764 16.2204 1.58398 16.2314 1.58031 16.2412C1.57908 16.2449 1.57664 16.2534 1.57542 16.2546C1.57542 16.2559 1.57542 16.2583 1.5742 16.2595L1.53874 16.3573C1.5314 16.3781 1.52285 16.3989 1.51673 16.4197L1.40181 16.7608C1.37369 16.8439 1.34801 16.9283 1.32111 17.0127C1.27221 17.1655 1.22453 17.3171 1.18051 17.4699L1.17562 17.4846C1.17562 17.4846 1.17562 17.487 1.1744 17.4883C1.17318 17.4931 1.17073 17.498 1.16951 17.5029C1.16951 17.5029 1.16951 17.5029 1.16951 17.5041C1.16951 17.5066 1.16829 17.509 1.16706 17.5115L1.1475 17.58C1.1475 17.58 1.1475 17.58 1.1475 17.5812C1.1475 17.5836 1.14628 17.5861 1.14506 17.5885C1.14261 17.5958 1.14017 17.6032 1.13772 17.6106C1.13528 17.6178 1.13283 17.6239 1.13161 17.6313C1.13161 17.6338 1.13039 17.6363 1.12916 17.6398C1.12794 17.6447 1.12672 17.6497 1.1255 17.6533C1.12305 17.6606 1.12183 17.668 1.11938 17.6741C1.11938 17.6766 1.11816 17.6791 1.11694 17.6813C1.09738 17.7486 1.07781 17.8158 1.05947 17.8843L1.03747 17.9651C1.03747 17.9651 1.03502 17.9724 1.03502 17.9761L1.01057 18.0641L1.0069 18.0787C1.00079 18.1007 0.994676 18.1227 0.989786 18.1435L0.965333 18.2377C0.949439 18.2952 0.937213 18.3551 0.921319 18.4137C0.88953 18.5396 0.857743 18.6669 0.825955 18.7952C0.803948 18.8857 0.783164 18.9762 0.762379 19.0678C0.72081 19.2525 0.679242 19.4408 0.638895 19.6389C0.638895 19.6389 0.638895 19.64 0.638895 19.6412C0.638895 19.6412 0.638895 19.6424 0.638895 19.6437C0.611997 19.7782 0.586323 19.9114 0.56187 20.0435C0.56187 20.0472 0.56187 20.0497 0.560648 20.0533C0.409043 20.8688 0.297786 21.6977 0.230541 22.5132C0.230541 22.5132 0.230541 22.5132 0.230541 22.5144C0.230541 22.5144 0.230541 22.5169 0.230541 22.5194C0.224428 22.5963 0.218316 22.671 0.212203 22.7454C0.196308 22.9583 0.184081 23.1563 0.175524 23.3445C0.168188 23.4815 0.163298 23.6173 0.157185 23.7664C0.153517 23.9009 0.149849 24.0366 0.147404 24.1771C0.144958 24.3116 0.144958 24.4461 0.144958 24.5856C0.144958 24.5868 0.144958 24.5893 0.144958 24.5905C0.144958 24.5905 0.144958 24.5928 0.144958 24.594C0.144958 24.6014 0.144958 24.61 0.144958 24.6173C0.144958 25.0208 0.154739 25.434 0.175524 25.8449C0.303898 28.372 0.817397 30.8576 1.70257 33.2319C1.92141 33.8174 2.47404 34.2111 3.09879 34.2259C3.26384 34.2296 3.42889 34.232 3.59395 34.232C6.08808 34.232 8.55166 33.7954 10.8832 32.9556C8.90743 34.7088 7.26301 36.8141 6.04162 39.1812C5.75553 39.7361 5.83624 40.4111 6.24581 40.8829C7.90611 42.7963 9.84152 44.4371 12.0007 45.76C12.1804 45.8701 12.3613 45.9776 12.5435 46.0827C12.7257 46.1879 12.9078 46.2894 13.0888 46.3884C13.2098 46.4544 13.3309 46.5192 13.4592 46.5864C13.5778 46.6475 13.6976 46.71 13.8285 46.7761C13.9519 46.8372 14.0742 46.897 14.1916 46.9544C14.1928 46.9544 14.1953 46.9556 14.1965 46.9569C14.2001 46.9593 14.205 46.9606 14.2087 46.963C14.3028 47.0083 14.4006 47.0548 14.5009 47.1025C14.6439 47.1685 14.7931 47.237 14.952 47.3077C14.963 47.3127 14.9741 47.3164 14.9851 47.3213C15.7284 47.6489 16.5011 47.9437 17.2799 48.1979C17.4046 48.2382 17.5293 48.2785 17.6601 48.3201C17.6638 48.3201 17.6675 48.3225 17.6711 48.3238C17.6711 48.3238 17.6724 48.3238 17.6736 48.3238C17.6748 48.3238 17.6761 48.3238 17.6773 48.3238C17.8717 48.3838 18.0586 48.4387 18.2446 48.4901C18.3264 48.5134 18.4095 48.5366 18.4916 48.5586C18.6296 48.5965 18.7666 48.6319 18.9023 48.6662C18.9585 48.6808 19.0136 48.6967 19.071 48.7102L19.1555 48.731C19.1701 48.7347 19.1847 48.7382 19.1983 48.7419L19.2203 48.7468C19.2203 48.7468 19.23 48.7493 19.2336 48.7505L19.3229 48.7713C19.3229 48.7713 19.3291 48.7725 19.3315 48.7738L19.4159 48.7933C19.4856 48.8104 19.5539 48.8262 19.6224 48.841H19.6248C19.6261 48.841 19.6285 48.841 19.631 48.8423C19.6481 48.846 19.6676 48.8507 19.6872 48.8544C19.697 48.8569 19.7067 48.8581 19.7178 48.8606C19.7203 48.8606 19.7227 48.8606 19.7252 48.8618L19.7472 48.8667L19.8034 48.8789C19.8034 48.8789 19.8108 48.8801 19.8145 48.8813C19.8167 48.8813 19.8192 48.8813 19.8217 48.8826L19.8572 48.89C19.9453 48.9083 20.0333 48.9266 20.1213 48.9449C20.268 48.9743 20.4159 49.0035 20.5675 49.0305L20.9196 49.0928C20.9428 49.0965 20.9648 49.1002 20.988 49.1039L21.0909 49.1197H21.0921C21.0921 49.1197 21.0932 49.1197 21.0944 49.1197C21.0969 49.1197 21.0981 49.1197 21.1018 49.1197C21.1018 49.1197 21.1018 49.1197 21.103 49.1197C21.1042 49.1197 21.1055 49.1197 21.1067 49.1197C21.1067 49.1197 21.1079 49.1197 21.1092 49.1197H21.1141C21.1141 49.1197 21.1238 49.1222 21.1287 49.1234L21.1616 49.1283C21.2143 49.1368 21.2669 49.1454 21.3231 49.1541C21.4331 49.1711 21.5456 49.187 21.6569 49.2016C21.6678 49.2041 21.6801 49.2041 21.691 49.2065C21.6947 49.2065 21.6997 49.2065 21.7034 49.2077C21.7118 49.209 21.7217 49.2102 21.7303 49.2114C21.7351 49.2114 21.7388 49.2127 21.7437 49.2139L21.7608 49.2164C21.7608 49.2164 21.7645 49.2164 21.7657 49.2164L21.9027 49.2335C21.9625 49.2408 22.0236 49.2493 22.0775 49.2555C22.0775 49.2555 22.0775 49.2555 22.0787 49.2555C22.08 49.2555 22.0824 49.2555 22.0835 49.2555C22.0847 49.2555 22.0859 49.2555 22.0872 49.2555C22.2437 49.275 22.399 49.2921 22.5506 49.3056C22.5518 49.3056 22.5542 49.3056 22.5555 49.3056C22.6484 49.3141 22.7402 49.3239 22.8317 49.3312C22.8329 49.3312 22.8342 49.3312 22.8354 49.3312H22.8379C22.8722 49.3349 22.9076 49.3373 22.943 49.341C22.9442 49.341 22.9467 49.341 22.9479 49.341C22.9773 49.3447 23.0078 49.346 23.0384 49.3484C23.0421 49.3484 23.0458 49.3484 23.0495 49.3484C23.0507 49.3484 23.0518 49.3484 23.053 49.3484C23.0555 49.3484 23.0579 49.3484 23.0604 49.3484C23.0653 49.3484 23.0715 49.3484 23.0775 49.3484C23.1435 49.3532 23.2095 49.3581 23.2756 49.363C23.2768 49.363 23.2792 49.363 23.2805 49.363C23.3747 49.3704 23.4699 49.3752 23.5641 49.3813C23.58 49.3813 23.5972 49.3838 23.613 49.385C23.6155 49.385 23.6192 49.385 23.6217 49.385C23.624 49.385 23.6264 49.385 23.6277 49.385C23.6289 49.385 23.6314 49.385 23.6326 49.385C23.668 49.3875 23.7048 49.3887 23.7402 49.39C23.8245 49.3949 23.9078 49.3997 23.9921 49.4021C23.9993 49.4021 24.0067 49.4021 24.0129 49.4021C24.0141 49.4021 24.0166 49.4021 24.0178 49.4021C24.074 49.4046 24.1301 49.407 24.1865 49.4095C24.1914 49.4095 24.1961 49.4095 24.2011 49.4095C24.2011 49.4095 24.2011 49.4095 24.2023 49.4095C24.2611 49.412 24.3197 49.4132 24.3747 49.4144C24.3747 49.4144 24.3771 49.4144 24.3784 49.4144C24.3833 49.4144 24.3895 49.4144 24.3942 49.4144C24.3942 49.4144 24.3942 49.4144 24.3954 49.4144C24.4701 49.4169 24.5447 49.4192 24.6192 49.4192C24.6425 49.4192 24.6669 49.4192 24.6902 49.4192C24.7745 49.4204 24.8588 49.4229 24.9421 49.4229C24.9689 49.4229 24.9946 49.4229 25.0215 49.4229C25.0336 49.4229 25.0472 49.4229 25.0594 49.4229C25.0826 49.4229 25.1071 49.4229 25.1303 49.4229C25.1976 49.4229 25.266 49.4229 25.3333 49.4204H25.3858C25.4176 49.4204 25.4483 49.4204 25.4775 49.4181C25.4995 49.4181 25.5227 49.4181 25.5447 49.4181H25.5838C25.5961 49.4181 25.6095 49.4181 25.6219 49.4169H25.6756C25.6879 49.4144 25.7 49.4144 25.7123 49.4144C25.7257 49.4144 25.7391 49.4144 25.7527 49.4132C25.766 49.4132 25.7784 49.4132 25.7917 49.412C25.8308 49.412 25.8711 49.4095 25.9104 49.4083H25.9347C26.046 49.4033 26.1572 49.3996 26.2685 49.3937C26.2954 49.3937 26.3211 49.3912 26.3481 49.39C26.4483 49.385 26.5474 49.3789 26.6463 49.3729L26.7027 49.3692C26.7027 49.3692 26.7111 49.3692 26.716 49.3692C26.8713 49.3581 27.0266 49.3472 27.1831 49.3324C27.2821 49.3239 27.3812 49.3141 27.4801 49.3044C27.5303 49.2995 27.5805 49.2945 27.6292 49.2896C27.6465 49.2871 27.6648 49.2861 27.6831 49.2849C27.7125 49.2824 27.7405 49.2787 27.7699 49.275C27.787 49.2725 27.8055 49.2713 27.8238 49.2688C27.8347 49.2676 27.8446 49.2664 27.8555 49.2651C27.8678 49.2641 27.88 49.2629 27.8923 49.2616C27.8946 49.2616 27.8983 49.2616 27.9007 49.2616C27.9227 49.2592 27.9423 49.2567 27.9631 49.2542C27.9667 49.2542 27.9717 49.2542 27.9754 49.253L28.0389 49.2456C28.1146 49.2359 28.1905 49.2273 28.2652 49.2176C28.3055 49.2127 28.3446 49.2077 28.3836 49.2016C28.4375 49.1944 28.4925 49.187 28.5463 49.1783C28.5817 49.1736 28.6185 49.1687 28.6564 49.1625C28.7041 49.1563 28.7506 49.1491 28.8006 49.1405C28.8055 49.1405 28.8116 49.1393 28.8166 49.138C28.8483 49.1331 28.8814 49.1283 28.9094 49.1234C28.9828 49.1111 29.0586 49.0989 29.1331 49.0868C29.1747 49.0806 29.215 49.0732 29.2567 49.066L29.2896 49.0599C29.2896 49.0599 29.3007 49.0574 29.303 49.0574C29.3495 49.0488 29.396 49.0416 29.4412 49.0329C29.5085 49.022 29.5745 49.0097 29.6417 48.9951C29.7102 48.9827 29.7775 48.9681 29.8447 48.956C29.8851 48.9486 29.9254 48.94 29.9657 48.9328C30.0025 48.9254 30.0391 48.918 30.0757 48.9095C30.1969 48.885 30.319 48.8581 30.4402 48.8299C30.4474 48.8287 30.4548 48.8262 30.4609 48.8252C30.4609 48.8252 30.4634 48.8252 30.4646 48.8252C30.4731 48.8239 30.4805 48.8215 30.4891 48.819C30.5208 48.8116 30.5527 48.8042 30.5844 48.797C30.588 48.797 30.5905 48.7958 30.5942 48.7945C30.5979 48.7945 30.6014 48.7933 30.6051 48.7921C30.6234 48.7884 30.6419 48.7835 30.659 48.7799C30.7067 48.7688 30.7532 48.7579 30.8007 48.7456C30.8094 48.7431 30.818 48.7419 30.8264 48.7394C30.8301 48.7394 30.8338 48.7382 30.8363 48.737C30.8484 48.7347 30.8608 48.731 30.8729 48.7285C30.8815 48.7261 30.8912 48.7248 30.8986 48.7224C30.9011 48.7224 30.9048 48.7211 30.9072 48.7199C30.9268 48.715 30.9463 48.7102 30.9659 48.7053C30.9696 48.7053 30.9733 48.7041 30.9768 48.7028C31.0697 48.6808 31.1615 48.6563 31.2532 48.6331C31.2532 48.6331 31.2532 48.6331 31.2544 48.6331C31.2789 48.6269 31.3021 48.621 31.3266 48.6148H31.3204C31.3338 48.6123 31.3486 48.6099 31.362 48.6049C31.4194 48.5903 31.477 48.5745 31.5344 48.5574C31.5454 48.5537 31.5564 48.5512 31.5675 48.5488L31.7215 48.506C31.7215 48.506 31.73 48.5035 31.7349 48.5023C31.8461 48.4706 31.9574 48.4387 32.0687 48.4058C32.0895 48.3997 32.1127 48.3923 32.1396 48.3838C32.268 48.3458 32.3976 48.3055 32.5247 48.2639C32.6604 48.2211 32.7949 48.1771 32.922 48.1343C33.0407 48.0953 33.1604 48.0537 33.2754 48.0132L33.3928 47.9717C33.5088 47.9301 33.6263 47.8873 33.7425 47.8421C33.8231 47.8127 33.9037 47.781 33.9833 47.7491C33.9991 47.7431 34.0162 47.737 34.0322 47.7308C34.0738 47.715 34.1153 47.6991 34.1569 47.6819C34.1764 47.6747 34.196 47.666 34.2155 47.6586C34.2266 47.6539 34.2375 47.6502 34.2498 47.6452C34.3023 47.6245 34.3562 47.6025 34.4099 47.5805C34.5738 47.5132 34.7461 47.4398 34.9333 47.3592C35.0384 47.3139 35.1423 47.2674 35.2461 47.2197C35.3025 47.1954 35.3574 47.1697 35.4125 47.144C35.4271 47.1379 35.443 47.1305 35.4578 47.1232C35.4602 47.122 35.4627 47.1208 35.465 47.1195C35.5592 47.0768 35.6534 47.0315 35.7476 46.9863C35.8576 46.9336 35.9652 46.8799 36.0752 46.8261C36.0849 46.8213 36.0935 46.8176 36.1032 46.8127C36.1143 46.8077 36.1252 46.8016 36.1375 46.7956C36.1484 46.7894 36.1608 46.7845 36.1717 46.7784C36.2659 46.732 36.3588 46.6831 36.4518 46.6354C36.4639 46.6292 36.475 46.6232 36.4859 46.6171C36.541 46.5889 36.596 46.5595 36.6523 46.5291C36.8711 46.4153 37.0972 46.2894 37.3405 46.15C37.4604 46.0815 37.5801 46.0118 37.7 45.941C37.7428 45.9153 37.7856 45.8896 37.8296 45.8627C37.9641 45.7808 38.1071 45.6928 38.2623 45.5949L38.2722 45.5889C38.3016 45.5704 38.3308 45.5534 38.3615 45.5338C40.4974 44.1755 42.4058 42.5067 44.0319 40.5761C44.4354 40.0968 44.5064 39.4195 44.2092 38.8681C44.0527 38.5771 43.9048 38.3143 43.7557 38.0636C42.5453 36.0243 41.0476 34.2588 39.3469 32.7843C41.4094 33.4201 43.5588 33.7467 45.7227 33.7467C46.2046 33.7467 46.6863 33.7306 47.168 33.6977C47.7817 33.6562 48.3111 33.2514 48.5104 32.6706C49.3417 30.256 49.7977 27.741 49.8662 25.1956C49.8675 25.1357 49.8675 25.0759 49.8687 25.0146C49.8687 24.9498 49.8711 24.8838 49.8724 24.8153C49.8724 24.7982 49.8724 24.7812 49.8724 24.7653H49.8748ZM41.5379 10.325C41.5916 10.3873 41.6454 10.4497 41.6979 10.512C41.7016 10.5169 41.7065 10.5218 41.7102 10.5267C41.7812 10.611 41.852 10.6966 41.9204 10.7822C41.9291 10.792 41.9375 10.8042 41.9474 10.8152C41.9498 10.8177 41.9523 10.8201 41.9535 10.8238C42.0072 10.8898 42.0586 10.9546 42.1088 11.017C42.1956 11.1282 42.2824 11.2395 42.368 11.352C42.4157 11.4131 42.4609 11.4754 42.5062 11.5378C42.5062 11.5378 42.5074 11.539 42.5074 11.5402L42.5171 11.5525C42.5537 11.6014 42.5905 11.6503 42.6259 11.7016C42.6345 11.7138 42.643 11.7261 42.6528 11.7383C42.659 11.7481 42.6662 11.7566 42.6736 11.7664C42.7176 11.8251 42.7592 11.885 42.802 11.9461L42.8423 12.0024C42.8423 12.0024 42.8435 12.0048 42.8447 12.0048L42.8583 12.0244C42.8851 12.0635 42.9132 12.1026 42.9402 12.1418C42.9486 12.154 42.9572 12.1662 42.9659 12.1772C42.9706 12.1845 42.9756 12.1919 42.9817 12.2004C42.9866 12.2078 42.9916 12.2139 42.9963 12.2212L43.0171 12.2518C43.0257 12.2653 43.0356 12.2799 43.044 12.2934C43.0734 12.3361 43.1027 12.3789 43.1296 12.4217C43.1432 12.4425 43.1565 12.4621 43.1711 12.4829C43.1711 12.4829 43.1724 12.4853 43.1736 12.4865C43.181 12.4975 43.1872 12.5085 43.1944 12.5183C43.2287 12.5697 43.2641 12.6222 43.2984 12.6773L43.3534 12.7641C43.3608 12.7751 43.368 12.7873 43.3754 12.7983C43.3803 12.8056 43.3852 12.8142 43.39 12.8215C43.3998 12.8386 43.4132 12.8594 43.4243 12.8766L43.4414 12.9022C43.4537 12.9218 43.4646 12.9413 43.478 12.9597C43.4829 12.9682 43.4879 12.9756 43.494 12.9841C43.516 13.0184 43.5368 13.0514 43.5576 13.0856C43.5601 13.0893 43.5613 13.0917 43.5625 13.0954C43.5685 13.1064 43.5759 13.1174 43.5821 13.1284C43.6407 13.2238 43.6993 13.3204 43.7569 13.4157C43.8081 13.5013 43.8583 13.5881 43.9085 13.6749C43.9085 13.6774 43.9109 13.6786 43.9122 13.681C43.9206 13.6969 43.9305 13.714 43.9402 13.7299L43.9426 13.7348C43.9646 13.7715 43.9842 13.807 44.0039 13.8436C44.0086 13.8522 44.0136 13.862 44.0197 13.8718C44.027 13.8852 44.0344 13.8974 44.0417 13.9109C44.0699 13.9598 44.0979 14.0087 44.1236 14.0576C44.131 14.0698 44.1382 14.0845 44.1456 14.0979C44.1481 14.1028 44.1518 14.1089 44.1542 14.1138C44.1615 14.1285 44.1701 14.142 44.1763 14.1542C44.1872 14.1774 44.1995 14.1994 44.2116 14.2214C44.2153 14.2275 44.219 14.2349 44.2227 14.2422C44.2447 14.2813 44.2655 14.3205 44.2863 14.3596L44.3009 14.3865C44.3009 14.3865 44.3046 14.395 44.3071 14.3987C44.3254 14.4342 44.3437 14.4684 44.362 14.5039C44.3694 14.5185 44.3768 14.5332 44.3852 14.5479C44.3852 14.5479 44.3852 14.5491 44.3865 14.5503L44.3988 14.576C44.3988 14.576 44.4048 14.587 44.4072 14.5919C44.4354 14.6445 44.4623 14.697 44.4881 14.7508C44.4916 14.7594 44.4965 14.7679 44.5002 14.7765C44.5113 14.7985 44.5234 14.8205 44.5344 14.8437C44.5381 14.8511 44.5417 14.8584 44.5454 14.8657C44.5907 14.9574 44.6359 15.0479 44.68 15.1408L44.6836 15.1469C44.6836 15.1469 44.6836 15.1494 44.6849 15.1506C44.6946 15.1726 44.7044 15.1934 44.7153 15.2142C44.7277 15.2386 44.7398 15.2631 44.7509 15.2875C44.7581 15.3047 44.7655 15.3205 44.7741 15.3377C44.79 15.3719 44.8058 15.4061 44.8217 15.4404C44.8352 15.4697 44.8486 15.4991 44.8634 15.5284C44.8622 15.5247 44.8609 15.5223 44.8597 15.5198C44.8572 15.515 44.8548 15.5113 44.8548 15.5113C44.8597 15.5211 44.8632 15.5308 44.8682 15.5419C44.8951 15.5981 44.9196 15.6555 44.944 15.7118C44.949 15.724 44.955 15.7363 44.9611 15.7485C44.9819 15.7925 45.0002 15.8353 45.0185 15.8781C45.0185 15.8793 45.0197 15.8817 45.021 15.883C45.021 15.8842 45.0222 15.8866 45.0234 15.8879C45.0417 15.9306 45.0602 15.9747 45.0785 16.0187C45.109 16.0896 45.1384 16.1593 45.1678 16.2302C45.175 16.2485 45.1812 16.2656 45.1898 16.284C45.2338 16.3867 45.2741 16.4882 45.3145 16.5921C45.3194 16.6031 45.3231 16.6153 45.3278 16.6263C45.3278 16.6263 45.3278 16.6263 45.3278 16.6275C45.3303 16.6324 45.3315 16.6373 45.334 16.6434C45.3426 16.6654 45.3498 16.6862 45.3585 16.7082C43.9122 16.597 42.5648 15.7949 41.7896 14.4892C41.0219 13.1957 40.9571 11.6417 41.5366 10.325H41.5379ZM37.837 6.9102C37.98 7.01412 38.1268 7.12414 38.2784 7.2403C38.3798 7.31854 38.4836 7.39923 38.5925 7.48483C38.6305 7.51416 38.6683 7.54596 38.7062 7.57652L38.7442 7.60708C38.7442 7.60708 38.7539 7.61564 38.7601 7.61932C38.8333 7.678 38.9079 7.73912 38.9801 7.80025L38.9923 7.81004C39.0388 7.84794 39.0852 7.88583 39.1292 7.92497C39.1354 7.92985 39.1403 7.93474 39.1463 7.93963C39.194 7.97999 39.243 8.02277 39.2907 8.06434C37.7685 10.4472 37.6743 13.5417 39.1623 16.048C40.5609 18.4041 43.0734 19.7769 45.7069 19.7769C45.9 19.7769 46.0933 19.7685 46.2877 19.7537C46.2877 19.7574 46.2889 19.7611 46.2902 19.7648C46.2974 19.7977 46.306 19.832 46.3134 19.865C46.3134 19.8662 46.3134 19.8674 46.3134 19.8699C46.3146 19.8761 46.3157 19.8833 46.3169 19.8894C46.3354 19.9725 46.3525 20.0521 46.3683 20.1315C46.4039 20.3051 46.4368 20.4727 46.4675 20.6364C46.4907 20.76 46.5102 20.8835 46.5322 21.0106C46.5322 21.0155 46.5335 21.0204 46.5347 21.0266C46.5469 21.0974 46.5578 21.1695 46.5689 21.2417C46.5822 21.3335 46.597 21.4275 46.6104 21.5241C46.6215 21.5998 46.6312 21.6757 46.641 21.7539C46.6569 21.8775 46.6715 22.0033 46.6863 22.128C46.7131 22.3653 46.7363 22.6158 46.7558 22.8666C46.7657 22.9937 46.7743 23.1195 46.7815 23.2468C46.7889 23.3678 46.7951 23.4901 46.8 23.6111C46.8 23.6136 46.8 23.616 46.8 23.6185C46.8023 23.6917 46.8048 23.7627 46.8072 23.8299C46.8072 23.8324 46.8072 23.8349 46.8072 23.8373C42.3361 24.2579 37.9555 22.0706 35.6252 18.146C33.3145 14.2557 33.4734 9.38965 35.9358 5.67412C35.981 5.70103 36.0275 5.72669 36.074 5.75483C36.0997 5.76949 36.1254 5.78416 36.1509 5.80006C36.2231 5.84286 36.2953 5.88687 36.3685 5.9321C36.3784 5.93821 36.3882 5.9431 36.3979 5.94921C36.4578 5.9859 36.5178 6.02258 36.5777 6.06048C36.5826 6.06293 36.5873 6.06659 36.5923 6.06904C36.6546 6.10694 36.7171 6.14606 36.7782 6.18641C36.7856 6.19129 36.7916 6.19497 36.799 6.19985C36.8747 6.24754 36.9493 6.29645 37.0227 6.34534C37.0287 6.34902 37.0349 6.3539 37.041 6.35758C37.2513 6.49573 37.4421 6.62655 37.6291 6.75981L37.8382 6.90897L37.837 6.9102ZM10.1777 8.54728C10.2523 8.47759 10.3281 8.40789 10.41 8.33576L10.4858 8.26853C10.5653 8.19761 10.646 8.12669 10.7267 8.05823C10.7316 8.05333 10.7377 8.04845 10.7426 8.04356C10.8049 7.98976 10.8673 7.93597 10.9309 7.8834C10.9419 7.87483 10.9516 7.86627 10.9626 7.8565C10.9834 7.83816 11.0042 7.81981 11.0262 7.8027C11.0421 7.78925 11.058 7.7758 11.0739 7.76236L11.0813 7.75624C11.0813 7.75624 11.0886 7.75013 11.0923 7.74647C11.168 7.68411 11.2439 7.62298 11.3245 7.55817C11.4884 7.42613 11.6571 7.29409 11.8515 7.1486C11.8869 7.12171 11.9212 7.09481 11.9579 7.06914C11.9799 7.05324 12.0031 7.03611 12.0251 7.019C12.0923 6.96888 12.1596 6.91997 12.2293 6.86985L12.2415 6.86129C12.3369 6.79161 12.4335 6.72435 12.5313 6.65588C12.5447 6.64733 12.5569 6.63877 12.5704 6.62898C12.6401 6.58009 12.711 6.5324 12.7819 6.48472C12.8039 6.47127 12.8247 6.45661 12.8455 6.44192C12.8809 6.41749 12.9176 6.39425 12.9543 6.36979C12.9616 6.3649 12.969 6.36002 12.9763 6.35513C13.0252 6.32212 13.0766 6.28787 13.1291 6.25486C13.1426 6.24631 13.1572 6.23654 13.1707 6.22798C13.211 6.20229 13.2526 6.17541 13.2954 6.14851C13.3027 6.14361 13.3101 6.13995 13.3162 6.13506C13.4299 6.30622 13.5399 6.47983 13.6438 6.65588C15.243 9.34932 15.6978 12.5036 14.9239 15.5382C14.15 18.5727 12.2415 21.1255 9.54809 22.7247C7.59435 23.885 5.41687 24.4412 3.18437 24.3643C3.18437 24.3312 3.18437 24.2982 3.18437 24.2651C3.18437 24.2518 3.18437 24.2384 3.18437 24.2248C3.18682 24.0989 3.1905 23.9731 3.19294 23.8581C3.19782 23.7357 3.20272 23.6148 3.20882 23.4937C3.20882 23.4914 3.20882 23.4889 3.20882 23.4852C3.21983 23.2664 3.23573 23.028 3.25652 22.7578C3.26263 22.6806 3.27118 22.6037 3.27853 22.5266C3.2883 22.4227 3.29685 22.3201 3.30909 22.216C3.3103 22.2039 3.31275 22.1905 3.31398 22.1782C3.33231 22.0095 3.3531 21.8408 3.37511 21.6732C3.42402 21.3114 3.48148 20.9495 3.5475 20.59C3.56828 20.4762 3.59029 20.3651 3.61229 20.2539C4.95351 20.2453 6.27759 19.8822 7.4452 19.1889C9.19353 18.1509 10.4333 16.493 10.9358 14.5234C11.4382 12.5526 11.1424 10.5047 10.1044 8.75634C10.086 8.72578 10.0653 8.69522 10.0469 8.66465C10.0873 8.62675 10.1288 8.58763 10.1728 8.54728H10.1777ZM5.89002 16.5615C5.45722 16.8183 4.98897 16.9992 4.50358 17.1019C4.52192 17.0493 4.54148 16.998 4.56104 16.9454C4.58305 16.8855 4.60506 16.8244 4.62706 16.7645C4.63073 16.7547 4.63562 16.7449 4.63928 16.7351C4.67719 16.6361 4.71509 16.5383 4.75544 16.4392C4.80557 16.3121 4.85814 16.1874 4.91194 16.059C4.94495 15.982 4.97673 15.9062 5.00974 15.8304C5.00974 15.8304 5.00974 15.8279 5.01097 15.8267C5.0183 15.812 5.02441 15.7974 5.03053 15.7827C5.03909 15.7631 5.04764 15.7436 5.0562 15.7253C5.06965 15.6947 5.0831 15.6641 5.09655 15.6335C5.10511 15.614 5.11367 15.5944 5.12344 15.5736L5.12956 15.559C5.14178 15.5308 5.15402 15.5027 5.16745 15.4758C5.17235 15.466 5.17724 15.455 5.1809 15.4453L5.19435 15.4147C5.20169 15.4 5.2078 15.3866 5.21391 15.3719C5.21391 15.3695 5.21514 15.3682 5.21636 15.367L5.22125 15.3572C5.23104 15.3377 5.2396 15.3193 5.24937 15.2998C5.27506 15.2435 5.30073 15.1885 5.32763 15.1335C5.3374 15.1139 5.34719 15.0932 5.35574 15.0724C5.36185 15.0614 5.36551 15.0504 5.37164 15.0381L5.39853 14.9843C5.40587 14.9697 5.41321 14.9538 5.42053 14.9379C5.42421 14.9293 5.42787 14.922 5.43277 14.9147C5.43888 14.9012 5.44622 14.889 5.45233 14.8755C5.45478 14.8706 5.45722 14.8657 5.45967 14.8608C5.46578 14.8486 5.47312 14.8352 5.47923 14.823C5.50979 14.7606 5.54036 14.7007 5.57215 14.6396C5.57703 14.631 5.58192 14.6212 5.58682 14.6114C5.58803 14.6078 5.59048 14.6053 5.59171 14.6017C5.59171 14.6017 5.59293 14.5968 5.59416 14.5955C5.59782 14.5894 5.60148 14.5821 5.60393 14.576C5.62104 14.543 5.63817 14.5087 5.65529 14.477C5.66506 14.4586 5.67606 14.4366 5.68585 14.4183L5.69319 14.4036C5.70175 14.3889 5.70907 14.3742 5.71641 14.3584C5.72252 14.3461 5.72865 14.3339 5.73597 14.3229C5.74453 14.3082 5.75309 14.2923 5.76043 14.2777C5.7861 14.2288 5.81178 14.1799 5.83868 14.1322C5.84356 14.1236 5.84845 14.1138 5.85335 14.1053L5.8937 14.0295C5.94259 13.9414 5.9915 13.8534 6.04286 13.7629L6.1431 13.5881C6.16145 13.5563 6.17979 13.5245 6.19812 13.494C6.2018 13.4879 6.20546 13.4817 6.20791 13.4769C6.21523 13.4646 6.22381 13.4512 6.23113 13.4389C6.28983 13.3375 6.35217 13.236 6.41574 13.1333C6.53433 12.9389 6.65537 12.7482 6.77398 12.5685L6.78375 12.5538L6.88768 12.3973C6.89257 12.3912 6.89624 12.3851 6.8999 12.3777C6.9378 12.3215 6.97448 12.2653 7.01361 12.2102C7.01728 12.2053 7.02094 12.2004 7.02217 12.198C7.02706 12.1907 7.03194 12.1845 7.03684 12.1772C7.08085 12.1124 7.1261 12.0488 7.17132 11.9853L7.21655 11.9205C7.24101 11.885 7.26669 11.8495 7.29236 11.8153C7.29726 11.808 7.30215 11.8019 7.30703 11.7945C7.34983 11.7334 7.39384 11.6747 7.43786 11.6136C7.4452 11.6038 7.45131 11.5953 7.45863 11.5855C7.48553 11.5488 7.51365 11.5121 7.54055 11.4754C7.58212 11.4204 7.6237 11.3654 7.66772 11.3079L7.70194 11.2627C7.70928 11.2541 7.71539 11.2456 7.72273 11.2358C7.76307 11.1845 7.80342 11.1319 7.84377 11.0805C7.84377 11.0805 7.84377 11.0805 7.84377 11.0793C8.58344 13.0978 7.80463 15.4257 5.89002 16.5627V16.5615ZM3.37266 27.422C3.43257 27.422 3.49249 27.4257 3.55238 27.4257C6.19691 27.4257 8.82064 26.7141 11.1094 25.3546C14.5046 23.3384 16.9119 20.1206 17.8875 16.295C18.8632 12.4694 18.2898 8.49226 16.2737 5.09705C16.1906 4.95768 16.1038 4.81953 16.0157 4.68136C17.1797 4.15319 18.3863 3.72773 19.6236 3.41229C22.0432 7.61687 22.7145 12.5098 21.5138 17.2193C20.2912 22.0144 17.275 26.0465 13.0203 28.5725C10.333 30.168 7.3046 31.0544 4.20404 31.1595C3.81525 29.9394 3.53893 28.6886 3.37145 27.422H3.37266ZM27.9667 46.1757C27.9558 46.1769 27.941 46.1794 27.9301 46.1806C27.9143 46.1831 27.8983 46.1842 27.8812 46.1866C27.875 46.1866 27.869 46.1879 27.8629 46.1891C27.7969 46.1977 27.7308 46.2062 27.6648 46.2136L27.5914 46.2222C27.5914 46.2222 27.5829 46.2222 27.578 46.2234H27.5731C27.5645 46.2247 27.5572 46.2259 27.5486 46.2271C27.5315 46.2282 27.5145 46.2306 27.5046 46.2319C27.4569 46.238 27.4094 46.243 27.3616 46.2479C27.353 46.2479 27.3433 46.2502 27.3347 46.2502C27.2882 46.2551 27.243 46.26 27.1953 46.265C27.1893 46.265 27.1831 46.265 27.177 46.2662C27.0877 46.2746 26.9972 46.2833 26.9104 46.2919C26.7747 46.3041 26.6366 46.3139 26.4997 46.3236L26.4483 46.3273C26.359 46.3335 26.2685 46.3382 26.1792 46.3431C26.1745 46.3431 26.1708 46.3431 26.1659 46.3431C26.1488 46.3431 26.1329 46.3444 26.1157 46.3456C26.0217 46.3518 25.9275 46.3555 25.8271 46.3579H25.7868C25.7648 46.3602 25.744 46.3614 25.722 46.3614C25.7086 46.3614 25.6951 46.3614 25.6829 46.3614C25.5937 46.3651 25.5032 46.3664 25.4127 46.3676C25.4018 46.3676 25.3895 46.3676 25.3785 46.3676C25.3736 46.3676 25.3687 46.3676 25.3638 46.3676H25.2905C25.2453 46.3688 25.1988 46.3701 25.1535 46.3701C25.1365 46.3701 25.1194 46.3701 25.1009 46.3701C25.0081 46.3701 24.9152 46.3701 24.821 46.3688C24.8136 46.3688 24.8051 46.3688 24.7977 46.3688C24.7122 46.3688 24.6254 46.3676 24.5398 46.3639H24.53C24.5178 46.3639 24.5067 46.3639 24.4946 46.3639H24.4812C24.475 46.3639 24.4676 46.3639 24.4602 46.3639H24.4555C24.4555 46.3639 24.4506 46.3639 24.4481 46.3639C24.4322 46.3639 24.4162 46.3627 24.4016 46.3627C24.3356 46.3614 24.2708 46.3602 24.2048 46.3567C24.1914 46.3567 24.1766 46.3567 24.1632 46.3555C24.1583 46.3555 24.1521 46.3555 24.1474 46.3555C24.1412 46.3555 24.1338 46.3555 24.1278 46.3555C24.1229 46.3555 24.1192 46.3555 24.1143 46.3555C24.041 46.353 23.9689 46.3493 23.8954 46.3444C23.8808 46.3444 23.8697 46.3431 23.8588 46.3419C23.8013 46.3394 23.7426 46.3359 23.6852 46.3322C23.6791 46.3322 23.6729 46.3322 23.6669 46.331C23.6546 46.331 23.6425 46.3298 23.6314 46.3285C23.5507 46.3236 23.4689 46.3187 23.388 46.3127C23.3796 46.3127 23.3697 46.3114 23.3611 46.3102C23.3588 46.3102 23.3564 46.3102 23.3539 46.3102C23.3086 46.3065 23.2634 46.3028 23.2182 46.2991C23.1949 46.2967 23.1717 46.2954 23.1497 46.2931C23.1326 46.2919 23.1155 46.2907 23.0983 46.2894C23.0947 46.2894 23.091 46.2894 23.0861 46.2894C23.0042 46.282 22.9234 46.2747 22.8465 46.2674C22.7254 46.2551 22.6032 46.2417 22.4796 46.2271C22.3586 46.2136 22.2365 46.1965 22.1153 46.1806C22.1079 46.1806 22.0995 46.1782 22.0921 46.1782C22.0395 46.1708 21.9858 46.1622 21.9331 46.1549C21.8683 46.1451 21.8035 46.1366 21.74 46.1255C22.0615 45.7489 22.4442 45.4238 22.877 45.1671C23.9236 44.546 25.1498 44.3687 26.3285 44.6694C27.2321 44.8993 28.0255 45.3896 28.627 46.0766C28.6025 46.0803 28.5768 46.0852 28.5525 46.0889C28.5476 46.0889 28.5426 46.0901 28.5365 46.0914C28.4998 46.0974 28.462 46.1035 28.4227 46.1097L28.3384 46.1231C28.3006 46.1292 28.2627 46.1354 28.2236 46.1401C28.215 46.1401 28.2064 46.1426 28.1979 46.1438C28.1819 46.1463 28.166 46.1488 28.1502 46.15C28.1319 46.1525 28.1123 46.1549 28.0939 46.1574C28.0523 46.1634 28.0108 46.1695 27.9692 46.1757H27.9667ZM34.7902 44.0532C34.7768 44.0593 34.7645 44.0655 34.7523 44.0727C34.6447 44.1266 34.5384 44.1792 34.4307 44.2305C34.4259 44.2329 34.4222 44.2354 34.4173 44.2366C34.3416 44.2732 34.2669 44.3088 34.1923 44.343C34.1655 44.3541 34.1398 44.3662 34.1129 44.3796C34.0738 44.3993 34.0335 44.4164 33.9917 44.4359C33.987 44.4384 33.9821 44.4408 33.9771 44.4421C33.8916 44.4812 33.8072 44.519 33.7167 44.5581C33.4905 44.6572 33.2912 44.7403 33.1102 44.8125C33.103 44.815 33.0956 44.8187 33.0882 44.821L33.0822 44.8234C33.0627 44.8308 33.0432 44.8382 33.0234 44.8467C33.0101 44.8516 32.9967 44.8577 32.9893 44.8614C32.9623 44.8711 32.9354 44.881 32.9086 44.8919C32.8328 44.9225 32.7558 44.9518 32.6787 44.9799C32.6713 44.9824 32.6653 44.9849 32.6579 44.9873C32.559 45.0252 32.4574 45.0618 32.3597 45.0974L32.2557 45.134C32.1592 45.1683 32.0613 45.2025 31.955 45.2379C31.9035 45.2551 31.8523 45.271 31.8009 45.288C31.7826 45.2576 31.7667 45.2257 31.7483 45.1951C30.7104 43.4468 29.0525 42.207 27.0828 41.7046C25.112 41.2021 23.0641 41.4979 21.3157 42.5359C20.1481 43.2292 19.197 44.2183 18.5465 45.3919C18.4377 45.3578 18.3289 45.3236 18.2189 45.2868C18.1639 45.2685 18.1101 45.2502 18.0562 45.2319C17.9365 45.1916 17.8178 45.1523 17.6981 45.1095C17.6761 45.1023 17.6541 45.0937 17.6321 45.085C17.1417 44.909 16.6576 44.7171 16.1881 44.5106C16.1844 44.5093 16.1808 44.5081 16.1771 44.5056C15.9289 44.3944 15.7113 44.294 15.512 44.1988C15.4007 44.1449 15.2895 44.09 15.1892 44.041C15.0767 43.9835 14.963 43.9261 14.8591 43.8711C14.8151 43.8479 14.7723 43.8247 14.7295 43.8014C15.7296 41.8037 17.2603 40.1592 19.2141 39.0002C24.7733 35.6991 31.9819 37.5366 35.2829 43.096C35.3868 43.272 35.487 43.4505 35.5836 43.6326C35.574 43.6375 35.5653 43.6424 35.5555 43.6486C35.5139 43.6718 35.4736 43.6938 35.4333 43.7158C35.4187 43.7243 35.4027 43.7329 35.388 43.7403C35.3329 43.7695 35.2792 43.7989 35.2254 43.8271C35.2182 43.8306 35.2108 43.8356 35.2021 43.8393C35.163 43.8613 35.124 43.882 35.0849 43.9016C35.0629 43.9127 35.0409 43.9236 35.0201 43.9359C34.943 43.9762 34.8673 44.0153 34.7902 44.0532ZM40.9937 39.4012C40.1245 40.3377 39.172 41.1923 38.1523 41.9613C38.0741 41.8183 37.9947 41.6752 37.9115 41.5359C33.7497 34.5266 24.662 32.2109 17.6541 36.3727C15.3127 37.7629 13.3993 39.785 12.1339 42.1754C11.102 41.4222 10.1374 40.581 9.25222 39.6567C10.8294 36.9852 13.0558 34.7504 15.7431 33.1548C24.4518 27.9843 35.7206 30.794 40.9949 39.4025L40.9937 39.4012ZM17.9157 28.7681C21.1152 25.9317 23.3967 22.2088 24.4763 17.9748C24.552 17.6754 24.6217 17.3745 24.684 17.0738C25.1817 19.1877 26.002 21.2477 27.1513 23.182C28.3421 25.187 29.8386 26.9708 31.5759 28.4771C27.194 27.1236 22.3977 27.1592 17.9157 28.7681ZM37.2233 28.6336C34.1349 27.0467 31.5613 24.6222 29.78 21.6208C26.3981 15.9258 26.3101 8.96175 29.4877 3.21057C30.7495 3.47587 31.9807 3.85243 33.1715 4.33293C30.2812 8.9703 30.1565 14.9244 32.9979 19.7097C35.6949 24.2518 40.5731 26.9475 45.7167 26.9475C46.0395 26.9475 46.3634 26.9354 46.6875 26.9146C46.5481 28.191 46.2986 29.4528 45.9368 30.6887C42.9132 30.7243 39.924 30.0201 37.2245 28.6324L37.2233 28.6336Z" fill="white"/>
</g>
<defs>
<clipPath id="clip0_30_84">
<rect width="50" height="50" fill="white"/>
</clipPath>
</defs>
</svg>
