<?xml version="1.0" standalone="no"?>
<!DOCTYPE svg PUBLIC "-//W3C//DTD SVG 20010904//EN"
 "http://www.w3.org/TR/2001/REC-SVG-20010904/DTD/svg10.dtd">
<svg version="1.0" xmlns="http://www.w3.org/2000/svg"
 width="1280.000000pt" height="1280.000000pt" viewBox="0 0 1280.000000 1280.000000"
 preserveAspectRatio="xMidYMid meet">

<g transform="translate(0.000000,1280.000000) scale(0.100000,-0.100000)"
fill="#000000" stroke="none">
<path d="M3268 9120 c-73 -8 -156 -21 -283 -44 -11 -2 -28 -4 -38 -5 -10 0
-15 -6 -12 -11 4 -6 12 -7 18 -4 7 4 9 3 4 -1 -4 -5 7 -24 25 -42 43 -44 32
-50 -14 -7 -21 19 -34 34 -30 34 8 0 -20 20 -29 20 -4 0 -9 -9 -12 -20 -4 -14
2 -24 16 -32 12 -7 26 -11 30 -10 5 1 5 -2 2 -8 -7 -12 25 -41 36 -34 4 2 6
-4 5 -14 0 -9 6 -17 14 -17 25 -1 40 -15 33 -31 -4 -11 0 -15 13 -12 13 2 19
-3 19 -17 0 -11 7 -20 15 -20 25 -1 39 -15 33 -32 -5 -12 -2 -15 9 -11 8 4 21
2 29 -4 11 -8 10 -9 -3 -4 -15 5 -16 3 -5 -14 6 -11 18 -18 25 -15 7 3 11 1 8
-3 -7 -12 63 -84 75 -77 5 4 8 1 7 -7 -2 -7 2 -12 8 -11 7 1 11 -5 10 -15 0
-9 4 -16 11 -15 6 2 14 -5 17 -15 3 -9 16 -23 28 -31 13 -7 20 -10 16 -6 -4 5
-3 14 2 21 8 9 -2 24 -36 58 -26 25 -46 48 -43 50 4 5 119 -102 119 -110 0 -3
-7 -4 -16 -2 -31 5 -23 -32 13 -67 20 -19 40 -32 45 -29 4 3 8 2 7 -3 -4 -22
3 -33 19 -30 9 1 18 7 20 12 4 16 -27 47 -40 39 -6 -4 -8 -3 -4 4 3 6 -6 20
-20 31 -15 12 -24 25 -20 29 4 4 14 -1 21 -12 8 -10 19 -15 26 -10 7 4 10 3 5
-4 -3 -5 -3 -12 1 -14 5 -2 33 -30 63 -62 31 -32 45 -53 33 -47 -19 10 -23 9
-23 -4 0 -9 -5 -13 -11 -10 -6 4 -5 -2 3 -14 8 -14 20 -19 36 -16 20 3 22 2
11 -11 -19 -23 5 -44 26 -23 14 13 13 17 -5 37 -12 12 -17 22 -12 22 4 0 46
-38 92 -84 46 -47 88 -82 93 -79 6 3 7 2 4 -4 -9 -14 32 -55 45 -47 6 4 8 3 5
-3 -8 -13 97 -116 108 -106 4 5 6 1 3 -8 -6 -15 28 -46 45 -41 5 1 6 -1 3 -6
-3 -5 14 -27 37 -49 23 -23 49 -49 58 -59 36 -43 209 -204 219 -204 5 0 12 0
15 0 3 0 13 -7 23 -16 9 -8 49 -36 87 -61 201 -130 411 -360 513 -559 23 -46
81 -106 94 -98 5 3 7 1 6 -5 -3 -12 119 -141 133 -141 5 0 9 -7 9 -15 0 -9 6
-15 13 -13 7 2 14 -1 15 -7 2 -5 16 -24 33 -41 16 -17 26 -34 22 -39 -5 -4 -3
-5 3 -2 6 3 24 -7 39 -23 15 -16 33 -27 38 -23 6 3 7 2 4 -4 -3 -5 25 -40 63
-78 38 -38 66 -73 63 -78 -3 -6 -1 -7 5 -3 6 3 17 0 25 -8 8 -8 18 -12 23 -8
5 4 2 -2 -6 -12 -8 -11 -10 -17 -4 -13 6 3 28 -10 47 -31 20 -20 42 -43 49
-49 7 -7 53 -53 102 -103 49 -49 93 -87 99 -83 5 3 8 0 5 -7 -2 -8 4 -22 14
-32 10 -10 18 -24 18 -30 0 -7 -7 -2 -16 10 -8 12 -20 20 -25 17 -5 -4 -9 -1
-9 5 0 16 -133 145 -145 141 -5 -1 -7 1 -3 5 5 4 -1 14 -12 21 -11 8 -18 19
-15 24 4 5 2 9 -2 9 -14 0 -83 66 -83 79 0 6 -5 11 -10 11 -6 0 -58 47 -116
105 -57 58 -109 103 -114 100 -6 -4 -10 -3 -9 2 4 21 -3 32 -21 38 -11 3 -20
13 -20 21 0 13 -12 19 -33 15 -5 -1 -6 3 -2 8 3 6 -6 20 -20 33 -14 12 -25 28
-25 35 0 7 -7 13 -15 13 -8 0 -19 9 -25 20 -6 11 -17 20 -24 20 -8 0 -16 9
-19 21 -3 12 -10 18 -16 14 -6 -3 -16 6 -21 20 -7 18 -15 25 -25 21 -11 -4
-15 2 -15 19 0 15 -6 25 -15 25 -13 0 -12 -5 3 -37 9 -21 29 -50 44 -64 15
-15 24 -29 21 -33 -3 -3 0 -6 8 -6 8 0 27 -14 42 -30 16 -17 33 -27 38 -24 5
3 9 2 8 -3 -3 -20 15 -54 26 -49 7 2 18 -6 25 -20 8 -13 19 -24 27 -24 7 0 13
-9 13 -20 0 -11 6 -20 14 -20 7 0 29 -17 47 -38 19 -21 45 -46 59 -55 13 -9
21 -17 17 -17 -4 0 31 -38 79 -85 48 -46 91 -82 95 -79 5 3 7 -1 4 -8 -3 -7 8
-22 25 -33 16 -11 30 -23 30 -26 0 -3 38 -45 84 -92 47 -47 82 -88 79 -91 -4
-3 -1 -6 6 -6 7 0 19 -7 28 -15 11 -11 19 -13 28 -5 14 12 45 3 45 -12 0 -6
-6 -5 -15 2 -19 16 -34 5 -28 -20 3 -12 8 -19 10 -16 7 7 113 -98 113 -113 0
-7 4 -10 9 -7 4 3 16 -3 26 -14 10 -11 22 -17 26 -14 5 3 9 -7 9 -23 0 -19 3
-24 9 -15 7 11 9 10 15 -3 3 -9 11 -13 17 -9 8 4 9 3 5 -4 -7 -11 43 -74 88
-111 10 -9 26 -24 35 -33 16 -18 51 -25 51 -10 0 4 -24 31 -52 59 -29 28 -78
77 -108 107 -29 31 -60 56 -68 56 -7 0 -11 4 -8 8 3 5 -10 24 -29 42 -19 19
-35 38 -35 42 0 5 66 -57 148 -137 81 -80 150 -145 153 -145 18 0 64 265 80
455 54 645 -149 1312 -561 1845 -158 204 -437 463 -655 607 -345 229 -738 380
-1151 443 -159 24 -538 35 -686 20z m-222 -159 c-5 -8 42 -59 50 -53 2 1 12
-2 22 -7 13 -8 13 -10 2 -11 -8 0 0 -15 23 -38 20 -21 37 -42 37 -46 0 -5 -36
27 -79 70 -52 52 -75 81 -68 86 16 10 19 10 13 -1z m183 -193 c42 -45 39 -59
-4 -17 -31 31 -43 49 -31 49 3 0 19 -15 35 -32z m132 -85 c13 -16 12 -17 -3
-4 -10 7 -18 15 -18 17 0 8 8 3 21 -13z m2113 -2129 c3 -8 2 -12 -4 -9 -6 3
-10 10 -10 16 0 14 7 11 14 -7z m436 -484 c0 -5 -2 -10 -4 -10 -3 0 -8 5 -11
10 -3 6 -1 10 4 10 6 0 11 -4 11 -10z"/>
<path d="M3485 8470 c-4 -6 -11 -7 -17 -4 -6 4 -5 -2 1 -15 10 -17 16 -19 31
-11 11 6 17 16 14 25 -7 17 -20 19 -29 5z"/>
<path d="M3599 8368 c-6 -26 -5 -38 4 -38 5 0 8 -2 5 -5 -9 -9 104 -115 115
-108 6 3 7 1 3 -5 -4 -6 10 -27 30 -46 31 -29 40 -33 53 -24 13 10 14 10 4 -2
-19 -21 -16 -33 6 -27 15 3 18 1 14 -11 -4 -10 -2 -13 5 -8 8 4 10 2 6 -8 -3
-9 3 -19 16 -26 18 -10 21 -9 15 1 -5 8 -4 10 3 5 7 -4 12 -15 12 -26 0 -10 7
-21 16 -24 8 -3 12 -2 9 3 -3 5 0 13 6 17 14 8 -120 145 -135 137 -6 -3 -8 -3
-4 2 4 4 2 13 -5 20 -7 7 -44 46 -83 87 -65 69 -93 94 -95 86z"/>
<path d="M3924 8013 c1 -10 32 -48 70 -85 65 -65 85 -81 70 -56 -4 7 -3 8 5 4
6 -4 9 -11 6 -16 -3 -5 -1 -11 5 -15 6 -4 8 -11 5 -16 -4 -5 1 -9 9 -9 9 0 16
-5 16 -11 0 -6 9 -9 20 -6 11 3 18 1 15 -3 -3 -4 9 -13 25 -19 l31 -10 -21 29
c-12 16 -24 29 -28 27 -4 -1 -32 24 -61 55 -30 32 -58 55 -64 51 -5 -3 -7 -1
-4 4 7 11 -75 93 -91 93 -5 0 -9 -8 -8 -17z m51 -33 c3 -5 2 -10 -4 -10 -5 0
-13 5 -16 10 -3 6 -2 10 4 10 5 0 13 -4 16 -10z m29 -36 c3 -8 2 -12 -4 -9 -6
3 -10 10 -10 16 0 14 7 11 14 -7z"/>
<path d="M6882 7293 c-219 -600 -215 -1216 13 -1828 68 -185 205 -440 315
-590 28 -38 59 -81 68 -94 9 -13 62 -76 118 -140 108 -124 217 -230 329 -320
39 -31 72 -59 75 -62 13 -15 131 -96 214 -148 268 -167 561 -290 859 -361 362
-86 824 -92 1201 -15 120 24 313 79 328 94 8 7 -198 221 -213 221 -5 0 -9 7
-9 15 0 8 -4 15 -8 15 -5 0 -42 34 -83 75 -203 207 -707 708 -718 714 -7 5
-12 12 -12 17 0 5 -12 10 -27 10 -15 1 -34 4 -42 6 -8 3 -55 13 -104 23 -504
97 -951 474 -1131 952 -34 89 -72 243 -86 340 l-10 78 -126 127 c-70 70 -131
124 -136 121 -6 -3 -7 -2 -4 4 4 7 -701 724 -787 801 -2 1 -13 -24 -24 -55z
m2648 -2603 c0 -5 -2 -10 -4 -10 -3 0 -8 5 -11 10 -3 6 -1 10 4 10 6 0 11 -4
11 -10z m130 -165 c0 -2 -9 -3 -19 -2 -11 0 -18 5 -15 9 4 6 34 0 34 -7z"/>
</g>
</svg>
