<?xml version="1.0" encoding="UTF-8"?>
<svg xmlns="http://www.w3.org/2000/svg" xmlns:xlink="http://www.w3.org/1999/xlink" width="50px" height="50px" viewBox="0 0 50 50" version="1.1">
<defs>
<linearGradient id="linear0" gradientUnits="userSpaceOnUse" x1="12.1774" y1="3.13761" x2="35.3031" y2="44.487" >
<stop offset="0" style="stop-color:rgb(50.588235%,73.333333%,15.294118%);stop-opacity:1;"/>
<stop offset="1" style="stop-color:rgb(9.411765%,50.196078%,20.784314%);stop-opacity:1;"/>
</linearGradient>
<linearGradient id="linear1" gradientUnits="userSpaceOnUse" x1="3.60884" y1="7.70742" x2="11.6801" y2="7.70742" >
<stop offset="0" style="stop-color:rgb(50.588235%,73.333333%,15.294118%);stop-opacity:1;"/>
<stop offset="1" style="stop-color:rgb(9.411765%,50.196078%,20.784314%);stop-opacity:1;"/>
</linearGradient>
<linearGradient id="linear2" gradientUnits="userSpaceOnUse" x1="17.1505" y1="46.0879" x2="25.2218" y2="46.0879" >
<stop offset="0" style="stop-color:rgb(50.588235%,73.333333%,15.294118%);stop-opacity:1;"/>
<stop offset="1" style="stop-color:rgb(9.411765%,50.196078%,20.784314%);stop-opacity:1;"/>
</linearGradient>
<linearGradient id="linear3" gradientUnits="userSpaceOnUse" x1="41.9288" y1="15.5253" x2="50" y2="15.5253" >
<stop offset="0" style="stop-color:rgb(50.588235%,73.333333%,15.294118%);stop-opacity:1;"/>
<stop offset="1" style="stop-color:rgb(9.411765%,50.196078%,20.784314%);stop-opacity:1;"/>
</linearGradient>
<linearGradient id="linear4" gradientUnits="userSpaceOnUse" x1="13.1788" y1="23.6361" x2="35.3696" y2="23.6361" >
<stop offset="0.35" style="stop-color:rgb(46.27451%,72.156863%,16.470588%);stop-opacity:1;"/>
<stop offset="1" style="stop-color:rgb(0%,46.666667%,23.529412%);stop-opacity:1;"/>
</linearGradient>
</defs>
<g id="surface1">
<path style=" stroke:none;fill-rule:nonzero;fill:url(#linear0);" d="M 24.316406 46.984375 C 10.90625 46.984375 0 36.445312 0 23.492188 C 0 10.539062 10.90625 0 24.316406 0 C 37.722656 0 48.628906 10.539062 48.628906 23.492188 C 48.628906 36.445312 37.722656 46.984375 24.316406 46.984375 Z M 24.316406 1.804688 C 11.933594 1.804688 1.863281 11.535156 1.863281 23.5 C 1.863281 35.464844 11.933594 45.1875 24.316406 45.1875 C 36.695312 45.1875 46.765625 35.457031 46.765625 23.5 C 46.765625 11.542969 36.695312 1.804688 24.316406 1.804688 Z M 24.316406 1.804688 "/>
<path style=" stroke:none;fill-rule:evenodd;fill:url(#linear1);" d="M 11.679688 7.707031 C 11.679688 9.867188 9.871094 11.621094 7.640625 11.621094 C 5.410156 11.621094 3.601562 9.867188 3.601562 7.707031 C 3.601562 5.546875 5.410156 3.796875 7.640625 3.796875 C 9.871094 3.796875 11.679688 5.546875 11.679688 7.707031 Z M 11.679688 7.707031 "/>
<path style=" stroke:none;fill-rule:evenodd;fill:url(#linear2);" d="M 25.222656 46.089844 C 25.222656 48.25 23.414062 50 21.183594 50 C 18.953125 50 17.144531 48.25 17.144531 46.089844 C 17.144531 43.925781 18.953125 42.183594 21.183594 42.183594 C 23.414062 42.183594 25.222656 43.933594 25.222656 46.089844 Z M 25.222656 46.089844 "/>
<path style=" stroke:none;fill-rule:evenodd;fill:url(#linear3);" d="M 50 15.523438 C 50 17.6875 48.191406 19.4375 45.960938 19.4375 C 43.730469 19.4375 41.921875 17.691406 41.921875 15.523438 C 41.921875 13.359375 43.730469 11.613281 45.960938 11.613281 C 48.191406 11.613281 50 13.363281 50 15.523438 Z M 50 15.523438 "/>
<path style=" stroke:none;fill-rule:nonzero;fill:url(#linear4);" d="M 30.953125 36.503906 C 32.628906 35.699219 34.125 34.605469 35.371094 33.277344 L 35.371094 14.015625 C 34.125 12.679688 32.632812 11.582031 30.953125 10.773438 L 30.953125 22.691406 L 17.558594 22.691406 L 17.558594 10.859375 C 15.894531 11.691406 14.410156 12.816406 13.179688 14.171875 L 13.179688 24.832031 C 13.179688 25.125 13.238281 25.40625 13.347656 25.667969 C 13.460938 25.925781 13.617188 26.15625 13.808594 26.34375 C 14.003906 26.53125 14.242188 26.6875 14.507812 26.800781 C 14.777344 26.917969 15.074219 26.976562 15.382812 26.976562 L 30.949219 26.976562 L 30.949219 36.511719 Z M 30.953125 36.503906 "/>
</g>
</svg>
